<svg width="300" height="40" viewBox="0 0 300 40" fill="none" xmlns="http://www.w3.org/2000/svg" version="1.1" id="svg8" style="fill:none">

<g transform="translate(130.000000, 0.000000) scale(2.000000 2.000000) "> 
<g id="g836"><path d="M10 0a10 10 0 1 1-.02 19.98A10 10 0 0 1 10 0z" id="path2" style="opacity:.953;fill:#65af9d;fill-opacity:1"/><path d="M10 19a9 9 0 1 0 0-18 9 9 0 0 0 0 18zm0 1a10 10 0 1 0 0-20 10 10 0 0 0 0 20z" id="path4" style="clip-rule:evenodd;opacity:.95;fill:#404040;fill-rule:evenodd"/></g><defs id="defs11"><clipPath id="clip0"><path d="M0 0h20v20H0V0z" fill="#fff" id="path8"/></clipPath></defs>
</g>


<g transform="translate(138.000000, 8.000000) scale(0.500000 0.500000) "> 
<path style="clip100-rule:evenodd;fill:#fff;fill-opacity:1;fill-rule:evenodd" d="M34 4a2 2 0 1 1-4 0 2 2 0 0 1 4 0zm0 12v-5a1 1 0 1 0 2 0V7a1 1 0 0 0-1-1h-6a1 1 0 0 0-1 1v4a1 1 0 1 0 2 0v5z" id="path8-3"/><path style="clip100-rule:evenodd;fill:#fff;fill-opacity:1;fill-rule:evenodd" d="M44 4a2 2 0 1 1-4 0 2 2 0 0 1 4 0zm0 12v-5a1 1 0 1 0 2 0V7a1 1 0 0 0-1-1h-6a1 1 0 0 0-1 1v4a1 1 0 1 0 2 0v5z" id="path8-6"/><path style="fill:#fff;fill-opacity:1;stroke-width:.99999994" d="M20 12L2 34h18z" id="path860"/><path style="fill:#fff;fill-opacity:1;stroke-width:.99999994" d="M22 34h12c0-4-1.92-8.28-4-10.9-2.02-2.6-5.22-5.79-8-7.1z" id="path858"/><path style="fill:#fff;fill-opacity:1;stroke-width:.99999994" d="M6 36v4c.59 0 1.55.66 2 1.03.46.36 1.52.97 2 .97s1.15-.33 2.01-1c.86-.66 1.52-.99 1.98-.99.48 0 1.15.33 2.01 1 .86.66 1.52.99 1.98.99.48 0 1.15-.33 2-1 .87-.66 1.54-.99 2.02-.99.46 0 1.12.33 1.98 1 .86.66 1.32.99 2.01.99.7 0 1.56-.55 2-.93.7-.6 1.3-1.03 2.01-1.07l4-4z" id="path2-3"/><path style="fill:#fff;fill-opacity:1;stroke-width:.99999994" d="M22 42c-.7.04-1.3.47-2.01 1.07-.44.38-1.3.93-2 .93s-1.15-.33-2.01-1c-.86-.66-1.52-.99-1.98-.99-.48 0-1.15.33-2.01 1-.86.66-1.53.99-2.01.99-.46 0-1.12-.33-1.98-1-.86-.66-1.53-.99-2.01-.99-.46 0-1.12.33-1.98 1-.86.66-1.53.99-2.01.99v2c.48 0 1.15-.33 2.01-1 .86-.66 1.52-.99 1.98-.99.48 0 1.15.33 2.01 1 .86.66 1.52.99 1.98.99.48 0 1.15-.33 2.01-1 .86-.66 1.53-.99 2.01-.99.46 0 1.12.33 1.98 1 .86.66 1.32.99 2.01.99.7 0 1.56-.55 2-.93.7-.6 1.3-1.03 2.01-1.07z" id="path2-3-5"/><path style="fill:#fff;fill-opacity:1;stroke-width:.99999994" d="M38 42c-.7.04-1.3.47-2.01 1.07-.44.38-1.3.93-2 .93s-1.15-.33-2.01-1c-.86-.66-1.52-.99-1.98-.99-.48 0-1.15.33-2.01 1-.86.66-1.53.99-2.01.99-.46 0-1.12-.33-1.98-1-.86-.66-1.53-.99-2.01-.99-.46 0-1.12.33-1.98 1-.86.66-1.53.99-2.01.99a5 5 0 0 1-2-.97c-.45-.37-1.41-1.03-2-1.03v2c.59 0 1.55.66 2 1.03.46.36 1.52.97 2 .97s1.15-.33 2.01-1c.86-.66 1.52-.99 1.98-.99.48 0 1.15.33 2.01 1 .86.66 1.52.99 1.98.99.48 0 1.15-.33 2.01-1 .86-.66 1.53-.99 2.01-.99.46 0 1.12.33 1.98 1 .86.66 1.32.99 2.01.99.7 0 1.56-.55 2-.93.7-.6 1.3-1.03 2.01-1.07v-2z" id="path2-3-5-5"/>
</g>

</svg>