<svg width="300" height="40" viewBox="0 0 300 40" fill="none" xmlns="http://www.w3.org/2000/svg" version="1.1" id="svg8" style="fill:none">

<g transform="translate(130.000000, 0.000000) scale(2.000000 2.000000) "> 
<g id="g836"><path d="M10 0a10 10 0 1 1-.02 19.98A10 10 0 0 1 10 0z" id="path2" style="opacity:.953;fill:#65af9d;fill-opacity:1"/><path d="M10 19a9 9 0 1 0 0-18 9 9 0 0 0 0 18zm0 1a10 10 0 1 0 0-20 10 10 0 0 0 0 20z" id="path4" style="clip-rule:evenodd;opacity:.95;fill:#404040;fill-rule:evenodd"/></g><defs id="defs11"><clipPath id="clip0"><path d="M0 0h20v20H0V0z" fill="#fff" id="path8"/></clipPath></defs>
</g>


<g transform="translate(138.000000, 8.000000) scale(0.500000 0.500000) "> 
<path style="clip100-rule:evenodd;fill:#fff;fill-opacity:1;fill-rule:evenodd;stroke:none" d="M34 4a2 2 0 1 1-4 0 2 2 0 0 1 4 0zm0 12v-5a1 1 0 1 0 2 0V7a1 1 0 0 0-1-1h-6a1 1 0 0 0-1 1v4a1 1 0 1 0 2 0v5z" id="path8-3"/><path style="clip100-rule:evenodd;fill:#fff;fill-opacity:1;fill-rule:evenodd;stroke:none" d="M44 4a2 2 0 1 1-4 0 2 2 0 0 1 4 0zm0 12v-5a1 1 0 1 0 2 0V7a1 1 0 0 0-1-1h-6a1 1 0 0 0-1 1v4a1 1 0 1 0 2 0v5z" id="path8-6-5"/><path d="M16 14.15c0-2.25 2.63-4.08 5.02-4.08 2.38 0 4.95 1.83 4.98 4.08V24l13.14 8.47c.46.3.86 1 .86 1.53l.03 3.83c-.33 1.3-.49 2.02-2.03 2.17l-12-4v4l3.38 1.43c.5.2.7.79.7 1.3v1.64c0 .5-.25.97-.67 1.28-.42.31-.97.42-1.48.3L21.02 44l-6.95 1.95a1.8 1.8 0 0 1-1.48-.3 1.6 1.6 0 0 1-.66-1.28v-1.64c0-.51.25-1 .69-1.3L16 40v-4L4 40c-1.81-.02-2.02-.96-2-2v-3.89c0-.53.58-1.39 1.04-1.7L16 24z" id="path2" style="clip100-rule:evenodd;fill:#fff;fill-opacity:1;fill-rule:evenodd;stroke-width:1"/>
</g>

</svg>