<svg width="300" height="35" viewBox="0 0 300 35" fill="none" xmlns="http://www.w3.org/2000/svg">

<g transform="translate(135.000000, 2.000000) scale(1.500000 1.500000) "> 
<g id="g836"><path d="M10 0a10 10 0 1 1-.02 19.98A10 10 0 0 1 10 0z" id="path2" style="opacity:.953;fill:#65af9d;fill-opacity:1"/><path d="M10 19a9 9 0 1 0 0-18 9 9 0 0 0 0 18zm0 1a10 10 0 1 0 0-20 10 10 0 0 0 0 20z" id="path4" style="clip-rule:evenodd;opacity:.95;fill:#404040;fill-rule:evenodd"/></g><defs id="defs11"><clipPath id="clip0"><path d="M0 0h20v20H0V0z" fill="#fff" id="path8"/></clipPath></defs>
</g>


<g transform="translate(141.000000, 8.000000) scale(0.375000 0.375000) "> 
<path style="clip100-rule:evenodd;fill:#fff;fill-opacity:1;fill-rule:evenodd;stroke:none" d="M30 4a2 2 0 1 1-4 0 2 2 0 0 1 4 0zm0 12v-5a1 1 0 1 0 2 0V7a1 1 0 0 0-1-1h-6a1 1 0 0 0-1 1v4a1 1 0 1 0 2 0v5z" id="path8-3"/><path d="M26 20a2 2 0 1 0 0 4h2v4h-9.17l-.13-.13A2 2 0 0 0 18 24h-4a2 2 0 0 0-1.41 3.41l2.98 2.98-.83 1.66A6 6 0 1 0 19.66 40h8.68a6 6 0 1 0 4.92-7.95L32 29.53V22a2 2 0 0 0-2-2zm-6.34 16a6 6 0 0 0-1.34-2.17l.92-1.83h9.52l.92 1.83A6 6 0 0 0 28.34 36zM16 38a2 2 0 1 1-4 0 2 2 0 0 1 4 0zm20 0a2 2 0 1 1-4 0 2 2 0 0 1 4 0z" id="path4" style="clip100-rule:evenodd;fill:#fff;fill-opacity:1;fill-rule:evenodd"/><path style="clip100-rule:evenodd;fill:#fff;fill-opacity:1;fill-rule:evenodd;stroke:none" d="M42 4a2 2 0 1 1-4 0 2 2 0 0 1 4 0zm0 12v-5a1 1 0 1 0 2 0V7a1 1 0 0 0-1-1h-6a1 1 0 0 0-1 1v4a1 1 0 1 0 2 0v5z" id="path8-6-5"/>
</g>

</svg>