<svg width="300" height="35" viewBox="0 0 300 35" fill="none" xmlns="http://www.w3.org/2000/svg">

<g transform="translate(135.000000, 2.000000) scale(1.500000 1.500000) "> 
<g id="g836"><path d="M10 0a10 10 0 1 1-.02 19.98A10 10 0 0 1 10 0z" id="path2" style="opacity:.953;fill:#65af9d;fill-opacity:1"/><path d="M10 19a9 9 0 1 0 0-18 9 9 0 0 0 0 18zm0 1a10 10 0 1 0 0-20 10 10 0 0 0 0 20z" id="path4" style="clip-rule:evenodd;opacity:.95;fill:#404040;fill-rule:evenodd"/></g><defs id="defs11"><clipPath id="clip0"><path d="M0 0h20v20H0V0z" fill="#fff" id="path8"/></clipPath></defs>
</g>


<g transform="translate(141.000000, 8.000000) scale(0.375000 0.375000) "> 
<path style="clip100-rule:evenodd;fill:#fff;fill-opacity:1;fill-rule:evenodd;stroke:none" d="M42 24a2 2 0 1 1-4 0 2 2 0 0 1 4 0zm0 12v-5a1 1 0 1 0 2 0v-4a1 1 0 0 0-1-1h-6a1 1 0 0 0-1 1v4a1 1 0 1 0 2 0v5z" id="path8-3"/><path style="clip100-rule:evenodd;fill:#fff;fill-opacity:1;fill-rule:evenodd;stroke:none" d="M42 6a2 2 0 1 1-4 0 2 2 0 0 1 4 0zm0 12v-5a1 1 0 1 0 2 0V9a1 1 0 0 0-1-1h-6a1 1 0 0 0-1 1v4a1 1 0 1 0 2 0v5z" id="path8-6-5"/><path style="fill:#fff;stroke-width:.99999994;fill-opacity:1" d="M30.62 34.68c-1.93-.55-5.74-1.52-5.92-2.88-.11-.82-.28-1.6-.15-2.58.85-.89 1.39-1.67 2.07-2.6-1.52-4.25-3.67-7.63-6.2-11.38-2.76 2.5-5.43 7.8-6.66 11.27.57.96 1.42 1.82 2.08 2.52.13.92-.13 1.97-.26 2.72-.47 1.16-3.8 2.34-5.9 3.08-3.52 1.24-3.23 1.04-4.58 2.51C3.75 38.81 4.02 42 4.02 42H36s.21-2.77-1.18-4.82c-.97-1.42-3.47-2.3-4.19-2.5zm.32-23.33c-2.17-4.24-7.26-6.19-13.88-5.01 3.97 5.33 7.72 7.73 11.8 18.35 2.76-2.26 4.26-9.1 2.08-13.34zM18.56 12.8c-.15-.21 0 0-4.55-5.62-7 2.48-7.8 11.98-2.68 17.67a40.92 40.92 0 0 1 7.23-12.05z" id="path831"/>
</g>

</svg>