<svg width="300" height="40" viewBox="0 0 300 40" fill="none" xmlns="http://www.w3.org/2000/svg" xmlns:xlink="http://www.w3.org/1999/xlink">

<g transform="translate(130.000000, 0.000000) scale(2.000000 2.000000) "> 
<g id="g836"><path d="M10 0a10 10 0 1 1-.02 19.98A10 10 0 0 1 10 0z" id="path2" style="opacity:.953;fill:#65af9d;fill-opacity:1"/><path d="M10 19a9 9 0 1 0 0-18 9 9 0 0 0 0 18zm0 1a10 10 0 1 0 0-20 10 10 0 0 0 0 20z" id="path4" style="clip-rule:evenodd;opacity:.95;fill:#404040;fill-rule:evenodd"/></g><defs id="defs11"><clipPath id="clip0"><path d="M0 0h20v20H0V0z" fill="#fff" id="path8"/></clipPath></defs>
</g>%n%n
<g transform="translate(138.000000, 8.000000) scale(0.750000 0.750000) "> 

<path fill-rule="evenodd" fill="rgb(100%, 100%, 100%)" fill-opacity="1" d="M 28 13.332031 C 28 14.070312 27.402344 14.667969 26.667969 14.667969 C 25.929688 14.667969 25.332031 14.070312 25.332031 13.332031 C 25.332031 12.597656 25.929688 12 26.667969 12 C 27.402344 12 28 12.597656 28 13.332031 Z M 28 21.332031 L 28 18 C 28 18.367188 28.296875 18.667969 28.667969 18.667969 C 29.035156 18.667969 29.332031 18.367188 29.332031 18 L 29.332031 15.332031 C 29.332031 14.964844 29.035156 14.667969 28.667969 14.667969 L 24.667969 14.667969 C 24.296875 14.667969 24 14.964844 24 15.332031 L 24 18 C 24 18.367188 24.296875 18.667969 24.667969 18.667969 C 25.035156 18.667969 25.332031 18.367188 25.332031 18 L 25.332031 21.332031 Z M 28 21.332031 "/>
<path fill-rule="evenodd" fill="rgb(100%, 100%, 100%)" fill-opacity="1" d="M 28 2.667969 C 28 3.402344 27.402344 4 26.667969 4 C 25.929688 4 25.332031 3.402344 25.332031 2.667969 C 25.332031 1.929688 25.929688 1.332031 26.667969 1.332031 C 27.402344 1.332031 28 1.929688 28 2.667969 Z M 28 10.667969 L 28 7.332031 C 28 7.703125 28.296875 8 28.667969 8 C 29.035156 8 29.332031 7.703125 29.332031 7.332031 L 29.332031 4.667969 C 29.332031 4.296875 29.035156 4 28.667969 4 L 24.667969 4 C 24.296875 4 24 4.296875 24 4.667969 L 24 7.332031 C 24 7.703125 24.296875 8 24.667969 8 C 25.035156 8 25.332031 7.703125 25.332031 7.332031 L 25.332031 10.667969 Z M 28 10.667969 "/>
<path fill="none" stroke-width="4" stroke-linecap="round" stroke-linejoin="round" stroke="rgb(100%, 100%, 100%)" stroke-opacity="1" stroke-miterlimit="4" d="M 6 6 L 18 18 L 18 42 " transform="matrix(0.666667, 0, 0, 0.666667, 0, 0)"/>
<path fill="none" stroke-width="4" stroke-linecap="round" stroke-linejoin="round" stroke="rgb(100%, 100%, 100%)" stroke-opacity="1" stroke-miterlimit="4" d="M 18 18 L 30 6 " transform="matrix(0.666667, 0, 0, 0.666667, 0, 0)"/>
<path fill-rule="nonzero" fill="rgb(100%, 100%, 100%)" fill-opacity="1" d="M 14.667969 4 C 14.667969 5.472656 13.472656 6.667969 12 6.667969 C 10.527344 6.667969 9.332031 5.472656 9.332031 4 C 9.332031 2.527344 10.527344 1.332031 12 1.332031 C 13.472656 1.332031 14.667969 2.527344 14.667969 4 Z M 14.667969 4 "/>

</g>%n%n</svg>