<svg width="40" height="40" viewBox="0 0 40 40" fill="none" xmlns="http://www.w3.org/2000/svg" >

<g transform="translate(0.000000, 0.000000) scale(2.000000 2.000000) "> 
<g id="g836"><path d="M10 0a10 10 0 1 1-.02 19.98A10 10 0 0 1 10 0z" id="path2" style="opacity:.953;fill:#65af9d;fill-opacity:1"/><path d="M10 19a9 9 0 1 0 0-18 9 9 0 0 0 0 18zm0 1a10 10 0 1 0 0-20 10 10 0 0 0 0 20z" id="path4" style="clip-rule:evenodd;opacity:.95;fill:#404040;fill-rule:evenodd"/></g><defs id="defs11"><clipPath id="clip0"><path d="M0 0h20v20H0V0z" fill="#fff" id="path8"/></clipPath></defs>
</g>


<g transform="translate(8.000000, 8.000000) scale(2.000000 2.000000) "> 

<path opacity="0.2" d="M44 20V16L36 13.6V8H32V12.4L4 4V44H40V20H44Z" fill="#ffffff"/>
<path d="M30 28C33.3137 28 36 25.3137 36 22C36 18.6863 33.3137 16 30 16C26.6863 16 24 18.6863 24 22C24 25.3137 26.6863 28 30 28Z" fill="#ffffff"/>
<path d="M39.9605 44H20V40C20 34.1428 26.0079 32 30 32C33.9921 32 39.9606 34.1428 39.9606 40C40.0493 42.3588 39.9605 44 39.9605 44Z" fill="#ffffff"/>
<g opacity="0.5">
<path d="M14 28C17.3137 28 20 25.3137 20 22C20 18.6863 17.3137 16 14 16C10.6863 16 8 18.6863 8 22C8 25.3137 10.6863 28 14 28Z" fill="#ffffff"/>
<path d="M23.9606 44H4V40C4 34.1428 10.0079 32 14 32C17.9921 32 23.9606 34.1428 23.9606 40C24.0493 42.3588 23.9606 44 23.9606 44Z" fill="#ffffff"/>
</g>

</g>

</svg>