<svg width="300" height="40" viewBox="0 0 300 40" fill="none" xmlns="http://www.w3.org/2000/svg" xmlns:xlink="http://www.w3.org/1999/xlink">

<g transform="translate(130.000000, 0.000000) scale(2.000000 2.000000) "> 
<g id="g836"><path d="M10 0a10 10 0 1 1-.02 19.98A10 10 0 0 1 10 0z" id="path2" style="opacity:.953;fill:#65af9d;fill-opacity:1"/><path d="M10 19a9 9 0 1 0 0-18 9 9 0 0 0 0 18zm0 1a10 10 0 1 0 0-20 10 10 0 0 0 0 20z" id="path4" style="clip-rule:evenodd;opacity:.95;fill:#404040;fill-rule:evenodd"/></g><defs id="defs11"><clipPath id="clip0"><path d="M0 0h20v20H0V0z" fill="#fff" id="path8"/></clipPath></defs>
</g>%n%n
<g transform="translate(138.000000, 8.000000) scale(2.000000 2.000000) "> 

<path fill-rule="evenodd" fill="rgb(100%, 100%, 100%)" fill-opacity="1" d="M 10.5 6.75 C 10.5 7.027344 10.277344 7.25 10 7.25 C 9.722656 7.25 9.5 7.027344 9.5 6.75 C 9.5 6.472656 9.722656 6.25 10 6.25 C 10.277344 6.25 10.5 6.472656 10.5 6.75 Z M 10.5 9.75 L 10.5 8.5 C 10.5 8.636719 10.613281 8.75 10.75 8.75 C 10.886719 8.75 11 8.636719 11 8.5 L 11 7.5 C 11 7.363281 10.886719 7.25 10.75 7.25 L 9.25 7.25 C 9.113281 7.25 9 7.363281 9 7.5 L 9 8.5 C 9 8.636719 9.113281 8.75 9.25 8.75 C 9.386719 8.75 9.5 8.636719 9.5 8.5 L 9.5 9.75 Z M 10.5 9.75 "/>
<path fill-rule="evenodd" fill="rgb(100%, 100%, 100%)" fill-opacity="1" d="M 10.5 2.5 C 10.5 2.777344 10.277344 3 10 3 C 9.722656 3 9.5 2.777344 9.5 2.5 C 9.5 2.222656 9.722656 2 10 2 C 10.277344 2 10.5 2.222656 10.5 2.5 Z M 10.5 5.5 L 10.5 4.25 C 10.5 4.386719 10.613281 4.5 10.75 4.5 C 10.886719 4.5 11 4.386719 11 4.25 L 11 3.25 C 11 3.113281 10.886719 3 10.75 3 L 9.25 3 C 9.113281 3 9 3.113281 9 3.25 L 9 4.25 C 9 4.386719 9.113281 4.5 9.25 4.5 C 9.386719 4.5 9.5 4.386719 9.5 4.25 L 9.5 5.5 Z M 10.5 5.5 "/>
<path fill-rule="evenodd" fill="rgb(100%, 100%, 100%)" fill-opacity="1" d="M 8 2 L 1 2 L 1 10 L 8 10 Z M 6 3 L 7 3 L 7 4 L 6 4 Z M 6 5 L 7 5 L 7 6 L 6 6 Z M 7 7 L 6 7 L 6 8 L 7 8 Z M 6 9 L 7 9 L 7 10 L 6 10 Z M 3 3 L 2 3 L 2 4 L 3 4 Z M 3 5 L 2 5 L 2 6 L 3 6 Z M 2 7 L 3 7 L 3 8 L 2 8 Z M 3 9 L 2 9 L 2 10 L 3 10 Z M 3 9 "/>

</g>%n%n</svg>