<svg width="300" height="40" viewBox="0 0 300 40" fill="none" xmlns="http://www.w3.org/2000/svg" xmlns:xlink="http://www.w3.org/1999/xlink" version="1.1">

<g transform="translate(130.000000, 0.000000) scale(2.000000 2.000000) "> 
<g id="g836"><path d="M10 0a10 10 0 1 1-.02 19.98A10 10 0 0 1 10 0z" id="path2" style="opacity:.953;fill:#65af9d;fill-opacity:1"/><path d="M10 19a9 9 0 1 0 0-18 9 9 0 0 0 0 18zm0 1a10 10 0 1 0 0-20 10 10 0 0 0 0 20z" id="path4" style="clip-rule:evenodd;opacity:.95;fill:#404040;fill-rule:evenodd"/></g><defs id="defs11"><clipPath id="clip0"><path d="M0 0h20v20H0V0z" fill="#fff" id="path8"/></clipPath></defs>
</g>%n%n
<g transform="translate(138.000000, 8.000000) scale(2.000000 2.000000) "> 

<defs>
<filter id="alpha" filterUnits="objectBoundingBox" x="0%" y="0%" width="100%" height="100%">
  <feColorMatrix type="matrix" in="SourceGraphic" values="0 0 0 0 1 0 0 0 0 1 0 0 0 0 1 0 0 0 1 0"/>
</filter>
<mask id="mask0">
  <g filter="url(#alpha)">
<rect x="0" y="0" width="12" height="12" style="fill:rgb(0%,0%,0%);fill-opacity:0.645;stroke:none;"/>
  </g>
</mask>
<clip100Path id="clip1001">
  <rect x="0" y="0" width="12" height="12"/>
</clip100Path>
<g id="surface5" clip100-path="url(#clip1001)">
<path style=" stroke:none;fill-rule:nonzero;fill:rgb(100%,100%,100%);fill-opacity:1;" d="M 3 1 L 3.5 1 L 3.5 2.5 L 4 2.5 L 4 1 L 6 1 L 6.023438 2.5 L 6.5 2.5 L 6.5 1 L 7 1 L 7 3 L 3 3 Z M 3 1 "/>
</g>
</defs>
<g id="surface1">
<path style=" stroke:none;fill-rule:evenodd;fill:rgb(100%,100%,100%);fill-opacity:1;" d="M 10.5 5.5 C 10.5 5.777344 10.277344 6 10 6 C 9.722656 6 9.5 5.777344 9.5 5.5 C 9.5 5.222656 9.722656 5 10 5 C 10.277344 5 10.5 5.222656 10.5 5.5 Z M 10.5 8.5 L 10.5 7.25 C 10.5 7.386719 10.613281 7.5 10.75 7.5 C 10.886719 7.5 11 7.386719 11 7.25 L 11 6.25 C 11 6.113281 10.886719 6 10.75 6 L 9.25 6 C 9.113281 6 9 6.113281 9 6.25 L 9 7.25 C 9 7.386719 9.113281 7.5 9.25 7.5 C 9.386719 7.5 9.5 7.386719 9.5 7.25 L 9.5 8.5 Z M 10.5 8.5 "/>
<path style=" stroke:none;fill-rule:evenodd;fill:rgb(100%,100%,100%);fill-opacity:1;" d="M 10.5 1.5 C 10.5 1.777344 10.277344 2 10 2 C 9.722656 2 9.5 1.777344 9.5 1.5 C 9.5 1.222656 9.722656 1 10 1 C 10.277344 1 10.5 1.222656 10.5 1.5 Z M 10.5 4.5 L 10.5 3.25 C 10.5 3.386719 10.613281 3.5 10.75 3.5 C 10.886719 3.5 11 3.386719 11 3.25 L 11 2.25 C 11 2.113281 10.886719 2 10.75 2 L 9.25 2 C 9.113281 2 9 2.113281 9 2.25 L 9 3.25 C 9 3.386719 9.113281 3.5 9.25 3.5 C 9.386719 3.5 9.5 3.386719 9.5 3.25 L 9.5 4.5 Z M 10.5 4.5 "/>
<path style=" stroke:none;fill-rule:nonzero;fill:rgb(100%,100%,100%);fill-opacity:1;" d="M 2.5 10 L 7.5 10 C 7.777344 10 8 10.222656 8 10.5 L 8 11 L 2 11 L 2 10.5 C 2 10.226562 2.226562 10 2.5 10 Z M 2.5 10 "/>
<path style=" stroke:none;fill-rule:nonzero;fill:rgb(100%,100%,100%);fill-opacity:1;" d="M 2.5 9 C 4 8 4 6.253906 4 4.5 L 6 4.5 C 5.988281 6.191406 6 8 7.5 9 L 7.5 9.5 L 2.5 9.5 Z M 2.5 9 "/>
<path style=" stroke:none;fill-rule:nonzero;fill:rgb(100%,100%,100%);fill-opacity:1;" d="M 3.5 3.5 L 6.5 3.5 L 6.5 4 L 3.5 4 Z M 3.5 3.5 "/>
<use xlink:href="#surface5" mask="url(#mask0)"/>
</g>

</g>%n%n</svg>