<svg width="300" height="40" viewBox="0 0 300 40" fill="none" xmlns="http://www.w3.org/2000/svg" xmlns:xlink="http://www.w3.org/1999/xlink" version="1.1">

<g transform="translate(130.000000, 0.000000) scale(2.000000 2.000000) "> 
<g id="g836"><path d="M10 0a10 10 0 1 1-.02 19.98A10 10 0 0 1 10 0z" id="path2" style="opacity:.953;fill:#65af9d;fill-opacity:1"/><path d="M10 19a9 9 0 1 0 0-18 9 9 0 0 0 0 18zm0 1a10 10 0 1 0 0-20 10 10 0 0 0 0 20z" id="path4" style="clip-rule:evenodd;opacity:.95;fill:#404040;fill-rule:evenodd"/></g><defs id="defs11"><clipPath id="clip0"><path d="M0 0h20v20H0V0z" fill="#fff" id="path8"/></clipPath></defs>
</g>%n%n
<g transform="translate(138.000000, 8.000000) scale(2.000000 2.000000) "> 

<g id="surface1">
<path style="fill-rule:nonzero;fill:rgb(100%,100%,100%);fill-opacity:0.945098;stroke-width:2;stroke-linecap:round;stroke-linejoin:round;stroke:rgb(100%,100%,100%);stroke-opacity:1;stroke-miterlimit:4;" d="M 34.984375 29 L 27.671875 34.28125 L 30.984375 43 L 23.203125 37.640625 L 15 43 L 18.703125 34.34375 L 11 29 L 20.203125 29 L 22.96875 21.015625 L 25.765625 29 Z M 34.984375 29 " transform="matrix(0.25,0,0,0.25,0,0)"/>
<path style="fill-rule:nonzero;fill:rgb(100%,100%,100%);fill-opacity:0.945098;stroke-width:2;stroke-linecap:round;stroke-linejoin:round;stroke:rgb(100%,100%,100%);stroke-opacity:1;stroke-miterlimit:4;" d="M 15 5 L 31 5 L 31 13.84375 L 23 21.6875 L 15 13.84375 Z M 15 5 " transform="matrix(0.25,0,0,0.25,0,0)"/>
</g>

</g>%n%n</svg>