<svg width="300" height="40" viewBox="0 0 300 40" fill="none" xmlns="http://www.w3.org/2000/svg" xmlns:xlink="http://www.w3.org/1999/xlink">

<g transform="translate(130.000000, 0.000000) scale(2.000000 2.000000) "> 
<g id="g836"><path d="M10 0a10 10 0 1 1-.02 19.98A10 10 0 0 1 10 0z" id="path2" style="opacity:.953;fill:#65af9d;fill-opacity:1"/><path d="M10 19a9 9 0 1 0 0-18 9 9 0 0 0 0 18zm0 1a10 10 0 1 0 0-20 10 10 0 0 0 0 20z" id="path4" style="clip-rule:evenodd;opacity:.95;fill:#404040;fill-rule:evenodd"/></g><defs id="defs11"><clipPath id="clip0"><path d="M0 0h20v20H0V0z" fill="#fff" id="path8"/></clipPath></defs>
</g>%n%n
<g transform="translate(138.000000, 8.000000) scale(0.750000 0.750000) "> 

<path fill-rule="evenodd" fill="rgb(100%, 100%, 100%)" fill-opacity="1" d="M 28 18 C 28 18.738281 27.402344 19.332031 26.667969 19.332031 C 25.929688 19.332031 25.332031 18.738281 25.332031 18 C 25.332031 17.261719 25.929688 16.667969 26.667969 16.667969 C 27.402344 16.667969 28 17.261719 28 18 Z M 28 26 L 28 22.667969 C 28 23.035156 28.296875 23.332031 28.667969 23.332031 C 29.035156 23.332031 29.332031 23.035156 29.332031 22.667969 L 29.332031 20 C 29.332031 19.632812 29.035156 19.332031 28.667969 19.332031 L 24.667969 19.332031 C 24.296875 19.332031 24 19.632812 24 20 L 24 22.667969 C 24 23.035156 24.296875 23.332031 24.667969 23.332031 C 25.035156 23.332031 25.332031 23.035156 25.332031 22.667969 L 25.332031 26 Z M 28 26 "/>
<path fill-rule="evenodd" fill="rgb(100%, 100%, 100%)" fill-opacity="1" d="M 28 6.667969 C 28 7.402344 27.402344 8 26.667969 8 C 25.929688 8 25.332031 7.402344 25.332031 6.667969 C 25.332031 5.929688 25.929688 5.332031 26.667969 5.332031 C 27.402344 5.332031 28 5.929688 28 6.667969 Z M 28 14.667969 L 28 11.332031 C 28 11.703125 28.296875 12 28.667969 12 C 29.035156 12 29.332031 11.703125 29.332031 11.332031 L 29.332031 8.667969 C 29.332031 8.296875 29.035156 8 28.667969 8 L 24.667969 8 C 24.296875 8 24 8.296875 24 8.667969 L 24 11.332031 C 24 11.703125 24.296875 12 24.667969 12 C 25.035156 12 25.332031 11.703125 25.332031 11.332031 L 25.332031 14.667969 Z M 28 14.667969 "/>
<path fill-rule="evenodd" fill="rgb(100%, 100%, 100%)" fill-opacity="1" d="M 21.332031 5.332031 L 2.667969 5.332031 L 2.667969 26.667969 L 21.332031 26.667969 Z M 16 8 L 18.667969 8 L 18.667969 10.667969 L 16 10.667969 Z M 16 13.332031 L 18.667969 13.332031 L 18.667969 16 L 16 16 Z M 18.667969 18.667969 L 16 18.667969 L 16 21.332031 L 18.667969 21.332031 Z M 16 24 L 18.667969 24 L 18.667969 26.667969 L 16 26.667969 Z M 8 8 L 5.332031 8 L 5.332031 10.667969 L 8 10.667969 Z M 8 13.332031 L 5.332031 13.332031 L 5.332031 16 L 8 16 Z M 5.332031 18.667969 L 8 18.667969 L 8 21.332031 L 5.332031 21.332031 Z M 8 24 L 5.332031 24 L 5.332031 26.667969 L 8 26.667969 Z M 8 24 "/>

</g>%n%n</svg>