<svg width="300" height="35" viewBox="0 0 300 35" fill="none" xmlns="http://www.w3.org/2000/svg">

<g transform="translate(135.000000, 2.000000) scale(1.500000 1.500000) "> 
<g id="g828"><path d="M10 0a10 10 0 1 1-.02 19.98A10 10 0 0 1 10 0z" id="path2" style="opacity:.953;fill:#458273;fill-opacity:1"/><path d="M10 19a9 9 0 1 0 0-18 9 9 0 0 0 0 18zm0 1a10 10 0 1 0 0-20 10 10 0 0 0 0 20z" id="path4" style="clip-rule:evenodd;opacity:.95;fill:#909090;fill-rule:evenodd"/></g><defs id="defs11"><clipPath id="clip0"><path d="M0 0h20v20H0V0z" fill="#fff" id="path8"/></clipPath></defs>
</g>


<g transform="translate(141.000000, 8.000000) scale(0.375000 0.375000) "> 
<path style="clip100-rule:evenodd;fill:#fff;fill-opacity:1;fill-rule:evenodd" d="M30 6a2 2 0 1 1-4 0 2 2 0 0 1 4 0zm0 12v-5a1 1 0 1 0 2 0V9a1 1 0 0 0-1-1h-6a1 1 0 0 0-1 1v4a1 1 0 1 0 2 0v5z" id="path8-3"/><path style="clip100-rule:evenodd;fill:#fff;fill-opacity:1;fill-rule:evenodd" d="M42 6a2 2 0 1 1-4 0 2 2 0 0 1 4 0zm0 12v-5a1 1 0 1 0 2 0V9a1 1 0 0 0-1-1h-6a1 1 0 0 0-1 1v4a1 1 0 1 0 2 0v5z" id="path8-6"/><path d="M16 18a4 4 0 1 0 0-8 4 4 0 0 0 0 8z" id="path2" style="fill:#fff;fill-opacity:1"/><path d="M7.48 44h4.04l1.35-9.01 2.24 1.49a2 2 0 0 1 .89 1.66V44h4v-5.86a6 6 0 0 0-2.67-5l-1.85-1.23.86-4.3A8.93 8.93 0 0 0 22.4 30H24v14h4V24a2 2 0 0 0-4 0v2h-1.59a4.93 4.93 0 0 1-4.46-2.85l-.5-1.07a3.6 3.6 0 0 0-6.83.99z" id="path4" style="fill:#fff;fill-opacity:1"/><path d="M8.64 22.77c.16-1.05.6-2 1.25-2.77H8.58c-.37 0-.73.15-.99.4A13.88 13.88 0 0 0 5 24.03L4 26a2 2 0 0 0-2 2v2.55c0 .89.5 1.7 1.3 2.1 1.16.58 2.4.98 3.68 1.19z" id="path6" style="fill:#fff;fill-opacity:1"/>
</g>

</svg>