<svg width="300" height="40" viewBox="0 0 300 40" fill="none" xmlns="http://www.w3.org/2000/svg" xmlns:xlink="http://www.w3.org/1999/xlink">

<g transform="translate(130.000000, 0.000000) scale(2.000000 2.000000) "> 
<g id="g836"><path d="M10 0a10 10 0 1 1-.02 19.98A10 10 0 0 1 10 0z" id="path2" style="opacity:.953;fill:#65af9d;fill-opacity:1"/><path d="M10 19a9 9 0 1 0 0-18 9 9 0 0 0 0 18zm0 1a10 10 0 1 0 0-20 10 10 0 0 0 0 20z" id="path4" style="clip-rule:evenodd;opacity:.95;fill:#404040;fill-rule:evenodd"/></g><defs id="defs11"><clipPath id="clip0"><path d="M0 0h20v20H0V0z" fill="#fff" id="path8"/></clipPath></defs>
</g>%n%n
<g transform="translate(138.000000, 8.000000) scale(0.750000 0.750000) "> 

<path fill-rule="evenodd" fill="rgb(100%, 100%, 100%)" fill-opacity="1" d="M 21.332031 21.332031 L 19.085938 13.265625 C 18.835938 12.511719 18.128906 12 17.332031 12 L 5.332031 12 C 4.535156 12 3.832031 12.507812 3.578125 13.265625 L 1.332031 21.332031 L 1.332031 28.667969 C 1.332031 31.332031 5.332031 31.332031 5.332031 28.667969 L 5.332031 28 L 17.332031 28 L 17.332031 28.667969 C 17.332031 31.332031 21.332031 31.332031 21.332031 28.667969 Z M 16.746094 14.667969 L 18.519531 21.332031 L 4.148438 21.332031 L 5.921875 14.667969 Z M 6.667969 25.332031 C 6.667969 27.113281 4 27.113281 4 25.332031 C 4 23.554688 6.667969 23.554688 6.667969 25.332031 Z M 18.667969 25.332031 C 18.667969 27.113281 16 27.113281 16 25.332031 C 16 23.554688 18.667969 23.554688 18.667969 25.332031 Z M 18.667969 25.332031 "/>
<path fill-rule="evenodd" fill="rgb(100%, 100%, 100%)" fill-opacity="1" d="M 16 2.667969 C 16 3.402344 15.402344 4 14.667969 4 C 13.929688 4 13.332031 3.402344 13.332031 2.667969 C 13.332031 1.929688 13.929688 1.332031 14.667969 1.332031 C 15.402344 1.332031 16 1.929688 16 2.667969 Z M 16 10.667969 L 16 7.332031 C 16 7.703125 16.296875 8 16.667969 8 C 17.035156 8 17.332031 7.703125 17.332031 7.332031 L 17.332031 4.667969 C 17.332031 4.296875 17.035156 4 16.667969 4 L 12.667969 4 C 12.296875 4 12 4.296875 12 4.667969 L 12 7.332031 C 12 7.703125 12.296875 8 12.667969 8 C 13.035156 8 13.332031 7.703125 13.332031 7.332031 L 13.332031 10.667969 Z M 16 10.667969 "/>
<path fill-rule="evenodd" fill="rgb(100%, 100%, 100%)" fill-opacity="1" d="M 22.667969 2.667969 C 22.667969 3.402344 22.070312 4 21.332031 4 C 20.597656 4 20 3.402344 20 2.667969 C 20 1.929688 20.597656 1.332031 21.332031 1.332031 C 22.070312 1.332031 22.667969 1.929688 22.667969 2.667969 Z M 22.667969 10.667969 L 22.667969 7.332031 C 22.667969 7.703125 22.964844 8 23.332031 8 C 23.703125 8 24 7.703125 24 7.332031 L 24 4.667969 C 24 4.296875 23.703125 4 23.332031 4 L 19.332031 4 C 18.964844 4 18.667969 4.296875 18.667969 4.667969 L 18.667969 7.332031 C 18.667969 7.703125 18.964844 8 19.332031 8 C 19.703125 8 20 7.703125 20 7.332031 L 20 10.667969 Z M 22.667969 10.667969 "/>
<path fill-rule="evenodd" fill="rgb(100%, 100%, 100%)" fill-opacity="1" d="M 29.332031 2.667969 C 29.332031 3.402344 28.738281 4 28 4 C 27.261719 4 26.667969 3.402344 26.667969 2.667969 C 26.667969 1.929688 27.261719 1.332031 28 1.332031 C 28.738281 1.332031 29.332031 1.929688 29.332031 2.667969 Z M 29.332031 10.667969 L 29.332031 7.332031 C 29.332031 7.703125 29.632812 8 30 8 C 30.367188 8 30.667969 7.703125 30.667969 7.332031 L 30.667969 4.667969 C 30.667969 4.296875 30.367188 4 30 4 L 26 4 C 25.632812 4 25.332031 4.296875 25.332031 4.667969 L 25.332031 7.332031 C 25.332031 7.703125 25.632812 8 26 8 C 26.367188 8 26.667969 7.703125 26.667969 7.332031 L 26.667969 10.667969 Z M 29.332031 10.667969 "/>

</g>%n%n</svg>