<svg width="300" height="35" viewBox="0 0 300 35" fill="none" xmlns="http://www.w3.org/2000/svg" version="1.1" id="svg8" style="fill:none">

<g transform="translate(135.000000, 2.000000) scale(1.500000 1.500000) "> 
<g id="g828"><path d="M10 0a10 10 0 1 1-.02 19.98A10 10 0 0 1 10 0z" id="path2" style="opacity:.953;fill:#458273;fill-opacity:1"/><path d="M10 19a9 9 0 1 0 0-18 9 9 0 0 0 0 18zm0 1a10 10 0 1 0 0-20 10 10 0 0 0 0 20z" id="path4" style="clip-rule:evenodd;opacity:.95;fill:#909090;fill-rule:evenodd"/></g><defs id="defs11"><clipPath id="clip0"><path d="M0 0h20v20H0V0z" fill="#fff" id="path8"/></clipPath></defs>
</g>


<g transform="translate(141.000000, 8.000000) scale(0.375000 0.375000) "> 
<path style="clip100-rule:evenodd;fill:#fff;fill-opacity:1;fill-rule:evenodd" d="M30 6a2 2 0 1 1-4 0 2 2 0 0 1 4 0zm0 12v-5a1 1 0 1 0 2 0V9a1 1 0 0 0-1-1h-6a1 1 0 0 0-1 1v4a1 1 0 1 0 2 0v5z" id="path8-3"/><path style="clip100-rule:evenodd;fill:#fff;fill-opacity:1;fill-rule:evenodd" d="M42 6a2 2 0 1 1-4 0 2 2 0 0 1 4 0zm0 12v-5a1 1 0 1 0 2 0V9a1 1 0 0 0-1-1h-6a1 1 0 0 0-1 1v4a1 1 0 1 0 2 0v5z" id="path8-6"/><path style="color:#000;clip100-rule:nonzero;display:inline;overflow:visible;visibility:visible;opacity:1;isolation:auto;mix-blend-mode:normal;color-interpolation:sRGB;color-interpolation-filters:linearRGB;solid-color:#000;solid-opacity:1;vector-effect:none;fill:#fff;fill-opacity:1;fill-rule:nonzero;stroke:none;stroke-width:4;stroke-linecap:round;stroke-linejoin:round;stroke-miterlimit:4;stroke-dasharray:none;stroke-dashoffset:0;stroke-opacity:1;marker:none;paint-order:normal;color-rendering:auto;image-rendering:auto;shape-rendering:auto;text-rendering:auto;enable-background:accumulate" d="M6 22a2 2 0 0 0-2 2v18c0 1.1.9 2 2 2h28a2 2 0 0 0 2-2V24a2 2 0 0 0-2-2H6zm9 4a7 7 0 0 1 7 7 7 7 0 0 1-7 7 7 7 0 0 1-7-7 7 7 0 0 1 7-7zm10 0a1 1 0 0 1 1 1 1 1 0 0 1-1 1 1 1 0 0 1-1-1 1 1 0 0 1 1-1zm3.94 0a1 1 0 0 1 1 1 1 1 0 0 1-1 1 1 1 0 0 1-1-1 1 1 0 0 1 1-1zM33 26a1 1 0 0 1 1 1 1 1 0 0 1-1 1 1 1 0 0 1-1-1 1 1 0 0 1 1-1zm-7.99 4H33a1 1 0 1 1 0 2h-8a1 1 0 1 1 0-2zm0 4H33a1 1 0 1 1 0 2h-8a1 1 0 1 1 0-2zm0 4H33a1 1 0 1 1 0 2h-8a1 1 0 1 1 0-2z" id="rect852"/><path style="fill:none;fill-rule:evenodd;stroke:#fff;stroke-width:2;stroke-linecap:round;stroke-linejoin:round;stroke-miterlimit:4;stroke-dasharray:none;stroke-opacity:1" d="M8 24L21 3.03" id="path854"/>
</g>

</svg>