<svg width="300" height="40" viewBox="0 0 300 40" fill="none" xmlns="http://www.w3.org/2000/svg" xmlns:xlink="http://www.w3.org/1999/xlink">

<g transform="translate(130.000000, 0.000000) scale(2.000000 2.000000) "> 
<g id="g836"><path d="M10 0a10 10 0 1 1-.02 19.98A10 10 0 0 1 10 0z" id="path2" style="opacity:.953;fill:#65af9d;fill-opacity:1"/><path d="M10 19a9 9 0 1 0 0-18 9 9 0 0 0 0 18zm0 1a10 10 0 1 0 0-20 10 10 0 0 0 0 20z" id="path4" style="clip-rule:evenodd;opacity:.95;fill:#404040;fill-rule:evenodd"/></g><defs id="defs11"><clipPath id="clip0"><path d="M0 0h20v20H0V0z" fill="#fff" id="path8"/></clipPath></defs>
</g>%n%n
<g transform="translate(138.000000, 8.000000) scale(2.000000 2.000000) "> 

<path fill-rule="nonzero" fill="rgb(100%, 100%, 100%)" fill-opacity="0.973197" d="M 2.992188 3.492188 C 2.714844 3.496094 2.496094 3.722656 2.5 4 L 2.5 8.5 C 2.5 8.519531 2.5 8.539062 2.503906 8.558594 C 2.535156 9.90625 3.644531 11 5 11 C 6.375 11 7.5 9.875 7.5 8.5 L 7.5 6.5 L 5.5 8.5 L 6.5 8.5 C 6.5 9.335938 5.835938 10 5 10 C 4.164062 10 3.5 9.335938 3.5 8.5 L 3.5 4 C 3.503906 3.863281 3.449219 3.734375 3.355469 3.640625 C 3.257812 3.542969 3.128906 3.492188 2.992188 3.492188 Z M 2.992188 3.492188 "/>
<path fill-rule="evenodd" fill="rgb(100%, 100%, 100%)" fill-opacity="0.973197" d="M 8 1.5 C 8 1.777344 7.777344 2 7.5 2 C 7.222656 2 7 1.777344 7 1.5 C 7 1.222656 7.222656 1 7.5 1 C 7.777344 1 8 1.222656 8 1.5 Z M 8 4.5 L 8 3.25 C 8 3.386719 8.113281 3.5 8.25 3.5 C 8.386719 3.5 8.5 3.386719 8.5 3.25 L 8.5 2.25 C 8.5 2.113281 8.386719 2 8.25 2 L 6.75 2 C 6.613281 2 6.5 2.113281 6.5 2.25 L 6.5 3.25 C 6.5 3.386719 6.613281 3.5 6.75 3.5 C 6.886719 3.5 7 3.386719 7 3.25 L 7 4.5 Z M 8 4.5 "/>
<path fill-rule="evenodd" fill="rgb(100%, 100%, 100%)" fill-opacity="0.973197" d="M 10.5 1.5 C 10.5 1.777344 10.277344 2 10 2 C 9.722656 2 9.5 1.777344 9.5 1.5 C 9.5 1.222656 9.722656 1 10 1 C 10.277344 1 10.5 1.222656 10.5 1.5 Z M 10.5 4.5 L 10.5 3.25 C 10.5 3.386719 10.613281 3.5 10.75 3.5 C 10.886719 3.5 11 3.386719 11 3.25 L 11 2.25 C 11 2.113281 10.886719 2 10.75 2 L 9.25 2 C 9.113281 2 9 2.113281 9 2.25 L 9 3.25 C 9 3.386719 9.113281 3.5 9.25 3.5 C 9.386719 3.5 9.5 3.386719 9.5 3.25 L 9.5 4.5 Z M 10.5 4.5 "/>
<path fill-rule="nonzero" fill="rgb(100%, 100%, 100%)" fill-opacity="0.973197" d="M 4 3.5 C 4 4.050781 3.550781 4.5 3 4.5 C 2.449219 4.5 2 4.050781 2 3.5 C 2 2.949219 2.449219 2.5 3 2.5 C 3.550781 2.5 4 2.949219 4 3.5 Z M 4 3.5 "/>

</g>%n%n</svg>