<svg width="22" height="22" viewBox="0 0 22 22" fill="none" xmlns="http://www.w3.org/2000/svg">
<g clip-path="url(#clip0_1483_43627)">
<path fill-rule="evenodd" clip-rule="evenodd" d="M19 1H3C1.89543 1 1 1.89543 1 3V19C1 20.1046 1.89543 21 3 21H19C20.1046 21 21 20.1046 21 19V3C21 1.89543 20.1046 1 19 1ZM3 0C1.34315 0 0 1.34315 0 3V19C0 20.6569 1.34315 22 3 22H19C20.6569 22 22 20.6569 22 19V3C22 1.34315 20.6569 0 19 0H3Z" fill="black" fill-opacity="0.2"/>
<g filter="url(#filter0_i_1483_43627)">
<path d="M1 3C1 1.89543 1.89543 1 3 1H19C20.1046 1 21 1.89543 21 3V19C21 20.1046 20.1046 21 19 21H3C1.89543 21 1 20.1046 1 19V3Z" fill="url(#paint0_linear_1483_43627)" fill-opacity="0.2"/>
</g>
<path opacity="0.1" fill-rule="evenodd" clip-rule="evenodd" d="M19 2H3C2.44772 2 2 2.44772 2 3V19C2 19.5523 2.44772 20 3 20H19C19.5523 20 20 19.5523 20 19V3C20 2.44772 19.5523 2 19 2ZM3 1C1.89543 1 1 1.89543 1 3V19C1 20.1046 1.89543 21 3 21H19C20.1046 21 21 20.1046 21 19V3C21 1.89543 20.1046 1 19 1H3Z" fill="url(#paint1_linear_1483_43627)"/>
</g>
<defs>
<filter id="filter0_i_1483_43627" x="1" y="1" width="20" height="21" filterUnits="userSpaceOnUse" color-interpolation-filters="sRGB">
<feFlood flood-opacity="0" result="BackgroundImageFix"/>
<feBlend mode="normal" in="SourceGraphic" in2="BackgroundImageFix" result="shape"/>
<feColorMatrix in="SourceAlpha" type="matrix" values="0 0 0 0 0 0 0 0 0 0 0 0 0 0 0 0 0 0 127 0" result="hardAlpha"/>
<feOffset dy="1"/>
<feGaussianBlur stdDeviation="0.5"/>
<feComposite in2="hardAlpha" operator="arithmetic" k2="-1" k3="1"/>
<feColorMatrix type="matrix" values="0 0 0 0 1 0 0 0 0 1 0 0 0 0 1 0 0 0 0.1 0"/>
<feBlend mode="normal" in2="shape" result="effect1_innerShadow_1483_43627"/>
</filter>
<linearGradient id="paint0_linear_1483_43627" x1="11" y1="1" x2="11" y2="21" gradientUnits="userSpaceOnUse">
<stop stop-color="white"/>
<stop offset="1" stop-color="white" stop-opacity="0"/>
</linearGradient>
<linearGradient id="paint1_linear_1483_43627" x1="11" y1="1" x2="11" y2="21" gradientUnits="userSpaceOnUse">
<stop offset="0.0001" stop-color="white" stop-opacity="0.5"/>
<stop offset="1" stop-color="white"/>
</linearGradient>
<clipPath id="clip0_1483_43627">
<rect width="22" height="22" fill="white"/>
</clipPath>
</defs>
</svg>
