<svg width="22" height="22" viewBox="0 0 22 22" fill="none" xmlns="http://www.w3.org/2000/svg">
<g clip-path="url(#clip0_1483_43758)">
<path fill-rule="evenodd" clip-rule="evenodd" d="M21 6.41421L15.5858 1H6.41421L1 6.41421V15.5858L6.41421 21H15.5858L21 15.5858V6.41421ZM22 16V6L16 0H6L0 6V16L6 22H16L22 16Z" fill="black" fill-opacity="0.2"/>
<path d="M1 6.45455L6.45455 1H15.5455L21 6.45455V15.5455L15.5455 21H6.45455L1 15.5455V6.45455Z" fill="url(#paint0_linear_1483_43758)" fill-opacity="0.2"/>
<path opacity="0.1" fill-rule="evenodd" clip-rule="evenodd" d="M20 6.86876L15.1312 2H6.86876L2 6.86876V15.1312L6.86876 20H15.1312L20 15.1312V6.86876ZM21 15.5455V6.45455L15.5455 1H6.45455L1 6.45455V15.5455L6.45455 21H15.5455L21 15.5455Z" fill="url(#paint1_linear_1483_43758)"/>
</g>
<defs>
<linearGradient id="paint0_linear_1483_43758" x1="11" y1="1" x2="11" y2="21" gradientUnits="userSpaceOnUse">
<stop stop-color="white"/>
<stop offset="1" stop-color="white" stop-opacity="0"/>
</linearGradient>
<linearGradient id="paint1_linear_1483_43758" x1="11" y1="1" x2="11" y2="21" gradientUnits="userSpaceOnUse">
<stop offset="0.0001" stop-color="white" stop-opacity="0.5"/>
<stop offset="1" stop-color="white"/>
</linearGradient>
<clipPath id="clip0_1483_43758">
<rect width="22" height="22" fill="white"/>
</clipPath>
</defs>
</svg>
