<svg xmlns="http://www.w3.org/2000/svg" width="24" height="24" viewBox="0 0 24 24"><path d="M16 0H8v2h8V0Z"/><path fill-rule="evenodd" d="M7.414 4A3.414 3.414 0 0 0 4 7.414V20a2 2 0 0 0 2 2h12a2 2 0 0 0 2-2V7.414A3.414 3.414 0 0 0 16.586 4H13l1-2h-2l-1 2H7.414ZM10 7a1 1 0 0 1 1-1h2a1 1 0 1 1 0 2h-2a1 1 0 0 1-1-1Zm-4 3h12v6H6v-6Zm1 10a1 1 0 1 0 0-2 1 1 0 0 0 0 2Zm11-1a1 1 0 1 1-2 0 1 1 0 0 1 2 0Z" clip-rule="evenodd"/><g opacity=".5"><path d="M8 22H6l-1 2h2l1-2Z"/><path d="m17 24-1-2h2l1 2h-2Z"/></g></svg>