<svg xmlns="http://www.w3.org/2000/svg" width="24" height="24" viewBox="0 0 24 24"><path fill-rule="evenodd" d="M15.95 2h.636A3.414 3.414 0 0 1 20 5.414V18a2 2 0 0 1-2 2v-2a2 2 0 0 0-2-2H8a2 2 0 0 0-2 2v2a2 2 0 0 1-2-2V5.414A3.414 3.414 0 0 1 7.414 2h.636a2.5 2.5 0 0 1 2.45-2h3a2.5 2.5 0 0 1 2.45 2ZM10 3a1 1 0 0 1 1-1h2a1 1 0 1 1 0 2h-2a1 1 0 0 1-1-1Zm1 3H6v4h5V6Zm7 0h-5v4h5V6ZM8 13a1 1 0 1 1-2 0 1 1 0 0 1 2 0Zm9 1a1 1 0 1 0 0-2 1 1 0 0 0 0 2Z" clip-rule="evenodd"/><path d="M9 18a1 1 0 0 0-1 1v4a1 1 0 0 0 1 1h6a1 1 0 0 0 1-1v-4a1 1 0 0 0-1-1H9Z"/></svg>