<svg xmlns="http://www.w3.org/2000/svg" width="24" height="24" viewBox="0 0 24 24">
  <path fill-rule="evenodd" d="m12 17.892-2-.667V5.442l4 1.333V12h2V6.775l3-1V12h2V4.387a1 1 0 0 0-1.316-.948L15 5 9 3 3.684 4.772A1 1 0 0 0 3 5.721v13.892a1 1 0 0 0 1.316.948L9 19l3 1v-2.108ZM8 5.442v11.783l-3 1V6.442l3-1Z" clip-rule="evenodd"/>
  <path d="M20.293 20.707 18 18.414l-2.293 2.293-1.414-1.414L16.586 17l-2.293-2.293 1.414-1.414L18 15.586l2.293-2.293 1.414 1.414L19.414 17l2.293 2.293-1.414 1.414Z"/>
</svg>
