<svg xmlns="http://www.w3.org/2000/svg" width="24" height="24" viewBox="0 0 24 24"><path fill-rule="evenodd" d="M12 17a5 5 0 1 0 0-10 5 5 0 0 0 0 10Zm0-2a3 3 0 1 0 0-6 3 3 0 0 0 0 6Z" clip-rule="evenodd"/><path d="M17 8a1 1 0 1 0 0-2 1 1 0 0 0 0 2Z"/><path fill-rule="evenodd" d="M2.633 5.318C2 6.584 2 8.236 2 11.54v.92c0 3.304 0 4.956.633 6.222a6 6 0 0 0 2.685 2.685C6.584 22 8.236 22 11.54 22h.92c3.304 0 4.956 0 6.222-.633a6 6 0 0 0 2.685-2.685C22 17.416 22 15.764 22 12.46v-.92c0-3.304 0-4.956-.633-6.222a6 6 0 0 0-2.685-2.685C17.416 2 15.764 2 12.46 2h-.92c-3.304 0-4.956 0-6.222.633a6 6 0 0 0-2.685 2.685ZM12.46 4h-.92c-1.684 0-2.83.002-3.715.073-.863.069-1.305.195-1.613.349a4 4 0 0 0-1.79 1.79c-.154.308-.28.75-.35 1.613C4.003 8.711 4 9.855 4 11.54v.92c0 1.684.002 2.83.073 3.715.069.863.195 1.305.349 1.613a4 4 0 0 0 1.79 1.79c.308.154.75.28 1.613.35.886.07 2.03.072 3.715.072h.92c1.684 0 2.83-.002 3.715-.073.863-.069 1.305-.195 1.613-.349a4 4 0 0 0 1.79-1.79c.154-.308.28-.75.35-1.613.07-.886.072-2.03.072-3.715v-.92c0-1.684-.002-2.83-.073-3.715-.069-.863-.195-1.305-.349-1.613a4 4 0 0 0-1.79-1.79c-.308-.154-.75-.28-1.613-.35-.886-.07-2.03-.072-3.715-.072Z" clip-rule="evenodd"/></svg>