<svg width="48" height="48" viewBox="0 0 48 48" xmlns="http://www.w3.org/2000/svg">
<g id="ic_action_user_account">
<path id="Ellipse" opacity="0.2" d="M46 24C46 36.1503 36.1503 46 24 46C11.8497 46 2 36.1503 2 24C2 11.8497 11.8497 2 24 2C36.1503 2 46 11.8497 46 24Z" />
<g id="Intersect">
<path d="M12.3696 34.9878C13.0757 32.7548 14.7491 30.9004 17.0001 30C21.4702 28.0843 26.5301 28.0843 31.0001 30C33.2512 30.9004 34.9246 32.7549 35.6307 34.988C32.7139 38.0743 28.582 40.0001 24.0002 40.0001C19.4184 40.0001 15.2865 38.0742 12.3696 34.9878Z" />
<path d="M30.0001 18C30.0001 21.3137 27.3138 24 24.0001 24C20.6864 24 18.0001 21.3137 18.0001 18C18.0001 14.6863 20.6864 12 24.0001 12C27.3138 12 30.0001 14.6863 30.0001 18Z" />
</g>
</g>
</svg>
