<svg xmlns="http://www.w3.org/2000/svg" width="24" height="24" viewBox="0 0 24 24"><path fill-rule="evenodd" d="M7 2c1.306 0 2.414.835 2.826 2H17a3 3 0 0 1 3 3v2a3 3 0 0 1-3 3H7a1 1 0 0 0-1 1v4a1 1 0 0 0 1 1h3v-3l4 4-4 4v-3H7a3 3 0 0 1-3-3v-4a3 3 0 0 1 3-3h10a1 1 0 0 0 1-1V7a1 1 0 0 0-1-1H9.826A2.999 2.999 0 0 1 4 5a3 3 0 0 1 3-3Zm0 2a1 1 0 1 0 0 2 1 1 0 0 0 0-2Z" clip-rule="evenodd"/><path fill-rule="evenodd" d="M17 16a3 3 0 1 1 0 6 3 3 0 0 1 0-6Zm0 2a1 1 0 1 0 0 2 1 1 0 0 0 0-2Z" clip-rule="evenodd"/></svg>