<svg xmlns="http://www.w3.org/2000/svg" width="24" height="24" viewBox="0 0 24 24"><path fill-rule="evenodd" d="M14 4a2 2 0 0 1 2-2h6a2 2 0 0 1 2 2v8a2 2 0 0 1-2 2h-6a2 2 0 0 1-2-2V4Zm8 0h-6v2h6V4Zm-2 4h-4v2h4V8Z" clip-rule="evenodd"/><path fill-rule="evenodd" d="M1 7c.64-.64 1.509-1 2.414-1h5.172A3.414 3.414 0 0 1 12 9.414V18a2 2 0 0 1-1 1.732v.768a1.5 1.5 0 0 1-3 0V20H4v.5a1.5 1.5 0 0 1-3 0v-.768A2 2 0 0 1 0 18V9.414C0 8.51.36 7.64 1 7Zm1 3h8v4H2v-4Zm2 7a1 1 0 1 1-2 0 1 1 0 0 1 2 0Zm5 1a1 1 0 1 0 0-2 1 1 0 0 0 0 2Z" clip-rule="evenodd"/><g opacity=".5"><path d="M16 4h6v2h-6V4Z"/><path d="M16 8h4v2h-4V8Z"/><path d="M20 12h-2v8h-1a1 1 0 1 0 0 2h4a1 1 0 1 0 0-2h-1v-8Z"/></g></svg>