<svg xmlns="http://www.w3.org/2000/svg" width="24" height="24" viewBox="0 0 24 24"><path d="M2 7h16v11a2 2 0 0 1-2 2H4a2 2 0 0 1-2-2V7Z" opacity=".2"/><path d="M5 2h2v2h6V2h2v2h1a2 2 0 0 1 2 2v1H2V6a2 2 0 0 1 2-2h1V2Z"/><path d="m12.998 9-2.644 2.237 1.292 1.527L13 11.618V18h2V9h-2.002Z"/><path d="M6.5 12.5A.5.5 0 0 0 7 12v-.5a.5.5 0 0 0-1 0H4a2.5 2.5 0 0 1 5 0v.5c0 .571-.191 1.098-.514 1.518.323.428.514.96.514 1.538v.444a2.5 2.5 0 0 1-5 0h2a.5.5 0 0 0 1 0v-.444a.556.556 0 0 0-.556-.556H6v-2c.167 0 .334-.004.5 0Z"/><path d="m24 15-4 5V5h2v10h2Z"/></svg>