<svg xmlns="http://www.w3.org/2000/svg" width="24" height="24" viewBox="0 0 24 24"><path d="M6 18h3v2H6a2 2 0 0 1-2-2v-3h2v3Z"/><path d="M20 18a2 2 0 0 1-2 2h-3v-2h3v-3h2v3Z"/><path d="M10.5 13a.5.5 0 0 1 .5.5v2a.5.5 0 0 1-.5.5h-2a.5.5 0 0 1-.5-.5v-2a.5.5 0 0 1 .5-.5h2Z"/><path d="M15.5 13a.5.5 0 0 1 .5.5v2a.5.5 0 0 1-.5.5h-2a.5.5 0 0 1-.5-.5v-2a.5.5 0 0 1 .5-.5h2Z"/><path d="M10.5 8a.5.5 0 0 1 .5.5v2a.5.5 0 0 1-.5.5h-2a.5.5 0 0 1-.5-.5v-2a.5.5 0 0 1 .5-.5h2Z"/><path d="M15.5 8a.5.5 0 0 1 .5.5v2a.5.5 0 0 1-.5.5h-2a.5.5 0 0 1-.5-.5v-2a.5.5 0 0 1 .5-.5h2Z"/><path d="M9 6H6v3H4V6a2 2 0 0 1 2-2h3v2Z"/><path d="M18 4a2 2 0 0 1 2 2v3h-2V6h-3V4h3Z"/></svg>