<svg xmlns="http://www.w3.org/2000/svg" width="24" height="24" viewBox="0 0 24 24"><path fill-rule="evenodd" d="m13 8 3 8h-2l-.375-1h-3.25L10 16H8l3-8h2Zm-1 2.667L12.875 13h-1.75L12 10.667Z" clip-rule="evenodd"/><path fill-rule="evenodd" d="M4.64 20.703A2.99 2.99 0 0 0 6 22.393a3.008 3.008 0 0 0 3.26-.168A3.008 3.008 0 0 0 12 24a3.009 3.009 0 0 0 2.74-1.776 3.008 3.008 0 0 0 3.26.168 3.007 3.007 0 0 0 1.485-2.907A3.008 3.008 0 0 0 22.392 18a3.007 3.007 0 0 0-.168-3.26A3.007 3.007 0 0 0 24 12a3.008 3.008 0 0 0-1.776-2.74A3.009 3.009 0 0 0 22.392 6a3.008 3.008 0 0 0-2.908-1.485A3.009 3.009 0 0 0 18 1.608a3.008 3.008 0 0 0-3.26.168A3.009 3.009 0 0 0 12 0a3.008 3.008 0 0 0-2.74 1.776A3.008 3.008 0 0 0 6 1.608a3.008 3.008 0 0 0-1.485 2.908A3.008 3.008 0 0 0 1.608 6a3.008 3.008 0 0 0 .168 3.26A3.008 3.008 0 0 0 0 12a3.007 3.007 0 0 0 1.776 2.74A3.009 3.009 0 0 0 1.608 18a2.99 2.99 0 0 0 1.69 1.36c.39.123.805.167 1.217.125-.042.413.002.827.126 1.218Zm16.767-7.789a2 2 0 0 0-.803 2.998 1 1 0 0 1-.914 1.583 2 2 0 0 0-2.195 2.195 1 1 0 0 1-1.583.914 2 2 0 0 0-2.998.803 1 1 0 0 1-1.828 0 2 2 0 0 0-2.998-.803 1 1 0 0 1-1.583-.914 2 2 0 0 0-2.195-2.195 1 1 0 0 1-.914-1.583 2 2 0 0 0-.803-2.998 1 1 0 0 1 0-1.828 2 2 0 0 0 .803-2.998 1 1 0 0 1 .914-1.583A2 2 0 0 0 6.505 4.31a1 1 0 0 1 1.583-.914 2 2 0 0 0 2.998-.803 1 1 0 0 1 1.828 0 2 2 0 0 0 2.998.803 1 1 0 0 1 1.583.914 2 2 0 0 0 2.195 2.195 1 1 0 0 1 .914 1.583 2 2 0 0 0 .803 2.998 1 1 0 0 1 0 1.828Z" clip-rule="evenodd"/></svg>