<svg width="24" height="24" viewBox="0 0 24 24" fill="none" xmlns="http://www.w3.org/2000/svg">
<path fill-rule="evenodd" clip-rule="evenodd" d="M2 11C2 5.47715 6.47715 1 12 1C17.5228 1 22 5.47715 22 11C22 15.1435 19.4799 18.6984 15.8889 20.2157C14.3611 20.8612 13.25 21.4167 12.9722 22.5278C12.8333 23.0833 12.4861 23.5 12 23.5C11.5139 23.5 11.1667 23.0833 11.0278 22.5278C10.75 21.4167 9.63889 20.8612 8.11111 20.2157C4.52006 18.6984 2 15.1435 2 11ZM12 16C14.7614 16 17 13.7614 17 11C17 8.23858 14.7614 6 12 6C9.23858 6 7 8.23858 7 11C7 13.7614 9.23858 16 12 16Z" fill="url(#paint0_linear_1132_12912)"/>
<path d="M17 11C17 13.7614 14.7614 16 12 16C9.23858 16 7 13.7614 7 11C7 8.23858 9.23858 6 12 6C14.7614 6 17 8.23858 17 11Z" fill="url(#paint1_linear_1132_12912)"/>
<defs>
<linearGradient id="paint0_linear_1132_12912" x1="12" y1="1" x2="12" y2="23.5" gradientUnits="userSpaceOnUse">
<stop stop-color="#77D498"/>
<stop offset="1" stop-color="#4C956C"/>
</linearGradient>
<linearGradient id="paint1_linear_1132_12912" x1="12" y1="6" x2="12" y2="16" gradientUnits="userSpaceOnUse">
<stop stop-color="#346549"/>
<stop offset="1" stop-color="#3C7656"/>
</linearGradient>
</defs>
</svg>
