<svg xmlns="http://www.w3.org/2000/svg" width="24" height="24" viewBox="0 0 24 24"><path d="M17.5 13a3.5 3.5 0 0 0 3.498-3.623L21 9.25h-.009a3.502 3.502 0 0 0-2.293-3.04A6.001 6.001 0 0 0 7.553 4H7.5a4.5 4.5 0 0 0 0 9h10Z"/><path d="M5 16a1 1 0 1 1 2 0 1 1 0 0 1-2 0Z"/><path d="M5 20a1 1 0 1 1 2 0 1 1 0 0 1-2 0Z"/><path d="M10 17a1 1 0 1 0 0 2 1 1 0 0 0 0-2Z"/><path d="M9 22a1 1 0 1 1 2 0 1 1 0 0 1-2 0Z"/><path d="M14 15a1 1 0 1 0 0 2 1 1 0 0 0 0-2Z"/><path d="M13 20a1 1 0 1 1 2 0 1 1 0 0 1-2 0Z"/><path d="M18 16a1 1 0 1 0 0 2 1 1 0 0 0 0-2Z"/><path d="M17 21a1 1 0 1 1 2 0 1 1 0 0 1-2 0Z"/></svg>