<svg width="24" height="24" viewBox="0 0 24 24" xmlns="http://www.w3.org/2000/svg">
<path fill-rule="evenodd" clip-rule="evenodd" d="M4 4C4 2.89543 4.89543 2 6 2H14V6C14 7.10457 14.8954 8 16 8H20V20C20 21.1046 19.1046 22 18 22H6C4.89543 22 4 21.1046 4 20V4ZM13 12L10 8L7 12H9V20H11L11 18C11 16.8954 11.8954 16 13 16H14L14 18L18 15L14 12L14 14H13C12.2714 14 11.5883 14.1948 11 14.5351V12H13Z" />
<path opacity="0.5" d="M14 2L20 8H16C14.8954 8 14 7.10457 14 6V2Z" />
<g opacity="0.5">
<path d="M10 8L7 12H13L10 8Z" />
<path d="M9 12L9 18C9 16.5194 9.8044 15.2267 11 14.5351V12H9Z" />
</g>
</svg>
