<svg xmlns="http://www.w3.org/2000/svg" width="24" height="24" viewBox="0 0 24 24"><path fill-rule="evenodd" d="M16.586 2h-.636a2.5 2.5 0 0 0-2.45-2h-3a2.5 2.5 0 0 0-2.45 2h-.636A3.414 3.414 0 0 0 4 5.414V18a2 2 0 0 0 2 2h12a2 2 0 0 0 2-2V5.414A3.414 3.414 0 0 0 16.586 2ZM10 3a1 1 0 0 1 1-1h2a1 1 0 1 1 0 2h-2a1 1 0 0 1-1-1Zm1 5H6v6h5V8Zm7 0h-5v6h5V8ZM8 17a1 1 0 1 1-2 0 1 1 0 0 1 2 0Zm9 1a1 1 0 1 0 0-2 1 1 0 0 0 0 2Z" clip-rule="evenodd"/><path d="M7 18h2l-1.333 4h8.666L15 18h2l2 6H5l2-6Z" opacity=".5"/></svg>