<svg width="36" height="36" viewBox="0 0 36 36" fill="none" xmlns="http://www.w3.org/2000/svg">
<g id="ic_action_srtm_colored_day">
<path id="bottom - bg" d="M7.91591 7.99578C11.6106 3.65924 19.3166 -0.0578206 28.1839 6.75676C37.0511 13.5713 32.2033 22.9735 25.4334 24.2454C21.0681 25.0656 20.4445 36.7883 9.84333 31.7438C-1.87396 26.1682 4.22122 12.3323 7.91591 7.99578Z" fill="#14CC70"/>
<path id="top - stroke (Stroke)" fill-rule="evenodd" clip-rule="evenodd" d="M17.6762 12.1835C16.2026 12.5732 14.9623 13.4766 14.4302 14.1424C13.837 14.8846 12.6184 17.3204 12.1647 19.8613C11.9437 21.0984 11.956 22.095 12.1367 22.7831C12.2935 23.3803 12.5367 23.6496 12.8874 23.8275C13.3846 24.0797 13.5892 24.0152 13.8421 23.8878C14.2962 23.6592 14.9 23.1137 15.6608 22.1172C16.1664 21.4551 16.581 20.8229 17.0249 20.1459C17.2706 19.7712 17.5253 19.3829 17.8093 18.9682C18.1601 18.456 18.5753 17.8806 19.0308 17.3879C19.4292 16.9572 20.1775 16.2281 21.2633 15.9124C22.0694 15.678 22.4059 15.1694 22.4786 14.8312C22.5266 14.6082 22.5872 13.8553 21.3123 12.8108C20.2966 11.9787 19.0612 11.8171 17.6762 12.1835Z" fill="#0DDE75"/>
<path id="bottom - stroke (Stroke)" fill-rule="evenodd" clip-rule="evenodd" d="M16.6335 6.14859C13.953 6.6235 11.6889 8.19323 10.1995 9.94136C8.68726 11.7163 6.52815 15.7112 6.08185 19.7358C5.86446 21.6961 6.07223 23.491 6.79026 25.0059C7.48582 26.4733 8.76703 27.9093 11.1324 29.0349C13.3738 30.1015 14.6728 30.0887 15.4134 29.9044C16.1707 29.716 16.8745 29.2188 17.6837 28.2595C18.0888 27.7793 18.4773 27.2354 18.9004 26.6162C18.995 26.4776 19.0946 26.3304 19.1976 26.1781C19.5224 25.698 19.8818 25.1666 20.2327 24.6911C21.0784 23.5452 22.541 21.7364 24.8794 21.297C27.1296 20.8742 29.1413 19.0441 29.7856 16.7638C30.3585 14.7362 29.9483 11.8963 26.3558 9.13545C22.5146 6.18346 19.2108 5.69198 16.6335 6.14859ZM28.1839 6.75676C19.3167 -0.0578206 11.6106 3.65924 7.91591 7.99578C4.22122 12.3323 -1.87397 26.1682 9.84333 31.7438C16.8112 35.0594 19.4687 31.1314 21.7113 27.8167C22.8807 26.0882 23.9373 24.5265 25.4334 24.2454C32.2033 22.9735 37.0511 13.5713 28.1839 6.75676Z" fill="#1BBB6B"/>
<path id="top - stroke (Stroke)_2" fill-rule="evenodd" clip-rule="evenodd" d="M17.6762 12.1834C16.2025 12.5732 14.9623 13.4766 14.4302 14.1424C13.837 14.8846 12.6184 17.3203 12.1647 19.8613C11.9437 21.0984 11.956 22.095 12.1367 22.7831C12.2935 23.3803 12.5367 23.6496 12.8874 23.8275C13.3846 24.0797 13.5892 24.0152 13.8421 23.8878C14.2962 23.6592 14.9 23.1137 15.6608 22.1172C16.1664 21.4551 16.581 20.8229 17.0249 20.1459C17.2706 19.7712 17.5253 19.3828 17.8093 18.9682C18.1601 18.456 18.5753 17.8806 19.0308 17.3879C19.4292 16.9571 20.1775 16.2281 21.2633 15.9124C22.0694 15.678 22.4059 15.1694 22.4786 14.8312C22.5266 14.6082 22.5872 13.8553 21.3123 12.8108C20.2966 11.9787 19.0612 11.8171 17.6762 12.1834ZM23.2135 10.4902C19.3191 7.29967 14.0052 9.86897 12.0867 12.2694C10.1682 14.6698 6.52311 23.9632 11.5303 26.503C15.2117 28.3704 17.7015 24.5811 19.6126 21.6725C20.5591 20.2319 21.3637 19.0074 22.1008 18.7931C25.5516 17.7899 27.1079 13.6806 23.2135 10.4902Z" fill="#1BBB6B"/>
</g>
</svg>
