<svg xmlns="http://www.w3.org/2000/svg" width="24" height="24" viewBox="0 0 24 24"><path d="m14 2 2 2 4 4h-4a2 2 0 0 1-2-2V2Z" opacity=".5" /><path fill-rule="evenodd" d="M4 4a2 2 0 0 1 2-2h8v4a2 2 0 0 0 2 2h4v12a2 2 0 0 1-2 2H6a2 2 0 0 1-2-2V4Zm7 5h2v5h2l-3 4-3-4h2V9Z" clip-rule="evenodd"/><path d="m14 2 6 6h-4a2 2 0 0 1-2-2V2Z" opacity=".5"/><path fill-rule="evenodd" d="M4 4a2 2 0 0 1 2-2h8v4a2 2 0 0 0 2 2h4v12a2 2 0 0 1-2 2H6a2 2 0 0 1-2-2V4Zm7 5h2v5h2l-3 4-3-4h2V9Z" clip-rule="evenodd"/></svg>