<svg xmlns="http://www.w3.org/2000/svg" width="24" height="24" viewBox="0 0 24 24"><path d="M13.586 5.828A2 2 0 0 1 17 7.243v2.819a8.069 8.069 0 0 1 2 0v-2.82a4 4 0 1 0-8 0v6.882a8.038 8.038 0 0 1 2-2.37V7.244a2 2 0 0 1 .586-1.415Z"/><path fill-rule="evenodd" d="M10 18.49v2.141a3.998 3.998 0 0 1-5-3.874V11c0-.056.005-.112.014-.166a3.001 3.001 0 1 1 1.972 0c.01.054.014.11.014.166v5.757a2 2 0 0 0 3 1.733ZM7 8a1 1 0 1 1-2 0 1 1 0 0 1 2 0Z" clip-rule="evenodd"/><path fill-rule="evenodd" d="M24 18a6 6 0 1 1-12 0 6 6 0 0 1 12 0Zm-7-4v3h-3v2h3v3h2v-3h3v-2h-3v-3h-2Z" clip-rule="evenodd"/></svg>