<svg xmlns="http://www.w3.org/2000/svg" width="24" height="24" viewBox="0 0 24 24"><path fill-rule="evenodd" d="m13 8 3 8h-2l-.375-1h-3.25L10 16H8l3-8h2Zm-1 2.667L12.875 13h-1.75L12 10.667Z" clip-rule="evenodd"/><path fill-rule="evenodd" d="M2 4a2 2 0 0 1 2-2h16a2 2 0 0 1 2 2v16a2 2 0 0 1-2 2H4a2 2 0 0 1-2-2V4Zm2 0h16v16H4V4Z" clip-rule="evenodd"/><g opacity=".5"><path d="M6 5a1 1 0 1 0 0 2 1 1 0 0 0 0-2Z"/><path d="M6 17a1 1 0 1 0 0 2 1 1 0 0 0 0-2Z"/><path d="M17 6a1 1 0 1 1 2 0 1 1 0 0 1-2 0Z"/><path d="M18 17a1 1 0 1 0 0 2 1 1 0 0 0 0-2Z"/></g></svg>