<svg width="24" height="24" viewBox="0 0 24 24" xmlns="http://www.w3.org/2000/svg">
<g id="ic_action_terrain">
<path id="bigg" opacity="0.5" d="M14 20H22L13.7595 6.42739C13.5984 6.16203 13.3104 6 13 6C12.6896 6 12.4016 6.16203 12.2405 6.42739L8.90909 11.9144L14 20Z" />
<path id="Union" fill-rule="evenodd" clip-rule="evenodd" d="M13.7595 6.42739L20.7857 18H22C22.5523 18 23 18.4477 23 19C23 19.5523 22.5523 20 22 20H2C1.44772 20 1 19.5523 1 19C1 18.4477 1.44772 18 2 18H3.25926L7.48906 11.2821C7.5996 11.1065 7.79254 11 8 11C8.20746 11 8.4004 11.1065 8.51094 11.2821L8.9091 11.9144L12.2405 6.42739C12.4016 6.16203 12.6896 6 13 6C13.3105 6 13.5984 6.16203 13.7595 6.42739ZM5.62267 18H10.3773L8 14.2242L5.62267 18ZM12.7408 18H18.446L13 9.0302L10.1003 13.8063L12.7408 18Z" />
</g>
</svg>
