<svg xmlns="http://www.w3.org/2000/svg" width="24" height="24" viewBox="0 0 24 24"><path fill-rule="evenodd" d="M12 20a2 2 0 1 0 0-4 2 2 0 0 0 0 4Z" clip-rule="evenodd" opacity=".3"/><path d="M13 14h-2V7h2v7Z"/><path d="M16 6.273a.727.727 0 0 0-.18-.479L12.8 2.341A1 1 0 0 0 12.046 2h-.092a1 1 0 0 0-.753.341L8.18 5.794A.727.727 0 0 0 8.727 7h6.546A.727.727 0 0 0 16 6.273Z"/><path fill-rule="evenodd" d="M16 18a4 4 0 1 1-8 0 4 4 0 0 1 8 0Zm-2 0a2 2 0 1 1-4 0 2 2 0 0 1 4 0Z" clip-rule="evenodd"/></svg>