<svg width="24" height="24" viewBox="0 0 24 24"  xmlns="http://www.w3.org/2000/svg">
<path opacity="0.8" fill-rule="evenodd" clip-rule="evenodd" d="M15 19C13.8954 19 13 18.1046 13 17V7C13 4.79086 11.2091 3 9 3C6.79086 3 5 4.79086 5 7V13.0001C5 13.5524 5.44772 14.0001 6 14.0001C6.55228 14.0001 7 13.5524 7 13.0001V7C7 5.89543 7.89543 5 9 5C10.1046 5 11 5.89543 11 7V17C11 19.2091 12.7909 21 15 21C17.2091 21 19 19.2091 19 17V11.0001C19 10.4478 18.5523 10.0001 18 10.0001C17.4477 10.0001 17 10.4478 17 11.0001V17C17 18.1046 16.1046 19 15 19Z" />
<path d="M6 13.0001C7.65685 13.0001 9 14.3433 9 16.0001C9 17.657 7.65685 19.0001 6 19.0001C4.34315 19.0001 3 17.657 3 16.0001C3 14.3433 4.34315 13.0001 6 13.0001ZM6 15.0001C5.44772 15.0001 5 15.4478 5 16.0001C5 16.5524 5.44772 17.0001 6 17.0001C6.55228 17.0001 7 16.5524 7 16.0001C7 15.4478 6.55228 15.0001 6 15.0001ZM18.001 6.00012C18.3033 6.00019 18.5762 6.18142 18.6934 6.46008L20.9316 11.7882C20.9766 11.8952 21 12.01 21 12.1261V12.1915C20.9998 12.638 20.6379 12.9999 20.1914 13.0001C20.0659 13.0001 19.9414 12.9713 19.8291 12.9152L18 12.0001L16.1709 12.9152C16.0586 12.9713 15.9342 13.0001 15.8086 13.0001C15.3621 12.9999 15.0002 12.638 15 12.1915V12.1671C15 12.0571 15.0221 11.9474 15.0645 11.8458L17.3076 6.46204C17.4244 6.18233 17.6979 6.00012 18.001 6.00012Z" />
</svg>
