<svg xmlns="http://www.w3.org/2000/svg" width="24" height="24" viewBox="0 0 24 24"><path d="M22 13h-1v2l1 2v2h-3v3l-1 1-1-1v-3h-3v-2l1-2v-2h-1v-2h8v2ZM12 6h8a2 2 0 0 1 2 2v1H12v11H4a2 2 0 0 1-2-2V6a2 2 0 0 1 2-2h6l2 2Zm5 9.472-.21.423L16.235 17h3.528l-.553-1.105-.211-.423V13h-2v2.472Z"/><path fill-rule="evenodd" d="M22 13h-1v2l1 2v2h-3v3l-1 1-1-1v-3h-3v-2l1-2v-2h-1v-2h8v2Zm-5 2.472L16.236 17h3.528L19 15.472V13h-2v2.472Z" clip-rule="evenodd"/><path d="M12 6h8a2 2 0 0 1 2 2v1H12v11H4a2 2 0 0 1-2-2V6a2 2 0 0 1 2-2h6l2 2Z"/></svg>