<svg xmlns="http://www.w3.org/2000/svg" width="24" height="24" viewBox="0 0 24 24"><g opacity=".6"><path d="M4.5 18a1.5 1.5 0 1 1 0 3 1.5 1.5 0 0 1 0-3Z"/><path d="M9.5 18a1.5 1.5 0 1 1 0 3 1.5 1.5 0 0 1 0-3Z"/><path d="M14.5 18a1.5 1.5 0 1 1 0 3 1.5 1.5 0 0 1 0-3Z"/><path d="M19.5 18a1.5 1.5 0 1 1 0 3 1.5 1.5 0 0 1 0-3Z"/><path d="M4.5 13a1.5 1.5 0 1 1 0 3 1.5 1.5 0 0 1 0-3Z"/><path d="M19.5 13a1.5 1.5 0 1 1 0 3 1.5 1.5 0 0 1 0-3Z"/><path d="M4.5 8a1.5 1.5 0 1 1 0 3 1.5 1.5 0 0 1 0-3Z"/><path d="M19.5 8a1.5 1.5 0 1 1 0 3 1.5 1.5 0 0 1 0-3Z"/><path d="M4.5 3a1.5 1.5 0 1 1 0 3 1.5 1.5 0 0 1 0-3Z"/><path d="M9.5 3a1.5 1.5 0 1 1 0 3 1.5 1.5 0 0 1 0-3Z"/><path d="M14.5 3a1.5 1.5 0 1 1 0 3 1.5 1.5 0 0 1 0-3Z"/><path d="M19.5 3a1.5 1.5 0 1 1 0 3 1.5 1.5 0 0 1 0-3Z"/></g><path d="M10.5 13a.5.5 0 0 1 .5.5v2a.5.5 0 0 1-.5.5h-2a.5.5 0 0 1-.5-.5v-2a.5.5 0 0 1 .5-.5h2Z"/><path d="M15.5 13a.5.5 0 0 1 .5.5v2a.5.5 0 0 1-.5.5h-2a.5.5 0 0 1-.5-.5v-2a.5.5 0 0 1 .5-.5h2Z"/><path d="M10.5 8a.5.5 0 0 1 .5.5v2a.5.5 0 0 1-.5.5h-2a.5.5 0 0 1-.5-.5v-2a.5.5 0 0 1 .5-.5h2Z"/><path d="M15.5 8a.5.5 0 0 1 .5.5v2a.5.5 0 0 1-.5.5h-2a.5.5 0 0 1-.5-.5v-2a.5.5 0 0 1 .5-.5h2Z"/></svg>