<svg xmlns="http://www.w3.org/2000/svg" width="24" height="24" viewBox="0 0 24 24"><path d="m14.4 18 .8 2H8.8l.8-2h4.8Z"/><path d="M9 14a1 1 0 1 1 0 2 1 1 0 0 1 0-2Z"/><path d="M15 14a1 1 0 1 1 0 2 1 1 0 0 1 0-2Z"/><path d="M16 8v4H8V8h8Z"/><path fill-rule="evenodd" d="M12 0c6.627 0 12 5.373 12 12v10a2 2 0 0 1-2 2H2a2 2 0 0 1-2-2V12C0 5.373 5.373 0 12 0ZM8.56 4A2.56 2.56 0 0 0 6 6.56V16c0 .973.695 1.781 1.615 1.96L6 22h12l-1.616-4.04A1.999 1.999 0 0 0 18 16V6.56A2.56 2.56 0 0 0 15.44 4H8.56Z" clip-rule="evenodd"/><path d="M18 22H6l1.6-4h2l-.8 2h6.4l-.8-2h2l1.6 4Z" opacity=".5"/></svg>