<svg width="24" height="24" viewBox="0 0 24 24" fill="none" xmlns="http://www.w3.org/2000/svg">
<path fill-rule="evenodd" clip-rule="evenodd" d="M12 2C6.5 2 2 6.5 2 12C2 17.5 6.5 22 12 22C17.5 22 22 17.5 22 12C22 6.5 17.5 2 12 2Z" fill="#237BFF"/>
<path fill-rule="evenodd" clip-rule="evenodd" d="M17.7071 9.29289C18.0976 9.68342 18.0976 10.3166 17.7071 10.7071L11.7071 16.7071C11.3166 17.0976 10.6834 17.0976 10.2929 16.7071L7.29289 13.7071C6.90237 13.3166 6.90237 12.6834 7.29289 12.2929C7.68342 11.9024 8.31658 11.9024 8.70711 12.2929L11 14.5858L16.2929 9.29289C16.6834 8.90237 17.3166 8.90237 17.7071 9.29289Z" fill="white"/>
</svg>
