<svg xmlns="http://www.w3.org/2000/svg" width="24" height="24" viewBox="0 0 24 24"><path fill-rule="evenodd" d="M4.85 6.145A4 4 0 0 0 2 9.975v6.68a1 1 0 0 0 1.287.959l18-5.4a1 1 0 0 0 .713-.958V3.688a2 2 0 0 0-2.575-1.916L4.851 6.145ZM16 9.712l4-1.2v-3.48a1 1 0 0 0-1.287-.958L16 4.888v4.824Zm-6-3.024 4-1.2v6.824l-4 1.2V6.688ZM4.713 8.274 8 7.288v4.824l-4 1.2v-4.08a1 1 0 0 1 .713-.958Z" clip-rule="evenodd"/><path d="M21.958 15.313a1 1 0 0 1-.67 1.245l-18 5.4a1 1 0 1 1-.575-1.916l3.517-1.055a1.996 1.996 0 0 1-1.78-.722l3.54-1.062a2.001 2.001 0 0 1-1.087 1.582l11.328-3.398a1.996 1.996 0 0 1-1.78-.722l3.539-1.062a2 2 0 0 1-1.088 1.582l1.81-.543a1 1 0 0 1 1.246.67Z"/></svg>