<svg width="72" height="72" viewBox="0 0 72 72" fill="none" xmlns="http://www.w3.org/2000/svg">
<g id="ic_custom_logo_osmand">
<path id="Logo &#226;&#128;&#147; w144, V3" fill-rule="evenodd" clip-rule="evenodd" d="M45.3333 58.1176C53.9519 54.4762 60 45.9444 60 36C60 22.7452 49.2548 12 36 12C22.7452 12 12 22.7452 12 36C12 45.9444 18.0482 54.4762 26.6667 58.1176C31 60 32.6667 61 34 63.6667C34.1298 63.9263 34.2407 64.1734 34.3437 64.4028C34.7695 65.3516 35.0605 66 36 66C36.9395 66 37.2305 65.3516 37.6563 64.4028C37.7593 64.1734 37.8702 63.9263 38 63.6667C39.3333 61 40.878 60 45.3333 58.1176ZM36 49.3334C43.3638 49.3334 49.3334 43.3638 49.3334 36C49.3334 28.6362 43.3638 22.6667 36 22.6667C28.6362 22.6667 22.6667 28.6362 22.6667 36C22.6667 43.3638 28.6362 49.3334 36 49.3334Z" fill="url(#paint0_linear_1558_12356)"/>
</g>
<defs>
<linearGradient id="paint0_linear_1558_12356" x1="36" y1="12" x2="36" y2="66" gradientUnits="userSpaceOnUse">
<stop stop-color="#FFB033"/>
<stop offset="1" stop-color="#FF8800"/>
</linearGradient>
</defs>
</svg>
