<svg width="88" height="88" viewBox="0 0 88 88" fill="none" xmlns="http://www.w3.org/2000/svg">
<path d="M0 77C0 83.0751 4.92487 88 11 88H77C83.0751 88 88 83.0751 88 77V11C88 4.92487 83.0751 0 77 0H11C4.92487 0 0 4.92487 0 11V77Z" fill="#494848"/>
<path d="M11 0C4.92487 0 0 4.92487 0 11V37.6406L88 10.5703C88 4.73249 83.2675 0 77.4297 0H11Z" fill="#11AEED"/>
<path d="M58.2244 66.0578C55.076 70.3664 49.9835 73.0717 44.3834 73.0717C36.6492 73.0717 30.046 67.85 28.3252 60.3744L28.1763 59.2966L20.7752 59.3006L20.9261 60.6489C22.7937 72.0047 32.6189 80.2631 44.2855 80.2642H44.2934C54.001 80.2642 62.5926 74.5925 66.519 66.1804C66.8071 65.563 67.5675 64.2853 65.9996 64.2853H60.6064C59.3522 64.2853 58.6369 65.4934 58.2244 66.0578ZM58.7878 47.2863C55.8119 42.7583 50.6734 39.8892 44.9049 39.8892C37.1509 39.8892 30.382 45.1247 28.4389 52.6442L28.1861 53.925L20.8556 53.9298L21.0426 52.3395C23.2426 40.9562 33.3147 32.6938 44.9931 32.6938C54.6526 32.6978 63.3285 38.7172 66.9599 47.3214C67.1471 47.7654 67.693 48.6737 66.3133 48.6737H60.7946C59.6657 48.6737 59.0817 47.733 58.7878 47.2863Z" fill="#11AEED"/>
<path d="M12.5047 20.9211C14.8341 20.2081 16.5843 20.5625 16.6057 20.5673C16.9327 20.6682 17.0403 20.8868 16.9975 21.1427C16.9975 21.1427 16.8961 21.7636 16.8959 21.766C16.8373 22.0755 16.6053 22.2481 16.3135 22.1946C16.297 22.1907 14.622 21.7574 12.5368 22.5963C9.96044 23.6326 10.5115 25.912 10.6482 26.3587C10.8111 26.8911 11.5227 28.6169 13.8346 28.4729C15.428 28.3725 17.111 27.2668 17.4661 26.9769C17.4417 26.8969 17.058 25.6365 17.058 25.6365C16.9975 25.4383 16.7871 25.3264 16.5888 25.3872L14.5347 26.016C14.2694 26.0971 14.0289 25.9343 13.9476 25.6689L13.8565 25.3712C13.7755 25.1064 13.8839 24.8374 14.1493 24.7561L17.7001 23.6691C17.965 23.588 18.2468 23.7377 18.3279 24.0026L19.2072 26.8771C19.3229 27.255 19.1694 27.5228 19.0233 27.6768C18.9837 27.7249 18.023 28.8544 15.1964 29.7197C14.342 29.9811 10.0184 31.0734 8.74414 26.909C8.60578 26.4565 7.53425 22.4427 12.5047 20.9211Z" fill="#494848"/>
<path fill-rule="evenodd" clip-rule="evenodd" d="M22.972 17.8987C23.2036 17.8279 23.5288 17.9129 23.695 18.0884C23.7056 18.0993 29.9355 24.5441 30.0694 24.6829C30.2026 24.8204 30.1551 25.0271 29.9239 25.0978L28.6729 25.4809C28.3413 25.5823 28.1195 25.4687 27.9561 25.2973C27.793 25.1258 27.4746 24.818 27.4027 24.7425C27.2925 24.6267 27.1303 24.6283 26.8988 24.6987L22.8835 25.9252C22.6522 25.9959 22.5095 26.1158 22.4913 26.2457C22.4777 26.342 22.3984 26.8172 22.364 27.0352C22.3298 27.2533 22.2211 27.4555 21.8809 27.5599L21.0186 27.8237C20.787 27.8945 20.6293 27.7816 20.6699 27.5436L22.0159 18.606C22.0521 18.3671 22.2703 18.1135 22.5015 18.0427L22.972 17.8987ZM23.5913 20.5313C23.4316 20.3509 23.273 20.3979 23.2393 20.6374L22.7329 24.2376C22.6997 24.4767 22.8612 24.6155 23.0924 24.5447L25.8569 23.7006C26.0879 23.63 26.1465 23.4239 25.9866 23.2429L23.5913 20.5313Z" fill="#494848"/>
<path fill-rule="evenodd" clip-rule="evenodd" d="M35.4344 14.2344C35.8849 14.1973 36.2926 14.2333 36.6567 14.341C37.0209 14.4478 37.3335 14.6368 37.5933 14.9054C37.8534 15.1747 38.055 15.5423 38.1978 16.0089C38.4161 16.7223 38.3715 17.3349 38.0658 17.8432C37.7597 18.3504 36.9594 18.8839 36.9594 18.8839C36.7582 19.0176 36.7492 19.2491 36.94 19.3976C36.9462 19.4024 39.7665 21.5995 39.8804 21.6878C39.995 21.7768 40.0255 22.0057 39.7942 22.0766L38.4846 22.4776C38.2533 22.5482 38.0498 22.506 37.7915 22.3161L34.97 20.1433C34.7786 19.9948 34.4327 19.9317 34.2019 20.0023C34.2019 20.0023 32.3147 20.5824 32.3039 20.5885C32.3046 20.5904 32.3024 20.593 32.3023 20.5933C32.3005 20.5943 33.2368 23.6565 33.2404 23.6681C33.3112 23.8996 33.167 24.1053 32.9358 24.1761L31.9338 24.4827C31.7028 24.5534 31.4686 24.4637 31.3978 24.2322L29.0329 16.5032C28.9621 16.2716 29.0936 16.0249 29.3245 15.9543L33.5585 14.6582C33.7893 14.5875 34.1701 14.4804 34.4045 14.4202C34.4103 14.4188 34.9855 14.2722 35.4344 14.2344ZM35.6738 15.9073C35.4903 15.8454 35.2589 15.8248 34.981 15.8444C34.7032 15.8638 34.4076 15.9417 34.4076 15.9417C34.1736 16.0027 33.7932 16.1101 33.562 16.1807L31.5989 16.7816C31.3676 16.8524 31.2363 17.0996 31.3071 17.3309L31.7864 18.897C31.8572 19.1283 32.1042 19.2596 32.3355 19.1888L34.2984 18.5879C34.5296 18.5171 34.9052 18.3932 35.1329 18.3125C35.1359 18.3114 35.4226 18.2104 35.6625 18.0719C35.904 17.9334 36.0839 17.7859 36.2013 17.6312C36.3194 17.4765 36.3883 17.316 36.4088 17.1498C36.4283 16.9838 36.412 16.8134 36.359 16.6403C36.3057 16.4664 36.2243 16.3168 36.1152 16.1902C36.0052 16.0637 35.8582 15.9695 35.6738 15.9073Z" fill="#494848"/>
<path d="M49.1338 9.89064C49.3655 9.81966 49.6118 9.95081 49.6826 10.1823L52.0349 17.87C52.1282 18.1752 51.9749 18.3481 51.7432 18.4191L50.8038 18.7066C50.5723 18.7774 50.3491 18.6861 50.2809 18.463C50.2314 18.3014 48.5751 12.8756 48.5621 12.8668C48.5531 12.8696 47.2306 19.3942 47.23 19.3972C47.1808 19.6341 46.9128 19.7152 46.7416 19.5449C46.7339 19.5372 42.013 14.8537 42.0041 14.8564C41.996 14.8613 43.677 20.3677 43.7098 20.4745C43.7781 20.6976 43.6558 20.8945 43.4242 20.9654L42.6086 21.2151C42.3396 21.2974 42.1394 21.1859 42.0688 20.955L39.7071 13.2359C39.6363 13.0044 39.7679 12.7575 39.9992 12.6867L41.3116 12.2851C41.6055 12.195 41.8684 12.3 42.0344 12.4748L45.8134 16.1778C45.9863 16.3463 46.1711 16.2906 46.2216 16.0541L47.3585 10.833C47.4116 10.5969 47.5548 10.3739 47.8759 10.2756L49.1338 9.89064Z" fill="#494848"/>
<path d="M53.8907 8.43452C54.1218 8.36389 54.3289 8.5069 54.3997 8.73841L56.7646 16.4675C56.8354 16.699 56.6914 16.9045 56.4602 16.9752L55.4407 17.2873C55.2092 17.3582 54.9753 17.2702 54.9102 17.0573C54.8633 16.904 52.5671 9.39905 52.5441 9.32377C52.4542 9.02987 52.5997 8.82979 52.8312 8.7588L53.8907 8.43452Z" fill="#494848"/>
<path d="M65.7886 4.79267C66.0202 4.72187 66.267 4.85267 66.3378 5.08435L68.69 12.772C68.7607 13.0033 68.6296 13.2503 68.3979 13.3211L67.6976 13.5356C67.3434 13.6439 67.1032 13.5712 66.889 13.4572L60.0858 9.67097C59.8746 9.55311 59.76 9.64591 59.8308 9.87704C59.8308 9.87704 61.3868 14.9801 61.4195 15.0868C61.4846 15.2997 61.3612 15.475 61.1306 15.5456L60.1981 15.831C59.9666 15.902 59.7703 15.7975 59.722 15.6397C59.6734 15.481 57.3513 7.89168 57.303 7.73397C57.2547 7.57569 57.335 7.38029 57.6277 7.29073L58.5586 7.00573C58.8755 6.90879 59.1523 6.97235 59.3639 7.08957L65.8851 10.7091C66.0965 10.8265 66.2113 10.7337 66.1405 10.5021C66.1405 10.5021 64.6584 5.66693 64.6253 5.55893C64.5572 5.33636 64.6975 5.12667 64.9286 5.05602L65.7886 4.79267Z" fill="#494848"/>
<path d="M70.4469 11.729L70.6677 11.6615C70.8106 11.6176 70.8931 11.5602 70.8477 11.4121C70.8082 11.2825 70.6806 11.2803 70.5622 11.3165L70.3413 11.3842L70.4469 11.729ZM70.1109 11.2957L70.5471 11.1622C70.8087 11.0821 70.9701 11.1477 71.0361 11.3631C71.0921 11.5463 71.0166 11.7139 70.8389 11.7684L71.3164 12.1733L71.1196 12.2335L70.6476 11.8268L70.4914 11.8746L70.6456 12.3785L70.4596 12.4356L70.1109 11.2957ZM70.9132 12.5793C71.3604 12.4425 71.5868 11.9784 71.4441 11.5123C71.3014 11.0463 70.8542 10.7882 70.407 10.925C69.9545 11.0635 69.7279 11.5279 69.8706 11.9939C70.0132 12.4602 70.4606 12.7178 70.9132 12.5793ZM70.3599 10.7804C70.8958 10.6165 71.4659 10.9193 71.6299 11.4554C71.794 11.9916 71.491 12.5618 70.9551 12.7259C70.4189 12.89 69.8488 12.587 69.6846 12.0508C69.5206 11.5149 69.8237 10.9446 70.3599 10.7804Z" fill="#494848"/>
</svg>
