<svg xmlns="http://www.w3.org/2000/svg" width="24" height="24" fill="none" viewBox="0 0 24 24">
  <path fill="#EA4335" d="M12.158 11.463 2.09 22.01a2.73 2.73 0 0 0 3.999 1.62l11.328-6.452-5.26-5.716Z"/>
  <path fill="#FBBC04" d="m22.338 9.67-4.899-2.806-5.514 4.84 5.537 5.46 4.861-2.775a2.663 2.663 0 0 0 0-4.719h.015Z"/>
  <path fill="#4285F4" d="M2.09 1.996c-.06.225-.091.457-.09.69V21.32c0 .233.03.465.09.69l10.413-10.278L2.09 1.996Z"/>
  <path fill="#34A853" d="m12.233 12.003 5.206-5.139L6.126.383A2.79 2.79 0 0 0 4.723 0 2.73 2.73 0 0 0 2.09 1.988l10.143 10.015Z"/>
</svg>
