<svg width="24" height="24" viewBox="0 0 24 24" fill="none" xmlns="http://www.w3.org/2000/svg">
<path d="M0 21C0 22.6569 1.34315 24 3 24H21C22.6569 24 24 22.6569 24 21V3C24 1.34315 22.6569 0 21 0H3C1.34315 0 0 1.34315 0 3V21Z" fill="#494848"/>
<path d="M3 0C1.34315 0 0 1.34315 0 3V10.2656L24 2.88281C24 1.29068 22.7093 0 21.1172 0H3Z" fill="#11AEED"/>
<path d="M15.8794 18.0157C15.0208 19.1908 13.6319 19.9286 12.1046 19.9286C9.9953 19.9286 8.19441 18.5045 7.72509 16.4657L7.6845 16.1718L5.66602 16.1729L5.70717 16.5406C6.21652 19.6376 8.89612 21.8899 12.0779 21.8902H12.0801C14.7276 21.8902 17.0707 20.3434 18.1416 18.0492C18.2202 17.8808 18.4275 17.5323 18 17.5323H16.5291C16.187 17.5323 15.9919 17.8618 15.8794 18.0157ZM16.0331 12.8962C15.2215 11.6613 13.8201 10.8788 12.2468 10.8788C10.1321 10.8788 8.28605 12.3067 7.75612 14.3575L7.68717 14.7068L5.68795 14.7081L5.73895 14.2744C6.33895 11.1698 9.08587 8.91646 12.2709 8.91646C14.9053 8.91754 17.2715 10.5592 18.2618 12.9058C18.3129 13.0269 18.4618 13.2746 18.0855 13.2746H16.5804C16.2725 13.2746 16.1132 13.0181 16.0331 12.8962Z" fill="#11AEED"/>
<path d="M3.41039 5.70578C4.04569 5.51134 4.52302 5.60799 4.52884 5.6093C4.61803 5.63682 4.64738 5.69644 4.63571 5.76624C4.63571 5.76624 4.60805 5.93556 4.60801 5.93621C4.59202 6.02063 4.52874 6.06769 4.44915 6.05312C4.44465 6.05204 3.98784 5.93387 3.41915 6.16267C2.7165 6.44528 2.8668 7.06693 2.90406 7.18876C2.9485 7.33398 3.14257 7.80465 3.77308 7.76537C4.20765 7.73799 4.66665 7.43644 4.7635 7.35736C4.75684 7.33555 4.65219 6.99179 4.65219 6.99179C4.63569 6.93775 4.57833 6.90722 4.52423 6.92382L3.96404 7.09531C3.89166 7.11743 3.82608 7.07303 3.80391 7.00065L3.77905 6.91946C3.75698 6.84723 3.78654 6.77388 3.85891 6.75171L4.82732 6.45525C4.89955 6.43313 4.97641 6.47396 4.99854 6.5462L5.23835 7.33014C5.26989 7.43321 5.22803 7.50625 5.18819 7.54825C5.17741 7.56138 4.91539 7.86943 4.14449 8.1054C3.91148 8.1767 2.73231 8.47461 2.38478 7.33886C2.34705 7.21544 2.05482 6.12076 3.41039 5.70578Z" fill="#494848"/>
<path fill-rule="evenodd" clip-rule="evenodd" d="M6.26512 4.88149C6.32826 4.86218 6.41696 4.88537 6.46229 4.93323C6.46518 4.93621 8.16425 6.69388 8.20078 6.73173C8.2371 6.76923 8.22413 6.82562 8.16109 6.84489L7.81989 6.94936C7.72947 6.97702 7.66898 6.94604 7.6244 6.8993C7.57992 6.85253 7.49309 6.76859 7.47348 6.748C7.44344 6.71641 7.39918 6.71684 7.33605 6.73605L6.24099 7.07055C6.1779 7.08982 6.13898 7.12253 6.13401 7.15796C6.1303 7.18421 6.10867 7.31382 6.0993 7.37326C6.08997 7.43274 6.06033 7.4879 5.96753 7.51636L5.73235 7.58832C5.66921 7.60763 5.62619 7.57685 5.63725 7.51193L6.00437 5.07441C6.01422 5.00925 6.07375 4.94008 6.13679 4.92077L6.26512 4.88149ZM6.434 5.59948C6.39046 5.55027 6.3472 5.56309 6.33801 5.62843L6.19989 6.61029C6.19085 6.67549 6.2349 6.71334 6.29794 6.69403L7.05191 6.46383C7.11491 6.44457 7.13087 6.38836 7.08728 6.339L6.434 5.59948Z" fill="#494848"/>
<path fill-rule="evenodd" clip-rule="evenodd" d="M9.66395 3.88215C9.7868 3.87203 9.89799 3.88184 9.99731 3.91123C10.0966 3.94034 10.1819 3.99188 10.2527 4.06514C10.3237 4.13859 10.3787 4.23883 10.4176 4.3661C10.4771 4.56067 10.465 4.72774 10.3816 4.86635C10.2981 5.00468 10.0798 5.15018 10.0798 5.15018C10.025 5.18665 10.0225 5.24979 10.0746 5.29029C10.0762 5.2916 10.8454 5.89081 10.8765 5.91489C10.9078 5.93917 10.9161 6.0016 10.853 6.02091L10.4958 6.13029C10.4327 6.14955 10.3772 6.13804 10.3068 6.08625L9.5373 5.49367C9.48508 5.45317 9.39075 5.43596 9.3278 5.45522C9.3278 5.45522 8.81311 5.61341 8.81017 5.61507C8.81035 5.61561 8.80977 5.61631 8.80973 5.61637C8.80926 5.61667 9.0646 6.45181 9.06557 6.45498C9.08488 6.51812 9.04557 6.57419 8.98252 6.59351L8.70924 6.67714C8.64624 6.6964 8.58236 6.67196 8.56305 6.60882L7.91808 4.50092C7.89877 4.43773 7.93464 4.37046 7.9976 4.3512L9.15233 3.99771C9.21528 3.97845 9.31914 3.94923 9.38308 3.93282C9.38464 3.93242 9.54152 3.89246 9.66395 3.88215ZM9.72925 4.33839C9.67919 4.32152 9.61608 4.31588 9.54028 4.32122C9.46453 4.32652 9.3839 4.34776 9.3839 4.34776C9.32011 4.3644 9.21634 4.39369 9.15329 4.41296L8.61791 4.57683C8.55482 4.59614 8.51902 4.66356 8.53833 4.72665L8.66903 5.15375C8.68835 5.21683 8.7557 5.25264 8.81879 5.23333L9.35413 5.06946C9.41718 5.05015 9.51961 5.01637 9.58172 4.99434C9.58254 4.99405 9.66074 4.9665 9.72616 4.92873C9.79201 4.89095 9.84109 4.85072 9.8731 4.80854C9.9053 4.76635 9.9241 4.72257 9.92968 4.67725C9.93502 4.63197 9.93056 4.58551 9.91612 4.53831C9.90159 4.49087 9.87938 4.45008 9.84962 4.41553C9.81962 4.38104 9.77954 4.35536 9.72925 4.33839Z" fill="#494848"/>
<path d="M13.4002 2.69748C13.4633 2.67812 13.5305 2.71389 13.5498 2.77703L14.1913 4.87366C14.2168 4.95691 14.175 5.00406 14.1118 5.02342L13.8556 5.10184C13.7925 5.12115 13.7316 5.09625 13.713 5.0354C13.6995 4.99131 13.2478 3.51157 13.2442 3.50916C13.2418 3.50991 12.8811 5.28935 12.8809 5.29018C12.8675 5.35478 12.7944 5.37691 12.7477 5.33046C12.7456 5.32837 11.4581 4.05103 11.4557 4.05178C11.4535 4.05312 11.9119 5.55485 11.9209 5.584C11.9395 5.64484 11.9062 5.69854 11.843 5.71786L11.6205 5.78598C11.5472 5.80843 11.4926 5.778 11.4733 5.71505L10.8292 3.60982C10.8099 3.54668 10.8458 3.47935 10.9089 3.46003L11.2668 3.35051C11.347 3.32595 11.4187 3.35458 11.464 3.40225L12.4946 4.41217C12.5417 4.45811 12.5921 4.44292 12.6059 4.37842L12.916 2.95449C12.9305 2.89009 12.9695 2.82928 13.0571 2.80247L13.4002 2.69748Z" fill="#494848"/>
<path d="M14.6975 2.30036C14.7605 2.28109 14.817 2.3201 14.8363 2.38324L15.4813 4.49117C15.5006 4.5543 15.4613 4.61036 15.3983 4.62963L15.1202 4.71474C15.0571 4.7341 14.9933 4.71009 14.9755 4.65202C14.9627 4.6102 14.3365 2.56341 14.3302 2.54288C14.3057 2.46273 14.3454 2.40816 14.4085 2.3888L14.6975 2.30036Z" fill="#494848"/>
<path d="M17.9424 1.30713C18.0055 1.28782 18.0728 1.32349 18.0921 1.38667L18.7336 3.48331C18.7529 3.5464 18.7172 3.61376 18.654 3.63307L18.463 3.69157C18.3664 3.7211 18.3009 3.70126 18.2425 3.67018L16.3871 2.63757C16.3295 2.60543 16.2982 2.63074 16.3175 2.69377C16.3175 2.69377 16.7419 4.0855 16.7508 4.11461C16.7685 4.17269 16.7349 4.22049 16.672 4.23975L16.4177 4.31758C16.3546 4.33694 16.301 4.30843 16.2878 4.2654C16.2746 4.22212 15.6413 2.15231 15.6281 2.1093C15.6149 2.06613 15.6368 2.01284 15.7167 1.98841L15.9705 1.91069C16.057 1.88425 16.1325 1.90158 16.1902 1.93355L17.9687 2.92071C18.0263 2.95272 18.0576 2.92741 18.0383 2.86423C18.0383 2.86423 17.6341 1.54556 17.6251 1.51611C17.6065 1.4554 17.6448 1.39822 17.7078 1.37895L17.9424 1.30713Z" fill="#494848"/>
<path d="M19.2128 3.19875L19.2731 3.18032C19.312 3.16837 19.3345 3.15271 19.3221 3.11231C19.3114 3.07696 19.2766 3.07635 19.2443 3.08625L19.1841 3.10471L19.2128 3.19875ZM19.1212 3.08057L19.2402 3.04415C19.3115 3.02231 19.3555 3.04021 19.3735 3.09895C19.3888 3.14892 19.3682 3.19462 19.3198 3.20948L19.45 3.31992L19.3963 3.33632L19.2676 3.22542L19.225 3.23845L19.267 3.37589L19.2163 3.39145L19.1212 3.08057ZM19.34 3.43064C19.462 3.39332 19.5237 3.26676 19.4848 3.13964C19.4459 3.01256 19.3239 2.94215 19.202 2.97946C19.0785 3.01725 19.0168 3.1439 19.0557 3.27098C19.0946 3.39815 19.2166 3.46842 19.34 3.43064ZM19.1891 2.94004C19.3353 2.89532 19.4908 2.97792 19.5355 3.12412C19.5802 3.27037 19.4976 3.42585 19.3514 3.47062C19.2052 3.51539 19.0497 3.43275 19.0049 3.2865C18.9602 3.14034 19.0429 2.98481 19.1891 2.94004Z" fill="#494848"/>
</svg>
