<svg width="300" height="40" viewBox="0 0 300 40" fill="none" xmlns="http://www.w3.org/2000/svg" xmlns:xlink="http://www.w3.org/1999/xlink">

<g transform="translate(130.000000, 0.000000) scale(2.000000 2.000000) "> 

<g clip-path="url(#clip0)">
<path opacity="0.953" d="M9.99934 0C15.514 0 20 4.44646 20 10C20 15.5172 15.514 20 9.99934 20C4.48599 20 0 15.5172 0 10C0 4.44646 4.48599 0 9.99934 0V0Z" fill="#878787"/>
<path opacity="0.95" fill-rule="evenodd" clip-rule="evenodd" d="M10 19C14.9706 19 19 14.9706 19 10C19 5.02944 14.9706 1 10 1C5.02944 1 1 5.02944 1 10C1 14.9706 5.02944 19 10 19ZM10 20C15.5228 20 20 15.5228 20 10C20 4.47715 15.5228 0 10 0C4.47715 0 0 4.47715 0 10C0 15.5228 4.47715 20 10 20Z" fill="#404040"/>
</g>
<defs>
<clipPath id="clip0">
<path d="M0 0H20V20H0V0Z" fill="white"/>
</clipPath>
</defs>

</g>%n%n
<g transform="translate(138.000000, 8.000000) scale(2.000000 2.000000) "> 

<path fill-rule="evenodd" fill="rgb(100%, 100%, 100%)" fill-opacity="1" d="M 6.5 2 C 6.777344 2 7 1.777344 7 1.5 C 7 1.222656 6.777344 1 6.5 1 C 6.222656 1 6 1.222656 6 1.5 C 6 1.777344 6.222656 2 6.5 2 Z M 6.5 2 L 7.25 2 C 7.386719 2 7.5 2.113281 7.5 2.25 L 7.5 3.25 C 7.5 3.386719 7.386719 3.5 7.25 3.5 C 7.113281 3.5 7 3.386719 7 3.25 L 7 4 L 6 4 L 6 3.25 C 6 3.386719 5.886719 3.5 5.75 3.5 C 5.613281 3.5 5.5 3.386719 5.5 3.25 L 5.5 2.25 C 5.5 2.113281 5.613281 2 5.75 2 Z M 6.5 2 "/>
<path fill-rule="evenodd" fill="rgb(100%, 100%, 100%)" fill-opacity="1" d="M 3.5 2 C 3.777344 2 4 1.777344 4 1.5 C 4 1.222656 3.777344 1 3.5 1 C 3.222656 1 3 1.222656 3 1.5 C 3 1.777344 3.222656 2 3.5 2 Z M 3.5 2 L 4.25 2 C 4.386719 2 4.5 2.113281 4.5 2.25 L 4.5 3.25 C 4.5 3.386719 4.386719 3.5 4.25 3.5 C 4.113281 3.5 4 3.386719 4 3.25 L 4 4 L 3 4 L 3 3.25 C 3 3.386719 2.886719 3.5 2.75 3.5 C 2.613281 3.5 2.5 3.386719 2.5 3.25 L 2.5 2.25 C 2.5 2.113281 2.613281 2 2.75 2 Z M 3.5 2 "/>
<path fill-rule="evenodd" fill="rgb(100%, 100%, 100%)" fill-opacity="1" d="M 9.5 2 C 9.777344 2 10 1.777344 10 1.5 C 10 1.222656 9.777344 1 9.5 1 C 9.222656 1 9 1.222656 9 1.5 C 9 1.777344 9.222656 2 9.5 2 Z M 9.5 2 L 10.25 2 C 10.386719 2 10.5 2.113281 10.5 2.25 L 10.5 3.25 C 10.5 3.386719 10.386719 3.5 10.25 3.5 C 10.113281 3.5 10 3.386719 10 3.25 L 10 4 L 9 4 L 9 3.25 C 9 3.386719 8.886719 3.5 8.75 3.5 C 8.613281 3.5 8.5 3.386719 8.5 3.25 L 8.5 2.25 C 8.5 2.113281 8.613281 2 8.75 2 Z M 9.5 2 "/>
<path fill-rule="evenodd" fill="rgb(100%, 100%, 100%)" fill-opacity="1" d="M 4 5.5 C 4 5.777344 3.777344 6 3.5 6 C 3.222656 6 3 5.777344 3 5.5 C 3 5.222656 3.222656 5 3.5 5 C 3.777344 5 4 5.222656 4 5.5 Z M 4 8 L 4 7.25 C 4 7.386719 4.113281 7.5 4.25 7.5 C 4.386719 7.5 4.5 7.386719 4.5 7.25 L 4.5 6.25 C 4.5 6.113281 4.386719 6 4.25 6 L 2.75 6 C 2.613281 6 2.5 6.113281 2.5 6.25 L 2.5 7.25 C 2.5 7.386719 2.613281 7.5 2.75 7.5 C 2.886719 7.5 3 7.386719 3 7.25 L 3 8 L 1 8 L 1 11 L 2 11 L 2 9 L 5 9 L 5 11 L 6 11 L 6 8 Z M 4 8 "/>

</g>%n%n</svg>