<svg width="300" height="35" viewBox="0 0 300 35" fill="none" xmlns="http://www.w3.org/2000/svg">

<g transform="translate(135.000000, 2.000000) scale(1.500000 1.500000) "> 

<g clip-path="url(#clip0)">
<path opacity="0.953" d="M9.99934 0C15.514 0 20 4.44646 20 10C20 15.5172 15.514 20 9.99934 20C4.48599 20 0 15.5172 0 10C0 4.44646 4.48599 0 9.99934 0V0Z" fill="#878787"/>
<path opacity="0.95" fill-rule="evenodd" clip-rule="evenodd" d="M10 19C14.9706 19 19 14.9706 19 10C19 5.02944 14.9706 1 10 1C5.02944 1 1 5.02944 1 10C1 14.9706 5.02944 19 10 19ZM10 20C15.5228 20 20 15.5228 20 10C20 4.47715 15.5228 0 10 0C4.47715 0 0 4.47715 0 10C0 15.5228 4.47715 20 10 20Z" fill="#404040"/>
</g>
<defs>
<clipPath id="clip0">
<path d="M0 0H20V20H0V0Z" fill="white"/>
</clipPath>
</defs>

</g>


<g transform="translate(141.000000, 8.000000) scale(0.375000 0.375000) "> 

<path fill-rule="evenodd" clip100-rule="evenodd" d="M4 8H36V34C36 35.1046 36.8954 36 38 36C39.1046 36 40 35.1046 40 34V12H42C43.1046 12 44 12.8954 44 14V32C44 36.4183 40.4183 40 36 40H12C7.58172 40 4 36.4183 4 32V8ZM32 32V20H20V32H32ZM32 16V12H8V16H32ZM16 20H8V24H16V20ZM16 28H8V32H16V28Z" fill="#ffffff"/>
<g opacity="0.5">
<path d="M32 12H8V16H32V12Z" fill="#ffffff"/>
<path d="M16 20H8V24H16V20Z" fill="#ffffff"/>
<path d="M20 20H32V32H20V20Z" fill="#ffffff"/>
<path d="M16 28H8V32H16V28Z" fill="#ffffff"/>
</g>

</g>

</svg>