<svg width="300" height="40" viewBox="0 0 300 40" fill="none" xmlns="http://www.w3.org/2000/svg" xmlns:xlink="http://www.w3.org/1999/xlink">

<g transform="translate(130.000000, 0.000000) scale(2.000000 2.000000) "> 

<g clip-path="url(#clip0)">
<path opacity="0.953" d="M9.99934 0C15.514 0 20 4.44646 20 10C20 15.5172 15.514 20 9.99934 20C4.48599 20 0 15.5172 0 10C0 4.44646 4.48599 0 9.99934 0V0Z" fill="#878787"/>
<path opacity="0.95" fill-rule="evenodd" clip-rule="evenodd" d="M10 19C14.9706 19 19 14.9706 19 10C19 5.02944 14.9706 1 10 1C5.02944 1 1 5.02944 1 10C1 14.9706 5.02944 19 10 19ZM10 20C15.5228 20 20 15.5228 20 10C20 4.47715 15.5228 0 10 0C4.47715 0 0 4.47715 0 10C0 15.5228 4.47715 20 10 20Z" fill="#404040"/>
</g>
<defs>
<clipPath id="clip0">
<path d="M0 0H20V20H0V0Z" fill="white"/>
</clipPath>
</defs>

</g>%n%n
<g transform="translate(138.000000, 8.000000) scale(2.000000 2.000000) "> 

<path fill-rule="nonzero" fill="rgb(100%, 100%, 100%)" fill-opacity="1" d="M 2.964844 6.382812 C 2.652344 6.382812 2.382812 6.574219 2.265625 6.84375 L 2.207031 7.574219 L 2.207031 8.378906 C 2.207031 8.476562 2.226562 8.566406 2.257812 8.652344 L 0.621094 8.652344 L 0.621094 11.351562 L 1.132812 11.351562 L 1.132812 9.429688 L 6.390625 9.429688 L 6.390625 11.351562 L 6.902344 11.351562 L 6.902344 8.652344 L 5.265625 8.652344 C 5.300781 8.566406 5.320312 8.476562 5.320312 8.378906 L 5.320312 7.574219 L 5.257812 6.84375 C 5.144531 6.574219 4.875 6.382812 4.558594 6.382812 Z M 2.804688 7.398438 L 2.984375 7.398438 L 2.984375 8.652344 L 2.804688 8.652344 Z M 4.539062 7.398438 L 4.71875 7.398438 L 4.71875 8.652344 L 4.539062 8.652344 Z M 4.539062 7.398438 "/>
<path fill-rule="nonzero" fill="rgb(100%, 100%, 100%)" fill-opacity="1" d="M 3.761719 4.203125 C 3.25 4.203125 2.835938 4.621094 2.835938 5.132812 C 2.835938 5.644531 3.25 6.058594 3.761719 6.058594 C 4.273438 6.058594 4.691406 5.644531 4.691406 5.132812 C 4.691406 4.621094 4.273438 4.203125 3.761719 4.203125 Z M 3.761719 4.203125 "/>
<path fill-rule="nonzero" fill="rgb(100%, 100%, 100%)" fill-opacity="1" d="M 11.421875 7.523438 L 5.808594 7.523438 L 5.808594 2.695312 L 8.339844 1.949219 L 8.339844 1.417969 L 7.96875 1.417969 L 7.96875 0.863281 L 8.339844 0.863281 L 8.339844 0.457031 L 8.894531 0.457031 L 8.894531 0.863281 L 9.265625 0.863281 L 9.265625 1.417969 L 8.894531 1.417969 L 8.894531 1.941406 L 11.421875 2.699219 Z M 6.210938 7.140625 L 11.019531 7.140625 L 11.019531 3.0625 L 8.625 2.355469 L 6.210938 3.070312 Z M 6.210938 7.140625 "/>
<path fill-rule="nonzero" fill="rgb(100%, 100%, 100%)" fill-opacity="1" d="M 9.671875 4.472656 C 9.976562 4.472656 10.226562 4.222656 10.226562 3.914062 C 10.226562 3.605469 9.976562 3.359375 9.671875 3.359375 C 9.363281 3.359375 9.113281 3.605469 9.113281 3.914062 C 9.113281 4.222656 9.363281 4.472656 9.671875 4.472656 Z M 9.671875 4.472656 "/>
<path fill-rule="nonzero" fill="rgb(100%, 100%, 100%)" fill-opacity="1" d="M 8.734375 5.382812 L 8.734375 5.863281 C 8.734375 6.082031 8.890625 6.265625 9.09375 6.308594 L 9.09375 5.277344 L 9.203125 5.277344 L 9.203125 6.707031 L 10.136719 6.707031 L 10.136719 5.277344 L 10.246094 5.277344 L 10.246094 6.308594 C 10.449219 6.265625 10.605469 6.082031 10.605469 5.863281 L 10.605469 5.382812 L 10.570312 4.941406 C 10.5 4.78125 10.339844 4.664062 10.148438 4.664062 L 9.191406 4.664062 C 9.003906 4.664062 8.839844 4.78125 8.773438 4.941406 Z M 8.734375 5.382812 "/>
<path fill-rule="nonzero" fill="rgb(100%, 100%, 100%)" fill-opacity="1" d="M 7.621094 4.472656 C 7.929688 4.472656 8.179688 4.222656 8.179688 3.914062 C 8.179688 3.605469 7.929688 3.359375 7.621094 3.359375 C 7.3125 3.359375 7.0625 3.605469 7.0625 3.914062 C 7.0625 4.222656 7.3125 4.472656 7.621094 4.472656 Z M 7.621094 4.472656 "/>
<path fill-rule="nonzero" fill="rgb(100%, 100%, 100%)" fill-opacity="1" d="M 6.6875 5.382812 L 6.6875 5.863281 C 6.6875 6.082031 6.839844 6.265625 7.046875 6.308594 L 7.046875 5.277344 L 7.152344 5.277344 L 7.152344 6.707031 L 8.089844 6.707031 L 8.089844 5.277344 L 8.195312 5.277344 L 8.195312 6.308594 C 8.402344 6.265625 8.554688 6.082031 8.554688 5.863281 L 8.554688 5.382812 L 8.519531 4.941406 C 8.449219 4.78125 8.289062 4.664062 8.101562 4.664062 L 7.140625 4.664062 C 6.953125 4.664062 6.792969 4.78125 6.722656 4.941406 Z M 6.6875 5.382812 "/>

</g>%n%n</svg>