<svg width="300" height="40" viewBox="0 0 300 40" fill="none" xmlns="http://www.w3.org/2000/svg" xmlns:xlink="http://www.w3.org/1999/xlink">

<g transform="translate(130.000000, 0.000000) scale(2.000000 2.000000) "> 

<g clip-path="url(#clip0)">
<path opacity="0.953" d="M9.99934 0C15.514 0 20 4.44646 20 10C20 15.5172 15.514 20 9.99934 20C4.48599 20 0 15.5172 0 10C0 4.44646 4.48599 0 9.99934 0V0Z" fill="#878787"/>
<path opacity="0.95" fill-rule="evenodd" clip-rule="evenodd" d="M10 19C14.9706 19 19 14.9706 19 10C19 5.02944 14.9706 1 10 1C5.02944 1 1 5.02944 1 10C1 14.9706 5.02944 19 10 19ZM10 20C15.5228 20 20 15.5228 20 10C20 4.47715 15.5228 0 10 0C4.47715 0 0 4.47715 0 10C0 15.5228 4.47715 20 10 20Z" fill="#404040"/>
</g>
<defs>
<clipPath id="clip0">
<path d="M0 0H20V20H0V0Z" fill="white"/>
</clipPath>
</defs>

</g>%n%n
<g transform="translate(138.000000, 8.000000) scale(2.000000 2.000000) "> 

<path fill-rule="nonzero" fill="rgb(100%, 100%, 100%)" fill-opacity="1" d="M 2.964844 6.382812 C 2.652344 6.382812 2.382812 6.574219 2.265625 6.84375 L 2.207031 7.574219 L 2.207031 8.378906 C 2.207031 8.476562 2.226562 8.566406 2.257812 8.652344 L 0.621094 8.652344 L 0.621094 11.351562 L 1.132812 11.351562 L 1.132812 9.429688 L 6.390625 9.429688 L 6.390625 11.351562 L 6.902344 11.351562 L 6.902344 8.652344 L 5.265625 8.652344 C 5.300781 8.566406 5.320312 8.476562 5.320312 8.378906 L 5.320312 7.574219 L 5.257812 6.84375 C 5.144531 6.574219 4.875 6.382812 4.558594 6.382812 Z M 2.804688 7.398438 L 2.984375 7.398438 L 2.984375 8.652344 L 2.804688 8.652344 Z M 4.539062 7.398438 L 4.71875 7.398438 L 4.71875 8.652344 L 4.539062 8.652344 Z M 4.539062 7.398438 "/>
<path fill-rule="nonzero" fill="rgb(100%, 100%, 100%)" fill-opacity="1" d="M 3.761719 4.203125 C 3.25 4.203125 2.835938 4.621094 2.835938 5.132812 C 2.835938 5.644531 3.25 6.058594 3.761719 6.058594 C 4.273438 6.058594 4.691406 5.644531 4.691406 5.132812 C 4.691406 4.621094 4.273438 4.203125 3.761719 4.203125 Z M 3.761719 4.203125 "/>
<path fill-rule="nonzero" fill="rgb(100%, 100%, 100%)" fill-opacity="1" d="M 8.175781 2.65625 C 8.5625 2.65625 8.875 2.347656 8.875 1.960938 C 8.875 1.578125 8.5625 1.265625 8.175781 1.265625 C 7.792969 1.265625 7.480469 1.578125 7.480469 1.960938 C 7.480469 2.347656 7.792969 2.65625 8.175781 2.65625 Z M 8.175781 2.65625 "/>
<path fill-rule="nonzero" fill="rgb(100%, 100%, 100%)" fill-opacity="1" d="M 5.886719 1.835938 C 6.269531 1.835938 6.582031 1.523438 6.582031 1.136719 C 6.582031 0.753906 6.269531 0.441406 5.886719 0.441406 C 5.5 0.441406 5.191406 0.753906 5.191406 1.136719 C 5.191406 1.523438 5.5 1.835938 5.886719 1.835938 Z M 5.886719 1.835938 "/>
<path fill-rule="nonzero" fill="rgb(100%, 100%, 100%)" fill-opacity="1" d="M 10.46875 1.835938 C 10.851562 1.835938 11.164062 1.523438 11.164062 1.136719 C 11.164062 0.753906 10.851562 0.441406 10.46875 0.441406 C 10.082031 0.441406 9.773438 0.753906 9.773438 1.136719 C 9.773438 1.523438 10.082031 1.835938 10.46875 1.835938 Z M 10.46875 1.835938 "/>
<path fill-rule="nonzero" fill="rgb(100%, 100%, 100%)" fill-opacity="1" d="M 11.066406 2.078125 L 9.871094 2.078125 C 9.554688 2.078125 9.300781 2.332031 9.300781 2.644531 L 9.300781 3.246094 C 9.214844 3.042969 9.011719 2.898438 8.777344 2.898438 L 7.578125 2.898438 C 7.34375 2.898438 7.140625 3.042969 7.054688 3.246094 L 7.054688 2.644531 C 7.054688 2.332031 6.800781 2.078125 6.484375 2.078125 L 5.289062 2.078125 C 4.972656 2.078125 4.71875 2.332031 4.71875 2.644531 L 4.71875 3.574219 C 4.71875 3.847656 4.910156 4.074219 5.167969 4.128906 L 5.167969 2.839844 L 5.300781 2.839844 L 5.300781 4.628906 L 6.46875 4.628906 L 6.46875 2.839844 L 6.605469 2.839844 L 6.605469 4.128906 C 6.789062 4.089844 6.9375 3.964844 7.007812 3.796875 L 7.007812 4.398438 C 7.007812 4.671875 7.203125 4.898438 7.457031 4.953125 L 7.457031 3.664062 L 7.59375 3.664062 L 7.59375 5.453125 L 8.761719 5.453125 L 8.761719 3.664062 L 8.894531 3.664062 L 8.894531 4.953125 C 9.152344 4.898438 9.34375 4.671875 9.34375 4.398438 L 9.34375 3.796875 C 9.417969 3.964844 9.566406 4.089844 9.75 4.128906 L 9.75 2.839844 L 9.882812 2.839844 L 9.882812 4.628906 L 11.050781 4.628906 L 11.050781 2.839844 L 11.1875 2.839844 L 11.1875 4.128906 C 11.445312 4.074219 11.636719 3.847656 11.636719 3.574219 L 11.636719 2.644531 C 11.636719 2.332031 11.382812 2.078125 11.066406 2.078125 Z M 11.066406 2.078125 "/>

</g>%n%n</svg>