<svg width="300" height="40" viewBox="0 0 300 40" fill="none" xmlns="http://www.w3.org/2000/svg" xmlns:xlink="http://www.w3.org/1999/xlink">

<g transform="translate(130.000000, 0.000000) scale(2.000000 2.000000) "> 

<g clip-path="url(#clip0)">
<path opacity="0.953" d="M9.99934 0C15.514 0 20 4.44646 20 10C20 15.5172 15.514 20 9.99934 20C4.48599 20 0 15.5172 0 10C0 4.44646 4.48599 0 9.99934 0V0Z" fill="#878787"/>
<path opacity="0.95" fill-rule="evenodd" clip-rule="evenodd" d="M10 19C14.9706 19 19 14.9706 19 10C19 5.02944 14.9706 1 10 1C5.02944 1 1 5.02944 1 10C1 14.9706 5.02944 19 10 19ZM10 20C15.5228 20 20 15.5228 20 10C20 4.47715 15.5228 0 10 0C4.47715 0 0 4.47715 0 10C0 15.5228 4.47715 20 10 20Z" fill="#404040"/>
</g>
<defs>
<clipPath id="clip0">
<path d="M0 0H20V20H0V0Z" fill="white"/>
</clipPath>
</defs>

</g>%n%n
<g transform="translate(138.000000, 8.000000) scale(0.750000 0.750000) "> 

<path fill-rule="nonzero" fill="rgb(100%, 100%, 100%)" fill-opacity="1" d="M 7.90625 17.019531 C 7.070312 17.019531 6.351562 17.527344 6.042969 18.253906 L 5.882812 20.203125 L 5.882812 22.339844 C 5.882812 22.601562 5.933594 22.847656 6.023438 23.078125 L 1.65625 23.078125 L 1.65625 30.269531 L 3.023438 30.269531 L 3.023438 25.144531 L 17.042969 25.144531 L 17.042969 30.269531 L 18.410156 30.269531 L 18.410156 23.078125 L 14.042969 23.078125 C 14.132812 22.847656 14.183594 22.601562 14.183594 22.339844 L 14.183594 20.203125 L 14.023438 18.253906 C 13.714844 17.527344 12.996094 17.019531 12.160156 17.019531 Z M 7.480469 19.734375 L 7.957031 19.734375 L 7.957031 23.078125 L 7.480469 23.078125 Z M 12.109375 19.734375 L 12.585938 19.734375 L 12.585938 23.078125 L 12.109375 23.078125 Z M 12.109375 19.734375 "/>
<path fill-rule="nonzero" fill="rgb(100%, 100%, 100%)" fill-opacity="1" d="M 10.035156 11.214844 C 8.667969 11.214844 7.558594 12.320312 7.558594 13.6875 C 7.558594 15.054688 8.667969 16.160156 10.035156 16.160156 C 11.398438 16.160156 12.507812 15.054688 12.507812 13.6875 C 12.507812 12.320312 11.398438 11.214844 10.035156 11.214844 Z M 10.035156 11.214844 "/>
<path fill-rule="nonzero" fill="rgb(100%, 100%, 100%)" fill-opacity="1" d="M 29.507812 2.273438 L 20.324219 2.273438 C 20.027344 2.273438 19.789062 2.511719 19.789062 2.804688 L 19.789062 9.640625 C 19.789062 9.933594 20.027344 10.171875 20.324219 10.171875 L 29.507812 10.171875 C 29.800781 10.171875 30.039062 9.933594 30.039062 9.640625 L 30.039062 2.804688 C 30.039062 2.511719 29.800781 2.273438 29.507812 2.273438 Z M 29.507812 2.273438 "/>
<path fill-rule="nonzero" fill="rgb(100%, 100%, 100%)" fill-opacity="1" d="M 17.371094 13.722656 C 18.191406 13.722656 18.859375 13.054688 18.859375 12.234375 C 18.859375 11.414062 18.191406 10.75 17.371094 10.75 C 16.550781 10.75 15.886719 11.414062 15.886719 12.234375 C 15.886719 13.054688 16.550781 13.722656 17.371094 13.722656 Z M 17.371094 13.722656 "/>
<path fill-rule="nonzero" fill="rgb(100%, 100%, 100%)" fill-opacity="1" d="M 27.972656 10.75 C 27.152344 10.75 26.488281 11.414062 26.488281 12.234375 C 26.488281 13.054688 27.152344 13.722656 27.972656 13.722656 C 28.792969 13.722656 29.460938 13.054688 29.460938 12.234375 C 29.460938 11.414062 28.792969 10.75 27.972656 10.75 Z M 27.972656 10.75 "/>
<path fill-rule="nonzero" fill="rgb(100%, 100%, 100%)" fill-opacity="1" d="M 25.308594 10.570312 L 19.332031 10.570312 L 19.921875 11.753906 L 25.957031 11.753906 Z M 25.308594 10.570312 "/>
<path fill-rule="nonzero" fill="rgb(100%, 100%, 100%)" fill-opacity="1" d="M 19.332031 9.285156 L 19.332031 5.335938 C 19.332031 4.582031 18.703125 4.691406 18.703125 4.691406 C 18.703125 4.691406 17.171875 4.691406 16.757812 4.691406 C 16.339844 4.691406 16.085938 5.046875 16.085938 5.046875 C 16.085938 5.046875 14.847656 7.191406 14.363281 8.011719 C 14.277344 8.15625 14.175781 8.425781 14.175781 8.65625 C 14.175781 9.238281 14.175781 10.46875 14.175781 11.371094 C 14.175781 12.589844 15.308594 12.234375 15.308594 12.234375 C 15.308594 12.183594 15.308594 11.976562 15.308594 11.257812 C 15.308594 10.0625 16.707031 10.171875 16.707031 10.171875 L 18.613281 10.171875 C 19.433594 10.171875 19.332031 9.285156 19.332031 9.285156 Z M 19.332031 9.285156 "/>

</g>%n%n</svg>