<svg width="300" height="40" viewBox="0 0 300 40" fill="none" xmlns="http://www.w3.org/2000/svg" xmlns:xlink="http://www.w3.org/1999/xlink">

<g transform="translate(130.000000, 0.000000) scale(2.000000 2.000000) "> 

<g clip-path="url(#clip0)">
<path opacity="0.953" d="M9.99934 0C15.514 0 20 4.44646 20 10C20 15.5172 15.514 20 9.99934 20C4.48599 20 0 15.5172 0 10C0 4.44646 4.48599 0 9.99934 0V0Z" fill="#878787"/>
<path opacity="0.95" fill-rule="evenodd" clip-rule="evenodd" d="M10 19C14.9706 19 19 14.9706 19 10C19 5.02944 14.9706 1 10 1C5.02944 1 1 5.02944 1 10C1 14.9706 5.02944 19 10 19ZM10 20C15.5228 20 20 15.5228 20 10C20 4.47715 15.5228 0 10 0C4.47715 0 0 4.47715 0 10C0 15.5228 4.47715 20 10 20Z" fill="#404040"/>
</g>
<defs>
<clipPath id="clip0">
<path d="M0 0H20V20H0V0Z" fill="white"/>
</clipPath>
</defs>

</g>%n%n
<g transform="translate(138.000000, 8.000000) scale(0.750000 0.750000) "> 

<path fill-rule="nonzero" fill="rgb(100%, 100%, 100%)" fill-opacity="1" d="M 7.90625 17.019531 C 7.070312 17.019531 6.351562 17.527344 6.042969 18.253906 L 5.882812 20.203125 L 5.882812 22.339844 C 5.882812 22.601562 5.933594 22.847656 6.023438 23.078125 L 1.65625 23.078125 L 1.65625 30.269531 L 3.023438 30.269531 L 3.023438 25.144531 L 17.042969 25.144531 L 17.042969 30.269531 L 18.410156 30.269531 L 18.410156 23.078125 L 14.042969 23.078125 C 14.132812 22.847656 14.183594 22.601562 14.183594 22.339844 L 14.183594 20.203125 L 14.023438 18.253906 C 13.714844 17.527344 12.996094 17.019531 12.160156 17.019531 Z M 7.480469 19.734375 L 7.957031 19.734375 L 7.957031 23.078125 L 7.480469 23.078125 Z M 12.109375 19.734375 L 12.585938 19.734375 L 12.585938 23.078125 L 12.109375 23.078125 Z M 12.109375 19.734375 "/>
<path fill-rule="nonzero" fill="rgb(100%, 100%, 100%)" fill-opacity="1" d="M 10.035156 11.214844 C 8.667969 11.214844 7.558594 12.320312 7.558594 13.6875 C 7.558594 15.054688 8.667969 16.160156 10.035156 16.160156 C 11.398438 16.160156 12.507812 15.054688 12.507812 13.6875 C 12.507812 12.320312 11.398438 11.214844 10.035156 11.214844 Z M 10.035156 11.214844 "/>
<path fill-rule="nonzero" fill="rgb(100%, 100%, 100%)" fill-opacity="1" d="M 30.457031 20.0625 L 15.492188 20.0625 L 15.492188 7.191406 L 22.242188 5.203125 L 22.242188 3.785156 L 21.253906 3.785156 L 21.253906 2.304688 L 22.242188 2.304688 L 22.242188 1.21875 L 23.71875 1.21875 L 23.71875 2.304688 L 24.707031 2.304688 L 24.707031 3.785156 L 23.71875 3.785156 L 23.71875 5.179688 L 30.457031 7.191406 Z M 16.5625 19.042969 L 29.382812 19.042969 L 29.382812 8.167969 L 23 6.277344 L 16.5625 8.191406 Z M 16.5625 19.042969 "/>
<path fill-rule="nonzero" fill="rgb(100%, 100%, 100%)" fill-opacity="1" d="M 25.789062 11.925781 C 26.609375 11.925781 27.273438 11.257812 27.273438 10.4375 C 27.273438 9.617188 26.609375 8.953125 25.789062 8.953125 C 24.96875 8.953125 24.304688 9.617188 24.304688 10.4375 C 24.304688 11.257812 24.96875 11.925781 25.789062 11.925781 Z M 25.789062 11.925781 "/>
<path fill-rule="nonzero" fill="rgb(100%, 100%, 100%)" fill-opacity="1" d="M 23.296875 14.351562 L 23.296875 15.636719 C 23.296875 16.21875 23.707031 16.703125 24.253906 16.820312 L 24.253906 14.070312 L 24.542969 14.070312 L 24.542969 17.882812 L 27.035156 17.882812 L 27.035156 14.070312 L 27.320312 14.070312 L 27.320312 16.820312 C 27.867188 16.703125 28.28125 16.21875 28.28125 15.636719 L 28.28125 14.351562 L 28.183594 13.179688 C 28 12.746094 27.566406 12.441406 27.066406 12.441406 L 24.511719 12.441406 C 24.007812 12.441406 23.578125 12.746094 23.394531 13.179688 Z M 23.296875 14.351562 "/>
<path fill-rule="nonzero" fill="rgb(100%, 100%, 100%)" fill-opacity="1" d="M 20.324219 11.925781 C 21.144531 11.925781 21.808594 11.257812 21.808594 10.4375 C 21.808594 9.617188 21.144531 8.953125 20.324219 8.953125 C 19.503906 8.953125 18.839844 9.617188 18.839844 10.4375 C 18.839844 11.257812 19.503906 11.925781 20.324219 11.925781 Z M 20.324219 11.925781 "/>
<path fill-rule="nonzero" fill="rgb(100%, 100%, 100%)" fill-opacity="1" d="M 17.832031 14.351562 L 17.832031 15.636719 C 17.832031 16.21875 18.242188 16.703125 18.789062 16.820312 L 18.789062 14.070312 L 19.078125 14.070312 L 19.078125 17.882812 L 21.570312 17.882812 L 21.570312 14.070312 L 21.855469 14.070312 L 21.855469 16.820312 C 22.40625 16.703125 22.816406 16.21875 22.816406 15.636719 L 22.816406 14.351562 L 22.71875 13.179688 C 22.535156 12.746094 22.105469 12.441406 21.601562 12.441406 L 19.046875 12.441406 C 18.542969 12.441406 18.113281 12.746094 17.929688 13.179688 Z M 17.832031 14.351562 "/>

</g>%n%n</svg>