<svg width="300" height="40" viewBox="0 0 300 40" fill="none" xmlns="http://www.w3.org/2000/svg" xmlns:xlink="http://www.w3.org/1999/xlink">

<g transform="translate(130.000000, 0.000000) scale(2.000000 2.000000) "> 

<g clip-path="url(#clip0)">
<path opacity="0.953" d="M9.99934 0C15.514 0 20 4.44646 20 10C20 15.5172 15.514 20 9.99934 20C4.48599 20 0 15.5172 0 10C0 4.44646 4.48599 0 9.99934 0V0Z" fill="#878787"/>
<path opacity="0.95" fill-rule="evenodd" clip-rule="evenodd" d="M10 19C14.9706 19 19 14.9706 19 10C19 5.02944 14.9706 1 10 1C5.02944 1 1 5.02944 1 10C1 14.9706 5.02944 19 10 19ZM10 20C15.5228 20 20 15.5228 20 10C20 4.47715 15.5228 0 10 0C4.47715 0 0 4.47715 0 10C0 15.5228 4.47715 20 10 20Z" fill="#404040"/>
</g>
<defs>
<clipPath id="clip0">
<path d="M0 0H20V20H0V0Z" fill="white"/>
</clipPath>
</defs>

</g>%n%n
<g transform="translate(138.000000, 8.000000) scale(2.000000 2.000000) "> 

<path fill-rule="nonzero" fill="rgb(100%, 100%, 100%)" fill-opacity="1" d="M 3.144531 6.335938 C 2.832031 6.335938 2.5625 6.527344 2.445312 6.800781 L 2.386719 7.53125 L 2.386719 8.332031 C 2.386719 8.429688 2.40625 8.523438 2.4375 8.609375 L 0.800781 8.609375 L 0.800781 11.304688 L 1.3125 11.304688 L 1.3125 9.382812 L 6.570312 9.382812 L 6.570312 11.304688 L 7.082031 11.304688 L 7.082031 8.609375 L 5.445312 8.609375 C 5.480469 8.523438 5.496094 8.429688 5.496094 8.332031 L 5.496094 7.53125 L 5.4375 6.800781 C 5.324219 6.527344 5.054688 6.335938 4.738281 6.335938 Z M 2.984375 7.355469 L 3.164062 7.355469 L 3.164062 8.609375 L 2.984375 8.609375 Z M 4.71875 7.355469 L 4.898438 7.355469 L 4.898438 8.609375 L 4.71875 8.609375 Z M 4.71875 7.355469 "/>
<path fill-rule="nonzero" fill="rgb(100%, 100%, 100%)" fill-opacity="1" d="M 3.941406 4.160156 C 3.429688 4.160156 3.015625 4.574219 3.015625 5.085938 C 3.015625 5.601562 3.429688 6.015625 3.941406 6.015625 C 4.453125 6.015625 4.871094 5.601562 4.871094 5.085938 C 4.871094 4.574219 4.453125 4.160156 3.941406 4.160156 Z M 3.941406 4.160156 "/>
<path fill-rule="nonzero" fill="rgb(100%, 100%, 100%)" fill-opacity="1" d="M 11.300781 6.140625 L 11.300781 0.84375 L 6.714844 6.140625 Z M 10.652344 2.589844 L 10.652344 5.488281 L 8.140625 5.488281 Z M 10.652344 2.589844 "/>
<path fill-rule="nonzero" fill="rgb(100%, 100%, 100%)" fill-opacity="1" d="M 5.839844 0.550781 L 5.96875 1.230469 C 5.984375 1.320312 6.066406 1.382812 6.15625 1.378906 L 6.179688 1.503906 C 5.886719 1.578125 5.632812 1.792969 5.515625 2.097656 C 5.332031 2.589844 5.585938 3.140625 6.078125 3.324219 C 6.078125 3.324219 6.078125 3.324219 6.082031 3.324219 L 6.152344 6.777344 C 6.121094 7.183594 6.273438 7.332031 6.421875 7.386719 L 6.5 7.941406 L 6.515625 7.546875 L 6.511719 7.414062 C 6.59375 7.425781 6.65625 7.414062 6.65625 7.414062 L 6.359375 3.53125 C 6.253906 3.429688 6.207031 3.269531 6.265625 3.121094 C 6.277344 3.082031 6.296875 3.050781 6.320312 3.019531 L 6.320312 3.007812 C 6.320312 3.007812 6.484375 2.886719 6.0625 2.484375 L 6.074219 3.09375 C 5.742188 2.925781 5.578125 2.527344 5.714844 2.167969 C 5.855469 1.785156 6.285156 1.589844 6.671875 1.734375 C 7.054688 1.875 7.25 2.304688 7.105469 2.691406 C 7.082031 2.761719 7.042969 2.824219 7 2.882812 L 6.679688 2.386719 C 6.558594 2.675781 6.570312 2.820312 6.585938 2.875 C 6.640625 2.871094 6.699219 2.878906 6.753906 2.898438 C 6.949219 2.972656 7.050781 3.191406 6.976562 3.386719 C 6.964844 3.414062 6.949219 3.441406 6.933594 3.464844 L 8.992188 6.886719 C 8.992188 6.886719 9.058594 6.875 9.121094 6.820312 L 9.140625 6.84375 L 9.402344 7.238281 L 9.203125 6.65625 C 9.226562 6.546875 9.210938 6.386719 9.109375 6.148438 L 7.117188 3.066406 C 7.195312 2.980469 7.257812 2.878906 7.300781 2.761719 C 7.488281 2.269531 7.234375 1.722656 6.742188 1.535156 C 6.601562 1.484375 6.457031 1.46875 6.320312 1.480469 L 6.289062 1.324219 C 6.328125 1.28125 6.351562 1.222656 6.339844 1.160156 L 6.210938 0.480469 C 6.191406 0.378906 6.089844 0.316406 5.988281 0.335938 C 5.886719 0.351562 5.820312 0.449219 5.839844 0.550781 Z M 5.839844 0.550781 "/>

</g>%n%n</svg>