<svg width="300" height="40" viewBox="0 0 300 40" fill="none" xmlns="http://www.w3.org/2000/svg" xmlns:xlink="http://www.w3.org/1999/xlink" version="1.1">

<g transform="translate(130.000000, 0.000000) scale(2.000000 2.000000) "> 

<g clip-path="url(#clip0)">
<path opacity="0.953" d="M9.99934 0C15.514 0 20 4.44646 20 10C20 15.5172 15.514 20 9.99934 20C4.48599 20 0 15.5172 0 10C0 4.44646 4.48599 0 9.99934 0V0Z" fill="#878787"/>
<path opacity="0.95" fill-rule="evenodd" clip-rule="evenodd" d="M10 19C14.9706 19 19 14.9706 19 10C19 5.02944 14.9706 1 10 1C5.02944 1 1 5.02944 1 10C1 14.9706 5.02944 19 10 19ZM10 20C15.5228 20 20 15.5228 20 10C20 4.47715 15.5228 0 10 0C4.47715 0 0 4.47715 0 10C0 15.5228 4.47715 20 10 20Z" fill="#404040"/>
</g>
<defs>
<clipPath id="clip0">
<path d="M0 0H20V20H0V0Z" fill="white"/>
</clipPath>
</defs>

</g>%n%n
<g transform="translate(138.000000, 8.000000) scale(2.000000 2.000000) "> 

<g id="surface1">
<path style=" stroke:none;fill-rule:nonzero;fill:rgb(100%,100%,100%);fill-opacity:1;" d="M 2.964844 6.382812 C 2.652344 6.382812 2.382812 6.574219 2.265625 6.84375 L 2.207031 7.574219 L 2.207031 8.378906 C 2.207031 8.476562 2.226562 8.566406 2.257812 8.652344 L 0.621094 8.652344 L 0.621094 11.351562 L 1.132812 11.351562 L 1.132812 9.429688 L 6.390625 9.429688 L 6.390625 11.351562 L 6.902344 11.351562 L 6.902344 8.652344 L 5.265625 8.652344 C 5.300781 8.566406 5.320312 8.476562 5.320312 8.378906 L 5.320312 7.574219 L 5.257812 6.84375 C 5.144531 6.574219 4.875 6.382812 4.558594 6.382812 Z M 2.804688 7.398438 L 2.984375 7.398438 L 2.984375 8.652344 L 2.804688 8.652344 Z M 4.539062 7.398438 L 4.71875 7.398438 L 4.71875 8.652344 L 4.539062 8.652344 Z M 4.539062 7.398438 "/>
<path style=" stroke:none;fill-rule:nonzero;fill:rgb(100%,100%,100%);fill-opacity:1;" d="M 3.761719 4.203125 C 3.25 4.203125 2.835938 4.621094 2.835938 5.132812 C 2.835938 5.644531 3.25 6.058594 3.761719 6.058594 C 4.273438 6.058594 4.691406 5.644531 4.691406 5.132812 C 4.691406 4.621094 4.273438 4.203125 3.761719 4.203125 Z M 3.761719 4.203125 "/>
<path style=" stroke:none;fill-rule:nonzero;fill:rgb(100%,100%,100%);fill-opacity:1;" d="M 11.066406 0.851562 L 7.621094 0.851562 C 7.511719 0.851562 7.421875 0.941406 7.421875 1.050781 L 7.421875 3.613281 C 7.421875 3.726562 7.511719 3.8125 7.621094 3.8125 L 11.066406 3.8125 C 11.175781 3.8125 11.265625 3.726562 11.265625 3.613281 L 11.265625 1.050781 C 11.265625 0.941406 11.175781 0.851562 11.066406 0.851562 Z M 11.066406 0.851562 "/>
<path style=" stroke:none;fill-rule:nonzero;fill:rgb(100%,100%,100%);fill-opacity:1;" d="M 6.515625 5.144531 C 6.824219 5.144531 7.070312 4.894531 7.070312 4.589844 C 7.070312 4.28125 6.824219 4.03125 6.515625 4.03125 C 6.207031 4.03125 5.957031 4.28125 5.957031 4.589844 C 5.957031 4.894531 6.207031 5.144531 6.515625 5.144531 Z M 6.515625 5.144531 "/>
<path style=" stroke:none;fill-rule:nonzero;fill:rgb(100%,100%,100%);fill-opacity:1;" d="M 10.488281 4.03125 C 10.183594 4.03125 9.933594 4.28125 9.933594 4.589844 C 9.933594 4.894531 10.183594 5.144531 10.488281 5.144531 C 10.796875 5.144531 11.046875 4.894531 11.046875 4.589844 C 11.046875 4.28125 10.796875 4.03125 10.488281 4.03125 Z M 10.488281 4.03125 "/>
<path style=" stroke:none;fill-rule:nonzero;fill:rgb(100%,100%,100%);fill-opacity:1;" d="M 9.492188 3.964844 L 7.25 3.964844 L 7.472656 4.40625 L 9.734375 4.40625 Z M 9.492188 3.964844 "/>
<path style=" stroke:none;fill-rule:nonzero;fill:rgb(100%,100%,100%);fill-opacity:1;" d="M 7.25 3.480469 L 7.25 2 C 7.25 1.71875 7.015625 1.757812 7.015625 1.757812 C 7.015625 1.757812 6.441406 1.757812 6.285156 1.757812 C 6.128906 1.757812 6.03125 1.890625 6.03125 1.890625 C 6.03125 1.890625 5.566406 2.695312 5.386719 3.003906 C 5.355469 3.058594 5.316406 3.160156 5.316406 3.246094 C 5.316406 3.464844 5.316406 3.925781 5.316406 4.265625 C 5.316406 4.722656 5.742188 4.589844 5.742188 4.589844 C 5.742188 4.570312 5.742188 4.492188 5.742188 4.222656 C 5.742188 3.773438 6.265625 3.816406 6.265625 3.816406 L 6.980469 3.816406 C 7.289062 3.8125 7.25 3.480469 7.25 3.480469 Z M 7.25 3.480469 "/>
</g>

</g>%n%n</svg>