<svg width="300" height="40" viewBox="0 0 300 40" fill="none" xmlns="http://www.w3.org/2000/svg" xmlns:xlink="http://www.w3.org/1999/xlink" version="1.1">

<g transform="translate(130.000000, 0.000000) scale(2.000000 2.000000) "> 

<g clip-path="url(#clip0)">
<path opacity="0.953" d="M9.99934 0C15.514 0 20 4.44646 20 10C20 15.5172 15.514 20 9.99934 20C4.48599 20 0 15.5172 0 10C0 4.44646 4.48599 0 9.99934 0V0Z" fill="#878787"/>
<path opacity="0.95" fill-rule="evenodd" clip-rule="evenodd" d="M10 19C14.9706 19 19 14.9706 19 10C19 5.02944 14.9706 1 10 1C5.02944 1 1 5.02944 1 10C1 14.9706 5.02944 19 10 19ZM10 20C15.5228 20 20 15.5228 20 10C20 4.47715 15.5228 0 10 0C4.47715 0 0 4.47715 0 10C0 15.5228 4.47715 20 10 20Z" fill="#404040"/>
</g>
<defs>
<clipPath id="clip0">
<path d="M0 0H20V20H0V0Z" fill="white"/>
</clipPath>
</defs>

</g>%n%n
<g transform="translate(138.000000, 8.000000) scale(2.000000 2.000000) "> 

<g id="surface1">
<path style=" stroke:none;fill-rule:evenodd;fill:rgb(100%,100%,100%);fill-opacity:1;" d="M 4 5.5 C 4 5.777344 3.777344 6 3.5 6 C 3.222656 6 3 5.777344 3 5.5 C 3 5.222656 3.222656 5 3.5 5 C 3.777344 5 4 5.222656 4 5.5 Z M 4 8 L 4 7.25 C 4 7.386719 4.113281 7.5 4.25 7.5 C 4.386719 7.5 4.5 7.386719 4.5 7.25 L 4.5 6.25 C 4.5 6.113281 4.386719 6 4.25 6 L 2.75 6 C 2.613281 6 2.5 6.113281 2.5 6.25 L 2.5 7.25 C 2.5 7.386719 2.613281 7.5 2.75 7.5 C 2.886719 7.5 3 7.386719 3 7.25 L 3 8 L 1 8 L 1 11 L 2 11 L 2 9 L 5 9 L 5 11 L 6 11 L 6 8 Z M 4 8 "/>
<path style="fill:none;stroke-width:4;stroke-linecap:round;stroke-linejoin:round;stroke:rgb(100%,100%,100%);stroke-opacity:1;stroke-miterlimit:4;" d="M 40 30 L 30 30 L 38 22.90625 " transform="matrix(0.25,0,0,0.25,0,0)"/>
<path style="fill:none;stroke-width:6;stroke-linecap:round;stroke-linejoin:round;stroke:rgb(100%,100%,100%);stroke-opacity:1;stroke-miterlimit:4;" d="M 37.203125 22 L 35.046875 15.046875 " transform="matrix(0.25,0,0,0.25,0,0)"/>
<path style="fill:none;stroke-width:3;stroke-linecap:round;stroke-linejoin:round;stroke:rgb(100%,100%,100%);stroke-opacity:1;stroke-miterlimit:4;" d="M 34.546875 13.65625 L 28 18 C 28 18 23.484375 11.484375 24 12 " transform="matrix(0.25,0,0,0.25,0,0)"/>
<path style=" stroke:none;fill-rule:nonzero;fill:rgb(100%,100%,100%);fill-opacity:1;" d="M 8.996094 2.253906 C 8.996094 2.667969 8.660156 3.003906 8.246094 3.003906 C 7.832031 3.003906 7.496094 2.667969 7.496094 2.253906 C 7.496094 1.839844 7.832031 1.503906 8.246094 1.503906 C 8.660156 1.503906 8.996094 1.839844 8.996094 2.253906 Z M 8.996094 2.253906 "/>
</g>

</g>%n%n</svg>