<svg width="40" height="40" viewBox="0 0 40 40" fill="none" xmlns="http://www.w3.org/2000/svg" version="1.1" id="svg10">

<g transform="translate(0.000000, 0.000000) scale(2.000000 2.000000) "> 

<g clip-path="url(#clip0)">
<path opacity="0.953" d="M9.99934 0C15.514 0 20 4.44646 20 10C20 15.5172 15.514 20 9.99934 20C4.48599 20 0 15.5172 0 10C0 4.44646 4.48599 0 9.99934 0V0Z" fill="#878787"/>
<path opacity="0.95" fill-rule="evenodd" clip-rule="evenodd" d="M10 19C14.9706 19 19 14.9706 19 10C19 5.02944 14.9706 1 10 1C5.02944 1 1 5.02944 1 10C1 14.9706 5.02944 19 10 19ZM10 20C15.5228 20 20 15.5228 20 10C20 4.47715 15.5228 0 10 0C4.47715 0 0 4.47715 0 10C0 15.5228 4.47715 20 10 20Z" fill="#404040"/>
</g>
<defs>
<clipPath id="clip0">
<path d="M0 0H20V20H0V0Z" fill="white"/>
</clipPath>
</defs>

</g>


<g transform="translate(8.000000, 8.000000) scale(2.000000 2.000000) "> 
<path style="fill:#fff;fill-opacity:1;stroke-width:1.00000012" d="M16.85 8.6l.61-.26.46 1.05 4.54-1.85L22 6.46l.67-.28a1.2 1.2 0 0 0 .65-1.56l-.27-.8a1.23 1.23 0 0 0-1.56-.64L15.66 5.6c-.6.26-.9.95-.65 1.57l.28.79a1.2 1.2 0 0 0 1.56.64z" id="path4"/><path style="fill:#fff;fill-opacity:1;stroke-width:1.00000012" d="M25.54 9.94l3.52 8.51-8.16 3.25-3.49-8.4c-.54-1.35-.33-1.82 1-2.35l4.81-1.97c.6-.24 1.01-.4 1.47-.2.46.2.63.6.85 1.16z" id="path6"/><path style="fill:#fff;fill-opacity:1;stroke-width:1.00000012" d="M21.5 23.21l8.16-3.25.5 1.22c.08.2.08.42 0 .63-.32.72-.63 2.43-1.45 2.76l-3.32 1.32a.82.82 0 0 1-.62 0l-2.33-1a.81.81 0 0 1-.43-.44z" id="path8"/><path style="fill:#fff;fill-opacity:1;stroke-width:1.00000012" d="M34.7 25.98a.43.43 0 1 0-.33-.79l-10.85 4.45a5.96 5.96 0 0 0-5.47-3.66 6 6 0 1 0 5.75 4.47z" id="path10"/><path style="fill:#fff;fill-opacity:1;stroke-width:1.00000012" d="M39.22 44H12.78a.79.79 0 0 1-.78-.8v-.8c0-1.32 1-2.4 2.24-2.4h23.52C39 40 40 41.08 40 42.4v.8a.8.8 0 0 1-.78.8z" id="path12"/><path style="fill:#fff;fill-opacity:1;stroke-width:1.00000012" d="M37.9 34.74c-.2-.91-1.44-2.76-2.7-2.76-.37 0-1.1.21-1.1.21l-8.32 4.08S24.6 37.5 24 38h13.24c1 0 .85-2.34.65-3.26z" id="path14"/><path style="fill:#fff;fill-opacity:1;stroke-width:1.00000012" d="M14.5 13.48l2.44 5.9c-.4.58-.52 1.34-.24 2.05l.93 2.57c-2.17 0-4.12.95-5.47 2.45l-1.14-2.72a8.3 8.3 0 0 1 3.48-10.25z" id="path16"/>
</g>

</svg>