<svg width="300" height="40" viewBox="0 0 300 40" fill="none" xmlns="http://www.w3.org/2000/svg" xmlns:xlink="http://www.w3.org/1999/xlink">

<g transform="translate(130.000000, 0.000000) scale(2.000000 2.000000) "> 

<g clip-path="url(#clip0)">
<path opacity="0.953" d="M9.99934 0C15.514 0 20 4.44646 20 10C20 15.5172 15.514 20 9.99934 20C4.48599 20 0 15.5172 0 10C0 4.44646 4.48599 0 9.99934 0V0Z" fill="#878787"/>
<path opacity="0.95" fill-rule="evenodd" clip-rule="evenodd" d="M10 19C14.9706 19 19 14.9706 19 10C19 5.02944 14.9706 1 10 1C5.02944 1 1 5.02944 1 10C1 14.9706 5.02944 19 10 19ZM10 20C15.5228 20 20 15.5228 20 10C20 4.47715 15.5228 0 10 0C4.47715 0 0 4.47715 0 10C0 15.5228 4.47715 20 10 20Z" fill="#404040"/>
</g>
<defs>
<clipPath id="clip0">
<path d="M0 0H20V20H0V0Z" fill="white"/>
</clipPath>
</defs>

</g>%n%n
<g transform="translate(138.000000, 8.000000) scale(0.750000 0.750000) "> 

<path fill-rule="nonzero" fill="rgb(100%, 100%, 100%)" fill-opacity="1" d="M 7.90625 17.019531 C 7.070312 17.019531 6.351562 17.527344 6.042969 18.253906 L 5.882812 20.203125 L 5.882812 22.339844 C 5.882812 22.601562 5.933594 22.847656 6.023438 23.078125 L 1.65625 23.078125 L 1.65625 30.269531 L 3.023438 30.269531 L 3.023438 25.144531 L 17.042969 25.144531 L 17.042969 30.269531 L 18.410156 30.269531 L 18.410156 23.078125 L 14.042969 23.078125 C 14.132812 22.847656 14.183594 22.601562 14.183594 22.339844 L 14.183594 20.203125 L 14.023438 18.253906 C 13.714844 17.527344 12.996094 17.019531 12.160156 17.019531 Z M 7.480469 19.734375 L 7.957031 19.734375 L 7.957031 23.078125 L 7.480469 23.078125 Z M 12.109375 19.734375 L 12.585938 19.734375 L 12.585938 23.078125 L 12.109375 23.078125 Z M 12.109375 19.734375 "/>
<path fill-rule="nonzero" fill="rgb(100%, 100%, 100%)" fill-opacity="1" d="M 10.035156 11.214844 C 8.667969 11.214844 7.558594 12.320312 7.558594 13.6875 C 7.558594 15.054688 8.667969 16.160156 10.035156 16.160156 C 11.398438 16.160156 12.507812 15.054688 12.507812 13.6875 C 12.507812 12.320312 11.398438 11.214844 10.035156 11.214844 Z M 10.035156 11.214844 "/>
<path fill-rule="nonzero" fill="rgb(100%, 100%, 100%)" fill-opacity="1" d="M 17.1875 11.539062 L 28.664062 11.539062 C 29.289062 11.539062 29.796875 11.03125 29.796875 10.40625 L 29.796875 2.234375 C 29.796875 1.609375 29.289062 1.101562 28.664062 1.101562 L 17.1875 1.101562 C 16.5625 1.101562 16.054688 1.609375 16.054688 2.234375 L 16.054688 10.40625 C 16.054688 11.03125 16.5625 11.539062 17.1875 11.539062 Z M 17.191406 2.242188 L 28.660156 2.242188 L 28.660156 10.402344 L 17.191406 10.402344 Z M 17.191406 2.242188 "/>
<path fill-rule="nonzero" fill="rgb(100%, 100%, 100%)" fill-opacity="1" d="M 24.773438 8.734375 L 23.410156 6.367188 L 25.222656 5.734375 L 20.601562 2.699219 L 20.601562 8.429688 L 22.199219 7.046875 L 23.570312 9.425781 Z M 24.773438 8.734375 "/>
<path fill-rule="nonzero" fill="rgb(100%, 100%, 100%)" fill-opacity="1" d="M 31.316406 15.640625 L 29.671875 12.378906 C 29.660156 12.351562 29.644531 12.324219 29.632812 12.300781 C 29.496094 12.023438 29.367188 11.761719 29.050781 11.761719 L 16.800781 11.761719 C 16.484375 11.761719 16.355469 12.023438 16.21875 12.300781 C 16.203125 12.324219 16.191406 12.351562 16.179688 12.378906 L 14.535156 15.640625 C 14.480469 15.742188 14.488281 15.851562 14.554688 15.957031 C 14.664062 16.136719 14.929688 16.273438 15.15625 16.273438 L 30.695312 16.273438 C 30.921875 16.273438 31.1875 16.136719 31.296875 15.957031 C 31.359375 15.851562 31.367188 15.742188 31.316406 15.640625 Z M 31.316406 15.640625 "/>

</g>%n%n</svg>