<svg width="300" height="35" viewBox="0 0 300 35" fill="none" xmlns="http://www.w3.org/2000/svg" >

<g transform="translate(135.000000, 2.000000) scale(1.500000 1.500000) "> 

<g clip-path="url(#clip0)">
<path opacity="0.953" d="M9.99934 0C15.514 0 20 4.44646 20 10C20 15.5172 15.514 20 9.99934 20C4.48599 20 0 15.5172 0 10C0 4.44646 4.48599 0 9.99934 0V0Z" fill="#878787"/>
<path opacity="0.95" fill-rule="evenodd" clip-rule="evenodd" d="M10 19C14.9706 19 19 14.9706 19 10C19 5.02944 14.9706 1 10 1C5.02944 1 1 5.02944 1 10C1 14.9706 5.02944 19 10 19ZM10 20C15.5228 20 20 15.5228 20 10C20 4.47715 15.5228 0 10 0C4.47715 0 0 4.47715 0 10C0 15.5228 4.47715 20 10 20Z" fill="#404040"/>
</g>
<defs>
<clipPath id="clip0">
<path d="M0 0H20V20H0V0Z" fill="white"/>
</clipPath>
</defs>

</g>


<g transform="translate(141.000000, 8.000000) scale(0.375000 0.375000) "> 

<path fill-rule="evenodd" clip100-rule="evenodd" d="M16 22C16 23.1046 15.1046 24 14 24C12.8954 24 12 23.1046 12 22C12 20.8954 12.8954 20 14 20C15.1046 20 16 20.8954 16 22ZM16 32V29C16 29.5523 16.4477 30 17 30C17.5523 30 18 29.5523 18 29V25C18 24.4477 17.5523 24 17 24H16H14H12H11C10.4477 24 10 24.4477 10 25V29C10 29.5523 10.4477 30 11 30C11.5523 30 12 29.5523 12 29V32H4V44H8V36H20V44H24V32H16Z" fill="#ffffff"/>
<path d="M44 6L40 8H36V12H40V16H36V24H32V16H28L24 14L28 12H32V8H28V4.00008L40 4.00008L44 6Z" fill="#ffffff"/>

</g>

</svg>