<svg width="300" height="40" viewBox="0 0 300 40" fill="none" xmlns="http://www.w3.org/2000/svg" xmlns:xlink="http://www.w3.org/1999/xlink">

<g transform="translate(130.000000, 0.000000) scale(2.000000 2.000000) "> 

<g clip-path="url(#clip0)">
<path opacity="0.953" d="M9.99934 0C15.514 0 20 4.44646 20 10C20 15.5172 15.514 20 9.99934 20C4.48599 20 0 15.5172 0 10C0 4.44646 4.48599 0 9.99934 0V0Z" fill="#878787"/>
<path opacity="0.95" fill-rule="evenodd" clip-rule="evenodd" d="M10 19C14.9706 19 19 14.9706 19 10C19 5.02944 14.9706 1 10 1C5.02944 1 1 5.02944 1 10C1 14.9706 5.02944 19 10 19ZM10 20C15.5228 20 20 15.5228 20 10C20 4.47715 15.5228 0 10 0C4.47715 0 0 4.47715 0 10C0 15.5228 4.47715 20 10 20Z" fill="#404040"/>
</g>
<defs>
<clipPath id="clip0">
<path d="M0 0H20V20H0V0Z" fill="white"/>
</clipPath>
</defs>

</g>%n%n
<g transform="translate(138.000000, 8.000000) scale(0.750000 0.750000) "> 

<path fill-rule="nonzero" fill="rgb(100%, 100%, 100%)" fill-opacity="1" d="M 7.90625 17.019531 C 7.070312 17.019531 6.351562 17.527344 6.042969 18.253906 L 5.882812 20.203125 L 5.882812 22.339844 C 5.882812 22.601562 5.933594 22.847656 6.023438 23.078125 L 1.65625 23.078125 L 1.65625 30.269531 L 3.023438 30.269531 L 3.023438 25.144531 L 17.042969 25.144531 L 17.042969 30.269531 L 18.410156 30.269531 L 18.410156 23.078125 L 14.042969 23.078125 C 14.132812 22.847656 14.183594 22.601562 14.183594 22.339844 L 14.183594 20.203125 L 14.023438 18.253906 C 13.714844 17.527344 12.996094 17.019531 12.160156 17.019531 Z M 7.480469 19.734375 L 7.957031 19.734375 L 7.957031 23.078125 L 7.480469 23.078125 Z M 12.109375 19.734375 L 12.585938 19.734375 L 12.585938 23.078125 L 12.109375 23.078125 Z M 12.109375 19.734375 "/>
<path fill-rule="nonzero" fill="rgb(100%, 100%, 100%)" fill-opacity="1" d="M 10.035156 11.214844 C 8.667969 11.214844 7.558594 12.320312 7.558594 13.6875 C 7.558594 15.054688 8.667969 16.160156 10.035156 16.160156 C 11.398438 16.160156 12.507812 15.054688 12.507812 13.6875 C 12.507812 12.320312 11.398438 11.214844 10.035156 11.214844 Z M 10.035156 11.214844 "/>
<path fill-rule="nonzero" fill="rgb(100%, 100%, 100%)" fill-opacity="1" d="M 13.519531 6.136719 C 13.160156 5.851562 12.796875 5.320312 12.84375 4.339844 C 13.414062 4.089844 13.8125 3.523438 13.8125 2.863281 C 13.8125 1.972656 13.089844 1.25 12.199219 1.25 C 11.308594 1.25 10.589844 1.972656 10.589844 2.863281 C 10.589844 3.523438 10.984375 4.089844 11.554688 4.339844 C 11.605469 5.320312 11.238281 5.851562 10.878906 6.136719 L 7.675781 6.136719 L 8 7.472656 L 16.449219 7.472656 L 16.722656 6.136719 Z M 13.519531 6.136719 "/>
<path fill-rule="nonzero" fill="rgb(100%, 100%, 100%)" fill-opacity="1" d="M 18.582031 1.777344 L 18.582031 19.082031 L 30.125 19.082031 L 30.125 1.777344 Z M 20.390625 3.375 L 28.507812 3.375 L 28.507812 4.480469 L 20.390625 4.480469 Z M 20.390625 5.910156 L 28.507812 5.910156 L 28.507812 7.015625 L 20.390625 7.015625 Z M 20.390625 8.449219 L 28.507812 8.449219 L 28.507812 9.550781 L 20.390625 9.550781 Z M 20.390625 10.984375 L 28.507812 10.984375 L 28.507812 12.085938 L 20.390625 12.085938 Z M 20.390625 13.519531 L 28.507812 13.519531 L 28.507812 14.621094 L 20.390625 14.621094 Z M 20.390625 16.054688 L 28.507812 16.054688 L 28.507812 17.160156 L 20.390625 17.160156 Z M 20.390625 16.054688 "/>

</g>%n%n</svg>