<svg width="300" height="40" viewBox="0 0 300 40" fill="none" xmlns="http://www.w3.org/2000/svg" xmlns:xlink="http://www.w3.org/1999/xlink" version="1.1">

<g transform="translate(130.000000, 0.000000) scale(2.000000 2.000000) "> 

<g clip-path="url(#clip0)">
<path opacity="0.953" d="M9.99934 0C15.514 0 20 4.44646 20 10C20 15.5172 15.514 20 9.99934 20C4.48599 20 0 15.5172 0 10C0 4.44646 4.48599 0 9.99934 0V0Z" fill="#878787"/>
<path opacity="0.95" fill-rule="evenodd" clip-rule="evenodd" d="M10 19C14.9706 19 19 14.9706 19 10C19 5.02944 14.9706 1 10 1C5.02944 1 1 5.02944 1 10C1 14.9706 5.02944 19 10 19ZM10 20C15.5228 20 20 15.5228 20 10C20 4.47715 15.5228 0 10 0C4.47715 0 0 4.47715 0 10C0 15.5228 4.47715 20 10 20Z" fill="#404040"/>
</g>
<defs>
<clipPath id="clip0">
<path d="M0 0H20V20H0V0Z" fill="white"/>
</clipPath>
</defs>

</g>%n%n
<g transform="translate(138.000000, 8.000000) scale(2.000000 2.000000) "> 

<g id="surface1">
<path style=" stroke:none;fill-rule:nonzero;fill:rgb(100%,100%,100%);fill-opacity:1;" d="M 2.542969 4.90625 C 2.296875 4.90625 2.085938 5.058594 1.996094 5.269531 L 1.949219 5.839844 L 1.949219 6.46875 C 1.949219 6.546875 1.960938 6.617188 1.988281 6.683594 L 0.707031 6.683594 L 0.707031 8.796875 L 1.109375 8.796875 L 1.109375 7.292969 L 5.222656 7.292969 L 5.222656 8.796875 L 5.625 8.796875 L 5.625 6.683594 L 4.34375 6.683594 C 4.367188 6.617188 4.382812 6.546875 4.382812 6.46875 L 4.382812 5.839844 L 4.335938 5.269531 C 4.246094 5.058594 4.035156 4.90625 3.789062 4.90625 Z M 2.417969 5.703125 L 2.558594 5.703125 L 2.558594 6.683594 L 2.417969 6.683594 Z M 3.773438 5.703125 L 3.914062 5.703125 L 3.914062 6.683594 L 3.773438 6.683594 Z M 3.773438 5.703125 "/>
<path style=" stroke:none;fill-rule:nonzero;fill:rgb(100%,100%,100%);fill-opacity:1;" d="M 3.164062 3.203125 C 2.765625 3.203125 2.441406 3.527344 2.441406 3.929688 C 2.441406 4.332031 2.765625 4.65625 3.164062 4.65625 C 3.566406 4.65625 3.890625 4.332031 3.890625 3.929688 C 3.890625 3.527344 3.566406 3.203125 3.164062 3.203125 Z M 3.164062 3.203125 "/>
<path style=" stroke:none;fill-rule:nonzero;fill:rgb(100%,100%,100%);fill-opacity:1;" d="M 8.210938 4.90625 C 7.964844 4.90625 7.753906 5.058594 7.664062 5.269531 L 7.617188 5.839844 L 7.617188 6.46875 C 7.617188 6.546875 7.632812 6.617188 7.65625 6.683594 L 6.375 6.683594 L 6.375 8.796875 L 6.777344 8.796875 L 6.777344 7.292969 L 10.890625 7.292969 L 10.890625 8.796875 L 11.292969 8.796875 L 11.292969 6.683594 L 10.011719 6.683594 C 10.039062 6.617188 10.050781 6.546875 10.050781 6.46875 L 10.050781 5.839844 L 10.003906 5.269531 C 9.914062 5.058594 9.703125 4.90625 9.457031 4.90625 Z M 8.085938 5.703125 L 8.226562 5.703125 L 8.226562 6.683594 L 8.085938 6.683594 Z M 9.441406 5.703125 L 9.582031 5.703125 L 9.582031 6.683594 L 9.441406 6.683594 Z M 9.441406 5.703125 "/>
<path style=" stroke:none;fill-rule:nonzero;fill:rgb(100%,100%,100%);fill-opacity:1;" d="M 8.835938 3.203125 C 8.433594 3.203125 8.109375 3.527344 8.109375 3.929688 C 8.109375 4.332031 8.433594 4.65625 8.835938 4.65625 C 9.234375 4.65625 9.558594 4.332031 9.558594 3.929688 C 9.558594 3.527344 9.234375 3.203125 8.835938 3.203125 Z M 8.835938 3.203125 "/>
</g>

</g>%n%n</svg>