<svg width="300" height="40" viewBox="0 0 300 40" fill="none" xmlns="http://www.w3.org/2000/svg" xmlns:xlink="http://www.w3.org/1999/xlink">

<g transform="translate(130.000000, 0.000000) scale(2.000000 2.000000) "> 

<g clip-path="url(#clip0)">
<path opacity="0.953" d="M9.99934 0C15.514 0 20 4.44646 20 10C20 15.5172 15.514 20 9.99934 20C4.48599 20 0 15.5172 0 10C0 4.44646 4.48599 0 9.99934 0V0Z" fill="#878787"/>
<path opacity="0.95" fill-rule="evenodd" clip-rule="evenodd" d="M10 19C14.9706 19 19 14.9706 19 10C19 5.02944 14.9706 1 10 1C5.02944 1 1 5.02944 1 10C1 14.9706 5.02944 19 10 19ZM10 20C15.5228 20 20 15.5228 20 10C20 4.47715 15.5228 0 10 0C4.47715 0 0 4.47715 0 10C0 15.5228 4.47715 20 10 20Z" fill="#404040"/>
</g>
<defs>
<clipPath id="clip0">
<path d="M0 0H20V20H0V0Z" fill="white"/>
</clipPath>
</defs>

</g>%n%n
<g transform="translate(138.000000, 8.000000) scale(0.750000 0.750000) "> 

<path fill-rule="nonzero" fill="rgb(100%, 100%, 100%)" fill-opacity="1" d="M 7.90625 17.019531 C 7.070312 17.019531 6.351562 17.527344 6.042969 18.253906 L 5.882812 20.203125 L 5.882812 22.339844 C 5.882812 22.601562 5.933594 22.847656 6.023438 23.078125 L 1.65625 23.078125 L 1.65625 30.269531 L 3.023438 30.269531 L 3.023438 25.144531 L 17.042969 25.144531 L 17.042969 30.269531 L 18.410156 30.269531 L 18.410156 23.078125 L 14.042969 23.078125 C 14.132812 22.847656 14.183594 22.601562 14.183594 22.339844 L 14.183594 20.203125 L 14.023438 18.253906 C 13.714844 17.527344 12.996094 17.019531 12.160156 17.019531 Z M 7.480469 19.734375 L 7.957031 19.734375 L 7.957031 23.078125 L 7.480469 23.078125 Z M 12.109375 19.734375 L 12.585938 19.734375 L 12.585938 23.078125 L 12.109375 23.078125 Z M 12.109375 19.734375 "/>
<path fill-rule="nonzero" fill="rgb(100%, 100%, 100%)" fill-opacity="1" d="M 10.035156 11.214844 C 8.667969 11.214844 7.558594 12.320312 7.558594 13.6875 C 7.558594 15.054688 8.667969 16.160156 10.035156 16.160156 C 11.398438 16.160156 12.507812 15.054688 12.507812 13.6875 C 12.507812 12.320312 11.398438 11.214844 10.035156 11.214844 Z M 10.035156 11.214844 "/>
<path fill-rule="nonzero" fill="rgb(100%, 100%, 100%)" fill-opacity="1" d="M 24.355469 8.988281 C 26.4375 8.988281 28.125 7.300781 28.125 5.214844 C 28.125 3.132812 26.4375 1.445312 24.355469 1.445312 C 22.269531 1.445312 20.582031 3.132812 20.582031 5.214844 C 20.582031 7.300781 22.269531 8.988281 24.355469 8.988281 Z M 24.355469 8.988281 "/>
<path fill-rule="nonzero" fill="rgb(100%, 100%, 100%)" fill-opacity="1" d="M 20.460938 21.425781 L 20.460938 14.4375 L 21.191406 14.4375 L 21.191406 22.5625 L 27.519531 22.5625 L 27.519531 14.4375 L 28.25 14.4375 L 28.25 21.425781 C 29.640625 21.128906 30.683594 19.890625 30.683594 18.410156 L 30.683594 15.152344 L 30.4375 12.179688 C 29.96875 11.074219 28.875 10.300781 27.597656 10.300781 L 21.109375 10.300781 C 19.832031 10.300781 18.738281 11.074219 18.269531 12.179688 L 18.027344 15.152344 L 18.027344 18.410156 C 18.027344 19.890625 19.070312 21.128906 20.460938 21.425781 Z M 23.84375 11.761719 L 23.335938 10.882812 L 25.371094 10.882812 L 24.863281 11.761719 L 24.609375 12.203125 L 25.371094 13.527344 L 24.355469 18.652344 L 23.335938 13.527344 L 23.84375 12.644531 L 24.101562 12.203125 Z M 23.84375 11.761719 "/>

</g>%n%n</svg>