<svg width="300" height="40" viewBox="0 0 300 40" fill="none" xmlns="http://www.w3.org/2000/svg" xmlns:xlink="http://www.w3.org/1999/xlink">

<g transform="translate(130.000000, 0.000000) scale(2.000000 2.000000) "> 

<g clip-path="url(#clip0)">
<path opacity="0.953" d="M9.99934 0C15.514 0 20 4.44646 20 10C20 15.5172 15.514 20 9.99934 20C4.48599 20 0 15.5172 0 10C0 4.44646 4.48599 0 9.99934 0V0Z" fill="#878787"/>
<path opacity="0.95" fill-rule="evenodd" clip-rule="evenodd" d="M10 19C14.9706 19 19 14.9706 19 10C19 5.02944 14.9706 1 10 1C5.02944 1 1 5.02944 1 10C1 14.9706 5.02944 19 10 19ZM10 20C15.5228 20 20 15.5228 20 10C20 4.47715 15.5228 0 10 0C4.47715 0 0 4.47715 0 10C0 15.5228 4.47715 20 10 20Z" fill="#404040"/>
</g>
<defs>
<clipPath id="clip0">
<path d="M0 0H20V20H0V0Z" fill="white"/>
</clipPath>
</defs>

</g>%n%n
<g transform="translate(138.000000, 8.000000) scale(0.750000 0.750000) "> 

<path fill-rule="evenodd" fill="rgb(100%, 100%, 100%)" fill-opacity="1" d="M 10.667969 14.667969 C 10.667969 15.402344 10.070312 16 9.332031 16 C 8.597656 16 8 15.402344 8 14.667969 C 8 13.929688 8.597656 13.332031 9.332031 13.332031 C 10.070312 13.332031 10.667969 13.929688 10.667969 14.667969 Z M 10.667969 21.332031 L 10.667969 19.332031 C 10.667969 19.703125 10.964844 20 11.332031 20 C 11.703125 20 12 19.703125 12 19.332031 L 12 16.667969 C 12 16.296875 11.703125 16 11.332031 16 L 7.332031 16 C 6.964844 16 6.667969 16.296875 6.667969 16.667969 L 6.667969 19.332031 C 6.667969 19.703125 6.964844 20 7.332031 20 C 7.703125 20 8 19.703125 8 19.332031 L 8 21.332031 L 2.667969 21.332031 L 2.667969 29.332031 L 5.332031 29.332031 L 5.332031 24 L 13.332031 24 L 13.332031 29.332031 L 16 29.332031 L 16 21.332031 Z M 10.667969 21.332031 "/>
<path fill-rule="nonzero" fill="rgb(100%, 100%, 100%)" fill-opacity="1" d="M 29.332031 4 L 26.667969 5.332031 L 24 5.332031 L 24 8 L 26.667969 8 L 26.667969 10.667969 L 24 10.667969 L 24 16 L 21.332031 16 L 21.332031 10.667969 L 18.667969 10.667969 L 16 9.332031 L 18.667969 8 L 21.332031 8 L 21.332031 5.332031 L 18.667969 5.332031 L 18.667969 2.667969 L 26.667969 2.667969 Z M 29.332031 4 "/>

</g>%n%n</svg>