<svg width="300" height="40" viewBox="0 0 300 40" fill="none" xmlns="http://www.w3.org/2000/svg" xmlns:xlink="http://www.w3.org/1999/xlink">

<g transform="translate(130.000000, 0.000000) scale(2.000000 2.000000) "> 

<g clip-path="url(#clip0)">
<path opacity="0.953" d="M9.99934 0C15.514 0 20 4.44646 20 10C20 15.5172 15.514 20 9.99934 20C4.48599 20 0 15.5172 0 10C0 4.44646 4.48599 0 9.99934 0V0Z" fill="#878787"/>
<path opacity="0.95" fill-rule="evenodd" clip-rule="evenodd" d="M10 19C14.9706 19 19 14.9706 19 10C19 5.02944 14.9706 1 10 1C5.02944 1 1 5.02944 1 10C1 14.9706 5.02944 19 10 19ZM10 20C15.5228 20 20 15.5228 20 10C20 4.47715 15.5228 0 10 0C4.47715 0 0 4.47715 0 10C0 15.5228 4.47715 20 10 20Z" fill="#404040"/>
</g>
<defs>
<clipPath id="clip0">
<path d="M0 0H20V20H0V0Z" fill="white"/>
</clipPath>
</defs>

</g>%n%n
<g transform="translate(138.000000, 8.000000) scale(0.750000 0.750000) "> 

<path fill-rule="nonzero" fill="rgb(100%, 100%, 100%)" fill-opacity="1" d="M 6.777344 13.085938 C 6.121094 13.085938 5.558594 13.484375 5.320312 14.050781 L 5.195312 15.578125 L 5.195312 17.25 C 5.195312 17.453125 5.234375 17.648438 5.304688 17.828125 L 1.886719 17.828125 L 1.886719 23.457031 L 2.957031 23.457031 L 2.957031 19.445312 L 13.925781 19.445312 L 13.925781 23.457031 L 14.996094 23.457031 L 14.996094 17.828125 L 11.578125 17.828125 C 11.648438 17.648438 11.6875 17.453125 11.6875 17.25 L 11.6875 15.578125 L 11.5625 14.050781 C 11.324219 13.484375 10.761719 13.085938 10.105469 13.085938 Z M 6.441406 15.210938 L 6.816406 15.210938 L 6.816406 17.828125 L 6.441406 17.828125 Z M 10.066406 15.210938 L 10.441406 15.210938 L 10.441406 17.828125 L 10.066406 17.828125 Z M 10.066406 15.210938 "/>
<path fill-rule="nonzero" fill="rgb(100%, 100%, 100%)" fill-opacity="1" d="M 8.441406 8.542969 C 7.371094 8.542969 6.503906 9.410156 6.503906 10.480469 C 6.503906 11.546875 7.371094 12.414062 8.441406 12.414062 C 9.511719 12.414062 10.378906 11.546875 10.378906 10.480469 C 10.378906 9.410156 9.511719 8.542969 8.441406 8.542969 Z M 8.441406 8.542969 "/>
<path fill-rule="nonzero" fill="rgb(100%, 100%, 100%)" fill-opacity="1" d="M 21.894531 13.085938 C 21.238281 13.085938 20.675781 13.484375 20.4375 14.050781 L 20.3125 15.578125 L 20.3125 17.25 C 20.3125 17.453125 20.351562 17.648438 20.421875 17.828125 L 17.003906 17.828125 L 17.003906 23.457031 L 18.074219 23.457031 L 18.074219 19.445312 L 29.042969 19.445312 L 29.042969 23.457031 L 30.113281 23.457031 L 30.113281 17.828125 L 26.695312 17.828125 C 26.765625 17.648438 26.804688 17.453125 26.804688 17.25 L 26.804688 15.578125 L 26.679688 14.050781 C 26.441406 13.484375 25.878906 13.085938 25.222656 13.085938 Z M 21.558594 15.210938 L 21.933594 15.210938 L 21.933594 17.828125 L 21.558594 17.828125 Z M 25.183594 15.210938 L 25.558594 15.210938 L 25.558594 17.828125 L 25.183594 17.828125 Z M 25.183594 15.210938 "/>
<path fill-rule="nonzero" fill="rgb(100%, 100%, 100%)" fill-opacity="1" d="M 23.558594 8.542969 C 22.488281 8.542969 21.621094 9.410156 21.621094 10.480469 C 21.621094 11.546875 22.488281 12.414062 23.558594 12.414062 C 24.628906 12.414062 25.496094 11.546875 25.496094 10.480469 C 25.496094 9.410156 24.628906 8.542969 23.558594 8.542969 Z M 23.558594 8.542969 "/>

</g>%n%n</svg>