<svg width="300" height="40" viewBox="0 0 300 40" fill="none" xmlns="http://www.w3.org/2000/svg" xmlns:xlink="http://www.w3.org/1999/xlink" version="1.1">

<g transform="translate(130.000000, 0.000000) scale(2.000000 2.000000) "> 

<g clip-path="url(#clip0)">
<path opacity="0.953" d="M9.99934 0C15.514 0 20 4.44646 20 10C20 15.5172 15.514 20 9.99934 20C4.48599 20 0 15.5172 0 10C0 4.44646 4.48599 0 9.99934 0V0Z" fill="#878787"/>
<path opacity="0.95" fill-rule="evenodd" clip-rule="evenodd" d="M10 19C14.9706 19 19 14.9706 19 10C19 5.02944 14.9706 1 10 1C5.02944 1 1 5.02944 1 10C1 14.9706 5.02944 19 10 19ZM10 20C15.5228 20 20 15.5228 20 10C20 4.47715 15.5228 0 10 0C4.47715 0 0 4.47715 0 10C0 15.5228 4.47715 20 10 20Z" fill="#404040"/>
</g>
<defs>
<clipPath id="clip0">
<path d="M0 0H20V20H0V0Z" fill="white"/>
</clipPath>
</defs>

</g>%n%n
<g transform="translate(138.000000, 8.000000) scale(2.000000 2.000000) "> 

<g id="surface1">
<path style=" stroke:none;fill-rule:nonzero;fill:rgb(100%,100%,100%);fill-opacity:1;" d="M 4.210938 2.148438 L 4.363281 2.085938 L 4.480469 2.347656 L 5.613281 1.886719 L 5.5 1.613281 L 5.667969 1.546875 C 5.820312 1.480469 5.890625 1.308594 5.828125 1.15625 L 5.761719 0.953125 C 5.695312 0.808594 5.523438 0.738281 5.371094 0.796875 L 3.914062 1.398438 C 3.765625 1.464844 3.691406 1.636719 3.753906 1.792969 L 3.824219 1.988281 C 3.886719 2.140625 4.0625 2.210938 4.210938 2.148438 Z M 4.210938 2.148438 "/>
<path style=" stroke:none;fill-rule:nonzero;fill:rgb(100%,100%,100%);fill-opacity:1;" d="M 6.386719 2.484375 L 7.265625 4.613281 L 5.226562 5.425781 L 4.351562 3.324219 C 4.21875 2.988281 4.269531 2.871094 4.601562 2.738281 L 5.804688 2.246094 C 5.953125 2.183594 6.058594 2.144531 6.171875 2.195312 C 6.289062 2.246094 6.328125 2.34375 6.386719 2.484375 Z M 6.386719 2.484375 "/>
<path style=" stroke:none;fill-rule:nonzero;fill:rgb(100%,100%,100%);fill-opacity:1;" d="M 5.375 5.800781 L 7.414062 4.988281 L 7.539062 5.296875 C 7.558594 5.34375 7.558594 5.398438 7.539062 5.453125 C 7.460938 5.632812 7.382812 6.058594 7.175781 6.140625 L 6.347656 6.472656 C 6.296875 6.492188 6.242188 6.492188 6.191406 6.472656 L 5.609375 6.222656 C 5.5625 6.203125 5.523438 6.160156 5.503906 6.113281 Z M 5.375 5.800781 "/>
<path style=" stroke:none;fill-rule:nonzero;fill:rgb(100%,100%,100%);fill-opacity:1;" d="M 8.675781 6.496094 C 8.714844 6.484375 8.742188 6.449219 8.75 6.410156 C 8.753906 6.367188 8.738281 6.328125 8.707031 6.304688 C 8.671875 6.28125 8.628906 6.277344 8.59375 6.296875 L 5.878906 7.410156 C 5.648438 6.859375 5.109375 6.496094 4.511719 6.496094 C 3.871094 6.488281 3.292969 6.894531 3.082031 7.503906 C 2.871094 8.109375 3.070312 8.785156 3.578125 9.179688 C 4.085938 9.574219 4.789062 9.601562 5.328125 9.246094 C 5.863281 8.890625 6.113281 8.234375 5.949219 7.613281 Z M 8.675781 6.496094 "/>
<path style=" stroke:none;fill-rule:nonzero;fill:rgb(100%,100%,100%);fill-opacity:1;" d="M 9.804688 11 L 3.195312 11 C 3.085938 11 3 10.910156 3 10.800781 L 3 10.601562 C 3 10.269531 3.25 10 3.558594 10 L 9.441406 10 C 9.75 10 10 10.269531 10 10.601562 L 10 10.800781 C 10 10.910156 9.914062 10.996094 9.804688 11 Z M 9.804688 11 "/>
<path style=" stroke:none;fill-rule:nonzero;fill:rgb(100%,100%,100%);fill-opacity:1;" d="M 9.476562 8.683594 C 9.425781 8.457031 9.113281 7.996094 8.800781 7.996094 C 8.707031 7.996094 8.523438 8.046875 8.523438 8.046875 L 6.445312 9.066406 C 6.445312 9.066406 6.148438 9.375 6 9.5 L 9.308594 9.5 C 9.558594 9.5 9.523438 8.914062 9.472656 8.683594 Z M 9.476562 8.683594 "/>
<path style=" stroke:none;fill-rule:nonzero;fill:rgb(100%,100%,100%);fill-opacity:1;" d="M 3.625 3.371094 L 4.234375 4.84375 C 4.136719 4.988281 4.105469 5.179688 4.175781 5.359375 L 4.40625 6 C 3.863281 6 3.378906 6.238281 3.039062 6.613281 L 2.753906 5.933594 C 2.371094 4.980469 2.742188 3.890625 3.625 3.371094 Z M 3.625 3.371094 "/>
</g>

</g>%n%n</svg>