<svg width="300" height="35" viewBox="0 0 300 35" fill="none" xmlns="http://www.w3.org/2000/svg">

<g transform="translate(135.000000, 2.000000) scale(1.500000 1.500000) "> 

<g clip-path="url(#clip0)">
<path opacity="0.953" d="M9.99934 0C15.514 0 20 4.44646 20 10C20 15.5172 15.514 20 9.99934 20C4.48599 20 0 15.5172 0 10C0 4.44646 4.48599 0 9.99934 0V0Z" fill="#878787"/>
<path opacity="0.95" fill-rule="evenodd" clip-rule="evenodd" d="M10 19C14.9706 19 19 14.9706 19 10C19 5.02944 14.9706 1 10 1C5.02944 1 1 5.02944 1 10C1 14.9706 5.02944 19 10 19ZM10 20C15.5228 20 20 15.5228 20 10C20 4.47715 15.5228 0 10 0C4.47715 0 0 4.47715 0 10C0 15.5228 4.47715 20 10 20Z" fill="#404040"/>
</g>
<defs>
<clipPath id="clip0">
<path d="M0 0H20V20H0V0Z" fill="white"/>
</clipPath>
</defs>

</g>


<g transform="translate(141.000000, 8.000000) scale(0.375000 0.375000) "> 

<path d="M12 16H20V20H12V16Z" fill="#ffffff"/>
<path d="M12 24H20V28H12V24Z" fill="#ffffff"/>
<path d="M12 32H20V36H12V32Z" fill="#ffffff"/>
<path fill-rule="evenodd" clip100-rule="evenodd" d="M28 8H4V44H44V40H28V8ZM24 40V12H8V40H24Z" fill="#ffffff"/>
<path opacity="0.5" d="M36 35.6586C36.6256 35.8797 37.2987 36 38 36C38.7013 36 39.3744 35.8797 40 35.6586V40H36V35.6586Z" fill="#ffffff"/>
<path opacity="0.8" d="M38 16C35.7909 16 34 17.7909 34 20V23.5278C32.7725 24.6264 32 26.223 32 28V30C32 33.3137 34.6863 36 38 36C41.3137 36 44 33.3137 44 30V28C44 26.223 43.2275 24.6264 42 23.5278V20C42 17.7909 40.2091 16 38 16Z" fill="#ffffff"/>

</g>

</svg>