<svg width="300" height="40" viewBox="0 0 300 40" fill="none" xmlns="http://www.w3.org/2000/svg" xmlns:xlink="http://www.w3.org/1999/xlink" version="1.1">

<g transform="translate(130.000000, 0.000000) scale(2.000000 2.000000) "> 

<g clip-path="url(#clip0)">
<path opacity="0.953" d="M9.99934 0C15.514 0 20 4.44646 20 10C20 15.5172 15.514 20 9.99934 20C4.48599 20 0 15.5172 0 10C0 4.44646 4.48599 0 9.99934 0V0Z" fill="#878787"/>
<path opacity="0.95" fill-rule="evenodd" clip-rule="evenodd" d="M10 19C14.9706 19 19 14.9706 19 10C19 5.02944 14.9706 1 10 1C5.02944 1 1 5.02944 1 10C1 14.9706 5.02944 19 10 19ZM10 20C15.5228 20 20 15.5228 20 10C20 4.47715 15.5228 0 10 0C4.47715 0 0 4.47715 0 10C0 15.5228 4.47715 20 10 20Z" fill="#404040"/>
</g>
<defs>
<clipPath id="clip0">
<path d="M0 0H20V20H0V0Z" fill="white"/>
</clipPath>
</defs>

</g>%n%n
<g transform="translate(138.000000, 8.000000) scale(2.000000 2.000000) "> 

<g id="surface1">
<path style=" stroke:none;fill-rule:nonzero;fill:rgb(100%,100%,100%);fill-opacity:1;" d="M 2.964844 6.382812 C 2.652344 6.382812 2.382812 6.574219 2.265625 6.84375 L 2.207031 7.574219 L 2.207031 8.378906 C 2.207031 8.476562 2.226562 8.566406 2.257812 8.652344 L 0.621094 8.652344 L 0.621094 11.351562 L 1.132812 11.351562 L 1.132812 9.429688 L 6.390625 9.429688 L 6.390625 11.351562 L 6.902344 11.351562 L 6.902344 8.652344 L 5.265625 8.652344 C 5.300781 8.566406 5.320312 8.476562 5.320312 8.378906 L 5.320312 7.574219 L 5.257812 6.84375 C 5.144531 6.574219 4.875 6.382812 4.558594 6.382812 Z M 2.804688 7.398438 L 2.984375 7.398438 L 2.984375 8.652344 L 2.804688 8.652344 Z M 4.539062 7.398438 L 4.71875 7.398438 L 4.71875 8.652344 L 4.539062 8.652344 Z M 4.539062 7.398438 "/>
<path style=" stroke:none;fill-rule:nonzero;fill:rgb(100%,100%,100%);fill-opacity:1;" d="M 3.761719 4.203125 C 3.25 4.203125 2.835938 4.621094 2.835938 5.132812 C 2.835938 5.644531 3.25 6.058594 3.761719 6.058594 C 4.273438 6.058594 4.691406 5.644531 4.691406 5.132812 C 4.691406 4.621094 4.273438 4.203125 3.761719 4.203125 Z M 3.761719 4.203125 "/>
<path style=" stroke:none;fill-rule:nonzero;fill:rgb(100%,100%,100%);fill-opacity:1;" d="M 5.070312 2.300781 C 4.933594 2.195312 4.796875 1.996094 4.816406 1.625 C 5.03125 1.535156 5.179688 1.320312 5.179688 1.074219 C 5.179688 0.738281 4.910156 0.46875 4.574219 0.46875 C 4.242188 0.46875 3.972656 0.738281 3.972656 1.074219 C 3.972656 1.320312 4.121094 1.535156 4.332031 1.625 C 4.351562 1.996094 4.214844 2.195312 4.082031 2.300781 L 2.878906 2.300781 L 3 2.800781 L 6.167969 2.800781 L 6.273438 2.300781 Z M 5.070312 2.300781 "/>
<path style=" stroke:none;fill-rule:nonzero;fill:rgb(100%,100%,100%);fill-opacity:1;" d="M 6.96875 0.667969 L 6.96875 7.15625 L 11.296875 7.15625 L 11.296875 0.667969 Z M 7.648438 1.265625 L 10.691406 1.265625 L 10.691406 1.679688 L 7.648438 1.679688 Z M 7.648438 2.21875 L 10.691406 2.21875 L 10.691406 2.628906 L 7.648438 2.628906 Z M 7.648438 3.167969 L 10.691406 3.167969 L 10.691406 3.582031 L 7.648438 3.582031 Z M 7.648438 4.117188 L 10.691406 4.117188 L 10.691406 4.53125 L 7.648438 4.53125 Z M 7.648438 5.070312 L 10.691406 5.070312 L 10.691406 5.484375 L 7.648438 5.484375 Z M 7.648438 6.019531 L 10.691406 6.019531 L 10.691406 6.433594 L 7.648438 6.433594 Z M 7.648438 6.019531 "/>
</g>

</g>%n%n</svg>