<svg width="300" height="40" viewBox="0 0 300 40" fill="none" xmlns="http://www.w3.org/2000/svg" xmlns:xlink="http://www.w3.org/1999/xlink">

<g transform="translate(130.000000, 0.000000) scale(2.000000 2.000000) "> 

<g clip-path="url(#clip0)">
<path opacity="0.953" d="M9.99934 0C15.514 0 20 4.44646 20 10C20 15.5172 15.514 20 9.99934 20C4.48599 20 0 15.5172 0 10C0 4.44646 4.48599 0 9.99934 0V0Z" fill="#878787"/>
<path opacity="0.95" fill-rule="evenodd" clip-rule="evenodd" d="M10 19C14.9706 19 19 14.9706 19 10C19 5.02944 14.9706 1 10 1C5.02944 1 1 5.02944 1 10C1 14.9706 5.02944 19 10 19ZM10 20C15.5228 20 20 15.5228 20 10C20 4.47715 15.5228 0 10 0C4.47715 0 0 4.47715 0 10C0 15.5228 4.47715 20 10 20Z" fill="#404040"/>
</g>
<defs>
<clipPath id="clip0">
<path d="M0 0H20V20H0V0Z" fill="white"/>
</clipPath>
</defs>

</g>%n%n
<g transform="translate(138.000000, 8.000000) scale(0.750000 0.750000) "> 

<path fill-rule="nonzero" fill="rgb(100%, 100%, 100%)" fill-opacity="1" d="M 8.382812 16.898438 C 7.546875 16.898438 6.832031 17.410156 6.523438 18.132812 L 6.363281 20.082031 L 6.363281 22.21875 C 6.363281 22.480469 6.414062 22.726562 6.503906 22.957031 L 2.136719 22.957031 L 2.136719 30.148438 L 3.503906 30.148438 L 3.503906 25.027344 L 17.519531 25.027344 L 17.519531 30.148438 L 18.886719 30.148438 L 18.886719 22.957031 L 14.523438 22.957031 C 14.613281 22.726562 14.660156 22.480469 14.660156 22.21875 L 14.660156 20.082031 L 14.5 18.132812 C 14.195312 17.410156 13.476562 16.898438 12.640625 16.898438 Z M 7.960938 19.613281 L 8.4375 19.613281 L 8.4375 22.957031 L 7.960938 22.957031 Z M 12.585938 19.613281 L 13.066406 19.613281 L 13.066406 22.957031 L 12.585938 22.957031 Z M 12.585938 19.613281 "/>
<path fill-rule="nonzero" fill="rgb(100%, 100%, 100%)" fill-opacity="1" d="M 10.511719 11.09375 C 9.144531 11.09375 8.039062 12.199219 8.039062 13.566406 C 8.039062 14.933594 9.144531 16.039062 10.511719 16.039062 C 11.878906 16.039062 12.984375 14.933594 12.984375 13.566406 C 12.984375 12.199219 11.878906 11.09375 10.511719 11.09375 Z M 10.511719 11.09375 "/>
<path fill-rule="nonzero" fill="rgb(100%, 100%, 100%)" fill-opacity="1" d="M 30.859375 16.894531 L 30.882812 16.894531 L 30.511719 16.242188 L 24.050781 3.984375 L 25.261719 1.699219 L 24.472656 1.28125 L 23.546875 3.027344 L 22.582031 1.199219 L 21.792969 1.617188 L 23.015625 3.9375 C 22.488281 5.027344 18.886719 11.761719 16.464844 16.265625 L 16.109375 16.925781 L 19.3125 16.917969 L 20.105469 16.925781 L 20.109375 16.917969 L 26.996094 16.90625 L 27.003906 16.925781 L 30.125 16.902344 L 30.863281 16.902344 Z M 23.554688 8.957031 C 24.292969 11.4375 25.84375 14.640625 26.535156 16.015625 L 20.570312 16.023438 C 21.261719 14.65625 22.816406 11.441406 23.554688 8.957031 Z M 23.554688 8.957031 "/>

</g>%n%n</svg>