<svg width="300" height="35" viewBox="0 0 300 35" fill="none" xmlns="http://www.w3.org/2000/svg">

<g transform="translate(135.000000, 2.000000) scale(1.500000 1.500000) "> 

<g clip-path="url(#clip0)">
<path opacity="0.953" d="M9.99934 0C15.514 0 20 4.44646 20 10C20 15.5172 15.514 20 9.99934 20C4.48599 20 0 15.5172 0 10C0 4.44646 4.48599 0 9.99934 0V0Z" fill="#878787"/>
<path opacity="0.95" fill-rule="evenodd" clip-rule="evenodd" d="M10 19C14.9706 19 19 14.9706 19 10C19 5.02944 14.9706 1 10 1C5.02944 1 1 5.02944 1 10C1 14.9706 5.02944 19 10 19ZM10 20C15.5228 20 20 15.5228 20 10C20 4.47715 15.5228 0 10 0C4.47715 0 0 4.47715 0 10C0 15.5228 4.47715 20 10 20Z" fill="#404040"/>
</g>
<defs>
<clipPath id="clip0">
<path d="M0 0H20V20H0V0Z" fill="white"/>
</clipPath>
</defs>

</g>


<g transform="translate(141.000000, 8.000000) scale(0.031034 0.031034) "> 

<path d="M143.291 308.486C128.128 308.486 115.116 317.699 109.547 330.834L106.654 366.148V404.904C106.654 409.619 107.552 414.119 109.174 418.26H30.0409V445.049V455.766V548.641H54.8199V455.766H308.895V548.641H333.67V455.766H333.672V418.26H254.539C256.161 414.119 257.059 409.618 257.059 404.904V366.15L254.166 330.832C248.597 317.7 235.585 308.486 220.422 308.486H143.291H143.291ZM135.578 357.66H144.256V418.26H135.578V357.66ZM219.457 357.66H228.135V418.26H219.457V357.66Z" fill="#ffffff"/>
<path d="M181.857 203.242C157.097 203.242 137.023 223.313 137.023 248.074C137.023 272.835 157.097 292.906 181.857 292.906C206.618 292.906 226.689 272.835 226.689 248.074C226.689 223.313 206.618 203.242 181.857 203.242Z" fill="#ffffff"/>
<path d="M245.031 111.205C238.525 106.087 231.912 96.464 232.816 78.6288C243.119 74.1183 250.321 63.8393 250.321 51.872C250.321 35.7449 237.247 22.6716 221.12 22.6716C204.994 22.6716 191.918 35.7449 191.918 51.872C191.918 63.8383 199.121 74.1183 209.425 78.6288C210.328 96.464 203.716 106.087 197.21 111.205H139.111L145.019 135.434H298.154L303.131 111.205H245.031Z" fill="#ffffff"/>
<path d="M336.809 32.1909V345.833H545.983V313.078V32.1909H369.565H336.809ZM369.612 61.187H516.69V81.187H369.612V61.187ZM369.612 107.15H516.69V127.15H369.612V107.15ZM369.612 153.111H516.69V173.111H369.612V153.111ZM369.612 199.074H516.69V219.074H369.612V199.074ZM369.612 245.035H516.69V265.035H369.612V245.035ZM369.612 290.998H516.69V310.998H369.612V290.998Z" fill="#ffffff"/>

</g>

</svg>