<svg width="300" height="35" viewBox="0 0 300 35" fill="none" xmlns="http://www.w3.org/2000/svg" >

<g transform="translate(135.000000, 2.000000) scale(1.500000 1.500000) "> 

<g clip-path="url(#clip0)">
<path opacity="0.953" d="M9.99934 0C15.514 0 20 4.44646 20 10C20 15.5172 15.514 20 9.99934 20C4.48599 20 0 15.5172 0 10C0 4.44646 4.48599 0 9.99934 0V0Z" fill="#878787"/>
<path opacity="0.95" fill-rule="evenodd" clip-rule="evenodd" d="M10 19C14.9706 19 19 14.9706 19 10C19 5.02944 14.9706 1 10 1C5.02944 1 1 5.02944 1 10C1 14.9706 5.02944 19 10 19ZM10 20C15.5228 20 20 15.5228 20 10C20 4.47715 15.5228 0 10 0C4.47715 0 0 4.47715 0 10C0 15.5228 4.47715 20 10 20Z" fill="#404040"/>
</g>
<defs>
<clipPath id="clip0">
<path d="M0 0H20V20H0V0Z" fill="white"/>
</clipPath>
</defs>

</g>


<g transform="translate(141.000000, 8.000000) scale(0.375000 0.375000) "> 

<path opacity="0.5" d="M16.0001 26.6667L12.0001 40H8.00012L14.0001 20L16.0001 26.6667Z" fill="#ffffff"/>
<path d="M24 8H8V20H14L20 40H24L18 20H24V16H28V12H24V8Z" fill="#ffffff"/>
<path d="M32 8V12H36V16H32V20H36V24H32V28H36V32H32V36H36V40H40V8H32Z" fill="#ffffff"/>
<path opacity="0.2" d="M16 26.6665L18 33.3332V39.9998H14V33.3332L16 26.6665Z" fill="#ffffff"/>

</g>

</svg>