<svg xmlns="http://www.w3.org/2000/svg" width="24" height="24" viewBox="0 0 24 24">
<g opacity=".5">
    <path d="M14 5a1 1 0 0 1 1-1h1a1 1 0 1 1 0 2h-1a1 1 0 0 1-1-1Z"/>
    <path d="M12 7a1 1 0 0 1 1 1v1a1 1 0 1 1-2 0V8a1 1 0 0 1 1-1Z"/>
    <path d="M20 8a1 1 0 1 0-2 0v1a1 1 0 1 0 2 0V8Z"/>
    <path fill-rule="evenodd" d="M19 12a1 1 0 0 1 1 1v1.17a3.001 3.001 0 1 1-2 0V13a1 1 0 0 1 1-1Zm0 6a1 1 0 1 0 0-2 1 1 0 0 0 0 2Z" clip-rule="evenodd"/></g><path d="M4 4h5v4H6v3H4V4Z"/>
<path d="M13 15.5a4.5 4.5 0 1 1-9 0V14a1 1 0 1 1 2 0v1.5a2.5 2.5 0 0 0 5 0V13a1 1 0 1 1 2 0v2.5Z"/>
</svg>