<?xml version="1.0" standalone="yes"?>
<svg xmlns="http://www.w3.org/2000/svg" width="335" height="335">
<path style="fill:#040504; stroke:none;" d="M0 0L0 335L335 335L335 0L0 0z"/>
<path style="fill:#d6eac7; stroke:none;" d="M116 7L119 24L170 17L170 7L116 7z"/>
<path style="fill:#3d50ab; stroke:none;" d="M170 7L170 11L171 11L170 7z"/>
<path style="fill:#9ccb74; stroke:none;" d="M171 7L170 17L164 17L164 18L173 19L173 15L172 15L170 18L171 7z"/>
<path style="fill:#d6eac7; stroke:none;" d="M172 7L173 19L120 26L129 80L128 80L124 59L116 59L118 53L122 58L123 58C122.999 50.4896 123.581 31.764 114 31L116 27L116 26L91 29L92 33L85 33L88 20C77.3743 23.3637 67.5331 31.8615 59 38.804C54.7952 42.225 50.732 45.2418 52 51C44.8276 51.2327 36.8234 57.3813 37 65C30.7422 66.8406 24.9801 75.5548 25 82C21.0794 81.3676 19.4743 87.7181 17.8333 91C13.9408 98.7851 9.25913 107.334 7.33333 116C6.94074 117.767 7.53676 122.365 9 119L10 119L12 120L13 121L13 124C6.63594 124.496 7.00423 128.528 7 134C12.0626 134.014 21.4041 137.115 25 133L67 151.08L85 157C87.2441 160.904 91.9644 162.85 96 164.588C104.87 168.409 118.784 179.715 128 174L128 173L124 173L124 168L127 166L128 166L133 172L128 178L128 179C139.627 177.252 149.066 182.224 157 171L153 171L155 164L149 162L149 161L159 164L159 165L156 165L156 166L158 169C160.541 168.245 163.042 166.49 159 166L159 165L196 155L196 150L198 151L198 148L199 148L199 151L201 150L202 154L197 154L197 155L218 153L218 152L185 138C185 141.102 181.633 140 179 140L180 135L173 133L173 139L171 139L168 130L163 140L161 140L160 139C161.28 135.924 164.577 131.525 164.006 128.093C163.276 123.702 150.984 115.768 147 114L151 108L152 108L154 110L155 114L151 114L151 115L155 116L161.09 83L161 71L161 68C170.517 61.23 169.185 35.8342 171.756 25.1844C173.277 18.8846 177.973 13.9562 179 7L172 7z"/>
<path style="fill:#9ccb74; stroke:none;" d="M179 7C175.911 20.3505 165.348 34.5063 169 49L168 54L161 68L161 71L161.039 83L155 116L151 115L151 114L155 114L152 108L151 108L147 114L166 128L171 123L170 120C177.93 122.092 182.159 120.806 179 112L184 111L181 106L180 106L179 106L177 108L175 67C178.506 66.4191 177.836 59.8408 177 57L178 53L183.003 37L193 7L187 7L187 12L183 11L185 7L179 7z"/>
<path style="fill:#d6eac7; stroke:none;" d="M177 108L179 106L180 106L181 106L184 111L179 112C181.006 120.835 178.001 121.327 170 120L173.738 130.581L187 137.219L224 152L226 146L227 146L227 149L238 151L261 141.167L302 120L302 119C294.925 120.121 289.336 117.503 284 113C294.659 118.607 310.522 121.565 317 108L319 110L324 107C323.525 105.192 322.676 101.531 321 104L320 104C321.121 83.7777 306.333 73.1495 288 78L288 77L292 76L292 75L288 75L291 69L292 69L295 75L308 76C303.753 67.0225 299.441 63.821 290 62L290 61L298 62L278 41L281 53C277.892 48.4337 278.094 42.2599 274.682 38.1705C262.106 23.0982 230.655 7.03156 211 7C206.166 6.99225 198.708 5.61197 194.225 7.60339C188.627 10.0896 185.632 25.4619 184.155 31C178.1 53.7067 167.994 85.2076 177 108M103 12L103 15L106 19L100 19L102 13C93.6191 15.8538 90.007 17.8831 90 27L117 24L114 8L103 12z"/>
<path style="fill:#9ccb74; stroke:none;" d="M114 8L117 24L112 24L112 25L117 25L117 26L114 27L114 31C123.176 32.4977 122.995 50.4759 123 58L122 58L118 53L116 59L124 59L128 80L129 80L120 26L129 25L129 24L121 23L122 25L117 25L117 24C121.038 20.4536 117.741 10.9206 114 8z"/>
<path style="fill:#3d50ab; stroke:none;" d="M184 8L185 9L184 8z"/>
<path style="fill:#9ccb74; stroke:none;" d="M159 9L157 15L163 14L162 10L159 9z"/>
<path style="fill:#3d50ab; stroke:none;" d="M183 9L183 11L185 11L183 9M209.667 9.33334L210.333 9.66666L209.667 9.33334z"/>
<path style="fill:#9ccb74; stroke:none;" d="M211 9L211 10C213.607 11.5642 213.35 12.5874 211 12L211 17L210 17L210 10L209 10L207 24L213 24L215 9L211 9z"/>
<path style="fill:#d6eac7; stroke:none;" d="M210 10L210 17L211 17L211 12L213 10L210 10z"/>
<path style="fill:#9ccb74; stroke:none;" d="M130 11L128 13L128 17L135 16L134 12L132 11L130 11M100 13L101 14L100 13M102 13L100 19L106 19L102 13z"/>
<path style="fill:#3d50ab; stroke:none;" d="M171 13L170 18L171 13M213.333 13.6667L213.667 14.3333L213.333 13.6667M208.333 16.6667L208.667 17.3333L208.333 16.6667z"/>
<path style="fill:#d6eac7; stroke:none;" d="M211 17L210 19L212 19L211 17z"/>
<path style="fill:#9ccb74; stroke:none;" d="M230 17L228 23L234 22L233 18L230 17M157 18L157 19L165 20L157 18z"/>
<path style="fill:#3d50ab; stroke:none;" d="M163 18L163 19L168 19L163 18M88 19L88 29L94 29L94 28L89 28L88 19z"/>
<path style="fill:#9ccb74; stroke:none;" d="M89 19L89 28L98 29L98 28L90 27L89 19M149 19L149 20L158 21L149 19z"/>
<path style="fill:#3d50ab; stroke:none;" d="M155 19L155 20L160 20L155 19z"/>
<path style="fill:#9ccb74; stroke:none;" d="M144 20L144 21L150 22L144 20z"/>
<path style="fill:#3d50ab; stroke:none;" d="M148 20L148 21L153 21L148 20M212 20L213 21L212 20z"/>
<path style="fill:#9ccb74; stroke:none;" d="M136 21L136 22L142 23L136 21z"/>
<path style="fill:#3d50ab; stroke:none;" d="M140 21L140 22L145 22L140 21z"/>
<path style="fill:#9ccb74; stroke:none;" d="M128 22L128 23L136 24L128 22z"/>
<path style="fill:#3d50ab; stroke:none;" d="M132 22L132 23L137 23L132 22M125 23L125 24L131 24L125 23z"/>
<path style="fill:#9ccb74; stroke:none;" d="M144 23L142 29L149 29L148 24L144 23z"/>
<path style="fill:#3d50ab; stroke:none;" d="M208 23L208 24L212 24L208 23M117 24L117 25L122 25L117 24z"/>
<path style="fill:#9ccb74; stroke:none;" d="M105 25L105 26L114 27L105 25z"/>
<path style="fill:#3d50ab; stroke:none;" d="M110 25L110 26L117 26L110 25M173.333 25.6667L173.667 26.3333L173.333 25.6667z"/>
<path style="fill:#9ccb74; stroke:none;" d="M97 26L97 27L106 28L97 26z"/>
<path style="fill:#3d50ab; stroke:none;" d="M102 26L102 27L108 27L102 26M176 30L177 30L178 30L180 27L176 30M95 27L95 28L101 28L95 27z"/>
<path style="fill:#040504; stroke:none;" d="M177 28L177 29L180 30L180 27L177 28z"/>
<path style="fill:#9ccb74; stroke:none;" d="M210 28C208.86 42.4459 208.566 55.9738 211.899 70C214.031 78.9698 219.917 86.8041 220 96L234 104L234 108C240.796 107.544 242.986 110.715 249 112.856C261.863 117.435 276.212 125.399 290 126L290 125C275.056 123.175 246.434 114.071 237 102L236 102C230.875 104.693 226.04 94.9835 225 91C220.705 91.1534 216.151 80.7316 215.167 77C213.172 69.4394 214.224 63.2321 213 56C212.407 52.4983 209.393 50.0687 209.167 46C208.888 40.9913 212.872 31.9497 210 28M86 29L85 33L92 33L86 29z"/>
<path style="fill:#3d50ab; stroke:none;" d="M179 30L180 31L179 30z"/>
<path style="fill:#9ccb74; stroke:none;" d="M246 31L244 33L244 37L250 37L250 33L249 32L246 31M218 33L215 39L222 39L218 33M189 35L187 41L193 41L191 35L189 35M161 37L158 43L165 43L161 37M132 39L130 45L137 45L134 39L132 39M277 40L280 53L281 53L277 40M104 41L102 47L108 47L104 41M76 43L73 49L80 49L79 45L77 46L76 43M260 43L258 49L264 49L262 43L260 43z"/>
<path style="fill:#3d50ab; stroke:none;" d="M174 45L172 48L174 45z"/>
<path style="fill:#9ccb74; stroke:none;" d="M232 45L230 47L229 50L229 51L236 51L232 45z"/>
<path style="fill:#040504; stroke:none;" d="M174 46L172 49L176 50L174 46z"/>
<path style="fill:#9ccb74; stroke:none;" d="M50 47L47 51L52 51L50 47z"/>
<path style="fill:#3d50ab; stroke:none;" d="M175 47L176 48L175 47z"/>
<path style="fill:#9ccb74; stroke:none;" d="M203 47L201 53L208 52L205 47L203 47z"/>
<path style="fill:#3d50ab; stroke:none;" d="M168 48L169 49L168 48M174 49L175 50L174 49z"/>
<path style="fill:#9ccb74; stroke:none;" d="M147 51L144 57L151 57L147 51z"/>
<path style="fill:#3d50ab; stroke:none;" d="M167 53L168 54L167 53z"/>
<path style="fill:#d6eac7; stroke:none;" d="M174 53L175 54L174 53z"/>
<path style="fill:#3d50ab; stroke:none;" d="M178 53L179 54L178 53z"/>
<path style="fill:#9ccb74; stroke:none;" d="M281 53L290 61L290 60L281 53M90 55L88 61L94 61L93 57L91 58L90 55z"/>
<path style="fill:#3d50ab; stroke:none;" d="M177 57L178 58L177 57z"/>
<path style="fill:#9ccb74; stroke:none;" d="M277 57L274 63L281 63L277 57M62 58L60 59L59 63L60 64L66 63L65 59L62 58z"/>
<path style="fill:#3d50ab; stroke:none;" d="M166 58L167 59L166 58z"/>
<path style="fill:#9ccb74; stroke:none;" d="M248 59L246 65L252 65L248 59M220 61L217 67L224 67L223 63L221 64L220 61M290 61L290 62L299 63L299 62L290 61M192 63L189 69L196 69L192 63M35.6667 64.3333L36.3333 64.6667L35.6667 64.3333z"/>
<path style="fill:#3d50ab; stroke:none;" d="M170 64L171 65L170 64z"/>
<path style="fill:#040504; stroke:none;" d="M170 65L168 69L172 69L170 65z"/>
<path style="fill:#3d50ab; stroke:none;" d="M171.333 66.6667L171.667 67.3333L171.333 66.6667M175.333 67.6667L175.667 68.3333L175.333 67.6667z"/>
<path style="fill:#9ccb74; stroke:none;" d="M134 68L132 73L139 73L138 69L136 68L134 68z"/>
<path style="fill:#3d50ab; stroke:none;" d="M169 68L170 69L169 68M171 69L172 70L171 69z"/>
<path style="fill:#9ccb74; stroke:none;" d="M291 69L288 75L292 75L292 76L288 77L288 78L309 78C305.863 73.8747 299.708 74.2232 295 75L291 69M106 70L104 72L104 76L111 75L106 70M262 71L260 77L267 77L262 71M78 72L76 78L82 77L81 73L78 72M234 73L231 78L231 79L238 79L238 76L237 75L234 73M50 74L47 80L54 79L53 75L50 74M28 75C31.9503 84.8711 48.4136 93.6088 57 99.6196C74.9274 112.169 89.4283 129.147 108.424 140.316C116.902 145.3 134.027 150.238 139 159L144 159L135 171L136 171L146 159L146 158L144 154L142 153C135.533 155.727 127.746 148.683 122 146L122 145L129 144L128 140L124 139L122 145L90 125.471L28 75M205 76L203 81L210 81L209 77L207 76L205 76M177 78L175 84L182 83L177 78M284 113C277.773 99.6587 275.573 89.874 288 79C271.754 78.6564 275.568 106.379 284 113M24.3333 80.6667L24.6667 81.3333L24.3333 80.6667M129 80L130 81L129 80z"/>
<path style="fill:#3d50ab; stroke:none;" d="M130 80L129 83L128 81L127 81L132 85L133 89L134 89L132 80L130 80z"/>
<path style="fill:#9ccb74; stroke:none;" d="M132 80L133 81L132 80M149 80L147 86L153 85L152 81L149 80M126 81L127 82L126 81M133.333 81.6667L133.667 82.3333L133.333 81.6667M120 82L118 88L125 87L122 82L120 82M128 82L129 83L128 82M130 82L131 83L130 82z"/>
<path style="fill:#d6eac7; stroke:none;" d="M131 82L132 83L131 82z"/>
<path style="fill:#040504; stroke:none;" d="M130 83L131 84L130 83z"/>
<path style="fill:#9ccb74; stroke:none;" d="M92 84L90 90L96 89L95 85L94 85L94 87L93 87L92 84M132 84L133 85L132 84z"/>
<path style="fill:#3d50ab; stroke:none;" d="M167 84L169 86L167 84z"/>
<path style="fill:#9ccb74; stroke:none;" d="M133 85L134 86L133 85z"/>
<path style="fill:#040504; stroke:none;" d="M167 85L166 89C168.183 87.5806 168.643 87.0791 167 85z"/>
<path style="fill:#9ccb74; stroke:none;" d="M64 86L61 92L68 91L64 86M127.667 86.3333L128.333 86.6667L127.667 86.3333z"/>
<path style="fill:#3d50ab; stroke:none;" d="M166 86L167 87L166 86M127 87L128 88L127 87z"/>
<path style="fill:#040504; stroke:none;" d="M128.667 87.3333L129.333 87.6667L128.667 87.3333z"/>
<path style="fill:#3d50ab; stroke:none;" d="M130.333 87.6667L130.667 88.3333L130.333 87.6667z"/>
<path style="fill:#9ccb74; stroke:none;" d="M131 87L132 88L131 87z"/>
<path style="fill:#3d50ab; stroke:none;" d="M169 87L167 88L167 89L169 87z"/>
<path style="fill:#9ccb74; stroke:none;" d="M35 88L33 94L39 94L37 88L35 88z"/>
<path style="fill:#d6eac7; stroke:none;" d="M65 88L66 89L65 88z"/>
<path style="fill:#9ccb74; stroke:none;" d="M129 88L130 89L129 88z"/>
<path style="fill:#040504; stroke:none;" d="M131.667 88.3333L132.333 88.6667L131.667 88.3333z"/>
<path style="fill:#3d50ab; stroke:none;" d="M165 88L166 89L165 88z"/>
<path style="fill:#9ccb74; stroke:none;" d="M250 88L248 94L255 93L250 88M298 88L298 96L299 96L298 88z"/>
<path style="fill:#3d50ab; stroke:none;" d="M299 88L299 96L291 96L291 97L299 98L299 106L300 106L300 98L308 98L308 97L300 96L299 88z"/>
<path style="fill:#9ccb74; stroke:none;" d="M131 89L131 90L134 102L147 113L139 103L138 96L137 96L136 98C134.834 94.1963 135.111 90.4493 131 89M129 90L130 91L129 90z"/>
<path style="fill:#3d50ab; stroke:none;" d="M130 90L133 92L133 93L128 93L128 94C131.795 94.8876 133.156 93.9455 133 90L130 90M128 91L129 92L128 91z"/>
<path style="fill:#040504; stroke:none;" d="M129 91L128 93L129 91M133 91L134 92L133 91z"/>
<path style="fill:#d6eac7; stroke:none;" d="M167 91L156 120L167.576 116.275L179 120C176.61 111.261 173 97.8004 167 91z"/>
<path style="fill:#9ccb74; stroke:none;" d="M129 92L130 93L129 92z"/>
<path style="fill:#d6eac7; stroke:none;" d="M130 92L130 93L133 93L130 92z"/>
<path style="fill:#9ccb74; stroke:none;" d="M193 92L191 98L198 97L195 92L193 92z"/>
<path style="fill:#040504; stroke:none;" d="M133 93L134 94L133 93z"/>
<path style="fill:#9ccb74; stroke:none;" d="M128 94L129 95L128 94M167 95L168 96L167 95z"/>
<path style="fill:#e03c22; stroke:none;" d="M167 96L159 117C166.05 114.99 168.95 114.99 176 117L167 96z"/>
<path style="fill:#9ccb74; stroke:none;" d="M290 96L290 98L292 98L290 96M307 96L308 97L307 96M166 97L167 98L166 97M108 98L106 104L113 103L110 98L108 98z"/>
<path style="fill:#3d50ab; stroke:none;" d="M162.333 98.6667L162.667 99.3333L162.333 98.6667z"/>
<path style="fill:#e03c22; stroke:none;" d="M163 98L164 99L163 98z"/>
<path style="fill:#9ccb74; stroke:none;" d="M298 98L298 106L299 106L298 98M163.333 99.6667L163.667 100.333L163.333 99.6667M169 99L170 100L169 99z"/>
<path style="fill:#3d50ab; stroke:none;" d="M172 99L173 100L172 99z"/>
<path style="fill:#9ccb74; stroke:none;" d="M320 99L320 104L321 104L320 99M80 100L78 106L84 106L80 100z"/>
<path style="fill:#e03c22; stroke:none;" d="M162.333 100.667L162.667 101.333L162.333 100.667M172.333 100.667L172.667 101.333L172.333 100.667z"/>
<path style="fill:#9ccb74; stroke:none;" d="M264 100L262 106L269 105L264 100M52 102L49 108L56 108L52 102M164 102L165 103L164 102M170 102L171 103L170 102z"/>
<path style="fill:#e03c22; stroke:none;" d="M173 103L174 104L173 103z"/>
<path style="fill:#9ccb74; stroke:none;" d="M23 104L21 106L21 110L27 110L23 104M171 104L172 105L171 104M208 104L205 110L212 109L208 104M319 104L318 108L319 108L319 104M172 107L173 108L172 107M317 108C307.522 121.139 296.688 117.617 284 113C288.317 118.172 295.413 120.664 302 119L302 120C283.071 127.472 264.391 138.893 246 147.833C241.276 150.13 228.094 154.479 227 146L226 146L224 152L194 139.684L173 129L172 129C173.285 133.107 175.901 134.255 180 135L179 140L185 138L218 152L218 153L197 155L197 154L202 154L201 150L199 151L199 148L198 148L198 151L196 150L196 155L159 165L159 166L162 166L158 169L156 166L156 165L159 165L159 164L149 161L149 162L155 164L153 171L157 171C146.754 181.21 140.387 176.145 128 179L129 177C116.007 186.355 86.5264 181.653 72 177L72 178L75 182L79 180L79 181L77 181L77 182L153.804 181.806L187 182L188 178L191 182L248 181C244.625 176.122 241.962 174.071 236 174L239 171C242.222 160.149 257.897 159 267 159L267 162L272 162C272.54 158.084 275.5 158.105 279 158C276.375 146.847 290.214 124.363 303 134C310.329 133.583 315.844 139.916 319 146L328 143C328 130.924 329.802 118.012 324 107L317 108M122 110L120 116L127 116L124 110L122 110M161 110L162 111L161 110z"/>
<path style="fill:#e03c22; stroke:none;" d="M158 111L159 112L158 111M176 111L177 112L176 111z"/>
<path style="fill:#9ccb74; stroke:none;" d="M94 112L92 114L92 118L99 118L94 112M174 112L175 113L174 112M66 114L64 116L63 120L70 120L69 116L67 117L66 114M165 114L166 115L165 114M169 114L170 115L169 114M281 114L278 120L285 119L281 114M159 115L160 116L159 115M163 115L164 116L163 115M167 115L168 116L167 115M171 115L172 116L171 115M175 115L176 116L175 115M161 116L162 117L161 116z"/>
<path style="fill:#e03c22; stroke:none;" d="M166 116L167 117L166 116z"/>
<path style="fill:#3d50ab; stroke:none;" d="M167 119L168 119L170 117C167.86 115.882 167.473 116.749 167 119z"/>
<path style="fill:#9ccb74; stroke:none;" d="M173 116L174 117L173 116z"/>
<path style="fill:#e03c22; stroke:none;" d="M178 116L179 117L178 116z"/>
<path style="fill:#9ccb74; stroke:none;" d="M252 116L250 122L257 121L254 116L252 116M37 117L35 123L42 122L37 117z"/>
<path style="fill:#e03c22; stroke:none;" d="M156 117L157 118L156 117z"/>
<path style="fill:#9ccb74; stroke:none;" d="M159 117L160 118L159 117z"/>
<path style="fill:#e03c22; stroke:none;" d="M164 117L165 118L164 117z"/>
<path style="fill:#040504; stroke:none;" d="M168 117L168 120L170 120L170 117L168 117z"/>
<path style="fill:#e03c22; stroke:none;" d="M170 117L171 118L170 117z"/>
<path style="fill:#9ccb74; stroke:none;" d="M175 117L176 118L175 117M224 118L221 124L228 124L224 118M9 119L7 120L7 125L13 124L13 121L12 120L9 119z"/>
<path style="fill:#d6eac7; stroke:none;" d="M160 121L166 125L168 120L167 119L160 121z"/>
<path style="fill:#9ccb74; stroke:none;" d="M167 119L168 120L167 119M196 120L193 126L200 126L196 120z"/>
<path style="fill:#3d50ab; stroke:none;" d="M168 122L169 123L168 122z"/>
<path style="fill:#040504; stroke:none;" d="M169 122L161 139L169 127L172 138L173 138L169 122z"/>
<path style="fill:#d6eac7; stroke:none;" d="M195 122L196 123L195 122z"/>
<path style="fill:#3d50ab; stroke:none;" d="M170.333 123.667L170.667 124.333L170.333 123.667z"/>
<path style="fill:#040504; stroke:none;" d="M317 123L315 127L320 125L317 123z"/>
<path style="fill:#3d50ab; stroke:none;" d="M318.667 123.333L319.333 123.667L318.667 123.333z"/>
<path style="fill:#9ccb74; stroke:none;" d="M139 124L137 126L137 130L143 130L142 126L140 127L139 124z"/>
<path style="fill:#3d50ab; stroke:none;" d="M167 124L168 125L167 124z"/>
<path style="fill:#9ccb74; stroke:none;" d="M171 124L171 127L172 127L171 124z"/>
<path style="fill:#3d50ab; stroke:none;" d="M316 124L317 125L316 124M315 125L316 126L315 125M319.333 125.667L319.667 126.333L319.333 125.667M166 126L167 127L166 126M314 126L315 127L314 126M317 126L318 127L317 126z"/>
<path style="fill:#9ccb74; stroke:none;" d="M110 127L108 132L115 132L110 127z"/>
<path style="fill:#3d50ab; stroke:none;" d="M168 127L169 130L170 130L168 127M171.333 127.667L171.667 128.333L171.333 127.667M315.667 127.333L316.333 127.667L315.667 127.333M165 128L166 129L165 128z"/>
<path style="fill:#9ccb74; stroke:none;" d="M168 128L167 131L168 128M267 128L264 134L271 134L267 128M82 129L80 135L87 134L87 133L85 130L82 129M164 129L165 130L164 129z"/>
<path style="fill:#3d50ab; stroke:none;" d="M167 129L168 130L167 129M164 130L165 131L164 130z"/>
<path style="fill:#9ccb74; stroke:none;" d="M169.333 130.667L169.667 131.333L169.333 130.667M238 130L236 136L242 136L240 130L238 130M54 131L51 136L58 136L57 132L54 131M163 131L164 132L163 131z"/>
<path style="fill:#3d50ab; stroke:none;" d="M166 131L167 132L166 131M163 132L164 133L163 132z"/>
<path style="fill:#9ccb74; stroke:none;" d="M166 132L167 133L166 132z"/>
<path style="fill:#3d50ab; stroke:none;" d="M172 132L172 135L173 135L172 132z"/>
<path style="fill:#9ccb74; stroke:none;" d="M210 132L207 138L214 138L210 132z"/>
<path style="fill:#d6eac7; stroke:none;" d="M279 158C275.319 158.044 272.222 157.775 272 162L267 162L267 159C255.316 159 245.979 160.345 238 170L253 171L253 174L243 174L248 181L164 181.078L7 182C7 192.62 2.1681 220.271 12 227C11.3005 232.668 16.542 246.929 22.213 249.397C29.5711 252.598 43.0072 250 51 250L119 250L119 251L22 251C29.4924 267.634 61.5231 270.879 67 252L69 252L71 257C73.4839 256.331 76.3962 254.902 79 255.541C83.537 256.654 90.5365 264.671 95 260L110.424 262.46L123 269.736L190 270L191 259L195 270L199 268L208 270L210 264L214 266L216 260L219 269L220 269L221 265L223 265L225 268L228 254L233 268L238 269L243 262L246 268L256 257L261 264L268 263L271 256L273 256L275 265L276 265L277 260L279 260L281 270C274.589 268.105 250.496 265.855 246 271L240 271C233.255 269.453 224.628 266.778 219 272C215.11 266.606 209.508 269.412 208 275L201 270L200 270L197 279L194 269C187.948 272.923 188.085 293.522 190 300C197.177 298.727 203.888 301.399 211 300.812C231.612 299.11 252.919 293.522 272 285.616C280.006 282.299 289.894 288.026 293 277C297.011 276.15 298.739 272.737 300 269L283 270L284 262L287 264C295.947 258.965 296.89 260.894 305 265C313.168 250.328 323.901 235.791 327.482 219C330.455 205.06 328 188.247 328 174L317 172L317 171L328 171L328 158L324 155L328 155L328 143L319 146C316.763 139.419 310.41 132.574 303 134C300.093 130.674 294.736 132.285 291 133.715C281.569 137.323 276.175 148.422 279 158z"/>
<path style="fill:#9ccb74; stroke:none;" d="M25 133L7 134L7 135C26.3182 136.525 47.7159 143.118 65 151.753C70.5425 154.522 80.0054 156.661 82 163L100 168L97 173L92 173L92 174L103 175L100 169L113 176L104 175L104 176C112.574 176.682 134.55 182.674 128 166L127 166L124 168L124 173L128 173L128 174C117.413 178.145 92.5792 165.051 85 157C76.3033 157.52 65.6743 150.057 58 146.248C50.7077 142.628 43.363 142.712 36.0008 140.03C31.7659 138.487 28.9437 134.958 25 133M162 133L163 134L162 133z"/>
<path style="fill:#3d50ab; stroke:none;" d="M165 133L166 134L165 133M170.333 133.667L170.667 134.333L170.333 133.667M162 134L163 135L162 134z"/>
<path style="fill:#9ccb74; stroke:none;" d="M165 134L166 135L165 134M300 134L301 135L300 134z"/>
<path style="fill:#d6eac7; stroke:none;" d="M7 135C7 141.424 3.98305 158.166 8.02778 163.262C10.6488 166.564 19.1207 166.574 23 167.424C37.1588 170.53 61.4475 176.052 75 169C76.0546 173.922 92.1643 173 97 173L100 168L82 163C80.8687 156.46 71.3509 154.426 66 151.753C48.715 143.117 26.4222 135.834 7 135z"/>
<path style="fill:#9ccb74; stroke:none;" d="M161 135L162 136L161 135z"/>
<path style="fill:#3d50ab; stroke:none;" d="M164 135L165 136L164 135z"/>
<path style="fill:#9ccb74; stroke:none;" d="M170 135L173 139L173 138L170 135M173 135L173 138L174 138L173 135M296.667 135.333L297.333 135.667L296.667 135.333M153 136L151 139L151 142L157 142L155 145L159 141L156 138L154 139L153 136z"/>
<path style="fill:#3d50ab; stroke:none;" d="M161 136L162 137L161 136z"/>
<path style="fill:#9ccb74; stroke:none;" d="M164 136L165 137L164 136M160.333 137.667L160.667 138.333L160.333 137.667z"/>
<path style="fill:#3d50ab; stroke:none;" d="M163 137L162 139L163 137M171 137L172 138L171 137z"/>
<path style="fill:#9ccb74; stroke:none;" d="M289 137L290 138L289 137M163 138L164 139L163 138M161.667 139.333L162.333 139.667L161.667 139.333M96 141L94 147L101 146L96 141M172 141L171 149L172 149L172 142L174 142L174 147L175 147L174 141L172 141z"/>
<path style="fill:#040504; stroke:none;" d="M158 142L150 156C153.782 153.039 159.174 147.087 158 142z"/>
<path style="fill:#3d50ab; stroke:none;" d="M159.333 142.667L159.667 143.333L159.333 142.667z"/>
<path style="fill:#040504; stroke:none;" d="M172 142L175 158L176 158L174 142L172 142z"/>
<path style="fill:#3d50ab; stroke:none;" d="M267.667 142.333L268.333 142.667L267.667 142.333z"/>
<path style="fill:#9ccb74; stroke:none;" d="M68 143L66 149L72 148L71 144L68 143z"/>
<path style="fill:#3d50ab; stroke:none;" d="M263 144L263 145L266 146L266 145C264.04 144.347 263.446 144 266 144L263 144z"/>
<path style="fill:#040504; stroke:none;" d="M264 144L264 145L270 144L264 144z"/>
<path style="fill:#3d50ab; stroke:none;" d="M270 143L271 144L270 143M156 144L157 145L156 144z"/>
<path style="fill:#9ccb74; stroke:none;" d="M159 144L160 145L159 144z"/>
<path style="fill:#3d50ab; stroke:none;" d="M269 144L270 145L269 144z"/>
<path style="fill:#9ccb74; stroke:none;" d="M39 145L37 151L44 150L41 145L39 145z"/>
<path style="fill:#3d50ab; stroke:none;" d="M155 145L156 146L155 145z"/>
<path style="fill:#9ccb74; stroke:none;" d="M158 145L159 146L158 145z"/>
<path style="fill:#3d50ab; stroke:none;" d="M267.667 145.333L268.333 145.667L267.667 145.333z"/>
<path style="fill:#9ccb74; stroke:none;" d="M154 146L155 147L154 146z"/>
<path style="fill:#3d50ab; stroke:none;" d="M157 146L158 147L157 146z"/>
<path style="fill:#9ccb74; stroke:none;" d="M11 147L9 149L9 153L15 153L15 149L11 147z"/>
<path style="fill:#3d50ab; stroke:none;" d="M154 147L155 148L154 147z"/>
<path style="fill:#9ccb74; stroke:none;" d="M157 147L158 148L157 147z"/>
<path style="fill:#3d50ab; stroke:none;" d="M174 147L174 152L175 152L174 147z"/>
<path style="fill:#9ccb74; stroke:none;" d="M153 148L154 149L153 148z"/>
<path style="fill:#3d50ab; stroke:none;" d="M156 148L155 150L156 148M172 148L172 153L173 153L172 148z"/>
<path style="fill:#9ccb74; stroke:none;" d="M152 149L153 150L152 149M156 149L157 150L156 149z"/>
<path style="fill:#3d50ab; stroke:none;" d="M152 150L153 151L152 150z"/>
<path style="fill:#9ccb74; stroke:none;" d="M155 150L156 151L155 150M151 151L150 153L151 151z"/>
<path style="fill:#3d50ab; stroke:none;" d="M154 151L155 152L154 151z"/>
<path style="fill:#9ccb74; stroke:none;" d="M169 151L167 157L176 159L176 158L169 151z"/>
<path style="fill:#3d50ab; stroke:none;" d="M151 152L152 153L151 152z"/>
<path style="fill:#9ccb74; stroke:none;" d="M154 152L155 153L154 152M175.333 152.667L175.667 153.333L175.333 152.667M290 154L308 153C303.802 151.239 293.154 150.391 290 154z"/>
<path style="fill:#3d50ab; stroke:none;" d="M150 153L151 154L150 153z"/>
<path style="fill:#9ccb74; stroke:none;" d="M153 153L154 154L153 153z"/>
<path style="fill:#3d50ab; stroke:none;" d="M291 153L291 154L308 154L291 153z"/>
<path style="fill:#9ccb74; stroke:none;" d="M33 155L33 156L39 156L33 155M42.6667 154.333L43.3333 154.667L42.6667 154.333M113 154L110 161L117 161L116 156L114 157L113 154M129 154L130 155L129 154z"/>
<path style="fill:#3d50ab; stroke:none;" d="M149.333 154.667L149.667 155.333L149.333 154.667M152 154L151 156L152 154M173.333 154.667L173.667 155.333L173.333 154.667M175 154L176 155L175 154z"/>
<path style="fill:#9ccb74; stroke:none;" d="M326 154L324 155L328 158L326 154z"/>
<path style="fill:#040504; stroke:none;" d="M34 155L35 156L34 155z"/>
<path style="fill:#3d50ab; stroke:none;" d="M35 155L35 156L38 156L35 155z"/>
<path style="fill:#9ccb74; stroke:none;" d="M40 155L41 156L40 155z"/>
<path style="fill:#3d50ab; stroke:none;" d="M46 161L42 163L42 156L46 158C39.4767 148.028 39.0632 170.531 46 161z"/>
<path style="fill:#9ccb74; stroke:none;" d="M152 155L153 156L152 155M176 155L176 158L177 158L176 155z"/>
<path style="fill:#3d50ab; stroke:none;" d="M213 155L212 158L213 158L213 155M215.667 155.333L216.333 155.667L215.667 155.333M33 156L33 160L37 159L37 158L35 156L33 156z"/>
<path style="fill:#d6eac7; stroke:none;" d="M42 156L42 163L44 163L44 156L42 156z"/>
<path style="fill:#9ccb74; stroke:none;" d="M150 156L151 157L150 156z"/>
<path style="fill:#040504; stroke:none;" d="M213 156L213 158L218 158L218 156L213 156z"/>
<path style="fill:#3d50ab; stroke:none;" d="M218.333 156.667L218.667 157.333L218.333 156.667z"/>
<path style="fill:#9ccb74; stroke:none;" d="M34 157L35 158L34 157M41 157L42 158L41 157M44 157L45 158L44 157z"/>
<path style="fill:#3d50ab; stroke:none;" d="M51 157L51 158L55 158L55 157L51 157z"/>
<path style="fill:#9ccb74; stroke:none;" d="M52 157L53 158L52 157M53 158L53 159L59 159L53 158z"/>
<path style="fill:#3d50ab; stroke:none;" d="M57 157L57 158L59 164L61 164C60.8796 160.308 60.6867 158.223 57 157M174 157L175 158L174 157z"/>
<path style="fill:#9ccb74; stroke:none;" d="M35 159L38 162L39 159L38 158L35 159z"/>
<path style="fill:#040504; stroke:none;" d="M45 158L45 161L46 161L45 158z"/>
<path style="fill:#9ccb74; stroke:none;" d="M50 158L51 165L52 165L50 158z"/>
<path style="fill:#040504; stroke:none;" d="M51 158L51 164L52 164L51 158M55 158L55 164L56 164L55 158z"/>
<path style="fill:#3d50ab; stroke:none;" d="M56.3333 158.667L56.6667 159.333L56.3333 158.667M146 158L148 160L146 158z"/>
<path style="fill:#9ccb74; stroke:none;" d="M147 158L148 159L147 158z"/>
<path style="fill:#3d50ab; stroke:none;" d="M215.667 158.333L216.333 158.667L215.667 158.333z"/>
<path style="fill:#040504; stroke:none;" d="M37 159L38 160L37 159M136 170L147 159L136 170z"/>
<path style="fill:#d6eac7; stroke:none;" d="M270 159L271 160L270 159z"/>
<path style="fill:#3d50ab; stroke:none;" d="M38 160L35 163L35 164L38 160z"/>
<path style="fill:#9ccb74; stroke:none;" d="M56 160L58 164L56 160M147.667 160.333L148.333 160.667L147.667 160.333M27 161L25 167L31 167L29 161L27 161M41 161L42 162L41 161M44 161L45 162L44 161M146 161L147 162L146 161z"/>
<path style="fill:#040504; stroke:none;" d="M33 162L35 164L33 162z"/>
<path style="fill:#9ccb74; stroke:none;" d="M145 162L146 163L145 162z"/>
<path style="fill:#040504; stroke:none;" d="M176 162C177.717 167.177 181.147 172.385 186 175L182 168L191 170L191 169L176 162z"/>
<path style="fill:#9ccb74; stroke:none;" d="M33 163L34 164L33 163z"/>
<path style="fill:#040504; stroke:none;" d="M37 163L38 164L37 163M41 163L42 164L41 163M44 163L45 164L44 163z"/>
<path style="fill:#3d50ab; stroke:none;" d="M141 163L142 164L141 163z"/>
<path style="fill:#9ccb74; stroke:none;" d="M144 163L145 164L144 163M7 164L15.8889 168.944L19 176L20 176L18 168L27 170L27 171L20 171L20 172L73 172L42 170.96L7 164M35.6667 164.333L36.3333 164.667L35.6667 164.333M42.6667 164.333L43.3333 164.667L42.6667 164.333M55 164L56 165L55 164M60 164L61 165L60 164z"/>
<path style="fill:#3d50ab; stroke:none;" d="M140 164L141 165L140 164z"/>
<path style="fill:#9ccb74; stroke:none;" d="M143 164L142 166L144 166L143 164z"/>
<path style="fill:#3d50ab; stroke:none;" d="M176 164L177 165L176 164M180 164L181 165L180 164M139 165L140 166L139 165M182 165L183 166L182 165M138 166L139 167L138 166M141 166L142 167L141 166M184 166L185 167L184 166z"/>
<path style="fill:#d6eac7; stroke:none;" d="M7 167L7 176L19 176C17.1852 168.803 14.4504 167.325 7 167z"/>
<path style="fill:#3d50ab; stroke:none;" d="M140 167L139 169L140 167M178 167L179 168L178 167M186.667 167.333L187.333 167.667L186.667 167.333z"/>
<path style="fill:#d6eac7; stroke:none;" d="M18 168L18 169L27 171L27 170L18 168z"/>
<path style="fill:#9ccb74; stroke:none;" d="M140 168L141 169L140 168z"/>
<path style="fill:#3d50ab; stroke:none;" d="M179 168L180 169L179 168M182 168L182 169L183 171L186 170L186 169L182 168M190 168L191 169L190 168z"/>
<path style="fill:#9ccb74; stroke:none;" d="M305 168L305 169L310 169L305 168z"/>
<path style="fill:#3d50ab; stroke:none;" d="M19 169L19 175L20 175C25.9113 170.522 38.7488 173 46 173L46 172C38.2088 172 24.9713 174.7 19 169z"/>
<path style="fill:#9ccb74; stroke:none;" d="M73 169L73 176L75 173L89 173L89 172L73 169z"/>
<path style="fill:#d6eac7; stroke:none;" d="M100 169C102.656 174.811 107.021 175.527 113 176L100 169z"/>
<path style="fill:#3d50ab; stroke:none;" d="M135 169L136 170L135 169z"/>
<path style="fill:#9ccb74; stroke:none;" d="M138 169L139 170L138 169M183 169L184 170L183 169z"/>
<path style="fill:#3d50ab; stroke:none;" d="M191 169L192 170L191 169z"/>
<path style="fill:#9ccb74; stroke:none;" d="M284.667 169.333L285.333 169.667L284.667 169.333M289 169L289 170L293 170L293 171C288.813 171.346 285.413 171.702 284 176L289 176L288 173L294 171L289 169M297 169L317 174L315 170L313 172L312 172L297 169z"/>
<path style="fill:#3d50ab; stroke:none;" d="M298 169L298 170L313 172L314 169L298 169M73 170C67.0887 174.478 54.2512 172 47 172L47 173L73 173L73 174C66.9806 174 52.0801 171.331 48 176L45 176L45 174L7 177L7 179L67.9606 175.223L79.0008 179.521L109 181L109 180L75 177L75 176L122 180L122 179C108.706 177.21 84.7531 166.602 73 176L73 170z"/>
<path style="fill:#9ccb74; stroke:none;" d="M123 170L124 171L123 170z"/>
<path style="fill:#3d50ab; stroke:none;" d="M136 170L137 171L136 170z"/>
<path style="fill:#9ccb74; stroke:none;" d="M137 170L138 171L137 170z"/>
<path style="fill:#3d50ab; stroke:none;" d="M189.667 170.333L190.333 170.667L189.667 170.333M195.333 170.667L195.667 171.333L195.333 170.667z"/>
<path style="fill:#040504; stroke:none;" d="M196 170C199.324 174.11 206.156 173 211 173L211 171L196 170z"/>
<path style="fill:#3d50ab; stroke:none;" d="M199 170L199 171L202 171L199 170z"/>
<path style="fill:#9ccb74; stroke:none;" d="M263 170L263 171L273 171L263 170M277 170L276 172L277 170z"/>
<path style="fill:#3d50ab; stroke:none;" d="M278 170L278 171L283 171L278 170z"/>
<path style="fill:#040504; stroke:none;" d="M277 171L277 172L288 172L277 171z"/>
<path style="fill:#3d50ab; stroke:none;" d="M287 170L287 171L293 171L287 170z"/>
<path style="fill:#040504; stroke:none;" d="M312 170L313 171L312 170z"/>
<path style="fill:#3d50ab; stroke:none;" d="M318 170L318 171L322 171L318 170z"/>
<path style="fill:#9ccb74; stroke:none;" d="M322.667 170.333L323.333 170.667L322.667 170.333z"/>
<path style="fill:#3d50ab; stroke:none;" d="M181 171L182 172L181 171M184 171L185 172L184 171M211.333 171.667L211.667 172.333L211.333 171.667M216 171C216.631 176.018 227.82 174 232 174L232 173L216 171z"/>
<path style="fill:#040504; stroke:none;" d="M216 172L216 173L232 173L216 172z"/>
<path style="fill:#3d50ab; stroke:none;" d="M222 171L222 172L232 172L222 171M237 171L237 172L252 172L252 173L241 173L241 174L253 173L237 171z"/>
<path style="fill:#9ccb74; stroke:none;" d="M252 171L253 172L252 171M256 171L257 176L255 175L256 179L260 178L256 171z"/>
<path style="fill:#040504; stroke:none;" d="M257 171L257 173L273 172L257 171z"/>
<path style="fill:#9ccb74; stroke:none;" d="M317 171L318 172L317 171z"/>
<path style="fill:#040504; stroke:none;" d="M19 172L20 173L19 172M46 172L46 175L47 175L46 172z"/>
<path style="fill:#3d50ab; stroke:none;" d="M128 175L132 173L129 177L133 173L128 175z"/>
<path style="fill:#9ccb74; stroke:none;" d="M132 172L133 173L132 172z"/>
<path style="fill:#3d50ab; stroke:none;" d="M182 172L183 173L182 172M185 172L186 173L185 172M198.667 172.333L199.333 172.667L198.667 172.333z"/>
<path style="fill:#040504; stroke:none;" d="M236 172L236 173L252 173L236 172z"/>
<path style="fill:#3d50ab; stroke:none;" d="M272 172L273 173L272 172M277 172L278 173L277 172M280 172L280 173L285 173L280 172z"/>
<path style="fill:#9ccb74; stroke:none;" d="M318 172L319 173L318 172z"/>
<path style="fill:#3d50ab; stroke:none;" d="M319.667 172.333L320.333 172.667L319.667 172.333z"/>
<path style="fill:#d6eac7; stroke:none;" d="M20 176L46 174C41.9047 171.64 21.0658 171.026 20 176M47 173L47 174L60 174L47 173z"/>
<path style="fill:#9ccb74; stroke:none;" d="M60 173L60 174L72 174L60 173z"/>
<path style="fill:#d6eac7; stroke:none;" d="M72 173L73 174L72 173z"/>
<path style="fill:#9ccb74; stroke:none;" d="M121 173L122 174L121 173z"/>
<path style="fill:#040504; stroke:none;" d="M121 180L121 181L132 173L121 180z"/>
<path style="fill:#3d50ab; stroke:none;" d="M210 173L211 174L210 173M236 173L237 174L236 173z"/>
<path style="fill:#9ccb74; stroke:none;" d="M252 173L253 174L252 173z"/>
<path style="fill:#3d50ab; stroke:none;" d="M258 173L259 174L258 173z"/>
<path style="fill:#9ccb74; stroke:none;" d="M259 173L259 174L266 174L259 173M323 173L323 174L328 174L323 173M33 174L33 175L42 175L33 174M43 174L44 175L43 174M45.3333 174.667L45.6667 175.333L45.3333 174.667M47.3333 174.667L47.6667 175.333L47.3333 174.667M132 174L133 175L132 174z"/>
<path style="fill:#3d50ab; stroke:none;" d="M186 174L187 175L186 174z"/>
<path style="fill:#9ccb74; stroke:none;" d="M13 175L14 176L13 175M21 175L21 176L28 176L21 175z"/>
<path style="fill:#040504; stroke:none;" d="M75 176L75 177L116 181C106.224 176.3 85.4432 172.913 75 176z"/>
<path style="fill:#d6eac7; stroke:none;" d="M114 175L117 177L117 176L114 175z"/>
<path style="fill:#9ccb74; stroke:none;" d="M131 175L132 176L131 175z"/>
<path style="fill:#3d50ab; stroke:none;" d="M185 175L186 176L185 175z"/>
<path style="fill:#9ccb74; stroke:none;" d="M259 175L260 176L259 175M7 176L7 177L13 177L7 176z"/>
<path style="fill:#3d50ab; stroke:none;" d="M125 176L126 177L125 176z"/>
<path style="fill:#9ccb74; stroke:none;" d="M130 176L131 177L130 176z"/>
<path style="fill:#3d50ab; stroke:none;" d="M20 180L20 181C33.7782 181 59.3099 185.78 71 178L70 180L73 181C74.2943 175.567 65.1659 177.16 62 177.576C48.3648 179.365 33.755 180 20 180M124 177L125 178L124 177M127 177L128 178L127 177z"/>
<path style="fill:#9ccb74; stroke:none;" d="M69 178C64.8399 181.786 56.4755 180.998 51 181L8 181L8 182L73 182L73 181L71 178L69 178z"/>
<path style="fill:#3d50ab; stroke:none;" d="M123 178L124 179L123 178M126 178L127 179L126 178M188.667 178.333L189.333 178.667L188.667 178.333z"/>
<path style="fill:#040504; stroke:none;" d="M72.3333 179.667L72.6667 180.333L72.3333 179.667z"/>
<path style="fill:#3d50ab; stroke:none;" d="M125 179L124 181L126 181L125 179z"/>
<path style="fill:#040504; stroke:none;" d="M188 179L191 181L188 179z"/>
<path style="fill:#3d50ab; stroke:none;" d="M76 182L79 181L76 182M188 180L189 181L188 180M191 180L192 181L191 180M7 181L8 182L7 181z"/>
<path style="fill:#9ccb74; stroke:none;" d="M189 181L190 182L189 181z"/>
<path style="fill:#3d50ab; stroke:none;" d="M190 181L191 182L190 181z"/>
<path style="fill:#9ccb74; stroke:none;" d="M39 189L39 190L43 189L39 189M49 188L49 189L53 189L49 188M136 188L137 189L136 188M144 188L144 189L149 189L144 188M158 189L158 190L162 189L158 189M251 188L252 189L251 188M259 188L259 189L264 189L259 188M26 189L27 190L26 189z"/>
<path style="fill:#3d50ab; stroke:none;" d="M27 189L27 190L29 203L30 203L30 189L27 189z"/>
<path style="fill:#040504; stroke:none;" d="M40 189L35 200L41 203L42 203L44 198L42 189L40 189z"/>
<path style="fill:#3d50ab; stroke:none;" d="M42 189L42 198L43 198L42 189M48 189L47 192L48 192L48 189z"/>
<path style="fill:#040504; stroke:none;" d="M49.429 190.047C44.857 192.991 47.3689 205.682 53.49 201.777C58.0521 198.867 55.449 186.171 49.429 190.047z"/>
<path style="fill:#9ccb74; stroke:none;" d="M54 189L55 190L54 189M133 189L134 190L133 189z"/>
<path style="fill:#3d50ab; stroke:none;" d="M134 189L134 190L136 203L137 203L137 189L134 189M143 189L142 194L143 194L143 189z"/>
<path style="fill:#040504; stroke:none;" d="M144.606 190.047C140.978 192.726 141.979 205.89 148.665 201.777C152.554 199.385 150.324 185.825 144.606 190.047z"/>
<path style="fill:#3d50ab; stroke:none;" d="M149 189L150 190L149 189z"/>
<path style="fill:#040504; stroke:none;" d="M159 189L154 200L160 203L161 203L163 200L163 199L163 198L161 189L159 189z"/>
<path style="fill:#3d50ab; stroke:none;" d="M161 189L161 198L162 198L161 189z"/>
<path style="fill:#9ccb74; stroke:none;" d="M248 189L249 190L248 189z"/>
<path style="fill:#3d50ab; stroke:none;" d="M249 189L250 190L249 189z"/>
<path style="fill:#040504; stroke:none;" d="M250 189L246 191L246 192L250 192L250 203L251 203L250 189z"/>
<path style="fill:#3d50ab; stroke:none;" d="M251 189L251 203L252 203L251 189M258 189L257 191L258 189z"/>
<path style="fill:#040504; stroke:none;" d="M257 193C267.297 188.443 258.928 198.84 257 203L266 203L266 201L260 201C261.949 198.825 264.784 196.216 264.914 193.059C265.157 187.136 258.673 189.967 257 193z"/>
<path style="fill:#3d50ab; stroke:none;" d="M264 189L265 190L264 189M24 190L24 193L25 193L24 190z"/>
<path style="fill:#040504; stroke:none;" d="M24 191L27 192L27 203L29 203L29 190L24 191z"/>
<path style="fill:#3d50ab; stroke:none;" d="M39 190L40 191L39 190M49 191L49 192L53 191L53 200C54.7432 195.844 54.6007 190.144 49 191M131 193L132 193L133 191L131 193z"/>
<path style="fill:#040504; stroke:none;" d="M131 191L131 192L135 192L135 203L136 203L136 190L131 191z"/>
<path style="fill:#3d50ab; stroke:none;" d="M145 195L146 195L148 191C144.846 190.284 144.569 192.256 145 195M150 190L151 191L150 190z"/>
<path style="fill:#9ccb74; stroke:none;" d="M196 190L195 191L202 198L203 197L196 190z"/>
<path style="fill:#3d50ab; stroke:none;" d="M246.667 190.333L247.333 190.667L246.667 190.333M260 190L260 191L263 191L260 190M265.333 190.667L265.667 191.333L265.333 190.667M302 190L302 191L302 192L304 191L302 193L302 194L305 193L305 191L302 190z"/>
<path style="fill:#9ccb74; stroke:none;" d="M304 190L305 191L304 190z"/>
<path style="fill:#3d50ab; stroke:none;" d="M38 191L39 192L38 191z"/>
<path style="fill:#d6eac7; stroke:none;" d="M50 191L50 201C53.5976 198.668 52.9969 194.987 53 191L50 191z"/>
<path style="fill:#3d50ab; stroke:none;" d="M55.3333 191.667L55.6667 192.333L55.3333 191.667z"/>
<path style="fill:#9ccb74; stroke:none;" d="M91 191L94 193L94 192L91 191z"/>
<path style="fill:#3d50ab; stroke:none;" d="M92 191L92 192L94 193L88 200L89 200L96 195L96 191L92 191z"/>
<path style="fill:#9ccb74; stroke:none;" d="M96 191L95 196L96 191z"/>
<path style="fill:#d6eac7; stroke:none;" d="M145 191L145 194L148 194L148 191L145 191z"/>
<path style="fill:#3d50ab; stroke:none;" d="M157 191L158 192L157 191M196 191L202 197L196 191z"/>
<path style="fill:#9ccb74; stroke:none;" d="M245.333 191.667L245.667 192.333L245.333 191.667M256.333 191.667L256.667 192.333L256.333 191.667z"/>
<path style="fill:#3d50ab; stroke:none;" d="M259 191L260 192L259 191M263 191L263 194L264 194L263 191z"/>
<path style="fill:#9ccb74; stroke:none;" d="M301 194L304 191L302 191L301 194z"/>
<path style="fill:#3d50ab; stroke:none;" d="M309 191L304 197L309 191z"/>
<path style="fill:#9ccb74; stroke:none;" d="M310 191L311 192L310 191M23 192L24 193L23 192M25 192L26 193L25 192z"/>
<path style="fill:#3d50ab; stroke:none;" d="M39 192L40 198L41 198L39 192z"/>
<path style="fill:#9ccb74; stroke:none;" d="M46 192L46 200L47 200L46 192M49.3333 192.667L49.6667 193.333L49.3333 192.667M130 192L131 193L130 192M132 192L133 193L132 192z"/>
<path style="fill:#3d50ab; stroke:none;" d="M134 192L134 203L135 203L134 192M148.333 192.667L148.667 193.333L148.333 192.667z"/>
<path style="fill:#9ccb74; stroke:none;" d="M156 192L157 193L156 192z"/>
<path style="fill:#3d50ab; stroke:none;" d="M158 192L159 198L160 198L158 192M246 192L247 193L246 192z"/>
<path style="fill:#9ccb74; stroke:none;" d="M247 192L248 193L247 192z"/>
<path style="fill:#3d50ab; stroke:none;" d="M249 192L249 203L250 203L249 192z"/>
<path style="fill:#9ccb74; stroke:none;" d="M259 192L260 193L259 192z"/>
<path style="fill:#3d50ab; stroke:none;" d="M37 193L38 194L37 193z"/>
<path style="fill:#9ccb74; stroke:none;" d="M39 193L40 194L39 193z"/>
<path style="fill:#3d50ab; stroke:none;" d="M150 193L151 194L150 193M156 193L157 194L156 193z"/>
<path style="fill:#9ccb74; stroke:none;" d="M158 193L159 194L158 193z"/>
<path style="fill:#3d50ab; stroke:none;" d="M265.333 193.667L265.667 194.333L265.333 193.667z"/>
<path style="fill:#9ccb74; stroke:none;" d="M275 193C273.719 195.953 273.769 197.084 277 198L275 202L278 200L282 203L282 202L279 202L281 200L281 199L278 200L280 195L275 193M304 193L305 194L304 193M36 194L37 195L36 194z"/>
<path style="fill:#3d50ab; stroke:none;" d="M38 194L39 195L38 194z"/>
<path style="fill:#d6eac7; stroke:none;" d="M39 194L38 198L39 194z"/>
<path style="fill:#9ccb74; stroke:none;" d="M142 194L143 195L142 194M146 194L147 195L146 194z"/>
<path style="fill:#3d50ab; stroke:none;" d="M147 194L148 195L147 194z"/>
<path style="fill:#9ccb74; stroke:none;" d="M150 194L151 195L150 194z"/>
<path style="fill:#3d50ab; stroke:none;" d="M155 194L156 195L155 194M157 194L158 195L157 194z"/>
<path style="fill:#d6eac7; stroke:none;" d="M158 194L157 198L158 194z"/>
<path style="fill:#9ccb74; stroke:none;" d="M203 194L204 199L199 198C202.216 201.626 206.626 197.216 203 194M262 194L263 195L262 194z"/>
<path style="fill:#d6eac7; stroke:none;" d="M275 194L275 197L276 197L275 194z"/>
<path style="fill:#9ccb74; stroke:none;" d="M38 195L39 196L38 195z"/>
<path style="fill:#3d50ab; stroke:none;" d="M143 195L142 198L143 195z"/>
<path style="fill:#9ccb74; stroke:none;" d="M149 195L151 197L149 195M154 195L155 196L154 195M157 195L158 196L157 195z"/>
<path style="fill:#3d50ab; stroke:none;" d="M203 195L200 198L200 199L204 199L203 195M262 195L263 196L262 195M264 195L265 196L264 195M35 196L36 197L35 196M37 196L38 197L37 196z"/>
<path style="fill:#9ccb74; stroke:none;" d="M63 203L65 203L64 197L73 197C67.0867 194.52 63.2063 196.717 63 203M142 196L143 197L142 196z"/>
<path style="fill:#3d50ab; stroke:none;" d="M144 197L144 198L149 198L144 197M149 196L150 197L149 196M154 196L155 197L154 196M156 196L157 197L156 196z"/>
<path style="fill:#9ccb74; stroke:none;" d="M171 196L171 197L180 197L171 196z"/>
<path style="fill:#3d50ab; stroke:none;" d="M237 196L242 198L242 197L237 196z"/>
<path style="fill:#040504; stroke:none;" d="M238 196L238 197L242 197L238 196z"/>
<path style="fill:#9ccb74; stroke:none;" d="M242.333 196.667L242.667 197.333L242.333 196.667z"/>
<path style="fill:#3d50ab; stroke:none;" d="M261 196L262 197L261 196z"/>
<path style="fill:#9ccb74; stroke:none;" d="M264 196L265 197L264 196z"/>
<path style="fill:#d6eac7; stroke:none;" d="M277.333 196.667L277.667 197.333L277.333 196.667z"/>
<path style="fill:#9ccb74; stroke:none;" d="M307 199L308 199L311 199C311.595 195.443 308.219 196.812 307 199M34 197L35 198L34 197M37 197L38 198L37 197M43 197L44 198L43 197z"/>
<path style="fill:#3d50ab; stroke:none;" d="M64 197L65 198L64 197M68.3333 197.667L68.6667 198.333L68.3333 197.667M72 197L73 198L72 197z"/>
<path style="fill:#d6eac7; stroke:none;" d="M145 197L145 201L148 201L148 197L145 197z"/>
<path style="fill:#3d50ab; stroke:none;" d="M150 197L151 198L150 197z"/>
<path style="fill:#9ccb74; stroke:none;" d="M153 197L154 198L153 197M156 197L157 198L156 197M162 197L163 198L162 197z"/>
<path style="fill:#3d50ab; stroke:none;" d="M171 197L172 198L171 197M175 197L175 203L176 203L175 197M179 197L180 198L179 197M260 197L261 198L260 197z"/>
<path style="fill:#9ccb74; stroke:none;" d="M263 197L264 198L263 197M302 199L305 198L302 199z"/>
<path style="fill:#3d50ab; stroke:none;" d="M308 197L308 200L311 200L311 197L308 197M34.3333 198.667L34.6667 199.333L34.3333 198.667M44.3333 198.667L44.6667 199.333L44.3333 198.667z"/>
<path style="fill:#9ccb74; stroke:none;" d="M49.3333 198.667L49.6667 199.333L49.3333 198.667M72 198L72 203L74 203L74 198L72 198M89 198L90 199L89 198M141 198L141 201L142 201L141 198M144.333 198.667L144.667 199.333L144.333 198.667M148.333 198.667L148.667 199.333L148.333 198.667z"/>
<path style="fill:#3d50ab; stroke:none;" d="M153.333 198.667L153.667 199.333L153.333 198.667M163.333 198.667L163.667 199.333L163.333 198.667z"/>
<path style="fill:#9ccb74; stroke:none;" d="M171 198L171 203L172 203L171 198M179 198L179 203L181 203L179 198z"/>
<path style="fill:#3d50ab; stroke:none;" d="M259 198L260 199L259 198z"/>
<path style="fill:#9ccb74; stroke:none;" d="M262 198L263 199L262 198z"/>
<path style="fill:#3d50ab; stroke:none;" d="M303 198L304 199L303 198z"/>
<path style="fill:#9ccb74; stroke:none;" d="M309 198L310 199L309 198z"/>
<path style="fill:#3d50ab; stroke:none;" d="M55.3333 199.667L55.6667 200.333L55.3333 199.667z"/>
<path style="fill:#9ccb74; stroke:none;" d="M68 199L68 203L69 203L68 199M151 199L152 200L151 199z"/>
<path style="fill:#3d50ab; stroke:none;" d="M258 199L259 200L258 199M261 199L262 200L261 199M40 200L40 203L41 203L40 200M47 200L48 201L47 200M49 200L50 201L49 200z"/>
<path style="fill:#9ccb74; stroke:none;" d="M52 200L53 201L52 200z"/>
<path style="fill:#3d50ab; stroke:none;" d="M144 200L145 201L144 200M148 200L149 201L148 200M159 200L159 203L160 203L159 200M161 200L161 203L162 203L161 200M257 200L258 201L257 200M260 200L261 201L260 200z"/>
<path style="fill:#d6eac7; stroke:none;" d="M279 200L279 202L281 202L281 200L279 200z"/>
<path style="fill:#3d50ab; stroke:none;" d="M281.333 200.667L281.667 201.333L281.333 200.667z"/>
<path style="fill:#9ccb74; stroke:none;" d="M309 200L310 201L309 200z"/>
<path style="fill:#3d50ab; stroke:none;" d="M42.3333 201.667L42.6667 202.333L42.3333 201.667z"/>
<path style="fill:#9ccb74; stroke:none;" d="M47 201L48 202L47 201z"/>
<path style="fill:#3d50ab; stroke:none;" d="M142 201L143 202L142 201M150 201L151 202L150 201z"/>
<path style="fill:#9ccb74; stroke:none;" d="M256.333 201.667L256.667 202.333L256.333 201.667z"/>
<path style="fill:#3d50ab; stroke:none;" d="M266.333 201.667L266.667 202.333L266.333 201.667z"/>
<path style="fill:#9ccb74; stroke:none;" d="M48 202L49 203L48 202z"/>
<path style="fill:#3d50ab; stroke:none;" d="M49 202L50 203L49 202M53 202L54 203L53 202z"/>
<path style="fill:#9ccb74; stroke:none;" d="M54 202L55 203L54 202z"/>
<path style="fill:#3d50ab; stroke:none;" d="M143.667 202.333L144.333 202.667L143.667 202.333M148 202L149 203L148 202z"/>
<path style="fill:#9ccb74; stroke:none;" d="M149 202L150 203L149 202M51 203L52 204L51 203M146 203L147 204L146 203M23 213L23 220L24 220L23 213M28 213C27.8611 217.265 27.292 219.697 23 221L23 222C28.4522 221.575 30.0991 218.015 28 213M38 213L38 222L40 222L40 217L42 217L42 222L44 222C43.9056 217.506 41.8928 214.946 38 213M45.6667 213.333L46.3333 213.667L45.6667 213.333M49 213L49 222L50 222L49 213M52 213L52 222L53 222L52 213M130 213L130 214L136 216L130 213M162 213L163 222L164 222L165 216L167 222L168 222C167.744 218.61 167.463 216.696 164 216L164 213L162 213M170 213L171 214L170 213M173 213L173 220L174 220L173 213z"/>
<path style="fill:#3d50ab; stroke:none;" d="M176 213L176 222L177 222L176 213z"/>
<path style="fill:#9ccb74; stroke:none;" d="M243 222L240 218L240 219L242 221C238.751 219.194 238.401 217.617 239 214L243 216C238.875 209.704 232.353 221.178 243 222z"/>
<path style="fill:#3d50ab; stroke:none;" d="M261 213L261 222L262 222L261 213M130 214L132 222L130 214z"/>
<path style="fill:#d6eac7; stroke:none;" d="M131 214L131 221C135.595 219.469 134.817 216.11 131 214z"/>
<path style="fill:#9ccb74; stroke:none;" d="M31 220L32 220L33 216L36 217C32.9741 215.288 31.9167 216.979 31 220M138 218L140 216L141 216L143 220L142 221L138 220C144.769 224.899 144.106 212.323 138 218M158 215L155 216L155 222L157 222L158 215M248 215L245 216L245 222L248 215M250 216L250 217L253 216L249 221L255 222C254.707 218.158 254.064 216.186 250 216M258 215L257 222L258 222L261 217L258 215M264 221L269 222L269 221L265 220L270 219L268 215L264 221z"/>
<path style="fill:#3d50ab; stroke:none;" d="M31 216L32 217L31 216z"/>
<path style="fill:#d6eac7; stroke:none;" d="M33 216L32 221L35 221L33 216z"/>
<path style="fill:#9ccb74; stroke:none;" d="M45 216L45 222L47 222L47 216L45 216z"/>
<path style="fill:#3d50ab; stroke:none;" d="M135 216L136 217L135 216z"/>
<path style="fill:#d6eac7; stroke:none;" d="M140 216L140 221L142 221L143 220L140 216z"/>
<path style="fill:#9ccb74; stroke:none;" d="M145 216L147 218L147 216L145 216z"/>
<path style="fill:#3d50ab; stroke:none;" d="M149 216L150 217L149 216z"/>
<path style="fill:#9ccb74; stroke:none;" d="M152 219L151 219L148 217L148 218L151 222L152 222L154 216L152 219z"/>
<path style="fill:#3d50ab; stroke:none;" d="M159 216L160 217L159 216z"/>
<path style="fill:#9ccb74; stroke:none;" d="M170 216L170 222L171 222L170 216z"/>
<path style="fill:#3d50ab; stroke:none;" d="M246 216L247 217L246 216z"/>
<path style="fill:#d6eac7; stroke:none;" d="M259 216L258 221L261 221L259 216z"/>
<path style="fill:#3d50ab; stroke:none;" d="M35 217L36 218L35 217z"/>
<path style="fill:#9ccb74; stroke:none;" d="M135 217L132 221L132 222C134.85 221.063 135.983 219.988 135 217M159 217L159 222L161 222L161 217L159 217z"/>
<path style="fill:#d6eac7; stroke:none;" d="M265 217L265 218L268 218L265 217z"/>
<path style="fill:#9ccb74; stroke:none;" d="M35.3333 218.667L35.6667 219.333L35.3333 218.667z"/>
<path style="fill:#3d50ab; stroke:none;" d="M138.333 218.667L138.667 219.333L138.333 218.667M146 218L147 219L146 218M148 218L149 219L148 218M242 218L243 219L242 218M253 218L254 219L253 218M264 218L265 219L264 218M268 218L269 219L268 218z"/>
<path style="fill:#9ccb74; stroke:none;" d="M146.333 219.667L146.667 220.333L146.333 219.667M148 219L149 220L148 219z"/>
<path style="fill:#d6eac7; stroke:none;" d="M251 221L254 219L251 221z"/>
<path style="fill:#3d50ab; stroke:none;" d="M23 220L24 221L23 220M31.3333 220.667L31.6667 221.333L31.3333 220.667M35 220L36 221L35 220M147.333 220.667L147.667 221.333L147.333 220.667M151 220L152 221L151 220M173 220L174 221L173 220z"/>
<path style="fill:#9ccb74; stroke:none;" d="M32 221L32 222L36 222L32 221M173 221L174 222L173 221z"/>
<path style="fill:#3d50ab; stroke:none;" d="M258 221L259 222L258 221z"/>
<path style="fill:#9ccb74; stroke:none;" d="M259.667 221.333L260.333 221.667L259.667 221.333M31 222L31 225L32 225L31 222M12.6667 226.333L13.3333 226.667L12.6667 226.333M15 226L15 227L30 227L15 226M31 226L31 227L44 227L31 226M45 226L45 227L85 227C74.4881 222.589 56.434 226 45 226M86 226L86 227L89 227L86 226M90 226L90 227L117 227L90 226M118 226L118 227C123.238 232.129 121.658 243.727 119 250C124.451 246.149 123.779 229.186 118 226M11 227L12 228L11 227z"/>
<path style="fill:#3d50ab; stroke:none;" d="M24.3179 235.086C20.188 237.471 24.671 243.703 28.2539 240.953C31.4612 238.491 27.9053 233.015 24.3179 235.086z"/>
<path style="fill:#9ccb74; stroke:none;" d="M28 234L29 235L28 234M50 234L49 235L49 239L52 239L50 243L55 239L54 239L54 241L53 241L54 237L51 238L55 236L50 234z"/>
<path style="fill:#3d50ab; stroke:none;" d="M51.6667 234.333L52.3333 234.667L51.6667 234.333M57 234L57 238L60 242L61 242L62 238C59.8692 236.945 58.4038 236.247 61 235L57 234z"/>
<path style="fill:#9ccb74; stroke:none;" d="M61 234L62 235L61 234z"/>
<path style="fill:#3d50ab; stroke:none;" d="M64 234L64 238L67 242L68 242L69 238C66.8693 236.945 65.4038 236.247 68 235L64 234z"/>
<path style="fill:#9ccb74; stroke:none;" d="M68 234L69 235L68 234M102 234L99 241L105 243L105 234L102 234M22 235L23 236L22 235M29 235L30 236L29 235z"/>
<path style="fill:#3d50ab; stroke:none;" d="M50 235L51 236L50 235M53 235L53 241L54 241L53 235z"/>
<path style="fill:#9ccb74; stroke:none;" d="M56 235L56 238L57 238L56 235M58 235L58 236L61 236L58 235M65 235L65 236L68 236L65 235M110 235L109 236L109 238L112 239L111 242L112 242L113 240L116 243L115 236L110 235z"/>
<path style="fill:#3d50ab; stroke:none;" d="M49.3333 236.667L49.6667 237.333L49.3333 236.667z"/>
<path style="fill:#d6eac7; stroke:none;" d="M51 236L51 238L53 238L53 236L51 236M110 236L114 242L115 242L110 236z"/>
<path style="fill:#9ccb74; stroke:none;" d="M30 237L30 240L31 240L30 237M60 237L61 238L60 237M63 237L64 238L63 237M67 237L68 238L67 237M73 243L74 243L77 238C73.5456 237.223 73.2268 240.06 73 243M78 237L78 238L80 243L81 243L81 237L78 237z"/>
<path style="fill:#3d50ab; stroke:none;" d="M50 238L51 239L50 238z"/>
<path style="fill:#9ccb74; stroke:none;" d="M57 238L57 239L60 239L57 238M64 238L64 239L67 239L64 238z"/>
<path style="fill:#3d50ab; stroke:none;" d="M77 238L78 239L77 238z"/>
<path style="fill:#9ccb74; stroke:none;" d="M94 239L94 240L98 238L94 239z"/>
<path style="fill:#d6eac7; stroke:none;" d="M102 238L103 239L102 238z"/>
<path style="fill:#3d50ab; stroke:none;" d="M51 239L52 240L51 239z"/>
<path style="fill:#9ccb74; stroke:none;" d="M60.3333 239.667L60.6667 240.333L60.3333 239.667M67.3333 239.667L67.6667 240.333L67.3333 239.667M77 239L77 243L78 243L77 239M22 240L23 241L22 240M29 240L30 241L29 240M56 240L61 243L61 242L56 240M63 241L68 243L63 241M23 241L24 242L23 241z"/>
<path style="fill:#3d50ab; stroke:none;" d="M52 241L53 242L52 241M57 241L58 242L57 241z"/>
<path style="fill:#9ccb74; stroke:none;" d="M61 241L62 242L61 241z"/>
<path style="fill:#3d50ab; stroke:none;" d="M64 241L65 242L64 241z"/>
<path style="fill:#9ccb74; stroke:none;" d="M68 241L69 242L68 241M25.6667 242.333L26.3333 242.667L25.6667 242.333M267 244L267 245L270 246L267 247L267 248L268 251C270.913 248.115 271.23 245.409 267 244M272 244L272 245L275 246L275 247L272 246L274 248L273 251C275.913 248.115 276.23 245.409 272 244M278 244C277.294 247.337 277.174 248.942 280 251L278 248L281 247L280 244L278 244M296 245L296 247L299 248L297 251C300.001 249.032 300.462 247.535 300 244L296 245M304 244L305 250L309 251C309.237 247.02 307.686 245.378 304 244z"/>
<path style="fill:#3d50ab; stroke:none;" d="M267.333 245.667L267.667 246.333L267.333 245.667z"/>
<path style="fill:#d6eac7; stroke:none;" d="M268 245L268 247L270 247L268 245z"/>
<path style="fill:#3d50ab; stroke:none;" d="M272 245L273 246L272 245z"/>
<path style="fill:#d6eac7; stroke:none;" d="M273 245L273 247L275 247L273 245M298.333 245.667L298.667 246.333L298.333 245.667M305 245L306 246L305 245z"/>
<path style="fill:#9ccb74; stroke:none;" d="M284 246L284 251L285 251L286 247L287 247L287 251L288 251L289 246L284 246z"/>
<path style="fill:#3d50ab; stroke:none;" d="M289 246L290 250L291 250L289 246z"/>
<path style="fill:#9ccb74; stroke:none;" d="M290 246L291 247L290 246z"/>
<path style="fill:#d6eac7; stroke:none;" d="M279 247L280 250L279 247z"/>
<path style="fill:#3d50ab; stroke:none;" d="M280 247L281 248L280 247z"/>
<path style="fill:#9ccb74; stroke:none;" d="M280 248L281 249L280 248z"/>
<path style="fill:#3d50ab; stroke:none;" d="M280 249L281 250L280 249M21 250L22 251L21 250z"/>
<path style="fill:#9ccb74; stroke:none;" d="M22 250L22 251L119 251L89 250L22 250M290 250L291 251L290 250M292.333 250.667L292.667 251.333L292.333 250.667M67 252C62.0511 264.412 53.4452 262.671 42 266L39 265L37 264L37 262L35 263L26 258C34.0656 272.487 46.1724 285.781 59 296.196C65.385 301.38 70.4257 306.422 79 306L79 299L81 299L81 307C98.2319 302.897 119.299 306 137 306L138 299L139 299L139 306C157.006 306 178.473 302.827 196 307L196 299L190 300C188.187 292.381 188.177 274.701 194 269L197 279L200 270L201 270C202.402 273.575 204.283 274.396 208 275C210.269 269.405 214.349 267.614 219 272C225.747 267.485 232.648 270.003 240 271L246 271C252.683 265.937 273.006 268.097 281 270L279 260L277 260L276 265L275 265L273 256L271 256L268 263L261 264L256 257C251.352 259.249 247.419 262.973 246 268L243 262L238 269L233 268C232.089 263.113 232.532 256.856 228 254L225 268L223 265L221 265L220 269L219 269L216 260L214 266L210 264L208 270L199 268L195 270C194.818 265.784 194.76 261.41 191 259L190 270C175.644 270 161.288 269.078 147 269.594C133.284 270.09 120.269 272.059 110 261L95 260L94 263L86 261L80 254L75 255L75 257L73 258L69 252L67 252z"/>
<path style="fill:#3d50ab; stroke:none;" d="M76 255L77 256L76 255M80 255L81 256L80 255M74 256L75 257L74 256M81 256L82 257L81 256M26 257L27 258L26 257M72 257L73 258L72 257M27 258L28 259L27 258M70 258L71 259L70 258z"/>
<path style="fill:#9ccb74; stroke:none;" d="M287 264L284 262L283 270C287.677 268.887 298.002 271.145 301.508 268.227C304.608 265.647 300.977 260.302 297.949 259.457C295.087 258.658 289.29 262.355 287 264z"/>
<path style="fill:#3d50ab; stroke:none;" d="M31 260L32 261L31 260M86 260L87 261L86 260M35 262L36 263L35 262M92.6667 262.333L93.3333 262.667L92.6667 262.333M95 262L96 263L95 262M110 262L111 263L110 262M37 263L38 264L37 263M111 263L112 264L111 263M39 264L40 265L39 264M42 265L43 266L42 265M49.6667 265.333L50.3333 265.667L49.6667 265.333z"/>
<path style="fill:#d6eac7; stroke:none;" d="M163 270L160 289L186 295L185 275L184 275L177 280L175 274L163 270M147 271L145 279L142 278C144.409 282.124 148.59 282.169 153 283L147 271M136 272L134 278L139 279L136 272z"/>
<path style="fill:#9ccb74; stroke:none;" d="M264 274L263 277L265 280L267 278L270 279L270 274L269 274L267 274L266 274L266 277L265 277L264 274z"/>
<path style="fill:#3d50ab; stroke:none;" d="M265 274L266 275L265 274M270 274L271 275L270 274z"/>
<path style="fill:#9ccb74; stroke:none;" d="M271 274L270 281C272.477 278.549 273.087 276.913 271 274M274 274L274 277L276 276L276 275L274 274z"/>
<path style="fill:#3d50ab; stroke:none;" d="M275 274L275 275L278 275L275 274z"/>
<path style="fill:#d6eac7; stroke:none;" d="M265.333 275.667L265.667 276.333L265.333 275.667M270 275L270 280L271 280L270 275z"/>
<path style="fill:#3d50ab; stroke:none;" d="M42 276L43 277L42 276M129 276L130 277L129 276M275 276L275 277L277 279L278 279L275 276z"/>
<path style="fill:#9ccb74; stroke:none;" d="M277 276L278 277L277 276z"/>
<path style="fill:#3d50ab; stroke:none;" d="M281 276L281 280L282 280L281 276z"/>
<path style="fill:#9ccb74; stroke:none;" d="M282 276L284 280L285 280L286 277L287 280L288 280L288 276L282 276z"/>
<path style="fill:#3d50ab; stroke:none;" d="M284 276L285 277L284 276M286 276L287 277L286 276M131 277L132 278L131 277z"/>
<path style="fill:#9ccb74; stroke:none;" d="M293.333 277.667L293.667 278.333L293.333 277.667z"/>
<path style="fill:#3d50ab; stroke:none;" d="M104 279L105 280L104 279M136 279L137 280L136 279M140 279L141 280L140 279M269 279L270 280L269 279z"/>
<path style="fill:#9ccb74; stroke:none;" d="M274 279L274 280L278 280L274 279M289 279L289 282L290 282L289 279M281 280L282 281L281 280z"/>
<path style="fill:#3d50ab; stroke:none;" d="M143 281L144 282L143 281M147 282L148 283L147 282z"/>
<path style="fill:#9ccb74; stroke:none;" d="M272 287L264 290L259 291L251 295C243.371 294.73 222.058 295.211 217 301L206 302L197 299L198 306C215.701 306 236.768 302.897 254 307C254.077 303.279 253.771 296.413 256.603 293.603C264.723 285.545 278.407 297.055 287 285C282.24 283.951 274.98 282.404 272 287z"/>
<path style="fill:#3d50ab; stroke:none;" d="M154 285L154 286L159 289L154 285M273 285L274 286L273 285M271 286L272 287L271 286M83 288L84 289L83 288M263 289L264 290L263 289M258 290L259 291L258 290M169.667 291.333L170.333 291.667L169.667 291.333M174.667 292.333L175.333 292.667L174.667 292.333z"/>
<path style="fill:#d6eac7; stroke:none;" d="M271 297L269 298L274 298L280 292C274.49 292 261.025 289.526 256.603 293.028C254.028 295.068 254.209 302.944 256.742 304.971C262.141 309.293 269.438 301.496 271 297z"/>
<path style="fill:#3d50ab; stroke:none;" d="M177 293L178 294L177 293M253 293L254 294L253 293M180 294L181 295L180 294M249.667 294.333L250.333 294.667L249.667 294.333M183 295L184 296L183 295M185 295L186 296L185 295M242 295L242 296L247 296L242 295M231 296L231 297L234 297L231 296M237.667 296.333L238.333 296.667L237.667 296.333z"/>
<path style="fill:#9ccb74; stroke:none;" d="M259 296L258 300L260 303L263 301L263 300L263 297L259 296M264 296L267 302L264 296M269 298L272 299L273 296L269 298z"/>
<path style="fill:#d6eac7; stroke:none;" d="M260 297L261 298L260 297z"/>
<path style="fill:#3d50ab; stroke:none;" d="M272.333 297.667L272.667 298.333L272.333 297.667M261.333 298.667L261.667 299.333L261.333 298.667M79 299L79 306L74 306L74 307L81 306L81 299L79 299M138 299L137 306L82 306L82 307L138 307L138 299M187 299L188 300L187 299M196 299L197 307L253 307L253 306L198 306L196 299M259 299L260 300L259 299z"/>
<path style="fill:#9ccb74; stroke:none;" d="M270 299L271 300L270 299z"/>
<path style="fill:#040504; stroke:none;" d="M80 300L80 304L81 304L80 300M138 300L138 307L139 307L138 300M196 300L196 307L197 307L196 300z"/>
<path style="fill:#3d50ab; stroke:none;" d="M200.667 300.333L201.333 300.667L200.667 300.333M216 300L217 301L216 300M254 300L254 307L257 307L254 300z"/>
<path style="fill:#d6eac7; stroke:none;" d="M260 300L261 301L260 300z"/>
<path style="fill:#3d50ab; stroke:none;" d="M206 301L207 302L206 301M211 301L212 302L211 301M261 301L262 302L261 301z"/>
<path style="fill:#9ccb74; stroke:none;" d="M255 304L256 305L255 304z"/>
<path style="fill:#040504; stroke:none;" d="M80 306L81 307L80 306z"/>
<path style="fill:#3d50ab; stroke:none;" d="M139 306L139 307L195 307L177 306L139 306z"/>
<path style="fill:#040504; stroke:none;" d="M255 306L256 307L255 306z"/>
<path style="fill:#9ccb74; stroke:none;" d="M257 306L257 307L262 307L257 306z"/>
<path style="fill:#d6eac7; stroke:none;" d="M75 307L75 308C86.8831 315.862 101.913 324.478 116 327.482C124.793 329.358 135.032 328 144 328L198 328C212.858 328 239.663 327.253 249 313L260 308L242 307L205 307L75 307z"/>
<path style="fill:#9ccb74; stroke:none;" d="M132 312L129 317L131 315L132 315L132 319L133 319L132 312M137 312L137 318L139 319L140 319L140 314L137 312M190 312L189 319L191 319L191 315L190 315L191 318L190 312M195 312L195 319L196 319L198 318L198 314L195 312M246 315L247 315L249 313L246 315M249 313L250 314L249 313M86 314L87 315L86 314z"/>
<path style="fill:#3d50ab; stroke:none;" d="M87 314L88 315L87 314z"/>
<path style="fill:#9ccb74; stroke:none;" d="M88.3333 314.667L88.6667 315.333L88.3333 314.667M141 314L141 319L142 319L142 315L144 315L144 319L145 319L145 315L147 315L147 319L148 319L148 314L141 314M199 314L199 319L200 319L200 315L202 315L202 319L203 319L203 315L205 315L205 319L206 319L206 314L199 314z"/>
<path style="fill:#3d50ab; stroke:none;" d="M195 316L196 317L195 316z"/>
</svg>
