<svg width="300" height="40" viewBox="0 0 300 40" fill="none" xmlns="http://www.w3.org/2000/svg" xmlns:xlink="http://www.w3.org/1999/xlink">

<g transform="translate(130.000000, 0.000000) scale(2.000000 2.000000) "> 

<g clip-path="url(#clip0)">
<path opacity="0.953" d="M9.99934 0C15.514 0 20 4.44646 20 10C20 15.5172 15.514 20 9.99934 20C4.48599 20 0 15.5172 0 10C0 4.44646 4.48599 0 9.99934 0V0Z" fill="#60BE60"/>
<path opacity="0.95" fill-rule="evenodd" clip-rule="evenodd" d="M10 19C14.9706 19 19 14.9706 19 10C19 5.02944 14.9706 1 10 1C5.02944 1 1 5.02944 1 10C1 14.9706 5.02944 19 10 19ZM10 20C15.5228 20 20 15.5228 20 10C20 4.47715 15.5228 0 10 0C4.47715 0 0 4.47715 0 10C0 15.5228 4.47715 20 10 20Z" fill="#398C39"/>
</g>
<defs>
<clipPath id="clip0">
<path d="M0 0H20V20H0V0Z" fill="white"/>
</clipPath>
</defs>

</g>%n%n
<g transform="translate(138.000000, 8.000000) scale(0.750000 0.750000) "> 

<path fill-rule="evenodd" fill="rgb(100%, 100%, 100%)" fill-opacity="1" d="M 27.125 16.457031 L 15.542969 4.875 C 14.128906 3.460938 12.210938 2.667969 10.210938 2.667969 C 6.042969 2.667969 2.667969 6.042969 2.667969 10.210938 C 2.667969 12.210938 3.460938 14.128906 4.875 15.542969 L 16.457031 27.125 C 17.871094 28.539062 19.789062 29.332031 21.789062 29.332031 C 25.957031 29.332031 29.332031 25.957031 29.332031 21.789062 C 29.332031 19.789062 28.539062 17.871094 27.125 16.457031 Z M 20.78125 13.886719 L 25.238281 18.34375 C 26.152344 19.257812 26.667969 20.496094 26.667969 21.789062 C 26.667969 24.484375 24.484375 26.667969 21.789062 26.667969 C 20.496094 26.667969 19.257812 26.152344 18.34375 25.238281 L 13.886719 20.78125 Z M 20.78125 13.886719 "/>

</g>%n%n</svg>