<svg width="300" height="40" viewBox="0 0 300 40" fill="none" xmlns="http://www.w3.org/2000/svg" >

<g transform="translate(130.000000, 0.000000) scale(2.000000 2.000000) "> 

<g clip-path="url(#clip0)">
<path opacity="0.953" d="M9.9994 1C14.9626 1 19 5.00182 19 10C19 14.9655 14.9626 19 9.9994 19C5.03739 19 1 14.9655 1 10C1 5.00182 5.03739 1 9.9994 1Z" fill="#EE6C99"/>
<path opacity="0.95" fill-rule="evenodd" clip-rule="evenodd" d="M10 19C14.9706 19 19 14.9706 19 10C19 5.02944 14.9706 1 10 1C5.02944 1 1 5.02944 1 10C1 14.9706 5.02944 19 10 19ZM10 20C15.5228 20 20 15.5228 20 10C20 4.47715 15.5228 0 10 0C4.47715 0 0 4.47715 0 10C0 15.5228 4.47715 20 10 20Z" fill="#E72B6C"/>
</g>
<defs>
<clipPath id="clip0">
<path d="M0 0H20V20H0V0Z" fill="white"/>
</clipPath>
</defs>

</g>


<g transform="translate(138.000000, 8.000000) scale(0.500000 0.500000) "> 

<path opacity="0.8" d="M44 32H36V36H28V40H20V44H44V32Z" fill="#ffffff"/>
<path opacity="0.5" fill-rule="evenodd" clip100-rule="evenodd" d="M20 24H44V32H40V28H24V40H20V24Z" fill="#ffffff"/>
<path fill-rule="evenodd" clip100-rule="evenodd" d="M18 12C20.2092 12 22 10.2091 22 8C22 5.79086 20.2092 4 18 4C15.7909 4 14 5.79086 14 8C14 10.2091 15.7909 12 18 12ZM12.8651 14.3065C14.5964 12.5752 17.4036 12.5751 19.135 14.3065C19.472 14.6435 19.7524 15.0326 19.9655 15.4588L20.3238 16.1754C21.0813 17.6904 22.3097 18.9187 23.8246 19.6762L28.8945 22.2111L27.1056 25.7889L22.0357 23.2539C21.3108 22.8914 20.6293 22.4576 20 21.9612V29.1716L24 33.1716V40H20V34.8284L16.8658 31.6942L16 42.0832V44H12V41.9168L13.9172 18.9113L11.7481 21.0804L9.89739 26.6325L6.10266 25.3675L8.25196 18.9196L12.8651 14.3065Z" fill="#ffffff"/>

</g>

</svg>