<svg width="300" height="40" viewBox="0 0 300 40" fill="none" xmlns="http://www.w3.org/2000/svg" xmlns:xlink="http://www.w3.org/1999/xlink" version="1.1">

<g transform="translate(130.000000, 0.000000) scale(2.000000 2.000000) "> 

<g clip-path="url(#clip0)">
<path opacity="0.953" d="M9.9994 1C14.9626 1 19 5.00182 19 10C19 14.9655 14.9626 19 9.9994 19C5.03739 19 1 14.9655 1 10C1 5.00182 5.03739 1 9.9994 1Z" fill="#EE6C99"/>
<path opacity="0.95" fill-rule="evenodd" clip-rule="evenodd" d="M10 19C14.9706 19 19 14.9706 19 10C19 5.02944 14.9706 1 10 1C5.02944 1 1 5.02944 1 10C1 14.9706 5.02944 19 10 19ZM10 20C15.5228 20 20 15.5228 20 10C20 4.47715 15.5228 0 10 0C4.47715 0 0 4.47715 0 10C0 15.5228 4.47715 20 10 20Z" fill="#E72B6C"/>
</g>
<defs>
<clipPath id="clip0">
<path d="M0 0H20V20H0V0Z" fill="white"/>
</clipPath>
</defs>

</g>%n%n
<g transform="translate(138.000000, 8.000000) scale(2.000000 2.000000) "> 

<g id="surface1">
<path style=" stroke:none;fill-rule:evenodd;fill:rgb(100%,100%,100%);fill-opacity:1;" d="M 10.171875 6.171875 L 5.828125 1.828125 C 5.296875 1.296875 4.578125 1 3.828125 1 C 2.265625 1 1 2.265625 1 3.828125 C 1 4.578125 1.296875 5.296875 1.828125 5.828125 L 6.171875 10.171875 C 6.703125 10.703125 7.421875 11 8.171875 11 C 9.734375 11 11 9.734375 11 8.171875 C 11 7.421875 10.703125 6.703125 10.171875 6.171875 Z M 7.792969 5.207031 L 9.464844 6.878906 C 9.808594 7.222656 10 7.6875 10 8.171875 C 10 9.179688 9.179688 10 8.171875 10 C 7.6875 10 7.222656 9.808594 6.878906 9.464844 L 5.207031 7.792969 Z M 7.792969 5.207031 "/>
</g>

</g>%n%n</svg>