<svg width="300" height="40" viewBox="0 0 300 40" fill="none" xmlns="http://www.w3.org/2000/svg" >

<g transform="translate(130.000000, 0.000000) scale(2.000000 2.000000) "> 

<g clip-path="url(#clip0)">
<path opacity="0.953" d="M9.9994 1C14.9626 1 19 5.00182 19 10C19 14.9655 14.9626 19 9.9994 19C5.03739 19 1 14.9655 1 10C1 5.00182 5.03739 1 9.9994 1Z" fill="#EE6C99"/>
<path opacity="0.95" fill-rule="evenodd" clip-rule="evenodd" d="M10 19C14.9706 19 19 14.9706 19 10C19 5.02944 14.9706 1 10 1C5.02944 1 1 5.02944 1 10C1 14.9706 5.02944 19 10 19ZM10 20C15.5228 20 20 15.5228 20 10C20 4.47715 15.5228 0 10 0C4.47715 0 0 4.47715 0 10C0 15.5228 4.47715 20 10 20Z" fill="#E72B6C"/>
</g>
<defs>
<clipPath id="clip0">
<path d="M0 0H20V20H0V0Z" fill="white"/>
</clipPath>
</defs>

</g>


<g transform="translate(138.000000, 8.000000) scale(0.500000 0.500000) "> 

<path fill-rule="evenodd" clip100-rule="evenodd" d="M40.6863 24.6863L23.3137 7.31371C21.192 5.19198 18.3143 4 15.3137 4C9.06532 4 4 9.06532 4 15.3137C4 18.3143 5.19198 21.192 7.31371 23.3137L24.6863 40.6863C26.808 42.808 29.6857 44 32.6863 44C38.9347 44 44 38.9347 44 32.6863C44 29.6857 42.808 26.808 40.6863 24.6863ZM31.1716 20.8284L37.8579 27.5147C39.2295 28.8863 40 30.7466 40 32.6863C40 36.7255 36.7255 40 32.6863 40C30.7466 40 28.8863 39.2295 27.5147 37.8579L20.8284 31.1716L31.1716 20.8284Z" fill="#ffffff"/>

</g>

</svg>