<svg width="300" height="35" viewBox="0 0 300 35" fill="none" xmlns="http://www.w3.org/2000/svg">

<g transform="translate(135.000000, 2.000000) scale(1.500000 1.500000) "> 

<g clip-path="url(#clip0)">
<path opacity="0.954" d="M9.9994 1C14.9626 1 19 5.00182 19 10C19 14.9655 14.9626 19 9.9994 19C5.03739 19 1 14.9655 1 10C1 5.00182 5.03739 1 9.9994 1Z" fill="#B72A5C"/>
<path opacity="0.95" fill-rule="evenodd" clip-rule="evenodd" d="M10 19C14.9706 19 19 14.9706 19 10C19 5.02944 14.9706 1 10 1C5.02944 1 1 5.02944 1 10C1 14.9706 5.02944 19 10 19ZM10 20C15.5228 20 20 15.5228 20 10C20 4.47715 15.5228 0 10 0C4.47715 0 0 4.47715 0 10C0 15.5228 4.47715 20 10 20Z" fill="#DB628D"/>
</g>
<defs>
<clipPath id="clip0">
<path d="M0 0H20V20H0V0Z" fill="white"/>
</clipPath>
</defs>

</g>


<g transform="translate(141.000000, 8.000000) scale(0.375000 0.375000) "> 
<path style="color:#000;font-style:normal;font-variant:normal;font-weight:400;font-stretch:normal;font-size:medium;line-height:normal;font-family:sans-serif;font-variant-ligatures:normal;font-variant-position:normal;font-variant-caps:normal;font-variant-numeric:normal;font-variant-alternates:normal;font-feature-settings:normal;text-indent:0;text-align:start;text-decoration:none;text-decoration-line:none;text-decoration-style:solid;text-decoration-color:#000;letter-spacing:normal;word-spacing:normal;text-transform:none;writing-mode:lr-tb;direction:ltr;text-orientation:mixed;dominant-baseline:auto;baseline-shift:baseline;text-anchor:start;white-space:normal;shape-padding:0;clip100-rule:nonzero;display:inline;overflow:visible;visibility:visible;opacity:1;isolation:auto;mix-blend-mode:normal;color-interpolation:sRGB;color-interpolation-filters:linearRGB;solid-color:#000;solid-opacity:1;vector-effect:none;fill:#fff;fill-opacity:1;fill-rule:evenodd;stroke:none;stroke-width:4;stroke-linecap:round;stroke-linejoin:miter;stroke-miterlimit:4;stroke-dasharray:none;stroke-dashoffset:0;stroke-opacity:1;color-rendering:auto;image-rendering:auto;shape-rendering:auto;text-rendering:auto;enable-background:accumulate" d="M24 4L5.07 14.23a2 2 0 1 0 1.9 3.52L24 8.55l17.02 9.2a2 2 0 1 0 1.9-3.52z" id="path823"/><path style="color:#000;clip100-rule:nonzero;display:inline;overflow:visible;visibility:visible;opacity:1;isolation:auto;mix-blend-mode:normal;color-interpolation:sRGB;color-interpolation-filters:linearRGB;solid-color:#000;solid-opacity:1;vector-effect:none;fill:#fff;fill-opacity:1;fill-rule:nonzero;stroke:none;stroke-width:4;stroke-linecap:round;stroke-linejoin:miter;stroke-miterlimit:4;stroke-dasharray:none;stroke-dashoffset:0;stroke-opacity:1;marker:none;paint-order:normal;color-rendering:auto;image-rendering:auto;shape-rendering:auto;text-rendering:auto;enable-background:accumulate" d="M24 12L8 21.1V42h32V21.1L24 12zm-4.92 10c1.69 0 3.26.76 4.2 2.04L24 25l.71-.96a5.23 5.23 0 0 1 4.2-2.04c2.81 0 5.09 2.08 5.09 4.65v.28c0 1.33-.58 2.6-1.61 3.52L24 38l-8.39-7.55A4.73 4.73 0 0 1 14 26.93v-.28c0-2.57 2.28-4.65 5.08-4.65z" id="rect825"/>
</g>

</svg>