<svg width="300" height="40" viewBox="0 0 300 40" fill="none" xmlns="http://www.w3.org/2000/svg" xmlns:xlink="http://www.w3.org/1999/xlink">

<g transform="translate(130.000000, 0.000000) scale(2.000000 2.000000) "> 

<g clip-path="url(#clip0)">
<path opacity="0.953" d="M9.9994 1C14.9626 1 19 5.00182 19 10C19 14.9655 14.9626 19 9.9994 19C5.03739 19 1 14.9655 1 10C1 5.00182 5.03739 1 9.9994 1Z" fill="#EE6C99"/>
<path opacity="0.95" fill-rule="evenodd" clip-rule="evenodd" d="M10 19C14.9706 19 19 14.9706 19 10C19 5.02944 14.9706 1 10 1C5.02944 1 1 5.02944 1 10C1 14.9706 5.02944 19 10 19ZM10 20C15.5228 20 20 15.5228 20 10C20 4.47715 15.5228 0 10 0C4.47715 0 0 4.47715 0 10C0 15.5228 4.47715 20 10 20Z" fill="#E72B6C"/>
</g>
<defs>
<clipPath id="clip0">
<path d="M0 0H20V20H0V0Z" fill="white"/>
</clipPath>
</defs>

</g>%n%n
<g transform="translate(138.000000, 8.000000) scale(0.750000 0.750000) "> 

<path fill-rule="nonzero" fill="rgb(100%, 100%, 100%)" fill-opacity="1" d="M 13.332031 21.332031 C 14.070312 21.332031 14.667969 20.738281 14.667969 20 C 14.667969 19.261719 14.070312 18.667969 13.332031 18.667969 C 12.597656 18.667969 12 19.261719 12 20 C 12 20.738281 12.597656 21.332031 13.332031 21.332031 Z M 13.332031 21.332031 "/>
<path fill-rule="nonzero" fill="rgb(100%, 100%, 100%)" fill-opacity="1" d="M 18.667969 21.332031 C 19.402344 21.332031 20 20.738281 20 20 C 20 19.261719 19.402344 18.667969 18.667969 18.667969 C 17.929688 18.667969 17.332031 19.261719 17.332031 20 C 17.332031 20.738281 17.929688 21.332031 18.667969 21.332031 Z M 18.667969 21.332031 "/>
<path fill-rule="evenodd" fill="rgb(100%, 100%, 100%)" fill-opacity="1" d="M 6.667969 4 C 6.667969 4 9.332031 0 16 0 C 22.667969 0 25.332031 4 25.332031 4 L 23.097656 10.703125 C 25.289062 12.65625 26.667969 15.5 26.667969 18.667969 C 26.667969 24.558594 21.890625 29.332031 16 29.332031 C 10.109375 29.332031 5.332031 24.558594 5.332031 18.667969 C 5.332031 15.5 6.710938 12.65625 8.902344 10.703125 Z M 24 18.667969 C 24 23.085938 20.417969 26.667969 16 26.667969 C 11.582031 26.667969 8 23.085938 8 18.667969 L 8 18.570312 C 8.4375 18.632812 8.878906 18.667969 9.332031 18.667969 C 12.933594 18.667969 16.058594 16.628906 17.613281 13.644531 C 19.042969 15.929688 21.3125 17.636719 23.992188 18.328125 C 23.996094 18.441406 24 18.554688 24 18.667969 Z M 14.667969 2.667969 L 14.667969 5.332031 L 12 5.332031 L 12 8 L 14.667969 8 L 14.667969 10.667969 L 17.332031 10.667969 L 17.332031 8 L 20 8 L 20 5.332031 L 17.332031 5.332031 L 17.332031 2.667969 Z M 14.667969 2.667969 "/>

</g>%n%n</svg>