<svg width="300" height="40" viewBox="0 0 300 40" fill="none" xmlns="http://www.w3.org/2000/svg" xmlns:xlink="http://www.w3.org/1999/xlink" version="1.1">

<g transform="translate(130.000000, 0.000000) scale(2.000000 2.000000) "> 

<g clip-path="url(#clip0)">
<path opacity="0.953" d="M9.9994 1C14.9626 1 19 5.00182 19 10C19 14.9655 14.9626 19 9.9994 19C5.03739 19 1 14.9655 1 10C1 5.00182 5.03739 1 9.9994 1Z" fill="#EE6C99"/>
<path opacity="0.95" fill-rule="evenodd" clip-rule="evenodd" d="M10 19C14.9706 19 19 14.9706 19 10C19 5.02944 14.9706 1 10 1C5.02944 1 1 5.02944 1 10C1 14.9706 5.02944 19 10 19ZM10 20C15.5228 20 20 15.5228 20 10C20 4.47715 15.5228 0 10 0C4.47715 0 0 4.47715 0 10C0 15.5228 4.47715 20 10 20Z" fill="#E72B6C"/>
</g>
<defs>
<clipPath id="clip0">
<path d="M0 0H20V20H0V0Z" fill="white"/>
</clipPath>
</defs>

</g>%n%n
<g transform="translate(138.000000, 8.000000) scale(2.000000 2.000000) "> 

<g id="surface1">
<path style=" stroke:none;fill-rule:evenodd;fill:rgb(100%,100%,100%);fill-opacity:1;" d="M 6 1 L 1.265625 3.558594 C 1.023438 3.6875 0.933594 3.992188 1.066406 4.234375 C 1.195312 4.476562 1.5 4.570312 1.742188 4.4375 L 6 2.136719 L 10.253906 4.4375 C 10.496094 4.570312 10.800781 4.476562 10.933594 4.234375 C 11.0625 3.992188 10.972656 3.6875 10.730469 3.558594 Z M 6 1 "/>
<path style=" stroke:none;fill-rule:nonzero;fill:rgb(100%,100%,100%);fill-opacity:1;" d="M 6 3 L 2 5.273438 L 2 10.5 L 10 10.5 L 10 5.273438 Z M 4.769531 5.5 C 5.191406 5.5 5.585938 5.691406 5.820312 6.011719 L 6 6.25 L 6.175781 6.011719 C 6.429688 5.683594 6.816406 5.496094 7.226562 5.5 C 7.929688 5.5 8.5 6.019531 8.5 6.664062 L 8.5 6.734375 C 8.5 7.066406 8.355469 7.382812 8.097656 7.613281 L 6 9.5 L 3.902344 7.613281 C 3.648438 7.390625 3.503906 7.070312 3.5 6.734375 L 3.5 6.664062 C 3.5 6.019531 4.070312 5.5 4.769531 5.5 Z M 4.769531 5.5 "/>
</g>

</g>%n%n</svg>