<svg width="300" height="35" viewBox="0 0 300 35" fill="none" xmlns="http://www.w3.org/2000/svg">

<g transform="translate(140.000000, 7.000000) scale(1.000000 1.000000) "> 

<g clip-path="url(#clip0)">
<path opacity="0.953" d="M9.9994 1C14.9626 1 19 5.00182 19 10C19 14.9655 14.9626 19 9.9994 19C5.03739 19 1 14.9655 1 10C1 5.00182 5.03739 1 9.9994 1Z" fill="#EE6C99"/>
<path opacity="0.95" fill-rule="evenodd" clip-rule="evenodd" d="M10 19C14.9706 19 19 14.9706 19 10C19 5.02944 14.9706 1 10 1C5.02944 1 1 5.02944 1 10C1 14.9706 5.02944 19 10 19ZM10 20C15.5228 20 20 15.5228 20 10C20 4.47715 15.5228 0 10 0C4.47715 0 0 4.47715 0 10C0 15.5228 4.47715 20 10 20Z" fill="#E72B6C"/>
</g>
<defs>
<clipPath id="clip0">
<path d="M0 0H20V20H0V0Z" fill="white"/>
</clipPath>
</defs>

</g>


<g transform="translate(144.000000, 11.000000) scale(0.250000 0.250000) "> 

<path d="M16 14V34C16 39.5228 20.4772 44 26 44V32C24.8954 32 24 31.1046 24 30V18C24 16.8954 24.8954 16 26 16V4C20.4772 4 16 8.47715 16 14Z" fill="#ffffff"/>
<path d="M28 4H30C31.1046 4 32 4.89543 32 6V14C32 15.1046 31.1046 16 30 16H28V4Z" fill="#ffffff"/>
<path d="M28 32H30C31.1046 32 32 32.8954 32 34V42C32 43.1046 31.1046 44 30 44H28V32Z" fill="#ffffff"/>

</g>

</svg>