<svg width="300" height="40" viewBox="0 0 300 40" fill="none" xmlns="http://www.w3.org/2000/svg" xmlns:xlink="http://www.w3.org/1999/xlink" version="1.1">

<g transform="translate(130.000000, 0.000000) scale(2.000000 2.000000) "> 

<g clip-path="url(#clip0)">
<path opacity="0.953" d="M9.9994 1C14.9626 1 19 5.00182 19 10C19 14.9655 14.9626 19 9.9994 19C5.03739 19 1 14.9655 1 10C1 5.00182 5.03739 1 9.9994 1Z" fill="#EE6C99"/>
<path opacity="0.95" fill-rule="evenodd" clip-rule="evenodd" d="M10 19C14.9706 19 19 14.9706 19 10C19 5.02944 14.9706 1 10 1C5.02944 1 1 5.02944 1 10C1 14.9706 5.02944 19 10 19ZM10 20C15.5228 20 20 15.5228 20 10C20 4.47715 15.5228 0 10 0C4.47715 0 0 4.47715 0 10C0 15.5228 4.47715 20 10 20Z" fill="#E72B6C"/>
</g>
<defs>
<clipPath id="clip0">
<path d="M0 0H20V20H0V0Z" fill="white"/>
</clipPath>
</defs>

</g>%n%n
<g transform="translate(138.000000, 8.000000) scale(2.000000 2.000000) "> 

<g id="surface1">
<path style=" stroke:none;fill-rule:nonzero;fill:rgb(100%,100%,100%);fill-opacity:1;" d="M 5.5 6 L 5.5 7 L 4.5 7 L 4.5 8 L 5.5 8 L 5.5 9 L 6.5 9 L 6.5 8 L 7.5 8 L 7.5 7 L 6.5 7 L 6.5 6 Z M 5.5 6 "/>
<path style=" stroke:none;fill-rule:evenodd;fill:rgb(100%,100%,100%);fill-opacity:1;" d="M 3 4 L 2 4 C 1.449219 4 1 4.449219 1 5 L 1 10 C 1 10.550781 1.449219 11 2 11 L 10 11 C 10.550781 11 11 10.550781 11 10 L 11 5 C 11 4.449219 10.550781 4 10 4 L 9 4 L 9 2.5 C 9 1.671875 8.328125 1 7.5 1 L 4.5 1 C 3.671875 1 3 1.671875 3 2.5 Z M 4 2.5 C 4 2.222656 4.222656 2 4.5 2 L 7.5 2 C 7.777344 2 8 2.222656 8 2.5 L 8 4 L 4 4 Z M 8.5 7.5 C 8.5 8.878906 7.378906 10 6 10 C 4.621094 10 3.5 8.878906 3.5 7.5 C 3.5 6.121094 4.621094 5 6 5 C 7.378906 5 8.5 6.121094 8.5 7.5 Z M 8.5 7.5 "/>
</g>

</g>%n%n</svg>