<svg width="300" height="40" viewBox="0 0 300 40" fill="none" xmlns="http://www.w3.org/2000/svg" xmlns:xlink="http://www.w3.org/1999/xlink">

<g transform="translate(130.000000, 0.000000) scale(2.000000 2.000000) "> 

<g clip-path="url(#clip0)">
<path opacity="0.953" d="M9.9994 1C14.9626 1 19 5.00182 19 10C19 14.9655 14.9626 19 9.9994 19C5.03739 19 1 14.9655 1 10C1 5.00182 5.03739 1 9.9994 1Z" fill="#EE6C99"/>
<path opacity="0.95" fill-rule="evenodd" clip-rule="evenodd" d="M10 19C14.9706 19 19 14.9706 19 10C19 5.02944 14.9706 1 10 1C5.02944 1 1 5.02944 1 10C1 14.9706 5.02944 19 10 19ZM10 20C15.5228 20 20 15.5228 20 10C20 4.47715 15.5228 0 10 0C4.47715 0 0 4.47715 0 10C0 15.5228 4.47715 20 10 20Z" fill="#E72B6C"/>
</g>
<defs>
<clipPath id="clip0">
<path d="M0 0H20V20H0V0Z" fill="white"/>
</clipPath>
</defs>

</g>%n%n
<g transform="translate(138.000000, 8.000000) scale(2.000000 2.000000) "> 

<defs>
<filter id="filter-remove-color" x="0%" y="0%" width="100%" height="100%">
<feColorMatrix color-interpolation-filters="sRGB" values="0 0 0 0 1 0 0 0 0 1 0 0 0 0 1 0 0 0 1 0" />
</filter>
<mask id="mask-0">
<g filter="url(#filter-remove-color)">
<rect x="-1.2" y="-1.2" width="14.4" height="14.4" fill="rgb(0%, 0%, 0%)" fill-opacity="0.8"/>
</g>
</mask>
<clip100Path id="clip100-0">
<rect x="0" y="0" width="12" height="12"/>
</clip100Path>
<g id="source-6" clip100-path="url(#clip100-0)">
<path fill-rule="nonzero" fill="rgb(100%, 100%, 100%)" fill-opacity="1" d="M 11 8 L 9 8 L 9 9 L 7 9 L 7 10 L 5 10 L 5 11 L 11 11 Z M 11 8 "/>
</g>
<mask id="mask-1">
<g filter="url(#filter-remove-color)">
<rect x="-1.2" y="-1.2" width="14.4" height="14.4" fill="rgb(0%, 0%, 0%)" fill-opacity="0.5"/>
</g>
</mask>
<clip100Path id="clip100-1">
<rect x="0" y="0" width="12" height="12"/>
</clip100Path>
<g id="source-10" clip100-path="url(#clip100-1)">
<path fill-rule="evenodd" fill="rgb(100%, 100%, 100%)" fill-opacity="1" d="M 5 6 L 11 6 L 11 8 L 10 8 L 10 7 L 6 7 L 6 10 L 5 10 Z M 5 6 "/>
</g>
</defs>
<g mask="url(#mask-0)">
<use xlink:href="#source-6"/>
</g>
<g mask="url(#mask-1)">
<use xlink:href="#source-10"/>
</g>
<path fill-rule="evenodd" fill="rgb(100%, 100%, 100%)" fill-opacity="1" d="M 4.5 3 C 5.050781 3 5.5 2.550781 5.5 2 C 5.5 1.449219 5.050781 1 4.5 1 C 3.949219 1 3.5 1.449219 3.5 2 C 3.5 2.550781 3.949219 3 4.5 3 Z M 3.214844 3.578125 C 3.648438 3.144531 4.351562 3.144531 4.785156 3.578125 C 4.867188 3.660156 4.9375 3.757812 4.992188 3.863281 L 5.082031 4.042969 C 5.269531 4.421875 5.578125 4.730469 5.957031 4.917969 L 7.222656 5.554688 L 6.777344 6.445312 L 5.507812 5.8125 C 5.328125 5.722656 5.15625 5.613281 5 5.492188 L 5 7.292969 L 6 8.292969 L 6 10 L 5 10 L 5 8.707031 L 4.214844 7.921875 L 4 10.519531 L 4 11 L 3 11 L 3 10.480469 L 3.480469 4.726562 L 2.9375 5.269531 L 2.472656 6.65625 L 1.527344 6.34375 L 2.0625 4.730469 Z M 3.214844 3.578125 "/>

</g>%n%n</svg>