<svg width="300" height="35" viewBox="0 0 300 35" fill="none" xmlns="http://www.w3.org/2000/svg">

<g transform="translate(135.000000, 2.000000) scale(1.500000 1.500000) "> 

<g clip-path="url(#clip0)">
<path opacity="0.954" d="M9.9994 1C14.9626 1 19 5.00182 19 10C19 14.9655 14.9626 19 9.9994 19C5.03739 19 1 14.9655 1 10C1 5.00182 5.03739 1 9.9994 1Z" fill="#B72A5C"/>
<path opacity="0.95" fill-rule="evenodd" clip-rule="evenodd" d="M10 19C14.9706 19 19 14.9706 19 10C19 5.02944 14.9706 1 10 1C5.02944 1 1 5.02944 1 10C1 14.9706 5.02944 19 10 19ZM10 20C15.5228 20 20 15.5228 20 10C20 4.47715 15.5228 0 10 0C4.47715 0 0 4.47715 0 10C0 15.5228 4.47715 20 10 20Z" fill="#DB628D"/>
</g>
<defs>
<clipPath id="clip0">
<path d="M0 0H20V20H0V0Z" fill="white"/>
</clipPath>
</defs>

</g>


<g transform="translate(141.000000, 8.000000) scale(0.031034 0.031034) "> 

<path fill-rule="evenodd" clip100-rule="evenodd" d="M170.725 466.051C134.41 445.568 112.277 397.678 128.62 326.102C140.084 275.891 173.491 213.923 147.888 162.324C178.946 183.79 211.236 234.838 243.802 292.492C246.048 230.143 213.694 189.291 236.951 104.09C252.909 209.495 316.923 216.028 349.421 311.903C363.245 266.826 391.999 251.989 377.967 140.058C519.272 333.038 438.735 401.591 410.509 470.618L419.644 374.704C375.326 502.813 339.818 526.447 307.745 555.114C325.67 494.977 332.739 434.841 296.326 374.704C287.486 473.441 262.536 452.894 257.504 532.277C207.616 494.624 197.37 455.999 188.423 392.973C181.636 400.348 170.175 431.174 170.725 466.051Z" fill="#ffffff"/>
<path fill-rule="evenodd" clip100-rule="evenodd" d="M274.061 5.32166C237.106 155.378 304.576 154.059 342 242.252C368.249 106.262 289.721 136.86 274.061 5.32166Z" fill="#ffffff"/>

</g>

</svg>