<svg width="300" height="40" viewBox="0 0 300 40" fill="none" xmlns="http://www.w3.org/2000/svg" xmlns:xlink="http://www.w3.org/1999/xlink" version="1.1">

<g transform="translate(130.000000, 0.000000) scale(2.000000 2.000000) "> 

<g clip-path="url(#clip0)">
<path opacity="0.953" d="M9.9994 1C14.9626 1 19 5.00182 19 10C19 14.9655 14.9626 19 9.9994 19C5.03739 19 1 14.9655 1 10C1 5.00182 5.03739 1 9.9994 1Z" fill="#EE6C99"/>
<path opacity="0.95" fill-rule="evenodd" clip-rule="evenodd" d="M10 19C14.9706 19 19 14.9706 19 10C19 5.02944 14.9706 1 10 1C5.02944 1 1 5.02944 1 10C1 14.9706 5.02944 19 10 19ZM10 20C15.5228 20 20 15.5228 20 10C20 4.47715 15.5228 0 10 0C4.47715 0 0 4.47715 0 10C0 15.5228 4.47715 20 10 20Z" fill="#E72B6C"/>
</g>
<defs>
<clipPath id="clip0">
<path d="M0 0H20V20H0V0Z" fill="white"/>
</clipPath>
</defs>

</g>%n%n
<g transform="translate(138.000000, 8.000000) scale(2.000000 2.000000) "> 

<g id="surface1">
<path style=" stroke:none;fill-rule:evenodd;fill:rgb(100%,100%,100%);fill-opacity:1;" d="M 9.5 5 C 10.878906 5 12 3.878906 12 2.5 C 12 1.121094 10.878906 0 9.5 0 C 8.121094 0 7 1.121094 7 2.5 C 7 3.878906 8.121094 5 9.5 5 Z M 9 1 L 9 2 L 8 2 L 8 3 L 9 3 L 9 4 L 10 4 L 10 3 L 11 3 L 11 2 L 10 2 L 10 1 Z M 9 1 "/>
<path style=" stroke:none;fill-rule:nonzero;fill:rgb(100%,100%,100%);fill-opacity:1;" d="M 1.292969 1.292969 C 1.683594 0.902344 2.316406 0.902344 2.707031 1.292969 L 6.207031 4.792969 L 4.792969 6.207031 L 1.292969 2.707031 C 0.902344 2.316406 0.902344 1.683594 1.292969 1.292969 Z M 1.292969 1.292969 "/>
<path style=" stroke:none;fill-rule:nonzero;fill:rgb(100%,100%,100%);fill-opacity:1;" d="M 1 7 C 1 5.914062 1.574219 4.964844 2.4375 4.4375 L 3.175781 5.175781 C 2.484375 5.492188 2 6.1875 2 7 C 2 8.105469 2.894531 9 4 9 C 4.742188 9 5.386719 8.597656 5.734375 8 L 5.5 8 C 5.222656 8 5 7.777344 5 7.5 C 5 7.222656 5.222656 7 5.5 7 L 7.5 7 C 7.777344 7 8 7.222656 8 7.5 C 8 7.777344 7.777344 8 7.5 8 L 6.828125 8 C 6.417969 9.164062 5.308594 10 4.003906 10 L 6 10 C 6.550781 10 7 10.449219 7 11 L 1 11 C 1 10.449219 1.449219 10 2 10 L 3.996094 10 C 2.34375 10 1 8.65625 1 7 Z M 1 7 "/>
</g>

</g>%n%n</svg>