<svg width="300" height="40" viewBox="0 0 300 40" fill="none" xmlns="http://www.w3.org/2000/svg" xmlns:xlink="http://www.w3.org/1999/xlink">

<g transform="translate(130.000000, 0.000000) scale(2.000000 2.000000) "> 

<g clip-path="url(#clip0)">
<path opacity="0.953" d="M9.9994 1C14.9626 1 19 5.00182 19 10C19 14.9655 14.9626 19 9.9994 19C5.03739 19 1 14.9655 1 10C1 5.00182 5.03739 1 9.9994 1Z" fill="#EE6C99"/>
<path opacity="0.95" fill-rule="evenodd" clip-rule="evenodd" d="M10 19C14.9706 19 19 14.9706 19 10C19 5.02944 14.9706 1 10 1C5.02944 1 1 5.02944 1 10C1 14.9706 5.02944 19 10 19ZM10 20C15.5228 20 20 15.5228 20 10C20 4.47715 15.5228 0 10 0C4.47715 0 0 4.47715 0 10C0 15.5228 4.47715 20 10 20Z" fill="#E72B6C"/>
</g>
<defs>
<clipPath id="clip0">
<path d="M0 0H20V20H0V0Z" fill="white"/>
</clipPath>
</defs>

</g>%n%n
<g transform="translate(138.000000, 8.000000) scale(2.000000 2.000000) "> 

<defs>
<filter id="filter-remove-color" x="0%" y="0%" width="100%" height="100%">
<feColorMatrix color-interpolation-filters="sRGB" values="0 0 0 0 1 0 0 0 0 1 0 0 0 0 1 0 0 0 1 0" />
</filter>
<mask id="mask-0">
<g filter="url(#filter-remove-color)">
<rect x="-1.2" y="-1.2" width="14.4" height="14.4" fill="rgb(0%, 0%, 0%)" fill-opacity="0.2"/>
</g>
</mask>
<clip100Path id="clip100-0">
<rect x="0" y="0" width="12" height="12"/>
</clip100Path>
<g id="source-6" clip100-path="url(#clip100-0)">
<path fill="none" stroke-width="1" stroke-linecap="butt" stroke-linejoin="miter" stroke="rgb(100%, 100%, 100%)" stroke-opacity="1" stroke-miterlimit="4" d="M 6 42 L 42 42 " transform="matrix(0.25, 0, 0, 0.25, 0, 0)"/>
</g>
</defs>
<g mask="url(#mask-0)">
<use xlink:href="#source-6"/>
</g>
<path fill-rule="nonzero" fill="rgb(100%, 100%, 100%)" fill-opacity="1" d="M 11 2.699219 L 6 0.0351562 L 1 2.699219 L 1 11 L 2 11 L 2 3.300781 L 6 1.167969 L 10 3.300781 L 10 11 L 11 11 Z M 11 2.699219 "/>
<path fill-rule="nonzero" fill="rgb(100%, 100%, 100%)" fill-opacity="1" d="M 7 3 C 7 3.550781 6.550781 4 6 4 C 5.449219 4 5 3.550781 5 3 C 5 2.449219 5.449219 2 6 2 C 6.550781 2 7 2.449219 7 3 Z M 7 3 "/>
<path fill-rule="nonzero" fill="rgb(100%, 100%, 100%)" fill-opacity="1" d="M 6 4.5 C 6.472656 4.5 6.867188 4.828125 6.972656 5.265625 L 7.5625 5.855469 C 7.65625 5.949219 7.78125 6 7.914062 6 L 8.5 6 C 8.777344 6 9 6.222656 9 6.5 C 9 6.777344 8.777344 7 8.5 7 L 7.914062 7 C 7.582031 7 7.261719 6.890625 7 6.6875 L 7 7.5 L 7.5 7.5 C 7.667969 7.5 7.824219 7.582031 7.917969 7.722656 L 8.769531 9 L 9 9 C 9.277344 9 9.5 9.222656 9.5 9.5 C 9.5 9.777344 9.277344 10 9 10 L 8.5 10 C 8.332031 10 8.175781 9.917969 8.082031 9.777344 L 7.230469 8.5 L 6 8.5 C 5.449219 8.5 5 8.050781 5 7.5 L 5 5.5 C 5 4.949219 5.449219 4.5 6 4.5 Z M 6 4.5 "/>
<path fill-rule="nonzero" fill="rgb(100%, 100%, 100%)" fill-opacity="1" d="M 4.5 6.050781 C 3.359375 6.28125 2.5 7.289062 2.5 8.5 C 2.5 9.878906 3.621094 11 5 11 C 6.007812 11 6.875 10.402344 7.273438 9.542969 L 7 9 L 6.414062 9 C 6.207031 9.582031 5.652344 10 5 10 C 4.171875 10 3.5 9.328125 3.5 8.5 C 3.5 7.847656 3.917969 7.292969 4.5 7.085938 Z M 4.5 6.050781 "/>

</g>%n%n</svg>