<svg width="300" height="35" viewBox="0 0 300 35" fill="none" xmlns="http://www.w3.org/2000/svg">

<g transform="translate(135.000000, 2.000000) scale(1.500000 1.500000) "> 

<g clip-path="url(#clip0)">
<path opacity="0.954" d="M9.9994 1C14.9626 1 19 5.00182 19 10C19 14.9655 14.9626 19 9.9994 19C5.03739 19 1 14.9655 1 10C1 5.00182 5.03739 1 9.9994 1Z" fill="#B72A5C"/>
<path opacity="0.95" fill-rule="evenodd" clip-rule="evenodd" d="M10 19C14.9706 19 19 14.9706 19 10C19 5.02944 14.9706 1 10 1C5.02944 1 1 5.02944 1 10C1 14.9706 5.02944 19 10 19ZM10 20C15.5228 20 20 15.5228 20 10C20 4.47715 15.5228 0 10 0C4.47715 0 0 4.47715 0 10C0 15.5228 4.47715 20 10 20Z" fill="#DB628D"/>
</g>
<defs>
<clipPath id="clip0">
<path d="M0 0H20V20H0V0Z" fill="white"/>
</clipPath>
</defs>

</g>


<g transform="translate(141.000000, 8.000000) scale(0.375000 0.375000) "> 

<path d="M22 24V28H18V32H22V36H26V32H30V28H26V24H22Z" fill="#ffffff"/>
<path fill-rule="evenodd" clip100-rule="evenodd" d="M12 16H8C5.79086 16 4 17.7909 4 20V40C4 42.2091 5.79086 44 8 44H40C42.2091 44 44 42.2091 44 40V20C44 17.7909 42.2091 16 40 16H36V10C36 6.68629 33.3137 4 30 4H18C14.6863 4 12 6.68629 12 10V16ZM16 10C16 8.89543 16.8954 8 18 8H30C31.1046 8 32 8.89543 32 10V16H16V10ZM34 30C34 35.5228 29.5228 40 24 40C18.4772 40 14 35.5228 14 30C14 24.4772 18.4772 20 24 20C29.5228 20 34 24.4772 34 30Z" fill="#ffffff"/>

</g>

</svg>