<svg width="300" height="35" viewBox="0 0 300 35" fill="none" xmlns="http://www.w3.org/2000/svg">

<g transform="translate(135.000000, 2.000000) scale(1.500000 1.500000) "> 

<g clip-path="url(#clip0)">
<path opacity="0.953" d="M9.9994 1C14.9626 1 19 5.00182 19 10C19 14.9655 14.9626 19 9.9994 19C5.03739 19 1 14.9655 1 10C1 5.00182 5.03739 1 9.9994 1Z" fill="#EE6C99"/>
<path opacity="0.95" fill-rule="evenodd" clip-rule="evenodd" d="M10 19C14.9706 19 19 14.9706 19 10C19 5.02944 14.9706 1 10 1C5.02944 1 1 5.02944 1 10C1 14.9706 5.02944 19 10 19ZM10 20C15.5228 20 20 15.5228 20 10C20 4.47715 15.5228 0 10 0C4.47715 0 0 4.47715 0 10C0 15.5228 4.47715 20 10 20Z" fill="#E72B6C"/>
</g>
<defs>
<clipPath id="clip0">
<path d="M0 0H20V20H0V0Z" fill="white"/>
</clipPath>
</defs>

</g>


<g transform="translate(141.000000, 8.000000) scale(0.375000 0.375000) "> 

<path d="M2.58582 5.41421L10.5858 13.4142L8.00003 16H16V8L13.4142 10.5858L5.41424 2.58578L2.58582 5.41421Z" fill="#ffffff"/>
<path d="M28 12H20V20H12V28H20V36H28V28H36V20H28V12Z" fill="#ffffff"/>
<path d="M10.5858 34.5858L2.58582 42.5858L5.41424 45.4142L13.4142 37.4142L16 40V32H8.00003L10.5858 34.5858Z" fill="#ffffff"/>
<path d="M45.4142 5.41421L37.4142 13.4142L40 16H32V8L34.5858 10.5858L42.5858 2.58578L45.4142 5.41421Z" fill="#ffffff"/>
<path d="M37.4142 34.5858L45.4142 42.5858L42.5858 45.4142L34.5858 37.4142L32 40V32H40L37.4142 34.5858Z" fill="#ffffff"/>

</g>

</svg>