<svg width="40" height="40" viewBox="0 0 40 40" fill="none" xmlns="http://www.w3.org/2000/svg" >

<g transform="translate(0.000000, 0.000000) scale(2.000000 2.000000) "> 

<g clip-path="url(#clip0)">
<path opacity="0.953" d="M9.9994 1C14.9626 1 19 5.00182 19 10C19 14.9655 14.9626 19 9.9994 19C5.03739 19 1 14.9655 1 10C1 5.00182 5.03739 1 9.9994 1Z" fill="#EE6C99"/>
<path opacity="0.95" fill-rule="evenodd" clip-rule="evenodd" d="M10 19C14.9706 19 19 14.9706 19 10C19 5.02944 14.9706 1 10 1C5.02944 1 1 5.02944 1 10C1 14.9706 5.02944 19 10 19ZM10 20C15.5228 20 20 15.5228 20 10C20 4.47715 15.5228 0 10 0C4.47715 0 0 4.47715 0 10C0 15.5228 4.47715 20 10 20Z" fill="#E72B6C"/>
</g>
<defs>
<clipPath id="clip0">
<path d="M0 0H20V20H0V0Z" fill="white"/>
</clipPath>
</defs>

</g>


<g transform="translate(8.000000, 8.000000) scale(2.000000 2.000000) "> 

<path d="M20 32C21.1046 32 22 31.1046 22 30C22 28.8954 21.1046 28 20 28C18.8954 28 18 28.8954 18 30C18 31.1046 18.8954 32 20 32Z" fill="#ffffff"/>
<path d="M28 32C29.1046 32 30 31.1046 30 30C30 28.8954 29.1046 28 28 28C26.8954 28 26 28.8954 26 30C26 31.1046 26.8954 32 28 32Z" fill="#ffffff"/>
<path fill-rule="evenodd" clip100-rule="evenodd" d="M10 6C10 6 14 0 24 0C34 0 38 6 38 6L34.6476 16.0571C37.932 18.9873 40 23.2522 40 28C40 36.8366 32.8366 44 24 44C15.1634 44 8 36.8366 8 28C8 23.2522 10.068 18.9873 13.3524 16.0571L10 6ZM36 28C36 34.6274 30.6274 40 24 40C17.3726 40 12 34.6274 12 28L12.0008 27.8583C12.6538 27.9517 13.3212 28 14 28C19.3995 28 24.0851 24.9433 26.4207 20.4659C28.5638 23.8962 31.9707 26.4559 35.9895 27.4932C35.9965 27.6613 36 27.8302 36 28ZM22 4V8H18V12H22V16H26V12H30V8H26V4H22Z" fill="#ffffff"/>

</g>

</svg>