<svg width="300" height="35" viewBox="0 0 300 35" fill="none" xmlns="http://www.w3.org/2000/svg">

<g transform="translate(135.000000, 2.000000) scale(1.500000 1.500000) "> 

<g clip-path="url(#clip0)">
<path opacity="0.953" d="M9.9994 1C14.9626 1 19 5.00182 19 10C19 14.9655 14.9626 19 9.9994 19C5.03739 19 1 14.9655 1 10C1 5.00182 5.03739 1 9.9994 1Z" fill="#EE6C99"/>
<path opacity="0.95" fill-rule="evenodd" clip-rule="evenodd" d="M10 19C14.9706 19 19 14.9706 19 10C19 5.02944 14.9706 1 10 1C5.02944 1 1 5.02944 1 10C1 14.9706 5.02944 19 10 19ZM10 20C15.5228 20 20 15.5228 20 10C20 4.47715 15.5228 0 10 0C4.47715 0 0 4.47715 0 10C0 15.5228 4.47715 20 10 20Z" fill="#E72B6C"/>
</g>
<defs>
<clipPath id="clip0">
<path d="M0 0H20V20H0V0Z" fill="white"/>
</clipPath>
</defs>

</g>


<g transform="translate(141.000000, 8.000000) scale(0.375000 0.375000) "> 

<path d="M40 0H44V4L48 4V8H44V12H40V8H36V4L40 4V0Z" fill="#ffffff"/>
<path fill-rule="evenodd" clip100-rule="evenodd" d="M21.1959 16.1421C19.4478 13.5523 16.5272 12 13.4026 12C8.20969 12 4 16.2097 4 21.4027V22.0308C4 24.7127 5.07399 27.283 6.98213 29.1675L22 44L37.0179 29.1675C38.926 27.283 40 24.7127 40 22.0308V21.4026C40 16.2097 35.7903 12 30.5974 12C27.4728 12 24.5522 13.5522 22.8041 16.1421L22 17.3333L21.1959 16.1421ZM22 20L16.3611 30H24.3611L18 38L32.3611 26H24.0824L28.6026 20H22Z" fill="#ffffff"/>

</g>

</svg>