<svg width="300" height="40" viewBox="0 0 300 40" fill="none" xmlns="http://www.w3.org/2000/svg" xmlns:xlink="http://www.w3.org/1999/xlink">

<g transform="translate(130.000000, 0.000000) scale(2.500000 2.500000) "> 

<path fill-rule="evenodd" clip-rule="evenodd" d="M6.99998 2.13147L1.1972 5.99999L5.10124 8.60268C4.25912 8.79818 3.60675 9.23865 3.16938 9.62209C2.80445 9.94203 2.4882 10.3095 2.22208 10.7146C1.78832 11.4204 2.00884 12.3442 2.71463 12.7779C3.41598 13.209 4.33261 12.9939 4.76974 12.2986C4.88224 12.146 5.00388 12.0035 5.14708 11.8779C5.42025 11.6384 5.70684 11.5 6.00003 11.5C6.34917 11.5 6.70057 11.8162 6.9874 12.0743C7.05811 12.1379 7.12489 12.198 7.18675 12.2489C7.71672 12.6854 8.70565 13.5 10 13.5C11.2569 13.5 12.219 12.8772 12.7887 12.3889C13.3941 11.87 13.7481 11.3321 13.7481 11.3321C14.2076 10.6428 14.0214 9.71145 13.3321 9.25192C12.6462 8.79468 11.7207 8.97682 11.2588 9.65773L11.168 9.7741C11.0908 9.86672 10.9772 9.99042 10.8363 10.1111C10.5311 10.3728 10.2432 10.5 10 10.5C9.88582 10.5 9.71327 10.4334 9.0085 9.86283L14.8028 5.99999L8.99998 2.13147V3.99999H6.99998V2.13147ZM8.99998 9.85593V7.99999H6.99998V8.6527C7.84558 8.91169 8.49253 9.44103 8.8958 9.77099L8.97535 9.83594C8.98363 9.84267 8.99184 9.84933 8.99998 9.85593Z" fill="#EBE7E4" fill-opacity="0.8"/>

</g>%n%n
<g transform="translate(139.000000, 9.000000) scale(0.687500 0.687500) "> 

<path fill-rule="nonzero" fill="rgb(0%, 57.254902%, 85.490196%)" fill-opacity="1" d="M 10.667969 5.332031 L 2.667969 10.667969 L 10.667969 16 L 10.667969 13.332031 L 21.332031 13.332031 L 21.332031 16 L 29.332031 10.667969 L 21.332031 5.332031 L 21.332031 8 L 10.667969 8 Z M 10.667969 5.332031 "/>
<path fill-rule="nonzero" fill="rgb(0%, 57.254902%, 85.490196%)" fill-opacity="1" d="M 5.148438 26.015625 L 5.136719 26.03125 C 4.75 26.65625 3.929688 26.855469 3.300781 26.46875 C 2.675781 26.082031 2.480469 25.261719 2.863281 24.632812 C 3.398438 23.769531 4.117188 22.996094 4.875 22.332031 C 6.152344 21.210938 8.121094 20 10.667969 20 C 13.273438 20 15.277344 21.628906 16.828125 22.894531 C 18.101562 23.925781 19.582031 25.332031 21.332031 25.332031 C 22.882812 25.332031 24.25 24.554688 25.300781 23.65625 C 25.890625 23.148438 26.445312 22.570312 26.890625 21.925781 C 27.300781 21.3125 28.128906 21.148438 28.738281 21.558594 C 29.351562 21.964844 29.515625 22.792969 29.109375 23.40625 C 28.9375 23.664062 28.742188 23.90625 28.546875 24.144531 C 28.195312 24.5625 27.6875 25.121094 27.035156 25.679688 C 25.75 26.78125 23.785156 28 21.332031 28 C 18.929688 28 17.007812 26.476562 15.238281 25.035156 C 13.519531 23.640625 12.21875 22.667969 10.667969 22.667969 C 9.003906 22.667969 7.636719 23.457031 6.632812 24.335938 C 5.769531 25.09375 5.234375 25.878906 5.148438 26.015625 Z M 5.148438 26.015625 "/>

</g>%n%n</svg>