<svg width="300" height="40" viewBox="0 0 300 40" fill="none" xmlns="http://www.w3.org/2000/svg" xmlns:xlink="http://www.w3.org/1999/xlink" version="1.1">

<g transform="translate(130.000000, 0.000000) scale(2.000000 2.000000) "> 

<path fill-rule="evenodd" clip-rule="evenodd" d="M10 1C14.9804 1 19 5.01957 19 10.0005C19 14.9511 14.9804 19 10 19C5.02065 19 1 14.9511 1 10.0005C1 5.01957 5.02065 1 10 1Z" fill="white" fill-opacity="0.65"/>
<path opacity="0.849" d="M18.0128 9.99999C18.0128 12.1251 17.1686 14.1632 15.6659 15.6659C14.1632 17.1686 12.1251 18.0128 9.99998 18.0128C7.87486 18.0128 5.83677 17.1686 4.33408 15.6659C2.83139 14.1632 1.98718 12.1251 1.98718 9.99999C1.98718 7.87486 2.83139 5.83677 4.33408 4.33408C5.83677 2.83139 7.87486 1.98718 9.99998 1.98718C12.1251 1.98718 14.1632 2.83139 15.6659 4.33408C17.1686 5.83677 18.0128 7.87486 18.0128 9.99999Z" fill="#45ABE9"/>

</g>%n%n
<g transform="translate(138.000000, 8.000000) scale(2.000000 2.000000) "> 

<g id="surface1">
<path style=" stroke:none;fill-rule:nonzero;fill:rgb(100%,100%,100%);fill-opacity:1;" d="M 2 1 L 4 1 L 4 5 L 8 5 L 8 1 L 10 1 L 10 11 L 8 11 L 8 7 L 4 7 L 4 11 L 2 11 Z M 2 1 "/>
</g>

</g>%n%n</svg>