<svg width="300" height="40" viewBox="0 0 300 40" fill="none" xmlns="http://www.w3.org/2000/svg" xmlns:xlink="http://www.w3.org/1999/xlink">

<g transform="translate(130.000000, 0.000000) scale(2.500000 2.500000) "> 

<path opacity="0.812" d="M3.02198 1.46939C2.54409 1.46941 2.22168 1.68037 1.97727 1.92478C1.73286 2.16919 1.5219 2.4916 1.52188 2.96949V10.2021C1.5219 10.68 1.73285 11.0024 1.97727 11.2468C2.22168 11.4912 2.54409 11.7022 3.02198 11.7022H4.06669C4.45072 11.7022 4.66857 11.5288 4.92389 11.3272C4.92289 11.354 4.92289 11.3808 4.92389 11.4076C4.98268 12.108 5.29728 12.7987 5.83467 13.2559C6.33407 13.6807 6.43804 13.7532 7.0468 13.9488C7.29199 14.9381 9.22042 14.7632 9.18311 13.7649C9.64691 13.6534 10.0542 13.5774 10.4421 13.2023C10.908 12.7519 11.2126 12.0983 11.2457 11.4076C11.4428 11.536 11.6077 11.7024 11.9154 11.7022H13.1477C13.6019 11.7025 13.9719 11.4138 14.112 11.2736C14.361 11.0246 14.5408 10.7367 14.5406 10.2825V6.26435C14.5408 5.81003 14.361 5.5222 14.112 5.27321C14.0101 5.1713 13.7066 5.04039 13.4155 4.95176C13.4027 4.95662 13.5886 4.8921 13.5763 4.89819C13.5639 4.90428 13.7218 4.81056 13.7102 4.81783C13.6985 4.8251 13.855 4.7023 13.8441 4.71068C13.8332 4.71905 13.9881 4.59412 13.9781 4.60353C13.9681 4.61294 14.0943 4.45925 14.0852 4.46959C14.0762 4.47993 14.2004 4.32447 14.1924 4.33565C14.1844 4.34683 14.3064 4.18981 14.2995 4.20171C14.2926 4.21362 14.3855 4.02847 14.3799 4.04099C14.3742 4.05351 14.4378 3.89404 14.4335 3.90705C14.4291 3.92006 14.4901 3.73294 14.487 3.74633C14.4839 3.75971 14.5156 3.54519 14.5138 3.55881C14.512 3.57244 14.5143 3.38436 14.5138 3.39809C14.5134 3.41182 14.5129 3.22366 14.5138 3.23736C14.5148 3.25107 14.4848 3.0363 14.487 3.04985C14.4892 3.0634 14.4567 2.87586 14.4602 2.88913C14.4638 2.90239 14.4018 2.71555 14.4067 2.7284C14.4116 2.74125 14.347 2.55537 14.3531 2.56768C14.3592 2.57999 14.2655 2.42208 14.2727 2.43374C14.28 2.44539 14.1572 2.28892 14.1656 2.2998C14.174 2.31069 14.049 2.15585 14.0584 2.16586C14.0678 2.17587 13.9141 2.04967 13.9245 2.05871C13.9348 2.06775 13.7794 1.94358 13.7906 1.95156C13.8017 1.95954 13.6447 1.83756 13.6566 1.84441C13.6685 1.85126 13.4834 1.7584 13.4959 1.76405C13.5084 1.7697 13.3489 1.70608 13.362 1.71048C13.375 1.71487 13.1878 1.6538 13.2012 1.6569C13.2146 1.66 13.0001 1.62834 13.0137 1.63011C13.0273 1.63188 12.8393 1.62969 12.853 1.63011C12.8667 1.63054 12.6786 1.63103 12.6923 1.63011C12.706 1.62919 12.4912 1.65916 12.5048 1.6569C12.478 1.6559 12.4512 1.6559 12.4244 1.6569C12.4289 1.65572 12.4 1.675 12.3708 1.68369C12.3416 1.69237 12.3128 1.71194 12.3172 1.71047L5.56678 3.21057V2.96949C5.56678 2.6663 5.46995 2.25654 5.13819 1.92478C4.80643 1.59302 4.54458 1.46941 4.06669 1.46939H3.02198ZM10.7904 5.56788C10.6542 5.76899 10.4956 5.94628 10.4957 6.26435V7.38943C10.3651 7.20868 10.2425 7.01842 10.0671 6.88047C9.82205 6.68779 9.72891 6.65917 9.50456 6.5858C9.5016 6.58483 9.50752 6.55997 9.50456 6.55902C9.50844 6.57099 9.47322 6.46692 9.47777 6.47865C9.48232 6.49039 9.44578 6.38683 9.45098 6.39829C9.45618 6.40975 9.41836 6.30678 9.42419 6.31793C9.43003 6.32908 9.36416 6.22676 9.37062 6.23757C9.37707 6.24837 9.33678 6.17357 9.34383 6.18399C9.35088 6.19442 9.28263 6.09362 9.29026 6.10363C9.29789 6.11364 9.2285 6.04049 9.23668 6.05005C9.24486 6.05962 9.1744 5.98739 9.18311 5.99648C9.1898 6.00347 9.14597 5.95934 9.12953 5.9429C9.1246 5.93797 9.1274 5.91414 9.12953 5.91612L10.7904 5.56788ZM6.74544 6.47865C6.74123 6.48877 6.71718 6.50955 6.71866 6.50544C6.72478 6.48842 6.68714 6.63005 6.69187 6.61259C6.39171 6.7288 6.21587 6.68566 5.85476 6.99431C5.69957 7.14609 5.68361 7.17427 5.57349 7.36264L5.56679 6.71974L6.74544 6.47865ZM5.56679 9.90745C5.64034 10.0335 5.65952 10.1735 5.75431 10.2825C5.66073 10.3059 5.57036 10.3421 5.48643 10.3896C5.49316 10.3286 5.56679 10.2569 5.56679 10.2021V9.90745Z" fill="#EBE7E4"/>

</g>%n%n
<g transform="translate(138.000000, 8.000000) scale(2.000000 2.000000) "> 

<defs>
<filter id="filter-remove-color" x="0%" y="0%" width="100%" height="100%">
<feColorMatrix color-interpolation-filters="sRGB" values="0 0 0 0 1 0 0 0 0 1 0 0 0 0 1 0 0 0 1 0" />
</filter>
<mask id="mask-0">
<g filter="url(#filter-remove-color)">
<rect x="-1.2" y="-1.2" width="14.4" height="14.4" fill="rgb(0%, 0%, 0%)" fill-opacity="0.75"/>
</g>
</mask>
<clip100Path id="clip100-0">
<rect x="0" y="0" width="12" height="12"/>
</clip100Path>
<g id="source-9" clip100-path="url(#clip100-0)">
<path fill-rule="nonzero" fill="rgb(26.666667%, 26.666667%, 26.666667%)" fill-opacity="1" d="M 9.421875 4.191406 C 9.34375 4.191406 9.265625 4.226562 9.210938 4.277344 C 9.15625 4.332031 9.125 4.410156 9.125 4.488281 L 9.125 8.015625 C 9.125 8.09375 9.15625 8.167969 9.210938 8.222656 C 9.265625 8.277344 9.34375 8.308594 9.421875 8.308594 L 10.492188 8.308594 C 10.570312 8.308594 10.644531 8.277344 10.699219 8.222656 C 10.753906 8.167969 10.789062 8.09375 10.785156 8.015625 L 10.785156 4.488281 C 10.789062 4.410156 10.753906 4.332031 10.699219 4.277344 C 10.644531 4.226562 10.570312 4.191406 10.492188 4.191406 Z M 9.421875 4.191406 "/>
</g>
<mask id="mask-1">
<g filter="url(#filter-remove-color)">
<rect x="-1.2" y="-1.2" width="14.4" height="14.4" fill="rgb(0%, 0%, 0%)" fill-opacity="0.75"/>
</g>
</mask>
<clip100Path id="clip100-1">
<rect x="0" y="0" width="12" height="12"/>
</clip100Path>
<g id="source-13" clip100-path="url(#clip100-1)">
<path fill-rule="nonzero" fill="rgb(26.666667%, 26.666667%, 26.666667%)" fill-opacity="1" d="M 1.628906 1.234375 C 1.535156 1.234375 1.4375 1.273438 1.371094 1.339844 C 1.304688 1.410156 1.265625 1.503906 1.265625 1.601562 L 1.265625 7.941406 C 1.265625 8.039062 1.304688 8.132812 1.371094 8.203125 C 1.4375 8.269531 1.535156 8.308594 1.628906 8.308594 L 2.558594 8.308594 C 2.65625 8.308594 2.75 8.269531 2.816406 8.203125 C 2.886719 8.132812 2.925781 8.039062 2.925781 7.941406 L 2.925781 4.746094 C 2.460938 4.890625 1.90625 4.761719 1.605469 4.371094 C 1.152344 3.824219 1.382812 2.867188 2.054688 2.613281 C 2.34375 2.542969 2.632812 2.476562 2.925781 2.410156 L 2.925781 1.601562 C 2.925781 1.503906 2.886719 1.410156 2.816406 1.339844 C 2.75 1.273438 2.65625 1.234375 2.558594 1.234375 Z M 1.628906 1.234375 "/>
</g>
</defs>
<path fill-rule="nonzero" fill="rgb(26.666667%, 26.666667%, 26.666667%)" fill-opacity="1" stroke-width="3.67408" stroke-linecap="round" stroke-linejoin="round" stroke="rgb(26.666667%, 26.666667%, 26.666667%)" stroke-opacity="1" stroke-miterlimit="4" d="M 300.00651 364.388021 C 300.195312 364.576823 301.139323 364.765625 302.838542 364.954427 C 327.760417 369.108073 350.983073 376.660156 363.632812 387.610677 C 376.282552 398.75 382.513021 413.098958 382.513021 430.846354 C 382.513021 449.160156 375.716146 464.830729 361.744792 478.235677 C 347.96224 491.640625 324.550781 498.815104 300.00651 499.947917 L 289.622396 513.541667 L 284.713542 513.541667 L 284.713542 500.325521 C 259.791667 497.871094 240.722656 491.074219 227.317708 479.746094 C 214.101562 468.417969 206.549479 452.558594 204.85026 432.167969 L 237.890625 427.070312 C 240.345052 442.552083 245.63151 454.257812 253.372396 462.565104 C 261.302083 470.872396 271.686198 475.592448 284.713542 476.72526 L 284.713542 387.610677 C 259.980469 383.079427 241.289062 375.527344 229.016927 364.765625 C 216.744792 354.192708 210.514323 340.410156 210.514323 323.606771 C 210.514323 306.992188 216.55599 292.643229 228.828125 280.748698 C 241.10026 268.854167 259.791667 261.86849 284.713542 259.980469 L 284.713542 246.575521 L 300.00651 246.575521 L 300.00651 259.980469 C 320.77474 261.679688 341.542969 267.34375 353.626302 276.783854 C 365.520833 286.223958 373.072917 299.440104 376.09375 316.432292 L 341.920573 320.585938 C 339.84375 310.013021 335.690104 301.705729 329.459635 295.47526 C 323.229167 289.244792 310.579427 285.279948 300.00651 283.580729 Z M 284.713542 360.989583 L 284.713542 283.203125 C 271.497396 285.279948 261.302083 289.811198 254.127604 296.796875 C 246.953125 303.971354 243.554688 312.089844 243.554688 321.529948 C 243.554688 332.102865 247.141927 340.598958 254.505208 346.829427 C 261.86849 352.871094 271.875 357.591146 284.713542 360.989583 Z M 300.00651 476.72526 C 312.845052 475.026042 327.760417 470.30599 336.067708 462.565104 C 344.375 454.635417 348.528646 444.817708 348.528646 432.923177 C 348.528646 422.35026 345.507812 414.042969 339.088542 407.623698 C 332.858073 401.204427 316.809896 395.917969 300.00651 391.386719 Z M 300.00651 476.72526 " transform="matrix(0.0206897, 0, 0, 0.0206897, 0, 0)"/>
<path fill="none" stroke-width="33.922699" stroke-linecap="round" stroke-linejoin="round" stroke="rgb(26.666667%, 26.666667%, 26.666667%)" stroke-opacity="1" stroke-miterlimit="4" d="M 294.342448 249.029948 L 294.342448 515.240885 " transform="matrix(0.0206897, 0, 0, 0.0206897, 0, 0)"/>
<path fill="none" stroke-width="54.685001" stroke-linecap="round" stroke-linejoin="miter" stroke="rgb(26.666667%, 26.666667%, 26.666667%)" stroke-opacity="1" stroke-miterlimit="4" d="M 121.777344 176.907552 L 491.263021 94.401042 " transform="matrix(0.0206897, 0, 0, 0.0206897, 0, 0)"/>
<g mask="url(#mask-0)">
<use xlink:href="#source-9"/>
</g>
<g mask="url(#mask-1)">
<use xlink:href="#source-13"/>
</g>

</g>%n%n</svg>