<svg width="300" height="35" viewBox="0 0 300 35" fill="none" xmlns="http://www.w3.org/2000/svg">

<g transform="translate(135.000000, 2.000000) scale(1.875000 1.875000) "> 

<g clip-path="url(#clip0)">
<path d="M10 3C10 3.52326 9.79906 3.99958 9.47013 4.35601C9.97416 4.78449 10.4207 5.29954 10.8883 5.76722L11.6706 6.15836C12.4116 6.52884 12.7119 7.42985 12.3414 8.17082C11.971 8.91179 11.0699 9.21212 10.329 8.84164L9.59619 8.47524L10.3934 9.27241C10.6678 9.54685 10.8746 9.88142 10.9973 10.2496L11.9226 13.0257C12.1846 13.8116 11.7599 14.6611 10.974 14.923C10.188 15.185 9.33857 14.7603 9.0766 13.9743L8.22182 11.41L6.84142 14.1708C6.47094 14.9118 5.56993 15.2121 4.82896 14.8416C4.08799 14.4712 3.78766 13.5701 4.15814 12.8292L5.57344 9.99858C5.39264 10.0076 5.20716 9.98372 5.02509 9.92303C4.23917 9.66105 3.81443 8.81157 4.07641 8.02566L4.57641 6.52566C4.65007 6.30466 4.7742 6.10386 4.93894 5.93917C5.4635 5.41478 5.96449 4.83628 6.52975 4.35588C6.20089 3.99946 6 3.52319 6 3C6 1.89543 6.89543 1 8 1C9.10457 1 10 1.89543 10 3Z" fill="#EBE7E4" fill-opacity="0.8"/>
</g>
<defs>
<clipPath id="clip0">
<path d="M0 0H16V16H0V0Z" fill="white"/>
</clipPath>
</defs>

</g>


<g transform="translate(141.000000, 8.000000) scale(0.375000 0.375000) "> 

<path d="M27.9986 4C27.9986 6.20914 26.2077 8 23.9986 8C21.7895 8 19.9986 6.20914 19.9986 4C19.9986 1.79086 21.7895 0 23.9986 0C26.2077 0 27.9986 1.79086 27.9986 4Z" fill="#0092DA"/>
<path fill-rule="evenodd" clip100-rule="evenodd" d="M23.8724 30.7008C23.8479 30.7661 23.8197 30.8307 23.7879 30.8944L15.7879 46.8944C15.2939 47.8824 14.0926 48.2828 13.1046 47.7888C12.1166 47.2949 11.7162 46.0935 12.2102 45.1056L19.9986 29.5287V18.5285L17.7446 21.0805L15.894 26.6325C15.5447 27.6803 14.4121 28.2467 13.3642 27.8974C12.3163 27.5481 11.75 26.4154 12.0993 25.3675L14.0993 19.3675C14.1975 19.0729 14.363 18.8051 14.5827 18.5856L19.1506 13.0306C19.7093 12.3511 20.4071 11.7955 21.1939 11.4021C22.9555 10.5213 25.0348 10.5185 26.7965 11.3993C27.5884 11.7953 28.2873 12.3548 28.8469 13.0409L33.1828 18.3563L36.8925 20.2111C37.8804 20.7051 38.2809 21.9065 37.7869 22.8944C37.2929 23.8824 36.0916 24.2828 35.1036 23.7889L31.1036 21.7889C30.9114 21.6927 30.7358 21.5662 30.5838 21.4142L27.9986 18.5038V29.1702L30.7465 31.9181C31.4052 32.5767 31.9014 33.3797 32.196 34.2634L35.8974 45.3675C36.2467 46.4154 35.6803 47.5481 34.6325 47.8974C33.5846 48.2467 32.4519 47.6803 32.1026 46.6325L28.4012 35.5283C28.3031 35.2337 28.1376 34.9661 27.9181 34.7465L23.8724 30.7008Z" fill="#0092DA"/>

</g>

</svg>