<svg width="300" height="40" viewBox="0 0 300 40" fill="none" xmlns="http://www.w3.org/2000/svg" xmlns:xlink="http://www.w3.org/1999/xlink">

<g transform="translate(130.000000, 0.000000) scale(2.000000 2.000000) "> 

<g clip-path="url(#clip0)">
<path opacity="0.949" d="M9.9994 1C14.9626 1 19 5.00181 19 10C19 14.9655 14.9626 19 9.9994 19C5.0374 19 1 14.9655 1 10C1 5.00181 5.0374 1 9.9994 1Z" fill="#45ABE9"/>
<path opacity="0.95" fill-rule="evenodd" clip-rule="evenodd" d="M10 19C14.9706 19 19 14.9706 19 10C19 5.02944 14.9706 1 10 1C5.02944 1 1 5.02944 1 10C1 14.9706 5.02944 19 10 19ZM10 20C15.5228 20 20 15.5228 20 10C20 4.47715 15.5228 0 10 0C4.47715 0 0 4.47715 0 10C0 15.5228 4.47715 20 10 20Z" fill="#1578B3"/>
</g>
<defs>
<clipPath id="clip0">
<path d="M0 0H20V20H0V0Z" fill="white"/>
</clipPath>
</defs>

</g>%n%n
<g transform="translate(138.000000, 8.000000) scale(0.750000 0.750000) "> 

<defs>
<filter id="filter-remove-color" x="0%" y="0%" width="100%" height="100%">
<feColorMatrix color-interpolation-filters="sRGB" values="0 0 0 0 1 0 0 0 0 1 0 0 0 0 1 0 0 0 1 0" />
</filter>
<mask id="mask-0">
<g filter="url(#filter-remove-color)">
<rect x="-3.2" y="-3.2" width="38.4" height="38.4" fill="rgb(0%, 0%, 0%)" fill-opacity="0.5"/>
</g>
</mask>
<clip100Path id="clip100-0">
<rect x="0" y="0" width="32" height="32"/>
</clip100Path>
<g id="source-9" clip100-path="url(#clip100-0)">
<path fill-rule="nonzero" fill="rgb(100%, 100%, 100%)" fill-opacity="1" d="M 9.332031 24 L 12 24 L 10.222656 29.332031 L 21.777344 29.332031 L 20 24 L 22.667969 24 L 25.332031 32 L 6.667969 32 Z M 9.332031 24 "/>
</g>
</defs>
<path fill-rule="nonzero" fill="rgb(100%, 100%, 100%)" fill-opacity="1" d="M 21.332031 0 L 10.667969 0 L 10.667969 2.667969 L 21.332031 2.667969 Z M 21.332031 0 "/>
<path fill-rule="evenodd" fill="rgb(100%, 100%, 100%)" fill-opacity="1" d="M 9.886719 5.332031 C 8.679688 5.332031 7.519531 5.8125 6.667969 6.667969 C 5.8125 7.519531 5.332031 8.679688 5.332031 9.886719 L 5.332031 24 C 5.332031 25.472656 6.527344 26.667969 8 26.667969 L 24 26.667969 C 25.472656 26.667969 26.667969 25.472656 26.667969 24 L 26.667969 9.886719 C 26.667969 8.679688 26.1875 7.519531 25.332031 6.667969 C 24.480469 5.8125 23.320312 5.332031 22.113281 5.332031 L 17.332031 5.332031 L 18.667969 2.667969 L 16 2.667969 L 14.667969 5.332031 Z M 24 10.667969 L 8 10.667969 L 8 18.667969 L 24 18.667969 Z M 9.332031 24 C 10.070312 24 10.667969 23.402344 10.667969 22.667969 C 10.667969 21.929688 10.070312 21.332031 9.332031 21.332031 C 8.597656 21.332031 8 21.929688 8 22.667969 C 8 23.402344 8.597656 24 9.332031 24 Z M 24 22.667969 C 24 23.402344 23.402344 24 22.667969 24 C 21.929688 24 21.332031 23.402344 21.332031 22.667969 C 21.332031 21.929688 21.929688 21.332031 22.667969 21.332031 C 23.402344 21.332031 24 21.929688 24 22.667969 Z M 24 22.667969 "/>
<g mask="url(#mask-0)">
<use xlink:href="#source-9"/>
</g>

</g>%n%n</svg>