<svg width="300" height="35" viewBox="0 0 300 35" fill="none" xmlns="http://www.w3.org/2000/svg" >

<g transform="translate(135.000000, 2.000000) scale(1.666667 1.666667) "> 

<g clip-path="url(#clip0)">
<path opacity="0.95" fill-rule="evenodd" clip-rule="evenodd" d="M13 1H5C2.79086 1 1 2.79086 1 5V13C1 15.2091 2.79086 17 5 17H13C15.2091 17 17 15.2091 17 13V5C17 2.79086 15.2091 1 13 1ZM5 0C2.23858 0 0 2.23858 0 5V13C0 15.7614 2.23858 18 5 18H13C15.7614 18 18 15.7614 18 13V5C18 2.23858 15.7614 0 13 0H5Z" fill="#5FB7ED"/>
<rect opacity="0.85" x="1" y="1" width="16" height="16" rx="4" fill="#0086C7"/>
</g>
<defs>
<clipPath id="clip0">
<path d="M0 0H18V18H0V0Z" fill="white"/>
</clipPath>
</defs>

</g>


<g transform="translate(141.000000, 8.000000) scale(0.375000 0.375000) "> 

<g clip100-path="url(#clip1000)">
<path d="M31.9997 0H15.9997V4H31.9997V0Z" fill="#ffffff"/>
<path fill-rule="evenodd" clip100-rule="evenodd" d="M14.8284 7.99998C13.0174 7.99998 11.2806 8.7194 10 9.99998C8.71942 11.2806 8 13.0174 8 14.8284V36C8 38.2091 9.79086 40 12 40H36C38.2091 40 40 38.2091 40 36V14.8284C40 13.0174 39.2806 11.2806 38 9.99998C36.7194 8.7194 34.9826 7.99998 33.1716 7.99998H25.9997L27.9997 4.00002H23.9997L21.9997 7.99998H14.8284ZM36.0003 16H12.0003V28H36.0003V16ZM14.0003 36C15.1049 36 16.0003 35.1046 16.0003 34C16.0003 32.8955 15.1049 32 14.0003 32C12.8957 32 12.0003 32.8955 12.0003 34C12.0003 35.1046 12.8957 36 14.0003 36ZM36 34C36 35.1046 35.1046 36 34 36C32.8954 36 32 35.1046 32 34C32 32.8955 32.8954 32 34 32C35.1046 32 36 32.8955 36 34Z" fill="#ffffff"/>
<path opacity="0.5" d="M13.9997 36H17.9997L15.333 44H32.6667L30 36H34L38 48H9.99969L13.9997 36Z" fill="#ffffff"/>
</g>
<defs>
<clip100Path id="clip1000">
<path d="M0 0H48V48H0V0Z" fill="#ffffff"/>
</clip100Path>
</defs>

</g>

</svg>