<svg width="300" height="40" viewBox="0 0 300 40" fill="none" xmlns="http://www.w3.org/2000/svg" xmlns:xlink="http://www.w3.org/1999/xlink">

<g transform="translate(130.000000, 0.000000) scale(2.000000 2.000000) "> 

<g clip-path="url(#clip0)">
<path opacity="0.949" d="M9.9994 1C14.9626 1 19 5.00181 19 10C19 14.9655 14.9626 19 9.9994 19C5.0374 19 1 14.9655 1 10C1 5.00181 5.0374 1 9.9994 1Z" fill="#45ABE9"/>
<path opacity="0.95" fill-rule="evenodd" clip-rule="evenodd" d="M10 19C14.9706 19 19 14.9706 19 10C19 5.02944 14.9706 1 10 1C5.02944 1 1 5.02944 1 10C1 14.9706 5.02944 19 10 19ZM10 20C15.5228 20 20 15.5228 20 10C20 4.47715 15.5228 0 10 0C4.47715 0 0 4.47715 0 10C0 15.5228 4.47715 20 10 20Z" fill="#F53837"/>
</g>
<defs>
<clipPath id="clip0">
<path d="M0 0H20V20H0V0Z" fill="white"/>
</clipPath>
</defs>

</g>%n%n
<g transform="translate(138.000000, 8.000000) scale(2.000000 2.000000) "> 

<defs>
<filter id="filter-remove-color" x="0%" y="0%" width="100%" height="100%">
<feColorMatrix color-interpolation-filters="sRGB" values="0 0 0 0 1 0 0 0 0 1 0 0 0 0 1 0 0 0 1 0" />
</filter>
<mask id="mask-0">
<g filter="url(#filter-remove-color)">
<rect x="-1.2" y="-1.2" width="14.4" height="14.4" fill="rgb(0%, 0%, 0%)" fill-opacity="0.5"/>
</g>
</mask>
<clip100Path id="clip100-0">
<rect x="0" y="0" width="12" height="12"/>
</clip100Path>
<g id="source-6" clip100-path="url(#clip100-0)">
<path fill-rule="nonzero" fill="rgb(100%, 100%, 100%)" fill-opacity="1" d="M 9.25 3.03125 C 9.679688 3.140625 10 3.535156 10 4 C 10 4.550781 9.550781 5 9 5 C 8.449219 5 8 4.550781 8 4 C 8 3.535156 8.320312 3.140625 8.75 3.03125 L 8.75 1.5 L 9.25 1.5 Z M 9.25 3.03125 "/>
</g>
</defs>
<g mask="url(#mask-0)">
<use xlink:href="#source-6"/>
</g>
<path fill-rule="nonzero" fill="rgb(100%, 100%, 100%)" fill-opacity="1" d="M 12 0 L 7 1 L 7 2 L 11 2 L 11 10 L 7 10 L 7 11 L 12 11 Z M 12 0 "/>
<path fill-rule="evenodd" fill="rgb(100%, 100%, 100%)" fill-opacity="1" d="M 1.5 3.5 C 1.820312 3.179688 2.253906 3 2.707031 3 L 5.292969 3 C 5.746094 3 6.179688 3.179688 6.5 3.5 C 6.820312 3.820312 7 4.253906 7 4.707031 L 7 9 C 7 9.371094 6.800781 9.691406 6.5 9.867188 L 6.5 10.25 C 6.5 10.664062 6.164062 11 5.75 11 C 5.335938 11 5 10.664062 5 10.25 L 5 10 L 3 10 L 3 10.25 C 3 10.664062 2.664062 11 2.25 11 C 1.835938 11 1.5 10.664062 1.5 10.25 L 1.5 9.867188 C 1.199219 9.691406 1 9.371094 1 9 L 1 4.707031 C 1 4.253906 1.179688 3.820312 1.5 3.5 Z M 2 5 L 6 5 L 6 7 L 2 7 Z M 3 8.5 C 3 8.777344 2.777344 9 2.5 9 C 2.222656 9 2 8.777344 2 8.5 C 2 8.222656 2.222656 8 2.5 8 C 2.777344 8 3 8.222656 3 8.5 Z M 5.5 9 C 5.777344 9 6 8.777344 6 8.5 C 6 8.222656 5.777344 8 5.5 8 C 5.222656 8 5 8.222656 5 8.5 C 5 8.777344 5.222656 9 5.5 9 Z M 5.5 9 "/>

</g>%n%n</svg>