<svg width="300" height="40" viewBox="0 0 300 40" fill="none" xmlns="http://www.w3.org/2000/svg" xmlns:xlink="http://www.w3.org/1999/xlink" version="1.1">

<g transform="translate(130.000000, 0.000000) scale(2.000000 2.000000) "> 

<g clip-path="url(#clip0)">
<path opacity="0.949" d="M9.9994 1C14.9626 1 19 5.00181 19 10C19 14.9655 14.9626 19 9.9994 19C5.0374 19 1 14.9655 1 10C1 5.00181 5.0374 1 9.9994 1Z" fill="#45ABE9"/>
<path opacity="0.95" fill-rule="evenodd" clip-rule="evenodd" d="M10 19C14.9706 19 19 14.9706 19 10C19 5.02944 14.9706 1 10 1C5.02944 1 1 5.02944 1 10C1 14.9706 5.02944 19 10 19ZM10 20C15.5228 20 20 15.5228 20 10C20 4.47715 15.5228 0 10 0C4.47715 0 0 4.47715 0 10C0 15.5228 4.47715 20 10 20Z" fill="#1578B3"/>
</g>
<defs>
<clipPath id="clip0">
<path d="M0 0H20V20H0V0Z" fill="white"/>
</clipPath>
</defs>

</g>%n%n
<g transform="translate(138.000000, 8.000000) scale(2.000000 2.000000) "> 

<defs>
<filter id="alpha" filterUnits="objectBoundingBox" x="0%" y="0%" width="100%" height="100%">
  <feColorMatrix type="matrix" in="SourceGraphic" values="0 0 0 0 1 0 0 0 0 1 0 0 0 0 1 0 0 0 1 0"/>
</filter>
<mask id="mask0">
  <g filter="url(#alpha)">
<rect x="0" y="0" width="12" height="12" style="fill:rgb(0%,0%,0%);fill-opacity:0.5;stroke:none;"/>
  </g>
</mask>
<clip100Path id="clip1001">
  <rect x="0" y="0" width="12" height="12"/>
</clip100Path>
<g id="surface5" clip100-path="url(#clip1001)">
<path style=" stroke:none;fill-rule:nonzero;fill:rgb(100%,100%,100%);fill-opacity:1;" d="M 8 3.914062 C 8.582031 3.707031 9 3.152344 9 2.5 C 9 1.671875 8.328125 1 7.5 1 C 6.671875 1 6 1.671875 6 2.5 C 6 3.152344 6.417969 3.707031 7 3.914062 L 7 5 L 8 5 Z M 8 3.914062 "/>
</g>
</defs>
<g id="surface1">
<path style=" stroke:none;fill-rule:nonzero;fill:rgb(100%,100%,100%);fill-opacity:1;" d="M 10.660156 1.972656 C 10.921875 1.886719 11.0625 1.605469 10.972656 1.339844 C 10.886719 1.078125 10.605469 0.9375 10.34375 1.027344 L 1.34375 4.027344 C 1.078125 4.113281 0.9375 4.394531 1.027344 4.65625 C 1.113281 4.921875 1.394531 5.0625 1.660156 4.972656 Z M 10.660156 1.972656 "/>
<path style=" stroke:none;fill-rule:evenodd;fill:rgb(100%,100%,100%);fill-opacity:1;" d="M 4 6.5 C 4 5.671875 4.671875 5 5.5 5 L 9.5 5 C 10.328125 5 11 5.671875 11 6.5 L 11 10 C 11 10.550781 10.550781 11 10 11 L 5 11 C 4.449219 11 4 10.550781 4 10 Z M 5 6 L 10 6 L 10 9 L 5 9 Z M 5 6 "/>
<use xlink:href="#surface5" mask="url(#mask0)"/>
</g>

</g>%n%n</svg>