<svg width="300" height="40" viewBox="0 0 300 40" fill="none" xmlns="http://www.w3.org/2000/svg" xmlns:xlink="http://www.w3.org/1999/xlink" version="1.1">

<g transform="translate(130.000000, 0.000000) scale(2.000000 2.000000) "> 

<g clip-path="url(#clip0)">
<path opacity="0.949" d="M9.9994 1C14.9626 1 19 5.00181 19 10C19 14.9655 14.9626 19 9.9994 19C5.0374 19 1 14.9655 1 10C1 5.00181 5.0374 1 9.9994 1Z" fill="#45ABE9"/>
<path opacity="0.95" fill-rule="evenodd" clip-rule="evenodd" d="M10 19C14.9706 19 19 14.9706 19 10C19 5.02944 14.9706 1 10 1C5.02944 1 1 5.02944 1 10C1 14.9706 5.02944 19 10 19ZM10 20C15.5228 20 20 15.5228 20 10C20 4.47715 15.5228 0 10 0C4.47715 0 0 4.47715 0 10C0 15.5228 4.47715 20 10 20Z" fill="#1578B3"/>
</g>
<defs>
<clipPath id="clip0">
<path d="M0 0H20V20H0V0Z" fill="white"/>
</clipPath>
</defs>

</g>%n%n
<g transform="translate(138.000000, 8.000000) scale(2.000000 2.000000) "> 

<g id="surface1">
<path style=" stroke:none;fill-rule:evenodd;fill:rgb(100%,100%,100%);fill-opacity:0.25098;" d="M 4 1 L 2 1 L 2 11 L 4 11 L 4 8 L 6.5 8 C 8.433594 8 10 6.433594 10 4.5 C 10 2.566406 8.433594 1 6.5 1 Z M 4 3 L 4 6 L 6.5 6 C 7.328125 6 8 5.328125 8 4.5 C 8 3.671875 7.328125 3 6.5 3 Z M 4 3 "/>
<path style=" stroke:none;fill-rule:evenodd;fill:rgb(100%,100%,100%);fill-opacity:0.25098;" d="M 4 8 L 6.5 8 C 8.433594 8 10 6.433594 10 4.5 C 10 2.566406 8.433594 1 6.5 1 L 2 1 L 2 11 L 4 11 Z M 3.5 10.5 L 3.5 7.5 L 6.5 7.5 C 8.15625 7.5 9.5 6.15625 9.5 4.5 C 9.5 2.84375 8.15625 1.5 6.5 1.5 L 2.5 1.5 L 2.5 10.5 Z M 3.5 2.5 L 6.5 2.5 C 7.605469 2.5 8.5 3.394531 8.5 4.5 C 8.5 5.605469 7.605469 6.5 6.5 6.5 L 3.5 6.5 Z M 4 6 L 4 3 L 6.5 3 C 7.328125 3 8 3.671875 8 4.5 C 8 5.328125 7.328125 6 6.5 6 Z M 4 6 "/>
</g>

</g>%n%n</svg>