<svg width="300" height="35" viewBox="0 0 300 35" fill="none" xmlns="http://www.w3.org/2000/svg" >

<g transform="translate(135.000000, 2.000000) scale(1.500000 1.500000) "> 

<g clip-path="url(#clip0)">
<path opacity="0.949" d="M9.9994 1C14.9626 1 19 5.00181 19 10C19 14.9655 14.9626 19 9.9994 19C5.0374 19 1 14.9655 1 10C1 5.00181 5.0374 1 9.9994 1Z" fill="#45ABE9"/>
<path opacity="0.95" fill-rule="evenodd" clip-rule="evenodd" d="M10 19C14.9706 19 19 14.9706 19 10C19 5.02944 14.9706 1 10 1C5.02944 1 1 5.02944 1 10C1 14.9706 5.02944 19 10 19ZM10 20C15.5228 20 20 15.5228 20 10C20 4.47715 15.5228 0 10 0C4.47715 0 0 4.47715 0 10C0 15.5228 4.47715 20 10 20Z" fill="#1578B3"/>
</g>
<defs>
<clipPath id="clip0">
<path d="M0 0H20V20H0V0Z" fill="white"/>
</clipPath>
</defs>

</g>


<g transform="translate(141.000000, 8.000000) scale(0.031034 0.031034) "> 

<path d="M45.3501 382.326V43.8965H169.892C191.812 43.8968 208.553 44.9742 220.114 47.1284C236.329 49.899 249.917 55.1701 260.878 62.9418C271.838 70.7141 280.658 81.6027 287.34 95.6074C294.021 109.613 297.362 125.003 297.362 141.778C297.362 170.558 288.428 194.913 270.562 214.843C252.695 234.773 220.414 244.738 173.721 244.738H89.0411V382.326H45.3501ZM89.0411 204.801H174.396C202.623 204.801 222.666 199.414 234.528 188.641C246.389 177.868 252.319 162.709 252.319 143.163C252.319 129.004 248.828 116.885 241.847 106.804C234.865 96.7235 225.669 90.0672 214.259 86.835C206.902 84.8346 193.314 83.8343 173.495 83.8339H89.0411V204.801Z" fill="#ffffff" stroke="#ffffff" stroke-width="18.0747" stroke-linecap="round" stroke-linejoin="round"/>
<path d="M295.149 277.192H546.894" stroke="#ffffff" stroke-width="38.9211" stroke-linejoin="round"/>
<path d="M369.508 337.635C353.41 337.635 344.87 346.423 340.928 356.711L320 410.748C311.704 411.812 296.997 421.55 296.997 439.998V508.716H317.367V530.693C317.367 557.73 355.631 557.412 355.631 530.693V508.716H424.46H424.483H493.313V530.693C493.313 557.412 531.576 557.73 531.576 530.693V508.716H551.946V439.998C551.946 421.55 537.24 411.812 528.943 410.748L507.993 356.711C504.051 346.423 495.511 337.635 479.413 337.635H449.828H399.45H369.508H369.508ZM369.263 357.313H424.416H424.46H424.483H479.658C486.557 357.377 489.512 361.692 491.483 367.666L507.257 410.191H424.483H424.46H424.416H341.664L357.438 367.666C359.409 361.692 362.363 357.377 369.263 357.313ZM337.112 430.873C346.874 430.873 354.783 439.018 354.783 449.079C354.783 459.141 346.874 467.307 337.112 467.307C327.351 467.307 319.442 459.141 319.442 449.079C319.442 439.018 327.351 430.873 337.112 430.873ZM511.831 430.873C521.593 430.873 529.501 439.018 529.501 449.079C529.501 459.141 521.593 467.307 511.831 467.307C502.07 467.307 494.138 459.141 494.138 449.079C494.138 439.018 502.07 430.873 511.831 430.873Z" fill="#ffffff"/>

</g>

</svg>