<svg width="300" height="40" viewBox="0 0 300 40" fill="none" xmlns="http://www.w3.org/2000/svg" >

<g transform="translate(130.000000, 0.000000) scale(2.500000 2.500000) "> 

<path opacity="0.5" fill-rule="evenodd" clip-rule="evenodd" d="M6.35 10.8498L3.19612 11.4806C2.90234 11.5393 2.5977 11.4633 2.36601 11.2733C2.13432 11.0834 2 10.7996 2 10.5V9.5C2 9.14874 2.1843 8.82323 2.4855 8.64251L6.35 6.32381V3.65C6.35 2.73873 7.08873 2 8 2C8.91127 2 9.65 2.73873 9.65 3.65V6.32381L13.5145 8.64251C13.8157 8.82323 14 9.14874 14 9.5V10.5C14 10.7996 13.8657 11.0834 13.634 11.2733C13.4023 11.4633 13.0977 11.5393 12.8039 11.4806L9.65 10.8498V10.9875L10.6 11.7C10.8518 11.8889 11 12.1852 11 12.5V13C11 13.3079 10.8581 13.5987 10.6154 13.7882C10.3727 13.9777 10.0562 14.0448 9.75746 13.9701L8 13.5308L6.24254 13.9701C5.94379 14.0448 5.6273 13.9777 5.38459 13.7882C5.14187 13.5987 5 13.3079 5 13V12.5C5 12.1852 5.14819 11.8889 5.4 11.7L6.35 10.9875V10.8498Z" fill="#EBE7E4"/>

</g>%n%n
<g transform="translate(138.000000, 8.000000) scale(0.041379 0.041379) "> 

<path d="M265.71 83.9338C265.77 49.9338 317.019 49.9338 316.985 84.8918V227.583L516.749 347.647V400.364L317.944 334.934V441.581L363.952 477.525V519.219L293.025 497.173L222.098 519.219V477.525L267.627 441.581V334.934L68.7998 400.364V347.647L265.71 227.583V83.9338Z" fill="#0092DA"/>

</g>%n%n</svg>