<svg width="300" height="35" viewBox="0 0 300 35" fill="none" xmlns="http://www.w3.org/2000/svg" >

<g transform="translate(135.000000, 2.000000) scale(1.500000 1.500000) "> 

<g clip-path="url(#clip0)">
<path opacity="0.849" d="M9.9994 1C14.9626 1 19 5.00181 19 10C19 14.9655 14.9626 19 9.9994 19C5.0374 19 1 14.9655 1 10C1 5.00181 5.0374 1 9.9994 1Z" fill="#0086C7"/>
<path opacity="0.95" fill-rule="evenodd" clip-rule="evenodd" d="M10 19C14.9706 19 19 14.9706 19 10C19 5.02944 14.9706 1 10 1C5.02944 1 1 5.02944 1 10C1 14.9706 5.02944 19 10 19ZM10 20C15.5228 20 20 15.5228 20 10C20 4.47715 15.5228 0 10 0C4.47715 0 0 4.47715 0 10C0 15.5228 4.47715 20 10 20Z" fill="#5FB7ED"/>
</g>
<defs>
<clipPath id="clip0">
<path d="M0 0H20V20H0V0Z" fill="white"/>
</clipPath>
</defs>

</g>


<g transform="translate(141.000000, 8.000000) scale(0.375000 0.375000) "> 

<path fill-rule="evenodd" clip100-rule="evenodd" d="M16 4H8V44H16V32H26C33.732 32 40 25.732 40 18C40 10.268 33.732 4 26 4H16ZM16 12V24H26C29.3137 24 32 21.3137 32 18C32 14.6863 29.3137 12 26 12H16Z" fill="#ffffff" fill-opacity="0.25"/>
<path fill-rule="evenodd" clip100-rule="evenodd" d="M16 32H26C33.732 32 40 25.732 40 18C40 10.268 33.732 4 26 4H8V44H16V32ZM14 42V30H26C32.6274 30 38 24.6274 38 18C38 11.3726 32.6274 6 26 6H10V42H14ZM14 10H26C30.4183 10 34 13.5817 34 18C34 22.4183 30.4183 26 26 26H14V10ZM16 24V12H26C29.3137 12 32 14.6863 32 18C32 21.3137 29.3137 24 26 24H16Z" fill="#ffffff" fill-opacity="0.25"/>

</g>

</svg>