<svg width="300" height="40" viewBox="0 0 300 40" fill="none" xmlns="http://www.w3.org/2000/svg" xmlns:xlink="http://www.w3.org/1999/xlink">

<g transform="translate(130.000000, 0.000000) scale(2.500000 2.500000) "> 

<path opacity="0.804" d="M3.94794 1.45197C3.34809 1.45197 2.83829 1.79422 2.53355 2.21356C2.22881 2.6329 2.0766 3.146 2.0766 3.6949V12.2816C2.0766 12.8305 2.22881 13.3436 2.53355 13.763C2.83829 14.1823 3.34809 14.5246 3.94794 14.5246H12.056C12.6558 14.5246 13.1656 14.1823 13.4703 13.763C13.7751 13.3436 13.9273 12.8305 13.9273 12.2816V3.6949C13.9273 3.146 13.7751 2.6329 13.4703 2.21356C13.1656 1.79422 12.6558 1.45197 12.056 1.45197H3.94794V1.45197Z" fill="#EBE7E4"/>

</g>%n%n
<g transform="translate(139.000000, 9.000000) scale(0.687500 0.687500) "> 

<path fill-rule="nonzero" fill="rgb(24.705882%, 24.705882%, 24.705882%)" fill-opacity="1" d="M 6.457031 2.691406 C 5.167969 2.691406 4.132812 4.121094 4.132812 5.894531 L 4.132812 26.105469 C 4.132812 27.878906 5.167969 29.308594 6.457031 29.308594 L 25.542969 29.308594 C 26.832031 29.308594 27.867188 27.878906 27.867188 26.105469 L 27.867188 5.894531 C 27.867188 4.121094 26.832031 2.691406 25.542969 2.691406 Z M 15.589844 5.050781 L 23.46875 13.320312 L 8.53125 13.320312 Z M 8.53125 18.679688 L 23.46875 18.679688 L 15.589844 26.949219 Z M 8.53125 18.679688 "/>

</g>%n%n</svg>