<svg width="40" height="40" viewBox="0 0 40 40" fill="none" xmlns="http://www.w3.org/2000/svg" version="1.1">

<g transform="translate(0.000000, 0.000000) scale(1.666667 1.666667) "> 

<path opacity="0.5" fill-rule="evenodd" clip-rule="evenodd" d="M24 11.5V19C24 21.2091 22.2091 23 20 23H4C1.79086 23 0 21.2091 0 19V11.5C0 5.0533 5.47049 0 12 0C18.5295 0 24 5.0533 24 11.5ZM12 2C6.47715 2 2 6.25329 2 11.5V19C2 20.1046 2.89543 21 4 21H20C21.1046 21 22 20.1046 22 19V11.5C22 6.25329 17.5228 2 12 2Z" fill="white"/>
<path d="M2 11.5C2 6.25329 6.47715 2 12 2C17.5228 2 22 6.25329 22 11.5V19C22 20.1046 21.1046 21 20 21H4C2.89543 21 2 20.1046 2 19V11.5Z" fill="white"/>
<path fill-rule="evenodd" clip-rule="evenodd" d="M20 19V11.5C20 7.45329 16.5162 4 12 4C7.48382 4 4 7.45329 4 11.5V19H20ZM12 2C6.47715 2 2 6.25329 2 11.5V19C2 20.1046 2.89543 21 4 21H20C21.1046 21 22 20.1046 22 19V11.5C22 6.25329 17.5228 2 12 2Z" fill="#0092DE"/>

</g>


<g transform="translate(8.000000, 8.000000) scale(0.500000 0.500000) "> 

 <path d="m14.828 4c-1.811 0-3.5478 0.71942-4.8284 2-1.2806 1.2806-2 3.0174-2 4.8284v25.172c0 2.2091 1.7909 4 4 4h24c2.2091 0 4-1.7909 4-4v-25.172c0-1.811-0.7194-3.5478-2-4.8284s-3.0174-2-4.8284-2h-18.343zm21.172 12h-24v12h24v-12zm-22 20c1.1046 0 2-0.8954 2-2s-0.8954-2-2-2-2 0.8954-2 2 0.8954 2 2 2zm22-2c0 1.1046-0.8954 2-2 2s-2-0.8954-2-2 0.8954-2 2-2 2 0.8954 2 2z" clip100-rule="evenodd" fill="#fff" fill-rule="evenodd"/>
 <path d="m14 36h4l-2.6667 8h17.333l-2.6667-8h4l4 12h-28l4-12z" fill="#fff" opacity=".5"/>

</g>

</svg>