<svg width="300" height="40" viewBox="0 0 300 40" fill="none" xmlns="http://www.w3.org/2000/svg" xmlns:xlink="http://www.w3.org/1999/xlink" version="1.1">

<g transform="translate(130.000000, 0.000000) scale(2.000000 2.000000) "> 

<g clip-path="url(#clip0)">
<path opacity="0.949" d="M9.9994 1C14.9626 1 19 5.00181 19 10C19 14.9655 14.9626 19 9.9994 19C5.0374 19 1 14.9655 1 10C1 5.00181 5.0374 1 9.9994 1Z" fill="#45ABE9"/>
<path opacity="0.95" fill-rule="evenodd" clip-rule="evenodd" d="M10 19C14.9706 19 19 14.9706 19 10C19 5.02944 14.9706 1 10 1C5.02944 1 1 5.02944 1 10C1 14.9706 5.02944 19 10 19ZM10 20C15.5228 20 20 15.5228 20 10C20 4.47715 15.5228 0 10 0C4.47715 0 0 4.47715 0 10C0 15.5228 4.47715 20 10 20Z" fill="#1578B3"/>
</g>
<defs>
<clipPath id="clip0">
<path d="M0 0H20V20H0V0Z" fill="white"/>
</clipPath>
</defs>

</g>%n%n
<g transform="translate(138.000000, 8.000000) scale(2.000000 2.000000) "> 

<defs>
<filter id="alpha" filterUnits="objectBoundingBox" x="0%" y="0%" width="100%" height="100%">
  <feColorMatrix type="matrix" in="SourceGraphic" values="0 0 0 0 1 0 0 0 0 1 0 0 0 0 1 0 0 0 1 0"/>
</filter>
<mask id="mask0">
  <g filter="url(#alpha)">
<rect x="0" y="0" width="12" height="12" style="fill:rgb(0%,0%,0%);fill-opacity:0.5;stroke:none;"/>
  </g>
</mask>
<clip100Path id="clip1001">
  <rect x="0" y="0" width="12" height="12"/>
</clip100Path>
<g id="surface5" clip100-path="url(#clip1001)">
<path style=" stroke:none;fill-rule:evenodd;fill:rgb(100%,100%,100%);fill-opacity:1;" d="M 7 2 C 6.449219 2 6 2.449219 6 3 L 6 4.5 C 6 4.777344 5.777344 5 5.5 5 C 5.222656 5 5 4.777344 5 4.5 L 5 3 C 5 1.894531 5.894531 1 7 1 C 8.105469 1 9 1.894531 9 3 L 9 4.5 C 9 4.777344 8.777344 5 8.5 5 C 8.222656 5 8 4.777344 8 4.5 L 8 3 C 8 2.449219 7.550781 2 7 2 Z M 7 2 "/>
</g>
</defs>
<g id="surface1">
<path style=" stroke:none;fill-rule:evenodd;fill:rgb(100%,100%,100%);fill-opacity:1;" d="M 1 1 L 1 5 L 2 5 L 2 4 L 3 4 C 3.550781 4 4 3.550781 4 3 L 4 2 C 4 1.449219 3.550781 1 3 1 Z M 2 3 L 3 3 L 3 2 L 2 2 Z M 2 3 "/>
<path style=" stroke:none;fill-rule:evenodd;fill:rgb(100%,100%,100%);fill-opacity:1;" d="M 4 6.5 C 4 6.222656 4.222656 6 4.5 6 L 5.5 6 C 5.777344 6 6 6.222656 6 6.5 L 6 8.382812 L 6.316406 9.011719 C 6.375 9.003906 6.4375 9 6.5 9 C 7.328125 9 8 9.671875 8 10.5 C 8 11.328125 7.328125 12 6.5 12 C 5.847656 12 5.292969 11.582031 5.085938 11 L 2.914062 11 C 2.707031 11.582031 2.152344 12 1.5 12 C 0.671875 12 0 11.328125 0 10.5 C 0 9.671875 0.671875 9 1.5 9 C 1.5625 9 1.625 9.003906 1.683594 9.011719 L 1.890625 8.597656 L 1.144531 7.855469 C 1.003906 7.710938 0.960938 7.496094 1.039062 7.308594 C 1.117188 7.121094 1.296875 7 1.5 7 L 2.5 7 C 2.777344 7 3 7.222656 3 7.5 C 3 7.714844 2.863281 7.898438 2.675781 7.96875 L 2.707031 8 L 5 8 L 5 7 L 4.5 7 C 4.222656 7 4 6.777344 4 6.5 Z M 2.578125 9.457031 C 2.726562 9.613281 2.84375 9.796875 2.914062 10 L 5.085938 10 C 5.15625 9.796875 5.273438 9.613281 5.421875 9.457031 L 5.191406 9 L 2.808594 9 Z M 1.5 11 C 1.777344 11 2 10.777344 2 10.5 C 2 10.222656 1.777344 10 1.5 10 C 1.222656 10 1 10.222656 1 10.5 C 1 10.777344 1.222656 11 1.5 11 Z M 6.5 11 C 6.777344 11 7 10.777344 7 10.5 C 7 10.222656 6.777344 10 6.5 10 C 6.222656 10 6 10.222656 6 10.5 C 6 10.777344 6.222656 11 6.5 11 Z M 6.5 11 "/>
<path style=" stroke:none;fill-rule:evenodd;fill:rgb(100%,100%,100%);fill-opacity:1;" d="M 9 2 C 8.449219 2 8 2.449219 8 3 L 8 4.5 C 8 4.777344 7.777344 5 7.5 5 C 7.222656 5 7 4.777344 7 4.5 L 7 3 C 7 1.894531 7.894531 1 9 1 C 10.105469 1 11 1.894531 11 3 L 11 4.5 C 11 4.777344 10.777344 5 10.5 5 C 10.222656 5 10 4.777344 10 4.5 L 10 3 C 10 2.449219 9.550781 2 9 2 Z M 9 2 "/>
<use xlink:href="#surface5" mask="url(#mask0)"/>
</g>

</g>%n%n</svg>