<svg width="300" height="40" viewBox="0 0 300 40" fill="none" xmlns="http://www.w3.org/2000/svg" xmlns:xlink="http://www.w3.org/1999/xlink">

<g transform="translate(130.000000, 0.000000) scale(2.500000 2.500000) "> 

<path opacity="0.816" d="M3.31515 2C2.9607 2.00001 2.63966 2.13287 2.38532 2.39088C2.13098 2.64888 2.00001 2.97456 2 3.33411V9.85527C2.00001 10.2148 2.13579 10.5439 2.38532 10.797C2.63965 11.055 2.96068 11.1879 3.31515 11.1879H4.25539C4.60982 11.1879 4.93419 11.0501 5.18373 10.797C5.42849 10.5487 5.57053 10.2246 5.57054 9.85527V6.71769L6.9333 6.40982C6.88646 6.54722 6.83453 6.70318 6.77858 6.88068C6.67369 7.21342 6.61103 7.40639 6.56583 7.61565C6.52063 7.82491 6.51024 8.03608 6.51079 8.20272V8.20423L6.51227 8.52568C6.51347 8.60732 6.52497 8.68847 6.54649 8.76715L6.545 8.77017L6.36796 8.97693C6.21945 9.14975 6.13708 9.37095 6.13588 9.60022L6.1329 10.8106L6.12992 12.0224C6.13018 12.1561 6.15805 12.2882 6.21175 12.4103C6.1694 12.5567 6.14324 12.6908 6.13885 12.7695C6.13397 12.8569 6.13422 12.9355 6.14183 13.0291C6.14563 13.0759 6.15069 13.1251 6.16712 13.2011C6.18354 13.2772 6.14033 13.3635 6.38581 13.6493L6.60748 13.8395C6.60748 13.8395 6.70587 13.8932 6.73989 13.9074C6.80794 13.9358 6.84724 13.9449 6.87825 13.9527C6.94027 13.9682 6.96911 13.9717 6.99578 13.9753C7.04912 13.9825 7.0828 13.9851 7.11926 13.9874C7.1922 13.992 7.26839 13.9945 7.36027 13.9965C7.54405 14.0004 7.78038 14.0012 8.03719 13.998L8.93875 13.9859C9.06709 13.9843 9.19374 13.956 9.31095 13.903C9.42815 13.8499 9.53344 13.7731 9.62036 13.6773C9.70728 13.5815 9.77399 13.4687 9.81642 13.3458C9.85885 13.223 9.86709 12.9627 9.86709 12.9627C9.86709 12.9627 9.85827 11.4556 9.86114 10.8483L9.86708 9.63342C9.86799 9.40032 9.78493 9.17491 9.63352 8.99957L9.44905 8.78677C9.47433 8.70003 9.48735 8.6101 9.48773 8.51965V8.20272C9.48773 8.03794 9.47556 7.82509 9.4297 7.61565C9.38385 7.40621 9.32159 7.20766 9.21398 6.86559C9.12164 6.57202 9.05982 6.38433 8.99826 6.22419C8.96806 6.14562 8.94211 6.07331 8.88222 5.96914L10.7374 5.54959C10.5681 5.76684 10.4293 6.00892 10.4295 6.30116V9.92922C10.4293 10.275 10.5562 10.5784 10.7939 10.8196C11.0377 11.0669 11.3429 11.188 11.6717 11.1879H12.7592C13.0882 11.1881 13.3977 11.0608 13.6355 10.8196C13.8733 10.5784 14.0002 10.2749 14 9.92922V6.30116C14.0002 5.95535 13.8673 5.64738 13.6355 5.41225C13.4037 5.17712 13.1 5.04235 12.7592 5.0425H12.5182C13.0952 4.78476 13.5399 4.20956 13.4867 3.56653C13.4253 2.82366 12.7603 2.18299 12.0258 2.15846C11.9801 2.15662 11.9345 2.15612 11.8889 2.15846C11.8835 2.15892 11.878 2.15942 11.8726 2.15997C11.792 2.16548 11.7132 2.17776 11.6345 2.19619L11.6271 2.1977C11.6241 2.19841 11.6211 2.19848 11.6181 2.19921L5.57054 3.56804V3.33411C5.57053 2.96481 5.43326 2.64401 5.18373 2.39088C4.9342 2.13775 4.60984 2.00001 4.25539 2H3.31515Z" fill="#EBE7E4"/>

</g>%n%n
<g transform="translate(138.000000, 8.000000) scale(0.750000 0.750000) "> 

<defs>
<filter id="filter-remove-color" x="0%" y="0%" width="100%" height="100%">
<feColorMatrix color-interpolation-filters="sRGB" values="0 0 0 0 1 0 0 0 0 1 0 0 0 0 1 0 0 0 1 0" />
</filter>
<mask id="mask-0">
<g filter="url(#filter-remove-color)">
<rect x="-3.2" y="-3.2" width="38.4" height="38.4" fill="rgb(0%, 0%, 0%)" fill-opacity="0.75"/>
</g>
</mask>
<clip100Path id="clip100-0">
<rect x="0" y="0" width="32" height="32"/>
</clip100Path>
<g id="source-7" clip100-path="url(#clip100-0)">
<path fill-rule="nonzero" fill="rgb(26.666667%, 26.666667%, 26.666667%)" fill-opacity="1" d="M 25.660156 11.179688 C 25.453125 11.179688 25.25 11.265625 25.105469 11.410156 C 24.960938 11.554688 24.875 11.761719 24.875 11.964844 L 24.875 21.375 C 24.875 21.578125 24.960938 21.785156 25.105469 21.929688 C 25.25 22.074219 25.453125 22.160156 25.660156 22.160156 L 28.519531 22.160156 C 28.726562 22.160156 28.929688 22.074219 29.074219 21.929688 C 29.21875 21.785156 29.304688 21.578125 29.304688 21.375 L 29.304688 11.964844 C 29.304688 11.761719 29.21875 11.554688 29.074219 11.410156 C 28.929688 11.265625 28.726562 11.179688 28.519531 11.179688 Z M 25.660156 11.179688 "/>
</g>
<mask id="mask-1">
<g filter="url(#filter-remove-color)">
<rect x="-3.2" y="-3.2" width="38.4" height="38.4" fill="rgb(0%, 0%, 0%)" fill-opacity="0.75"/>
</g>
</mask>
<clip100Path id="clip100-1">
<rect x="0" y="0" width="32" height="32"/>
</clip100Path>
<g id="source-11" clip100-path="url(#clip100-1)">
<path fill-rule="nonzero" fill="rgb(26.666667%, 26.666667%, 26.666667%)" fill-opacity="1" d="M 3.671875 3.292969 C 3.417969 3.292969 3.164062 3.398438 2.980469 3.578125 C 2.800781 3.757812 2.695312 4.011719 2.695312 4.269531 L 2.695312 21.179688 C 2.695312 21.4375 2.800781 21.691406 2.980469 21.871094 C 3.164062 22.054688 3.417969 22.160156 3.671875 22.160156 L 6.148438 22.160156 C 6.402344 22.160156 6.65625 22.054688 6.839844 21.871094 C 7.019531 21.691406 7.125 21.4375 7.125 21.179688 L 7.125 12.660156 C 5.886719 13.039062 4.40625 12.703125 3.605469 11.652344 C 2.394531 10.203125 3.011719 7.640625 4.800781 6.964844 C 5.574219 6.785156 6.351562 6.609375 7.125 6.429688 L 7.125 4.269531 C 7.125 4.011719 7.019531 3.757812 6.839844 3.578125 C 6.65625 3.398438 6.402344 3.292969 6.148438 3.292969 Z M 3.671875 3.292969 "/>
</g>
</defs>
<path fill="none" stroke-width="54.685001" stroke-linecap="round" stroke-linejoin="miter" stroke="rgb(26.666667%, 26.666667%, 26.666667%)" stroke-opacity="1" stroke-miterlimit="4" d="M 109.528809 176.860352 L 479.108887 94.448242 " transform="matrix(0.0551724, 0, 0, 0.0551724, 0, 0)"/>
<g mask="url(#mask-0)">
<use xlink:href="#source-7"/>
</g>
<g mask="url(#mask-1)">
<use xlink:href="#source-11"/>
</g>
<path fill-rule="nonzero" fill="rgb(26.666667%, 26.666667%, 26.666667%)" fill-opacity="1" d="M 16.066406 29.445312 L 18.4375 29.414062 L 18.40625 28.960938 C 18.382812 28.601562 18.332031 28.464844 18.15625 28.285156 C 17.976562 28.105469 17.9375 27.984375 17.929688 27.625 C 17.925781 27.332031 17.960938 27.1875 18.035156 27.1875 C 18.367188 27.1875 18.398438 26.878906 18.414062 23.746094 L 18.429688 20.59375 L 17.4375 19.460938 L 15.972656 19.457031 L 14.511719 19.457031 L 14.042969 19.992188 L 13.578125 20.527344 L 13.570312 23.667969 L 13.5625 26.8125 L 13.820312 27.046875 C 14.042969 27.253906 14.074219 27.332031 14.070312 27.675781 C 14.0625 28.007812 14.027344 28.09375 13.832031 28.257812 C 13.640625 28.417969 13.601562 28.511719 13.578125 28.878906 C 13.566406 29.121094 13.585938 29.351562 13.625 29.394531 C 13.664062 29.441406 14.761719 29.460938 16.066406 29.445312 Z M 16 17.722656 L 17.433594 17.71875 L 17.433594 16.898438 C 17.433594 16.132812 17.390625 15.945312 16.832031 14.183594 C 16.351562 12.6875 16.195312 12.285156 16.070312 12.242188 C 15.984375 12.210938 15.871094 12.234375 15.824219 12.289062 C 15.773438 12.347656 15.46875 13.21875 15.148438 14.222656 C 14.597656 15.933594 14.5625 16.105469 14.566406 16.886719 L 14.566406 17.722656 Z M 16 17.722656 "/>

</g>%n%n</svg>