<svg width="300" height="35" viewBox="0 0 300 35" fill="none" xmlns="http://www.w3.org/2000/svg">

<g transform="translate(140.000000, 7.000000) scale(1.000000 1.000000) "> 

<g clip-path="url(#clip0)">
<path opacity="0.949" d="M9.9994 1C14.9626 1 19 5.00181 19 10C19 14.9655 14.9626 19 9.9994 19C5.0374 19 1 14.9655 1 10C1 5.00181 5.0374 1 9.9994 1Z" fill="#45ABE9"/>
<path opacity="0.95" fill-rule="evenodd" clip-rule="evenodd" d="M10 19C14.9706 19 19 14.9706 19 10C19 5.02944 14.9706 1 10 1C5.02944 1 1 5.02944 1 10C1 14.9706 5.02944 19 10 19ZM10 20C15.5228 20 20 15.5228 20 10C20 4.47715 15.5228 0 10 0C4.47715 0 0 4.47715 0 10C0 15.5228 4.47715 20 10 20Z" fill="#1578B3"/>
</g>
<defs>
<clipPath id="clip0">
<path d="M0 0H20V20H0V0Z" fill="white"/>
</clipPath>
</defs>

</g>


<g transform="translate(144.000000, 11.000000) scale(0.020690 0.020690) "> 

<path d="M310.328 85.6807C309.898 85.6787 309.44 85.7122 308.984 85.7432H43.4219V211.868H378.703L323.016 94.8057C320.44 89.3699 316.783 85.7058 310.328 85.6807ZM65.7969 124.056H110.391V190.774H65.7969V124.056ZM129.797 124.056H188.391V190.774H129.797V124.056ZM221.797 124.056H300.391L330.391 190.774H251.797L221.797 124.056Z" fill="#ffffff"/>
<path d="M45.2656 241.024V382.181H384.359C399.481 381.797 407.492 368.285 408.891 365.837L490.234 241.024H45.2656ZM343.859 260.462C371.362 260.462 393.953 283.084 393.953 310.587C393.953 338.089 371.362 360.649 343.859 360.649C316.357 360.649 293.766 338.089 293.766 310.587C293.766 283.084 316.357 260.462 343.859 260.462ZM343.859 289.056C331.814 289.056 322.359 298.541 322.359 310.587C322.359 322.633 331.814 332.056 343.859 332.056C355.905 332.056 365.359 322.633 365.359 310.587C365.359 298.541 355.905 289.056 343.859 289.056Z" fill="#ffffff"/>
<path d="M57.9409 490.729C112.784 433.155 167.717 449.894 212.45 490.729C271.832 431.206 330.861 448.303 371.41 490.729C419.897 445.35 471.703 432.746 531.824 490.729" stroke="#ffffff" stroke-width="34.5015" stroke-linecap="round"/>

</g>

</svg>