<svg width="300" height="40" viewBox="0 0 300 40" fill="none" xmlns="http://www.w3.org/2000/svg" xmlns:xlink="http://www.w3.org/1999/xlink">

<g transform="translate(130.000000, 0.000000) scale(2.000000 2.000000) "> 

<g clip-path="url(#clip0)">
<path opacity="0.949" d="M9.9994 1C14.9626 1 19 5.00181 19 10C19 14.9655 14.9626 19 9.9994 19C5.0374 19 1 14.9655 1 10C1 5.00181 5.0374 1 9.9994 1Z" fill="#45ABE9"/>
<path opacity="0.95" fill-rule="evenodd" clip-rule="evenodd" d="M10 19C14.9706 19 19 14.9706 19 10C19 5.02944 14.9706 1 10 1C5.02944 1 1 5.02944 1 10C1 14.9706 5.02944 19 10 19ZM10 20C15.5228 20 20 15.5228 20 10C20 4.47715 15.5228 0 10 0C4.47715 0 0 4.47715 0 10C0 15.5228 4.47715 20 10 20Z" fill="#1578B3"/>
</g>
<defs>
<clipPath id="clip0">
<path d="M0 0H20V20H0V0Z" fill="white"/>
</clipPath>
</defs>

</g>%n%n
<g transform="translate(138.000000, 8.000000) scale(2.000000 2.000000) "> 

<path fill-rule="nonzero" fill="rgb(100%, 100%, 100%)" fill-opacity="1" d="M 6.421875 1.773438 C 6.410156 1.773438 6.402344 1.773438 6.394531 1.773438 L 0.898438 1.773438 L 0.898438 4.382812 L 7.835938 4.382812 L 6.683594 1.960938 C 6.628906 1.847656 6.554688 1.773438 6.421875 1.773438 Z M 1.359375 2.566406 L 2.285156 2.566406 L 2.285156 3.945312 L 1.359375 3.945312 Z M 2.683594 2.566406 L 3.898438 2.566406 L 3.898438 3.945312 L 2.683594 3.945312 Z M 4.589844 2.566406 L 6.214844 2.566406 L 6.835938 3.945312 L 5.210938 3.945312 Z M 4.589844 2.566406 "/>
<path fill-rule="nonzero" fill="rgb(100%, 100%, 100%)" fill-opacity="1" d="M 0.9375 4.988281 L 0.9375 7.90625 L 7.953125 7.90625 C 8.265625 7.898438 8.429688 7.621094 8.460938 7.570312 L 10.144531 4.988281 Z M 7.113281 5.390625 C 7.683594 5.390625 8.152344 5.855469 8.152344 6.425781 C 8.152344 6.996094 7.683594 7.460938 7.113281 7.460938 C 6.546875 7.460938 6.078125 6.996094 6.078125 6.425781 C 6.078125 5.855469 6.546875 5.390625 7.113281 5.390625 Z M 7.113281 5.980469 C 6.863281 5.980469 6.667969 6.175781 6.667969 6.425781 C 6.667969 6.675781 6.863281 6.871094 7.113281 6.871094 C 7.363281 6.871094 7.558594 6.675781 7.558594 6.425781 C 7.558594 6.175781 7.363281 5.980469 7.113281 5.980469 Z M 7.113281 5.980469 "/>
<path fill="none" stroke-width="34.501499" stroke-linecap="round" stroke-linejoin="miter" stroke="rgb(100%, 100%, 100%)" stroke-opacity="1" stroke-miterlimit="4" d="M 57.96224 490.696615 C 112.714844 433.111979 167.65625 449.915365 212.402344 490.696615 C 271.875 431.223958 330.78125 448.216146 371.373698 490.696615 C 419.895833 445.384115 471.627604 432.734375 531.855469 490.696615 " transform="matrix(0.0206897, 0, 0, 0.0206897, 0, 0)"/>

</g>%n%n</svg>