<svg width="300" height="40" viewBox="0 0 300 40" fill="none" xmlns="http://www.w3.org/2000/svg" xmlns:xlink="http://www.w3.org/1999/xlink">

<g transform="translate(130.000000, 0.000000) scale(2.000000 2.000000) "> 

<rect opacity="0.55" x="1" y="1" width="18" height="18" rx="5" fill="white"/>
<rect opacity="0.85" x="2" y="2" width="16" height="16" rx="4" fill="#45ABE9"/>

</g>%n%n
<g transform="translate(138.000000, 8.000000) scale(0.750000 0.750000) "> 

<defs>
<filter id="filter-remove-color" x="0%" y="0%" width="100%" height="100%">
<feColorMatrix color-interpolation-filters="sRGB" values="0 0 0 0 1 0 0 0 0 1 0 0 0 0 1 0 0 0 1 0" />
</filter>
<mask id="mask-0">
<g filter="url(#filter-remove-color)">
<rect x="-3.2" y="-3.2" width="38.4" height="38.4" fill="rgb(0%, 0%, 0%)" fill-opacity="0.2"/>
</g>
</mask>
<clip100Path id="clip100-0">
<rect x="0" y="0" width="32" height="32"/>
</clip100Path>
<g id="source-6" clip100-path="url(#clip100-0)">
<path fill-rule="nonzero" fill="rgb(100%, 100%, 100%)" fill-opacity="1" d="M 5.332031 5.332031 L 26.667969 5.332031 L 26.667969 26.667969 L 5.332031 26.667969 Z M 5.332031 5.332031 "/>
</g>
</defs>
<g mask="url(#mask-0)">
<use xlink:href="#source-6"/>
</g>
<path fill-rule="nonzero" fill="rgb(100%, 100%, 100%)" fill-opacity="1" d="M 29.332031 2.667969 L 2.667969 2.667969 L 2.667969 26.667969 L 5.332031 26.667969 L 5.332031 5.332031 L 26.667969 5.332031 L 26.667969 26.667969 L 29.332031 26.667969 Z M 29.332031 2.667969 "/>
<path fill-rule="evenodd" fill="rgb(100%, 100%, 100%)" fill-opacity="1" d="M 10.667969 8 L 10.667969 18.667969 L 13.332031 18.667969 L 13.332031 16 L 18.667969 16 C 20.140625 16 21.332031 14.804688 21.332031 13.332031 L 21.332031 10.667969 C 21.332031 9.195312 20.140625 8 18.667969 8 Z M 13.332031 13.332031 L 18.667969 13.332031 L 18.667969 10.667969 L 13.332031 10.667969 Z M 13.332031 13.332031 "/>
<path fill-rule="nonzero" fill="rgb(100%, 100%, 100%)" fill-opacity="1" d="M 16 21.332031 L 8 26.667969 L 13.332031 26.667969 L 13.332031 32 L 18.667969 32 L 18.667969 26.667969 L 24 26.667969 Z M 16 21.332031 "/>

</g>%n%n</svg>