<svg width="300" height="40" viewBox="0 0 300 40" fill="none" xmlns="http://www.w3.org/2000/svg" xmlns:xlink="http://www.w3.org/1999/xlink">

<g transform="translate(130.000000, 0.000000) scale(2.000000 2.000000) "> 

<g clip-path="url(#clip0)">
<path opacity="0.949" d="M9.9994 1C14.9626 1 19 5.00181 19 10C19 14.9655 14.9626 19 9.9994 19C5.0374 19 1 14.9655 1 10C1 5.00181 5.0374 1 9.9994 1Z" fill="#45ABE9"/>
<path opacity="0.95" fill-rule="evenodd" clip-rule="evenodd" d="M10 19C14.9706 19 19 14.9706 19 10C19 5.02944 14.9706 1 10 1C5.02944 1 1 5.02944 1 10C1 14.9706 5.02944 19 10 19ZM10 20C15.5228 20 20 15.5228 20 10C20 4.47715 15.5228 0 10 0C4.47715 0 0 4.47715 0 10C0 15.5228 4.47715 20 10 20Z" fill="#1578B3"/>
</g>
<defs>
<clipPath id="clip0">
<path d="M0 0H20V20H0V0Z" fill="white"/>
</clipPath>
</defs>

</g>%n%n
<g transform="translate(138.000000, 8.000000) scale(0.750000 0.750000) "> 

<defs>
<filter id="filter-remove-color" x="0%" y="0%" width="100%" height="100%">
<feColorMatrix color-interpolation-filters="sRGB" values="0 0 0 0 1 0 0 0 0 1 0 0 0 0 1 0 0 0 1 0" />
</filter>
<mask id="mask-0">
<g filter="url(#filter-remove-color)">
<rect x="-3.2" y="-3.2" width="38.4" height="38.4" fill="rgb(0%, 0%, 0%)" fill-opacity="0.5"/>
</g>
</mask>
<clip100Path id="clip100-0">
<rect x="0" y="0" width="32" height="32"/>
</clip100Path>
<g id="source-7" clip100-path="url(#clip100-0)">
<path fill-rule="nonzero" fill="rgb(100%, 100%, 100%)" fill-opacity="1" d="M 12 10.667969 L 18.539062 5.332031 L 13.332031 5.332031 L 9.332031 10.667969 Z M 12 10.667969 "/>
</g>
</defs>
<path fill-rule="evenodd" fill="rgb(100%, 100%, 100%)" fill-opacity="1" d="M 8 16 C 8 14.527344 9.195312 13.332031 10.667969 13.332031 L 16 13.332031 C 17.472656 13.332031 18.667969 14.527344 18.667969 16 L 18.667969 26.667969 L 20 26.667969 C 20.738281 26.667969 21.332031 26.070312 21.332031 25.332031 L 21.332031 24 C 19.859375 24 18.667969 22.804688 18.667969 21.332031 C 18.667969 19.859375 19.859375 18.667969 21.332031 18.667969 L 18.667969 13.332031 L 21.332031 13.332031 L 24 18.667969 L 24 25.332031 C 24 27.542969 22.210938 29.332031 20 29.332031 L 9.332031 29.332031 C 8.597656 29.332031 8 28.738281 8 28 Z M 10.667969 16 L 16 16 L 16 21.332031 L 10.667969 21.332031 Z M 10.667969 16 "/>
<g mask="url(#mask-0)">
<use xlink:href="#source-7"/>
</g>
<path fill-rule="nonzero" fill="rgb(100%, 100%, 100%)" fill-opacity="1" d="M 12 0 L 16.90625 4 L 25.332031 4 C 26.070312 4 26.667969 4.597656 26.667969 5.332031 C 26.667969 6.070312 26.070312 6.667969 25.332031 6.667969 L 8 6.667969 L 6.667969 8 L 5.332031 8 L 6.667969 5.332031 L 5.332031 2.667969 L 6.667969 2.667969 L 8 4 L 12.332031 4 L 9.332031 0 Z M 12 0 "/>

</g>%n%n</svg>