<svg width="300" height="40" viewBox="0 0 300 40" fill="none" xmlns="http://www.w3.org/2000/svg" xmlns:xlink="http://www.w3.org/1999/xlink" version="1.1">

<g transform="translate(130.000000, 0.000000) scale(2.000000 2.000000) "> 

<g clip-path="url(#clip0)">
<path opacity="0.949" d="M9.9994 1C14.9626 1 19 5.00181 19 10C19 14.9655 14.9626 19 9.9994 19C5.0374 19 1 14.9655 1 10C1 5.00181 5.0374 1 9.9994 1Z" fill="#45ABE9"/>
<path opacity="0.95" fill-rule="evenodd" clip-rule="evenodd" d="M10 19C14.9706 19 19 14.9706 19 10C19 5.02944 14.9706 1 10 1C5.02944 1 1 5.02944 1 10C1 14.9706 5.02944 19 10 19ZM10 20C15.5228 20 20 15.5228 20 10C20 4.47715 15.5228 0 10 0C4.47715 0 0 4.47715 0 10C0 15.5228 4.47715 20 10 20Z" fill="#1578B3"/>
</g>
<defs>
<clipPath id="clip0">
<path d="M0 0H20V20H0V0Z" fill="white"/>
</clipPath>
</defs>

</g>%n%n
<g transform="translate(138.000000, 8.000000) scale(2.000000 2.000000) "> 

<g id="surface1">
<path style=" stroke:none;fill-rule:nonzero;fill:rgb(100%,100%,100%);fill-opacity:1;" d="M 2.515625 2.734375 L 4.59375 3.300781 L 5.75 2.5 L 6.152344 2.597656 L 5.007812 3.402344 L 11.3125 5.128906 L 10.851562 6.824219 L 4.523438 5.097656 C 2.070312 4.367188 2.515625 2.734375 2.515625 2.734375 "/>
<path style=" stroke:none;fill-rule:nonzero;fill:rgb(100%,100%,100%);fill-opacity:1;" d="M 7.984375 7.066406 C 7.976562 6.925781 7.949219 6.789062 7.902344 6.664062 L 10.757812 7.457031 L 10.664062 7.808594 Z M 7.984375 7.066406 "/>
<path style=" stroke:none;fill-rule:nonzero;fill:rgb(100%,100%,100%);fill-opacity:1;" d="M 5.394531 6.347656 C 5.46875 6.238281 5.5625 6.136719 5.664062 6.050781 L 0.90625 4.734375 L 0.90625 5.113281 Z M 5.394531 6.347656 "/>
<path style=" stroke:none;fill-rule:nonzero;fill:rgb(100%,100%,100%);fill-opacity:1;" d="M 6.570312 7.601562 C 6.824219 7.601562 7.035156 7.394531 7.035156 7.136719 C 7.035156 6.882812 6.824219 6.675781 6.570312 6.675781 C 6.3125 6.675781 6.105469 6.882812 6.105469 7.136719 C 6.105469 7.394531 6.3125 7.601562 6.570312 7.601562 Z M 11.214844 10.445312 C 10.988281 10.445312 10.773438 10.394531 10.582031 10.308594 C 10.382812 10.214844 10.160156 10.160156 9.929688 10.160156 C 9.695312 10.160156 9.472656 10.214844 9.277344 10.308594 C 9.085938 10.394531 8.867188 10.445312 8.644531 10.445312 C 8.417969 10.445312 8.203125 10.394531 8.007812 10.308594 C 7.808594 10.214844 7.585938 10.160156 7.355469 10.160156 C 7.121094 10.160156 6.902344 10.214844 6.703125 10.308594 C 6.511719 10.394531 6.292969 10.445312 6.066406 10.445312 C 5.84375 10.445312 5.625 10.394531 5.433594 10.308594 C 5.234375 10.214844 5.011719 10.160156 4.78125 10.160156 C 4.546875 10.160156 4.324219 10.214844 4.128906 10.308594 C 3.9375 10.394531 3.71875 10.445312 3.492188 10.445312 C 3.269531 10.445312 3.050781 10.394531 2.859375 10.308594 C 2.660156 10.214844 2.4375 10.160156 2.207031 10.160156 C 1.976562 10.160156 1.75 10.214844 1.554688 10.308594 C 1.363281 10.394531 1.144531 10.445312 0.921875 10.445312 L 0.90625 6.664062 L 6.109375 8.101562 C 5.75 7.925781 5.503906 7.5625 5.503906 7.136719 C 5.503906 6.546875 5.980469 6.070312 6.570312 6.070312 C 7.164062 6.070312 7.640625 6.546875 7.640625 7.136719 C 7.640625 7.730469 7.160156 8.207031 6.570312 8.207031 C 6.535156 8.207031 6.5 8.199219 6.46875 8.195312 L 11.210938 9.503906 Z M 11.214844 10.445312 "/>
</g>

</g>%n%n</svg>