<svg width="40" height="40" viewBox="0 0 40 40" fill="none" xmlns="http://www.w3.org/2000/svg" >

<g transform="translate(0.000000, 0.000000) scale(2.222222 2.222222) "> 

<g clip-path="url(#clip0)">
<path opacity="0.95" fill-rule="evenodd" clip-rule="evenodd" d="M13 1H5C2.79086 1 1 2.79086 1 5V13C1 15.2091 2.79086 17 5 17H13C15.2091 17 17 15.2091 17 13V5C17 2.79086 15.2091 1 13 1ZM5 0C2.23858 0 0 2.23858 0 5V13C0 15.7614 2.23858 18 5 18H13C15.7614 18 18 15.7614 18 13V5C18 2.23858 15.7614 0 13 0H5Z" fill="#1578B3"/>
<rect opacity="0.95" x="1" y="1" width="16" height="16" rx="4" fill="#45ABE9"/>
</g>
<defs>
<clipPath id="clip0">
<path d="M0 0H18V18H0V0Z" fill="white"/>
</clipPath>
</defs>

</g>


<g transform="translate(8.000000, 8.000000) scale(0.500000 0.500000) "> 

<path d="M14.1635 32.02C13.7087 32.5434 13.2541 33.0668 12.7459 33.5248C10.9783 35.1182 8.68295 36 6.30321 36H4V40H44V36H42C39.4388 36 36.9826 34.9826 35.1716 33.1716L35.126 33.126C34.7888 32.7888 34.4786 32.4229 34.1684 32.057C33.7924 31.6135 33.4164 31.17 32.9923 30.7775C31.7213 29.6012 29.0615 28 24 28C19.65 28 17.2033 29.1827 15.8762 30.2619C15.2451 30.7751 14.7043 31.3976 14.1635 32.02Z" fill="#ffffff"/>

</g>

</svg>