<svg width="300" height="40" viewBox="0 0 300 40" fill="none" xmlns="http://www.w3.org/2000/svg" xmlns:xlink="http://www.w3.org/1999/xlink">

<g transform="translate(130.000000, 0.000000) scale(2.500000 2.500000) "> 

<path fill-rule="evenodd" clip-rule="evenodd" d="M6.99998 2.13147L1.1972 5.99999L5.10124 8.60268C4.25912 8.79818 3.60675 9.23865 3.16938 9.62209C2.80445 9.94203 2.4882 10.3095 2.22208 10.7146C1.78832 11.4204 2.00884 12.3442 2.71463 12.7779C3.41598 13.209 4.33261 12.9939 4.76974 12.2986C4.88224 12.146 5.00388 12.0035 5.14708 11.8779C5.42025 11.6384 5.70684 11.5 6.00003 11.5C6.34917 11.5 6.70057 11.8162 6.9874 12.0743C7.05811 12.1379 7.12489 12.198 7.18675 12.2489C7.71672 12.6854 8.70565 13.5 10 13.5C11.2569 13.5 12.219 12.8772 12.7887 12.3889C13.3941 11.87 13.7481 11.3321 13.7481 11.3321C14.2076 10.6428 14.0214 9.71145 13.3321 9.25192C12.6462 8.79468 11.7207 8.97682 11.2588 9.65773L11.168 9.7741C11.0908 9.86672 10.9772 9.99042 10.8363 10.1111C10.5311 10.3728 10.2432 10.5 10 10.5C9.88582 10.5 9.71327 10.4334 9.0085 9.86283L14.8028 5.99999L8.99998 2.13147V3.99999H6.99998V2.13147ZM8.99998 9.85593V7.99999H6.99998V8.6527C7.84558 8.91169 8.49253 9.44103 8.8958 9.77099L8.97535 9.83594C8.98363 9.84267 8.99184 9.84933 8.99998 9.85593Z" fill="#EBE7E4" fill-opacity="0.8"/>

</g>%n%n
<g transform="translate(139.000000, 9.000000) scale(1.833333 1.833333) "> 

<path fill-rule="nonzero" fill="rgb(0%, 57.254902%, 85.490196%)" fill-opacity="1" d="M 4 2 L 1 4 L 4 6 L 4 5 L 8 5 L 8 6 L 11 4 L 8 2 L 8 3 L 4 3 Z M 4 2 "/>
<path fill-rule="nonzero" fill="rgb(0%, 57.254902%, 85.490196%)" fill-opacity="1" d="M 1.929688 9.753906 L 1.925781 9.761719 C 1.78125 9.996094 1.472656 10.070312 1.238281 9.925781 C 1.003906 9.78125 0.929688 9.472656 1.074219 9.238281 C 1.273438 8.914062 1.542969 8.625 1.828125 8.375 C 2.308594 7.953125 3.046875 7.5 4 7.5 C 4.976562 7.5 5.730469 8.113281 6.3125 8.585938 C 6.789062 8.972656 7.34375 9.5 8 9.5 C 8.582031 9.5 9.09375 9.207031 9.488281 8.871094 C 9.707031 8.679688 9.917969 8.464844 10.085938 8.222656 C 10.238281 7.992188 10.546875 7.929688 10.777344 8.082031 C 11.007812 8.238281 11.070312 8.546875 10.914062 8.777344 C 10.851562 8.875 10.777344 8.964844 10.703125 9.054688 C 10.574219 9.210938 10.382812 9.417969 10.136719 9.628906 C 9.65625 10.042969 8.917969 10.5 8 10.5 C 7.097656 10.5 6.378906 9.929688 5.714844 9.386719 C 5.070312 8.863281 4.582031 8.5 4 8.5 C 3.375 8.5 2.863281 8.796875 2.488281 9.125 C 2.164062 9.410156 1.964844 9.703125 1.929688 9.753906 Z M 1.929688 9.753906 "/>

</g>%n%n</svg>