<svg width="300" height="40" viewBox="0 0 300 40" fill="none" xmlns="http://www.w3.org/2000/svg" xmlns:xlink="http://www.w3.org/1999/xlink">

<g transform="translate(130.000000, 0.000000) scale(2.000000 2.000000) "> 

<g clip-path="url(#clip0)">
<path opacity="0.949" d="M9.9994 1C14.9626 1 19 5.00181 19 10C19 14.9655 14.9626 19 9.9994 19C5.0374 19 1 14.9655 1 10C1 5.00181 5.0374 1 9.9994 1Z" fill="#45ABE9"/>
<path opacity="0.95" fill-rule="evenodd" clip-rule="evenodd" d="M10 19C14.9706 19 19 14.9706 19 10C19 5.02944 14.9706 1 10 1C5.02944 1 1 5.02944 1 10C1 14.9706 5.02944 19 10 19ZM10 20C15.5228 20 20 15.5228 20 10C20 4.47715 15.5228 0 10 0C4.47715 0 0 4.47715 0 10C0 15.5228 4.47715 20 10 20Z" fill="#1578B3"/>
</g>
<defs>
<clipPath id="clip0">
<path d="M0 0H20V20H0V0Z" fill="white"/>
</clipPath>
</defs>

</g>%n%n
<g transform="translate(138.000000, 8.000000) scale(0.750000 0.750000) "> 

<path fill-rule="evenodd" fill="rgb(100%, 100%, 100%)" fill-opacity="1" d="M 2.667969 2.667969 L 2.667969 13.332031 L 5.332031 13.332031 L 5.332031 10.667969 L 8 10.667969 C 9.472656 10.667969 10.667969 9.472656 10.667969 8 L 10.667969 5.332031 C 10.667969 3.859375 9.472656 2.667969 8 2.667969 Z M 5.332031 8 L 8 8 L 8 5.332031 L 5.332031 5.332031 Z M 5.332031 8 "/>
<path fill-rule="evenodd" fill="rgb(100%, 100%, 100%)" fill-opacity="1" d="M 9.332031 18.667969 C 8.597656 18.667969 8 18.070312 8 17.332031 L 8 14.667969 C 8 13.929688 8.597656 13.332031 9.332031 13.332031 L 14.351562 13.332031 L 16.03125 12.496094 C 16.011719 12.332031 16 12.167969 16 12 C 16 9.789062 17.789062 8 20 8 C 22.210938 8 24 9.789062 24 12 C 24 13.742188 22.886719 15.222656 21.332031 15.773438 L 21.332031 21.5625 C 22.886719 22.109375 24 23.589844 24 25.332031 C 24 27.542969 22.210938 29.332031 20 29.332031 C 17.789062 29.332031 16 27.542969 16 25.332031 C 16 25.164062 16.011719 25 16.03125 24.839844 L 14.929688 24.289062 L 12.941406 26.277344 C 12.5625 26.65625 11.988281 26.773438 11.488281 26.566406 C 10.992188 26.359375 10.667969 25.871094 10.667969 25.332031 L 10.667969 22.667969 C 10.667969 21.929688 11.261719 21.332031 12 21.332031 C 12.570312 21.332031 13.058594 21.691406 13.25 22.199219 L 13.332031 22.113281 L 13.332031 16 L 10.667969 16 L 10.667969 17.332031 C 10.667969 18.070312 10.070312 18.667969 9.332031 18.667969 Z M 17.222656 22.453125 C 17.628906 22.0625 18.121094 21.753906 18.667969 21.5625 L 18.667969 15.773438 C 18.121094 15.578125 17.628906 15.273438 17.222656 14.878906 L 16 15.492188 L 16 21.84375 Z M 21.332031 25.332031 C 21.332031 24.597656 20.738281 24 20 24 C 19.261719 24 18.667969 24.597656 18.667969 25.332031 C 18.667969 26.070312 19.261719 26.667969 20 26.667969 C 20.738281 26.667969 21.332031 26.070312 21.332031 25.332031 Z M 21.332031 12 C 21.332031 11.261719 20.738281 10.667969 20 10.667969 C 19.261719 10.667969 18.667969 11.261719 18.667969 12 C 18.667969 12.738281 19.261719 13.332031 20 13.332031 C 20.738281 13.332031 21.332031 12.738281 21.332031 12 Z M 21.332031 12 "/>
<path fill-rule="evenodd" fill="rgb(100%, 100%, 100%)" fill-opacity="1" d="M 13.332031 4.066406 C 13.332031 3.332031 13.929688 2.734375 14.667969 2.734375 L 28.089844 2.734375 C 28.824219 2.734375 29.421875 3.332031 29.421875 4.066406 L 29.421875 28 C 29.421875 28.738281 28.824219 29.332031 28.089844 29.332031 C 27.351562 29.332031 26.757812 28.738281 26.757812 28 L 26.757812 5.398438 L 14.667969 5.398438 C 13.929688 5.398438 13.332031 4.804688 13.332031 4.066406 Z M 13.332031 4.066406 "/>

</g>%n%n</svg>