<svg width="40" height="40" viewBox="0 0 40 40" fill="none" xmlns="http://www.w3.org/2000/svg" >

<g transform="translate(0.000000, 0.000000) scale(2.500000 2.500000) "> 

<path opacity="0.816" d="M2.73107 1.51862C2.33228 1.51863 1.97108 1.66598 1.68493 1.95214C1.39877 2.23829 1.25142 2.5995 1.2514 2.99828V10.2309C1.25142 10.6297 1.40418 10.9946 1.68493 11.2754C1.97106 11.5615 2.33226 11.7089 2.73107 11.7089H3.78893C4.18769 11.7089 4.55264 11.5561 4.8334 11.2754C5.10877 11 5.26858 10.6405 5.26859 10.2309V6.751L6.80182 6.40954C6.74912 6.56194 6.69069 6.73491 6.62774 6.93178C6.50973 7.30082 6.43924 7.51484 6.38838 7.74693C6.33753 7.97902 6.32583 8.21322 6.32645 8.39805C6.32645 8.39861 6.32645 8.39916 6.32645 8.39972L6.32812 8.75625C6.32947 8.84679 6.34241 8.9368 6.36662 9.02406C6.36606 9.02517 6.3655 9.02629 6.36495 9.02741L6.16576 9.25672C5.99867 9.4484 5.906 9.69373 5.90465 9.94801L5.9013 11.2904L5.89794 12.6345C5.89823 12.7828 5.92959 12.9293 5.99 13.0647C5.94237 13.227 5.91293 13.3758 5.90799 13.4631C5.9025 13.56 5.90278 13.6471 5.91134 13.751C5.91561 13.8029 5.92131 13.8574 5.93979 13.9418C5.95827 14.0261 5.90965 14.1219 6.18585 14.4389C6.1861 14.4392 6.43477 14.6495 6.43525 14.6498C6.43572 14.6501 6.54594 14.7094 6.58422 14.7251C6.66078 14.7566 6.705 14.7667 6.73988 14.7753C6.80966 14.7926 6.84211 14.7964 6.87212 14.8004C6.93213 14.8084 6.97002 14.8112 7.01104 14.8138C7.0931 14.819 7.17882 14.8217 7.2822 14.8239C7.48896 14.8283 7.75487 14.8292 8.0438 14.8256L9.05813 14.8122C9.20253 14.8104 9.34502 14.7791 9.47689 14.7202C9.60876 14.6613 9.72722 14.5762 9.82501 14.4699C9.9228 14.3637 9.99786 14.2386 10.0456 14.1023C10.0933 13.966 10.1127 13.8214 10.1026 13.6773L10.0892 13.4865V13.4848C10.0825 13.3894 9.97694 13.2471 9.9235 13.0982C9.97566 12.9503 10.0459 12.7853 10.0574 12.6814C10.0931 12.3585 10.0927 12.0058 10.0959 11.3323L10.1026 9.98484C10.1036 9.72631 10.0102 9.47631 9.83982 9.28183L9.63226 9.04582C9.66071 8.94962 9.67536 8.84987 9.67578 8.74955V8.39805C9.67578 8.21529 9.66209 7.97922 9.6105 7.74693C9.55891 7.51464 9.48886 7.29442 9.3678 6.91504C9.2639 6.58944 9.19435 6.38127 9.12509 6.20366C9.09111 6.11652 9.06191 6.03633 8.99453 5.92078L11.0818 5.45546C10.8913 5.69642 10.7352 5.96491 10.7353 6.28903V10.3129C10.7351 10.6965 10.8779 11.033 11.1454 11.3005C11.4196 11.5747 11.763 11.709 12.133 11.7089H13.3565C13.7266 11.7091 14.0749 11.568 14.3424 11.3005C14.61 11.0329 14.7527 10.6963 14.7525 10.3129V6.28903C14.7527 5.90549 14.6032 5.56392 14.3424 5.30314C14.0816 5.04236 13.7399 4.89288 13.3565 4.89305H13.0854C13.7345 4.6072 14.2349 3.96924 14.175 3.25605C14.1059 2.43214 13.3577 1.72157 12.5313 1.69437C12.48 1.69232 12.4287 1.69177 12.3773 1.69437C12.3712 1.69487 12.3651 1.69543 12.3589 1.69604C12.2683 1.70214 12.1796 1.71577 12.0911 1.73621L12.0827 1.73789C12.0794 1.73867 12.076 1.73876 12.0727 1.73956L5.26859 3.25772V2.99828C5.26858 2.58868 5.11414 2.23288 4.8334 1.95214C4.55265 1.67139 4.18771 1.51863 3.78893 1.51862H2.73107ZM9.67913 12.524C9.69323 12.5383 9.80202 12.6716 9.84986 12.8103C9.8977 12.9489 9.88886 13.0077 9.88836 12.9709C9.8883 12.9666 9.88261 13.0023 9.8833 13.0028C9.80747 12.8175 9.7772 12.6233 9.67913 12.524ZM9.72265 13.3978C9.70814 13.4201 9.71794 13.4231 9.69922 13.448C9.56707 13.6239 9.21249 13.8597 8.87234 13.8597C9.04635 13.8597 9.47398 13.6468 9.72265 13.3978V13.3978Z" fill="#EBE7E4"/>

</g>


<g transform="translate(8.000000, 8.000000) scale(2.000000 2.000000) "> 

<path d="M109.554 176.829L479.082 94.4486" stroke="#444444" stroke-width="54.685" stroke-linecap="round"/>
<path opacity="0.75" d="M465.078 202.663C461.355 202.661 457.655 204.193 455.022 206.826C452.39 209.458 450.858 213.159 450.859 216.882V387.413C450.857 391.136 452.39 394.837 455.022 397.469C457.655 400.102 461.355 401.634 465.078 401.632H516.922C520.645 401.634 524.345 400.102 526.978 397.469C529.61 394.837 531.142 391.136 531.141 387.413V216.882C531.143 213.159 529.61 209.458 526.978 206.826C524.345 204.193 520.645 202.662 516.922 202.663H465.078Z" fill="#444444"/>
<path opacity="0.75" d="M66.5781 59.6632C61.9394 59.6634 57.3269 61.5706 54.0469 64.8507C50.7668 68.1308 48.8595 72.7432 48.8594 77.382V383.913C48.8595 388.552 50.7668 393.164 54.0469 396.444C57.3269 399.725 61.9394 401.632 66.5781 401.632H111.422C116.061 401.632 120.673 399.725 123.953 396.444C127.233 393.164 129.14 388.552 129.141 383.913V229.444C106.725 236.327 79.8395 230.231 65.3594 211.194C43.3987 184.926 54.604 138.505 86.9844 126.257C101.034 123.003 115.088 119.779 129.141 116.538V77.382C129.14 72.7432 127.233 68.1308 123.953 64.8507C120.673 61.5706 116.061 59.6634 111.422 59.6632H66.5781Z" fill="#444444"/>
<path d="M291.198 533.702L334.168 533.155L333.61 524.932C333.166 518.385 332.244 515.89 329.084 512.691C325.828 509.396 325.096 507.246 325.007 500.725C324.935 495.416 325.564 492.777 326.903 492.777C332.889 492.777 333.507 487.169 333.78 430.388L334.054 373.274L325.042 362.987L316.031 352.701L289.524 352.67L263.018 352.638L254.547 362.355L246.077 372.072L245.955 429.013L245.832 485.953L250.46 490.239C254.517 493.996 255.075 495.398 254.991 501.62C254.908 507.663 254.277 509.227 250.739 512.152C247.209 515.071 246.517 516.771 246.138 523.464C245.893 527.796 246.263 531.995 246.96 532.795C247.657 533.595 267.564 534.003 291.198 533.702V533.702ZM290.013 321.195L315.986 321.162V306.26C315.986 292.389 315.23 288.99 305.055 257.105C296.402 229.989 293.53 222.645 291.275 221.861C289.708 221.317 287.687 221.721 286.782 222.758C285.878 223.796 280.368 239.561 274.538 257.793C264.615 288.828 263.942 291.907 263.99 306.085L264.04 321.228L290.013 321.195Z" fill="#444444"/>

</g>

</svg>