<svg width="300" height="40" viewBox="0 0 300 40" fill="none" xmlns="http://www.w3.org/2000/svg" xmlns:xlink="http://www.w3.org/1999/xlink">

<g transform="translate(130.000000, 0.000000) scale(2.222222 2.222222) "> 

<g clip-path="url(#clip0)">
<path opacity="0.95" fill-rule="evenodd" clip-rule="evenodd" d="M13 1H5C2.79086 1 1 2.79086 1 5V13C1 15.2091 2.79086 17 5 17H13C15.2091 17 17 15.2091 17 13V5C17 2.79086 15.2091 1 13 1ZM5 0C2.23858 0 0 2.23858 0 5V13C0 15.7614 2.23858 18 5 18H13C15.7614 18 18 15.7614 18 13V5C18 2.23858 15.7614 0 13 0H5Z" fill="#1578B3"/>
<rect opacity="0.95" x="1" y="1" width="16" height="16" rx="4" fill="#45ABE9"/>
</g>
<defs>
<clipPath id="clip0">
<path d="M0 0H18V18H0V0Z" fill="white"/>
</clipPath>
</defs>

</g>%n%n
<g transform="translate(138.000000, 8.000000) scale(2.000000 2.000000) "> 

<path fill-rule="nonzero" fill="rgb(100%, 100%, 100%)" fill-opacity="1" d="M 3.539062 8.003906 C 3.425781 8.136719 3.3125 8.265625 3.1875 8.382812 C 2.746094 8.78125 2.171875 9 1.574219 9 L 1 9 L 1 10 L 11 10 L 11 9 L 10.5 9 C 9.859375 9 9.246094 8.746094 8.792969 8.292969 L 8.78125 8.28125 C 8.695312 8.195312 8.621094 8.105469 8.542969 8.015625 C 8.449219 7.902344 8.355469 7.792969 8.25 7.695312 C 7.929688 7.398438 7.265625 7 6 7 C 4.914062 7 4.300781 7.296875 3.96875 7.566406 C 3.8125 7.695312 3.675781 7.847656 3.539062 8.003906 Z M 3.539062 8.003906 "/>

</g>%n%n</svg>