<svg width="300" height="35" viewBox="0 0 300 35" fill="none" xmlns="http://www.w3.org/2000/svg" >

<g transform="translate(135.000000, 2.000000) scale(1.250000 1.250000) "> 

<g clip-path="url(#clip0)">
<path opacity="0.849" d="M11.9993 1C18.0654 1 23 5.89376 23 12.0007C23 18.0639 18.0654 23 11.9993 23C5.93459 23 1 18.0639 1 12.0007C1 5.89376 5.93459 1 11.9993 1Z" fill="#0086C7"/>
<path opacity="0.55" fill-rule="evenodd" clip-rule="evenodd" d="M12 23C18.0751 23 23 18.0751 23 12C23 5.92487 18.0751 1 12 1C5.92487 1 1 5.92487 1 12C1 18.0751 5.92487 23 12 23ZM12 24C18.6274 24 24 18.6274 24 12C24 5.37258 18.6274 0 12 0C5.37258 0 0 5.37258 0 12C0 18.6274 5.37258 24 12 24Z" fill="white"/>
</g>
<defs>
<clipPath id="clip0">
<path d="M0 0H24V24H0V0Z" fill="white"/>
</clipPath>
</defs>

</g>


<g transform="translate(141.000000, 8.000000) scale(0.375000 0.375000) "> 

<path d="M42.633 7.89693C43.6809 7.54764 44.2472 6.415 43.8979 5.36711C43.5486 4.31922 42.416 3.7529 41.3681 4.1022L5.36809 16.1022C4.3202 16.4515 3.75388 17.5841 4.10318 18.632C4.45247 19.6799 5.58511 20.2462 6.633 19.8969L42.633 7.89693Z" fill="#ffffff"/>
<path fill-rule="evenodd" clip100-rule="evenodd" d="M16 26C16 22.6863 18.6863 20 22 20H38C41.3137 20 44 22.6863 44 26V40C44 42.2091 42.2091 44 40 44H20C17.7909 44 16 42.2091 16 40V26ZM20 24H40V36H20V24Z" fill="#ffffff"/>
<path opacity="0.5" d="M32 15.6586C34.3304 14.8349 36 12.6124 36 10C36 6.68629 33.3137 4 30 4C26.6863 4 24 6.68629 24 10C24 12.6124 25.6696 14.8349 28 15.6586V20H32V15.6586Z" fill="#ffffff"/>

</g>

</svg>