<svg width="300" height="35" viewBox="0 0 300 35" fill="none" xmlns="http://www.w3.org/2000/svg">

<g transform="translate(135.000000, 2.000000) scale(1.875000 1.875000) "> 

<path opacity="0.804" d="M3.94794 1.45197C3.34809 1.45197 2.83829 1.79422 2.53355 2.21356C2.22881 2.6329 2.0766 3.146 2.0766 3.6949V12.2816C2.0766 12.8305 2.22881 13.3436 2.53355 13.763C2.83829 14.1823 3.34809 14.5246 3.94794 14.5246H12.056C12.6558 14.5246 13.1656 14.1823 13.4703 13.763C13.7751 13.3436 13.9273 12.8305 13.9273 12.2816V3.6949C13.9273 3.146 13.7751 2.6329 13.4703 2.21356C13.1656 1.79422 12.6558 1.45197 12.056 1.45197H3.94794V1.45197Z" fill="#EBE7E4"/>

</g>


<g transform="translate(139.000000, 6.000000) scale(0.037931 0.037931) "> 

<g clip100-path="url(#clip1000)">
<path d="M117.043 48.8125C93.7026 48.8125 74.9121 74.6843 74.9121 106.82V473.18C74.9121 505.316 93.7026 531.188 117.043 531.188H462.957C486.297 531.188 505.088 505.316 505.088 473.18V106.82C505.088 74.6843 486.297 48.8125 462.957 48.8125H117.043ZM282.531 91.541L425.348 241.422H154.652L282.531 91.541ZM154.652 338.578H425.348L282.531 488.459L154.652 338.578Z" fill="#3f3f3f"/>
</g>
<defs>
<clip100Path id="clip1000">
<path d="M0 0H580V580H0V0Z" fill="#3f3f3f"/>
</clip100Path>
</defs>

</g>

</svg>