<svg width="300" height="40" viewBox="0 0 300 40" fill="none" xmlns="http://www.w3.org/2000/svg" >

<g transform="translate(130.000000, 0.000000) scale(2.500000 2.500000) "> 

<path fill-rule="evenodd" clip-rule="evenodd" d="M6.99998 2.13147L1.1972 5.99999L5.10124 8.60268C4.25912 8.79818 3.60675 9.23865 3.16938 9.62209C2.80445 9.94203 2.4882 10.3095 2.22208 10.7146C1.78832 11.4204 2.00884 12.3442 2.71463 12.7779C3.41598 13.209 4.33261 12.9939 4.76974 12.2986C4.88224 12.146 5.00388 12.0035 5.14708 11.8779C5.42025 11.6384 5.70684 11.5 6.00003 11.5C6.34917 11.5 6.70057 11.8162 6.9874 12.0743C7.05811 12.1379 7.12489 12.198 7.18675 12.2489C7.71672 12.6854 8.70565 13.5 10 13.5C11.2569 13.5 12.219 12.8772 12.7887 12.3889C13.3941 11.87 13.7481 11.3321 13.7481 11.3321C14.2076 10.6428 14.0214 9.71145 13.3321 9.25192C12.6462 8.79468 11.7207 8.97682 11.2588 9.65773L11.168 9.7741C11.0908 9.86672 10.9772 9.99042 10.8363 10.1111C10.5311 10.3728 10.2432 10.5 10 10.5C9.88582 10.5 9.71327 10.4334 9.0085 9.86283L14.8028 5.99999L8.99998 2.13147V3.99999H6.99998V2.13147ZM8.99998 9.85593V7.99999H6.99998V8.6527C7.84558 8.91169 8.49253 9.44103 8.8958 9.77099L8.97535 9.83594C8.98363 9.84267 8.99184 9.84933 8.99998 9.85593Z" fill="#EBE7E4" fill-opacity="0.8"/>

</g>%n%n
<g transform="translate(139.000000, 9.000000) scale(0.458333 0.458333) "> 

<path d="M16 8L3.99997 16L16 24V20H32V24L44 16L32 8V12H16V8Z" fill="#0092DA"/>
<path d="M7.72008 39.0222L7.7025 39.0495C7.70269 39.0492 7.7023 39.0498 7.7025 39.0495C7.12275 39.9862 5.89201 40.2812 4.95276 39.7039C4.01171 39.1256 3.71851 37.8925 4.29687 36.9515C5.09741 35.6547 6.17408 34.4958 7.31431 33.4961C9.23135 31.8154 12.1826 30 16 30C19.9089 30 22.9166 32.4459 25.245 34.3394C27.1512 35.8892 29.3738 38 32 38C34.3242 38 36.3747 36.8304 37.9484 35.4815C38.8358 34.7209 39.6682 33.8527 40.3366 32.8895C40.9495 31.9714 42.1907 31.7234 43.1094 32.3359C44.0284 32.9486 44.276 34.1915 43.6633 35.1106C43.4043 35.4962 43.1149 35.8612 42.8177 36.2179C42.2956 36.8444 41.5305 37.6794 40.5516 38.5185C38.6253 40.1696 35.6758 42 32 42C28.3949 42 25.5113 39.7146 22.8558 37.5521C20.2805 35.4592 18.3284 34 16 34C13.5049 34 11.4561 35.1846 9.95125 36.5039C8.65263 37.6424 7.85377 38.8164 7.72008 39.0222Z" fill="#0092DA"/>

</g>%n%n</svg>