<svg width="300" height="40" viewBox="0 0 300 40" fill="none" xmlns="http://www.w3.org/2000/svg" xmlns:xlink="http://www.w3.org/1999/xlink">

<g transform="translate(130.000000, 0.000000) scale(2.222222 2.222222) "> 

<g clip-path="url(#clip0)">
<path opacity="0.95" fill-rule="evenodd" clip-rule="evenodd" d="M13 1H5C2.79086 1 1 2.79086 1 5V13C1 15.2091 2.79086 17 5 17H13C15.2091 17 17 15.2091 17 13V5C17 2.79086 15.2091 1 13 1ZM5 0C2.23858 0 0 2.23858 0 5V13C0 15.7614 2.23858 18 5 18H13C15.7614 18 18 15.7614 18 13V5C18 2.23858 15.7614 0 13 0H5Z" fill="#1578B3"/>
<rect opacity="0.95" x="1" y="1" width="16" height="16" rx="4" fill="#45ABE9"/>
</g>
<defs>
<clipPath id="clip0">
<path d="M0 0H18V18H0V0Z" fill="white"/>
</clipPath>
</defs>

</g>%n%n
<g transform="translate(138.000000, 8.000000) scale(0.750000 0.750000) "> 

<path fill-rule="evenodd" fill="rgb(100%, 100%, 100%)" fill-opacity="1" d="M 8 2.667969 L 8 5.738281 L 8.222656 6.074219 L 10.398438 9.332031 L 8.222656 12.59375 L 8 12.929688 L 8 29.332031 L 10.667969 29.332031 L 10.667969 13.738281 L 13.109375 10.074219 L 13.601562 9.332031 L 13.109375 8.59375 L 10.667969 4.929688 L 10.667969 2.667969 Z M 24 14.667969 L 24 2.667969 L 21.332031 2.667969 L 21.332031 14.261719 L 18.890625 17.925781 L 18.398438 18.667969 L 18.890625 19.40625 L 21.332031 23.070312 L 21.332031 29.332031 L 24 29.332031 L 24 22.261719 L 23.777344 21.925781 L 21.601562 18.667969 L 23.777344 15.40625 L 24 15.070312 Z M 24 14.667969 "/>

</g>%n%n</svg>