<svg width="300" height="40" viewBox="0 0 300 40" fill="none" xmlns="http://www.w3.org/2000/svg" xmlns:xlink="http://www.w3.org/1999/xlink">

<g transform="translate(130.000000, 0.000000) scale(2.000000 2.000000) "> 

<g clip-path="url(#clip0)">
<path opacity="0.949" d="M9.9994 1C14.9626 1 19 5.00181 19 10C19 14.9655 14.9626 19 9.9994 19C5.0374 19 1 14.9655 1 10C1 5.00181 5.0374 1 9.9994 1Z" fill="#45ABE9"/>
<path opacity="0.95" fill-rule="evenodd" clip-rule="evenodd" d="M10 19C14.9706 19 19 14.9706 19 10C19 5.02944 14.9706 1 10 1C5.02944 1 1 5.02944 1 10C1 14.9706 5.02944 19 10 19ZM10 20C15.5228 20 20 15.5228 20 10C20 4.47715 15.5228 0 10 0C4.47715 0 0 4.47715 0 10C0 15.5228 4.47715 20 10 20Z" fill="#1578B3"/>
</g>
<defs>
<clipPath id="clip0">
<path d="M0 0H20V20H0V0Z" fill="white"/>
</clipPath>
</defs>

</g>%n%n
<g transform="translate(138.000000, 8.000000) scale(2.000000 2.000000) "> 

<path fill-rule="nonzero" fill="rgb(100%, 100%, 100%)" fill-opacity="1" d="M 3.921875 3 C 4.394531 3 4.8125 3.300781 4.964844 3.742188 L 4.988281 3.832031 L 5.46875 5.757812 L 5.5 5.875 L 5.5 8.402344 C 5.5 8.730469 5.230469 9 4.902344 9 C 4.570312 9 4.300781 8.730469 4.300781 8.402344 L 4.300781 8 L 1.199219 8 L 1.199219 8.402344 C 1.199219 8.730469 0.929688 9 0.601562 9 C 0.269531 9 0 8.730469 0 8.402344 L 0 5.875 L 0.03125 5.757812 L 0.511719 3.832031 L 0.539062 3.742188 C 0.6875 3.300781 1.105469 3 1.578125 3 Z M 1.5 6 C 1.222656 6 1 6.222656 1 6.5 C 1 6.777344 1.222656 7 1.5 7 C 1.777344 7 2 6.777344 2 6.5 C 2 6.222656 1.777344 6 1.5 6 Z M 4 6 C 3.722656 6 3.5 6.222656 3.5 6.5 C 3.5 6.777344 3.722656 7 4 7 C 4.277344 7 4.5 6.777344 4.5 6.5 C 4.5 6.222656 4.277344 6 4 6 Z M 1.546875 4.003906 C 1.515625 4.015625 1.488281 4.042969 1.480469 4.078125 L 1.125 5.5 L 4.375 5.5 L 4.019531 4.078125 C 4.007812 4.03125 3.96875 4 3.921875 4 L 1.578125 4 Z M 1.546875 4.003906 "/>
<path fill-rule="nonzero" fill="rgb(100%, 100%, 100%)" fill-opacity="1" d="M 10.421875 3 C 10.894531 3 11.3125 3.300781 11.464844 3.742188 L 11.488281 3.832031 L 11.96875 5.757812 L 12 5.875 L 12 8.402344 C 12 8.730469 11.730469 9 11.402344 9 C 11.070312 9 10.800781 8.730469 10.800781 8.402344 L 10.800781 8 L 7.699219 8 L 7.699219 8.402344 C 7.699219 8.730469 7.429688 9 7.097656 9 C 6.769531 9 6.5 8.730469 6.5 8.402344 L 6.5 5.875 L 6.53125 5.757812 L 7.011719 3.832031 L 7.035156 3.742188 C 7.1875 3.300781 7.605469 3 8.078125 3 Z M 8 6 C 7.722656 6 7.5 6.222656 7.5 6.5 C 7.5 6.777344 7.722656 7 8 7 C 8.277344 7 8.5 6.777344 8.5 6.5 C 8.5 6.222656 8.277344 6 8 6 Z M 10.5 6 C 10.222656 6 10 6.222656 10 6.5 C 10 6.777344 10.222656 7 10.5 7 C 10.777344 7 11 6.777344 11 6.5 C 11 6.222656 10.777344 6 10.5 6 Z M 8.046875 4.003906 C 8.015625 4.015625 7.988281 4.042969 7.980469 4.078125 L 7.625 5.5 L 10.875 5.5 L 10.519531 4.078125 C 10.507812 4.03125 10.46875 4 10.421875 4 L 8.078125 4 Z M 8.046875 4.003906 "/>

</g>%n%n</svg>