<svg width="300" height="40" viewBox="0 0 300 40" fill="none" xmlns="http://www.w3.org/2000/svg" xmlns:xlink="http://www.w3.org/1999/xlink">

<g transform="translate(130.000000, 0.000000) scale(2.500000 2.500000) "> 

<g clip-path="url(#clip0)">
<path d="M10 3C10 3.52326 9.79906 3.99958 9.47013 4.35601C9.97416 4.78449 10.4207 5.29954 10.8883 5.76722L11.6706 6.15836C12.4116 6.52884 12.7119 7.42985 12.3414 8.17082C11.971 8.91179 11.0699 9.21212 10.329 8.84164L9.59619 8.47524L10.3934 9.27241C10.6678 9.54685 10.8746 9.88142 10.9973 10.2496L11.9226 13.0257C12.1846 13.8116 11.7599 14.6611 10.974 14.923C10.188 15.185 9.33857 14.7603 9.0766 13.9743L8.22182 11.41L6.84142 14.1708C6.47094 14.9118 5.56993 15.2121 4.82896 14.8416C4.08799 14.4712 3.78766 13.5701 4.15814 12.8292L5.57344 9.99858C5.39264 10.0076 5.20716 9.98372 5.02509 9.92303C4.23917 9.66105 3.81443 8.81157 4.07641 8.02566L4.57641 6.52566C4.65007 6.30466 4.7742 6.10386 4.93894 5.93917C5.4635 5.41478 5.96449 4.83628 6.52975 4.35588C6.20089 3.99946 6 3.52319 6 3C6 1.89543 6.89543 1 8 1C9.10457 1 10 1.89543 10 3Z" fill="#EBE7E4" fill-opacity="0.8"/>
</g>
<defs>
<clipPath id="clip0">
<path d="M0 0H16V16H0V0Z" fill="white"/>
</clipPath>
</defs>

</g>%n%n
<g transform="translate(139.000000, 9.000000) scale(1.833333 1.833333) "> 

<path fill-rule="nonzero" fill="rgb(0%, 57.254902%, 85.490196%)" fill-opacity="1" d="M 7 1 C 7 1.550781 6.550781 2 6 2 C 5.449219 2 5 1.550781 5 1 C 5 0.449219 5.449219 0 6 0 C 6.550781 0 7 0.449219 7 1 Z M 7 1 "/>
<path fill-rule="evenodd" fill="rgb(0%, 57.254902%, 85.490196%)" fill-opacity="1" d="M 5.96875 7.675781 C 5.960938 7.691406 5.953125 7.707031 5.945312 7.722656 L 3.945312 11.722656 C 3.824219 11.96875 3.523438 12.070312 3.277344 11.945312 C 3.027344 11.824219 2.929688 11.523438 3.050781 11.277344 L 5 7.382812 L 5 4.632812 L 4.4375 5.269531 L 3.972656 6.65625 C 3.886719 6.921875 3.601562 7.0625 3.339844 6.972656 C 3.078125 6.886719 2.9375 6.605469 3.023438 6.34375 L 3.523438 4.84375 C 3.550781 4.769531 3.589844 4.703125 3.644531 4.644531 L 4.789062 3.257812 C 4.925781 3.085938 5.101562 2.949219 5.296875 2.851562 C 5.738281 2.628906 6.257812 2.628906 6.699219 2.851562 C 6.898438 2.949219 7.070312 3.089844 7.210938 3.261719 L 8.296875 4.589844 L 9.222656 5.054688 C 9.46875 5.175781 9.570312 5.476562 9.445312 5.722656 C 9.324219 5.96875 9.023438 6.070312 8.777344 5.945312 L 7.777344 5.445312 C 7.726562 5.421875 7.683594 5.390625 7.644531 5.355469 L 7 4.625 L 7 7.292969 L 7.6875 7.980469 C 7.851562 8.144531 7.976562 8.34375 8.050781 8.566406 L 8.972656 11.34375 C 9.0625 11.605469 8.921875 11.886719 8.65625 11.972656 C 8.394531 12.0625 8.113281 11.921875 8.027344 11.65625 L 7.101562 8.882812 C 7.074219 8.808594 7.035156 8.742188 6.980469 8.6875 Z M 5.96875 7.675781 "/>

</g>%n%n</svg>