<svg width="300" height="40" viewBox="0 0 300 40" fill="none" xmlns="http://www.w3.org/2000/svg" xmlns:xlink="http://www.w3.org/1999/xlink" version="1.1">

<g transform="translate(130.000000, 0.000000) scale(2.000000 2.000000) "> 

<rect opacity="0.55" x="1" y="1" width="18" height="18" rx="5" fill="white"/>
<rect opacity="0.85" x="2" y="2" width="16" height="16" rx="4" fill="#45ABE9"/>

</g>%n%n
<g transform="translate(138.000000, 8.000000) scale(2.000000 2.000000) "> 

<defs>
<filter id="alpha" filterUnits="objectBoundingBox" x="0%" y="0%" width="100%" height="100%">
  <feColorMatrix type="matrix" in="SourceGraphic" values="0 0 0 0 1 0 0 0 0 1 0 0 0 0 1 0 0 0 1 0"/>
</filter>
<mask id="mask0">
  <g filter="url(#alpha)">
<rect x="0" y="0" width="12" height="12" style="fill:rgb(0%,0%,0%);fill-opacity:0.2;stroke:none;"/>
  </g>
</mask>
<clip100Path id="clip1001">
  <rect x="0" y="0" width="12" height="12"/>
</clip100Path>
<g id="surface5" clip100-path="url(#clip1001)">
<path style=" stroke:none;fill-rule:nonzero;fill:rgb(100%,100%,100%);fill-opacity:1;" d="M 2 2 L 10 2 L 10 10 L 2 10 Z M 2 2 "/>
</g>
</defs>
<g id="surface1">
<use xlink:href="#surface5" mask="url(#mask0)"/>
<path style=" stroke:none;fill-rule:nonzero;fill:rgb(100%,100%,100%);fill-opacity:1;" d="M 11 1 L 1 1 L 1 10 L 2 10 L 2 2 L 10 2 L 10 10 L 11 10 Z M 11 1 "/>
<path style=" stroke:none;fill-rule:evenodd;fill:rgb(100%,100%,100%);fill-opacity:1;" d="M 4 3 L 4 7 L 5 7 L 5 6 L 7 6 C 7.550781 6 8 5.550781 8 5 L 8 4 C 8 3.449219 7.550781 3 7 3 Z M 5 5 L 7 5 L 7 4 L 5 4 Z M 5 5 "/>
<path style=" stroke:none;fill-rule:nonzero;fill:rgb(100%,100%,100%);fill-opacity:1;" d="M 6 8 L 3 10 L 5 10 L 5 12 L 7 12 L 7 10 L 9 10 Z M 6 8 "/>
</g>

</g>%n%n</svg>