<svg width="300" height="40" viewBox="0 0 300 40" fill="none" xmlns="http://www.w3.org/2000/svg" xmlns:xlink="http://www.w3.org/1999/xlink">

<g transform="translate(130.000000, 0.000000) scale(2.000000 2.000000) "> 

<g clip-path="url(#clip0)">
<path opacity="0.949" d="M9.9994 1C14.9626 1 19 5.00181 19 10C19 14.9655 14.9626 19 9.9994 19C5.0374 19 1 14.9655 1 10C1 5.00181 5.0374 1 9.9994 1Z" fill="#45ABE9"/>
<path opacity="0.95" fill-rule="evenodd" clip-rule="evenodd" d="M10 19C14.9706 19 19 14.9706 19 10C19 5.02944 14.9706 1 10 1C5.02944 1 1 5.02944 1 10C1 14.9706 5.02944 19 10 19ZM10 20C15.5228 20 20 15.5228 20 10C20 4.47715 15.5228 0 10 0C4.47715 0 0 4.47715 0 10C0 15.5228 4.47715 20 10 20Z" fill="#1578B3"/>
</g>
<defs>
<clipPath id="clip0">
<path d="M0 0H20V20H0V0Z" fill="white"/>
</clipPath>
</defs>

</g>%n%n
<g transform="translate(138.000000, 8.000000) scale(0.750000 0.750000) "> 

<path fill-rule="evenodd" fill="rgb(100%, 100%, 100%)" fill-opacity="1" d="M 2.667969 8 C 2.667969 6.527344 3.859375 5.332031 5.332031 5.332031 L 26.667969 5.332031 C 28.140625 5.332031 29.332031 6.527344 29.332031 8 L 29.332031 18.667969 C 29.332031 20.140625 28.140625 21.332031 26.667969 21.332031 L 5.332031 21.332031 C 3.859375 21.332031 2.667969 20.140625 2.667969 18.667969 Z M 6.667969 8 L 8 8 L 8 17.332031 L 12 17.332031 L 12 8 L 13.332031 8 L 13.332031 17.332031 L 17.332031 17.332031 L 17.332031 8 L 18.667969 8 L 18.667969 17.332031 L 22.667969 17.332031 L 22.667969 8 L 24 8 L 24 17.332031 L 26.667969 17.332031 L 26.667969 18.667969 L 5.332031 18.667969 L 5.332031 17.332031 L 6.667969 17.332031 Z M 6.667969 8 "/>
<path fill-rule="nonzero" fill="rgb(100%, 100%, 100%)" fill-opacity="1" d="M 5.332031 21.332031 C 3.859375 21.332031 2.667969 22.527344 2.667969 24 C 2.667969 25.472656 3.859375 26.667969 5.332031 26.667969 C 6.574219 26.667969 7.621094 25.816406 7.914062 24.667969 L 5.332031 24.667969 C 4.964844 24.667969 4.667969 24.367188 4.667969 24 C 4.667969 23.632812 4.964844 23.332031 5.332031 23.332031 L 7.914062 23.332031 C 7.621094 22.183594 6.574219 21.332031 5.332031 21.332031 Z M 5.332031 21.332031 "/>
<path fill-rule="nonzero" fill="rgb(100%, 100%, 100%)" fill-opacity="1" d="M 10.667969 21.332031 C 12.140625 21.332031 13.332031 22.527344 13.332031 24 C 13.332031 25.472656 12.140625 26.667969 10.667969 26.667969 C 9.425781 26.667969 8.378906 25.816406 8.085938 24.667969 L 10.667969 24.667969 C 11.035156 24.667969 11.332031 24.367188 11.332031 24 C 11.332031 23.632812 11.035156 23.332031 10.667969 23.332031 L 8.085938 23.332031 C 8.378906 22.183594 9.425781 21.332031 10.667969 21.332031 Z M 10.667969 21.332031 "/>
<path fill-rule="nonzero" fill="rgb(100%, 100%, 100%)" fill-opacity="1" d="M 21.332031 21.332031 C 19.859375 21.332031 18.667969 22.527344 18.667969 24 C 18.667969 25.472656 19.859375 26.667969 21.332031 26.667969 C 22.574219 26.667969 23.621094 25.816406 23.914062 24.667969 L 21.332031 24.667969 C 20.964844 24.667969 20.667969 24.367188 20.667969 24 C 20.667969 23.632812 20.964844 23.332031 21.332031 23.332031 L 23.914062 23.332031 C 23.621094 22.183594 22.574219 21.332031 21.332031 21.332031 Z M 21.332031 21.332031 "/>
<path fill-rule="nonzero" fill="rgb(100%, 100%, 100%)" fill-opacity="1" d="M 26.667969 21.332031 C 28.140625 21.332031 29.332031 22.527344 29.332031 24 C 29.332031 25.472656 28.140625 26.667969 26.667969 26.667969 C 25.425781 26.667969 24.378906 25.816406 24.085938 24.667969 L 26.667969 24.667969 C 27.035156 24.667969 27.332031 24.367188 27.332031 24 C 27.332031 23.632812 27.035156 23.332031 26.667969 23.332031 L 24.085938 23.332031 C 24.378906 22.183594 25.425781 21.332031 26.667969 21.332031 Z M 26.667969 21.332031 "/>

</g>%n%n</svg>