<svg width="300" height="40" viewBox="0 0 300 40" fill="none" xmlns="http://www.w3.org/2000/svg" xmlns:xlink="http://www.w3.org/1999/xlink" version="1.1">

<g transform="translate(130.000000, 0.000000) scale(2.000000 2.000000) "> 

<g clip-path="url(#clip0)">
<path opacity="0.949" d="M9.9994 1C14.9626 1 19 5.00181 19 10C19 14.9655 14.9626 19 9.9994 19C5.0374 19 1 14.9655 1 10C1 5.00181 5.0374 1 9.9994 1Z" fill="#45ABE9"/>
<path opacity="0.95" fill-rule="evenodd" clip-rule="evenodd" d="M10 19C14.9706 19 19 14.9706 19 10C19 5.02944 14.9706 1 10 1C5.02944 1 1 5.02944 1 10C1 14.9706 5.02944 19 10 19ZM10 20C15.5228 20 20 15.5228 20 10C20 4.47715 15.5228 0 10 0C4.47715 0 0 4.47715 0 10C0 15.5228 4.47715 20 10 20Z" fill="#1578B3"/>
</g>
<defs>
<clipPath id="clip0">
<path d="M0 0H20V20H0V0Z" fill="white"/>
</clipPath>
</defs>

</g>%n%n
<g transform="translate(138.000000, 8.000000) scale(2.000000 2.000000) "> 

<g id="surface1">
<path style=" stroke:none;fill-rule:evenodd;fill:rgb(100%,100%,100%);fill-opacity:1;" d="M 1 1 L 1 5 L 2 5 L 2 4 L 3 4 C 3.550781 4 4 3.550781 4 3 L 4 2 C 4 1.449219 3.550781 1 3 1 Z M 2 3 L 3 3 L 3 2 L 2 2 Z M 2 3 "/>
<path style=" stroke:none;fill-rule:evenodd;fill:rgb(100%,100%,100%);fill-opacity:1;" d="M 3.5 7 C 3.222656 7 3 6.777344 3 6.5 L 3 5.5 C 3 5.222656 3.222656 5 3.5 5 L 5.382812 5 L 6.011719 4.683594 C 6.003906 4.625 6 4.5625 6 4.5 C 6 3.671875 6.671875 3 7.5 3 C 8.328125 3 9 3.671875 9 4.5 C 9 5.152344 8.582031 5.707031 8 5.914062 L 8 8.085938 C 8.582031 8.292969 9 8.847656 9 9.5 C 9 10.328125 8.328125 11 7.5 11 C 6.671875 11 6 10.328125 6 9.5 C 6 9.4375 6.003906 9.375 6.011719 9.316406 L 5.597656 9.109375 L 4.855469 9.855469 C 4.710938 9.996094 4.496094 10.039062 4.308594 9.960938 C 4.121094 9.882812 4 9.703125 4 9.5 L 4 8.5 C 4 8.222656 4.222656 8 4.5 8 C 4.714844 8 4.898438 8.136719 4.96875 8.324219 L 5 8.292969 L 5 6 L 4 6 L 4 6.5 C 4 6.777344 3.777344 7 3.5 7 Z M 6.457031 8.421875 C 6.613281 8.273438 6.796875 8.15625 7 8.085938 L 7 5.914062 C 6.796875 5.84375 6.613281 5.726562 6.457031 5.578125 L 6 5.808594 L 6 8.191406 Z M 8 9.5 C 8 9.222656 7.777344 9 7.5 9 C 7.222656 9 7 9.222656 7 9.5 C 7 9.777344 7.222656 10 7.5 10 C 7.777344 10 8 9.777344 8 9.5 Z M 8 4.5 C 8 4.222656 7.777344 4 7.5 4 C 7.222656 4 7 4.222656 7 4.5 C 7 4.777344 7.222656 5 7.5 5 C 7.777344 5 8 4.777344 8 4.5 Z M 8 4.5 "/>
<path style=" stroke:none;fill-rule:evenodd;fill:rgb(100%,100%,100%);fill-opacity:1;" d="M 5 1.523438 C 5 1.25 5.222656 1.023438 5.5 1.023438 L 10.535156 1.023438 C 10.808594 1.023438 11.035156 1.25 11.035156 1.523438 L 11.035156 10.5 C 11.035156 10.777344 10.808594 11 10.535156 11 C 10.257812 11 10.035156 10.777344 10.035156 10.5 L 10.035156 2.023438 L 5.5 2.023438 C 5.222656 2.023438 5 1.800781 5 1.523438 Z M 5 1.523438 "/>
</g>

</g>%n%n</svg>