<svg width="300" height="35" viewBox="0 0 300 35" fill="none" xmlns="http://www.w3.org/2000/svg">

<g transform="translate(140.000000, 7.000000) scale(1.000000 1.000000) "> 

<path fill-rule="evenodd" clip-rule="evenodd" d="M19 10.0005C19 5.01957 14.9804 1 10 1C5.02065 1 1 5.01957 1 10.0005C1 14.9511 5.02065 19 10 19C14.9804 19 19 14.9511 19 10.0005ZM18 10.0005C18 5.57295 14.427 2 10 2C5.57391 2 2 5.57295 2 10.0005C2 14.401 5.57391 18 10 18C14.427 18 18 14.401 18 10.0005Z" fill="white" fill-opacity="0.55"/>

</g>


<g transform="translate(144.000000, 11.000000) scale(0.250000 0.250000) "> 

<path d="M8 4H16V20L32 20V4H40V44H32V28H16V44H8V4Z" fill="#ffffff"/>

</g>

</svg>