<svg width="300" height="40" viewBox="0 0 300 40" fill="none" xmlns="http://www.w3.org/2000/svg" xmlns:xlink="http://www.w3.org/1999/xlink">

<g transform="translate(130.000000, 0.000000) scale(2.500000 2.500000) "> 

<path opacity="0.816" d="M2.73107 1.51862C2.33228 1.51863 1.97108 1.66598 1.68493 1.95214C1.39877 2.23829 1.25142 2.5995 1.2514 2.99828V10.2309C1.25142 10.6297 1.40418 10.9946 1.68493 11.2754C1.97106 11.5615 2.33226 11.7089 2.73107 11.7089H3.78893C4.18769 11.7089 4.55264 11.5561 4.8334 11.2754C5.10877 11 5.26858 10.6405 5.26859 10.2309V6.751L6.80182 6.40954C6.74912 6.56194 6.69069 6.73491 6.62774 6.93178C6.50973 7.30082 6.43924 7.51484 6.38838 7.74693C6.33753 7.97902 6.32583 8.21322 6.32645 8.39805C6.32645 8.39861 6.32645 8.39916 6.32645 8.39972L6.32812 8.75625C6.32947 8.84679 6.34241 8.9368 6.36662 9.02406C6.36606 9.02517 6.3655 9.02629 6.36495 9.02741L6.16576 9.25672C5.99867 9.4484 5.906 9.69373 5.90465 9.94801L5.9013 11.2904L5.89794 12.6345C5.89823 12.7828 5.92959 12.9293 5.99 13.0647C5.94237 13.227 5.91293 13.3758 5.90799 13.4631C5.9025 13.56 5.90278 13.6471 5.91134 13.751C5.91561 13.8029 5.92131 13.8574 5.93979 13.9418C5.95827 14.0261 5.90965 14.1219 6.18585 14.4389C6.1861 14.4392 6.43477 14.6495 6.43525 14.6498C6.43572 14.6501 6.54594 14.7094 6.58422 14.7251C6.66078 14.7566 6.705 14.7667 6.73988 14.7753C6.80966 14.7926 6.84211 14.7964 6.87212 14.8004C6.93213 14.8084 6.97002 14.8112 7.01104 14.8138C7.0931 14.819 7.17882 14.8217 7.2822 14.8239C7.48896 14.8283 7.75487 14.8292 8.0438 14.8256L9.05813 14.8122C9.20253 14.8104 9.34502 14.7791 9.47689 14.7202C9.60876 14.6613 9.72722 14.5762 9.82501 14.4699C9.9228 14.3637 9.99786 14.2386 10.0456 14.1023C10.0933 13.966 10.1127 13.8214 10.1026 13.6773L10.0892 13.4865V13.4848C10.0825 13.3894 9.97694 13.2471 9.9235 13.0982C9.97566 12.9503 10.0459 12.7853 10.0574 12.6814C10.0931 12.3585 10.0927 12.0058 10.0959 11.3323L10.1026 9.98484C10.1036 9.72631 10.0102 9.47631 9.83982 9.28183L9.63226 9.04582C9.66071 8.94962 9.67536 8.84987 9.67578 8.74955V8.39805C9.67578 8.21529 9.66209 7.97922 9.6105 7.74693C9.55891 7.51464 9.48886 7.29442 9.3678 6.91504C9.2639 6.58944 9.19435 6.38127 9.12509 6.20366C9.09111 6.11652 9.06191 6.03633 8.99453 5.92078L11.0818 5.45546C10.8913 5.69642 10.7352 5.96491 10.7353 6.28903V10.3129C10.7351 10.6965 10.8779 11.033 11.1454 11.3005C11.4196 11.5747 11.763 11.709 12.133 11.7089H13.3565C13.7266 11.7091 14.0749 11.568 14.3424 11.3005C14.61 11.0329 14.7527 10.6963 14.7525 10.3129V6.28903C14.7527 5.90549 14.6032 5.56392 14.3424 5.30314C14.0816 5.04236 13.7399 4.89288 13.3565 4.89305H13.0854C13.7345 4.6072 14.2349 3.96924 14.175 3.25605C14.1059 2.43214 13.3577 1.72157 12.5313 1.69437C12.48 1.69232 12.4287 1.69177 12.3773 1.69437C12.3712 1.69487 12.3651 1.69543 12.3589 1.69604C12.2683 1.70214 12.1796 1.71577 12.0911 1.73621L12.0827 1.73789C12.0794 1.73867 12.076 1.73876 12.0727 1.73956L5.26859 3.25772V2.99828C5.26858 2.58868 5.11414 2.23288 4.8334 1.95214C4.55265 1.67139 4.18771 1.51863 3.78893 1.51862H2.73107ZM9.67913 12.524C9.69323 12.5383 9.80202 12.6716 9.84986 12.8103C9.8977 12.9489 9.88886 13.0077 9.88836 12.9709C9.8883 12.9666 9.88261 13.0023 9.8833 13.0028C9.80747 12.8175 9.7772 12.6233 9.67913 12.524ZM9.72265 13.3978C9.70814 13.4201 9.71794 13.4231 9.69922 13.448C9.56707 13.6239 9.21249 13.8597 8.87234 13.8597C9.04635 13.8597 9.47398 13.6468 9.72265 13.3978V13.3978Z" fill="#EBE7E4"/>

</g>%n%n
<g transform="translate(138.000000, 8.000000) scale(2.000000 2.000000) "> 

<defs>
<filter id="filter-remove-color" x="0%" y="0%" width="100%" height="100%">
<feColorMatrix color-interpolation-filters="sRGB" values="0 0 0 0 1 0 0 0 0 1 0 0 0 0 1 0 0 0 1 0" />
</filter>
<mask id="mask-0">
<g filter="url(#filter-remove-color)">
<rect x="-1.2" y="-1.2" width="14.4" height="14.4" fill="rgb(0%, 0%, 0%)" fill-opacity="0.75"/>
</g>
</mask>
<clip100Path id="clip100-0">
<rect x="0" y="0" width="12" height="12"/>
</clip100Path>
<g id="source-7" clip100-path="url(#clip100-0)">
<path fill-rule="nonzero" fill="rgb(26.666667%, 26.666667%, 26.666667%)" fill-opacity="1" d="M 9.621094 4.191406 C 9.546875 4.191406 9.46875 4.226562 9.414062 4.277344 C 9.359375 4.332031 9.328125 4.410156 9.328125 4.488281 L 9.328125 8.015625 C 9.328125 8.09375 9.359375 8.167969 9.414062 8.222656 C 9.46875 8.277344 9.546875 8.308594 9.621094 8.308594 L 10.695312 8.308594 C 10.773438 8.308594 10.847656 8.277344 10.902344 8.222656 C 10.957031 8.167969 10.988281 8.09375 10.988281 8.015625 L 10.988281 4.488281 C 10.988281 4.410156 10.957031 4.332031 10.902344 4.277344 C 10.847656 4.226562 10.773438 4.191406 10.695312 4.191406 Z M 9.621094 4.191406 "/>
</g>
<mask id="mask-1">
<g filter="url(#filter-remove-color)">
<rect x="-1.2" y="-1.2" width="14.4" height="14.4" fill="rgb(0%, 0%, 0%)" fill-opacity="0.75"/>
</g>
</mask>
<clip100Path id="clip100-1">
<rect x="0" y="0" width="12" height="12"/>
</clip100Path>
<g id="source-11" clip100-path="url(#clip100-1)">
<path fill-rule="nonzero" fill="rgb(26.666667%, 26.666667%, 26.666667%)" fill-opacity="1" d="M 1.378906 1.234375 C 1.28125 1.234375 1.1875 1.273438 1.117188 1.339844 C 1.050781 1.410156 1.011719 1.503906 1.011719 1.601562 L 1.011719 7.941406 C 1.011719 8.039062 1.050781 8.132812 1.117188 8.203125 C 1.1875 8.269531 1.28125 8.308594 1.378906 8.308594 L 2.304688 8.308594 C 2.402344 8.308594 2.496094 8.269531 2.566406 8.203125 C 2.632812 8.132812 2.671875 8.039062 2.671875 7.941406 L 2.671875 4.746094 C 2.207031 4.890625 1.652344 4.761719 1.351562 4.371094 C 0.898438 3.824219 1.128906 2.867188 1.800781 2.613281 C 2.089844 2.542969 2.382812 2.476562 2.671875 2.410156 L 2.671875 1.601562 C 2.671875 1.503906 2.632812 1.410156 2.566406 1.339844 C 2.496094 1.273438 2.402344 1.234375 2.304688 1.234375 Z M 1.378906 1.234375 "/>
</g>
</defs>
<path fill="none" stroke-width="54.685001" stroke-linecap="round" stroke-linejoin="miter" stroke="rgb(26.666667%, 26.666667%, 26.666667%)" stroke-opacity="1" stroke-miterlimit="4" d="M 109.505208 176.907552 L 478.990885 94.401042 " transform="matrix(0.0206897, 0, 0, 0.0206897, 0, 0)"/>
<g mask="url(#mask-0)">
<use xlink:href="#source-7"/>
</g>
<g mask="url(#mask-1)">
<use xlink:href="#source-11"/>
</g>
<path fill-rule="nonzero" fill="rgb(26.666667%, 26.666667%, 26.666667%)" fill-opacity="1" d="M 6.023438 11.042969 L 6.914062 11.03125 L 6.902344 10.859375 C 6.894531 10.726562 6.875 10.671875 6.808594 10.605469 C 6.742188 10.539062 6.726562 10.496094 6.722656 10.359375 C 6.722656 10.25 6.734375 10.195312 6.761719 10.195312 C 6.886719 10.195312 6.898438 10.078125 6.90625 8.90625 L 6.910156 7.722656 L 6.726562 7.511719 L 6.539062 7.296875 L 5.441406 7.296875 L 5.265625 7.496094 L 5.089844 7.699219 L 5.089844 8.875 L 5.085938 10.054688 L 5.183594 10.144531 C 5.265625 10.21875 5.277344 10.25 5.277344 10.378906 C 5.273438 10.503906 5.261719 10.535156 5.1875 10.597656 C 5.113281 10.65625 5.101562 10.691406 5.09375 10.832031 C 5.085938 10.917969 5.09375 11.007812 5.109375 11.023438 C 5.125 11.039062 5.535156 11.046875 6.023438 11.042969 Z M 6 6.644531 L 6.539062 6.644531 L 6.539062 6.335938 C 6.539062 6.050781 6.523438 5.980469 6.3125 5.320312 C 6.132812 4.757812 6.074219 4.605469 6.027344 4.589844 C 5.992188 4.578125 5.953125 4.585938 5.933594 4.609375 C 5.914062 4.628906 5.800781 4.957031 5.679688 5.332031 C 5.476562 5.976562 5.460938 6.039062 5.460938 6.332031 L 5.464844 6.644531 Z M 6 6.644531 "/>

</g>%n%n</svg>