<svg width="300" height="40" viewBox="0 0 300 40" fill="none" xmlns="http://www.w3.org/2000/svg" xmlns:xlink="http://www.w3.org/1999/xlink">

<g transform="translate(130.000000, 0.000000) scale(2.000000 2.000000) "> 

<g clip-path="url(#clip0)">
<path opacity="0.949" d="M9.9994 1C14.9626 1 19 5.00181 19 10C19 14.9655 14.9626 19 9.9994 19C5.0374 19 1 14.9655 1 10C1 5.00181 5.0374 1 9.9994 1Z" fill="#45ABE9"/>
<path opacity="0.95" fill-rule="evenodd" clip-rule="evenodd" d="M10 19C14.9706 19 19 14.9706 19 10C19 5.02944 14.9706 1 10 1C5.02944 1 1 5.02944 1 10C1 14.9706 5.02944 19 10 19ZM10 20C15.5228 20 20 15.5228 20 10C20 4.47715 15.5228 0 10 0C4.47715 0 0 4.47715 0 10C0 15.5228 4.47715 20 10 20Z" fill="#1578B3"/>
</g>
<defs>
<clipPath id="clip0">
<path d="M0 0H20V20H0V0Z" fill="white"/>
</clipPath>
</defs>

</g>%n%n
<g transform="translate(138.000000, 8.000000) scale(0.750000 0.750000) "> 

<path fill-rule="nonzero" fill="rgb(100%, 100%, 100%)" fill-opacity="1" d="M 10.667969 20 C 10.667969 20.734375 10.070312 21.332031 9.332031 21.332031 C 8.597656 21.332031 8 20.734375 8 20 C 8 19.261719 8.597656 18.667969 9.332031 18.667969 C 10.070312 18.667969 10.667969 19.261719 10.667969 20 Z M 10.667969 20 "/>
<path fill-rule="nonzero" fill="rgb(100%, 100%, 100%)" fill-opacity="1" d="M 13.332031 11.320312 C 13.703125 11.320312 14 11.019531 14 10.652344 C 14 10.285156 13.703125 9.984375 13.332031 9.984375 C 12.964844 9.984375 12.667969 10.285156 12.667969 10.652344 C 12.667969 11.019531 12.964844 11.320312 13.332031 11.320312 Z M 13.332031 11.320312 "/>
<path fill-rule="evenodd" fill="rgb(100%, 100%, 100%)" fill-opacity="1" d="M 5.332031 6.667969 C 3.859375 6.667969 2.667969 7.859375 2.667969 9.332031 L 2.667969 24 C 2.667969 25.472656 3.859375 26.667969 5.332031 26.667969 L 16 26.667969 C 17.472656 26.667969 18.667969 25.472656 18.667969 24 L 18.667969 9.332031 C 18.667969 7.859375 17.472656 6.667969 16 6.667969 Z M 13.332031 20 C 13.332031 22.207031 11.542969 24 9.332031 24 C 7.125 24 5.332031 22.207031 5.332031 20 C 5.332031 17.789062 7.125 16 9.332031 16 C 11.542969 16 13.332031 17.789062 13.332031 20 Z M 13.332031 13.332031 C 14.804688 13.332031 16 12.140625 16 10.667969 C 16 9.195312 14.804688 8 13.332031 8 C 11.859375 8 10.667969 9.195312 10.667969 10.667969 C 10.667969 12.140625 11.859375 13.332031 13.332031 13.332031 Z M 13.332031 13.332031 "/>
<path fill-rule="nonzero" fill="rgb(100%, 100%, 100%)" fill-opacity="1" d="M 20 10.667969 L 22.667969 10.667969 L 22.667969 21.332031 L 20 21.332031 Z M 20 10.667969 "/>
<path fill-rule="nonzero" fill="rgb(100%, 100%, 100%)" fill-opacity="1" d="M 26.667969 13.332031 L 24 13.332031 L 24 24 L 20 24 L 20 26.667969 L 26.667969 26.667969 L 26.667969 21.332031 L 29.332031 21.332031 L 29.332031 16 L 26.667969 16 Z M 26.667969 13.332031 "/>

</g>%n%n</svg>