<svg width="300" height="35" viewBox="0 0 300 35" fill="none" xmlns="http://www.w3.org/2000/svg">

<g transform="translate(135.000000, 2.000000) scale(1.666667 1.666667) "> 

<g clip-path="url(#clip0)">
<path opacity="0.95" fill-rule="evenodd" clip-rule="evenodd" d="M13 1H5C2.79086 1 1 2.79086 1 5V13C1 15.2091 2.79086 17 5 17H13C15.2091 17 17 15.2091 17 13V5C17 2.79086 15.2091 1 13 1ZM5 0C2.23858 0 0 2.23858 0 5V13C0 15.7614 2.23858 18 5 18H13C15.7614 18 18 15.7614 18 13V5C18 2.23858 15.7614 0 13 0H5Z" fill="#1578B3"/>
<rect opacity="0.95" x="1" y="1" width="16" height="16" rx="4" fill="#45ABE9"/>
</g>
<defs>
<clipPath id="clip0">
<path d="M0 0H18V18H0V0Z" fill="white"/>
</clipPath>
</defs>

</g>


<g transform="translate(141.000000, 8.000000) scale(0.375000 0.375000) "> 

<path fill-rule="evenodd" clip100-rule="evenodd" d="M12.0005 4V8V8.60555L12.3364 9.1094L15.5968 14L12.3364 18.8906L12.0005 19.3944V20V44H16.0005V20.6056L19.6646 15.1094L20.4042 14L19.6646 12.8906L16.0005 7.39445V4H12.0005ZM36 22V4H32V21.3944L28.3359 26.8906L27.5963 28L28.3359 29.1094L32 34.6056V44H36V34V33.3944L35.6641 32.8906L32.4037 28L35.6641 23.1094L36 22.6056V22Z" fill="#ffffff"/>

</g>

</svg>