<svg width="300" height="40" viewBox="0 0 300 40" fill="none" xmlns="http://www.w3.org/2000/svg" xmlns:xlink="http://www.w3.org/1999/xlink" version="1.1">

<g transform="translate(130.000000, 0.000000) scale(2.000000 2.000000) "> 

<g clip-path="url(#clip0)">
<path opacity="0.949" d="M9.9994 1C14.9626 1 19 5.00181 19 10C19 14.9655 14.9626 19 9.9994 19C5.0374 19 1 14.9655 1 10C1 5.00181 5.0374 1 9.9994 1Z" fill="#45ABE9"/>
<path opacity="0.95" fill-rule="evenodd" clip-rule="evenodd" d="M10 19C14.9706 19 19 14.9706 19 10C19 5.02944 14.9706 1 10 1C5.02944 1 1 5.02944 1 10C1 14.9706 5.02944 19 10 19ZM10 20C15.5228 20 20 15.5228 20 10C20 4.47715 15.5228 0 10 0C4.47715 0 0 4.47715 0 10C0 15.5228 4.47715 20 10 20Z" fill="#1578B3"/>
</g>
<defs>
<clipPath id="clip0">
<path d="M0 0H20V20H0V0Z" fill="white"/>
</clipPath>
</defs>

</g>%n%n
<g transform="translate(138.000000, 8.000000) scale(2.000000 2.000000) "> 

<g id="surface1">
<path style=" stroke:none;fill-rule:nonzero;fill:rgb(100%,100%,100%);fill-opacity:1;" d="M 2.5 2.296875 L 2.5 10.246094 L 1.664062 10.246094 L 0.75 11.199219 L 11.25 11.199219 L 10.335938 10.246094 L 4.042969 10.246094 L 4.042969 2.296875 Z M 3.015625 3.070312 L 3.527344 3.070312 L 3.527344 4.617188 L 3.015625 4.617188 Z M 3.015625 5.394531 L 3.527344 5.394531 L 3.527344 6.941406 L 3.015625 6.941406 Z M 3.015625 7.714844 L 3.527344 7.714844 L 3.527344 9.261719 L 3.015625 9.261719 Z M 3.015625 7.714844 "/>
<path style=" stroke:none;fill-rule:nonzero;fill:rgb(100%,100%,100%);fill-opacity:1;" d="M 6.230469 9.714844 L 8.164062 9.714844 L 8.164062 4.292969 L 7.777344 3.132812 L 7.777344 1.585938 L 7.195312 0.8125 L 6.617188 1.585938 L 6.617188 3.132812 L 6.230469 4.292969 Z M 6.230469 9.714844 "/>
<path style=" stroke:none;fill-rule:nonzero;fill:rgb(100%,100%,100%);fill-opacity:1;" d="M 8.675781 7.800781 L 9.738281 9.722656 L 8.675781 9.722656 Z M 8.675781 7.800781 "/>
<path style=" stroke:none;fill-rule:nonzero;fill:rgb(100%,100%,100%);fill-opacity:1;" d="M 5.679688 7.800781 L 4.613281 9.722656 L 5.679688 9.722656 Z M 5.679688 7.800781 "/>
<path style="fill:none;stroke-width:25;stroke-linecap:round;stroke-linejoin:round;stroke:rgb(100%,100%,100%);stroke-opacity:1;stroke-miterlimit:4;" d="M 191.25651 206.360677 L 263.945312 206.360677 " transform="matrix(0.0206897,0,0,0.0206897,0,0)"/>
</g>

</g>%n%n</svg>