<svg width="300" height="40" viewBox="0 0 300 40" fill="none" xmlns="http://www.w3.org/2000/svg" xmlns:xlink="http://www.w3.org/1999/xlink">

<g transform="translate(130.000000, 0.000000) scale(2.500000 2.500000) "> 

<path opacity="0.812" d="M13.8906 1.38479C13.0658 1.39643 12.3258 2.15554 12.3359 2.98049V7.79885H11.3516C11.4374 7.60933 11.464 7.39827 11.4277 7.19338C11.3075 6.52532 10.958 5.89315 10.4258 5.47463C10.1111 5.2272 9.7934 5.20833 9.47461 5.11916C9.27105 4.51733 8.7762 4.00463 8.13281 4.01369H8.13086C7.49105 4.02337 7.00463 4.54294 6.81641 5.1465C6.40004 5.28119 5.94812 5.34411 5.62695 5.65822C5.11775 6.15625 4.81055 6.86839 4.81055 7.5801C4.81055 7.66198 4.90179 7.71702 4.91016 7.79885H3.56445V2.98049C3.5749 2.16395 2.82631 1.41536 2.00977 1.4258H2.00782C1.20517 1.43734 0.485809 2.17783 0.496094 2.98049V8.74221C0.493542 8.77144 0.492238 8.80076 0.492188 8.8301V11.3399C0.492244 11.9094 0.953918 12.3711 1.52344 12.3711H4.87695C5.06811 12.3708 5.25541 12.3174 5.41797 12.2168C5.52378 12.3516 5.50695 12.5579 5.63867 12.6699C5.95748 12.9411 6.38365 13.0045 6.77734 13.1328C6.92395 13.7971 7.46301 14.3809 8.15234 14.3809C8.85531 14.3809 9.41318 13.7775 9.54297 13.0957C9.95466 12.9632 10.3918 12.9171 10.7344 12.586C10.8301 12.4934 10.8064 12.3335 10.8887 12.2285C11.0462 12.3213 11.2255 12.3705 11.4082 12.3711H14.4766C15.0461 12.3711 15.5078 11.9094 15.5078 11.3399V8.8301C15.5071 8.77443 15.5019 8.71891 15.4922 8.66408V2.98244C15.5025 2.14243 14.7324 1.37263 13.8926 1.38479H13.8906Z" fill="#EBE7E4"/>

</g>%n%n
<g transform="translate(139.000000, 9.000000) scale(1.833333 1.833333) "> 

<path fill-rule="nonzero" fill="rgb(0%, 57.254902%, 85.490196%)" fill-opacity="1" stroke-width="3.67408" stroke-linecap="round" stroke-linejoin="round" stroke="rgb(0%, 57.254902%, 85.490196%)" stroke-opacity="1" stroke-miterlimit="4" d="M 301.328125 316.432292 C 301.516927 316.432292 302.460938 316.621094 303.971354 316.998698 C 329.082031 321.152344 352.304688 328.704427 364.954427 339.654948 C 377.604167 350.605469 383.834635 365.143229 383.834635 382.890625 C 383.834635 401.015625 376.848958 416.875 363.066406 430.279948 C 349.283854 443.684896 325.683594 450.859375 301.328125 451.992188 L 290.94401 465.585938 L 286.035156 465.585938 L 286.035156 452.369792 C 261.113281 449.915365 242.044271 443.11849 228.639323 431.790365 C 215.234375 420.46224 207.871094 404.602865 206.171875 384.023438 L 239.023438 379.114583 C 241.666667 394.407552 246.953125 406.302083 254.69401 414.609375 C 262.434896 422.916667 273.007812 427.636719 286.035156 428.769531 L 286.035156 339.654948 C 261.302083 335.123698 242.610677 327.571615 230.338542 316.809896 C 217.877604 306.236979 211.835938 292.454427 211.835938 275.651042 C 211.835938 259.036458 217.877604 244.6875 230.14974 232.792969 C 242.421875 220.709635 260.924479 213.91276 286.035156 212.02474 L 286.035156 198.619792 L 301.328125 198.619792 L 301.328125 212.02474 C 322.096354 213.723958 342.864583 219.388021 354.947917 228.828125 C 366.842448 238.268229 374.394531 251.484375 377.415365 268.476562 L 343.053385 272.630208 C 341.165365 262.057292 337.011719 253.561198 330.78125 247.519531 C 324.550781 241.289062 311.71224 237.324219 301.328125 235.625 Z M 286.035156 313.033854 L 286.035156 235.247396 C 272.81901 237.324219 262.434896 241.855469 255.449219 248.841146 C 248.27474 256.015625 244.876302 264.134115 244.876302 273.574219 C 244.876302 284.147135 248.463542 292.643229 255.826823 298.684896 C 263.190104 304.915365 273.196615 309.635417 286.035156 313.033854 Z M 301.328125 428.769531 C 314.166667 427.070312 329.082031 422.35026 337.389323 414.420573 C 345.696615 406.679688 349.85026 396.861979 349.85026 384.967448 C 349.85026 374.394531 346.829427 366.08724 340.410156 359.667969 C 334.179688 353.248698 318.13151 347.96224 301.328125 343.43099 Z M 301.328125 428.769531 " transform="matrix(0.0206897, 0, 0, 0.0206897, 0, 0)"/>
<path fill="none" stroke-width="33.922699" stroke-linecap="round" stroke-linejoin="round" stroke="rgb(0%, 57.254902%, 85.490196%)" stroke-opacity="1" stroke-miterlimit="4" d="M 295.47526 201.074219 L 295.47526 467.285156 " transform="matrix(0.0206897, 0, 0, 0.0206897, 0, 0)"/>
<path fill-rule="nonzero" fill="rgb(0%, 57.254902%, 85.490196%)" fill-opacity="1" d="M 10.429688 1.832031 C 10.320312 1.832031 10.214844 1.878906 10.140625 1.957031 C 10.066406 2.035156 10.023438 2.140625 10.023438 2.246094 L 10.023438 6.640625 L 8.164062 6.640625 C 8.476562 6.988281 8.648438 7.457031 8.652344 7.921875 C 8.648438 8.125 8.617188 8.328125 8.554688 8.523438 L 10.855469 8.523438 L 10.855469 6.640625 L 10.84375 6.640625 L 10.84375 2.246094 C 10.84375 2.191406 10.835938 2.136719 10.8125 2.085938 C 10.792969 2.035156 10.761719 1.992188 10.722656 1.953125 C 10.683594 1.914062 10.640625 1.882812 10.589844 1.863281 C 10.539062 1.839844 10.484375 1.832031 10.429688 1.832031 Z M 1.519531 1.863281 C 1.417969 1.863281 1.324219 1.90625 1.253906 1.976562 C 1.183594 2.050781 1.144531 2.144531 1.148438 2.246094 L 1.148438 6.640625 L 1.144531 6.640625 L 1.144531 8.523438 L 3.660156 8.523438 C 3.605469 8.355469 3.574219 8.183594 3.558594 8.007812 C 3.542969 7.828125 3.597656 7.648438 3.707031 7.507812 C 3.820312 7.367188 3.980469 7.273438 4.160156 7.246094 L 4.441406 7.203125 C 4.394531 7.167969 4.347656 7.132812 4.300781 7.09375 C 4.152344 6.964844 4.027344 6.8125 3.929688 6.640625 L 1.902344 6.640625 L 1.902344 2.246094 C 1.902344 2.195312 1.894531 2.144531 1.875 2.097656 C 1.855469 2.050781 1.828125 2.007812 1.789062 1.972656 C 1.753906 1.9375 1.710938 1.910156 1.664062 1.890625 C 1.617188 1.871094 1.570312 1.863281 1.519531 1.863281 Z M 1.519531 1.863281 "/>

</g>%n%n</svg>