<svg width="300" height="40" viewBox="0 0 300 40" fill="none" xmlns="http://www.w3.org/2000/svg" xmlns:xlink="http://www.w3.org/1999/xlink">

<g transform="translate(130.000000, 0.000000) scale(2.222222 2.222222) "> 

<g clip-path="url(#clip0)">
<path opacity="0.95" fill-rule="evenodd" clip-rule="evenodd" d="M13 1H5C2.79086 1 1 2.79086 1 5V13C1 15.2091 2.79086 17 5 17H13C15.2091 17 17 15.2091 17 13V5C17 2.79086 15.2091 1 13 1ZM5 0C2.23858 0 0 2.23858 0 5V13C0 15.7614 2.23858 18 5 18H13C15.7614 18 18 15.7614 18 13V5C18 2.23858 15.7614 0 13 0H5Z" fill="#1578B3"/>
<rect opacity="0.95" x="1" y="1" width="16" height="16" rx="4" fill="#45ABE9"/>
</g>
<defs>
<clipPath id="clip0">
<path d="M0 0H18V18H0V0Z" fill="white"/>
</clipPath>
</defs>

</g>%n%n
<g transform="translate(138.000000, 8.000000) scale(2.000000 2.000000) "> 

<path fill-rule="evenodd" fill="rgb(100%, 100%, 100%)" fill-opacity="1" d="M 3 1 L 3 2.152344 L 3.085938 2.277344 L 3.898438 3.5 L 3.085938 4.722656 L 3 4.847656 L 3 11 L 4 11 L 4 5.152344 L 4.917969 3.777344 L 5.101562 3.5 L 4.917969 3.222656 L 4 1.847656 L 4 1 Z M 9 5.5 L 9 1 L 8 1 L 8 5.347656 L 7.082031 6.722656 L 6.898438 7 L 7.082031 7.277344 L 8 8.652344 L 8 11 L 9 11 L 9 8.347656 L 8.917969 8.222656 L 8.101562 7 L 8.917969 5.777344 L 9 5.652344 Z M 9 5.5 "/>

</g>%n%n</svg>