<svg width="300" height="40" viewBox="0 0 300 40" fill="none" xmlns="http://www.w3.org/2000/svg" xmlns:xlink="http://www.w3.org/1999/xlink">

<g transform="translate(130.000000, 0.000000) scale(2.000000 2.000000) "> 

<g clip-path="url(#clip0)">
<path opacity="0.949" d="M9.9994 1C14.9626 1 19 5.00181 19 10C19 14.9655 14.9626 19 9.9994 19C5.0374 19 1 14.9655 1 10C1 5.00181 5.0374 1 9.9994 1Z" fill="#45ABE9"/>
<path opacity="0.95" fill-rule="evenodd" clip-rule="evenodd" d="M10 19C14.9706 19 19 14.9706 19 10C19 5.02944 14.9706 1 10 1C5.02944 1 1 5.02944 1 10C1 14.9706 5.02944 19 10 19ZM10 20C15.5228 20 20 15.5228 20 10C20 4.47715 15.5228 0 10 0C4.47715 0 0 4.47715 0 10C0 15.5228 4.47715 20 10 20Z" fill="#1578B3"/>
</g>
<defs>
<clipPath id="clip0">
<path d="M0 0H20V20H0V0Z" fill="white"/>
</clipPath>
</defs>

</g>%n%n
<g transform="translate(138.000000, 8.000000) scale(0.750000 0.750000) "> 

<path fill-rule="nonzero" fill="rgb(100%, 100%, 100%)" fill-opacity="1" d="M 6.667969 6.121094 L 6.667969 27.320312 L 4.441406 27.320312 L 2.003906 29.863281 L 29.996094 29.863281 L 27.558594 27.320312 L 10.78125 27.320312 L 10.78125 6.121094 Z M 8.039062 8.1875 L 9.410156 8.1875 L 9.410156 12.316406 L 8.039062 12.316406 Z M 8.039062 14.378906 L 9.410156 14.378906 L 9.410156 18.507812 L 8.039062 18.507812 Z M 8.039062 20.574219 L 9.410156 20.574219 L 9.410156 24.703125 L 8.039062 24.703125 Z M 8.039062 20.574219 "/>
<path fill-rule="nonzero" fill="rgb(100%, 100%, 100%)" fill-opacity="1" d="M 16.609375 25.902344 L 21.773438 25.902344 L 21.773438 11.453125 L 20.738281 8.355469 L 20.738281 4.226562 L 19.183594 2.160156 L 17.644531 4.226562 L 17.644531 8.355469 L 16.609375 11.453125 Z M 16.609375 25.902344 "/>
<path fill-rule="nonzero" fill="rgb(100%, 100%, 100%)" fill-opacity="1" d="M 23.136719 20.804688 L 25.972656 25.925781 L 23.136719 25.925781 Z M 23.136719 20.804688 "/>
<path fill-rule="nonzero" fill="rgb(100%, 100%, 100%)" fill-opacity="1" d="M 15.144531 20.804688 L 12.304688 25.925781 L 15.144531 25.925781 Z M 15.144531 20.804688 "/>
<path fill="none" stroke-width="25" stroke-linecap="round" stroke-linejoin="round" stroke="rgb(100%, 100%, 100%)" stroke-opacity="1" stroke-miterlimit="4" d="M 191.23291 206.384277 L 263.945312 206.384277 " transform="matrix(0.0551724, 0, 0, 0.0551724, 0, 0)"/>

</g>%n%n</svg>