<svg width="300" height="40" viewBox="0 0 300 40" fill="none" xmlns="http://www.w3.org/2000/svg" xmlns:xlink="http://www.w3.org/1999/xlink" version="1.1">

<g transform="translate(130.000000, 0.000000) scale(2.500000 2.500000) "> 

<path opacity="0.804" d="M7.93425 1.47031C6.59 1.44205 5.26031 2.08878 4.47445 3.28809C3.27694 5.11561 3.76648 7.59051 5.5708 8.82344C6.4536 9.42667 7.47475 9.50246 8.45648 9.34232V13.6441C8.45648 14.1814 8.94523 14.6701 9.48254 14.6701C10.0199 14.6701 10.5103 14.1814 10.5103 13.6441V8.43678C10.7243 8.24945 10.95 8.08409 11.1279 7.8342C12.3947 6.05533 11.9991 3.5646 10.2475 2.26203C10.2038 2.2292 10.1498 2.21585 10.1019 2.19006C10.0602 2.15489 10.028 2.10987 9.98134 2.08126C9.52003 1.79247 9.02015 1.60677 8.51172 1.5222C8.3189 1.49013 8.12512 1.47432 7.93425 1.47031Z" fill="#EBE7E4"/>

</g>%n%n
<g transform="translate(139.000000, 9.000000) scale(1.833333 1.833333) "> 

<g id="surface1">
<path style="fill:none;stroke-width:25;stroke-linecap:round;stroke-linejoin:round;stroke:rgb(24.705882%,24.705882%,24.705882%);stroke-opacity:1;stroke-miterlimit:4;" d="M 354.759115 527.890625 L 354.759115 303.404948 " transform="matrix(0.0206897,0,0,0.0206897,0,0)"/>
<path style="fill-rule:nonzero;fill:rgb(24.705882%,24.705882%,24.705882%);fill-opacity:0.423529;stroke-width:30;stroke-linecap:round;stroke-linejoin:round;stroke:rgb(24.705882%,24.705882%,24.705882%);stroke-opacity:1;stroke-miterlimit:4;" d="M 298.307292 58.90625 C 331.158854 62.304688 361.367188 78.541667 382.135417 104.21875 C 402.903646 129.895833 412.721354 162.747396 409.511719 195.598958 C 406.113281 228.450521 389.6875 258.658854 364.199219 279.615885 C 338.522135 300.384115 305.670573 310.390625 272.81901 306.992188 C 239.967448 303.59375 209.759115 287.356771 188.802083 261.86849 C 167.845052 236.191406 158.027344 203.339844 161.236979 170.488281 C 164.446615 137.636719 180.683594 107.428385 206.360677 86.471354 C 231.848958 65.514323 264.700521 55.507812 297.552083 58.717448 " transform="matrix(0.0206897,0,0,0.0206897,0,0)"/>
</g>

</g>%n%n</svg>