<svg width="300" height="40" viewBox="0 0 300 40" fill="none" xmlns="http://www.w3.org/2000/svg" xmlns:xlink="http://www.w3.org/1999/xlink">

<g transform="translate(130.000000, 0.000000) scale(2.500000 2.500000) "> 

<path opacity="0.816" d="M3.31515 2C2.9607 2.00001 2.63966 2.13287 2.38532 2.39088C2.13098 2.64888 2.00001 2.97456 2 3.33411V9.85527C2.00001 10.2148 2.13579 10.5439 2.38532 10.797C2.63965 11.055 2.96068 11.1879 3.31515 11.1879H4.25539C4.60982 11.1879 4.93419 11.0501 5.18373 10.797C5.42849 10.5487 5.57053 10.2246 5.57054 9.85527V6.71769L6.9333 6.40982C6.88646 6.54722 6.83453 6.70318 6.77858 6.88068C6.67369 7.21342 6.61103 7.40639 6.56583 7.61565C6.52063 7.82491 6.51024 8.03608 6.51079 8.20272V8.20423L6.51227 8.52568C6.51347 8.60732 6.52497 8.68847 6.54649 8.76715L6.545 8.77017L6.36796 8.97693C6.21945 9.14975 6.13708 9.37095 6.13588 9.60022L6.1329 10.8106L6.12992 12.0224C6.13018 12.1561 6.15805 12.2882 6.21175 12.4103C6.1694 12.5567 6.14324 12.6908 6.13885 12.7695C6.13397 12.8569 6.13422 12.9355 6.14183 13.0291C6.14563 13.0759 6.15069 13.1251 6.16712 13.2011C6.18354 13.2772 6.14033 13.3635 6.38581 13.6493L6.60748 13.8395C6.60748 13.8395 6.70587 13.8932 6.73989 13.9074C6.80794 13.9358 6.84724 13.9449 6.87825 13.9527C6.94027 13.9682 6.96911 13.9717 6.99578 13.9753C7.04912 13.9825 7.0828 13.9851 7.11926 13.9874C7.1922 13.992 7.26839 13.9945 7.36027 13.9965C7.54405 14.0004 7.78038 14.0012 8.03719 13.998L8.93875 13.9859C9.06709 13.9843 9.19374 13.956 9.31095 13.903C9.42815 13.8499 9.53344 13.7731 9.62036 13.6773C9.70728 13.5815 9.77399 13.4687 9.81642 13.3458C9.85885 13.223 9.86709 12.9627 9.86709 12.9627C9.86709 12.9627 9.85827 11.4556 9.86114 10.8483L9.86708 9.63342C9.86799 9.40032 9.78493 9.17491 9.63352 8.99957L9.44905 8.78677C9.47433 8.70003 9.48735 8.6101 9.48773 8.51965V8.20272C9.48773 8.03794 9.47556 7.82509 9.4297 7.61565C9.38385 7.40621 9.32159 7.20766 9.21398 6.86559C9.12164 6.57202 9.05982 6.38433 8.99826 6.22419C8.96806 6.14562 8.94211 6.07331 8.88222 5.96914L10.7374 5.54959C10.5681 5.76684 10.4293 6.00892 10.4295 6.30116V9.92922C10.4293 10.275 10.5562 10.5784 10.7939 10.8196C11.0377 11.0669 11.3429 11.188 11.6717 11.1879H12.7592C13.0882 11.1881 13.3977 11.0608 13.6355 10.8196C13.8733 10.5784 14.0002 10.2749 14 9.92922V6.30116C14.0002 5.95535 13.8673 5.64738 13.6355 5.41225C13.4037 5.17712 13.1 5.04235 12.7592 5.0425H12.5182C13.0952 4.78476 13.5399 4.20956 13.4867 3.56653C13.4253 2.82366 12.7603 2.18299 12.0258 2.15846C11.9801 2.15662 11.9345 2.15612 11.8889 2.15846C11.8835 2.15892 11.878 2.15942 11.8726 2.15997C11.792 2.16548 11.7132 2.17776 11.6345 2.19619L11.6271 2.1977C11.6241 2.19841 11.6211 2.19848 11.6181 2.19921L5.57054 3.56804V3.33411C5.57053 2.96481 5.43326 2.64401 5.18373 2.39088C4.9342 2.13775 4.60984 2.00001 4.25539 2H3.31515Z" fill="#EBE7E4"/>

</g>%n%n
<g transform="translate(138.000000, 8.000000) scale(2.000000 2.000000) "> 

<defs>
<filter id="filter-remove-color" x="0%" y="0%" width="100%" height="100%">
<feColorMatrix color-interpolation-filters="sRGB" values="0 0 0 0 1 0 0 0 0 1 0 0 0 0 1 0 0 0 1 0" />
</filter>
<mask id="mask-0">
<g filter="url(#filter-remove-color)">
<rect x="-1.2" y="-1.2" width="14.4" height="14.4" fill="rgb(0%, 0%, 0%)" fill-opacity="0.75"/>
</g>
</mask>
<clip100Path id="clip100-0">
<rect x="0" y="0" width="12" height="12"/>
</clip100Path>
<g id="source-7" clip100-path="url(#clip100-0)">
<path fill-rule="nonzero" fill="rgb(26.666667%, 26.666667%, 26.666667%)" fill-opacity="1" d="M 9.621094 4.191406 C 9.546875 4.191406 9.46875 4.226562 9.414062 4.277344 C 9.359375 4.332031 9.328125 4.410156 9.328125 4.488281 L 9.328125 8.015625 C 9.328125 8.09375 9.359375 8.167969 9.414062 8.222656 C 9.46875 8.277344 9.546875 8.308594 9.621094 8.308594 L 10.695312 8.308594 C 10.773438 8.308594 10.847656 8.277344 10.902344 8.222656 C 10.957031 8.167969 10.988281 8.09375 10.988281 8.015625 L 10.988281 4.488281 C 10.988281 4.410156 10.957031 4.332031 10.902344 4.277344 C 10.847656 4.226562 10.773438 4.191406 10.695312 4.191406 Z M 9.621094 4.191406 "/>
</g>
<mask id="mask-1">
<g filter="url(#filter-remove-color)">
<rect x="-1.2" y="-1.2" width="14.4" height="14.4" fill="rgb(0%, 0%, 0%)" fill-opacity="0.75"/>
</g>
</mask>
<clip100Path id="clip100-1">
<rect x="0" y="0" width="12" height="12"/>
</clip100Path>
<g id="source-11" clip100-path="url(#clip100-1)">
<path fill-rule="nonzero" fill="rgb(26.666667%, 26.666667%, 26.666667%)" fill-opacity="1" d="M 1.378906 1.234375 C 1.28125 1.234375 1.1875 1.273438 1.117188 1.339844 C 1.050781 1.410156 1.011719 1.503906 1.011719 1.601562 L 1.011719 7.941406 C 1.011719 8.039062 1.050781 8.132812 1.117188 8.203125 C 1.1875 8.269531 1.28125 8.308594 1.378906 8.308594 L 2.304688 8.308594 C 2.402344 8.308594 2.496094 8.269531 2.566406 8.203125 C 2.632812 8.132812 2.671875 8.039062 2.671875 7.941406 L 2.671875 4.746094 C 2.207031 4.890625 1.652344 4.761719 1.351562 4.371094 C 0.898438 3.824219 1.128906 2.867188 1.800781 2.613281 C 2.089844 2.542969 2.382812 2.476562 2.671875 2.410156 L 2.671875 1.601562 C 2.671875 1.503906 2.632812 1.410156 2.566406 1.339844 C 2.496094 1.273438 2.402344 1.234375 2.304688 1.234375 Z M 1.378906 1.234375 "/>
</g>
</defs>
<path fill="none" stroke-width="54.685001" stroke-linecap="round" stroke-linejoin="miter" stroke="rgb(26.666667%, 26.666667%, 26.666667%)" stroke-opacity="1" stroke-miterlimit="4" d="M 109.505208 176.907552 L 478.990885 94.401042 " transform="matrix(0.0206897, 0, 0, 0.0206897, 0, 0)"/>
<g mask="url(#mask-0)">
<use xlink:href="#source-7"/>
</g>
<g mask="url(#mask-1)">
<use xlink:href="#source-11"/>
</g>
<path fill-rule="nonzero" fill="rgb(26.666667%, 26.666667%, 26.666667%)" fill-opacity="1" d="M 6.023438 11.042969 L 6.914062 11.03125 L 6.902344 10.859375 C 6.894531 10.726562 6.875 10.671875 6.808594 10.605469 C 6.742188 10.539062 6.726562 10.496094 6.722656 10.359375 C 6.722656 10.25 6.734375 10.195312 6.761719 10.195312 C 6.886719 10.195312 6.898438 10.078125 6.90625 8.90625 L 6.910156 7.722656 L 6.726562 7.511719 L 6.539062 7.296875 L 5.441406 7.296875 L 5.265625 7.496094 L 5.089844 7.699219 L 5.089844 8.875 L 5.085938 10.054688 L 5.183594 10.144531 C 5.265625 10.21875 5.277344 10.25 5.277344 10.378906 C 5.273438 10.503906 5.261719 10.535156 5.1875 10.597656 C 5.113281 10.65625 5.101562 10.691406 5.09375 10.832031 C 5.085938 10.917969 5.09375 11.007812 5.109375 11.023438 C 5.125 11.039062 5.535156 11.046875 6.023438 11.042969 Z M 6 6.644531 L 6.539062 6.644531 L 6.539062 6.335938 C 6.539062 6.050781 6.523438 5.980469 6.3125 5.320312 C 6.132812 4.757812 6.074219 4.605469 6.027344 4.589844 C 5.992188 4.578125 5.953125 4.585938 5.933594 4.609375 C 5.914062 4.628906 5.800781 4.957031 5.679688 5.332031 C 5.476562 5.976562 5.460938 6.039062 5.460938 6.332031 L 5.464844 6.644531 Z M 6 6.644531 "/>

</g>%n%n</svg>