<svg width="300" height="40" viewBox="0 0 300 40" fill="none" xmlns="http://www.w3.org/2000/svg" xmlns:xlink="http://www.w3.org/1999/xlink" version="1.1">

<g transform="translate(130.000000, 0.000000) scale(2.500000 2.500000) "> 

<g opacity="0.799">
<path opacity="0.799" d="M6.90833 3.83115C6.70749 3.84243 6.51669 3.94171 6.37083 4.11083C6.22497 4.27994 6.13381 4.50759 6.11402 4.75212L6.10515 4.86186H5.57844C5.52788 4.6494 5.4223 4.46272 5.27756 4.32982C5.13282 4.19693 4.95671 4.12499 4.77568 4.1248H3.99171C3.76981 4.12482 3.557 4.23257 3.40009 4.42435C3.24318 4.61612 3.15502 4.87622 3.155 5.14743V8.16938C3.15502 8.44059 3.24318 8.70069 3.40009 8.89246C3.557 9.08424 3.76981 9.19199 3.99171 9.19201H4.77568C4.9673 9.1917 5.15303 9.11101 5.30182 8.96344C5.45062 8.81587 5.55347 8.61035 5.59318 8.38123H5.82078L5.74009 9.37965H2.23257C1.62361 9.37965 1.11209 10.0048 1.11209 10.7491C1.11209 11.4934 1.62361 12.1186 2.23257 12.1186H13.7715C14.3804 12.1186 14.8919 11.4933 14.8919 10.7491C14.8919 10.0049 14.3805 9.37959 13.7715 9.37959H13.1507L7.45587 4.0412C7.29932 3.89449 7.10539 3.8201 6.90833 3.83115Z" fill="#EBE7E4"/>
</g>

</g>%n%n
<g transform="translate(139.000000, 9.000000) scale(1.833333 1.833333) "> 

<g id="surface1">
<path style=" stroke:none;fill-rule:nonzero;fill:rgb(24.705882%,24.705882%,24.705882%);fill-opacity:1;" d="M 11.046875 8.125 L 10.257812 8.125 L 5.078125 3.269531 L 5.003906 4.171875 L 3.175781 4.171875 L 3.175781 3.527344 L 2.492188 3.527344 L 2.492188 6.171875 L 3.175781 6.171875 L 3.175781 5.460938 L 4.898438 5.460938 L 4.683594 8.125 L 0.953125 8.125 C 0.816406 8.125 0.703125 8.261719 0.703125 8.429688 C 0.703125 8.59375 0.816406 8.730469 0.953125 8.730469 L 11.046875 8.730469 C 11.183594 8.730469 11.296875 8.59375 11.296875 8.429688 C 11.296875 8.261719 11.183594 8.125 11.046875 8.125 Z M 11.046875 8.125 "/>
</g>

</g>%n%n</svg>