<svg width="300" height="40" viewBox="0 0 300 40" fill="none" xmlns="http://www.w3.org/2000/svg" xmlns:xlink="http://www.w3.org/1999/xlink">

<g transform="translate(130.000000, 0.000000) scale(2.000000 2.000000) "> 

<g clip-path="url(#clip0)">
<path opacity="0.949" d="M9.9994 1C14.9626 1 19 5.00181 19 10C19 14.9655 14.9626 19 9.9994 19C5.0374 19 1 14.9655 1 10C1 5.00181 5.0374 1 9.9994 1Z" fill="#45ABE9"/>
<path opacity="0.95" fill-rule="evenodd" clip-rule="evenodd" d="M10 19C14.9706 19 19 14.9706 19 10C19 5.02944 14.9706 1 10 1C5.02944 1 1 5.02944 1 10C1 14.9706 5.02944 19 10 19ZM10 20C15.5228 20 20 15.5228 20 10C20 4.47715 15.5228 0 10 0C4.47715 0 0 4.47715 0 10C0 15.5228 4.47715 20 10 20Z" fill="#1578B3"/>
</g>
<defs>
<clipPath id="clip0">
<path d="M0 0H20V20H0V0Z" fill="white"/>
</clipPath>
</defs>

</g>%n%n
<g transform="translate(138.000000, 8.000000) scale(2.000000 2.000000) "> 

<defs>
<filter id="filter-remove-color" x="0%" y="0%" width="100%" height="100%">
<feColorMatrix color-interpolation-filters="sRGB" values="0 0 0 0 1 0 0 0 0 1 0 0 0 0 1 0 0 0 1 0" />
</filter>
<mask id="mask-0">
<g filter="url(#filter-remove-color)">
<rect x="-1.2" y="-1.2" width="14.4" height="14.4" fill="rgb(0%, 0%, 0%)" fill-opacity="0.5"/>
</g>
</mask>
<clip100Path id="clip100-0">
<rect x="0" y="0" width="12" height="12"/>
</clip100Path>
<g id="source-9" clip100-path="url(#clip100-0)">
<path fill-rule="nonzero" fill="rgb(100%, 100%, 100%)" fill-opacity="1" d="M 3.5 9 L 4.5 9 L 3.832031 11 L 8.167969 11 L 7.5 9 L 8.5 9 L 9.5 12 L 2.5 12 Z M 3.5 9 "/>
</g>
</defs>
<path fill-rule="nonzero" fill="rgb(100%, 100%, 100%)" fill-opacity="1" d="M 8 0 L 4 0 L 4 1 L 8 1 Z M 8 0 "/>
<path fill-rule="evenodd" fill="rgb(100%, 100%, 100%)" fill-opacity="1" d="M 3.707031 2 C 3.253906 2 2.820312 2.179688 2.5 2.5 C 2.179688 2.820312 2 3.253906 2 3.707031 L 2 9 C 2 9.550781 2.449219 10 3 10 L 9 10 C 9.550781 10 10 9.550781 10 9 L 10 3.707031 C 10 3.253906 9.820312 2.820312 9.5 2.5 C 9.179688 2.179688 8.746094 2 8.292969 2 L 6.5 2 L 7 1 L 6 1 L 5.5 2 Z M 9 4 L 3 4 L 3 7 L 9 7 Z M 3.5 9 C 3.777344 9 4 8.777344 4 8.5 C 4 8.222656 3.777344 8 3.5 8 C 3.222656 8 3 8.222656 3 8.5 C 3 8.777344 3.222656 9 3.5 9 Z M 9 8.5 C 9 8.777344 8.777344 9 8.5 9 C 8.222656 9 8 8.777344 8 8.5 C 8 8.222656 8.222656 8 8.5 8 C 8.777344 8 9 8.222656 9 8.5 Z M 9 8.5 "/>
<g mask="url(#mask-0)">
<use xlink:href="#source-9"/>
</g>

</g>%n%n</svg>