<svg width="300" height="40" viewBox="0 0 300 40" fill="none" xmlns="http://www.w3.org/2000/svg" xmlns:xlink="http://www.w3.org/1999/xlink">

<g transform="translate(130.000000, 0.000000) scale(2.000000 2.000000) "> 

<g clip-path="url(#clip0)">
<path opacity="0.949" d="M9.9994 1C14.9626 1 19 5.00181 19 10C19 14.9655 14.9626 19 9.9994 19C5.0374 19 1 14.9655 1 10C1 5.00181 5.0374 1 9.9994 1Z" fill="#45ABE9"/>
<path opacity="0.95" fill-rule="evenodd" clip-rule="evenodd" d="M10 19C14.9706 19 19 14.9706 19 10C19 5.02944 14.9706 1 10 1C5.02944 1 1 5.02944 1 10C1 14.9706 5.02944 19 10 19ZM10 20C15.5228 20 20 15.5228 20 10C20 4.47715 15.5228 0 10 0C4.47715 0 0 4.47715 0 10C0 15.5228 4.47715 20 10 20Z" fill="#1578B3"/>
</g>
<defs>
<clipPath id="clip0">
<path d="M0 0H20V20H0V0Z" fill="white"/>
</clipPath>
</defs>

</g>%n%n
<g transform="translate(138.000000, 8.000000) scale(0.750000 0.750000) "> 

<path fill-rule="evenodd" fill="rgb(100%, 100%, 100%)" fill-opacity="1" d="M 2.667969 5.332031 C 2.667969 3.859375 3.859375 2.667969 5.332031 2.667969 L 16 2.667969 C 17.472656 2.667969 18.667969 3.859375 18.667969 5.332031 L 18.667969 16 L 20 16 C 22.210938 16 24 17.789062 24 20 L 24 25.332031 C 24 26.070312 24.597656 26.667969 25.332031 26.667969 C 26.070312 26.667969 26.667969 26.070312 26.667969 25.332031 L 26.667969 20.808594 C 26.667969 20.542969 26.589844 20.285156 26.441406 20.066406 L 24.671875 17.410156 C 24.234375 16.753906 24 15.980469 24 15.191406 L 24 13.332031 L 22.667969 13.332031 C 21.195312 13.332031 20 12.140625 20 10.667969 L 20 6.667969 L 21.332031 6.667969 L 21.332031 4 C 21.332031 3.261719 21.929688 2.667969 22.667969 2.667969 C 23.402344 2.667969 24 3.261719 24 4 L 24 6.667969 L 26.667969 6.667969 L 26.667969 4 C 26.667969 3.261719 27.261719 2.667969 28 2.667969 C 28.738281 2.667969 29.332031 3.261719 29.332031 4 L 29.332031 6.667969 L 30.667969 6.667969 L 30.667969 10.667969 C 30.667969 12.140625 29.472656 13.332031 28 13.332031 L 26.667969 13.332031 L 26.667969 15.191406 C 26.667969 15.457031 26.746094 15.714844 26.890625 15.933594 L 28.660156 18.589844 C 29.097656 19.246094 29.332031 20.019531 29.332031 20.808594 L 29.332031 25.332031 C 29.332031 27.542969 27.542969 29.332031 25.332031 29.332031 C 23.125 29.332031 21.332031 27.542969 21.332031 25.332031 L 21.332031 20 C 21.332031 19.261719 20.738281 18.667969 20 18.667969 L 18.667969 18.667969 L 18.667969 29.332031 L 2.667969 29.332031 Z M 13.332031 8 L 6.667969 8 L 5.332031 16 L 10 16 L 8 24 L 16 13.332031 L 11.554688 13.332031 Z M 13.332031 8 "/>

</g>%n%n</svg>