<svg width="300" height="35" viewBox="0 0 300 35" fill="none" xmlns="http://www.w3.org/2000/svg">

<g transform="translate(135.000000, 2.000000) scale(1.500000 1.500000) "> 

<g clip-path="url(#clip0)">
<path opacity="0.849" d="M9.9994 1C14.9626 1 19 5.00181 19 10C19 14.9655 14.9626 19 9.9994 19C5.0374 19 1 14.9655 1 10C1 5.00181 5.0374 1 9.9994 1Z" fill="#0086C7"/>
<path opacity="0.95" fill-rule="evenodd" clip-rule="evenodd" d="M10 19C14.9706 19 19 14.9706 19 10C19 5.02944 14.9706 1 10 1C5.02944 1 1 5.02944 1 10C1 14.9706 5.02944 19 10 19ZM10 20C15.5228 20 20 15.5228 20 10C20 4.47715 15.5228 0 10 0C4.47715 0 0 4.47715 0 10C0 15.5228 4.47715 20 10 20Z" fill="#5FB7ED"/>
</g>
<defs>
<clipPath id="clip0">
<path d="M0 0H20V20H0V0Z" fill="white"/>
</clipPath>
</defs>

</g>


<g transform="translate(141.000000, 8.000000) scale(0.375000 0.375000) "> 

<path d="M18 6L24 2L30 6V8H18V6Z" fill="#ffffff"/>
<path d="M20 18H19C18.4477 18 18 17.5523 18 17C18 16.4477 18.4477 16 19 16H29C29.5523 16 30 16.4477 30 17C30 17.5523 29.5523 18 29 18H28L32 40V44H16V40L20 18Z" fill="#ffffff"/>
<path d="M24 14C25.1046 14 26 13.1046 26 12C26 10.8954 25.1046 10 24 10C22.8954 10 22 10.8954 22 12C22 13.1046 22.8954 14 24 14Z" fill="#ffffff"/>
<g opacity="0.5">
<path d="M29.9403 9.51493L44 6V18L29.9403 14.4851C28.8 14.2 28 13.1754 28 12C28 10.8246 28.8 9.80001 29.9403 9.51493Z" fill="#ffffff"/>
<path d="M18.0263 9.62377L0 6.1875V18L18.0479 14.3904C19.1829 14.1634 20 13.1668 20 12.0092C20 10.8434 19.1715 9.84207 18.0263 9.62377Z" fill="#ffffff"/>
</g>

</g>

</svg>