<svg width="300" height="40" viewBox="0 0 300 40" fill="none" xmlns="http://www.w3.org/2000/svg" xmlns:xlink="http://www.w3.org/1999/xlink" version="1.1">

<g transform="translate(130.000000, 0.000000) scale(2.000000 2.000000) "> 

<g clip-path="url(#clip0)">
<path opacity="0.949" d="M9.9994 1C14.9626 1 19 5.00181 19 10C19 14.9655 14.9626 19 9.9994 19C5.0374 19 1 14.9655 1 10C1 5.00181 5.0374 1 9.9994 1Z" fill="#45ABE9"/>
<path opacity="0.95" fill-rule="evenodd" clip-rule="evenodd" d="M10 19C14.9706 19 19 14.9706 19 10C19 5.02944 14.9706 1 10 1C5.02944 1 1 5.02944 1 10C1 14.9706 5.02944 19 10 19ZM10 20C15.5228 20 20 15.5228 20 10C20 4.47715 15.5228 0 10 0C4.47715 0 0 4.47715 0 10C0 15.5228 4.47715 20 10 20Z" fill="#1578B3"/>
</g>
<defs>
<clipPath id="clip0">
<path d="M0 0H20V20H0V0Z" fill="white"/>
</clipPath>
</defs>

</g>%n%n
<g transform="translate(138.000000, 8.000000) scale(2.000000 2.000000) "> 

<g id="surface1">
<path style=" stroke:none;fill-rule:nonzero;fill:rgb(100%,100%,100%);fill-opacity:1;" d="M 4 7.5 C 4 7.777344 3.777344 8 3.5 8 C 3.222656 8 3 7.777344 3 7.5 C 3 7.222656 3.222656 7 3.5 7 C 3.777344 7 4 7.222656 4 7.5 Z M 4 7.5 "/>
<path style=" stroke:none;fill-rule:nonzero;fill:rgb(100%,100%,100%);fill-opacity:1;" d="M 5 4.246094 C 5.136719 4.246094 5.25 4.132812 5.25 3.996094 C 5.25 3.855469 5.136719 3.746094 5 3.746094 C 4.863281 3.746094 4.75 3.855469 4.75 3.996094 C 4.75 4.132812 4.863281 4.246094 5 4.246094 Z M 5 4.246094 "/>
<path style=" stroke:none;fill-rule:evenodd;fill:rgb(100%,100%,100%);fill-opacity:1;" d="M 2 2.5 C 1.449219 2.5 1 2.949219 1 3.5 L 1 9 C 1 9.550781 1.449219 10 2 10 L 6 10 C 6.550781 10 7 9.550781 7 9 L 7 3.5 C 7 2.949219 6.550781 2.5 6 2.5 Z M 5 7.5 C 5 8.328125 4.328125 9 3.5 9 C 2.671875 9 2 8.328125 2 7.5 C 2 6.671875 2.671875 6 3.5 6 C 4.328125 6 5 6.671875 5 7.5 Z M 5 5 C 5.550781 5 6 4.550781 6 4 C 6 3.449219 5.550781 3 5 3 C 4.449219 3 4 3.449219 4 4 C 4 4.550781 4.449219 5 5 5 Z M 5 5 "/>
<path style=" stroke:none;fill-rule:nonzero;fill:rgb(100%,100%,100%);fill-opacity:1;" d="M 7.5 4 L 8.5 4 L 8.5 8 L 7.5 8 Z M 7.5 4 "/>
<path style=" stroke:none;fill-rule:nonzero;fill:rgb(100%,100%,100%);fill-opacity:1;" d="M 10 5 L 9 5 L 9 9 L 7.5 9 L 7.5 10 L 10 10 L 10 8 L 11 8 L 11 6 L 10 6 Z M 10 5 "/>
</g>

</g>%n%n</svg>