<svg width="300" height="40" viewBox="0 0 300 40" fill="none" xmlns="http://www.w3.org/2000/svg" xmlns:xlink="http://www.w3.org/1999/xlink">

<g transform="translate(130.000000, 0.000000) scale(2.222222 2.222222) "> 

<g clip-path="url(#clip0)">
<path opacity="0.95" fill-rule="evenodd" clip-rule="evenodd" d="M13 1H5C2.79086 1 1 2.79086 1 5V13C1 15.2091 2.79086 17 5 17H13C15.2091 17 17 15.2091 17 13V5C17 2.79086 15.2091 1 13 1ZM5 0C2.23858 0 0 2.23858 0 5V13C0 15.7614 2.23858 18 5 18H13C15.7614 18 18 15.7614 18 13V5C18 2.23858 15.7614 0 13 0H5Z" fill="#1578B3"/>
<rect opacity="0.95" x="1" y="1" width="16" height="16" rx="4" fill="#45ABE9"/>
</g>
<defs>
<clipPath id="clip0">
<path d="M0 0H18V18H0V0Z" fill="white"/>
</clipPath>
</defs>

</g>%n%n
<g transform="translate(138.000000, 8.000000) scale(0.750000 0.750000) "> 

<path fill-rule="nonzero" fill="rgb(100%, 100%, 100%)" fill-opacity="1" d="M 9.332031 10.667969 L 6.667969 10.667969 C 3.722656 10.667969 1.332031 13.054688 1.332031 16 C 1.332031 18.945312 3.722656 21.332031 6.667969 21.332031 L 9.332031 21.332031 Z M 9.332031 10.667969 "/>
<path fill-rule="nonzero" fill="rgb(100%, 100%, 100%)" fill-opacity="1" d="M 12 21.332031 L 12 10.667969 L 20 10.667969 L 20 21.332031 Z M 12 21.332031 "/>
<path fill-rule="nonzero" fill="rgb(100%, 100%, 100%)" fill-opacity="1" d="M 22.667969 21.332031 L 25.332031 21.332031 C 28.277344 21.332031 30.667969 18.945312 30.667969 16 C 30.667969 13.054688 28.277344 10.667969 25.332031 10.667969 L 22.667969 10.667969 Z M 22.667969 21.332031 "/>

</g>%n%n</svg>