<svg width="300" height="35" viewBox="0 0 300 35" fill="none" xmlns="http://www.w3.org/2000/svg" >

<g transform="translate(135.000000, 2.000000) scale(1.500000 1.500000) "> 

<g clip-path="url(#clip0)">
<path opacity="0.953" d="M9.99934 0C15.514 0 20 4.44646 20 10C20 15.5172 15.514 20 9.99934 20C4.48599 20 0 15.5172 0 10C0 4.44646 4.48599 0 9.99934 0V0Z" fill="#505050"/>
<path opacity="0.95" fill-rule="evenodd" clip-rule="evenodd" d="M10 19C14.9706 19 19 14.9706 19 10C19 5.02944 14.9706 1 10 1C5.02944 1 1 5.02944 1 10C1 14.9706 5.02944 19 10 19ZM10 20C15.5228 20 20 15.5228 20 10C20 4.47715 15.5228 0 10 0C4.47715 0 0 4.47715 0 10C0 15.5228 4.47715 20 10 20Z" fill="#909090"/>
</g>
<defs>
<clipPath id="clip0">
<path d="M0 0H20V20H0V0Z" fill="white"/>
</clipPath>
</defs>

</g>


<g transform="translate(141.000000, 8.000000) scale(0.375000 0.375000) "> 

<g clip100-path="url(#clip1000)">
<path fill-rule="evenodd" clip100-rule="evenodd" d="M7.99976 8C7.99976 5.79086 9.79062 4 11.9998 4H19.9998C22.2089 4 23.9998 5.79086 23.9998 8V8.61321C24.7372 8.94877 25.4161 9.41604 26 9.99998C27.2806 11.2806 28 13.0174 28 14.8284V32C28 34.2091 26.2091 36 24 36H8C5.79086 36 4 34.2091 4 32V14.8284C4 13.0174 4.71942 11.2806 6 9.99998C6.58382 9.41616 7.26248 8.94898 7.99976 8.61343V8ZM14.0002 8.00001C12.8956 8.00001 12.0002 8.89543 12.0002 10C12.0002 11.1046 12.8956 12 14.0002 12L18.0002 12C19.1048 12 20.0002 11.1046 20.0002 9.99999C20.0002 8.89542 19.1048 7.99999 18.0002 7.99999L14.0002 8.00001ZM14.0002 16L8.00031 16V24L14.0002 24V16ZM18.0002 16L24.0003 16V24L18.0002 24V16ZM10.0003 32C11.1049 32 12.0003 31.1046 12.0003 30C12.0003 28.8955 11.1049 28 10.0003 28C8.89574 28 8.00031 28.8955 8.00031 30C8.00031 31.1046 8.89574 32 10.0003 32ZM24 30C24 31.1046 23.1046 32 22 32C20.8954 32 20 31.1046 20 30C20 28.8955 20.8954 28 22 28C23.1046 28 24 28.8955 24 30Z" fill="white"/>
<path d="M28.0003 4L48.0003 0V44H28.0003V36H44.0003V8H28.0003V4Z" fill="white"/>
<path opacity="0.5" d="M8 36H12L10 40H21.9991L20 36H24L28 44H4L8 36Z" fill="white"/>
</g>
<defs>
<clip100Path id="clip1000">
<path d="M0 0H48V48H0V0Z" fill="white"/>
</clip100Path>
</defs>

</g>

</svg>