<svg width="300" height="40" viewBox="0 0 300 40" fill="none" xmlns="http://www.w3.org/2000/svg" xmlns:xlink="http://www.w3.org/1999/xlink">

<g transform="translate(130.000000, 0.000000) scale(2.000000 2.000000) "> 

<g clip-path="url(#clip0)">
<path opacity="0.953" d="M9.99934 0C15.514 0 20 4.44646 20 10C20 15.5172 15.514 20 9.99934 20C4.48599 20 0 15.5172 0 10C0 4.44646 4.48599 0 9.99934 0V0Z" fill="#878787"/>
<path opacity="0.95" fill-rule="evenodd" clip-rule="evenodd" d="M10 19C14.9706 19 19 14.9706 19 10C19 5.02944 14.9706 1 10 1C5.02944 1 1 5.02944 1 10C1 14.9706 5.02944 19 10 19ZM10 20C15.5228 20 20 15.5228 20 10C20 4.47715 15.5228 0 10 0C4.47715 0 0 4.47715 0 10C0 15.5228 4.47715 20 10 20Z" fill="#404040"/>
</g>
<defs>
<clipPath id="clip0">
<path d="M0 0H20V20H0V0Z" fill="white"/>
</clipPath>
</defs>

</g>%n%n
<g transform="translate(138.000000, 8.000000) scale(0.750000 0.750000) "> 

<path fill-rule="nonzero" fill="rgb(100%, 100%, 100%)" fill-opacity="1" d="M 8.3125 12.261719 C 6.957031 12.261719 6.238281 13.003906 5.90625 13.867188 L 4.144531 18.417969 C 3.445312 18.507812 2.203125 19.328125 2.203125 20.882812 L 2.203125 26.667969 L 3.921875 26.667969 L 3.921875 28.519531 C 3.921875 30.796875 7.144531 30.769531 7.144531 28.519531 L 7.144531 26.667969 L 18.734375 26.667969 L 18.734375 28.519531 C 18.734375 30.769531 21.957031 30.796875 21.957031 28.519531 L 21.957031 26.667969 L 23.675781 26.667969 L 23.675781 20.882812 C 23.675781 20.214844 23.445312 19.6875 23.132812 19.292969 C 22.839844 19.320312 22.542969 19.332031 22.242188 19.332031 C 20.746094 19.332031 19.332031 18.988281 18.070312 18.371094 L 5.96875 18.371094 L 7.292969 14.792969 C 7.460938 14.289062 7.710938 13.925781 8.292969 13.917969 L 13.632812 13.917969 C 13.378906 13.390625 13.171875 12.835938 13.015625 12.261719 Z M 5.585938 20.113281 C 6.40625 20.113281 7.074219 20.800781 7.074219 21.648438 C 7.074219 22.492188 6.40625 23.179688 5.585938 23.179688 C 4.761719 23.179688 4.097656 22.492188 4.097656 21.648438 C 4.097656 20.800781 4.761719 20.113281 5.585938 20.113281 Z M 20.296875 20.113281 C 21.117188 20.113281 21.785156 20.800781 21.785156 21.648438 C 21.785156 22.492188 21.117188 23.179688 20.296875 23.179688 C 19.472656 23.179688 18.804688 22.492188 18.804688 21.648438 C 18.804688 20.800781 19.472656 20.113281 20.296875 20.113281 Z M 20.296875 20.113281 "/>
<path fill-rule="nonzero" fill="rgb(100%, 100%, 100%)" fill-opacity="1" d="M 22.242188 1.785156 C 17.835938 1.785156 14.246094 5.371094 14.246094 9.777344 C 14.246094 14.183594 17.835938 17.773438 22.242188 17.773438 C 26.648438 17.773438 30.238281 14.183594 30.238281 9.777344 C 30.238281 5.371094 26.648438 1.785156 22.242188 1.785156 Z M 22.242188 3.316406 C 25.820312 3.316406 28.703125 6.199219 28.703125 9.777344 C 28.703125 13.355469 25.820312 16.238281 22.242188 16.238281 C 18.664062 16.238281 15.78125 13.355469 15.78125 9.777344 C 15.78125 6.199219 18.664062 3.316406 22.242188 3.316406 Z M 22.242188 3.316406 "/>
<path fill-rule="nonzero" fill="rgb(100%, 100%, 100%)" fill-opacity="1" d="M 28.503906 3.945312 L 27.496094 3.261719 C 27.21875 3.074219 26.835938 3.144531 26.648438 3.421875 L 21.707031 10.671875 L 19.4375 8.410156 C 19.199219 8.175781 18.8125 8.175781 18.574219 8.410156 L 17.714844 9.269531 C 17.476562 9.507812 17.476562 9.890625 17.714844 10.128906 L 21.203125 13.601562 C 21.402344 13.796875 21.707031 13.945312 21.984375 13.945312 C 22.261719 13.945312 22.539062 13.773438 22.71875 13.511719 L 28.667969 4.785156 C 28.855469 4.511719 28.78125 4.132812 28.503906 3.945312 Z M 28.503906 3.945312 "/>

</g>%n%n</svg>