<svg width="300" height="40" viewBox="0 0 300 40" fill="none" xmlns="http://www.w3.org/2000/svg" xmlns:xlink="http://www.w3.org/1999/xlink">

<g transform="translate(130.000000, 0.000000) scale(2.500000 2.500000) "> 

<path opacity="0.804" d="M3.94794 1.45197C3.34809 1.45197 2.83829 1.79422 2.53355 2.21356C2.22881 2.6329 2.0766 3.146 2.0766 3.6949V12.2816C2.0766 12.8305 2.22881 13.3436 2.53355 13.763C2.83829 14.1823 3.34809 14.5246 3.94794 14.5246H12.056C12.6558 14.5246 13.1656 14.1823 13.4703 13.763C13.7751 13.3436 13.9273 12.8305 13.9273 12.2816V3.6949C13.9273 3.146 13.7751 2.6329 13.4703 2.21356C13.1656 1.79422 12.6558 1.45197 12.056 1.45197H3.94794V1.45197Z" fill="#EBE7E4"/>

</g>%n%n
<g transform="translate(139.000000, 9.000000) scale(1.833333 1.833333) "> 

<path fill-rule="nonzero" fill="rgb(24.705882%, 24.705882%, 24.705882%)" fill-opacity="1" d="M 2.421875 1.011719 C 1.9375 1.011719 1.550781 1.546875 1.550781 2.210938 L 1.550781 9.789062 C 1.550781 10.453125 1.9375 10.988281 2.421875 10.988281 L 9.578125 10.988281 C 10.0625 10.988281 10.449219 10.453125 10.449219 9.789062 L 10.449219 2.210938 C 10.449219 1.546875 10.0625 1.011719 9.578125 1.011719 Z M 5.84375 1.894531 L 8.800781 4.996094 L 3.199219 4.996094 Z M 3.199219 7.003906 L 8.800781 7.003906 L 5.84375 10.105469 Z M 3.199219 7.003906 "/>

</g>%n%n</svg>