<svg width="300" height="40" viewBox="0 0 300 40" fill="none" xmlns="http://www.w3.org/2000/svg" xmlns:xlink="http://www.w3.org/1999/xlink">

<g transform="translate(130.000000, 0.000000) scale(2.500000 2.500000) "> 

<path opacity="0.812" d="M3.38272 2C2.94222 2.00002 2.64504 2.19269 2.41975 2.41592C2.19447 2.63914 2.00002 2.93361 2 3.37008V9.9758C2.00002 10.4123 2.19446 10.7067 2.41975 10.93C2.64504 11.1532 2.94222 11.3459 3.38272 11.3459H4.34568C4.69966 11.3459 4.90046 11.1875 5.1358 11.0034C5.13488 11.0278 5.13488 11.0523 5.1358 11.0767C5.18998 11.7165 5.47997 12.3474 5.97531 12.7649C6.43563 13.1529 6.53146 13.2191 7.09259 13.3977C7.31859 14.3013 9.09613 14.1415 9.06173 13.2297C9.48923 13.128 9.86462 13.0585 10.2222 12.7159C10.6517 12.3046 10.9324 11.7077 10.963 11.0767C11.1446 11.194 11.2966 11.346 11.5802 11.3459H12.716C13.1347 11.3461 13.4758 11.0824 13.6049 10.9544C13.8345 10.727 14.0002 10.464 14 10.0492V6.37935C14.0002 5.96441 13.8344 5.70152 13.6049 5.47412C13.511 5.38104 13.2313 5.26148 12.963 5.18053C12.9511 5.18497 13.1225 5.12603 13.1111 5.1316C13.0998 5.13716 13.2453 5.05156 13.2346 5.0582C13.2238 5.06484 13.3681 4.95269 13.358 4.96034C13.348 4.96798 13.4907 4.85389 13.4815 4.86248C13.4723 4.87107 13.5886 4.7307 13.5802 4.74015C13.572 4.74959 13.6864 4.60761 13.679 4.61782C13.6716 4.62803 13.7841 4.48462 13.7778 4.49549C13.7714 4.50637 13.8571 4.33726 13.8518 4.3487C13.8466 4.36013 13.9053 4.21448 13.9012 4.22637C13.8972 4.23826 13.9535 4.06735 13.9506 4.07958C13.9478 4.0918 13.9769 3.89588 13.9753 3.90832C13.9737 3.92076 13.9757 3.74898 13.9753 3.76152C13.9749 3.77406 13.9744 3.60221 13.9753 3.61473C13.9762 3.62725 13.9485 3.43109 13.9506 3.44347C13.9527 3.45585 13.9226 3.28456 13.9259 3.29668C13.9292 3.30879 13.8721 3.13815 13.8765 3.14988C13.8811 3.16162 13.8215 2.99185 13.8272 3.00309C13.8328 3.01433 13.7464 2.87012 13.7531 2.88076C13.7598 2.8914 13.6466 2.74849 13.6543 2.75843C13.6621 2.76837 13.5469 2.62696 13.5556 2.6361C13.5642 2.64525 13.4226 2.52998 13.4321 2.53824C13.4416 2.5465 13.2983 2.43309 13.3086 2.44038C13.3189 2.44767 13.1742 2.33626 13.1852 2.34252C13.1962 2.34877 13.0255 2.26396 13.037 2.26912C13.0486 2.27428 12.9016 2.21617 12.9136 2.22019C12.9256 2.2242 12.7531 2.16843 12.7654 2.17126C12.7778 2.17409 12.58 2.14517 12.5926 2.14679C12.6051 2.14841 12.4318 2.1464 12.4444 2.14679C12.4571 2.14718 12.2837 2.14763 12.2963 2.14679C12.3089 2.14595 12.111 2.17332 12.1235 2.17126C12.0988 2.17034 12.0741 2.17034 12.0494 2.17126C12.0535 2.17018 12.0269 2.18779 12 2.19572C11.9731 2.20365 11.9466 2.22153 11.9506 2.22019L5.72839 3.59026V3.37007C5.72838 3.09317 5.63913 2.71892 5.33333 2.41592C5.02753 2.11291 4.78617 2.00002 4.34568 2H3.38272ZM10.5432 5.74324C10.4177 5.92692 10.2715 6.08884 10.2716 6.37935V7.4069C10.1512 7.24182 10.0382 7.06805 9.87654 6.94206C9.65067 6.76608 9.56482 6.73995 9.35802 6.67294C9.3553 6.67205 9.36075 6.64934 9.35802 6.64847C9.3616 6.6594 9.32914 6.56435 9.33333 6.57507C9.33753 6.58579 9.30385 6.49121 9.30864 6.50168C9.31343 6.51214 9.27857 6.4181 9.28395 6.42828C9.28933 6.43846 9.22862 6.34501 9.23457 6.35488C9.24051 6.36475 9.20338 6.29643 9.20988 6.30595C9.21637 6.31547 9.15346 6.22341 9.16049 6.23256C9.16753 6.2417 9.10357 6.17489 9.11111 6.18362C9.11865 6.19236 9.05371 6.12639 9.06173 6.13469C9.06789 6.14108 9.0275 6.10078 9.01234 6.08576C9.0078 6.08126 9.01038 6.05949 9.01234 6.0613L10.5432 5.74324ZM6.81481 6.57507C6.81093 6.58431 6.78876 6.60329 6.79012 6.59954C6.79576 6.58399 6.76107 6.71335 6.76543 6.6974C6.48876 6.80354 6.32668 6.76414 5.99383 7.04604C5.85079 7.18466 5.83607 7.21039 5.73457 7.38244L5.72839 6.79526L6.81481 6.57507ZM5.72839 9.70667C5.79618 9.82178 5.81386 9.94965 5.90123 10.0492C5.81498 10.0706 5.73168 10.1036 5.65432 10.1471C5.66052 10.0913 5.72839 10.0258 5.72839 9.9758V9.70667Z" fill="#EBE7E4"/>

</g>%n%n
<g transform="translate(138.000000, 8.000000) scale(0.750000 0.750000) "> 

<defs>
<filter id="filter-remove-color" x="0%" y="0%" width="100%" height="100%">
<feColorMatrix color-interpolation-filters="sRGB" values="0 0 0 0 1 0 0 0 0 1 0 0 0 0 1 0 0 0 1 0" />
</filter>
<mask id="mask-0">
<g filter="url(#filter-remove-color)">
<rect x="-3.2" y="-3.2" width="38.4" height="38.4" fill="rgb(0%, 0%, 0%)" fill-opacity="0.75"/>
</g>
</mask>
<clip100Path id="clip100-0">
<rect x="0" y="0" width="32" height="32"/>
</clip100Path>
<g id="source-9" clip100-path="url(#clip100-0)">
<path fill-rule="nonzero" fill="rgb(26.666667%, 26.666667%, 26.666667%)" fill-opacity="1" d="M 25.121094 11.179688 C 24.914062 11.179688 24.710938 11.265625 24.566406 11.410156 C 24.421875 11.554688 24.335938 11.761719 24.335938 11.964844 L 24.335938 21.375 C 24.335938 21.578125 24.421875 21.785156 24.566406 21.929688 C 24.710938 22.074219 24.914062 22.160156 25.121094 22.160156 L 27.980469 22.160156 C 28.1875 22.160156 28.390625 22.074219 28.535156 21.929688 C 28.679688 21.785156 28.765625 21.578125 28.765625 21.375 L 28.765625 11.964844 C 28.765625 11.761719 28.679688 11.554688 28.535156 11.410156 C 28.390625 11.265625 28.1875 11.179688 27.980469 11.179688 Z M 25.121094 11.179688 "/>
</g>
<mask id="mask-1">
<g filter="url(#filter-remove-color)">
<rect x="-3.2" y="-3.2" width="38.4" height="38.4" fill="rgb(0%, 0%, 0%)" fill-opacity="0.75"/>
</g>
</mask>
<clip100Path id="clip100-1">
<rect x="0" y="0" width="32" height="32"/>
</clip100Path>
<g id="source-13" clip100-path="url(#clip100-1)">
<path fill-rule="nonzero" fill="rgb(26.666667%, 26.666667%, 26.666667%)" fill-opacity="1" d="M 4.347656 3.292969 C 4.09375 3.292969 3.835938 3.398438 3.65625 3.578125 C 3.476562 3.757812 3.371094 4.011719 3.371094 4.269531 L 3.371094 21.179688 C 3.371094 21.4375 3.476562 21.691406 3.65625 21.871094 C 3.835938 22.054688 4.09375 22.160156 4.347656 22.160156 L 6.824219 22.160156 C 7.078125 22.160156 7.332031 22.054688 7.515625 21.871094 C 7.695312 21.691406 7.800781 21.4375 7.800781 21.179688 L 7.800781 12.660156 C 6.5625 13.039062 5.078125 12.703125 4.28125 11.652344 C 3.070312 10.203125 3.6875 7.640625 5.472656 6.964844 C 6.25 6.785156 7.023438 6.609375 7.800781 6.429688 L 7.800781 4.269531 C 7.800781 4.011719 7.695312 3.757812 7.515625 3.578125 C 7.332031 3.398438 7.078125 3.292969 6.824219 3.292969 Z M 4.347656 3.292969 "/>
</g>
</defs>
<path fill-rule="nonzero" fill="rgb(26.666667%, 26.666667%, 26.666667%)" fill-opacity="1" stroke-width="3.67408" stroke-linecap="round" stroke-linejoin="round" stroke="rgb(26.666667%, 26.666667%, 26.666667%)" stroke-opacity="1" stroke-miterlimit="4" d="M 299.98291 364.411621 C 300.266113 364.482422 301.186523 364.694824 302.744141 364.978027 C 327.807617 369.155273 351.030273 376.730957 363.632812 387.705078 C 376.235352 398.679199 382.536621 413.051758 382.536621 430.893555 C 382.536621 449.089355 375.668945 464.87793 361.791992 478.259277 C 347.98584 491.640625 324.47998 498.862305 299.98291 499.995117 L 289.716797 513.588867 L 284.760742 513.588867 L 284.760742 500.27832 C 259.838867 497.941895 240.722656 491.074219 227.341309 479.746094 C 214.030762 468.347168 206.525879 452.487793 204.82666 432.097168 L 237.819824 427.141113 C 240.368652 442.434082 245.60791 454.257812 253.395996 462.541504 C 261.254883 470.825195 271.662598 475.568848 284.760742 476.70166 L 284.760742 387.705078 C 259.980469 383.103027 241.359863 375.527344 229.040527 364.836426 C 216.650391 354.145508 210.490723 340.480957 210.490723 323.701172 C 210.490723 306.992188 216.57959 292.69043 228.828125 280.725098 C 241.07666 268.759766 259.697266 261.821289 284.760742 259.980469 L 284.760742 246.599121 L 299.98291 246.599121 L 299.98291 259.980469 C 320.79834 261.750488 341.61377 267.34375 353.579102 276.760254 C 365.544434 286.176758 373.049316 299.416504 376.164551 316.408691 L 341.826172 320.585938 C 339.84375 310.036621 335.808105 301.682129 329.506836 295.45166 C 323.276367 289.291992 310.532227 285.327148 299.98291 283.62793 Z M 284.760742 360.942383 L 284.760742 283.273926 C 271.450195 285.256348 261.254883 289.787598 254.174805 296.867676 C 247.023926 303.947754 243.483887 312.160645 243.483887 321.506348 C 243.483887 332.197266 247.165527 340.551758 254.528809 346.782227 C 261.821289 352.941895 271.945801 357.614746 284.760742 360.942383 Z M 299.98291 476.70166 C 312.868652 475.002441 327.807617 470.32959 336.162109 462.470703 C 344.445801 454.682617 348.623047 444.770508 348.623047 432.875977 C 348.623047 422.397461 345.437012 414.042969 339.135742 407.670898 C 332.905273 401.298828 316.904297 395.847168 299.98291 391.386719 Z M 299.98291 476.70166 " transform="matrix(0.0551724, 0, 0, 0.0551724, 0, 0)"/>
<path fill="none" stroke-width="33.922699" stroke-linecap="round" stroke-linejoin="round" stroke="rgb(26.666667%, 26.666667%, 26.666667%)" stroke-opacity="1" stroke-miterlimit="4" d="M 294.248047 249.006348 L 294.248047 515.288086 " transform="matrix(0.0551724, 0, 0, 0.0551724, 0, 0)"/>
<path fill="none" stroke-width="54.685001" stroke-linecap="round" stroke-linejoin="miter" stroke="rgb(26.666667%, 26.666667%, 26.666667%)" stroke-opacity="1" stroke-miterlimit="4" d="M 121.777344 176.860352 L 491.286621 94.448242 " transform="matrix(0.0551724, 0, 0, 0.0551724, 0, 0)"/>
<g mask="url(#mask-0)">
<use xlink:href="#source-9"/>
</g>
<g mask="url(#mask-1)">
<use xlink:href="#source-13"/>
</g>

</g>%n%n</svg>