<svg width="300" height="35" viewBox="0 0 300 35" fill="none" xmlns="http://www.w3.org/2000/svg">

<g transform="translate(135.000000, 2.000000) scale(1.666667 1.666667) "> 

<g clip-path="url(#clip0)">
<path opacity="0.95" fill-rule="evenodd" clip-rule="evenodd" d="M13 1H5C2.79086 1 1 2.79086 1 5V13C1 15.2091 2.79086 17 5 17H13C15.2091 17 17 15.2091 17 13V5C17 2.79086 15.2091 1 13 1ZM5 0C2.23858 0 0 2.23858 0 5V13C0 15.7614 2.23858 18 5 18H13C15.7614 18 18 15.7614 18 13V5C18 2.23858 15.7614 0 13 0H5Z" fill="#1578B3"/>
<rect opacity="0.95" x="1" y="1" width="16" height="16" rx="4" fill="#45ABE9"/>
</g>
<defs>
<clipPath id="clip0">
<path d="M0 0H18V18H0V0Z" fill="white"/>
</clipPath>
</defs>

</g>


<g transform="translate(141.000000, 8.000000) scale(0.031034 0.031034) "> 

<path d="M118.031 62.4648C118.031 62.4648 78.8876 200.187 78.1367 277.291C77.3859 354.395 118.031 518.156 118.031 518.156" stroke="#ffffff" stroke-width="45" stroke-linecap="round"/>
<path fill-rule="evenodd" clip100-rule="evenodd" d="M219.823 278.799C219.823 278.799 292.374 458.153 289.999 457.727C287.624 457.302 360.178 278.799 360.178 278.799L289.999 122.291L219.823 278.799Z" fill="#ffffff" stroke="#ffffff" stroke-width="16.7377" stroke-linecap="round" stroke-linejoin="round"/>
<path d="M461.969 62.4648C461.969 62.4648 501.112 200.187 501.863 277.291C502.614 354.395 461.969 518.156 461.969 518.156" stroke="#ffffff" stroke-width="45" stroke-linecap="round"/>

</g>

</svg>