<svg width="300" height="40" viewBox="0 0 300 40" fill="none" xmlns="http://www.w3.org/2000/svg" xmlns:xlink="http://www.w3.org/1999/xlink" version="1.1">

<g transform="translate(130.000000, 0.000000) scale(2.000000 2.000000) "> 

<g clip-path="url(#clip0)">
<path opacity="0.949" d="M9.9994 1C14.9626 1 19 5.00181 19 10C19 14.9655 14.9626 19 9.9994 19C5.0374 19 1 14.9655 1 10C1 5.00181 5.0374 1 9.9994 1Z" fill="#45ABE9"/>
<path opacity="0.95" fill-rule="evenodd" clip-rule="evenodd" d="M10 19C14.9706 19 19 14.9706 19 10C19 5.02944 14.9706 1 10 1C5.02944 1 1 5.02944 1 10C1 14.9706 5.02944 19 10 19ZM10 20C15.5228 20 20 15.5228 20 10C20 4.47715 15.5228 0 10 0C4.47715 0 0 4.47715 0 10C0 15.5228 4.47715 20 10 20Z" fill="#1578B3"/>
</g>
<defs>
<clipPath id="clip0">
<path d="M0 0H20V20H0V0Z" fill="white"/>
</clipPath>
</defs>

</g>%n%n
<g transform="translate(138.000000, 8.000000) scale(2.000000 2.000000) "> 

<defs>
<filter id="alpha" filterUnits="objectBoundingBox" x="0%" y="0%" width="100%" height="100%">
  <feColorMatrix type="matrix" in="SourceGraphic" values="0 0 0 0 1 0 0 0 0 1 0 0 0 0 1 0 0 0 1 0"/>
</filter>
<mask id="mask0">
  <g filter="url(#alpha)">
<rect x="0" y="0" width="12" height="12" style="fill:rgb(0%,0%,0%);fill-opacity:0.5;stroke:none;"/>
  </g>
</mask>
<clip100Path id="clip1001">
  <rect x="0" y="0" width="12" height="12"/>
</clip100Path>
<g id="surface5" clip100-path="url(#clip1001)">
<path style=" stroke:none;fill-rule:evenodd;fill:rgb(100%,100%,100%);fill-opacity:1;" d="M 9.5 6.5 C 9.777344 6.5 10 6.722656 10 7 L 10 10 L 10.5 10 C 10.777344 10 11 10.222656 11 10.5 C 11 10.777344 10.777344 11 10.5 11 L 8.5 11 C 8.222656 11 8 10.777344 8 10.5 C 8 10.222656 8.222656 10 8.5 10 L 9 10 L 9 7 C 9 6.722656 9.222656 6.5 9.5 6.5 Z M 9.5 6.5 "/>
</g>
</defs>
<g id="surface1">
<path style=" stroke:none;fill-rule:nonzero;fill:rgb(100%,100%,100%);fill-opacity:1;" d="M 5 7 C 4.722656 7 4.5 6.777344 4.5 6.5 C 4.5 6.222656 4.722656 6 5 6 C 5.277344 6 5.5 6.222656 5.5 6.5 C 5.5 6.777344 5.277344 7 5 7 Z M 5 7 "/>
<path style=" stroke:none;fill-rule:nonzero;fill:rgb(100%,100%,100%);fill-opacity:1;" d="M 3 7 C 2.722656 7 2.5 6.777344 2.5 6.5 C 2.5 6.222656 2.722656 6 3 6 C 3.277344 6 3.5 6.222656 3.5 6.5 C 3.5 6.777344 3.277344 7 3 7 Z M 3 7 "/>
<path style=" stroke:none;fill-rule:evenodd;fill:rgb(100%,100%,100%);fill-opacity:1;" d="M 6.292969 4.792969 C 6.105469 4.605469 5.851562 4.5 5.585938 4.5 L 2.414062 4.5 C 2.148438 4.5 1.894531 4.605469 1.707031 4.792969 L 1.695312 4.804688 C 1.566406 4.933594 1.476562 5.09375 1.433594 5.269531 L 1.121094 6.515625 C 0.957031 6.472656 0.773438 6.519531 0.644531 6.644531 C 0.453125 6.839844 0.453125 7.160156 0.644531 7.355469 L 1 7.707031 L 1 10.5 C 1 10.777344 1.222656 11 1.5 11 C 1.777344 11 2 10.777344 2 10.5 L 2 10 L 6 10 L 6 10.5 C 6 10.777344 6.222656 11 6.5 11 C 6.777344 11 7 10.777344 7 10.5 L 7 7.707031 L 7.355469 7.355469 C 7.546875 7.160156 7.546875 6.839844 7.355469 6.644531 C 7.226562 6.519531 7.042969 6.472656 6.878906 6.515625 L 6.566406 5.269531 C 6.523438 5.09375 6.433594 4.933594 6.304688 4.804688 Z M 5.597656 5.511719 L 5.585938 5.5 L 2.414062 5.5 L 2.402344 5.511719 L 2.03125 7 L 5.96875 7 Z M 2.5 8 C 2.222656 8 2 8.222656 2 8.5 C 2 8.777344 2.222656 9 2.5 9 C 2.777344 9 3 8.777344 3 8.5 C 3 8.222656 2.777344 8 2.5 8 Z M 5.5 8 C 5.222656 8 5 8.222656 5 8.5 C 5 8.777344 5.222656 9 5.5 9 C 5.777344 9 6 8.777344 6 8.5 C 6 8.222656 5.777344 8 5.5 8 Z M 5.5 8 "/>
<use xlink:href="#surface5" mask="url(#mask0)"/>
<path style=" stroke:none;fill-rule:evenodd;fill:rgb(100%,100%,100%);fill-opacity:1;" d="M 8 1 C 7.449219 1 7 1.449219 7 2 L 7 6 C 7 6.550781 7.449219 7 8 7 L 11 7 C 11.550781 7 12 6.550781 12 6 L 12 2 C 12 1.449219 11.550781 1 11 1 Z M 8 6 L 8 4.996094 L 9.863281 3.8125 C 9.949219 3.757812 10 3.664062 10 3.5625 L 10 3.5 C 10 3.222656 9.777344 3 9.5 3 C 9.222656 3 9 3.222656 9 3.5 L 8 3.5 C 8 2.671875 8.671875 2 9.5 2 C 10.328125 2 11 2.671875 11 3.5 L 11 3.5625 C 11 4.007812 10.773438 4.417969 10.398438 4.65625 L 9.859375 5 L 11 5 L 11 6 Z M 8 6 "/>
</g>

</g>%n%n</svg>