<svg width="300" height="40" viewBox="0 0 300 40" fill="none" xmlns="http://www.w3.org/2000/svg" xmlns:xlink="http://www.w3.org/1999/xlink" version="1.1">

<g transform="translate(130.000000, 0.000000) scale(1.666667 1.666667) "> 

<path opacity="0.5" fill-rule="evenodd" clip-rule="evenodd" d="M24 11.5V19C24 21.2091 22.2091 23 20 23H4C1.79086 23 0 21.2091 0 19V11.5C0 5.0533 5.47049 0 12 0C18.5295 0 24 5.0533 24 11.5ZM12 2C6.47715 2 2 6.25329 2 11.5V19C2 20.1046 2.89543 21 4 21H20C21.1046 21 22 20.1046 22 19V11.5C22 6.25329 17.5228 2 12 2Z" fill="white"/>
<path d="M2 11.5C2 6.25329 6.47715 2 12 2C17.5228 2 22 6.25329 22 11.5V19C22 20.1046 21.1046 21 20 21H4C2.89543 21 2 20.1046 2 19V11.5Z" fill="white"/>
<path fill-rule="evenodd" clip-rule="evenodd" d="M20 19V11.5C20 7.45329 16.5162 4 12 4C7.48382 4 4 7.45329 4 11.5V19H20ZM12 2C6.47715 2 2 6.25329 2 11.5V19C2 20.1046 2.89543 21 4 21H20C21.1046 21 22 20.1046 22 19V11.5C22 6.25329 17.5228 2 12 2Z" fill="#0092DE"/>

</g>%n%n
<g transform="translate(138.000000, 8.000000) scale(2.000000 2.000000) "> 

<defs>
<filter id="alpha" filterUnits="objectBoundingBox" x="0%" y="0%" width="100%" height="100%">
  <feColorMatrix type="matrix" in="SourceGraphic" values="0 0 0 0 1 0 0 0 0 1 0 0 0 0 1 0 0 0 1 0"/>
</filter>
<mask id="mask0">
  <g filter="url(#alpha)">
<rect x="0" y="0" width="12" height="12" style="fill:rgb(0%,0%,0%);fill-opacity:0.5;stroke:none;"/>
  </g>
</mask>
<clip100Path id="clip1001">
  <rect x="0" y="0" width="12" height="12"/>
</clip100Path>
<g id="surface5" clip100-path="url(#clip1001)">
<path style=" stroke:none;fill-rule:nonzero;fill:rgb(0%,57.254905%,85.490197%);fill-opacity:1;" d="M 3.5 9 L 4.5 9 L 3.832031 11 L 8.167969 11 L 7.5 9 L 8.5 9 L 9.5 12 L 2.5 12 Z M 3.5 9 "/>
</g>
</defs>
<g id="surface1">
<path style=" stroke:none;fill-rule:evenodd;fill:rgb(0%,57.254905%,85.490197%);fill-opacity:1;" d="M 3.707031 1 C 3.253906 1 2.820312 1.179688 2.5 1.5 C 2.179688 1.820312 2 2.253906 2 2.707031 L 2 9 C 2 9.550781 2.449219 10 3 10 L 9 10 C 9.550781 10 10 9.550781 10 9 L 10 2.707031 C 10 2.253906 9.820312 1.820312 9.5 1.5 C 9.179688 1.179688 8.746094 1 8.292969 1 Z M 9 4 L 3 4 L 3 7 L 9 7 Z M 3.5 9 C 3.777344 9 4 8.777344 4 8.5 C 4 8.222656 3.777344 8 3.5 8 C 3.222656 8 3 8.222656 3 8.5 C 3 8.777344 3.222656 9 3.5 9 Z M 9 8.5 C 9 8.777344 8.777344 9 8.5 9 C 8.222656 9 8 8.777344 8 8.5 C 8 8.222656 8.222656 8 8.5 8 C 8.777344 8 9 8.222656 9 8.5 Z M 9 8.5 "/>
<use xlink:href="#surface5" mask="url(#mask0)"/>
</g>

</g>%n%n</svg>