<svg width="300" height="40" viewBox="0 0 300 40" fill="none" xmlns="http://www.w3.org/2000/svg" xmlns:xlink="http://www.w3.org/1999/xlink">

<g transform="translate(130.000000, 0.000000) scale(2.222222 2.222222) "> 

<g clip-path="url(#clip0)">
<path opacity="0.95" fill-rule="evenodd" clip-rule="evenodd" d="M13 1H5C2.79086 1 1 2.79086 1 5V13C1 15.2091 2.79086 17 5 17H13C15.2091 17 17 15.2091 17 13V5C17 2.79086 15.2091 1 13 1ZM5 0C2.23858 0 0 2.23858 0 5V13C0 15.7614 2.23858 18 5 18H13C15.7614 18 18 15.7614 18 13V5C18 2.23858 15.7614 0 13 0H5Z" fill="#1578B3"/>
<rect opacity="0.95" x="1" y="1" width="16" height="16" rx="4" fill="#45ABE9"/>
</g>
<defs>
<clipPath id="clip0">
<path d="M0 0H18V18H0V0Z" fill="white"/>
</clipPath>
</defs>

</g>%n%n
<g transform="translate(138.000000, 8.000000) scale(0.750000 0.750000) "> 

<path fill-rule="nonzero" fill="rgb(100%, 100%, 100%)" fill-opacity="1" d="M 22.125 3.808594 L 19.75 9.984375 L 17.296875 9.984375 L 19.667969 3.808594 L 16.964844 3.808594 L 14.59375 9.984375 L 12.136719 9.984375 L 14.511719 3.808594 L 11.808594 3.808594 L 9.433594 9.984375 L 6.980469 9.984375 L 9.351562 3.808594 L 6.648438 3.808594 L 4.277344 9.984375 L 4.277344 28.191406 L 4.71875 28.191406 L 7.089844 22.015625 L 9.542969 22.015625 L 7.171875 28.191406 L 9.875 28.191406 L 12.25 22.015625 L 14.703125 22.015625 L 12.332031 28.191406 L 15.035156 28.191406 L 17.40625 22.015625 L 19.863281 22.015625 L 17.488281 28.191406 L 20.191406 28.191406 L 22.566406 22.015625 L 25.019531 22.015625 L 22.648438 28.191406 L 25.351562 28.191406 L 27.722656 22.015625 L 27.722656 3.808594 L 27.28125 3.808594 L 24.910156 9.984375 L 22.457031 9.984375 L 24.828125 3.808594 Z M 22.125 3.808594 "/>

</g>%n%n</svg>