<svg width="300" height="40" viewBox="0 0 300 40" fill="none" xmlns="http://www.w3.org/2000/svg" xmlns:xlink="http://www.w3.org/1999/xlink" version="1.1">

<g transform="translate(130.000000, 0.000000) scale(2.000000 2.000000) "> 

<g clip-path="url(#clip0)">
<path opacity="0.949" d="M9.9994 1C14.9626 1 19 5.00181 19 10C19 14.9655 14.9626 19 9.9994 19C5.0374 19 1 14.9655 1 10C1 5.00181 5.0374 1 9.9994 1Z" fill="#45ABE9"/>
<path opacity="0.95" fill-rule="evenodd" clip-rule="evenodd" d="M10 19C14.9706 19 19 14.9706 19 10C19 5.02944 14.9706 1 10 1C5.02944 1 1 5.02944 1 10C1 14.9706 5.02944 19 10 19ZM10 20C15.5228 20 20 15.5228 20 10C20 4.47715 15.5228 0 10 0C4.47715 0 0 4.47715 0 10C0 15.5228 4.47715 20 10 20Z" fill="#1578B3"/>
</g>
<defs>
<clipPath id="clip0">
<path d="M0 0H20V20H0V0Z" fill="white"/>
</clipPath>
</defs>

</g>%n%n
<g transform="translate(138.000000, 8.000000) scale(2.000000 2.000000) "> 

<g id="surface1">
<path style=" stroke:none;fill-rule:evenodd;fill:rgb(100%,100%,100%);fill-opacity:1;" d="M 1 3 C 1 2.449219 1.449219 2 2 2 L 10 2 C 10.550781 2 11 2.449219 11 3 L 11 7 C 11 7.550781 10.550781 8 10 8 L 2 8 C 1.449219 8 1 7.550781 1 7 Z M 2.5 3 L 3 3 L 3 6.5 L 4.5 6.5 L 4.5 3 L 5 3 L 5 6.5 L 6.5 6.5 L 6.5 3 L 7 3 L 7 6.5 L 8.5 6.5 L 8.5 3 L 9 3 L 9 6.5 L 10 6.5 L 10 7 L 2 7 L 2 6.5 L 2.5 6.5 Z M 2.5 3 "/>
<path style=" stroke:none;fill-rule:nonzero;fill:rgb(100%,100%,100%);fill-opacity:1;" d="M 2 8 C 1.449219 8 1 8.449219 1 9 C 1 9.550781 1.449219 10 2 10 C 2.464844 10 2.859375 9.679688 2.96875 9.25 L 2 9.25 C 1.863281 9.25 1.75 9.136719 1.75 9 C 1.75 8.863281 1.863281 8.75 2 8.75 L 2.96875 8.75 C 2.859375 8.320312 2.464844 8 2 8 Z M 2 8 "/>
<path style=" stroke:none;fill-rule:nonzero;fill:rgb(100%,100%,100%);fill-opacity:1;" d="M 4 8 C 4.550781 8 5 8.449219 5 9 C 5 9.550781 4.550781 10 4 10 C 3.535156 10 3.140625 9.679688 3.03125 9.25 L 4 9.25 C 4.136719 9.25 4.25 9.136719 4.25 9 C 4.25 8.863281 4.136719 8.75 4 8.75 L 3.03125 8.75 C 3.140625 8.320312 3.535156 8 4 8 Z M 4 8 "/>
<path style=" stroke:none;fill-rule:nonzero;fill:rgb(100%,100%,100%);fill-opacity:1;" d="M 8 8 C 7.449219 8 7 8.449219 7 9 C 7 9.550781 7.449219 10 8 10 C 8.464844 10 8.859375 9.679688 8.96875 9.25 L 8 9.25 C 7.863281 9.25 7.75 9.136719 7.75 9 C 7.75 8.863281 7.863281 8.75 8 8.75 L 8.96875 8.75 C 8.859375 8.320312 8.464844 8 8 8 Z M 8 8 "/>
<path style=" stroke:none;fill-rule:nonzero;fill:rgb(100%,100%,100%);fill-opacity:1;" d="M 10 8 C 10.550781 8 11 8.449219 11 9 C 11 9.550781 10.550781 10 10 10 C 9.535156 10 9.140625 9.679688 9.03125 9.25 L 10 9.25 C 10.136719 9.25 10.25 9.136719 10.25 9 C 10.25 8.863281 10.136719 8.75 10 8.75 L 9.03125 8.75 C 9.140625 8.320312 9.535156 8 10 8 Z M 10 8 "/>
</g>

</g>%n%n</svg>