<svg width="300" height="35" viewBox="0 0 300 35" fill="none" xmlns="http://www.w3.org/2000/svg" >

<g transform="translate(135.000000, 2.000000) scale(1.875000 1.875000) "> 

<path opacity="0.812" d="M3.02198 1.46939C2.54409 1.46941 2.22168 1.68037 1.97727 1.92478C1.73286 2.16919 1.5219 2.4916 1.52188 2.96949V10.2021C1.5219 10.68 1.73285 11.0024 1.97727 11.2468C2.22168 11.4912 2.54409 11.7022 3.02198 11.7022H4.06669C4.45072 11.7022 4.66857 11.5288 4.92389 11.3272C4.92289 11.354 4.92289 11.3808 4.92389 11.4076C4.98268 12.108 5.29728 12.7987 5.83467 13.2559C6.33407 13.6807 6.43804 13.7532 7.0468 13.9488C7.29199 14.9381 9.22042 14.7632 9.18311 13.7649C9.64691 13.6534 10.0542 13.5774 10.4421 13.2023C10.908 12.7519 11.2126 12.0983 11.2457 11.4076C11.4428 11.536 11.6077 11.7024 11.9154 11.7022H13.1477C13.6019 11.7025 13.9719 11.4138 14.112 11.2736C14.361 11.0246 14.5408 10.7367 14.5406 10.2825V6.26435C14.5408 5.81003 14.361 5.5222 14.112 5.27321C14.0101 5.1713 13.7066 5.04039 13.4155 4.95176C13.4027 4.95662 13.5886 4.8921 13.5763 4.89819C13.5639 4.90428 13.7218 4.81056 13.7102 4.81783C13.6985 4.8251 13.855 4.7023 13.8441 4.71068C13.8332 4.71905 13.9881 4.59412 13.9781 4.60353C13.9681 4.61294 14.0943 4.45925 14.0852 4.46959C14.0762 4.47993 14.2004 4.32447 14.1924 4.33565C14.1844 4.34683 14.3064 4.18981 14.2995 4.20171C14.2926 4.21362 14.3855 4.02847 14.3799 4.04099C14.3742 4.05351 14.4378 3.89404 14.4335 3.90705C14.4291 3.92006 14.4901 3.73294 14.487 3.74633C14.4839 3.75971 14.5156 3.54519 14.5138 3.55881C14.512 3.57244 14.5143 3.38436 14.5138 3.39809C14.5134 3.41182 14.5129 3.22366 14.5138 3.23736C14.5148 3.25107 14.4848 3.0363 14.487 3.04985C14.4892 3.0634 14.4567 2.87586 14.4602 2.88913C14.4638 2.90239 14.4018 2.71555 14.4067 2.7284C14.4116 2.74125 14.347 2.55537 14.3531 2.56768C14.3592 2.57999 14.2655 2.42208 14.2727 2.43374C14.28 2.44539 14.1572 2.28892 14.1656 2.2998C14.174 2.31069 14.049 2.15585 14.0584 2.16586C14.0678 2.17587 13.9141 2.04967 13.9245 2.05871C13.9348 2.06775 13.7794 1.94358 13.7906 1.95156C13.8017 1.95954 13.6447 1.83756 13.6566 1.84441C13.6685 1.85126 13.4834 1.7584 13.4959 1.76405C13.5084 1.7697 13.3489 1.70608 13.362 1.71048C13.375 1.71487 13.1878 1.6538 13.2012 1.6569C13.2146 1.66 13.0001 1.62834 13.0137 1.63011C13.0273 1.63188 12.8393 1.62969 12.853 1.63011C12.8667 1.63054 12.6786 1.63103 12.6923 1.63011C12.706 1.62919 12.4912 1.65916 12.5048 1.6569C12.478 1.6559 12.4512 1.6559 12.4244 1.6569C12.4289 1.65572 12.4 1.675 12.3708 1.68369C12.3416 1.69237 12.3128 1.71194 12.3172 1.71047L5.56678 3.21057V2.96949C5.56678 2.6663 5.46995 2.25654 5.13819 1.92478C4.80643 1.59302 4.54458 1.46941 4.06669 1.46939H3.02198ZM10.7904 5.56788C10.6542 5.76899 10.4956 5.94628 10.4957 6.26435V7.38943C10.3651 7.20868 10.2425 7.01842 10.0671 6.88047C9.82205 6.68779 9.72891 6.65917 9.50456 6.5858C9.5016 6.58483 9.50752 6.55997 9.50456 6.55902C9.50844 6.57099 9.47322 6.46692 9.47777 6.47865C9.48232 6.49039 9.44578 6.38683 9.45098 6.39829C9.45618 6.40975 9.41836 6.30678 9.42419 6.31793C9.43003 6.32908 9.36416 6.22676 9.37062 6.23757C9.37707 6.24837 9.33678 6.17357 9.34383 6.18399C9.35088 6.19442 9.28263 6.09362 9.29026 6.10363C9.29789 6.11364 9.2285 6.04049 9.23668 6.05005C9.24486 6.05962 9.1744 5.98739 9.18311 5.99648C9.1898 6.00347 9.14597 5.95934 9.12953 5.9429C9.1246 5.93797 9.1274 5.91414 9.12953 5.91612L10.7904 5.56788ZM6.74544 6.47865C6.74123 6.48877 6.71718 6.50955 6.71866 6.50544C6.72478 6.48842 6.68714 6.63005 6.69187 6.61259C6.39171 6.7288 6.21587 6.68566 5.85476 6.99431C5.69957 7.14609 5.68361 7.17427 5.57349 7.36264L5.56679 6.71974L6.74544 6.47865ZM5.56679 9.90745C5.64034 10.0335 5.65952 10.1735 5.75431 10.2825C5.66073 10.3059 5.57036 10.3421 5.48643 10.3896C5.49316 10.3286 5.56679 10.2569 5.56679 10.2021V9.90745Z" fill="#EBE7E4"/>

</g>


<g transform="translate(141.000000, 8.000000) scale(0.031034 0.031034) "> 

<path d="M299.997 364.379C300.241 364.483 301.159 364.69 302.749 365.001C327.82 369.143 351.063 376.703 363.66 387.681C376.257 398.659 382.555 413.054 382.555 430.866C382.555 449.093 375.645 464.887 361.826 478.246C348.005 491.606 324.457 498.855 299.997 499.994L289.71 513.57H284.777V500.305C259.828 497.923 240.688 491.062 227.357 479.722C214.026 468.382 206.505 452.511 204.793 432.109L237.814 427.138C240.382 442.465 245.58 454.272 253.407 462.557C261.234 470.841 271.691 475.554 284.777 476.693V387.681C259.95 383.124 241.36 375.513 229.008 364.845C216.656 354.179 210.48 340.457 210.48 323.679C210.48 307.006 216.595 292.689 228.825 280.727C241.055 268.766 259.705 261.853 284.777 259.989V246.629H299.997V259.989C320.788 261.749 341.585 267.342 353.57 276.766C365.555 286.19 373.077 299.394 376.135 316.378L341.83 320.573C339.873 310.009 335.776 301.647 329.538 295.485C323.301 289.323 310.515 285.362 299.997 283.601V364.379ZM284.777 360.962V283.29C271.446 285.258 261.234 289.789 254.141 296.883C247.047 303.977 243.501 312.184 243.501 321.505C243.501 332.172 247.17 340.586 254.508 346.748C261.845 352.91 271.935 357.648 284.777 360.962ZM299.997 476.693C312.838 475.036 327.826 470.298 336.143 462.479C344.459 454.66 348.617 444.796 348.617 432.886C348.617 422.426 345.468 414.012 339.17 407.643C332.871 401.274 316.874 395.862 299.997 391.409V476.693Z" fill="#444444" stroke="#444444" stroke-width="3.67408" stroke-linecap="round" stroke-linejoin="round"/>
<path d="M294.278 249.04V515.269" stroke="#444444" stroke-width="33.9227" stroke-linecap="round" stroke-linejoin="round"/>
<path d="M121.789 176.829L491.317 94.4486" stroke="#444444" stroke-width="54.685" stroke-linecap="round"/>
<path opacity="0.75" d="M455.313 202.663C451.59 202.661 447.889 204.193 445.257 206.826C442.624 209.458 441.092 213.159 441.094 216.882V387.413C441.092 391.136 442.624 394.837 445.257 397.469C447.889 400.102 451.59 401.634 455.313 401.632H507.156C510.879 401.634 514.58 400.102 517.212 397.469C519.845 394.837 521.377 391.136 521.375 387.413V216.882C521.377 213.159 519.845 209.458 517.212 206.826C514.58 204.193 510.879 202.662 507.156 202.663H455.313Z" fill="#444444"/>
<path opacity="0.75" d="M78.8127 59.6632C74.174 59.6634 69.5616 61.5706 66.2815 64.8507C63.0014 68.1308 61.0942 72.7432 61.094 77.382V383.913C61.0942 388.552 63.0014 393.164 66.2815 396.444C69.5616 399.725 74.174 401.632 78.8127 401.632H123.656C128.295 401.632 132.908 399.725 136.188 396.444C139.468 393.164 141.375 388.552 141.375 383.913V229.444C118.96 236.327 92.0741 230.231 77.594 211.194C55.6333 184.926 66.8387 138.505 99.219 126.257C113.269 123.003 127.323 119.779 141.375 116.538V77.382C141.375 72.7432 139.468 68.1308 136.188 64.8507C132.908 61.5706 128.295 59.6634 123.656 59.6632H78.8127Z" fill="#444444"/>

</g>

</svg>