<svg width="300" height="35" viewBox="0 0 300 35" fill="none" xmlns="http://www.w3.org/2000/svg">

<g transform="translate(140.000000, 7.000000) scale(1.000000 1.000000) "> 

<g clip-path="url(#clip0)">
<path opacity="0.949" d="M9.9994 1C14.9626 1 19 5.00181 19 10C19 14.9655 14.9626 19 9.9994 19C5.0374 19 1 14.9655 1 10C1 5.00181 5.0374 1 9.9994 1Z" fill="#45ABE9"/>
<path opacity="0.95" fill-rule="evenodd" clip-rule="evenodd" d="M10 19C14.9706 19 19 14.9706 19 10C19 5.02944 14.9706 1 10 1C5.02944 1 1 5.02944 1 10C1 14.9706 5.02944 19 10 19ZM10 20C15.5228 20 20 15.5228 20 10C20 4.47715 15.5228 0 10 0C4.47715 0 0 4.47715 0 10C0 15.5228 4.47715 20 10 20Z" fill="#1578B3"/>
</g>
<defs>
<clipPath id="clip0">
<path d="M0 0H20V20H0V0Z" fill="white"/>
</clipPath>
</defs>

</g>


<g transform="translate(144.000000, 11.000000) scale(0.250000 0.250000) "> 

<g clip100-path="url(#clip1000)">
<path d="M31.9997 0H15.9997V4H31.9997V0Z" fill="#ffffff"/>
<path fill-rule="evenodd" clip100-rule="evenodd" d="M14.8284 7.99998C13.0174 7.99998 11.2806 8.7194 10 9.99998C8.71942 11.2806 8 13.0174 8 14.8284V36C8 38.2091 9.79086 40 12 40H36C38.2091 40 40 38.2091 40 36V14.8284C40 13.0174 39.2806 11.2806 38 9.99998C36.7194 8.7194 34.9826 7.99998 33.1716 7.99998H25.9997L27.9997 4.00002H23.9997L21.9997 7.99998H14.8284ZM36.0003 16H12.0003V28H36.0003V16ZM14.0003 36C15.1049 36 16.0003 35.1046 16.0003 34C16.0003 32.8955 15.1049 32 14.0003 32C12.8957 32 12.0003 32.8955 12.0003 34C12.0003 35.1046 12.8957 36 14.0003 36ZM36 34C36 35.1046 35.1046 36 34 36C32.8954 36 32 35.1046 32 34C32 32.8955 32.8954 32 34 32C35.1046 32 36 32.8955 36 34Z" fill="#ffffff"/>
<path opacity="0.5" d="M13.9997 36H17.9997L15.333 44H32.6667L30 36H34L38 48H9.99969L13.9997 36Z" fill="#ffffff"/>
</g>
<defs>
<clip100Path id="clip1000">
<path d="M0 0H48V48H0V0Z" fill="#ffffff"/>
</clip100Path>
</defs>

</g>

</svg>