<svg width="300" height="40" viewBox="0 0 300 40" fill="none" xmlns="http://www.w3.org/2000/svg" xmlns:xlink="http://www.w3.org/1999/xlink">

<g transform="translate(130.000000, 0.000000) scale(2.000000 2.000000) "> 

<g clip-path="url(#clip0)">
<path opacity="0.949" d="M9.9994 1C14.9626 1 19 5.00181 19 10C19 14.9655 14.9626 19 9.9994 19C5.0374 19 1 14.9655 1 10C1 5.00181 5.0374 1 9.9994 1Z" fill="#45ABE9"/>
<path opacity="0.95" fill-rule="evenodd" clip-rule="evenodd" d="M10 19C14.9706 19 19 14.9706 19 10C19 5.02944 14.9706 1 10 1C5.02944 1 1 5.02944 1 10C1 14.9706 5.02944 19 10 19ZM10 20C15.5228 20 20 15.5228 20 10C20 4.47715 15.5228 0 10 0C4.47715 0 0 4.47715 0 10C0 15.5228 4.47715 20 10 20Z" fill="#1578B3"/>
</g>
<defs>
<clipPath id="clip0">
<path d="M0 0H20V20H0V0Z" fill="white"/>
</clipPath>
</defs>

</g>%n%n
<g transform="translate(138.000000, 8.000000) scale(0.750000 0.750000) "> 

<defs>
<filter id="filter-remove-color" x="0%" y="0%" width="100%" height="100%">
<feColorMatrix color-interpolation-filters="sRGB" values="0 0 0 0 1 0 0 0 0 1 0 0 0 0 1 0 0 0 1 0" />
</filter>
<mask id="mask-0">
<g filter="url(#filter-remove-color)">
<rect x="-3.2" y="-3.2" width="38.4" height="38.4" fill="rgb(0%, 0%, 0%)" fill-opacity="0.5"/>
</g>
</mask>
<clip100Path id="clip100-0">
<rect x="0" y="0" width="32" height="32"/>
</clip100Path>
<g id="source-10" clip100-path="url(#clip100-0)">
<path fill-rule="nonzero" fill="rgb(100%, 100%, 100%)" fill-opacity="1" d="M 19.960938 6.34375 L 29.332031 4 L 29.332031 12 L 19.960938 9.65625 C 19.199219 9.464844 18.667969 8.785156 18.667969 8 C 18.667969 7.214844 19.199219 6.535156 19.960938 6.34375 Z M 19.960938 6.34375 "/>
<path fill-rule="nonzero" fill="rgb(100%, 100%, 100%)" fill-opacity="1" d="M 12.015625 6.414062 L 0 4.125 L 0 12 L 12.03125 9.59375 C 12.789062 9.441406 13.332031 8.777344 13.332031 8.007812 C 13.332031 7.230469 12.78125 6.5625 12.015625 6.414062 Z M 12.015625 6.414062 "/>
</g>
</defs>
<path fill-rule="nonzero" fill="rgb(100%, 100%, 100%)" fill-opacity="1" d="M 12 4 L 16 1.332031 L 20 4 L 20 5.332031 L 12 5.332031 Z M 12 4 "/>
<path fill-rule="nonzero" fill="rgb(100%, 100%, 100%)" fill-opacity="1" d="M 13.332031 12 L 12.667969 12 C 12.296875 12 12 11.703125 12 11.332031 C 12 10.964844 12.296875 10.667969 12.667969 10.667969 L 19.332031 10.667969 C 19.703125 10.667969 20 10.964844 20 11.332031 C 20 11.703125 19.703125 12 19.332031 12 L 18.667969 12 L 21.332031 26.667969 L 21.332031 29.332031 L 10.667969 29.332031 L 10.667969 26.667969 Z M 13.332031 12 "/>
<path fill-rule="nonzero" fill="rgb(100%, 100%, 100%)" fill-opacity="1" d="M 16 9.332031 C 16.738281 9.332031 17.332031 8.738281 17.332031 8 C 17.332031 7.261719 16.738281 6.667969 16 6.667969 C 15.261719 6.667969 14.667969 7.261719 14.667969 8 C 14.667969 8.738281 15.261719 9.332031 16 9.332031 Z M 16 9.332031 "/>
<g mask="url(#mask-0)">
<use xlink:href="#source-10"/>
</g>

</g>%n%n</svg>