<svg width="300" height="40" viewBox="0 0 300 40" fill="none" xmlns="http://www.w3.org/2000/svg" xmlns:xlink="http://www.w3.org/1999/xlink" version="1.1">

<g transform="translate(130.000000, 0.000000) scale(2.000000 2.000000) "> 

<g clip-path="url(#clip0)">
<path opacity="0.949" d="M9.9994 1C14.9626 1 19 5.00181 19 10C19 14.9655 14.9626 19 9.9994 19C5.0374 19 1 14.9655 1 10C1 5.00181 5.0374 1 9.9994 1Z" fill="#45ABE9"/>
<path opacity="0.95" fill-rule="evenodd" clip-rule="evenodd" d="M10 19C14.9706 19 19 14.9706 19 10C19 5.02944 14.9706 1 10 1C5.02944 1 1 5.02944 1 10C1 14.9706 5.02944 19 10 19ZM10 20C15.5228 20 20 15.5228 20 10C20 4.47715 15.5228 0 10 0C4.47715 0 0 4.47715 0 10C0 15.5228 4.47715 20 10 20Z" fill="#1578B3"/>
</g>
<defs>
<clipPath id="clip0">
<path d="M0 0H20V20H0V0Z" fill="white"/>
</clipPath>
</defs>

</g>%n%n
<g transform="translate(138.000000, 8.000000) scale(2.000000 2.000000) "> 

<g id="surface1">
<path style="fill-rule:nonzero;fill:rgb(100%,100%,100%);fill-opacity:1;stroke-width:18.074699;stroke-linecap:round;stroke-linejoin:round;stroke:rgb(100%,100%,100%);stroke-opacity:1;stroke-miterlimit:4;" d="M 45.3125 382.324219 L 45.3125 43.990885 L 169.921875 43.990885 C 191.822917 43.990885 208.626302 44.934896 220.143229 47.200521 C 236.380208 49.84375 249.973958 55.130208 260.924479 62.871094 C 271.875 70.800781 280.748698 81.5625 287.356771 95.533854 C 293.964844 109.69401 297.363281 124.986979 297.363281 141.790365 C 297.363281 170.488281 288.489583 194.84375 270.553385 214.856771 C 252.617188 234.68099 220.332031 244.6875 173.697917 244.6875 L 89.114583 244.6875 L 89.114583 382.324219 Z M 89.114583 204.85026 L 174.453125 204.85026 C 202.584635 204.85026 222.597656 199.375 234.492188 188.613281 C 246.386719 177.851562 252.239583 162.747396 252.239583 143.111979 C 252.239583 128.951823 248.841146 116.86849 241.855469 106.861979 C 234.869792 96.666667 225.61849 90.058594 214.290365 86.848958 C 206.927083 84.772135 193.333333 83.828125 173.509115 83.828125 L 89.114583 83.828125 Z M 89.114583 204.85026 " transform="matrix(0.0206897,0,0,0.0206897,0,0)"/>
<path style="fill:none;stroke-width:38.921101;stroke-linecap:butt;stroke-linejoin:round;stroke:rgb(100%,100%,100%);stroke-opacity:1;stroke-miterlimit:4;" d="M 295.097656 277.161458 L 546.959635 277.161458 " transform="matrix(0.0206897,0,0,0.0206897,0,0)"/>
<path style=" stroke:none;fill-rule:nonzero;fill:rgb(100%,100%,100%);fill-opacity:1;" d="M 7.644531 6.984375 C 7.3125 6.984375 7.136719 7.167969 7.054688 7.378906 L 6.621094 8.5 C 6.449219 8.519531 6.144531 8.722656 6.144531 9.101562 L 6.144531 10.523438 L 6.566406 10.523438 L 6.566406 10.980469 C 6.566406 11.539062 7.359375 11.53125 7.359375 10.980469 L 7.359375 10.523438 L 10.207031 10.523438 L 10.207031 10.980469 C 10.207031 11.53125 11 11.539062 11 10.980469 L 11 10.523438 L 11.417969 10.523438 L 11.417969 9.101562 C 11.417969 8.722656 11.117188 8.519531 10.945312 8.5 L 10.511719 7.378906 C 10.429688 7.167969 10.25 6.984375 9.917969 6.984375 Z M 7.640625 7.394531 L 9.925781 7.394531 C 10.066406 7.394531 10.128906 7.484375 10.167969 7.605469 L 10.496094 8.488281 L 7.070312 8.488281 L 7.394531 7.605469 C 7.4375 7.484375 7.496094 7.394531 7.640625 7.394531 Z M 6.976562 8.914062 C 7.175781 8.914062 7.339844 9.082031 7.339844 9.292969 C 7.339844 9.5 7.175781 9.667969 6.976562 9.667969 C 6.773438 9.667969 6.609375 9.5 6.609375 9.292969 C 6.609375 9.082031 6.773438 8.914062 6.976562 8.914062 Z M 10.589844 8.914062 C 10.792969 8.914062 10.957031 9.082031 10.957031 9.292969 C 10.957031 9.5 10.792969 9.667969 10.589844 9.667969 C 10.386719 9.667969 10.222656 9.5 10.222656 9.292969 C 10.222656 9.082031 10.386719 8.914062 10.589844 8.914062 Z M 10.589844 8.914062 "/>
</g>

</g>%n%n</svg>