<svg width="40" height="40" viewBox="0 0 40 40" fill="none" xmlns="http://www.w3.org/2000/svg" >

<g transform="translate(0.000000, 0.000000) scale(2.000000 2.000000) "> 

<g clip-path="url(#clip0)">
<path opacity="0.953" d="M9.99934 0C15.514 0 20 4.44646 20 10C20 15.5172 15.514 20 9.99934 20C4.48599 20 0 15.5172 0 10C0 4.44646 4.48599 0 9.99934 0V0Z" fill="#878787"/>
<path opacity="0.95" fill-rule="evenodd" clip-rule="evenodd" d="M10 19C14.9706 19 19 14.9706 19 10C19 5.02944 14.9706 1 10 1C5.02944 1 1 5.02944 1 10C1 14.9706 5.02944 19 10 19ZM10 20C15.5228 20 20 15.5228 20 10C20 4.47715 15.5228 0 10 0C4.47715 0 0 4.47715 0 10C0 15.5228 4.47715 20 10 20Z" fill="#404040"/>
</g>
<defs>
<clipPath id="clip0">
<path d="M0 0H20V20H0V0Z" fill="white"/>
</clipPath>
</defs>

</g>


<g transform="translate(8.000000, 8.000000) scale(2.000000 2.000000) "> 

<path d="M216.461 495.65H363.539" stroke="#ffffff" stroke-width="35" stroke-linecap="round"/>
<path d="M309.776 166.138H270.224C254.2 166.138 241.21 179.128 241.21 195.153V476.534C241.21 492.559 254.2 505.549 270.224 505.549H309.776C325.8 505.549 338.79 492.559 338.79 476.534V195.153C338.79 179.128 325.8 166.138 309.776 166.138Z" fill="#ffffff"/>
<path d="M290 171.795V69.9714" stroke="#ffffff" stroke-width="35" stroke-linecap="round"/>
<path d="M218.012 68.5573H361.988" stroke="#ffffff" stroke-width="32" stroke-linecap="round"/>
<path d="M318 408C318 408 337 334 417 351C497 368 536 331 536 331" stroke="#ffffff" stroke-width="32" stroke-linecap="round"/>
<path d="M476 343L531 315" stroke="#ffffff" stroke-width="32" stroke-linecap="round"/>

</g>

</svg>