<svg width="300" height="40" viewBox="0 0 300 40" fill="none" xmlns="http://www.w3.org/2000/svg" xmlns:xlink="http://www.w3.org/1999/xlink">

<g transform="translate(130.000000, 0.000000) scale(2.000000 2.000000) "> 

<g clip-path="url(#clip0)">
<path opacity="0.949" d="M9.9994 1C14.9626 1 19 5.00181 19 10C19 14.9655 14.9626 19 9.9994 19C5.0374 19 1 14.9655 1 10C1 5.00181 5.0374 1 9.9994 1Z" fill="#45ABE9"/>
<path opacity="0.95" fill-rule="evenodd" clip-rule="evenodd" d="M10 19C14.9706 19 19 14.9706 19 10C19 5.02944 14.9706 1 10 1C5.02944 1 1 5.02944 1 10C1 14.9706 5.02944 19 10 19ZM10 20C15.5228 20 20 15.5228 20 10C20 4.47715 15.5228 0 10 0C4.47715 0 0 4.47715 0 10C0 15.5228 4.47715 20 10 20Z" fill="#1578B3"/>
</g>
<defs>
<clipPath id="clip0">
<path d="M0 0H20V20H0V0Z" fill="white"/>
</clipPath>
</defs>

</g>%n%n
<g transform="translate(138.000000, 8.000000) scale(0.750000 0.750000) "> 

<path fill-rule="evenodd" fill="rgb(100%, 100%, 100%)" fill-opacity="0.25" d="M 10.667969 2.667969 L 5.332031 2.667969 L 5.332031 29.332031 L 10.667969 29.332031 L 10.667969 21.332031 L 17.332031 21.332031 C 22.488281 21.332031 26.667969 17.15625 26.667969 12 C 26.667969 6.84375 22.488281 2.667969 17.332031 2.667969 Z M 10.667969 8 L 10.667969 16 L 17.332031 16 C 19.542969 16 21.332031 14.210938 21.332031 12 C 21.332031 9.789062 19.542969 8 17.332031 8 Z M 10.667969 8 "/>
<path fill-rule="evenodd" fill="rgb(100%, 100%, 100%)" fill-opacity="0.25" d="M 10.667969 21.332031 L 17.332031 21.332031 C 22.488281 21.332031 26.667969 17.15625 26.667969 12 C 26.667969 6.84375 22.488281 2.667969 17.332031 2.667969 L 5.332031 2.667969 L 5.332031 29.332031 L 10.667969 29.332031 Z M 9.332031 28 L 9.332031 20 L 17.332031 20 C 21.75 20 25.332031 16.417969 25.332031 12 C 25.332031 7.582031 21.75 4 17.332031 4 L 6.667969 4 L 6.667969 28 Z M 9.332031 6.667969 L 17.332031 6.667969 C 20.277344 6.667969 22.667969 9.054688 22.667969 12 C 22.667969 14.945312 20.277344 17.332031 17.332031 17.332031 L 9.332031 17.332031 Z M 10.667969 16 L 10.667969 8 L 17.332031 8 C 19.542969 8 21.332031 9.789062 21.332031 12 C 21.332031 14.210938 19.542969 16 17.332031 16 Z M 10.667969 16 "/>

</g>%n%n</svg>