<svg width="300" height="40" viewBox="0 0 300 40" fill="none" xmlns="http://www.w3.org/2000/svg" xmlns:xlink="http://www.w3.org/1999/xlink">

<g transform="translate(130.000000, 0.000000) scale(2.222222 2.222222) "> 

<path d="M5 6C5 4.34315 6.34315 3 8 3C9.65685 3 11 4.34315 11 6V12C11 13.6569 9.65685 15 8 15C6.34315 15 5 13.6569 5 12V6Z" fill="#EBE7E4" fill-opacity="0.8"/>

</g>%n%n
<g transform="translate(139.000000, 9.000000) scale(1.833333 1.833333) "> 

<path fill-rule="nonzero" fill="rgb(0%, 0%, 0%)" fill-opacity="1" d="M 6 1 C 7.105469 1 8 1.894531 8 3 L 8 9 C 8 10.105469 7.105469 11 6 11 C 4.894531 11 4 10.105469 4 9 L 4 3 C 4 1.894531 4.894531 1 6 1 Z M 6 1 "/>
<path fill-rule="nonzero" fill="rgb(100%, 0%, 0%)" fill-opacity="1" d="M 7 3 C 7 3.550781 6.550781 4 6 4 C 5.449219 4 5 3.550781 5 3 C 5 2.449219 5.449219 2 6 2 C 6.550781 2 7 2.449219 7 3 Z M 7 3 "/>
<path fill-rule="nonzero" fill="rgb(100%, 91.372549%, 0%)" fill-opacity="1" d="M 7 6 C 7 6.550781 6.550781 7 6 7 C 5.449219 7 5 6.550781 5 6 C 5 5.449219 5.449219 5 6 5 C 6.550781 5 7 5.449219 7 6 Z M 7 6 "/>
<path fill-rule="nonzero" fill="rgb(0%, 89.019608%, 8.627451%)" fill-opacity="1" d="M 7 9 C 7 9.550781 6.550781 10 6 10 C 5.449219 10 5 9.550781 5 9 C 5 8.449219 5.449219 8 6 8 C 6.550781 8 7 8.449219 7 9 Z M 7 9 "/>

</g>%n%n</svg>