<svg width="300" height="40" viewBox="0 0 300 40" fill="none" xmlns="http://www.w3.org/2000/svg" >

<g transform="translate(130.000000, 0.000000) scale(2.000000 2.000000) "> 

<g clip-path="url(#clip0)">
<path opacity="0.949" d="M9.9994 1C14.9626 1 19 5.00181 19 10C19 14.9655 14.9626 19 9.9994 19C5.0374 19 1 14.9655 1 10C1 5.00181 5.0374 1 9.9994 1Z" fill="#45ABE9"/>
<path opacity="0.95" fill-rule="evenodd" clip-rule="evenodd" d="M10 19C14.9706 19 19 14.9706 19 10C19 5.02944 14.9706 1 10 1C5.02944 1 1 5.02944 1 10C1 14.9706 5.02944 19 10 19ZM10 20C15.5228 20 20 15.5228 20 10C20 4.47715 15.5228 0 10 0C4.47715 0 0 4.47715 0 10C0 15.5228 4.47715 20 10 20Z" fill="#1578B3"/>
</g>
<defs>
<clipPath id="clip0">
<path d="M0 0H20V20H0V0Z" fill="white"/>
</clipPath>
</defs>

</g>%n%n
<g transform="translate(138.000000, 8.000000) scale(0.500000 0.500000) "> 

<path fill-rule="evenodd" clip100-rule="evenodd" d="M12 24C12 21.7909 13.7909 20 16 20H24C26.2091 20 28 21.7909 28 24V32V40H30C31.1046 40 32 39.1046 32 38V36C29.7909 36 28 34.2091 28 32C28 29.7909 29.7909 28 32 28L28 20H32L36 28V38C36 41.3137 33.3137 44 30 44H14C12.8954 44 12 43.1046 12 42V24ZM16 24H24V32H16V24Z" fill="#ffffff"/>
<path opacity="0.5" d="M18 16L27.8096 8L20 8L14 16L18 16Z" fill="#ffffff"/>
<path d="M18 0L25.3572 6L38 6C39.1046 6 40 6.89543 40 8C40 9.10457 39.1046 10 38 10L12 10L10 12H8L10 8L8.00002 4H10L12 6L18.5 6L14 0H18Z" fill="#ffffff"/>

</g>%n%n</svg>