<svg width="300" height="40" viewBox="0 0 300 40" fill="none" xmlns="http://www.w3.org/2000/svg" >

<g transform="translate(130.000000, 0.000000) scale(2.500000 2.500000) "> 

<path opacity="0.804" d="M7.93425 1.47031C6.59 1.44205 5.26031 2.08878 4.47445 3.28809C3.27694 5.11561 3.76648 7.59051 5.5708 8.82344C6.4536 9.42667 7.47475 9.50246 8.45648 9.34232V13.6441C8.45648 14.1814 8.94523 14.6701 9.48254 14.6701C10.0199 14.6701 10.5103 14.1814 10.5103 13.6441V8.43678C10.7243 8.24945 10.95 8.08409 11.1279 7.8342C12.3947 6.05533 11.9991 3.5646 10.2475 2.26203C10.2038 2.2292 10.1498 2.21585 10.1019 2.19006C10.0602 2.15489 10.028 2.10987 9.98134 2.08126C9.52003 1.79247 9.02015 1.60677 8.51172 1.5222C8.3189 1.49013 8.12512 1.47432 7.93425 1.47031Z" fill="#EBE7E4"/>

</g>%n%n
<g transform="translate(139.000000, 9.000000) scale(0.037931 0.037931) "> 

<g clip100-path="url(#clip1000)">
<path d="M354.789 527.921V303.331" stroke="#3f3f3f" stroke-width="25" stroke-linecap="round" stroke-linejoin="round"/>
<path d="M298.236 58.849C331.105 62.2624 361.276 78.5818 382.123 104.223C402.97 129.865 412.787 162.732 409.42 195.606C406.052 228.48 389.775 258.674 364.162 279.557C338.55 300.439 305.697 310.302 272.818 306.981C239.939 303.659 209.722 287.424 188.804 261.84C167.886 236.257 157.977 203.418 161.253 170.534C164.529 137.651 180.722 107.411 206.276 86.4578C231.83 65.5041 264.655 55.5491 297.544 58.7791" fill="#3f3f3f" fill-opacity="0.425121"/>
<path d="M298.236 58.849C331.105 62.2624 361.276 78.5818 382.123 104.223C402.97 129.865 412.787 162.732 409.42 195.606C406.052 228.48 389.775 258.674 364.162 279.557C338.55 300.439 305.697 310.302 272.818 306.981C239.939 303.659 209.722 287.424 188.804 261.84C167.886 236.257 157.977 203.418 161.253 170.534C164.529 137.651 180.722 107.411 206.276 86.4578C231.83 65.5041 264.655 55.5491 297.544 58.7791" stroke="#3f3f3f" stroke-width="30" stroke-linecap="round" stroke-linejoin="round"/>
</g>
<defs>
<clip100Path id="clip1000">
<path d="M0 0H580V580H0V0Z" fill="#3f3f3f"/>
</clip100Path>
</defs>

</g>%n%n</svg>