<svg width="300" height="40" viewBox="0 0 300 40" fill="none" xmlns="http://www.w3.org/2000/svg" xmlns:xlink="http://www.w3.org/1999/xlink" version="1.1">

<g transform="translate(130.000000, 0.000000) scale(2.000000 2.000000) "> 

<g clip-path="url(#clip0)">
<path opacity="0.949" d="M9.9994 1C14.9626 1 19 5.00181 19 10C19 14.9655 14.9626 19 9.9994 19C5.0374 19 1 14.9655 1 10C1 5.00181 5.0374 1 9.9994 1Z" fill="#45ABE9"/>
<path opacity="0.95" fill-rule="evenodd" clip-rule="evenodd" d="M10 19C14.9706 19 19 14.9706 19 10C19 5.02944 14.9706 1 10 1C5.02944 1 1 5.02944 1 10C1 14.9706 5.02944 19 10 19ZM10 20C15.5228 20 20 15.5228 20 10C20 4.47715 15.5228 0 10 0C4.47715 0 0 4.47715 0 10C0 15.5228 4.47715 20 10 20Z" fill="#1578B3"/>
</g>
<defs>
<clipPath id="clip0">
<path d="M0 0H20V20H0V0Z" fill="white"/>
</clipPath>
</defs>

</g>%n%n
<g transform="translate(138.000000, 8.000000) scale(2.000000 2.000000) "> 

<g id="surface1">
<path style=" stroke:none;fill-rule:evenodd;fill:rgb(100%,100%,100%);fill-opacity:1;" d="M 1 2 C 1 1.449219 1.449219 1 2 1 L 6 1 C 6.550781 1 7 1.449219 7 2 L 7 6 C 8.105469 6 9 6.894531 9 8 L 9 9.5 C 9 9.777344 9.222656 10 9.5 10 C 9.777344 10 10 9.777344 10 9.5 L 10 5.914062 C 9.84375 5.96875 9.675781 6 9.5 6 C 8.671875 6 8 5.328125 8 4.5 C 8 3.726562 8.585938 3.089844 9.339844 3.007812 L 8 1 L 9 1 L 11 4 L 11 9.5 C 11 10.328125 10.328125 11 9.5 11 C 8.671875 11 8 10.328125 8 9.5 L 8 8 C 8 7.449219 7.550781 7 7 7 L 7 11 L 1 11 Z M 2 2 L 6 2 L 6 5 L 2 5 Z M 10 4.5 C 10 4.222656 9.777344 4 9.5 4 C 9.222656 4 9 4.222656 9 4.5 C 9 4.777344 9.222656 5 9.5 5 C 9.777344 5 10 4.777344 10 4.5 Z M 10 4.5 "/>
</g>

</g>%n%n</svg>