<svg width="300" height="35" viewBox="0 0 300 35" fill="none" xmlns="http://www.w3.org/2000/svg">

<g transform="translate(135.000000, 2.000000) scale(1.500000 1.500000) "> 

<g clip-path="url(#clip0)">
<path opacity="0.949" d="M9.9994 1C14.9626 1 19 5.00181 19 10C19 14.9655 14.9626 19 9.9994 19C5.0374 19 1 14.9655 1 10C1 5.00181 5.0374 1 9.9994 1Z" fill="#45ABE9"/>
<path opacity="0.95" fill-rule="evenodd" clip-rule="evenodd" d="M10 19C14.9706 19 19 14.9706 19 10C19 5.02944 14.9706 1 10 1C5.02944 1 1 5.02944 1 10C1 14.9706 5.02944 19 10 19ZM10 20C15.5228 20 20 15.5228 20 10C20 4.47715 15.5228 0 10 0C4.47715 0 0 4.47715 0 10C0 15.5228 4.47715 20 10 20Z" fill="#1578B3"/>
</g>
<defs>
<clipPath id="clip0">
<path d="M0 0H20V20H0V0Z" fill="white"/>
</clipPath>
</defs>

</g>


<g transform="translate(141.000000, 8.000000) scale(0.375000 0.375000) "> 

<path d="M16.0005 29.9996C16.0005 31.1041 15.1051 31.9996 14.0005 31.9996C12.8959 31.9996 12.0005 31.1041 12.0005 29.9996C12.0005 28.895 12.8959 27.9996 14.0005 27.9996C15.1051 27.9996 16.0005 28.895 16.0005 29.9996Z" fill="#ffffff"/>
<path d="M20.0006 16.979C20.5529 16.979 21.0006 16.5313 21.0006 15.979C21.0006 15.4267 20.5529 14.979 20.0006 14.979C19.4483 14.979 19.0006 15.4267 19.0006 15.979C19.0006 16.5313 19.4483 16.979 20.0006 16.979Z" fill="#ffffff"/>
<path fill-rule="evenodd" clip100-rule="evenodd" d="M8 10C5.79086 10 4 11.7909 4 14V36C4 38.2091 5.79086 40 8 40H24C26.2091 40 28 38.2091 28 36V14C28 11.7909 26.2091 10 24 10H8ZM20.0005 29.9996C20.0005 33.3133 17.3142 35.9996 14.0005 35.9996C10.6868 35.9996 8.00052 33.3133 8.00052 29.9996C8.00052 26.6859 10.6868 23.9996 14.0005 23.9996C17.3142 23.9996 20.0005 26.6859 20.0005 29.9996ZM20 19.9995C22.2092 19.9995 24 18.2087 24 15.9995C24 13.7904 22.2092 11.9995 20 11.9995C17.7909 11.9995 16 13.7904 16 15.9995C16 18.2087 17.7909 19.9995 20 19.9995Z" fill="#ffffff"/>
<path d="M30 16H34V32H30V16Z" fill="#ffffff"/>
<path d="M39.9992 19.9996H36.0006V35.9996H30.0006V39.9996H39.9992V31.9996H44.0006V23.9996H39.9992V19.9996Z" fill="#ffffff"/>

</g>

</svg>