<svg width="300" height="40" viewBox="0 0 300 40" fill="none" xmlns="http://www.w3.org/2000/svg" xmlns:xlink="http://www.w3.org/1999/xlink" version="1.1">

<g transform="translate(130.000000, 0.000000) scale(2.222222 2.222222) "> 

<g clip-path="url(#clip0)">
<path opacity="0.95" fill-rule="evenodd" clip-rule="evenodd" d="M13 1H5C2.79086 1 1 2.79086 1 5V13C1 15.2091 2.79086 17 5 17H13C15.2091 17 17 15.2091 17 13V5C17 2.79086 15.2091 1 13 1ZM5 0C2.23858 0 0 2.23858 0 5V13C0 15.7614 2.23858 18 5 18H13C15.7614 18 18 15.7614 18 13V5C18 2.23858 15.7614 0 13 0H5Z" fill="#1578B3"/>
<rect opacity="0.95" x="1" y="1" width="16" height="16" rx="4" fill="#45ABE9"/>
</g>
<defs>
<clipPath id="clip0">
<path d="M0 0H18V18H0V0Z" fill="white"/>
</clipPath>
</defs>

</g>%n%n
<g transform="translate(138.000000, 8.000000) scale(2.000000 2.000000) "> 

<g id="surface1">
<path style=" stroke:none;fill-rule:evenodd;fill:rgb(100%,100%,100%);fill-opacity:1;" d="M 3.621094 1 C 3.222656 1 2.84375 1.15625 2.5625 1.4375 L 2.4375 1.5625 C 2.15625 1.84375 2 2.222656 2 2.621094 L 2 9.75 C 2 9.886719 2.113281 10 2.25 10 L 2.5 10 L 2.5 10.25 C 2.5 10.664062 2.835938 11 3.25 11 C 3.664062 11 4 10.664062 4 10.25 L 4 10 L 8 10 L 8 10.25 C 8 10.664062 8.335938 11 8.75 11 C 9.164062 11 9.5 10.664062 9.5 10.25 L 9.5 10 L 9.75 10 C 9.886719 10 10 9.886719 10 9.75 L 10 2.621094 C 10 2.222656 9.84375 1.84375 9.5625 1.5625 L 9.4375 1.4375 C 9.15625 1.15625 8.777344 1 8.378906 1 Z M 4 2.5 C 4 2.222656 4.222656 2 4.5 2 L 7.5 2 C 7.777344 2 8 2.222656 8 2.5 C 8 2.777344 7.777344 3 7.5 3 L 4.5 3 C 4.222656 3 4 2.777344 4 2.5 Z M 3 4 L 9 4 L 9 7 L 3 7 Z M 4 8.5 C 4 8.777344 3.777344 9 3.5 9 C 3.222656 9 3 8.777344 3 8.5 C 3 8.222656 3.222656 8 3.5 8 C 3.777344 8 4 8.222656 4 8.5 Z M 8.5 9 C 8.777344 9 9 8.777344 9 8.5 C 9 8.222656 8.777344 8 8.5 8 C 8.222656 8 8 8.222656 8 8.5 C 8 8.777344 8.222656 9 8.5 9 Z M 8.5 9 "/>
<path style=" stroke:none;fill-rule:evenodd;fill:rgb(100%,100%,100%);fill-opacity:1;" d="M 3.707031 1 C 3.253906 1 2.820312 1.179688 2.5 1.5 C 2.179688 1.820312 2 2.253906 2 2.707031 L 2 9 C 2 9.371094 2.199219 9.691406 2.5 9.867188 L 2.5 10.25 C 2.5 10.664062 2.835938 11 3.25 11 C 3.664062 11 4 10.664062 4 10.25 L 4 10 L 8 10 L 8 10.25 C 8 10.664062 8.335938 11 8.75 11 C 9.164062 11 9.5 10.664062 9.5 10.25 L 9.5 9.867188 C 9.800781 9.691406 10 9.371094 10 9 L 10 2.707031 C 10 2.253906 9.820312 1.820312 9.5 1.5 C 9.179688 1.179688 8.746094 1 8.292969 1 Z M 4 2.5 C 4 2.222656 4.222656 2 4.5 2 L 7.5 2 C 7.777344 2 8 2.222656 8 2.5 C 8 2.777344 7.777344 3 7.5 3 L 4.5 3 C 4.222656 3 4 2.777344 4 2.5 Z M 3 4 L 9 4 L 9 7 L 3 7 Z M 4 8.5 C 4 8.777344 3.777344 9 3.5 9 C 3.222656 9 3 8.777344 3 8.5 C 3 8.222656 3.222656 8 3.5 8 C 3.777344 8 4 8.222656 4 8.5 Z M 8.5 9 C 8.777344 9 9 8.777344 9 8.5 C 9 8.222656 8.777344 8 8.5 8 C 8.222656 8 8 8.222656 8 8.5 C 8 8.777344 8.222656 9 8.5 9 Z M 8.5 9 "/>
</g>

</g>%n%n</svg>