<svg width="300" height="40" viewBox="0 0 300 40" fill="none" xmlns="http://www.w3.org/2000/svg" xmlns:xlink="http://www.w3.org/1999/xlink">

<g transform="translate(130.000000, 0.000000) scale(2.000000 2.000000) "> 

<g clip-path="url(#clip0)">
<path opacity="0.949" d="M9.9994 1C14.9626 1 19 5.00181 19 10C19 14.9655 14.9626 19 9.9994 19C5.0374 19 1 14.9655 1 10C1 5.00181 5.0374 1 9.9994 1Z" fill="#45ABE9"/>
<path opacity="0.95" fill-rule="evenodd" clip-rule="evenodd" d="M10 19C14.9706 19 19 14.9706 19 10C19 5.02944 14.9706 1 10 1C5.02944 1 1 5.02944 1 10C1 14.9706 5.02944 19 10 19ZM10 20C15.5228 20 20 15.5228 20 10C20 4.47715 15.5228 0 10 0C4.47715 0 0 4.47715 0 10C0 15.5228 4.47715 20 10 20Z" fill="#1578B3"/>
</g>
<defs>
<clipPath id="clip0">
<path d="M0 0H20V20H0V0Z" fill="white"/>
</clipPath>
</defs>

</g>%n%n
<g transform="translate(138.000000, 8.000000) scale(0.750000 0.750000) "> 

<path fill-rule="evenodd" fill="rgb(100%, 100%, 100%)" fill-opacity="1" d="M 2.667969 5.332031 C 2.667969 3.859375 3.859375 2.667969 5.332031 2.667969 L 16 2.667969 C 17.472656 2.667969 18.667969 3.859375 18.667969 5.332031 L 18.667969 16 C 21.613281 16 24 18.386719 24 21.332031 L 24 25.332031 C 24 26.070312 24.597656 26.667969 25.332031 26.667969 C 26.070312 26.667969 26.667969 26.070312 26.667969 25.332031 L 26.667969 15.773438 C 26.25 15.917969 25.800781 16 25.332031 16 C 23.125 16 21.332031 14.210938 21.332031 12 C 21.332031 9.9375 22.898438 8.238281 24.902344 8.023438 L 21.332031 2.667969 L 24 2.667969 L 29.332031 10.667969 L 29.332031 25.332031 C 29.332031 27.542969 27.542969 29.332031 25.332031 29.332031 C 23.125 29.332031 21.332031 27.542969 21.332031 25.332031 L 21.332031 21.332031 C 21.332031 19.859375 20.140625 18.667969 18.667969 18.667969 L 18.667969 29.332031 L 2.667969 29.332031 Z M 5.332031 5.332031 L 16 5.332031 L 16 13.332031 L 5.332031 13.332031 Z M 26.667969 12 C 26.667969 11.261719 26.070312 10.667969 25.332031 10.667969 C 24.597656 10.667969 24 11.261719 24 12 C 24 12.738281 24.597656 13.332031 25.332031 13.332031 C 26.070312 13.332031 26.667969 12.738281 26.667969 12 Z M 26.667969 12 "/>

</g>%n%n</svg>