<svg width="300" height="40" viewBox="0 0 300 40" fill="none" xmlns="http://www.w3.org/2000/svg" xmlns:xlink="http://www.w3.org/1999/xlink">

<g transform="translate(130.000000, 0.000000) scale(2.000000 2.000000) "> 

<g clip-path="url(#clip0)">
<path opacity="0.949" d="M9.9994 1C14.9626 1 19 5.00181 19 10C19 14.9655 14.9626 19 9.9994 19C5.0374 19 1 14.9655 1 10C1 5.00181 5.0374 1 9.9994 1Z" fill="#45ABE9"/>
<path opacity="0.95" fill-rule="evenodd" clip-rule="evenodd" d="M10 19C14.9706 19 19 14.9706 19 10C19 5.02944 14.9706 1 10 1C5.02944 1 1 5.02944 1 10C1 14.9706 5.02944 19 10 19ZM10 20C15.5228 20 20 15.5228 20 10C20 4.47715 15.5228 0 10 0C4.47715 0 0 4.47715 0 10C0 15.5228 4.47715 20 10 20Z" fill="#1578B3"/>
</g>
<defs>
<clipPath id="clip0">
<path d="M0 0H20V20H0V0Z" fill="white"/>
</clipPath>
</defs>

</g>%n%n
<g transform="translate(138.000000, 8.000000) scale(0.750000 0.750000) "> 

<path fill-rule="nonzero" fill="rgb(100%, 100%, 100%)" fill-opacity="1" stroke-width="18.074699" stroke-linecap="round" stroke-linejoin="round" stroke="rgb(100%, 100%, 100%)" stroke-opacity="1" stroke-miterlimit="4" d="M 45.383301 382.324219 L 45.383301 43.896484 L 169.921875 43.896484 C 191.799316 43.896484 208.579102 44.958496 220.119629 47.15332 C 236.333008 49.914551 249.926758 55.153809 260.900879 62.941895 C 271.804199 70.72998 280.654297 81.633301 287.30957 95.581055 C 294.035645 109.599609 297.363281 125.03418 297.363281 141.743164 C 297.363281 170.559082 288.442383 194.914551 270.529785 214.80957 C 252.687988 234.775391 220.402832 244.758301 173.745117 244.758301 L 89.067383 244.758301 L 89.067383 382.324219 Z M 89.067383 204.82666 L 174.382324 204.82666 C 202.631836 204.82666 222.668457 199.445801 234.562988 188.613281 C 246.386719 177.851562 252.333984 162.700195 252.333984 143.15918 C 252.333984 128.999023 248.793945 116.89209 241.855469 106.838379 C 234.846191 96.713867 225.64209 90.058594 214.243164 86.801758 C 206.879883 84.819336 193.286133 83.828125 173.461914 83.828125 L 89.067383 83.828125 Z M 89.067383 204.82666 " transform="matrix(0.0551724, 0, 0, 0.0551724, 0, 0)"/>
<path fill="none" stroke-width="38.921101" stroke-linecap="butt" stroke-linejoin="round" stroke="rgb(100%, 100%, 100%)" stroke-opacity="1" stroke-miterlimit="4" d="M 295.168457 277.185059 L 546.865234 277.185059 " transform="matrix(0.0551724, 0, 0, 0.0551724, 0, 0)"/>
<path fill-rule="nonzero" fill="rgb(100%, 100%, 100%)" fill-opacity="1" d="M 20.386719 18.628906 C 19.5 18.628906 19.027344 19.113281 18.808594 19.679688 L 17.65625 22.660156 C 17.199219 22.71875 16.386719 23.257812 16.386719 24.277344 L 16.386719 28.066406 L 17.511719 28.066406 L 17.511719 29.28125 C 17.511719 30.769531 19.621094 30.753906 19.621094 29.28125 L 19.621094 28.066406 L 27.21875 28.066406 L 27.21875 29.28125 C 27.21875 30.753906 29.328125 30.769531 29.328125 29.28125 L 29.328125 28.066406 L 30.453125 28.066406 L 30.453125 24.277344 C 30.453125 23.257812 29.640625 22.71875 29.183594 22.660156 L 28.027344 19.679688 C 27.808594 19.113281 27.339844 18.628906 26.449219 18.628906 Z M 20.375 19.714844 L 26.464844 19.714844 C 26.84375 19.71875 27.007812 19.957031 27.117188 20.285156 L 27.988281 22.632812 L 18.851562 22.632812 L 19.722656 20.285156 C 19.828125 19.957031 19.992188 19.71875 20.375 19.714844 Z M 18.597656 23.773438 C 19.136719 23.773438 19.574219 24.222656 19.574219 24.777344 C 19.574219 25.332031 19.136719 25.78125 18.597656 25.78125 C 18.0625 25.78125 17.625 25.332031 17.625 24.777344 C 17.625 24.222656 18.0625 23.773438 18.597656 23.773438 Z M 28.238281 23.773438 C 28.777344 23.773438 29.214844 24.222656 29.214844 24.777344 C 29.214844 25.332031 28.777344 25.78125 28.238281 25.78125 C 27.699219 25.78125 27.261719 25.332031 27.261719 24.777344 C 27.261719 24.222656 27.699219 23.773438 28.238281 23.773438 Z M 28.238281 23.773438 "/>

</g>%n%n</svg>