<svg width="300" height="40" viewBox="0 0 300 40" fill="none" xmlns="http://www.w3.org/2000/svg" xmlns:xlink="http://www.w3.org/1999/xlink">

<g transform="translate(130.000000, 0.000000) scale(2.500000 2.500000) "> 

<path opacity="0.804" d="M7.93425 1.47031C6.59 1.44205 5.26031 2.08878 4.47445 3.28809C3.27694 5.11561 3.76648 7.59051 5.5708 8.82344C6.4536 9.42667 7.47475 9.50246 8.45648 9.34232V13.6441C8.45648 14.1814 8.94523 14.6701 9.48254 14.6701C10.0199 14.6701 10.5103 14.1814 10.5103 13.6441V8.43678C10.7243 8.24945 10.95 8.08409 11.1279 7.8342C12.3947 6.05533 11.9991 3.5646 10.2475 2.26203C10.2038 2.2292 10.1498 2.21585 10.1019 2.19006C10.0602 2.15489 10.028 2.10987 9.98134 2.08126C9.52003 1.79247 9.02015 1.60677 8.51172 1.5222C8.3189 1.49013 8.12512 1.47432 7.93425 1.47031Z" fill="#EBE7E4"/>

</g>%n%n
<g transform="translate(139.000000, 9.000000) scale(0.687500 0.687500) "> 

<path fill="none" stroke-width="25" stroke-linecap="round" stroke-linejoin="round" stroke="rgb(24.705882%, 24.705882%, 24.705882%)" stroke-opacity="1" stroke-miterlimit="4" d="M 354.782715 527.890625 L 354.782715 303.310547 " transform="matrix(0.0551724, 0, 0, 0.0551724, 0, 0)"/>
<path fill-rule="nonzero" fill="rgb(24.705882%, 24.705882%, 24.705882%)" fill-opacity="0.425121" stroke-width="30" stroke-linecap="round" stroke-linejoin="round" stroke="rgb(24.705882%, 24.705882%, 24.705882%)" stroke-opacity="1" stroke-miterlimit="4" d="M 298.212891 58.835449 C 331.135254 62.233887 361.296387 78.588867 382.111816 104.21875 C 402.998047 129.848633 412.768555 162.700195 409.440918 195.622559 C 406.04248 228.474121 389.758301 258.706055 364.128418 279.592285 C 338.569336 300.407715 305.717773 310.319824 272.79541 306.992188 C 239.943848 303.664551 209.711914 287.451172 188.825684 261.821289 C 167.868652 236.262207 157.956543 203.410645 161.28418 170.559082 C 164.541016 137.636719 180.754395 107.404785 206.242676 86.447754 C 231.801758 65.490723 264.65332 55.578613 297.575684 58.764648 " transform="matrix(0.0551724, 0, 0, 0.0551724, 0, 0)"/>

</g>%n%n</svg>