<svg width="300" height="40" viewBox="0 0 300 40" fill="none" xmlns="http://www.w3.org/2000/svg" xmlns:xlink="http://www.w3.org/1999/xlink" version="1.1">

<g transform="translate(130.000000, 0.000000) scale(2.500000 2.500000) "> 

<path opacity="0.812" d="M3.38272 2C2.94222 2.00002 2.64504 2.19269 2.41975 2.41592C2.19447 2.63914 2.00002 2.93361 2 3.37008V9.9758C2.00002 10.4123 2.19446 10.7067 2.41975 10.93C2.64504 11.1532 2.94222 11.3459 3.38272 11.3459H4.34568C4.69966 11.3459 4.90046 11.1875 5.1358 11.0034C5.13488 11.0278 5.13488 11.0523 5.1358 11.0767C5.18998 11.7165 5.47997 12.3474 5.97531 12.7649C6.43563 13.1529 6.53146 13.2191 7.09259 13.3977C7.31859 14.3013 9.09613 14.1415 9.06173 13.2297C9.48923 13.128 9.86462 13.0585 10.2222 12.7159C10.6517 12.3046 10.9324 11.7077 10.963 11.0767C11.1446 11.194 11.2966 11.346 11.5802 11.3459H12.716C13.1347 11.3461 13.4758 11.0824 13.6049 10.9544C13.8345 10.727 14.0002 10.464 14 10.0492V6.37935C14.0002 5.96441 13.8344 5.70152 13.6049 5.47412C13.511 5.38104 13.2313 5.26148 12.963 5.18053C12.9511 5.18497 13.1225 5.12603 13.1111 5.1316C13.0998 5.13716 13.2453 5.05156 13.2346 5.0582C13.2238 5.06484 13.3681 4.95269 13.358 4.96034C13.348 4.96798 13.4907 4.85389 13.4815 4.86248C13.4723 4.87107 13.5886 4.7307 13.5802 4.74015C13.572 4.74959 13.6864 4.60761 13.679 4.61782C13.6716 4.62803 13.7841 4.48462 13.7778 4.49549C13.7714 4.50637 13.8571 4.33726 13.8518 4.3487C13.8466 4.36013 13.9053 4.21448 13.9012 4.22637C13.8972 4.23826 13.9535 4.06735 13.9506 4.07958C13.9478 4.0918 13.9769 3.89588 13.9753 3.90832C13.9737 3.92076 13.9757 3.74898 13.9753 3.76152C13.9749 3.77406 13.9744 3.60221 13.9753 3.61473C13.9762 3.62725 13.9485 3.43109 13.9506 3.44347C13.9527 3.45585 13.9226 3.28456 13.9259 3.29668C13.9292 3.30879 13.8721 3.13815 13.8765 3.14988C13.8811 3.16162 13.8215 2.99185 13.8272 3.00309C13.8328 3.01433 13.7464 2.87012 13.7531 2.88076C13.7598 2.8914 13.6466 2.74849 13.6543 2.75843C13.6621 2.76837 13.5469 2.62696 13.5556 2.6361C13.5642 2.64525 13.4226 2.52998 13.4321 2.53824C13.4416 2.5465 13.2983 2.43309 13.3086 2.44038C13.3189 2.44767 13.1742 2.33626 13.1852 2.34252C13.1962 2.34877 13.0255 2.26396 13.037 2.26912C13.0486 2.27428 12.9016 2.21617 12.9136 2.22019C12.9256 2.2242 12.7531 2.16843 12.7654 2.17126C12.7778 2.17409 12.58 2.14517 12.5926 2.14679C12.6051 2.14841 12.4318 2.1464 12.4444 2.14679C12.4571 2.14718 12.2837 2.14763 12.2963 2.14679C12.3089 2.14595 12.111 2.17332 12.1235 2.17126C12.0988 2.17034 12.0741 2.17034 12.0494 2.17126C12.0535 2.17018 12.0269 2.18779 12 2.19572C11.9731 2.20365 11.9466 2.22153 11.9506 2.22019L5.72839 3.59026V3.37007C5.72838 3.09317 5.63913 2.71892 5.33333 2.41592C5.02753 2.11291 4.78617 2.00002 4.34568 2H3.38272ZM10.5432 5.74324C10.4177 5.92692 10.2715 6.08884 10.2716 6.37935V7.4069C10.1512 7.24182 10.0382 7.06805 9.87654 6.94206C9.65067 6.76608 9.56482 6.73995 9.35802 6.67294C9.3553 6.67205 9.36075 6.64934 9.35802 6.64847C9.3616 6.6594 9.32914 6.56435 9.33333 6.57507C9.33753 6.58579 9.30385 6.49121 9.30864 6.50168C9.31343 6.51214 9.27857 6.4181 9.28395 6.42828C9.28933 6.43846 9.22862 6.34501 9.23457 6.35488C9.24051 6.36475 9.20338 6.29643 9.20988 6.30595C9.21637 6.31547 9.15346 6.22341 9.16049 6.23256C9.16753 6.2417 9.10357 6.17489 9.11111 6.18362C9.11865 6.19236 9.05371 6.12639 9.06173 6.13469C9.06789 6.14108 9.0275 6.10078 9.01234 6.08576C9.0078 6.08126 9.01038 6.05949 9.01234 6.0613L10.5432 5.74324ZM6.81481 6.57507C6.81093 6.58431 6.78876 6.60329 6.79012 6.59954C6.79576 6.58399 6.76107 6.71335 6.76543 6.6974C6.48876 6.80354 6.32668 6.76414 5.99383 7.04604C5.85079 7.18466 5.83607 7.21039 5.73457 7.38244L5.72839 6.79526L6.81481 6.57507ZM5.72839 9.70667C5.79618 9.82178 5.81386 9.94965 5.90123 10.0492C5.81498 10.0706 5.73168 10.1036 5.65432 10.1471C5.66052 10.0913 5.72839 10.0258 5.72839 9.9758V9.70667Z" fill="#EBE7E4"/>

</g>%n%n
<g transform="translate(138.000000, 8.000000) scale(2.000000 2.000000) "> 

<defs>
<filter id="alpha" filterUnits="objectBoundingBox" x="0%" y="0%" width="100%" height="100%">
  <feColorMatrix type="matrix" in="SourceGraphic" values="0 0 0 0 1 0 0 0 0 1 0 0 0 0 1 0 0 0 1 0"/>
</filter>
<mask id="mask0">
  <g filter="url(#alpha)">
<rect x="0" y="0" width="12" height="12" style="fill:rgb(0%,0%,0%);fill-opacity:0.75;stroke:none;"/>
  </g>
</mask>
<clip100Path id="clip1001">
  <rect x="0" y="0" width="12" height="12"/>
</clip100Path>
<g id="surface5" clip100-path="url(#clip1001)">
<path style=" stroke:none;fill-rule:nonzero;fill:rgb(26.666668%,26.666668%,26.666668%);fill-opacity:1;" d="M 9.421875 4.191406 C 9.34375 4.191406 9.265625 4.226562 9.210938 4.277344 C 9.15625 4.332031 9.125 4.410156 9.125 4.488281 L 9.125 8.015625 C 9.125 8.09375 9.15625 8.167969 9.210938 8.222656 C 9.265625 8.277344 9.34375 8.308594 9.421875 8.308594 L 10.492188 8.308594 C 10.570312 8.308594 10.644531 8.277344 10.699219 8.222656 C 10.753906 8.167969 10.789062 8.09375 10.785156 8.015625 L 10.785156 4.488281 C 10.789062 4.410156 10.753906 4.332031 10.699219 4.277344 C 10.644531 4.226562 10.570312 4.191406 10.492188 4.191406 Z M 9.421875 4.191406 "/>
</g>
<mask id="mask1">
  <g filter="url(#alpha)">
<rect x="0" y="0" width="12" height="12" style="fill:rgb(0%,0%,0%);fill-opacity:0.75;stroke:none;"/>
  </g>
</mask>
<clip100Path id="clip1002">
  <rect x="0" y="0" width="12" height="12"/>
</clip100Path>
<g id="surface8" clip100-path="url(#clip1002)">
<path style=" stroke:none;fill-rule:nonzero;fill:rgb(26.666668%,26.666668%,26.666668%);fill-opacity:1;" d="M 1.628906 1.234375 C 1.535156 1.234375 1.4375 1.273438 1.371094 1.339844 C 1.304688 1.410156 1.265625 1.503906 1.265625 1.601562 L 1.265625 7.941406 C 1.265625 8.039062 1.304688 8.132812 1.371094 8.203125 C 1.4375 8.269531 1.535156 8.308594 1.628906 8.308594 L 2.558594 8.308594 C 2.65625 8.308594 2.75 8.269531 2.816406 8.203125 C 2.886719 8.132812 2.925781 8.039062 2.925781 7.941406 L 2.925781 4.746094 C 2.460938 4.890625 1.90625 4.761719 1.605469 4.371094 C 1.152344 3.824219 1.382812 2.867188 2.054688 2.613281 C 2.34375 2.542969 2.632812 2.476562 2.925781 2.410156 L 2.925781 1.601562 C 2.925781 1.503906 2.886719 1.410156 2.816406 1.339844 C 2.75 1.273438 2.65625 1.234375 2.558594 1.234375 Z M 1.628906 1.234375 "/>
</g>
</defs>
<g id="surface1">
<path style="fill-rule:nonzero;fill:rgb(26.666668%,26.666668%,26.666668%);fill-opacity:1;stroke-width:3.67408;stroke-linecap:round;stroke-linejoin:round;stroke:rgb(26.666668%,26.666668%,26.666668%);stroke-opacity:1;stroke-miterlimit:4;" d="M 300.00651 364.388021 C 300.195312 364.576823 301.139323 364.765625 302.838542 364.954427 C 327.760417 369.108073 350.983073 376.660156 363.632812 387.610677 C 376.282552 398.75 382.513021 413.098958 382.513021 430.846354 C 382.513021 449.160156 375.716146 464.830729 361.744792 478.235677 C 347.96224 491.640625 324.550781 498.815104 300.00651 499.947917 L 289.622396 513.541667 L 284.713542 513.541667 L 284.713542 500.325521 C 259.791667 497.871094 240.722656 491.074219 227.317708 479.746094 C 214.101562 468.417969 206.549479 452.558594 204.85026 432.167969 L 237.890625 427.070312 C 240.345052 442.552083 245.63151 454.257812 253.372396 462.565104 C 261.302083 470.872396 271.686198 475.592448 284.713542 476.72526 L 284.713542 387.610677 C 259.980469 383.079427 241.289062 375.527344 229.016927 364.765625 C 216.744792 354.192708 210.514323 340.410156 210.514323 323.606771 C 210.514323 306.992188 216.55599 292.643229 228.828125 280.748698 C 241.10026 268.854167 259.791667 261.86849 284.713542 259.980469 L 284.713542 246.575521 L 300.00651 246.575521 L 300.00651 259.980469 C 320.77474 261.679688 341.542969 267.34375 353.626302 276.783854 C 365.520833 286.223958 373.072917 299.440104 376.09375 316.432292 L 341.920573 320.585938 C 339.84375 310.013021 335.690104 301.705729 329.459635 295.47526 C 323.229167 289.244792 310.579427 285.279948 300.00651 283.580729 Z M 284.713542 360.989583 L 284.713542 283.203125 C 271.497396 285.279948 261.302083 289.811198 254.127604 296.796875 C 246.953125 303.971354 243.554688 312.089844 243.554688 321.529948 C 243.554688 332.102865 247.141927 340.598958 254.505208 346.829427 C 261.86849 352.871094 271.875 357.591146 284.713542 360.989583 Z M 300.00651 476.72526 C 312.845052 475.026042 327.760417 470.30599 336.067708 462.565104 C 344.375 454.635417 348.528646 444.817708 348.528646 432.923177 C 348.528646 422.35026 345.507812 414.042969 339.088542 407.623698 C 332.858073 401.204427 316.809896 395.917969 300.00651 391.386719 Z M 300.00651 476.72526 " transform="matrix(0.0206897,0,0,0.0206897,0,0)"/>
<path style="fill:none;stroke-width:33.922699;stroke-linecap:round;stroke-linejoin:round;stroke:rgb(26.666668%,26.666668%,26.666668%);stroke-opacity:1;stroke-miterlimit:4;" d="M 294.342448 249.029948 L 294.342448 515.240885 " transform="matrix(0.0206897,0,0,0.0206897,0,0)"/>
<path style="fill:none;stroke-width:54.685001;stroke-linecap:round;stroke-linejoin:miter;stroke:rgb(26.666668%,26.666668%,26.666668%);stroke-opacity:1;stroke-miterlimit:4;" d="M 121.777344 176.907552 L 491.263021 94.401042 " transform="matrix(0.0206897,0,0,0.0206897,0,0)"/>
<use xlink:href="#surface5" mask="url(#mask0)"/>
<use xlink:href="#surface8" mask="url(#mask1)"/>
</g>

</g>%n%n</svg>