<svg width="300" height="40" viewBox="0 0 300 40" fill="none" xmlns="http://www.w3.org/2000/svg" >

<g transform="translate(130.000000, 0.000000) scale(1.666667 1.666667) "> 

<path opacity="0.5" fill-rule="evenodd" clip-rule="evenodd" d="M24 11.5V19C24 21.2091 22.2091 23 20 23H4C1.79086 23 0 21.2091 0 19V11.5C0 5.0533 5.47049 0 12 0C18.5295 0 24 5.0533 24 11.5ZM12 2C6.47715 2 2 6.25329 2 11.5V19C2 20.1046 2.89543 21 4 21H20C21.1046 21 22 20.1046 22 19V11.5C22 6.25329 17.5228 2 12 2Z" fill="white"/>
<path d="M2 11.5C2 6.25329 6.47715 2 12 2C17.5228 2 22 6.25329 22 11.5V19C22 20.1046 21.1046 21 20 21H4C2.89543 21 2 20.1046 2 19V11.5Z" fill="white"/>
<path fill-rule="evenodd" clip-rule="evenodd" d="M20 19V11.5C20 7.45329 16.5162 4 12 4C7.48382 4 4 7.45329 4 11.5V19H20ZM12 2C6.47715 2 2 6.25329 2 11.5V19C2 20.1046 2.89543 21 4 21H20C21.1046 21 22 20.1046 22 19V11.5C22 6.25329 17.5228 2 12 2Z" fill="#0092DE"/>

</g>


<g transform="translate(138.000000, 8.000000) scale(0.500000 0.500000) "> 

<path fill-rule="evenodd" clip100-rule="evenodd" d="M14.8284 4C13.0174 4 11.2806 4.71942 10 6C8.71942 7.28058 8 9.01742 8 10.8284V36C8 38.2091 9.79086 40 12 40H36C38.2091 40 40 38.2091 40 36V10.8284C40 9.01742 39.2806 7.28058 38 6C36.7194 4.71942 34.9826 4 33.1716 4H14.8284ZM36 16H12V28H36V16ZM14 36C15.1046 36 16 35.1046 16 34C16 32.8954 15.1046 32 14 32C12.8954 32 12 32.8954 12 34C12 35.1046 12.8954 36 14 36ZM36 34C36 35.1046 35.1046 36 34 36C32.8954 36 32 35.1046 32 34C32 32.8954 32.8954 32 34 32C35.1046 32 36 32.8954 36 34Z" fill="#0092DA"/>
<path opacity="0.5" d="M14 36H18L15.3333 44H32.6667L30 36H34L38 48H10L14 36Z" fill="#0092DA"/>

</g>

</svg>