<svg width="300" height="40" viewBox="0 0 300 40" fill="none" xmlns="http://www.w3.org/2000/svg" xmlns:xlink="http://www.w3.org/1999/xlink">

<g transform="translate(130.000000, 0.000000) scale(2.000000 2.000000) "> 

<g clip-path="url(#clip0)">
<path opacity="0.953" d="M9.99934 0C15.514 0 20 4.44646 20 10C20 15.5172 15.514 20 9.99934 20C4.48599 20 0 15.5172 0 10C0 4.44646 4.48599 0 9.99934 0V0Z" fill="#878787"/>
<path opacity="0.95" fill-rule="evenodd" clip-rule="evenodd" d="M10 19C14.9706 19 19 14.9706 19 10C19 5.02944 14.9706 1 10 1C5.02944 1 1 5.02944 1 10C1 14.9706 5.02944 19 10 19ZM10 20C15.5228 20 20 15.5228 20 10C20 4.47715 15.5228 0 10 0C4.47715 0 0 4.47715 0 10C0 15.5228 4.47715 20 10 20Z" fill="#404040"/>
</g>
<defs>
<clipPath id="clip0">
<path d="M0 0H20V20H0V0Z" fill="white"/>
</clipPath>
</defs>

</g>%n%n
<g transform="translate(138.000000, 8.000000) scale(2.000000 2.000000) "> 

<defs>
<filter id="filter-remove-color" x="0%" y="0%" width="100%" height="100%">
<feColorMatrix color-interpolation-filters="sRGB" values="0 0 0 0 1 0 0 0 0 1 0 0 0 0 1 0 0 0 1 0" />
</filter>
<mask id="mask-0">
<g filter="url(#filter-remove-color)">
<rect x="-1.2" y="-1.2" width="14.4" height="14.4" fill="rgb(0%, 0%, 0%)" fill-opacity="0.5"/>
</g>
</mask>
<clip100Path id="clip100-0">
<rect x="0" y="0" width="12" height="12"/>
</clip100Path>
<g id="source-9" clip100-path="url(#clip100-0)">
<path fill-rule="nonzero" fill="rgb(100%, 100%, 100%)" fill-opacity="1" d="M 2 9 L 3 9 L 2.5 10 L 5.5 10 L 5 9 L 6 9 L 7 11 L 1 11 Z M 2 9 "/>
</g>
</defs>
<path fill-rule="evenodd" fill="rgb(100%, 100%, 100%)" fill-opacity="1" d="M 2 2 C 2 1.449219 2.449219 1 3 1 L 5 1 C 5.550781 1 6 1.449219 6 2 L 6 2.152344 C 6.183594 2.238281 6.355469 2.355469 6.5 2.5 C 6.820312 2.820312 7 3.253906 7 3.707031 L 7 8 C 7 8.550781 6.550781 9 6 9 L 2 9 C 1.449219 9 1 8.550781 1 8 L 1 3.707031 C 1 3.253906 1.179688 2.820312 1.5 2.5 C 1.644531 2.355469 1.816406 2.238281 2 2.152344 Z M 3.5 2 C 3.222656 2 3 2.222656 3 2.5 C 3 2.777344 3.222656 3 3.5 3 L 4.5 3 C 4.777344 3 5 2.777344 5 2.5 C 5 2.222656 4.777344 2 4.5 2 Z M 3.5 4 L 2 4 L 2 6 L 3.5 6 Z M 4.5 4 L 6 4 L 6 6 L 4.5 6 Z M 2.5 8 C 2.777344 8 3 7.777344 3 7.5 C 3 7.222656 2.777344 7 2.5 7 C 2.222656 7 2 7.222656 2 7.5 C 2 7.777344 2.222656 8 2.5 8 Z M 6 7.5 C 6 7.777344 5.777344 8 5.5 8 C 5.222656 8 5 7.777344 5 7.5 C 5 7.222656 5.222656 7 5.5 7 C 5.777344 7 6 7.222656 6 7.5 Z M 6 7.5 "/>
<path fill-rule="nonzero" fill="rgb(100%, 100%, 100%)" fill-opacity="1" d="M 7 1 L 12 0 L 12 11 L 7 11 L 7 9 L 11 9 L 11 2 L 7 2 Z M 7 1 "/>
<g mask="url(#mask-0)">
<use xlink:href="#source-9"/>
</g>

</g>%n%n</svg>