<svg width="40" height="40" viewBox="0 0 40 40" fill="none" xmlns="http://www.w3.org/2000/svg" >

<g transform="translate(0.000000, 0.000000) scale(2.000000 2.000000) "> 

<g clip-path="url(#clip0)">
<path opacity="0.949" d="M9.9994 1C14.9626 1 19 5.00181 19 10C19 14.9655 14.9626 19 9.9994 19C5.0374 19 1 14.9655 1 10C1 5.00181 5.0374 1 9.9994 1Z" fill="#45ABE9"/>
<path opacity="0.95" fill-rule="evenodd" clip-rule="evenodd" d="M10 19C14.9706 19 19 14.9706 19 10C19 5.02944 14.9706 1 10 1C5.02944 1 1 5.02944 1 10C1 14.9706 5.02944 19 10 19ZM10 20C15.5228 20 20 15.5228 20 10C20 4.47715 15.5228 0 10 0C4.47715 0 0 4.47715 0 10C0 15.5228 4.47715 20 10 20Z" fill="#1578B3"/>
</g>
<defs>
<clipPath id="clip0">
<path d="M0 0H20V20H0V0Z" fill="white"/>
</clipPath>
</defs>

</g>


<g transform="translate(8.000000, 8.000000) scale(0.500000 0.500000) "> 

<path fill-rule="evenodd" clip100-rule="evenodd" d="M4 8C4 5.79086 5.79086 4 8 4H24C26.2091 4 28 5.79086 28 8V24C32.4183 24 36 27.5817 36 32V38C36 39.1046 36.8954 40 38 40C39.1046 40 40 39.1046 40 38V23.6586C39.3744 23.8797 38.7013 24 38 24C34.6863 24 32 21.3137 32 18C32 14.9038 34.3452 12.3554 37.3561 12.0341L32 4H36L44 16V38C44 41.3137 41.3137 44 38 44C34.6863 44 32 41.3137 32 38V32C32 29.7909 30.2091 28 28 28V44H4V8ZM8 8H24V20H8V8ZM40 18C40 16.8954 39.1046 16 38 16C36.8954 16 36 16.8954 36 18C36 19.1046 36.8954 20 38 20C39.1046 20 40 19.1046 40 18Z" fill="#ffffff"/>

</g>

</svg>