<svg width="40" height="40" viewBox="0 0 40 40" fill="none" xmlns="http://www.w3.org/2000/svg" >

<g transform="translate(0.000000, 0.000000) scale(2.000000 2.000000) "> 

<g clip-path="url(#clip0)">
<path opacity="0.949" d="M9.9994 1C14.9626 1 19 5.00181 19 10C19 14.9655 14.9626 19 9.9994 19C5.0374 19 1 14.9655 1 10C1 5.00181 5.0374 1 9.9994 1Z" fill="#45ABE9"/>
<path opacity="0.95" fill-rule="evenodd" clip-rule="evenodd" d="M10 19C14.9706 19 19 14.9706 19 10C19 5.02944 14.9706 1 10 1C5.02944 1 1 5.02944 1 10C1 14.9706 5.02944 19 10 19ZM10 20C15.5228 20 20 15.5228 20 10C20 4.47715 15.5228 0 10 0C4.47715 0 0 4.47715 0 10C0 15.5228 4.47715 20 10 20Z" fill="#1578B3"/>
</g>
<defs>
<clipPath id="clip0">
<path d="M0 0H20V20H0V0Z" fill="white"/>
</clipPath>
</defs>

</g>


<g transform="translate(8.000000, 8.000000) scale(2.000000 2.000000) "> 

<path d="M42.633 7.89693C43.6809 7.54764 44.2472 6.415 43.8979 5.36711C43.5486 4.31922 42.416 3.7529 41.3681 4.1022L5.36809 16.1022C4.3202 16.4515 3.75388 17.5841 4.10318 18.632C4.45247 19.6799 5.58511 20.2462 6.633 19.8969L42.633 7.89693Z" fill="#ffffff"/>
<path fill-rule="evenodd" clip100-rule="evenodd" d="M16 26C16 22.6863 18.6863 20 22 20H38C41.3137 20 44 22.6863 44 26V40C44 42.2091 42.2091 44 40 44H20C17.7909 44 16 42.2091 16 40V26ZM20 24H40V36H20V24Z" fill="#ffffff"/>
<path opacity="0.5" d="M32 15.6586C34.3304 14.8349 36 12.6124 36 10C36 6.68629 33.3137 4 30 4C26.6863 4 24 6.68629 24 10C24 12.6124 25.6696 14.8349 28 15.6586V20H32V15.6586Z" fill="#ffffff"/>

</g>

</svg>