<svg width="300" height="40" viewBox="0 0 300 40" fill="none" xmlns="http://www.w3.org/2000/svg" >

<g transform="translate(130.000000, 0.000000) scale(2.000000 2.000000) "> 

<g clip-path="url(#clip0)">
<path opacity="0.949" d="M9.9994 1C14.9626 1 19 5.00181 19 10C19 14.9655 14.9626 19 9.9994 19C5.0374 19 1 14.9655 1 10C1 5.00181 5.0374 1 9.9994 1Z" fill="#45ABE9"/>
<path opacity="0.95" fill-rule="evenodd" clip-rule="evenodd" d="M10 19C14.9706 19 19 14.9706 19 10C19 5.02944 14.9706 1 10 1C5.02944 1 1 5.02944 1 10C1 14.9706 5.02944 19 10 19ZM10 20C15.5228 20 20 15.5228 20 10C20 4.47715 15.5228 0 10 0C4.47715 0 0 4.47715 0 10C0 15.5228 4.47715 20 10 20Z" fill="#1578B3"/>
</g>
<defs>
<clipPath id="clip0">
<path d="M0 0H20V20H0V0Z" fill="white"/>
</clipPath>
</defs>

</g>


<g transform="translate(138.000000, 8.000000) scale(0.041379 0.041379) "> 

<path d="M120.833 110.962V495.161H80.4767L36.3418 541.291H543.659L499.526 495.161H195.375V110.962H120.833ZM145.68 148.382H170.528V223.222H145.68V148.382ZM145.68 260.642H170.528V335.481H145.68V260.642ZM145.68 372.901H170.528V447.741H145.68V372.901Z" fill="#ffffff"/>
<path d="M301.064 469.509H394.614V207.569L375.904 151.44V76.5996L347.71 39.1797L319.774 76.5996V151.44L301.064 207.569V469.509Z" fill="#ffffff"/>
<path d="M419.334 377.07L470.774 469.932H419.334V377.07Z" fill="#ffffff"/>
<path d="M274.468 377.07L223.028 469.932H274.468V377.07Z" fill="#ffffff"/>
<path d="M191.221 206.354H263.965" stroke="#ffffff" stroke-width="25" stroke-linecap="round" stroke-linejoin="round"/>

</g>

</svg>