<svg width="300" height="40" viewBox="0 0 300 40" fill="none" xmlns="http://www.w3.org/2000/svg" xmlns:xlink="http://www.w3.org/1999/xlink">

<g transform="translate(130.000000, 0.000000) scale(2.000000 2.000000) "> 

<g clip-path="url(#clip0)">
<path opacity="0.949" d="M9.9994 1C14.9626 1 19 5.00181 19 10C19 14.9655 14.9626 19 9.9994 19C5.0374 19 1 14.9655 1 10C1 5.00181 5.0374 1 9.9994 1Z" fill="#45ABE9"/>
<path opacity="0.95" fill-rule="evenodd" clip-rule="evenodd" d="M10 19C14.9706 19 19 14.9706 19 10C19 5.02944 14.9706 1 10 1C5.02944 1 1 5.02944 1 10C1 14.9706 5.02944 19 10 19ZM10 20C15.5228 20 20 15.5228 20 10C20 4.47715 15.5228 0 10 0C4.47715 0 0 4.47715 0 10C0 15.5228 4.47715 20 10 20Z" fill="#1578B3"/>
</g>
<defs>
<clipPath id="clip0">
<path d="M0 0H20V20H0V0Z" fill="white"/>
</clipPath>
</defs>

</g>%n%n
<g transform="translate(138.000000, 8.000000) scale(2.000000 2.000000) "> 

<defs>
<filter id="filter-remove-color" x="0%" y="0%" width="100%" height="100%">
<feColorMatrix color-interpolation-filters="sRGB" values="0 0 0 0 1 0 0 0 0 1 0 0 0 0 1 0 0 0 1 0" />
</filter>
<mask id="mask-0">
<g filter="url(#filter-remove-color)">
<rect x="-1.2" y="-1.2" width="14.4" height="14.4" fill="rgb(0%, 0%, 0%)" fill-opacity="0.5"/>
</g>
</mask>
<clip100Path id="clip100-0">
<rect x="0" y="0" width="12" height="12"/>
</clip100Path>
<g id="source-10" clip100-path="url(#clip100-0)">
<path fill-rule="nonzero" fill="rgb(100%, 100%, 100%)" fill-opacity="1" d="M 7.484375 2.378906 L 11 1.5 L 11 4.5 L 7.484375 3.621094 C 7.199219 3.550781 7 3.292969 7 3 C 7 2.707031 7.199219 2.449219 7.484375 2.378906 Z M 7.484375 2.378906 "/>
<path fill-rule="nonzero" fill="rgb(100%, 100%, 100%)" fill-opacity="1" d="M 4.507812 2.40625 L 0 1.546875 L 0 4.5 L 4.511719 3.597656 C 4.796875 3.539062 5 3.292969 5 3.003906 C 5 2.710938 4.792969 2.460938 4.507812 2.40625 Z M 4.507812 2.40625 "/>
</g>
</defs>
<path fill-rule="nonzero" fill="rgb(100%, 100%, 100%)" fill-opacity="1" d="M 4.5 1.5 L 6 0.5 L 7.5 1.5 L 7.5 2 L 4.5 2 Z M 4.5 1.5 "/>
<path fill-rule="nonzero" fill="rgb(100%, 100%, 100%)" fill-opacity="1" d="M 5 4.5 L 4.75 4.5 C 4.613281 4.5 4.5 4.386719 4.5 4.25 C 4.5 4.113281 4.613281 4 4.75 4 L 7.25 4 C 7.386719 4 7.5 4.113281 7.5 4.25 C 7.5 4.386719 7.386719 4.5 7.25 4.5 L 7 4.5 L 8 10 L 8 11 L 4 11 L 4 10 Z M 5 4.5 "/>
<path fill-rule="nonzero" fill="rgb(100%, 100%, 100%)" fill-opacity="1" d="M 6 3.5 C 6.277344 3.5 6.5 3.277344 6.5 3 C 6.5 2.722656 6.277344 2.5 6 2.5 C 5.722656 2.5 5.5 2.722656 5.5 3 C 5.5 3.277344 5.722656 3.5 6 3.5 Z M 6 3.5 "/>
<g mask="url(#mask-0)">
<use xlink:href="#source-10"/>
</g>

</g>%n%n</svg>