<svg width="300" height="40" viewBox="0 0 300 40" fill="none" xmlns="http://www.w3.org/2000/svg" xmlns:xlink="http://www.w3.org/1999/xlink">

<g transform="translate(130.000000, 0.000000) scale(1.666667 1.666667) "> 

<path opacity="0.5" fill-rule="evenodd" clip-rule="evenodd" d="M24 11.5V19C24 21.2091 22.2091 23 20 23H4C1.79086 23 0 21.2091 0 19V11.5C0 5.0533 5.47049 0 12 0C18.5295 0 24 5.0533 24 11.5ZM12 2C6.47715 2 2 6.25329 2 11.5V19C2 20.1046 2.89543 21 4 21H20C21.1046 21 22 20.1046 22 19V11.5C22 6.25329 17.5228 2 12 2Z" fill="white"/>
<path d="M2 11.5C2 6.25329 6.47715 2 12 2C17.5228 2 22 6.25329 22 11.5V19C22 20.1046 21.1046 21 20 21H4C2.89543 21 2 20.1046 2 19V11.5Z" fill="white"/>
<path fill-rule="evenodd" clip-rule="evenodd" d="M20 19V11.5C20 7.45329 16.5162 4 12 4C7.48382 4 4 7.45329 4 11.5V19H20ZM12 2C6.47715 2 2 6.25329 2 11.5V19C2 20.1046 2.89543 21 4 21H20C21.1046 21 22 20.1046 22 19V11.5C22 6.25329 17.5228 2 12 2Z" fill="#0092DE"/>

</g>%n%n
<g transform="translate(138.000000, 8.000000) scale(0.750000 0.750000) "> 

<defs>
<filter id="filter-remove-color" x="0%" y="0%" width="100%" height="100%">
<feColorMatrix color-interpolation-filters="sRGB" values="0 0 0 0 1 0 0 0 0 1 0 0 0 0 1 0 0 0 1 0" />
</filter>
<mask id="mask-0">
<g filter="url(#filter-remove-color)">
<rect x="-3.2" y="-3.2" width="38.4" height="38.4" fill="rgb(0%, 0%, 0%)" fill-opacity="0.5"/>
</g>
</mask>
<clip100Path id="clip100-0">
<rect x="0" y="0" width="32" height="32"/>
</clip100Path>
<g id="source-7" clip100-path="url(#clip100-0)">
<path fill-rule="nonzero" fill="rgb(0%, 57.254902%, 85.490196%)" fill-opacity="1" d="M 9.332031 24 L 12 24 L 10.222656 29.332031 L 21.777344 29.332031 L 20 24 L 22.667969 24 L 25.332031 32 L 6.667969 32 Z M 9.332031 24 "/>
</g>
</defs>
<path fill-rule="evenodd" fill="rgb(0%, 57.254902%, 85.490196%)" fill-opacity="1" d="M 9.886719 2.667969 C 8.679688 2.667969 7.519531 3.144531 6.667969 4 C 5.8125 4.855469 5.332031 6.011719 5.332031 7.21875 L 5.332031 24 C 5.332031 25.472656 6.527344 26.667969 8 26.667969 L 24 26.667969 C 25.472656 26.667969 26.667969 25.472656 26.667969 24 L 26.667969 7.21875 C 26.667969 6.011719 26.1875 4.855469 25.332031 4 C 24.480469 3.144531 23.320312 2.667969 22.113281 2.667969 Z M 24 10.667969 L 8 10.667969 L 8 18.667969 L 24 18.667969 Z M 9.332031 24 C 10.070312 24 10.667969 23.402344 10.667969 22.667969 C 10.667969 21.929688 10.070312 21.332031 9.332031 21.332031 C 8.597656 21.332031 8 21.929688 8 22.667969 C 8 23.402344 8.597656 24 9.332031 24 Z M 24 22.667969 C 24 23.402344 23.402344 24 22.667969 24 C 21.929688 24 21.332031 23.402344 21.332031 22.667969 C 21.332031 21.929688 21.929688 21.332031 22.667969 21.332031 C 23.402344 21.332031 24 21.929688 24 22.667969 Z M 24 22.667969 "/>
<g mask="url(#mask-0)">
<use xlink:href="#source-7"/>
</g>

</g>%n%n</svg>