<svg width="300" height="40" viewBox="0 0 300 40" fill="none" xmlns="http://www.w3.org/2000/svg" xmlns:xlink="http://www.w3.org/1999/xlink">

<g transform="translate(130.000000, 0.000000) scale(2.222222 2.222222) "> 

<g clip-path="url(#clip0)">
<path opacity="0.95" fill-rule="evenodd" clip-rule="evenodd" d="M13 1H5C2.79086 1 1 2.79086 1 5V13C1 15.2091 2.79086 17 5 17H13C15.2091 17 17 15.2091 17 13V5C17 2.79086 15.2091 1 13 1ZM5 0C2.23858 0 0 2.23858 0 5V13C0 15.7614 2.23858 18 5 18H13C15.7614 18 18 15.7614 18 13V5C18 2.23858 15.7614 0 13 0H5Z" fill="#1578B3"/>
<rect opacity="0.95" x="1" y="1" width="16" height="16" rx="4" fill="#45ABE9"/>
</g>
<defs>
<clipPath id="clip0">
<path d="M0 0H18V18H0V0Z" fill="white"/>
</clipPath>
</defs>

</g>%n%n
<g transform="translate(138.000000, 8.000000) scale(0.750000 0.750000) "> 

<path fill="none" stroke-width="3.408" stroke-linecap="butt" stroke-linejoin="miter" stroke="rgb(93.333333%, 93.333333%, 93.333333%)" stroke-opacity="1" stroke-miterlimit="4" d="M 66.269531 1.77002 C 24.921875 1.77002 1.699219 23.151855 1.699219 66.835938 L 1.699219 516.916504 C 1.699219 557.768555 22.585449 579.150391 63.862305 579.150391 L 515.925293 579.150391 C 557.202148 579.150391 578.15918 558.830566 578.15918 516.916504 L 578.15918 66.835938 C 578.15918 24.213867 557.202148 1.77002 514.650879 1.77002 C 514.650879 1.77002 66.12793 1.628418 66.269531 1.77002 Z M 66.269531 1.77002 " transform="matrix(0.0551724, 0, 0, 0.0551724, 0, 0)"/>
<path fill-rule="nonzero" fill="rgb(100%, 100%, 100%)" fill-opacity="1" d="M 1.964844 25.984375 L 30.363281 25.984375 L 30.363281 24.332031 C 22.199219 16.671875 10.78125 16.597656 1.964844 24.332031 Z M 1.964844 25.984375 "/>

</g>%n%n</svg>