<svg width="82" height="82" viewBox="0 0 82 82" fill="none" xmlns="http://www.w3.org/2000/svg">
<path opacity="0.1" d="M41 17C54.2548 17 65 27.7452 65 41H17C17 27.7452 27.7452 17 41 17Z" fill="url(#paint0_linear_2454_5943)"/>
<path opacity="0.1" fill-rule="evenodd" clip-rule="evenodd" d="M41 17C54.2548 17 65 27.7452 65 41C65 54.2548 54.2548 65 41 65C27.7452 65 17 54.2548 17 41C17 27.7452 27.7452 17 41 17ZM41 20C29.402 20 20 29.402 20 41C20 52.598 29.402 62 41 62C52.598 62 62 52.598 62 41C62 29.402 52.598 20 41 20Z" fill="url(#paint1_linear_2454_5943)"/>
<defs>
<linearGradient id="paint0_linear_2454_5943" x1="41" y1="17" x2="41" y2="41" gradientUnits="userSpaceOnUse">
<stop stop-color="white"/>
<stop offset="1" stop-color="white" stop-opacity="0"/>
</linearGradient>
<linearGradient id="paint1_linear_2454_5943" x1="41" y1="17" x2="41" y2="65" gradientUnits="userSpaceOnUse">
<stop stop-color="white"/>
<stop offset="1" stop-color="white" stop-opacity="0"/>
</linearGradient>
</defs>
</svg>
