<svg width="70" height="70" viewBox="0 0 70 70" fill="none" xmlns="http://www.w3.org/2000/svg">
<g opacity="0.6">
<path fill-rule="evenodd" clip-rule="evenodd" d="M35 64C36.6569 64 38 65.3431 38 67C38 68.6569 36.6569 70 35 70C33.3431 70 32 68.6569 32 67C32 65.3431 33.3431 64 35 64ZM35 66C34.4477 66 34 66.4477 34 67C34 67.5523 34.4477 68 35 68C35.5523 68 36 67.5523 36 67C36 66.4477 35.5523 66 35 66Z" fill="black"/>
<path fill-rule="evenodd" clip-rule="evenodd" d="M56 2C59.3137 2 62 4.68629 62 8V50C62 53.3137 59.3137 56 56 56H46C41.0001 56 38.75 56.4444 37.25 59.4072C37.1039 59.6957 36.9791 59.9706 36.8633 60.2256C36.3843 61.2796 36.0568 62 35 62C33.9432 62 33.6157 61.2796 33.1367 60.2256C33.0209 59.9706 32.8961 59.6957 32.75 59.4072C31.25 56.4444 28.9999 56 24 56H14C10.6863 56 8 53.3137 8 50V8C8 4.68629 10.6863 2 14 2H56ZM14 5C12.3431 5 11 6.34315 11 8V50C11 51.6569 12.3431 53 14 53H56C57.6569 53 59 51.6569 59 50V8C59 6.34315 57.6569 5 56 5H14Z" fill="black"/>
</g>
</svg>
