<svg width="70" height="70" viewBox="0 0 70 70" fill="none" xmlns="http://www.w3.org/2000/svg">
<path opacity="0.1" d="M35 5C48.2548 5 59 15.7452 59 29H11C11 15.7452 21.7452 5 35 5Z" fill="url(#paint0_linear_2381_6075)"/>
<path opacity="0.1" fill-rule="evenodd" clip-rule="evenodd" d="M35 5C48.2548 5 59 15.7452 59 29C59 42.2548 48.2548 53 35 53C21.7452 53 11 42.2548 11 29C11 15.7452 21.7452 5 35 5ZM35 8C23.402 8 14 17.402 14 29C14 40.598 23.402 50 35 50C46.598 50 56 40.598 56 29C56 17.402 46.598 8 35 8Z" fill="url(#paint1_linear_2381_6075)"/>
<defs>
<linearGradient id="paint0_linear_2381_6075" x1="35" y1="5" x2="35" y2="29" gradientUnits="userSpaceOnUse">
<stop stop-color="white"/>
<stop offset="1" stop-color="white" stop-opacity="0"/>
</linearGradient>
<linearGradient id="paint1_linear_2381_6075" x1="35" y1="5" x2="35" y2="53" gradientUnits="userSpaceOnUse">
<stop stop-color="white"/>
<stop offset="1" stop-color="white" stop-opacity="0"/>
</linearGradient>
</defs>
</svg>
