<svg width="42" height="42" viewBox="0 0 42 42" fill="none" xmlns="http://www.w3.org/2000/svg">
<path opacity="0.3" d="M20 39C20 38.4477 20.4477 38 21 38H40C40.5523 38 41 38.4477 41 39C41 39.5523 40.5523 40 40 40H21C20.4477 40 20 39.5523 20 39Z" fill="black"/>
<path opacity="0.4" d="M19 39C19 37.8954 19.8954 37 21 37C22.1046 37 23 37.8954 23 39C23 40.1046 22.1046 41 21 41C19.8954 41 19 40.1046 19 39Z" fill="black"/>
<path d="M40 30H20V12H40C41.1046 12 42 12.8954 42 14V28C42 29.1328 41.0841 29.9429 40 30Z" fill="#2F2F32"/>
<rect x="22" y="14" width="18" height="14" fill="white"/>
<path d="M20 12H22V39C22 39.5523 21.5523 40 21 40C20.4477 40 20 39.5523 20 39V12Z" fill="#4D65F8"/>
<path d="M28 26H26V24H28V26Z" fill="#414146"/>
<path d="M32 26H30V24H32V26Z" fill="#414146"/>
<path d="M36 26H34V24H36V26Z" fill="#414146"/>
<path d="M26 24H24V22H26V24Z" fill="#414146"/>
<path d="M30 24H28V22H30V24Z" fill="#414146"/>
<path d="M34 24H32V22H34V24Z" fill="#414146"/>
<path d="M38 24H36V22H38V24Z" fill="#414146"/>
<path d="M28 22H26V20H28V22Z" fill="#414146"/>
<path d="M32 22H30V20H32V22Z" fill="#414146"/>
<path d="M36 22H34V20H36V22Z" fill="#414146"/>
<path d="M26 20H24V18H26V20Z" fill="#414146"/>
<path d="M30 20H28V18H30V20Z" fill="#414146"/>
<path d="M34 20H32V18H34V20Z" fill="#414146"/>
<path d="M38 20H36V18H38V20Z" fill="#414146"/>
<path d="M28 18H26V16H28V18Z" fill="#414146"/>
<path d="M32 18H30V16H32V18Z" fill="#414146"/>
<path d="M36 18H34V16H36V18Z" fill="#414146"/>
<path opacity="0.3" d="M20 12H40C41.1046 12 42 12.8954 42 14V28C42 29.1046 41.1046 30 40 30H20V12Z" fill="url(#paint0_linear_2267_164590)"/>
<defs>
<linearGradient id="paint0_linear_2267_164590" x1="31" y1="12" x2="31" y2="30" gradientUnits="userSpaceOnUse">
<stop stop-color="white"/>
<stop offset="1" stop-color="white" stop-opacity="0"/>
</linearGradient>
</defs>
</svg>
