<svg width="42" height="42" viewBox="0 0 42 42" fill="none" xmlns="http://www.w3.org/2000/svg">
<path opacity="0.3" d="M20 39C20 38.4477 20.4477 38 21 38H40C40.5523 38 41 38.4477 41 39C41 39.5523 40.5523 40 40 40H21C20.4477 40 20 39.5523 20 39Z" fill="black"/>
<path opacity="0.4" d="M19 39C19 37.8954 19.8954 37 21 37C22.1046 37 23 37.8954 23 39C23 40.1046 22.1046 41 21 41C19.8954 41 19 40.1046 19 39Z" fill="black"/>
<path d="M20 14H22V39C22 39.5523 21.5523 40 21 40V40C20.4477 40 20 39.5523 20 39V14Z" fill="#2D4422"/>
<path d="M20 12H40C41.1046 12 42 12.8954 42 14V28C42 29.1046 41.1046 30 40 30H20V12Z" fill="#1D4D08"/>
<path d="M22 14H40V28H22V14Z" fill="#7CB342"/>
<path opacity="0.3" d="M20 12H40C41.1046 12 42 12.8954 42 14V28C42 29.1046 41.1046 30 40 30H20V12Z" fill="url(#paint0_linear_2267_164589)"/>
<defs>
<linearGradient id="paint0_linear_2267_164589" x1="31" y1="12" x2="31" y2="30" gradientUnits="userSpaceOnUse">
<stop stop-color="white"/>
<stop offset="1" stop-color="white" stop-opacity="0"/>
</linearGradient>
</defs>
</svg>
