<svg width="42" height="42" viewBox="0 0 42 42" fill="none" xmlns="http://www.w3.org/2000/svg">
<path opacity="0.2" d="M20 39C20 38.4477 20.4477 38 21 38H40C40.5523 38 41 38.4477 41 39C41 39.5523 40.5523 40 40 40H21C20.4477 40 20 39.5523 20 39Z" fill="black"/>
<path d="M18 39C18 37.3431 19.3431 36 21 36C22.6569 36 24 37.3431 24 39C24 40.6569 22.6569 42 21 42C19.3431 42 18 40.6569 18 39Z" fill="#2F2F32"/>
<path d="M19 39C19 37.8954 19.8954 37 21 37C22.1046 37 23 37.8954 23 39C23 40.1046 22.1046 41 21 41C19.8954 41 19 40.1046 19 39Z" fill="white"/>
<path d="M20 39C20 38.4477 20.4477 38 21 38C21.5523 38 22 38.4477 22 39C22 39.5523 21.5523 40 21 40C20.4477 40 20 39.5523 20 39Z" fill="#2D4422"/>
<path d="M20 2H22V27C22 27.5523 21.5523 28 21 28V28C20.4477 28 20 27.5523 20 27V2Z" fill="#2D4422"/>
<path d="M20 0H40C41.1046 0 42 0.895431 42 2V16C42 17.1046 41.1046 18 40 18H20V0Z" fill="#1D4D08"/>
<path d="M22 2H40V16H22V2Z" fill="#7CB342"/>
</svg>
