<svg width="70" height="70" viewBox="0 0 70 70" fill="none" xmlns="http://www.w3.org/2000/svg">
<path opacity="0.1" d="M56 5C57.6569 5 59 6.34315 59 8V29H11V8C11 6.34315 12.3431 5 14 5H56Z" fill="url(#paint0_linear_2381_6076)"/>
<path opacity="0.1" fill-rule="evenodd" clip-rule="evenodd" d="M56 5C57.6569 5 59 6.34315 59 8V50C59 51.6569 57.6569 53 56 53H14C12.3431 53 11 51.6569 11 50V8C11 6.34315 12.3431 5 14 5H56ZM14 8V50H56V8H14Z" fill="url(#paint1_linear_2381_6076)"/>
<defs>
<linearGradient id="paint0_linear_2381_6076" x1="33" y1="5" x2="33" y2="30" gradientUnits="userSpaceOnUse">
<stop stop-color="white"/>
<stop offset="1" stop-color="white" stop-opacity="0"/>
</linearGradient>
<linearGradient id="paint1_linear_2381_6076" x1="35" y1="9" x2="35" y2="53" gradientUnits="userSpaceOnUse">
<stop stop-color="white"/>
<stop offset="1" stop-color="white" stop-opacity="0"/>
</linearGradient>
</defs>
</svg>
