<svg width="300" height="35" viewBox="0 0 300 35" fill="none" xmlns="http://www.w3.org/2000/svg">
<rect opacity="0.3" width="300" height="35" fill="black"/>
<rect x="1" y="1" width="298" height="33" fill="#D4AAAA"/>
<path fill-rule="evenodd" clip-rule="evenodd" d="M150 9C154.98 9 159 13.0196 159 18.0005C159 22.9511 154.98 27 150 27C145.021 27 141 22.9511 141 18.0005C141 13.0196 145.021 9 150 9V9Z" fill="white" fill-opacity="0.65"/>
<path opacity="0.849" d="M158.013 18C158.013 20.1251 157.169 22.1632 155.666 23.6659C154.163 25.1686 152.125 26.0128 150 26.0128C147.875 26.0128 145.837 25.1686 144.334 23.6659C142.831 22.1632 141.987 20.1251 141.987 18C141.987 15.8749 142.831 13.8368 144.334 12.3341C145.837 10.8314 147.875 9.98718 150 9.98718C152.125 9.98718 154.163 10.8314 155.666 12.3341C157.169 13.8368 158.013 15.8749 158.013 18V18Z" fill="#45ABE9"/>
<path d="M146 13H148V17L152 17V13H154V23H152V19H148V23H146V13Z" fill="white"/>
</svg>
