<svg width="300" height="35" viewBox="0 0 300 35" fill="none" xmlns="http://www.w3.org/2000/svg">
<rect opacity="0.3" width="300" height="35" fill="black"/>
<rect x="1" y="1" width="298" height="33" fill="#685454"/>
<path opacity="0.849" d="M149.999 9C154.963 9 159 13.0018 159 18C159 22.9655 154.963 27 149.999 27C145.037 27 141 22.9655 141 18C141 13.0018 145.037 9 149.999 9V9Z" fill="#0086C7"/>
<path opacity="0.95" fill-rule="evenodd" clip-rule="evenodd" d="M150 27C154.971 27 159 22.9706 159 18C159 13.0294 154.971 9 150 9C145.029 9 141 13.0294 141 18C141 22.9706 145.029 27 150 27ZM150 28C155.523 28 160 23.5228 160 18C160 12.4772 155.523 8 150 8C144.477 8 140 12.4772 140 18C140 23.5228 144.477 28 150 28Z" fill="#5FB7ED"/>
<path d="M154.658 13.9742C154.92 13.8869 155.062 13.6037 154.974 13.3418C154.887 13.0798 154.604 12.9382 154.342 13.0255L145.342 16.0255C145.08 16.1129 144.938 16.396 145.026 16.658C145.113 16.92 145.396 17.0616 145.658 16.9742L154.658 13.9742Z" fill="white"/>
<path fill-rule="evenodd" clip-rule="evenodd" d="M148 18.5C148 17.6716 148.672 17 149.5 17H153.5C154.328 17 155 17.6716 155 18.5V22C155 22.5523 154.552 23 154 23H149C148.448 23 148 22.5523 148 22V18.5ZM149 18H154V21H149V18Z" fill="white"/>
<path opacity="0.5" d="M152 15.9146C152.583 15.7087 153 15.1531 153 14.5C153 13.6716 152.328 13 151.5 13C150.672 13 150 13.6716 150 14.5C150 15.1531 150.417 15.7087 151 15.9146V17H152V15.9146Z" fill="white"/>
</svg>
