<svg width="300" height="35" viewBox="0 0 300 35" fill="none" xmlns="http://www.w3.org/2000/svg">
<rect opacity="0.3" width="300" height="35" fill="black"/>
<rect x="1" y="1" width="298" height="33" fill="#0A0D14"/>
<path d="M145.566 20.3126L144.939 20.9393C144.354 21.5251 144.354 22.4749 144.939 23.0607C145.525 23.6464 146.475 23.6464 147.061 23.0607L147.687 22.4339C147.954 22.573 148.234 22.6889 148.526 22.7789C148.657 23.474 149.267 24 150 24C150.733 24 151.343 23.474 151.474 22.7789C151.766 22.6889 152.046 22.573 152.313 22.4339L152.939 23.0607C153.525 23.6464 154.475 23.6464 155.061 23.0607C155.646 22.4749 155.646 21.5251 155.061 20.9393L154.434 20.3126C154.573 20.0464 154.689 19.766 154.779 19.4741C155.474 19.3434 156 18.7331 156 18C156 17.2669 155.474 16.6566 154.779 16.5259C154.689 16.234 154.573 15.9536 154.434 15.6874L155.061 15.0607C155.646 14.4749 155.646 13.5251 155.061 12.9393C154.475 12.3536 153.525 12.3536 152.939 12.9393L152.313 13.5661C152.046 13.427 151.766 13.3111 151.474 13.2211C151.343 12.526 150.733 12 150 12C149.267 12 148.657 12.526 148.526 13.2211C148.234 13.3111 147.954 13.427 147.687 13.5661L147.061 12.9393C146.475 12.3536 145.525 12.3536 144.939 12.9393C144.354 13.5251 144.354 14.4749 144.939 15.0607L145.566 15.6874C145.427 15.9536 145.311 16.234 145.221 16.5259C144.526 16.6566 144 17.2669 144 18C144 18.7331 144.526 19.3434 145.221 19.4741C145.311 19.766 145.427 20.0464 145.566 20.3126Z" fill="#FEFEFE"/>
<path fill-rule="evenodd" clip-rule="evenodd" d="M150.5 13.5C150.5 13.2239 150.276 13 150 13C149.724 13 149.5 13.2239 149.5 13.5V14.0309C148.77 14.122 148.1 14.41 147.547 14.8401L146.354 13.6464C146.158 13.4512 145.842 13.4512 145.646 13.6464C145.451 13.8417 145.451 14.1583 145.646 14.3536L146.84 15.5472C146.41 16.1004 146.122 16.7696 146.031 17.5H145.5C145.224 17.5 145 17.7239 145 18C145 18.2761 145.224 18.5 145.5 18.5H146.031C146.122 19.2304 146.41 19.8996 146.84 20.4528L145.646 21.6464C145.451 21.8417 145.451 22.1583 145.646 22.3536C145.842 22.5488 146.158 22.5488 146.354 22.3536L147.547 21.1599C148.1 21.59 148.77 21.878 149.5 21.9691V22.5C149.5 22.7761 149.724 23 150 23C150.276 23 150.5 22.7761 150.5 22.5V21.9691C151.23 21.878 151.9 21.59 152.453 21.1599L153.646 22.3536C153.842 22.5488 154.158 22.5488 154.354 22.3536C154.549 22.1583 154.549 21.8417 154.354 21.6464L153.16 20.4528C153.59 19.8996 153.878 19.2304 153.969 18.5H154.5C154.776 18.5 155 18.2761 155 18C155 17.7239 154.776 17.5 154.5 17.5H153.969C153.878 16.7696 153.59 16.1004 153.16 15.5472L154.354 14.3536C154.549 14.1583 154.549 13.8417 154.354 13.6464C154.158 13.4512 153.842 13.4512 153.646 13.6464L152.453 14.8401C151.9 14.41 151.23 14.122 150.5 14.0309V13.5ZM150 21C148.343 21 147 19.6569 147 18C147 16.3431 148.343 15 150 15C151.657 15 153 16.3431 153 18C153 19.6569 151.657 21 150 21Z" fill="#3F3F3F"/>
<circle opacity="0.1" cx="150" cy="18" r="3" fill="#3F3F3F"/>
</svg>
