<svg width="300" height="35" viewBox="0 0 300 35" fill="none" xmlns="http://www.w3.org/2000/svg">
<rect opacity="0.3" width="300" height="35" fill="black"/>
<rect x="1" y="1" width="298" height="33" fill="#D4AAAA"/>
<path opacity="0.949" d="M149.999 9C154.963 9 159 13.0018 159 18C159 22.9655 154.963 27 149.999 27C145.037 27 141 22.9655 141 18C141 13.0018 145.037 9 149.999 9V9Z" fill="#45ABE9"/>
<path opacity="0.95" fill-rule="evenodd" clip-rule="evenodd" d="M150 27C154.971 27 159 22.9706 159 18C159 13.0294 154.971 9 150 9C145.029 9 141 13.0294 141 18C141 22.9706 145.029 27 150 27ZM150 28C155.523 28 160 23.5228 160 18C160 12.4772 155.523 8 150 8C144.477 8 140 12.4772 140 18C140 23.5228 144.477 28 150 28Z" fill="#1578B3"/>
<path fill-rule="evenodd" clip-rule="evenodd" d="M152.293 13H151.975C151.859 12.4294 151.355 12 150.75 12H149.25C148.645 12 148.141 12.4294 148.025 13H147.707C147.254 13 146.82 13.1799 146.5 13.5C146.18 13.8201 146 14.2544 146 14.7071V21C146 21.5523 146.448 22 147 22H153C153.552 22 154 21.5523 154 21V14.7071C154 14.2544 153.82 13.8201 153.5 13.5C153.18 13.1799 152.746 13 152.293 13ZM149 13.5C149 13.2239 149.224 13 149.5 13H150.5C150.776 13 151 13.2239 151 13.5C151 13.7761 150.776 14 150.5 14H149.5C149.224 14 149 13.7761 149 13.5ZM149.5 16H147V19H149.5V16ZM153 16H150.5V19H153V16ZM148 20.5C148 20.7761 147.776 21 147.5 21C147.224 21 147 20.7761 147 20.5C147 20.2239 147.224 20 147.5 20C147.776 20 148 20.2239 148 20.5ZM152.5 21C152.776 21 153 20.7761 153 20.5C153 20.2239 152.776 20 152.5 20C152.224 20 152 20.2239 152 20.5C152 20.7761 152.224 21 152.5 21Z" fill="white"/>
<path opacity="0.5" d="M147.5 21H148.5L147.833 23H152.167L151.5 21H152.5L153.5 24H146.5L147.5 21Z" fill="white"/>
</svg>
