<svg width="300" height="35" viewBox="0 0 300 35" fill="none" xmlns="http://www.w3.org/2000/svg">
<rect width="300" height="35" fill="#448888" fill-opacity="0.53"/>
<path opacity="0.95" fill-rule="evenodd" clip-rule="evenodd" d="M154 10H146C143.791 10 142 11.7909 142 14V22C142 24.2091 143.791 26 146 26H154C156.209 26 158 24.2091 158 22V14C158 11.7909 156.209 10 154 10ZM146 9C143.239 9 141 11.2386 141 14V22C141 24.7614 143.239 27 146 27H154C156.761 27 159 24.7614 159 22V14C159 11.2386 156.761 9 154 9H146Z" fill="#5FB7ED"/>
<rect opacity="0.85" x="142" y="10" width="16" height="16" rx="4" fill="#0086C7"/>
<path fill-rule="evenodd" clip-rule="evenodd" d="M147.707 13C147.254 13 146.82 13.1799 146.5 13.5C146.18 13.8201 146 14.2544 146 14.7071V15V21C146 21.3701 146.201 21.6933 146.5 21.8662V22.25C146.5 22.6642 146.836 23 147.25 23C147.664 23 148 22.6642 148 22.25V22H152V22.25C152 22.6642 152.336 23 152.75 23C153.164 23 153.5 22.6642 153.5 22.25V21.8662C153.799 21.6933 154 21.3701 154 21V15V14.7071C154 14.2544 153.82 13.8201 153.5 13.5C153.18 13.1799 152.746 13 152.293 13H147.707ZM148 14.5C148 14.2239 148.224 14 148.5 14H151.5C151.776 14 152 14.2239 152 14.5C152 14.7761 151.776 15 151.5 15H148.5C148.224 15 148 14.7761 148 14.5ZM147 16H153V19H147V16ZM148 20.5C148 20.7761 147.776 21 147.5 21C147.224 21 147 20.7761 147 20.5C147 20.2239 147.224 20 147.5 20C147.776 20 148 20.2239 148 20.5ZM152.5 21C152.776 21 153 20.7761 153 20.5C153 20.2239 152.776 20 152.5 20C152.224 20 152 20.2239 152 20.5C152 20.7761 152.224 21 152.5 21Z" fill="white"/>
<path fill-rule="evenodd" clip-rule="evenodd" d="M147.707 13C147.254 13 146.82 13.1799 146.5 13.5C146.18 13.8201 146 14.2544 146 14.7071V21C146 21.3701 146.201 21.6933 146.5 21.8662V22.25C146.5 22.6642 146.836 23 147.25 23C147.664 23 148 22.6642 148 22.25V22H152V22.25C152 22.6642 152.336 23 152.75 23C153.164 23 153.5 22.6642 153.5 22.25V21.8662C153.799 21.6933 154 21.3701 154 21V14.7071C154 14.2544 153.82 13.8201 153.5 13.5C153.18 13.1799 152.746 13 152.293 13H147.707ZM148 14.5C148 14.2239 148.224 14 148.5 14H151.5C151.776 14 152 14.2239 152 14.5C152 14.7761 151.776 15 151.5 15H148.5C148.224 15 148 14.7761 148 14.5ZM147 16H153V19H147V16ZM148 20.5C148 20.7761 147.776 21 147.5 21C147.224 21 147 20.7761 147 20.5C147 20.2239 147.224 20 147.5 20C147.776 20 148 20.2239 148 20.5ZM152.5 21C152.776 21 153 20.7761 153 20.5C153 20.2239 152.776 20 152.5 20C152.224 20 152 20.2239 152 20.5C152 20.7761 152.224 21 152.5 21Z" fill="white"/>
</svg>
