<svg width="300" height="40" viewBox="0 0 300 40" fill="none" xmlns="http://www.w3.org/2000/svg" version="1.1" id="svg8" style="fill:none">

<g transform="translate(130.000000, 0.000000) scale(2.000000 2.000000) "> 

<path opacity="0.956" d="M9.9994 1C14.9626 1 19 5.00182 19 10C19 14.9655 14.9626 19 9.9994 19C5.03739 19 1 14.9655 1 10C1 5.00182 5.03739 1 9.9994 1Z" fill="#CF87E1"/>
<path opacity="0.95" fill-rule="evenodd" clip-rule="evenodd" d="M10 19C14.9706 19 19 14.9706 19 10C19 5.02944 14.9706 1 10 1C5.02944 1 1 5.02944 1 10C1 14.9706 5.02944 19 10 19ZM10 20C15.5228 20 20 15.5228 20 10C20 4.47715 15.5228 0 10 0C4.47715 0 0 4.47715 0 10C0 15.5228 4.47715 20 10 20Z" fill="#BA37DD"/>

</g>%n%n
<g transform="translate(138.000000, 8.000000) scale(0.500000 0.500000) "> 
<path d="M13.53 14.88A34.42 34.42 0 0 1 37.13 4a3.09 3.09 0 1 1 .27 6.17A28.04 28.04 0 0 0 18 19.12 28.04 28.04 0 0 0 10.18 39a3.09 3.09 0 1 1-6.17.08 34.5 34.5 0 0 1 9.53-24.2zM21 21.94a24.54 24.54 0 0 1 17.2-7.66 3.09 3.09 0 0 1 .18 6.17 18.29 18.29 0 0 0-17.9 18.94 3.09 3.09 0 1 1-6.16.18A24.6 24.6 0 0 1 21 21.94zM28.44 29a14.48 14.48 0 0 1 10.76-4.57 3.09 3.09 0 1 1-.1 6.18 8.51 8.51 0 0 0-6.18 2.62 8.53 8.53 0 0 0-2.27 6.33 3.09 3.09 0 1 1-6.16.45A14.51 14.51 0 0 1 28.44 29zm6.72 6.35a5.15 5.15 0 0 1 7.25-.2 5.16 5.16 0 0 1 .2 7.25 5.15 5.15 0 0 1-7.25.2 5.16 5.16 0 0 1-.2-7.25z" id="path6" style="fill:#fff;fill-opacity:1;stroke-width:1"/>
</g>%n%n</svg>