<svg width="300" height="35" viewBox="0 0 300 35" fill="none" xmlns="http://www.w3.org/2000/svg">

<g transform="translate(135.000000, 2.000000) scale(1.500000 1.500000) "> 

<path opacity="0.956" d="M9.9994 1C14.9626 1 19 5.00182 19 10C19 14.9655 14.9626 19 9.9994 19C5.03739 19 1 14.9655 1 10C1 5.00182 5.03739 1 9.9994 1Z" fill="#CF87E1"/>
<path opacity="0.95" fill-rule="evenodd" clip-rule="evenodd" d="M10 19C14.9706 19 19 14.9706 19 10C19 5.02944 14.9706 1 10 1C5.02944 1 1 5.02944 1 10C1 14.9706 5.02944 19 10 19ZM10 20C15.5228 20 20 15.5228 20 10C20 4.47715 15.5228 0 10 0C4.47715 0 0 4.47715 0 10C0 15.5228 4.47715 20 10 20Z" fill="#BA37DD"/>

</g>


<g transform="translate(141.000000, 8.000000) scale(0.031034 0.031034) "> 

<path d="M45.998 46V270.429H268.003V46H45.998ZM64.1614 119.481L119.92 64.362H150.305L64.1614 149.516V119.481ZM64.1614 180.134V165.116L166.085 64.362H181.277L64.1614 180.134ZM251.08 183.312L186.124 251.612H168.671L251.081 164.96V183.312H251.08Z" fill="#ffffff"/>
<path d="M311.998 46V270.429H534.003V46H311.998ZM330.161 119.481L385.92 64.362H416.305L330.161 149.516V119.481ZM330.161 180.134V165.116L432.085 64.362H447.277L330.161 180.134ZM517.08 183.312L452.124 251.612H434.671L517.081 164.96V183.312H517.08Z" fill="#ffffff"/>
<path d="M45.998 313V537.429H268.003V313H45.998ZM64.1614 386.481L119.92 331.362H150.305L64.1614 416.516V386.481ZM64.1614 447.134V432.116L166.085 331.362H181.277L64.1614 447.134ZM251.08 450.312L186.124 518.612H168.671L251.081 431.96V450.312H251.08Z" fill="#ffffff"/>
<path d="M311.998 313V537.429H534.003V313H311.998ZM330.161 386.481L385.92 331.362H416.305L330.161 416.516V386.481ZM330.161 447.134V432.116L432.085 331.362H447.277L330.161 447.134ZM517.08 450.312L452.124 518.612H434.671L517.081 431.96V450.312H517.08Z" fill="#ffffff"/>

</g>

</svg>