<svg width="300" height="40" viewBox="0 0 300 40" fill="none" xmlns="http://www.w3.org/2000/svg" xmlns:xlink="http://www.w3.org/1999/xlink">

<g transform="translate(130.000000, 0.000000) scale(2.000000 2.000000) "> 

<path opacity="0.956" d="M9.9994 1C14.9626 1 19 5.00182 19 10C19 14.9655 14.9626 19 9.9994 19C5.03739 19 1 14.9655 1 10C1 5.00182 5.03739 1 9.9994 1Z" fill="#CF87E1"/>
<path opacity="0.95" fill-rule="evenodd" clip-rule="evenodd" d="M10 19C14.9706 19 19 14.9706 19 10C19 5.02944 14.9706 1 10 1C5.02944 1 1 5.02944 1 10C1 14.9706 5.02944 19 10 19ZM10 20C15.5228 20 20 15.5228 20 10C20 4.47715 15.5228 0 10 0C4.47715 0 0 4.47715 0 10C0 15.5228 4.47715 20 10 20Z" fill="#BA37DD"/>

</g>%n%n
<g transform="translate(138.000000, 8.000000) scale(0.750000 0.750000) "> 

<path fill-rule="nonzero" fill="rgb(100%, 100%, 100%)" fill-opacity="1" d="M 22.667969 2.667969 C 20.457031 2.667969 18.667969 4.457031 18.667969 6.667969 C 18.667969 8.875 20.457031 10.667969 22.667969 10.667969 C 23.136719 10.667969 23.589844 10.585938 24.011719 10.433594 C 24.003906 10.511719 24 10.589844 24 10.667969 C 24 12.140625 25.195312 13.332031 26.667969 13.332031 C 28.140625 13.332031 29.332031 12.140625 29.332031 10.667969 C 29.332031 9.195312 28.140625 8 26.667969 8 C 26.589844 8 26.511719 8.003906 26.433594 8.011719 C 26.585938 7.589844 26.667969 7.136719 26.667969 6.667969 C 26.667969 4.457031 24.875 2.667969 22.667969 2.667969 Z M 22.667969 2.667969 "/>
<path fill-rule="nonzero" fill="rgb(100%, 100%, 100%)" fill-opacity="1" d="M 28 13.332031 C 28.738281 13.332031 29.332031 13.929688 29.332031 14.667969 C 29.332031 15.402344 28.738281 16 28 16 C 27.261719 16 26.667969 15.402344 26.667969 14.667969 C 26.667969 13.929688 27.261719 13.332031 28 13.332031 Z M 28 13.332031 "/>
<path fill-rule="evenodd" fill="rgb(100%, 100%, 100%)" fill-opacity="1" d="M 5.332031 20 L 2.667969 20 L 2.667969 22.667969 L 5.332031 22.667969 L 8 24 L 24 24 L 24 18.667969 L 8 18.667969 Z M 21.332031 19.332031 C 21.703125 19.332031 22 19.632812 22 20 L 22 20.667969 L 22.667969 20.667969 C 23.035156 20.667969 23.332031 20.964844 23.332031 21.332031 C 23.332031 21.703125 23.035156 22 22.667969 22 L 22 22 L 22 22.667969 C 22 23.035156 21.703125 23.332031 21.332031 23.332031 C 20.964844 23.332031 20.667969 23.035156 20.667969 22.667969 L 20.667969 22 L 20 22 C 19.632812 22 19.332031 21.703125 19.332031 21.332031 C 19.332031 20.964844 19.632812 20.667969 20 20.667969 L 20.667969 20.667969 L 20.667969 20 C 20.667969 19.632812 20.964844 19.332031 21.332031 19.332031 Z M 6 21.332031 C 6 20.964844 6.296875 20.667969 6.667969 20.667969 L 9.332031 20.667969 C 9.703125 20.667969 10 20.964844 10 21.332031 C 10 21.703125 9.703125 22 9.332031 22 L 6.667969 22 C 6.296875 22 6 21.703125 6 21.332031 Z M 6 21.332031 "/>
<path fill-rule="nonzero" fill="rgb(100%, 100%, 100%)" fill-opacity="1" d="M 32 20 L 25.332031 20 L 25.332031 22.667969 L 32 22.667969 Z M 32 20 "/>

</g>%n%n</svg>