<svg width="300" height="40" viewBox="0 0 300 40" fill="none" xmlns="http://www.w3.org/2000/svg" xmlns:xlink="http://www.w3.org/1999/xlink">

<g transform="translate(130.000000, 0.000000) scale(2.000000 2.000000) "> 

<path opacity="0.956" d="M9.9994 1C14.9626 1 19 5.00182 19 10C19 14.9655 14.9626 19 9.9994 19C5.03739 19 1 14.9655 1 10C1 5.00182 5.03739 1 9.9994 1Z" fill="#CF87E1"/>
<path opacity="0.95" fill-rule="evenodd" clip-rule="evenodd" d="M10 19C14.9706 19 19 14.9706 19 10C19 5.02944 14.9706 1 10 1C5.02944 1 1 5.02944 1 10C1 14.9706 5.02944 19 10 19ZM10 20C15.5228 20 20 15.5228 20 10C20 4.47715 15.5228 0 10 0C4.47715 0 0 4.47715 0 10C0 15.5228 4.47715 20 10 20Z" fill="#BA37DD"/>

</g>%n%n
<g transform="translate(138.000000, 8.000000) scale(2.000000 2.000000) "> 

<path fill-rule="evenodd" fill="rgb(100%, 100%, 100%)" fill-opacity="1" d="M 8.691406 1.007812 L 7.769531 1.929688 L 7.160156 2.128906 C 7.714844 2.230469 8.4375 2.667969 8.835938 3.0625 C 9.230469 3.460938 9.65625 4.15625 9.789062 4.78125 L 9.949219 4.152344 L 10.945312 3.042969 L 10.945312 1.007812 Z M 4.695312 9.898438 C 4.046875 9.746094 3.410156 9.289062 3.011719 8.886719 C 2.613281 8.488281 2.21875 7.867188 2.066406 7.300781 L 1.871094 7.824219 L 1.054688 8.640625 L 1.058594 10.988281 L 3.109375 10.992188 L 4.054688 10.046875 Z M 4.695312 9.898438 "/>
<path fill-rule="evenodd" fill="rgb(100%, 100%, 100%)" fill-opacity="1" d="M 5.964844 2.726562 C 5.097656 2.726562 4.265625 3.070312 3.652344 3.683594 C 3.039062 4.296875 2.695312 5.128906 2.695312 5.996094 C 2.695312 6.863281 3.039062 7.695312 3.652344 8.308594 C 4.265625 8.921875 5.097656 9.265625 5.964844 9.265625 C 6.832031 9.265625 7.664062 8.921875 8.277344 8.308594 C 8.890625 7.695312 9.234375 6.863281 9.234375 5.996094 C 9.234375 5.128906 8.890625 4.296875 8.277344 3.683594 C 7.664062 3.070312 6.832031 2.726562 5.964844 2.726562 Z M 5.964844 3.488281 C 6.292969 3.488281 6.621094 3.554688 6.925781 3.679688 C 7.230469 3.804688 7.507812 3.988281 7.738281 4.222656 C 7.972656 4.457031 8.15625 4.730469 8.28125 5.035156 C 8.410156 5.339844 8.472656 5.667969 8.472656 5.996094 C 8.472656 6.324219 8.410156 6.652344 8.28125 6.957031 C 8.15625 7.261719 7.972656 7.539062 7.738281 7.769531 C 7.507812 8.003906 7.230469 8.1875 6.925781 8.3125 C 6.621094 8.441406 6.292969 8.503906 5.964844 8.503906 C 5.636719 8.503906 5.308594 8.441406 5.003906 8.3125 C 4.703125 8.1875 4.425781 8.003906 4.191406 7.769531 C 3.957031 7.539062 3.773438 7.261719 3.648438 6.957031 C 3.523438 6.652344 3.457031 6.324219 3.457031 5.996094 C 3.457031 5.667969 3.523438 5.339844 3.648438 5.035156 C 3.773438 4.730469 3.957031 4.457031 4.191406 4.222656 C 4.425781 3.988281 4.703125 3.804688 5.003906 3.679688 C 5.308594 3.554688 5.636719 3.488281 5.964844 3.488281 Z M 5.964844 3.488281 "/>
<path fill="none" stroke-width="30" stroke-linecap="butt" stroke-linejoin="miter" stroke="rgb(100%, 100%, 100%)" stroke-opacity="1" stroke-miterlimit="4" d="M 288.111979 196.542969 L 288.489583 290.566406 L 339.088542 311.71224 " transform="matrix(0.0206897, 0, 0, 0.0206897, 0, 0)"/>

</g>%n%n</svg>