<svg width="300" height="40" viewBox="0 0 300 40" fill="none" xmlns="http://www.w3.org/2000/svg" xmlns:xlink="http://www.w3.org/1999/xlink" version="1.1">

<g transform="translate(130.000000, 0.000000) scale(2.000000 2.000000) "> 

<path opacity="0.956" d="M9.9994 1C14.9626 1 19 5.00182 19 10C19 14.9655 14.9626 19 9.9994 19C5.03739 19 1 14.9655 1 10C1 5.00182 5.03739 1 9.9994 1Z" fill="#CF87E1"/>
<path opacity="0.95" fill-rule="evenodd" clip-rule="evenodd" d="M10 19C14.9706 19 19 14.9706 19 10C19 5.02944 14.9706 1 10 1C5.02944 1 1 5.02944 1 10C1 14.9706 5.02944 19 10 19ZM10 20C15.5228 20 20 15.5228 20 10C20 4.47715 15.5228 0 10 0C4.47715 0 0 4.47715 0 10C0 15.5228 4.47715 20 10 20Z" fill="#BA37DD"/>

</g>%n%n
<g transform="translate(138.000000, 8.000000) scale(2.000000 2.000000) "> 

<g id="surface1">
<path style=" stroke:none;fill-rule:nonzero;fill:rgb(100%,100%,100%);fill-opacity:1;" d="M 10.257812 5.527344 L 8.128906 5.527344 L 8.128906 5.054688 L 10.257812 5.054688 L 10.257812 4.105469 L 8.839844 4.105469 L 8.839844 3.632812 L 10.257812 3.632812 L 10.257812 2.6875 L 8.128906 2.6875 L 8.128906 2.214844 L 10.257812 2.214844 L 10.257812 1.03125 L 6 1.03125 L 6 10.96875 L 10.257812 10.96875 L 10.257812 9.785156 L 8.839844 9.785156 L 8.839844 9.3125 L 10.257812 9.3125 L 10.257812 8.367188 L 8.128906 8.367188 L 8.128906 7.894531 L 10.257812 7.894531 L 10.257812 6.945312 L 8.839844 6.945312 L 8.839844 6.472656 L 10.257812 6.472656 Z M 10.257812 5.527344 "/>
<path style=" stroke:none;fill-rule:nonzero;fill:rgb(100%,100%,100%);fill-opacity:1;" d="M 4.242188 2.449219 L 3.601562 1.144531 C 3.515625 1.003906 3.277344 1.003906 3.195312 1.144531 L 2.554688 2.449219 Z M 4.242188 2.449219 "/>
<path style=" stroke:none;fill-rule:nonzero;fill:rgb(100%,100%,100%);fill-opacity:1;" d="M 5.019531 3.511719 L 3.601562 1.144531 C 3.515625 1.003906 3.277344 1.003906 3.195312 1.144531 L 1.773438 3.511719 C 1.75 3.546875 1.738281 3.589844 1.738281 3.632812 L 1.738281 9.785156 C 1.738281 10.4375 2.269531 10.96875 2.921875 10.96875 L 3.871094 10.96875 C 4.523438 10.96875 5.054688 10.4375 5.054688 9.785156 L 5.054688 3.632812 C 5.054688 3.589844 5.042969 3.546875 5.019531 3.511719 Z M 3.398438 1.726562 L 4.398438 3.398438 L 2.394531 3.398438 Z M 2.921875 9.550781 L 2.449219 9.550781 L 2.449219 3.871094 L 2.921875 3.871094 Z M 4.34375 9.550781 L 3.871094 9.550781 L 3.871094 3.871094 L 4.34375 3.871094 Z M 4.34375 9.550781 "/>
</g>

</g>%n%n</svg>