<svg width="300" height="40" viewBox="0 0 300 40" fill="none" xmlns="http://www.w3.org/2000/svg" xmlns:xlink="http://www.w3.org/1999/xlink">

<g transform="translate(130.000000, 0.000000) scale(2.000000 2.000000) "> 

<path opacity="0.956" d="M9.9994 1C14.9626 1 19 5.00182 19 10C19 14.9655 14.9626 19 9.9994 19C5.03739 19 1 14.9655 1 10C1 5.00182 5.03739 1 9.9994 1Z" fill="#CF87E1"/>
<path opacity="0.95" fill-rule="evenodd" clip-rule="evenodd" d="M10 19C14.9706 19 19 14.9706 19 10C19 5.02944 14.9706 1 10 1C5.02944 1 1 5.02944 1 10C1 14.9706 5.02944 19 10 19ZM10 20C15.5228 20 20 15.5228 20 10C20 4.47715 15.5228 0 10 0C4.47715 0 0 4.47715 0 10C0 15.5228 4.47715 20 10 20Z" fill="#BA37DD"/>

</g>%n%n
<g transform="translate(138.000000, 8.000000) scale(2.000000 2.000000) "> 

<path fill-rule="evenodd" fill="rgb(100%, 100%, 100%)" fill-opacity="1" d="M 6.5 1.5 C 6.5 1.222656 6.277344 1 6 1 C 5.722656 1 5.5 1.222656 5.5 1.5 L 5.5 2.125 C 3.921875 2.539062 2.453125 3.078125 2.085938 5.003906 C 1.984375 5.546875 2.449219 6 3 6 L 3 7 C 3 9.277344 4.042969 9.832031 4.996094 10.335938 C 5.367188 10.53125 5.722656 10.722656 6 11 C 6.273438 10.726562 6.625 10.527344 6.988281 10.320312 C 7.949219 9.773438 9 9.175781 9 7 L 9 6 C 9.550781 6 10.015625 5.546875 9.914062 5.003906 C 9.546875 3.078125 8.078125 2.539062 6.5 2.125 Z M 4 7 L 4 6 L 8 6 L 8 7 C 8 7.640625 7.894531 8.050781 7.765625 8.328125 C 7.640625 8.601562 7.46875 8.796875 7.25 8.96875 C 7.035156 9.140625 6.796875 9.277344 6.488281 9.453125 L 6.394531 9.507812 C 6.273438 9.578125 6.136719 9.65625 5.992188 9.746094 C 5.847656 9.65625 5.707031 9.582031 5.582031 9.515625 L 5.46875 9.457031 C 5.164062 9.292969 4.941406 9.175781 4.734375 9.015625 C 4.527344 8.855469 4.363281 8.671875 4.238281 8.402344 C 4.109375 8.117188 4 7.683594 4 7 Z M 4 7 "/>

</g>%n%n</svg>