<svg width="300" height="35" viewBox="0 0 300 35" fill="none" xmlns="http://www.w3.org/2000/svg">

<g transform="translate(135.000000, 2.000000) scale(1.500000 1.500000) "> 

<path opacity="0.956" d="M9.9994 1C14.9626 1 19 5.00182 19 10C19 14.9655 14.9626 19 9.9994 19C5.03739 19 1 14.9655 1 10C1 5.00182 5.03739 1 9.9994 1Z" fill="#CF87E1"/>
<path opacity="0.95" fill-rule="evenodd" clip-rule="evenodd" d="M10 19C14.9706 19 19 14.9706 19 10C19 5.02944 14.9706 1 10 1C5.02944 1 1 5.02944 1 10C1 14.9706 5.02944 19 10 19ZM10 20C15.5228 20 20 15.5228 20 10C20 4.47715 15.5228 0 10 0C4.47715 0 0 4.47715 0 10C0 15.5228 4.47715 20 10 20Z" fill="#BA37DD"/>

</g>


<g transform="translate(141.000000, 8.000000) scale(0.375000 0.375000) "> 

<path fill-rule="evenodd" clip100-rule="evenodd" d="M12 4C9.79086 4 8 5.79086 8 8V40C8 42.2091 9.79086 44 12 44H36C38.2091 44 40 42.2091 40 40V8C40 5.79086 38.2091 4 36 4H12ZM36 8H12V28H16V30C16 31.1046 16.8954 32 18 32C19.1046 32 20 31.1046 20 30V28H28V30C28 31.1046 28.8954 32 30 32C31.1046 32 32 31.1046 32 30V28H36V8Z" fill="#ffffff"/>
<g opacity="0.7">
<path d="M24 20C26.2091 20 28 18.2091 28 16C28 13.7909 26.2091 12 24 12C21.7909 12 20 13.7909 20 16C20 18.2091 21.7909 20 24 20Z" fill="#ffffff"/>
<path d="M24 20H28C30.2091 20 32 21.7909 32 24V30C32 31.1046 31.1046 32 30 32C28.8954 32 28 31.1046 28 30V28H20V30C20 31.1046 19.1046 32 18 32C16.8954 32 16 31.1046 16 30V24C16 21.7909 17.7909 20 20 20H24Z" fill="#ffffff"/>
</g>

</g>

</svg>