<svg width="300" height="35" viewBox="0 0 300 35" fill="none" xmlns="http://www.w3.org/2000/svg">

<g transform="translate(135.000000, 2.000000) scale(1.500000 1.500000) "> 

<path opacity="0.95" fill-rule="evenodd" clip-rule="evenodd" d="M10 19C14.9706 19 19 14.9706 19 10C19 5.02944 14.9706 1 10 1C5.02944 1 1 5.02944 1 10C1 14.9706 5.02944 19 10 19ZM10 20C15.5228 20 20 15.5228 20 10C20 4.47715 15.5228 0 10 0C4.47715 0 0 4.47715 0 10C0 15.5228 4.47715 20 10 20Z" fill="#B348CE"/>
<path opacity="0.956" d="M9.9994 1C14.9626 1 19 5.00182 19 10C19 14.9655 14.9626 19 9.9994 19C5.03739 19 1 14.9655 1 10C1 5.00182 5.03739 1 9.9994 1Z" fill="#7D2793"/>

</g>


<g transform="translate(141.000000, 8.000000) scale(0.375000 0.375000) "> 

<path d="M38 44L14 44C12.8954 44 12 43.1046 12 42C12 40.8954 12.8954 40 14 40H36L40 36L8 36L8 42C8 45.3137 10.6863 48 14 48L38 48C39.1046 48 40 47.1046 40 46C40 44.8954 39.1046 44 38 44Z" fill="#ffffff"/>
<path fill-rule="evenodd" clip100-rule="evenodd" d="M36 4C38.2091 4 40 5.79086 40 8V38C40 39.1046 39.1046 40 38 40H12C9.79086 40 8 38.2091 8 36L8 10C8 6.68629 10.6863 4 14 4L36 4ZM26 14H32L32 18H26L26 32H22L22 18H16V14H22L22 8H26L26 14Z" fill="#ffffff"/>
<path opacity="0.5" d="M12 40H38C39.1046 40 40 40.8954 40 42V42C40 43.1046 39.1046 44 38 44H12V40Z" fill="#ffffff"/>

</g>

</svg>