<svg width="300" height="40" viewBox="0 0 300 40" fill="none" xmlns="http://www.w3.org/2000/svg" xmlns:xlink="http://www.w3.org/1999/xlink" version="1.1">

<g transform="translate(130.000000, 0.000000) scale(2.000000 2.000000) "> 

<path opacity="0.956" d="M9.9994 1C14.9626 1 19 5.00182 19 10C19 14.9655 14.9626 19 9.9994 19C5.03739 19 1 14.9655 1 10C1 5.00182 5.03739 1 9.9994 1Z" fill="#CF87E1"/>
<path opacity="0.95" fill-rule="evenodd" clip-rule="evenodd" d="M10 19C14.9706 19 19 14.9706 19 10C19 5.02944 14.9706 1 10 1C5.02944 1 1 5.02944 1 10C1 14.9706 5.02944 19 10 19ZM10 20C15.5228 20 20 15.5228 20 10C20 4.47715 15.5228 0 10 0C4.47715 0 0 4.47715 0 10C0 15.5228 4.47715 20 10 20Z" fill="#BA37DD"/>

</g>%n%n
<g transform="translate(138.000000, 8.000000) scale(2.000000 2.000000) "> 

<defs>
<filter id="alpha" filterUnits="objectBoundingBox" x="0%" y="0%" width="100%" height="100%">
  <feColorMatrix type="matrix" in="SourceGraphic" values="0 0 0 0 1 0 0 0 0 1 0 0 0 0 1 0 0 0 1 0"/>
</filter>
<mask id="mask0">
  <g filter="url(#alpha)">
<rect x="0" y="0" width="12" height="12" style="fill:rgb(0%,0%,0%);fill-opacity:0.5;stroke:none;"/>
  </g>
</mask>
<clip100Path id="clip1001">
  <rect x="0" y="0" width="12" height="12"/>
</clip100Path>
<g id="surface5" clip100-path="url(#clip1001)">
<path style=" stroke:none;fill-rule:nonzero;fill:rgb(100%,100%,100%);fill-opacity:1;" d="M 1 3 L 7 3 L 7 7 L 1 7 Z M 1 3 "/>
<path style=" stroke:none;fill-rule:nonzero;fill:rgb(100%,100%,100%);fill-opacity:1;" d="M 3 8 L 5 8 L 5 9 L 3 9 Z M 3 8 "/>
<path style=" stroke:none;fill-rule:nonzero;fill:rgb(100%,100%,100%);fill-opacity:1;" d="M 10.5 4 C 10.777344 4 11 3.777344 11 3.5 C 11 3.222656 10.777344 3 10.5 3 C 10.222656 3 10 3.222656 10 3.5 C 10 3.777344 10.222656 4 10.5 4 Z M 10.5 4 "/>
</g>
</defs>
<g id="surface1">
<use xlink:href="#surface5" mask="url(#mask0)"/>
<path style=" stroke:none;fill-rule:evenodd;fill:rgb(100%,100%,100%);fill-opacity:1;" d="M 0.5 2 C 0.222656 2 0 2.222656 0 2.5 L 0 7.5 C 0 7.777344 0.222656 8 0.5 8 L 7.5 8 C 7.777344 8 8 7.777344 8 7.5 L 8 2.5 C 8 2.222656 7.777344 2 7.5 2 Z M 1 3 L 1 7 L 7 7 L 7 3 Z M 1 3 "/>
<path style=" stroke:none;fill-rule:nonzero;fill:rgb(100%,100%,100%);fill-opacity:1;" d="M 2 9 L 6 9 L 6 10 L 2 10 Z M 2 9 "/>
<path style=" stroke:none;fill-rule:evenodd;fill:rgb(100%,100%,100%);fill-opacity:1;" d="M 9 2.5 C 9 2.222656 9.222656 2 9.5 2 L 11.5 2 C 11.777344 2 12 2.222656 12 2.5 L 12 9.5 C 12 9.777344 11.777344 10 11.5 10 L 9.5 10 C 9.222656 10 9 9.777344 9 9.5 Z M 10 3.5 C 10 3.222656 10.222656 3 10.5 3 C 10.777344 3 11 3.222656 11 3.5 L 11 4.5 C 11 4.777344 10.777344 5 10.5 5 C 10.222656 5 10 4.777344 10 4.5 Z M 10 3.5 "/>
</g>

</g>%n%n</svg>