<svg width="300" height="40" viewBox="0 0 300 40" fill="none" xmlns="http://www.w3.org/2000/svg" xmlns:xlink="http://www.w3.org/1999/xlink" version="1.1">

<g transform="translate(130.000000, 0.000000) scale(2.000000 2.000000) "> 

<path opacity="0.956" d="M9.9994 1C14.9626 1 19 5.00182 19 10C19 14.9655 14.9626 19 9.9994 19C5.03739 19 1 14.9655 1 10C1 5.00182 5.03739 1 9.9994 1Z" fill="#CF87E1"/>
<path opacity="0.95" fill-rule="evenodd" clip-rule="evenodd" d="M10 19C14.9706 19 19 14.9706 19 10C19 5.02944 14.9706 1 10 1C5.02944 1 1 5.02944 1 10C1 14.9706 5.02944 19 10 19ZM10 20C15.5228 20 20 15.5228 20 10C20 4.47715 15.5228 0 10 0C4.47715 0 0 4.47715 0 10C0 15.5228 4.47715 20 10 20Z" fill="#BA37DD"/>

</g>%n%n
<g transform="translate(138.000000, 8.000000) scale(2.000000 2.000000) "> 

<g id="surface1">
<path style=" stroke:none;fill-rule:nonzero;fill:rgb(100%,100%,100%);fill-opacity:1;" d="M 2.5 0.5 C 2.5 0.5 1 2.148438 1 3.101562 C 1 3.898438 1.648438 4.5 2.5 4.5 C 3.351562 4.5 4 3.898438 4 3.101562 C 4 2.199219 2.5 0.5 2.5 0.5 Z M 2.5 0.5 "/>
<path style=" stroke:none;fill-rule:nonzero;fill:rgb(100%,100%,100%);fill-opacity:1;" d="M 3 5 L 3 11.5 L 9 11.5 L 9 6 L 8 5 Z M 3.5 5.5 L 7.5 5.5 L 7.5 6.5 L 8.5 6.5 L 8.5 11 L 3.5 11 Z M 3.5 5.5 "/>
<path style=" stroke:none;fill-rule:nonzero;fill:rgb(100%,100%,100%);fill-opacity:1;" d="M 3 7.5 C 2.449219 7.5 2 7.949219 2 8.5 L 2 9.5 C 2 10.050781 2.449219 10.5 3 10.5 L 3.5 10.5 L 3.5 10 L 8.5 10 L 8.5 10.5 L 9 10.5 C 9.550781 10.5 10 10.050781 10 9.5 L 10 8.5 C 10 7.949219 9.550781 7.5 9 7.5 L 8.5 7.5 L 8.5 8 L 3.5 8 L 3.5 7.5 Z M 9.25 9 C 9.386719 9 9.5 9.113281 9.5 9.25 C 9.5 9.386719 9.386719 9.5 9.25 9.5 C 9.113281 9.5 9 9.386719 9 9.25 C 9 9.113281 9.113281 9 9.25 9 Z M 9.25 9 "/>
<path style=" stroke:none;fill-rule:nonzero;fill:rgb(100%,100%,100%);fill-opacity:1;" d="M 4 7 L 7.5 7 L 7.5 7.5 L 4 7.5 Z M 4 7 "/>
<path style=" stroke:none;fill-rule:nonzero;fill:rgb(100%,100%,100%);fill-opacity:1;" d="M 4 6 L 7 6 L 7 6.5 L 4 6.5 Z M 4 6 "/>
<path style=" stroke:none;fill-rule:nonzero;fill:rgb(100%,100%,100%);fill-opacity:1;" d="M 6 0.5 C 6 0.5 4.5 2.148438 4.5 3.101562 C 4.5 3.898438 5.148438 4.5 6 4.5 C 6.851562 4.5 7.5 3.898438 7.5 3.101562 C 7.5 2.199219 6 0.5 6 0.5 Z M 6 0.5 "/>
<path style=" stroke:none;fill-rule:nonzero;fill:rgb(100%,100%,100%);fill-opacity:1;" d="M 9.5 0.5 C 9.5 0.5 8 2.148438 8 3.101562 C 8 3.898438 8.648438 4.5 9.5 4.5 C 10.351562 4.5 11 3.898438 11 3.101562 C 11 2.199219 9.5 0.5 9.5 0.5 Z M 9.5 0.5 "/>
</g>

</g>%n%n</svg>