<svg width="300" height="40" viewBox="0 0 300 40" fill="none" xmlns="http://www.w3.org/2000/svg" >

<g transform="translate(130.000000, 0.000000) scale(2.000000 2.000000) "> 

<path opacity="0.956" d="M9.9994 1C14.9626 1 19 5.00182 19 10C19 14.9655 14.9626 19 9.9994 19C5.03739 19 1 14.9655 1 10C1 5.00182 5.03739 1 9.9994 1Z" fill="#CF87E1"/>
<path opacity="0.95" fill-rule="evenodd" clip-rule="evenodd" d="M10 19C14.9706 19 19 14.9706 19 10C19 5.02944 14.9706 1 10 1C5.02944 1 1 5.02944 1 10C1 14.9706 5.02944 19 10 19ZM10 20C15.5228 20 20 15.5228 20 10C20 4.47715 15.5228 0 10 0C4.47715 0 0 4.47715 0 10C0 15.5228 4.47715 20 10 20Z" fill="#BA37DD"/>

</g>


<g transform="translate(138.000000, 8.000000) scale(0.041379 0.041379) "> 

<path d="M405.687 424.063L287.82 365.13L169.954 424.063L287.82 482.996L405.687 424.063Z" fill="#ffffff"/>
<path d="M547.833 352.136L429.967 293.203L312.101 352.136L429.967 411.069L547.833 352.136Z" fill="#ffffff"/>
<path d="M267.899 351.27L150.033 292.337L32.167 351.27L150.033 410.203L267.899 351.27Z" fill="#ffffff"/>
<path d="M409.167 281.937L291.301 223.004L173.435 281.937L291.301 340.87L409.167 281.937Z" fill="#ffffff"/>

</g>

</svg>