<svg width="300" height="40" viewBox="0 0 300 40" fill="none" xmlns="http://www.w3.org/2000/svg" xmlns:xlink="http://www.w3.org/1999/xlink">

<g transform="translate(130.000000, 0.000000) scale(2.000000 2.000000) "> 

<path opacity="0.956" d="M9.9994 1C14.9626 1 19 5.00182 19 10C19 14.9655 14.9626 19 9.9994 19C5.03739 19 1 14.9655 1 10C1 5.00182 5.03739 1 9.9994 1Z" fill="#CF87E1"/>
<path opacity="0.95" fill-rule="evenodd" clip-rule="evenodd" d="M10 19C14.9706 19 19 14.9706 19 10C19 5.02944 14.9706 1 10 1C5.02944 1 1 5.02944 1 10C1 14.9706 5.02944 19 10 19ZM10 20C15.5228 20 20 15.5228 20 10C20 4.47715 15.5228 0 10 0C4.47715 0 0 4.47715 0 10C0 15.5228 4.47715 20 10 20Z" fill="#BA37DD"/>

</g>%n%n
<g transform="translate(138.000000, 8.000000) scale(2.000000 2.000000) "> 

<path fill-rule="evenodd" fill="rgb(100%, 100%, 100%)" fill-opacity="1" d="M 9 11 L 1 11 L 1 3 C 1 1.894531 1.894531 1 3 1 L 9 1 C 9.742188 1 10.386719 1.402344 10.734375 2 L 10 2 C 9.449219 2 9 2.449219 9 3 Z M 3.855469 8.144531 C 3.660156 7.953125 3.339844 7.953125 3.144531 8.144531 L 2.144531 9.144531 C 1.953125 9.339844 1.953125 9.660156 2.144531 9.855469 C 2.339844 10.046875 2.660156 10.046875 2.855469 9.855469 L 3.5 9.207031 L 4.144531 9.855469 C 4.339844 10.046875 4.660156 10.046875 4.855469 9.855469 L 5.5 9.207031 L 6.144531 9.855469 C 6.339844 10.046875 6.660156 10.046875 6.855469 9.855469 L 7.855469 8.855469 C 8.046875 8.660156 8.046875 8.339844 7.855469 8.144531 C 7.660156 7.953125 7.339844 7.953125 7.144531 8.144531 L 6.5 8.792969 L 5.855469 8.144531 C 5.660156 7.953125 5.339844 7.953125 5.144531 8.144531 L 4.5 8.792969 Z M 3.855469 8.144531 "/>
<path fill-rule="nonzero" fill="rgb(100%, 100%, 100%)" fill-opacity="1" d="M 11 5 L 11 7.5 C 11 7.777344 10.777344 8 10.5 8 L 10 8 L 10 5 Z M 11 5 "/>
<path fill-rule="nonzero" fill="rgb(100%, 100%, 100%)" fill-opacity="1" d="M 11.5 3 L 10 3 L 10 4 L 11.5 4 C 11.777344 4 12 3.777344 12 3.5 C 12 3.222656 11.777344 3 11.5 3 Z M 11.5 3 "/>

</g>%n%n</svg>