<svg width="300" height="40" viewBox="0 0 300 40" fill="none" xmlns="http://www.w3.org/2000/svg" xmlns:xlink="http://www.w3.org/1999/xlink" version="1.1">

<g transform="translate(130.000000, 0.000000) scale(2.000000 2.000000) "> 

<path opacity="0.956" d="M9.9994 1C14.9626 1 19 5.00182 19 10C19 14.9655 14.9626 19 9.9994 19C5.03739 19 1 14.9655 1 10C1 5.00182 5.03739 1 9.9994 1Z" fill="#CF87E1"/>
<path opacity="0.95" fill-rule="evenodd" clip-rule="evenodd" d="M10 19C14.9706 19 19 14.9706 19 10C19 5.02944 14.9706 1 10 1C5.02944 1 1 5.02944 1 10C1 14.9706 5.02944 19 10 19ZM10 20C15.5228 20 20 15.5228 20 10C20 4.47715 15.5228 0 10 0C4.47715 0 0 4.47715 0 10C0 15.5228 4.47715 20 10 20Z" fill="#BA37DD"/>

</g>%n%n
<g transform="translate(138.000000, 8.000000) scale(2.000000 2.000000) "> 

<g id="surface1">
<path style=" stroke:none;fill-rule:nonzero;fill:rgb(100%,100%,100%);fill-opacity:1;" d="M 4.144531 8.402344 C 5.804688 8.402344 6.214844 8.199219 6.835938 7.886719 C 6.949219 7.828125 7.074219 7.769531 7.210938 7.703125 C 7.460938 7.589844 7.800781 7.378906 8.632812 7.367188 L 8.925781 7.363281 L 10.53125 7.371094 C 10.535156 7.371094 10.535156 7.371094 10.535156 7.371094 C 10.628906 7.371094 10.710938 7.308594 10.734375 7.21875 C 10.742188 7.191406 10.914062 6.742188 10.941406 5.945312 C 10.957031 5.421875 10.945312 4.828125 10.71875 4.390625 C 10.679688 4.324219 10.609375 4.28125 10.535156 4.28125 C 10.320312 4.28125 10.070312 4.390625 9.757812 4.527344 C 9.359375 4.703125 8.914062 4.898438 8.472656 4.898438 C 7.800781 4.898438 7.460938 4.3125 7.261719 3.871094 C 7.230469 3.796875 7.214844 3.761719 7.183594 3.730469 C 7.101562 3.640625 7.011719 3.597656 6.917969 3.597656 C 6.800781 3.597656 6.714844 3.664062 6.664062 3.734375 C 6.472656 3.90625 5.738281 5.074219 4.9375 5.476562 C 4.71875 5.585938 3.601562 5.96875 3.257812 6.050781 C 1.527344 6.296875 1.050781 7.324219 1.050781 7.324219 C 1.050781 7.324219 1.027344 7.585938 1.054688 7.785156 C 1.113281 8.238281 1.308594 8.402344 4.144531 8.402344 Z M 4.144531 8.402344 "/>
<path style=" stroke:none;fill-rule:nonzero;fill:rgb(100%,100%,100%);fill-opacity:1;" d="M 8.636719 7.78125 L 8.925781 7.773438 L 10.535156 7.785156 C 10.605469 7.785156 10.675781 7.769531 10.742188 7.75 L 10.742188 8.195312 C 10.742188 8.308594 10.648438 8.402344 10.535156 8.402344 L 8.265625 8.402344 C 8.152344 8.402344 8.0625 8.308594 8.0625 8.195312 L 8.0625 7.832031 C 8.214844 7.804688 8.402344 7.78125 8.636719 7.78125 Z M 8.636719 7.78125 "/>
</g>

</g>%n%n</svg>