<svg width="40" height="40" viewBox="0 0 40 40" fill="none" xmlns="http://www.w3.org/2000/svg" >

<g transform="translate(0.000000, 0.000000) scale(2.000000 2.000000) "> 

<path opacity="0.956" d="M9.9994 1C14.9626 1 19 5.00182 19 10C19 14.9655 14.9626 19 9.9994 19C5.03739 19 1 14.9655 1 10C1 5.00182 5.03739 1 9.9994 1Z" fill="#CF87E1"/>
<path opacity="0.95" fill-rule="evenodd" clip-rule="evenodd" d="M10 19C14.9706 19 19 14.9706 19 10C19 5.02944 14.9706 1 10 1C5.02944 1 1 5.02944 1 10C1 14.9706 5.02944 19 10 19ZM10 20C15.5228 20 20 15.5228 20 10C20 4.47715 15.5228 0 10 0C4.47715 0 0 4.47715 0 10C0 15.5228 4.47715 20 10 20Z" fill="#BA37DD"/>

</g>


<g transform="translate(8.000000, 8.000000) scale(0.500000 0.500000) "> 

<path fill-rule="evenodd" clip100-rule="evenodd" d="M31.332 27.9817L37.6569 21.6569C40.781 18.5327 40.781 13.4673 37.6569 10.3431C36.0951 8.7814 34.0483 8.00035 32.0014 8C32.0005 8 31.9995 8 31.9986 8C29.9517 8.00035 27.9049 8.7814 26.3431 10.3431L20.0183 16.668C20.3527 22.7636 25.2364 27.6473 31.332 27.9817ZM29.332 29.9817C23.2364 29.6473 18.3527 24.7636 18.0183 18.668L10.3431 26.3431C7.21895 29.4673 7.21895 34.5327 10.3431 37.6569C13.4673 40.781 18.5327 40.781 21.6569 37.6569L29.332 29.9817Z" fill="#ffffff"/>

</g>

</svg>