<svg width="300" height="40" viewBox="0 0 300 40" fill="none" xmlns="http://www.w3.org/2000/svg" xmlns:xlink="http://www.w3.org/1999/xlink">

<g transform="translate(130.000000, 0.000000) scale(2.000000 2.000000) "> 

<path opacity="0.956" d="M9.9994 1C14.9626 1 19 5.00182 19 10C19 14.9655 14.9626 19 9.9994 19C5.03739 19 1 14.9655 1 10C1 5.00182 5.03739 1 9.9994 1Z" fill="#CF87E1"/>
<path opacity="0.95" fill-rule="evenodd" clip-rule="evenodd" d="M10 19C14.9706 19 19 14.9706 19 10C19 5.02944 14.9706 1 10 1C5.02944 1 1 5.02944 1 10C1 14.9706 5.02944 19 10 19ZM10 20C15.5228 20 20 15.5228 20 10C20 4.47715 15.5228 0 10 0C4.47715 0 0 4.47715 0 10C0 15.5228 4.47715 20 10 20Z" fill="#BA37DD"/>

</g>%n%n
<g transform="translate(138.000000, 8.000000) scale(0.750000 0.750000) "> 

<path fill-rule="evenodd" fill="rgb(100%, 100%, 100%)" fill-opacity="1" d="M 2.667969 29.332031 L 5.777344 8.382812 C 6.488281 3.652344 8.890625 2.667969 12 2.667969 C 15.109375 2.667969 17.429688 3.601562 18.222656 8.382812 L 21.332031 29.332031 C 17.988281 26.519531 14.925781 27.082031 12 29.332031 C 8.835938 26.71875 5.726562 26.867188 2.667969 29.332031 Z M 14.667969 12 C 14.667969 9.789062 13.472656 8 12 8 C 10.527344 8 9.332031 9.789062 9.332031 12 C 9.332031 14.210938 10.527344 16 12 16 C 13.472656 16 14.667969 14.210938 14.667969 12 Z M 14.667969 12 "/>
<path fill-rule="nonzero" fill="rgb(100%, 100%, 100%)" fill-opacity="1" d="M 29.332031 29.332031 C 27.390625 27.699219 25.539062 27.203125 23.757812 27.515625 L 21.875 14.839844 C 22.363281 14.117188 22.664062 13.109375 22.664062 12 C 22.664062 10.261719 21.925781 8.785156 20.894531 8.230469 L 20.859375 7.988281 L 20.851562 7.945312 C 20.503906 5.84375 19.847656 4.074219 18.746094 2.730469 C 19.148438 2.6875 19.566406 2.667969 20 2.667969 C 23.109375 2.667969 25.429688 3.601562 26.222656 8.382812 Z M 29.332031 29.332031 "/>

</g>%n%n</svg>