<svg width="300" height="40" viewBox="0 0 300 40" fill="none" xmlns="http://www.w3.org/2000/svg" xmlns:xlink="http://www.w3.org/1999/xlink">

<g transform="translate(130.000000, 0.000000) scale(2.000000 2.000000) "> 

<path opacity="0.956" d="M9.9994 1C14.9626 1 19 5.00182 19 10C19 14.9655 14.9626 19 9.9994 19C5.03739 19 1 14.9655 1 10C1 5.00182 5.03739 1 9.9994 1Z" fill="#CF87E1"/>
<path opacity="0.95" fill-rule="evenodd" clip-rule="evenodd" d="M10 19C14.9706 19 19 14.9706 19 10C19 5.02944 14.9706 1 10 1C5.02944 1 1 5.02944 1 10C1 14.9706 5.02944 19 10 19ZM10 20C15.5228 20 20 15.5228 20 10C20 4.47715 15.5228 0 10 0C4.47715 0 0 4.47715 0 10C0 15.5228 4.47715 20 10 20Z" fill="#BA37DD"/>

</g>%n%n
<g transform="translate(138.000000, 8.000000) scale(0.750000 0.750000) "> 

<defs>
<filter id="filter-remove-color" x="0%" y="0%" width="100%" height="100%">
<feColorMatrix color-interpolation-filters="sRGB" values="0 0 0 0 1 0 0 0 0 1 0 0 0 0 1 0 0 0 1 0" />
</filter>
<mask id="mask-0">
<g filter="url(#filter-remove-color)">
<rect x="-3.2" y="-3.2" width="38.4" height="38.4" fill="rgb(0%, 0%, 0%)" fill-opacity="0.5"/>
</g>
</mask>
<clip100Path id="clip100-0">
<rect x="0" y="0" width="32" height="32"/>
</clip100Path>
<g id="source-7" clip100-path="url(#clip100-0)">
<path fill-rule="nonzero" fill="rgb(100%, 100%, 100%)" fill-opacity="1" d="M 18.667969 8 L 5.332031 8 L 5.332031 21.332031 L 18.667969 21.332031 Z M 18.667969 8 "/>
<path fill-rule="nonzero" fill="rgb(100%, 100%, 100%)" fill-opacity="1" d="M 26.667969 8 L 21.332031 8 L 21.332031 10.667969 L 26.667969 10.667969 Z M 26.667969 8 "/>
</g>
</defs>
<g mask="url(#mask-0)">
<use xlink:href="#source-7"/>
</g>
<path fill-rule="nonzero" fill="rgb(100%, 100%, 100%)" fill-opacity="1" d="M 11.058594 12.941406 C 10.667969 12.550781 10.070312 12.457031 9.578125 12.703125 L 8.597656 13.191406 C 7.9375 13.523438 7.136719 13.253906 6.808594 12.597656 C 6.476562 11.9375 6.746094 11.136719 7.402344 10.808594 L 8.382812 10.316406 C 9.90625 9.558594 11.742188 9.855469 12.941406 11.058594 C 13.332031 11.449219 13.929688 11.542969 14.425781 11.296875 L 15.402344 10.808594 C 16.0625 10.476562 16.863281 10.746094 17.191406 11.402344 C 17.523438 12.0625 17.253906 12.863281 16.597656 13.191406 L 15.617188 13.683594 C 14.097656 14.441406 12.257812 14.144531 11.058594 12.941406 Z M 11.058594 12.941406 "/>
<path fill-rule="nonzero" fill="rgb(100%, 100%, 100%)" fill-opacity="1" d="M 11.058594 18.277344 C 10.667969 17.886719 10.070312 17.789062 9.578125 18.035156 L 8.597656 18.527344 C 7.9375 18.855469 7.136719 18.589844 6.808594 17.929688 C 6.476562 17.269531 6.746094 16.46875 7.402344 16.140625 L 8.382812 15.652344 C 9.90625 14.890625 11.742188 15.1875 12.941406 16.390625 C 13.332031 16.78125 13.929688 16.878906 14.425781 16.628906 L 15.402344 16.140625 C 16.0625 15.8125 16.863281 16.078125 17.191406 16.738281 C 17.523438 17.394531 17.253906 18.195312 16.597656 18.527344 L 15.617188 19.015625 C 14.097656 19.777344 12.257812 19.476562 11.058594 18.277344 Z M 11.058594 18.277344 "/>
<path fill-rule="evenodd" fill="rgb(100%, 100%, 100%)" fill-opacity="1" d="M 4 5.332031 C 3.261719 5.332031 2.667969 5.929688 2.667969 6.667969 L 2.667969 22.667969 C 2.667969 23.402344 3.261719 24 4 24 L 5.332031 24 L 5.332031 24.667969 C 5.332031 25.769531 6.230469 26.667969 7.332031 26.667969 C 8.4375 26.667969 9.332031 25.769531 9.332031 24.667969 L 9.332031 24 L 22.667969 24 L 22.667969 24.667969 C 22.667969 25.769531 23.5625 26.667969 24.667969 26.667969 C 25.769531 26.667969 26.667969 25.769531 26.667969 24.667969 L 26.667969 24 L 28 24 C 28.738281 24 29.332031 23.402344 29.332031 22.667969 L 29.332031 6.667969 C 29.332031 5.929688 28.738281 5.332031 28 5.332031 Z M 5.332031 8 L 18.667969 8 L 18.667969 21.332031 L 5.332031 21.332031 Z M 26.667969 8 L 21.332031 8 L 21.332031 10.667969 L 26.667969 10.667969 Z M 24 21.332031 C 25.472656 21.332031 26.667969 20.140625 26.667969 18.667969 C 26.667969 17.195312 25.472656 16 24 16 C 22.527344 16 21.332031 17.195312 21.332031 18.667969 C 21.332031 20.140625 22.527344 21.332031 24 21.332031 Z M 24 21.332031 "/>

</g>%n%n</svg>