<svg width="300" height="40" viewBox="0 0 300 40" fill="none" xmlns="http://www.w3.org/2000/svg" xmlns:xlink="http://www.w3.org/1999/xlink">

<g transform="translate(130.000000, 0.000000) scale(2.000000 2.000000) "> 

<path opacity="0.956" d="M9.9994 1C14.9626 1 19 5.00182 19 10C19 14.9655 14.9626 19 9.9994 19C5.03739 19 1 14.9655 1 10C1 5.00182 5.03739 1 9.9994 1Z" fill="#CF87E1"/>
<path opacity="0.95" fill-rule="evenodd" clip-rule="evenodd" d="M10 19C14.9706 19 19 14.9706 19 10C19 5.02944 14.9706 1 10 1C5.02944 1 1 5.02944 1 10C1 14.9706 5.02944 19 10 19ZM10 20C15.5228 20 20 15.5228 20 10C20 4.47715 15.5228 0 10 0C4.47715 0 0 4.47715 0 10C0 15.5228 4.47715 20 10 20Z" fill="#BA37DD"/>

</g>%n%n
<g transform="translate(138.000000, 8.000000) scale(2.000000 2.000000) "> 

<path fill-rule="evenodd" fill="rgb(100%, 100%, 100%)" fill-opacity="1" d="M 4 3 C 4 1.894531 4.894531 1 6 1 C 7.105469 1 8 1.894531 8 3 L 8 4 L 10 4 L 10 8 C 10 9.65625 8.65625 11 7 11 L 5 11 C 3.34375 11 2 9.65625 2 8 L 2 4 L 4 4 Z M 5 4 L 5 3 C 5 2.449219 5.449219 2 6 2 C 6.550781 2 7 2.449219 7 3 L 7 4 Z M 4.5 5 C 4.222656 5 4 5.222656 4 5.5 L 4 6 C 4 7.105469 4.894531 8 6 8 C 7.105469 8 8 7.105469 8 6 L 8 5.5 C 8 5.222656 7.777344 5 7.5 5 C 7.222656 5 7 5.222656 7 5.5 L 7 6 C 7 6.550781 6.550781 7 6 7 C 5.449219 7 5 6.550781 5 6 L 5 5.5 C 5 5.222656 4.777344 5 4.5 5 Z M 4.5 5 "/>

</g>%n%n</svg>