<svg width="300" height="40" viewBox="0 0 300 40" fill="none" xmlns="http://www.w3.org/2000/svg" xmlns:xlink="http://www.w3.org/1999/xlink">

<g transform="translate(130.000000, 0.000000) scale(2.000000 2.000000) "> 

<path opacity="0.956" d="M9.9994 1C14.9626 1 19 5.00182 19 10C19 14.9655 14.9626 19 9.9994 19C5.03739 19 1 14.9655 1 10C1 5.00182 5.03739 1 9.9994 1Z" fill="#CF87E1"/>
<path opacity="0.95" fill-rule="evenodd" clip-rule="evenodd" d="M10 19C14.9706 19 19 14.9706 19 10C19 5.02944 14.9706 1 10 1C5.02944 1 1 5.02944 1 10C1 14.9706 5.02944 19 10 19ZM10 20C15.5228 20 20 15.5228 20 10C20 4.47715 15.5228 0 10 0C4.47715 0 0 4.47715 0 10C0 15.5228 4.47715 20 10 20Z" fill="#BA37DD"/>

</g>%n%n
<g transform="translate(138.000000, 8.000000) scale(2.000000 2.000000) "> 

<path fill-rule="nonzero" fill="rgb(100%, 100%, 100%)" fill-opacity="1" d="M 5 2 C 3.894531 2 3 2.894531 3 4 L 3 4.1875 C 3.507812 4.417969 3.914062 4.84375 4.113281 5.382812 C 4.644531 5.171875 5.292969 5 6 5 C 6.679688 5 7.339844 5.160156 7.898438 5.355469 C 8.101562 4.832031 8.5 4.414062 9 4.1875 L 9 4 C 9 2.894531 8.105469 2 7 2 Z M 5 2 "/>
<path fill-rule="nonzero" fill="rgb(100%, 100%, 100%)" fill-opacity="1" d="M 1 6 C 1 5.449219 1.449219 5 2 5 L 2.125 5 C 2.636719 5 3.085938 5.351562 3.210938 5.851562 L 3.460938 6.847656 C 3.878906 6.570312 4.867188 6 6 6 C 7.003906 6 8.011719 6.449219 8.5625 6.746094 L 8.789062 5.851562 C 8.914062 5.351562 9.363281 5 9.875 5 L 10 5 C 10.550781 5 11 5.449219 11 6 C 11 6.550781 10.550781 7 10 7 L 9.878906 7.484375 C 9.75 8 9.425781 8.425781 9 8.695312 L 9 9.5 C 9 9.777344 8.777344 10 8.5 10 C 8.222656 10 8 9.777344 8 9.5 L 8 9 C 7.980469 9 7.960938 9 7.9375 9 L 4.0625 9 C 4.039062 9 4.019531 9 4 9 L 4 9.5 C 4 9.777344 3.777344 10 3.5 10 C 3.222656 10 3 9.777344 3 9.5 L 3 8.695312 C 2.574219 8.425781 2.25 8 2.121094 7.484375 L 2 7 C 1.449219 7 1 6.550781 1 6 Z M 1 6 "/>

</g>%n%n</svg>