<svg width="300" height="40" viewBox="0 0 300 40" fill="none" xmlns="http://www.w3.org/2000/svg" xmlns:xlink="http://www.w3.org/1999/xlink">

<g transform="translate(130.000000, 0.000000) scale(2.000000 2.000000) "> 

<path opacity="0.956" d="M9.9994 1C14.9626 1 19 5.00182 19 10C19 14.9655 14.9626 19 9.9994 19C5.03739 19 1 14.9655 1 10C1 5.00182 5.03739 1 9.9994 1Z" fill="#CF87E1"/>
<path opacity="0.95" fill-rule="evenodd" clip-rule="evenodd" d="M10 19C14.9706 19 19 14.9706 19 10C19 5.02944 14.9706 1 10 1C5.02944 1 1 5.02944 1 10C1 14.9706 5.02944 19 10 19ZM10 20C15.5228 20 20 15.5228 20 10C20 4.47715 15.5228 0 10 0C4.47715 0 0 4.47715 0 10C0 15.5228 4.47715 20 10 20Z" fill="#BA37DD"/>

</g>%n%n
<g transform="translate(138.000000, 8.000000) scale(0.750000 0.750000) "> 

<path fill-rule="nonzero" fill="rgb(100%, 100%, 100%)" fill-opacity="0.4" d="M 5.332031 8 L 26.667969 8 L 26.667969 24 L 5.332031 24 Z M 5.332031 8 "/>
<path fill-rule="evenodd" fill="rgb(100%, 100%, 100%)" fill-opacity="1" d="M 18.667969 5.332031 L 26.667969 5.332031 C 26.667969 3.859375 27.859375 2.667969 29.332031 2.667969 C 30.804688 2.667969 32 3.859375 32 5.332031 C 32 6.804688 30.804688 8 29.332031 8 L 29.332031 13.332031 C 30.804688 13.332031 32 14.527344 32 16 C 32 17.472656 30.804688 18.667969 29.332031 18.667969 L 29.332031 24 C 30.804688 24 32 25.195312 32 26.667969 C 32 28.140625 30.804688 29.332031 29.332031 29.332031 C 27.859375 29.332031 26.667969 28.140625 26.667969 26.667969 L 18.667969 26.667969 C 18.667969 28.140625 17.472656 29.332031 16 29.332031 C 14.527344 29.332031 13.332031 28.140625 13.332031 26.667969 L 5.332031 26.667969 C 5.332031 28.140625 4.140625 29.332031 2.667969 29.332031 C 1.195312 29.332031 0 28.140625 0 26.667969 C 0 25.195312 1.195312 24 2.667969 24 L 2.667969 18.667969 C 1.195312 18.667969 0 17.472656 0 16 C 0 14.527344 1.195312 13.332031 2.667969 13.332031 L 2.667969 8 C 1.195312 8 0 6.804688 0 5.332031 C 0 3.859375 1.195312 2.667969 2.667969 2.667969 C 4.140625 2.667969 5.332031 3.859375 5.332031 5.332031 L 13.332031 5.332031 C 13.332031 3.859375 14.527344 2.667969 16 2.667969 C 17.472656 2.667969 18.667969 3.859375 18.667969 5.332031 Z M 5.332031 8 L 26.667969 8 L 26.667969 24 L 5.332031 24 Z M 5.332031 8 "/>

</g>%n%n</svg>