<svg width="40" height="40" viewBox="0 0 40 40" fill="none" xmlns="http://www.w3.org/2000/svg" >

<g transform="translate(0.000000, 0.000000) scale(2.000000 2.000000) "> 

<path opacity="0.956" d="M9.9994 1C14.9626 1 19 5.00182 19 10C19 14.9655 14.9626 19 9.9994 19C5.03739 19 1 14.9655 1 10C1 5.00182 5.03739 1 9.9994 1Z" fill="#CF87E1"/>
<path opacity="0.95" fill-rule="evenodd" clip-rule="evenodd" d="M10 19C14.9706 19 19 14.9706 19 10C19 5.02944 14.9706 1 10 1C5.02944 1 1 5.02944 1 10C1 14.9706 5.02944 19 10 19ZM10 20C15.5228 20 20 15.5228 20 10C20 4.47715 15.5228 0 10 0C4.47715 0 0 4.47715 0 10C0 15.5228 4.47715 20 10 20Z" fill="#BA37DD"/>

</g>


<g transform="translate(8.000000, 8.000000) scale(0.500000 0.500000) "> 

<path fill-rule="evenodd" clip100-rule="evenodd" d="M4 34.6667C4 37.6122 6.38781 40 9.33333 40C11.012 40 12.5928 39.2096 13.6 37.8667L16.9091 33.4545C17.5958 32.5389 18.6736 32 19.8182 32H28.1818C29.3264 32 30.4042 32.5389 31.0909 33.4545L34.4 37.8667C35.4072 39.2096 36.988 40 38.6667 40C41.6122 40 44 37.6122 44 34.6667V20C44 15.5817 40.4183 12 36 12H12C7.58172 12 4 15.5817 4 20V34.6667ZM14 16C12.8954 16 12 16.8954 12 18V20H10C8.89543 20 8 20.8954 8 22C8 23.1046 8.89543 24 10 24H12V26C12 27.1046 12.8954 28 14 28C15.1046 28 16 27.1046 16 26V24H18C19.1046 24 20 23.1046 20 22C20 20.8954 19.1046 20 18 20H16V18C16 16.8954 15.1046 16 14 16ZM34 20C35.1046 20 36 19.1046 36 18C36 16.8954 35.1046 16 34 16C32.8954 16 32 16.8954 32 18C32 19.1046 32.8954 20 34 20ZM38 24C39.1046 24 40 23.1046 40 22C40 20.8954 39.1046 20 38 20C36.8954 20 36 20.8954 36 22C36 23.1046 36.8954 24 38 24ZM32 22C32 23.1046 31.1046 24 30 24C28.8954 24 28 23.1046 28 22C28 20.8954 28.8954 20 30 20C31.1046 20 32 20.8954 32 22ZM34 28C35.1046 28 36 27.1046 36 26C36 24.8954 35.1046 24 34 24C32.8954 24 32 24.8954 32 26C32 27.1046 32.8954 28 34 28Z" fill="#ffffff"/>

</g>

</svg>