<svg width="300" height="35" viewBox="0 0 300 35" fill="none" xmlns="http://www.w3.org/2000/svg">

<g transform="translate(135.000000, 2.000000) scale(1.500000 1.500000) "> 

<path opacity="0.95" fill-rule="evenodd" clip-rule="evenodd" d="M10 19C14.9706 19 19 14.9706 19 10C19 5.02944 14.9706 1 10 1C5.02944 1 1 5.02944 1 10C1 14.9706 5.02944 19 10 19ZM10 20C15.5228 20 20 15.5228 20 10C20 4.47715 15.5228 0 10 0C4.47715 0 0 4.47715 0 10C0 15.5228 4.47715 20 10 20Z" fill="#B348CE"/>
<path opacity="0.956" d="M9.9994 1C14.9626 1 19 5.00182 19 10C19 14.9655 14.9626 19 9.9994 19C5.03739 19 1 14.9655 1 10C1 5.00182 5.03739 1 9.9994 1Z" fill="#7D2793"/>

</g>


<g transform="translate(141.000000, 8.000000) scale(0.375000 0.375000) "> 

<path d="M4 6C4 4.89543 4.89543 4 6 4H16V36C16 37.1046 16.8954 38 18 38H38C39.1046 38 40 38.8954 40 40C40 41.1046 39.1046 42 38 42H18C16.9307 42 15.9267 41.7203 15.0573 41.23C13.9911 42.8958 12.1245 44 10 44C6.68629 44 4 41.3137 4 38C4 34.6863 6.68629 32 10 32C10.7013 32 11.3744 32.1203 12 32.3414V8H6C4.89543 8 4 7.10457 4 6Z" fill="#ffffff"/>
<path d="M20 4H28V12H20V4Z" fill="#ffffff"/>
<path d="M32 16H20V24H32V16Z" fill="#ffffff"/>
<path d="M20 28V36H36V28H20Z" fill="#ffffff"/>

</g>

</svg>