<svg width="300" height="35" viewBox="0 0 300 35" fill="none" xmlns="http://www.w3.org/2000/svg" >

<g transform="translate(135.000000, 2.000000) scale(1.500000 1.500000) "> 

<path opacity="0.956" d="M9.9994 1C14.9626 1 19 5.00182 19 10C19 14.9655 14.9626 19 9.9994 19C5.03739 19 1 14.9655 1 10C1 5.00182 5.03739 1 9.9994 1Z" fill="#CF87E1"/>
<path opacity="0.95" fill-rule="evenodd" clip-rule="evenodd" d="M10 19C14.9706 19 19 14.9706 19 10C19 5.02944 14.9706 1 10 1C5.02944 1 1 5.02944 1 10C1 14.9706 5.02944 19 10 19ZM10 20C15.5228 20 20 15.5228 20 10C20 4.47715 15.5228 0 10 0C4.47715 0 0 4.47715 0 10C0 15.5228 4.47715 20 10 20Z" fill="#BA37DD"/>

</g>


<g transform="translate(141.000000, 8.000000) scale(0.375000 0.375000) "> 

<g opacity="0.5">
<path d="M28 12H8V32H28V12Z" fill="#ffffff"/>
<path d="M40 12H32V16H40V12Z" fill="#ffffff"/>
</g>
<path d="M16.5862 19.4141C16.0006 18.8284 15.1059 18.6832 14.365 19.0537L12.8949 19.7887C11.9069 20.2827 10.7056 19.8823 10.2116 18.8943C9.71761 17.9064 10.1181 16.705 11.106 16.211L12.5762 15.4759C14.857 14.3356 17.6116 14.7826 19.4147 16.5857C20.0003 17.1713 20.895 17.3165 21.6358 16.9461L23.106 16.211C24.094 15.7171 25.2953 16.1175 25.7893 17.1055C26.2833 18.0934 25.8828 19.2948 24.8949 19.7887L23.4247 20.5238C21.1439 21.6642 18.3893 21.2172 16.5862 19.4141Z" fill="#ffffff"/>
<path d="M16.5862 27.4141C16.0006 26.8284 15.1059 26.6832 14.365 27.0537L12.8949 27.7887C11.9069 28.2827 10.7056 27.8823 10.2116 26.8943C9.71761 25.9064 10.1181 24.705 11.106 24.211L12.5762 23.4759C14.857 22.3356 17.6116 22.7826 19.4147 24.5857C20.0003 25.1713 20.895 25.3165 21.6358 24.9461L23.106 24.211C24.094 23.7171 25.2953 24.1175 25.7893 25.1055C26.2833 26.0934 25.8828 27.2948 24.8949 27.7887L23.4247 28.5238C21.1439 29.6642 18.3893 29.2172 16.5862 27.4141Z" fill="#ffffff"/>
<path fill-rule="evenodd" clip100-rule="evenodd" d="M6 8C4.89543 8 4 8.89543 4 10V34C4 35.1046 4.89543 36 6 36H8V37C8 38.6569 9.34315 40 11 40C12.6569 40 14 38.6569 14 37V36H34V37C34 38.6569 35.3431 40 37 40C38.6569 40 40 38.6569 40 37V36H42C43.1046 36 44 35.1046 44 34V10C44 8.89543 43.1046 8 42 8H6ZM8 12H28V32H8V12ZM40 12H32V16H40V12ZM36 32C38.2091 32 40 30.2091 40 28C40 25.7909 38.2091 24 36 24C33.7909 24 32 25.7909 32 28C32 30.2091 33.7909 32 36 32Z" fill="#ffffff"/>

</g>

</svg>