<svg width="300" height="40" viewBox="0 0 300 40" fill="none" xmlns="http://www.w3.org/2000/svg" xmlns:xlink="http://www.w3.org/1999/xlink">

<g transform="translate(130.000000, 0.000000) scale(2.000000 2.000000) "> 

<path opacity="0.956" d="M9.9994 1C14.9626 1 19 5.00182 19 10C19 14.9655 14.9626 19 9.9994 19C5.03739 19 1 14.9655 1 10C1 5.00182 5.03739 1 9.9994 1Z" fill="#CF87E1"/>
<path opacity="0.95" fill-rule="evenodd" clip-rule="evenodd" d="M10 19C14.9706 19 19 14.9706 19 10C19 5.02944 14.9706 1 10 1C5.02944 1 1 5.02944 1 10C1 14.9706 5.02944 19 10 19ZM10 20C15.5228 20 20 15.5228 20 10C20 4.47715 15.5228 0 10 0C4.47715 0 0 4.47715 0 10C0 15.5228 4.47715 20 10 20Z" fill="#BA37DD"/>

</g>%n%n
<g transform="translate(138.000000, 8.000000) scale(0.750000 0.750000) "> 

<path fill-rule="nonzero" fill="rgb(100%, 100%, 100%)" fill-opacity="1" d="M 24.175781 19.804688 L 4.25 19.804688 L 4.25 23.328125 L 24.175781 23.328125 Z M 24.175781 19.804688 "/>
<path fill-rule="nonzero" fill="rgb(100%, 100%, 100%)" fill-opacity="1" d="M 26.121094 19.816406 L 25.113281 19.816406 L 25.113281 23.328125 L 26.121094 23.328125 Z M 26.121094 19.816406 "/>
<path fill-rule="nonzero" fill="rgb(100%, 100%, 100%)" fill-opacity="1" d="M 28 19.816406 L 26.996094 19.816406 L 26.996094 23.328125 L 28 23.328125 Z M 28 19.816406 "/>
<path fill-rule="nonzero" fill="rgb(100%, 100%, 100%)" fill-opacity="1" d="M 20.03125 15.183594 C 18.515625 15.183594 17.28125 13.953125 17.28125 12.4375 C 17.28125 12.148438 17.324219 11.875 17.40625 11.613281 C 15.527344 11.578125 14.015625 10.042969 14.015625 8.15625 C 14.015625 6.253906 15.539062 4.71875 17.433594 4.691406 L 17.433594 5.691406 C 16.089844 5.710938 15.007812 6.804688 15.007812 8.15625 C 15.007812 9.511719 16.117188 10.617188 17.472656 10.617188 C 17.648438 10.617188 17.808594 10.597656 17.964844 10.566406 C 18.011719 10.554688 18.058594 10.546875 18.105469 10.546875 C 18.425781 10.546875 18.6875 10.808594 18.6875 11.128906 C 18.6875 11.25 18.648438 11.359375 18.585938 11.457031 C 18.398438 11.738281 18.285156 12.074219 18.285156 12.4375 C 18.285156 13.398438 19.066406 14.183594 20.03125 14.183594 L 23.644531 14.183594 C 25.011719 14.183594 26.113281 15.292969 26.113281 16.65625 L 26.121094 18.628906 L 25.113281 18.628906 L 25.113281 16.65625 C 25.113281 15.84375 24.457031 15.1875 23.644531 15.1875 L 20.03125 15.1875 Z M 20.03125 15.183594 "/>
<path fill-rule="nonzero" fill="rgb(100%, 100%, 100%)" fill-opacity="1" d="M 20.832031 11.363281 C 21.203125 10.882812 21.421875 10.289062 21.421875 9.636719 C 21.421875 8.0625 20.148438 6.789062 18.574219 6.789062 L 18.351562 6.789062 L 18.351562 5.78125 L 18.574219 5.78125 C 20.699219 5.78125 22.425781 7.507812 22.425781 9.636719 C 22.425781 10.207031 22.300781 10.75 22.078125 11.234375 L 22.78125 11.226562 C 25.667969 11.226562 28.003906 13.570312 28.003906 16.453125 L 28.003906 18.628906 L 27 18.628906 L 27 16.453125 C 27 14.121094 25.113281 12.234375 22.78125 12.234375 L 21.308594 12.234375 C 21 12.234375 20.742188 11.976562 20.742188 11.664062 C 20.742188 11.550781 20.78125 11.453125 20.832031 11.363281 Z M 20.832031 11.363281 "/>

</g>%n%n</svg>