<svg width="300" height="40" viewBox="0 0 300 40" fill="none" xmlns="http://www.w3.org/2000/svg" xmlns:xlink="http://www.w3.org/1999/xlink" version="1.1">

<g transform="translate(130.000000, 0.000000) scale(2.000000 2.000000) "> 

<path opacity="0.956" d="M9.9994 1C14.9626 1 19 5.00182 19 10C19 14.9655 14.9626 19 9.9994 19C5.03739 19 1 14.9655 1 10C1 5.00182 5.03739 1 9.9994 1Z" fill="#CF87E1"/>
<path opacity="0.95" fill-rule="evenodd" clip-rule="evenodd" d="M10 19C14.9706 19 19 14.9706 19 10C19 5.02944 14.9706 1 10 1C5.02944 1 1 5.02944 1 10C1 14.9706 5.02944 19 10 19ZM10 20C15.5228 20 20 15.5228 20 10C20 4.47715 15.5228 0 10 0C4.47715 0 0 4.47715 0 10C0 15.5228 4.47715 20 10 20Z" fill="#BA37DD"/>

</g>%n%n
<g transform="translate(138.000000, 8.000000) scale(2.000000 2.000000) "> 

<g id="surface1">
<path style=" stroke:none;fill-rule:evenodd;fill:rgb(100%,100%,100%);fill-opacity:1;" d="M 2 4 C 1.449219 4 1 3.550781 1 3 L 1 2 L 11 2 L 11 3 C 11 3.550781 10.550781 4 10 4 Z M 2 5 C 2.039062 7.195312 3.84375 9.019531 6.035156 9 C 8.230469 8.980469 10 7.195312 10 5 Z M 7 7 C 7 7.550781 6.550781 8 6 8 C 5.449219 8 5 7.550781 5 7 C 5 6.449219 5.449219 6 6 6 C 6.550781 6 7 6.449219 7 7 Z M 7 7 "/>
</g>

</g>%n%n</svg>