<svg width="300" height="35" viewBox="0 0 300 35" fill="none" xmlns="http://www.w3.org/2000/svg" >

<g transform="translate(135.000000, 2.000000) scale(1.500000 1.500000) "> 

<path opacity="0.95" fill-rule="evenodd" clip-rule="evenodd" d="M10 19C14.9706 19 19 14.9706 19 10C19 5.02944 14.9706 1 10 1C5.02944 1 1 5.02944 1 10C1 14.9706 5.02944 19 10 19ZM10 20C15.5228 20 20 15.5228 20 10C20 4.47715 15.5228 0 10 0C4.47715 0 0 4.47715 0 10C0 15.5228 4.47715 20 10 20Z" fill="#B348CE"/>
<path opacity="0.956" d="M9.9994 1C14.9626 1 19 5.00182 19 10C19 14.9655 14.9626 19 9.9994 19C5.03739 19 1 14.9655 1 10C1 5.00182 5.03739 1 9.9994 1Z" fill="#7D2793"/>

</g>


<g transform="translate(141.000000, 8.000000) scale(0.375000 0.375000) "> 

<path d="M4 16C4 9.37258 9.37258 4 16 4H20V16H4Z" fill="#ffffff"/>
<path d="M16 32C9.37258 32 4 26.6274 4 20H36V14C36 12.8954 36.8954 12 38 12H42C43.1046 12 44 12.8954 44 14C44 15.1046 43.1046 16 42 16H40V20C40 26.6274 34.6274 32 28 32H16Z" fill="#ffffff"/>
<path d="M12 44C14.2091 44 16 42.2091 16 40C16 37.7909 14.2091 36 12 36C9.79086 36 8 37.7909 8 40C8 42.2091 9.79086 44 12 44Z" fill="#ffffff"/>
<path d="M36 40C36 42.2091 34.2091 44 32 44C29.7909 44 28 42.2091 28 40C28 37.7909 29.7909 36 32 36C34.2091 36 36 37.7909 36 40Z" fill="#ffffff"/>

</g>

</svg>