<svg width="300" height="40" viewBox="0 0 300 40" fill="none" xmlns="http://www.w3.org/2000/svg" xmlns:xlink="http://www.w3.org/1999/xlink">

<g transform="translate(130.000000, 0.000000) scale(2.000000 2.000000) "> 

<path opacity="0.956" d="M9.9994 1C14.9626 1 19 5.00182 19 10C19 14.9655 14.9626 19 9.9994 19C5.03739 19 1 14.9655 1 10C1 5.00182 5.03739 1 9.9994 1Z" fill="#CF87E1"/>
<path opacity="0.95" fill-rule="evenodd" clip-rule="evenodd" d="M10 19C14.9706 19 19 14.9706 19 10C19 5.02944 14.9706 1 10 1C5.02944 1 1 5.02944 1 10C1 14.9706 5.02944 19 10 19ZM10 20C15.5228 20 20 15.5228 20 10C20 4.47715 15.5228 0 10 0C4.47715 0 0 4.47715 0 10C0 15.5228 4.47715 20 10 20Z" fill="#BA37DD"/>

</g>%n%n
<g transform="translate(138.000000, 8.000000) scale(2.000000 2.000000) "> 

<path fill-rule="evenodd" fill="rgb(100%, 100%, 100%)" fill-opacity="1" d="M 7 3 L 10 3 C 11.105469 3 12 3.894531 12 5 C 12 6.105469 11.105469 7 10 7 L 10 8 C 10 9.105469 9.105469 10 8 10 L 4.601562 10 L 4 9.5 L 1 5.5 L 0.5 6 L 0 6 L 0 3 L 0.5 3 L 1 4 L 4 7 L 4 3 L 6 3 L 6 1.5 C 6 1.222656 6.222656 1 6.5 1 C 6.777344 1 7 1.222656 7 1.5 Z M 10 6 C 10.550781 6 11 5.550781 11 5 C 11 4.449219 10.550781 4 10 4 Z M 10 6 "/>

</g>%n%n</svg>