<svg width="300" height="35" viewBox="0 0 300 35" fill="none" xmlns="http://www.w3.org/2000/svg" >

<g transform="translate(135.000000, 2.000000) scale(1.500000 1.500000) "> 

<path opacity="0.95" fill-rule="evenodd" clip-rule="evenodd" d="M10 19C14.9706 19 19 14.9706 19 10C19 5.02944 14.9706 1 10 1C5.02944 1 1 5.02944 1 10C1 14.9706 5.02944 19 10 19ZM10 20C15.5228 20 20 15.5228 20 10C20 4.47715 15.5228 0 10 0C4.47715 0 0 4.47715 0 10C0 15.5228 4.47715 20 10 20Z" fill="#B348CE"/>
<path opacity="0.956" d="M9.9994 1C14.9626 1 19 5.00182 19 10C19 14.9655 14.9626 19 9.9994 19C5.03739 19 1 14.9655 1 10C1 5.00182 5.03739 1 9.9994 1Z" fill="#7D2793"/>

</g>


<g transform="translate(141.000000, 8.000000) scale(0.375000 0.375000) "> 

<path d="M40 4C39.0823 4 38.2823 4.62459 38.0597 5.51493L36.4384 12H6.00002C5.38415 12 4.80262 12.2837 4.42361 12.7692C4.04459 13.2546 3.91036 13.8876 4.05973 14.4851L8.05973 30.4851C8.28232 31.3754 9.08228 32 10 32H31.4384L30.4384 36H12C9.79086 36 8 37.7909 8 40C8 42.2091 9.79086 44 12 44C14.2091 44 16 42.2091 16 40H28C28 42.2091 29.7909 44 32 44C34.2091 44 36 42.2091 36 40C36 38.6769 35.3576 37.5038 34.3676 36.7757L35.9382 30.4935L35.9403 30.4851L41.5616 8H44C45.1046 8 46 7.10457 46 6C46 4.89543 45.1046 4 44 4H40Z" fill="#ffffff"/>

</g>

</svg>