<svg width="40" height="40" viewBox="0 0 40 40" fill="none" xmlns="http://www.w3.org/2000/svg" >

<g transform="translate(0.000000, 0.000000) scale(2.000000 2.000000) "> 

<path opacity="0.956" d="M9.9994 1C14.9626 1 19 5.00182 19 10C19 14.9655 14.9626 19 9.9994 19C5.03739 19 1 14.9655 1 10C1 5.00182 5.03739 1 9.9994 1Z" fill="#CF87E1"/>
<path opacity="0.95" fill-rule="evenodd" clip-rule="evenodd" d="M10 19C14.9706 19 19 14.9706 19 10C19 5.02944 14.9706 1 10 1C5.02944 1 1 5.02944 1 10C1 14.9706 5.02944 19 10 19ZM10 20C15.5228 20 20 15.5228 20 10C20 4.47715 15.5228 0 10 0C4.47715 0 0 4.47715 0 10C0 15.5228 4.47715 20 10 20Z" fill="#BA37DD"/>

</g>


<g transform="translate(8.000000, 8.000000) scale(0.500000 0.500000) "> 

<path d="M16 8C11.5817 8 8 11.5817 8 16V20H12V18C12 16.8954 12.8954 16 14 16H18C19.1046 16 20 16.8954 20 18V20H28V18C28 16.8954 28.8954 16 30 16H34C35.1046 16 36 16.8954 36 18V20H40V16C40 11.5817 36.4183 8 32 8H16Z" fill="#ffffff"/>
<path d="M4 22C4 20.8954 4.89543 20 6 20C7.10457 20 8 20.8954 8 22V24H40V22C40 20.8954 40.8954 20 42 20C43.1046 20 44 20.8954 44 22V38C44 39.1046 43.1046 40 42 40C40.8954 40 40 39.1046 40 38V36H8V38C8 39.1046 7.10457 40 6 40C4.89543 40 4 39.1046 4 38V22Z" fill="#ffffff"/>

</g>

</svg>