<svg width="300" height="40" viewBox="0 0 300 40" fill="none" xmlns="http://www.w3.org/2000/svg" xmlns:xlink="http://www.w3.org/1999/xlink">

<g transform="translate(130.000000, 0.000000) scale(2.000000 2.000000) "> 

<path opacity="0.956" d="M9.9994 1C14.9626 1 19 5.00182 19 10C19 14.9655 14.9626 19 9.9994 19C5.03739 19 1 14.9655 1 10C1 5.00182 5.03739 1 9.9994 1Z" fill="#CF87E1"/>
<path opacity="0.95" fill-rule="evenodd" clip-rule="evenodd" d="M10 19C14.9706 19 19 14.9706 19 10C19 5.02944 14.9706 1 10 1C5.02944 1 1 5.02944 1 10C1 14.9706 5.02944 19 10 19ZM10 20C15.5228 20 20 15.5228 20 10C20 4.47715 15.5228 0 10 0C4.47715 0 0 4.47715 0 10C0 15.5228 4.47715 20 10 20Z" fill="#BA37DD"/>

</g>%n%n
<g transform="translate(138.000000, 8.000000) scale(0.750000 0.750000) "> 

<path fill-rule="nonzero" fill="rgb(100%, 100%, 100%)" fill-opacity="1" d="M 10.667969 5.332031 C 7.722656 5.332031 5.332031 7.722656 5.332031 10.667969 L 5.332031 13.332031 L 8 13.332031 L 8 12 C 8 11.261719 8.597656 10.667969 9.332031 10.667969 L 12 10.667969 C 12.738281 10.667969 13.332031 11.261719 13.332031 12 L 13.332031 13.332031 L 18.667969 13.332031 L 18.667969 12 C 18.667969 11.261719 19.261719 10.667969 20 10.667969 L 22.667969 10.667969 C 23.402344 10.667969 24 11.261719 24 12 L 24 13.332031 L 26.667969 13.332031 L 26.667969 10.667969 C 26.667969 7.722656 24.277344 5.332031 21.332031 5.332031 Z M 10.667969 5.332031 "/>
<path fill-rule="nonzero" fill="rgb(100%, 100%, 100%)" fill-opacity="1" d="M 2.667969 14.667969 C 2.667969 13.929688 3.261719 13.332031 4 13.332031 C 4.738281 13.332031 5.332031 13.929688 5.332031 14.667969 L 5.332031 16 L 26.667969 16 L 26.667969 14.667969 C 26.667969 13.929688 27.261719 13.332031 28 13.332031 C 28.738281 13.332031 29.332031 13.929688 29.332031 14.667969 L 29.332031 25.332031 C 29.332031 26.070312 28.738281 26.667969 28 26.667969 C 27.261719 26.667969 26.667969 26.070312 26.667969 25.332031 L 26.667969 24 L 5.332031 24 L 5.332031 25.332031 C 5.332031 26.070312 4.738281 26.667969 4 26.667969 C 3.261719 26.667969 2.667969 26.070312 2.667969 25.332031 Z M 2.667969 14.667969 "/>

</g>%n%n</svg>