<svg width="300" height="40" viewBox="0 0 300 40" fill="none" xmlns="http://www.w3.org/2000/svg" xmlns:xlink="http://www.w3.org/1999/xlink">

<g transform="translate(130.000000, 0.000000) scale(2.000000 2.000000) "> 

<path opacity="0.956" d="M9.9994 1C14.9626 1 19 5.00182 19 10C19 14.9655 14.9626 19 9.9994 19C5.03739 19 1 14.9655 1 10C1 5.00182 5.03739 1 9.9994 1Z" fill="#CF87E1"/>
<path opacity="0.95" fill-rule="evenodd" clip-rule="evenodd" d="M10 19C14.9706 19 19 14.9706 19 10C19 5.02944 14.9706 1 10 1C5.02944 1 1 5.02944 1 10C1 14.9706 5.02944 19 10 19ZM10 20C15.5228 20 20 15.5228 20 10C20 4.47715 15.5228 0 10 0C4.47715 0 0 4.47715 0 10C0 15.5228 4.47715 20 10 20Z" fill="#BA37DD"/>

</g>%n%n
<g transform="translate(138.000000, 8.000000) scale(0.750000 0.750000) "> 

<path fill-rule="evenodd" fill="rgb(100%, 100%, 100%)" fill-opacity="1" d="M 20.886719 18.65625 L 25.105469 14.4375 C 27.1875 12.355469 27.1875 8.976562 25.105469 6.894531 C 24.0625 5.855469 22.699219 5.332031 21.335938 5.332031 C 21.332031 5.332031 21.332031 5.332031 21.332031 5.332031 C 19.96875 5.332031 18.601562 5.855469 17.5625 6.894531 L 13.34375 11.113281 C 13.570312 15.175781 16.824219 18.429688 20.886719 18.65625 Z M 19.554688 19.988281 C 15.492188 19.765625 12.234375 16.507812 12.011719 12.445312 L 6.894531 17.5625 C 4.8125 19.644531 4.8125 23.023438 6.894531 25.105469 C 8.976562 27.1875 12.355469 27.1875 14.4375 25.105469 Z M 19.554688 19.988281 "/>

</g>%n%n</svg>