<svg width="300" height="40" viewBox="0 0 300 40" fill="none" xmlns="http://www.w3.org/2000/svg" xmlns:xlink="http://www.w3.org/1999/xlink">

<g transform="translate(130.000000, 0.000000) scale(2.000000 2.000000) "> 

<path opacity="0.956" d="M9.9994 1C14.9626 1 19 5.00182 19 10C19 14.9655 14.9626 19 9.9994 19C5.03739 19 1 14.9655 1 10C1 5.00182 5.03739 1 9.9994 1Z" fill="#CF87E1"/>
<path opacity="0.95" fill-rule="evenodd" clip-rule="evenodd" d="M10 19C14.9706 19 19 14.9706 19 10C19 5.02944 14.9706 1 10 1C5.02944 1 1 5.02944 1 10C1 14.9706 5.02944 19 10 19ZM10 20C15.5228 20 20 15.5228 20 10C20 4.47715 15.5228 0 10 0C4.47715 0 0 4.47715 0 10C0 15.5228 4.47715 20 10 20Z" fill="#BA37DD"/>

</g>%n%n
<g transform="translate(138.000000, 8.000000) scale(2.000000 2.000000) "> 

<path fill-rule="nonzero" fill="rgb(100%, 100%, 100%)" fill-opacity="1" d="M 0.953125 0.953125 L 0.953125 5.59375 L 5.542969 5.59375 L 5.542969 0.953125 Z M 1.328125 2.472656 L 2.480469 1.332031 L 3.109375 1.332031 L 1.328125 3.09375 Z M 1.328125 3.726562 L 1.328125 3.417969 L 3.4375 1.332031 L 3.75 1.332031 Z M 5.195312 3.792969 L 3.851562 5.207031 L 3.488281 5.207031 L 5.195312 3.414062 Z M 5.195312 3.792969 "/>
<path fill-rule="nonzero" fill="rgb(100%, 100%, 100%)" fill-opacity="1" d="M 6.457031 0.953125 L 6.457031 5.59375 L 11.046875 5.59375 L 11.046875 0.953125 Z M 6.832031 2.472656 L 7.984375 1.332031 L 8.613281 1.332031 L 6.832031 3.09375 Z M 6.832031 3.726562 L 6.832031 3.417969 L 8.941406 1.332031 L 9.253906 1.332031 Z M 10.699219 3.792969 L 9.355469 5.207031 L 8.992188 5.207031 L 10.699219 3.414062 Z M 10.699219 3.792969 "/>
<path fill-rule="nonzero" fill="rgb(100%, 100%, 100%)" fill-opacity="1" d="M 0.953125 6.476562 L 0.953125 11.121094 L 5.542969 11.121094 L 5.542969 6.476562 Z M 1.328125 7.996094 L 2.480469 6.855469 L 3.109375 6.855469 L 1.328125 8.617188 Z M 1.328125 9.25 L 1.328125 8.941406 L 3.4375 6.855469 L 3.75 6.855469 Z M 5.195312 9.316406 L 3.851562 10.730469 L 3.488281 10.730469 L 5.195312 8.9375 Z M 5.195312 9.316406 "/>
<path fill-rule="nonzero" fill="rgb(100%, 100%, 100%)" fill-opacity="1" d="M 6.457031 6.476562 L 6.457031 11.121094 L 11.046875 11.121094 L 11.046875 6.476562 Z M 6.832031 7.996094 L 7.984375 6.855469 L 8.613281 6.855469 L 6.832031 8.617188 Z M 6.832031 9.25 L 6.832031 8.941406 L 8.941406 6.855469 L 9.253906 6.855469 Z M 10.699219 9.316406 L 9.355469 10.730469 L 8.992188 10.730469 L 10.699219 8.9375 Z M 10.699219 9.316406 "/>

</g>%n%n</svg>