<svg width="300" height="40" viewBox="0 0 300 40" fill="none" xmlns="http://www.w3.org/2000/svg" xmlns:xlink="http://www.w3.org/1999/xlink">

<g transform="translate(130.000000, 0.000000) scale(2.000000 2.000000) "> 

<path opacity="0.956" d="M9.9994 1C14.9626 1 19 5.00182 19 10C19 14.9655 14.9626 19 9.9994 19C5.03739 19 1 14.9655 1 10C1 5.00182 5.03739 1 9.9994 1Z" fill="#CF87E1"/>
<path opacity="0.95" fill-rule="evenodd" clip-rule="evenodd" d="M10 19C14.9706 19 19 14.9706 19 10C19 5.02944 14.9706 1 10 1C5.02944 1 1 5.02944 1 10C1 14.9706 5.02944 19 10 19ZM10 20C15.5228 20 20 15.5228 20 10C20 4.47715 15.5228 0 10 0C4.47715 0 0 4.47715 0 10C0 15.5228 4.47715 20 10 20Z" fill="#BA37DD"/>

</g>%n%n
<g transform="translate(138.000000, 8.000000) scale(0.750000 0.750000) "> 

<defs>
<filter id="filter-remove-color" x="0%" y="0%" width="100%" height="100%">
<feColorMatrix color-interpolation-filters="sRGB" values="0 0 0 0 1 0 0 0 0 1 0 0 0 0 1 0 0 0 1 0" />
</filter>
<mask id="mask-0">
<g filter="url(#filter-remove-color)">
<rect x="-3.2" y="-3.2" width="38.4" height="38.4" fill="rgb(0%, 0%, 0%)" fill-opacity="0.5"/>
</g>
</mask>
<clip100Path id="clip100-0">
<rect x="0" y="0" width="32" height="32"/>
</clip100Path>
<g id="source-6" clip100-path="url(#clip100-0)">
<path fill-rule="evenodd" fill="rgb(100%, 100%, 100%)" fill-opacity="1" d="M 20.941406 5.722656 C 21.464844 6.246094 21.464844 7.089844 20.941406 7.609375 L 12.941406 15.609375 C 12.421875 16.128906 11.578125 16.128906 11.058594 15.609375 C 10.535156 15.089844 10.535156 14.246094 11.058594 13.722656 L 19.058594 5.722656 C 19.578125 5.203125 20.421875 5.203125 20.941406 5.722656 Z M 20.941406 5.722656 "/>
</g>
</defs>
<g mask="url(#mask-0)">
<use xlink:href="#source-6"/>
</g>
<path fill-rule="evenodd" fill="rgb(100%, 100%, 100%)" fill-opacity="1" d="M 11.058594 7.609375 C 10.535156 7.089844 10.535156 6.246094 11.058594 5.722656 C 11.578125 5.203125 12.421875 5.203125 12.941406 5.722656 L 20.550781 13.332031 L 28.144531 13.332031 C 28.800781 13.332031 29.332031 13.863281 29.332031 14.519531 C 29.332031 14.617188 29.320312 14.714844 29.296875 14.808594 L 26.757812 24.976562 C 26.699219 25.210938 26.578125 25.421875 26.40625 25.59375 L 25.722656 26.277344 C 25.472656 26.527344 25.132812 26.667969 24.78125 26.667969 L 7.21875 26.667969 C 6.867188 26.667969 6.527344 26.527344 6.277344 26.277344 L 5.59375 25.59375 C 5.421875 25.421875 5.300781 25.210938 5.242188 24.976562 L 2.703125 14.808594 C 2.679688 14.714844 2.667969 14.617188 2.667969 14.519531 C 2.667969 13.863281 3.199219 13.332031 3.855469 13.332031 L 16.78125 13.332031 Z M 18.667969 16 L 13.332031 16 L 13.332031 24 L 18.667969 24 Z M 21.332031 24 L 24.230469 24 L 26.148438 16 L 21.332031 16 Z M 10.667969 24 L 10.667969 16 L 5.851562 16 L 7.769531 24 Z M 10.667969 24 "/>

</g>%n%n</svg>