<svg width="300" height="40" viewBox="0 0 300 40" fill="none" xmlns="http://www.w3.org/2000/svg" xmlns:xlink="http://www.w3.org/1999/xlink" version="1.1">

<g transform="translate(130.000000, 0.000000) scale(2.000000 2.000000) "> 

<path opacity="0.956" d="M9.9994 1C14.9626 1 19 5.00182 19 10C19 14.9655 14.9626 19 9.9994 19C5.03739 19 1 14.9655 1 10C1 5.00182 5.03739 1 9.9994 1Z" fill="#CF87E1"/>
<path opacity="0.95" fill-rule="evenodd" clip-rule="evenodd" d="M10 19C14.9706 19 19 14.9706 19 10C19 5.02944 14.9706 1 10 1C5.02944 1 1 5.02944 1 10C1 14.9706 5.02944 19 10 19ZM10 20C15.5228 20 20 15.5228 20 10C20 4.47715 15.5228 0 10 0C4.47715 0 0 4.47715 0 10C0 15.5228 4.47715 20 10 20Z" fill="#BA37DD"/>

</g>%n%n
<g transform="translate(138.000000, 8.000000) scale(2.000000 2.000000) "> 

<g id="surface1">
<path style=" stroke:none;fill-rule:nonzero;fill:rgb(100%,100%,100%);fill-opacity:1;" d="M 1.335938 6.8125 L 1.335938 10.867188 C 1.335938 10.976562 1.425781 11.070312 1.539062 11.070312 L 5.796875 11.070312 L 5.796875 6.8125 Z M 4.582031 7.824219 L 2.957031 7.824219 C 2.847656 7.824219 2.753906 7.734375 2.753906 7.621094 C 2.753906 7.511719 2.847656 7.417969 2.957031 7.417969 L 4.582031 7.417969 C 4.691406 7.417969 4.785156 7.511719 4.785156 7.621094 C 4.785156 7.734375 4.691406 7.824219 4.582031 7.824219 Z M 4.582031 7.824219 "/>
<path style=" stroke:none;fill-rule:nonzero;fill:rgb(100%,100%,100%);fill-opacity:1;" d="M 6.203125 6.8125 L 6.203125 11.070312 L 10.460938 11.070312 C 10.574219 11.070312 10.664062 10.976562 10.664062 10.867188 L 10.664062 6.8125 Z M 9.042969 7.824219 L 7.417969 7.824219 C 7.308594 7.824219 7.214844 7.734375 7.214844 7.621094 C 7.214844 7.511719 7.308594 7.417969 7.417969 7.417969 L 9.042969 7.417969 C 9.152344 7.417969 9.246094 7.511719 9.246094 7.621094 C 9.246094 7.734375 9.152344 7.824219 9.042969 7.824219 Z M 9.042969 7.824219 "/>
<path style=" stroke:none;fill-rule:nonzero;fill:rgb(100%,100%,100%);fill-opacity:1;" d="M 10.867188 4.4375 C 10.835938 4.4375 10.808594 4.433594 10.78125 4.421875 L 6 2.25 L 1.21875 4.421875 C 1.15625 4.449219 1.082031 4.445312 1.023438 4.40625 C 0.964844 4.371094 0.929688 4.304688 0.929688 4.234375 L 0.929688 3.324219 C 0.929688 3.242188 0.976562 3.171875 1.050781 3.136719 L 5.917969 0.949219 C 5.96875 0.925781 6.03125 0.925781 6.082031 0.949219 L 10.949219 3.136719 C 11.023438 3.171875 11.070312 3.242188 11.070312 3.324219 L 11.070312 4.234375 C 11.070312 4.304688 11.035156 4.371094 10.976562 4.40625 C 10.941406 4.429688 10.90625 4.4375 10.867188 4.4375 Z M 10.867188 4.4375 "/>
<path style=" stroke:none;fill-rule:nonzero;fill:rgb(100%,100%,100%);fill-opacity:1;" d="M 4.523438 3.363281 L 4.582031 3.363281 C 4.691406 3.363281 4.785156 3.453125 4.785156 3.566406 C 4.785156 3.679688 4.691406 3.769531 4.582031 3.769531 L 3.632812 3.769531 L 1.386719 4.789062 C 1.371094 4.796875 1.351562 4.800781 1.335938 4.804688 L 1.335938 6.40625 L 5.796875 6.40625 L 5.796875 2.785156 Z M 4.523438 3.363281 "/>
<path style=" stroke:none;fill-rule:nonzero;fill:rgb(100%,100%,100%);fill-opacity:1;" d="M 10.613281 4.789062 L 8.367188 3.769531 L 7.417969 3.769531 C 7.308594 3.769531 7.214844 3.679688 7.214844 3.566406 C 7.214844 3.453125 7.308594 3.363281 7.417969 3.363281 L 7.476562 3.363281 L 6.203125 2.785156 L 6.203125 6.40625 L 10.664062 6.40625 L 10.664062 4.804688 C 10.648438 4.800781 10.628906 4.796875 10.613281 4.789062 Z M 10.613281 4.789062 "/>
</g>

</g>%n%n</svg>