<svg width="300" height="40" viewBox="0 0 300 40" fill="none" xmlns="http://www.w3.org/2000/svg" xmlns:xlink="http://www.w3.org/1999/xlink" version="1.1">

<g transform="translate(130.000000, 0.000000) scale(2.000000 2.000000) "> 

<path opacity="0.956" d="M9.9994 1C14.9626 1 19 5.00182 19 10C19 14.9655 14.9626 19 9.9994 19C5.03739 19 1 14.9655 1 10C1 5.00182 5.03739 1 9.9994 1Z" fill="#CF87E1"/>
<path opacity="0.95" fill-rule="evenodd" clip-rule="evenodd" d="M10 19C14.9706 19 19 14.9706 19 10C19 5.02944 14.9706 1 10 1C5.02944 1 1 5.02944 1 10C1 14.9706 5.02944 19 10 19ZM10 20C15.5228 20 20 15.5228 20 10C20 4.47715 15.5228 0 10 0C4.47715 0 0 4.47715 0 10C0 15.5228 4.47715 20 10 20Z" fill="#BA37DD"/>

</g>%n%n
<g transform="translate(138.000000, 8.000000) scale(2.000000 2.000000) "> 

<g id="surface1">
<path style=" stroke:none;fill-rule:evenodd;fill:rgb(100%,100%,100%);fill-opacity:1;" d="M 7.832031 6.996094 L 9.414062 5.414062 C 10.195312 4.632812 10.195312 3.367188 9.414062 2.585938 C 9.023438 2.195312 8.511719 2 8 2 C 7.488281 2 6.976562 2.195312 6.585938 2.585938 L 5.003906 4.167969 C 5.089844 5.691406 6.308594 6.910156 7.832031 6.996094 Z M 7.332031 7.496094 C 5.808594 7.410156 4.589844 6.191406 4.503906 4.667969 L 2.585938 6.585938 C 1.804688 7.367188 1.804688 8.632812 2.585938 9.414062 C 3.367188 10.195312 4.632812 10.195312 5.414062 9.414062 Z M 7.332031 7.496094 "/>
</g>

</g>%n%n</svg>