<svg width="300" height="35" viewBox="0 0 300 35" fill="none" xmlns="http://www.w3.org/2000/svg" >

<g transform="translate(135.000000, 2.000000) scale(1.500000 1.500000) "> 

<path opacity="0.956" d="M9.9994 1C14.9626 1 19 5.00182 19 10C19 14.9655 14.9626 19 9.9994 19C5.03739 19 1 14.9655 1 10C1 5.00182 5.03739 1 9.9994 1Z" fill="#CF87E1"/>
<path opacity="0.95" fill-rule="evenodd" clip-rule="evenodd" d="M10 19C14.9706 19 19 14.9706 19 10C19 5.02944 14.9706 1 10 1C5.02944 1 1 5.02944 1 10C1 14.9706 5.02944 19 10 19ZM10 20C15.5228 20 20 15.5228 20 10C20 4.47715 15.5228 0 10 0C4.47715 0 0 4.47715 0 10C0 15.5228 4.47715 20 10 20Z" fill="#BA37DD"/>

</g>


<g transform="translate(141.000000, 8.000000) scale(0.375000 0.375000) "> 

<path opacity="0.5" fill-rule="evenodd" clip100-rule="evenodd" d="M31.4142 8.58579C32.1953 9.36683 32.1953 10.6332 31.4142 11.4142L19.4142 23.4142C18.6332 24.1953 17.3668 24.1953 16.5858 23.4142C15.8047 22.6332 15.8047 21.3668 16.5858 20.5858L28.5858 8.58579C29.3668 7.80474 30.6332 7.80474 31.4142 8.58579Z" fill="#ffffff"/>
<path fill-rule="evenodd" clip100-rule="evenodd" d="M16.5858 11.4142C15.8047 10.6332 15.8047 9.36683 16.5858 8.58579C17.3668 7.80474 18.6332 7.80474 19.4142 8.58579L30.8284 20H42.2192C43.2027 20 44 20.7973 44 21.7808C44 21.9264 43.9821 22.0714 43.9468 22.2127L40.1344 37.4626C40.0464 37.8142 39.8646 38.1354 39.6083 38.3917L38.5858 39.4142C38.2107 39.7893 37.702 40 37.1716 40H10.8284C10.298 40 9.78929 39.7893 9.41421 39.4142L8.39171 38.3917C8.1354 38.1354 7.95356 37.8142 7.86564 37.4626L4.05317 22.2127C4.01786 22.0714 4 21.9264 4 21.7808C4 20.7973 4.79728 20 5.78078 20H25.1716L16.5858 11.4142ZM28 24H20V36H28V24ZM32 36L36.3431 36L39.2239 24H32V36ZM16 36V24H8.77612L11.6569 36L16 36Z" fill="#ffffff"/>

</g>

</svg>