<svg width="300" height="40" viewBox="0 0 300 40" fill="none" xmlns="http://www.w3.org/2000/svg" xmlns:xlink="http://www.w3.org/1999/xlink">

<g transform="translate(130.000000, 0.000000) scale(2.000000 2.000000) "> 

<path opacity="0.956" d="M9.9994 1C14.9626 1 19 5.00182 19 10C19 14.9655 14.9626 19 9.9994 19C5.03739 19 1 14.9655 1 10C1 5.00182 5.03739 1 9.9994 1Z" fill="#CF87E1"/>
<path opacity="0.95" fill-rule="evenodd" clip-rule="evenodd" d="M10 19C14.9706 19 19 14.9706 19 10C19 5.02944 14.9706 1 10 1C5.02944 1 1 5.02944 1 10C1 14.9706 5.02944 19 10 19ZM10 20C15.5228 20 20 15.5228 20 10C20 4.47715 15.5228 0 10 0C4.47715 0 0 4.47715 0 10C0 15.5228 4.47715 20 10 20Z" fill="#BA37DD"/>

</g>%n%n
<g transform="translate(138.000000, 8.000000) scale(0.750000 0.750000) "> 

<defs>
<filter id="filter-remove-color" x="0%" y="0%" width="100%" height="100%">
<feColorMatrix color-interpolation-filters="sRGB" values="0 0 0 0 1 0 0 0 0 1 0 0 0 0 1 0 0 0 1 0" />
</filter>
<mask id="mask-0">
<g filter="url(#filter-remove-color)">
<rect x="-3.2" y="-3.2" width="38.4" height="38.4" fill="rgb(0%, 0%, 0%)" fill-opacity="0.5"/>
</g>
</mask>
<clip100Path id="clip100-0">
<rect x="0" y="0" width="32" height="32"/>
</clip100Path>
<g id="source-8" clip100-path="url(#clip100-0)">
<path fill-rule="nonzero" fill="rgb(100%, 100%, 100%)" fill-opacity="1" d="M 2.667969 8 L 18.667969 8 L 18.667969 18.667969 L 2.667969 18.667969 Z M 2.667969 8 "/>
<path fill-rule="nonzero" fill="rgb(100%, 100%, 100%)" fill-opacity="1" d="M 8 21.332031 L 13.332031 21.332031 L 13.332031 24 L 8 24 Z M 8 21.332031 "/>
<path fill-rule="nonzero" fill="rgb(100%, 100%, 100%)" fill-opacity="1" d="M 28 10.667969 C 28.738281 10.667969 29.332031 10.070312 29.332031 9.332031 C 29.332031 8.597656 28.738281 8 28 8 C 27.261719 8 26.667969 8.597656 26.667969 9.332031 C 26.667969 10.070312 27.261719 10.667969 28 10.667969 Z M 28 10.667969 "/>
</g>
</defs>
<g mask="url(#mask-0)">
<use xlink:href="#source-8"/>
</g>
<path fill-rule="evenodd" fill="rgb(100%, 100%, 100%)" fill-opacity="1" d="M 1.332031 5.332031 C 0.597656 5.332031 0 5.929688 0 6.667969 L 0 20 C 0 20.738281 0.597656 21.332031 1.332031 21.332031 L 20 21.332031 C 20.738281 21.332031 21.332031 20.738281 21.332031 20 L 21.332031 6.667969 C 21.332031 5.929688 20.738281 5.332031 20 5.332031 Z M 2.667969 8 L 2.667969 18.667969 L 18.667969 18.667969 L 18.667969 8 Z M 2.667969 8 "/>
<path fill-rule="nonzero" fill="rgb(100%, 100%, 100%)" fill-opacity="1" d="M 5.332031 24 L 16 24 L 16 26.667969 L 5.332031 26.667969 Z M 5.332031 24 "/>
<path fill-rule="evenodd" fill="rgb(100%, 100%, 100%)" fill-opacity="1" d="M 24 6.667969 C 24 5.929688 24.597656 5.332031 25.332031 5.332031 L 30.667969 5.332031 C 31.402344 5.332031 32 5.929688 32 6.667969 L 32 25.332031 C 32 26.070312 31.402344 26.667969 30.667969 26.667969 L 25.332031 26.667969 C 24.597656 26.667969 24 26.070312 24 25.332031 Z M 26.667969 9.332031 C 26.667969 8.597656 27.261719 8 28 8 C 28.738281 8 29.332031 8.597656 29.332031 9.332031 L 29.332031 12 C 29.332031 12.738281 28.738281 13.332031 28 13.332031 C 27.261719 13.332031 26.667969 12.738281 26.667969 12 Z M 26.667969 9.332031 "/>

</g>%n%n</svg>