<svg width="300" height="40" viewBox="0 0 300 40" fill="none" xmlns="http://www.w3.org/2000/svg" xmlns:xlink="http://www.w3.org/1999/xlink">

<g transform="translate(130.000000, 0.000000) scale(2.000000 2.000000) "> 

<path opacity="0.956" d="M9.9994 1C14.9626 1 19 5.00182 19 10C19 14.9655 14.9626 19 9.9994 19C5.03739 19 1 14.9655 1 10C1 5.00182 5.03739 1 9.9994 1Z" fill="#CF87E1"/>
<path opacity="0.95" fill-rule="evenodd" clip-rule="evenodd" d="M10 19C14.9706 19 19 14.9706 19 10C19 5.02944 14.9706 1 10 1C5.02944 1 1 5.02944 1 10C1 14.9706 5.02944 19 10 19ZM10 20C15.5228 20 20 15.5228 20 10C20 4.47715 15.5228 0 10 0C4.47715 0 0 4.47715 0 10C0 15.5228 4.47715 20 10 20Z" fill="#BA37DD"/>

</g>%n%n
<g transform="translate(138.000000, 8.000000) scale(0.750000 0.750000) "> 

<defs>
<filter id="filter-remove-color" x="0%" y="0%" width="100%" height="100%">
<feColorMatrix color-interpolation-filters="sRGB" values="0 0 0 0 1 0 0 0 0 1 0 0 0 0 1 0 0 0 1 0" />
</filter>
<mask id="mask-0">
<g filter="url(#filter-remove-color)">
<rect x="-3.2" y="-3.2" width="38.4" height="38.4" fill="rgb(0%, 0%, 0%)" fill-opacity="0.5"/>
</g>
</mask>
<clip100Path id="clip100-0">
<rect x="0" y="0" width="32" height="32"/>
</clip100Path>
<g id="source-7" clip100-path="url(#clip100-0)">
<path fill-rule="nonzero" fill="rgb(100%, 100%, 100%)" fill-opacity="1" d="M 5.332031 5.332031 L 26.667969 5.332031 L 26.667969 8 L 5.332031 8 Z M 5.332031 5.332031 "/>
</g>
</defs>
<path fill-rule="evenodd" fill="rgb(100%, 100%, 100%)" fill-opacity="1" d="M 8 2.667969 C 6.527344 2.667969 5.332031 3.859375 5.332031 5.332031 L 5.332031 8 L 3.21875 10.113281 C 2.867188 10.46875 2.667969 10.949219 2.667969 11.449219 C 2.667969 12.488281 3.511719 13.332031 4.550781 13.332031 L 4.636719 13.332031 C 4.871094 13.332031 5.105469 13.304688 5.332031 13.25 L 5.332031 24 C 5.332031 26.945312 7.722656 29.332031 10.667969 29.332031 L 21.332031 29.332031 C 24.277344 29.332031 26.667969 26.945312 26.667969 24 L 26.667969 13.25 C 26.894531 13.304688 27.128906 13.332031 27.363281 13.332031 L 27.449219 13.332031 C 28.488281 13.332031 29.332031 12.488281 29.332031 11.449219 C 29.332031 10.949219 29.132812 10.46875 28.78125 10.113281 L 26.667969 8 L 5.332031 8 L 5.332031 5.332031 L 26.667969 5.332031 C 26.667969 3.859375 25.472656 2.667969 24 2.667969 Z M 8 12 L 8.28125 11.859375 C 9.78125 11.109375 11.550781 11.109375 13.050781 11.859375 L 13.613281 12.140625 C 15.117188 12.890625 16.882812 12.890625 18.386719 12.140625 L 18.949219 11.859375 C 20.449219 11.109375 22.21875 11.109375 23.71875 11.859375 L 24 12 L 24 16.667969 L 22 13.332031 L 18 13.332031 L 16 16.667969 L 18 20 L 22 20 L 24 16.667969 L 24 24 C 24 25.472656 22.804688 26.667969 21.332031 26.667969 L 10.667969 26.667969 C 9.195312 26.667969 8 25.472656 8 24 L 8 20.648438 L 10 23.980469 L 14 23.980469 L 16 20.648438 L 14 17.3125 L 10 17.3125 L 8 20.648438 Z M 8 12 "/>
<g mask="url(#mask-0)">
<use xlink:href="#source-7"/>
</g>

</g>%n%n</svg>