<svg width="300" height="35" viewBox="0 0 300 35" fill="none" xmlns="http://www.w3.org/2000/svg">

<g transform="translate(135.000000, 2.000000) scale(1.500000 1.500000) "> 

<path opacity="0.95" fill-rule="evenodd" clip-rule="evenodd" d="M10 19C14.9706 19 19 14.9706 19 10C19 5.02944 14.9706 1 10 1C5.02944 1 1 5.02944 1 10C1 14.9706 5.02944 19 10 19ZM10 20C15.5228 20 20 15.5228 20 10C20 4.47715 15.5228 0 10 0C4.47715 0 0 4.47715 0 10C0 15.5228 4.47715 20 10 20Z" fill="#B348CE"/>
<path opacity="0.956" d="M9.9994 1C14.9626 1 19 5.00182 19 10C19 14.9655 14.9626 19 9.9994 19C5.03739 19 1 14.9655 1 10C1 5.00182 5.03739 1 9.9994 1Z" fill="#7D2793"/>

</g>


<g transform="translate(141.000000, 8.000000) scale(0.375000 0.375000) "> 

<path d="M13.0143 29.2661C17.3841 29.2661 22.0286 25.4904 22.0286 18.4931C22.0286 11.7911 18.091 4 13.0143 4C7.9376 4 4 11.7904 4 18.4931C4 25.4904 8.64446 29.2661 13.0143 29.2661Z" fill="#ffffff"/>
<path fill-rule="evenodd" clip100-rule="evenodd" d="M32.6126 18.0501C34.7513 17.9886 38.6467 19.2763 39.8771 24.4486C43.645 26.4699 44.1803 28.7755 43.9565 30.367C43.3756 34.4985 35.9505 39.7812 30.4844 41.5694C29.5028 41.933 27.885 42.4393 26.6545 42.4747C25.6559 42.5033 20.6662 42.554 20.5331 40.7168C20.4467 39.7458 22.9138 35.9596 24.0846 34.6749C25.2428 33.4045 25.4678 32.1423 25.7959 30.3016C25.8843 29.8055 25.9802 29.2675 26.1039 28.6759C26.1934 28.2254 26.2862 27.7167 26.384 27.1771C27.0634 23.4364 29.7722 18.373 32.2198 18.0793C32.3376 18.0645 32.4696 18.0542 32.6126 18.0501ZM34.4943 21.7279C33.4156 21.1918 32.1543 21.7242 31.6223 22.9445C31.0903 24.1648 31.4872 25.6419 32.5679 26.2488C33.6465 26.7849 34.9071 26.2525 35.4391 25.0322C35.9718 23.8119 35.5749 22.3348 34.4943 21.7279Z" fill="#ffffff"/>

</g>

</svg>