<svg width="300" height="40" viewBox="0 0 300 40" fill="none" xmlns="http://www.w3.org/2000/svg" xmlns:xlink="http://www.w3.org/1999/xlink">

<g transform="translate(130.000000, 0.000000) scale(2.000000 2.000000) "> 

<path opacity="0.956" d="M9.9994 1C14.9626 1 19 5.00182 19 10C19 14.9655 14.9626 19 9.9994 19C5.03739 19 1 14.9655 1 10C1 5.00182 5.03739 1 9.9994 1Z" fill="#CF87E1"/>
<path opacity="0.95" fill-rule="evenodd" clip-rule="evenodd" d="M10 19C14.9706 19 19 14.9706 19 10C19 5.02944 14.9706 1 10 1C5.02944 1 1 5.02944 1 10C1 14.9706 5.02944 19 10 19ZM10 20C15.5228 20 20 15.5228 20 10C20 4.47715 15.5228 0 10 0C4.47715 0 0 4.47715 0 10C0 15.5228 4.47715 20 10 20Z" fill="#BA37DD"/>

</g>%n%n
<g transform="translate(138.000000, 8.000000) scale(2.000000 2.000000) "> 

<path fill-rule="evenodd" fill="rgb(100%, 100%, 100%)" fill-opacity="1" stroke-width="9.13918" stroke-linecap="round" stroke-linejoin="round" stroke="rgb(100%, 100%, 100%)" stroke-opacity="1" stroke-miterlimit="4" d="M 215.045573 206.738281 L 309.257812 185.592448 C 352.49349 178.984375 374.772135 188.046875 389.309896 202.773438 C 445.950521 188.990885 468.984375 208.4375 488.053385 231.848958 L 475.592448 248.27474 C 460.299479 227.128906 435 207.115885 396.106771 215.234375 C 401.015625 240.911458 416.875 261.490885 438.58724 279.238281 C 452.369792 312.467448 466.529948 361.55599 489.752604 389.498698 L 475.403646 411.588542 C 459.733073 374.772135 437.076823 320.963542 404.791667 300.00651 C 379.869792 292.832031 356.835938 286.41276 338.89974 266.210938 L 327.005208 262.246094 C 297.929688 289.244792 253.183594 298.684896 212.402344 299.251302 C 184.648438 328.515625 161.425781 369.485677 122.532552 418.763021 L 95.722656 406.679688 C 127.81901 381.56901 152.552083 326.627604 180.117188 291.321615 C 178.795573 247.141927 153.307292 208.626302 135.9375 196.542969 C 118.567708 184.648438 97.799479 209.570312 77.786458 212.779948 C 66.269531 214.479167 57.584635 197.864583 64.192708 189.557292 C 71.178385 180.872396 97.610677 150.664062 120.833333 138.391927 L 129.707031 115.358073 L 135.182292 137.447917 C 162.936198 155.384115 191.822917 168.411458 215.045573 206.738281 Z M 215.045573 206.738281 " transform="matrix(0.0206897, 0, 0, 0.0206897, 0, 0)"/>
<path fill="none" stroke-width="30" stroke-linecap="round" stroke-linejoin="miter" stroke="rgb(100%, 100%, 100%)" stroke-opacity="1" stroke-miterlimit="4" d="M 535.63151 383.645833 C 467.285156 427.259115 385.911458 452.558594 298.684896 452.558594 C 208.059896 452.558594 123.854167 425.182292 53.808594 378.548177 " transform="matrix(0.0206897, 0, 0, 0.0206897, 0, 0)"/>

</g>%n%n</svg>