<svg width="300" height="40" viewBox="0 0 300 40" fill="none" xmlns="http://www.w3.org/2000/svg" xmlns:xlink="http://www.w3.org/1999/xlink">

<g transform="translate(130.000000, 0.000000) scale(2.000000 2.000000) "> 

<path opacity="0.956" d="M9.9994 1C14.9626 1 19 5.00182 19 10C19 14.9655 14.9626 19 9.9994 19C5.03739 19 1 14.9655 1 10C1 5.00182 5.03739 1 9.9994 1Z" fill="#CF87E1"/>
<path opacity="0.95" fill-rule="evenodd" clip-rule="evenodd" d="M10 19C14.9706 19 19 14.9706 19 10C19 5.02944 14.9706 1 10 1C5.02944 1 1 5.02944 1 10C1 14.9706 5.02944 19 10 19ZM10 20C15.5228 20 20 15.5228 20 10C20 4.47715 15.5228 0 10 0C4.47715 0 0 4.47715 0 10C0 15.5228 4.47715 20 10 20Z" fill="#BA37DD"/>

</g>%n%n
<g transform="translate(138.000000, 8.000000) scale(0.750000 0.750000) "> 

<path fill-rule="nonzero" fill="rgb(100%, 100%, 100%)" fill-opacity="1" d="M 8.648438 24.753906 L 28.539062 24.753906 C 28.539062 24.753906 26.320312 27.867188 24.371094 28.355469 C 23.367188 28.605469 22.152344 27.5625 21.121094 27.539062 C 20.132812 27.519531 18.90625 28.566406 17.921875 28.542969 C 16.789062 28.515625 15.402344 27.371094 14.355469 27.386719 C 13.078125 27.402344 12.355469 28.238281 11.425781 28.304688 C 10.375 28.382812 8.964844 28.226562 8.964844 28.226562 Z M 8.648438 24.753906 "/>
<path fill-rule="nonzero" fill="rgb(100%, 100%, 100%)" fill-opacity="1" d="M 15.515625 3.457031 L 15.515625 23.769531 L 3.460938 23.769531 Z M 15.515625 3.457031 "/>
<path fill-rule="nonzero" fill="rgb(100%, 100%, 100%)" fill-opacity="1" d="M 16.519531 7.363281 C 20.933594 11.085938 27.53125 24.207031 25.5625 23.546875 C 21.5 22.1875 16.410156 23.882812 16.410156 23.882812 C 16.410156 23.882812 16.527344 10.804688 16.519531 7.363281 Z M 16.519531 7.363281 "/>

</g>%n%n</svg>