<svg width="300" height="40" viewBox="0 0 300 40" fill="none" xmlns="http://www.w3.org/2000/svg" xmlns:xlink="http://www.w3.org/1999/xlink">

<g transform="translate(130.000000, 0.000000) scale(2.000000 2.000000) "> 

<path opacity="0.956" d="M9.9994 1C14.9626 1 19 5.00182 19 10C19 14.9655 14.9626 19 9.9994 19C5.03739 19 1 14.9655 1 10C1 5.00182 5.03739 1 9.9994 1Z" fill="#CF87E1"/>
<path opacity="0.95" fill-rule="evenodd" clip-rule="evenodd" d="M10 19C14.9706 19 19 14.9706 19 10C19 5.02944 14.9706 1 10 1C5.02944 1 1 5.02944 1 10C1 14.9706 5.02944 19 10 19ZM10 20C15.5228 20 20 15.5228 20 10C20 4.47715 15.5228 0 10 0C4.47715 0 0 4.47715 0 10C0 15.5228 4.47715 20 10 20Z" fill="#BA37DD"/>

</g>%n%n
<g transform="translate(138.000000, 8.000000) scale(2.000000 2.000000) "> 

<path fill-rule="nonzero" fill="rgb(100%, 100%, 100%)" fill-opacity="1" d="M 1 4 C 1 2.34375 2.34375 1 4 1 L 5 1 L 5 4 Z M 1 4 "/>
<path fill-rule="nonzero" fill="rgb(100%, 100%, 100%)" fill-opacity="1" d="M 4 8 C 2.34375 8 1 6.65625 1 5 L 9 5 L 9 3.5 C 9 3.222656 9.222656 3 9.5 3 L 10.5 3 C 10.777344 3 11 3.222656 11 3.5 C 11 3.777344 10.777344 4 10.5 4 L 10 4 L 10 5 C 10 6.65625 8.65625 8 7 8 Z M 4 8 "/>
<path fill-rule="nonzero" fill="rgb(100%, 100%, 100%)" fill-opacity="1" d="M 3 11 C 3.550781 11 4 10.550781 4 10 C 4 9.449219 3.550781 9 3 9 C 2.449219 9 2 9.449219 2 10 C 2 10.550781 2.449219 11 3 11 Z M 3 11 "/>
<path fill-rule="nonzero" fill="rgb(100%, 100%, 100%)" fill-opacity="1" d="M 9 10 C 9 10.550781 8.550781 11 8 11 C 7.449219 11 7 10.550781 7 10 C 7 9.449219 7.449219 9 8 9 C 8.550781 9 9 9.449219 9 10 Z M 9 10 "/>

</g>%n%n</svg>