<svg width="300" height="40" viewBox="0 0 300 40" fill="none" xmlns="http://www.w3.org/2000/svg" xmlns:xlink="http://www.w3.org/1999/xlink">

<g transform="translate(130.000000, 0.000000) scale(2.000000 2.000000) "> 

<path opacity="0.956" d="M9.9994 1C14.9626 1 19 5.00182 19 10C19 14.9655 14.9626 19 9.9994 19C5.03739 19 1 14.9655 1 10C1 5.00182 5.03739 1 9.9994 1Z" fill="#CF87E1"/>
<path opacity="0.95" fill-rule="evenodd" clip-rule="evenodd" d="M10 19C14.9706 19 19 14.9706 19 10C19 5.02944 14.9706 1 10 1C5.02944 1 1 5.02944 1 10C1 14.9706 5.02944 19 10 19ZM10 20C15.5228 20 20 15.5228 20 10C20 4.47715 15.5228 0 10 0C4.47715 0 0 4.47715 0 10C0 15.5228 4.47715 20 10 20Z" fill="#BA37DD"/>

</g>%n%n
<g transform="translate(138.000000, 8.000000) scale(2.000000 2.000000) "> 

<path fill-rule="evenodd" fill="rgb(100%, 100%, 100%)" fill-opacity="1" d="M 4 3 L 4 5 C 3.449219 5 3 5.449219 3 6 L 3 9 C 3 9.550781 3.449219 10 4 10 L 8 10 C 8.550781 10 9 9.550781 9 9 L 9 6 C 9 5.449219 8.550781 5 8 5 L 8 3 C 8 1.894531 7.105469 1 6 1 C 4.894531 1 4 1.894531 4 3 Z M 7 5 L 7 3 C 7 2.449219 6.550781 2 6 2 C 5.449219 2 5 2.449219 5 3 L 5 5 Z M 5 7 C 5 6.449219 5.449219 6 6 6 C 6.550781 6 7 6.449219 7 7 C 7 7.371094 6.800781 7.691406 6.5 7.867188 L 6.5 8.5 C 6.5 8.777344 6.277344 9 6 9 C 5.722656 9 5.5 8.777344 5.5 8.5 L 5.5 7.867188 C 5.199219 7.691406 5 7.371094 5 7 Z M 5 7 "/>

</g>%n%n</svg>