<svg width="300" height="40" viewBox="0 0 300 40" fill="none" xmlns="http://www.w3.org/2000/svg" xmlns:xlink="http://www.w3.org/1999/xlink">

<g transform="translate(130.000000, 0.000000) scale(2.000000 2.000000) "> 

<path opacity="0.956" d="M9.9994 1C14.9626 1 19 5.00182 19 10C19 14.9655 14.9626 19 9.9994 19C5.03739 19 1 14.9655 1 10C1 5.00182 5.03739 1 9.9994 1Z" fill="#CF87E1"/>
<path opacity="0.95" fill-rule="evenodd" clip-rule="evenodd" d="M10 19C14.9706 19 19 14.9706 19 10C19 5.02944 14.9706 1 10 1C5.02944 1 1 5.02944 1 10C1 14.9706 5.02944 19 10 19ZM10 20C15.5228 20 20 15.5228 20 10C20 4.47715 15.5228 0 10 0C4.47715 0 0 4.47715 0 10C0 15.5228 4.47715 20 10 20Z" fill="#BA37DD"/>

</g>%n%n
<g transform="translate(138.000000, 8.000000) scale(0.750000 0.750000) "> 

<path fill-rule="nonzero" fill="rgb(100%, 100%, 100%)" fill-opacity="1" d="M 9.019531 9.921875 C 13.113281 5.539062 18.761719 2.9375 24.753906 2.667969 C 25.503906 2.605469 26.230469 2.960938 26.640625 3.59375 C 27.054688 4.222656 27.089844 5.027344 26.734375 5.691406 C 26.378906 6.359375 25.6875 6.773438 24.933594 6.78125 C 20.003906 6.984375 15.355469 9.128906 12 12.746094 C 8.582031 16.304688 6.707031 21.066406 6.785156 26 C 6.839844 26.761719 6.464844 27.488281 5.816406 27.890625 C 5.167969 28.292969 4.351562 28.304688 3.691406 27.917969 C 3.03125 27.535156 2.640625 26.816406 2.671875 26.054688 C 2.605469 20.050781 4.886719 14.261719 9.027344 9.921875 Z M 14 14.625 C 16.992188 11.46875 21.117188 9.628906 25.464844 9.519531 C 26.566406 9.542969 27.453125 10.421875 27.484375 11.519531 C 27.515625 12.617188 26.683594 13.546875 25.585938 13.632812 C 22.320312 13.699219 19.21875 15.074219 16.976562 17.449219 C 14.734375 19.824219 13.535156 22.996094 13.652344 26.261719 C 13.734375 27.027344 13.378906 27.777344 12.730469 28.199219 C 12.082031 28.621094 11.253906 28.644531 10.582031 28.261719 C 9.910156 27.878906 9.511719 27.152344 9.546875 26.378906 C 9.410156 22.027344 11.011719 17.796875 14 14.625 Z M 18.960938 19.332031 C 20.816406 17.355469 23.421875 16.25 26.132812 16.285156 C 27.269531 16.304688 28.179688 17.242188 28.160156 18.378906 C 28.140625 19.519531 27.203125 20.425781 26.066406 20.40625 C 24.511719 20.398438 23.023438 21.03125 21.945312 22.152344 C 20.886719 23.292969 20.339844 24.820312 20.433594 26.375 C 20.515625 27.121094 20.179688 27.855469 19.5625 28.285156 C 18.945312 28.714844 18.140625 28.773438 17.46875 28.4375 C 16.792969 28.101562 16.355469 27.425781 16.328125 26.671875 C 16.136719 23.964844 17.089844 21.300781 18.960938 19.332031 Z M 23.441406 23.566406 C 24.742188 22.203125 26.898438 22.144531 28.273438 23.433594 C 29.632812 24.734375 29.691406 26.890625 28.40625 28.265625 C 27.105469 29.628906 24.949219 29.691406 23.574219 28.398438 C 22.214844 27.097656 22.152344 24.941406 23.441406 23.566406 Z M 23.441406 23.566406 "/>

</g>%n%n</svg>