<svg width="300" height="40" viewBox="0 0 300 40" fill="none" xmlns="http://www.w3.org/2000/svg" xmlns:xlink="http://www.w3.org/1999/xlink">

<g transform="translate(130.000000, 0.000000) scale(2.000000 2.000000) "> 

<path opacity="0.956" d="M9.9994 1C14.9626 1 19 5.00182 19 10C19 14.9655 14.9626 19 9.9994 19C5.03739 19 1 14.9655 1 10C1 5.00182 5.03739 1 9.9994 1Z" fill="#CF87E1"/>
<path opacity="0.95" fill-rule="evenodd" clip-rule="evenodd" d="M10 19C14.9706 19 19 14.9706 19 10C19 5.02944 14.9706 1 10 1C5.02944 1 1 5.02944 1 10C1 14.9706 5.02944 19 10 19ZM10 20C15.5228 20 20 15.5228 20 10C20 4.47715 15.5228 0 10 0C4.47715 0 0 4.47715 0 10C0 15.5228 4.47715 20 10 20Z" fill="#BA37DD"/>

</g>%n%n
<g transform="translate(138.000000, 8.000000) scale(0.750000 0.750000) "> 

<path fill-rule="nonzero" fill="rgb(100%, 100%, 100%)" fill-opacity="1" d="M 13.113281 6.367188 C 13.082031 4.355469 14.714844 2.699219 16.753906 2.667969 C 18.839844 2.636719 20.539062 4.308594 20.511719 6.367188 L 20.511719 10.957031 C 21.625 11.375 22.714844 11.90625 23.710938 12.429688 C 25.796875 13.523438 27.417969 14.621094 27.417969 14.621094 C 28.835938 15.578125 27.378906 17.683594 25.957031 16.722656 C 25.957031 16.722656 24.449219 15.703125 22.5 14.679688 C 20.554688 13.65625 18.109375 12.710938 16.8125 12.710938 C 15.515625 12.710938 13.070312 13.65625 11.121094 14.679688 C 9.175781 15.703125 7.664062 16.722656 7.664062 16.722656 C 6.246094 17.683594 4.785156 15.578125 6.207031 14.621094 C 6.207031 14.621094 7.824219 13.523438 9.914062 12.429688 C 10.90625 11.90625 11.996094 11.375 13.113281 10.957031 Z M 13.113281 6.367188 "/>
<path fill-rule="evenodd" fill="rgb(100%, 100%, 100%)" fill-opacity="1" d="M 21.167969 21.011719 C 21.167969 22.53125 20.101562 23.414062 19.1875 23.890625 C 21.011719 23.410156 26.117188 22.269531 27.921875 24.074219 C 28.539062 24.695312 28.265625 25.898438 27.921875 26.703125 C 27.417969 27.875 26.417969 29.332031 25.144531 29.332031 L 8.480469 29.332031 C 7.203125 29.332031 6.207031 27.875 5.703125 26.703125 C 5.355469 25.898438 5.082031 24.695312 5.703125 24.074219 C 7.914062 21.863281 15.089844 24.074219 15.089844 24.074219 L 15.582031 24.074219 C 13.792969 23.527344 12.457031 22.160156 12.457031 20.378906 C 12.457031 18.484375 13.695312 16.109375 16.8125 15.324219 C 15.941406 16.742188 16.851562 18.132812 17.683594 18.484375 C 17.683594 17.851562 18.21875 16.96875 19.425781 16.589844 C 19.425781 17.535156 19.859375 18.167969 20.296875 18.800781 C 20.730469 19.433594 21.167969 20.0625 21.167969 21.011719 Z M 18.53125 24.074219 L 15.871094 24.074219 C 13.339844 20.355469 20.121094 20.15625 18.601562 24.054688 Z M 18.53125 24.074219 "/>

</g>%n%n</svg>