<svg width="300" height="40" viewBox="0 0 300 40" fill="none" xmlns="http://www.w3.org/2000/svg" xmlns:xlink="http://www.w3.org/1999/xlink">

<g transform="translate(130.000000, 0.000000) scale(2.000000 2.000000) "> 

<path opacity="0.956" d="M9.9994 1C14.9626 1 19 5.00182 19 10C19 14.9655 14.9626 19 9.9994 19C5.03739 19 1 14.9655 1 10C1 5.00182 5.03739 1 9.9994 1Z" fill="#CF87E1"/>
<path opacity="0.95" fill-rule="evenodd" clip-rule="evenodd" d="M10 19C14.9706 19 19 14.9706 19 10C19 5.02944 14.9706 1 10 1C5.02944 1 1 5.02944 1 10C1 14.9706 5.02944 19 10 19ZM10 20C15.5228 20 20 15.5228 20 10C20 4.47715 15.5228 0 10 0C4.47715 0 0 4.47715 0 10C0 15.5228 4.47715 20 10 20Z" fill="#BA37DD"/>

</g>%n%n
<g transform="translate(138.000000, 8.000000) scale(0.750000 0.750000) "> 

<path fill-rule="evenodd" fill="rgb(100%, 100%, 100%)" fill-opacity="1" d="M 18.667969 8 L 26.667969 8 C 29.613281 8 32 10.386719 32 13.332031 C 32 16.277344 29.613281 18.667969 26.667969 18.667969 L 26.667969 21.332031 C 26.667969 24.277344 24.277344 26.667969 21.332031 26.667969 L 12.265625 26.667969 L 10.667969 25.332031 L 2.667969 14.667969 L 1.332031 16 L 0 16 L 0 8 L 1.332031 8 L 2.667969 10.667969 L 10.667969 18.667969 L 10.667969 8 L 16 8 L 16 4 C 16 3.261719 16.597656 2.667969 17.332031 2.667969 C 18.070312 2.667969 18.667969 3.261719 18.667969 4 Z M 26.667969 16 C 28.140625 16 29.332031 14.804688 29.332031 13.332031 C 29.332031 11.859375 28.140625 10.667969 26.667969 10.667969 Z M 26.667969 16 "/>

</g>%n%n</svg>