<svg width="300" height="40" viewBox="0 0 300 40" fill="none" xmlns="http://www.w3.org/2000/svg" xmlns:xlink="http://www.w3.org/1999/xlink" version="1.1">

<g transform="translate(130.000000, 0.000000) scale(2.000000 2.000000) "> 

<path opacity="0.956" d="M9.9994 1C14.9626 1 19 5.00182 19 10C19 14.9655 14.9626 19 9.9994 19C5.03739 19 1 14.9655 1 10C1 5.00182 5.03739 1 9.9994 1Z" fill="#CF87E1"/>
<path opacity="0.95" fill-rule="evenodd" clip-rule="evenodd" d="M10 19C14.9706 19 19 14.9706 19 10C19 5.02944 14.9706 1 10 1C5.02944 1 1 5.02944 1 10C1 14.9706 5.02944 19 10 19ZM10 20C15.5228 20 20 15.5228 20 10C20 4.47715 15.5228 0 10 0C4.47715 0 0 4.47715 0 10C0 15.5228 4.47715 20 10 20Z" fill="#BA37DD"/>

</g>%n%n
<g transform="translate(138.000000, 8.000000) scale(2.000000 2.000000) "> 

<g id="surface1">
<path style=" stroke:none;fill-rule:evenodd;fill:rgb(100%,100%,100%);fill-opacity:1;" d="M 3.863281 1.480469 C 3.945312 1.195312 4.203125 1 4.5 1 L 7.5 1 C 7.796875 1 8.054688 1.195312 8.136719 1.480469 L 9 4.5 L 9 4.75 C 9 4.886719 8.886719 5 8.75 5 L 3.25 5 C 3.113281 5 3 4.886719 3 4.75 L 3 4.5 Z M 5 6 L 7 6 L 7.351562 6.175781 C 7.75 6.375 8 6.78125 8 7.222656 C 8 7.40625 7.957031 7.585938 7.878906 7.75 C 7.613281 8.300781 7 9.609375 7 10 L 7.75 10 C 7.886719 10 8 10.113281 8 10.25 L 8 11 L 4 11 L 4 10.25 C 4 10.113281 4.113281 10 4.25 10 L 5 10 C 5 9.609375 4.386719 8.300781 4.121094 7.75 C 4.042969 7.585938 4 7.40625 4 7.222656 C 4 6.78125 4.25 6.375 4.648438 6.175781 Z M 5 6 "/>
</g>

</g>%n%n</svg>