<svg width="300" height="40" viewBox="0 0 300 40" fill="none" xmlns="http://www.w3.org/2000/svg" >

<g transform="translate(130.000000, 0.000000) scale(2.000000 2.000000) "> 

<path opacity="0.956" d="M9.9994 1C14.9626 1 19 5.00182 19 10C19 14.9655 14.9626 19 9.9994 19C5.03739 19 1 14.9655 1 10C1 5.00182 5.03739 1 9.9994 1Z" fill="#CF87E1"/>
<path opacity="0.95" fill-rule="evenodd" clip-rule="evenodd" d="M10 19C14.9706 19 19 14.9706 19 10C19 5.02944 14.9706 1 10 1C5.02944 1 1 5.02944 1 10C1 14.9706 5.02944 19 10 19ZM10 20C15.5228 20 20 15.5228 20 10C20 4.47715 15.5228 0 10 0C4.47715 0 0 4.47715 0 10C0 15.5228 4.47715 20 10 20Z" fill="#BA37DD"/>

</g>


<g transform="translate(138.000000, 8.000000) scale(0.500000 0.500000) "> 

<rect opacity="0.2" x="8" y="16" width="32" height="22" fill="#ffffff"/>
<path d="M8 4H40V12H8V4Z" fill="#ffffff"/>
<path d="M8 16V44H12V40H16V44H20V40H28V44H32V40H36V44H40V16H36V36H12V16H8Z" fill="#ffffff"/>
<path d="M16 16V32H32V16H26L28 20L24 28L20 20L22 16H16Z" fill="#ffffff"/>
<path d="M24 22L23 20L24 18L25 20L24 22Z" fill="#ffffff"/>

</g>

</svg>