<svg width="300" height="35" viewBox="0 0 300 35" fill="none" xmlns="http://www.w3.org/2000/svg">

<g transform="translate(135.000000, 2.000000) scale(1.500000 1.500000) "> 

<path opacity="0.956" d="M9.9994 1C14.9626 1 19 5.00182 19 10C19 14.9655 14.9626 19 9.9994 19C5.03739 19 1 14.9655 1 10C1 5.00182 5.03739 1 9.9994 1Z" fill="#CF87E1"/>
<path opacity="0.95" fill-rule="evenodd" clip-rule="evenodd" d="M10 19C14.9706 19 19 14.9706 19 10C19 5.02944 14.9706 1 10 1C5.02944 1 1 5.02944 1 10C1 14.9706 5.02944 19 10 19ZM10 20C15.5228 20 20 15.5228 20 10C20 4.47715 15.5228 0 10 0C4.47715 0 0 4.47715 0 10C0 15.5228 4.47715 20 10 20Z" fill="#BA37DD"/>

</g>


<g transform="translate(141.000000, 8.000000) scale(0.375000 0.375000) "> 

<path fill-rule="evenodd" clip100-rule="evenodd" d="M14 8H12V44H16V42C16 40.8954 16.8954 40 18 40C19.1046 40 20 40.8954 20 42V44H24V42C24 40.8954 24.8954 40 26 40C27.1046 40 28 40.8954 28 42V44H32V42C32 40.8954 32.8954 40 34 40H36V4H32V6C32 7.10457 31.1046 8 30 8C28.8954 8 28 7.10457 28 6V4H24V6C24 7.10457 23.1046 8 22 8C20.8954 8 20 7.10457 20 6V4H16V6C16 7.10457 15.1046 8 14 8ZM32 16V12H16V16H32ZM32 24V20H16V24H32ZM16 32V28H24V32H16Z" fill="#ffffff"/>

</g>

</svg>