<svg width="300" height="40" viewBox="0 0 300 40" fill="none" xmlns="http://www.w3.org/2000/svg" xmlns:xlink="http://www.w3.org/1999/xlink" version="1.1">

<g transform="translate(130.000000, 0.000000) scale(2.000000 2.000000) "> 

<path opacity="0.956" d="M9.9994 1C14.9626 1 19 5.00182 19 10C19 14.9655 14.9626 19 9.9994 19C5.03739 19 1 14.9655 1 10C1 5.00182 5.03739 1 9.9994 1Z" fill="#CF87E1"/>
<path opacity="0.95" fill-rule="evenodd" clip-rule="evenodd" d="M10 19C14.9706 19 19 14.9706 19 10C19 5.02944 14.9706 1 10 1C5.02944 1 1 5.02944 1 10C1 14.9706 5.02944 19 10 19ZM10 20C15.5228 20 20 15.5228 20 10C20 4.47715 15.5228 0 10 0C4.47715 0 0 4.47715 0 10C0 15.5228 4.47715 20 10 20Z" fill="#BA37DD"/>

</g>%n%n
<g transform="translate(138.000000, 8.000000) scale(2.000000 2.000000) "> 

<g id="surface1">
<path style=" stroke:none;fill-rule:evenodd;fill:rgb(100%,100%,100%);fill-opacity:1;" d="M 6 1 C 5.449219 1 5 1.449219 5 2 C 5 2.550781 5.449219 3 6 3 L 5.355469 3 C 4.632812 3 3.976562 3.386719 3.621094 4 L 2.804688 4 C 1.808594 4 1 4.808594 1 5.804688 C 1 6.40625 1.300781 6.96875 1.804688 7.304688 L 2.902344 8.035156 C 3.117188 8.605469 3.488281 9.117188 4 9.5 C 4 9.777344 4.222656 10 4.5 10 L 7.5 10 C 7.777344 10 8 9.777344 8 9.5 C 8.523438 9.105469 8.902344 8.582031 9.113281 7.996094 C 9.929688 7.945312 10.609375 7.335938 10.746094 6.519531 L 11 5 L 10 5 L 9.65625 6.027344 C 9.59375 6.21875 9.453125 6.367188 9.273438 6.445312 C 9.238281 6.1875 9.171875 5.929688 9.070312 5.679688 L 8.503906 4.257812 C 8.199219 3.496094 7.464844 3 6.644531 3 L 6 3 C 6.550781 3 7 2.550781 7 2 C 7 1.449219 6.550781 1 6 1 Z M 3.199219 5 L 2.804688 5 C 2.359375 5 2 5.359375 2 5.804688 C 2 6.070312 2.132812 6.320312 2.359375 6.472656 L 2.699219 6.699219 C 2.71875 6.355469 2.796875 6.011719 2.929688 5.679688 Z M 3.199219 5 "/>
</g>

</g>%n%n</svg>