<svg width="300" height="40" viewBox="0 0 300 40" fill="none" xmlns="http://www.w3.org/2000/svg" >

<g transform="translate(130.000000, 0.000000) scale(2.000000 2.000000) "> 

<path opacity="0.956" d="M9.9994 1C14.9626 1 19 5.00182 19 10C19 14.9655 14.9626 19 9.9994 19C5.03739 19 1 14.9655 1 10C1 5.00182 5.03739 1 9.9994 1Z" fill="#CF87E1"/>
<path opacity="0.95" fill-rule="evenodd" clip-rule="evenodd" d="M10 19C14.9706 19 19 14.9706 19 10C19 5.02944 14.9706 1 10 1C5.02944 1 1 5.02944 1 10C1 14.9706 5.02944 19 10 19ZM10 20C15.5228 20 20 15.5228 20 10C20 4.47715 15.5228 0 10 0C4.47715 0 0 4.47715 0 10C0 15.5228 4.47715 20 10 20Z" fill="#BA37DD"/>

</g>%n%n
<g transform="translate(138.000000, 8.000000) scale(0.500000 0.500000) "> 

<path fill-rule="evenodd" clip100-rule="evenodd" d="M40 24L36.6325 13.8974C36.2548 12.7643 35.1944 12 34 12H14C12.8056 12 11.7452 12.7643 11.3675 13.8974L8 24V37C8 38.6569 9.34315 40 11 40C12.6569 40 14 38.6569 14 37V36H34V37C34 38.6569 35.3431 40 37 40C38.6569 40 40 38.6569 40 37V24ZM33.117 16L35.7836 24H12.2164L14.883 16H33.117ZM16 30C16 31.1046 15.1046 32 14 32C12.8954 32 12 31.1046 12 30C12 28.8954 12.8954 28 14 28C15.1046 28 16 28.8954 16 30ZM36 30C36 31.1046 35.1046 32 34 32C32.8954 32 32 31.1046 32 30C32 28.8954 32.8954 28 34 28C35.1046 28 36 28.8954 36 30Z" fill="#ffffff"/>

</g>%n%n</svg>