<svg width="300" height="40" viewBox="0 0 300 40" fill="none" xmlns="http://www.w3.org/2000/svg" xmlns:xlink="http://www.w3.org/1999/xlink">

<g transform="translate(130.000000, 0.000000) scale(2.000000 2.000000) "> 

<path opacity="0.956" d="M9.9994 1C14.9626 1 19 5.00182 19 10C19 14.9655 14.9626 19 9.9994 19C5.03739 19 1 14.9655 1 10C1 5.00182 5.03739 1 9.9994 1Z" fill="#CF87E1"/>
<path opacity="0.95" fill-rule="evenodd" clip-rule="evenodd" d="M10 19C14.9706 19 19 14.9706 19 10C19 5.02944 14.9706 1 10 1C5.02944 1 1 5.02944 1 10C1 14.9706 5.02944 19 10 19ZM10 20C15.5228 20 20 15.5228 20 10C20 4.47715 15.5228 0 10 0C4.47715 0 0 4.47715 0 10C0 15.5228 4.47715 20 10 20Z" fill="#BA37DD"/>

</g>%n%n
<g transform="translate(138.000000, 8.000000) scale(2.000000 2.000000) "> 

<path fill-rule="nonzero" fill="rgb(100%, 100%, 100%)" fill-opacity="1" d="M 9.015625 2.222656 C 8.808594 2.222656 8.582031 2.390625 8.519531 2.597656 L 2.511719 2.597656 C 2.035156 2.597656 1.410156 3.191406 1.128906 4.488281 C 1.089844 4.667969 1.148438 4.867188 1.367188 4.867188 C 2.023438 4.867188 1.960938 5.316406 1.933594 5.679688 C 1.898438 6.128906 1.441406 6.671875 1.175781 7.84375 C 0.90625 9.042969 1.339844 9.777344 1.933594 9.777344 L 3.230469 9.777344 C 3.632812 9.777344 4.128906 9.613281 4.339844 8.597656 C 4.386719 8.378906 4.492188 8.265625 4.613281 7.132812 L 5.285156 7.132812 C 5.8125 7.132812 6.351562 7 6.785156 6.660156 C 7.21875 6.320312 7.503906 5.769531 7.503906 5.054688 L 7.503906 4.867188 L 10.148438 4.867188 C 10.359375 4.867188 10.527344 4.695312 10.527344 4.488281 C 10.734375 4.488281 10.90625 4.320312 10.90625 4.109375 L 10.90625 3.355469 C 10.90625 3.148438 10.734375 2.976562 10.527344 2.976562 C 10.527344 2.769531 10.359375 2.597656 10.148438 2.597656 L 9.65625 2.597656 C 9.71875 2.390625 9.601562 2.222656 9.394531 2.222656 Z M 5.992188 4.867188 L 6.75 4.867188 L 6.75 5.054688 C 6.75 5.582031 6.582031 5.867188 6.324219 6.070312 C 6.066406 6.273438 5.683594 6.378906 5.285156 6.378906 L 4.671875 6.378906 C 4.6875 6.167969 4.714844 6.035156 4.730469 5.777344 C 4.734375 5.730469 4.757812 5.664062 4.789062 5.585938 C 5 5.84375 5.328125 5.976562 5.652344 5.976562 C 5.804688 5.976562 5.933594 5.855469 5.933594 5.703125 C 5.933594 5.476562 5.4375 5.582031 5.378906 4.996094 C 5.546875 4.921875 5.746094 4.867188 5.992188 4.867188 Z M 5.992188 4.867188 "/>

</g>%n%n</svg>