<svg width="300" height="35" viewBox="0 0 300 35" fill="none" xmlns="http://www.w3.org/2000/svg" >

<g transform="translate(135.000000, 2.000000) scale(1.500000 1.500000) "> 

<path opacity="0.95" fill-rule="evenodd" clip-rule="evenodd" d="M10 19C14.9706 19 19 14.9706 19 10C19 5.02944 14.9706 1 10 1C5.02944 1 1 5.02944 1 10C1 14.9706 5.02944 19 10 19ZM10 20C15.5228 20 20 15.5228 20 10C20 4.47715 15.5228 0 10 0C4.47715 0 0 4.47715 0 10C0 15.5228 4.47715 20 10 20Z" fill="#B348CE"/>
<path opacity="0.956" d="M9.9994 1C14.9626 1 19 5.00182 19 10C19 14.9655 14.9626 19 9.9994 19C5.03739 19 1 14.9655 1 10C1 5.00182 5.03739 1 9.9994 1Z" fill="#7D2793"/>

</g>


<g transform="translate(141.000000, 8.000000) scale(0.031034 0.031034) "> 

<path d="M535.219 126.979C535.219 138.942 535.219 350.312 535.219 359.259C535.219 368.206 528.479 376.977 516.024 359.259C502.543 340.063 467.897 274.061 408.516 274.061C345.667 274.061 222.058 274.061 222.058 274.061C222.058 274.061 160.825 279.343 160.825 323.331C160.825 366.925 186.406 372.601 200.241 372.601C214.096 372.601 303.038 372.601 321.15 372.601C385.517 372.601 380.807 296.075 380.807 296.075C380.807 296.075 418.035 298.4 418.035 324.317C418.035 358.392 398.307 412.018 318.49 412.018C257.769 412.018 219.949 412.018 200.241 412.018C180.533 412.018 121.409 392.782 121.409 313.477C121.409 253.387 164.333 215.41 214.529 215.41C226.275 215.41 340.247 215.41 394.602 215.41C456.604 215.41 507.983 137.799 516.043 126.979C524.104 116.16 535.219 115.017 535.219 126.979Z" fill="#ffffff"/>
<path d="M75.3307 214.938H149.003C149.003 214.938 113.553 237.593 108.8 274.062H73.1826L75.3307 214.938Z" fill="#ffffff"/>
<path d="M64.4907 293.77V195.229" stroke="#ffffff" stroke-width="39.4162" stroke-miterlimit="10" stroke-linecap="round" stroke-linejoin="round"/>
<path d="M219.949 441.58V254.354" stroke="#ffffff" stroke-width="39.4162" stroke-miterlimit="10" stroke-linecap="round" stroke-linejoin="round"/>
<path d="M279.073 441.58V254.354" stroke="#ffffff" stroke-width="39.4162" stroke-miterlimit="10" stroke-linecap="round" stroke-linejoin="round"/>
<path d="M338.198 441.58V254.354" stroke="#ffffff" stroke-width="39.4162" stroke-miterlimit="10" stroke-linecap="round" stroke-linejoin="round"/>
<path d="M219.949 195.229V155.812" stroke="#ffffff" stroke-width="45.5139" stroke-miterlimit="10" stroke-linejoin="round"/>
<path d="M279.073 195.229V155.812" stroke="#ffffff" stroke-width="45.5139" stroke-miterlimit="10" stroke-linejoin="round"/>
<path d="M338.198 195.229V155.812" stroke="#ffffff" stroke-width="45.5139" stroke-miterlimit="10" stroke-linejoin="round"/>
<path d="M324.402 155.812H351.994" stroke="#ffffff" stroke-width="46.6372" stroke-miterlimit="10" stroke-linecap="round" stroke-linejoin="round"/>
<path d="M265.277 155.812H292.869" stroke="#ffffff" stroke-width="46.6372" stroke-miterlimit="10" stroke-linecap="round" stroke-linejoin="round"/>
<path d="M206.153 155.812H233.745" stroke="#ffffff" stroke-width="46.6372" stroke-miterlimit="10" stroke-linecap="round" stroke-linejoin="round"/>

</g>

</svg>