<svg width="300" height="35" viewBox="0 0 300 35" fill="none" xmlns="http://www.w3.org/2000/svg">

<g transform="translate(135.000000, 2.000000) scale(1.500000 1.500000) "> 

<path opacity="0.956" d="M9.9994 1C14.9626 1 19 5.00182 19 10C19 14.9655 14.9626 19 9.9994 19C5.03739 19 1 14.9655 1 10C1 5.00182 5.03739 1 9.9994 1Z" fill="#CF87E1"/>
<path opacity="0.95" fill-rule="evenodd" clip-rule="evenodd" d="M10 19C14.9706 19 19 14.9706 19 10C19 5.02944 14.9706 1 10 1C5.02944 1 1 5.02944 1 10C1 14.9706 5.02944 19 10 19ZM10 20C15.5228 20 20 15.5228 20 10C20 4.47715 15.5228 0 10 0C4.47715 0 0 4.47715 0 10C0 15.5228 4.47715 20 10 20Z" fill="#BA37DD"/>

</g>


<g transform="translate(141.000000, 8.000000) scale(0.375000 0.375000) "> 

<path d="M8 20C8 17.7909 9.79086 16 12 16V4H16V16C18.2091 16 20 17.7909 20 20V38C20 39.1046 19.1046 40 18 40H10C8.89543 40 8 39.1046 8 38V20Z" fill="#ffffff"/>
<path fill-rule="evenodd" clip100-rule="evenodd" d="M32 32V36L29.7889 37.1056C28.6925 37.6537 28 38.7743 28 40H40C40 38.7743 39.3075 37.6537 38.2111 37.1056L36 36V32C38.2091 32 40 30.2091 40 28V16H28V28C28 30.2091 29.7909 32 32 32ZM32 20V24C32 24 32 26 34 26C36 26 36 24 36 24V20H32Z" fill="#ffffff"/>

</g>

</svg>