<svg width="300" height="40" viewBox="0 0 300 40" fill="none" xmlns="http://www.w3.org/2000/svg" xmlns:xlink="http://www.w3.org/1999/xlink" version="1.1">

<g transform="translate(130.000000, 0.000000) scale(2.000000 2.000000) "> 

<path opacity="0.956" d="M9.9994 1C14.9626 1 19 5.00182 19 10C19 14.9655 14.9626 19 9.9994 19C5.03739 19 1 14.9655 1 10C1 5.00182 5.03739 1 9.9994 1Z" fill="#CF87E1"/>
<path opacity="0.95" fill-rule="evenodd" clip-rule="evenodd" d="M10 19C14.9706 19 19 14.9706 19 10C19 5.02944 14.9706 1 10 1C5.02944 1 1 5.02944 1 10C1 14.9706 5.02944 19 10 19ZM10 20C15.5228 20 20 15.5228 20 10C20 4.47715 15.5228 0 10 0C4.47715 0 0 4.47715 0 10C0 15.5228 4.47715 20 10 20Z" fill="#BA37DD"/>

</g>%n%n
<g transform="translate(138.000000, 8.000000) scale(2.000000 2.000000) "> 

<g id="surface1">
<path style=" stroke:none;fill-rule:nonzero;fill:rgb(100%,100%,100%);fill-opacity:1;" d="M 5.160156 3.320312 C 4.976562 3.496094 4.761719 3.632812 4.523438 3.714844 C 4.300781 3.792969 4.066406 3.824219 3.832031 3.804688 L 3.808594 4.039062 L 6.851562 5.054688 Z M 3.699219 5.09375 L 3.570312 6.320312 L 10.078125 8.488281 L 10.171875 8.453125 L 8.429688 6.667969 Z M 3.460938 7.375 L 3.332031 8.625 L 6.585938 9.707031 L 8.484375 9.046875 Z M 3.222656 9.679688 L 3.09375 10.929688 L 4.992188 10.265625 Z M 3.222656 9.679688 "/>
<path style=" stroke:none;fill-rule:nonzero;fill:rgb(100%,100%,100%);fill-opacity:1;" d="M 4.308594 3.003906 C 4.824219 2.820312 5.101562 2.253906 4.917969 1.738281 C 4.738281 1.21875 4.171875 0.945312 3.652344 1.125 C 3.136719 1.304688 2.863281 1.871094 3.042969 2.390625 C 3.222656 2.910156 3.789062 3.183594 4.308594 3.003906 Z M 4.308594 3.003906 "/>
</g>

</g>%n%n</svg>