<svg width="300" height="35" viewBox="0 0 300 35" fill="none" xmlns="http://www.w3.org/2000/svg" >

<g transform="translate(135.000000, 2.000000) scale(1.500000 1.500000) "> 

<path opacity="0.95" fill-rule="evenodd" clip-rule="evenodd" d="M10 19C14.9706 19 19 14.9706 19 10C19 5.02944 14.9706 1 10 1C5.02944 1 1 5.02944 1 10C1 14.9706 5.02944 19 10 19ZM10 20C15.5228 20 20 15.5228 20 10C20 4.47715 15.5228 0 10 0C4.47715 0 0 4.47715 0 10C0 15.5228 4.47715 20 10 20Z" fill="#B348CE"/>
<path opacity="0.956" d="M9.9994 1C14.9626 1 19 5.00182 19 10C19 14.9655 14.9626 19 9.9994 19C5.03739 19 1 14.9655 1 10C1 5.00182 5.03739 1 9.9994 1Z" fill="#7D2793"/>

</g>


<g transform="translate(141.000000, 8.000000) scale(0.375000 0.375000) "> 

<path fill-rule="evenodd" clip100-rule="evenodd" d="M28 12H39.9999C44.4182 12 48 15.5817 48 20C48 24.4183 44.4183 28 40 28L39.9999 32C39.9999 36.4183 36.4182 40 31.9999 40H18.3999L16 38L4 22L2 24H0V12H2L4 16L15.9999 27.9999V12H24V6C24 4.89543 24.8954 4 26 4C27.1046 4 28 4.89543 28 6V12ZM40 24C42.2091 24 44 22.2091 44 20C44 17.7909 42.2091 16 40 16V24Z" fill="#ffffff"/>

</g>

</svg>