<svg width="300" height="40" viewBox="0 0 300 40" fill="none" xmlns="http://www.w3.org/2000/svg" xmlns:xlink="http://www.w3.org/1999/xlink">

<g transform="translate(130.000000, 0.000000) scale(2.000000 2.000000) "> 

<path opacity="0.956" d="M9.9994 1C14.9626 1 19 5.00182 19 10C19 14.9655 14.9626 19 9.9994 19C5.03739 19 1 14.9655 1 10C1 5.00182 5.03739 1 9.9994 1Z" fill="#CF87E1"/>
<path opacity="0.95" fill-rule="evenodd" clip-rule="evenodd" d="M10 19C14.9706 19 19 14.9706 19 10C19 5.02944 14.9706 1 10 1C5.02944 1 1 5.02944 1 10C1 14.9706 5.02944 19 10 19ZM10 20C15.5228 20 20 15.5228 20 10C20 4.47715 15.5228 0 10 0C4.47715 0 0 4.47715 0 10C0 15.5228 4.47715 20 10 20Z" fill="#BA37DD"/>

</g>%n%n
<g transform="translate(138.000000, 8.000000) scale(0.750000 0.750000) "> 

<defs>
<filter id="filter-remove-color" x="0%" y="0%" width="100%" height="100%">
<feColorMatrix color-interpolation-filters="sRGB" values="0 0 0 0 1 0 0 0 0 1 0 0 0 0 1 0 0 0 1 0" />
</filter>
<mask id="mask-0">
<g filter="url(#filter-remove-color)">
<rect x="-3.2" y="-3.2" width="38.4" height="38.4" fill="rgb(0%, 0%, 0%)" fill-opacity="0.5"/>
</g>
</mask>
<clip100Path id="clip100-0">
<rect x="0" y="0" width="32" height="32"/>
</clip100Path>
<g id="source-6" clip100-path="url(#clip100-0)">
<path fill-rule="nonzero" fill="rgb(100%, 100%, 100%)" fill-opacity="1" d="M 12 2.667969 C 12 2.667969 13.332031 2.667969 16 2.667969 C 18.667969 2.667969 20 2.667969 20 2.667969 L 20 6.667969 L 12 6.667969 Z M 12 2.667969 "/>
</g>
<mask id="mask-1">
<g filter="url(#filter-remove-color)">
<rect x="-3.2" y="-3.2" width="38.4" height="38.4" fill="rgb(0%, 0%, 0%)" fill-opacity="0.2"/>
</g>
</mask>
<clip100Path id="clip100-1">
<rect x="0" y="0" width="32" height="32"/>
</clip100Path>
<g id="source-10" clip100-path="url(#clip100-1)">
<path fill-rule="evenodd" fill="rgb(100%, 100%, 100%)" fill-opacity="1" d="M 24 8 C 25.742188 8 27.222656 9.113281 27.773438 10.667969 C 29.964844 10.6875 31.734375 12.46875 31.734375 14.667969 C 31.734375 16.019531 31.0625 17.214844 30.035156 17.9375 C 31.25 19.148438 32 20.820312 32 22.667969 C 32 25.433594 30.316406 27.804688 27.917969 28.8125 C 27.539062 30.632812 25.929688 32 24 32 C 22.257812 32 20.777344 30.886719 20.226562 29.332031 C 17.96875 29.332031 16 27.691406 16 25.332031 C 16 23.910156 16.742188 22.664062 17.859375 21.953125 C 16.707031 20.753906 16 19.125 16 17.332031 C 16 14.566406 17.683594 12.195312 20.082031 11.1875 C 20.460938 9.367188 22.070312 8 24 8 Z M 24 8 "/>
</g>
</defs>
<g mask="url(#mask-0)">
<use xlink:href="#source-6"/>
</g>
<g mask="url(#mask-1)">
<use xlink:href="#source-10"/>
</g>
<path fill-rule="nonzero" fill="rgb(100%, 100%, 100%)" fill-opacity="1" d="M 9.332031 29.332031 L 20.226562 29.332031 C 17.96875 29.332031 16 27.691406 16 25.332031 C 16 23.910156 16.742188 22.664062 17.859375 21.953125 C 16.707031 20.753906 16 19.125 16 17.332031 C 16 14.566406 17.683594 12.195312 20.082031 11.1875 C 20.460938 9.367188 22.070312 8 24 8 C 25.742188 8 27.222656 9.113281 27.773438 10.667969 C 29.574219 10.683594 31.09375 11.894531 31.574219 13.546875 L 32 13.332031 L 28.457031 6.246094 C 27.359375 4.050781 25.117188 2.667969 22.667969 2.667969 L 20 2.667969 C 20 4.875 18.210938 6.667969 16 6.667969 C 13.789062 6.667969 12 4.875 12 2.667969 L 9.332031 2.667969 C 6.882812 2.667969 4.640625 4.050781 3.542969 6.246094 L 0 13.332031 L 5.332031 16 L 8 12 L 8 28 C 8 28.738281 8.597656 29.332031 9.332031 29.332031 Z M 9.332031 29.332031 "/>
<path fill-rule="nonzero" fill="rgb(100%, 100%, 100%)" fill-opacity="1" d="M 25.332031 12 C 25.332031 11.261719 24.738281 10.667969 24 10.667969 C 23.261719 10.667969 22.667969 11.261719 22.667969 12 L 22.667969 13.332031 C 20.457031 13.332031 18.667969 15.125 18.667969 17.332031 C 18.667969 19.542969 20.457031 21.332031 22.667969 21.332031 L 25.332031 21.332031 C 26.070312 21.332031 26.667969 21.929688 26.667969 22.667969 C 26.667969 23.402344 26.070312 24 25.332031 24 L 20 24 C 19.261719 24 18.667969 24.597656 18.667969 25.332031 C 18.667969 26.070312 19.261719 26.667969 20 26.667969 L 22.667969 26.667969 L 22.667969 28 C 22.667969 28.738281 23.261719 29.332031 24 29.332031 C 24.738281 29.332031 25.332031 28.738281 25.332031 28 L 25.332031 26.667969 C 27.542969 26.667969 29.332031 24.875 29.332031 22.667969 C 29.332031 20.457031 27.542969 18.667969 25.332031 18.667969 L 22.667969 18.667969 C 21.929688 18.667969 21.332031 18.070312 21.332031 17.332031 C 21.332031 16.597656 21.929688 16 22.667969 16 L 27.734375 16 C 28.46875 16 29.066406 15.402344 29.066406 14.667969 C 29.066406 13.929688 28.46875 13.332031 27.734375 13.332031 L 25.332031 13.332031 Z M 25.332031 12 "/>

</g>%n%n</svg>