<svg width="300" height="40" viewBox="0 0 300 40" fill="none" xmlns="http://www.w3.org/2000/svg" xmlns:xlink="http://www.w3.org/1999/xlink">

<g transform="translate(130.000000, 0.000000) scale(2.000000 2.000000) "> 

<path opacity="0.956" d="M9.9994 1C14.9626 1 19 5.00182 19 10C19 14.9655 14.9626 19 9.9994 19C5.03739 19 1 14.9655 1 10C1 5.00182 5.03739 1 9.9994 1Z" fill="#CF87E1"/>
<path opacity="0.95" fill-rule="evenodd" clip-rule="evenodd" d="M10 19C14.9706 19 19 14.9706 19 10C19 5.02944 14.9706 1 10 1C5.02944 1 1 5.02944 1 10C1 14.9706 5.02944 19 10 19ZM10 20C15.5228 20 20 15.5228 20 10C20 4.47715 15.5228 0 10 0C4.47715 0 0 4.47715 0 10C0 15.5228 4.47715 20 10 20Z" fill="#BA37DD"/>

</g>%n%n
<g transform="translate(138.000000, 8.000000) scale(0.750000 0.750000) "> 

<defs>
<filter id="filter-remove-color" x="0%" y="0%" width="100%" height="100%">
<feColorMatrix color-interpolation-filters="sRGB" values="0 0 0 0 1 0 0 0 0 1 0 0 0 0 1 0 0 0 1 0" />
</filter>
<mask id="mask-0">
<g filter="url(#filter-remove-color)">
<rect x="-3.2" y="-3.2" width="38.4" height="38.4" fill="rgb(0%, 0%, 0%)" fill-opacity="0.5"/>
</g>
</mask>
<clip100Path id="clip100-0">
<rect x="0" y="0" width="32" height="32"/>
</clip100Path>
<g id="source-8" clip100-path="url(#clip100-0)">
<path fill-rule="nonzero" fill="rgb(100%, 100%, 100%)" fill-opacity="1" d="M 5.332031 12 L 10.667969 12 L 14.667969 22.667969 L 12 22.667969 Z M 5.332031 12 "/>
<path fill-rule="nonzero" fill="rgb(100%, 100%, 100%)" fill-opacity="1" d="M 28 12 L 22.667969 12 L 17.332031 22.667969 L 20 22.667969 Z M 28 12 "/>
</g>
</defs>
<path fill-rule="evenodd" fill="rgb(100%, 100%, 100%)" fill-opacity="1" d="M 6.933594 5.867188 C 7.183594 5.53125 7.582031 5.332031 8 5.332031 L 24 5.332031 C 24.417969 5.332031 24.816406 5.53125 25.066406 5.867188 L 29.058594 11.191406 C 29.078125 11.214844 29.09375 11.238281 29.109375 11.261719 C 29.125 11.285156 29.140625 11.3125 29.15625 11.335938 C 29.257812 11.515625 29.316406 11.710938 29.332031 11.910156 C 29.332031 11.960938 29.335938 12.011719 29.332031 12.0625 C 29.320312 12.269531 29.261719 12.476562 29.15625 12.664062 C 29.144531 12.683594 29.132812 12.699219 29.121094 12.71875 C 29.105469 12.746094 29.085938 12.777344 29.066406 12.804688 L 17.070312 28.960938 C 16.820312 29.300781 16.421875 29.5 16 29.5 C 15.578125 29.5 15.179688 29.300781 14.929688 28.960938 L 2.9375 12.804688 C 2.910156 12.769531 2.886719 12.734375 2.863281 12.699219 C 2.808594 12.605469 2.761719 12.507812 2.730469 12.410156 C 2.6875 12.273438 2.667969 12.136719 2.667969 11.996094 C 2.667969 11.859375 2.6875 11.722656 2.730469 11.585938 C 2.765625 11.488281 2.808594 11.390625 2.867188 11.296875 C 2.890625 11.261719 2.914062 11.226562 2.941406 11.191406 Z M 23.332031 8 L 25.332031 10.667969 L 6.667969 10.667969 L 8.667969 8 Z M 22.292969 13.332031 L 25.351562 13.332031 L 19.804688 20.804688 Z M 19.484375 13.332031 L 12.515625 13.332031 L 16 23.785156 Z M 9.707031 13.332031 L 6.648438 13.332031 L 12.195312 20.804688 Z M 9.707031 13.332031 "/>
<g mask="url(#mask-0)">
<use xlink:href="#source-8"/>
</g>

</g>%n%n</svg>