<svg width="300" height="40" viewBox="0 0 300 40" fill="none" xmlns="http://www.w3.org/2000/svg" >

<g transform="translate(130.000000, 0.000000) scale(2.000000 2.000000) "> 

<path opacity="0.956" d="M9.9994 1C14.9626 1 19 5.00182 19 10C19 14.9655 14.9626 19 9.9994 19C5.03739 19 1 14.9655 1 10C1 5.00182 5.03739 1 9.9994 1Z" fill="#CF87E1"/>
<path opacity="0.95" fill-rule="evenodd" clip-rule="evenodd" d="M10 19C14.9706 19 19 14.9706 19 10C19 5.02944 14.9706 1 10 1C5.02944 1 1 5.02944 1 10C1 14.9706 5.02944 19 10 19ZM10 20C15.5228 20 20 15.5228 20 10C20 4.47715 15.5228 0 10 0C4.47715 0 0 4.47715 0 10C0 15.5228 4.47715 20 10 20Z" fill="#BA37DD"/>

</g>%n%n
<g transform="translate(138.000000, 8.000000) scale(0.041379 0.041379) "> 

<path fill-rule="evenodd" clip100-rule="evenodd" d="M420.072 48.7646L375.459 93.1954L346.155 102.856C372.954 107.839 407.765 128.869 427 148.104C446.164 167.268 466.652 200.978 473.136 231.168L480.909 200.645L529.061 147.144V48.7646H420.072ZM226.952 478.511C195.511 471.028 164.818 448.944 145.489 429.615C126.23 410.356 107.188 380.261 99.9548 352.926L90.4587 378.195L50.9395 417.715L51.2455 531.158L150.318 531.236L195.909 485.645L226.952 478.511Z" fill="#ffffff"/>
<path fill-rule="evenodd" clip100-rule="evenodd" d="M288.326 131.834C246.422 131.834 206.234 148.48 176.603 178.111C146.973 207.742 130.326 247.93 130.326 289.834C130.326 331.738 146.973 371.926 176.603 401.557C206.234 431.188 246.422 447.834 288.326 447.834C330.23 447.834 370.418 431.188 400.049 401.557C429.68 371.926 446.326 331.738 446.326 289.834C446.326 247.93 429.68 207.742 400.049 178.111C370.418 148.48 330.23 131.834 288.326 131.834ZM288.326 168.604C304.246 168.604 320.011 171.739 334.719 177.832C349.427 183.924 362.792 192.854 374.049 204.111C385.306 215.368 394.236 228.733 400.329 243.441C406.421 258.149 409.557 273.914 409.557 289.834C409.557 305.754 406.421 321.519 400.329 336.227C394.236 350.935 385.306 364.3 374.049 375.557C362.792 386.814 349.427 395.744 334.719 401.836C320.011 407.929 304.246 411.064 288.326 411.064C272.406 411.064 256.642 407.929 241.933 401.836C227.225 395.744 213.861 386.814 202.603 375.557C191.346 364.3 182.416 350.935 176.324 336.227C170.231 321.519 167.096 305.754 167.096 289.834C167.096 273.914 170.231 258.149 176.324 243.441C182.416 228.733 191.346 215.368 202.603 204.111C213.861 192.854 227.225 183.924 241.933 177.832C256.642 171.739 272.406 168.604 288.326 168.604Z" fill="#ffffff"/>
<path d="M288.125 196.496L288.424 290.589L339.133 311.668" stroke="#ffffff" stroke-width="30"/>

</g>%n%n</svg>