<svg width="300" height="40" viewBox="0 0 300 40" fill="none" xmlns="http://www.w3.org/2000/svg" xmlns:xlink="http://www.w3.org/1999/xlink">

<g transform="translate(130.000000, 0.000000) scale(2.000000 2.000000) "> 

<path opacity="0.956" d="M9.9994 1C14.9626 1 19 5.00182 19 10C19 14.9655 14.9626 19 9.9994 19C5.03739 19 1 14.9655 1 10C1 5.00182 5.03739 1 9.9994 1Z" fill="#CF87E1"/>
<path opacity="0.95" fill-rule="evenodd" clip-rule="evenodd" d="M10 19C14.9706 19 19 14.9706 19 10C19 5.02944 14.9706 1 10 1C5.02944 1 1 5.02944 1 10C1 14.9706 5.02944 19 10 19ZM10 20C15.5228 20 20 15.5228 20 10C20 4.47715 15.5228 0 10 0C4.47715 0 0 4.47715 0 10C0 15.5228 4.47715 20 10 20Z" fill="#BA37DD"/>

</g>%n%n
<g transform="translate(138.000000, 8.000000) scale(0.750000 0.750000) "> 

<path fill-rule="nonzero" fill="rgb(100%, 100%, 100%)" fill-opacity="1" d="M 9.496094 16.851562 L 16.070312 19.878906 C 16.070312 19.878906 16.84375 20.332031 18.128906 19.878906 L 28.761719 15.628906 C 28.761719 15.628906 30.285156 14.667969 28.355469 13.765625 L 20.578125 15.371094 L 17.164062 14.53125 L 22.320312 14.210938 C 22.320312 14.210938 23.992188 12.984375 22.382812 11.828125 L 16.972656 11.828125 C 16.972656 11.828125 14.585938 10.472656 11.105469 11.117188 L 2.667969 10.667969 L 2.667969 17.949219 Z M 9.496094 16.851562 "/>

</g>%n%n</svg>