<svg width="300" height="40" viewBox="0 0 300 40" fill="none" xmlns="http://www.w3.org/2000/svg" xmlns:xlink="http://www.w3.org/1999/xlink" version="1.1">

<g transform="translate(130.000000, 0.000000) scale(2.000000 2.000000) "> 

<path opacity="0.956" d="M9.9994 1C14.9626 1 19 5.00182 19 10C19 14.9655 14.9626 19 9.9994 19C5.03739 19 1 14.9655 1 10C1 5.00182 5.03739 1 9.9994 1Z" fill="#CF87E1"/>
<path opacity="0.95" fill-rule="evenodd" clip-rule="evenodd" d="M10 19C14.9706 19 19 14.9706 19 10C19 5.02944 14.9706 1 10 1C5.02944 1 1 5.02944 1 10C1 14.9706 5.02944 19 10 19ZM10 20C15.5228 20 20 15.5228 20 10C20 4.47715 15.5228 0 10 0C4.47715 0 0 4.47715 0 10C0 15.5228 4.47715 20 10 20Z" fill="#BA37DD"/>

</g>%n%n
<g transform="translate(138.000000, 8.000000) scale(2.000000 2.000000) "> 

<g id="surface1">
<path style=" stroke:none;fill-rule:nonzero;fill:rgb(100%,100%,100%);fill-opacity:1;" d="M 4 2 C 2.894531 2 2 2.894531 2 4 L 2 5 L 3 5 L 3 4.5 C 3 4.222656 3.222656 4 3.5 4 L 4.5 4 C 4.777344 4 5 4.222656 5 4.5 L 5 5 L 7 5 L 7 4.5 C 7 4.222656 7.222656 4 7.5 4 L 8.5 4 C 8.777344 4 9 4.222656 9 4.5 L 9 5 L 10 5 L 10 4 C 10 2.894531 9.105469 2 8 2 Z M 4 2 "/>
<path style=" stroke:none;fill-rule:nonzero;fill:rgb(100%,100%,100%);fill-opacity:1;" d="M 1 5.5 C 1 5.222656 1.222656 5 1.5 5 C 1.777344 5 2 5.222656 2 5.5 L 2 6 L 10 6 L 10 5.5 C 10 5.222656 10.222656 5 10.5 5 C 10.777344 5 11 5.222656 11 5.5 L 11 9.5 C 11 9.777344 10.777344 10 10.5 10 C 10.222656 10 10 9.777344 10 9.5 L 10 9 L 2 9 L 2 9.5 C 2 9.777344 1.777344 10 1.5 10 C 1.222656 10 1 9.777344 1 9.5 Z M 1 5.5 "/>
</g>

</g>%n%n</svg>