<svg width="300" height="35" viewBox="0 0 300 35" fill="none" xmlns="http://www.w3.org/2000/svg" >

<g transform="translate(135.000000, 2.000000) scale(1.500000 1.500000) "> 

<path opacity="0.956" d="M9.9994 1C14.9626 1 19 5.00182 19 10C19 14.9655 14.9626 19 9.9994 19C5.03739 19 1 14.9655 1 10C1 5.00182 5.03739 1 9.9994 1Z" fill="#CF87E1"/>
<path opacity="0.95" fill-rule="evenodd" clip-rule="evenodd" d="M10 19C14.9706 19 19 14.9706 19 10C19 5.02944 14.9706 1 10 1C5.02944 1 1 5.02944 1 10C1 14.9706 5.02944 19 10 19ZM10 20C15.5228 20 20 15.5228 20 10C20 4.47715 15.5228 0 10 0C4.47715 0 0 4.47715 0 10C0 15.5228 4.47715 20 10 20Z" fill="#BA37DD"/>

</g>


<g transform="translate(141.000000, 8.000000) scale(0.375000 0.375000) "> 

<path fill-rule="evenodd" clip100-rule="evenodd" d="M36 44H4V12C4 7.58172 7.58172 4 12 4H36C38.9611 4 41.5465 5.6088 42.9297 8H40C37.7909 8 36 9.79086 36 12V44ZM15.4142 32.5858C14.6332 31.8047 13.3668 31.8047 12.5858 32.5858L8.58579 36.5858C7.80474 37.3668 7.80474 38.6332 8.58579 39.4142C9.36684 40.1953 10.6332 40.1953 11.4142 39.4142L14 36.8284L16.5858 39.4142C17.3668 40.1953 18.6332 40.1953 19.4142 39.4142L22 36.8284L24.5858 39.4142C25.3668 40.1953 26.6332 40.1953 27.4142 39.4142L31.4142 35.4142C32.1953 34.6332 32.1953 33.3668 31.4142 32.5858C30.6332 31.8047 29.3668 31.8047 28.5858 32.5858L26 35.1716L23.4142 32.5858C22.6332 31.8047 21.3668 31.8047 20.5858 32.5858L18 35.1716L15.4142 32.5858Z" fill="#ffffff"/>
<path d="M44 20V30C44 31.1046 43.1046 32 42 32H40V20H44Z" fill="#ffffff"/>
<path d="M46 12H40V16H46C47.1046 16 48 15.1046 48 14C48 12.8954 47.1046 12 46 12Z" fill="#ffffff"/>

</g>

</svg>