<svg width="40" height="40" viewBox="0 0 40 40" fill="none" xmlns="http://www.w3.org/2000/svg" >

<g transform="translate(0.000000, 0.000000) scale(2.000000 2.000000) "> 

<path opacity="0.956" d="M9.9994 1C14.9626 1 19 5.00182 19 10C19 14.9655 14.9626 19 9.9994 19C5.03739 19 1 14.9655 1 10C1 5.00182 5.03739 1 9.9994 1Z" fill="#CF87E1"/>
<path opacity="0.95" fill-rule="evenodd" clip-rule="evenodd" d="M10 19C14.9706 19 19 14.9706 19 10C19 5.02944 14.9706 1 10 1C5.02944 1 1 5.02944 1 10C1 14.9706 5.02944 19 10 19ZM10 20C15.5228 20 20 15.5228 20 10C20 4.47715 15.5228 0 10 0C4.47715 0 0 4.47715 0 10C0 15.5228 4.47715 20 10 20Z" fill="#BA37DD"/>

</g>


<g transform="translate(8.000000, 8.000000) scale(2.000000 2.000000) "> 

<path fill-rule="evenodd" clip100-rule="evenodd" d="M24 4C21.7909 4 20 5.79086 20 8C20 10.2091 21.7909 12 24 12H21.4163C18.5306 12 15.9014 13.5498 14.4877 16H11.2111C7.22852 16 4 19.2285 4 23.2111C4 25.6222 5.20498 27.8737 7.2111 29.2111L11.6121 32.1451C12.4644 34.4183 13.9538 36.4654 16 38C16 39.1046 16.8954 40 18 40H30C31.1046 40 32 39.1046 32 38C34.0938 36.4296 35.6046 34.3227 36.4463 31.9861C39.7135 31.7817 42.4418 29.3491 42.9864 26.0816L44 20H40L38.6325 24.1026C38.3768 24.8695 37.8085 25.4675 37.0975 25.7739C36.9547 24.7423 36.6862 23.7156 36.2861 22.7152L34.0115 17.0289C32.7966 13.9916 29.855 12 26.5837 12H24C26.2091 12 28 10.2091 28 8C28 5.79086 26.2091 4 24 4ZM12.8 20H11.2111C9.43766 20 8 21.4377 8 23.2111C8 24.2847 8.53658 25.2874 9.4299 25.8829L10.8019 26.7975C10.8822 25.4238 11.1815 24.0462 11.7139 22.7152L12.8 20Z" fill="#ffffff"/>

</g>

</svg>