<svg width="300" height="40" viewBox="0 0 300 40" fill="none" xmlns="http://www.w3.org/2000/svg" xmlns:xlink="http://www.w3.org/1999/xlink" version="1.1">

<g transform="translate(130.000000, 0.000000) scale(2.000000 2.000000) "> 

<path opacity="0.956" d="M9.9994 1C14.9626 1 19 5.00182 19 10C19 14.9655 14.9626 19 9.9994 19C5.03739 19 1 14.9655 1 10C1 5.00182 5.03739 1 9.9994 1Z" fill="#CF87E1"/>
<path opacity="0.95" fill-rule="evenodd" clip-rule="evenodd" d="M10 19C14.9706 19 19 14.9706 19 10C19 5.02944 14.9706 1 10 1C5.02944 1 1 5.02944 1 10C1 14.9706 5.02944 19 10 19ZM10 20C15.5228 20 20 15.5228 20 10C20 4.47715 15.5228 0 10 0C4.47715 0 0 4.47715 0 10C0 15.5228 4.47715 20 10 20Z" fill="#BA37DD"/>

</g>%n%n
<g transform="translate(138.000000, 8.000000) scale(2.000000 2.000000) "> 

<defs>
<filter id="alpha" filterUnits="objectBoundingBox" x="0%" y="0%" width="100%" height="100%">
  <feColorMatrix type="matrix" in="SourceGraphic" values="0 0 0 0 1 0 0 0 0 1 0 0 0 0 1 0 0 0 1 0"/>
</filter>
<mask id="mask0">
  <g filter="url(#alpha)">
<rect x="0" y="0" width="12" height="12" style="fill:rgb(0%,0%,0%);fill-opacity:0.5;stroke:none;"/>
  </g>
</mask>
<clip100Path id="clip1001">
  <rect x="0" y="0" width="12" height="12"/>
</clip100Path>
<g id="surface5" clip100-path="url(#clip1001)">
<path style=" stroke:none;fill-rule:nonzero;fill:rgb(100%,100%,100%);fill-opacity:1;" d="M 3 10 L 9.5 10 C 9.777344 10 10 10.222656 10 10.5 C 10 10.777344 9.777344 11 9.5 11 L 3 11 Z M 3 10 "/>
</g>
</defs>
<g id="surface1">
<path style=" stroke:none;fill-rule:nonzero;fill:rgb(100%,100%,100%);fill-opacity:1;" d="M 9.5 11 L 3.5 11 C 3.222656 11 3 10.777344 3 10.5 C 3 10.222656 3.222656 10 3.5 10 L 9 10 L 10 9 L 2 9 L 2 10.5 C 2 11.328125 2.671875 12 3.5 12 L 9.5 12 C 9.777344 12 10 11.777344 10 11.5 C 10 11.222656 9.777344 11 9.5 11 Z M 9.5 11 "/>
<path style=" stroke:none;fill-rule:evenodd;fill:rgb(100%,100%,100%);fill-opacity:1;" d="M 9 1 C 9.550781 1 10 1.449219 10 2 L 10 9.5 C 10 9.777344 9.777344 10 9.5 10 L 3 10 C 2.449219 10 2 9.550781 2 9 L 2 2.5 C 2 1.671875 2.671875 1 3.5 1 Z M 6.5 3.5 L 8 3.5 L 8 4.5 L 6.5 4.5 L 6.5 8 L 5.5 8 L 5.5 4.5 L 4 4.5 L 4 3.5 L 5.5 3.5 L 5.5 2 L 6.5 2 Z M 6.5 3.5 "/>
<use xlink:href="#surface5" mask="url(#mask0)"/>
</g>

</g>%n%n</svg>