<svg width="300" height="40" viewBox="0 0 300 40" fill="none" xmlns="http://www.w3.org/2000/svg" xmlns:xlink="http://www.w3.org/1999/xlink">

<g transform="translate(130.000000, 0.000000) scale(2.000000 2.000000) "> 

<path opacity="0.956" d="M9.9994 1C14.9626 1 19 5.00182 19 10C19 14.9655 14.9626 19 9.9994 19C5.03739 19 1 14.9655 1 10C1 5.00182 5.03739 1 9.9994 1Z" fill="#CF87E1"/>
<path opacity="0.95" fill-rule="evenodd" clip-rule="evenodd" d="M10 19C14.9706 19 19 14.9706 19 10C19 5.02944 14.9706 1 10 1C5.02944 1 1 5.02944 1 10C1 14.9706 5.02944 19 10 19ZM10 20C15.5228 20 20 15.5228 20 10C20 4.47715 15.5228 0 10 0C4.47715 0 0 4.47715 0 10C0 15.5228 4.47715 20 10 20Z" fill="#BA37DD"/>

</g>%n%n
<g transform="translate(138.000000, 8.000000) scale(0.750000 0.750000) "> 

<path fill-rule="nonzero" fill="rgb(100%, 100%, 100%)" fill-opacity="1" d="M 29.332031 2.667969 L 25.886719 2.667969 C 24.679688 2.667969 23.519531 3.144531 22.667969 4 C 21.8125 4.855469 21.332031 6.011719 21.332031 7.21875 L 21.332031 10.667969 L 24.78125 10.667969 C 25.988281 10.667969 27.148438 10.1875 28 9.332031 C 28.855469 8.480469 29.332031 7.320312 29.332031 6.113281 Z M 29.332031 2.667969 "/>
<path fill-rule="nonzero" fill="rgb(100%, 100%, 100%)" fill-opacity="1" d="M 3.609375 30.277344 L 7.21875 26.667969 L 13.332031 26.667969 L 13.332031 24 L 8 24 L 8 18.667969 L 5.332031 18.667969 L 5.332031 24.78125 L 1.722656 28.390625 Z M 3.609375 30.277344 "/>
<path fill-rule="nonzero" fill="rgb(100%, 100%, 100%)" fill-opacity="1" d="M 8 10.667969 C 10.945312 10.667969 13.332031 13.054688 13.332031 16 L 13.332031 18.667969 L 12 18.667969 C 9.792969 18.667969 8 16.875 8 14.667969 Z M 8 10.667969 "/>
<path fill-rule="nonzero" fill="rgb(100%, 100%, 100%)" fill-opacity="1" d="M 13.332031 18.667969 L 17.332031 18.667969 C 19.542969 18.667969 21.332031 20.457031 21.332031 22.667969 L 21.332031 24 L 17.332031 24 C 15.125 24 13.332031 22.210938 13.332031 20 Z M 13.332031 18.667969 "/>
<path fill-rule="nonzero" fill="rgb(100%, 100%, 100%)" fill-opacity="1" d="M 18.667969 10.667969 C 18.667969 7.722656 16.277344 5.332031 13.332031 5.332031 L 13.332031 9.332031 C 13.332031 11.542969 15.125 13.332031 17.332031 13.332031 L 18.667969 13.332031 L 18.667969 14.667969 C 18.667969 16.875 20.457031 18.667969 22.667969 18.667969 L 26.667969 18.667969 L 26.667969 17.332031 C 26.667969 15.125 24.875 13.332031 22.667969 13.332031 L 18.667969 13.332031 Z M 18.667969 10.667969 "/>

</g>%n%n</svg>