<svg width="40" height="40" viewBox="0 0 40 40" fill="none" xmlns="http://www.w3.org/2000/svg" >

<g transform="translate(0.000000, 0.000000) scale(2.000000 2.000000) "> 

<path opacity="0.956" d="M9.9994 1C14.9626 1 19 5.00182 19 10C19 14.9655 14.9626 19 9.9994 19C5.03739 19 1 14.9655 1 10C1 5.00182 5.03739 1 9.9994 1Z" fill="#CF87E1"/>
<path opacity="0.95" fill-rule="evenodd" clip-rule="evenodd" d="M10 19C14.9706 19 19 14.9706 19 10C19 5.02944 14.9706 1 10 1C5.02944 1 1 5.02944 1 10C1 14.9706 5.02944 19 10 19ZM10 20C15.5228 20 20 15.5228 20 10C20 4.47715 15.5228 0 10 0C4.47715 0 0 4.47715 0 10C0 15.5228 4.47715 20 10 20Z" fill="#BA37DD"/>

</g>


<g transform="translate(8.000000, 8.000000) scale(2.000000 2.000000) "> 

<path d="M8 12H40V36H8V12Z" fill="#ffffff" fill-opacity="0.4"/>
<path fill-rule="evenodd" clip100-rule="evenodd" d="M28 8H40C40 5.79086 41.7909 4 44 4C46.2091 4 48 5.79086 48 8C48 10.2091 46.2091 12 44 12V20C46.2091 20 48 21.7909 48 24C48 26.2091 46.2091 28 44 28V36C46.2091 36 48 37.7909 48 40C48 42.2091 46.2091 44 44 44C41.7909 44 40 42.2091 40 40H28C28 42.2091 26.2091 44 24 44C21.7909 44 20 42.2091 20 40H8C8 42.2091 6.20914 44 4 44C1.79086 44 0 42.2091 0 40C0 37.7909 1.79086 36 4 36V28C1.79086 28 0 26.2091 0 24C0 21.7909 1.79086 20 4 20V12C1.79086 12 0 10.2091 0 8C0 5.79086 1.79086 4 4 4C6.20914 4 8 5.79086 8 8H20C20 5.79086 21.7909 4 24 4C26.2091 4 28 5.79086 28 8ZM8 12H40V36H8V12Z" fill="#ffffff"/>

</g>

</svg>