<svg width="300" height="40" viewBox="0 0 300 40" fill="none" xmlns="http://www.w3.org/2000/svg" >

<g transform="translate(130.000000, 0.000000) scale(2.000000 2.000000) "> 

<path opacity="0.956" d="M9.9994 1C14.9626 1 19 5.00182 19 10C19 14.9655 14.9626 19 9.9994 19C5.03739 19 1 14.9655 1 10C1 5.00182 5.03739 1 9.9994 1Z" fill="#CF87E1"/>
<path opacity="0.95" fill-rule="evenodd" clip-rule="evenodd" d="M10 19C14.9706 19 19 14.9706 19 10C19 5.02944 14.9706 1 10 1C5.02944 1 1 5.02944 1 10C1 14.9706 5.02944 19 10 19ZM10 20C15.5228 20 20 15.5228 20 10C20 4.47715 15.5228 0 10 0C4.47715 0 0 4.47715 0 10C0 15.5228 4.47715 20 10 20Z" fill="#BA37DD"/>

</g>


<g transform="translate(138.000000, 8.000000) scale(0.500000 0.500000) "> 

<g clip100-path="url(#clip1000)">
<path d="M14.0332 39.7566C14.6622 39.9156 15.3209 40 15.9993 40H27.9993C32.4176 40 35.9993 36.4183 35.9993 32V15.2811L41.1978 16.904C43.2882 17.5566 44.4646 19.8159 43.8256 21.9504L36.8827 45.1392C36.2436 47.2736 34.031 48.4749 31.9407 47.8224L16.8012 43.096C15.2702 42.6181 14.2294 41.2781 14.0332 39.7566Z" fill="#ffffff"/>
<path fill-rule="evenodd" clip100-rule="evenodd" d="M28 4C30.2091 4 32 5.79086 32 8V32C32 34.2091 30.2091 36 28 36H12C9.79086 36 8 34.2091 8 32V8C8 5.79086 9.79086 4 12 4H28ZM23.757 24C23.0487 24 22.3587 23.8229 21.7461 23.4933L23.9995 28H15.9995L18.2529 23.4932C17.6403 23.8229 16.9503 24 16.242 24H15.9994C13.7902 24 11.9994 22.2092 11.9994 20C11.9994 18.741 12.5922 17.5555 13.5994 16.8L19.9994 12L26.4002 16.8001C27.4075 17.5555 28.0004 18.7411 28.0004 20.0001C28.0004 22.2092 26.2096 24 24.0005 24H23.757Z" fill="#ffffff"/>
</g>
<defs>
<clip100Path id="clip1000">
<path d="M0 0H48V48H0V0Z" fill="#ffffff"/>
</clip100Path>
</defs>

</g>

</svg>