<svg width="300" height="40" viewBox="0 0 300 40" fill="none" xmlns="http://www.w3.org/2000/svg" xmlns:xlink="http://www.w3.org/1999/xlink">

<g transform="translate(130.000000, 0.000000) scale(2.000000 2.000000) "> 

<path opacity="0.956" d="M9.9994 1C14.9626 1 19 5.00182 19 10C19 14.9655 14.9626 19 9.9994 19C5.03739 19 1 14.9655 1 10C1 5.00182 5.03739 1 9.9994 1Z" fill="#CF87E1"/>
<path opacity="0.95" fill-rule="evenodd" clip-rule="evenodd" d="M10 19C14.9706 19 19 14.9706 19 10C19 5.02944 14.9706 1 10 1C5.02944 1 1 5.02944 1 10C1 14.9706 5.02944 19 10 19ZM10 20C15.5228 20 20 15.5228 20 10C20 4.47715 15.5228 0 10 0C4.47715 0 0 4.47715 0 10C0 15.5228 4.47715 20 10 20Z" fill="#BA37DD"/>

</g>%n%n
<g transform="translate(138.000000, 8.000000) scale(0.750000 0.750000) "> 

<path fill-rule="nonzero" fill="rgb(100%, 100%, 100%)" fill-opacity="1" d="M 2.667969 26.667969 L 28 26.667969 L 28 29.332031 L 2.667969 29.332031 Z M 2.667969 26.667969 "/>
<path fill-rule="evenodd" fill="rgb(100%, 100%, 100%)" fill-opacity="1" d="M 3.980469 6 L 4.019531 28 L 5.351562 28 L 5.3125 7.332031 L 25.3125 7.332031 L 25.351562 28 L 26.6875 28 L 26.648438 6 Z M 3.980469 6 "/>
<path fill-rule="nonzero" fill="rgb(100%, 100%, 100%)" fill-opacity="1" d="M 18.667969 14.667969 L 22.667969 14.667969 L 22.667969 21.332031 L 18.667969 21.332031 Z M 18.667969 14.667969 "/>
<path fill-rule="nonzero" fill="rgb(100%, 100%, 100%)" fill-opacity="1" d="M 8 17.332031 L 16 17.332031 L 16 28 L 8 28 Z M 8 17.332031 "/>
<path fill-rule="nonzero" fill="rgb(100%, 100%, 100%)" fill-opacity="1" d="M 16 17.332031 C 16 19.542969 14.210938 21.332031 12 21.332031 C 9.789062 21.332031 8 19.542969 8 17.332031 C 8 15.125 9.789062 13.332031 12 13.332031 C 14.210938 13.332031 16 15.125 16 17.332031 Z M 16 17.332031 "/>
<path fill-rule="nonzero" fill="rgb(100%, 100%, 100%)" fill-opacity="1" d="M 5.332031 4 C 3.125 4 1.945312 5.585938 1.332031 8 C 1.335938 9.761719 2.492188 11.316406 4.179688 11.824219 C 5.871094 12.335938 7.691406 11.675781 8.667969 10.207031 C 9.40625 11.324219 10.660156 11.996094 12 11.996094 C 13.339844 11.996094 14.59375 11.324219 15.332031 10.207031 C 16.074219 11.324219 17.324219 11.996094 18.667969 11.996094 C 20.007812 11.996094 21.257812 11.324219 22 10.207031 C 22.976562 11.675781 24.796875 12.335938 26.484375 11.824219 C 28.175781 11.316406 29.332031 9.761719 29.332031 8 C 28.71875 5.640625 27.539062 4 25.332031 4 C 23.992188 4 22.738281 4.675781 22 5.792969 C 21.257812 4.675781 20.007812 4.003906 18.667969 4.003906 C 17.324219 4.003906 16.074219 4.675781 15.332031 5.792969 C 14.59375 4.675781 13.339844 4.003906 12 4.003906 C 10.660156 4.003906 9.40625 4.675781 8.667969 5.792969 C 7.925781 4.675781 6.675781 4 5.332031 4 Z M 5.332031 4 "/>
<path fill-rule="evenodd" fill="rgb(100%, 100%, 100%)" fill-opacity="1" d="M 1.332031 8 L 2.667969 2.667969 L 28 2.667969 L 29.332031 8 L 1.332031 8 "/>

</g>%n%n</svg>