<svg width="300" height="40" viewBox="0 0 300 40" fill="none" xmlns="http://www.w3.org/2000/svg" xmlns:xlink="http://www.w3.org/1999/xlink">

<g transform="translate(130.000000, 0.000000) scale(2.000000 2.000000) "> 

<path opacity="0.956" d="M9.9994 1C14.9626 1 19 5.00182 19 10C19 14.9655 14.9626 19 9.9994 19C5.03739 19 1 14.9655 1 10C1 5.00182 5.03739 1 9.9994 1Z" fill="#CF87E1"/>
<path opacity="0.95" fill-rule="evenodd" clip-rule="evenodd" d="M10 19C14.9706 19 19 14.9706 19 10C19 5.02944 14.9706 1 10 1C5.02944 1 1 5.02944 1 10C1 14.9706 5.02944 19 10 19ZM10 20C15.5228 20 20 15.5228 20 10C20 4.47715 15.5228 0 10 0C4.47715 0 0 4.47715 0 10C0 15.5228 4.47715 20 10 20Z" fill="#BA37DD"/>

</g>%n%n
<g transform="translate(138.000000, 8.000000) scale(0.750000 0.750000) "> 

<path fill="none" stroke-width="38.9617" stroke-linecap="round" stroke-linejoin="round" stroke="rgb(100%, 100%, 100%)" stroke-opacity="1" stroke-miterlimit="10" d="M 366.606445 85.668945 L 302.744141 149.53125 C 295.734863 156.611328 289.575195 188.259277 277.185059 200.649414 C 264.865723 212.96875 226.137695 251.696777 200.649414 277.255859 C 175.090332 302.744141 156.611328 295.734863 149.53125 302.814941 L 85.668945 366.606445 C 72.924805 379.350586 72.924805 404.909668 85.668945 417.724609 L 162.346191 494.331055 C 175.090332 507.075195 200.649414 507.075195 213.393555 494.331055 L 277.255859 430.46875 C 284.265137 423.459473 277.255859 404.909668 302.744141 379.421387 C 328.303223 353.862305 354.641113 327.524414 379.421387 302.814941 C 404.20166 278.034668 423.459473 284.335938 430.539551 277.255859 L 494.331055 213.393555 C 507.075195 200.649414 507.075195 175.090332 494.331055 162.346191 C 494.331055 162.346191 430.539551 98.483887 417.724609 85.668945 C 404.909668 72.924805 379.421387 72.924805 366.606445 85.668945 Z M 366.606445 85.668945 " transform="matrix(0.0551724, 0, 0, 0.0551724, 0, 0)"/>
<path fill="none" stroke-width="38.9617" stroke-linecap="round" stroke-linejoin="round" stroke="rgb(100%, 100%, 100%)" stroke-opacity="1" stroke-miterlimit="10" d="M 458.789062 121.140137 L 522.792969 57.207031 " transform="matrix(0.0551724, 0, 0, 0.0551724, 0, 0)"/>
<path fill="none" stroke-width="38.9617" stroke-linecap="round" stroke-linejoin="round" stroke="rgb(100%, 100%, 100%)" stroke-opacity="1" stroke-miterlimit="10" d="M 121.140137 458.789062 L 57.207031 522.792969 " transform="matrix(0.0551724, 0, 0, 0.0551724, 0, 0)"/>
<path fill="none" stroke-width="38.9617" stroke-linecap="round" stroke-linejoin="round" stroke="rgb(100%, 100%, 100%)" stroke-opacity="1" stroke-miterlimit="10" d="M 328.94043 129.494629 L 451.638184 252.192383 " transform="matrix(0.0551724, 0, 0, 0.0551724, 0, 0)"/>
<path fill="none" stroke-width="38.9617" stroke-linecap="round" stroke-linejoin="round" stroke="rgb(100%, 100%, 100%)" stroke-opacity="1" stroke-miterlimit="10" d="M 286.813965 200.720215 L 374.677734 288.583984 " transform="matrix(0.0551724, 0, 0, 0.0551724, 0, 0)"/>
<path fill="none" stroke-width="38.9617" stroke-linecap="round" stroke-linejoin="round" stroke="rgb(100%, 100%, 100%)" stroke-opacity="1" stroke-miterlimit="10" d="M 208.720703 281.220703 L 296.584473 369.084473 " transform="matrix(0.0551724, 0, 0, 0.0551724, 0, 0)"/>
<path fill="none" stroke-width="38.9617" stroke-linecap="round" stroke-linejoin="round" stroke="rgb(100%, 100%, 100%)" stroke-opacity="1" stroke-miterlimit="10" d="M 144.858398 318.461914 L 267.556152 441.159668 " transform="matrix(0.0551724, 0, 0, 0.0551724, 0, 0)"/>
<path fill-rule="evenodd" fill="rgb(100%, 100%, 100%)" fill-opacity="1" d="M 7.523438 17.53125 L 12.210938 14.601562 L 17.804688 20.148438 L 14.105469 24.25 Z M 7.523438 17.53125 "/>
<path fill-rule="evenodd" fill="rgb(100%, 100%, 100%)" fill-opacity="1" d="M 25.554688 13.25 L 20.867188 16.183594 L 15.277344 10.636719 L 18.972656 6.535156 Z M 25.554688 13.25 "/>

</g>%n%n</svg>