<svg width="40" height="40" viewBox="0 0 40 40" fill="none" xmlns="http://www.w3.org/2000/svg" >

<g transform="translate(0.000000, 0.000000) scale(2.000000 2.000000) "> 

<path opacity="0.956" d="M9.9994 1C14.9626 1 19 5.00182 19 10C19 14.9655 14.9626 19 9.9994 19C5.03739 19 1 14.9655 1 10C1 5.00182 5.03739 1 9.9994 1Z" fill="#CF87E1"/>
<path opacity="0.95" fill-rule="evenodd" clip-rule="evenodd" d="M10 19C14.9706 19 19 14.9706 19 10C19 5.02944 14.9706 1 10 1C5.02944 1 1 5.02944 1 10C1 14.9706 5.02944 19 10 19ZM10 20C15.5228 20 20 15.5228 20 10C20 4.47715 15.5228 0 10 0C4.47715 0 0 4.47715 0 10C0 15.5228 4.47715 20 10 20Z" fill="#BA37DD"/>

</g>


<g transform="translate(8.000000, 8.000000) scale(2.000000 2.000000) "> 

<path opacity="0.5" d="M18 4C18 4 20 4 24 4C28 4 30 4 30 4V10H18V4Z" fill="#ffffff"/>
<path d="M40 24L48 20L42.6833 9.36656C41.0388 6.07758 37.6772 4 34 4H30C30 7.31371 27.3137 10 24 10C20.6863 10 18 7.31371 18 4H14C10.3228 4 6.96121 6.07758 5.31672 9.36656L0 20L8 24L12 18V43C12 43.5523 12.4477 44 13 44H14H34H35.0001C35.5524 44 36 43.5523 36 43V18L40 24Z" fill="#ffffff"/>

</g>

</svg>