<svg width="300" height="40" viewBox="0 0 300 40" fill="none" xmlns="http://www.w3.org/2000/svg" xmlns:xlink="http://www.w3.org/1999/xlink">

<g transform="translate(130.000000, 0.000000) scale(2.000000 2.000000) "> 

<path opacity="0.956" d="M9.9994 1C14.9626 1 19 5.00182 19 10C19 14.9655 14.9626 19 9.9994 19C5.03739 19 1 14.9655 1 10C1 5.00182 5.03739 1 9.9994 1Z" fill="#CF87E1"/>
<path opacity="0.95" fill-rule="evenodd" clip-rule="evenodd" d="M10 19C14.9706 19 19 14.9706 19 10C19 5.02944 14.9706 1 10 1C5.02944 1 1 5.02944 1 10C1 14.9706 5.02944 19 10 19ZM10 20C15.5228 20 20 15.5228 20 10C20 4.47715 15.5228 0 10 0C4.47715 0 0 4.47715 0 10C0 15.5228 4.47715 20 10 20Z" fill="#BA37DD"/>

</g>%n%n
<g transform="translate(138.000000, 8.000000) scale(2.000000 2.000000) "> 

<path fill-rule="nonzero" fill="rgb(100%, 100%, 100%)" fill-opacity="1" d="M 4.996094 2.964844 L 5.019531 3 C 5.402344 3.527344 6.433594 4.296875 7.351562 4.925781 L 9.257812 6.070312 C 9.382812 6.148438 9.46875 6.273438 9.492188 6.417969 C 9.515625 6.566406 9.476562 6.714844 9.378906 6.824219 L 7.515625 9 L 8.5 9 C 8.777344 9 9 9.222656 9 9.5 L 9 10.5 C 9 10.777344 8.777344 11 8.5 11 L 3.5 11 C 3.222656 11 3 10.777344 3 10.5 L 3 9.5 C 3 9.222656 3.222656 9 3.5 9 L 6.199219 9 L 8.234375 6.625 L 7.511719 6.191406 C 6.34375 6.363281 4.785156 6.640625 4 7 C 3.929688 7.03125 3.867188 7.0625 3.804688 7.089844 C 3.433594 7.6875 3.03125 8.035156 2.683594 7.996094 C 1.988281 7.917969 1.789062 6.289062 2.242188 4.355469 C 2.667969 2.53125 3.519531 1.089844 4.199219 1.003906 L 4.199219 1 L 4.199219 1.003906 C 4.238281 1 4.277344 1 4.316406 1.003906 C 4.792969 1.058594 5.039062 1.847656 4.996094 2.964844 Z M 4.996094 2.964844 "/>

</g>%n%n</svg>