<svg width="300" height="35" viewBox="0 0 300 35" fill="none" xmlns="http://www.w3.org/2000/svg" >

<g transform="translate(135.000000, 2.000000) scale(1.500000 1.500000) "> 

<path opacity="0.956" d="M9.9994 1C14.9626 1 19 5.00182 19 10C19 14.9655 14.9626 19 9.9994 19C5.03739 19 1 14.9655 1 10C1 5.00182 5.03739 1 9.9994 1Z" fill="#CF87E1"/>
<path opacity="0.95" fill-rule="evenodd" clip-rule="evenodd" d="M10 19C14.9706 19 19 14.9706 19 10C19 5.02944 14.9706 1 10 1C5.02944 1 1 5.02944 1 10C1 14.9706 5.02944 19 10 19ZM10 20C15.5228 20 20 15.5228 20 10C20 4.47715 15.5228 0 10 0C4.47715 0 0 4.47715 0 10C0 15.5228 4.47715 20 10 20Z" fill="#BA37DD"/>

</g>


<g transform="translate(141.000000, 8.000000) scale(0.375000 0.375000) "> 

<path fill-rule="evenodd" clip100-rule="evenodd" d="M16 12C16 7.58172 19.5817 4 24 4C28.4183 4 32 7.58172 32 12V16H40V32C40 38.6274 34.6274 44 28 44H20C13.3726 44 8 38.6274 8 32V16H16V12ZM20 16V12C20 9.79086 21.7909 8 24 8C26.2091 8 28 9.79086 28 12V16H20ZM18 20C16.8954 20 16 20.8954 16 22V24C16 28.4183 19.5817 32 24 32C28.4183 32 32 28.4183 32 24V22C32 20.8954 31.1046 20 30 20C28.8954 20 28 20.8954 28 22V24C28 26.2091 26.2091 28 24 28C21.7909 28 20 26.2091 20 24V22C20 20.8954 19.1046 20 18 20Z" fill="#ffffff"/>

</g>

</svg>