<svg width="300" height="40" viewBox="0 0 300 40" fill="none" xmlns="http://www.w3.org/2000/svg" xmlns:xlink="http://www.w3.org/1999/xlink">

<g transform="translate(130.000000, 0.000000) scale(2.000000 2.000000) "> 

<path opacity="0.956" d="M9.9994 1C14.9626 1 19 5.00182 19 10C19 14.9655 14.9626 19 9.9994 19C5.03739 19 1 14.9655 1 10C1 5.00182 5.03739 1 9.9994 1Z" fill="#CF87E1"/>
<path opacity="0.95" fill-rule="evenodd" clip-rule="evenodd" d="M10 19C14.9706 19 19 14.9706 19 10C19 5.02944 14.9706 1 10 1C5.02944 1 1 5.02944 1 10C1 14.9706 5.02944 19 10 19ZM10 20C15.5228 20 20 15.5228 20 10C20 4.47715 15.5228 0 10 0C4.47715 0 0 4.47715 0 10C0 15.5228 4.47715 20 10 20Z" fill="#BA37DD"/>

</g>%n%n
<g transform="translate(138.000000, 8.000000) scale(0.750000 0.750000) "> 

<path fill-rule="nonzero" fill="rgb(100%, 100%, 100%)" fill-opacity="1" d="M 8.136719 2.972656 C 7.21875 2.972656 6.449219 3.554688 5.921875 4.425781 L 3.011719 9.636719 C 2.878906 9.925781 2.765625 10.515625 2.765625 10.949219 L 2.765625 26.179688 C 2.765625 27.777344 3.945312 29.082031 5.390625 29.082031 L 26.390625 29.082031 C 27.832031 29.082031 29.015625 27.777344 29.015625 26.179688 L 29.015625 10.949219 C 29.015625 10.515625 28.898438 9.925781 28.769531 9.636719 L 25.855469 4.425781 C 25.332031 3.554688 24.558594 2.972656 23.640625 2.972656 Z M 7.929688 4.546875 L 23.925781 4.546875 L 26.144531 10.226562 L 5.636719 10.226562 Z M 11.953125 12.199219 L 19.828125 12.199219 C 20.613281 12.199219 21.140625 12.777344 21.140625 13.648438 C 21.140625 14.519531 20.613281 15.097656 19.828125 15.097656 L 11.953125 15.097656 C 11.164062 15.097656 10.640625 14.519531 10.640625 13.648438 C 10.640625 12.777344 11.164062 12.199219 11.953125 12.199219 Z M 9.636719 17.027344 L 22.109375 17.027344 L 15.875 27.9375 Z M 9.636719 17.027344 "/>

</g>%n%n</svg>