<svg width="300" height="40" viewBox="0 0 300 40" fill="none" xmlns="http://www.w3.org/2000/svg" >

<g transform="translate(130.000000, 0.000000) scale(2.000000 2.000000) "> 

<path opacity="0.956" d="M9.9994 1C14.9626 1 19 5.00182 19 10C19 14.9655 14.9626 19 9.9994 19C5.03739 19 1 14.9655 1 10C1 5.00182 5.03739 1 9.9994 1Z" fill="#CF87E1"/>
<path opacity="0.95" fill-rule="evenodd" clip-rule="evenodd" d="M10 19C14.9706 19 19 14.9706 19 10C19 5.02944 14.9706 1 10 1C5.02944 1 1 5.02944 1 10C1 14.9706 5.02944 19 10 19ZM10 20C15.5228 20 20 15.5228 20 10C20 4.47715 15.5228 0 10 0C4.47715 0 0 4.47715 0 10C0 15.5228 4.47715 20 10 20Z" fill="#BA37DD"/>

</g>%n%n
<g transform="translate(138.000000, 8.000000) scale(0.500000 0.500000) "> 

<path fill-rule="evenodd" clip100-rule="evenodd" d="M16 12V20C13.7909 20 12 21.7909 12 24V36C12 38.2091 13.7909 40 16 40H32C34.2091 40 36 38.2091 36 36V24C36 21.7909 34.2091 20 32 20V12C32 7.58172 28.4183 4 24 4C19.5817 4 16 7.58172 16 12ZM28 20V12C28 9.79086 26.2091 8 24 8C21.7909 8 20 9.79086 20 12V20H28ZM20 28C20 25.7909 21.7909 24 24 24C26.2091 24 28 25.7909 28 28C28 29.4805 27.1957 30.7731 26.0002 31.4648V34C26.0002 35.1046 25.1047 36 24.0002 36C22.8956 36 22.0002 35.1046 22.0002 34V31.465C20.8045 30.7734 20 29.4806 20 28Z" fill="#ffffff"/>

</g>%n%n</svg>