<svg width="40" height="40" viewBox="0 0 40 40" fill="none" xmlns="http://www.w3.org/2000/svg" >

<g transform="translate(0.000000, 0.000000) scale(2.000000 2.000000) "> 

<path opacity="0.956" d="M9.9994 1C14.9626 1 19 5.00182 19 10C19 14.9655 14.9626 19 9.9994 19C5.03739 19 1 14.9655 1 10C1 5.00182 5.03739 1 9.9994 1Z" fill="#CF87E1"/>
<path opacity="0.95" fill-rule="evenodd" clip-rule="evenodd" d="M10 19C14.9706 19 19 14.9706 19 10C19 5.02944 14.9706 1 10 1C5.02944 1 1 5.02944 1 10C1 14.9706 5.02944 19 10 19ZM10 20C15.5228 20 20 15.5228 20 10C20 4.47715 15.5228 0 10 0C4.47715 0 0 4.47715 0 10C0 15.5228 4.47715 20 10 20Z" fill="#BA37DD"/>

</g>


<g transform="translate(8.000000, 8.000000) scale(2.000000 2.000000) "> 

<path opacity="0.7" fill-rule="evenodd" clip100-rule="evenodd" d="M44 4V44H4V4H44ZM40 8H28V20H32V24H28V40H40V8ZM24 40V8H8V40H24Z" fill="#ffffff"/>
<path d="M4 10H27C27.5523 10 28 10.4477 28 11V14H4V10Z" fill="#ffffff"/>
<path d="M4 18H27C27.5523 18 28 18.4477 28 19V22H4V18Z" fill="#ffffff"/>
<path d="M4 26H27C27.5523 26 28 26.4477 28 27V30H4V26Z" fill="#ffffff"/>
<path d="M4 34H27C27.5523 34 28 34.4477 28 35V38H4V34Z" fill="#ffffff"/>

</g>

</svg>