<svg width="300" height="35" viewBox="0 0 300 35" fill="none" xmlns="http://www.w3.org/2000/svg" >

<g transform="translate(135.000000, 2.000000) scale(1.500000 1.500000) "> 

<path opacity="0.95" fill-rule="evenodd" clip-rule="evenodd" d="M10 19C14.9706 19 19 14.9706 19 10C19 5.02944 14.9706 1 10 1C5.02944 1 1 5.02944 1 10C1 14.9706 5.02944 19 10 19ZM10 20C15.5228 20 20 15.5228 20 10C20 4.47715 15.5228 0 10 0C4.47715 0 0 4.47715 0 10C0 15.5228 4.47715 20 10 20Z" fill="#B348CE"/>
<path opacity="0.956" d="M9.9994 1C14.9626 1 19 5.00182 19 10C19 14.9655 14.9626 19 9.9994 19C5.03739 19 1 14.9655 1 10C1 5.00182 5.03739 1 9.9994 1Z" fill="#7D2793"/>

</g>


<g transform="translate(141.000000, 8.000000) scale(0.031034 0.031034) "> 

<g clip100-path="url(#clip1000)">
<path d="M435.808 107.378C425.746 107.378 414.889 115.578 411.839 125.64H121.356C98.4555 125.64 68.227 154.312 54.5851 216.951C52.6858 225.626 55.553 235.213 65.999 235.213C97.7569 235.213 94.7254 256.968 93.3923 274.591C91.7487 296.287 69.6332 322.434 56.8679 379.028C43.7556 437.157 64.7937 472.622 93.3923 472.622H156.169C175.581 472.622 199.532 464.623 209.814 415.552C212.033 404.957 217.087 399.563 222.94 344.786H255.469C280.871 344.786 307.065 338.372 327.947 321.959C348.829 305.546 362.76 278.826 362.76 244.344V235.213H490.595C500.657 235.213 508.857 227.014 508.857 216.951C518.92 216.951 527.119 208.751 527.119 198.689V162.164C527.119 152.102 518.92 143.902 508.857 143.902C508.857 133.84 500.657 125.64 490.595 125.64H466.626C469.676 115.578 464.133 107.378 454.071 107.378H435.808ZM289.711 235.213H326.235V244.344C326.235 269.836 318.128 283.649 305.69 293.424C293.253 303.199 274.773 308.262 255.469 308.262H225.793C226.628 298.193 227.795 291.605 228.647 279.157C228.794 277.064 229.875 273.832 231.5 270.026C241.761 282.406 257.469 288.858 273.161 288.858C280.502 288.858 286.857 283.092 286.857 275.733C286.857 264.789 262.896 269.729 260.035 241.491C268.033 237.95 277.769 235.213 289.711 235.213Z" fill="#ffffff"/>
</g>
<defs>
<clip100Path id="clip1000">
<path d="M0 0H580V580H0V0Z" fill="#ffffff"/>
</clip100Path>
</defs>

</g>

</svg>