<svg width="300" height="35" viewBox="0 0 300 35" fill="none" xmlns="http://www.w3.org/2000/svg">

<g transform="translate(135.000000, 2.000000) scale(1.500000 1.500000) "> 

<path opacity="0.95" fill-rule="evenodd" clip-rule="evenodd" d="M10 19C14.9706 19 19 14.9706 19 10C19 5.02944 14.9706 1 10 1C5.02944 1 1 5.02944 1 10C1 14.9706 5.02944 19 10 19ZM10 20C15.5228 20 20 15.5228 20 10C20 4.47715 15.5228 0 10 0C4.47715 0 0 4.47715 0 10C0 15.5228 4.47715 20 10 20Z" fill="#B348CE"/>
<path opacity="0.956" d="M9.9994 1C14.9626 1 19 5.00182 19 10C19 14.9655 14.9626 19 9.9994 19C5.03739 19 1 14.9655 1 10C1 5.00182 5.03739 1 9.9994 1Z" fill="#7D2793"/>

</g>


<g transform="translate(141.000000, 8.000000) scale(0.375000 0.375000) "> 

<path fill-rule="evenodd" clip100-rule="evenodd" d="M15.4506 5.92305C15.7758 4.78477 16.8162 4 18 4H30C31.1838 4 32.2242 4.78477 32.5494 5.92305L36 18V19C36 19.5523 35.5523 20 35 20H13C12.4477 20 12 19.5523 12 19V18L15.4506 5.92305ZM20 24H28L29.4111 24.7056C30.9978 25.4989 32 27.1205 32 28.8944C32 29.6215 31.8304 30.3378 31.5141 30.9924C30.4484 33.198 28 38.4353 28 40H31C31.5523 40 32 40.4477 32 41V44H16V41C16 40.4477 16.4477 40 17 40H20C20 38.4353 17.5516 33.1979 16.4859 30.9924C16.1696 30.3378 16 29.6215 16 28.8944C16 27.1205 17.0022 25.4989 18.5889 24.7056L20 24Z" fill="#ffffff"/>

</g>

</svg>