<svg width="300" height="35" viewBox="0 0 300 35" fill="none" xmlns="http://www.w3.org/2000/svg" version="1.1" id="svg12">

<g transform="translate(135.000000, 2.000000) scale(1.500000 1.500000) "> 

<path opacity="0.95" fill-rule="evenodd" clip-rule="evenodd" d="M10 19C14.9706 19 19 14.9706 19 10C19 5.02944 14.9706 1 10 1C5.02944 1 1 5.02944 1 10C1 14.9706 5.02944 19 10 19ZM10 20C15.5228 20 20 15.5228 20 10C20 4.47715 15.5228 0 10 0C4.47715 0 0 4.47715 0 10C0 15.5228 4.47715 20 10 20Z" fill="#B348CE"/>
<path opacity="0.956" d="M9.9994 1C14.9626 1 19 5.00182 19 10C19 14.9655 14.9626 19 9.9994 19C5.03739 19 1 14.9655 1 10C1 5.00182 5.03739 1 9.9994 1Z" fill="#7D2793"/>

</g>


<g transform="translate(141.000000, 8.000000) scale(0.375000 0.375000) "> 
<path style="color:#000;clip100-rule:nonzero;display:inline;overflow:visible;visibility:visible;opacity:1;isolation:auto;mix-blend-mode:normal;color-interpolation:sRGB;color-interpolation-filters:linearRGB;solid-color:#000;solid-opacity:1;vector-effect:none;fill:#fff;fill-opacity:1;fill-rule:nonzero;stroke:none;stroke-width:1;stroke-linecap:butt;stroke-linejoin:miter;stroke-miterlimit:4;stroke-dasharray:none;stroke-dashoffset:0;stroke-opacity:1;marker:none;paint-order:normal;color-rendering:auto;image-rendering:auto;shape-rendering:auto;text-rendering:auto;enable-background:accumulate" d="M4 6v6a2 2 0 0 1 0 4v2a2 2 0 0 1 0 4v2a2 2 0 0 1 0 4v2a2 2 0 0 1 0 4v6h2a2 2 0 0 1 4 0h2a2 2 0 0 1 4 0h2a2 2 0 0 1 4 0h2a2 2 0 0 1 4 0h2v-6a2 2 0 0 1-1.47-3.34c-.91-.45-1.77-1-2.53-1.68V36H8V10h18v1.06a12.12 12.12 0 0 1 4-2.35V6h-2a2 2 0 0 1-4 0h-2a2 2 0 0 1-4 0h-2a2 2 0 0 1-4 0h-2a2 2 0 1 1-4 0H4zm13 8a4.89 4.89 0 0 0-4.76 5c0 2.76 2.13 5 4.76 5a4.89 4.89 0 0 0 4.76-5c0-2.76-2.13-5-4.76-5zm-4.97 12C10.6 27.3 10 28 10 32c.55.14 1.9 2 7 2 5.12 0 7-2 7-2 0-4-.68-4.94-2.08-6-3.5 2-6.78 1.62-9.9 0z" id="rect827"/><path style="color:#000;font-style:normal;font-variant:normal;font-weight:400;font-stretch:normal;font-size:medium;line-height:normal;font-family:sans-serif;font-variant-ligatures:normal;font-variant-position:normal;font-variant-caps:normal;font-variant-numeric:normal;font-variant-alternates:normal;font-feature-settings:normal;text-indent:0;text-align:start;text-decoration:none;text-decoration-line:none;text-decoration-style:solid;text-decoration-color:#000;letter-spacing:normal;word-spacing:normal;text-transform:none;writing-mode:lr-tb;direction:ltr;text-orientation:mixed;dominant-baseline:auto;baseline-shift:baseline;text-anchor:start;white-space:normal;shape-padding:0;clip100-rule:nonzero;display:inline;overflow:visible;visibility:visible;opacity:1;isolation:auto;mix-blend-mode:normal;color-interpolation:sRGB;color-interpolation-filters:linearRGB;solid-color:#000;solid-opacity:1;vector-effect:none;fill:#fff;fill-opacity:1;fill-rule:evenodd;stroke:none;stroke-width:4;stroke-linecap:round;stroke-linejoin:miter;stroke-miterlimit:4;stroke-dasharray:none;stroke-dashoffset:0;stroke-opacity:1;color-rendering:auto;image-rendering:auto;shape-rendering:auto;text-rendering:auto;enable-background:accumulate" d="M33.98 10a10.02 10.02 0 0 0-10.01 10.02 10.02 10.02 0 0 0 10.01 10.01 10.02 10.02 0 0 0 .93-.05l3.17 10.6a2 2 0 1 0 3.84-1.15l-3.18-10.6A10.02 10.02 0 0 0 44 20.01 10.02 10.02 0 0 0 33.98 10zm.02 2a8 8 0 0 1 8 8 8 8 0 0 1-8 8 8 8 0 0 1-8-8 8 8 0 0 1 8-8z" id="path968"/>
</g>

</svg>