<svg width="300" height="40" viewBox="0 0 300 40" fill="none" xmlns="http://www.w3.org/2000/svg" xmlns:xlink="http://www.w3.org/1999/xlink">

<g transform="translate(130.000000, 0.000000) scale(2.000000 2.000000) "> 

<path opacity="0.956" d="M9.9994 1C14.9626 1 19 5.00182 19 10C19 14.9655 14.9626 19 9.9994 19C5.03739 19 1 14.9655 1 10C1 5.00182 5.03739 1 9.9994 1Z" fill="#CF87E1"/>
<path opacity="0.95" fill-rule="evenodd" clip-rule="evenodd" d="M10 19C14.9706 19 19 14.9706 19 10C19 5.02944 14.9706 1 10 1C5.02944 1 1 5.02944 1 10C1 14.9706 5.02944 19 10 19ZM10 20C15.5228 20 20 15.5228 20 10C20 4.47715 15.5228 0 10 0C4.47715 0 0 4.47715 0 10C0 15.5228 4.47715 20 10 20Z" fill="#BA37DD"/>

</g>%n%n
<g transform="translate(138.000000, 8.000000) scale(0.750000 0.750000) "> 

<path fill-rule="nonzero" fill="rgb(100%, 100%, 100%)" fill-opacity="1" d="M 16.066406 1.613281 C 16.066406 3.425781 14.46875 4.382812 14.46875 5.875 C 14.46875 7.050781 15.429688 8.007812 16.601562 8.007812 C 15.960938 8.007812 15.535156 7.476562 15.535156 6.941406 C 15.535156 5.664062 16.601562 6.089844 16.601562 4.8125 C 16.601562 4.8125 17.667969 5.242188 17.667969 6.308594 C 17.667969 7.054688 17.34375 7.800781 16.832031 7.976562 C 17.898438 7.855469 18.730469 6.96875 18.730469 5.875 C 18.730469 3.210938 16.066406 1.613281 16.066406 1.613281 Z M 18.199219 9.074219 C 17.773438 9.074219 16.289062 9.515625 14.902344 9.941406 C 13.410156 10.367188 12.335938 11.746094 12.335938 13.238281 L 12.335938 13.335938 C 12.335938 13.976562 12.761719 14.402344 13.402344 14.402344 L 13.402344 22.929688 L 18.730469 22.929688 L 18.730469 13.238281 C 18.730469 12.171875 19.796875 11.632812 19.796875 10.671875 C 19.796875 9.820312 19.050781 9.074219 18.199219 9.074219 Z M 12.335938 24.445312 C 12.335938 25.617188 13.035156 26.472656 13.636719 27.011719 C 12.660156 27.519531 11.269531 28.464844 11.269531 29.773438 L 20.863281 29.773438 C 20.863281 28.394531 19.476562 27.496094 18.5 27.011719 C 19.101562 26.472656 19.796875 25.617188 19.796875 24.445312 Z M 12.335938 24.445312 "/>

</g>%n%n</svg>