<svg width="300" height="35" viewBox="0 0 300 35" fill="none" xmlns="http://www.w3.org/2000/svg" >

<g transform="translate(135.000000, 2.000000) scale(1.500000 1.500000) "> 

<path opacity="0.956" d="M9.9994 1C14.9626 1 19 5.00182 19 10C19 14.9655 14.9626 19 9.9994 19C5.03739 19 1 14.9655 1 10C1 5.00182 5.03739 1 9.9994 1Z" fill="#CF87E1"/>
<path opacity="0.95" fill-rule="evenodd" clip-rule="evenodd" d="M10 19C14.9706 19 19 14.9706 19 10C19 5.02944 14.9706 1 10 1C5.02944 1 1 5.02944 1 10C1 14.9706 5.02944 19 10 19ZM10 20C15.5228 20 20 15.5228 20 10C20 4.47715 15.5228 0 10 0C4.47715 0 0 4.47715 0 10C0 15.5228 4.47715 20 10 20Z" fill="#BA37DD"/>

</g>


<g transform="translate(141.000000, 8.000000) scale(0.375000 0.375000) "> 

<path d="M14.2448 25.2784L24.1032 29.8209C24.1032 29.8209 25.263 30.4975 27.196 29.8209L43.143 23.442C43.143 23.442 45.4305 22.003 42.531 20.6499L30.8685 23.0555L25.7461 21.799L33.4781 21.3157C33.4781 21.3157 35.9909 19.4794 33.5747 17.7398H25.4562C25.4562 17.7398 21.8802 15.7101 16.6611 16.6766L4 16V26.9213L14.2448 25.2784V25.2784Z" fill="#ffffff"/>

</g>

</svg>