<svg width="300" height="40" viewBox="0 0 300 40" fill="none" xmlns="http://www.w3.org/2000/svg" xmlns:xlink="http://www.w3.org/1999/xlink">

<g transform="translate(130.000000, 0.000000) scale(2.000000 2.000000) "> 

<path opacity="0.956" d="M9.9994 1C14.9626 1 19 5.00182 19 10C19 14.9655 14.9626 19 9.9994 19C5.03739 19 1 14.9655 1 10C1 5.00182 5.03739 1 9.9994 1Z" fill="#CF87E1"/>
<path opacity="0.95" fill-rule="evenodd" clip-rule="evenodd" d="M10 19C14.9706 19 19 14.9706 19 10C19 5.02944 14.9706 1 10 1C5.02944 1 1 5.02944 1 10C1 14.9706 5.02944 19 10 19ZM10 20C15.5228 20 20 15.5228 20 10C20 4.47715 15.5228 0 10 0C4.47715 0 0 4.47715 0 10C0 15.5228 4.47715 20 10 20Z" fill="#BA37DD"/>

</g>%n%n
<g transform="translate(138.000000, 8.000000) scale(0.750000 0.750000) "> 

<path fill-rule="nonzero" fill="rgb(100%, 100%, 100%)" fill-opacity="1" d="M 9.355469 26.503906 C 9.773438 26.609375 10.214844 26.667969 10.667969 26.667969 L 18.667969 26.667969 C 21.613281 26.667969 24 24.277344 24 21.332031 L 24 10.1875 L 27.464844 11.269531 C 28.859375 11.703125 29.644531 13.210938 29.21875 14.632812 L 24.589844 30.09375 C 24.164062 31.515625 22.6875 32.316406 21.292969 31.882812 L 11.199219 28.730469 C 10.179688 28.410156 9.484375 27.519531 9.355469 26.503906 Z M 9.355469 26.503906 "/>
<path fill-rule="evenodd" fill="rgb(100%, 100%, 100%)" fill-opacity="1" d="M 18.667969 2.667969 C 20.140625 2.667969 21.332031 3.859375 21.332031 5.332031 L 21.332031 21.332031 C 21.332031 22.804688 20.140625 24 18.667969 24 L 8 24 C 6.527344 24 5.332031 22.804688 5.332031 21.332031 L 5.332031 5.332031 C 5.332031 3.859375 6.527344 2.667969 8 2.667969 Z M 15.839844 16 C 15.367188 16 14.90625 15.882812 14.496094 15.664062 L 16 18.667969 L 10.667969 18.667969 L 12.167969 15.664062 C 11.761719 15.882812 11.300781 16 10.828125 16 L 10.667969 16 C 9.195312 16 8 14.804688 8 13.332031 C 8 12.492188 8.394531 11.703125 9.066406 11.199219 L 13.332031 8 L 17.601562 11.199219 C 18.273438 11.703125 18.667969 12.492188 18.667969 13.332031 C 18.667969 14.804688 17.472656 16 16 16 Z M 15.839844 16 "/>

</g>%n%n</svg>