<svg width="300" height="40" viewBox="0 0 300 40" fill="none" xmlns="http://www.w3.org/2000/svg" xmlns:xlink="http://www.w3.org/1999/xlink">

<g transform="translate(130.000000, 0.000000) scale(2.000000 2.000000) "> 

<path opacity="0.956" d="M9.9994 1C14.9626 1 19 5.00182 19 10C19 14.9655 14.9626 19 9.9994 19C5.03739 19 1 14.9655 1 10C1 5.00182 5.03739 1 9.9994 1Z" fill="#CF87E1"/>
<path opacity="0.95" fill-rule="evenodd" clip-rule="evenodd" d="M10 19C14.9706 19 19 14.9706 19 10C19 5.02944 14.9706 1 10 1C5.02944 1 1 5.02944 1 10C1 14.9706 5.02944 19 10 19ZM10 20C15.5228 20 20 15.5228 20 10C20 4.47715 15.5228 0 10 0C4.47715 0 0 4.47715 0 10C0 15.5228 4.47715 20 10 20Z" fill="#BA37DD"/>

</g>%n%n
<g transform="translate(138.000000, 8.000000) scale(0.750000 0.750000) "> 

<path fill-rule="evenodd" fill="rgb(100%, 100%, 100%)" fill-opacity="1" d="M 10.667969 8 C 10.667969 5.054688 13.054688 2.667969 16 2.667969 C 18.945312 2.667969 21.332031 5.054688 21.332031 8 L 21.332031 10.667969 L 26.667969 10.667969 L 26.667969 21.332031 C 26.667969 25.75 23.085938 29.332031 18.667969 29.332031 L 13.332031 29.332031 C 8.914062 29.332031 5.332031 25.75 5.332031 21.332031 L 5.332031 10.667969 L 10.667969 10.667969 Z M 13.332031 10.667969 L 13.332031 8 C 13.332031 6.527344 14.527344 5.332031 16 5.332031 C 17.472656 5.332031 18.667969 6.527344 18.667969 8 L 18.667969 10.667969 Z M 12 13.332031 C 11.261719 13.332031 10.667969 13.929688 10.667969 14.667969 L 10.667969 16 C 10.667969 18.945312 13.054688 21.332031 16 21.332031 C 18.945312 21.332031 21.332031 18.945312 21.332031 16 L 21.332031 14.667969 C 21.332031 13.929688 20.738281 13.332031 20 13.332031 C 19.261719 13.332031 18.667969 13.929688 18.667969 14.667969 L 18.667969 16 C 18.667969 17.472656 17.472656 18.667969 16 18.667969 C 14.527344 18.667969 13.332031 17.472656 13.332031 16 L 13.332031 14.667969 C 13.332031 13.929688 12.738281 13.332031 12 13.332031 Z M 12 13.332031 "/>

</g>%n%n</svg>