<svg width="300" height="40" viewBox="0 0 300 40" fill="none" xmlns="http://www.w3.org/2000/svg" xmlns:xlink="http://www.w3.org/1999/xlink">

<g transform="translate(130.000000, 0.000000) scale(2.000000 2.000000) "> 

<path opacity="0.956" d="M9.9994 1C14.9626 1 19 5.00182 19 10C19 14.9655 14.9626 19 9.9994 19C5.03739 19 1 14.9655 1 10C1 5.00182 5.03739 1 9.9994 1Z" fill="#CF87E1"/>
<path opacity="0.95" fill-rule="evenodd" clip-rule="evenodd" d="M10 19C14.9706 19 19 14.9706 19 10C19 5.02944 14.9706 1 10 1C5.02944 1 1 5.02944 1 10C1 14.9706 5.02944 19 10 19ZM10 20C15.5228 20 20 15.5228 20 10C20 4.47715 15.5228 0 10 0C4.47715 0 0 4.47715 0 10C0 15.5228 4.47715 20 10 20Z" fill="#BA37DD"/>

</g>%n%n
<g transform="translate(138.000000, 8.000000) scale(0.750000 0.750000) "> 

<path fill-rule="evenodd" fill="rgb(100%, 100%, 100%)" fill-opacity="1" d="M 16 2.667969 C 14.527344 2.667969 13.332031 3.859375 13.332031 5.332031 C 13.332031 6.804688 14.527344 8 16 8 L 14.277344 8 C 12.355469 8 10.601562 9.03125 9.660156 10.667969 L 7.472656 10.667969 C 4.820312 10.667969 2.667969 12.820312 2.667969 15.472656 C 2.667969 17.082031 3.46875 18.582031 4.808594 19.472656 L 7.742188 21.429688 C 8.308594 22.945312 9.300781 24.308594 10.667969 25.332031 C 10.667969 26.070312 11.261719 26.667969 12 26.667969 L 20 26.667969 C 20.738281 26.667969 21.332031 26.070312 21.332031 25.332031 C 22.730469 24.285156 23.738281 22.882812 24.296875 21.324219 C 26.476562 21.1875 28.292969 19.566406 28.65625 17.386719 L 29.332031 13.332031 L 26.667969 13.332031 L 25.753906 16.070312 C 25.585938 16.578125 25.207031 16.976562 24.730469 17.183594 C 24.636719 16.496094 24.457031 15.808594 24.191406 15.144531 L 22.675781 11.351562 C 21.863281 9.328125 19.902344 8 17.722656 8 L 16 8 C 17.472656 8 18.667969 6.804688 18.667969 5.332031 C 18.667969 3.859375 17.472656 2.667969 16 2.667969 Z M 8.535156 13.332031 L 7.472656 13.332031 C 6.292969 13.332031 5.332031 14.292969 5.332031 15.472656 C 5.332031 16.191406 5.691406 16.859375 6.285156 17.253906 L 7.203125 17.863281 C 7.253906 16.949219 7.453125 16.03125 7.808594 15.144531 Z M 8.535156 13.332031 "/>

</g>%n%n</svg>