<svg width="300" height="35" viewBox="0 0 300 35" fill="none" xmlns="http://www.w3.org/2000/svg" >

<g transform="translate(135.000000, 2.000000) scale(1.500000 1.500000) "> 

<path opacity="0.956" d="M9.9994 1C14.9626 1 19 5.00182 19 10C19 14.9655 14.9626 19 9.9994 19C5.03739 19 1 14.9655 1 10C1 5.00182 5.03739 1 9.9994 1Z" fill="#CF87E1"/>
<path opacity="0.95" fill-rule="evenodd" clip-rule="evenodd" d="M10 19C14.9706 19 19 14.9706 19 10C19 5.02944 14.9706 1 10 1C5.02944 1 1 5.02944 1 10C1 14.9706 5.02944 19 10 19ZM10 20C15.5228 20 20 15.5228 20 10C20 4.47715 15.5228 0 10 0C4.47715 0 0 4.47715 0 10C0 15.5228 4.47715 20 10 20Z" fill="#BA37DD"/>

</g>


<g transform="translate(141.000000, 8.000000) scale(0.375000 0.375000) "> 

<path d="M18 4C19.1046 4 20 4.89543 20 6V12H28V6C28 4.89543 28.8954 4 30 4C31.1046 4 32 4.89543 32 6V12H34C35.1046 12 36 12.8954 36 14V22C36 23.1046 35.1046 24 34 24H32C32 26.2091 30.2091 28 28 28H26.059C26.0704 28.9005 26.0685 29.7512 26.0285 30.5114C25.9279 32.4218 25.5841 34.3638 24.3287 35.9779C23.0568 37.6132 21.1107 38.5857 18.5359 39.1693C15.971 39.7506 12.5426 40 8 40V36C12.4574 36 15.529 35.7494 17.6516 35.2682C19.7643 34.7893 20.6932 34.1368 21.1713 33.5221C21.6659 32.8862 21.9471 31.9532 22.034 30.3011C22.0721 29.5777 22.0723 28.8262 22.0597 28H20C17.7909 28 16 26.2091 16 24H14C12.8954 24 12 23.1046 12 22V14C12 12.8954 12.8954 12 14 12H16V6C16 4.89543 16.8954 4 18 4Z" fill="#ffffff"/>

</g>

</svg>