<svg width="300" height="40" viewBox="0 0 300 40" fill="none" xmlns="http://www.w3.org/2000/svg" xmlns:xlink="http://www.w3.org/1999/xlink">

<g transform="translate(130.000000, 0.000000) scale(2.000000 2.000000) "> 

<path opacity="0.956" d="M9.9994 1C14.9626 1 19 5.00182 19 10C19 14.9655 14.9626 19 9.9994 19C5.03739 19 1 14.9655 1 10C1 5.00182 5.03739 1 9.9994 1Z" fill="#CF87E1"/>
<path opacity="0.95" fill-rule="evenodd" clip-rule="evenodd" d="M10 19C14.9706 19 19 14.9706 19 10C19 5.02944 14.9706 1 10 1C5.02944 1 1 5.02944 1 10C1 14.9706 5.02944 19 10 19ZM10 20C15.5228 20 20 15.5228 20 10C20 4.47715 15.5228 0 10 0C4.47715 0 0 4.47715 0 10C0 15.5228 4.47715 20 10 20Z" fill="#BA37DD"/>

</g>%n%n
<g transform="translate(138.000000, 8.000000) scale(0.750000 0.750000) "> 

<path fill-rule="evenodd" fill="rgb(100%, 100%, 100%)" fill-opacity="1" d="M 26.667969 16 L 24.421875 9.265625 C 24.167969 8.507812 23.464844 8 22.667969 8 L 9.332031 8 C 8.535156 8 7.832031 8.507812 7.578125 9.265625 L 5.332031 16 L 5.332031 24.667969 C 5.332031 25.769531 6.230469 26.667969 7.332031 26.667969 C 8.4375 26.667969 9.332031 25.769531 9.332031 24.667969 L 9.332031 24 L 22.667969 24 L 22.667969 24.667969 C 22.667969 25.769531 23.5625 26.667969 24.667969 26.667969 C 25.769531 26.667969 26.667969 25.769531 26.667969 24.667969 Z M 22.078125 10.667969 L 23.855469 16 L 8.144531 16 L 9.921875 10.667969 Z M 10.667969 20 C 10.667969 20.738281 10.070312 21.332031 9.332031 21.332031 C 8.597656 21.332031 8 20.738281 8 20 C 8 19.261719 8.597656 18.667969 9.332031 18.667969 C 10.070312 18.667969 10.667969 19.261719 10.667969 20 Z M 24 20 C 24 20.738281 23.402344 21.332031 22.667969 21.332031 C 21.929688 21.332031 21.332031 20.738281 21.332031 20 C 21.332031 19.261719 21.929688 18.667969 22.667969 18.667969 C 23.402344 18.667969 24 19.261719 24 20 Z M 24 20 "/>

</g>%n%n</svg>