<svg width="300" height="40" viewBox="0 0 300 40" fill="none" xmlns="http://www.w3.org/2000/svg" xmlns:xlink="http://www.w3.org/1999/xlink">

<g transform="translate(130.000000, 0.000000) scale(2.000000 2.000000) "> 

<path opacity="0.956" d="M9.9994 1C14.9626 1 19 5.00182 19 10C19 14.9655 14.9626 19 9.9994 19C5.03739 19 1 14.9655 1 10C1 5.00182 5.03739 1 9.9994 1Z" fill="#CF87E1"/>
<path opacity="0.95" fill-rule="evenodd" clip-rule="evenodd" d="M10 19C14.9706 19 19 14.9706 19 10C19 5.02944 14.9706 1 10 1C5.02944 1 1 5.02944 1 10C1 14.9706 5.02944 19 10 19ZM10 20C15.5228 20 20 15.5228 20 10C20 4.47715 15.5228 0 10 0C4.47715 0 0 4.47715 0 10C0 15.5228 4.47715 20 10 20Z" fill="#BA37DD"/>

</g>%n%n
<g transform="translate(138.000000, 8.000000) scale(0.750000 0.750000) "> 

<path fill-rule="evenodd" fill="rgb(100%, 100%, 100%)" fill-opacity="1" d="M 26.460938 17.027344 C 26.460938 15.792969 25.742188 14.972656 24.410156 14.972656 C 23.078125 14.972656 22.359375 16.101562 22.359375 18.050781 C 22.359375 19.792969 21.027344 21.128906 19.28125 21.128906 C 17.539062 21.128906 16.207031 19.792969 16.207031 18.050781 C 16.207031 16.074219 17.066406 14.21875 17.875 12.476562 C 19.621094 8.710938 21.125 5.472656 13.128906 2.667969 C 15.21875 6.011719 13.996094 9.546875 12.996094 12.433594 C 12.523438 13.792969 12.101562 15.011719 12.101562 16 C 12.101562 20 15.28125 23.179688 19.28125 23.179688 C 23.246094 23.179688 24.082031 20.863281 24.730469 19.074219 C 25.136719 17.945312 25.472656 17.027344 26.460938 17.027344 Z M 21.332031 18.050781 C 21.332031 19.183594 20.414062 20.101562 19.28125 20.101562 C 18.148438 20.101562 17.230469 19.183594 17.230469 18.050781 C 17.230469 16.917969 18.148438 16 19.28125 16 C 20.414062 16 21.332031 16.917969 21.332031 18.050781 Z M 14.152344 26.257812 L 24.410156 26.257812 C 24.921875 26.257812 25.433594 25.847656 25.433594 25.230469 L 25.433594 24.203125 L 13.128906 24.203125 L 13.128906 25.230469 C 13.128906 25.847656 13.539062 26.257812 14.152344 26.257812 Z M 24.410156 29.128906 L 24.410156 29.332031 L 14.152344 29.332031 L 14.152344 29.128906 C 14.152344 28.101562 14.972656 27.28125 16 27.28125 L 22.460938 27.28125 C 23.589844 27.28125 24.410156 28.101562 24.410156 29.128906 Z M 12.101562 9.847656 C 12.101562 6.257812 8 5.742188 8 5.742188 C 9.5625 7.023438 9.453125 8.253906 9.238281 10.632812 C 9.140625 11.683594 9.027344 12.960938 9.027344 14.5625 C 9.027344 22.460938 16.207031 23.179688 16.207031 23.179688 C 16.207031 23.179688 11.078125 22.050781 11.078125 15.898438 C 11.078125 13.925781 11.40625 12.902344 11.691406 12.015625 C 11.910156 11.335938 12.101562 10.738281 12.101562 9.847656 Z M 12.101562 9.847656 "/>

</g>%n%n</svg>