<svg width="300" height="40" viewBox="0 0 300 40" fill="none" xmlns="http://www.w3.org/2000/svg" xmlns:xlink="http://www.w3.org/1999/xlink">

<g transform="translate(130.000000, 0.000000) scale(2.000000 2.000000) "> 

<path opacity="0.956" d="M9.9994 1C14.9626 1 19 5.00182 19 10C19 14.9655 14.9626 19 9.9994 19C5.03739 19 1 14.9655 1 10C1 5.00182 5.03739 1 9.9994 1Z" fill="#CF87E1"/>
<path opacity="0.95" fill-rule="evenodd" clip-rule="evenodd" d="M10 19C14.9706 19 19 14.9706 19 10C19 5.02944 14.9706 1 10 1C5.02944 1 1 5.02944 1 10C1 14.9706 5.02944 19 10 19ZM10 20C15.5228 20 20 15.5228 20 10C20 4.47715 15.5228 0 10 0C4.47715 0 0 4.47715 0 10C0 15.5228 4.47715 20 10 20Z" fill="#BA37DD"/>

</g>%n%n
<g transform="translate(138.000000, 8.000000) scale(0.750000 0.750000) "> 

<defs>
<filter id="filter-remove-color" x="0%" y="0%" width="100%" height="100%">
<feColorMatrix color-interpolation-filters="sRGB" values="0 0 0 0 1 0 0 0 0 1 0 0 0 0 1 0 0 0 1 0" />
</filter>
<mask id="mask-0">
<g filter="url(#filter-remove-color)">
<rect x="-3.2" y="-3.2" width="38.4" height="38.4" fill="rgb(0%, 0%, 0%)" fill-opacity="0.5"/>
</g>
</mask>
<clip100Path id="clip100-0">
<rect x="0" y="0" width="32" height="32"/>
</clip100Path>
<g id="source-6" clip100-path="url(#clip100-0)">
<path fill-rule="nonzero" fill="rgb(100%, 100%, 100%)" fill-opacity="1" d="M 2.667969 5.332031 L 2.667969 25.332031 C 2.667969 26.070312 3.261719 26.667969 3.996094 26.667969 L 12 26.667969 C 14.667969 26.667969 16 28 16 28 C 16 28 17.332031 26.667969 20 26.667969 L 28.003906 26.667969 C 28.738281 26.667969 29.332031 26.070312 29.332031 25.332031 L 29.332031 5.332031 C 30.804688 5.332031 32 6.527344 32 8 L 32 26.667969 C 32 28.140625 30.804688 29.332031 29.332031 29.332031 L 2.667969 29.332031 C 1.195312 29.332031 0 28.140625 0 26.667969 L 0 8 C 0 6.527344 1.195312 5.332031 2.667969 5.332031 Z M 2.667969 5.332031 "/>
</g>
</defs>
<g mask="url(#mask-0)">
<use xlink:href="#source-6"/>
</g>
<path fill-rule="evenodd" fill="rgb(100%, 100%, 100%)" fill-opacity="1" d="M 16 4 C 16 4 17.332031 2.667969 20 2.667969 L 28 2.667969 C 28.738281 2.667969 29.332031 3.261719 29.332031 4 L 29.332031 25.332031 C 29.332031 26.070312 28.738281 26.667969 28.003906 26.667969 L 20 26.667969 C 17.332031 26.667969 16 28 16 28 C 16 28 14.667969 26.667969 12 26.667969 L 3.996094 26.667969 C 3.261719 26.667969 2.667969 26.070312 2.667969 25.332031 L 2.667969 4 C 2.667969 3.261719 3.261719 2.667969 4 2.667969 L 12 2.667969 C 14.667969 2.667969 16 4 16 4 Z M 5.332031 5.332031 L 13.332031 5.332031 L 13.332031 8 L 5.332031 8 Z M 5.332031 10.667969 L 13.332031 10.667969 L 13.332031 13.332031 L 5.332031 13.332031 Z M 13.332031 16 L 5.332031 16 L 5.332031 18.667969 L 13.332031 18.667969 Z M 18.667969 5.332031 L 26.667969 5.332031 L 26.667969 8 L 18.667969 8 Z M 18.667969 10.667969 L 26.667969 10.667969 L 26.667969 13.332031 L 18.667969 13.332031 Z M 26.667969 16 L 18.667969 16 L 18.667969 18.667969 L 26.667969 18.667969 Z M 26.667969 16 "/>

</g>%n%n</svg>