<svg width="300" height="40" viewBox="0 0 300 40" fill="none" xmlns="http://www.w3.org/2000/svg" xmlns:xlink="http://www.w3.org/1999/xlink">

<g transform="translate(130.000000, 0.000000) scale(2.000000 2.000000) "> 

<path opacity="0.956" d="M9.9994 1C14.9626 1 19 5.00182 19 10C19 14.9655 14.9626 19 9.9994 19C5.03739 19 1 14.9655 1 10C1 5.00182 5.03739 1 9.9994 1Z" fill="#CF87E1"/>
<path opacity="0.95" fill-rule="evenodd" clip-rule="evenodd" d="M10 19C14.9706 19 19 14.9706 19 10C19 5.02944 14.9706 1 10 1C5.02944 1 1 5.02944 1 10C1 14.9706 5.02944 19 10 19ZM10 20C15.5228 20 20 15.5228 20 10C20 4.47715 15.5228 0 10 0C4.47715 0 0 4.47715 0 10C0 15.5228 4.47715 20 10 20Z" fill="#BA37DD"/>

</g>%n%n
<g transform="translate(138.000000, 8.000000) scale(0.750000 0.750000) "> 

<path fill-rule="nonzero" fill="rgb(100%, 100%, 100%)" fill-opacity="1" d="M 27.359375 14.738281 L 21.679688 14.738281 L 21.679688 13.476562 L 27.359375 13.476562 L 27.359375 10.953125 L 23.574219 10.953125 L 23.574219 9.6875 L 27.359375 9.6875 L 27.359375 7.164062 L 21.679688 7.164062 L 21.679688 5.902344 L 27.359375 5.902344 L 27.359375 2.746094 L 16 2.746094 L 16 29.253906 L 27.359375 29.253906 L 27.359375 26.097656 L 23.574219 26.097656 L 23.574219 24.835938 L 27.359375 24.835938 L 27.359375 22.3125 L 21.679688 22.3125 L 21.679688 21.046875 L 27.359375 21.046875 L 27.359375 18.523438 L 23.574219 18.523438 L 23.574219 17.261719 L 27.359375 17.261719 Z M 27.359375 14.738281 "/>
<path fill-rule="nonzero" fill="rgb(100%, 100%, 100%)" fill-opacity="1" d="M 11.308594 6.535156 L 9.597656 3.054688 C 9.371094 2.671875 8.746094 2.671875 8.515625 3.054688 L 6.808594 6.535156 Z M 11.308594 6.535156 "/>
<path fill-rule="nonzero" fill="rgb(100%, 100%, 100%)" fill-opacity="1" d="M 13.386719 9.363281 L 9.597656 3.054688 C 9.371094 2.671875 8.746094 2.671875 8.515625 3.054688 L 4.730469 9.363281 C 4.671875 9.460938 4.640625 9.574219 4.640625 9.6875 L 4.640625 26.097656 C 4.640625 27.835938 6.054688 29.253906 7.796875 29.253906 L 10.320312 29.253906 C 12.058594 29.253906 13.476562 27.835938 13.476562 26.097656 L 13.476562 9.6875 C 13.476562 9.574219 13.445312 9.460938 13.386719 9.363281 Z M 9.058594 4.605469 L 11.730469 9.058594 L 6.386719 9.058594 Z M 7.796875 25.464844 L 6.535156 25.464844 L 6.535156 10.320312 L 7.796875 10.320312 Z M 11.582031 25.464844 L 10.320312 25.464844 L 10.320312 10.320312 L 11.582031 10.320312 Z M 11.582031 25.464844 "/>

</g>%n%n</svg>