<svg width="300" height="35" viewBox="0 0 300 35" fill="none" xmlns="http://www.w3.org/2000/svg" >

<g transform="translate(135.000000, 2.000000) scale(1.500000 1.500000) "> 

<path opacity="0.95" fill-rule="evenodd" clip-rule="evenodd" d="M10 19C14.9706 19 19 14.9706 19 10C19 5.02944 14.9706 1 10 1C5.02944 1 1 5.02944 1 10C1 14.9706 5.02944 19 10 19ZM10 20C15.5228 20 20 15.5228 20 10C20 4.47715 15.5228 0 10 0C4.47715 0 0 4.47715 0 10C0 15.5228 4.47715 20 10 20Z" fill="#B348CE"/>
<path opacity="0.956" d="M9.9994 1C14.9626 1 19 5.00182 19 10C19 14.9655 14.9626 19 9.9994 19C5.03739 19 1 14.9655 1 10C1 5.00182 5.03739 1 9.9994 1Z" fill="#7D2793"/>

</g>


<g transform="translate(141.000000, 8.000000) scale(0.031034 0.031034) "> 

<path d="M249.346 160.496C240.599 169.002 230.104 175.5 218.59 179.538C207.884 183.255 196.535 184.766 185.229 183.981L184.058 195.281L331.127 244.247L249.346 160.496ZM178.776 246.219L172.633 305.473L487.179 410.199L491.65 408.634L407.373 322.329L178.776 246.219ZM167.352 356.412L161.084 416.867L318.396 469.243L409.997 437.198L167.352 356.412ZM155.803 467.807L149.528 528.318L241.215 496.244L155.803 467.807Z" fill="#ffffff"/>
<path d="M208.174 145.112C233.238 136.398 246.493 109.016 237.78 83.9521C229.067 58.8879 201.685 45.6329 176.621 54.3462C151.556 63.0595 138.301 90.4416 147.015 115.506C155.728 140.57 183.11 153.825 208.174 145.112Z" fill="#ffffff"/>

</g>

</svg>