<svg width="300" height="40" viewBox="0 0 300 40" fill="none" xmlns="http://www.w3.org/2000/svg" >

<g transform="translate(130.000000, 0.000000) scale(2.000000 2.000000) "> 

<path opacity="0.956" d="M9.9994 1C14.9626 1 19 5.00182 19 10C19 14.9655 14.9626 19 9.9994 19C5.03739 19 1 14.9655 1 10C1 5.00182 5.03739 1 9.9994 1Z" fill="#CF87E1"/>
<path opacity="0.95" fill-rule="evenodd" clip-rule="evenodd" d="M10 19C14.9706 19 19 14.9706 19 10C19 5.02944 14.9706 1 10 1C5.02944 1 1 5.02944 1 10C1 14.9706 5.02944 19 10 19ZM10 20C15.5228 20 20 15.5228 20 10C20 4.47715 15.5228 0 10 0C4.47715 0 0 4.47715 0 10C0 15.5228 4.47715 20 10 20Z" fill="#BA37DD"/>

</g>%n%n
<g transform="translate(138.000000, 8.000000) scale(0.500000 0.500000) "> 

<path fill-rule="evenodd" clip100-rule="evenodd" d="M8 16C5.79086 16 4 14.2091 4 12V8H44V12C44 14.2091 42.2092 16 40 16H8ZM8 20C8.16355 28.7765 15.3693 36.0811 24.1473 35.9993C32.9253 35.9175 40 28.778 40 20H8ZM28 28C28 30.2091 26.2091 32 24 32C21.7909 32 20 30.2091 20 28C20 25.7909 21.7909 24 24 24C26.2091 24 28 25.7909 28 28Z" fill="#ffffff"/>

</g>%n%n</svg>