<svg width="300" height="35" viewBox="0 0 300 35" fill="none" xmlns="http://www.w3.org/2000/svg">

<g transform="translate(135.000000, 2.000000) scale(1.500000 1.500000) "> 

<path opacity="0.956" d="M9.9994 1C14.9626 1 19 5.00182 19 10C19 14.9655 14.9626 19 9.9994 19C5.03739 19 1 14.9655 1 10C1 5.00182 5.03739 1 9.9994 1Z" fill="#CF87E1"/>
<path opacity="0.95" fill-rule="evenodd" clip-rule="evenodd" d="M10 19C14.9706 19 19 14.9706 19 10C19 5.02944 14.9706 1 10 1C5.02944 1 1 5.02944 1 10C1 14.9706 5.02944 19 10 19ZM10 20C15.5228 20 20 15.5228 20 10C20 4.47715 15.5228 0 10 0C4.47715 0 0 4.47715 0 10C0 15.5228 4.47715 20 10 20Z" fill="#BA37DD"/>

</g>


<g transform="translate(141.000000, 8.000000) scale(0.031034 0.031034) "> 

<path d="M199.036 435.978C219.163 435.978 235.479 419.662 235.479 399.535C235.479 379.407 219.163 363.091 199.036 363.091C178.908 363.091 162.592 379.407 162.592 399.535C162.592 419.662 178.908 435.978 199.036 435.978Z" fill="#ffffff"/>
<path d="M133.436 423.223L217.256 470.6L184.457 514.332C173.524 527.088 155.302 530.732 140.724 521.621L122.502 510.688C109.747 503.399 106.103 488.822 111.569 476.066L133.436 423.223Z" fill="#ffffff"/>
<path d="M122.504 363.091L115.215 406.823L137.081 439.623" stroke="#ffffff" stroke-width="27.3329" stroke-miterlimit="10" stroke-linecap="round" stroke-linejoin="round"/>
<path d="M275.567 448.733L239.123 474.244L191.746 476.066" stroke="#ffffff" stroke-width="27.3329" stroke-miterlimit="10" stroke-linecap="round" stroke-linejoin="round"/>
<path d="M66.0146 146.25C38.6817 142.606 55.0814 53.3184 107.925 53.3184C344.81 53.3184 527.029 222.782 527.029 363.091C527.029 384.957 466.897 430.512 455.963 412.29C383.076 290.203 239.123 166.294 66.0146 146.25Z" fill="#ffffff"/>
<path d="M299.256 439.622L454.142 395.89" stroke="#ffffff" stroke-width="18.2219" stroke-miterlimit="10" stroke-linejoin="round"/>
<path d="M118.857 335.757L87.8809 135.316" stroke="#ffffff" stroke-width="18.2219" stroke-miterlimit="10" stroke-linejoin="round"/>

</g>

</svg>