<svg width="300" height="40" viewBox="0 0 300 40" fill="none" xmlns="http://www.w3.org/2000/svg" xmlns:xlink="http://www.w3.org/1999/xlink">

<g transform="translate(130.000000, 0.000000) scale(2.000000 2.000000) "> 

<path opacity="0.956" d="M9.9994 1C14.9626 1 19 5.00182 19 10C19 14.9655 14.9626 19 9.9994 19C5.03739 19 1 14.9655 1 10C1 5.00182 5.03739 1 9.9994 1Z" fill="#CF87E1"/>
<path opacity="0.95" fill-rule="evenodd" clip-rule="evenodd" d="M10 19C14.9706 19 19 14.9706 19 10C19 5.02944 14.9706 1 10 1C5.02944 1 1 5.02944 1 10C1 14.9706 5.02944 19 10 19ZM10 20C15.5228 20 20 15.5228 20 10C20 4.47715 15.5228 0 10 0C4.47715 0 0 4.47715 0 10C0 15.5228 4.47715 20 10 20Z" fill="#BA37DD"/>

</g>%n%n
<g transform="translate(138.000000, 8.000000) scale(0.750000 0.750000) "> 

<path fill="none" stroke-width="41.0882" stroke-linecap="round" stroke-linejoin="round" stroke="rgb(100%, 100%, 100%)" stroke-opacity="1" stroke-miterlimit="10" d="M 515.996094 187.268066 L 493.410645 187.268066 C 483.144531 187.268066 474.931641 195.480957 472.807617 205.74707 L 458.435059 316.691895 C 456.381836 337.224121 437.902832 353.720703 417.370605 353.720703 L 162.629395 353.720703 C 142.097168 353.720703 123.618164 337.224121 121.564941 316.691895 L 107.192383 205.74707 C 105.068359 195.480957 96.855469 187.268066 86.589355 187.268066 L 64.003906 187.268066 " transform="matrix(0.0551724, 0, 0, 0.0551724, 0, 0)"/>
<path fill-rule="nonzero" fill="rgb(100%, 100%, 100%)" fill-opacity="1" d="M 16 4.664062 C 9.878906 4.664062 5.800781 9.199219 5.800781 9.199219 L 26.203125 9.199219 C 26.203125 9.199219 22.121094 4.664062 16 4.664062 Z M 16 4.664062 "/>
<path fill-rule="nonzero" fill="rgb(100%, 100%, 100%)" fill-opacity="1" d="M 17.132812 5.796875 L 14.867188 5.796875 L 14.1875 3.984375 C 14.1875 3.757812 14.300781 3.53125 14.640625 3.53125 L 17.472656 3.53125 C 17.699219 3.53125 17.925781 3.757812 17.8125 3.984375 Z M 17.132812 5.796875 "/>
<path fill-rule="nonzero" fill="rgb(100%, 100%, 100%)" fill-opacity="1" d="M 24.273438 21.667969 L 7.726562 21.667969 C 7.273438 21.667969 6.820312 22.007812 6.707031 22.460938 L 5.230469 26.996094 C 4.890625 27.675781 5.457031 28.46875 6.253906 28.46875 L 25.746094 28.46875 C 26.542969 28.46875 27.109375 27.675781 26.769531 26.996094 L 25.292969 22.460938 C 25.179688 22.007812 24.726562 21.667969 24.273438 21.667969 Z M 16 27.335938 C 14.753906 27.335938 13.734375 26.316406 13.734375 25.066406 C 13.734375 23.820312 14.753906 22.800781 16 22.800781 C 17.246094 22.800781 18.265625 23.820312 18.265625 25.066406 C 18.265625 26.316406 17.246094 27.335938 16 27.335938 Z M 16 27.335938 "/>
<path fill="none" stroke-width="20.5441" stroke-linecap="butt" stroke-linejoin="miter" stroke="rgb(100%, 100%, 100%)" stroke-opacity="1" stroke-miterlimit="10" d="M 273.574219 470.754395 L 306.425781 437.902832 " transform="matrix(0.0551724, 0, 0, 0.0551724, 0, 0)"/>

</g>%n%n</svg>