<svg width="300" height="35" viewBox="0 0 300 35" fill="none" xmlns="http://www.w3.org/2000/svg" >

<g transform="translate(135.000000, 2.000000) scale(1.500000 1.500000) "> 

<path opacity="0.95" fill-rule="evenodd" clip-rule="evenodd" d="M10 19C14.9706 19 19 14.9706 19 10C19 5.02944 14.9706 1 10 1C5.02944 1 1 5.02944 1 10C1 14.9706 5.02944 19 10 19ZM10 20C15.5228 20 20 15.5228 20 10C20 4.47715 15.5228 0 10 0C4.47715 0 0 4.47715 0 10C0 15.5228 4.47715 20 10 20Z" fill="#B348CE"/>
<path opacity="0.956" d="M9.9994 1C14.9626 1 19 5.00182 19 10C19 14.9655 14.9626 19 9.9994 19C5.03739 19 1 14.9655 1 10C1 5.00182 5.03739 1 9.9994 1Z" fill="#7D2793"/>

</g>


<g transform="translate(141.000000, 8.000000) scale(0.375000 0.375000) "> 

<path fill-rule="evenodd" clip100-rule="evenodd" d="M14.4222 8.00005C17.9069 8.00005 21.161 9.7416 23.094 12.641L24 14L24.906 12.641C26.839 9.74156 30.0931 8 33.5778 8C39.3338 8 44 12.6662 44 18.4222V19.3137C44 22.3143 42.808 25.192 40.6863 27.3137L24 44L7.31369 27.3137C5.19197 25.192 4 22.3143 4 19.3137V18.4223C4 12.6662 8.66619 8.00005 14.4222 8.00005ZM9.29289 17.2929C9.68342 16.9024 10.3166 16.9024 10.7071 17.2929L12 18.5858L13.2929 17.2929C13.6834 16.9024 14.3166 16.9024 14.7071 17.2929C15.0976 17.6834 15.0976 18.3166 14.7071 18.7071L13.4142 20L14.7071 21.2929C15.0976 21.6834 15.0976 22.3166 14.7071 22.7071C14.3166 23.0976 13.6834 23.0976 13.2929 22.7071L12 21.4142L10.7071 22.7071C10.3166 23.0976 9.68342 23.0976 9.29289 22.7071C8.90237 22.3166 8.90237 21.6834 9.29289 21.2929L10.5858 20L9.29289 18.7071C8.90237 18.3166 8.90237 17.6834 9.29289 17.2929ZM22.7071 17.2929C22.3166 16.9024 21.6834 16.9024 21.2929 17.2929C20.9024 17.6834 20.9024 18.3166 21.2929 18.7071L22.5858 20L21.2929 21.2929C20.9024 21.6834 20.9024 22.3166 21.2929 22.7071C21.6834 23.0976 22.3166 23.0976 22.7071 22.7071L24 21.4142L25.2929 22.7071C25.6834 23.0976 26.3166 23.0976 26.7071 22.7071C27.0976 22.3166 27.0976 21.6834 26.7071 21.2929L25.4142 20L26.7071 18.7071C27.0976 18.3166 27.0976 17.6834 26.7071 17.2929C26.3166 16.9024 25.6834 16.9024 25.2929 17.2929L24 18.5858L22.7071 17.2929ZM34.7071 17.2929C34.3166 16.9024 33.6834 16.9024 33.2929 17.2929C32.9024 17.6834 32.9024 18.3166 33.2929 18.7071L34.5858 20L33.2929 21.2929C32.9024 21.6834 32.9024 22.3166 33.2929 22.7071C33.6834 23.0976 34.3166 23.0976 34.7071 22.7071L36 21.4142L37.2929 22.7071C37.6834 23.0976 38.3166 23.0976 38.7071 22.7071C39.0976 22.3166 39.0976 21.6834 38.7071 21.2929L37.4142 20L38.7071 18.7071C39.0976 18.3166 39.0976 17.6834 38.7071 17.2929C38.3166 16.9024 37.6834 16.9024 37.2929 17.2929L36 18.5858L34.7071 17.2929Z" fill="#ffffff"/>

</g>

</svg>