<svg width="40" height="40" viewBox="0 0 40 40" fill="none" xmlns="http://www.w3.org/2000/svg" >

<g transform="translate(0.000000, 0.000000) scale(2.000000 2.000000) "> 

<path opacity="0.956" d="M9.9994 1C14.9626 1 19 5.00182 19 10C19 14.9655 14.9626 19 9.9994 19C5.03739 19 1 14.9655 1 10C1 5.00182 5.03739 1 9.9994 1Z" fill="#CF87E1"/>
<path opacity="0.95" fill-rule="evenodd" clip-rule="evenodd" d="M10 19C14.9706 19 19 14.9706 19 10C19 5.02944 14.9706 1 10 1C5.02944 1 1 5.02944 1 10C1 14.9706 5.02944 19 10 19ZM10 20C15.5228 20 20 15.5228 20 10C20 4.47715 15.5228 0 10 0C4.47715 0 0 4.47715 0 10C0 15.5228 4.47715 20 10 20Z" fill="#BA37DD"/>

</g>


<g transform="translate(8.000000, 8.000000) scale(2.000000 2.000000) "> 

<g opacity="0.5">
<path d="M4 12H28V28H4V12Z" fill="#ffffff"/>
<path d="M12 32H20V36H12V32Z" fill="#ffffff"/>
<path d="M42 16C43.1046 16 44 15.1046 44 14C44 12.8954 43.1046 12 42 12C40.8954 12 40 12.8954 40 14C40 15.1046 40.8954 16 42 16Z" fill="#ffffff"/>
</g>
<path fill-rule="evenodd" clip100-rule="evenodd" d="M2 8C0.895431 8 0 8.89543 0 10V30C0 31.1046 0.895431 32 2 32H30C31.1046 32 32 31.1046 32 30V10C32 8.89543 31.1046 8 30 8H2ZM4 12V28H28V12H4Z" fill="#ffffff"/>
<path d="M8 36H24V40H8V36Z" fill="#ffffff"/>
<path fill-rule="evenodd" clip100-rule="evenodd" d="M36 10C36 8.89543 36.8954 8 38 8H46C47.1046 8 48 8.89543 48 10V38C48 39.1046 47.1046 40 46 40H38C36.8954 40 36 39.1046 36 38V10ZM40 14C40 12.8954 40.8954 12 42 12C43.1046 12 44 12.8954 44 14V18C44 19.1046 43.1046 20 42 20C40.8954 20 40 19.1046 40 18V14Z" fill="#ffffff"/>

</g>

</svg>