<svg width="300" height="40" viewBox="0 0 300 40" fill="none" xmlns="http://www.w3.org/2000/svg" xmlns:xlink="http://www.w3.org/1999/xlink" version="1.1">

<g transform="translate(130.000000, 0.000000) scale(2.000000 2.000000) "> 

<path opacity="0.956" d="M9.9994 1C14.9626 1 19 5.00182 19 10C19 14.9655 14.9626 19 9.9994 19C5.03739 19 1 14.9655 1 10C1 5.00182 5.03739 1 9.9994 1Z" fill="#CF87E1"/>
<path opacity="0.95" fill-rule="evenodd" clip-rule="evenodd" d="M10 19C14.9706 19 19 14.9706 19 10C19 5.02944 14.9706 1 10 1C5.02944 1 1 5.02944 1 10C1 14.9706 5.02944 19 10 19ZM10 20C15.5228 20 20 15.5228 20 10C20 4.47715 15.5228 0 10 0C4.47715 0 0 4.47715 0 10C0 15.5228 4.47715 20 10 20Z" fill="#BA37DD"/>

</g>%n%n
<g transform="translate(138.000000, 8.000000) scale(2.000000 2.000000) "> 

<g id="surface1">
<path style=" stroke:none;fill-rule:evenodd;fill:rgb(100%,100%,100%);fill-opacity:1;" d="M 10.507812 2.84375 C 10.394531 2.839844 10.285156 2.875 10.195312 2.945312 L 8.996094 3.84375 L 2.503906 6 L 1.003906 6 C 0.730469 6 0.503906 6.222656 0.503906 6.5 C 0.503906 6.777344 0.730469 7 1.003906 7 L 2.667969 7 L 9.464844 4.742188 L 10.796875 3.746094 C 10.96875 3.617188 11.039062 3.394531 10.976562 3.191406 C 10.910156 2.988281 10.722656 2.847656 10.507812 2.84375 Z M 10.507812 2.84375 "/>
<path style=" stroke:none;fill-rule:nonzero;fill:rgb(100%,100%,100%);fill-opacity:1;" d="M 4.453125 8.191406 C 4.628906 8.714844 4.34375 9.28125 3.820312 9.453125 C 3.296875 9.628906 2.730469 9.34375 2.558594 8.820312 C 2.382812 8.296875 2.667969 7.730469 3.191406 7.558594 C 3.714844 7.382812 4.28125 7.667969 4.453125 8.191406 Z M 4.453125 8.191406 "/>
<path style=" stroke:none;fill-rule:nonzero;fill:rgb(100%,100%,100%);fill-opacity:1;" d="M 10.953125 6.183594 C 11.128906 6.707031 10.84375 7.273438 10.320312 7.445312 C 9.796875 7.621094 9.230469 7.335938 9.054688 6.8125 C 8.878906 6.289062 9.164062 5.722656 9.6875 5.546875 C 10.210938 5.375 10.777344 5.65625 10.953125 6.183594 Z M 10.953125 6.183594 "/>
</g>

</g>%n%n</svg>