<svg width="300" height="40" viewBox="0 0 300 40" fill="none" xmlns="http://www.w3.org/2000/svg" >

<g transform="translate(130.000000, 0.000000) scale(2.000000 2.000000) "> 

<path opacity="0.956" d="M9.9994 1C14.9626 1 19 5.00182 19 10C19 14.9655 14.9626 19 9.9994 19C5.03739 19 1 14.9655 1 10C1 5.00182 5.03739 1 9.9994 1Z" fill="#CF87E1"/>
<path opacity="0.95" fill-rule="evenodd" clip-rule="evenodd" d="M10 19C14.9706 19 19 14.9706 19 10C19 5.02944 14.9706 1 10 1C5.02944 1 1 5.02944 1 10C1 14.9706 5.02944 19 10 19ZM10 20C15.5228 20 20 15.5228 20 10C20 4.47715 15.5228 0 10 0C4.47715 0 0 4.47715 0 10C0 15.5228 4.47715 20 10 20Z" fill="#BA37DD"/>

</g>%n%n
<g transform="translate(138.000000, 8.000000) scale(0.500000 0.500000) "> 

<path d="M44.0006 4H38.829C37.018 4 35.2812 4.71942 34.0006 6C32.72 7.28058 32.0006 9.01742 32.0006 10.8284V16H37.1722C38.9832 16 40.72 15.2806 42.0006 14C43.2812 12.7194 44.0006 10.9826 44.0006 9.17157V4Z" fill="#ffffff"/>
<path d="M5.41436 45.4142L10.8286 40H20V36H12.0002L12 28H8V37.1717L2.58594 42.5858L5.41436 45.4142Z" fill="#ffffff"/>
<path d="M12.0006 16C16.4189 16 20.0006 19.5817 20.0006 24V28H18.0006C14.6869 28 12.0006 25.3137 12.0006 22V16Z" fill="#ffffff"/>
<path d="M20.0006 28H26.0006C29.3143 28 32.0006 30.6863 32.0006 34V36H26.0006C22.6869 36 20.0006 33.3137 20.0006 30L20.0006 28Z" fill="#ffffff"/>
<path d="M28.0006 16C28.0006 11.5817 24.4189 8 20.0006 8V14C20.0006 17.3137 22.6869 20 26.0006 20H28.0006V22C28.0006 25.3137 30.6869 28 34.0006 28H40.0006V26C40.0006 22.6863 37.3143 20 34.0006 20H28.0006V16Z" fill="#ffffff"/>

</g>%n%n</svg>