<svg width="300" height="40" viewBox="0 0 300 40" fill="none" xmlns="http://www.w3.org/2000/svg" >

<g transform="translate(130.000000, 0.000000) scale(2.000000 2.000000) "> 

<path opacity="0.956" d="M9.9994 1C14.9626 1 19 5.00182 19 10C19 14.9655 14.9626 19 9.9994 19C5.03739 19 1 14.9655 1 10C1 5.00182 5.03739 1 9.9994 1Z" fill="#CF87E1"/>
<path opacity="0.95" fill-rule="evenodd" clip-rule="evenodd" d="M10 19C14.9706 19 19 14.9706 19 10C19 5.02944 14.9706 1 10 1C5.02944 1 1 5.02944 1 10C1 14.9706 5.02944 19 10 19ZM10 20C15.5228 20 20 15.5228 20 10C20 4.47715 15.5228 0 10 0C4.47715 0 0 4.47715 0 10C0 15.5228 4.47715 20 10 20Z" fill="#BA37DD"/>

</g>


<g transform="translate(138.000000, 8.000000) scale(0.500000 0.500000) "> 

<path fill-rule="evenodd" clip100-rule="evenodd" d="M12.3414 12C12.1203 11.3744 12 10.7013 12 10C12 6.68629 14.6863 4 18 4C21.3137 4 24 6.68629 24 10C24 6.68629 26.6863 4 30 4C33.3137 4 36 6.68629 36 10C36 10.7013 35.8797 11.3744 35.6586 12H36C38.2091 12 40 13.7909 40 16V36C40 38.2091 38.2091 40 36 40H12C9.79086 40 8 38.2091 8 36V16C8 13.7909 9.79086 12 12 12H12.3414ZM20 10V11.8182L19.7778 12H18C16.8954 12 16 11.1046 16 10C16 8.89543 16.8954 8 18 8C19.1046 8 20 8.89543 20 10ZM27.6751 16L31.548 20.7335C32.2474 21.5884 32.1214 22.8485 31.2665 23.5479C30.4116 24.2474 29.1516 24.1214 28.4521 23.2665L24.0001 17.825L19.548 23.2665C18.8485 24.1214 17.5885 24.2474 16.7336 23.5479C15.8787 22.8485 15.7527 21.5884 16.4521 20.7335L20.325 16H12V36H36V16H27.6751ZM30 12C31.1046 12 32 11.1046 32 10C32 8.89543 31.1046 8 30 8C28.8954 8 28 8.89543 28 10V11.8181L28.2223 12H30Z" fill="#ffffff"/>

</g>

</svg>