<svg width="300" height="35" viewBox="0 0 300 35" fill="none" xmlns="http://www.w3.org/2000/svg" >

<g transform="translate(135.000000, 2.000000) scale(1.500000 1.500000) "> 

<path opacity="0.95" fill-rule="evenodd" clip-rule="evenodd" d="M10 19C14.9706 19 19 14.9706 19 10C19 5.02944 14.9706 1 10 1C5.02944 1 1 5.02944 1 10C1 14.9706 5.02944 19 10 19ZM10 20C15.5228 20 20 15.5228 20 10C20 4.47715 15.5228 0 10 0C4.47715 0 0 4.47715 0 10C0 15.5228 4.47715 20 10 20Z" fill="#B348CE"/>
<path opacity="0.956" d="M9.9994 1C14.9626 1 19 5.00182 19 10C19 14.9655 14.9626 19 9.9994 19C5.03739 19 1 14.9655 1 10C1 5.00182 5.03739 1 9.9994 1Z" fill="#7D2793"/>

</g>


<g transform="translate(141.000000, 8.000000) scale(0.375000 0.375000) "> 

<path fill-rule="evenodd" clip100-rule="evenodd" d="M4 44L8.66667 12.5714C9.73446 5.477 13.3333 4 18 4C22.6667 4 26.1469 5.40436 27.3333 12.5714L32 44C26.9826 39.7766 22.3863 40.6244 18 44C13.2519 40.08 8.58989 40.3023 4 44ZM22 18C22 14.6863 20.2091 12 18 12C15.7909 12 14 14.6863 14 18C14 21.3137 15.7909 24 18 24C20.2091 24 22 21.3137 22 18Z" fill="#ffffff"/>
<path d="M43.999 44C41.0838 41.5461 38.3108 40.8042 35.6385 41.2753L32.8151 22.261C33.5462 21.1738 33.999 19.6662 33.999 18C33.999 15.3936 32.8911 13.1753 31.3431 12.3471L31.2891 11.9839L31.2788 11.9181C30.7572 8.76729 29.7721 6.11229 28.1211 4.09648C28.7239 4.02847 29.3512 4 29.999 4C34.6657 4 38.1459 5.40436 39.3324 12.5714L43.999 44Z" fill="#ffffff"/>

</g>

</svg>