<svg width="40" height="40" viewBox="0 0 40 40" fill="none" xmlns="http://www.w3.org/2000/svg" >

<g transform="translate(0.000000, 0.000000) scale(2.000000 2.000000) "> 

<path opacity="0.956" d="M9.9994 1C14.9626 1 19 5.00182 19 10C19 14.9655 14.9626 19 9.9994 19C5.03739 19 1 14.9655 1 10C1 5.00182 5.03739 1 9.9994 1Z" fill="#CF87E1"/>
<path opacity="0.95" fill-rule="evenodd" clip-rule="evenodd" d="M10 19C14.9706 19 19 14.9706 19 10C19 5.02944 14.9706 1 10 1C5.02944 1 1 5.02944 1 10C1 14.9706 5.02944 19 10 19ZM10 20C15.5228 20 20 15.5228 20 10C20 4.47715 15.5228 0 10 0C4.47715 0 0 4.47715 0 10C0 15.5228 4.47715 20 10 20Z" fill="#BA37DD"/>

</g>


<g transform="translate(8.000000, 8.000000) scale(2.000000 2.000000) "> 

<path fill-rule="evenodd" clip100-rule="evenodd" d="M12 17C12 16.4477 12.4477 16 13 16H35C35.5523 16 36 16.4477 36 17V21C36 19.3431 37.3431 18 39 18H44V19.1716C44 19.702 43.7893 20.2107 43.4142 20.5858L43 21C42.4477 21.5523 42.4477 22.4477 43 23C43.5523 23.5523 43.5523 24.4477 43 25C42.4477 25.5523 42.4477 26.4477 43 27L43.4142 27.4142C43.7893 27.7893 44 28.298 44 28.8284V30H39C37.3431 30 36 28.6569 36 27V31C36 31.5523 35.5523 32 35 32H13C12.4477 32 12 31.5523 12 31V28C12 29.1046 11.1046 30 10 30H4V28.8284C4 28.298 4.21071 27.7893 4.58579 27.4142L5 27C5.55229 26.4477 5.55228 25.5523 5 25C4.44772 24.4477 4.44772 23.5523 5 23C5.55228 22.4477 5.55228 21.5523 5 21L4.58579 20.5858C4.21071 20.2107 4 19.702 4 19.1716V18H10C11.1046 18 12 18.8954 12 20V17Z" fill="#ffffff"/>

</g>

</svg>