<svg width="300" height="40" viewBox="0 0 300 40" fill="none" xmlns="http://www.w3.org/2000/svg" xmlns:xlink="http://www.w3.org/1999/xlink" version="1.1">

<g transform="translate(130.000000, 0.000000) scale(2.000000 2.000000) "> 

<path opacity="0.956" d="M9.9994 1C14.9626 1 19 5.00182 19 10C19 14.9655 14.9626 19 9.9994 19C5.03739 19 1 14.9655 1 10C1 5.00182 5.03739 1 9.9994 1Z" fill="#CF87E1"/>
<path opacity="0.95" fill-rule="evenodd" clip-rule="evenodd" d="M10 19C14.9706 19 19 14.9706 19 10C19 5.02944 14.9706 1 10 1C5.02944 1 1 5.02944 1 10C1 14.9706 5.02944 19 10 19ZM10 20C15.5228 20 20 15.5228 20 10C20 4.47715 15.5228 0 10 0C4.47715 0 0 4.47715 0 10C0 15.5228 4.47715 20 10 20Z" fill="#BA37DD"/>

</g>%n%n
<g transform="translate(138.000000, 8.000000) scale(2.000000 2.000000) "> 

<g id="surface1">
<path style="fill:none;stroke-width:38.9617;stroke-linecap:round;stroke-linejoin:round;stroke:rgb(100%,100%,100%);stroke-opacity:1;stroke-miterlimit:10;" d="M 366.653646 85.716146 L 302.838542 149.53125 C 295.664062 156.516927 289.622396 188.235677 277.161458 200.696615 C 264.889323 212.96875 226.184896 251.673177 200.696615 277.161458 C 175.019531 302.838542 156.516927 295.664062 149.53125 302.838542 L 85.716146 366.653646 C 72.877604 379.303385 72.877604 404.980469 85.716146 417.630208 L 162.369792 494.283854 C 175.019531 507.122396 200.696615 507.122396 213.346354 494.283854 L 277.161458 430.46875 C 284.335938 423.483073 277.161458 404.980469 302.838542 379.303385 C 328.326823 353.815104 354.759115 327.571615 379.492188 302.838542 C 404.22526 278.105469 423.483073 284.335938 430.46875 277.161458 L 494.283854 213.346354 C 507.122396 200.696615 507.122396 175.019531 494.283854 162.369792 C 494.283854 162.369792 430.46875 98.554688 417.630208 85.716146 C 404.980469 72.877604 379.492188 72.877604 366.653646 85.716146 Z M 366.653646 85.716146 " transform="matrix(0.0206897,0,0,0.0206897,0,0)"/>
<path style="fill:none;stroke-width:38.9617;stroke-linecap:round;stroke-linejoin:round;stroke:rgb(100%,100%,100%);stroke-opacity:1;stroke-miterlimit:10;" d="M 458.789062 121.210938 L 522.792969 57.207031 " transform="matrix(0.0206897,0,0,0.0206897,0,0)"/>
<path style="fill:none;stroke-width:38.9617;stroke-linecap:round;stroke-linejoin:round;stroke:rgb(100%,100%,100%);stroke-opacity:1;stroke-miterlimit:10;" d="M 121.210938 458.789062 L 57.207031 522.792969 " transform="matrix(0.0206897,0,0,0.0206897,0,0)"/>
<path style="fill:none;stroke-width:38.9617;stroke-linecap:round;stroke-linejoin:round;stroke:rgb(100%,100%,100%);stroke-opacity:1;stroke-miterlimit:10;" d="M 328.893229 129.518229 L 451.614583 252.239583 " transform="matrix(0.0206897,0,0,0.0206897,0,0)"/>
<path style="fill:none;stroke-width:38.9617;stroke-linecap:round;stroke-linejoin:round;stroke:rgb(100%,100%,100%);stroke-opacity:1;stroke-miterlimit:10;" d="M 286.790365 200.696615 L 374.583333 288.489583 " transform="matrix(0.0206897,0,0,0.0206897,0,0)"/>
<path style="fill:none;stroke-width:38.9617;stroke-linecap:round;stroke-linejoin:round;stroke:rgb(100%,100%,100%);stroke-opacity:1;stroke-miterlimit:10;" d="M 208.815104 281.126302 L 296.608073 369.108073 " transform="matrix(0.0206897,0,0,0.0206897,0,0)"/>
<path style="fill:none;stroke-width:38.9617;stroke-linecap:round;stroke-linejoin:round;stroke:rgb(100%,100%,100%);stroke-opacity:1;stroke-miterlimit:10;" d="M 144.811198 318.509115 L 267.532552 441.230469 " transform="matrix(0.0206897,0,0,0.0206897,0,0)"/>
<path style=" stroke:none;fill-rule:evenodd;fill:rgb(100%,100%,100%);fill-opacity:1;" d="M 2.820312 6.574219 L 4.578125 5.476562 L 6.675781 7.554688 L 5.289062 9.09375 Z M 2.820312 6.574219 "/>
<path style=" stroke:none;fill-rule:evenodd;fill:rgb(100%,100%,100%);fill-opacity:1;" d="M 9.582031 4.96875 L 7.824219 6.070312 L 5.730469 3.988281 L 7.113281 2.449219 Z M 9.582031 4.96875 "/>
</g>

</g>%n%n</svg>