<svg width="300" height="40" viewBox="0 0 300 40" fill="none" xmlns="http://www.w3.org/2000/svg" xmlns:xlink="http://www.w3.org/1999/xlink">

<g transform="translate(130.000000, 0.000000) scale(2.000000 2.000000) "> 

<path opacity="0.956" d="M9.9994 1C14.9626 1 19 5.00182 19 10C19 14.9655 14.9626 19 9.9994 19C5.03739 19 1 14.9655 1 10C1 5.00182 5.03739 1 9.9994 1Z" fill="#CF87E1"/>
<path opacity="0.95" fill-rule="evenodd" clip-rule="evenodd" d="M10 19C14.9706 19 19 14.9706 19 10C19 5.02944 14.9706 1 10 1C5.02944 1 1 5.02944 1 10C1 14.9706 5.02944 19 10 19ZM10 20C15.5228 20 20 15.5228 20 10C20 4.47715 15.5228 0 10 0C4.47715 0 0 4.47715 0 10C0 15.5228 4.47715 20 10 20Z" fill="#BA37DD"/>

</g>%n%n
<g transform="translate(138.000000, 8.000000) scale(2.000000 2.000000) "> 

<defs>
<filter id="filter-remove-color" x="0%" y="0%" width="100%" height="100%">
<feColorMatrix color-interpolation-filters="sRGB" values="0 0 0 0 1 0 0 0 0 1 0 0 0 0 1 0 0 0 1 0" />
</filter>
<mask id="mask-0">
<g filter="url(#filter-remove-color)">
<rect x="-1.2" y="-1.2" width="14.4" height="14.4" fill="rgb(0%, 0%, 0%)" fill-opacity="0.5"/>
</g>
</mask>
<clip100Path id="clip100-0">
<rect x="0" y="0" width="12" height="12"/>
</clip100Path>
<g id="source-6" clip100-path="url(#clip100-0)">
<path fill-rule="evenodd" fill="rgb(100%, 100%, 100%)" fill-opacity="1" d="M 7.855469 2.144531 C 8.046875 2.339844 8.046875 2.660156 7.855469 2.855469 L 4.855469 5.855469 C 4.660156 6.046875 4.339844 6.046875 4.144531 5.855469 C 3.953125 5.660156 3.953125 5.339844 4.144531 5.144531 L 7.144531 2.144531 C 7.339844 1.953125 7.660156 1.953125 7.855469 2.144531 Z M 7.855469 2.144531 "/>
</g>
</defs>
<g mask="url(#mask-0)">
<use xlink:href="#source-6"/>
</g>
<path fill-rule="evenodd" fill="rgb(100%, 100%, 100%)" fill-opacity="1" d="M 4.144531 2.855469 C 3.953125 2.660156 3.953125 2.339844 4.144531 2.144531 C 4.339844 1.953125 4.660156 1.953125 4.855469 2.144531 L 7.707031 5 L 10.554688 5 C 10.800781 5 11 5.199219 11 5.445312 C 11 5.480469 10.996094 5.519531 10.988281 5.554688 L 10.035156 9.367188 C 10.011719 9.453125 9.964844 9.535156 9.902344 9.597656 L 9.644531 9.855469 C 9.550781 9.949219 9.425781 10 9.292969 10 L 2.707031 10 C 2.574219 10 2.449219 9.949219 2.355469 9.855469 L 2.097656 9.597656 C 2.035156 9.535156 1.988281 9.453125 1.964844 9.367188 L 1.011719 5.554688 C 1.003906 5.519531 1 5.480469 1 5.445312 C 1 5.199219 1.199219 5 1.445312 5 L 6.292969 5 Z M 7 6 L 5 6 L 5 9 L 7 9 Z M 8 9 L 9.085938 9 L 9.804688 6 L 8 6 Z M 4 9 L 4 6 L 2.195312 6 L 2.914062 9 Z M 4 9 "/>

</g>%n%n</svg>