<svg width="300" height="40" viewBox="0 0 300 40" fill="none" xmlns="http://www.w3.org/2000/svg" xmlns:xlink="http://www.w3.org/1999/xlink">

<g transform="translate(130.000000, 0.000000) scale(2.000000 2.000000) "> 

<path opacity="0.956" d="M9.9994 1C14.9626 1 19 5.00182 19 10C19 14.9655 14.9626 19 9.9994 19C5.03739 19 1 14.9655 1 10C1 5.00182 5.03739 1 9.9994 1Z" fill="#CF87E1"/>
<path opacity="0.95" fill-rule="evenodd" clip-rule="evenodd" d="M10 19C14.9706 19 19 14.9706 19 10C19 5.02944 14.9706 1 10 1C5.02944 1 1 5.02944 1 10C1 14.9706 5.02944 19 10 19ZM10 20C15.5228 20 20 15.5228 20 10C20 4.47715 15.5228 0 10 0C4.47715 0 0 4.47715 0 10C0 15.5228 4.47715 20 10 20Z" fill="#BA37DD"/>

</g>%n%n
<g transform="translate(138.000000, 8.000000) scale(0.750000 0.750000) "> 

<path fill-rule="nonzero" fill="rgb(100%, 100%, 100%)" fill-opacity="1" d="M 12 2.667969 C 12.738281 2.667969 13.332031 3.261719 13.332031 4 L 13.332031 8 L 18.667969 8 L 18.667969 4 C 18.667969 3.261719 19.261719 2.667969 20 2.667969 C 20.738281 2.667969 21.332031 3.261719 21.332031 4 L 21.332031 8 L 22.667969 8 C 23.402344 8 24 8.597656 24 9.332031 L 24 14.667969 C 24 15.402344 23.402344 16 22.667969 16 L 21.332031 16 C 21.332031 17.472656 20.140625 18.667969 18.667969 18.667969 L 17.371094 18.667969 C 17.378906 19.265625 17.378906 19.835938 17.351562 20.339844 C 17.285156 21.613281 17.054688 22.910156 16.21875 23.984375 C 15.371094 25.074219 14.074219 25.722656 12.355469 26.113281 C 10.648438 26.5 8.363281 26.667969 5.332031 26.667969 L 5.332031 24 C 8.304688 24 10.351562 23.832031 11.769531 23.511719 C 13.175781 23.191406 13.796875 22.757812 14.113281 22.347656 C 14.445312 21.925781 14.632812 21.300781 14.6875 20.199219 C 14.714844 19.71875 14.714844 19.21875 14.707031 18.667969 L 13.332031 18.667969 C 11.859375 18.667969 10.667969 17.472656 10.667969 16 L 9.332031 16 C 8.597656 16 8 15.402344 8 14.667969 L 8 9.332031 C 8 8.597656 8.597656 8 9.332031 8 L 10.667969 8 L 10.667969 4 C 10.667969 3.261719 11.261719 2.667969 12 2.667969 Z M 12 2.667969 "/>

</g>%n%n</svg>