<svg width="300" height="40" viewBox="0 0 300 40" fill="none" xmlns="http://www.w3.org/2000/svg" xmlns:xlink="http://www.w3.org/1999/xlink">

<g transform="translate(130.000000, 0.000000) scale(2.000000 2.000000) "> 

<path opacity="0.956" d="M9.9994 1C14.9626 1 19 5.00182 19 10C19 14.9655 14.9626 19 9.9994 19C5.03739 19 1 14.9655 1 10C1 5.00182 5.03739 1 9.9994 1Z" fill="#CF87E1"/>
<path opacity="0.95" fill-rule="evenodd" clip-rule="evenodd" d="M10 19C14.9706 19 19 14.9706 19 10C19 5.02944 14.9706 1 10 1C5.02944 1 1 5.02944 1 10C1 14.9706 5.02944 19 10 19ZM10 20C15.5228 20 20 15.5228 20 10C20 4.47715 15.5228 0 10 0C4.47715 0 0 4.47715 0 10C0 15.5228 4.47715 20 10 20Z" fill="#BA37DD"/>

</g>%n%n
<g transform="translate(138.000000, 8.000000) scale(2.000000 2.000000) "> 

<path fill-rule="nonzero" fill="rgb(100%, 100%, 100%)" fill-opacity="1" d="M 3 2.5 C 3 2.222656 3.222656 2 3.5 2 L 4.5 2 C 4.777344 2 5 2.222656 5 2.5 L 5 3 L 3 3 Z M 3 2.5 "/>
<path fill-rule="nonzero" fill="rgb(100%, 100%, 100%)" fill-opacity="1" d="M 7 2.5 C 7 2.222656 7.222656 2 7.5 2 L 8.5 2 C 8.777344 2 9 2.222656 9 2.5 L 9 3 L 7 3 Z M 7 2.5 "/>
<path fill-rule="evenodd" fill="rgb(100%, 100%, 100%)" fill-opacity="1" d="M 2 5 C 2 4.449219 2.449219 4 3 4 L 9 4 C 9.550781 4 10 4.449219 10 5 L 10 9 C 10 9.550781 9.550781 10 9 10 L 3 10 C 2.449219 10 2 9.550781 2 9 Z M 7 6 L 8 6 L 8 7 L 9 7 L 9 8 L 8 8 L 8 9 L 7 9 L 7 8 L 6 8 L 6 7 L 7 7 Z M 5 8 L 5 7 L 3 7 L 3 8 Z M 5 8 "/>

</g>%n%n</svg>