<svg width="300" height="40" viewBox="0 0 300 40" fill="none" xmlns="http://www.w3.org/2000/svg" xmlns:xlink="http://www.w3.org/1999/xlink">

<g transform="translate(130.000000, 0.000000) scale(2.000000 2.000000) "> 

<path opacity="0.956" d="M9.9994 1C14.9626 1 19 5.00182 19 10C19 14.9655 14.9626 19 9.9994 19C5.03739 19 1 14.9655 1 10C1 5.00182 5.03739 1 9.9994 1Z" fill="#CF87E1"/>
<path opacity="0.95" fill-rule="evenodd" clip-rule="evenodd" d="M10 19C14.9706 19 19 14.9706 19 10C19 5.02944 14.9706 1 10 1C5.02944 1 1 5.02944 1 10C1 14.9706 5.02944 19 10 19ZM10 20C15.5228 20 20 15.5228 20 10C20 4.47715 15.5228 0 10 0C4.47715 0 0 4.47715 0 10C0 15.5228 4.47715 20 10 20Z" fill="#BA37DD"/>

</g>%n%n
<g transform="translate(138.000000, 8.000000) scale(0.750000 0.750000) "> 

<path fill-rule="nonzero" fill="rgb(100%, 100%, 100%)" fill-opacity="1" d="M 13.320312 7.902344 L 13.390625 8 C 14.40625 9.402344 17.15625 11.460938 19.601562 13.136719 L 24.6875 16.191406 C 25.023438 16.390625 25.253906 16.730469 25.316406 17.121094 C 25.378906 17.507812 25.269531 17.902344 25.011719 18.199219 L 20.042969 24 L 22.667969 24 C 23.402344 24 24 24.597656 24 25.332031 L 24 28 C 24 28.738281 23.402344 29.332031 22.667969 29.332031 L 9.332031 29.332031 C 8.597656 29.332031 8 28.738281 8 28 L 8 25.332031 C 8 24.597656 8.597656 24 9.332031 24 L 16.53125 24 L 21.960938 17.664062 L 20.035156 16.507812 C 16.917969 16.964844 12.765625 17.710938 10.667969 18.667969 C 10.480469 18.75 10.308594 18.832031 10.144531 18.90625 C 9.152344 20.5 8.078125 21.429688 7.160156 21.324219 C 5.304688 21.113281 4.777344 16.765625 5.976562 11.617188 C 7.109375 6.75 9.386719 2.90625 11.195312 2.675781 L 11.199219 2.667969 L 11.199219 2.675781 C 11.304688 2.664062 11.40625 2.664062 11.507812 2.675781 C 12.785156 2.820312 13.433594 4.925781 13.320312 7.902344 Z M 13.320312 7.902344 "/>

</g>%n%n</svg>