<svg width="300" height="35" viewBox="0 0 300 35" fill="none" xmlns="http://www.w3.org/2000/svg">

<g transform="translate(135.000000, 2.000000) scale(1.500000 1.500000) "> 

<path opacity="0.95" fill-rule="evenodd" clip-rule="evenodd" d="M10 19C14.9706 19 19 14.9706 19 10C19 5.02944 14.9706 1 10 1C5.02944 1 1 5.02944 1 10C1 14.9706 5.02944 19 10 19ZM10 20C15.5228 20 20 15.5228 20 10C20 4.47715 15.5228 0 10 0C4.47715 0 0 4.47715 0 10C0 15.5228 4.47715 20 10 20Z" fill="#B348CE"/>
<path opacity="0.956" d="M9.9994 1C14.9626 1 19 5.00182 19 10C19 14.9655 14.9626 19 9.9994 19C5.03739 19 1 14.9655 1 10C1 5.00182 5.03739 1 9.9994 1Z" fill="#7D2793"/>

</g>


<g transform="translate(141.000000, 8.000000) scale(0.375000 0.375000) "> 

<path d="M12 10C12 8.89543 12.8954 8 14 8H18C19.1046 8 20 8.89543 20 10V12H12V10Z" fill="#ffffff"/>
<path d="M28 10C28 8.89543 28.8954 8 30 8H34C35.1046 8 36 8.89543 36 10V12H28V10Z" fill="#ffffff"/>
<path fill-rule="evenodd" clip100-rule="evenodd" d="M8 20C8 17.7909 9.79086 16 12 16H36C38.2091 16 40 17.7909 40 20V36C40 38.2091 38.2091 40 36 40H12C9.79086 40 8 38.2091 8 36V20ZM28 24H32V28H36V32H32V36H28V32H24V28H28V24ZM20 32V28H12V32H20Z" fill="#ffffff"/>

</g>

</svg>