<svg width="300" height="40" viewBox="0 0 300 40" fill="none" xmlns="http://www.w3.org/2000/svg" xmlns:xlink="http://www.w3.org/1999/xlink" version="1.1">

<g transform="translate(130.000000, 0.000000) scale(2.000000 2.000000) "> 

<path opacity="0.956" d="M9.9994 1C14.9626 1 19 5.00182 19 10C19 14.9655 14.9626 19 9.9994 19C5.03739 19 1 14.9655 1 10C1 5.00182 5.03739 1 9.9994 1Z" fill="#CF87E1"/>
<path opacity="0.95" fill-rule="evenodd" clip-rule="evenodd" d="M10 19C14.9706 19 19 14.9706 19 10C19 5.02944 14.9706 1 10 1C5.02944 1 1 5.02944 1 10C1 14.9706 5.02944 19 10 19ZM10 20C15.5228 20 20 15.5228 20 10C20 4.47715 15.5228 0 10 0C4.47715 0 0 4.47715 0 10C0 15.5228 4.47715 20 10 20Z" fill="#BA37DD"/>

</g>%n%n
<g transform="translate(138.000000, 8.000000) scale(2.000000 2.000000) "> 

<g id="surface1">
<path style=" stroke:none;fill-rule:nonzero;fill:rgb(100%,100%,100%);fill-opacity:1;" d="M 8.5 1 C 7.671875 1 7 1.671875 7 2.5 C 7 3.328125 7.671875 4 8.5 4 C 8.675781 4 8.847656 3.96875 9.003906 3.914062 C 9 3.941406 9 3.972656 9 4 C 9 4.550781 9.449219 5 10 5 C 10.550781 5 11 4.550781 11 4 C 11 3.449219 10.550781 3 10 3 C 9.972656 3 9.941406 3 9.914062 3.003906 C 9.96875 2.847656 10 2.675781 10 2.5 C 10 1.671875 9.328125 1 8.5 1 Z M 8.5 1 "/>
<path style=" stroke:none;fill-rule:nonzero;fill:rgb(100%,100%,100%);fill-opacity:1;" d="M 10.5 5 C 10.777344 5 11 5.222656 11 5.5 C 11 5.777344 10.777344 6 10.5 6 C 10.222656 6 10 5.777344 10 5.5 C 10 5.222656 10.222656 5 10.5 5 Z M 10.5 5 "/>
<path style=" stroke:none;fill-rule:evenodd;fill:rgb(100%,100%,100%);fill-opacity:1;" d="M 2 7.5 L 1 7.5 L 1 8.5 L 2 8.5 L 3 9 L 9 9 L 9 7 L 3 7 Z M 8 7.25 C 8.136719 7.25 8.25 7.363281 8.25 7.5 L 8.25 7.75 L 8.5 7.75 C 8.636719 7.75 8.75 7.863281 8.75 8 C 8.75 8.136719 8.636719 8.25 8.5 8.25 L 8.25 8.25 L 8.25 8.5 C 8.25 8.636719 8.136719 8.75 8 8.75 C 7.863281 8.75 7.75 8.636719 7.75 8.5 L 7.75 8.25 L 7.5 8.25 C 7.363281 8.25 7.25 8.136719 7.25 8 C 7.25 7.863281 7.363281 7.75 7.5 7.75 L 7.75 7.75 L 7.75 7.5 C 7.75 7.363281 7.863281 7.25 8 7.25 Z M 2.25 8 C 2.25 7.863281 2.363281 7.75 2.5 7.75 L 3.5 7.75 C 3.636719 7.75 3.75 7.863281 3.75 8 C 3.75 8.136719 3.636719 8.25 3.5 8.25 L 2.5 8.25 C 2.363281 8.25 2.25 8.136719 2.25 8 Z M 2.25 8 "/>
<path style=" stroke:none;fill-rule:nonzero;fill:rgb(100%,100%,100%);fill-opacity:1;" d="M 12 7.5 L 9.5 7.5 L 9.5 8.5 L 12 8.5 Z M 12 7.5 "/>
</g>

</g>%n%n</svg>