<svg width="300" height="40" viewBox="0 0 300 40" fill="none" xmlns="http://www.w3.org/2000/svg" xmlns:xlink="http://www.w3.org/1999/xlink">

<g transform="translate(130.000000, 0.000000) scale(2.000000 2.000000) "> 

<path opacity="0.956" d="M9.9994 1C14.9626 1 19 5.00182 19 10C19 14.9655 14.9626 19 9.9994 19C5.03739 19 1 14.9655 1 10C1 5.00182 5.03739 1 9.9994 1Z" fill="#CF87E1"/>
<path opacity="0.95" fill-rule="evenodd" clip-rule="evenodd" d="M10 19C14.9706 19 19 14.9706 19 10C19 5.02944 14.9706 1 10 1C5.02944 1 1 5.02944 1 10C1 14.9706 5.02944 19 10 19ZM10 20C15.5228 20 20 15.5228 20 10C20 4.47715 15.5228 0 10 0C4.47715 0 0 4.47715 0 10C0 15.5228 4.47715 20 10 20Z" fill="#BA37DD"/>

</g>%n%n
<g transform="translate(138.000000, 8.000000) scale(0.750000 0.750000) "> 

<path fill-rule="nonzero" fill="rgb(100%, 100%, 100%)" fill-opacity="1" d="M 26.667969 2.667969 C 26.054688 2.667969 25.523438 3.082031 25.375 3.675781 L 24.292969 8 L 4 8 C 3.589844 8 3.203125 8.1875 2.949219 8.511719 C 2.695312 8.835938 2.605469 9.257812 2.707031 9.65625 L 5.375 20.324219 C 5.523438 20.917969 6.054688 21.332031 6.667969 21.332031 L 20.957031 21.332031 L 20.292969 24 L 8 24 C 6.527344 24 5.332031 25.195312 5.332031 26.667969 C 5.332031 28.140625 6.527344 29.332031 8 29.332031 C 9.472656 29.332031 10.667969 28.140625 10.667969 26.667969 L 18.667969 26.667969 C 18.667969 28.140625 19.859375 29.332031 21.332031 29.332031 C 22.804688 29.332031 24 28.140625 24 26.667969 C 24 25.785156 23.570312 25.003906 22.910156 24.515625 L 23.957031 20.328125 L 23.960938 20.324219 L 27.707031 5.332031 L 29.332031 5.332031 C 30.070312 5.332031 30.667969 4.738281 30.667969 4 C 30.667969 3.261719 30.070312 2.667969 29.332031 2.667969 Z M 26.667969 2.667969 "/>

</g>%n%n</svg>