<svg width="300" height="40" viewBox="0 0 300 40" fill="none" xmlns="http://www.w3.org/2000/svg" xmlns:xlink="http://www.w3.org/1999/xlink">

<g transform="translate(130.000000, 0.000000) scale(2.000000 2.000000) "> 

<path opacity="0.956" d="M9.9994 1C14.9626 1 19 5.00182 19 10C19 14.9655 14.9626 19 9.9994 19C5.03739 19 1 14.9655 1 10C1 5.00182 5.03739 1 9.9994 1Z" fill="#CF87E1"/>
<path opacity="0.95" fill-rule="evenodd" clip-rule="evenodd" d="M10 19C14.9706 19 19 14.9706 19 10C19 5.02944 14.9706 1 10 1C5.02944 1 1 5.02944 1 10C1 14.9706 5.02944 19 10 19ZM10 20C15.5228 20 20 15.5228 20 10C20 4.47715 15.5228 0 10 0C4.47715 0 0 4.47715 0 10C0 15.5228 4.47715 20 10 20Z" fill="#BA37DD"/>

</g>%n%n
<g transform="translate(138.000000, 8.000000) scale(2.000000 2.000000) "> 

<path fill-rule="evenodd" fill="rgb(100%, 100%, 100%)" fill-opacity="1" d="M 1 11 L 2.167969 3.144531 C 2.433594 1.371094 3.332031 1 4.5 1 C 5.667969 1 6.535156 1.351562 6.832031 3.144531 L 8 11 C 6.746094 9.945312 5.597656 10.15625 4.5 11 C 3.3125 10.019531 2.148438 10.074219 1 11 Z M 5.5 4.5 C 5.5 3.671875 5.050781 3 4.5 3 C 3.949219 3 3.5 3.671875 3.5 4.5 C 3.5 5.328125 3.949219 6 4.5 6 C 5.050781 6 5.5 5.328125 5.5 4.5 Z M 5.5 4.5 "/>
<path fill-rule="nonzero" fill="rgb(100%, 100%, 100%)" fill-opacity="1" d="M 11 11 C 10.269531 10.386719 9.578125 10.199219 8.910156 10.320312 L 8.203125 5.566406 C 8.386719 5.292969 8.5 4.917969 8.5 4.5 C 8.5 3.847656 8.222656 3.292969 7.835938 3.085938 L 7.824219 2.996094 L 7.820312 2.980469 C 7.6875 2.191406 7.441406 1.527344 7.03125 1.023438 C 7.179688 1.007812 7.335938 1 7.5 1 C 8.667969 1 9.535156 1.351562 9.832031 3.144531 Z M 11 11 "/>

</g>%n%n</svg>