<svg width="300" height="40" viewBox="0 0 300 40" fill="none" xmlns="http://www.w3.org/2000/svg" xmlns:xlink="http://www.w3.org/1999/xlink">

<g transform="translate(130.000000, 0.000000) scale(2.000000 2.000000) "> 

<path opacity="0.956" d="M9.9994 1C14.9626 1 19 5.00182 19 10C19 14.9655 14.9626 19 9.9994 19C5.03739 19 1 14.9655 1 10C1 5.00182 5.03739 1 9.9994 1Z" fill="#CF87E1"/>
<path opacity="0.95" fill-rule="evenodd" clip-rule="evenodd" d="M10 19C14.9706 19 19 14.9706 19 10C19 5.02944 14.9706 1 10 1C5.02944 1 1 5.02944 1 10C1 14.9706 5.02944 19 10 19ZM10 20C15.5228 20 20 15.5228 20 10C20 4.47715 15.5228 0 10 0C4.47715 0 0 4.47715 0 10C0 15.5228 4.47715 20 10 20Z" fill="#BA37DD"/>

</g>%n%n
<g transform="translate(138.000000, 8.000000) scale(0.750000 0.750000) "> 

<defs>
<filter id="filter-remove-color" x="0%" y="0%" width="100%" height="100%">
<feColorMatrix color-interpolation-filters="sRGB" values="0 0 0 0 1 0 0 0 0 1 0 0 0 0 1 0 0 0 1 0" />
</filter>
<mask id="mask-0">
<g filter="url(#filter-remove-color)">
<rect x="-3.2" y="-3.2" width="38.4" height="38.4" fill="rgb(0%, 0%, 0%)" fill-opacity="0.5"/>
</g>
</mask>
<clip100Path id="clip100-0">
<rect x="0" y="0" width="32" height="32"/>
</clip100Path>
<g id="source-6" clip100-path="url(#clip100-0)">
<path fill-rule="evenodd" fill="rgb(100%, 100%, 100%)" fill-opacity="1" d="M 14.667969 5.332031 L 5.332031 5.332031 L 5.332031 2.667969 L 25.332031 2.667969 L 25.332031 5.332031 L 17.332031 5.332031 L 17.332031 14.667969 L 26.667969 14.667969 L 26.667969 17.332031 L 17.332031 17.332031 L 17.332031 26.667969 L 26.667969 26.667969 L 26.667969 29.332031 L 5.332031 29.332031 L 5.332031 26.667969 L 14.667969 26.667969 L 14.667969 17.332031 L 5.332031 17.332031 L 5.332031 14.667969 L 14.667969 14.667969 Z M 14.667969 5.332031 "/>
</g>
</defs>
<g mask="url(#mask-0)">
<use xlink:href="#source-6"/>
</g>
<path fill-rule="nonzero" fill="rgb(100%, 100%, 100%)" fill-opacity="1" d="M 2.933594 2.667969 C 2.785156 2.667969 2.667969 2.785156 2.667969 2.933594 L 2.667969 28.800781 C 2.667969 29.09375 2.90625 29.332031 3.199219 29.332031 L 6.382812 29.332031 C 6.558594 29.332031 6.722656 29.246094 6.808594 29.089844 C 7.320312 28.109375 8.953125 24.191406 6.667969 17.332031 C 13.972656 13.679688 13.496094 4.46875 13.355469 2.894531 C 13.34375 2.761719 13.230469 2.667969 13.097656 2.667969 Z M 2.933594 2.667969 "/>
<path fill-rule="nonzero" fill="rgb(100%, 100%, 100%)" fill-opacity="1" d="M 29.148438 2.667969 C 29.296875 2.667969 29.417969 2.785156 29.417969 2.933594 L 29.417969 28.800781 C 29.417969 29.09375 29.179688 29.332031 28.882812 29.332031 L 25.703125 29.332031 C 25.523438 29.332031 25.359375 29.246094 25.277344 29.089844 C 24.761719 28.109375 23.132812 24.191406 25.417969 17.332031 C 18.109375 13.679688 18.589844 4.46875 18.726562 2.894531 C 18.738281 2.761719 18.851562 2.667969 18.984375 2.667969 Z M 29.148438 2.667969 "/>

</g>%n%n</svg>