<svg width="300" height="40" viewBox="0 0 300 40" fill="none" xmlns="http://www.w3.org/2000/svg" xmlns:xlink="http://www.w3.org/1999/xlink">

<g transform="translate(130.000000, 0.000000) scale(2.000000 2.000000) "> 

<path opacity="0.956" d="M9.9994 1C14.9626 1 19 5.00182 19 10C19 14.9655 14.9626 19 9.9994 19C5.03739 19 1 14.9655 1 10C1 5.00182 5.03739 1 9.9994 1Z" fill="#CF87E1"/>
<path opacity="0.95" fill-rule="evenodd" clip-rule="evenodd" d="M10 19C14.9706 19 19 14.9706 19 10C19 5.02944 14.9706 1 10 1C5.02944 1 1 5.02944 1 10C1 14.9706 5.02944 19 10 19ZM10 20C15.5228 20 20 15.5228 20 10C20 4.47715 15.5228 0 10 0C4.47715 0 0 4.47715 0 10C0 15.5228 4.47715 20 10 20Z" fill="#BA37DD"/>

</g>%n%n
<g transform="translate(138.000000, 8.000000) scale(2.000000 2.000000) "> 

<defs>
<filter id="filter-remove-color" x="0%" y="0%" width="100%" height="100%">
<feColorMatrix color-interpolation-filters="sRGB" values="0 0 0 0 1 0 0 0 0 1 0 0 0 0 1 0 0 0 1 0" />
</filter>
<mask id="mask-0">
<g filter="url(#filter-remove-color)">
<rect x="-1.2" y="-1.2" width="14.4" height="14.4" fill="rgb(0%, 0%, 0%)" fill-opacity="0.5"/>
</g>
</mask>
<clip100Path id="clip100-0">
<rect x="0" y="0" width="12" height="12"/>
</clip100Path>
<g id="source-7" clip100-path="url(#clip100-0)">
<path fill-rule="nonzero" fill="rgb(100%, 100%, 100%)" fill-opacity="1" d="M 2 2 L 10 2 L 10 3 L 2 3 Z M 2 2 "/>
</g>
</defs>
<path fill-rule="evenodd" fill="rgb(100%, 100%, 100%)" fill-opacity="1" d="M 3 1 C 2.449219 1 2 1.449219 2 2 L 2 3 L 1.207031 3.792969 C 1.074219 3.925781 1 4.105469 1 4.292969 C 1 4.683594 1.316406 5 1.707031 5 L 1.738281 5 C 1.828125 5 1.914062 4.988281 2 4.96875 L 2 9 C 2 10.105469 2.894531 11 4 11 L 8 11 C 9.105469 11 10 10.105469 10 9 L 10 4.96875 C 10.085938 4.988281 10.171875 5 10.261719 5 L 10.292969 5 C 10.683594 5 11 4.683594 11 4.292969 C 11 4.105469 10.925781 3.925781 10.792969 3.792969 L 10 3 L 2 3 L 2 2 L 10 2 C 10 1.449219 9.550781 1 9 1 Z M 3 4.5 L 3.105469 4.445312 C 3.667969 4.164062 4.332031 4.164062 4.894531 4.445312 L 5.105469 4.554688 C 5.667969 4.835938 6.332031 4.835938 6.894531 4.554688 L 7.105469 4.445312 C 7.667969 4.164062 8.332031 4.164062 8.894531 4.445312 L 9 4.5 L 9 6.25 L 8.25 5 L 6.75 5 L 6 6.25 L 6.75 7.5 L 8.25 7.5 L 9 6.25 L 9 9 C 9 9.550781 8.550781 10 8 10 L 4 10 C 3.449219 10 3 9.550781 3 9 L 3 7.742188 L 3.75 8.992188 L 5.25 8.992188 L 6 7.742188 L 5.25 6.492188 L 3.75 6.492188 L 3 7.742188 Z M 3 4.5 "/>
<g mask="url(#mask-0)">
<use xlink:href="#source-7"/>
</g>

</g>%n%n</svg>