<svg width="300" height="40" viewBox="0 0 300 40" fill="none" xmlns="http://www.w3.org/2000/svg" xmlns:xlink="http://www.w3.org/1999/xlink">

<g transform="translate(130.000000, 0.000000) scale(2.000000 2.000000) "> 

<path opacity="0.956" d="M9.9994 1C14.9626 1 19 5.00182 19 10C19 14.9655 14.9626 19 9.9994 19C5.03739 19 1 14.9655 1 10C1 5.00182 5.03739 1 9.9994 1Z" fill="#CF87E1"/>
<path opacity="0.95" fill-rule="evenodd" clip-rule="evenodd" d="M10 19C14.9706 19 19 14.9706 19 10C19 5.02944 14.9706 1 10 1C5.02944 1 1 5.02944 1 10C1 14.9706 5.02944 19 10 19ZM10 20C15.5228 20 20 15.5228 20 10C20 4.47715 15.5228 0 10 0C4.47715 0 0 4.47715 0 10C0 15.5228 4.47715 20 10 20Z" fill="#BA37DD"/>

</g>%n%n
<g transform="translate(138.000000, 8.000000) scale(0.750000 0.750000) "> 

<path fill-rule="nonzero" fill="rgb(100%, 100%, 100%)" fill-opacity="1" d="M 13.757812 8.855469 C 13.273438 9.324219 12.695312 9.683594 12.058594 9.90625 C 11.46875 10.109375 10.84375 10.195312 10.21875 10.152344 L 10.15625 10.773438 L 18.269531 13.476562 Z M 9.863281 13.585938 L 9.523438 16.855469 L 26.878906 22.632812 L 27.125 22.546875 L 22.476562 17.785156 Z M 9.234375 19.664062 L 8.886719 23 L 17.566406 25.890625 L 22.621094 24.121094 Z M 8.597656 25.808594 L 8.25 29.148438 L 13.308594 27.378906 Z M 8.597656 25.808594 "/>
<path fill-rule="nonzero" fill="rgb(100%, 100%, 100%)" fill-opacity="1" d="M 11.484375 8.007812 C 12.867188 7.527344 13.601562 6.015625 13.117188 4.632812 C 12.636719 3.25 11.128906 2.519531 9.746094 3 C 8.363281 3.480469 7.628906 4.988281 8.109375 6.371094 C 8.59375 7.753906 10.101562 8.488281 11.484375 8.007812 Z M 11.484375 8.007812 "/>

</g>%n%n</svg>