<svg width="300" height="40" viewBox="0 0 300 40" fill="none" xmlns="http://www.w3.org/2000/svg" xmlns:xlink="http://www.w3.org/1999/xlink">

<g transform="translate(130.000000, 0.000000) scale(2.000000 2.000000) "> 

<path opacity="0.956" d="M9.9994 1C14.9626 1 19 5.00182 19 10C19 14.9655 14.9626 19 9.9994 19C5.03739 19 1 14.9655 1 10C1 5.00182 5.03739 1 9.9994 1Z" fill="#CF87E1"/>
<path opacity="0.95" fill-rule="evenodd" clip-rule="evenodd" d="M10 19C14.9706 19 19 14.9706 19 10C19 5.02944 14.9706 1 10 1C5.02944 1 1 5.02944 1 10C1 14.9706 5.02944 19 10 19ZM10 20C15.5228 20 20 15.5228 20 10C20 4.47715 15.5228 0 10 0C4.47715 0 0 4.47715 0 10C0 15.5228 4.47715 20 10 20Z" fill="#BA37DD"/>

</g>%n%n
<g transform="translate(138.000000, 8.000000) scale(0.750000 0.750000) "> 

<path fill-rule="evenodd" fill="rgb(100%, 100%, 100%)" fill-opacity="1" d="M 16 2.667969 C 13.054688 2.667969 10.667969 5.054688 10.667969 8 L 2.667969 8 L 2.667969 16 C 2.667969 17.472656 3.859375 18.667969 5.332031 18.667969 L 26.667969 18.667969 C 28.140625 18.667969 29.332031 17.472656 29.332031 16 L 29.332031 8 L 21.332031 8 C 21.332031 5.054688 18.945312 2.667969 16 2.667969 Z M 16 5.332031 C 14.527344 5.332031 13.332031 6.527344 13.332031 8 L 18.667969 8 C 18.667969 6.527344 17.472656 5.332031 16 5.332031 Z M 16 16 C 16.738281 16 17.332031 15.402344 17.332031 14.667969 C 17.332031 13.929688 16.738281 13.332031 16 13.332031 C 15.261719 13.332031 14.667969 13.929688 14.667969 14.667969 C 14.667969 15.402344 15.261719 16 16 16 Z M 16 16 "/>
<path fill-rule="nonzero" fill="rgb(100%, 100%, 100%)" fill-opacity="1" d="M 2.667969 26.667969 L 2.667969 18.667969 C 2.667969 20.140625 3.859375 21.332031 5.332031 21.332031 L 26.667969 21.332031 C 28.140625 21.332031 29.332031 20.140625 29.332031 18.667969 L 29.332031 26.667969 C 29.332031 28.140625 28.140625 29.332031 26.667969 29.332031 L 5.332031 29.332031 C 3.859375 29.332031 2.667969 28.140625 2.667969 26.667969 Z M 2.667969 26.667969 "/>

</g>%n%n</svg>