<svg width="300" height="40" viewBox="0 0 300 40" fill="none" xmlns="http://www.w3.org/2000/svg" xmlns:xlink="http://www.w3.org/1999/xlink" version="1.1">

<g transform="translate(130.000000, 0.000000) scale(2.000000 2.000000) "> 

<path opacity="0.956" d="M9.9994 1C14.9626 1 19 5.00182 19 10C19 14.9655 14.9626 19 9.9994 19C5.03739 19 1 14.9655 1 10C1 5.00182 5.03739 1 9.9994 1Z" fill="#CF87E1"/>
<path opacity="0.95" fill-rule="evenodd" clip-rule="evenodd" d="M10 19C14.9706 19 19 14.9706 19 10C19 5.02944 14.9706 1 10 1C5.02944 1 1 5.02944 1 10C1 14.9706 5.02944 19 10 19ZM10 20C15.5228 20 20 15.5228 20 10C20 4.47715 15.5228 0 10 0C4.47715 0 0 4.47715 0 10C0 15.5228 4.47715 20 10 20Z" fill="#BA37DD"/>

</g>%n%n
<g transform="translate(138.000000, 8.000000) scale(2.000000 2.000000) "> 

<g id="surface1">
<path style=" stroke:none;fill-rule:nonzero;fill:rgb(100%,100%,100%);fill-opacity:1;" d="M 3.507812 9.9375 C 3.664062 9.980469 3.832031 10 4 10 L 7 10 C 8.105469 10 9 9.105469 9 8 L 9 3.820312 L 10.300781 4.226562 C 10.820312 4.390625 11.117188 4.953125 10.957031 5.488281 L 9.21875 11.285156 C 9.0625 11.820312 8.507812 12.117188 7.984375 11.957031 L 4.199219 10.773438 C 3.816406 10.65625 3.558594 10.320312 3.507812 9.9375 Z M 3.507812 9.9375 "/>
<path style=" stroke:none;fill-rule:evenodd;fill:rgb(100%,100%,100%);fill-opacity:1;" d="M 7 1 C 7.550781 1 8 1.449219 8 2 L 8 8 C 8 8.550781 7.550781 9 7 9 L 3 9 C 2.449219 9 2 8.550781 2 8 L 2 2 C 2 1.449219 2.449219 1 3 1 Z M 5.9375 6 C 5.761719 6 5.589844 5.957031 5.4375 5.875 L 6 7 L 4 7 L 4.5625 5.875 C 4.410156 5.957031 4.238281 6 4.058594 6 L 4 6 C 3.449219 6 3 5.550781 3 5 C 3 4.683594 3.148438 4.390625 3.398438 4.199219 L 5 3 L 6.601562 4.199219 C 6.851562 4.390625 7 4.683594 7 5 C 7 5.550781 6.550781 6 6 6 Z M 5.9375 6 "/>
</g>

</g>%n%n</svg>