<svg width="300" height="35" viewBox="0 0 300 35" fill="none" xmlns="http://www.w3.org/2000/svg">

<g transform="translate(135.000000, 2.000000) scale(1.500000 1.500000) "> 

<path opacity="0.95" fill-rule="evenodd" clip-rule="evenodd" d="M10 19C14.9706 19 19 14.9706 19 10C19 5.02944 14.9706 1 10 1C5.02944 1 1 5.02944 1 10C1 14.9706 5.02944 19 10 19ZM10 20C15.5228 20 20 15.5228 20 10C20 4.47715 15.5228 0 10 0C4.47715 0 0 4.47715 0 10C0 15.5228 4.47715 20 10 20Z" fill="#B348CE"/>
<path opacity="0.956" d="M9.9994 1C14.9626 1 19 5.00182 19 10C19 14.9655 14.9626 19 9.9994 19C5.03739 19 1 14.9655 1 10C1 5.00182 5.03739 1 9.9994 1Z" fill="#7D2793"/>

</g>


<g transform="translate(141.000000, 8.000000) scale(0.375000 0.375000) "> 

<path fill-rule="evenodd" clip100-rule="evenodd" d="M24 4C19.5817 4 16 7.58172 16 12H4V24C4 26.2091 5.79086 28 8 28H40C42.2091 28 44 26.2091 44 24V12H32C32 7.58172 28.4183 4 24 4ZM24 8C21.7909 8 20 9.79086 20 12H28C28 9.79086 26.2091 8 24 8ZM24 24C25.1046 24 26 23.1046 26 22C26 20.8954 25.1046 20 24 20C22.8954 20 22 20.8954 22 22C22 23.1046 22.8954 24 24 24Z" fill="#ffffff"/>
<path d="M4 40V28C4 30.2091 5.79086 32 8 32H40C42.2091 32 44 30.2091 44 28V40C44 42.2091 42.2091 44 40 44H8C5.79086 44 4 42.2091 4 40Z" fill="#ffffff"/>

</g>

</svg>