<svg width="300" height="40" viewBox="0 0 300 40" fill="none" xmlns="http://www.w3.org/2000/svg" xmlns:xlink="http://www.w3.org/1999/xlink">

<g transform="translate(130.000000, 0.000000) scale(2.000000 2.000000) "> 

<path opacity="0.956" d="M9.9994 1C14.9626 1 19 5.00182 19 10C19 14.9655 14.9626 19 9.9994 19C5.03739 19 1 14.9655 1 10C1 5.00182 5.03739 1 9.9994 1Z" fill="#CF87E1"/>
<path opacity="0.95" fill-rule="evenodd" clip-rule="evenodd" d="M10 19C14.9706 19 19 14.9706 19 10C19 5.02944 14.9706 1 10 1C5.02944 1 1 5.02944 1 10C1 14.9706 5.02944 19 10 19ZM10 20C15.5228 20 20 15.5228 20 10C20 4.47715 15.5228 0 10 0C4.47715 0 0 4.47715 0 10C0 15.5228 4.47715 20 10 20Z" fill="#BA37DD"/>

</g>%n%n
<g transform="translate(138.000000, 8.000000) scale(2.000000 2.000000) "> 

<path fill="none" stroke-width="2" stroke-linecap="butt" stroke-linejoin="miter" stroke="rgb(100%, 100%, 100%)" stroke-opacity="1" stroke-miterlimit="4" d="M 19 21 L 29 21 L 29 27 L 19 27 Z M 19 21 " transform="matrix(0.25, 0, 0, 0.25, 0, 0)"/>
<path fill="none" stroke-width="2" stroke-linecap="butt" stroke-linejoin="miter" stroke="rgb(100%, 100%, 100%)" stroke-opacity="1" stroke-miterlimit="4" d="M 15 20.40625 C 15 20.40625 13.296875 15 8.15625 15 C 3.015625 15 2.96875 20 3 24 C 3.03125 28 3 33 8.140625 33 C 13.28125 33 15 27.59375 15 27.59375 Z M 15 20.40625 " transform="matrix(0.25, 0, 0, 0.25, 0, 0)"/>
<path fill="none" stroke-width="2" stroke-linecap="butt" stroke-linejoin="miter" stroke="rgb(100%, 100%, 100%)" stroke-opacity="1" stroke-miterlimit="4" d="M 2.984375 20.03125 C 6.015625 17.546875 10.875 17.15625 15 20.03125 " transform="matrix(0.25, 0, 0, 0.25, 0, 0)"/>
<path fill="none" stroke-width="2" stroke-linecap="butt" stroke-linejoin="miter" stroke="rgb(100%, 100%, 100%)" stroke-opacity="1" stroke-miterlimit="4" d="M 2.984375 27.875 C 6.015625 30.34375 10.875 30.734375 15 27.875 " transform="matrix(0.25, 0, 0, 0.25, 0, 0)"/>
<path fill="none" stroke-width="2" stroke-linecap="butt" stroke-linejoin="miter" stroke="rgb(100%, 100%, 100%)" stroke-opacity="1" stroke-miterlimit="4" d="M 2.984375 23.15625 C 6.015625 20.6875 10.875 20.28125 15 23.15625 " transform="matrix(0.25, 0, 0, 0.25, 0, 0)"/>
<path fill="none" stroke-width="2" stroke-linecap="butt" stroke-linejoin="miter" stroke="rgb(100%, 100%, 100%)" stroke-opacity="1" stroke-miterlimit="4" d="M 2.984375 24.65625 C 6.015625 27.125 10.875 27.515625 15 24.65625 " transform="matrix(0.25, 0, 0, 0.25, 0, 0)"/>
<path fill="none" stroke-width="2" stroke-linecap="butt" stroke-linejoin="miter" stroke="rgb(100%, 100%, 100%)" stroke-opacity="1" stroke-miterlimit="4" d="M 33 20.40625 C 33 20.40625 34.703125 15 39.84375 15 C 44.984375 15 45.03125 20 44.984375 24 C 44.953125 28 44.984375 33 39.84375 33 C 34.703125 33 33 27.59375 33 27.59375 Z M 33 20.40625 " transform="matrix(0.25, 0, 0, 0.25, 0, 0)"/>
<path fill="none" stroke-width="2" stroke-linecap="butt" stroke-linejoin="miter" stroke="rgb(100%, 100%, 100%)" stroke-opacity="1" stroke-miterlimit="4" d="M 45.015625 20.03125 C 41.984375 17.546875 37.125 17.15625 33 20.03125 " transform="matrix(0.25, 0, 0, 0.25, 0, 0)"/>
<path fill="none" stroke-width="2" stroke-linecap="butt" stroke-linejoin="miter" stroke="rgb(100%, 100%, 100%)" stroke-opacity="1" stroke-miterlimit="4" d="M 45.015625 27.875 C 41.984375 30.34375 37.125 30.734375 33 27.875 " transform="matrix(0.25, 0, 0, 0.25, 0, 0)"/>
<path fill="none" stroke-width="2" stroke-linecap="butt" stroke-linejoin="miter" stroke="rgb(100%, 100%, 100%)" stroke-opacity="1" stroke-miterlimit="4" d="M 45.015625 23.15625 C 41.984375 20.6875 37.125 20.28125 33 23.15625 " transform="matrix(0.25, 0, 0, 0.25, 0, 0)"/>
<path fill="none" stroke-width="2" stroke-linecap="butt" stroke-linejoin="miter" stroke="rgb(100%, 100%, 100%)" stroke-opacity="1" stroke-miterlimit="4" d="M 45.015625 24.65625 C 41.984375 27.125 37.125 27.515625 33 24.65625 " transform="matrix(0.25, 0, 0, 0.25, 0, 0)"/>

</g>%n%n</svg>