<svg width="300" height="35" viewBox="0 0 300 35" fill="none" xmlns="http://www.w3.org/2000/svg" >

<g transform="translate(135.000000, 2.000000) scale(1.500000 1.500000) "> 

<path opacity="0.95" fill-rule="evenodd" clip-rule="evenodd" d="M10 19C14.9706 19 19 14.9706 19 10C19 5.02944 14.9706 1 10 1C5.02944 1 1 5.02944 1 10C1 14.9706 5.02944 19 10 19ZM10 20C15.5228 20 20 15.5228 20 10C20 4.47715 15.5228 0 10 0C4.47715 0 0 4.47715 0 10C0 15.5228 4.47715 20 10 20Z" fill="#B348CE"/>
<path opacity="0.956" d="M9.9994 1C14.9626 1 19 5.00182 19 10C19 14.9655 14.9626 19 9.9994 19C5.03739 19 1 14.9655 1 10C1 5.00182 5.03739 1 9.9994 1Z" fill="#7D2793"/>

</g>


<g transform="translate(141.000000, 8.000000) scale(0.375000 0.375000) "> 

<rect opacity="0.2" x="8" width="32" height="48" fill="#ffffff"/>
<path d="M16 8H22V20H16V8Z" fill="#ffffff"/>
<path d="M32 8H26V20H32V8Z" fill="#ffffff"/>
<path d="M16 28H32V40H16V28Z" fill="#ffffff"/>
<path fill-rule="evenodd" clip100-rule="evenodd" d="M8 0V48H40V0H8ZM36 4H12V44H36V26H34C32.8954 26 32 25.1046 32 24C32 22.8954 32.8954 22 34 22H36V4Z" fill="#ffffff"/>

</g>

</svg>