<svg width="300" height="40" viewBox="0 0 300 40" fill="none" xmlns="http://www.w3.org/2000/svg" xmlns:xlink="http://www.w3.org/1999/xlink">

<g transform="translate(130.000000, 0.000000) scale(2.000000 2.000000) "> 

<path opacity="0.956" d="M9.9994 1C14.9626 1 19 5.00182 19 10C19 14.9655 14.9626 19 9.9994 19C5.03739 19 1 14.9655 1 10C1 5.00182 5.03739 1 9.9994 1Z" fill="#CF87E1"/>
<path opacity="0.95" fill-rule="evenodd" clip-rule="evenodd" d="M10 19C14.9706 19 19 14.9706 19 10C19 5.02944 14.9706 1 10 1C5.02944 1 1 5.02944 1 10C1 14.9706 5.02944 19 10 19ZM10 20C15.5228 20 20 15.5228 20 10C20 4.47715 15.5228 0 10 0C4.47715 0 0 4.47715 0 10C0 15.5228 4.47715 20 10 20Z" fill="#BA37DD"/>

</g>%n%n
<g transform="translate(138.000000, 8.000000) scale(2.000000 2.000000) "> 

<path fill-rule="nonzero" fill="rgb(100%, 100%, 100%)" fill-opacity="1" d="M 6.023438 0.605469 C 6.023438 1.285156 5.425781 1.644531 5.425781 2.203125 C 5.425781 2.644531 5.785156 3.003906 6.226562 3.003906 C 5.984375 3.003906 5.824219 2.804688 5.824219 2.601562 C 5.824219 2.125 6.226562 2.285156 6.226562 1.804688 C 6.226562 1.804688 6.625 1.964844 6.625 2.367188 C 6.625 2.644531 6.503906 2.925781 6.3125 2.992188 C 6.710938 2.945312 7.023438 2.613281 7.023438 2.203125 C 7.023438 1.203125 6.023438 0.605469 6.023438 0.605469 Z M 6.824219 3.402344 C 6.664062 3.402344 6.109375 3.566406 5.589844 3.726562 C 5.027344 3.886719 4.625 4.40625 4.625 4.964844 L 4.625 5 C 4.625 5.242188 4.785156 5.402344 5.027344 5.402344 L 5.027344 8.597656 L 7.023438 8.597656 L 7.023438 4.964844 C 7.023438 4.566406 7.425781 4.363281 7.425781 4.003906 C 7.425781 3.683594 7.144531 3.402344 6.824219 3.402344 Z M 4.625 9.167969 C 4.625 9.605469 4.886719 9.925781 5.113281 10.128906 C 4.746094 10.320312 4.226562 10.675781 4.226562 11.164062 L 7.824219 11.164062 C 7.824219 10.648438 7.304688 10.3125 6.9375 10.128906 C 7.164062 9.925781 7.425781 9.605469 7.425781 9.167969 Z M 4.625 9.167969 "/>

</g>%n%n</svg>