<svg width="300" height="40" viewBox="0 0 300 40" fill="none" xmlns="http://www.w3.org/2000/svg" xmlns:xlink="http://www.w3.org/1999/xlink" version="1.1">

<g transform="translate(130.000000, 0.000000) scale(2.000000 2.000000) "> 

<path opacity="0.956" d="M9.9994 1C14.9626 1 19 5.00182 19 10C19 14.9655 14.9626 19 9.9994 19C5.03739 19 1 14.9655 1 10C1 5.00182 5.03739 1 9.9994 1Z" fill="#CF87E1"/>
<path opacity="0.95" fill-rule="evenodd" clip-rule="evenodd" d="M10 19C14.9706 19 19 14.9706 19 10C19 5.02944 14.9706 1 10 1C5.02944 1 1 5.02944 1 10C1 14.9706 5.02944 19 10 19ZM10 20C15.5228 20 20 15.5228 20 10C20 4.47715 15.5228 0 10 0C4.47715 0 0 4.47715 0 10C0 15.5228 4.47715 20 10 20Z" fill="#BA37DD"/>

</g>%n%n
<g transform="translate(138.000000, 8.000000) scale(2.000000 2.000000) "> 

<defs>
<filter id="alpha" filterUnits="objectBoundingBox" x="0%" y="0%" width="100%" height="100%">
  <feColorMatrix type="matrix" in="SourceGraphic" values="0 0 0 0 1 0 0 0 0 1 0 0 0 0 1 0 0 0 1 0"/>
</filter>
<mask id="mask0">
  <g filter="url(#alpha)">
<rect x="0" y="0" width="12" height="12" style="fill:rgb(0%,0%,0%);fill-opacity:0.5;stroke:none;"/>
  </g>
</mask>
<clip100Path id="clip1001">
  <rect x="0" y="0" width="12" height="12"/>
</clip100Path>
<g id="surface5" clip100-path="url(#clip1001)">
<path style=" stroke:none;fill-rule:evenodd;fill:rgb(100%,100%,100%);fill-opacity:1;" d="M 5.5 2 L 2 2 L 2 1 L 9.5 1 L 9.5 2 L 6.5 2 L 6.5 5.5 L 10 5.5 L 10 6.5 L 6.5 6.5 L 6.5 10 L 10 10 L 10 11 L 2 11 L 2 10 L 5.5 10 L 5.5 6.5 L 2 6.5 L 2 5.5 L 5.5 5.5 Z M 5.5 2 "/>
</g>
</defs>
<g id="surface1">
<use xlink:href="#surface5" mask="url(#mask0)"/>
<path style=" stroke:none;fill-rule:nonzero;fill:rgb(100%,100%,100%);fill-opacity:1;" d="M 1.101562 1 C 1.042969 1 1 1.042969 1 1.101562 L 1 10.800781 C 1 10.910156 1.089844 11 1.199219 11 L 2.394531 11 C 2.460938 11 2.523438 10.96875 2.550781 10.90625 C 2.746094 10.539062 3.355469 9.070312 2.5 6.5 C 5.238281 5.128906 5.058594 1.675781 5.007812 1.085938 C 5.003906 1.035156 4.960938 1 4.910156 1 Z M 1.101562 1 "/>
<path style=" stroke:none;fill-rule:nonzero;fill:rgb(100%,100%,100%);fill-opacity:1;" d="M 10.929688 1 C 10.988281 1 11.03125 1.042969 11.03125 1.101562 L 11.03125 10.800781 C 11.03125 10.910156 10.941406 11 10.832031 11 L 9.636719 11 C 9.570312 11 9.507812 10.96875 9.480469 10.90625 C 9.285156 10.539062 8.675781 9.070312 9.53125 6.5 C 6.792969 5.128906 6.972656 1.675781 7.023438 1.085938 C 7.027344 1.035156 7.070312 1 7.121094 1 Z M 10.929688 1 "/>
</g>

</g>%n%n</svg>