<svg width="300" height="40" viewBox="0 0 300 40" fill="none" xmlns="http://www.w3.org/2000/svg" xmlns:xlink="http://www.w3.org/1999/xlink">

<g transform="translate(130.000000, 0.000000) scale(2.000000 2.000000) "> 

<path opacity="0.956" d="M9.9994 1C14.9626 1 19 5.00182 19 10C19 14.9655 14.9626 19 9.9994 19C5.03739 19 1 14.9655 1 10C1 5.00182 5.03739 1 9.9994 1Z" fill="#CF87E1"/>
<path opacity="0.95" fill-rule="evenodd" clip-rule="evenodd" d="M10 19C14.9706 19 19 14.9706 19 10C19 5.02944 14.9706 1 10 1C5.02944 1 1 5.02944 1 10C1 14.9706 5.02944 19 10 19ZM10 20C15.5228 20 20 15.5228 20 10C20 4.47715 15.5228 0 10 0C4.47715 0 0 4.47715 0 10C0 15.5228 4.47715 20 10 20Z" fill="#BA37DD"/>

</g>%n%n
<g transform="translate(138.000000, 8.000000) scale(2.000000 2.000000) "> 

<path fill-rule="nonzero" fill="rgb(100%, 100%, 100%)" fill-opacity="1" d="M 4.5 1 C 4.777344 1 5 1.222656 5 1.5 L 5 3 L 7 3 L 7 1.5 C 7 1.222656 7.222656 1 7.5 1 C 7.777344 1 8 1.222656 8 1.5 L 8 3 L 8.5 3 C 8.777344 3 9 3.222656 9 3.5 L 9 5.5 C 9 5.777344 8.777344 6 8.5 6 L 8 6 C 8 6.550781 7.550781 7 7 7 L 6.515625 7 C 6.519531 7.226562 6.515625 7.4375 6.507812 7.628906 C 6.480469 8.105469 6.394531 8.589844 6.082031 8.996094 C 5.765625 9.402344 5.277344 9.644531 4.632812 9.792969 C 3.992188 9.9375 3.136719 10 2 10 L 2 9 C 3.113281 9 3.882812 8.9375 4.414062 8.816406 C 4.941406 8.699219 5.171875 8.535156 5.292969 8.378906 C 5.417969 8.222656 5.488281 7.988281 5.507812 7.574219 C 5.519531 7.394531 5.519531 7.207031 5.515625 7 L 5 7 C 4.449219 7 4 6.550781 4 6 L 3.5 6 C 3.222656 6 3 5.777344 3 5.5 L 3 3.5 C 3 3.222656 3.222656 3 3.5 3 L 4 3 L 4 1.5 C 4 1.222656 4.222656 1 4.5 1 Z M 4.5 1 "/>

</g>%n%n</svg>