<svg width="300" height="40" viewBox="0 0 300 40" fill="none" xmlns="http://www.w3.org/2000/svg" xmlns:xlink="http://www.w3.org/1999/xlink">

<g transform="translate(130.000000, 0.000000) scale(2.000000 2.000000) "> 

<path opacity="0.956" d="M9.9994 1C14.9626 1 19 5.00182 19 10C19 14.9655 14.9626 19 9.9994 19C5.03739 19 1 14.9655 1 10C1 5.00182 5.03739 1 9.9994 1Z" fill="#CF87E1"/>
<path opacity="0.95" fill-rule="evenodd" clip-rule="evenodd" d="M10 19C14.9706 19 19 14.9706 19 10C19 5.02944 14.9706 1 10 1C5.02944 1 1 5.02944 1 10C1 14.9706 5.02944 19 10 19ZM10 20C15.5228 20 20 15.5228 20 10C20 4.47715 15.5228 0 10 0C4.47715 0 0 4.47715 0 10C0 15.5228 4.47715 20 10 20Z" fill="#BA37DD"/>

</g>%n%n
<g transform="translate(138.000000, 8.000000) scale(0.750000 0.750000) "> 

<defs>
<filter id="filter-remove-color" x="0%" y="0%" width="100%" height="100%">
<feColorMatrix color-interpolation-filters="sRGB" values="0 0 0 0 1 0 0 0 0 1 0 0 0 0 1 0 0 0 1 0" />
</filter>
<mask id="mask-0">
<g filter="url(#filter-remove-color)">
<rect x="-3.2" y="-3.2" width="38.4" height="38.4" fill="rgb(0%, 0%, 0%)" fill-opacity="0.2"/>
</g>
</mask>
<clip100Path id="clip100-0">
<rect x="0" y="0" width="32" height="32"/>
</clip100Path>
<g id="source-6" clip100-path="url(#clip100-0)">
<path fill-rule="nonzero" fill="rgb(100%, 100%, 100%)" fill-opacity="1" d="M 10.667969 5.332031 L 21.332031 5.332031 L 21.332031 26.667969 L 10.667969 26.667969 Z M 10.667969 5.332031 "/>
</g>
</defs>
<g mask="url(#mask-0)">
<use xlink:href="#source-6"/>
</g>
<path fill-rule="nonzero" fill="rgb(100%, 100%, 100%)" fill-opacity="1" d="M 17.332031 24 C 17.332031 24.738281 16.738281 25.332031 16 25.332031 C 15.261719 25.332031 14.667969 24.738281 14.667969 24 C 14.667969 23.261719 15.261719 22.667969 16 22.667969 C 16.738281 22.667969 17.332031 23.261719 17.332031 24 Z M 17.332031 24 "/>
<path fill-rule="evenodd" fill="rgb(100%, 100%, 100%)" fill-opacity="1" d="M 8 5.332031 C 8 3.859375 9.195312 2.667969 10.667969 2.667969 L 21.332031 2.667969 C 22.804688 2.667969 24 3.859375 24 5.332031 L 24 26.667969 C 24 28.140625 22.804688 29.332031 21.332031 29.332031 L 10.667969 29.332031 C 9.195312 29.332031 8 28.140625 8 26.667969 Z M 18.667969 5.332031 L 21.332031 5.332031 L 21.332031 26.667969 L 10.667969 26.667969 L 10.667969 5.332031 L 13.332031 5.332031 C 13.332031 6.070312 13.929688 6.667969 14.667969 6.667969 L 17.332031 6.667969 C 18.070312 6.667969 18.667969 6.070312 18.667969 5.332031 Z M 18.667969 5.332031 "/>

</g>%n%n</svg>