<svg width="300" height="35" viewBox="0 0 300 35" fill="none" xmlns="http://www.w3.org/2000/svg">

<g transform="translate(135.000000, 2.000000) scale(1.500000 1.500000) "> 

<path opacity="0.95" fill-rule="evenodd" clip-rule="evenodd" d="M10 19C14.9706 19 19 14.9706 19 10C19 5.02944 14.9706 1 10 1C5.02944 1 1 5.02944 1 10C1 14.9706 5.02944 19 10 19ZM10 20C15.5228 20 20 15.5228 20 10C20 4.47715 15.5228 0 10 0C4.47715 0 0 4.47715 0 10C0 15.5228 4.47715 20 10 20Z" fill="#B348CE"/>
<path opacity="0.956" d="M9.9994 1C14.9626 1 19 5.00182 19 10C19 14.9655 14.9626 19 9.9994 19C5.03739 19 1 14.9655 1 10C1 5.00182 5.03739 1 9.9994 1Z" fill="#7D2793"/>

</g>


<g transform="translate(141.000000, 8.000000) scale(0.375000 0.375000) "> 

<path d="M19.9816 11.8548L20.0858 12C21.611 14.1041 25.7331 17.1913 29.3997 19.7074L37.029 24.285C37.534 24.588 37.8798 25.0983 37.9742 25.6796C38.0685 26.261 37.9018 26.8544 37.5185 27.3016L30.0627 36H34C35.1046 36 36 36.8954 36 38V42C36 43.1046 35.1046 44 34 44H14C12.8954 44 12 43.1046 12 42V38C12 36.8954 12.8954 36 14 36H24.7944L32.9402 26.4965L30.0532 24.7643C25.3776 25.4491 19.1459 26.566 16 28C15.7215 28.127 15.461 28.2462 15.2175 28.3581C13.7267 30.7485 12.1183 32.1455 10.7391 31.988C7.95758 31.6703 7.16352 25.1503 8.96449 17.425C10.6666 10.1236 14.0777 4.35863 16.7952 4.01611L16.7981 4L16.7995 4.01557C16.9558 3.99619 17.1098 3.99477 17.261 4.01205C19.1757 4.23065 20.1486 7.38824 19.9816 11.8548Z" fill="#ffffff"/>

</g>

</svg>