<svg width="300" height="35" viewBox="0 0 300 35" fill="none" xmlns="http://www.w3.org/2000/svg" >

<g transform="translate(135.000000, 2.000000) scale(1.500000 1.500000) "> 

<path opacity="0.956" d="M9.9994 1C14.9626 1 19 5.00182 19 10C19 14.9655 14.9626 19 9.9994 19C5.03739 19 1 14.9655 1 10C1 5.00182 5.03739 1 9.9994 1Z" fill="#CF87E1"/>
<path opacity="0.95" fill-rule="evenodd" clip-rule="evenodd" d="M10 19C14.9706 19 19 14.9706 19 10C19 5.02944 14.9706 1 10 1C5.02944 1 1 5.02944 1 10C1 14.9706 5.02944 19 10 19ZM10 20C15.5228 20 20 15.5228 20 10C20 4.47715 15.5228 0 10 0C4.47715 0 0 4.47715 0 10C0 15.5228 4.47715 20 10 20Z" fill="#BA37DD"/>

</g>


<g transform="translate(141.000000, 8.000000) scale(0.375000 0.375000) "> 

<path opacity="0.5" fill-rule="evenodd" clip100-rule="evenodd" d="M22 8H8V4H38V8H26V22H40V26H26V40H40V44H8V40H22V26H8V22H22V8Z" fill="#ffffff"/>
<path d="M4.4 4C4.17909 4 4 4.17909 4 4.4V43.2C4 43.6418 4.35817 44 4.8 44H9.57185C9.83934 44 10.086 43.8693 10.2101 43.6323C10.9799 42.1624 13.4283 36.285 10 26C20.959 20.5205 20.2416 6.70085 20.0347 4.34428C20.0171 4.14332 19.8486 4 19.6469 4H4.4Z" fill="#ffffff"/>
<path d="M43.725 4C43.9459 4 44.125 4.17909 44.125 4.4V43.2C44.125 43.6418 43.7668 44 43.325 44H38.5531C38.2857 44 38.039 43.8693 37.9149 43.6323C37.1451 42.1624 34.6967 36.285 38.125 26C27.166 20.5205 27.8834 6.70085 28.0903 4.34428C28.1079 4.14332 28.2764 4 28.4781 4H43.725Z" fill="#ffffff"/>

</g>

</svg>