<svg width="300" height="40" viewBox="0 0 300 40" fill="none" xmlns="http://www.w3.org/2000/svg" xmlns:xlink="http://www.w3.org/1999/xlink">

<g transform="translate(130.000000, 0.000000) scale(2.000000 2.000000) "> 

<path opacity="0.956" d="M9.9994 1C14.9626 1 19 5.00182 19 10C19 14.9655 14.9626 19 9.9994 19C5.03739 19 1 14.9655 1 10C1 5.00182 5.03739 1 9.9994 1Z" fill="#CF87E1"/>
<path opacity="0.95" fill-rule="evenodd" clip-rule="evenodd" d="M10 19C14.9706 19 19 14.9706 19 10C19 5.02944 14.9706 1 10 1C5.02944 1 1 5.02944 1 10C1 14.9706 5.02944 19 10 19ZM10 20C15.5228 20 20 15.5228 20 10C20 4.47715 15.5228 0 10 0C4.47715 0 0 4.47715 0 10C0 15.5228 4.47715 20 10 20Z" fill="#BA37DD"/>

</g>%n%n
<g transform="translate(138.000000, 8.000000) scale(2.000000 2.000000) "> 

<path fill-rule="nonzero" fill="rgb(100%, 100%, 100%)" fill-opacity="0.4" d="M 2 3 L 10 3 L 10 9 L 2 9 Z M 2 3 "/>
<path fill-rule="evenodd" fill="rgb(100%, 100%, 100%)" fill-opacity="1" d="M 7 2 L 10 2 C 10 1.449219 10.449219 1 11 1 C 11.550781 1 12 1.449219 12 2 C 12 2.550781 11.550781 3 11 3 L 11 5 C 11.550781 5 12 5.449219 12 6 C 12 6.550781 11.550781 7 11 7 L 11 9 C 11.550781 9 12 9.449219 12 10 C 12 10.550781 11.550781 11 11 11 C 10.449219 11 10 10.550781 10 10 L 7 10 C 7 10.550781 6.550781 11 6 11 C 5.449219 11 5 10.550781 5 10 L 2 10 C 2 10.550781 1.550781 11 1 11 C 0.449219 11 0 10.550781 0 10 C 0 9.449219 0.449219 9 1 9 L 1 7 C 0.449219 7 0 6.550781 0 6 C 0 5.449219 0.449219 5 1 5 L 1 3 C 0.449219 3 0 2.550781 0 2 C 0 1.449219 0.449219 1 1 1 C 1.550781 1 2 1.449219 2 2 L 5 2 C 5 1.449219 5.449219 1 6 1 C 6.550781 1 7 1.449219 7 2 Z M 2 3 L 10 3 L 10 9 L 2 9 Z M 2 3 "/>

</g>%n%n</svg>