<svg width="300" height="40" viewBox="0 0 300 40" fill="none" xmlns="http://www.w3.org/2000/svg" xmlns:xlink="http://www.w3.org/1999/xlink">

<g transform="translate(130.000000, 0.000000) scale(2.000000 2.000000) "> 

<path opacity="0.956" d="M9.9994 1C14.9626 1 19 5.00182 19 10C19 14.9655 14.9626 19 9.9994 19C5.03739 19 1 14.9655 1 10C1 5.00182 5.03739 1 9.9994 1Z" fill="#CF87E1"/>
<path opacity="0.95" fill-rule="evenodd" clip-rule="evenodd" d="M10 19C14.9706 19 19 14.9706 19 10C19 5.02944 14.9706 1 10 1C5.02944 1 1 5.02944 1 10C1 14.9706 5.02944 19 10 19ZM10 20C15.5228 20 20 15.5228 20 10C20 4.47715 15.5228 0 10 0C4.47715 0 0 4.47715 0 10C0 15.5228 4.47715 20 10 20Z" fill="#BA37DD"/>

</g>%n%n
<g transform="translate(138.000000, 8.000000) scale(2.000000 2.000000) "> 

<path fill-rule="evenodd" fill="rgb(100%, 100%, 100%)" fill-opacity="1" d="M 10 6 L 9.15625 3.472656 C 9.0625 3.191406 8.796875 3 8.5 3 L 3.5 3 C 3.203125 3 2.9375 3.191406 2.84375 3.472656 L 2 6 L 2 9.25 C 2 9.664062 2.335938 10 2.75 10 C 3.164062 10 3.5 9.664062 3.5 9.25 L 3.5 9 L 8.5 9 L 8.5 9.25 C 8.5 9.664062 8.835938 10 9.25 10 C 9.664062 10 10 9.664062 10 9.25 Z M 8.277344 4 L 8.945312 6 L 3.054688 6 L 3.722656 4 Z M 4 7.5 C 4 7.777344 3.777344 8 3.5 8 C 3.222656 8 3 7.777344 3 7.5 C 3 7.222656 3.222656 7 3.5 7 C 3.777344 7 4 7.222656 4 7.5 Z M 9 7.5 C 9 7.777344 8.777344 8 8.5 8 C 8.222656 8 8 7.777344 8 7.5 C 8 7.222656 8.222656 7 8.5 7 C 8.777344 7 9 7.222656 9 7.5 Z M 9 7.5 "/>

</g>%n%n</svg>