<svg width="300" height="40" viewBox="0 0 300 40" fill="none" xmlns="http://www.w3.org/2000/svg" xmlns:xlink="http://www.w3.org/1999/xlink" version="1.1">

<g transform="translate(130.000000, 0.000000) scale(2.000000 2.000000) "> 

<path opacity="0.956" d="M9.9994 1C14.9626 1 19 5.00182 19 10C19 14.9655 14.9626 19 9.9994 19C5.03739 19 1 14.9655 1 10C1 5.00182 5.03739 1 9.9994 1Z" fill="#CF87E1"/>
<path opacity="0.95" fill-rule="evenodd" clip-rule="evenodd" d="M10 19C14.9706 19 19 14.9706 19 10C19 5.02944 14.9706 1 10 1C5.02944 1 1 5.02944 1 10C1 14.9706 5.02944 19 10 19ZM10 20C15.5228 20 20 15.5228 20 10C20 4.47715 15.5228 0 10 0C4.47715 0 0 4.47715 0 10C0 15.5228 4.47715 20 10 20Z" fill="#BA37DD"/>

</g>%n%n
<g transform="translate(138.000000, 8.000000) scale(2.000000 2.000000) "> 

<g id="surface1">
<path style=" stroke:none;fill-rule:nonzero;fill:rgb(100%,100%,100%);fill-opacity:1;" d="M 4.824219 3.730469 C 5.015625 3.378906 5.402344 3 6.011719 3 C 6.621094 3 7.003906 3.375 7.1875 3.71875 C 7.242188 3.820312 7.28125 3.921875 7.3125 4.015625 C 7.128906 3.976562 6.9375 3.941406 6.742188 3.917969 C 6.613281 3.6875 6.417969 3.496094 6.011719 3.496094 C 5.621094 3.496094 5.417969 3.683594 5.28125 3.910156 C 5.085938 3.933594 4.890625 3.964844 4.703125 4.003906 C 4.734375 3.917969 4.773438 3.824219 4.824219 3.730469 Z M 4.824219 3.730469 "/>
<path style=" stroke:none;fill-rule:nonzero;fill:rgb(100%,100%,100%);fill-opacity:1;" d="M 5.859375 4.234375 C 5.464844 4.242188 5.070312 4.292969 4.695312 4.378906 C 3.941406 4.550781 3.285156 4.871094 2.808594 5.292969 C 2.335938 5.714844 2.066406 6.222656 2.039062 6.75 L 9.960938 6.75 C 9.945312 6.488281 9.871094 6.230469 9.742188 5.984375 C 9.464844 5.457031 8.9375 5.003906 8.238281 4.691406 C 7.539062 4.375 6.707031 4.214844 5.859375 4.234375 Z M 5.859375 4.234375 "/>
<path style=" stroke:none;fill-rule:nonzero;fill:rgb(100%,100%,100%);fill-opacity:1;" d="M 0.988281 7.511719 C 0.988281 7.234375 1.210938 7.011719 1.488281 7.011719 L 10.511719 7.011719 C 10.789062 7.011719 11.011719 7.234375 11.011719 7.511719 C 11.011719 7.789062 10.789062 8.011719 10.511719 8.011719 L 1.488281 8.011719 C 1.210938 8.011719 0.988281 7.789062 0.988281 7.511719 Z M 0.988281 7.511719 "/>
</g>

</g>%n%n</svg>