<svg width="300" height="40" viewBox="0 0 300 40" fill="none" xmlns="http://www.w3.org/2000/svg" xmlns:xlink="http://www.w3.org/1999/xlink" version="1.1">

<g transform="translate(130.000000, 0.000000) scale(2.000000 2.000000) "> 

<path opacity="0.956" d="M9.9994 1C14.9626 1 19 5.00182 19 10C19 14.9655 14.9626 19 9.9994 19C5.03739 19 1 14.9655 1 10C1 5.00182 5.03739 1 9.9994 1Z" fill="#CF87E1"/>
<path opacity="0.95" fill-rule="evenodd" clip-rule="evenodd" d="M10 19C14.9706 19 19 14.9706 19 10C19 5.02944 14.9706 1 10 1C5.02944 1 1 5.02944 1 10C1 14.9706 5.02944 19 10 19ZM10 20C15.5228 20 20 15.5228 20 10C20 4.47715 15.5228 0 10 0C4.47715 0 0 4.47715 0 10C0 15.5228 4.47715 20 10 20Z" fill="#BA37DD"/>

</g>%n%n
<g transform="translate(138.000000, 8.000000) scale(2.000000 2.000000) "> 

<g id="surface1">
<path style=" stroke:none;fill-rule:evenodd;fill:rgb(100%,100%,100%);fill-opacity:1;" d="M 3.605469 2 C 4.476562 2 5.289062 2.433594 5.773438 3.160156 L 6 3.5 L 6.226562 3.160156 C 6.710938 2.433594 7.523438 2 8.394531 2 C 9.832031 2 11 3.167969 11 4.605469 L 11 4.828125 C 11 5.578125 10.703125 6.296875 10.171875 6.828125 L 6 11 L 1.828125 6.828125 C 1.296875 6.296875 1 5.578125 1 4.828125 L 1 4.605469 C 1 3.167969 2.167969 2 3.605469 2 Z M 2.324219 4.324219 C 2.421875 4.226562 2.578125 4.226562 2.675781 4.324219 L 3 4.644531 L 3.324219 4.324219 C 3.421875 4.226562 3.578125 4.226562 3.675781 4.324219 C 3.773438 4.421875 3.773438 4.578125 3.675781 4.675781 L 3.355469 5 L 3.675781 5.324219 C 3.773438 5.421875 3.773438 5.578125 3.675781 5.675781 C 3.578125 5.773438 3.421875 5.773438 3.324219 5.675781 L 3 5.355469 L 2.675781 5.675781 C 2.578125 5.773438 2.421875 5.773438 2.324219 5.675781 C 2.226562 5.578125 2.226562 5.421875 2.324219 5.324219 L 2.644531 5 L 2.324219 4.675781 C 2.226562 4.578125 2.226562 4.421875 2.324219 4.324219 Z M 5.675781 4.324219 C 5.578125 4.226562 5.421875 4.226562 5.324219 4.324219 C 5.226562 4.421875 5.226562 4.578125 5.324219 4.675781 L 5.644531 5 L 5.324219 5.324219 C 5.226562 5.421875 5.226562 5.578125 5.324219 5.675781 C 5.421875 5.773438 5.578125 5.773438 5.675781 5.675781 L 6 5.355469 L 6.324219 5.675781 C 6.421875 5.773438 6.578125 5.773438 6.675781 5.675781 C 6.773438 5.578125 6.773438 5.421875 6.675781 5.324219 L 6.355469 5 L 6.675781 4.675781 C 6.773438 4.578125 6.773438 4.421875 6.675781 4.324219 C 6.578125 4.226562 6.421875 4.226562 6.324219 4.324219 L 6 4.644531 Z M 8.675781 4.324219 C 8.578125 4.226562 8.421875 4.226562 8.324219 4.324219 C 8.226562 4.421875 8.226562 4.578125 8.324219 4.675781 L 8.644531 5 L 8.324219 5.324219 C 8.226562 5.421875 8.226562 5.578125 8.324219 5.675781 C 8.421875 5.773438 8.578125 5.773438 8.675781 5.675781 L 9 5.355469 L 9.324219 5.675781 C 9.421875 5.773438 9.578125 5.773438 9.675781 5.675781 C 9.773438 5.578125 9.773438 5.421875 9.675781 5.324219 L 9.355469 5 L 9.675781 4.675781 C 9.773438 4.578125 9.773438 4.421875 9.675781 4.324219 C 9.578125 4.226562 9.421875 4.226562 9.324219 4.324219 L 9 4.644531 Z M 8.675781 4.324219 "/>
</g>

</g>%n%n</svg>