<svg width="300" height="40" viewBox="0 0 300 40" fill="none" xmlns="http://www.w3.org/2000/svg" xmlns:xlink="http://www.w3.org/1999/xlink">

<g transform="translate(130.000000, 0.000000) scale(2.000000 2.000000) "> 

<path opacity="0.956" d="M9.9994 1C14.9626 1 19 5.00182 19 10C19 14.9655 14.9626 19 9.9994 19C5.03739 19 1 14.9655 1 10C1 5.00182 5.03739 1 9.9994 1Z" fill="#CF87E1"/>
<path opacity="0.95" fill-rule="evenodd" clip-rule="evenodd" d="M10 19C14.9706 19 19 14.9706 19 10C19 5.02944 14.9706 1 10 1C5.02944 1 1 5.02944 1 10C1 14.9706 5.02944 19 10 19ZM10 20C15.5228 20 20 15.5228 20 10C20 4.47715 15.5228 0 10 0C4.47715 0 0 4.47715 0 10C0 15.5228 4.47715 20 10 20Z" fill="#BA37DD"/>

</g>%n%n
<g transform="translate(138.000000, 8.000000) scale(0.750000 0.750000) "> 

<path fill-rule="evenodd" fill="rgb(100%, 100%, 100%)" fill-opacity="1" d="M 10.300781 3.949219 C 10.515625 3.191406 11.210938 2.667969 12 2.667969 L 20 2.667969 C 20.789062 2.667969 21.484375 3.191406 21.699219 3.949219 L 24 12 L 24 12.667969 C 24 13.035156 23.703125 13.332031 23.332031 13.332031 L 8.667969 13.332031 C 8.296875 13.332031 8 13.035156 8 12.667969 L 8 12 Z M 13.332031 16 L 18.667969 16 L 19.605469 16.46875 C 20.664062 17 21.332031 18.082031 21.332031 19.261719 C 21.332031 19.746094 21.21875 20.226562 21.007812 20.660156 C 20.300781 22.132812 18.667969 25.625 18.667969 26.667969 L 20.667969 26.667969 C 21.035156 26.667969 21.332031 26.964844 21.332031 27.332031 L 21.332031 29.332031 L 10.667969 29.332031 L 10.667969 27.332031 C 10.667969 26.964844 10.964844 26.667969 11.332031 26.667969 L 13.332031 26.667969 C 13.332031 25.625 11.699219 22.132812 10.992188 20.660156 C 10.78125 20.226562 10.667969 19.746094 10.667969 19.261719 C 10.667969 18.082031 11.335938 17 12.394531 16.46875 Z M 13.332031 16 "/>

</g>%n%n</svg>