<svg width="300" height="40" viewBox="0 0 300 40" fill="none" xmlns="http://www.w3.org/2000/svg" xmlns:xlink="http://www.w3.org/1999/xlink" version="1.1">

<g transform="translate(130.000000, 0.000000) scale(2.000000 2.000000) "> 

<path opacity="0.956" d="M9.9994 1C14.9626 1 19 5.00182 19 10C19 14.9655 14.9626 19 9.9994 19C5.03739 19 1 14.9655 1 10C1 5.00182 5.03739 1 9.9994 1Z" fill="#CF87E1"/>
<path opacity="0.95" fill-rule="evenodd" clip-rule="evenodd" d="M10 19C14.9706 19 19 14.9706 19 10C19 5.02944 14.9706 1 10 1C5.02944 1 1 5.02944 1 10C1 14.9706 5.02944 19 10 19ZM10 20C15.5228 20 20 15.5228 20 10C20 4.47715 15.5228 0 10 0C4.47715 0 0 4.47715 0 10C0 15.5228 4.47715 20 10 20Z" fill="#BA37DD"/>

</g>%n%n
<g transform="translate(138.000000, 8.000000) scale(2.000000 2.000000) "> 

<g id="surface1">
<path style=" stroke:none;fill-rule:nonzero;fill:rgb(100%,100%,100%);fill-opacity:1;" d="M 3 5.5 C 3 5.222656 3.222656 5 3.5 5 L 3.5 4 L 2.5 4 C 2.222656 4 2 3.777344 2 3.5 L 2 2.5 C 2 2.222656 2.222656 2 2.5 2 L 3.5 2 L 3.5 1.5 L 4.5 1.5 L 4.5 2 L 5.5 2 C 5.777344 2 6 2.222656 6 2.5 L 6 3.5 C 6 3.777344 5.777344 4 5.5 4 L 4.5 4 L 4.5 5 C 4.777344 5 5 5.222656 5 5.5 L 5 9.5 C 5 9.777344 4.777344 10 4.5 10 L 3.5 10 C 3.222656 10 3 9.777344 3 9.5 Z M 3 5.5 "/>
<path style=" stroke:none;fill-rule:evenodd;fill:rgb(100%,100%,100%);fill-opacity:1;" d="M 10.015625 10 L 10.015625 8.8125 L 9.015625 7.808594 L 9.464844 2.898438 C 9.488281 2.644531 9.394531 2.394531 9.207031 2.207031 C 8.824219 1.824219 8.175781 1.824219 7.792969 2.207031 C 7.605469 2.394531 7.511719 2.644531 7.535156 2.898438 L 7.984375 7.808594 L 6.980469 8.8125 L 6.980469 10 L 8.019531 10 L 8.019531 9.1875 L 8.5 8.707031 L 8.980469 9.1875 L 8.980469 10 Z M 8.5 4 C 8.222656 4 8 3.777344 8 3.5 C 8 3.222656 8.222656 3 8.5 3 C 8.777344 3 9 3.222656 9 3.5 C 9 3.777344 8.777344 4 8.5 4 Z M 8.5 4 "/>
</g>

</g>%n%n</svg>