<svg width="300" height="40" viewBox="0 0 300 40" fill="none" xmlns="http://www.w3.org/2000/svg" xmlns:xlink="http://www.w3.org/1999/xlink" version="1.1">

<g transform="translate(130.000000, 0.000000) scale(2.000000 2.000000) "> 

<path opacity="0.956" d="M9.9994 1C14.9626 1 19 5.00182 19 10C19 14.9655 14.9626 19 9.9994 19C5.03739 19 1 14.9655 1 10C1 5.00182 5.03739 1 9.9994 1Z" fill="#CF87E1"/>
<path opacity="0.95" fill-rule="evenodd" clip-rule="evenodd" d="M10 19C14.9706 19 19 14.9706 19 10C19 5.02944 14.9706 1 10 1C5.02944 1 1 5.02944 1 10C1 14.9706 5.02944 19 10 19ZM10 20C15.5228 20 20 15.5228 20 10C20 4.47715 15.5228 0 10 0C4.47715 0 0 4.47715 0 10C0 15.5228 4.47715 20 10 20Z" fill="#BA37DD"/>

</g>%n%n
<g transform="translate(138.000000, 8.000000) scale(2.000000 2.000000) "> 

<g id="surface1">
<path style=" stroke:none;fill-rule:nonzero;fill:rgb(100%,100%,100%);fill-opacity:1;" d="M 1 10 L 10.5 10 L 10.5 11 L 1 11 Z M 1 10 "/>
<path style=" stroke:none;fill-rule:evenodd;fill:rgb(100%,100%,100%);fill-opacity:1;" d="M 1.492188 2.25 L 1.507812 10.5 L 2.007812 10.5 L 1.992188 2.75 L 9.492188 2.75 L 9.507812 10.5 L 10.007812 10.5 L 9.992188 2.25 Z M 1.492188 2.25 "/>
<path style=" stroke:none;fill-rule:nonzero;fill:rgb(100%,100%,100%);fill-opacity:1;" d="M 7 5.5 L 8.5 5.5 L 8.5 8 L 7 8 Z M 7 5.5 "/>
<path style=" stroke:none;fill-rule:nonzero;fill:rgb(100%,100%,100%);fill-opacity:1;" d="M 3 6.5 L 6 6.5 L 6 10.5 L 3 10.5 Z M 3 6.5 "/>
<path style=" stroke:none;fill-rule:nonzero;fill:rgb(100%,100%,100%);fill-opacity:1;" d="M 6 6.5 C 6 7.328125 5.328125 8 4.5 8 C 3.671875 8 3 7.328125 3 6.5 C 3 5.671875 3.671875 5 4.5 5 C 5.328125 5 6 5.671875 6 6.5 Z M 6 6.5 "/>
<path style=" stroke:none;fill-rule:nonzero;fill:rgb(100%,100%,100%);fill-opacity:1;" d="M 2 1.5 C 1.171875 1.5 0.730469 2.09375 0.5 3 C 0.5 3.660156 0.933594 4.246094 1.566406 4.433594 C 2.199219 4.625 2.882812 4.378906 3.25 3.828125 C 3.527344 4.246094 3.996094 4.5 4.5 4.5 C 5.003906 4.5 5.472656 4.246094 5.75 3.828125 C 6.027344 4.246094 6.496094 4.5 7 4.5 C 7.503906 4.5 7.972656 4.246094 8.25 3.828125 C 8.617188 4.378906 9.300781 4.625 9.933594 4.433594 C 10.566406 4.246094 11 3.660156 11 3 C 10.769531 2.113281 10.328125 1.5 9.5 1.5 C 8.996094 1.5 8.527344 1.753906 8.25 2.171875 C 7.972656 1.753906 7.503906 1.5 7 1.5 C 6.496094 1.5 6.027344 1.753906 5.75 2.171875 C 5.472656 1.753906 5.003906 1.5 4.5 1.5 C 3.996094 1.5 3.527344 1.753906 3.25 2.171875 C 2.972656 1.753906 2.503906 1.5 2 1.5 Z M 2 1.5 "/>
<path style=" stroke:none;fill-rule:evenodd;fill:rgb(100%,100%,100%);fill-opacity:1;" d="M 0.5 3 L 1 1 L 10.5 1 L 11 3 L 0.5 3 "/>
</g>

</g>%n%n</svg>