<svg width="40" height="40" viewBox="0 0 40 40" fill="none" xmlns="http://www.w3.org/2000/svg" >

<g transform="translate(0.000000, 0.000000) scale(2.000000 2.000000) "> 

<path opacity="0.956" d="M9.9994 1C14.9626 1 19 5.00182 19 10C19 14.9655 14.9626 19 9.9994 19C5.03739 19 1 14.9655 1 10C1 5.00182 5.03739 1 9.9994 1Z" fill="#CF87E1"/>
<path opacity="0.95" fill-rule="evenodd" clip-rule="evenodd" d="M10 19C14.9706 19 19 14.9706 19 10C19 5.02944 14.9706 1 10 1C5.02944 1 1 5.02944 1 10C1 14.9706 5.02944 19 10 19ZM10 20C15.5228 20 20 15.5228 20 10C20 4.47715 15.5228 0 10 0C4.47715 0 0 4.47715 0 10C0 15.5228 4.47715 20 10 20Z" fill="#BA37DD"/>

</g>


<g transform="translate(8.000000, 8.000000) scale(2.000000 2.000000) "> 

<path d="M156.783 448.675H517.243C517.243 448.675 477.036 505.096 441.692 513.952C423.519 518.507 401.499 499.541 382.786 499.143C364.918 498.762 342.67 517.784 324.804 517.334C304.33 516.819 279.154 496.105 260.176 496.369C237.069 496.689 223.965 511.818 207.078 513.043C188.05 514.423 162.505 511.612 162.505 511.612L156.783 448.675Z" fill="#ffffff"/>
<path d="M281.229 62.6582V430.824H62.7578L281.229 62.6582Z" fill="#ffffff"/>
<path d="M299.435 133.459C379.389 200.944 499.017 438.721 463.289 426.778C389.664 402.167 297.412 432.846 297.412 432.846C297.412 432.846 299.571 195.859 299.435 133.459Z" fill="#ffffff"/>

</g>

</svg>