<svg width="300" height="40" viewBox="0 0 300 40" fill="none" xmlns="http://www.w3.org/2000/svg" xmlns:xlink="http://www.w3.org/1999/xlink" version="1.1">

<g transform="translate(130.000000, 0.000000) scale(2.000000 2.000000) "> 

<path opacity="0.956" d="M9.9994 1C14.9626 1 19 5.00182 19 10C19 14.9655 14.9626 19 9.9994 19C5.03739 19 1 14.9655 1 10C1 5.00182 5.03739 1 9.9994 1Z" fill="#CF87E1"/>
<path opacity="0.95" fill-rule="evenodd" clip-rule="evenodd" d="M10 19C14.9706 19 19 14.9706 19 10C19 5.02944 14.9706 1 10 1C5.02944 1 1 5.02944 1 10C1 14.9706 5.02944 19 10 19ZM10 20C15.5228 20 20 15.5228 20 10C20 4.47715 15.5228 0 10 0C4.47715 0 0 4.47715 0 10C0 15.5228 4.47715 20 10 20Z" fill="#BA37DD"/>

</g>%n%n
<g transform="translate(138.000000, 8.000000) scale(2.000000 2.000000) "> 

<g id="surface1">
<path style="fill:none;stroke-width:27;stroke-linecap:butt;stroke-linejoin:miter;stroke:rgb(100%,100%,100%);stroke-opacity:1;stroke-miterlimit:4;" d="M 90.436198 142.356771 L 492.395833 142.356771 " transform="matrix(0.0206897,0,0,0.0206897,0,0)"/>
<path style="fill:none;stroke-width:27;stroke-linecap:butt;stroke-linejoin:miter;stroke:rgb(100%,100%,100%);stroke-opacity:1;stroke-miterlimit:4;" d="M 291.510417 364.010417 L 291.510417 57.584635 " transform="matrix(0.0206897,0,0,0.0206897,0,0)"/>
<path style="fill:none;stroke-width:27;stroke-linecap:butt;stroke-linejoin:miter;stroke:rgb(100%,100%,100%);stroke-opacity:1;stroke-miterlimit:4;" d="M 124.798177 220.709635 L 124.798177 134.615885 " transform="matrix(0.0206897,0,0,0.0206897,0,0)"/>
<path style="fill:none;stroke-width:27;stroke-linecap:butt;stroke-linejoin:miter;stroke:rgb(100%,100%,100%);stroke-opacity:1;stroke-miterlimit:4;" d="M 458.789062 219.765625 L 458.789062 133.671875 " transform="matrix(0.0206897,0,0,0.0206897,0,0)"/>
<path style=" stroke:none;fill-rule:nonzero;fill:rgb(100%,100%,100%);fill-opacity:1;" d="M 2.527344 7.878906 C 3.519531 7.878906 4.324219 7.074219 4.324219 6.082031 C 4.324219 5.089844 3.519531 4.285156 2.527344 4.285156 C 1.535156 4.285156 0.730469 5.089844 0.730469 6.082031 C 0.730469 7.074219 1.535156 7.878906 2.527344 7.878906 Z M 2.527344 7.878906 "/>
<path style=" stroke:none;fill-rule:nonzero;fill:rgb(100%,100%,100%);fill-opacity:1;" d="M 9.472656 7.824219 C 10.464844 7.824219 11.269531 7.019531 11.269531 6.03125 C 11.269531 5.039062 10.464844 4.234375 9.472656 4.234375 C 8.480469 4.234375 7.675781 5.039062 7.675781 6.03125 C 7.675781 7.019531 8.480469 7.824219 9.472656 7.824219 Z M 9.472656 7.824219 "/>
<path style=" stroke:none;fill-rule:nonzero;fill:rgb(100%,100%,100%);fill-opacity:1;" d="M 6.066406 10.808594 C 7.058594 10.808594 7.863281 10.003906 7.863281 9.011719 C 7.863281 8.019531 7.058594 7.214844 6.066406 7.214844 C 5.078125 7.214844 4.273438 8.019531 4.273438 9.011719 C 4.273438 10.003906 5.078125 10.808594 6.066406 10.808594 Z M 6.066406 10.808594 "/>
</g>

</g>%n%n</svg>