<svg width="300" height="40" viewBox="0 0 300 40" fill="none" xmlns="http://www.w3.org/2000/svg" xmlns:xlink="http://www.w3.org/1999/xlink" version="1.1">

<g transform="translate(130.000000, 0.000000) scale(2.000000 2.000000) "> 

<path opacity="0.956" d="M9.9994 1C14.9626 1 19 5.00182 19 10C19 14.9655 14.9626 19 9.9994 19C5.03739 19 1 14.9655 1 10C1 5.00182 5.03739 1 9.9994 1Z" fill="#CF87E1"/>
<path opacity="0.95" fill-rule="evenodd" clip-rule="evenodd" d="M10 19C14.9706 19 19 14.9706 19 10C19 5.02944 14.9706 1 10 1C5.02944 1 1 5.02944 1 10C1 14.9706 5.02944 19 10 19ZM10 20C15.5228 20 20 15.5228 20 10C20 4.47715 15.5228 0 10 0C4.47715 0 0 4.47715 0 10C0 15.5228 4.47715 20 10 20Z" fill="#BA37DD"/>

</g>%n%n
<g transform="translate(138.000000, 8.000000) scale(2.000000 2.000000) "> 

<g id="surface1">
<path style=" stroke:none;fill-rule:nonzero;fill:rgb(100%,100%,100%);fill-opacity:1;" d="M 11 1 L 9.707031 1 C 9.253906 1 8.820312 1.179688 8.5 1.5 C 8.179688 1.820312 8 2.253906 8 2.707031 L 8 4 L 9.292969 4 C 9.746094 4 10.179688 3.820312 10.5 3.5 C 10.820312 3.179688 11 2.746094 11 2.292969 Z M 11 1 "/>
<path style=" stroke:none;fill-rule:nonzero;fill:rgb(100%,100%,100%);fill-opacity:1;" d="M 1.355469 11.355469 L 2.707031 10 L 5 10 L 5 9 L 3 9 L 3 7 L 2 7 L 2 9.292969 L 0.648438 10.644531 Z M 1.355469 11.355469 "/>
<path style=" stroke:none;fill-rule:nonzero;fill:rgb(100%,100%,100%);fill-opacity:1;" d="M 3 4 C 4.105469 4 5 4.894531 5 6 L 5 7 L 4.5 7 C 3.671875 7 3 6.328125 3 5.5 Z M 3 4 "/>
<path style=" stroke:none;fill-rule:nonzero;fill:rgb(100%,100%,100%);fill-opacity:1;" d="M 5 7 L 6.5 7 C 7.328125 7 8 7.671875 8 8.5 L 8 9 L 6.5 9 C 5.671875 9 5 8.328125 5 7.5 Z M 5 7 "/>
<path style=" stroke:none;fill-rule:nonzero;fill:rgb(100%,100%,100%);fill-opacity:1;" d="M 7 4 C 7 2.894531 6.105469 2 5 2 L 5 3.5 C 5 4.328125 5.671875 5 6.5 5 L 7 5 L 7 5.5 C 7 6.328125 7.671875 7 8.5 7 L 10 7 L 10 6.5 C 10 5.671875 9.328125 5 8.5 5 L 7 5 Z M 7 4 "/>
</g>

</g>%n%n</svg>