<svg width="300" height="40" viewBox="0 0 300 40" fill="none" xmlns="http://www.w3.org/2000/svg" xmlns:xlink="http://www.w3.org/1999/xlink">

<g transform="translate(130.000000, 0.000000) scale(2.000000 2.000000) "> 

<path opacity="0.956" d="M9.9994 1C14.9626 1 19 5.00182 19 10C19 14.9655 14.9626 19 9.9994 19C5.03739 19 1 14.9655 1 10C1 5.00182 5.03739 1 9.9994 1Z" fill="#CF87E1"/>
<path opacity="0.95" fill-rule="evenodd" clip-rule="evenodd" d="M10 19C14.9706 19 19 14.9706 19 10C19 5.02944 14.9706 1 10 1C5.02944 1 1 5.02944 1 10C1 14.9706 5.02944 19 10 19ZM10 20C15.5228 20 20 15.5228 20 10C20 4.47715 15.5228 0 10 0C4.47715 0 0 4.47715 0 10C0 15.5228 4.47715 20 10 20Z" fill="#BA37DD"/>

</g>%n%n
<g transform="translate(138.000000, 8.000000) scale(0.750000 0.750000) "> 

<defs>
<filter id="filter-remove-color" x="0%" y="0%" width="100%" height="100%">
<feColorMatrix color-interpolation-filters="sRGB" values="0 0 0 0 1 0 0 0 0 1 0 0 0 0 1 0 0 0 1 0" />
</filter>
<mask id="mask-0">
<g filter="url(#filter-remove-color)">
<rect x="-3.2" y="-3.2" width="38.4" height="38.4" fill="rgb(0%, 0%, 0%)" fill-opacity="0.2"/>
</g>
</mask>
<clip100Path id="clip100-0">
<rect x="0" y="0" width="32" height="32"/>
</clip100Path>
<g id="source-6" clip100-path="url(#clip100-0)">
<path fill-rule="evenodd" fill="rgb(100%, 100%, 100%)" fill-opacity="1" d="M 29.332031 8 L 2.667969 8 L 2.667969 10.667969 L 29.332031 10.667969 Z M 29.332031 13.332031 L 2.667969 13.332031 L 2.667969 16 L 29.332031 16 Z M 2.667969 18.667969 L 29.332031 18.667969 L 29.332031 21.332031 L 2.667969 21.332031 Z M 29.332031 24 L 2.667969 24 L 2.667969 26.667969 L 29.332031 26.667969 Z M 29.332031 24 "/>
</g>
</defs>
<g mask="url(#mask-0)">
<use xlink:href="#source-6"/>
</g>
<path fill-rule="evenodd" fill="rgb(100%, 100%, 100%)" fill-opacity="1" d="M 26.667969 5.332031 L 10.667969 8 L 10.667969 21.5625 C 10.25 21.414062 9.800781 21.332031 9.332031 21.332031 C 7.125 21.332031 5.332031 23.125 5.332031 25.332031 C 5.332031 27.542969 7.125 29.332031 9.332031 29.332031 C 11.542969 29.332031 13.332031 27.542969 13.332031 25.332031 L 13.332031 10.222656 L 24 8.445312 L 24 18.894531 C 23.582031 18.746094 23.132812 18.667969 22.667969 18.667969 C 20.457031 18.667969 18.667969 20.457031 18.667969 22.667969 C 18.667969 24.875 20.457031 26.667969 22.667969 26.667969 C 24.875 26.667969 26.667969 24.875 26.667969 22.667969 Z M 26.667969 5.332031 "/>

</g>%n%n</svg>