<svg width="300" height="35" viewBox="0 0 300 35" fill="none" xmlns="http://www.w3.org/2000/svg" >

<g transform="translate(135.000000, 2.000000) scale(1.500000 1.500000) "> 

<path opacity="0.95" fill-rule="evenodd" clip-rule="evenodd" d="M10 19C14.9706 19 19 14.9706 19 10C19 5.02944 14.9706 1 10 1C5.02944 1 1 5.02944 1 10C1 14.9706 5.02944 19 10 19ZM10 20C15.5228 20 20 15.5228 20 10C20 4.47715 15.5228 0 10 0C4.47715 0 0 4.47715 0 10C0 15.5228 4.47715 20 10 20Z" fill="#B348CE"/>
<path opacity="0.956" d="M9.9994 1C14.9626 1 19 5.00182 19 10C19 14.9655 14.9626 19 9.9994 19C5.03739 19 1 14.9655 1 10C1 5.00182 5.03739 1 9.9994 1Z" fill="#7D2793"/>

</g>


<g transform="translate(141.000000, 8.000000) scale(0.031034 0.031034) "> 

<path d="M515.985 187.279H493.387C483.115 187.279 474.897 195.497 472.842 205.769L458.462 316.707C456.407 337.251 437.917 353.687 417.373 353.687H162.626C142.082 353.687 123.593 337.251 121.538 316.707L107.157 205.769C105.103 195.497 96.8852 187.279 86.6132 187.279H64.0146" stroke="#ffffff" stroke-width="41.0882" stroke-miterlimit="10" stroke-linecap="round" stroke-linejoin="round"/>
<path d="M290 84.5586C179.062 84.5586 105.104 166.735 105.104 166.735H474.898C474.898 166.735 400.939 84.5586 290 84.5586Z" fill="#ffffff"/>
<path d="M310.545 105.103H269.456L257.13 72.2323C257.13 68.1235 259.184 64.0146 265.348 64.0146H316.708C320.817 64.0146 324.925 68.1235 322.871 72.2323L310.545 105.103Z" fill="#ffffff"/>
<path d="M439.972 392.721H140.028C131.81 392.721 123.592 398.884 121.538 407.102L94.8305 489.278C88.6673 501.604 98.9394 515.985 113.32 515.985H466.679C481.06 515.985 491.332 501.604 485.169 489.278L458.461 407.102C456.407 398.884 448.189 392.721 439.972 392.721ZM290 495.441C267.401 495.441 248.911 476.952 248.911 454.353C248.911 431.755 267.401 413.265 290 413.265C312.598 413.265 331.088 431.755 331.088 454.353C331.088 476.952 312.598 495.441 290 495.441Z" fill="#ffffff"/>
<path d="M273.565 470.788L306.436 437.918" stroke="#ffffff" stroke-width="20.5441" stroke-miterlimit="10"/>

</g>

</svg>