<svg width="300" height="40" viewBox="0 0 300 40" fill="none" xmlns="http://www.w3.org/2000/svg" xmlns:xlink="http://www.w3.org/1999/xlink">

<g transform="translate(130.000000, 0.000000) scale(2.000000 2.000000) "> 

<g clip-path="url(#clip0)">
<path opacity="0.953" d="M9.99934 0C15.514 0 20 4.44646 20 10C20 15.5172 15.514 20 9.99934 20C4.48599 20 0 15.5172 0 10C0 4.44646 4.48599 0 9.99934 0V0Z" fill="#878787"/>
<path opacity="0.95" fill-rule="evenodd" clip-rule="evenodd" d="M10 19C14.9706 19 19 14.9706 19 10C19 5.02944 14.9706 1 10 1C5.02944 1 1 5.02944 1 10C1 14.9706 5.02944 19 10 19ZM10 20C15.5228 20 20 15.5228 20 10C20 4.47715 15.5228 0 10 0C4.47715 0 0 4.47715 0 10C0 15.5228 4.47715 20 10 20Z" fill="#404040"/>
</g>
<defs>
<clipPath id="clip0">
<path d="M0 0H20V20H0V0Z" fill="white"/>
</clipPath>
</defs>

</g>%n%n
<g transform="translate(138.000000, 8.000000) scale(0.750000 0.750000) "> 

<path fill-rule="evenodd" fill="rgb(100%, 100%, 100%)" fill-opacity="1" stroke-width="10.8292" stroke-linecap="round" stroke-linejoin="round" stroke="rgb(100%, 100%, 100%)" stroke-opacity="1" stroke-miterlimit="4" d="M 290.708008 56.640625 L 274.140625 495.109863 L 161.992188 495.109863 L 161.992188 519.32373 L 293.256836 519.32373 Z M 290.708008 56.640625 " transform="matrix(0.0551724, 0, 0, 0.0551724, 0, 0)"/>
<path fill-rule="evenodd" fill="rgb(100%, 100%, 100%)" fill-opacity="1" stroke-width="5.41462" stroke-linecap="round" stroke-linejoin="round" stroke="rgb(100%, 100%, 100%)" stroke-opacity="1" stroke-miterlimit="4" d="M 58.127441 137.990723 C 72.5 151.938477 108.254395 167.939453 129.494629 166.240234 C 154.133301 166.098633 179.621582 156.611328 205.959473 139.477539 C 230.314941 123.193359 258.989258 115.476074 290.070801 112.714844 L 289.433594 133.105469 C 256.228027 129.423828 233.146973 148.540039 205.959473 158.59375 C 186.064453 169.072266 167.514648 180.258789 129.494629 180.895996 C 90.200195 176.789551 72.004395 157.036133 58.127441 137.990723 Z M 58.127441 137.990723 " transform="matrix(0.0551724, 0, 0, 0.0551724, 0, 0)"/>
<path fill="none" stroke-width="10.8292" stroke-linecap="round" stroke-linejoin="round" stroke="rgb(100%, 100%, 100%)" stroke-opacity="1" stroke-miterlimit="4" d="M 37.736816 384.589844 L 121.848145 182.17041 L 204.685059 384.589844 Z M 37.736816 384.589844 " transform="matrix(0.0551724, 0, 0, 0.0551724, 0, 0)"/>
<path fill-rule="nonzero" fill="rgb(100%, 100%, 100%)" fill-opacity="1" stroke-width="10.8292" stroke-linecap="round" stroke-linejoin="round" stroke="rgb(100%, 100%, 100%)" stroke-opacity="1" stroke-miterlimit="4" d="M 35.117188 378.996582 C 40.144043 411.989746 76.748047 437.619629 121.210938 437.619629 C 165.673828 437.619629 202.277832 411.989746 207.304688 378.996582 Z M 35.117188 378.996582 " transform="matrix(0.0551724, 0, 0, 0.0551724, 0, 0)"/>
<path fill-rule="evenodd" fill="rgb(100%, 100%, 100%)" fill-opacity="1" stroke-width="10.8292" stroke-linecap="round" stroke-linejoin="round" stroke="rgb(100%, 100%, 100%)" stroke-opacity="1" stroke-miterlimit="4" d="M 291.062012 56.640625 L 307.629395 495.109863 L 419.848633 495.109863 L 419.848633 519.32373 L 288.513184 519.32373 Z M 291.062012 56.640625 " transform="matrix(0.0551724, 0, 0, 0.0551724, 0, 0)"/>
<path fill-rule="evenodd" fill="rgb(100%, 100%, 100%)" fill-opacity="1" stroke-width="5.41462" stroke-linecap="round" stroke-linejoin="round" stroke="rgb(100%, 100%, 100%)" stroke-opacity="1" stroke-miterlimit="4" d="M 523.713379 137.990723 C 509.34082 151.938477 473.586426 167.939453 452.346191 166.240234 C 427.70752 166.098633 402.148438 156.611328 375.881348 139.477539 C 351.525879 123.193359 322.851562 115.476074 291.699219 112.714844 L 292.336426 133.105469 C 325.612793 129.423828 348.693848 148.540039 375.881348 158.59375 C 395.705566 169.072266 414.326172 180.258789 452.346191 180.895996 C 491.640625 176.789551 509.765625 157.036133 523.713379 137.990723 Z M 523.713379 137.990723 " transform="matrix(0.0551724, 0, 0, 0.0551724, 0, 0)"/>
<path fill="none" stroke-width="10.8292" stroke-linecap="round" stroke-linejoin="round" stroke="rgb(100%, 100%, 100%)" stroke-opacity="1" stroke-miterlimit="4" d="M 544.104004 384.589844 L 459.992676 182.17041 L 377.155762 384.589844 Z M 544.104004 384.589844 " transform="matrix(0.0551724, 0, 0, 0.0551724, 0, 0)"/>
<path fill-rule="nonzero" fill="rgb(100%, 100%, 100%)" fill-opacity="1" stroke-width="10.8292" stroke-linecap="round" stroke-linejoin="round" stroke="rgb(100%, 100%, 100%)" stroke-opacity="1" stroke-miterlimit="4" d="M 546.652832 378.996582 C 541.696777 411.989746 505.092773 437.619629 460.629883 437.619629 C 416.166992 437.619629 379.492188 411.989746 374.536133 378.996582 Z M 546.652832 378.996582 " transform="matrix(0.0551724, 0, 0, 0.0551724, 0, 0)"/>

</g>%n%n</svg>