<svg width="300" height="40" viewBox="0 0 300 40" fill="none" xmlns="http://www.w3.org/2000/svg" xmlns:xlink="http://www.w3.org/1999/xlink">

<g transform="translate(130.000000, 0.000000) scale(2.000000 2.000000) "> 

<g clip-path="url(#clip0)">
<path opacity="0.953" d="M9.99934 0C15.514 0 20 4.44646 20 10C20 15.5172 15.514 20 9.99934 20C4.48599 20 0 15.5172 0 10C0 4.44646 4.48599 0 9.99934 0V0Z" fill="#878787"/>
<path opacity="0.95" fill-rule="evenodd" clip-rule="evenodd" d="M10 19C14.9706 19 19 14.9706 19 10C19 5.02944 14.9706 1 10 1C5.02944 1 1 5.02944 1 10C1 14.9706 5.02944 19 10 19ZM10 20C15.5228 20 20 15.5228 20 10C20 4.47715 15.5228 0 10 0C4.47715 0 0 4.47715 0 10C0 15.5228 4.47715 20 10 20Z" fill="#404040"/>
</g>
<defs>
<clipPath id="clip0">
<path d="M0 0H20V20H0V0Z" fill="white"/>
</clipPath>
</defs>

</g>%n%n
<g transform="translate(138.000000, 8.000000) scale(0.750000 0.750000) "> 

<defs>
<filter id="filter-remove-color" x="0%" y="0%" width="100%" height="100%">
<feColorMatrix color-interpolation-filters="sRGB" values="0 0 0 0 1 0 0 0 0 1 0 0 0 0 1 0 0 0 1 0" />
</filter>
<mask id="mask-0">
<g filter="url(#filter-remove-color)">
<rect x="-3.2" y="-3.2" width="38.4" height="38.4" fill="rgb(0%, 0%, 0%)" fill-opacity="0.5"/>
</g>
</mask>
<clip100Path id="clip100-0">
<rect x="0" y="0" width="32" height="32"/>
</clip100Path>
<g id="source-7" clip100-path="url(#clip100-0)">
<path fill-rule="nonzero" fill="rgb(100%, 100%, 100%)" fill-opacity="1" d="M 20 6.667969 C 20 8.875 18.210938 10.667969 16 10.667969 C 13.789062 10.667969 12 8.875 12 6.667969 C 12 4.457031 13.789062 2.667969 16 2.667969 C 18.210938 2.667969 20 4.457031 20 6.667969 Z M 20 6.667969 "/>
<path fill-rule="evenodd" fill="rgb(100%, 100%, 100%)" fill-opacity="1" d="M 12 16.550781 L 7.609375 20.941406 C 7.304688 21.246094 6.875 21.386719 6.453125 21.316406 C 6.03125 21.246094 5.664062 20.980469 5.472656 20.597656 L 2.808594 15.261719 C 2.476562 14.605469 2.746094 13.804688 3.402344 13.472656 C 4.0625 13.144531 4.863281 13.410156 5.191406 14.070312 L 7.03125 17.75 L 11.058594 13.722656 C 11.757812 13.023438 13.519531 12 16 12 C 18.480469 12 20.242188 13.023438 20.941406 13.722656 L 24.96875 17.75 L 26.808594 14.070312 C 27.136719 13.410156 27.9375 13.144531 28.597656 13.472656 C 29.253906 13.804688 29.523438 14.605469 29.191406 15.261719 L 26.527344 20.597656 C 26.335938 20.980469 25.96875 21.246094 25.546875 21.316406 C 25.125 21.386719 24.695312 21.246094 24.390625 20.941406 L 20 16.550781 L 20 29.332031 L 12 29.332031 Z M 12 16.550781 "/>
</g>
<mask id="mask-1">
<g filter="url(#filter-remove-color)">
<rect x="-3.2" y="-3.2" width="38.4" height="38.4" fill="rgb(0%, 0%, 0%)" fill-opacity="0.8"/>
</g>
</mask>
<clip100Path id="clip100-1">
<rect x="0" y="0" width="32" height="32"/>
</clip100Path>
<g id="source-12" clip100-path="url(#clip100-1)">
<path fill-rule="evenodd" fill="rgb(100%, 100%, 100%)" fill-opacity="1" d="M 30.667969 18.667969 C 31.402344 18.667969 32 18.070312 32 17.332031 C 32 16.597656 31.402344 16 30.667969 16 L 1.867188 16 C 1.128906 16 0.535156 16.597656 0.535156 17.332031 C 0.535156 18.070312 1.128906 18.667969 1.867188 18.667969 Z M 30.398438 26.667969 C 31.136719 26.667969 31.734375 26.070312 31.734375 25.332031 C 31.734375 24.597656 31.136719 24 30.398438 24 L 1.601562 24 C 0.863281 24 0.265625 24.597656 0.265625 25.332031 C 0.265625 26.070312 0.863281 26.667969 1.601562 26.667969 Z M 30.398438 26.667969 "/>
</g>
</defs>
<g mask="url(#mask-0)">
<use xlink:href="#source-7"/>
</g>
<path fill-rule="evenodd" fill="rgb(100%, 100%, 100%)" fill-opacity="1" d="M 2.667969 4 C 2.667969 3.261719 2.070312 2.667969 1.332031 2.667969 C 0.597656 2.667969 0 3.261719 0 4 L 0 28 C 0 28.738281 0.597656 29.332031 1.332031 29.332031 C 2.070312 29.332031 2.667969 28.738281 2.667969 28 Z M 9.332031 2.667969 C 10.070312 2.667969 10.667969 3.261719 10.667969 4 L 10.667969 28 C 10.667969 28.738281 10.070312 29.332031 9.332031 29.332031 C 8.597656 29.332031 8 28.738281 8 28 L 8 4 C 8 3.261719 8.597656 2.667969 9.332031 2.667969 Z M 17.332031 4 C 17.332031 3.261719 16.738281 2.667969 16 2.667969 C 15.261719 2.667969 14.667969 3.261719 14.667969 4 L 14.667969 28 C 14.667969 28.738281 15.261719 29.332031 16 29.332031 C 16.738281 29.332031 17.332031 28.738281 17.332031 28 Z M 22.667969 2.667969 C 23.402344 2.667969 24 3.261719 24 4 L 24 28 C 24 28.738281 23.402344 29.332031 22.667969 29.332031 C 21.929688 29.332031 21.332031 28.738281 21.332031 28 L 21.332031 4 C 21.332031 3.261719 21.929688 2.667969 22.667969 2.667969 Z M 30.667969 2.667969 C 31.402344 2.667969 32 3.261719 32 4 L 32 28 C 32 28.738281 31.402344 29.332031 30.667969 29.332031 C 29.929688 29.332031 29.332031 28.738281 29.332031 28 L 29.332031 4 C 29.332031 3.261719 29.929688 2.667969 30.667969 2.667969 Z M 30.667969 2.667969 "/>
<g mask="url(#mask-1)">
<use xlink:href="#source-12"/>
</g>

</g>%n%n</svg>