<svg width="24" height="24" viewBox="0 0 24 24" fill="none" xmlns="http://www.w3.org/2000/svg">
<path d="M14.0001 19H22.0001L13.0001 5L8.90918 11.3636L14.0001 19Z" fill="#5714CC"/>
<path opacity="0.5" d="M13 5L10.75 8.5L12 10L14.6239 8.78899L13 5Z" fill="url(#paint0_linear_1102_12204)"/>
<path d="M22 19H19L13 5L22 19Z" fill="url(#paint1_linear_1102_12204)"/>
<path fill-rule="evenodd" clip-rule="evenodd" d="M2 19H14L8 10L2 19Z" fill="#5714CC"/>
<path fill-rule="evenodd" clip-rule="evenodd" d="M14 19H12L8 10L14 19Z" fill="url(#paint2_linear_1102_12204)"/>
<path fill-rule="evenodd" clip-rule="evenodd" d="M6.5 14L9 12.25L8 10L6 13L6.5 14Z" fill="url(#paint3_linear_1102_12204)"/>
<defs>
<linearGradient id="paint0_linear_1102_12204" x1="13" y1="5" x2="13" y2="12.5" gradientUnits="userSpaceOnUse">
<stop stop-color="white"/>
<stop offset="1" stop-color="white" stop-opacity="0"/>
</linearGradient>
<linearGradient id="paint1_linear_1102_12204" x1="13" y1="19" x2="13" y2="5" gradientUnits="userSpaceOnUse">
<stop stop-color="#FFC30D"/>
<stop offset="1" stop-color="#FFC30D" stop-opacity="0"/>
</linearGradient>
<linearGradient id="paint2_linear_1102_12204" x1="8" y1="19" x2="8" y2="10" gradientUnits="userSpaceOnUse">
<stop stop-color="#FFC30D"/>
<stop offset="1" stop-color="#FFC30D" stop-opacity="0"/>
</linearGradient>
<linearGradient id="paint3_linear_1102_12204" x1="8" y1="14" x2="8" y2="7" gradientUnits="userSpaceOnUse">
<stop stop-color="#5714CC"/>
<stop offset="1" stop-color="white"/>
</linearGradient>
</defs>
</svg>
