<svg width="24" height="24" viewBox="0 0 24 24" fill="none" xmlns="http://www.w3.org/2000/svg">
<path d="M22 5C22 4.44772 21.5523 4 21 4H3C2.44772 4 2 4.44772 2 5V19C2 19.5523 2.44772 20 3 20H21C21.5523 20 22 19.5523 22 19V5Z" fill="#5714CC"/>
<path d="M10 16V18H4V16H10Z" fill="#AB89E5"/>
<path d="M10 14H4V12H10V14Z" fill="#AB89E5"/>
<path d="M12 8H4V6H12V8Z" fill="#AB89E5"/>
<path opacity="0.6" fill-rule="evenodd" clip-rule="evenodd" d="M14 17H15V16H16V17H17V16H18V17H19V13H14V17ZM16 14C16.5523 14 17 14.4477 17 15C17 15.5523 16.5523 16 16 16C15.4477 16 15 15.5523 15 15C15 14.4477 15.4477 14 16 14Z" fill="#FFC30D"/>
<path d="M13 12V13H20V12L16.5 4L13 12Z" fill="#FFC30D"/>
<path d="M17 17H16V16H15V17H14V16H13V20H20V16H19V17H18V16H17V17Z" fill="#FFC30D"/>
</svg>
