<svg width="24" height="24" viewBox="0 0 24 24" fill="none" xmlns="http://www.w3.org/2000/svg">
<path opacity="0.7" d="M6 2C4.89543 2 4 2.89543 4 4H20C20 2.89543 19.1046 2 18 2H6Z" fill="#5714CC"/>
<path d="M2 6C2 4.89543 2.89543 4 4 4H20C21.1046 4 22 4.89543 22 6V20C22 21.1046 21.1046 22 20 22H4C2.89543 22 2 21.1046 2 20V6Z" fill="#5714CC"/>
<path fill-rule="evenodd" clip-rule="evenodd" d="M9.63636 7L15.3636 8.24088L17 7.58394V16.3431L15.3636 17L10 15.8379V19H8V7.58394L9.63636 7ZM10 9.12519V13.7915L15 14.8748V10.2085L10 9.12519Z" fill="#FFC30D"/>
</svg>
