<svg width="24" height="24" viewBox="0 0 24 24" fill="none" xmlns="http://www.w3.org/2000/svg">
<path d="M22 5C22 4.44772 21.5523 4 21 4H3C2.44772 4 2 4.44772 2 5V19C2 19.5523 2.44772 20 3 20H21C21.5523 20 22 19.5523 22 19V5Z" fill="url(#paint0_linear_9_8499)"/>
<path d="M9 16C9.55228 16 10 16.4477 10 17V17C10 17.5523 9.55228 18 9 18H5C4.44772 18 4 17.5523 4 17V17C4 16.4477 4.44772 16 5 16H9Z" fill="#AB89E5"/>
<path d="M10 13C10 13.5523 9.55228 14 9 14H5C4.44772 14 4 13.5523 4 13V13C4 12.4477 4.44772 12 5 12H9C9.55228 12 10 12.4477 10 13V13Z" fill="#AB89E5"/>
<path d="M12 8C12 8.55228 11.5523 9 11 9H5C4.44772 9 4 8.55228 4 8V8C4 7.44772 4.44772 7 5 7H11C11.5523 7 12 7.44772 12 8V8Z" fill="#AB89E5"/>
<path opacity="0.6" fill-rule="evenodd" clip-rule="evenodd" d="M14 17H15V16H16V17H17V16H18V17H19V13H14V17ZM16 14C16.5523 14 17 14.4477 17 15C17 15.5523 16.5523 16 16 16C15.4477 16 15 15.5523 15 15C15 14.4477 15.4477 14 16 14Z" fill="#FFC30D"/>
<path d="M13 12V13H20V12L16.5 4L13 12Z" fill="url(#paint1_linear_9_8499)"/>
<path d="M17 17H16V16H15V17H14V16H13V20H20V16H19V17H18V16H17V17Z" fill="#FFC30D"/>
<defs>
<linearGradient id="paint0_linear_9_8499" x1="12" y1="4" x2="12" y2="20" gradientUnits="userSpaceOnUse">
<stop stop-color="#732EEB"/>
<stop offset="1" stop-color="#5714CC"/>
</linearGradient>
<linearGradient id="paint1_linear_9_8499" x1="13" y1="12" x2="20" y2="12" gradientUnits="userSpaceOnUse">
<stop stop-color="#FFDD75"/>
<stop offset="1" stop-color="#FFC30D"/>
</linearGradient>
</defs>
</svg>
