<svg width="24" height="24" viewBox="0 0 24 24" fill="none" xmlns="http://www.w3.org/2000/svg">
<path d="M5.27727 5.33052C7.7404 2.43949 12.8778 -0.038547 18.7892 4.5045C24.7007 9.04755 21.4688 15.3157 16.9556 16.1636C14.0454 16.7104 13.6297 24.5255 6.56222 21.1625C-1.24931 17.4455 2.81414 8.22154 5.27727 5.33052Z" fill="#14CC70"/>
<path fill-rule="evenodd" clip-rule="evenodd" d="M11.7842 8.1223C10.8017 8.38216 9.97485 8.98443 9.62014 9.42824C9.22467 9.92305 8.41229 11.5469 8.10978 13.2409C7.9625 14.0656 7.97064 14.73 8.09111 15.1887C8.19566 15.5869 8.35781 15.7664 8.59161 15.885C8.92305 16.0531 9.05946 16.0101 9.22807 15.9252C9.53077 15.7728 9.93334 15.4092 10.4406 14.7448C10.7776 14.3034 11.054 13.8819 11.35 13.4306C11.5138 13.1808 11.6835 12.9219 11.8729 12.6454C12.1067 12.304 12.3835 11.9204 12.6872 11.592C12.9528 11.3048 13.4517 10.8187 14.1755 10.6083C14.7129 10.452 14.9373 10.1129 14.9858 9.88746C15.0177 9.73883 15.0581 9.23684 14.2082 8.54054C13.5311 7.98581 12.7075 7.87808 11.7842 8.1223Z" fill="#0DDE75"/>
<path fill-rule="evenodd" clip-rule="evenodd" d="M11.089 4.09906C9.302 4.41567 7.79258 5.46216 6.79965 6.62757C5.79151 7.81086 4.3521 10.4741 4.05456 13.1572C3.90964 14.4641 4.04815 15.6607 4.52684 16.6706C4.99054 17.6489 5.84469 18.6062 7.42157 19.3566C8.9159 20.0676 9.78188 20.0591 10.2756 19.9363C10.7805 19.8107 11.2497 19.4792 11.7891 18.8397C12.0592 18.5195 12.3182 18.1569 12.6002 17.7441C12.6634 17.6517 12.7297 17.5536 12.7984 17.4521C13.0149 17.132 13.2546 16.7777 13.4885 16.4607C14.0522 15.6968 15.0273 14.4909 16.5863 14.198C18.0864 13.9162 19.4275 12.696 19.857 11.1759C20.239 9.82412 19.9655 7.93087 17.5705 6.0903C15.0098 4.12231 12.8072 3.79466 11.089 4.09906ZM18.7892 4.5045C12.8778 -0.038547 7.7404 2.43949 5.27727 5.33052C2.81414 8.22154 -1.24931 17.4455 6.56222 21.1625C11.2075 23.3729 12.9791 20.7543 14.4742 18.5445C15.2538 17.3922 15.9582 16.351 16.9556 16.1636C21.4688 15.3157 24.7007 9.04755 18.7892 4.5045Z" fill="#1BBB6B"/>
<path fill-rule="evenodd" clip-rule="evenodd" d="M11.7842 8.1223C10.8017 8.38216 9.97485 8.98443 9.62014 9.42824C9.22467 9.92305 8.41229 11.5469 8.10977 13.2409C7.96249 14.0656 7.97064 14.73 8.09111 15.1887C8.19566 15.5869 8.35781 15.7664 8.59161 15.885C8.92305 16.0531 9.05946 16.0101 9.22807 15.9252C9.53077 15.7728 9.93334 15.4092 10.4406 14.7448C10.7776 14.3034 11.054 13.8819 11.35 13.4306C11.5138 13.1808 11.6835 12.9219 11.8729 12.6454C12.1067 12.304 12.3835 11.9204 12.6872 11.592C12.9528 11.3048 13.4517 10.8187 14.1755 10.6083C14.7129 10.452 14.9373 10.1129 14.9857 9.88746C15.0177 9.73883 15.0581 9.23684 14.2082 8.54054C13.5311 7.98581 12.7075 7.87809 11.7842 8.1223ZM15.4757 6.99344C12.8794 4.86645 9.3368 6.57931 8.05782 8.17959C6.77883 9.77986 4.34874 15.9754 7.68686 17.6687C10.1411 18.9136 11.801 16.3874 13.0751 14.4483C13.7061 13.488 14.2425 12.6716 14.7339 12.5288C17.0344 11.8599 18.0719 9.12043 15.4757 6.99344Z" fill="#1BBB6B"/>
</svg>
