<svg width="24" height="24" viewBox="0 0 24 24" fill="none" xmlns="http://www.w3.org/2000/svg">
<path d="M22 4C23.1046 4 24 4.89543 24 6V18C24 19.1046 23.1046 20 22 20H2C0.89543 20 0 19.1046 0 18V6C0 4.89543 0.895431 4 2 4H22Z" fill="#5714CC"/>
<path d="M22 13.8506V18H2V14.25L7.35938 10.2314L7.96777 9.72559L11.9053 12.6797L17.0986 7.4873L22 13.8506Z" fill="#FFC30D" fill-opacity="0.7"/>
<path d="M22 16L22 18L2 18L2 16L22 16Z" fill="#FFC107"/>
<path d="M11 12C11 11.4477 11.4477 11 12 11C12.5523 11 13 11.4477 13 12V17C13 17.5523 12.5523 18 12 18C11.4477 18 11 17.5523 11 17V12Z" fill="white"/>
<path fill-rule="evenodd" clip-rule="evenodd" d="M14 8C14 9.10457 13.1046 10 12 10C10.8954 10 10 9.10457 10 8C10 6.89543 10.8954 6 12 6C13.1046 6 14 6.89543 14 8Z" fill="white"/>
<path d="M13 8C13 8.55228 12.5523 9 12 9C11.4477 9 11 8.55228 11 8C11 7.44772 11.4477 7 12 7C12.5523 7 13 7.44772 13 8Z" fill="#237BFF"/>
</svg>
