<svg width="24" height="24" viewBox="0 0 24 24" fill="none" xmlns="http://www.w3.org/2000/svg">
<path fill-rule="evenodd" clip-rule="evenodd" d="M2.55276 5.10557C3.04674 4.85859 3.64741 5.05881 3.8944 5.55279L3.99998 5.76393C4.37875 6.52148 5.15301 7 5.99997 7C6.84694 7 7.6212 6.52148 7.99997 5.76393L8.10555 5.55279C8.27494 5.214 8.6212 5 8.99997 5C9.37875 5 9.72501 5.214 9.8944 5.55279L9.99998 5.76393C10.3787 6.52148 11.153 7 12 7C12.8469 7 13.6212 6.52148 14 5.76393L14.1055 5.55279C14.2749 5.214 14.6212 5 15 5C15.3787 5 15.725 5.214 15.8944 5.55279L16 5.76393C16.3787 6.52148 17.153 7 18 7C18.8469 7 19.6212 6.52148 20 5.76393L20.1055 5.55279C20.3525 5.05881 20.9532 4.85859 21.4472 5.10557C21.9412 5.35256 22.1414 5.95324 21.8944 6.44722L21.7888 6.65836C21.0713 8.09347 19.6045 9 18 9C16.8561 9 15.7823 8.53929 15 7.7548C14.2177 8.53929 13.1438 9 12 9C10.8561 9 9.78228 8.53929 8.99997 7.7548C8.21767 8.53929 7.14381 9 5.99997 9C4.39547 9 2.92868 8.09347 2.21112 6.65836L2.10555 6.44722C1.85856 5.95324 2.05878 5.35256 2.55276 5.10557Z" fill="#5714CC"/>
<path opacity="0.5" fill-rule="evenodd" clip-rule="evenodd" d="M2.55276 11.1056C3.04674 10.8586 3.64741 11.0588 3.8944 11.5528L3.99998 11.7639C4.37875 12.5215 5.15301 13 5.99997 13C6.84694 13 7.6212 12.5215 7.99997 11.7639L8.10555 11.5528C8.27494 11.214 8.6212 11 8.99997 11C9.37875 11 9.72501 11.214 9.8944 11.5528L9.99998 11.7639C10.3787 12.5215 11.153 13 12 13C12.8469 13 13.6212 12.5215 14 11.7639L14.1055 11.5528C14.2749 11.214 14.6212 11 15 11C15.3787 11 15.725 11.214 15.8944 11.5528L16 11.7639C16.3787 12.5215 17.153 13 18 13C18.8469 13 19.6212 12.5215 20 11.7639L20.1055 11.5528C20.3525 11.0588 20.9532 10.8586 21.4472 11.1056C21.9412 11.3526 22.1414 11.9532 21.8944 12.4472L21.7888 12.6584C21.0713 14.0935 19.6045 15 18 15C16.8561 15 15.7823 14.5393 15 13.7548C14.2177 14.5393 13.1438 15 12 15C10.8561 15 9.78228 14.5393 8.99997 13.7548C8.21767 14.5393 7.14381 15 5.99997 15C4.39547 15 2.92868 14.0935 2.21112 12.6584L2.10555 12.4472C1.85856 11.9532 2.05878 11.3526 2.55276 11.1056Z" fill="#5714CC"/>
<path opacity="0.2" fill-rule="evenodd" clip-rule="evenodd" d="M2.55276 17.1056C3.04674 16.8586 3.64741 17.0588 3.8944 17.5528L3.99998 17.7639C4.37875 18.5215 5.15301 19 5.99997 19C6.84694 19 7.6212 18.5215 7.99997 17.7639L8.10555 17.5528C8.27494 17.214 8.6212 17 8.99997 17C9.37875 17 9.72501 17.214 9.8944 17.5528L9.99998 17.7639C10.3787 18.5215 11.153 19 12 19C12.8469 19 13.6212 18.5215 14 17.7639L14.1055 17.5528C14.2749 17.214 14.6212 17 15 17C15.3787 17 15.725 17.214 15.8944 17.5528L16 17.7639C16.3787 18.5215 17.153 19 18 19C18.8469 19 19.6212 18.5215 20 17.7639L20.1055 17.5528C20.3525 17.0588 20.9532 16.8586 21.4472 17.1056C21.9412 17.3526 22.1414 17.9532 21.8944 18.4472L21.7888 18.6584C21.0713 20.0935 19.6045 21 18 21C16.8561 21 15.7823 20.5393 15 19.7548C14.2177 20.5393 13.1438 21 12 21C10.8561 21 9.78228 20.5393 8.99997 19.7548C8.21767 20.5393 7.14381 21 5.99997 21C4.39547 21 2.92868 20.0935 2.21112 18.6584L2.10555 18.4472C1.85856 17.9532 2.05878 17.3526 2.55276 17.1056Z" fill="#5714CC"/>
</svg>
