<svg width="24" height="24" viewBox="0 0 24 24" fill="none" xmlns="http://www.w3.org/2000/svg">
<path opacity="0.3" d="M14 19H20V5H14V19Z" fill="#5714CC"/>
<path opacity="0.7" d="M13.4648 21H22V5C22 3.89543 21.1045 3 20 3H13.4648C13.8052 3.58835 14 4.27143 14 5H20L20 19H14C14 19.7286 13.8052 20.4117 13.4648 21Z" fill="#5714CC"/>
<path d="M13.4648 21H23C23.5523 21 24 20.5523 24 20V19H14C14 19.7286 13.8052 20.4117 13.4648 21Z" fill="#5714CC"/>
<g opacity="0.5">
<path d="M14 17H18V15H14V17Z" fill="#5714CC"/>
<path d="M14 9H18V7H14V9Z" fill="#5714CC"/>
<path d="M15 11H18V13H15V11Z" fill="#5714CC"/>
</g>
<path d="M2 5H10V19H2V5Z" fill="#FFC30D"/>
<path d="M5 16C4.44772 16 4 16.4477 4 17C4 17.5523 4.44772 18 5 18H7C7.55228 18 8 17.5523 8 17C8 16.4477 7.55228 16 7 16H5Z" fill="#5714CC"/>
<path fill-rule="evenodd" clip-rule="evenodd" d="M0 5C0 3.89543 0.895431 3 2 3H10C11.1046 3 12 3.89543 12 5V19C12 20.1046 11.1046 21 10 21H2C0.895431 21 0 20.1046 0 19V5ZM2 5H10V19H2V5Z" fill="#5714CC"/>
</svg>
