<svg width="24" height="24" viewBox="0 0 24 24" fill="none" xmlns="http://www.w3.org/2000/svg">
<path d="M8 10H4.44152L5.73502 6.1195C5.7436 6.09376 5.75805 6.07037 5.77724 6.05119C5.81001 6.01841 5.85447 6 5.90082 6H11.1001C11.2502 5.26089 11.5634 4.58118 11.9999 4H5.90082C5.32403 4 4.77087 4.22913 4.36302 4.63698C4.12429 4.87571 3.94442 5.16675 3.83765 5.48705L2 11V19C2 19.5523 2.44772 20 3 20H4C4.55228 20 5 19.5523 5 19V18H12V16.7325C11.5897 16.4951 11.2715 16.1161 11.1123 15.6624C10.7943 15.8756 10.4117 16 10 16C8.89543 16 8 15.1046 8 14V10Z" fill="#5714CC"/>
<path d="M16 18H17V17H16V18Z" fill="#5714CC"/>
<path d="M11.1001 6C11.0345 6.32308 11 6.65751 11 7.00001L11 7.26758C10.7058 7.09741 10.3643 7.00001 10 7.00001C8.89543 7.00001 8 7.89544 8 9.00001V10H4.44141L5.73491 6.1195C5.74349 6.09376 5.75794 6.07037 5.77713 6.05119C5.8099 6.01841 5.85436 6 5.90071 6H11.1001Z" fill="#FFC30D"/>
<path d="M5.5 15C6.32843 15 7 14.3284 7 13.5C7 12.6716 6.32843 12 5.5 12C4.67157 12 4 12.6716 4 13.5C4 14.3284 4.67157 15 5.5 15Z" fill="#FFC30D"/>
<path fill-rule="evenodd" clip-rule="evenodd" d="M13.3536 1.64645C13.1583 1.45118 12.8417 1.45118 12.6464 1.64645C12.4512 1.84171 12.4512 2.15829 12.6464 2.35355L13.8925 3.59962C12.7565 4.30522 12 5.56428 12 7.00001H21C21 5.56427 20.2436 4.30519 19.1075 3.59959L20.3536 2.35355C20.5488 2.15829 20.5488 1.84171 20.3536 1.64645C20.1583 1.45118 19.8417 1.45118 19.6464 1.64645L18.1308 3.16208C17.7722 3.05661 17.3927 3.00001 17 3.00001H16C15.6073 3.00001 15.2278 3.05661 14.8692 3.1621L13.3536 1.64645ZM14 5.00001H15V6.00001H14V5.00001ZM18 5.00001H19V6.00001H18V5.00001Z" fill="#78CC5C"/>
<path d="M9 9.00001C9 8.44773 9.44772 8.00001 10 8.00001C10.5523 8.00001 11 8.44773 11 9.00001V14C11 14.5523 10.5523 15 10 15C9.44772 15 9 14.5523 9 14V9.00001Z" fill="#78CC5C"/>
<path d="M22 9.00001C22 8.44773 22.4477 8.00001 23 8.00001C23.5523 8.00001 24 8.44773 24 9.00001V14C24 14.5523 23.5523 15 23 15C22.4477 15 22 14.5523 22 14V9.00001Z" fill="#78CC5C"/>
<path d="M13 16C12.4477 16 12 15.5523 12 15V8.00001H21V15C21 15.5523 20.5523 16 20 16V19C20 19.5523 19.5523 20 19 20C18.4477 20 18 19.5523 18 19V16H15V19C15 19.5523 14.5523 20 14 20C13.4477 20 13 19.5523 13 19V16Z" fill="#78CC5C"/>
</svg>
