<svg width="24" height="24" viewBox="0 0 24 24" fill="none" xmlns="http://www.w3.org/2000/svg">
<path d="M22.1064 20H1.76367L7.31738 8.89258L9.43457 10.5869L10.2295 7.94238L14.627 3.54492L22.1064 20Z" fill="url(#paint0_linear_1102_12204)"/>
<path d="M12 9L10.5 14L8 12L5 18H19L14 7L12 9Z" fill="url(#paint1_linear_1102_12204)"/>
<path d="M19 18H15.792L13.5859 7.41309L14 7L19 18Z" fill="url(#paint2_linear_1102_12204)"/>
<path d="M10.5 14L9 16L8 12L10.5 14Z" fill="url(#paint3_linear_1102_12204)"/>
<defs>
<linearGradient id="paint0_linear_1102_12204" x1="12" y1="7" x2="12" y2="18" gradientUnits="userSpaceOnUse">
<stop stop-color="#A37FE3"/>
<stop offset="1" stop-color="#5714CC"/>
</linearGradient>
<linearGradient id="paint1_linear_1102_12204" x1="12" y1="7" x2="12" y2="18" gradientUnits="userSpaceOnUse">
<stop stop-color="#FFC107"/>
<stop offset="1" stop-color="#9C75E1"/>
</linearGradient>
<linearGradient id="paint2_linear_1102_12204" x1="14.75" y1="7" x2="14.75" y2="19" gradientUnits="userSpaceOnUse">
<stop stop-color="#FFC107"/>
<stop offset="1" stop-color="#FFC107"/>
</linearGradient>
<linearGradient id="paint3_linear_1102_12204" x1="14.75" y1="7" x2="14.75" y2="19" gradientUnits="userSpaceOnUse">
<stop stop-color="#FFC107"/>
<stop offset="1" stop-color="#FFC107"/>
</linearGradient>
</defs>
</svg>
