<svg width="300" height="35" viewBox="0 0 300 35" fill="none" xmlns="http://www.w3.org/2000/svg">

<g transform="translate(135.000000, 2.000000) scale(1.875000 1.875000) "> 

  <metadata
     id="metadata10">
    <rdf:RDF>
      <cc:Work
         rdf:about="">
        <dc:format>image/svg+xml</dc:format>
        <dc:type
           rdf:resource="http://purl.org/dc/dcmitype/StillImage" />
        <dc:title></dc:title>
      </cc:Work>
    </rdf:RDF>
  </metadata>
  <defs
     id="defs8" />
  <sodipodi:namedview
     pagecolor="#ffffff"
     bordercolor="#666666"
     borderopacity="1"
     objecttolerance="10"
     gridtolerance="10"
     guidetolerance="10"
     inkscape:pageopacity="0"
     inkscape:pageshadow="2"
     inkscape:window-width="1720"
     inkscape:window-height="1051"
     id="namedview6"
     showgrid="true"
     inkscape:zoom="29.5"
     inkscape:cx="10.152374"
     inkscape:cy="11.617014"
     inkscape:window-x="200"
     inkscape:window-y="0"
     inkscape:window-maximized="1"
     inkscape:current-layer="svg4">
    <inkscape:grid
       type="xygrid"
       id="grid817"
       spacingx="2"
       spacingy="2" />
  </sodipodi:namedview>
  <path
     sodipodi:type="inkscape:offset"
     inkscape:radius="2"
     inkscape:original="M 12 6 L 12 14.03125 L 4.9296875 13.960938 A 1.0001 1.0001 0 1 0 4.9101562 15.960938 L 12 16.03125 L 12 20.082031 L 5.0429688 20.082031 A 1.0001 1.0001 0 1 0 5.0429688 22.082031 L 12 22.082031 L 12 40 L 36 40 L 36 22 L 43 22 A 1.0001 1.0001 0 1 0 43 20 L 36 20 L 36 16 L 43 16 A 1.0001 1.0001 0 1 0 43 14 L 36 14 L 36 6 L 35 6 L 12 6 z M 14 8 L 34 8 L 34 14.832031 A 1.0001 1.0001 0 0 0 34 15.158203 L 34 20.832031 A 1.0001 1.0001 0 0 0 34 21.158203 L 34 38 L 14 38 L 14 8 z M 24 12 L 18.271484 24.484375 L 24.0625 24.484375 L 19.201172 36 L 30.271484 20.847656 L 24.015625 20.847656 L 28.951172 12 L 24 12 z "
     style="opacity:0.79900004;vector-effect:none;fill:#ebe7e4;fill-opacity:1;stroke-width:3.47222233;stroke-linecap:butt;stroke-linejoin:miter;stroke-miterlimit:4;stroke-dasharray:none;stroke-dashoffset:0;stroke-opacity:1"
     id="path2-3"
     d="m 12,4 a 2.0002,2.0002 0 0 0 -2,2 v 6.011719 l -5.03125,-0.05078 c -1.5807616,-0.03161 -3.0431542,1.3897 -3.0585938,2.970703 -0.01544,1.581002 1.4189226,3.030029 3,3.029297 L 10,18.011719 v 0.07031 H 5.0703125 c -1.5848322,-0.02241 -3.0410156,1.41501 -3.0410156,3 0,1.584991 1.4561834,3.022414 3.0410156,3 H 10 V 40 a 2.0002,2.0002 0 0 0 2,2 h 24 a 2.0002,2.0002 0 0 0 2,-2 V 24 h 4.972656 c 1.584832,0.02241 3.041016,-1.415009 3.041016,-3 0,-1.584991 -1.456184,-3.022413 -3.041016,-3 1.584832,0.02241 3.041016,-1.415009 3.041016,-3 0,-1.584991 -1.456184,-3.022413 -3.041016,-3 H 38 V 6 A 2.0002,2.0002 0 0 0 36,4 h -1 z m 4,6 h 8 a 2.0002,2.0002 0 0 0 -1.818359,1.166016 l -5.728516,12.484375 a 2.0002,2.0002 0 0 0 1.818359,2.833984 h 2.777344 l -3.689453,8.738281 A 2.0002,2.0002 0 0 0 17.201172,36 H 16 Z m 12.951172,0 H 32 v 4.832031 l 0.02734,-0.326172 c -0.05342,0.323228 -0.05342,0.655288 0,0.978516 L 32,15.158203 v 4.689453 a 2.0002,2.0002 0 0 0 -1.728516,-1 h -2.849609 l 3.275391,-5.873047 A 2.0002,2.0002 0 0 0 28.951172,10 Z M 32,21.853516 V 36 H 21.677734 L 31.886719,22.027344 A 2.0002,2.0002 0 0 0 32,21.853516 Z"
     transform="matrix(0.288,0,0,0.288,1.0862706,1.0426666)" />

</g>


<g transform="translate(139.000000, 6.000000) scale(0.458333 0.458333) "> 

  <metadata
     id="metadata36">
    <rdf:RDF>
      <cc:Work
         rdf:about="">
        <dc:format>image/svg+xml</dc:format>
        <dc:type
           rdf:resource="http://purl.org/dc/dcmitype/StillImage" />
        <dc:title></dc:title>
      </cc:Work>
    </rdf:RDF>
  </metadata>
  <defs
     id="defs34" />
  <sodipodi:namedview
     pagecolor="#ffffff"
     bordercolor="#666666"
     borderopacity="1"
     objecttolerance="10"
     gridtolerance="10"
     guidetolerance="10"
     inkscape:pageopacity="0"
     inkscape:pageshadow="2"
     inkscape:window-width="1920"
     inkscape:window-height="1014"
     id="namedview32"
     showgrid="true"
     inkscape:zoom="13.02069"
     inkscape:cx="33.403343"
     inkscape:cy="28.261324"
     inkscape:window-x="1920"
     inkscape:window-y="0"
     inkscape:window-maximized="1"
     inkscape:current-layer="svg30"
     inkscape:snap-global="true">
    <inkscape:grid
       type="xygrid"
       id="grid843"
       spacingx="2"
       spacingy="2" />
  </sodipodi:namedview>
  <path
     inkscape:connector-curvature="0"
     d="m 24,12 -5.729143,12.485128 h 5.790965 L 19.20117,36.000001 30.270859,20.847503 h -6.25614 L 28.951953,12 Z"
     id="path2"
     style="fill:#ffffff;fill-opacity:1;stroke-width:1;font-variant-east_asian:normal;opacity:1;vector-effect:none;stroke-linecap:butt;stroke-linejoin:miter;stroke-miterlimit:4;stroke-dasharray:none;stroke-dashoffset:0;stroke-opacity:1" />
  <path
     style="fill:none;fill-rule:evenodd;stroke:#ffffff;stroke-width:2;stroke-linecap:butt;stroke-linejoin:miter;stroke-miterlimit:4;stroke-dasharray:none;stroke-opacity:1"
     d="M 35,7 V 39 H 13 V 7 Z"
     id="path818"
     inkscape:connector-curvature="0"
     sodipodi:nodetypes="ccccc" />
  <path
     style="fill:none;fill-rule:evenodd;stroke:#ffffff;stroke-width:2;stroke-linecap:round;stroke-linejoin:miter;stroke-miterlimit:4;stroke-dasharray:none;stroke-opacity:1"
     d="m 4.9207203,14.9616 7.8867037,0.0768"
     id="path820"
     inkscape:connector-curvature="0"
     sodipodi:nodetypes="cc" />
  <path
     style="fill:none;fill-rule:evenodd;stroke:#ffffff;stroke-width:2;stroke-linecap:round;stroke-linejoin:miter;stroke-miterlimit:4;stroke-dasharray:none;stroke-opacity:1"
     d="m 5.0424787,21.081721 7.8618073,-4.18e-4"
     id="path820-3"
     inkscape:connector-curvature="0"
     sodipodi:nodetypes="cc" />
  <path
     style="fill:none;fill-rule:evenodd;stroke:#ffffff;stroke-width:2;stroke-linecap:round;stroke-linejoin:miter;stroke-miterlimit:4;stroke-dasharray:none;stroke-opacity:1"
     d="m 35,15 h 8"
     id="path820-5"
     inkscape:connector-curvature="0"
     sodipodi:nodetypes="cc" />
  <path
     style="fill:none;fill-rule:evenodd;stroke:#ffffff;stroke-width:2;stroke-linecap:round;stroke-linejoin:miter;stroke-miterlimit:4;stroke-dasharray:none;stroke-opacity:1"
     d="m 35,21 8,-2.09e-4"
     id="path820-3-6"
     inkscape:connector-curvature="0"
     sodipodi:nodetypes="cc" />

</g>

</svg>