<svg width="300" height="35" viewBox="0 0 300 35" fill="none" xmlns="http://www.w3.org/2000/svg">

<g transform="translate(135.000000, 2.000000) scale(1.875000 1.875000) "> 

<path opacity="0.812" d="M8.00195 1.7229C6.70854 1.7229 5.53804 1.87139 4.60575 2.1514C4.13961 2.2914 3.73124 2.45805 3.36377 2.71883C2.9963 2.9796 2.58209 3.42814 2.58209 4.07798V7.08417V12.5342C2.58215 12.5677 2.58382 12.6012 2.58711 12.6346C2.65132 13.2998 3.21888 13.7364 3.62824 13.9C4.03759 14.0636 4.43849 14.1195 4.89198 14.1611C5.79895 14.2443 6.9033 14.2247 8.08229 14.2247C9.26128 14.2247 10.3243 14.2437 11.1973 14.1594C11.6338 14.1173 12.0221 14.0632 12.4242 13.8916C12.8263 13.72 13.3563 13.261 13.4168 12.6346C13.4201 12.6012 13.4218 12.5677 13.4218 12.5342V7.08417V4.07798C13.4218 3.42814 13.0076 2.97961 12.6402 2.71883C12.2727 2.45805 11.8643 2.2914 11.3981 2.1514C10.4659 1.87139 9.29535 1.7229 8.00195 1.7229Z" fill="#EBE7E4"/>

</g>


<g transform="translate(139.000000, 6.000000) scale(0.037931 0.037931) "> 

<path d="M290.001 69.5889C187.755 69.5889 104.773 94.5119 104.773 125.221V252.379V482.854C107.664 512.806 192.962 510.363 293.382 510.363C393.801 510.363 472.338 512.806 475.228 482.854V252.379V125.221C475.228 94.5119 392.246 69.5889 290.001 69.5889ZM264.422 136.185C428.373 244.784 460.22 379.923 335.909 468.448C335.909 468.448 370.278 393.633 361.955 352.026C353.632 310.419 335.768 290.371 294.11 255.913C282.404 293.948 266.48 319.699 252.379 338.466C232.761 364.578 222.368 373.215 219.963 397.074C216.489 431.53 253.43 471.888 253.43 471.888C240.476 468.828 161.84 423.784 169.2 350.77C176.528 278.082 243.356 276.801 264.422 136.185Z" fill="#3f3f3f"/>

</g>

</svg>