<svg width="300" height="40" viewBox="0 0 300 40" fill="none" xmlns="http://www.w3.org/2000/svg" xmlns:xlink="http://www.w3.org/1999/xlink">

<g transform="translate(130.000000, 0.000000) scale(2.000000 2.000000) "> 

<g clip-path="url(#clip0)">
<path opacity="0.953" d="M9.99934 0C15.514 0 20 4.44646 20 10C20 15.5172 15.514 20 9.99934 20C4.48599 20 0 15.5172 0 10C0 4.44646 4.48599 0 9.99934 0V0Z" fill="#60BE60"/>
<path opacity="0.95" fill-rule="evenodd" clip-rule="evenodd" d="M10 19C14.9706 19 19 14.9706 19 10C19 5.02944 14.9706 1 10 1C5.02944 1 1 5.02944 1 10C1 14.9706 5.02944 19 10 19ZM10 20C15.5228 20 20 15.5228 20 10C20 4.47715 15.5228 0 10 0C4.47715 0 0 4.47715 0 10C0 15.5228 4.47715 20 10 20Z" fill="#398C39"/>
</g>
<defs>
<clipPath id="clip0">
<path d="M0 0H20V20H0V0Z" fill="white"/>
</clipPath>
</defs>

</g>%n%n
<g transform="translate(138.000000, 8.000000) scale(0.750000 0.750000) "> 

<path fill-rule="evenodd" fill="rgb(100%, 100%, 100%)" fill-opacity="1" stroke-width="5" stroke-linecap="round" stroke-linejoin="round" stroke="rgb(100%, 100%, 100%)" stroke-opacity="1" stroke-miterlimit="4" d="M 305.646973 68.959961 C 304.089355 68.959961 302.460938 69.101562 300.83252 69.243164 L 300.83252 151.30127 C 302.460938 151.159668 304.089355 151.088867 305.646973 151.088867 C 328.232422 151.088867 354.570312 167.797852 381.616211 173.674316 L 381.616211 91.54541 C 354.570312 85.668945 328.232422 68.959961 305.646973 68.959961 Z M 305.646973 68.959961 " transform="matrix(0.0551724, 0, 0, 0.0551724, 0, 0)"/>
<path fill="none" stroke-width="10" stroke-linecap="round" stroke-linejoin="round" stroke="rgb(100%, 100%, 100%)" stroke-opacity="1" stroke-miterlimit="4" d="M 130.48584 68.605957 L 132.185059 314.780273 C 132.32666 330.427246 179.196777 350.888672 201.640625 350.888672 C 231.730957 350.888672 278.24707 326.25 305.646973 326.25 C 333.046875 326.25 365.827637 350.888672 398.679199 350.888672 C 431.530762 350.888672 469.904785 331.772461 469.904785 331.772461 L 469.904785 74.411621 C 469.904785 74.411621 431.530762 93.598633 398.679199 93.598633 C 365.827637 93.598633 333.046875 68.959961 305.646973 68.959961 C 278.24707 68.959961 231.730957 93.598633 201.640625 93.598633 C 171.479492 93.598633 130.48584 68.605957 130.48584 68.605957 Z M 130.48584 68.605957 " transform="matrix(0.0551724, 0, 0, 0.0551724, 0, 0)"/>
<path fill-rule="evenodd" fill="rgb(100%, 100%, 100%)" fill-opacity="1" stroke-width="5" stroke-linecap="round" stroke-linejoin="round" stroke="rgb(100%, 100%, 100%)" stroke-opacity="1" stroke-miterlimit="4" d="M 467.851562 162.983398 C 462.541504 165.532227 428.981934 181.179199 398.679199 181.179199 C 394.855957 181.179199 390.961914 180.825195 387.067871 180.258789 L 387.067871 262.387695 C 390.961914 262.954102 394.855957 263.308105 398.679199 263.308105 C 428.981934 263.308105 462.541504 247.661133 467.851562 245.112305 Z M 467.851562 162.983398 " transform="matrix(0.0551724, 0, 0, 0.0551724, 0, 0)"/>
<path fill-rule="evenodd" fill="rgb(100%, 100%, 100%)" fill-opacity="1" stroke-width="5" stroke-linecap="round" stroke-linejoin="round" stroke="rgb(100%, 100%, 100%)" stroke-opacity="1" stroke-miterlimit="4" d="M 305.646973 244.121094 C 304.089355 244.121094 302.460938 244.262695 300.83252 244.404297 L 300.83252 326.533203 C 302.460938 326.391602 304.089355 326.25 305.646973 326.25 C 328.232422 326.25 354.570312 343.029785 381.616211 348.835449 L 381.616211 266.706543 C 354.570312 260.900879 328.232422 244.121094 305.646973 244.121094 Z M 305.646973 244.121094 " transform="matrix(0.0551724, 0, 0, 0.0551724, 0, 0)"/>
<path fill-rule="nonzero" fill="rgb(100%, 100%, 100%)" fill-opacity="1" stroke-width="5" stroke-linecap="round" stroke-linejoin="round" stroke="rgb(100%, 100%, 100%)" stroke-opacity="1" stroke-miterlimit="4" d="M 130.48584 243.76709 L 132.185059 314.780273 C 132.539062 330.427246 179.196777 350.888672 201.640625 350.888672 C 204.472656 350.888672 207.446289 350.605469 210.490723 350.180664 L 210.490723 268.122559 C 207.446289 268.476562 204.472656 268.759766 201.640625 268.759766 C 171.479492 268.759766 130.48584 243.76709 130.48584 243.76709 Z M 130.48584 243.76709 " transform="matrix(0.0551724, 0, 0, 0.0551724, 0, 0)"/>
<path fill-rule="nonzero" fill="rgb(100%, 100%, 100%)" fill-opacity="1" stroke-width="5" stroke-linecap="round" stroke-linejoin="round" stroke="rgb(100%, 100%, 100%)" stroke-opacity="1" stroke-miterlimit="4" d="M 296.088867 157.390137 C 272.724609 161.000977 240.864258 175.302734 215.305176 179.833984 L 215.305176 261.962891 C 240.864258 257.431641 272.724609 243.059082 296.088867 239.519043 Z M 296.088867 157.390137 " transform="matrix(0.0551724, 0, 0, 0.0551724, 0, 0)"/>
<path fill-rule="nonzero" fill="rgb(100%, 100%, 100%)" fill-opacity="1" stroke-width="5" stroke-linecap="round" stroke-linejoin="round" stroke="rgb(100%, 100%, 100%)" stroke-opacity="1" stroke-miterlimit="4" d="M 130.48584 68.605957 L 132.185059 139.619141 C 132.539062 155.266113 179.196777 175.727539 201.640625 175.727539 C 204.472656 175.727539 207.446289 175.444336 210.490723 175.019531 L 210.490723 92.890625 C 207.446289 93.31543 204.472656 93.598633 201.640625 93.598633 C 171.479492 93.598633 130.48584 68.605957 130.48584 68.605957 Z M 130.48584 68.605957 " transform="matrix(0.0551724, 0, 0, 0.0551724, 0, 0)"/>
<path fill-rule="evenodd" fill="rgb(100%, 100%, 100%)" fill-opacity="1" stroke-width="10" stroke-linecap="round" stroke-linejoin="round" stroke="rgb(100%, 100%, 100%)" stroke-opacity="1" stroke-miterlimit="4" d="M 116.467285 529.873047 L 116.467285 66.552734 L 131.123047 66.552734 L 131.123047 529.873047 Z M 116.467285 529.873047 " transform="matrix(0.0551724, 0, 0, 0.0551724, 0, 0)"/>

</g>%n%n</svg>