<svg width="300" height="40" viewBox="0 0 300 40" fill="none" xmlns="http://www.w3.org/2000/svg" xmlns:xlink="http://www.w3.org/1999/xlink">

<g transform="translate(130.000000, 0.000000) scale(2.000000 2.000000) "> 

<g clip-path="url(#clip0)">
<path opacity="0.953" d="M9.99934 0C15.514 0 20 4.44646 20 10C20 15.5172 15.514 20 9.99934 20C4.48599 20 0 15.5172 0 10C0 4.44646 4.48599 0 9.99934 0V0Z" fill="#60BE60"/>
<path opacity="0.95" fill-rule="evenodd" clip-rule="evenodd" d="M10 19C14.9706 19 19 14.9706 19 10C19 5.02944 14.9706 1 10 1C5.02944 1 1 5.02944 1 10C1 14.9706 5.02944 19 10 19ZM10 20C15.5228 20 20 15.5228 20 10C20 4.47715 15.5228 0 10 0C4.47715 0 0 4.47715 0 10C0 15.5228 4.47715 20 10 20Z" fill="#398C39"/>
</g>
<defs>
<clipPath id="clip0">
<path d="M0 0H20V20H0V0Z" fill="white"/>
</clipPath>
</defs>

</g>%n%n
<g transform="translate(138.000000, 8.000000) scale(0.750000 0.750000) "> 

<path fill-rule="nonzero" fill="rgb(100%, 100%, 100%)" fill-opacity="1" d="M 26.398438 13.265625 C 27.003906 13.265625 27.515625 13.054688 27.9375 12.632812 C 28.359375 12.210938 28.570312 11.699219 28.570312 11.09375 C 28.570312 10.488281 28.359375 9.972656 27.9375 9.554688 C 27.515625 9.132812 27.003906 8.921875 26.398438 8.921875 C 25.816406 8.921875 25.308594 9.132812 24.875 9.554688 C 24.445312 9.972656 24.226562 10.488281 24.226562 11.09375 C 24.226562 11.699219 24.445312 12.210938 24.875 12.632812 C 25.308594 13.054688 25.816406 13.265625 26.398438 13.265625 Z M 28.378906 28.109375 L 27.597656 27.652344 C 27.339844 28.085938 26.960938 28.300781 26.464844 28.300781 C 26.226562 28.300781 26 28.238281 25.785156 28.109375 L 2.96875 14.691406 L 2.511719 15.46875 L 25.332031 28.886719 C 25.675781 29.082031 26.054688 29.175781 26.464844 29.175781 C 27.308594 29.175781 27.945312 28.820312 28.378906 28.109375 Z M 10.128906 17.703125 C 10.257812 17.726562 10.441406 17.695312 10.679688 17.605469 L 16.9375 15.566406 C 17.539062 15.347656 17.875 15.015625 17.941406 14.5625 C 18.003906 14.105469 18.027344 13.859375 18.003906 13.816406 L 17.066406 10.410156 L 20.824219 12.648438 L 21.28125 15.921875 C 21.367188 16.503906 21.613281 16.914062 22.023438 17.152344 L 26.917969 20.003906 C 27.089844 20.113281 27.261719 20.167969 27.4375 20.167969 C 27.761719 20.167969 28.03125 20.054688 28.246094 19.828125 C 28.460938 19.601562 28.570312 19.335938 28.570312 19.035156 C 28.570312 18.601562 28.375 18.277344 27.988281 18.0625 L 24.097656 15.792969 L 23.675781 9.957031 C 23.613281 9.179688 23.277344 8.617188 22.671875 8.273438 L 17.066406 4.964844 C 16.546875 4.664062 16.007812 4.515625 15.445312 4.515625 C 14.429688 4.515625 13.640625 4.925781 13.078125 5.746094 C 12.753906 6.242188 12.59375 6.78125 12.59375 7.363281 C 12.59375 7.625 12.625 7.882812 12.691406 8.144531 L 14.214844 13.101562 L 9.644531 14.5625 C 8.996094 14.753906 8.628906 15.230469 8.542969 15.988281 C 8.410156 17.003906 8.941406 17.574219 10.128906 17.703125 Z M 10.128906 17.703125 "/>

</g>%n%n</svg>