<svg width="300" height="40" viewBox="0 0 300 40" fill="none" xmlns="http://www.w3.org/2000/svg" >

<g transform="translate(130.000000, 0.000000) scale(2.000000 2.000000) "> 

<g clip-path="url(#clip0)">
<path opacity="0.953" d="M9.99934 0C15.514 0 20 4.44646 20 10C20 15.5172 15.514 20 9.99934 20C4.48599 20 0 15.5172 0 10C0 4.44646 4.48599 0 9.99934 0V0Z" fill="#60BE60"/>
<path opacity="0.95" fill-rule="evenodd" clip-rule="evenodd" d="M10 19C14.9706 19 19 14.9706 19 10C19 5.02944 14.9706 1 10 1C5.02944 1 1 5.02944 1 10C1 14.9706 5.02944 19 10 19ZM10 20C15.5228 20 20 15.5228 20 10C20 4.47715 15.5228 0 10 0C4.47715 0 0 4.47715 0 10C0 15.5228 4.47715 20 10 20Z" fill="#398C39"/>
</g>
<defs>
<clipPath id="clip0">
<path d="M0 0H20V20H0V0Z" fill="white"/>
</clipPath>
</defs>

</g>


<g transform="translate(138.000000, 8.000000) scale(0.041379 0.041379) "> 

<path d="M137.464 354.894C180.172 354.894 214.793 320.273 214.793 277.566C214.793 234.858 180.172 200.237 137.464 200.237C94.7565 200.237 60.1353 234.858 60.1353 277.566C60.1353 320.273 94.7565 354.894 137.464 354.894Z" fill="#ffffff" stroke="#ffffff" stroke-width="36.4531" stroke-miterlimit="10"/>
<path d="M569.338 107.743H534.989L464.655 351.457C453.206 390.713 417.221 418.519 376.33 418.519H227.484C196.407 418.519 170.236 444.69 170.236 475.767C170.236 506.845 196.407 533.015 227.484 533.015H355.066C410.678 533.015 459.748 497.031 474.469 443.054L481.012 418.519L569.338 107.743ZM366.516 500.302H252.019V451.232H366.516V500.302Z" fill="#ffffff"/>
<path d="M335.767 165.111L336.158 39.6104" stroke="#ffffff" stroke-width="23.7119" stroke-linecap="round" stroke-linejoin="round"/>
<path d="M394.358 83.9292L363.074 165.281" stroke="#ffffff" stroke-width="23.7119" stroke-linecap="round" stroke-linejoin="round"/>
<path d="M433.531 115.506L395.207 165.111" stroke="#ffffff" stroke-width="23.7119" stroke-linecap="round" stroke-linejoin="round"/>
<path d="M282.422 80.4565L309.405 165.281" stroke="#ffffff" stroke-width="23.7119" stroke-linecap="round" stroke-linejoin="round"/>
<path d="M239.339 116.994L277.272 165.111" stroke="#ffffff" stroke-width="23.7119" stroke-linecap="round" stroke-linejoin="round"/>

</g>

</svg>