<svg width="300" height="35" viewBox="0 0 300 35" fill="none" xmlns="http://www.w3.org/2000/svg">

<g transform="translate(135.000000, 2.000000) scale(1.500000 1.500000) "> 

<g clip-path="url(#clip0)">
<path opacity="0.953" d="M9.99934 0C15.514 0 20 4.44646 20 10C20 15.5172 15.514 20 9.99934 20C4.48599 20 0 15.5172 0 10C0 4.44646 4.48599 0 9.99934 0V0Z" fill="#60BE60"/>
<path opacity="0.95" fill-rule="evenodd" clip-rule="evenodd" d="M10 19C14.9706 19 19 14.9706 19 10C19 5.02944 14.9706 1 10 1C5.02944 1 1 5.02944 1 10C1 14.9706 5.02944 19 10 19ZM10 20C15.5228 20 20 15.5228 20 10C20 4.47715 15.5228 0 10 0C4.47715 0 0 4.47715 0 10C0 15.5228 4.47715 20 10 20Z" fill="#398C39"/>
</g>
<defs>
<clipPath id="clip0">
<path d="M0 0H20V20H0V0Z" fill="white"/>
</clipPath>
</defs>

</g>


<g transform="translate(141.000000, 8.000000) scale(0.031034 0.031034) "> 

<path d="M177.684 141.985C203.635 141.985 224.673 120.947 224.673 94.9958C224.673 69.0445 203.635 48.0068 177.684 48.0068C151.732 48.0068 130.695 69.0445 130.695 94.9958C130.695 120.947 151.732 141.985 177.684 141.985Z" fill="#ffffff"/>
<path d="M389.134 141.985C415.085 141.985 436.123 120.947 436.123 94.9958C436.123 69.0445 415.085 48.0068 389.134 48.0068C363.183 48.0068 342.145 69.0445 342.145 94.9958C342.145 120.947 363.183 141.985 389.134 141.985Z" fill="#ffffff"/>
<path d="M309.253 170.178L382.085 188.974L403.23 214.818L349.193 353.435L241.119 311.145L288.108 193.673L309.253 170.178Z" fill="#ffffff"/>
<path d="M156.539 106.743L203.527 153.732C215.275 165.479 231.721 172.528 245.818 174.877L299.855 177.227C306.903 177.227 316.301 179.576 323.349 181.925L384.435 207.769C417.327 221.866 433.773 259.457 422.026 292.349L407.929 329.941" stroke="#ffffff" stroke-width="46.9885" stroke-miterlimit="10" stroke-linecap="round"/>
<path d="M346.844 294.699L264.613 508.499" stroke="#ffffff" stroke-width="46.9885" stroke-miterlimit="10" stroke-linecap="round" stroke-linejoin="round"/>
<path d="M290.457 259.458L229.372 393.376" stroke="#ffffff" stroke-width="46.9885" stroke-miterlimit="10" stroke-linecap="round" stroke-linejoin="round"/>

</g>

</svg>