<svg width="300" height="40" viewBox="0 0 300 40" fill="none" xmlns="http://www.w3.org/2000/svg" xmlns:xlink="http://www.w3.org/1999/xlink">

<g transform="translate(130.000000, 0.000000) scale(2.000000 2.000000) "> 

<g clip-path="url(#clip0)">
<path opacity="0.953" d="M9.99934 0C15.514 0 20 4.44646 20 10C20 15.5172 15.514 20 9.99934 20C4.48599 20 0 15.5172 0 10C0 4.44646 4.48599 0 9.99934 0V0Z" fill="#60BE60"/>
<path opacity="0.95" fill-rule="evenodd" clip-rule="evenodd" d="M10 19C14.9706 19 19 14.9706 19 10C19 5.02944 14.9706 1 10 1C5.02944 1 1 5.02944 1 10C1 14.9706 5.02944 19 10 19ZM10 20C15.5228 20 20 15.5228 20 10C20 4.47715 15.5228 0 10 0C4.47715 0 0 4.47715 0 10C0 15.5228 4.47715 20 10 20Z" fill="#398C39"/>
</g>
<defs>
<clipPath id="clip0">
<path d="M0 0H20V20H0V0Z" fill="white"/>
</clipPath>
</defs>

</g>%n%n
<g transform="translate(138.000000, 8.000000) scale(0.750000 0.750000) "> 

<path fill-rule="evenodd" fill="rgb(100%, 100%, 100%)" fill-opacity="1" d="M 20 2.667969 C 20.738281 2.667969 21.332031 3.261719 21.332031 4 L 21.332031 28 C 21.332031 28.738281 20.738281 29.332031 20 29.332031 C 19.261719 29.332031 18.667969 28.738281 18.667969 28 L 18.667969 4 C 18.667969 3.261719 19.261719 2.667969 20 2.667969 Z M 20 2.667969 "/>
<path fill-rule="evenodd" fill="rgb(100%, 100%, 100%)" fill-opacity="1" d="M 10.652344 5.332031 L 29.292969 5.332031 L 29.332031 6.625 C 29.4375 10.074219 28.933594 12.707031 27.472656 15.023438 C 26.042969 17.292969 23.785156 19.109375 20.730469 21.113281 L 20 21.59375 L 19.269531 21.117188 C 16.179688 19.09375 13.992188 17.242188 12.605469 14.957031 C 11.199219 12.640625 10.703125 10.03125 10.667969 6.679688 Z M 13.378906 8 C 13.519531 10.382812 13.988281 12.09375 14.882812 13.574219 C 15.867188 15.195312 17.445312 16.660156 20 18.398438 C 22.570312 16.65625 24.203125 15.214844 25.214844 13.601562 C 26.140625 12.140625 26.617188 10.429688 26.671875 8 Z M 13.378906 8 "/>
<path fill-rule="nonzero" fill="rgb(100%, 100%, 100%)" fill-opacity="1" d="M 10.667969 26.667969 C 10.667969 28.140625 8.875 29.332031 6.667969 29.332031 C 4.457031 29.332031 2.667969 28.140625 2.667969 26.667969 C 2.667969 25.195312 4.457031 24 6.667969 24 C 8.875 24 10.667969 25.195312 10.667969 26.667969 Z M 10.667969 26.667969 "/>
<path fill-rule="evenodd" fill="rgb(86.27451%, 86.27451%, 86.27451%)" fill-opacity="1" d="M 10.667969 18.667969 L 29.332031 18.667969 L 26.667969 24 L 13.332031 24 Z M 10.667969 18.667969 "/>

</g>%n%n</svg>