<svg width="300" height="40" viewBox="0 0 300 40" fill="none" xmlns="http://www.w3.org/2000/svg" xmlns:xlink="http://www.w3.org/1999/xlink">

<g transform="translate(130.000000, 0.000000) scale(2.000000 2.000000) "> 

<g clip-path="url(#clip0)">
<path opacity="0.953" d="M9.99934 0C15.514 0 20 4.44646 20 10C20 15.5172 15.514 20 9.99934 20C4.48599 20 0 15.5172 0 10C0 4.44646 4.48599 0 9.99934 0V0Z" fill="#60BE60"/>
<path opacity="0.95" fill-rule="evenodd" clip-rule="evenodd" d="M10 19C14.9706 19 19 14.9706 19 10C19 5.02944 14.9706 1 10 1C5.02944 1 1 5.02944 1 10C1 14.9706 5.02944 19 10 19ZM10 20C15.5228 20 20 15.5228 20 10C20 4.47715 15.5228 0 10 0C4.47715 0 0 4.47715 0 10C0 15.5228 4.47715 20 10 20Z" fill="#398C39"/>
</g>
<defs>
<clipPath id="clip0">
<path d="M0 0H20V20H0V0Z" fill="white"/>
</clipPath>
</defs>

</g>%n%n
<g transform="translate(138.000000, 8.000000) scale(2.000000 2.000000) "> 

<path fill-rule="nonzero" fill="rgb(100%, 100%, 100%)" fill-opacity="1" d="M 2.789062 2.09375 C 2.566406 1.933594 2.253906 1.984375 2.09375 2.210938 C 1.933594 2.433594 1.984375 2.746094 2.210938 2.90625 L 4.804688 4.757812 C 4.667969 5.597656 4.699219 6.457031 4.898438 7.285156 L 4.019531 10.363281 C 3.945312 10.628906 4.097656 10.90625 4.363281 10.980469 C 4.628906 11.054688 4.90625 10.902344 4.980469 10.636719 L 5.859375 7.566406 L 8.144531 9.855469 C 8.339844 10.046875 8.660156 10.046875 8.855469 9.855469 C 9.046875 9.660156 9.046875 9.339844 8.855469 9.144531 L 6.90625 7.199219 L 6.949219 7.183594 C 6.738281 6.550781 6.671875 5.878906 6.757812 5.21875 L 9.695312 3.960938 C 9.949219 3.851562 10.066406 3.558594 9.960938 3.304688 C 9.851562 3.050781 9.558594 2.933594 9.304688 3.039062 L 6.671875 4.167969 L 5.167969 3.792969 Z M 2.789062 2.09375 "/>
<path fill-rule="nonzero" fill="rgb(100%, 100%, 100%)" fill-opacity="1" d="M 6 3.5 C 6.414062 3.5 6.75 3.164062 6.75 2.75 C 6.75 2.335938 6.414062 2 6 2 C 5.585938 2 5.25 2.335938 5.25 2.75 C 5.25 3.164062 5.585938 3.5 6 3.5 Z M 6 3.5 "/>

</g>%n%n</svg>