<svg width="300" height="40" viewBox="0 0 300 40" fill="none" xmlns="http://www.w3.org/2000/svg" xmlns:xlink="http://www.w3.org/1999/xlink">

<g transform="translate(130.000000, 0.000000) scale(2.000000 2.000000) "> 

<g clip-path="url(#clip0)">
<path opacity="0.953" d="M9.99934 0C15.514 0 20 4.44646 20 10C20 15.5172 15.514 20 9.99934 20C4.48599 20 0 15.5172 0 10C0 4.44646 4.48599 0 9.99934 0V0Z" fill="#60BE60"/>
<path opacity="0.95" fill-rule="evenodd" clip-rule="evenodd" d="M10 19C14.9706 19 19 14.9706 19 10C19 5.02944 14.9706 1 10 1C5.02944 1 1 5.02944 1 10C1 14.9706 5.02944 19 10 19ZM10 20C15.5228 20 20 15.5228 20 10C20 4.47715 15.5228 0 10 0C4.47715 0 0 4.47715 0 10C0 15.5228 4.47715 20 10 20Z" fill="#398C39"/>
</g>
<defs>
<clipPath id="clip0">
<path d="M0 0H20V20H0V0Z" fill="white"/>
</clipPath>
</defs>

</g>%n%n
<g transform="translate(138.000000, 8.000000) scale(0.750000 0.750000) "> 

<path fill-rule="nonzero" fill="rgb(100%, 100%, 100%)" fill-opacity="1" d="M 27.335938 17.347656 L 27.347656 17.328125 L 26.980469 17.328125 C 25.785156 17.226562 24.9375 16.804688 24.398438 16.425781 L 24.398438 15.957031 L 26.640625 15.957031 L 26.640625 15.945312 C 26.726562 15.941406 26.8125 15.9375 26.898438 15.933594 C 29.519531 15.75 30.121094 13.28125 30.121094 13.28125 C 25.726562 15.332031 23.78125 11.796875 23.683594 11.605469 L 23.683594 11.597656 L 23.671875 11.597656 L 21.503906 9.582031 L 18.410156 9.582031 L 18.410156 8.101562 L 19.910156 8.101562 C 19.910156 8.101562 18.015625 7.378906 17.054688 6.417969 C 16.089844 5.453125 16 4.128906 16 4.128906 C 16 4.128906 15.910156 5.453125 14.945312 6.417969 C 13.984375 7.378906 12.089844 8.101562 12.089844 8.101562 L 13.589844 8.101562 L 13.589844 9.582031 L 10.214844 9.582031 L 8.328125 11.597656 L 8.320312 11.597656 C 8.320312 11.597656 6.394531 15.390625 1.878906 13.28125 C 1.878906 13.28125 2.476562 15.726562 5.0625 15.929688 L 5.050781 15.957031 L 8.15625 15.957031 C 7.785156 16.335938 6.777344 17.175781 5.019531 17.328125 L 4.167969 17.328125 L 4.179688 17.347656 C 3.503906 17.320312 2.738281 17.191406 1.878906 16.917969 C 1.878906 16.917969 2.472656 18.574219 5.039062 18.722656 L 5.050781 18.742188 L 7.074219 18.742188 L 7.074219 27.871094 L 13.789062 27.871094 L 13.789062 23.890625 C 13.789062 22.667969 14.78125 21.679688 16 21.679688 C 17.21875 21.679688 18.210938 22.667969 18.210938 23.890625 L 18.210938 27.871094 L 24.925781 27.871094 L 24.925781 18.742188 L 26.640625 18.742188 L 26.644531 18.734375 C 26.730469 18.734375 26.816406 18.730469 26.898438 18.726562 C 29.519531 18.601562 30.121094 16.917969 30.121094 16.917969 C 29.050781 17.257812 28.125 17.371094 27.335938 17.347656 Z M 27.335938 17.347656 "/>

</g>%n%n</svg>