<svg width="40" height="40" viewBox="0 0 40 40" fill="none" xmlns="http://www.w3.org/2000/svg" >

<g transform="translate(0.000000, 0.000000) scale(2.000000 2.000000) "> 

<g clip-path="url(#clip0)">
<path opacity="0.953" d="M9.99934 0C15.514 0 20 4.44646 20 10C20 15.5172 15.514 20 9.99934 20C4.48599 20 0 15.5172 0 10C0 4.44646 4.48599 0 9.99934 0V0Z" fill="#60BE60"/>
<path opacity="0.95" fill-rule="evenodd" clip-rule="evenodd" d="M10 19C14.9706 19 19 14.9706 19 10C19 5.02944 14.9706 1 10 1C5.02944 1 1 5.02944 1 10C1 14.9706 5.02944 19 10 19ZM10 20C15.5228 20 20 15.5228 20 10C20 4.47715 15.5228 0 10 0C4.47715 0 0 4.47715 0 10C0 15.5228 4.47715 20 10 20Z" fill="#398C39"/>
</g>
<defs>
<clipPath id="clip0">
<path d="M0 0H20V20H0V0Z" fill="white"/>
</clipPath>
</defs>

</g>


<g transform="translate(8.000000, 8.000000) scale(2.000000 2.000000) "> 

<path d="M358.482 147.562C358.482 137.219 354.968 128.504 347.939 121.415C340.909 114.328 332.527 110.784 322.792 110.783C313.068 110.784 304.78 114.328 297.927 121.415C291.073 128.504 287.647 137.219 287.647 147.562C287.647 157.893 291.073 166.603 297.927 173.69C304.78 180.779 313.068 184.323 322.792 184.322C332.527 184.323 340.909 180.779 347.939 173.69C354.968 166.603 358.482 157.893 358.482 147.562Z" fill="#ffffff"/>
<path fill-rule="evenodd" clip100-rule="evenodd" d="M393.886 523.221V341.366V523.221Z" fill="#ffffff"/>
<path d="M393.886 523.221V341.366" stroke="#ffffff" stroke-width="52.7189" stroke-linecap="round"/>
<path fill-rule="evenodd" clip100-rule="evenodd" d="M388.61 350.667L342.026 226.896L388.61 350.667Z" fill="#ffffff"/>
<path d="M388.61 350.667L342.026 226.896" stroke="#ffffff" stroke-width="67.0968" stroke-linecap="round"/>
<path d="M246.63 197.443L283.461 253.614L351.037 223.892" stroke="#ffffff" stroke-width="43.1333" stroke-linecap="round" stroke-linejoin="round"/>
<path fill-rule="evenodd" clip100-rule="evenodd" d="M247.51 198.545L232.222 167.092L239.749 156.502L172.303 32.0059L161.075 38.6347L155.283 42.054L144.03 48.6979L207.945 175.279L220.359 174.096L237.425 204.499L243.539 203.538L247.51 198.545Z" fill="#ffffff" stroke="#ffffff" stroke-width="4.31337" stroke-linejoin="round"/>
<path d="M244.55 358.582H219.884" stroke="#ffffff" stroke-width="20" stroke-linecap="round" stroke-linejoin="round"/>
<path d="M217.725 548.243L217.884 382.582" stroke="#ffffff" stroke-width="20" stroke-linecap="round" stroke-linejoin="round"/>
<path d="M257.725 548.243L257.884 382.582" stroke="#ffffff" stroke-width="20" stroke-linecap="round" stroke-linejoin="round"/>
<path d="M297.725 548.243L297.884 382.582" stroke="#ffffff" stroke-width="20" stroke-linecap="round" stroke-linejoin="round"/>
<path d="M296.551 358.582H271.884" stroke="#ffffff" stroke-width="20" stroke-linecap="round" stroke-linejoin="round"/>

</g>

</svg>