<svg width="300" height="40" viewBox="0 0 300 40" fill="none" xmlns="http://www.w3.org/2000/svg" xmlns:xlink="http://www.w3.org/1999/xlink" version="1.1">

<g transform="translate(130.000000, 0.000000) scale(2.000000 2.000000) "> 

<g clip-path="url(#clip0)">
<path opacity="0.953" d="M9.99934 0C15.514 0 20 4.44646 20 10C20 15.5172 15.514 20 9.99934 20C4.48599 20 0 15.5172 0 10C0 4.44646 4.48599 0 9.99934 0V0Z" fill="#60BE60"/>
<path opacity="0.95" fill-rule="evenodd" clip-rule="evenodd" d="M10 19C14.9706 19 19 14.9706 19 10C19 5.02944 14.9706 1 10 1C5.02944 1 1 5.02944 1 10C1 14.9706 5.02944 19 10 19ZM10 20C15.5228 20 20 15.5228 20 10C20 4.47715 15.5228 0 10 0C4.47715 0 0 4.47715 0 10C0 15.5228 4.47715 20 10 20Z" fill="#398C39"/>
</g>
<defs>
<clipPath id="clip0">
<path d="M0 0H20V20H0V0Z" fill="white"/>
</clipPath>
</defs>

</g>%n%n
<g transform="translate(138.000000, 8.000000) scale(2.000000 2.000000) "> 

<g id="surface1">
<path style="fill:none;stroke-width:37.291;stroke-linecap:round;stroke-linejoin:round;stroke:rgb(100%,100%,100%);stroke-opacity:1;stroke-miterlimit:10;" d="M 511.842448 513.730469 L 68.157552 444.817708 " transform="matrix(0.0206897,0,0,0.0206897,0,0)"/>
<path style=" stroke:none;fill-rule:nonzero;fill:rgb(100%,100%,100%);fill-opacity:1;" d="M 8.082031 3.300781 C 8.617188 3.300781 9.046875 2.867188 9.046875 2.335938 C 9.046875 1.800781 8.617188 1.371094 8.082031 1.371094 C 7.550781 1.371094 7.117188 1.800781 7.117188 2.335938 C 7.117188 2.867188 7.550781 3.300781 8.082031 3.300781 Z M 8.082031 3.300781 "/>
<path style=" stroke:none;fill-rule:nonzero;fill:rgb(100%,100%,100%);fill-opacity:1;" d="M 2.027344 9.550781 L 1.292969 10.628906 C 1.292969 10.628906 2.796875 10.476562 3.300781 9.820312 Z M 2.027344 9.550781 "/>
<path style="fill:none;stroke-width:37.291;stroke-linecap:round;stroke-linejoin:round;stroke:rgb(100%,100%,100%);stroke-opacity:1;stroke-miterlimit:10;" d="M 493.151042 290 L 355.325521 178.040365 L 247.141927 144.622396 L 213.535156 66.269531 " transform="matrix(0.0206897,0,0,0.0206897,0,0)"/>
<path style=" stroke:none;fill-rule:nonzero;fill:rgb(100%,100%,100%);fill-opacity:1;" d="M 4.609375 5.226562 L 6.269531 6.230469 L 8.46875 4.226562 L 7.3125 3.414062 L 6.617188 3.300781 Z M 4.609375 5.226562 "/>
<path style="fill:none;stroke-width:46.6138;stroke-linecap:round;stroke-linejoin:round;stroke:rgb(100%,100%,100%);stroke-opacity:1;stroke-miterlimit:10;" d="M 330.970052 441.041667 L 353.4375 351.549479 L 239.589844 269.420573 L 243.365885 362.688802 L 146.510417 411.210938 " transform="matrix(0.0206897,0,0,0.0206897,0,0)"/>
</g>

</g>%n%n</svg>