<svg width="300" height="40" viewBox="0 0 300 40" fill="none" xmlns="http://www.w3.org/2000/svg" xmlns:xlink="http://www.w3.org/1999/xlink">

<g transform="translate(130.000000, 0.000000) scale(2.000000 2.000000) "> 

<g clip-path="url(#clip0)">
<path opacity="0.953" d="M9.99934 0C15.514 0 20 4.44646 20 10C20 15.5172 15.514 20 9.99934 20C4.48599 20 0 15.5172 0 10C0 4.44646 4.48599 0 9.99934 0V0Z" fill="#60BE60"/>
<path opacity="0.95" fill-rule="evenodd" clip-rule="evenodd" d="M10 19C14.9706 19 19 14.9706 19 10C19 5.02944 14.9706 1 10 1C5.02944 1 1 5.02944 1 10C1 14.9706 5.02944 19 10 19ZM10 20C15.5228 20 20 15.5228 20 10C20 4.47715 15.5228 0 10 0C4.47715 0 0 4.47715 0 10C0 15.5228 4.47715 20 10 20Z" fill="#398C39"/>
</g>
<defs>
<clipPath id="clip0">
<path d="M0 0H20V20H0V0Z" fill="white"/>
</clipPath>
</defs>

</g>%n%n
<g transform="translate(138.000000, 8.000000) scale(2.000000 2.000000) "> 

<path fill-rule="nonzero" fill="rgb(100%, 100%, 100%)" fill-opacity="1" d="M 2.222656 3.179688 C 2.742188 3.179688 3.167969 2.753906 3.167969 2.234375 C 3.167969 1.710938 2.742188 1.289062 2.222656 1.289062 C 1.699219 1.289062 1.277344 1.710938 1.277344 2.234375 C 1.277344 2.753906 1.699219 3.179688 2.222656 3.179688 Z M 2.222656 3.179688 "/>
<path fill-rule="nonzero" fill="rgb(100%, 100%, 100%)" fill-opacity="1" d="M 3.023438 5.351562 L 6.664062 8.992188 C 6.238281 8.992188 5.765625 8.898438 5.339844 8.757812 C 5.152344 8.707031 4.492188 8.613281 4.207031 8.851562 C 3.59375 9.464844 3.074219 10.269531 2.789062 10.550781 C 2.503906 10.835938 2.078125 10.742188 1.65625 10.316406 C 1.277344 9.9375 1.132812 9.464844 1.417969 9.179688 C 1.75 8.945312 2.550781 8.378906 3.167969 7.8125 C 3.449219 7.527344 3.308594 6.769531 3.261719 6.675781 C 3.074219 6.25 3.023438 5.777344 3.023438 5.351562 Z M 9.644531 2.375 C 7.894531 0.578125 5.53125 1.242188 4.066406 2.660156 C 3.546875 3.179688 3.167969 3.839844 3.074219 4.550781 L 7.46875 8.945312 C 8.175781 8.804688 8.839844 8.472656 9.359375 7.953125 C 10.777344 6.488281 11.4375 4.125 9.644531 2.375 Z M 9.644531 2.375 "/>

</g>%n%n</svg>