<svg width="300" height="40" viewBox="0 0 300 40" fill="none" xmlns="http://www.w3.org/2000/svg" xmlns:xlink="http://www.w3.org/1999/xlink">

<g transform="translate(130.000000, 0.000000) scale(2.000000 2.000000) "> 

<g clip-path="url(#clip0)">
<path opacity="0.953" d="M9.99934 0C15.514 0 20 4.44646 20 10C20 15.5172 15.514 20 9.99934 20C4.48599 20 0 15.5172 0 10C0 4.44646 4.48599 0 9.99934 0V0Z" fill="#60BE60"/>
<path opacity="0.95" fill-rule="evenodd" clip-rule="evenodd" d="M10 19C14.9706 19 19 14.9706 19 10C19 5.02944 14.9706 1 10 1C5.02944 1 1 5.02944 1 10C1 14.9706 5.02944 19 10 19ZM10 20C15.5228 20 20 15.5228 20 10C20 4.47715 15.5228 0 10 0C4.47715 0 0 4.47715 0 10C0 15.5228 4.47715 20 10 20Z" fill="#398C39"/>
</g>
<defs>
<clipPath id="clip0">
<path d="M0 0H20V20H0V0Z" fill="white"/>
</clipPath>
</defs>

</g>%n%n
<g transform="translate(138.000000, 8.000000) scale(2.000000 2.000000) "> 

<path fill="none" stroke-width="32.7132" stroke-linecap="butt" stroke-linejoin="miter" stroke="rgb(100%, 100%, 100%)" stroke-opacity="1" stroke-miterlimit="10" d="M 196.731771 257.33724 C 250.917969 257.33724 294.908854 235.247396 294.908854 208.248698 C 294.908854 181.061198 250.917969 159.160156 196.731771 159.160156 C 142.545573 159.160156 98.554688 181.061198 98.554688 208.248698 C 98.554688 235.247396 142.545573 257.33724 196.731771 257.33724 Z M 196.731771 257.33724 " transform="matrix(0.0206897, 0, 0, 0.0206897, 0, 0)"/>
<path fill-rule="nonzero" fill="rgb(100%, 100%, 100%)" fill-opacity="1" d="M 4.070312 5.324219 C 2.886719 5.324219 1.703125 5.019531 1.703125 4.308594 C 1.703125 4.511719 1.703125 5.019531 1.703125 5.222656 C 1.703125 5.933594 2.378906 6.675781 4.070312 6.675781 C 5.761719 6.675781 6.441406 5.933594 6.441406 5.222656 C 6.441406 5.019531 6.441406 4.511719 6.441406 4.308594 C 6.441406 5.019531 5.253906 5.324219 4.070312 5.324219 Z M 4.070312 5.324219 "/>
<path fill-rule="nonzero" fill="rgb(100%, 100%, 100%)" fill-opacity="1" d="M 10.296875 1.601562 L 9.585938 1.601562 L 8.132812 6.644531 C 7.894531 7.457031 7.152344 8.03125 6.304688 8.03125 L 3.226562 8.03125 C 2.582031 8.03125 2.039062 8.570312 2.039062 9.214844 C 2.039062 9.859375 2.582031 10.398438 3.226562 10.398438 L 5.863281 10.398438 C 7.015625 10.398438 8.03125 9.65625 8.335938 8.539062 L 8.46875 8.03125 Z M 6.101562 9.722656 L 3.734375 9.722656 L 3.734375 8.707031 L 6.101562 8.707031 Z M 6.101562 9.722656 "/>

</g>%n%n</svg>