<svg width="300" height="40" viewBox="0 0 300 40" fill="none" xmlns="http://www.w3.org/2000/svg" xmlns:xlink="http://www.w3.org/1999/xlink">

<g transform="translate(130.000000, 0.000000) scale(2.000000 2.000000) "> 

<g clip-path="url(#clip0)">
<path opacity="0.953" d="M9.99934 0C15.514 0 20 4.44646 20 10C20 15.5172 15.514 20 9.99934 20C4.48599 20 0 15.5172 0 10C0 4.44646 4.48599 0 9.99934 0V0Z" fill="#60BE60"/>
<path opacity="0.95" fill-rule="evenodd" clip-rule="evenodd" d="M10 19C14.9706 19 19 14.9706 19 10C19 5.02944 14.9706 1 10 1C5.02944 1 1 5.02944 1 10C1 14.9706 5.02944 19 10 19ZM10 20C15.5228 20 20 15.5228 20 10C20 4.47715 15.5228 0 10 0C4.47715 0 0 4.47715 0 10C0 15.5228 4.47715 20 10 20Z" fill="#398C39"/>
</g>
<defs>
<clipPath id="clip0">
<path d="M0 0H20V20H0V0Z" fill="white"/>
</clipPath>
</defs>

</g>%n%n
<g transform="translate(138.000000, 8.000000) scale(0.750000 0.750000) "> 

<path fill-rule="nonzero" fill="rgb(100%, 100%, 100%)" fill-opacity="1" d="M 26.375 7.339844 C 27.757812 7.339844 28.878906 6.21875 28.878906 4.839844 C 28.878906 3.457031 27.757812 2.335938 26.375 2.335938 C 24.992188 2.335938 23.871094 3.457031 23.871094 4.839844 C 23.871094 6.21875 24.992188 7.339844 26.375 7.339844 Z M 26.375 7.339844 "/>
<path fill-rule="nonzero" fill="rgb(100%, 100%, 100%)" fill-opacity="1" d="M 19.265625 28.691406 L 25.730469 28.691406 C 25.730469 28.691406 26.21875 28.742188 26.21875 28.230469 L 26.21875 27.71875 L 27.175781 27.71875 C 27.175781 27.71875 27.394531 29.46875 26.089844 29.632812 L 19.265625 29.632812 Z M 19.265625 28.691406 "/>
<path fill-rule="nonzero" fill="rgb(100%, 100%, 100%)" fill-opacity="1" d="M 3.136719 23.695312 L 7.714844 28.265625 C 7.714844 28.265625 8.019531 28.640625 8.382812 28.285156 L 8.746094 27.921875 L 9.421875 28.597656 C 9.421875 28.597656 8.335938 29.992188 7.296875 29.191406 L 2.476562 24.367188 Z M 3.136719 23.695312 "/>
<path fill-rule="nonzero" fill="rgb(100%, 100%, 100%)" fill-opacity="1" d="M 20.785156 22.101562 L 20.792969 26.632812 C 20.792969 27.484375 21.480469 28.175781 22.339844 28.175781 C 23.121094 28.175781 23.878906 27.273438 23.878906 26.632812 L 23.878906 20.328125 C 23.878906 19.886719 23.695312 19.492188 23.402344 19.207031 L 19.703125 15.519531 L 24.609375 10.609375 C 25.53125 9.460938 25.042969 8.078125 25.042969 8.078125 C 24.53125 6.546875 22.796875 6.496094 22.796875 6.496094 L 10.148438 6.492188 C 9.472656 6.492188 8.925781 7.039062 8.925781 7.714844 C 8.925781 8.394531 9.472656 8.9375 10.148438 8.9375 L 18.882812 8.953125 L 15.203125 12.617188 C 14.675781 13.152344 14.410156 13.757812 14.410156 14.550781 C 14.410156 15.3125 14.710938 15.988281 15.214844 16.488281 Z M 20.785156 22.101562 "/>
<path fill-rule="nonzero" fill="rgb(100%, 100%, 100%)" fill-opacity="1" d="M 14.433594 17.171875 C 14.316406 17.0625 14.210938 16.9375 14.113281 16.804688 L 6.816406 24.117188 C 6.261719 24.558594 6.082031 25.34375 6.414062 25.996094 C 6.792969 26.742188 7.714844 27.039062 8.460938 26.65625 C 8.558594 26.601562 8.652344 26.539062 8.742188 26.46875 L 16.234375 18.964844 Z M 14.433594 17.171875 "/>

</g>%n%n</svg>