<svg width="300" height="40" viewBox="0 0 300 40" fill="none" xmlns="http://www.w3.org/2000/svg" xmlns:xlink="http://www.w3.org/1999/xlink">

<g transform="translate(130.000000, 0.000000) scale(2.000000 2.000000) "> 

<g clip-path="url(#clip0)">
<path opacity="0.953" d="M9.99934 0C15.514 0 20 4.44646 20 10C20 15.5172 15.514 20 9.99934 20C4.48599 20 0 15.5172 0 10C0 4.44646 4.48599 0 9.99934 0V0Z" fill="#60BE60"/>
<path opacity="0.95" fill-rule="evenodd" clip-rule="evenodd" d="M10 19C14.9706 19 19 14.9706 19 10C19 5.02944 14.9706 1 10 1C5.02944 1 1 5.02944 1 10C1 14.9706 5.02944 19 10 19ZM10 20C15.5228 20 20 15.5228 20 10C20 4.47715 15.5228 0 10 0C4.47715 0 0 4.47715 0 10C0 15.5228 4.47715 20 10 20Z" fill="#398C39"/>
</g>
<defs>
<clipPath id="clip0">
<path d="M0 0H20V20H0V0Z" fill="white"/>
</clipPath>
</defs>

</g>%n%n
<g transform="translate(138.000000, 8.000000) scale(0.750000 0.750000) "> 

<path fill-rule="nonzero" fill="rgb(100%, 100%, 100%)" fill-opacity="1" d="M 16 6.363281 C 21.300781 6.363281 25.636719 10.699219 25.636719 16 C 25.636719 21.300781 21.300781 25.636719 16 25.636719 C 10.699219 25.636719 6.363281 21.300781 6.363281 16 C 6.363281 10.699219 10.699219 6.363281 16 6.363281 Z M 16 3.953125 C 9.375 3.953125 3.953125 9.375 3.953125 16 C 3.953125 22.625 9.375 28.046875 16 28.046875 C 22.625 28.046875 28.046875 22.625 28.046875 16 C 28.046875 9.375 22.625 3.953125 16 3.953125 Z M 16 3.953125 "/>
<path fill="none" stroke-width="43.6632" stroke-linecap="round" stroke-linejoin="round" stroke="rgb(100%, 100%, 100%)" stroke-opacity="1" stroke-miterlimit="10" d="M 420.981445 148.115234 C 420.981445 148.115234 322.780762 209.216309 335.878906 324.904785 C 344.587402 405.688477 423.17627 434.07959 423.17627 434.07959 " transform="matrix(0.0551724, 0, 0, 0.0551724, 0, 0)"/>
<path fill="none" stroke-width="43.6632" stroke-linecap="round" stroke-linejoin="round" stroke="rgb(100%, 100%, 100%)" stroke-opacity="1" stroke-miterlimit="10" d="M 156.82373 159.018555 C 156.82373 159.018555 180.825195 211.411133 180.825195 307.487793 C 180.825195 375.17334 154.628906 427.565918 154.628906 427.565918 " transform="matrix(0.0551724, 0, 0, 0.0551724, 0, 0)"/>
<path fill="none" stroke-width="43.6632" stroke-linecap="round" stroke-linejoin="round" stroke="rgb(100%, 100%, 100%)" stroke-opacity="1" stroke-miterlimit="10" d="M 102.236328 261.608887 C 102.236328 261.608887 152.434082 311.806641 290 311.806641 C 427.565918 311.806641 477.763672 261.608887 477.763672 261.608887 " transform="matrix(0.0551724, 0, 0, 0.0551724, 0, 0)"/>
<path fill="none" stroke-width="43.6632" stroke-linecap="round" stroke-linejoin="round" stroke="rgb(100%, 100%, 100%)" stroke-opacity="1" stroke-miterlimit="10" d="M 296.584473 102.236328 C 296.584473 102.236328 246.315918 163.408203 246.315918 290 C 246.315918 416.591797 296.584473 477.763672 296.584473 477.763672 " transform="matrix(0.0551724, 0, 0, 0.0551724, 0, 0)"/>

</g>%n%n</svg>