<svg width="300" height="40" viewBox="0 0 300 40" fill="none" xmlns="http://www.w3.org/2000/svg" xmlns:xlink="http://www.w3.org/1999/xlink">

<g transform="translate(130.000000, 0.000000) scale(2.000000 2.000000) "> 

<g clip-path="url(#clip0)">
<path opacity="0.953" d="M9.99934 0C15.514 0 20 4.44646 20 10C20 15.5172 15.514 20 9.99934 20C4.48599 20 0 15.5172 0 10C0 4.44646 4.48599 0 9.99934 0V0Z" fill="#60BE60"/>
<path opacity="0.95" fill-rule="evenodd" clip-rule="evenodd" d="M10 19C14.9706 19 19 14.9706 19 10C19 5.02944 14.9706 1 10 1C5.02944 1 1 5.02944 1 10C1 14.9706 5.02944 19 10 19ZM10 20C15.5228 20 20 15.5228 20 10C20 4.47715 15.5228 0 10 0C4.47715 0 0 4.47715 0 10C0 15.5228 4.47715 20 10 20Z" fill="#398C39"/>
</g>
<defs>
<clipPath id="clip0">
<path d="M0 0H20V20H0V0Z" fill="white"/>
</clipPath>
</defs>

</g>%n%n
<g transform="translate(138.000000, 8.000000) scale(2.000000 2.000000) "> 

<path fill-rule="nonzero" fill="rgb(100%, 100%, 100%)" fill-opacity="1" d="M 10 2 C 10.550781 2 11 2.449219 11 3 L 11 8 C 11 8.550781 10.550781 9 10 9 L 2 9 C 1.449219 9 1 8.550781 1 8 L 1 3 C 1 2.449219 1.449219 2 2 2 Z M 3 3 C 2.449219 3 2 3.449219 2 4 L 2 7 C 2 7.550781 2.449219 8 3 8 L 9 8 C 9.550781 8 10 7.550781 10 7 L 10 4 C 10 3.449219 9.550781 3 9 3 Z M 3 3 "/>
<path fill-rule="nonzero" fill="rgb(100%, 100%, 100%)" fill-opacity="1" d="M 5 5 C 5 5.550781 4.550781 6 4 6 C 3.449219 6 3 5.550781 3 5 C 3 4.449219 3.449219 4 4 4 C 4.550781 4 5 4.449219 5 5 Z M 5 5 "/>
<path fill-rule="nonzero" fill="rgb(100%, 100%, 100%)" fill-opacity="1" d="M 9 6 C 9 6.550781 8.550781 7 8 7 C 7.449219 7 7 6.550781 7 6 C 7 5.449219 7.449219 5 8 5 C 8.550781 5 9 5.449219 9 6 Z M 9 6 "/>

</g>%n%n</svg>