<svg width="300" height="40" viewBox="0 0 300 40" fill="none" xmlns="http://www.w3.org/2000/svg" xmlns:xlink="http://www.w3.org/1999/xlink">

<g transform="translate(130.000000, 0.000000) scale(2.000000 2.000000) "> 

<g clip-path="url(#clip0)">
<path opacity="0.953" d="M9.99934 0C15.514 0 20 4.44646 20 10C20 15.5172 15.514 20 9.99934 20C4.48599 20 0 15.5172 0 10C0 4.44646 4.48599 0 9.99934 0V0Z" fill="#60BE60"/>
<path opacity="0.95" fill-rule="evenodd" clip-rule="evenodd" d="M10 19C14.9706 19 19 14.9706 19 10C19 5.02944 14.9706 1 10 1C5.02944 1 1 5.02944 1 10C1 14.9706 5.02944 19 10 19ZM10 20C15.5228 20 20 15.5228 20 10C20 4.47715 15.5228 0 10 0C4.47715 0 0 4.47715 0 10C0 15.5228 4.47715 20 10 20Z" fill="#398C39"/>
</g>
<defs>
<clipPath id="clip0">
<path d="M0 0H20V20H0V0Z" fill="white"/>
</clipPath>
</defs>

</g>%n%n
<g transform="translate(138.000000, 8.000000) scale(0.750000 0.750000) "> 

<path fill-rule="nonzero" fill="rgb(100%, 100%, 100%)" fill-opacity="1" d="M 16 5.332031 L 32 18.667969 L 16 16 L 0 18.667969 Z M 16 5.332031 "/>
<path fill-rule="nonzero" fill="rgb(100%, 100%, 100%)" fill-opacity="1" d="M 18.667969 21.332031 C 18.667969 22.804688 17.472656 24 16 24 C 14.527344 24 13.332031 22.804688 13.332031 21.332031 C 13.332031 19.859375 14.527344 18.667969 16 18.667969 C 17.472656 18.667969 18.667969 19.859375 18.667969 21.332031 Z M 18.667969 21.332031 "/>
<path fill-rule="evenodd" fill="rgb(87.058824%, 87.058824%, 87.058824%)" fill-opacity="1" d="M 16 9.976562 L 26.335938 21.789062 C 26.820312 22.34375 26.765625 23.183594 26.210938 23.671875 C 25.65625 24.15625 24.816406 24.097656 24.328125 23.542969 L 16 14.023438 L 7.671875 23.542969 C 7.183594 24.097656 6.34375 24.15625 5.789062 23.671875 C 5.234375 23.183594 5.179688 22.34375 5.664062 21.789062 Z M 16 9.976562 "/>
<path fill-rule="evenodd" fill="rgb(87.058824%, 87.058824%, 87.058824%)" fill-opacity="1" d="M 5.332031 22.667969 C 5.332031 21.929688 5.929688 21.332031 6.667969 21.332031 L 9.332031 21.332031 C 10.070312 21.332031 10.667969 21.929688 10.667969 22.667969 C 10.667969 23.402344 10.070312 24 9.332031 24 L 6.667969 24 C 5.929688 24 5.332031 23.402344 5.332031 22.667969 Z M 5.332031 22.667969 "/>
<path fill-rule="evenodd" fill="rgb(87.058824%, 87.058824%, 87.058824%)" fill-opacity="1" d="M 21.332031 22.667969 C 21.332031 21.929688 21.929688 21.332031 22.667969 21.332031 L 25.332031 21.332031 C 26.070312 21.332031 26.667969 21.929688 26.667969 22.667969 C 26.667969 23.402344 26.070312 24 25.332031 24 L 22.667969 24 C 21.929688 24 21.332031 23.402344 21.332031 22.667969 Z M 21.332031 22.667969 "/>

</g>%n%n</svg>