<svg width="300" height="35" viewBox="0 0 300 35" fill="none" xmlns="http://www.w3.org/2000/svg" >

<g transform="translate(135.000000, 2.000000) scale(1.500000 1.500000) "> 

<g clip-path="url(#clip0)">
<path opacity="0.953" d="M9.99934 0C15.514 0 20 4.44646 20 10C20 15.5172 15.514 20 9.99934 20C4.48599 20 0 15.5172 0 10C0 4.44646 4.48599 0 9.99934 0V0Z" fill="#2E702E"/>
<path opacity="0.95" fill-rule="evenodd" clip-rule="evenodd" d="M10 19C14.9706 19 19 14.9706 19 10C19 5.02944 14.9706 1 10 1C5.02944 1 1 5.02944 1 10C1 14.9706 5.02944 19 10 19ZM10 20C15.5228 20 20 15.5228 20 10C20 4.47715 15.5228 0 10 0C4.47715 0 0 4.47715 0 10C0 15.5228 4.47715 20 10 20Z" fill="#44A544"/>
</g>
<defs>
<clipPath id="clip0">
<path d="M0 0H20V20H0V0Z" fill="white"/>
</clipPath>
</defs>

</g>


<g transform="translate(141.000000, 8.000000) scale(0.031034 0.031034) "> 

<path d="M478.048 133.045C503.096 133.045 523.401 112.74 523.401 87.6922C523.401 62.6445 503.096 42.3394 478.048 42.3394C453 42.3394 432.695 62.6445 432.695 87.6922C432.695 112.74 453 133.045 478.048 133.045Z" fill="#ffffff"/>
<path d="M349.178 520.048H466.351C466.351 520.048 475.238 520.963 475.238 511.683V502.403H492.556C492.556 502.403 496.542 534.098 472.886 537.104H349.178V520.048Z" fill="#ffffff"/>
<path d="M56.868 429.473L139.797 512.336C139.797 512.336 145.352 519.133 151.952 512.663L158.552 506.063L170.773 518.349C170.773 518.349 151.103 543.639 132.282 529.066L44.9089 441.628L56.868 429.473Z" fill="#ffffff"/>
<path d="M376.756 400.588L376.887 482.733C376.887 498.155 389.368 510.703 404.922 510.703C419.037 510.703 432.826 494.365 432.826 482.733V368.436C432.826 360.463 429.493 353.275 424.135 348.112L357.086 281.259L446.027 192.318C462.756 171.471 453.934 146.442 453.934 146.442C444.654 118.668 413.221 117.753 413.221 117.753L183.908 117.688C171.688 117.688 161.755 127.556 161.755 139.842C161.755 152.127 171.688 161.995 183.908 161.995L342.251 162.257L275.529 228.652C265.988 238.389 261.152 249.368 261.152 263.745C261.152 277.534 266.641 289.82 275.79 298.838L376.756 400.588Z" fill="#ffffff"/>
<path d="M261.609 311.255C259.518 309.229 257.558 307.007 255.793 304.589L123.525 437.119C113.526 445.157 110.259 459.338 116.271 471.166C123.133 484.693 139.797 490.052 153.324 483.125C155.154 482.145 156.853 481.034 158.422 479.727L294.219 343.734L261.609 311.255Z" fill="#ffffff"/>

</g>

</svg>