<svg width="300" height="40" viewBox="0 0 300 40" fill="none" xmlns="http://www.w3.org/2000/svg" xmlns:xlink="http://www.w3.org/1999/xlink">

<g transform="translate(130.000000, 0.000000) scale(2.000000 2.000000) "> 

<g clip-path="url(#clip0)">
<path opacity="0.953" d="M9.99934 0C15.514 0 20 4.44646 20 10C20 15.5172 15.514 20 9.99934 20C4.48599 20 0 15.5172 0 10C0 4.44646 4.48599 0 9.99934 0V0Z" fill="#60BE60"/>
<path opacity="0.95" fill-rule="evenodd" clip-rule="evenodd" d="M10 19C14.9706 19 19 14.9706 19 10C19 5.02944 14.9706 1 10 1C5.02944 1 1 5.02944 1 10C1 14.9706 5.02944 19 10 19ZM10 20C15.5228 20 20 15.5228 20 10C20 4.47715 15.5228 0 10 0C4.47715 0 0 4.47715 0 10C0 15.5228 4.47715 20 10 20Z" fill="#398C39"/>
</g>
<defs>
<clipPath id="clip0">
<path d="M0 0H20V20H0V0Z" fill="white"/>
</clipPath>
</defs>

</g>%n%n
<g transform="translate(138.000000, 8.000000) scale(0.750000 0.750000) "> 

<path fill="none" stroke-width="37.291" stroke-linecap="round" stroke-linejoin="round" stroke="rgb(100%, 100%, 100%)" stroke-opacity="1" stroke-miterlimit="10" d="M 511.889648 513.730469 L 68.110352 444.770508 " transform="matrix(0.0551724, 0, 0, 0.0551724, 0, 0)"/>
<path fill-rule="nonzero" fill="rgb(100%, 100%, 100%)" fill-opacity="1" d="M 21.554688 8.800781 C 22.976562 8.800781 24.125 7.648438 24.125 6.226562 C 24.125 4.808594 22.976562 3.65625 21.554688 3.65625 C 20.132812 3.65625 18.984375 4.808594 18.984375 6.226562 C 18.984375 7.648438 20.132812 8.800781 21.554688 8.800781 Z M 21.554688 8.800781 "/>
<path fill-rule="nonzero" fill="rgb(100%, 100%, 100%)" fill-opacity="1" d="M 5.402344 25.464844 L 3.449219 28.34375 C 3.449219 28.34375 7.460938 27.933594 8.800781 26.183594 Z M 5.402344 25.464844 "/>
<path fill="none" stroke-width="37.291" stroke-linecap="round" stroke-linejoin="round" stroke="rgb(100%, 100%, 100%)" stroke-opacity="1" stroke-miterlimit="10" d="M 493.269043 290 L 355.27832 178.134766 L 247.094727 144.575195 L 213.535156 66.269531 " transform="matrix(0.0551724, 0, 0, 0.0551724, 0, 0)"/>
<path fill-rule="nonzero" fill="rgb(100%, 100%, 100%)" fill-opacity="1" d="M 12.296875 13.941406 L 16.71875 16.617188 L 22.582031 11.269531 L 19.496094 9.109375 L 17.644531 8.800781 Z M 12.296875 13.941406 "/>
<path fill="none" stroke-width="46.6138" stroke-linecap="round" stroke-linejoin="round" stroke="rgb(100%, 100%, 100%)" stroke-opacity="1" stroke-miterlimit="10" d="M 330.993652 441.018066 L 353.366699 351.525879 L 239.660645 269.467773 L 243.413086 362.712402 L 146.416016 411.210938 " transform="matrix(0.0551724, 0, 0, 0.0551724, 0, 0)"/>

</g>%n%n</svg>