<svg width="300" height="35" viewBox="0 0 300 35" fill="none" xmlns="http://www.w3.org/2000/svg" >

<g transform="translate(135.000000, 2.000000) scale(1.500000 1.500000) "> 

<g clip-path="url(#clip0)">
<path opacity="0.953" d="M9.99934 0C15.514 0 20 4.44646 20 10C20 15.5172 15.514 20 9.99934 20C4.48599 20 0 15.5172 0 10C0 4.44646 4.48599 0 9.99934 0V0Z" fill="#2E702E"/>
<path opacity="0.95" fill-rule="evenodd" clip-rule="evenodd" d="M10 19C14.9706 19 19 14.9706 19 10C19 5.02944 14.9706 1 10 1C5.02944 1 1 5.02944 1 10C1 14.9706 5.02944 19 10 19ZM10 20C15.5228 20 20 15.5228 20 10C20 4.47715 15.5228 0 10 0C4.47715 0 0 4.47715 0 10C0 15.5228 4.47715 20 10 20Z" fill="#44A544"/>
</g>
<defs>
<clipPath id="clip0">
<path d="M0 0H20V20H0V0Z" fill="white"/>
</clipPath>
</defs>

</g>


<g transform="translate(141.000000, 8.000000) scale(0.031034 0.031034) "> 

<path d="M196.767 257.287C250.968 257.287 294.907 235.317 294.907 208.217C294.907 181.116 250.968 159.147 196.767 159.147C142.566 159.147 98.6274 181.116 98.6274 208.217C98.6274 235.317 142.566 257.287 196.767 257.287Z" stroke="#ffffff" stroke-width="32.7132" stroke-miterlimit="10"/>
<path d="M196.767 257.287C139.519 257.287 82.271 242.566 82.271 208.217C82.271 218.031 82.271 242.566 82.271 252.38C82.271 286.729 114.984 322.713 196.767 322.713C278.55 322.713 311.264 286.729 311.264 252.38C311.264 242.566 311.264 218.031 311.264 208.217C311.264 242.566 254.015 257.287 196.767 257.287Z" fill="#ffffff"/>
<path d="M497.729 77.3638H463.38L393.047 321.077C381.597 360.333 345.612 388.14 304.721 388.14H155.876C124.798 388.14 98.6274 414.31 98.6274 445.388C98.6274 476.465 124.798 502.636 155.876 502.636H283.457C339.07 502.636 388.14 466.651 402.861 412.674L409.403 388.14L497.729 77.3638ZM294.907 469.923H180.411V420.853H294.907V469.923Z" fill="#ffffff"/>

</g>

</svg>