<svg width="300" height="40" viewBox="0 0 300 40" fill="none" xmlns="http://www.w3.org/2000/svg" xmlns:xlink="http://www.w3.org/1999/xlink">

<g transform="translate(130.000000, 0.000000) scale(2.000000 2.000000) "> 

<g clip-path="url(#clip0)">
<path opacity="0.953" d="M9.99934 0C15.514 0 20 4.44646 20 10C20 15.5172 15.514 20 9.99934 20C4.48599 20 0 15.5172 0 10C0 4.44646 4.48599 0 9.99934 0V0Z" fill="#60BE60"/>
<path opacity="0.95" fill-rule="evenodd" clip-rule="evenodd" d="M10 19C14.9706 19 19 14.9706 19 10C19 5.02944 14.9706 1 10 1C5.02944 1 1 5.02944 1 10C1 14.9706 5.02944 19 10 19ZM10 20C15.5228 20 20 15.5228 20 10C20 4.47715 15.5228 0 10 0C4.47715 0 0 4.47715 0 10C0 15.5228 4.47715 20 10 20Z" fill="#398C39"/>
</g>
<defs>
<clipPath id="clip0">
<path d="M0 0H20V20H0V0Z" fill="white"/>
</clipPath>
</defs>

</g>%n%n
<g transform="translate(138.000000, 8.000000) scale(0.750000 0.750000) "> 

<defs>
<filter id="filter-remove-color" x="0%" y="0%" width="100%" height="100%">
<feColorMatrix color-interpolation-filters="sRGB" values="0 0 0 0 1 0 0 0 0 1 0 0 0 0 1 0 0 0 1 0" />
</filter>
<mask id="mask-0">
<g filter="url(#filter-remove-color)">
<rect x="-3.2" y="-3.2" width="38.4" height="38.4" fill="rgb(0%, 0%, 0%)" fill-opacity="0.5"/>
</g>
</mask>
<clip100Path id="clip100-0">
<rect x="0" y="0" width="32" height="32"/>
</clip100Path>
<g id="source-13" clip100-path="url(#clip100-0)">
<path fill-rule="nonzero" fill="rgb(100%, 100%, 100%)" fill-opacity="1" stroke-width="10" stroke-linecap="round" stroke-linejoin="round" stroke="rgb(100%, 100%, 100%)" stroke-opacity="1" stroke-miterlimit="4" d="M 454.89502 189.887695 L 438.752441 187.62207 L 406.608887 257.502441 L 407.175293 258.493652 Z M 356.269531 171.621094 L 343.383789 170.41748 L 338.427734 249.006348 L 340.197754 249.997559 Z M 138.486328 189.887695 L 154.628906 187.62207 L 186.772461 257.502441 L 186.206055 258.493652 Z M 237.111816 171.621094 L 249.997559 170.41748 L 254.953613 249.006348 L 253.183594 249.997559 Z M 296.37207 248.015137 C 238.244629 248.723145 179.621582 254.174805 123.688965 270.317383 C 189.675293 286.530762 258.352051 289.787598 326.108398 287.875977 C 375.527344 285.893555 425.300293 281.008301 472.949219 267.626953 C 415.529785 252.475586 355.703125 247.802734 296.37207 248.015137 Z M 296.37207 248.015137 " transform="matrix(0.0551724, 0, 0, 0.0551724, 0, 0)"/>
</g>
</defs>
<path fill-rule="nonzero" fill="rgb(100%, 100%, 100%)" fill-opacity="1" d="M 28.421875 20.800781 C 27.277344 22.804688 22.230469 24.316406 16.179688 24.316406 C 10.132812 24.316406 5.085938 22.808594 3.9375 20.804688 C 3.847656 21.027344 3.792969 21.269531 3.792969 21.527344 C 3.792969 22.390625 4.367188 23.054688 5.070312 23.539062 C 5.769531 24.019531 6.683594 24.398438 7.78125 24.71875 C 9.980469 25.355469 12.925781 25.734375 16.179688 25.734375 C 19.433594 25.734375 22.378906 25.355469 24.578125 24.71875 C 25.675781 24.398438 26.589844 24.019531 27.292969 23.539062 C 27.996094 23.054688 28.570312 22.390625 28.570312 21.527344 C 28.570312 21.265625 28.515625 21.027344 28.421875 20.800781 Z M 28.421875 20.800781 "/>
<path fill-rule="nonzero" fill="rgb(100%, 100%, 100%)" fill-opacity="1" d="M 2.925781 13 L 4.464844 21.996094 Z M 2.925781 13 "/>
<path fill="none" stroke-width="27.495001" stroke-linecap="round" stroke-linejoin="round" stroke="rgb(100%, 100%, 100%)" stroke-opacity="1" stroke-miterlimit="4" d="M 53.029785 235.625 L 80.925293 398.679199 " transform="matrix(0.0551724, 0, 0, 0.0551724, 0, 0)"/>
<path fill-rule="nonzero" fill="rgb(100%, 100%, 100%)" fill-opacity="1" d="M 29.507812 13 L 27.859375 21.996094 Z M 29.507812 13 "/>
<path fill="none" stroke-width="27.495001" stroke-linecap="round" stroke-linejoin="round" stroke="rgb(100%, 100%, 100%)" stroke-opacity="1" stroke-miterlimit="4" d="M 534.829102 235.625 L 504.951172 398.679199 " transform="matrix(0.0551724, 0, 0, 0.0551724, 0, 0)"/>
<path fill-rule="nonzero" fill="rgb(100%, 100%, 100%)" fill-opacity="1" stroke-width="1.833" stroke-linecap="butt" stroke-linejoin="miter" stroke="rgb(100%, 100%, 100%)" stroke-opacity="1" stroke-miterlimit="4" d="M 380.129395 401.652832 L 380.129395 471.25 C 380.129395 478.967285 370.217285 485.197754 357.827148 485.197754 L 238.457031 485.197754 C 226.066895 485.197754 216.083984 478.967285 216.083984 471.25 L 216.083984 401.652832 C 231.164551 326.037598 380.766602 336.586914 380.129395 401.652832 Z M 380.129395 401.652832 " transform="matrix(0.0551724, 0, 0, 0.0551724, 0, 0)"/>
<path fill-rule="nonzero" fill="rgb(100%, 100%, 100%)" fill-opacity="1" d="M 16.179688 8.34375 C 12.441406 8.34375 9.0625 8.765625 6.535156 9.476562 C 5.273438 9.835938 4.226562 10.253906 3.421875 10.792969 C 2.613281 11.332031 1.957031 12.070312 1.957031 13.03125 C 1.957031 13.996094 2.613281 14.734375 3.421875 15.273438 C 4.226562 15.8125 5.273438 16.234375 6.535156 16.589844 C 9.0625 17.304688 12.441406 17.726562 16.179688 17.726562 C 19.917969 17.726562 23.296875 17.304688 25.824219 16.589844 C 27.085938 16.234375 28.136719 15.8125 28.941406 15.273438 C 29.75 14.734375 30.40625 13.996094 30.40625 13.03125 C 30.40625 12.070312 29.75 11.332031 28.941406 10.792969 C 28.136719 10.253906 27.085938 9.835938 25.824219 9.476562 C 23.296875 8.765625 19.917969 8.34375 16.179688 8.34375 Z M 16.179688 10.234375 C 19.769531 10.234375 23.019531 10.652344 25.292969 11.296875 C 26.429688 11.617188 27.324219 12 27.859375 12.359375 C 28.394531 12.71875 28.480469 12.960938 28.480469 13.03125 C 28.480469 13.105469 28.394531 13.351562 27.859375 13.710938 C 27.324219 14.066406 26.429688 14.453125 25.292969 14.773438 C 23.019531 15.414062 19.769531 15.835938 16.179688 15.835938 C 12.59375 15.835938 9.34375 15.414062 7.070312 14.773438 C 5.929688 14.453125 5.035156 14.066406 4.5 13.710938 C 3.964844 13.351562 3.878906 13.105469 3.878906 13.03125 C 3.878906 12.960938 3.964844 12.71875 4.5 12.359375 C 5.035156 12 5.929688 11.617188 7.070312 11.296875 C 9.34375 10.652344 12.59375 10.234375 16.179688 10.234375 Z M 16.179688 10.234375 "/>
<g mask="url(#mask-0)">
<use xlink:href="#source-13"/>
</g>

</g>%n%n</svg>