<svg width="300" height="40" viewBox="0 0 300 40" fill="none" xmlns="http://www.w3.org/2000/svg" xmlns:xlink="http://www.w3.org/1999/xlink">

<g transform="translate(130.000000, 0.000000) scale(2.000000 2.000000) "> 

<g clip-path="url(#clip0)">
<path opacity="0.953" d="M9.99934 0C15.514 0 20 4.44646 20 10C20 15.5172 15.514 20 9.99934 20C4.48599 20 0 15.5172 0 10C0 4.44646 4.48599 0 9.99934 0V0Z" fill="#60BE60"/>
<path opacity="0.95" fill-rule="evenodd" clip-rule="evenodd" d="M10 19C14.9706 19 19 14.9706 19 10C19 5.02944 14.9706 1 10 1C5.02944 1 1 5.02944 1 10C1 14.9706 5.02944 19 10 19ZM10 20C15.5228 20 20 15.5228 20 10C20 4.47715 15.5228 0 10 0C4.47715 0 0 4.47715 0 10C0 15.5228 4.47715 20 10 20Z" fill="#398C39"/>
</g>
<defs>
<clipPath id="clip0">
<path d="M0 0H20V20H0V0Z" fill="white"/>
</clipPath>
</defs>

</g>%n%n
<g transform="translate(138.000000, 8.000000) scale(0.750000 0.750000) "> 

<path fill-rule="nonzero" fill="rgb(100%, 100%, 100%)" fill-opacity="1" d="M 24.335938 8.15625 C 25.691406 8.15625 26.789062 7.054688 26.789062 5.703125 C 26.789062 4.347656 25.691406 3.25 24.335938 3.25 C 22.980469 3.25 21.882812 4.347656 21.882812 5.703125 C 21.882812 7.054688 22.980469 8.15625 24.335938 8.15625 Z M 24.335938 8.15625 "/>
<path fill-rule="nonzero" fill="rgb(100%, 100%, 100%)" fill-opacity="1" d="M 19.921875 5.210938 L 15.019531 5.210938 C 14.429688 5.210938 14.039062 5.605469 14.039062 6.191406 C 14.039062 6.78125 14.429688 7.171875 15.019531 7.171875 L 19.921875 7.171875 C 20.511719 7.171875 20.902344 6.78125 20.902344 6.191406 C 20.902344 5.605469 20.511719 5.210938 19.921875 5.210938 Z M 19.921875 5.210938 "/>
<path fill-rule="nonzero" fill="rgb(100%, 100%, 100%)" fill-opacity="1" d="M 22.863281 10.117188 L 20.902344 10.117188 L 18.941406 12.078125 L 22.863281 12.078125 C 23.453125 12.078125 23.84375 11.683594 23.84375 11.097656 C 23.84375 10.507812 23.453125 10.117188 22.863281 10.117188 Z M 22.863281 10.117188 "/>
<path fill-rule="nonzero" fill="rgb(100%, 100%, 100%)" fill-opacity="1" d="M 14.628906 5.308594 L 11 6.976562 C 10.507812 7.171875 10.3125 7.761719 10.605469 8.253906 C 10.898438 8.742188 11.390625 8.9375 11.882812 8.742188 L 15.410156 7.074219 C 15.902344 6.878906 16.097656 6.289062 15.902344 5.800781 C 15.707031 5.308594 15.117188 5.113281 14.628906 5.308594 Z M 14.628906 5.308594 "/>
<path fill-rule="nonzero" fill="rgb(100%, 100%, 100%)" fill-opacity="1" d="M 21.296875 5.800781 C 20.511719 5.015625 19.335938 5.015625 18.550781 5.800781 L 13.546875 10.800781 C 12.761719 11.585938 12.761719 12.761719 13.546875 13.546875 C 13.941406 13.941406 14.429688 14.136719 14.921875 14.136719 C 15.410156 14.136719 15.902344 13.941406 16.292969 13.546875 L 21.296875 8.546875 C 22.082031 7.859375 22.082031 6.585938 21.296875 5.800781 Z M 21.296875 5.800781 "/>
<path fill-rule="nonzero" fill="rgb(100%, 100%, 100%)" fill-opacity="1" d="M 19.335938 14.332031 L 15.410156 11.390625 C 14.824219 10.898438 13.84375 11 13.351562 11.585938 C 12.863281 12.175781 12.960938 13.15625 13.546875 13.644531 L 16.882812 16.097656 L 16.882812 21.296875 C 16.882812 22.082031 17.570312 22.765625 18.355469 22.765625 C 19.136719 22.765625 19.824219 22.082031 19.824219 21.296875 L 19.824219 15.410156 C 19.921875 15.019531 19.726562 14.628906 19.335938 14.332031 Z M 19.335938 14.332031 "/>
<path fill-rule="nonzero" fill="rgb(100%, 100%, 100%)" fill-opacity="1" d="M 20.414062 28.75 C 21.226562 28.75 21.882812 28.089844 21.882812 27.277344 C 21.882812 26.464844 21.226562 25.808594 20.414062 25.808594 C 19.601562 25.808594 18.941406 26.464844 18.941406 27.277344 C 18.941406 28.089844 19.601562 28.75 20.414062 28.75 Z M 20.414062 28.75 "/>
<path fill-rule="nonzero" fill="rgb(100%, 100%, 100%)" fill-opacity="1" d="M 11.585938 28.75 C 12.398438 28.75 13.058594 28.089844 13.058594 27.277344 C 13.058594 26.464844 12.398438 25.808594 11.585938 25.808594 C 10.773438 25.808594 10.117188 26.464844 10.117188 27.277344 C 10.117188 28.089844 10.773438 28.75 11.585938 28.75 Z M 11.585938 28.75 "/>
<path fill-rule="nonzero" fill="rgb(100%, 100%, 100%)" fill-opacity="1" d="M 11.78125 19.335938 L 14.824219 16.292969 L 12.46875 14.429688 L 10.019531 16.980469 L 6.683594 16.980469 C 5.898438 16.980469 5.210938 17.667969 5.210938 18.453125 C 5.210938 19.238281 5.898438 19.921875 6.683594 19.921875 L 10.410156 19.921875 C 10.898438 19.921875 11.488281 19.726562 11.78125 19.335938 Z M 11.78125 19.335938 "/>
<path fill="none" stroke-width="35.5509" stroke-linecap="round" stroke-linejoin="miter" stroke="rgb(100%, 100%, 100%)" stroke-opacity="1" stroke-miterlimit="10" d="M 432.167969 432.23877 L 403.776855 446.398926 C 398.395996 448.168945 393.085938 450.009766 387.775879 450.009766 L 192.224121 450.009766 C 186.914062 450.009766 181.604004 448.168945 176.223145 446.398926 L 147.76123 432.23877 " transform="matrix(0.0551724, 0, 0, 0.0551724, 0, 0)"/>

</g>%n%n</svg>