<svg width="300" height="40" viewBox="0 0 300 40" fill="none" xmlns="http://www.w3.org/2000/svg" xmlns:xlink="http://www.w3.org/1999/xlink">

<g transform="translate(130.000000, 0.000000) scale(2.000000 2.000000) "> 

<g clip-path="url(#clip0)">
<path opacity="0.953" d="M9.99934 0C15.514 0 20 4.44646 20 10C20 15.5172 15.514 20 9.99934 20C4.48599 20 0 15.5172 0 10C0 4.44646 4.48599 0 9.99934 0V0Z" fill="#60BE60"/>
<path opacity="0.95" fill-rule="evenodd" clip-rule="evenodd" d="M10 19C14.9706 19 19 14.9706 19 10C19 5.02944 14.9706 1 10 1C5.02944 1 1 5.02944 1 10C1 14.9706 5.02944 19 10 19ZM10 20C15.5228 20 20 15.5228 20 10C20 4.47715 15.5228 0 10 0C4.47715 0 0 4.47715 0 10C0 15.5228 4.47715 20 10 20Z" fill="#398C39"/>
</g>
<defs>
<clipPath id="clip0">
<path d="M0 0H20V20H0V0Z" fill="white"/>
</clipPath>
</defs>

</g>%n%n
<g transform="translate(138.000000, 8.000000) scale(2.000000 2.000000) "> 

<path fill-rule="nonzero" fill="rgb(100%, 100%, 100%)" fill-opacity="1" stroke-width="35" stroke-linecap="round" stroke-linejoin="miter" stroke="rgb(100%, 100%, 100%)" stroke-opacity="1" stroke-miterlimit="4" d="M 307.936198 179.173177 C 319.453125 179.173177 328.893229 169.733073 328.893229 158.027344 C 328.893229 146.321615 319.453125 136.88151 307.936198 136.88151 C 296.230469 136.88151 286.979167 146.321615 286.979167 158.027344 C 286.979167 169.733073 296.230469 179.173177 307.936198 179.173177 Z M 307.936198 179.173177 " transform="matrix(0.0206897, 0, 0, 0.0206897, 0, 0)"/>
<path fill="none" stroke-width="45" stroke-linecap="round" stroke-linejoin="round" stroke="rgb(100%, 100%, 100%)" stroke-opacity="1" stroke-miterlimit="4" d="M 177.285156 161.803385 L 205.039062 256.582031 L 319.641927 234.492188 L 426.315104 190.501302 L 414.798177 89.114583 " transform="matrix(0.0206897, 0, 0, 0.0206897, 0, 0)"/>
<path fill-rule="nonzero" fill="rgb(100%, 100%, 100%)" fill-opacity="1" stroke-width="37" stroke-linecap="round" stroke-linejoin="round" stroke="rgb(100%, 100%, 100%)" stroke-opacity="1" stroke-miterlimit="4" d="M 348.90625 237.701823 L 287.545573 237.701823 L 287.545573 367.220052 L 348.90625 367.220052 Z M 348.90625 237.701823 " transform="matrix(0.0206897, 0, 0, 0.0206897, 0, 0)"/>
<path fill="none" stroke-width="45" stroke-linecap="round" stroke-linejoin="round" stroke="rgb(100%, 100%, 100%)" stroke-opacity="1" stroke-miterlimit="4" d="M 306.992188 357.02474 L 212.213542 392.708333 L 236.380208 455.201823 " transform="matrix(0.0206897, 0, 0, 0.0206897, 0, 0)"/>
<path fill="none" stroke-width="45" stroke-linecap="round" stroke-linejoin="round" stroke="rgb(100%, 100%, 100%)" stroke-opacity="1" stroke-miterlimit="4" d="M 337.955729 351.927083 L 381.56901 429.902344 L 354.759115 533.177083 " transform="matrix(0.0206897, 0, 0, 0.0206897, 0, 0)"/>
<path fill-rule="nonzero" fill="rgb(100%, 100%, 100%)" fill-opacity="1" d="M 10.246094 7.035156 C 10.246094 7.332031 9.859375 7.117188 9.371094 7.226562 C 8.742188 7.367188 8.429688 7.332031 8.429688 7.035156 C 8.429688 6.738281 8.835938 6.496094 9.339844 6.496094 C 9.839844 6.496094 10.246094 6.738281 10.246094 7.035156 Z M 10.246094 7.035156 "/>
<path fill-rule="nonzero" fill="rgb(100%, 100%, 100%)" fill-opacity="1" d="M 1.753906 6.886719 C 1.753906 7.28125 2.023438 6.804688 2.507812 6.882812 C 3.34375 7.023438 3.84375 7.214844 3.84375 6.824219 C 3.84375 6.429688 3.613281 6.179688 2.953125 6.179688 C 2.289062 6.179688 1.753906 6.496094 1.753906 6.886719 Z M 1.753906 6.886719 "/>
<path fill-rule="nonzero" fill="rgb(100%, 100%, 100%)" fill-opacity="1" d="M 3.914062 10.375 C 3.914062 10.027344 4.617188 10.519531 5.179688 10.347656 C 5.765625 10.171875 6.050781 10.027344 6.050781 10.375 C 6.050781 10.726562 5.570312 11.007812 4.984375 11.007812 C 4.394531 11.007812 3.914062 10.726562 3.914062 10.375 Z M 3.914062 10.375 "/>
<path fill-rule="nonzero" fill="rgb(100%, 100%, 100%)" fill-opacity="1" d="M 9.175781 0.945312 C 9.246094 1.234375 8.609375 0.859375 8.246094 1.035156 C 7.777344 1.265625 7.789062 1.519531 7.671875 1.507812 C 7.625 1.503906 7.480469 1.351562 7.460938 1.265625 C 7.394531 0.980469 7.515625 0.574219 8.003906 0.457031 C 8.492188 0.34375 9.109375 0.65625 9.175781 0.945312 Z M 9.175781 0.945312 "/>

</g>%n%n</svg>