<svg width="300" height="40" viewBox="0 0 300 40" fill="none" xmlns="http://www.w3.org/2000/svg" >

<g transform="translate(130.000000, 0.000000) scale(2.000000 2.000000) "> 

<g clip-path="url(#clip0)">
<path opacity="0.953" d="M9.99934 0C15.514 0 20 4.44646 20 10C20 15.5172 15.514 20 9.99934 20C4.48599 20 0 15.5172 0 10C0 4.44646 4.48599 0 9.99934 0V0Z" fill="#60BE60"/>
<path opacity="0.95" fill-rule="evenodd" clip-rule="evenodd" d="M10 19C14.9706 19 19 14.9706 19 10C19 5.02944 14.9706 1 10 1C5.02944 1 1 5.02944 1 10C1 14.9706 5.02944 19 10 19ZM10 20C15.5228 20 20 15.5228 20 10C20 4.47715 15.5228 0 10 0C4.47715 0 0 4.47715 0 10C0 15.5228 4.47715 20 10 20Z" fill="#398C39"/>
</g>
<defs>
<clipPath id="clip0">
<path d="M0 0H20V20H0V0Z" fill="white"/>
</clipPath>
</defs>

</g>%n%n
<g transform="translate(138.000000, 8.000000) scale(0.500000 0.500000) "> 

<path fill-rule="evenodd" clip100-rule="evenodd" d="M30 4C31.1046 4 32 4.89543 32 6V42C32 43.1046 31.1046 44 30 44C28.8954 44 28 43.1046 28 42V6C28 4.89543 28.8954 4 30 4Z" fill="#ffffff"/>
<path fill-rule="evenodd" clip100-rule="evenodd" d="M15.9792 8H43.9396L43.999 9.93874C44.1575 15.1107 43.3985 19.0624 41.2091 22.5369C39.064 25.9412 35.6774 28.6661 31.0973 31.672L30.002 32.3909L28.9055 31.674C24.2701 28.6432 20.9905 25.8662 18.9074 22.4343C16.7996 18.9619 16.0518 15.0471 16 10.0206L15.9792 8ZM20.0672 12C20.2787 15.5723 20.9807 18.1413 22.3267 20.3588C23.8028 22.7906 26.1669 24.9908 29.9996 27.5966C33.8556 24.9823 36.3031 22.8197 37.825 20.4044C39.2089 18.2082 39.9232 15.6435 40.0102 12H20.0672Z" fill="#ffffff"/>
<path d="M16 40C16 42.2091 13.3137 44 10 44C6.68629 44 4 42.2091 4 40C4 37.7909 6.68629 36 10 36C13.3137 36 16 37.7909 16 40Z" fill="#ffffff"/>
<path fill-rule="evenodd" clip100-rule="evenodd" d="M16 28H44L40 36H20L16 28Z" fill="#DCDCDC"/>

</g>%n%n</svg>