<svg width="300" height="40" viewBox="0 0 300 40" fill="none" xmlns="http://www.w3.org/2000/svg" xmlns:xlink="http://www.w3.org/1999/xlink" version="1.1">

<g transform="translate(130.000000, 0.000000) scale(2.000000 2.000000) "> 

<g clip-path="url(#clip0)">
<path opacity="0.953" d="M9.99934 0C15.514 0 20 4.44646 20 10C20 15.5172 15.514 20 9.99934 20C4.48599 20 0 15.5172 0 10C0 4.44646 4.48599 0 9.99934 0V0Z" fill="#60BE60"/>
<path opacity="0.95" fill-rule="evenodd" clip-rule="evenodd" d="M10 19C14.9706 19 19 14.9706 19 10C19 5.02944 14.9706 1 10 1C5.02944 1 1 5.02944 1 10C1 14.9706 5.02944 19 10 19ZM10 20C15.5228 20 20 15.5228 20 10C20 4.47715 15.5228 0 10 0C4.47715 0 0 4.47715 0 10C0 15.5228 4.47715 20 10 20Z" fill="#398C39"/>
</g>
<defs>
<clipPath id="clip0">
<path d="M0 0H20V20H0V0Z" fill="white"/>
</clipPath>
</defs>

</g>%n%n
<g transform="translate(138.000000, 8.000000) scale(2.000000 2.000000) "> 

<g id="surface1">
<path style=" stroke:none;fill-rule:evenodd;fill:rgb(100%,100%,100%);fill-opacity:1;" d="M 7.5 1 C 7.777344 1 8 1.222656 8 1.5 L 8 10.5 C 8 10.777344 7.777344 11 7.5 11 C 7.222656 11 7 10.777344 7 10.5 L 7 1.5 C 7 1.222656 7.222656 1 7.5 1 Z M 7.5 1 "/>
<path style=" stroke:none;fill-rule:evenodd;fill:rgb(100%,100%,100%);fill-opacity:1;" d="M 3.996094 2 L 10.984375 2 L 11 2.484375 C 11.039062 3.777344 10.851562 4.765625 10.300781 5.632812 C 9.765625 6.484375 8.917969 7.167969 7.773438 7.917969 L 7.5 8.097656 L 7.226562 7.917969 C 6.066406 7.160156 5.246094 6.464844 4.726562 5.609375 C 4.199219 4.742188 4.011719 3.761719 4 2.503906 Z M 5.015625 3 C 5.070312 3.894531 5.246094 4.535156 5.582031 5.089844 C 5.949219 5.699219 6.542969 6.246094 7.5 6.898438 C 8.464844 6.246094 9.074219 5.703125 9.457031 5.101562 C 9.800781 4.550781 9.980469 3.910156 10.003906 3 Z M 5.015625 3 "/>
<path style=" stroke:none;fill-rule:nonzero;fill:rgb(100%,100%,100%);fill-opacity:1;" d="M 4 10 C 4 10.550781 3.328125 11 2.5 11 C 1.671875 11 1 10.550781 1 10 C 1 9.449219 1.671875 9 2.5 9 C 3.328125 9 4 9.449219 4 10 Z M 4 10 "/>
<path style=" stroke:none;fill-rule:evenodd;fill:rgb(86.274511%,86.274511%,86.274511%);fill-opacity:1;" d="M 4 7 L 11 7 L 10 9 L 5 9 Z M 4 7 "/>
</g>

</g>%n%n</svg>