<svg width="40" height="40" viewBox="0 0 40 40" fill="none" xmlns="http://www.w3.org/2000/svg" >

<g transform="translate(0.000000, 0.000000) scale(2.000000 2.000000) "> 

<g clip-path="url(#clip0)">
<path opacity="0.953" d="M9.99934 0C15.514 0 20 4.44646 20 10C20 15.5172 15.514 20 9.99934 20C4.48599 20 0 15.5172 0 10C0 4.44646 4.48599 0 9.99934 0V0Z" fill="#60BE60"/>
<path opacity="0.95" fill-rule="evenodd" clip-rule="evenodd" d="M10 19C14.9706 19 19 14.9706 19 10C19 5.02944 14.9706 1 10 1C5.02944 1 1 5.02944 1 10C1 14.9706 5.02944 19 10 19ZM10 20C15.5228 20 20 15.5228 20 10C20 4.47715 15.5228 0 10 0C4.47715 0 0 4.47715 0 10C0 15.5228 4.47715 20 10 20Z" fill="#398C39"/>
</g>
<defs>
<clipPath id="clip0">
<path d="M0 0H20V20H0V0Z" fill="white"/>
</clipPath>
</defs>

</g>


<g transform="translate(8.000000, 8.000000) scale(2.000000 2.000000) "> 

<path d="M24 8L48 28L24 24L0 28L24 8Z" fill="#ffffff"/>
<circle cx="24" cy="32" r="4" fill="#ffffff"/>
<path fill-rule="evenodd" clip100-rule="evenodd" d="M24 14.9629L39.5052 32.6831C40.2325 33.5143 40.1483 34.7779 39.317 35.5052C38.4858 36.2326 37.2222 36.1484 36.4949 35.3171L24 21.0373L11.5052 35.3171C10.7778 36.1484 9.51429 36.2326 8.68302 35.5052C7.85174 34.7779 7.76751 33.5143 8.49487 32.6831L24 14.9629Z" fill="#DEDEDE"/>
<path fill-rule="evenodd" clip100-rule="evenodd" d="M8 34C8 32.8954 8.89543 32 10 32H14C15.1046 32 16 32.8954 16 34C16 35.1046 15.1046 36 14 36H10C8.89543 36 8 35.1046 8 34Z" fill="#DEDEDE"/>
<path fill-rule="evenodd" clip100-rule="evenodd" d="M32 34C32 32.8954 32.8954 32 34 32H38C39.1046 32 40 32.8954 40 34C40 35.1046 39.1046 36 38 36H34C32.8954 36 32 35.1046 32 34Z" fill="#DEDEDE"/>

</g>

</svg>