<svg width="300" height="40" viewBox="0 0 300 40" fill="none" xmlns="http://www.w3.org/2000/svg" xmlns:xlink="http://www.w3.org/1999/xlink">

<g transform="translate(130.000000, 0.000000) scale(2.000000 2.000000) "> 

<g clip-path="url(#clip0)">
<path opacity="0.953" d="M9.99934 0C15.514 0 20 4.44646 20 10C20 15.5172 15.514 20 9.99934 20C4.48599 20 0 15.5172 0 10C0 4.44646 4.48599 0 9.99934 0V0Z" fill="#60BE60"/>
<path opacity="0.95" fill-rule="evenodd" clip-rule="evenodd" d="M10 19C14.9706 19 19 14.9706 19 10C19 5.02944 14.9706 1 10 1C5.02944 1 1 5.02944 1 10C1 14.9706 5.02944 19 10 19ZM10 20C15.5228 20 20 15.5228 20 10C20 4.47715 15.5228 0 10 0C4.47715 0 0 4.47715 0 10C0 15.5228 4.47715 20 10 20Z" fill="#398C39"/>
</g>
<defs>
<clipPath id="clip0">
<path d="M0 0H20V20H0V0Z" fill="white"/>
</clipPath>
</defs>

</g>%n%n
<g transform="translate(138.000000, 8.000000) scale(2.000000 2.000000) "> 

<path fill-rule="nonzero" fill="rgb(100%, 100%, 100%)" fill-opacity="1" d="M 4.117188 9.019531 C 4.535156 9.019531 4.871094 8.683594 4.871094 8.265625 C 4.871094 7.851562 4.535156 7.511719 4.117188 7.511719 C 3.703125 7.511719 3.363281 7.851562 3.363281 8.265625 C 3.363281 8.683594 3.703125 9.019531 4.117188 9.019531 Z M 4.117188 9.019531 "/>
<path fill-rule="nonzero" fill="rgb(100%, 100%, 100%)" fill-opacity="1" d="M 2.761719 8.757812 L 4.496094 9.738281 L 3.816406 10.640625 C 3.589844 10.90625 3.214844 10.980469 2.910156 10.792969 L 2.535156 10.566406 C 2.269531 10.414062 2.195312 10.113281 2.308594 9.851562 Z M 2.761719 8.757812 "/>
<path fill="none" stroke-width="27.332899" stroke-linecap="round" stroke-linejoin="round" stroke="rgb(100%, 100%, 100%)" stroke-opacity="1" stroke-miterlimit="10" d="M 122.532552 363.066406 L 115.169271 406.86849 L 137.070312 439.53125 " transform="matrix(0.0206897, 0, 0, 0.0206897, 0, 0)"/>
<path fill="none" stroke-width="27.332899" stroke-linecap="round" stroke-linejoin="round" stroke="rgb(100%, 100%, 100%)" stroke-opacity="1" stroke-miterlimit="10" d="M 275.651042 448.782552 L 239.21224 474.270833 L 191.822917 476.158854 " transform="matrix(0.0206897, 0, 0, 0.0206897, 0, 0)"/>
<path fill-rule="nonzero" fill="rgb(100%, 100%, 100%)" fill-opacity="1" d="M 1.367188 3.027344 C 0.800781 2.949219 1.140625 1.101562 2.234375 1.101562 C 7.132812 1.101562 10.902344 4.609375 10.902344 7.511719 C 10.902344 7.964844 9.660156 8.90625 9.433594 8.53125 C 7.925781 6.003906 4.949219 3.441406 1.367188 3.027344 Z M 1.367188 3.027344 "/>
<path fill="none" stroke-width="18.221901" stroke-linecap="butt" stroke-linejoin="round" stroke="rgb(100%, 100%, 100%)" stroke-opacity="1" stroke-miterlimit="10" d="M 299.251302 439.53125 L 454.06901 395.917969 " transform="matrix(0.0206897, 0, 0, 0.0206897, 0, 0)"/>
<path fill="none" stroke-width="18.221901" stroke-linecap="butt" stroke-linejoin="round" stroke="rgb(100%, 100%, 100%)" stroke-opacity="1" stroke-miterlimit="10" d="M 118.945312 335.690104 L 87.792969 135.371094 " transform="matrix(0.0206897, 0, 0, 0.0206897, 0, 0)"/>

</g>%n%n</svg>