<svg width="300" height="40" viewBox="0 0 300 40" fill="none" xmlns="http://www.w3.org/2000/svg" xmlns:xlink="http://www.w3.org/1999/xlink">

<g transform="translate(130.000000, 0.000000) scale(2.000000 2.000000) "> 

<g clip-path="url(#clip0)">
<path opacity="0.953" d="M9.99934 0C15.514 0 20 4.44646 20 10C20 15.5172 15.514 20 9.99934 20C4.48599 20 0 15.5172 0 10C0 4.44646 4.48599 0 9.99934 0V0Z" fill="#60BE60"/>
<path opacity="0.95" fill-rule="evenodd" clip-rule="evenodd" d="M10 19C14.9706 19 19 14.9706 19 10C19 5.02944 14.9706 1 10 1C5.02944 1 1 5.02944 1 10C1 14.9706 5.02944 19 10 19ZM10 20C15.5228 20 20 15.5228 20 10C20 4.47715 15.5228 0 10 0C4.47715 0 0 4.47715 0 10C0 15.5228 4.47715 20 10 20Z" fill="#398C39"/>
</g>
<defs>
<clipPath id="clip0">
<path d="M0 0H20V20H0V0Z" fill="white"/>
</clipPath>
</defs>

</g>%n%n
<g transform="translate(138.000000, 8.000000) scale(2.000000 2.000000) "> 

<path fill-rule="nonzero" fill="rgb(100%, 100%, 100%)" fill-opacity="1" d="M 3.675781 2.9375 C 4.214844 2.9375 4.648438 2.503906 4.648438 1.964844 C 4.648438 1.429688 4.214844 0.992188 3.675781 0.992188 C 3.140625 0.992188 2.703125 1.429688 2.703125 1.964844 C 2.703125 2.503906 3.140625 2.9375 3.675781 2.9375 Z M 3.675781 2.9375 "/>
<path fill-rule="nonzero" fill="rgb(100%, 100%, 100%)" fill-opacity="1" d="M 8.050781 2.9375 C 8.589844 2.9375 9.023438 2.503906 9.023438 1.964844 C 9.023438 1.429688 8.589844 0.992188 8.050781 0.992188 C 7.515625 0.992188 7.078125 1.429688 7.078125 1.964844 C 7.078125 2.503906 7.515625 2.9375 8.050781 2.9375 Z M 8.050781 2.9375 "/>
<path fill-rule="nonzero" fill="rgb(100%, 100%, 100%)" fill-opacity="1" d="M 6.398438 3.519531 L 7.90625 3.910156 L 8.34375 4.445312 L 7.226562 7.3125 L 4.988281 6.4375 L 5.960938 4.007812 Z M 6.398438 3.519531 "/>
<path fill="none" stroke-width="46.988499" stroke-linecap="round" stroke-linejoin="miter" stroke="rgb(100%, 100%, 100%)" stroke-opacity="1" stroke-miterlimit="10" d="M 156.516927 106.673177 L 203.528646 153.684896 C 215.234375 165.390625 231.660156 172.565104 245.820312 174.830729 L 299.817708 177.285156 C 306.992188 177.285156 316.24349 179.550781 323.417969 182.005208 L 384.401042 207.682292 C 417.252604 221.842448 433.867188 259.414062 421.972656 292.265625 L 408.001302 330.026042 " transform="matrix(0.0206897, 0, 0, 0.0206897, 0, 0)"/>
<path fill="none" stroke-width="46.988499" stroke-linecap="round" stroke-linejoin="round" stroke="rgb(100%, 100%, 100%)" stroke-opacity="1" stroke-miterlimit="10" d="M 346.829427 294.720052 L 264.700521 508.44401 " transform="matrix(0.0206897, 0, 0, 0.0206897, 0, 0)"/>
<path fill="none" stroke-width="46.988499" stroke-linecap="round" stroke-linejoin="round" stroke="rgb(100%, 100%, 100%)" stroke-opacity="1" stroke-miterlimit="10" d="M 290.377604 259.414062 L 229.394531 393.463542 " transform="matrix(0.0206897, 0, 0, 0.0206897, 0, 0)"/>

</g>%n%n</svg>