<svg width="300" height="40" viewBox="0 0 300 40" fill="none" xmlns="http://www.w3.org/2000/svg" xmlns:xlink="http://www.w3.org/1999/xlink" version="1.1">

<g transform="translate(130.000000, 0.000000) scale(2.000000 2.000000) "> 

<g clip-path="url(#clip0)">
<path opacity="0.953" d="M9.99934 0C15.514 0 20 4.44646 20 10C20 15.5172 15.514 20 9.99934 20C4.48599 20 0 15.5172 0 10C0 4.44646 4.48599 0 9.99934 0V0Z" fill="#60BE60"/>
<path opacity="0.95" fill-rule="evenodd" clip-rule="evenodd" d="M10 19C14.9706 19 19 14.9706 19 10C19 5.02944 14.9706 1 10 1C5.02944 1 1 5.02944 1 10C1 14.9706 5.02944 19 10 19ZM10 20C15.5228 20 20 15.5228 20 10C20 4.47715 15.5228 0 10 0C4.47715 0 0 4.47715 0 10C0 15.5228 4.47715 20 10 20Z" fill="#398C39"/>
</g>
<defs>
<clipPath id="clip0">
<path d="M0 0H20V20H0V0Z" fill="white"/>
</clipPath>
</defs>

</g>%n%n
<g transform="translate(138.000000, 8.000000) scale(2.000000 2.000000) "> 

<g id="surface1">
<path style=" stroke:none;fill-rule:nonzero;fill:rgb(100%,100%,100%);fill-opacity:1;" d="M 2.914062 2.660156 L 2.304688 1.480469 L 0.496094 1.476562 L 2.242188 3.261719 Z M 2.914062 2.660156 "/>
<path style=" stroke:none;fill-rule:nonzero;fill:rgb(100%,100%,100%);fill-opacity:1;" d="M 8.371094 6.476562 C 8.699219 6.566406 9.054688 6.382812 9.148438 6.046875 C 9.242188 5.714844 9.046875 5.367188 8.714844 5.277344 L 8.457031 5.203125 L 8.121094 6.402344 Z M 8.371094 6.476562 "/>
<path style=" stroke:none;fill-rule:nonzero;fill:rgb(100%,100%,100%);fill-opacity:1;" d="M 8.167969 5.125 L 6.074219 4.539062 C 5.9375 4.5 5.800781 4.585938 5.761719 4.722656 L 5.566406 5.421875 C 5.527344 5.558594 5.601562 5.699219 5.742188 5.742188 L 7.835938 6.324219 Z M 8.167969 5.125 "/>
<path style=" stroke:none;fill-rule:nonzero;fill:rgb(100%,100%,100%);fill-opacity:1;" d="M 8.496094 7.113281 C 8.339844 6.960938 8.140625 6.839844 7.910156 6.777344 L 5.375 6.066406 L 3.816406 3.304688 C 3.734375 3.160156 3.601562 3.046875 3.429688 3 C 3.089844 2.90625 2.734375 3.105469 2.640625 3.449219 C 2.59375 3.609375 2.617188 3.777344 2.691406 3.914062 L 4.640625 7.332031 C 4.640625 7.332031 4.796875 7.589844 5.199219 7.722656 L 8.742188 8.714844 L 10.386719 10.382812 C 10.441406 10.4375 10.511719 10.484375 10.597656 10.507812 C 10.84375 10.578125 11.101562 10.429688 11.175781 10.183594 C 11.222656 10.011719 11.167969 9.828125 11.042969 9.714844 Z M 8.496094 7.113281 "/>
<path style=" stroke:none;fill-rule:nonzero;fill:rgb(100%,100%,100%);fill-opacity:1;" d="M 10.386719 7.804688 L 10.757812 8.285156 L 11.503906 7.46875 L 10.871094 7.117188 C 10.933594 6.671875 10.65625 6.242188 10.21875 6.121094 C 9.734375 5.984375 9.230469 6.265625 9.09375 6.75 C 8.957031 7.238281 9.242188 7.738281 9.726562 7.871094 C 9.957031 7.9375 10.191406 7.902344 10.386719 7.804688 Z M 10.386719 7.804688 "/>
</g>

</g>%n%n</svg>