<svg width="300" height="40" viewBox="0 0 300 40" fill="none" xmlns="http://www.w3.org/2000/svg" xmlns:xlink="http://www.w3.org/1999/xlink">

<g transform="translate(130.000000, 0.000000) scale(2.000000 2.000000) "> 

<g clip-path="url(#clip0)">
<path opacity="0.953" d="M9.99934 0C15.514 0 20 4.44646 20 10C20 15.5172 15.514 20 9.99934 20C4.48599 20 0 15.5172 0 10C0 4.44646 4.48599 0 9.99934 0V0Z" fill="#60BE60"/>
<path opacity="0.95" fill-rule="evenodd" clip-rule="evenodd" d="M10 19C14.9706 19 19 14.9706 19 10C19 5.02944 14.9706 1 10 1C5.02944 1 1 5.02944 1 10C1 14.9706 5.02944 19 10 19ZM10 20C15.5228 20 20 15.5228 20 10C20 4.47715 15.5228 0 10 0C4.47715 0 0 4.47715 0 10C0 15.5228 4.47715 20 10 20Z" fill="#398C39"/>
</g>
<defs>
<clipPath id="clip0">
<path d="M0 0H20V20H0V0Z" fill="white"/>
</clipPath>
</defs>

</g>%n%n
<g transform="translate(138.000000, 8.000000) scale(0.750000 0.750000) "> 

<path fill-rule="nonzero" fill="rgb(100%, 100%, 100%)" fill-opacity="1" stroke-width="20.947599" stroke-linecap="square" stroke-linejoin="miter" stroke="rgb(100%, 100%, 100%)" stroke-opacity="1" stroke-miterlimit="4" d="M 85.17334 56.21582 L 73.349609 56.21582 L 73.349609 523.78418 L 85.17334 523.78418 Z M 85.17334 56.21582 " transform="matrix(0.0551724, 0, 0, 0.0551724, 0, 0)"/>
<path fill-rule="evenodd" fill="rgb(100%, 100%, 100%)" fill-opacity="1" d="M 4.300781 2.855469 L 14.203125 6.539062 L 4.320312 10.5625 Z M 4.300781 2.855469 "/>
<path fill-rule="nonzero" fill="rgb(100%, 100%, 100%)" fill-opacity="1" d="M 21.367188 8.683594 C 21.367188 8.105469 21.160156 7.617188 20.742188 7.222656 C 20.328125 6.824219 19.828125 6.628906 19.25 6.628906 C 18.675781 6.628906 18.183594 6.824219 17.777344 7.222656 C 17.371094 7.617188 17.167969 8.105469 17.167969 8.683594 C 17.167969 9.257812 17.371094 9.746094 17.777344 10.140625 C 18.183594 10.535156 18.675781 10.734375 19.25 10.734375 C 19.828125 10.734375 20.328125 10.535156 20.742188 10.140625 C 21.160156 9.746094 21.367188 9.257812 21.367188 8.683594 Z M 15.851562 30.046875 C 16.300781 30.046875 16.664062 29.832031 16.941406 29.402344 L 22.972656 20.324219 L 23.292969 21.578125 L 22.394531 28.378906 C 22.351562 28.71875 22.425781 29.023438 22.621094 29.292969 C 22.8125 29.558594 23.078125 29.726562 23.421875 29.789062 C 23.765625 29.851562 24.078125 29.78125 24.367188 29.582031 C 24.65625 29.378906 24.824219 29.105469 24.867188 28.761719 L 25.796875 21.800781 C 25.816406 21.566406 25.796875 21.320312 25.730469 21.0625 L 23.679688 12.882812 L 29.035156 11.921875 C 29.3125 11.878906 29.539062 11.734375 29.710938 11.488281 C 29.878906 11.242188 29.945312 10.980469 29.902344 10.703125 C 29.835938 10.425781 29.675781 10.1875 29.421875 9.996094 L 17.101562 1.882812 L 15.980469 3.515625 C 15.703125 3.902344 15.765625 4.234375 16.171875 4.511719 C 16.558594 4.746094 16.886719 4.683594 17.167969 4.320312 L 17.808594 3.355469 L 27.816406 9.933594 L 19.636719 11.40625 C 19.335938 11.472656 19.097656 11.628906 18.914062 11.875 C 18.734375 12.121094 18.683594 12.382812 18.769531 12.660156 L 20.535156 19.554688 L 14.761719 28.183594 C 14.652344 28.378906 14.601562 28.578125 14.601562 28.792969 C 14.601562 29.136719 14.722656 29.429688 14.96875 29.675781 C 15.214844 29.921875 15.507812 30.046875 15.851562 30.046875 Z M 15.851562 30.046875 "/>

</g>%n%n</svg>