<svg width="300" height="40" viewBox="0 0 300 40" fill="none" xmlns="http://www.w3.org/2000/svg" xmlns:xlink="http://www.w3.org/1999/xlink">

<g transform="translate(130.000000, 0.000000) scale(2.000000 2.000000) "> 

<g clip-path="url(#clip0)">
<path opacity="0.953" d="M9.99934 0C15.514 0 20 4.44646 20 10C20 15.5172 15.514 20 9.99934 20C4.48599 20 0 15.5172 0 10C0 4.44646 4.48599 0 9.99934 0V0Z" fill="#60BE60"/>
<path opacity="0.95" fill-rule="evenodd" clip-rule="evenodd" d="M10 19C14.9706 19 19 14.9706 19 10C19 5.02944 14.9706 1 10 1C5.02944 1 1 5.02944 1 10C1 14.9706 5.02944 19 10 19ZM10 20C15.5228 20 20 15.5228 20 10C20 4.47715 15.5228 0 10 0C4.47715 0 0 4.47715 0 10C0 15.5228 4.47715 20 10 20Z" fill="#398C39"/>
</g>
<defs>
<clipPath id="clip0">
<path d="M0 0H20V20H0V0Z" fill="white"/>
</clipPath>
</defs>

</g>%n%n
<g transform="translate(138.000000, 8.000000) scale(2.000000 2.000000) "> 

<path fill-rule="nonzero" fill="rgb(100%, 100%, 100%)" fill-opacity="1" d="M 4 11.5 L 8 11.5 L 8 10.5 C 7.53125 10.257812 7.023438 10.097656 6.5 10.03125 L 6.5 7.5 L 5.5 7.5 L 5.5 10.035156 C 4.996094 10.101562 4.496094 10.261719 4 10.5 Z M 4 11.5 "/>
<path fill-rule="nonzero" fill="rgb(100%, 100%, 100%)" fill-opacity="1" d="M 1 7.5 L 1 5.5 L 11 5.5 L 11 7.5 Z M 1 7.5 "/>
<path fill-rule="evenodd" fill="rgb(100%, 100%, 100%)" fill-opacity="1" d="M 4.5 7 C 4.5 7.277344 4.722656 7.5 5 7.5 C 5.277344 7.5 5.5 7.277344 5.5 7 L 5.5 4.5 L 6.503906 4.5 L 6.503906 7 C 6.503906 7.277344 6.730469 7.5 7.003906 7.5 C 7.28125 7.5 7.503906 7.277344 7.503906 7 L 7.503906 3.46875 C 7.453125 2.621094 7.007812 1.886719 6.433594 1.234375 C 6.320312 1.042969 6.09375 0.949219 5.878906 1.007812 C 5.867188 1.011719 5.859375 1.015625 5.851562 1.015625 C 5.84375 1.019531 5.832031 1.023438 5.824219 1.027344 C 5.726562 1.0625 5.644531 1.128906 5.585938 1.214844 C 5.003906 1.871094 4.550781 2.609375 4.5 3.46875 Z M 5.503906 3.5 C 5.535156 3.101562 5.710938 2.699219 6.003906 2.292969 C 6.277344 2.640625 6.449219 3.058594 6.503906 3.5 Z M 5.503906 3.5 "/>

</g>%n%n</svg>