<svg width="300" height="40" viewBox="0 0 300 40" fill="none" xmlns="http://www.w3.org/2000/svg" xmlns:xlink="http://www.w3.org/1999/xlink">

<g transform="translate(130.000000, 0.000000) scale(2.000000 2.000000) "> 

<g clip-path="url(#clip0)">
<path opacity="0.953" d="M9.99934 0C15.514 0 20 4.44646 20 10C20 15.5172 15.514 20 9.99934 20C4.48599 20 0 15.5172 0 10C0 4.44646 4.48599 0 9.99934 0V0Z" fill="#60BE60"/>
<path opacity="0.95" fill-rule="evenodd" clip-rule="evenodd" d="M10 19C14.9706 19 19 14.9706 19 10C19 5.02944 14.9706 1 10 1C5.02944 1 1 5.02944 1 10C1 14.9706 5.02944 19 10 19ZM10 20C15.5228 20 20 15.5228 20 10C20 4.47715 15.5228 0 10 0C4.47715 0 0 4.47715 0 10C0 15.5228 4.47715 20 10 20Z" fill="#398C39"/>
</g>
<defs>
<clipPath id="clip0">
<path d="M0 0H20V20H0V0Z" fill="white"/>
</clipPath>
</defs>

</g>%n%n
<g transform="translate(138.000000, 8.000000) scale(2.000000 2.000000) "> 

<path fill-rule="nonzero" fill="rgb(100%, 100%, 100%)" fill-opacity="1" d="M 5.753906 5.101562 C 6.101562 5.101562 6.386719 4.820312 6.386719 4.46875 C 6.386719 4.117188 6.101562 3.832031 5.753906 3.832031 C 5.402344 3.832031 5.117188 4.117188 5.117188 4.46875 C 5.117188 4.820312 5.402344 5.101562 5.753906 5.101562 Z M 5.753906 5.101562 "/>
<path fill-rule="nonzero" fill="rgb(100%, 100%, 100%)" fill-opacity="1" d="M 2.640625 7.503906 L 0.792969 9.359375 C 0.652344 9.46875 0.605469 9.667969 0.691406 9.835938 C 0.785156 10.023438 1.019531 10.097656 1.207031 10 C 1.234375 9.988281 1.257812 9.972656 1.28125 9.953125 L 3.179688 8.050781 L 2.722656 7.597656 C 2.695312 7.570312 2.667969 7.539062 2.640625 7.503906 Z M 2.640625 7.503906 "/>
<path fill-rule="nonzero" fill="rgb(100%, 100%, 100%)" fill-opacity="1" d="M 6.246094 8.167969 C 6.597656 8.167969 6.882812 7.882812 6.882812 7.53125 C 6.882812 7.179688 6.597656 6.898438 6.246094 6.898438 C 5.898438 6.898438 5.613281 7.179688 5.613281 7.53125 C 5.613281 7.882812 5.898438 8.167969 6.246094 8.167969 Z M 6.246094 8.167969 "/>
<path fill-rule="nonzero" fill="rgb(100%, 100%, 100%)" fill-opacity="1" d="M 9.078125 4.578125 L 7.664062 3.152344 L 7.664062 2.003906 C 7.664062 1.789062 7.488281 1.613281 7.269531 1.613281 C 7.074219 1.613281 6.878906 1.839844 6.878906 2.003906 L 6.878906 3.601562 C 6.878906 3.714844 6.925781 3.816406 7.003906 3.886719 L 7.941406 4.824219 L 6.929688 5.835938 L 6.75 6.007812 L 5.28125 5.035156 C 5.214844 4.964844 5.136719 4.914062 5.050781 4.882812 C 4.972656 4.84375 4.886719 4.828125 4.804688 4.839844 C 4.644531 4.84375 4.484375 4.90625 4.359375 5.023438 L 3.875 5.492188 L 3.851562 5.511719 L 3.734375 5.628906 L 2.894531 6.441406 C 2.640625 6.6875 2.628906 7.082031 2.851562 7.34375 C 2.875 7.371094 2.898438 7.398438 2.921875 7.421875 L 4.335938 8.847656 L 4.335938 9.996094 C 4.335938 10.210938 4.511719 10.386719 4.730469 10.386719 C 4.925781 10.386719 5.121094 10.160156 5.121094 9.996094 L 5.121094 8.398438 C 5.121094 8.285156 5.074219 8.183594 4.996094 8.113281 L 4.058594 7.175781 L 5.070312 6.164062 L 5.234375 6.007812 L 6.648438 6.949219 C 6.683594 6.972656 6.71875 6.988281 6.753906 7 C 6.878906 7.105469 7.03125 7.160156 7.183594 7.160156 C 7.347656 7.160156 7.515625 7.097656 7.640625 6.976562 L 8.125 6.507812 L 8.148438 6.488281 L 8.265625 6.371094 L 9.105469 5.558594 C 9.359375 5.3125 9.371094 4.917969 9.148438 4.65625 C 9.125 4.628906 9.101562 4.601562 9.078125 4.578125 Z M 9.078125 4.578125 "/>
<path fill-rule="nonzero" fill="rgb(100%, 100%, 100%)" fill-opacity="1" d="M 11.308594 2.164062 C 11.214844 1.976562 10.980469 1.902344 10.792969 2 C 10.765625 2.011719 10.742188 2.027344 10.71875 2.046875 L 8.820312 3.949219 L 9.277344 4.402344 C 9.304688 4.429688 9.332031 4.460938 9.359375 4.496094 L 11.207031 2.640625 C 11.347656 2.53125 11.394531 2.332031 11.308594 2.164062 Z M 11.308594 2.164062 "/>

</g>%n%n</svg>