<svg width="300" height="40" viewBox="0 0 300 40" fill="none" xmlns="http://www.w3.org/2000/svg" xmlns:xlink="http://www.w3.org/1999/xlink">

<g transform="translate(130.000000, 0.000000) scale(2.000000 2.000000) "> 

<g clip-path="url(#clip0)">
<path opacity="0.953" d="M9.99934 0C15.514 0 20 4.44646 20 10C20 15.5172 15.514 20 9.99934 20C4.48599 20 0 15.5172 0 10C0 4.44646 4.48599 0 9.99934 0V0Z" fill="#60BE60"/>
<path opacity="0.95" fill-rule="evenodd" clip-rule="evenodd" d="M10 19C14.9706 19 19 14.9706 19 10C19 5.02944 14.9706 1 10 1C5.02944 1 1 5.02944 1 10C1 14.9706 5.02944 19 10 19ZM10 20C15.5228 20 20 15.5228 20 10C20 4.47715 15.5228 0 10 0C4.47715 0 0 4.47715 0 10C0 15.5228 4.47715 20 10 20Z" fill="#398C39"/>
</g>
<defs>
<clipPath id="clip0">
<path d="M0 0H20V20H0V0Z" fill="white"/>
</clipPath>
</defs>

</g>%n%n
<g transform="translate(138.000000, 8.000000) scale(2.000000 2.000000) "> 

<path fill-rule="nonzero" fill="rgb(100%, 100%, 100%)" fill-opacity="1" d="M 6 2.386719 C 7.988281 2.386719 9.613281 4.011719 9.613281 6 C 9.613281 7.988281 7.988281 9.613281 6 9.613281 C 4.011719 9.613281 2.386719 7.988281 2.386719 6 C 2.386719 4.011719 4.011719 2.386719 6 2.386719 Z M 6 1.484375 C 3.515625 1.484375 1.484375 3.515625 1.484375 6 C 1.484375 8.484375 3.515625 10.515625 6 10.515625 C 8.484375 10.515625 10.515625 8.484375 10.515625 6 C 10.515625 3.515625 8.484375 1.484375 6 1.484375 Z M 6 1.484375 "/>
<path fill="none" stroke-width="43.6632" stroke-linecap="round" stroke-linejoin="round" stroke="rgb(100%, 100%, 100%)" stroke-opacity="1" stroke-miterlimit="10" d="M 421.028646 148.020833 C 421.028646 148.020833 322.66276 209.192708 335.878906 324.928385 C 344.563802 405.735677 423.105469 434.05599 423.105469 434.05599 " transform="matrix(0.0206897, 0, 0, 0.0206897, 0, 0)"/>
<path fill="none" stroke-width="43.6632" stroke-linecap="round" stroke-linejoin="round" stroke="rgb(100%, 100%, 100%)" stroke-opacity="1" stroke-miterlimit="10" d="M 156.894531 158.971354 C 156.894531 158.971354 180.872396 211.458333 180.872396 307.558594 C 180.872396 375.14974 154.628906 427.447917 154.628906 427.447917 " transform="matrix(0.0206897, 0, 0, 0.0206897, 0, 0)"/>
<path fill="none" stroke-width="43.6632" stroke-linecap="round" stroke-linejoin="round" stroke="rgb(100%, 100%, 100%)" stroke-opacity="1" stroke-miterlimit="10" d="M 102.330729 261.679688 C 102.330729 261.679688 152.552083 311.901042 290 311.901042 C 427.447917 311.901042 477.669271 261.679688 477.669271 261.679688 " transform="matrix(0.0206897, 0, 0, 0.0206897, 0, 0)"/>
<path fill="none" stroke-width="43.6632" stroke-linecap="round" stroke-linejoin="round" stroke="rgb(100%, 100%, 100%)" stroke-opacity="1" stroke-miterlimit="10" d="M 296.608073 102.330729 C 296.608073 102.330729 246.386719 163.313802 246.386719 290 C 246.386719 416.686198 296.608073 477.669271 296.608073 477.669271 " transform="matrix(0.0206897, 0, 0, 0.0206897, 0, 0)"/>

</g>%n%n</svg>