<svg width="40" height="40" viewBox="0 0 40 40" fill="none" xmlns="http://www.w3.org/2000/svg" >

<g transform="translate(0.000000, 0.000000) scale(2.000000 2.000000) "> 

<g clip-path="url(#clip0)">
<path opacity="0.953" d="M9.99934 0C15.514 0 20 4.44646 20 10C20 15.5172 15.514 20 9.99934 20C4.48599 20 0 15.5172 0 10C0 4.44646 4.48599 0 9.99934 0V0Z" fill="#60BE60"/>
<path opacity="0.95" fill-rule="evenodd" clip-rule="evenodd" d="M10 19C14.9706 19 19 14.9706 19 10C19 5.02944 14.9706 1 10 1C5.02944 1 1 5.02944 1 10C1 14.9706 5.02944 19 10 19ZM10 20C15.5228 20 20 15.5228 20 10C20 4.47715 15.5228 0 10 0C4.47715 0 0 4.47715 0 10C0 15.5228 4.47715 20 10 20Z" fill="#398C39"/>
</g>
<defs>
<clipPath id="clip0">
<path d="M0 0H20V20H0V0Z" fill="white"/>
</clipPath>
</defs>

</g>


<g transform="translate(8.000000, 8.000000) scale(0.500000 0.500000) "> 

<path fill-rule="evenodd" clip100-rule="evenodd" d="M5.63703 19.7296C4.62664 16.1933 5.61292 12.3871 8.21358 9.78642L9.78643 8.21358C12.3871 5.61293 16.1933 4.62666 19.7296 5.63705C24.9754 7.13584 29.2965 10.866 31.5452 15.8367L31.808 16.4176C32.3087 17.5245 32.6114 18.6835 32.7245 19.8488L37.7481 34.9196L43.596 40.7676C44.3771 41.5487 44.3771 42.815 43.596 43.596C42.815 44.3771 41.5486 44.3771 40.7676 43.596L34.9196 37.7481L19.8488 32.7245C18.6835 32.6114 17.5245 32.3087 16.4176 31.808L15.8367 31.5452C10.866 29.2965 7.13583 24.9754 5.63703 19.7296ZM29.5889 28.593C30.0796 28.1022 30.5159 27.5727 30.8962 27.0131L32.8377 32.8377L27.0131 30.8962C27.5727 30.5159 28.1022 30.0796 28.593 29.5889L29.5889 28.593Z" fill="#ffffff"/>
<path d="M12 44C14.2091 44 16 42.2091 16 40C16 37.7909 14.2091 36 12 36C9.79086 36 7.99999 37.7909 7.99999 40C7.99999 42.2091 9.79086 44 12 44Z" fill="#ffffff"/>

</g>

</svg>