<svg width="300" height="40" viewBox="0 0 300 40" fill="none" xmlns="http://www.w3.org/2000/svg" xmlns:xlink="http://www.w3.org/1999/xlink">

<g transform="translate(130.000000, 0.000000) scale(2.000000 2.000000) "> 

<g clip-path="url(#clip0)">
<path opacity="0.953" d="M9.99934 0C15.514 0 20 4.44646 20 10C20 15.5172 15.514 20 9.99934 20C4.48599 20 0 15.5172 0 10C0 4.44646 4.48599 0 9.99934 0V0Z" fill="#60BE60"/>
<path opacity="0.95" fill-rule="evenodd" clip-rule="evenodd" d="M10 19C14.9706 19 19 14.9706 19 10C19 5.02944 14.9706 1 10 1C5.02944 1 1 5.02944 1 10C1 14.9706 5.02944 19 10 19ZM10 20C15.5228 20 20 15.5228 20 10C20 4.47715 15.5228 0 10 0C4.47715 0 0 4.47715 0 10C0 15.5228 4.47715 20 10 20Z" fill="#398C39"/>
</g>
<defs>
<clipPath id="clip0">
<path d="M0 0H20V20H0V0Z" fill="white"/>
</clipPath>
</defs>

</g>%n%n
<g transform="translate(138.000000, 8.000000) scale(2.000000 2.000000) "> 

<path fill-rule="nonzero" fill="rgb(100%, 100%, 100%)" fill-opacity="1" d="M 5.675781 6.46875 C 5.628906 6.285156 5.5625 6.125 5.378906 4.714844 C 5.195312 3.300781 5.878906 1.914062 6.0625 1.503906 C 6.246094 1.09375 5.925781 0.910156 5.46875 0.796875 C 5.015625 0.683594 4.945312 1.25 4.945312 1.25 C 4.398438 2.277344 4.671875 4.554688 4.46875 4.941406 C 4.261719 5.328125 4.035156 6.46875 4.035156 6.46875 C 4.492188 6.921875 5.71875 6.648438 5.675781 6.46875 Z M 5.675781 6.46875 "/>
<path fill-rule="nonzero" fill="rgb(100%, 100%, 100%)" fill-opacity="1" d="M 8.539062 8.8125 C 8.539062 8.773438 8.527344 8.730469 8.503906 8.6875 C 8.328125 8.355469 7.492188 7.9375 6.363281 7.703125 C 5.785156 7.558594 5.664062 7.171875 5.644531 6.9375 C 5.542969 7.117188 4.4375 7.328125 4.011719 6.902344 C 4.011719 7.46875 2.886719 7.703125 2.886719 7.703125 L 2.890625 7.703125 C 1.808594 7.9375 1.054688 8.355469 0.898438 8.6875 L 0.867188 9.691406 C 0.867188 10.1875 2.585938 10.589844 4.703125 10.589844 C 6.820312 10.589844 8.539062 10.1875 8.539062 9.691406 C 8.539062 9.652344 8.539062 8.851562 8.539062 8.8125 Z M 8.539062 8.8125 "/>
<path fill-rule="nonzero" fill="rgb(100%, 100%, 100%)" fill-opacity="1" d="M 9.175781 4.386719 C 8.554688 4.386719 8.050781 4.59375 8.050781 4.847656 L 8.050781 5.414062 C 8.050781 5.667969 8.554688 5.875 9.175781 5.875 C 9.800781 5.875 10.304688 5.667969 10.304688 5.414062 L 10.304688 4.847656 C 10.304688 4.59375 9.800781 4.386719 9.175781 4.386719 Z M 9.175781 4.386719 "/>

</g>%n%n</svg>