<svg width="300" height="40" viewBox="0 0 300 40" fill="none" xmlns="http://www.w3.org/2000/svg" xmlns:xlink="http://www.w3.org/1999/xlink" version="1.1">

<g transform="translate(130.000000, 0.000000) scale(2.000000 2.000000) "> 

<g clip-path="url(#clip0)">
<path opacity="0.953" d="M9.99934 0C15.514 0 20 4.44646 20 10C20 15.5172 15.514 20 9.99934 20C4.48599 20 0 15.5172 0 10C0 4.44646 4.48599 0 9.99934 0V0Z" fill="#60BE60"/>
<path opacity="0.95" fill-rule="evenodd" clip-rule="evenodd" d="M10 19C14.9706 19 19 14.9706 19 10C19 5.02944 14.9706 1 10 1C5.02944 1 1 5.02944 1 10C1 14.9706 5.02944 19 10 19ZM10 20C15.5228 20 20 15.5228 20 10C20 4.47715 15.5228 0 10 0C4.47715 0 0 4.47715 0 10C0 15.5228 4.47715 20 10 20Z" fill="#398C39"/>
</g>
<defs>
<clipPath id="clip0">
<path d="M0 0H20V20H0V0Z" fill="white"/>
</clipPath>
</defs>

</g>%n%n
<g transform="translate(138.000000, 8.000000) scale(2.000000 2.000000) "> 

<g id="surface1">
<path style=" stroke:none;fill-rule:evenodd;fill:rgb(100%,100%,100%);fill-opacity:1;" d="M 8.945312 6.054688 C 8.054688 5.976562 7.070312 5.851562 6.15625 5.761719 C 6.046875 5.75 5.820312 5.695312 5.753906 5.734375 C 5.605469 5.816406 5.507812 6.039062 5.378906 6.121094 C 6.246094 6.511719 7.117188 6.863281 7.988281 7.253906 C 7.617188 7.710938 7.21875 8.203125 6.84375 8.65625 C 6.789062 8.726562 6.726562 8.824219 6.679688 8.855469 C 6.632812 8.886719 6.484375 8.875 6.40625 8.875 C 6.199219 8.878906 6.054688 8.875 5.851562 8.878906 C 5.761719 8.878906 5.628906 8.867188 5.574219 8.902344 C 5.46875 8.96875 5.433594 9.066406 5.339844 9.160156 C 5.507812 9.234375 5.664062 9.332031 5.835938 9.421875 C 5.976562 9.5 6.21875 9.582031 6.328125 9.6875 C 6.390625 9.746094 6.421875 9.851562 6.46875 9.933594 C 6.617188 10.183594 6.753906 10.421875 6.90625 10.660156 C 6.972656 10.558594 7.089844 10.519531 7.148438 10.410156 C 7.175781 10.363281 7.15625 10.207031 7.15625 10.140625 C 7.152344 9.84375 7.132812 9.558594 7.148438 9.300781 C 7.667969 8.863281 8.1875 8.386719 8.710938 7.949219 C 9.125 8.808594 9.507812 9.664062 9.925781 10.523438 C 10.054688 10.390625 10.179688 10.257812 10.308594 10.128906 C 10.195312 9.191406 10.046875 8.292969 9.914062 7.34375 C 9.902344 7.246094 9.84375 7.003906 9.875 6.941406 C 9.898438 6.890625 9.972656 6.851562 10.015625 6.808594 C 10.804688 6.058594 11.335938 5.164062 11.421875 4.410156 C 10.589844 4.546875 9.765625 5.179688 8.945312 6.054688 Z M 8.945312 6.054688 "/>
<path style=" stroke:none;fill-rule:nonzero;fill:rgb(100%,100%,100%);fill-opacity:1;" d="M 2.746094 2.804688 C 2.953125 2.804688 3.128906 2.730469 3.277344 2.578125 C 3.425781 2.429688 3.503906 2.253906 3.503906 2.046875 C 3.503906 1.835938 3.425781 1.65625 3.277344 1.511719 C 3.128906 1.367188 2.953125 1.292969 2.746094 1.292969 C 2.542969 1.292969 2.363281 1.367188 2.214844 1.511719 C 2.066406 1.65625 1.992188 1.835938 1.992188 2.046875 C 1.992188 2.253906 2.066406 2.429688 2.214844 2.578125 C 2.363281 2.730469 2.542969 2.804688 2.746094 2.804688 Z M 3.738281 2.957031 L 1.742188 2.957031 C 1.46875 2.957031 1.238281 3.050781 1.050781 3.242188 C 0.859375 3.433594 0.761719 3.671875 0.761719 3.949219 L 0.761719 6.269531 C 0.761719 6.492188 0.863281 6.605469 1.070312 6.605469 C 1.265625 6.605469 1.363281 6.492188 1.363281 6.269531 L 1.363281 4.003906 L 1.726562 4.003906 L 1.726562 10.15625 C 1.726562 10.433594 1.867188 10.574219 2.144531 10.574219 C 2.425781 10.574219 2.566406 10.433594 2.566406 10.15625 L 2.566406 6.589844 L 2.929688 6.589844 L 2.929688 10.15625 C 2.929688 10.433594 3.070312 10.574219 3.347656 10.574219 C 3.636719 10.574219 3.78125 10.433594 3.78125 10.15625 L 3.78125 4.003906 L 4.128906 4.003906 L 4.128906 6.269531 C 4.128906 6.503906 4.230469 6.617188 4.425781 6.617188 C 4.621094 6.617188 4.71875 6.503906 4.71875 6.269531 L 4.71875 3.964844 C 4.71875 3.691406 4.628906 3.457031 4.445312 3.257812 C 4.265625 3.058594 4.027344 2.957031 3.738281 2.957031 Z M 3.738281 2.957031 "/>
</g>

</g>%n%n</svg>