<svg width="300" height="40" viewBox="0 0 300 40" fill="none" xmlns="http://www.w3.org/2000/svg" xmlns:xlink="http://www.w3.org/1999/xlink" version="1.1">

<g transform="translate(130.000000, 0.000000) scale(2.000000 2.000000) "> 

<g clip-path="url(#clip0)">
<path opacity="0.953" d="M9.99934 0C15.514 0 20 4.44646 20 10C20 15.5172 15.514 20 9.99934 20C4.48599 20 0 15.5172 0 10C0 4.44646 4.48599 0 9.99934 0V0Z" fill="#60BE60"/>
<path opacity="0.95" fill-rule="evenodd" clip-rule="evenodd" d="M10 19C14.9706 19 19 14.9706 19 10C19 5.02944 14.9706 1 10 1C5.02944 1 1 5.02944 1 10C1 14.9706 5.02944 19 10 19ZM10 20C15.5228 20 20 15.5228 20 10C20 4.47715 15.5228 0 10 0C4.47715 0 0 4.47715 0 10C0 15.5228 4.47715 20 10 20Z" fill="#398C39"/>
</g>
<defs>
<clipPath id="clip0">
<path d="M0 0H20V20H0V0Z" fill="white"/>
</clipPath>
</defs>

</g>%n%n
<g transform="translate(138.000000, 8.000000) scale(2.000000 2.000000) "> 

<g id="surface1">
<path style=" stroke:none;fill-rule:evenodd;fill:rgb(100%,100%,100%);fill-opacity:1;" d="M 1.410156 4.933594 C 1.15625 4.046875 1.402344 3.097656 2.054688 2.445312 L 2.445312 2.054688 C 3.097656 1.402344 4.046875 1.15625 4.933594 1.410156 C 6.242188 1.785156 7.324219 2.714844 7.886719 3.960938 L 7.953125 4.105469 C 8.078125 4.382812 8.152344 4.671875 8.179688 4.960938 L 9.4375 8.730469 L 10.898438 10.191406 C 11.09375 10.386719 11.09375 10.703125 10.898438 10.898438 C 10.703125 11.09375 10.386719 11.09375 10.191406 10.898438 L 8.730469 9.4375 L 4.960938 8.179688 C 4.671875 8.152344 4.382812 8.078125 4.105469 7.953125 L 3.960938 7.886719 C 2.714844 7.324219 1.785156 6.242188 1.410156 4.933594 Z M 7.398438 7.148438 C 7.519531 7.027344 7.628906 6.894531 7.722656 6.753906 L 8.210938 8.210938 L 6.753906 7.722656 C 6.894531 7.628906 7.027344 7.519531 7.148438 7.398438 Z M 7.398438 7.148438 "/>
<path style=" stroke:none;fill-rule:nonzero;fill:rgb(100%,100%,100%);fill-opacity:1;" d="M 3 11 C 3.550781 11 4 10.550781 4 10 C 4 9.449219 3.550781 9 3 9 C 2.449219 9 2 9.449219 2 10 C 2 10.550781 2.449219 11 3 11 Z M 3 11 "/>
</g>

</g>%n%n</svg>