<svg width="40" height="40" viewBox="0 0 40 40" fill="none" xmlns="http://www.w3.org/2000/svg" >

<g transform="translate(0.000000, 0.000000) scale(2.000000 2.000000) "> 

<g clip-path="url(#clip0)">
<path opacity="0.953" d="M9.99934 0C15.514 0 20 4.44646 20 10C20 15.5172 15.514 20 9.99934 20C4.48599 20 0 15.5172 0 10C0 4.44646 4.48599 0 9.99934 0V0Z" fill="#60BE60"/>
<path opacity="0.95" fill-rule="evenodd" clip-rule="evenodd" d="M10 19C14.9706 19 19 14.9706 19 10C19 5.02944 14.9706 1 10 1C5.02944 1 1 5.02944 1 10C1 14.9706 5.02944 19 10 19ZM10 20C15.5228 20 20 15.5228 20 10C20 4.47715 15.5228 0 10 0C4.47715 0 0 4.47715 0 10C0 15.5228 4.47715 20 10 20Z" fill="#398C39"/>
</g>
<defs>
<clipPath id="clip0">
<path d="M0 0H20V20H0V0Z" fill="white"/>
</clipPath>
</defs>

</g>


<g transform="translate(8.000000, 8.000000) scale(2.000000 2.000000) "> 

<path d="M511.881 513.746L68.1184 444.758" stroke="#ffffff" stroke-width="37.291" stroke-miterlimit="10" stroke-linecap="round" stroke-linejoin="round"/>
<path d="M390.686 159.481C416.43 159.481 437.299 138.612 437.299 112.868C437.299 87.1236 416.43 66.2539 390.686 66.2539C364.941 66.2539 344.072 87.1236 344.072 112.868C344.072 138.612 364.941 159.481 390.686 159.481Z" fill="#ffffff"/>
<path d="M97.9513 461.539L62.5249 513.746C62.5249 513.746 135.242 506.288 159.481 474.591L97.9513 461.539Z" fill="#ffffff"/>
<path d="M493.236 290L355.26 178.127L247.116 144.565L213.554 66.2539" stroke="#ffffff" stroke-width="37.291" stroke-miterlimit="10" stroke-linecap="round" stroke-linejoin="round"/>
<path d="M222.876 252.709L303.052 301.187L409.331 204.231L353.394 165.075L319.833 159.481L222.876 252.709Z" fill="#ffffff"/>
<path d="M331.02 441.029L353.395 351.53L239.657 269.49L243.386 362.718L146.43 411.196" stroke="#ffffff" stroke-width="46.6138" stroke-miterlimit="10" stroke-linecap="round" stroke-linejoin="round"/>

</g>

</svg>