<svg width="300" height="40" viewBox="0 0 300 40" fill="none" xmlns="http://www.w3.org/2000/svg" xmlns:xlink="http://www.w3.org/1999/xlink">

<g transform="translate(130.000000, 0.000000) scale(2.000000 2.000000) "> 

<g clip-path="url(#clip0)">
<path opacity="0.953" d="M9.99934 0C15.514 0 20 4.44646 20 10C20 15.5172 15.514 20 9.99934 20C4.48599 20 0 15.5172 0 10C0 4.44646 4.48599 0 9.99934 0V0Z" fill="#60BE60"/>
<path opacity="0.95" fill-rule="evenodd" clip-rule="evenodd" d="M10 19C14.9706 19 19 14.9706 19 10C19 5.02944 14.9706 1 10 1C5.02944 1 1 5.02944 1 10C1 14.9706 5.02944 19 10 19ZM10 20C15.5228 20 20 15.5228 20 10C20 4.47715 15.5228 0 10 0C4.47715 0 0 4.47715 0 10C0 15.5228 4.47715 20 10 20Z" fill="#398C39"/>
</g>
<defs>
<clipPath id="clip0">
<path d="M0 0H20V20H0V0Z" fill="white"/>
</clipPath>
</defs>

</g>%n%n
<g transform="translate(138.000000, 8.000000) scale(2.000000 2.000000) "> 

<path fill-rule="nonzero" fill="rgb(100%, 100%, 100%)" fill-opacity="1" d="M 7.007812 7.082031 C 6.867188 7.222656 6.679688 7.222656 6.492188 7.082031 C 6.304688 6.9375 6.398438 6.84375 5.789062 6.1875 C 5.179688 5.53125 5.039062 5.625 4.894531 5.484375 C 4.753906 5.34375 4.753906 5.109375 4.894531 4.964844 L 4.941406 4.917969 C 5.085938 4.777344 5.320312 4.777344 5.460938 4.917969 C 5.601562 5.0625 5.648438 5.296875 6.164062 5.8125 C 6.679688 6.328125 6.914062 6.375 7.058594 6.515625 C 7.199219 6.65625 7.199219 6.890625 7.058594 7.035156 Z M 7.007812 7.082031 "/>
<path fill-rule="nonzero" fill="rgb(100%, 100%, 100%)" fill-opacity="1" d="M 5.835938 8.253906 C 5.695312 8.394531 5.507812 8.394531 5.320312 8.253906 C 5.132812 8.113281 5.226562 8.019531 4.613281 7.363281 C 4.003906 6.703125 3.863281 6.796875 3.722656 6.65625 C 3.582031 6.515625 3.582031 6.28125 3.722656 6.140625 L 3.769531 6.09375 C 3.910156 5.953125 4.144531 5.953125 4.285156 6.09375 C 4.425781 6.234375 4.472656 6.46875 4.992188 6.984375 C 5.507812 7.503906 5.742188 7.550781 5.882812 7.691406 C 6.023438 7.832031 6.023438 8.066406 5.882812 8.207031 Z M 5.835938 8.253906 "/>
<path fill-rule="nonzero" fill="rgb(100%, 100%, 100%)" fill-opacity="1" d="M 8.183594 5.90625 C 8.042969 6.046875 7.855469 6.046875 7.667969 5.90625 C 7.480469 5.765625 7.574219 5.671875 6.960938 5.015625 C 6.351562 4.355469 6.210938 4.449219 6.070312 4.308594 C 5.929688 4.167969 5.929688 3.933594 6.070312 3.792969 L 6.117188 3.746094 C 6.257812 3.605469 6.492188 3.605469 6.632812 3.746094 C 6.773438 3.886719 6.820312 4.121094 7.339844 4.636719 C 7.855469 5.15625 8.089844 5.203125 8.230469 5.34375 C 8.371094 5.484375 8.371094 5.71875 8.230469 5.859375 Z M 8.183594 5.90625 "/>
<path fill-rule="nonzero" fill="rgb(100%, 100%, 100%)" fill-opacity="1" d="M 8.324219 2.242188 C 8.980469 2.242188 9.40625 2.382812 9.5 2.523438 C 9.96875 2.996094 9.96875 5.90625 7.949219 7.972656 C 6.585938 9.289062 4.847656 9.757812 3.675781 9.757812 C 3.019531 9.757812 2.59375 9.617188 2.5 9.476562 C 2.359375 9.335938 2.125 8.628906 2.3125 7.410156 C 2.453125 6.65625 2.828125 5.25 4.050781 4.027344 C 5.414062 2.710938 7.152344 2.242188 8.324219 2.242188 Z M 8.324219 1.304688 C 6.820312 1.304688 4.847656 1.914062 3.394531 3.417969 C 1.09375 5.71875 0.855469 9.195312 1.84375 10.179688 C 2.171875 10.507812 2.828125 10.695312 3.675781 10.695312 C 5.132812 10.695312 7.105469 10.085938 8.605469 8.582031 C 10.90625 6.28125 11.144531 2.804688 10.15625 1.820312 C 9.78125 1.492188 9.125 1.304688 8.324219 1.304688 Z M 8.324219 1.304688 "/>
<path fill="none" stroke-width="45.399101" stroke-linecap="butt" stroke-linejoin="round" stroke="rgb(100%, 100%, 100%)" stroke-opacity="1" stroke-miterlimit="10" d="M 391.009115 187.858073 L 186.72526 392.141927 " transform="matrix(0.0206897, 0, 0, 0.0206897, 0, 0)"/>
<path fill="none" stroke-width="45.399101" stroke-linecap="butt" stroke-linejoin="round" stroke="rgb(100%, 100%, 100%)" stroke-opacity="1" stroke-miterlimit="10" d="M 470.494792 108.372396 L 413.665365 165.201823 " transform="matrix(0.0206897, 0, 0, 0.0206897, 0, 0)"/>
<path fill="none" stroke-width="45.399101" stroke-linecap="butt" stroke-linejoin="round" stroke="rgb(100%, 100%, 100%)" stroke-opacity="1" stroke-miterlimit="10" d="M 164.06901 414.798177 L 107.239583 471.627604 " transform="matrix(0.0206897, 0, 0, 0.0206897, 0, 0)"/>

</g>%n%n</svg>