<svg width="300" height="40" viewBox="0 0 300 40" fill="none" xmlns="http://www.w3.org/2000/svg" xmlns:xlink="http://www.w3.org/1999/xlink">

<g transform="translate(130.000000, 0.000000) scale(2.000000 2.000000) "> 

<g clip-path="url(#clip0)">
<path opacity="0.953" d="M9.99934 0C15.514 0 20 4.44646 20 10C20 15.5172 15.514 20 9.99934 20C4.48599 20 0 15.5172 0 10C0 4.44646 4.48599 0 9.99934 0V0Z" fill="#60BE60"/>
<path opacity="0.95" fill-rule="evenodd" clip-rule="evenodd" d="M10 19C14.9706 19 19 14.9706 19 10C19 5.02944 14.9706 1 10 1C5.02944 1 1 5.02944 1 10C1 14.9706 5.02944 19 10 19ZM10 20C15.5228 20 20 15.5228 20 10C20 4.47715 15.5228 0 10 0C4.47715 0 0 4.47715 0 10C0 15.5228 4.47715 20 10 20Z" fill="#398C39"/>
</g>
<defs>
<clipPath id="clip0">
<path d="M0 0H20V20H0V0Z" fill="white"/>
</clipPath>
</defs>

</g>%n%n
<g transform="translate(138.000000, 8.000000) scale(2.000000 2.000000) "> 

<path fill-rule="nonzero" fill="rgb(100%, 100%, 100%)" fill-opacity="1" d="M 9.898438 4.972656 C 10.125 4.972656 10.320312 4.894531 10.476562 4.738281 C 10.636719 4.578125 10.714844 4.386719 10.714844 4.160156 C 10.714844 3.933594 10.636719 3.742188 10.476562 3.582031 C 10.320312 3.425781 10.125 3.34375 9.898438 3.34375 C 9.679688 3.34375 9.492188 3.425781 9.328125 3.582031 C 9.167969 3.742188 9.085938 3.933594 9.085938 4.160156 C 9.085938 4.386719 9.167969 4.578125 9.328125 4.738281 C 9.492188 4.894531 9.679688 4.972656 9.898438 4.972656 Z M 10.640625 10.539062 L 10.347656 10.371094 C 10.253906 10.53125 10.109375 10.613281 9.925781 10.613281 C 9.835938 10.613281 9.75 10.589844 9.667969 10.539062 L 1.113281 5.507812 L 0.941406 5.800781 L 9.5 10.832031 C 9.628906 10.90625 9.769531 10.941406 9.925781 10.941406 C 10.238281 10.941406 10.480469 10.808594 10.640625 10.539062 Z M 3.796875 6.640625 C 3.847656 6.648438 3.917969 6.636719 4.003906 6.601562 L 6.351562 5.835938 C 6.578125 5.757812 6.703125 5.628906 6.726562 5.460938 C 6.753906 5.289062 6.761719 5.195312 6.753906 5.179688 L 6.398438 3.90625 L 7.808594 4.742188 L 7.980469 5.96875 C 8.011719 6.191406 8.105469 6.34375 8.257812 6.433594 L 10.09375 7.503906 C 10.160156 7.542969 10.222656 7.5625 10.289062 7.5625 C 10.410156 7.5625 10.511719 7.519531 10.59375 7.433594 C 10.671875 7.351562 10.714844 7.25 10.714844 7.136719 C 10.714844 6.976562 10.640625 6.855469 10.496094 6.773438 L 9.035156 5.921875 L 8.878906 3.734375 C 8.855469 3.441406 8.730469 3.230469 8.503906 3.101562 L 6.398438 1.863281 C 6.207031 1.75 6.003906 1.691406 5.792969 1.691406 C 5.410156 1.691406 5.117188 1.847656 4.90625 2.15625 C 4.78125 2.339844 4.722656 2.542969 4.722656 2.761719 C 4.722656 2.859375 4.734375 2.957031 4.757812 3.054688 L 5.328125 4.914062 L 3.617188 5.460938 C 3.375 5.535156 3.234375 5.710938 3.203125 5.996094 C 3.15625 6.375 3.351562 6.589844 3.796875 6.640625 Z M 3.796875 6.640625 "/>

</g>%n%n</svg>