<svg width="300" height="35" viewBox="0 0 300 35" fill="none" xmlns="http://www.w3.org/2000/svg" >

<g transform="translate(135.000000, 2.000000) scale(1.500000 1.500000) "> 

<g clip-path="url(#clip0)">
<path opacity="0.953" d="M9.99934 0C15.514 0 20 4.44646 20 10C20 15.5172 15.514 20 9.99934 20C4.48599 20 0 15.5172 0 10C0 4.44646 4.48599 0 9.99934 0V0Z" fill="#2E702E"/>
<path opacity="0.95" fill-rule="evenodd" clip-rule="evenodd" d="M10 19C14.9706 19 19 14.9706 19 10C19 5.02944 14.9706 1 10 1C5.02944 1 1 5.02944 1 10C1 14.9706 5.02944 19 10 19ZM10 20C15.5228 20 20 15.5228 20 10C20 4.47715 15.5228 0 10 0C4.47715 0 0 4.47715 0 10C0 15.5228 4.47715 20 10 20Z" fill="#44A544"/>
</g>
<defs>
<clipPath id="clip0">
<path d="M0 0H20V20H0V0Z" fill="white"/>
</clipPath>
</defs>

</g>


<g transform="translate(141.000000, 8.000000) scale(0.031034 0.031034) "> 

<path d="M140.81 128.498L111.443 71.5558L23.9458 71.2998L108.382 157.609L140.81 128.498Z" fill="#ffffff"/>
<path d="M404.587 313.074C420.548 317.46 437.697 308.433 442.251 292.221C446.636 276.26 437.316 259.493 421.229 254.983L408.717 251.491L392.5 309.495L404.587 313.074H404.587Z" fill="#ffffff"/>
<path d="M394.755 247.787L293.677 219.313C287.036 217.57 280.358 221.568 278.528 228.208L269.038 261.999C267.164 268.64 270.781 275.449 277.591 277.448L378.668 305.622L394.755 247.787Z" fill="#ffffff"/>
<path d="M410.716 343.798C403.013 336.477 393.436 330.648 382.242 327.581L259.717 293.278L184.433 159.728C180.473 152.832 174.094 147.346 165.836 145.085C149.325 140.444 132.17 150.152 127.66 166.663C125.405 174.496 126.467 182.493 130.046 189.259L224.227 354.426C224.227 354.426 231.93 366.808 251.339 373.193L422.553 421.196L501.966 501.802C504.603 504.569 508.051 506.694 512.18 507.887C524.137 511.204 536.65 504.057 540.142 492.225C542.397 483.842 539.717 475.033 533.758 469.586L410.716 343.798Z" fill="#ffffff"/>
<path d="M502.086 377.164L519.877 400.441L556.054 360.947L525.499 343.923C528.392 322.515 515.116 301.793 493.839 295.79C470.431 289.28 446.086 302.855 439.576 326.263C432.936 349.796 446.642 374.015 470.049 380.525C481.19 383.717 492.515 381.974 502.086 377.164V377.164Z" fill="#ffffff"/>

</g>

</svg>