<svg width="300" height="35" viewBox="0 0 300 35" fill="none" xmlns="http://www.w3.org/2000/svg">

<g transform="translate(135.000000, 2.000000) scale(1.500000 1.500000) "> 

<g clip-path="url(#clip0)">
<path opacity="0.953" d="M9.99934 0C15.514 0 20 4.44646 20 10C20 15.5172 15.514 20 9.99934 20C4.48599 20 0 15.5172 0 10C0 4.44646 4.48599 0 9.99934 0V0Z" fill="#2E702E"/>
<path opacity="0.95" fill-rule="evenodd" clip-rule="evenodd" d="M10 19C14.9706 19 19 14.9706 19 10C19 5.02944 14.9706 1 10 1C5.02944 1 1 5.02944 1 10C1 14.9706 5.02944 19 10 19ZM10 20C15.5228 20 20 15.5228 20 10C20 4.47715 15.5228 0 10 0C4.47715 0 0 4.47715 0 10C0 15.5228 4.47715 20 10 20Z" fill="#44A544"/>
</g>
<defs>
<clipPath id="clip0">
<path d="M0 0H20V20H0V0Z" fill="white"/>
</clipPath>
</defs>

</g>


<g transform="translate(141.000000, 8.000000) scale(0.031034 0.031034) "> 

<path d="M107.376 153.616C132.612 153.616 153.069 133.158 153.069 107.923C153.069 82.687 132.612 62.2295 107.376 62.2295C82.1406 62.2295 61.6831 82.687 61.6831 107.923C61.6831 133.158 82.1406 153.616 107.376 153.616Z" fill="#ffffff"/>
<path d="M146.215 258.71L322.133 434.628C301.572 434.628 278.725 430.059 258.163 423.205C249.025 420.92 217.039 416.351 203.332 427.774C173.631 457.474 148.5 496.313 134.792 510.021C121.084 523.729 100.522 519.16 79.9603 498.598C61.6831 480.321 54.8292 457.474 68.5371 443.766C84.5296 432.343 123.369 404.927 153.069 377.512C166.777 363.804 159.923 327.249 157.638 322.68C148.5 302.118 146.215 279.272 146.215 258.71ZM466.066 114.777C381.534 27.96 267.302 59.9451 196.478 128.485C171.346 153.616 153.069 185.601 148.5 219.871L360.972 432.343C395.242 425.489 427.227 409.497 452.359 384.366C520.898 313.541 552.883 199.309 466.066 114.777Z" fill="#ffffff"/>

</g>

</svg>