<svg width="300" height="40" viewBox="0 0 300 40" fill="none" xmlns="http://www.w3.org/2000/svg" xmlns:xlink="http://www.w3.org/1999/xlink">

<g transform="translate(130.000000, 0.000000) scale(2.000000 2.000000) "> 

<g clip-path="url(#clip0)">
<path opacity="0.953" d="M9.99934 0C15.514 0 20 4.44646 20 10C20 15.5172 15.514 20 9.99934 20C4.48599 20 0 15.5172 0 10C0 4.44646 4.48599 0 9.99934 0V0Z" fill="#60BE60"/>
<path opacity="0.95" fill-rule="evenodd" clip-rule="evenodd" d="M10 19C14.9706 19 19 14.9706 19 10C19 5.02944 14.9706 1 10 1C5.02944 1 1 5.02944 1 10C1 14.9706 5.02944 19 10 19ZM10 20C15.5228 20 20 15.5228 20 10C20 4.47715 15.5228 0 10 0C4.47715 0 0 4.47715 0 10C0 15.5228 4.47715 20 10 20Z" fill="#398C39"/>
</g>
<defs>
<clipPath id="clip0">
<path d="M0 0H20V20H0V0Z" fill="white"/>
</clipPath>
</defs>

</g>%n%n
<g transform="translate(138.000000, 8.000000) scale(2.000000 2.000000) "> 

<path fill-rule="nonzero" fill="rgb(100%, 100%, 100%)" fill-opacity="1" d="M 10.25 6.507812 L 10.253906 6.5 L 10.117188 6.5 C 9.667969 6.460938 9.351562 6.300781 9.148438 6.160156 L 9.148438 5.984375 L 9.992188 5.984375 L 9.988281 5.980469 C 10.023438 5.976562 10.054688 5.976562 10.085938 5.972656 C 11.070312 5.90625 11.296875 4.980469 11.296875 4.980469 C 9.648438 5.75 8.917969 4.421875 8.878906 4.351562 L 8.878906 4.347656 L 8.066406 3.59375 L 6.902344 3.59375 L 6.902344 3.039062 L 7.464844 3.039062 C 7.464844 3.039062 6.757812 2.769531 6.394531 2.40625 C 6.035156 2.046875 6 1.546875 6 1.546875 C 6 1.546875 5.964844 2.046875 5.605469 2.40625 C 5.242188 2.769531 4.535156 3.039062 4.535156 3.039062 L 5.097656 3.039062 L 5.097656 3.59375 L 3.832031 3.59375 L 3.121094 4.347656 C 3.121094 4.347656 2.398438 5.769531 0.703125 4.980469 C 0.703125 4.980469 0.929688 5.898438 1.898438 5.972656 L 1.894531 5.984375 L 3.058594 5.984375 C 2.917969 6.125 2.542969 6.441406 1.882812 6.5 L 1.5625 6.5 L 1.566406 6.503906 C 1.3125 6.496094 1.027344 6.445312 0.703125 6.34375 C 0.703125 6.34375 0.925781 6.964844 1.890625 7.019531 L 1.894531 7.027344 L 2.652344 7.027344 L 2.652344 10.453125 L 5.171875 10.453125 L 5.171875 8.957031 C 5.171875 8.5 5.542969 8.128906 6 8.128906 C 6.457031 8.128906 6.828125 8.5 6.828125 8.957031 L 6.828125 10.453125 L 9.347656 10.453125 L 9.347656 7.027344 L 9.992188 7.027344 C 10.023438 7.023438 10.054688 7.023438 10.085938 7.023438 C 11.070312 6.976562 11.296875 6.34375 11.296875 6.34375 C 10.894531 6.472656 10.546875 6.515625 10.25 6.507812 Z M 10.25 6.507812 "/>

</g>%n%n</svg>