<svg width="300" height="40" viewBox="0 0 300 40" fill="none" xmlns="http://www.w3.org/2000/svg" xmlns:xlink="http://www.w3.org/1999/xlink">

<g transform="translate(130.000000, 0.000000) scale(2.000000 2.000000) "> 

<g clip-path="url(#clip0)">
<path opacity="0.953" d="M9.99934 0C15.514 0 20 4.44646 20 10C20 15.5172 15.514 20 9.99934 20C4.48599 20 0 15.5172 0 10C0 4.44646 4.48599 0 9.99934 0V0Z" fill="#60BE60"/>
<path opacity="0.95" fill-rule="evenodd" clip-rule="evenodd" d="M10 19C14.9706 19 19 14.9706 19 10C19 5.02944 14.9706 1 10 1C5.02944 1 1 5.02944 1 10C1 14.9706 5.02944 19 10 19ZM10 20C15.5228 20 20 15.5228 20 10C20 4.47715 15.5228 0 10 0C4.47715 0 0 4.47715 0 10C0 15.5228 4.47715 20 10 20Z" fill="#398C39"/>
</g>
<defs>
<clipPath id="clip0">
<path d="M0 0H20V20H0V0Z" fill="white"/>
</clipPath>
</defs>

</g>%n%n
<g transform="translate(138.000000, 8.000000) scale(0.750000 0.750000) "> 

<path fill-rule="nonzero" fill="rgb(100%, 100%, 100%)" fill-opacity="1" d="M 10.980469 24.054688 C 12.089844 24.054688 12.992188 23.152344 12.992188 22.042969 C 12.992188 20.933594 12.089844 20.03125 10.980469 20.03125 C 9.871094 20.03125 8.96875 20.933594 8.96875 22.042969 C 8.96875 23.152344 9.871094 24.054688 10.980469 24.054688 Z M 10.980469 24.054688 "/>
<path fill-rule="nonzero" fill="rgb(100%, 100%, 100%)" fill-opacity="1" d="M 7.363281 23.351562 L 11.988281 25.964844 L 10.175781 28.375 C 9.574219 29.082031 8.570312 29.28125 7.765625 28.777344 L 6.757812 28.175781 C 6.054688 27.773438 5.855469 26.96875 6.15625 26.265625 Z M 7.363281 23.351562 "/>
<path fill="none" stroke-width="27.332899" stroke-linecap="round" stroke-linejoin="round" stroke="rgb(100%, 100%, 100%)" stroke-opacity="1" stroke-miterlimit="10" d="M 122.485352 363.066406 L 115.192871 406.821289 L 137.070312 439.602051 " transform="matrix(0.0551724, 0, 0, 0.0551724, 0, 0)"/>
<path fill="none" stroke-width="27.332899" stroke-linecap="round" stroke-linejoin="round" stroke="rgb(100%, 100%, 100%)" stroke-opacity="1" stroke-miterlimit="10" d="M 275.556641 448.735352 L 239.094238 474.223633 L 191.728516 476.064453 " transform="matrix(0.0551724, 0, 0, 0.0551724, 0, 0)"/>
<path fill-rule="nonzero" fill="rgb(100%, 100%, 100%)" fill-opacity="1" d="M 3.640625 8.070312 C 2.132812 7.867188 3.039062 2.941406 5.953125 2.941406 C 19.023438 2.941406 29.078125 12.292969 29.078125 20.03125 C 29.078125 21.238281 25.761719 23.753906 25.15625 22.746094 C 21.136719 16.011719 13.191406 9.175781 3.640625 8.070312 Z M 3.640625 8.070312 "/>
<path fill="none" stroke-width="18.221901" stroke-linecap="butt" stroke-linejoin="round" stroke="rgb(100%, 100%, 100%)" stroke-opacity="1" stroke-miterlimit="10" d="M 299.274902 439.602051 L 454.116211 395.917969 " transform="matrix(0.0551724, 0, 0, 0.0551724, 0, 0)"/>
<path fill="none" stroke-width="18.221901" stroke-linecap="butt" stroke-linejoin="round" stroke="rgb(100%, 100%, 100%)" stroke-opacity="1" stroke-miterlimit="10" d="M 118.874512 335.737305 L 87.86377 135.300293 " transform="matrix(0.0551724, 0, 0, 0.0551724, 0, 0)"/>

</g>%n%n</svg>