<svg width="300" height="40" viewBox="0 0 300 40" fill="none" xmlns="http://www.w3.org/2000/svg" xmlns:xlink="http://www.w3.org/1999/xlink" version="1.1">

<g transform="translate(130.000000, 0.000000) scale(2.000000 2.000000) "> 

<g clip-path="url(#clip0)">
<path opacity="0.953" d="M9.99934 0C15.514 0 20 4.44646 20 10C20 15.5172 15.514 20 9.99934 20C4.48599 20 0 15.5172 0 10C0 4.44646 4.48599 0 9.99934 0V0Z" fill="#60BE60"/>
<path opacity="0.95" fill-rule="evenodd" clip-rule="evenodd" d="M10 19C14.9706 19 19 14.9706 19 10C19 5.02944 14.9706 1 10 1C5.02944 1 1 5.02944 1 10C1 14.9706 5.02944 19 10 19ZM10 20C15.5228 20 20 15.5228 20 10C20 4.47715 15.5228 0 10 0C4.47715 0 0 4.47715 0 10C0 15.5228 4.47715 20 10 20Z" fill="#398C39"/>
</g>
<defs>
<clipPath id="clip0">
<path d="M0 0H20V20H0V0Z" fill="white"/>
</clipPath>
</defs>

</g>%n%n
<g transform="translate(138.000000, 8.000000) scale(2.000000 2.000000) "> 

<g id="surface1">
<path style=" stroke:none;fill-rule:nonzero;fill:rgb(100%,100%,100%);fill-opacity:1;" d="M 6 2 L 12 7 L 6 6 L 0 7 Z M 6 2 "/>
<path style=" stroke:none;fill-rule:nonzero;fill:rgb(100%,100%,100%);fill-opacity:1;" d="M 7 8 C 7 8.550781 6.550781 9 6 9 C 5.449219 9 5 8.550781 5 8 C 5 7.449219 5.449219 7 6 7 C 6.550781 7 7 7.449219 7 8 Z M 7 8 "/>
<path style=" stroke:none;fill-rule:evenodd;fill:rgb(87.058824%,87.058824%,87.058824%);fill-opacity:1;" d="M 6 3.742188 L 9.875 8.171875 C 10.058594 8.378906 10.035156 8.695312 9.828125 8.875 C 9.621094 9.058594 9.304688 9.035156 9.125 8.828125 L 6 5.257812 L 2.875 8.828125 C 2.695312 9.035156 2.378906 9.058594 2.171875 8.875 C 1.964844 8.695312 1.941406 8.378906 2.125 8.171875 Z M 6 3.742188 "/>
<path style=" stroke:none;fill-rule:evenodd;fill:rgb(87.058824%,87.058824%,87.058824%);fill-opacity:1;" d="M 2 8.5 C 2 8.222656 2.222656 8 2.5 8 L 3.5 8 C 3.777344 8 4 8.222656 4 8.5 C 4 8.777344 3.777344 9 3.5 9 L 2.5 9 C 2.222656 9 2 8.777344 2 8.5 Z M 2 8.5 "/>
<path style=" stroke:none;fill-rule:evenodd;fill:rgb(87.058824%,87.058824%,87.058824%);fill-opacity:1;" d="M 8 8.5 C 8 8.222656 8.222656 8 8.5 8 L 9.5 8 C 9.777344 8 10 8.222656 10 8.5 C 10 8.777344 9.777344 9 9.5 9 L 8.5 9 C 8.222656 9 8 8.777344 8 8.5 Z M 8 8.5 "/>
</g>

</g>%n%n</svg>