<svg width="300" height="40" viewBox="0 0 300 40" fill="none" xmlns="http://www.w3.org/2000/svg" xmlns:xlink="http://www.w3.org/1999/xlink">

<g transform="translate(130.000000, 0.000000) scale(2.000000 2.000000) "> 

<g clip-path="url(#clip0)">
<path opacity="0.953" d="M9.99934 0C15.514 0 20 4.44646 20 10C20 15.5172 15.514 20 9.99934 20C4.48599 20 0 15.5172 0 10C0 4.44646 4.48599 0 9.99934 0V0Z" fill="#60BE60"/>
<path opacity="0.95" fill-rule="evenodd" clip-rule="evenodd" d="M10 19C14.9706 19 19 14.9706 19 10C19 5.02944 14.9706 1 10 1C5.02944 1 1 5.02944 1 10C1 14.9706 5.02944 19 10 19ZM10 20C15.5228 20 20 15.5228 20 10C20 4.47715 15.5228 0 10 0C4.47715 0 0 4.47715 0 10C0 15.5228 4.47715 20 10 20Z" fill="#398C39"/>
</g>
<defs>
<clipPath id="clip0">
<path d="M0 0H20V20H0V0Z" fill="white"/>
</clipPath>
</defs>

</g>%n%n
<g transform="translate(138.000000, 8.000000) scale(2.000000 2.000000) "> 

<path fill-rule="evenodd" fill="rgb(100%, 100%, 100%)" fill-opacity="1" stroke-width="5" stroke-linecap="round" stroke-linejoin="round" stroke="rgb(100%, 100%, 100%)" stroke-opacity="1" stroke-miterlimit="4" d="M 305.670573 68.91276 C 304.160156 68.91276 302.460938 69.101562 300.761719 69.290365 L 300.761719 151.419271 C 302.460938 151.230469 304.160156 151.041667 305.670573 151.041667 C 328.326823 151.041667 354.570312 167.845052 381.56901 173.697917 L 381.56901 91.56901 C 354.570312 85.716146 328.326823 68.91276 305.670573 68.91276 Z M 305.670573 68.91276 " transform="matrix(0.0206897, 0, 0, 0.0206897, 0, 0)"/>
<path fill="none" stroke-width="10" stroke-linecap="round" stroke-linejoin="round" stroke="rgb(100%, 100%, 100%)" stroke-opacity="1" stroke-miterlimit="4" d="M 130.46224 68.535156 L 132.161458 314.733073 C 132.35026 330.403646 179.173177 350.983073 201.640625 350.983073 C 231.660156 350.983073 278.294271 326.25 305.670573 326.25 C 333.046875 326.25 365.898438 350.983073 398.75 350.983073 C 431.601562 350.983073 469.928385 331.72526 469.928385 331.72526 L 469.928385 74.388021 C 469.928385 74.388021 431.601562 93.645833 398.75 93.645833 C 365.898438 93.645833 333.046875 68.91276 305.670573 68.91276 C 278.294271 68.91276 231.660156 93.645833 201.640625 93.645833 C 171.432292 93.645833 130.46224 68.535156 130.46224 68.535156 Z M 130.46224 68.535156 " transform="matrix(0.0206897, 0, 0, 0.0206897, 0, 0)"/>
<path fill-rule="evenodd" fill="rgb(100%, 100%, 100%)" fill-opacity="1" stroke-width="5" stroke-linecap="round" stroke-linejoin="round" stroke="rgb(100%, 100%, 100%)" stroke-opacity="1" stroke-miterlimit="4" d="M 467.851562 162.936198 C 462.565104 165.579427 428.958333 181.25 398.75 181.25 C 394.785156 181.25 391.009115 180.872396 387.044271 180.30599 L 387.044271 262.434896 C 391.009115 263.001302 394.785156 263.378906 398.75 263.378906 C 428.958333 263.378906 462.565104 247.708333 467.851562 245.065104 Z M 467.851562 162.936198 " transform="matrix(0.0206897, 0, 0, 0.0206897, 0, 0)"/>
<path fill-rule="evenodd" fill="rgb(100%, 100%, 100%)" fill-opacity="1" stroke-width="5" stroke-linecap="round" stroke-linejoin="round" stroke="rgb(100%, 100%, 100%)" stroke-opacity="1" stroke-miterlimit="4" d="M 305.670573 244.121094 C 304.160156 244.121094 302.460938 244.309896 300.761719 244.309896 L 300.761719 326.438802 C 302.460938 326.438802 304.160156 326.25 305.670573 326.25 C 328.326823 326.25 354.570312 343.053385 381.56901 348.90625 L 381.56901 266.777344 C 354.570312 260.924479 328.326823 244.121094 305.670573 244.121094 Z M 305.670573 244.121094 " transform="matrix(0.0206897, 0, 0, 0.0206897, 0, 0)"/>
<path fill-rule="nonzero" fill="rgb(100%, 100%, 100%)" fill-opacity="1" stroke-width="5" stroke-linecap="round" stroke-linejoin="round" stroke="rgb(100%, 100%, 100%)" stroke-opacity="1" stroke-miterlimit="4" d="M 130.46224 243.74349 L 132.161458 314.733073 C 132.539062 330.403646 179.173177 350.983073 201.640625 350.983073 C 204.472656 350.983073 207.49349 350.605469 210.514323 350.227865 L 210.514323 268.098958 C 207.49349 268.476562 204.472656 268.854167 201.640625 268.854167 C 171.432292 268.854167 130.46224 243.74349 130.46224 243.74349 Z M 130.46224 243.74349 " transform="matrix(0.0206897, 0, 0, 0.0206897, 0, 0)"/>
<path fill-rule="nonzero" fill="rgb(100%, 100%, 100%)" fill-opacity="1" stroke-width="5" stroke-linecap="round" stroke-linejoin="round" stroke="rgb(100%, 100%, 100%)" stroke-opacity="1" stroke-miterlimit="4" d="M 296.041667 157.460938 C 272.630208 161.048177 240.911458 175.397135 215.234375 179.739583 L 215.234375 261.86849 C 240.911458 257.526042 272.630208 243.177083 296.041667 239.589844 Z M 296.041667 157.460938 " transform="matrix(0.0206897, 0, 0, 0.0206897, 0, 0)"/>
<path fill-rule="nonzero" fill="rgb(100%, 100%, 100%)" fill-opacity="1" stroke-width="5" stroke-linecap="round" stroke-linejoin="round" stroke="rgb(100%, 100%, 100%)" stroke-opacity="1" stroke-miterlimit="4" d="M 130.46224 68.535156 L 132.161458 139.52474 C 132.539062 155.195312 179.173177 175.77474 201.640625 175.77474 C 204.472656 175.77474 207.49349 175.397135 210.514323 175.019531 L 210.514323 92.890625 C 207.49349 93.268229 204.472656 93.645833 201.640625 93.645833 C 171.432292 93.645833 130.46224 68.535156 130.46224 68.535156 Z M 130.46224 68.535156 " transform="matrix(0.0206897, 0, 0, 0.0206897, 0, 0)"/>
<path fill-rule="evenodd" fill="rgb(100%, 100%, 100%)" fill-opacity="1" stroke-width="10" stroke-linecap="round" stroke-linejoin="round" stroke="rgb(100%, 100%, 100%)" stroke-opacity="1" stroke-miterlimit="4" d="M 116.490885 529.967448 L 116.490885 66.647135 L 131.217448 66.647135 L 131.217448 529.967448 Z M 116.490885 529.967448 " transform="matrix(0.0206897, 0, 0, 0.0206897, 0, 0)"/>

</g>%n%n</svg>