<svg width="300" height="40" viewBox="0 0 300 40" fill="none" xmlns="http://www.w3.org/2000/svg" xmlns:xlink="http://www.w3.org/1999/xlink">

<g transform="translate(130.000000, 0.000000) scale(2.000000 2.000000) "> 

<g clip-path="url(#clip0)">
<path opacity="0.953" d="M9.99934 0C15.514 0 20 4.44646 20 10C20 15.5172 15.514 20 9.99934 20C4.48599 20 0 15.5172 0 10C0 4.44646 4.48599 0 9.99934 0V0Z" fill="#60BE60"/>
<path opacity="0.95" fill-rule="evenodd" clip-rule="evenodd" d="M10 19C14.9706 19 19 14.9706 19 10C19 5.02944 14.9706 1 10 1C5.02944 1 1 5.02944 1 10C1 14.9706 5.02944 19 10 19ZM10 20C15.5228 20 20 15.5228 20 10C20 4.47715 15.5228 0 10 0C4.47715 0 0 4.47715 0 10C0 15.5228 4.47715 20 10 20Z" fill="#398C39"/>
</g>
<defs>
<clipPath id="clip0">
<path d="M0 0H20V20H0V0Z" fill="white"/>
</clipPath>
</defs>

</g>%n%n
<g transform="translate(138.000000, 8.000000) scale(0.750000 0.750000) "> 

<path fill="none" stroke-width="32.7132" stroke-linecap="butt" stroke-linejoin="miter" stroke="rgb(100%, 100%, 100%)" stroke-opacity="1" stroke-miterlimit="10" d="M 196.755371 257.290039 C 250.98877 257.290039 294.885254 235.341797 294.885254 208.225098 C 294.885254 181.108398 250.98877 159.160156 196.755371 159.160156 C 142.592773 159.160156 98.625488 181.108398 98.625488 208.225098 C 98.625488 235.341797 142.592773 257.290039 196.755371 257.290039 Z M 196.755371 257.290039 " transform="matrix(0.0551724, 0, 0, 0.0551724, 0, 0)"/>
<path fill-rule="nonzero" fill="rgb(100%, 100%, 100%)" fill-opacity="1" d="M 10.855469 14.195312 C 7.699219 14.195312 4.539062 13.382812 4.539062 11.488281 C 4.539062 12.027344 4.539062 13.382812 4.539062 13.925781 C 4.539062 15.820312 6.34375 17.804688 10.855469 17.804688 C 15.367188 17.804688 17.171875 15.820312 17.171875 13.925781 C 17.171875 13.382812 17.171875 12.027344 17.171875 11.488281 C 17.171875 13.382812 14.015625 14.195312 10.855469 14.195312 Z M 10.855469 14.195312 "/>
<path fill-rule="nonzero" fill="rgb(100%, 100%, 100%)" fill-opacity="1" d="M 27.460938 4.269531 L 25.566406 4.269531 L 21.683594 17.714844 C 21.054688 19.878906 19.066406 21.414062 16.8125 21.414062 L 8.601562 21.414062 C 6.886719 21.414062 5.441406 22.859375 5.441406 24.574219 C 5.441406 26.289062 6.886719 27.730469 8.601562 27.730469 L 15.640625 27.730469 C 18.707031 27.730469 21.414062 25.746094 22.226562 22.769531 L 22.585938 21.414062 Z M 16.269531 25.925781 L 9.953125 25.925781 L 9.953125 23.21875 L 16.269531 23.21875 Z M 16.269531 25.925781 "/>

</g>%n%n</svg>