<svg width="300" height="40" viewBox="0 0 300 40" fill="none" xmlns="http://www.w3.org/2000/svg" xmlns:xlink="http://www.w3.org/1999/xlink" version="1.1">

<g transform="translate(130.000000, 0.000000) scale(2.000000 2.000000) "> 

<g clip-path="url(#clip0)">
<path opacity="0.953" d="M9.99934 0C15.514 0 20 4.44646 20 10C20 15.5172 15.514 20 9.99934 20C4.48599 20 0 15.5172 0 10C0 4.44646 4.48599 0 9.99934 0V0Z" fill="#60BE60"/>
<path opacity="0.95" fill-rule="evenodd" clip-rule="evenodd" d="M10 19C14.9706 19 19 14.9706 19 10C19 5.02944 14.9706 1 10 1C5.02944 1 1 5.02944 1 10C1 14.9706 5.02944 19 10 19ZM10 20C15.5228 20 20 15.5228 20 10C20 4.47715 15.5228 0 10 0C4.47715 0 0 4.47715 0 10C0 15.5228 4.47715 20 10 20Z" fill="#398C39"/>
</g>
<defs>
<clipPath id="clip0">
<path d="M0 0H20V20H0V0Z" fill="white"/>
</clipPath>
</defs>

</g>%n%n
<g transform="translate(138.000000, 8.000000) scale(2.000000 2.000000) "> 

<g id="surface1">
<path style=" stroke:none;fill-rule:nonzero;fill:rgb(100%,100%,100%);fill-opacity:1;" d="M 8.023438 3.269531 C 8.527344 3.269531 8.933594 2.863281 8.933594 2.363281 C 8.933594 1.859375 8.527344 1.453125 8.023438 1.453125 C 7.523438 1.453125 7.113281 1.859375 7.113281 2.363281 C 7.113281 2.863281 7.523438 3.269531 8.023438 3.269531 Z M 8.023438 3.269531 "/>
<path style=" stroke:none;fill-rule:nonzero;fill:rgb(100%,100%,100%);fill-opacity:1;" d="M 4.660156 7 L 4.53125 7.171875 C 4.429688 7.296875 4.277344 7.363281 4.15625 7.363281 L 2.113281 7.363281 C 1.859375 7.359375 1.648438 7.566406 1.648438 7.820312 C 1.648438 8.074219 1.859375 8.277344 2.113281 8.273438 L 4.15625 8.273438 C 4.582031 8.273438 4.976562 8.070312 5.242188 7.738281 L 5.246094 7.734375 L 5.386719 7.546875 Z M 4.660156 7 "/>
<path style="fill:none;stroke-width:43.965;stroke-linecap:round;stroke-linejoin:miter;stroke:rgb(100%,100%,100%);stroke-opacity:1;stroke-miterlimit:10;" d="M 168.033854 202.018229 C 168.033854 202.018229 214.101562 180.117188 238.268229 166.901042 C 249.407552 162.558594 260.358073 160.292969 271.308594 164.635417 L 299.817708 173.509115 L 337.200521 191.067708 C 346.074219 195.410156 352.682292 202.018229 357.02474 210.891927 L 374.583333 246.009115 C 381.191406 261.490885 396.673177 270.175781 414.231771 270.175781 C 440.664062 270.175781 477.858073 270.175781 477.858073 270.175781 " transform="matrix(0.0206897,0,0,0.0206897,0,0)"/>
<path style=" stroke:none;fill-rule:nonzero;fill:rgb(100%,100%,100%);fill-opacity:1;" d="M 6.066406 3.726562 L 4.976562 5.636719 C 4.75 6.046875 4.839844 6.546875 5.203125 6.863281 L 6.976562 8.136719 L 6.433594 6.820312 C 6.433594 6.820312 6.066406 6.863281 6.160156 6.726562 L 7.476562 4.363281 Z M 6.066406 3.726562 "/>
<path style=" stroke:none;fill-rule:nonzero;fill:rgb(100%,100%,100%);fill-opacity:1;" d="M 6.613281 8.273438 L 5.75 10.546875 C 5.75 10.546875 5.695312 10.921875 6.160156 10.929688 C 6.628906 10.9375 6.703125 10.546875 6.703125 10.546875 L 7.476562 8.59375 C 7.660156 8.09375 7.570312 7.5 7.160156 7.136719 L 6.066406 6.046875 L 5.429688 6.683594 L 6.523438 7.773438 C 6.660156 7.910156 6.703125 8.09375 6.613281 8.273438 Z M 6.613281 8.273438 "/>
</g>

</g>%n%n</svg>