<svg width="300" height="40" viewBox="0 0 300 40" fill="none" xmlns="http://www.w3.org/2000/svg" xmlns:xlink="http://www.w3.org/1999/xlink">

<g transform="translate(130.000000, 0.000000) scale(2.000000 2.000000) "> 

<g clip-path="url(#clip0)">
<path opacity="0.953" d="M9.99934 0C15.514 0 20 4.44646 20 10C20 15.5172 15.514 20 9.99934 20C4.48599 20 0 15.5172 0 10C0 4.44646 4.48599 0 9.99934 0V0Z" fill="#60BE60"/>
<path opacity="0.95" fill-rule="evenodd" clip-rule="evenodd" d="M10 19C14.9706 19 19 14.9706 19 10C19 5.02944 14.9706 1 10 1C5.02944 1 1 5.02944 1 10C1 14.9706 5.02944 19 10 19ZM10 20C15.5228 20 20 15.5228 20 10C20 4.47715 15.5228 0 10 0C4.47715 0 0 4.47715 0 10C0 15.5228 4.47715 20 10 20Z" fill="#398C39"/>
</g>
<defs>
<clipPath id="clip0">
<path d="M0 0H20V20H0V0Z" fill="white"/>
</clipPath>
</defs>

</g>%n%n
<g transform="translate(138.000000, 8.000000) scale(2.000000 2.000000) "> 

<path fill-rule="nonzero" fill="rgb(100%, 100%, 100%)" fill-opacity="1" d="M 12 6 C 12 6.550781 11.550781 7 11 7 C 10.449219 7 10 6.550781 10 6 C 10 5.449219 10.449219 5 11 5 C 11.550781 5 12 5.449219 12 6 Z M 12 6 "/>
<path fill-rule="evenodd" fill="rgb(100%, 100%, 100%)" fill-opacity="1" d="M 3.417969 6.277344 L 2.417969 7.777344 L 1.582031 7.222656 L 2.582031 5.722656 Z M 3.417969 6.277344 "/>
<path fill-rule="evenodd" fill="rgb(100%, 100%, 100%)" fill-opacity="1" d="M 2.605469 5.054688 C 2.851562 4.558594 4.507812 4.753906 5 5 L 6.734375 6 L 8.5 6 C 9.050781 6 9 6.449219 9 7 C 9 7.550781 9.050781 8 8.5 8 L 6.265625 8 L 3.054688 6.394531 C 2.558594 6.148438 2.359375 5.546875 2.605469 5.054688 Z M 2.605469 5.054688 "/>
<path fill-rule="evenodd" fill="rgb(100%, 100%, 100%)" fill-opacity="1" d="M 8.5 6.5 C 8.777344 6.5 9 6.722656 9 7 L 9 8.746094 L 10.734375 10.027344 L 10.855469 10.144531 C 11.046875 10.339844 11.046875 10.660156 10.855469 10.855469 C 10.660156 11.046875 10.339844 11.046875 10.144531 10.855469 L 10.082031 10.789062 L 8 9.253906 L 8 7 C 8 6.722656 8.222656 6.5 8.5 6.5 Z M 8.5 6.5 "/>
<path fill-rule="evenodd" fill="rgb(100%, 100%, 100%)" fill-opacity="1" d="M 0.554688 1.277344 C 0.675781 1.03125 0.976562 0.929688 1.222656 1.054688 L 2.5 1.691406 L 2.5 4.230469 L 3.917969 4.707031 L 5 5 C 5.230469 5.152344 4.070312 5.546875 3.917969 5.777344 C 3.761719 6.007812 3.230469 6.152344 3 6 L 1.5 4.769531 L 1.5 2.308594 L 0.777344 1.945312 C 0.53125 1.824219 0.429688 1.523438 0.554688 1.277344 Z M 0.554688 1.277344 "/>
<path fill-rule="evenodd" fill="rgb(90.588235%, 90.588235%, 90.588235%)" fill-opacity="1" d="M 0.0546875 6.277344 C 0.175781 6.03125 0.476562 5.929688 0.722656 6.054688 L 8.617188 10 L 10.5 10 C 10.777344 10 11 10.222656 11 10.5 C 11 10.777344 10.777344 11 10.5 11 L 8.382812 11 L 0.277344 6.945312 C 0.03125 6.824219 -0.0703125 6.523438 0.0546875 6.277344 Z M 0.0546875 6.277344 "/>

</g>%n%n</svg>