<svg width="300" height="35" viewBox="0 0 300 35" fill="none" xmlns="http://www.w3.org/2000/svg">

<g transform="translate(135.000000, 2.000000) scale(1.500000 1.500000) "> 

<g clip-path="url(#clip0)">
<path opacity="0.953" d="M9.99934 0C15.514 0 20 4.44646 20 10C20 15.5172 15.514 20 9.99934 20C4.48599 20 0 15.5172 0 10C0 4.44646 4.48599 0 9.99934 0V0Z" fill="#60BE60"/>
<path opacity="0.95" fill-rule="evenodd" clip-rule="evenodd" d="M10 19C14.9706 19 19 14.9706 19 10C19 5.02944 14.9706 1 10 1C5.02944 1 1 5.02944 1 10C1 14.9706 5.02944 19 10 19ZM10 20C15.5228 20 20 15.5228 20 10C20 4.47715 15.5228 0 10 0C4.47715 0 0 4.47715 0 10C0 15.5228 4.47715 20 10 20Z" fill="#398C39"/>
</g>
<defs>
<clipPath id="clip0">
<path d="M0 0H20V20H0V0Z" fill="white"/>
</clipPath>
</defs>

</g>


<g transform="translate(141.000000, 8.000000) scale(0.375000 0.375000) "> 

<path d="M11.1625 8.37254C10.2637 7.73052 9.01458 7.9387 8.37257 8.83753C7.73055 9.73635 7.93873 10.9855 8.83756 11.6275L19.2133 19.0387C18.672 22.3961 18.8021 25.828 19.5958 29.1347L16.077 41.4506C15.7735 42.5126 16.3885 43.6196 17.4506 43.923C18.5127 44.2265 19.6196 43.6115 19.9231 42.5494L23.4337 30.2621L32.5858 39.4142C33.3669 40.1953 34.6332 40.1953 35.4142 39.4142C36.1953 38.6332 36.1953 37.3668 35.4142 36.5858L27.6214 28.7929L27.7948 28.7351C26.9492 26.1984 26.6915 23.5122 27.0295 20.8776L38.7879 15.8383C39.8031 15.4032 40.2734 14.2274 39.8383 13.2122C39.4032 12.1969 38.2275 11.7266 37.2122 12.1617L26.6881 16.672L20.6784 15.1696L11.1625 8.37254Z" fill="#ffffff"/>
<path d="M24 14C25.6569 14 27 12.6569 27 11C27 9.34315 25.6569 8 24 8C22.3432 8 21 9.34315 21 11C21 12.6569 22.3432 14 24 14Z" fill="#ffffff"/>

</g>

</svg>