<svg width="40" height="40" viewBox="0 0 40 40" fill="none" xmlns="http://www.w3.org/2000/svg" >

<g transform="translate(0.000000, 0.000000) scale(2.000000 2.000000) "> 

<g clip-path="url(#clip0)">
<path opacity="0.953" d="M9.99934 0C15.514 0 20 4.44646 20 10C20 15.5172 15.514 20 9.99934 20C4.48599 20 0 15.5172 0 10C0 4.44646 4.48599 0 9.99934 0V0Z" fill="#60BE60"/>
<path opacity="0.95" fill-rule="evenodd" clip-rule="evenodd" d="M10 19C14.9706 19 19 14.9706 19 10C19 5.02944 14.9706 1 10 1C5.02944 1 1 5.02944 1 10C1 14.9706 5.02944 19 10 19ZM10 20C15.5228 20 20 15.5228 20 10C20 4.47715 15.5228 0 10 0C4.47715 0 0 4.47715 0 10C0 15.5228 4.47715 20 10 20Z" fill="#398C39"/>
</g>
<defs>
<clipPath id="clip0">
<path d="M0 0H20V20H0V0Z" fill="white"/>
</clipPath>
</defs>

</g>


<g transform="translate(8.000000, 8.000000) scale(2.000000 2.000000) "> 

<path d="M465.343 254.931C498.736 254.931 525.806 227.861 525.806 194.468C525.806 161.075 498.736 134.005 465.343 134.005C431.95 134.005 404.88 161.075 404.88 194.468C404.88 227.861 431.95 254.931 465.343 254.931Z" fill="#ffffff"/>
<path d="M138.842 303.302L182.376 361.346C201.724 385.532 228.328 404.88 259.769 409.717C293.628 416.972 332.324 424.228 332.324 424.228" stroke="#ffffff" stroke-width="45.371" stroke-miterlimit="10" stroke-linecap="round"/>
<path d="M339.58 182.376L356.509 90.4719C356.509 90.4719 356.424 68.2745 335.643 65.0549C314.861 61.8353 308.139 83.2163 308.139 83.2163L291.209 179.957C286.372 206.561 298.465 235.583 320.231 252.513L363.765 283.954L271.861 400.043L267.024 429.065C267.024 429.065 242.839 443.577 221.072 445.995C196.887 448.414 182.376 441.158 165.446 431.484L78.3789 378.276C78.3789 378.276 55.3213 370.396 46.8124 387.826C38.3035 405.255 54.1937 419.391 54.1937 419.391L163.027 479.854C177.538 491.947 194.468 496.784 216.235 496.784C238.002 496.784 291.209 487.11 346.835 445.995L431.484 368.602C465.343 337.161 460.506 283.954 424.228 259.769L354.091 213.817C344.417 206.561 337.161 194.468 339.58 182.376Z" fill="#ffffff"/>

</g>

</svg>