<svg width="300" height="35" viewBox="0 0 300 35" fill="none" xmlns="http://www.w3.org/2000/svg" >

<g transform="translate(135.000000, 2.000000) scale(1.500000 1.500000) "> 

<g clip-path="url(#clip0)">
<path opacity="0.953" d="M9.99934 0C15.514 0 20 4.44646 20 10C20 15.5172 15.514 20 9.99934 20C4.48599 20 0 15.5172 0 10C0 4.44646 4.48599 0 9.99934 0V0Z" fill="#2E702E"/>
<path opacity="0.95" fill-rule="evenodd" clip-rule="evenodd" d="M10 19C14.9706 19 19 14.9706 19 10C19 5.02944 14.9706 1 10 1C5.02944 1 1 5.02944 1 10C1 14.9706 5.02944 19 10 19ZM10 20C15.5228 20 20 15.5228 20 10C20 4.47715 15.5228 0 10 0C4.47715 0 0 4.47715 0 10C0 15.5228 4.47715 20 10 20Z" fill="#44A544"/>
</g>
<defs>
<clipPath id="clip0">
<path d="M0 0H20V20H0V0Z" fill="white"/>
</clipPath>
</defs>

</g>


<g transform="translate(141.000000, 8.000000) scale(0.031034 0.031034) "> 

<path d="M387.822 158.105C412.103 158.105 431.787 138.421 431.787 114.14C431.787 89.859 412.103 70.1753 387.822 70.1753C363.541 70.1753 343.857 89.859 343.857 114.14C343.857 138.421 363.541 158.105 387.822 158.105Z" fill="#ffffff"/>
<path d="M225.152 338.361L218.928 346.66C214.153 352.593 206.815 355.947 200.971 355.947H102.051C89.7863 355.771 79.7495 365.664 79.7495 377.93C79.7495 390.195 89.7863 400.089 102.051 399.912H200.971C221.488 399.912 240.496 390.091 253.308 374.076L253.523 373.809L260.324 364.74L225.152 338.361Z" fill="#ffffff"/>
<path d="M167.997 202.07C167.997 202.07 214.16 180.088 238.341 166.898C249.332 162.502 260.324 160.304 271.315 164.7L299.892 173.493L337.262 191.079C346.055 195.476 352.65 202.07 357.046 210.863L374.632 246.035C381.227 261.423 396.615 270.216 414.201 270.216C440.58 270.216 477.95 270.216 477.95 270.216" stroke="#ffffff" stroke-width="43.965" stroke-miterlimit="10" stroke-linecap="round"/>
<path d="M293.297 180.088L240.539 272.414C229.548 292.198 233.945 316.379 251.531 331.767L337.262 393.318L310.883 329.569C310.883 329.569 293.297 331.767 297.694 325.172L361.443 210.863L293.297 180.088Z" fill="#ffffff"/>
<path d="M319.676 399.912L277.91 509.824C277.91 509.824 275.233 527.918 297.827 528.269C320.421 528.62 324.073 509.824 324.073 509.824L361.443 415.3C370.236 391.119 365.839 362.542 346.055 344.956L293.297 292.198L262.522 322.974L315.28 375.732C321.875 382.326 324.073 391.119 319.676 399.912Z" fill="#ffffff"/>

</g>

</svg>