<svg width="300" height="40" viewBox="0 0 300 40" fill="none" xmlns="http://www.w3.org/2000/svg" xmlns:xlink="http://www.w3.org/1999/xlink">

<g transform="translate(130.000000, 0.000000) scale(2.000000 2.000000) "> 

<g clip-path="url(#clip0)">
<path opacity="0.953" d="M9.99934 0C15.514 0 20 4.44646 20 10C20 15.5172 15.514 20 9.99934 20C4.48599 20 0 15.5172 0 10C0 4.44646 4.48599 0 9.99934 0V0Z" fill="#60BE60"/>
<path opacity="0.95" fill-rule="evenodd" clip-rule="evenodd" d="M10 19C14.9706 19 19 14.9706 19 10C19 5.02944 14.9706 1 10 1C5.02944 1 1 5.02944 1 10C1 14.9706 5.02944 19 10 19ZM10 20C15.5228 20 20 15.5228 20 10C20 4.47715 15.5228 0 10 0C4.47715 0 0 4.47715 0 10C0 15.5228 4.47715 20 10 20Z" fill="#398C39"/>
</g>
<defs>
<clipPath id="clip0">
<path d="M0 0H20V20H0V0Z" fill="white"/>
</clipPath>
</defs>

</g>%n%n
<g transform="translate(138.000000, 8.000000) scale(2.000000 2.000000) "> 

<path fill-rule="nonzero" fill="rgb(100%, 100%, 100%)" fill-opacity="1" d="M 8.140625 5.328125 L 10.480469 2.988281 C 10.816406 2.652344 10.910156 2.082031 10.625 1.652344 C 10.242188 1.125 9.527344 1.078125 9.097656 1.507812 L 6.707031 3.894531 C 5.898438 4.707031 4.179688 7.285156 3.128906 8.335938 L 1.839844 9.625 C 1.695312 9.480469 1.457031 9.480469 1.3125 9.625 C 1.171875 9.765625 1.171875 10.007812 1.3125 10.148438 L 1.839844 10.675781 C 1.980469 10.816406 2.222656 10.816406 2.363281 10.675781 C 2.507812 10.53125 2.507812 10.292969 2.363281 10.148438 L 3.699219 8.90625 C 4.75 7.859375 7.328125 6.1875 8.140625 5.328125 Z M 8.140625 5.328125 "/>
<path fill-rule="nonzero" fill="rgb(100%, 100%, 100%)" fill-opacity="1" d="M 5.085938 2.414062 C 4.894531 2.460938 4.75 2.558594 4.609375 2.703125 C 4.464844 2.84375 4.371094 2.988281 4.320312 3.179688 C 4.703125 3.082031 4.988281 2.796875 5.085938 2.414062 Z M 5.085938 2.414062 "/>
<path fill-rule="nonzero" fill="rgb(100%, 100%, 100%)" fill-opacity="1" d="M 4.464844 2.558594 C 4.65625 2.367188 4.894531 2.273438 5.085938 2.175781 C 5.085938 1.699219 4.65625 1.269531 4.179688 1.269531 C 4.128906 1.460938 3.988281 1.699219 3.796875 1.890625 C 3.605469 2.082031 3.367188 2.222656 3.175781 2.273438 C 3.175781 2.75 3.605469 3.179688 4.082031 3.179688 C 4.128906 2.988281 4.273438 2.75 4.464844 2.558594 Z M 4.464844 2.558594 "/>
<path fill-rule="nonzero" fill="rgb(100%, 100%, 100%)" fill-opacity="1" d="M 3.941406 1.269531 C 3.558594 1.363281 3.269531 1.652344 3.175781 2.03125 C 3.367188 1.984375 3.511719 1.890625 3.652344 1.746094 C 3.796875 1.601562 3.890625 1.460938 3.941406 1.269531 Z M 3.941406 1.269531 "/>

</g>%n%n</svg>