<svg width="40" height="40" viewBox="0 0 40 40" fill="none" xmlns="http://www.w3.org/2000/svg" >

<g transform="translate(0.000000, 0.000000) scale(2.000000 2.000000) "> 

<g clip-path="url(#clip0)">
<path opacity="0.953" d="M9.99934 0C15.514 0 20 4.44646 20 10C20 15.5172 15.514 20 9.99934 20C4.48599 20 0 15.5172 0 10C0 4.44646 4.48599 0 9.99934 0V0Z" fill="#60BE60"/>
<path opacity="0.95" fill-rule="evenodd" clip-rule="evenodd" d="M10 19C14.9706 19 19 14.9706 19 10C19 5.02944 14.9706 1 10 1C5.02944 1 1 5.02944 1 10C1 14.9706 5.02944 19 10 19ZM10 20C15.5228 20 20 15.5228 20 10C20 4.47715 15.5228 0 10 0C4.47715 0 0 4.47715 0 10C0 15.5228 4.47715 20 10 20Z" fill="#398C39"/>
</g>
<defs>
<clipPath id="clip0">
<path d="M0 0H20V20H0V0Z" fill="white"/>
</clipPath>
</defs>

</g>


<g transform="translate(8.000000, 8.000000) scale(2.000000 2.000000) "> 

<path d="M290 115.347C386.059 115.347 464.653 193.941 464.653 290C464.653 386.059 386.059 464.653 290 464.653C193.941 464.653 115.347 386.059 115.347 290C115.347 193.941 193.941 115.347 290 115.347ZM290 71.6841C169.926 71.6841 71.6841 169.926 71.6841 290C71.6841 410.074 169.926 508.316 290 508.316C410.074 508.316 508.316 410.074 508.316 290C508.316 169.926 410.074 71.6841 290 71.6841Z" fill="#ffffff"/>
<path d="M420.99 148.095C420.99 148.095 322.748 209.223 335.846 324.931C344.579 405.707 423.173 434.089 423.173 434.089" stroke="#ffffff" stroke-width="43.6632" stroke-miterlimit="10" stroke-linecap="round" stroke-linejoin="round"/>
<path d="M156.827 159.01C156.827 159.01 180.842 211.406 180.842 307.465C180.842 375.143 154.644 427.539 154.644 427.539" stroke="#ffffff" stroke-width="43.6632" stroke-miterlimit="10" stroke-linecap="round" stroke-linejoin="round"/>
<path d="M102.249 261.619C102.249 261.619 152.461 311.832 290 311.832C427.539 311.832 477.752 261.619 477.752 261.619" stroke="#ffffff" stroke-width="43.6632" stroke-miterlimit="10" stroke-linecap="round" stroke-linejoin="round"/>
<path d="M296.55 102.249C296.55 102.249 246.337 163.377 246.337 290C246.337 416.623 296.55 477.752 296.55 477.752" stroke="#ffffff" stroke-width="43.6632" stroke-miterlimit="10" stroke-linecap="round" stroke-linejoin="round"/>

</g>

</svg>