<svg width="300" height="40" viewBox="0 0 300 40" fill="none" xmlns="http://www.w3.org/2000/svg" xmlns:xlink="http://www.w3.org/1999/xlink">

<g transform="translate(130.000000, 0.000000) scale(2.000000 2.000000) "> 

<g clip-path="url(#clip0)">
<path opacity="0.953" d="M9.99934 0C15.514 0 20 4.44646 20 10C20 15.5172 15.514 20 9.99934 20C4.48599 20 0 15.5172 0 10C0 4.44646 4.48599 0 9.99934 0V0Z" fill="#60BE60"/>
<path opacity="0.95" fill-rule="evenodd" clip-rule="evenodd" d="M10 19C14.9706 19 19 14.9706 19 10C19 5.02944 14.9706 1 10 1C5.02944 1 1 5.02944 1 10C1 14.9706 5.02944 19 10 19ZM10 20C15.5228 20 20 15.5228 20 10C20 4.47715 15.5228 0 10 0C4.47715 0 0 4.47715 0 10C0 15.5228 4.47715 20 10 20Z" fill="#398C39"/>
</g>
<defs>
<clipPath id="clip0">
<path d="M0 0H20V20H0V0Z" fill="white"/>
</clipPath>
</defs>

</g>%n%n
<g transform="translate(138.000000, 8.000000) scale(0.750000 0.750000) "> 

<path fill-rule="nonzero" fill="rgb(100%, 100%, 100%)" fill-opacity="1" d="M 21.398438 8.722656 C 22.738281 8.722656 23.824219 7.636719 23.824219 6.296875 C 23.824219 4.957031 22.738281 3.871094 21.398438 3.871094 C 20.058594 3.871094 18.972656 4.957031 18.972656 6.296875 C 18.972656 7.636719 20.058594 8.722656 21.398438 8.722656 Z M 21.398438 8.722656 "/>
<path fill-rule="nonzero" fill="rgb(100%, 100%, 100%)" fill-opacity="1" d="M 12.421875 18.667969 L 12.078125 19.125 C 11.816406 19.453125 11.410156 19.636719 11.089844 19.636719 L 5.628906 19.636719 C 4.953125 19.628906 4.398438 20.175781 4.398438 20.851562 C 4.398438 21.527344 4.953125 22.074219 5.628906 22.0625 L 11.089844 22.0625 C 12.21875 22.0625 13.269531 21.523438 13.976562 20.640625 L 14.363281 20.125 Z M 12.421875 18.667969 "/>
<path fill="none" stroke-width="43.965" stroke-linecap="round" stroke-linejoin="miter" stroke="rgb(100%, 100%, 100%)" stroke-opacity="1" stroke-miterlimit="10" d="M 168.010254 202.06543 C 168.010254 202.06543 214.172363 180.117188 238.31543 166.877441 C 249.360352 162.487793 260.334473 160.292969 271.308594 164.682617 L 299.912109 173.461914 L 337.294922 191.091309 C 346.074219 195.480957 352.658691 202.06543 357.04834 210.844727 L 374.606934 246.032715 C 381.262207 261.396484 396.625977 270.246582 414.18457 270.246582 C 440.593262 270.246582 477.976074 270.246582 477.976074 270.246582 " transform="matrix(0.0551724, 0, 0, 0.0551724, 0, 0)"/>
<path fill-rule="nonzero" fill="rgb(100%, 100%, 100%)" fill-opacity="1" d="M 16.183594 9.9375 L 13.269531 15.03125 C 12.664062 16.121094 12.90625 17.457031 13.878906 18.304688 L 18.609375 21.699219 L 17.152344 18.183594 C 17.152344 18.183594 16.183594 18.304688 16.425781 17.941406 L 19.941406 11.632812 Z M 16.183594 9.9375 "/>
<path fill-rule="nonzero" fill="rgb(100%, 100%, 100%)" fill-opacity="1" d="M 17.636719 22.0625 L 15.332031 28.128906 C 15.332031 28.128906 15.183594 29.125 16.433594 29.144531 C 17.679688 29.164062 17.878906 28.128906 17.878906 28.128906 L 19.941406 22.914062 C 20.425781 21.578125 20.183594 20.003906 19.09375 19.03125 L 16.183594 16.121094 L 14.484375 17.820312 L 17.394531 20.730469 C 17.757812 21.09375 17.878906 21.578125 17.636719 22.0625 Z M 17.636719 22.0625 "/>

</g>%n%n</svg>