<svg width="300" height="40" viewBox="0 0 300 40" fill="none" xmlns="http://www.w3.org/2000/svg" xmlns:xlink="http://www.w3.org/1999/xlink">

<g transform="translate(130.000000, 0.000000) scale(2.000000 2.000000) "> 

<g clip-path="url(#clip0)">
<path opacity="0.953" d="M9.9994 1C14.9626 1 19 5.00182 19 10C19 14.9655 14.9626 19 9.9994 19C5.03739 19 1 14.9655 1 10C1 5.00182 5.03739 1 9.9994 1Z" fill="#EE6C99"/>
<path opacity="0.95" fill-rule="evenodd" clip-rule="evenodd" d="M10 19C14.9706 19 19 14.9706 19 10C19 5.02944 14.9706 1 10 1C5.02944 1 1 5.02944 1 10C1 14.9706 5.02944 19 10 19ZM10 20C15.5228 20 20 15.5228 20 10C20 4.47715 15.5228 0 10 0C4.47715 0 0 4.47715 0 10C0 15.5228 4.47715 20 10 20Z" fill="#E72B6C"/>
</g>
<defs>
<clipPath id="clip0">
<path d="M0 0H20V20H0V0Z" fill="white"/>
</clipPath>
</defs>

</g>%n%n
<g transform="translate(138.000000, 8.000000) scale(2.000000 2.000000) "> 

<path fill-rule="nonzero" fill="rgb(98.823529%, 98.823529%, 98.823529%)" fill-opacity="1" d="M 5.683594 10.160156 L 7.5 10.160156 L 7.5 11 L 4.5 11 L 4.5 10.160156 L 6.007812 8.738281 C 6.140625 8.609375 6.242188 8.480469 6.304688 8.355469 C 6.371094 8.230469 6.402344 8.101562 6.402344 7.96875 C 6.402344 7.761719 6.335938 7.59375 6.207031 7.46875 C 6.078125 7.34375 5.90625 7.28125 5.691406 7.28125 C 5.523438 7.28125 5.34375 7.316406 5.144531 7.394531 C 4.945312 7.46875 4.734375 7.582031 4.511719 7.730469 L 4.511719 6.757812 C 4.75 6.675781 4.988281 6.609375 5.222656 6.566406 C 5.457031 6.523438 5.6875 6.5 5.910156 6.5 C 6.402344 6.5 6.789062 6.617188 7.058594 6.851562 C 7.332031 7.082031 7.46875 7.40625 7.46875 7.824219 C 7.46875 8.0625 7.414062 8.289062 7.296875 8.496094 C 7.183594 8.703125 6.9375 8.984375 6.5625 9.332031 Z M 5.683594 10.160156 "/>
<path fill-rule="nonzero" fill="rgb(98.823529%, 98.823529%, 98.823529%)" fill-opacity="1" d="M 4 2 L 6 0.5 L 8 2 L 7 2 L 6.5 6 L 5.5 6 L 5 2 Z M 4 2 "/>
<path fill-rule="nonzero" fill="rgb(98.823529%, 98.823529%, 98.823529%)" fill-opacity="1" d="M 8.058594 2.734375 L 10 2.5 L 10.765625 4.296875 L 10.09375 3.90625 L 8.191406 6.414062 L 7.5 6 L 8.738281 3.125 Z M 8.058594 2.734375 "/>
<path fill-rule="nonzero" fill="rgb(98.823529%, 98.823529%, 98.823529%)" fill-opacity="1" d="M 3.941406 2.734375 L 2 2.5 L 1.234375 4.296875 L 1.90625 3.90625 L 3.808594 6.414062 L 4.5 6 L 3.261719 3.125 Z M 3.941406 2.734375 "/>

</g>%n%n</svg>