<svg width="300" height="40" viewBox="0 0 300 40" fill="none" xmlns="http://www.w3.org/2000/svg" xmlns:xlink="http://www.w3.org/1999/xlink">

<g transform="translate(130.000000, 0.000000) scale(2.000000 2.000000) "> 

<g clip-path="url(#clip0)">
<path opacity="0.953" d="M9.9994 1C14.9626 1 19 5.00182 19 10C19 14.9655 14.9626 19 9.9994 19C5.03739 19 1 14.9655 1 10C1 5.00182 5.03739 1 9.9994 1Z" fill="#EE6C99"/>
<path opacity="0.95" fill-rule="evenodd" clip-rule="evenodd" d="M10 19C14.9706 19 19 14.9706 19 10C19 5.02944 14.9706 1 10 1C5.02944 1 1 5.02944 1 10C1 14.9706 5.02944 19 10 19ZM10 20C15.5228 20 20 15.5228 20 10C20 4.47715 15.5228 0 10 0C4.47715 0 0 4.47715 0 10C0 15.5228 4.47715 20 10 20Z" fill="#E72B6C"/>
</g>
<defs>
<clipPath id="clip0">
<path d="M0 0H20V20H0V0Z" fill="white"/>
</clipPath>
</defs>

</g>%n%n
<g transform="translate(138.000000, 8.000000) scale(0.750000 0.750000) "> 

<path fill-rule="evenodd" fill="rgb(100%, 100%, 100%)" fill-opacity="1" d="M 2.667969 28 C 2.667969 27.261719 3.261719 26.667969 4 26.667969 L 30.667969 26.667969 C 31.402344 26.667969 32 27.261719 32 28 C 32 28.738281 31.402344 29.332031 30.667969 29.332031 L 4 29.332031 C 3.261719 29.332031 2.667969 28.738281 2.667969 28 Z M 2.667969 28 "/>
<path fill-rule="evenodd" fill="rgb(100%, 100%, 100%)" fill-opacity="1" d="M 23.933594 5.34375 C 25.683594 7.058594 26.667969 9.382812 26.667969 11.808594 L 26.667969 24 L 8 24 L 8 11.808594 C 8 9.382812 8.984375 7.058594 10.734375 5.34375 C 12.484375 3.628906 14.859375 2.667969 17.332031 2.667969 C 19.808594 2.667969 22.183594 3.628906 23.933594 5.34375 Z M 18.667969 13.332031 L 18.667969 8 L 16 8 L 16 13.332031 L 10.667969 13.332031 L 10.667969 16 L 16 16 L 16 21.332031 L 18.667969 21.332031 L 18.667969 16 L 24 16 L 24 13.332031 Z M 18.667969 13.332031 "/>

</g>%n%n</svg>