<svg width="300" height="40" viewBox="0 0 300 40" fill="none" xmlns="http://www.w3.org/2000/svg" >

<g transform="translate(130.000000, 0.000000) scale(2.000000 2.000000) "> 

<g clip-path="url(#clip0)">
<path opacity="0.953" d="M9.9994 1C14.9626 1 19 5.00182 19 10C19 14.9655 14.9626 19 9.9994 19C5.03739 19 1 14.9655 1 10C1 5.00182 5.03739 1 9.9994 1Z" fill="#EE6C99"/>
<path opacity="0.95" fill-rule="evenodd" clip-rule="evenodd" d="M10 19C14.9706 19 19 14.9706 19 10C19 5.02944 14.9706 1 10 1C5.02944 1 1 5.02944 1 10C1 14.9706 5.02944 19 10 19ZM10 20C15.5228 20 20 15.5228 20 10C20 4.47715 15.5228 0 10 0C4.47715 0 0 4.47715 0 10C0 15.5228 4.47715 20 10 20Z" fill="#E72B6C"/>
</g>
<defs>
<clipPath id="clip0">
<path d="M0 0H20V20H0V0Z" fill="white"/>
</clipPath>
</defs>

</g>


<g transform="translate(138.000000, 8.000000) scale(0.500000 0.500000) "> 

<path opacity="0.2" d="M24 36V40L12 40L12 36L24 36Z" fill="#ffffff"/>
<g opacity="0.7">
<path d="M8 32H12V44H8V32Z" fill="#ffffff"/>
<path d="M16 32H20V44H16V32Z" fill="#ffffff"/>
<path d="M28 32H24V44H28V32Z" fill="#ffffff"/>
</g>
<path fill-rule="evenodd" clip100-rule="evenodd" d="M36 16L20 4L4 16V20H8V32H40V24H36V28H32V20H36V16ZM16 20H12V28H16V20ZM28 20H20V28H28V20Z" fill="#ffffff"/>
<path opacity="0.6" d="M32 34H40V36H32V34Z" fill="#ffffff"/>
<path opacity="0.8" d="M32 38H40V40H32V38Z" fill="#ffffff"/>
<path d="M32 42H40V44H32V42Z" fill="#ffffff"/>

</g>

</svg>