<svg width="300" height="35" viewBox="0 0 300 35" fill="none" xmlns="http://www.w3.org/2000/svg" >

<g transform="translate(135.000000, 2.000000) scale(1.500000 1.500000) "> 

<g clip-path="url(#clip0)">
<path opacity="0.953" d="M9.9994 1C14.9626 1 19 5.00182 19 10C19 14.9655 14.9626 19 9.9994 19C5.03739 19 1 14.9655 1 10C1 5.00182 5.03739 1 9.9994 1Z" fill="#EE6C99"/>
<path opacity="0.95" fill-rule="evenodd" clip-rule="evenodd" d="M10 19C14.9706 19 19 14.9706 19 10C19 5.02944 14.9706 1 10 1C5.02944 1 1 5.02944 1 10C1 14.9706 5.02944 19 10 19ZM10 20C15.5228 20 20 15.5228 20 10C20 4.47715 15.5228 0 10 0C4.47715 0 0 4.47715 0 10C0 15.5228 4.47715 20 10 20Z" fill="#E72B6C"/>
</g>
<defs>
<clipPath id="clip0">
<path d="M0 0H20V20H0V0Z" fill="white"/>
</clipPath>
</defs>

</g>


<g transform="translate(141.000000, 8.000000) scale(0.031034 0.031034) "> 

<path d="M252.219 30.8008V48.6035C204.19 56.4102 175.713 80.114 174.051 125.584H154.928V137.582H181.867V202.529L165.713 216.828H152.123V204.371H131.92V216.086L80.127 248.789H70.5059V266.486H79.9668L131.158 298.553V310.586H152.805V298.41H163.668L178.941 311.896V476.404L130.557 519.125V550.838H289.939H449.443V519.125L401.059 476.404V311.896L416.332 298.41H427.195V310.586H448.842V298.553L499.992 266.486H509.494V248.789H499.873L448.08 216.086V204.371H427.877V216.828H414.287L398.094 202.529V137.582H425.072V125.584H405.949C404.287 80.114 375.81 56.4102 327.781 48.6035V30.8008H290.061H252.219ZM272.664 187.145H312.693V372.16L372.189 312.664V363.295L291.469 444.016L207.811 360.357V307.307L272.664 372.16V187.145Z" fill="white"/>

</g>

</svg>