<svg width="300" height="40" viewBox="0 0 300 40" fill="none" xmlns="http://www.w3.org/2000/svg" xmlns:xlink="http://www.w3.org/1999/xlink">

<g transform="translate(130.000000, 0.000000) scale(2.000000 2.000000) "> 

<g clip-path="url(#clip0)">
<path opacity="0.953" d="M9.9994 1C14.9626 1 19 5.00182 19 10C19 14.9655 14.9626 19 9.9994 19C5.03739 19 1 14.9655 1 10C1 5.00182 5.03739 1 9.9994 1Z" fill="#EE6C99"/>
<path opacity="0.95" fill-rule="evenodd" clip-rule="evenodd" d="M10 19C14.9706 19 19 14.9706 19 10C19 5.02944 14.9706 1 10 1C5.02944 1 1 5.02944 1 10C1 14.9706 5.02944 19 10 19ZM10 20C15.5228 20 20 15.5228 20 10C20 4.47715 15.5228 0 10 0C4.47715 0 0 4.47715 0 10C0 15.5228 4.47715 20 10 20Z" fill="#E72B6C"/>
</g>
<defs>
<clipPath id="clip0">
<path d="M0 0H20V20H0V0Z" fill="white"/>
</clipPath>
</defs>

</g>%n%n
<g transform="translate(138.000000, 8.000000) scale(2.000000 2.000000) "> 

<path fill-rule="evenodd" fill="rgb(100%, 100%, 100%)" fill-opacity="1" d="M 9 2 L 1 2 C 0.449219 2 0 2.449219 0 3 L 0 8.5 L 1 8.5 C 1 9.328125 1.671875 10 2.5 10 C 3.328125 10 4 9.328125 4 8.5 L 8 8.5 C 8 9.328125 8.671875 10 9.5 10 C 10.328125 10 11 9.328125 11 8.5 L 12 8.5 L 12 5 Z M 8.585938 3 L 7 3 L 7 5 L 10.5 5 Z M 4 3 L 3 3 L 3 4 L 2 4 L 2 5 L 3 5 L 3 6 L 4 6 L 4 5 L 5 5 L 5 4 L 4 4 Z M 2.5 9 C 2.777344 9 3 8.777344 3 8.5 C 3 8.222656 2.777344 8 2.5 8 C 2.222656 8 2 8.222656 2 8.5 C 2 8.777344 2.222656 9 2.5 9 Z M 9.5 9 C 9.777344 9 10 8.777344 10 8.5 C 10 8.222656 9.777344 8 9.5 8 C 9.222656 8 9 8.222656 9 8.5 C 9 8.777344 9.222656 9 9.5 9 Z M 9.5 9 "/>

</g>%n%n</svg>