<svg width="300" height="40" viewBox="0 0 300 40" fill="none" xmlns="http://www.w3.org/2000/svg" xmlns:xlink="http://www.w3.org/1999/xlink">

<g transform="translate(130.000000, 0.000000) scale(2.000000 2.000000) "> 

<g clip-path="url(#clip0)">
<path opacity="0.953" d="M9.9994 1C14.9626 1 19 5.00182 19 10C19 14.9655 14.9626 19 9.9994 19C5.03739 19 1 14.9655 1 10C1 5.00182 5.03739 1 9.9994 1Z" fill="#EE6C99"/>
<path opacity="0.95" fill-rule="evenodd" clip-rule="evenodd" d="M10 19C14.9706 19 19 14.9706 19 10C19 5.02944 14.9706 1 10 1C5.02944 1 1 5.02944 1 10C1 14.9706 5.02944 19 10 19ZM10 20C15.5228 20 20 15.5228 20 10C20 4.47715 15.5228 0 10 0C4.47715 0 0 4.47715 0 10C0 15.5228 4.47715 20 10 20Z" fill="#E72B6C"/>
</g>
<defs>
<clipPath id="clip0">
<path d="M0 0H20V20H0V0Z" fill="white"/>
</clipPath>
</defs>

</g>%n%n
<g transform="translate(138.000000, 8.000000) scale(2.000000 2.000000) "> 

<path fill-rule="nonzero" fill="rgb(100%, 100%, 100%)" fill-opacity="1" d="M 2.828125 0.644531 L 2.503906 1 L 1.738281 1.796875 L 1.5 2.046875 L 1.664062 2.355469 C 1.664062 2.355469 2.078125 3.164062 2.078125 3.683594 C 2.078125 4.222656 1.976562 4.566406 1.855469 5.027344 C 1.734375 5.488281 1.605469 6.058594 1.605469 6.886719 C 1.605469 8.503906 2.597656 9.527344 3.582031 10.128906 C 4.074219 10.433594 4.566406 10.644531 4.96875 10.808594 C 5.371094 10.972656 5.707031 11.136719 5.71875 11.148438 L 5.984375 11.355469 L 6.265625 11.148438 C 6.296875 11.125 6.644531 10.972656 7.046875 10.808594 C 7.453125 10.644531 7.945312 10.433594 8.433594 10.128906 C 9.414062 9.523438 10.394531 8.5 10.394531 6.886719 C 10.394531 6.058594 10.265625 5.496094 10.144531 5.042969 C 10.023438 4.585938 9.921875 4.242188 9.921875 3.683594 C 9.921875 3.164062 10.335938 2.355469 10.335938 2.355469 L 10.5 2.046875 L 10.261719 1.796875 L 9.496094 1 L 9.171875 0.644531 L 8.832031 0.984375 C 8.691406 1.125 8.144531 1.320312 7.59375 1.324219 C 7.042969 1.328125 6.503906 1.148438 6.339844 0.984375 L 6 0.660156 L 5.660156 0.984375 C 5.496094 1.148438 4.957031 1.328125 4.40625 1.324219 C 3.855469 1.320312 3.308594 1.125 3.167969 0.984375 Z M 6 1.855469 C 6.460938 2.144531 7.019531 2.273438 7.59375 2.269531 C 8.125 2.265625 8.621094 2.136719 9.054688 1.898438 L 9.363281 2.210938 C 9.207031 2.515625 8.980469 3.019531 8.980469 3.683594 C 8.980469 4.363281 9.113281 4.835938 9.230469 5.277344 C 9.347656 5.71875 9.453125 6.152344 9.453125 6.886719 C 9.453125 8.136719 8.773438 8.820312 7.945312 9.332031 C 7.53125 9.589844 7.082031 9.78125 6.691406 9.9375 C 6.414062 10.050781 6.210938 10.140625 6 10.246094 C 5.792969 10.140625 5.59375 10.050781 5.320312 9.9375 C 4.933594 9.78125 4.484375 9.589844 4.066406 9.332031 C 3.234375 8.820312 2.546875 8.136719 2.546875 6.886719 C 2.546875 6.152344 2.652344 5.707031 2.769531 5.261719 C 2.886719 4.816406 3.019531 4.34375 3.019531 3.683594 C 3.019531 3.019531 2.792969 2.515625 2.636719 2.210938 L 2.945312 1.898438 C 3.378906 2.136719 3.875 2.265625 4.40625 2.269531 C 4.980469 2.273438 5.539062 2.144531 6 1.855469 Z M 6 3.949219 L 5.425781 5.246094 L 3.992188 5.378906 L 5.070312 6.308594 L 4.777344 7.695312 L 6 6.988281 L 7.222656 7.726562 L 6.929688 6.308594 L 8.007812 5.378906 L 6.574219 5.246094 Z M 6 3.949219 "/>

</g>%n%n</svg>