<svg width="300" height="40" viewBox="0 0 300 40" fill="none" xmlns="http://www.w3.org/2000/svg" version="1.1">

<g transform="translate(130.000000, 0.000000) scale(2.000000 2.000000) "> 

<g clip-path="url(#clip0)">
<path opacity="0.953" d="M9.9994 1C14.9626 1 19 5.00182 19 10C19 14.9655 14.9626 19 9.9994 19C5.03739 19 1 14.9655 1 10C1 5.00182 5.03739 1 9.9994 1Z" fill="#EE6C99"/>
<path opacity="0.95" fill-rule="evenodd" clip-rule="evenodd" d="M10 19C14.9706 19 19 14.9706 19 10C19 5.02944 14.9706 1 10 1C5.02944 1 1 5.02944 1 10C1 14.9706 5.02944 19 10 19ZM10 20C15.5228 20 20 15.5228 20 10C20 4.47715 15.5228 0 10 0C4.47715 0 0 4.47715 0 10C0 15.5228 4.47715 20 10 20Z" fill="#E72B6C"/>
</g>
<defs>
<clipPath id="clip0">
<path d="M0 0H20V20H0V0Z" fill="white"/>
</clipPath>
</defs>

</g>%n%n
<g transform="translate(138.000000, 8.000000) scale(0.500000 0.500000) "> 

 <g fill="#ffffff">
  <path d="m2.5858 5.4142 8 8-2.5858 2.5858h8v-8l-2.5858 2.5858-8-8-2.8284 2.8284z"/>
  <path d="m10.586 34.586-8 8 2.8284 2.8284 8-8 2.5858 2.5858v-8h-8l2.5858 2.5858z"/>
  <path d="m45.414 5.4142-8 8 2.5858 2.5858h-8v-8l2.5858 2.5858 8-8 2.8284 2.8284z"/>
  <path d="m37.414 34.586 8 8-2.8284 2.8284-8-8-2.5858 2.5858v-8h8l-2.5858 2.5858z"/>
  <g transform="matrix(.20618 0 0 .20618 5.029 5.4076)" fill-rule="evenodd">
   <path d="m44.9 117.94v-29.1c0-2.52 2.2-4.2 4.5-4.2h27.3c-0.1 3.44 2.3 5.86 4.2 8.4h-6.9c-5 0-7.5 3.11-7.5 8.7v16.2h-9.6v-21.9h-4.2v21.9zm25.8 9.9v-26.4c0-3.03 2-4.5 4.8-4.5h27c3.3 0 4.8 2.79 4.8 4.2v26.7h-5.7v-21.3h-4.2v21.3h-16.5v-21.3h-4.5v21.3zm62.4-9.9v-27.9c0-3.05-1.6-5.4-4.5-5.4h-27.3c0 3.31-2.3 5.9-4.2 8.4h6.6c4.7 0 7.8 4.08 7.8 8.7v16.2h9.6v-21.9h4.2v21.9z"/>
   <path d="m97.86 58.49a8.855 8.855 0 0 1-17.71 0 8.855 8.855 0 1 1 17.71 0z"/>
   <path d="m122.54 71.069a8.8551 8.8551 0 0 1-17.71 0 8.8551 8.8551 0 1 1 17.71 0z"/>
   <path d="m72.283 70.693a8.8551 8.8551 0 0 1-17.71 0 8.8551 8.8551 0 1 1 17.71 0z"/>
   <path d="m97.702 83.413a8.8551 8.8551 0 0 1-17.71 0 8.8551 8.8551 0 1 1 17.71 0z"/>
  </g>
 </g>

</g>%n%n</svg>