<svg width="300" height="40" viewBox="0 0 300 40" fill="none" xmlns="http://www.w3.org/2000/svg" xmlns:xlink="http://www.w3.org/1999/xlink">

<g transform="translate(130.000000, 0.000000) scale(2.000000 2.000000) "> 

<g clip-path="url(#clip0)">
<path opacity="0.953" d="M9.9994 1C14.9626 1 19 5.00182 19 10C19 14.9655 14.9626 19 9.9994 19C5.03739 19 1 14.9655 1 10C1 5.00182 5.03739 1 9.9994 1Z" fill="#EE6C99"/>
<path opacity="0.95" fill-rule="evenodd" clip-rule="evenodd" d="M10 19C14.9706 19 19 14.9706 19 10C19 5.02944 14.9706 1 10 1C5.02944 1 1 5.02944 1 10C1 14.9706 5.02944 19 10 19ZM10 20C15.5228 20 20 15.5228 20 10C20 4.47715 15.5228 0 10 0C4.47715 0 0 4.47715 0 10C0 15.5228 4.47715 20 10 20Z" fill="#E72B6C"/>
</g>
<defs>
<clipPath id="clip0">
<path d="M0 0H20V20H0V0Z" fill="white"/>
</clipPath>
</defs>

</g>%n%n
<g transform="translate(138.000000, 8.000000) scale(2.000000 2.000000) "> 

<defs>
<filter id="filter-remove-color" x="0%" y="0%" width="100%" height="100%">
<feColorMatrix color-interpolation-filters="sRGB" values="0 0 0 0 1 0 0 0 0 1 0 0 0 0 1 0 0 0 1 0" />
</filter>
<mask id="mask-0">
<g filter="url(#filter-remove-color)">
<rect x="-1.2" y="-1.2" width="14.4" height="14.4" fill="rgb(0%, 0%, 0%)" fill-opacity="0.3"/>
</g>
</mask>
<clip100Path id="clip100-0">
<path clip100-rule="nonzero" d="M 3 1 L 12 1 L 12 11 L 3 11 Z M 3 1 "/>
</clip100Path>
<clip100Path id="clip100-1">
<rect x="0" y="0" width="12" height="12"/>
</clip100Path>
<g id="source-7" clip100-path="url(#clip100-1)">
<g clip100-path="url(#clip100-0)">
<path fill-rule="evenodd" fill="rgb(100%, 100%, 100%)" fill-opacity="1" d="M 7 1 L 3.214844 4.785156 L 5.589844 7.398438 L 5.992188 8 L 6 8 L 6 7 L 7 7 L 7 8 L 8 8 L 8 9 L 7 9 L 7 9.503906 L 8 11 L 15 11 L 12 7 Z M 7 1 "/>
</g>
</g>
<mask id="mask-1">
<g filter="url(#filter-remove-color)">
<rect x="-1.2" y="-1.2" width="14.4" height="14.4" fill="rgb(0%, 0%, 0%)" fill-opacity="0.6"/>
</g>
</mask>
<clip100Path id="clip100-2">
<path clip100-rule="nonzero" d="M 0 3 L 8 3 L 8 11 L 0 11 Z M 0 3 "/>
</clip100Path>
<clip100Path id="clip100-3">
<rect x="0" y="0" width="12" height="12"/>
</clip100Path>
<g id="source-11" clip100-path="url(#clip100-3)">
<g clip100-path="url(#clip100-2)">
<path fill-rule="evenodd" fill="rgb(100%, 100%, 100%)" fill-opacity="1" d="M -5.5 11 L 2 3 L 5.75 8 L 5 8 L 5 9 L 6 9 L 6 10 L 7 10 L 7 9.667969 L 8 11 Z M -5.5 11 "/>
</g>
</g>
</defs>
<g mask="url(#mask-0)">
<use xlink:href="#source-7"/>
</g>
<g mask="url(#mask-1)">
<use xlink:href="#source-11"/>
</g>
<path fill-rule="evenodd" fill="rgb(100%, 100%, 100%)" fill-opacity="1" d="M 6.5 3 L 10 6 L 9 6 L 9 11 L 4 11 L 4 6 L 3 6 Z M 6 8 L 6 7 L 7 7 L 7 8 L 8 8 L 8 9 L 7 9 L 7 10 L 6 10 L 6 9 L 5 9 L 5 8 Z M 6 8 "/>

</g>%n%n</svg>