<svg width="300" height="40" viewBox="0 0 300 40" fill="none" xmlns="http://www.w3.org/2000/svg" xmlns:xlink="http://www.w3.org/1999/xlink">

<g transform="translate(130.000000, 0.000000) scale(2.000000 2.000000) "> 

<g clip-path="url(#clip0)">
<path opacity="0.953" d="M9.9994 1C14.9626 1 19 5.00182 19 10C19 14.9655 14.9626 19 9.9994 19C5.03739 19 1 14.9655 1 10C1 5.00182 5.03739 1 9.9994 1Z" fill="#EE6C99"/>
<path opacity="0.95" fill-rule="evenodd" clip-rule="evenodd" d="M10 19C14.9706 19 19 14.9706 19 10C19 5.02944 14.9706 1 10 1C5.02944 1 1 5.02944 1 10C1 14.9706 5.02944 19 10 19ZM10 20C15.5228 20 20 15.5228 20 10C20 4.47715 15.5228 0 10 0C4.47715 0 0 4.47715 0 10C0 15.5228 4.47715 20 10 20Z" fill="#E72B6C"/>
</g>
<defs>
<clipPath id="clip0">
<path d="M0 0H20V20H0V0Z" fill="white"/>
</clipPath>
</defs>

</g>%n%n
<g transform="translate(138.000000, 8.000000) scale(0.750000 0.750000) "> 

<path fill-rule="nonzero" fill="rgb(85.490196%, 0%, 57.254902%)" fill-opacity="1" d="M 13.914062 1.699219 L 13.914062 2.679688 C 11.265625 3.113281 9.695312 4.421875 9.601562 6.929688 L 8.546875 6.929688 L 8.546875 7.589844 L 10.035156 7.589844 L 10.035156 11.175781 L 9.144531 11.964844 L 8.394531 11.964844 L 8.394531 11.277344 L 7.277344 11.277344 L 7.277344 11.921875 L 4.421875 13.726562 L 3.890625 13.726562 L 3.890625 14.703125 L 4.410156 14.703125 L 7.234375 16.472656 L 7.234375 17.136719 L 8.429688 17.136719 L 8.429688 16.464844 L 9.03125 16.464844 L 9.871094 17.207031 L 9.871094 26.285156 L 7.203125 28.640625 L 7.203125 30.390625 L 24.796875 30.390625 L 24.796875 28.640625 L 22.128906 26.285156 L 22.128906 17.207031 L 22.96875 16.464844 L 23.570312 16.464844 L 23.570312 17.136719 L 24.765625 17.136719 L 24.765625 16.472656 L 27.585938 14.703125 L 28.109375 14.703125 L 28.109375 13.726562 L 27.578125 13.726562 L 24.722656 11.921875 L 24.722656 11.277344 L 23.605469 11.277344 L 23.605469 11.964844 L 22.855469 11.964844 L 21.964844 11.175781 L 21.964844 7.589844 L 23.453125 7.589844 L 23.453125 6.929688 L 22.398438 6.929688 C 22.304688 4.421875 20.734375 3.113281 18.085938 2.679688 L 18.085938 1.699219 Z M 15.042969 10.324219 L 17.253906 10.324219 L 17.253906 20.53125 L 20.535156 17.25 L 20.535156 20.042969 L 16.082031 24.496094 L 11.464844 19.882812 L 11.464844 16.953125 L 15.042969 20.53125 Z M 15.042969 10.324219 "/>

</g>%n%n</svg>