<svg width="300" height="40" viewBox="0 0 300 40" fill="none" xmlns="http://www.w3.org/2000/svg" xmlns:xlink="http://www.w3.org/1999/xlink" version="1.1">

<g transform="translate(130.000000, 0.000000) scale(2.000000 2.000000) "> 

<g clip-path="url(#clip0)">
<path opacity="0.953" d="M9.9994 1C14.9626 1 19 5.00182 19 10C19 14.9655 14.9626 19 9.9994 19C5.03739 19 1 14.9655 1 10C1 5.00182 5.03739 1 9.9994 1Z" fill="#EE6C99"/>
<path opacity="0.95" fill-rule="evenodd" clip-rule="evenodd" d="M10 19C14.9706 19 19 14.9706 19 10C19 5.02944 14.9706 1 10 1C5.02944 1 1 5.02944 1 10C1 14.9706 5.02944 19 10 19ZM10 20C15.5228 20 20 15.5228 20 10C20 4.47715 15.5228 0 10 0C4.47715 0 0 4.47715 0 10C0 15.5228 4.47715 20 10 20Z" fill="#E72B6C"/>
</g>
<defs>
<clipPath id="clip0">
<path d="M0 0H20V20H0V0Z" fill="white"/>
</clipPath>
</defs>

</g>%n%n
<g transform="translate(138.000000, 8.000000) scale(2.000000 2.000000) "> 

<g id="surface1">
<path style=" stroke:none;fill-rule:nonzero;fill:rgb(100%,100%,100%);fill-opacity:1;" d="M 0.644531 1.355469 L 2.644531 3.355469 L 2 4 L 4 4 L 4 2 L 3.355469 2.644531 L 1.355469 0.644531 Z M 0.644531 1.355469 "/>
<path style=" stroke:none;fill-rule:nonzero;fill:rgb(100%,100%,100%);fill-opacity:1;" d="M 2.648438 8.648438 L 0.648438 10.648438 L 1.355469 11.355469 L 3.355469 9.355469 L 4 10 L 4 8 L 2 8 Z M 2.648438 8.648438 "/>
<path style=" stroke:none;fill-rule:nonzero;fill:rgb(100%,100%,100%);fill-opacity:1;" d="M 11.351562 1.355469 L 9.351562 3.355469 L 10 4 L 8 4 L 8 2 L 8.644531 2.644531 L 10.644531 0.644531 Z M 11.351562 1.355469 "/>
<path style=" stroke:none;fill-rule:nonzero;fill:rgb(100%,100%,100%);fill-opacity:1;" d="M 9.351562 8.648438 L 11.351562 10.648438 L 10.644531 11.355469 L 8.644531 9.355469 L 8 10 L 8 8 L 10 8 Z M 9.351562 8.648438 "/>
<path style=" stroke:none;fill-rule:evenodd;fill:rgb(100%,100%,100%);fill-opacity:1;" d="M 3.570312 7.429688 L 3.570312 5.929688 C 3.570312 5.800781 3.683594 5.714844 3.804688 5.714844 L 5.210938 5.714844 C 5.207031 5.890625 5.328125 6.015625 5.425781 6.148438 L 5.070312 6.148438 C 4.8125 6.148438 4.683594 6.308594 4.683594 6.597656 L 4.683594 7.429688 L 4.191406 7.429688 L 4.191406 6.300781 L 3.972656 6.300781 L 3.972656 7.429688 Z M 4.902344 7.941406 L 4.902344 6.582031 C 4.902344 6.425781 5.003906 6.347656 5.148438 6.347656 L 6.539062 6.347656 C 6.710938 6.347656 6.789062 6.492188 6.789062 6.566406 L 6.789062 7.941406 L 6.496094 7.941406 L 6.496094 6.84375 L 6.277344 6.84375 L 6.277344 7.941406 L 5.425781 7.941406 L 5.425781 6.84375 L 5.195312 6.84375 L 5.195312 7.941406 Z M 8.117188 7.429688 L 8.117188 5.992188 C 8.117188 5.835938 8.035156 5.714844 7.886719 5.714844 L 6.480469 5.714844 C 6.480469 5.886719 6.359375 6.019531 6.261719 6.148438 L 6.601562 6.148438 C 6.84375 6.148438 7.003906 6.359375 7.003906 6.597656 L 7.003906 7.429688 L 7.5 7.429688 L 7.5 6.300781 L 7.714844 6.300781 L 7.714844 7.429688 Z M 8.117188 7.429688 "/>
<path style=" stroke:none;fill-rule:evenodd;fill:rgb(100%,100%,100%);fill-opacity:1;" d="M 6.300781 4.367188 C 6.300781 4.617188 6.097656 4.824219 5.84375 4.824219 C 5.59375 4.824219 5.386719 4.617188 5.386719 4.367188 C 5.386719 4.113281 5.59375 3.910156 5.84375 3.910156 C 6.097656 3.910156 6.300781 4.113281 6.300781 4.367188 Z M 6.300781 4.367188 "/>
<path style=" stroke:none;fill-rule:evenodd;fill:rgb(100%,100%,100%);fill-opacity:1;" d="M 7.574219 5.015625 C 7.574219 5.265625 7.367188 5.46875 7.117188 5.46875 C 6.867188 5.46875 6.660156 5.265625 6.660156 5.015625 C 6.660156 4.851562 6.746094 4.699219 6.886719 4.617188 C 7.03125 4.535156 7.203125 4.535156 7.347656 4.617188 C 7.488281 4.699219 7.574219 4.851562 7.574219 5.015625 Z M 7.574219 5.015625 "/>
<path style=" stroke:none;fill-rule:evenodd;fill:rgb(100%,100%,100%);fill-opacity:1;" d="M 4.984375 4.996094 C 4.980469 5.246094 4.777344 5.449219 4.527344 5.449219 C 4.277344 5.449219 4.070312 5.246094 4.070312 4.996094 C 4.070312 4.832031 4.15625 4.679688 4.296875 4.597656 C 4.4375 4.515625 4.613281 4.515625 4.753906 4.597656 C 4.898438 4.679688 4.984375 4.832031 4.984375 4.996094 Z M 4.984375 4.996094 "/>
<path style=" stroke:none;fill-rule:evenodd;fill:rgb(100%,100%,100%);fill-opacity:1;" d="M 6.292969 5.652344 C 6.292969 5.902344 6.089844 6.105469 5.835938 6.105469 C 5.585938 6.105469 5.382812 5.902344 5.378906 5.652344 C 5.378906 5.488281 5.464844 5.335938 5.609375 5.253906 C 5.75 5.171875 5.925781 5.171875 6.066406 5.253906 C 6.207031 5.335938 6.292969 5.488281 6.292969 5.652344 Z M 6.292969 5.652344 "/>
</g>

</g>%n%n</svg>