<svg width="300" height="40" viewBox="0 0 300 40" fill="none" xmlns="http://www.w3.org/2000/svg" xmlns:xlink="http://www.w3.org/1999/xlink">

<g transform="translate(130.000000, 0.000000) scale(2.000000 2.000000) "> 

<g clip-path="url(#clip0)">
<path opacity="0.953" d="M9.9994 1C14.9626 1 19 5.00182 19 10C19 14.9655 14.9626 19 9.9994 19C5.03739 19 1 14.9655 1 10C1 5.00182 5.03739 1 9.9994 1Z" fill="#EE6C99"/>
<path opacity="0.95" fill-rule="evenodd" clip-rule="evenodd" d="M10 19C14.9706 19 19 14.9706 19 10C19 5.02944 14.9706 1 10 1C5.02944 1 1 5.02944 1 10C1 14.9706 5.02944 19 10 19ZM10 20C15.5228 20 20 15.5228 20 10C20 4.47715 15.5228 0 10 0C4.47715 0 0 4.47715 0 10C0 15.5228 4.47715 20 10 20Z" fill="#E72B6C"/>
</g>
<defs>
<clipPath id="clip0">
<path d="M0 0H20V20H0V0Z" fill="white"/>
</clipPath>
</defs>

</g>%n%n
<g transform="translate(138.000000, 8.000000) scale(0.750000 0.750000) "> 

<path fill-rule="evenodd" fill="rgb(100%, 100%, 100%)" fill-opacity="1" d="M 24 5.332031 L 2.667969 5.332031 C 1.195312 5.332031 0 6.527344 0 8 L 0 22.667969 L 2.667969 22.667969 C 2.667969 24.875 4.457031 26.667969 6.667969 26.667969 C 8.875 26.667969 10.667969 24.875 10.667969 22.667969 L 21.332031 22.667969 C 21.332031 24.875 23.125 26.667969 25.332031 26.667969 C 27.542969 26.667969 29.332031 24.875 29.332031 22.667969 L 32 22.667969 L 32 13.332031 Z M 22.894531 8 L 18.667969 8 L 18.667969 13.332031 L 28 13.332031 Z M 10.667969 8 L 8 8 L 8 10.667969 L 5.332031 10.667969 L 5.332031 13.332031 L 8 13.332031 L 8 16 L 10.667969 16 L 10.667969 13.332031 L 13.332031 13.332031 L 13.332031 10.667969 L 10.667969 10.667969 Z M 6.667969 24 C 7.402344 24 8 23.402344 8 22.667969 C 8 21.929688 7.402344 21.332031 6.667969 21.332031 C 5.929688 21.332031 5.332031 21.929688 5.332031 22.667969 C 5.332031 23.402344 5.929688 24 6.667969 24 Z M 25.332031 24 C 26.070312 24 26.667969 23.402344 26.667969 22.667969 C 26.667969 21.929688 26.070312 21.332031 25.332031 21.332031 C 24.597656 21.332031 24 21.929688 24 22.667969 C 24 23.402344 24.597656 24 25.332031 24 Z M 25.332031 24 "/>

</g>%n%n</svg>