<svg width="300" height="40" viewBox="0 0 300 40" fill="none" xmlns="http://www.w3.org/2000/svg" xmlns:xlink="http://www.w3.org/1999/xlink">

<g transform="translate(130.000000, 0.000000) scale(2.000000 2.000000) "> 

<g clip-path="url(#clip0)">
<path opacity="0.953" d="M9.9994 1C14.9626 1 19 5.00182 19 10C19 14.9655 14.9626 19 9.9994 19C5.03739 19 1 14.9655 1 10C1 5.00182 5.03739 1 9.9994 1Z" fill="#EE6C99"/>
<path opacity="0.95" fill-rule="evenodd" clip-rule="evenodd" d="M10 19C14.9706 19 19 14.9706 19 10C19 5.02944 14.9706 1 10 1C5.02944 1 1 5.02944 1 10C1 14.9706 5.02944 19 10 19ZM10 20C15.5228 20 20 15.5228 20 10C20 4.47715 15.5228 0 10 0C4.47715 0 0 4.47715 0 10C0 15.5228 4.47715 20 10 20Z" fill="#E72B6C"/>
</g>
<defs>
<clipPath id="clip0">
<path d="M0 0H20V20H0V0Z" fill="white"/>
</clipPath>
</defs>

</g>%n%n
<g transform="translate(138.000000, 8.000000) scale(0.750000 0.750000) "> 

<path fill-rule="nonzero" fill="rgb(98.823529%, 98.823529%, 98.823529%)" fill-opacity="1" d="M 15.152344 27.097656 L 20 27.097656 L 20 29.332031 L 12.003906 29.332031 L 12.003906 27.097656 L 16.015625 23.304688 C 16.378906 22.953125 16.644531 22.613281 16.816406 22.28125 C 16.988281 21.949219 17.074219 21.605469 17.074219 21.246094 C 17.074219 20.695312 16.898438 20.25 16.550781 19.914062 C 16.207031 19.578125 15.75 19.410156 15.171875 19.410156 C 14.730469 19.410156 14.246094 19.511719 13.714844 19.714844 C 13.191406 19.917969 12.628906 20.21875 12.027344 20.613281 L 12.027344 18.027344 C 12.667969 17.800781 13.300781 17.628906 13.921875 17.515625 C 14.550781 17.394531 15.160156 17.335938 15.757812 17.335938 C 17.078125 17.335938 18.101562 17.644531 18.824219 18.265625 C 19.554688 18.886719 19.921875 19.753906 19.921875 20.859375 C 19.921875 21.503906 19.769531 22.105469 19.464844 22.660156 C 19.152344 23.214844 18.5 23.957031 17.503906 24.890625 Z M 15.152344 27.097656 "/>
<path fill-rule="nonzero" fill="rgb(98.823529%, 98.823529%, 98.823529%)" fill-opacity="1" d="M 10.667969 5.332031 L 16 1.332031 L 21.332031 5.332031 L 18.667969 5.332031 L 17.332031 16 L 14.667969 16 L 13.332031 5.332031 Z M 10.667969 5.332031 "/>
<path fill-rule="nonzero" fill="rgb(98.823529%, 98.823529%, 98.823529%)" fill-opacity="1" d="M 21.492188 7.285156 L 26.667969 6.667969 L 28.714844 11.453125 L 26.914062 10.414062 L 21.847656 17.105469 L 20 16 L 23.300781 8.332031 Z M 21.492188 7.285156 "/>
<path fill-rule="nonzero" fill="rgb(98.823529%, 98.823529%, 98.823529%)" fill-opacity="1" d="M 10.507812 7.285156 L 5.332031 6.667969 L 3.285156 11.453125 L 5.085938 10.414062 L 10.152344 17.105469 L 12 16 L 8.699219 8.332031 Z M 10.507812 7.285156 "/>

</g>%n%n</svg>