<svg width="40" height="40" viewBox="0 0 40 40" fill="none" xmlns="http://www.w3.org/2000/svg" >

<g transform="translate(0.000000, 0.000000) scale(2.000000 2.000000) "> 

<g clip-path="url(#clip0)">
<path opacity="0.953" d="M9.9994 1C14.9626 1 19 5.00182 19 10C19 14.9655 14.9626 19 9.9994 19C5.03739 19 1 14.9655 1 10C1 5.00182 5.03739 1 9.9994 1Z" fill="#EE6C99"/>
<path opacity="0.95" fill-rule="evenodd" clip-rule="evenodd" d="M10 19C14.9706 19 19 14.9706 19 10C19 5.02944 14.9706 1 10 1C5.02944 1 1 5.02944 1 10C1 14.9706 5.02944 19 10 19ZM10 20C15.5228 20 20 15.5228 20 10C20 4.47715 15.5228 0 10 0C4.47715 0 0 4.47715 0 10C0 15.5228 4.47715 20 10 20Z" fill="#E72B6C"/>
</g>
<defs>
<clipPath id="clip0">
<path d="M0 0H20V20H0V0Z" fill="white"/>
</clipPath>
</defs>

</g>


<g transform="translate(8.000000, 8.000000) scale(2.000000 2.000000) "> 

<g clip100-path="url(#clip1000)">
<path opacity="0.3" fill-rule="evenodd" clip100-rule="evenodd" d="M28 4L12.8594 19.1406L22.3624 29.6L23.9687 32H24V28H28V32H32V36H28V38.0233L32.0001 44H60.0001L48 28L28 4Z" fill="#ffffff"/>
<path opacity="0.6" fill-rule="evenodd" clip100-rule="evenodd" d="M-22 44L8 12L20 28L23 32H20V36H24V40H28V38.6667L32 44H-22Z" fill="#ffffff"/>
<path fill-rule="evenodd" clip100-rule="evenodd" d="M26 12L40 24H36V44H16V24H12L26 12ZM24 32V28H28V32H32V36H28V40H24V36H20V32H24Z" fill="#ffffff"/>
</g>
<defs>
<clip100Path id="clip1000">
<path d="M0 0H48V48H0V0Z" fill="#ffffff"/>
</clip100Path>
</defs>

</g>

</svg>