<svg id="svg27" width="40" height="40" fill="none" version="1.1" viewBox="0 0 40 40" xmlns="http://www.w3.org/2000/svg">
 <g id="g13" transform="translate(0) scale(2)">
  <g id="g6" clip-path="url(#clip0)">
   <path id="path2" d="M9.9994 1C14.9626 1 19 5.00182 19 10C19 14.9655 14.9626 19 9.9994 19C5.03739 19 1 14.9655 1 10C1 5.00182 5.03739 1 9.9994 1Z" fill="#EE6C99" opacity=".953"/>
   <path id="path4" d="m10 19c4.9706 0 9-4.0294 9-9 0-4.9706-4.0294-9-9-9-4.9706 0-9 4.0294-9 9 0 4.9706 4.0294 9 9 9zm0 1c5.5228 0 10-4.4772 10-10 0-5.5228-4.4772-10-10-10-5.5228 0-10 4.4772-10 10 0 5.5228 4.4772 10 10 10z" clip-rule="evenodd" fill="#E72B6C" fill-rule="evenodd" opacity=".95"/>
  </g>
  <defs id="defs11">
   <clipPath id="clip0">
    <path id="path8" d="M0 0H20V20H0V0Z" fill="#fff"/>
   </clipPath>
  </defs>
 </g>
 <path id="path15" d="m9.2929 10.707 4 4-1.2929 1.2929h4v-4l-1.2929 1.2929-4-4z" fill="#fff" stroke-width=".5"/>
 <path id="path19" d="m13.293 25.293-4 4 1.4142 1.4142 4-4 1.2929 1.2929v-4h-4z" fill="#fff" stroke-width=".5"/>
 <path id="path21" d="m30.707 10.707-4 4 1.2929 1.2929h-4v-4l1.2929 1.2929 4-4z" fill="#fff" stroke-width=".5"/>
 <path id="path23" d="m26.707 25.293 4 4-1.4142 1.4142-4-4-1.2929 1.2929v-4h4z" fill="#fff" stroke-width=".5"/>
 <g id="g1451" transform="matrix(.57155 0 0 .57155 6.7908 6.2881)" fill="#fff" fill-rule="evenodd" stroke-width=".20618">
  <path id="path26" d="m14.286 29.724v-5.9998c0-0.51957 0.4536-0.86596 0.92781-0.86596h5.6287c-0.02062 0.70926 0.47421 1.2082 0.86596 1.7319h-1.4226c-1.0309 0-1.5464 0.64122-1.5464 1.7938v3.3401h-1.9793v-4.5153h-0.86596v4.5153zm5.3194 2.0412v-5.4432c0-0.62472 0.41236-0.92781 0.98966-0.92781h5.5669c0.68039 0 0.98966 0.57524 0.98966 0.86596v5.505h-1.1752v-4.3916h-0.86596v4.3916h-3.402v-4.3916h-0.92781v4.3916zm12.866-2.0412v-5.7524c0-0.62885-0.32989-1.1134-0.92781-1.1134h-5.6287c0 0.68246-0.47421 1.2165-0.86596 1.7319h1.3608c0.96905 0 1.6082 0.84122 1.6082 1.7938v3.3401h1.9793v-4.5153h0.86596v4.5153z"/>
  <path id="path28" d="m25.206 17.467a1.8257 1.8257 0 0 1-3.6514 0 1.8257 1.8257 0 1 1 3.6514 0z"/>
  <path id="path30" d="m30.294 20.061a1.8257 1.8257 0 0 1-3.6514 0 1.8257 1.8257 0 1 1 3.6514 0z"/>
  <path id="path32" d="m19.932 19.983a1.8257 1.8257 0 0 1-3.6514 0 1.8257 1.8257 0 1 1 3.6514 0z"/>
  <path id="path34" d="m25.173 22.606a1.8257 1.8257 0 0 1-3.6514 0 1.8257 1.8257 0 1 1 3.6514 0z"/>
 </g>
</svg>
