<svg width="300" height="40" viewBox="0 0 300 40" fill="none" xmlns="http://www.w3.org/2000/svg" xmlns:xlink="http://www.w3.org/1999/xlink">

<g transform="translate(130.000000, 0.000000) scale(2.000000 2.000000) "> 

<g clip-path="url(#clip0)">
<path opacity="0.953" d="M9.9994 1C14.9626 1 19 5.00182 19 10C19 14.9655 14.9626 19 9.9994 19C5.03739 19 1 14.9655 1 10C1 5.00182 5.03739 1 9.9994 1Z" fill="#EE6C99"/>
<path opacity="0.95" fill-rule="evenodd" clip-rule="evenodd" d="M10 19C14.9706 19 19 14.9706 19 10C19 5.02944 14.9706 1 10 1C5.02944 1 1 5.02944 1 10C1 14.9706 5.02944 19 10 19ZM10 20C15.5228 20 20 15.5228 20 10C20 4.47715 15.5228 0 10 0C4.47715 0 0 4.47715 0 10C0 15.5228 4.47715 20 10 20Z" fill="#E72B6C"/>
</g>
<defs>
<clipPath id="clip0">
<path d="M0 0H20V20H0V0Z" fill="white"/>
</clipPath>
</defs>

</g>%n%n
<g transform="translate(138.000000, 8.000000) scale(0.750000 0.750000) "> 

<path fill-rule="evenodd" fill="rgb(100%, 100%, 100%)" fill-opacity="1" d="M 9.417969 25.714844 C 7.414062 24.582031 6.195312 21.941406 7.097656 17.992188 C 7.730469 15.222656 9.570312 11.800781 8.160156 8.957031 C 9.871094 10.140625 11.65625 12.957031 13.449219 16.136719 C 13.574219 12.699219 11.789062 10.445312 13.074219 5.742188 C 13.953125 11.558594 17.484375 11.917969 19.277344 17.207031 C 20.042969 14.722656 21.628906 13.902344 20.851562 7.726562 C 28.648438 18.375 24.207031 22.15625 22.648438 25.964844 L 23.152344 20.671875 C 20.707031 27.742188 18.75 29.046875 16.980469 30.628906 C 17.96875 27.308594 18.359375 23.992188 16.347656 20.671875 C 15.859375 26.121094 14.484375 24.988281 14.207031 29.367188 C 11.453125 27.289062 10.890625 25.160156 10.394531 21.679688 C 10.019531 22.089844 9.390625 23.789062 9.417969 25.714844 Z M 9.417969 25.714844 "/>
<path fill-rule="evenodd" fill="rgb(100%, 100%, 100%)" fill-opacity="1" d="M 15.121094 0.292969 C 13.082031 8.574219 16.804688 8.5 18.867188 13.367188 C 20.316406 5.863281 15.984375 7.550781 15.121094 0.292969 Z M 15.121094 0.292969 "/>

</g>%n%n</svg>