<svg width="300" height="40" viewBox="0 0 300 40" fill="none" xmlns="http://www.w3.org/2000/svg" xmlns:xlink="http://www.w3.org/1999/xlink" version="1.1">

<g transform="translate(130.000000, 0.000000) scale(2.000000 2.000000) "> 

<g clip-path="url(#clip0)">
<path opacity="0.953" d="M9.9994 1C14.9626 1 19 5.00182 19 10C19 14.9655 14.9626 19 9.9994 19C5.03739 19 1 14.9655 1 10C1 5.00182 5.03739 1 9.9994 1Z" fill="#EE6C99"/>
<path opacity="0.95" fill-rule="evenodd" clip-rule="evenodd" d="M10 19C14.9706 19 19 14.9706 19 10C19 5.02944 14.9706 1 10 1C5.02944 1 1 5.02944 1 10C1 14.9706 5.02944 19 10 19ZM10 20C15.5228 20 20 15.5228 20 10C20 4.47715 15.5228 0 10 0C4.47715 0 0 4.47715 0 10C0 15.5228 4.47715 20 10 20Z" fill="#E72B6C"/>
</g>
<defs>
<clipPath id="clip0">
<path d="M0 0H20V20H0V0Z" fill="white"/>
</clipPath>
</defs>

</g>%n%n
<g transform="translate(138.000000, 8.000000) scale(2.000000 2.000000) "> 

<g id="surface1">
<path style=" stroke:none;fill-rule:evenodd;fill:rgb(100%,100%,100%);fill-opacity:0.698039;" d="M 2.003906 0 L 2.003906 0.996094 L 3 0.996094 L 3 2.949219 L 2.5 5 C 2.84375 4.53125 3.273438 4.136719 3.765625 3.832031 L 4.003906 3.050781 L 4.003906 3 L 8.003906 3 L 8.003906 3.050781 L 8.242188 3.859375 C 8.730469 4.15625 9.15625 4.542969 9.5 5 L 9 2.957031 L 9 0.996094 L 10.003906 0.996094 L 10.003906 0 Z M 4.003906 0.996094 L 8.003906 0.996094 L 8.003906 2 L 4.003906 2 Z M 10.371094 8.507812 C 10.242188 9.066406 10.003906 9.597656 9.675781 10.066406 L 9.875 11.035156 L 10.898438 11.03125 Z M 1.632812 8.511719 L 1.109375 11 L 2.121094 11.03125 L 2.324219 10.066406 C 1.996094 9.597656 1.761719 9.070312 1.632812 8.511719 Z M 1.632812 8.511719 "/>
<path style=" stroke:none;fill-rule:nonzero;fill:rgb(100%,100%,100%);fill-opacity:1;" d="M 5.5 4.035156 C 4.753906 4.144531 4.058594 4.488281 3.527344 5.023438 C 2.992188 5.558594 2.644531 6.25 2.535156 7 L 4.324219 7 C 4.40625 6.71875 4.558594 6.46875 4.765625 6.261719 C 4.96875 6.058594 5.222656 5.90625 5.5 5.824219 Z M 6.496094 4.035156 L 6.496094 5.824219 C 6.773438 5.90625 7.027344 6.054688 7.234375 6.261719 C 7.441406 6.464844 7.59375 6.71875 7.675781 7 L 9.464844 7 C 9.355469 6.25 9.007812 5.558594 8.472656 5.023438 C 7.9375 4.488281 7.246094 4.140625 6.496094 4.035156 Z M 2.535156 8.003906 C 2.644531 8.75 2.992188 9.441406 3.527344 9.976562 C 4.0625 10.511719 4.753906 10.855469 5.5 10.964844 L 5.5 9.175781 C 5.222656 9.09375 4.96875 8.941406 4.765625 8.738281 C 4.558594 8.535156 4.40625 8.28125 4.324219 8.003906 Z M 7.675781 8.003906 C 7.59375 8.28125 7.441406 8.535156 7.234375 8.738281 C 7.027344 8.945312 6.773438 9.09375 6.496094 9.175781 L 6.496094 10.964844 C 7.242188 10.859375 7.9375 10.511719 8.472656 9.976562 C 9.007812 9.445312 9.355469 8.75 9.464844 8.003906 Z M 7.675781 8.003906 "/>
</g>

</g>%n%n</svg>