<svg width="300" height="40" viewBox="0 0 300 40" fill="none" xmlns="http://www.w3.org/2000/svg" xmlns:xlink="http://www.w3.org/1999/xlink">

<g transform="translate(130.000000, 0.000000) scale(2.000000 2.000000) "> 

<g clip-path="url(#clip0)">
<path opacity="0.953" d="M9.9994 1C14.9626 1 19 5.00182 19 10C19 14.9655 14.9626 19 9.9994 19C5.03739 19 1 14.9655 1 10C1 5.00182 5.03739 1 9.9994 1Z" fill="#EE6C99"/>
<path opacity="0.95" fill-rule="evenodd" clip-rule="evenodd" d="M10 19C14.9706 19 19 14.9706 19 10C19 5.02944 14.9706 1 10 1C5.02944 1 1 5.02944 1 10C1 14.9706 5.02944 19 10 19ZM10 20C15.5228 20 20 15.5228 20 10C20 4.47715 15.5228 0 10 0C4.47715 0 0 4.47715 0 10C0 15.5228 4.47715 20 10 20Z" fill="#E72B6C"/>
</g>
<defs>
<clipPath id="clip0">
<path d="M0 0H20V20H0V0Z" fill="white"/>
</clipPath>
</defs>

</g>%n%n
<g transform="translate(138.000000, 8.000000) scale(0.750000 0.750000) "> 

<defs>
<filter id="filter-remove-color" x="0%" y="0%" width="100%" height="100%">
<feColorMatrix color-interpolation-filters="sRGB" values="0 0 0 0 1 0 0 0 0 1 0 0 0 0 1 0 0 0 1 0" />
</filter>
<mask id="mask-0">
<g filter="url(#filter-remove-color)">
<rect x="-3.2" y="-3.2" width="38.4" height="38.4" fill="rgb(0%, 0%, 0%)" fill-opacity="0.3"/>
</g>
</mask>
<clip100Path id="clip100-0">
<path clip100-rule="nonzero" d="M 8 2 L 32 2 L 32 30 L 8 30 Z M 8 2 "/>
</clip100Path>
<clip100Path id="clip100-1">
<rect x="0" y="0" width="32" height="32"/>
</clip100Path>
<g id="source-7" clip100-path="url(#clip100-1)">
<g clip100-path="url(#clip100-0)">
<path fill-rule="evenodd" fill="rgb(100%, 100%, 100%)" fill-opacity="1" d="M 18.667969 2.667969 L 8.574219 12.761719 L 14.910156 19.734375 L 15.980469 21.332031 L 16 21.332031 L 16 18.667969 L 18.667969 18.667969 L 18.667969 21.332031 L 21.332031 21.332031 L 21.332031 24 L 18.667969 24 L 18.667969 25.347656 L 21.332031 29.332031 L 40 29.332031 L 32 18.667969 Z M 18.667969 2.667969 "/>
</g>
</g>
<mask id="mask-1">
<g filter="url(#filter-remove-color)">
<rect x="-3.2" y="-3.2" width="38.4" height="38.4" fill="rgb(0%, 0%, 0%)" fill-opacity="0.6"/>
</g>
</mask>
<clip100Path id="clip100-2">
<path clip100-rule="nonzero" d="M 0 8 L 22 8 L 22 30 L 0 30 Z M 0 8 "/>
</clip100Path>
<clip100Path id="clip100-3">
<rect x="0" y="0" width="32" height="32"/>
</clip100Path>
<g id="source-11" clip100-path="url(#clip100-3)">
<g clip100-path="url(#clip100-2)">
<path fill-rule="evenodd" fill="rgb(100%, 100%, 100%)" fill-opacity="1" d="M -14.667969 29.332031 L 5.332031 8 L 13.332031 18.667969 L 15.332031 21.332031 L 13.332031 21.332031 L 13.332031 24 L 16 24 L 16 26.667969 L 18.667969 26.667969 L 18.667969 25.777344 L 21.332031 29.332031 Z M -14.667969 29.332031 "/>
</g>
</g>
</defs>
<g mask="url(#mask-0)">
<use xlink:href="#source-7"/>
</g>
<g mask="url(#mask-1)">
<use xlink:href="#source-11"/>
</g>
<path fill-rule="evenodd" fill="rgb(100%, 100%, 100%)" fill-opacity="1" d="M 17.332031 8 L 26.667969 16 L 24 16 L 24 29.332031 L 10.667969 29.332031 L 10.667969 16 L 8 16 Z M 16 21.332031 L 16 18.667969 L 18.667969 18.667969 L 18.667969 21.332031 L 21.332031 21.332031 L 21.332031 24 L 18.667969 24 L 18.667969 26.667969 L 16 26.667969 L 16 24 L 13.332031 24 L 13.332031 21.332031 Z M 16 21.332031 "/>

</g>%n%n</svg>