<svg width="300" height="40" viewBox="0 0 300 40" fill="none" xmlns="http://www.w3.org/2000/svg" xmlns:xlink="http://www.w3.org/1999/xlink">

<g transform="translate(130.000000, 0.000000) scale(2.000000 2.000000) "> 

<g clip-path="url(#clip0)">
<path opacity="0.953" d="M9.9994 1C14.9626 1 19 5.00182 19 10C19 14.9655 14.9626 19 9.9994 19C5.03739 19 1 14.9655 1 10C1 5.00182 5.03739 1 9.9994 1Z" fill="#EE6C99"/>
<path opacity="0.95" fill-rule="evenodd" clip-rule="evenodd" d="M10 19C14.9706 19 19 14.9706 19 10C19 5.02944 14.9706 1 10 1C5.02944 1 1 5.02944 1 10C1 14.9706 5.02944 19 10 19ZM10 20C15.5228 20 20 15.5228 20 10C20 4.47715 15.5228 0 10 0C4.47715 0 0 4.47715 0 10C0 15.5228 4.47715 20 10 20Z" fill="#E72B6C"/>
</g>
<defs>
<clipPath id="clip0">
<path d="M0 0H20V20H0V0Z" fill="white"/>
</clipPath>
</defs>

</g>%n%n
<g transform="translate(138.000000, 8.000000) scale(2.000000 2.000000) "> 

<path fill-rule="nonzero" fill="rgb(100%, 100%, 100%)" fill-opacity="1" d="M 10 0 L 11 0 L 11 1 L 12 1 L 12 2 L 11 2 L 11 3 L 10 3 L 10 2 L 9 2 L 9 1 L 10 1 Z M 10 0 "/>
<path fill-rule="evenodd" fill="rgb(100%, 100%, 100%)" fill-opacity="1" d="M 5.300781 4.035156 C 4.863281 3.386719 4.132812 3 3.351562 3 C 2.050781 3 1 4.050781 1 5.351562 L 1 5.507812 C 1 6.179688 1.269531 6.820312 1.746094 7.292969 L 5.5 11 L 9.253906 7.292969 C 9.730469 6.820312 10 6.179688 10 5.507812 L 10 5.351562 C 10 4.050781 8.949219 3 7.648438 3 C 6.867188 3 6.136719 3.386719 5.699219 4.035156 L 5.5 4.332031 Z M 5.5 5 L 4.089844 7.5 L 6.089844 7.5 L 4.5 9.5 L 8.089844 6.5 L 6.019531 6.5 L 7.152344 5 Z M 5.5 5 "/>

</g>%n%n</svg>