<svg width="300" height="40" viewBox="0 0 300 40" fill="none" xmlns="http://www.w3.org/2000/svg" xmlns:xlink="http://www.w3.org/1999/xlink">

<g transform="translate(138.000000, 8.000000) scale(2.000000 2.000000) "> 

<defs>
<filter id="filter-remove-color" x="0%" y="0%" width="100%" height="100%">
<feColorMatrix color-interpolation-filters="sRGB" values="0 0 0 0 1 0 0 0 0 1 0 0 0 0 1 0 0 0 1 0" />
</filter>
<mask id="mask-0">
<g filter="url(#filter-remove-color)">
<rect x="-1.2" y="-1.2" width="14.4" height="14.4" fill="rgb(0%, 0%, 0%)" fill-opacity="0.5"/>
</g>
</mask>
<clip100Path id="clip100-0">
<rect x="0" y="0" width="12" height="12"/>
</clip100Path>
<g id="source-8" clip100-path="url(#clip100-0)">
<path fill-rule="nonzero" fill="rgb(85.490196%, 0%, 57.254902%)" fill-opacity="1" d="M 2 6 L 1 6 L 1 7 L 2 7 Z M 2 6 "/>
<path fill-rule="nonzero" fill="rgb(85.490196%, 0%, 57.254902%)" fill-opacity="1" d="M 11 6 L 10 6 L 10 7 L 11 7 Z M 11 6 "/>
</g>
</defs>
<path fill-rule="nonzero" fill="rgb(85.490196%, 0%, 57.254902%)" fill-opacity="1" d="M 5 0 L 7 0 L 7 1.015625 C 7.566406 1.113281 8 1.605469 8 2.199219 L 8 3 L 9 3 L 9 4 L 8 4 L 8 5 L 9 5 L 10 6 L 10 7 L 9 8 L 8 8 L 8 11 L 9 11 L 9 12 L 3 12 L 3 11 L 4 11 L 4 8 L 3 8 L 2 7 L 2 6 L 3 5 L 4 5 L 4 4 L 3 4 L 3 3 L 4 3 L 4 2.199219 C 4 1.605469 4.433594 1.113281 5 1.015625 Z M 5 0 "/>
<g mask="url(#mask-0)">
<use xlink:href="#source-8"/>
</g>

</g>%n%n</svg>