<svg width="300" height="40" viewBox="0 0 300 40" fill="none" xmlns="http://www.w3.org/2000/svg" xmlns:xlink="http://www.w3.org/1999/xlink" version="1.1">

<g transform="translate(130.000000, 0.000000) scale(2.000000 2.000000) "> 

<g clip-path="url(#clip0)">
<path opacity="0.953" d="M9.9994 1C14.9626 1 19 5.00182 19 10C19 14.9655 14.9626 19 9.9994 19C5.03739 19 1 14.9655 1 10C1 5.00182 5.03739 1 9.9994 1Z" fill="#EE6C99"/>
<path opacity="0.95" fill-rule="evenodd" clip-rule="evenodd" d="M10 19C14.9706 19 19 14.9706 19 10C19 5.02944 14.9706 1 10 1C5.02944 1 1 5.02944 1 10C1 14.9706 5.02944 19 10 19ZM10 20C15.5228 20 20 15.5228 20 10C20 4.47715 15.5228 0 10 0C4.47715 0 0 4.47715 0 10C0 15.5228 4.47715 20 10 20Z" fill="#E72B6C"/>
</g>
<defs>
<clipPath id="clip0">
<path d="M0 0H20V20H0V0Z" fill="white"/>
</clipPath>
</defs>

</g>%n%n
<g transform="translate(138.000000, 8.000000) scale(2.000000 2.000000) "> 

<g id="surface1">
<path style=" stroke:none;fill-rule:nonzero;fill:rgb(85.490197%,0%,57.254905%);fill-opacity:1;" d="M 5.21875 0.636719 L 5.21875 1.003906 C 4.226562 1.167969 3.636719 1.65625 3.601562 2.597656 L 3.207031 2.597656 L 3.207031 2.847656 L 3.761719 2.847656 L 3.761719 4.191406 L 3.429688 4.484375 L 3.148438 4.484375 L 3.148438 4.226562 L 2.730469 4.226562 L 2.730469 4.472656 L 1.65625 5.148438 L 1.457031 5.148438 L 1.457031 5.511719 L 1.65625 5.511719 L 2.714844 6.175781 L 2.714844 6.425781 L 3.160156 6.425781 L 3.160156 6.175781 L 3.386719 6.175781 L 3.703125 6.453125 L 3.703125 9.855469 L 2.703125 10.742188 L 2.703125 11.398438 L 9.296875 11.398438 L 9.296875 10.742188 L 8.296875 9.855469 L 8.296875 6.453125 L 8.613281 6.175781 L 8.839844 6.175781 L 8.839844 6.425781 L 9.285156 6.425781 L 9.285156 6.175781 L 10.34375 5.511719 L 10.542969 5.511719 L 10.542969 5.148438 L 10.34375 5.148438 L 9.269531 4.472656 L 9.269531 4.226562 L 8.851562 4.226562 L 8.851562 4.484375 L 8.570312 4.484375 L 8.238281 4.191406 L 8.238281 2.847656 L 8.792969 2.847656 L 8.792969 2.597656 L 8.398438 2.597656 C 8.363281 1.65625 7.773438 1.167969 6.78125 1.003906 L 6.78125 0.636719 Z M 5.640625 3.871094 L 6.46875 3.871094 L 6.46875 7.699219 L 7.699219 6.46875 L 7.699219 7.515625 L 6.03125 9.1875 L 4.300781 7.457031 L 4.300781 6.359375 L 5.640625 7.699219 Z M 5.640625 3.871094 "/>
</g>

</g>%n%n</svg>