<svg width="24" height="24" viewBox="0 0 24 24" fill="none" xmlns="http://www.w3.org/2000/svg">
<path fill-rule="evenodd" clip-rule="evenodd" d="M4.83765 5.48705L3 11V19C3 19.5523 3.44772 20 4 20H5C5.55228 20 6 19.5523 6 19V18H18V19C18 19.5523 18.4477 20 19 20H20C20.5523 20 21 19.5523 21 19V11L19.1623 5.48705C19.0556 5.16675 18.8757 4.87571 18.637 4.63698C18.2291 4.22913 17.676 4 17.0992 4H6.90082C6.32403 4 5.77087 4.22913 5.36302 4.63698C5.12429 4.87571 4.94442 5.16675 4.83765 5.48705ZM18.5585 10L17.265 6.1195C17.2564 6.09376 17.2419 6.07037 17.2228 6.05119C17.19 6.01841 17.1455 6 17.0992 6H6.90082C6.85447 6 6.81001 6.01841 6.77724 6.05119C6.75805 6.07037 6.7436 6.09376 6.73502 6.1195L5.44152 10H18.5585ZM8 13.5C8 14.3284 7.32843 15 6.5 15C5.67157 15 5 14.3284 5 13.5C5 12.6716 5.67157 12 6.5 12C7.32843 12 8 12.6716 8 13.5ZM19 13.5C19 14.3284 18.3284 15 17.5 15C16.6716 15 16 14.3284 16 13.5C16 12.6716 16.6716 12 17.5 12C18.3284 12 19 12.6716 19 13.5Z" fill="#1976d2"/>
</svg>
