<svg width="24" height="24" viewBox="0 0 24 24" fill="none" xmlns="http://www.w3.org/2000/svg">
<path fill-rule="evenodd" clip-rule="evenodd" d="M19 9C20.6569 9 22 10.3431 22 12C22 13.6569 20.6569 15 19 15C17.3431 15 16 13.6569 16 12C16 10.3431 17.3431 9 19 9ZM19 13C18.4477 13 18 12.5523 18 12C18 11.4477 18.4477 11 19 11C19.5523 11 20 11.4477 20 12C20 12.5523 19.5523 13 19 13Z" fill="#ff8800"/>
<path opacity="0.5" d="M3 13H6V11H3C2.44772 11 2 11.4477 2 12C2 12.5523 2.44772 13 3 13Z" fill="#ff8800"/>
<path fill-rule="evenodd" clip-rule="evenodd" d="M8 9C6.34315 9 5 10.3431 5 12C5 13.6569 6.34315 15 8 15C9.65685 15 11 13.6569 11 12C11 10.3431 9.65685 9 8 9ZM8 13C8.55228 13 9 12.5523 9 12C9 11.4477 8.55228 11 8 11C7.44772 11 7 11.4477 7 12C7 12.5523 7.44772 13 8 13Z" fill="#ff8800"/>
</svg>
