<svg width="300" height="35" viewBox="0 0 300 35" fill="none" xmlns="http://www.w3.org/2000/svg">
<rect width="300" height="35" fill="#3B3B3B"/>
<path opacity="0.953" d="M149.999 7C155.514 7 160 11.4465 160 17C160 22.5172 155.514 27 149.999 27C144.486 27 140 22.5172 140 17C140 11.4465 144.486 7 149.999 7Z" fill="#2E702E"/>
<path opacity="0.95" fill-rule="evenodd" clip-rule="evenodd" d="M150 26C154.971 26 159 21.9706 159 17C159 12.0294 154.971 8 150 8C145.029 8 141 12.0294 141 17C141 21.9706 145.029 26 150 26ZM150 27C155.523 27 160 22.5228 160 17C160 11.4772 155.523 7 150 7C144.477 7 140 11.4772 140 17C140 22.5228 144.477 27 150 27Z" fill="#44A544"/>
<g clip-path="url(#clip0_210_2743)">
<path d="M148.474 11.7683C146.251 11.7683 144.768 12.7711 144.768 14.079C144.768 15.7793 146.687 16.3896 147.689 16.5204C147.689 16.5204 148.3 16.2153 148.518 15.9973C146.251 15.9537 145.684 14.9073 145.684 14.9073C145.684 14.9073 146.381 15.6485 148.91 15.6921C148.91 15.6921 149.215 15.3869 149.346 15.2561C146.948 15.2125 145.64 14.7765 145.64 14.0354C145.64 13.2506 146.73 12.2043 148.474 12.2043C151.439 12.2043 151.308 16.7384 144.768 18.1335C144.768 19.5287 146.076 20.4878 147.384 20.4878C147.864 20.4878 148.343 20.357 148.736 20.0954C148.736 20.0954 153.052 17.6976 153.052 15.3869C153.052 12.5967 149.738 11.7683 148.474 11.7683ZM148.954 18.2643C148.954 18.2643 148.823 19.6159 147.21 19.6159C145.989 19.6159 145.597 18.6567 145.597 18.6567C150.567 17.1308 151.744 13.3378 150 12.3351C153.139 13.0326 152.703 17 148.954 18.2643Z" fill="white"/>
<path d="M153.444 15.0381C154.709 14.3842 155.624 12.5967 152.572 11.7683C152.572 11.7683 155.188 11.8991 155.188 13.9482C155.188 15.6921 154.098 16.4768 153.183 16.8256C153.401 16.5204 153.488 15.9101 153.488 15.9101C154.534 15.2125 154.752 14.2098 154.752 14.2098C154.752 14.2098 154.403 15.0817 153.488 15.5613C153.488 15.5613 153.531 15.3433 153.444 15.0381Z" fill="white"/>
<path d="M155.232 21.4469C154.883 21.4469 154.316 21.3597 153.924 21.0546C153.531 21.3597 152.965 21.4469 152.616 21.4469C152.267 21.4469 151.7 21.3597 151.308 21.0546C150.916 21.3597 150.349 21.4469 150 21.4469C149.651 21.4469 149.084 21.3597 148.692 21.0546C148.3 21.3597 147.733 21.4469 147.384 21.4469C147.035 21.4469 146.469 21.3597 146.076 21.0546C145.684 21.3597 145.117 21.4469 144.768 21.4469V22.2317C145.509 22.2317 145.815 22.0573 146.076 21.8393C146.469 22.1445 147.035 22.2317 147.384 22.2317C147.733 22.2317 148.3 22.1445 148.692 21.8393C149.084 22.1445 149.651 22.2317 150 22.2317C150.349 22.2317 150.916 22.1445 151.308 21.8393C151.7 22.1445 152.267 22.2317 152.616 22.2317C152.965 22.2317 153.531 22.1445 153.924 21.8393C154.316 22.1445 154.883 22.2317 155.232 22.2317V21.4469Z" fill="white"/>
<path d="M155.232 19.703C154.883 19.703 154.316 19.6159 153.924 19.3107C153.531 19.6159 152.965 19.703 152.616 19.703C152.267 19.703 151.7 19.6159 151.308 19.3107C151.09 19.4851 150.872 19.5723 150.61 19.6159C150.349 19.8338 149.39 20.4006 149.39 20.4006C149.608 20.4442 149.826 20.4878 150 20.4878C150.349 20.4878 150.916 20.4006 151.308 20.0954C151.7 20.4006 152.267 20.4878 152.616 20.4878C152.965 20.4878 153.531 20.4006 153.924 20.0954C154.316 20.4006 154.883 20.4878 155.232 20.4878V19.703Z" fill="white"/>
</g>
<defs>
<clipPath id="clip0_210_2743">
<rect width="12" height="12" fill="white" transform="translate(144 11)"/>
</clipPath>
</defs>
</svg>
