<svg width="300" height="35" viewBox="0 0 300 35" fill="none" xmlns="http://www.w3.org/2000/svg">
<rect width="300" height="35" fill="#25A778" fill-opacity="0.23"/>
<rect x="1" y="1" width="298" height="33" stroke="#A7783A" stroke-opacity="0.67" stroke-width="2" stroke-dasharray="10 3"/>
<path opacity="0.958" d="M149.999 8C154.963 8 159 12.0018 159 17C159 21.9655 154.963 26 149.999 26C145.037 26 141 21.9655 141 17C141 12.0018 145.037 8 149.999 8Z" fill="#BA9171"/>
<path opacity="0.95" fill-rule="evenodd" clip-rule="evenodd" d="M150 26C154.971 26 159 21.9706 159 17C159 12.0294 154.971 8 150 8C145.029 8 141 12.0294 141 17C141 21.9706 145.029 26 150 26ZM150 27C155.523 27 160 22.5228 160 17C160 11.4772 155.523 7 150 7C144.477 7 140 11.4772 140 17C140 22.5228 144.477 27 150 27Z" fill="#AF7A57"/>
<path fill-rule="evenodd" clip-rule="evenodd" d="M150.732 12L154.196 14C153.92 14.4783 153.308 14.6422 152.83 14.366L152.33 15.2321C152.319 15.4221 152.324 15.5969 152.344 15.7588L153.059 15.2869C153.449 15.029 153.952 15.0139 154.358 15.248C154.949 15.5893 155.151 16.3453 154.81 16.9365L153.428 19.3301C153.173 19.7729 152.896 20.1364 152.612 20.4347C152.382 20.4781 152.149 20.5 151.915 20.5C151.438 20.5 150.965 20.4089 150.522 20.2317L149.413 19.7881C148.937 19.5978 148.429 19.5 147.917 19.5C147.122 19.5 146.344 19.7354 145.682 20.1765L145.317 20.4204L145.299 20.4103C145.06 20.2722 144.978 19.9664 145.116 19.7272C145.254 19.4881 145.56 19.4062 145.799 19.5442L146.232 19.7942C146.232 19.7942 145 17.9282 146.5 15.3301L147.882 12.9365C148.223 12.3453 148.979 12.1427 149.57 12.4841C149.976 12.7182 150.214 13.1612 150.186 13.6286L150.135 14.4835C150.285 14.4194 150.439 14.337 150.598 14.2321L151.098 13.366C150.62 13.0899 150.456 12.4783 150.732 12ZM149.121 14.6856L149.188 13.5687C149.193 13.4794 149.148 13.3948 149.07 13.3501C148.958 13.2849 148.813 13.3236 148.748 13.4365L148.091 14.5752C148.171 14.5855 148.252 14.5976 148.335 14.6099C148.582 14.6463 148.843 14.6849 149.121 14.6856ZM153.287 17.5752L153.944 16.4365C154.009 16.3236 153.971 16.1792 153.858 16.114C153.78 16.0693 153.684 16.0722 153.61 16.1215L152.676 16.738C152.815 16.9786 152.979 17.1854 153.134 17.3806C153.187 17.4465 153.238 17.5111 153.287 17.5752Z" fill="white"/>
<path d="M146.514 21.4246C146.93 21.1477 147.418 21 147.917 21C148.238 21 148.557 21.0614 148.856 21.1808L149.965 21.6244C150.585 21.8725 151.247 22 151.915 22C152.344 22 152.772 21.9473 153.189 21.8432L154.621 21.4851C154.889 21.4181 155.052 21.1466 154.985 20.8787C154.918 20.6108 154.647 20.448 154.379 20.5149L152.946 20.8731C152.609 20.9574 152.263 21 151.915 21C151.374 21 150.838 20.8968 150.336 20.6959L149.227 20.2523C148.81 20.0856 148.366 20 147.917 20C147.22 20 146.539 20.2062 145.96 20.5925L145.223 21.084C144.993 21.2372 144.931 21.5476 145.084 21.7774C145.237 22.0071 145.548 22.0692 145.777 21.916L146.514 21.4246Z" fill="white"/>
</svg>
