<svg width="300" height="35" viewBox="0 0 300 35" fill="none" xmlns="http://www.w3.org/2000/svg">
<g clip-path="url(#clip0_236_10560)">
<rect x="1" y="1" width="298" height="33" stroke="#EC94B2" stroke-opacity="0.5" stroke-width="2"/>
<g clip-path="url(#clip1_236_10560)">
<path d="M15.1986 0.00146484H15.9985V0.801389L0.799924 15.9999H0V15.2" fill="#FE9FBF" fill-opacity="0.43"/>
<path d="M0.799924 0.00146484L0 0.801389V0.00146484" fill="#FE9FBF" fill-opacity="0.43"/>
<path d="M15.1986 16.0001H15.9985V15.2002" fill="#FE9FBF" fill-opacity="0.43"/>
</g>
<g clip-path="url(#clip2_236_10560)">
<path d="M31.1986 0.00146484H31.9985V0.801389L16.7999 15.9999H16V15.2" fill="#FE9FBF" fill-opacity="0.43"/>
<path d="M16.7999 0.00146484L16 0.801389V0.00146484" fill="#FE9FBF" fill-opacity="0.43"/>
<path d="M31.1986 16.0001H31.9985V15.2002" fill="#FE9FBF" fill-opacity="0.43"/>
</g>
<g clip-path="url(#clip3_236_10560)">
<path d="M47.1986 0.00146484H47.9985V0.801389L32.7999 15.9999H32V15.2" fill="#FE9FBF" fill-opacity="0.43"/>
<path d="M32.7999 0.00146484L32 0.801389V0.00146484" fill="#FE9FBF" fill-opacity="0.43"/>
<path d="M47.1986 16.0001H47.9985V15.2002" fill="#FE9FBF" fill-opacity="0.43"/>
</g>
<g clip-path="url(#clip4_236_10560)">
<path d="M63.1986 0.00146484H63.9985V0.801389L48.7999 15.9999H48V15.2" fill="#FE9FBF" fill-opacity="0.43"/>
<path d="M48.7999 0.00146484L48 0.801389V0.00146484" fill="#FE9FBF" fill-opacity="0.43"/>
<path d="M63.1986 16.0001H63.9985V15.2002" fill="#FE9FBF" fill-opacity="0.43"/>
</g>
<g clip-path="url(#clip5_236_10560)">
<path d="M79.1986 0.00146484H79.9985V0.801389L64.7999 15.9999H64V15.2" fill="#FE9FBF" fill-opacity="0.43"/>
<path d="M64.7999 0.00146484L64 0.801389V0.00146484" fill="#FE9FBF" fill-opacity="0.43"/>
<path d="M79.1986 16.0001H79.9985V15.2002" fill="#FE9FBF" fill-opacity="0.43"/>
</g>
<g clip-path="url(#clip6_236_10560)">
<path d="M95.1986 0.00146484H95.9985V0.801389L80.7999 15.9999H80V15.2" fill="#FE9FBF" fill-opacity="0.43"/>
<path d="M80.7999 0.00146484L80 0.801389V0.00146484" fill="#FE9FBF" fill-opacity="0.43"/>
<path d="M95.1986 16.0001H95.9985V15.2002" fill="#FE9FBF" fill-opacity="0.43"/>
</g>
<g clip-path="url(#clip7_236_10560)">
<path d="M111.199 0.00146484H111.998V0.801389L96.7999 15.9999H96V15.2" fill="#FE9FBF" fill-opacity="0.43"/>
<path d="M96.7999 0.00146484L96 0.801389V0.00146484" fill="#FE9FBF" fill-opacity="0.43"/>
<path d="M111.199 16.0001H111.999V15.2002" fill="#FE9FBF" fill-opacity="0.43"/>
</g>
<g clip-path="url(#clip8_236_10560)">
<path d="M127.199 0.00146484H127.998V0.801389L112.8 15.9999H112V15.2" fill="#FE9FBF" fill-opacity="0.43"/>
<path d="M112.8 0.00146484L112 0.801389V0.00146484" fill="#FE9FBF" fill-opacity="0.43"/>
<path d="M127.199 16.0001H127.999V15.2002" fill="#FE9FBF" fill-opacity="0.43"/>
</g>
<g clip-path="url(#clip9_236_10560)">
<path d="M143.199 0.00146484H143.998V0.801389L128.8 15.9999H128V15.2" fill="#FE9FBF" fill-opacity="0.43"/>
<path d="M128.8 0.00146484L128 0.801389V0.00146484" fill="#FE9FBF" fill-opacity="0.43"/>
<path d="M143.199 16.0001H143.999V15.2002" fill="#FE9FBF" fill-opacity="0.43"/>
</g>
<g clip-path="url(#clip10_236_10560)">
<path d="M159.199 0.00146484H159.998V0.801389L144.8 15.9999H144V15.2" fill="#FE9FBF" fill-opacity="0.43"/>
<path d="M144.8 0.00146484L144 0.801389V0.00146484" fill="#FE9FBF" fill-opacity="0.43"/>
<path d="M159.199 16.0001H159.999V15.2002" fill="#FE9FBF" fill-opacity="0.43"/>
</g>
<g clip-path="url(#clip11_236_10560)">
<path d="M175.199 0.00146484H175.998V0.801389L160.8 15.9999H160V15.2" fill="#FE9FBF" fill-opacity="0.43"/>
<path d="M160.8 0.00146484L160 0.801389V0.00146484" fill="#FE9FBF" fill-opacity="0.43"/>
<path d="M175.199 16.0001H175.999V15.2002" fill="#FE9FBF" fill-opacity="0.43"/>
</g>
<g clip-path="url(#clip12_236_10560)">
<path d="M191.199 0.00146484H191.998V0.801389L176.8 15.9999H176V15.2" fill="#FE9FBF" fill-opacity="0.43"/>
<path d="M176.8 0.00146484L176 0.801389V0.00146484" fill="#FE9FBF" fill-opacity="0.43"/>
<path d="M191.199 16.0001H191.999V15.2002" fill="#FE9FBF" fill-opacity="0.43"/>
</g>
<g clip-path="url(#clip13_236_10560)">
<path d="M207.199 0.00146484H207.998V0.801389L192.8 15.9999H192V15.2" fill="#FE9FBF" fill-opacity="0.43"/>
<path d="M192.8 0.00146484L192 0.801389V0.00146484" fill="#FE9FBF" fill-opacity="0.43"/>
<path d="M207.199 16.0001H207.999V15.2002" fill="#FE9FBF" fill-opacity="0.43"/>
</g>
<g clip-path="url(#clip14_236_10560)">
<path d="M223.199 0.00146484H223.998V0.801389L208.8 15.9999H208V15.2" fill="#FE9FBF" fill-opacity="0.43"/>
<path d="M208.8 0.00146484L208 0.801389V0.00146484" fill="#FE9FBF" fill-opacity="0.43"/>
<path d="M223.199 16.0001H223.999V15.2002" fill="#FE9FBF" fill-opacity="0.43"/>
</g>
<g clip-path="url(#clip15_236_10560)">
<path d="M239.199 0.00146484H239.998V0.801389L224.8 15.9999H224V15.2" fill="#FE9FBF" fill-opacity="0.43"/>
<path d="M224.8 0.00146484L224 0.801389V0.00146484" fill="#FE9FBF" fill-opacity="0.43"/>
<path d="M239.199 16.0001H239.999V15.2002" fill="#FE9FBF" fill-opacity="0.43"/>
</g>
<g clip-path="url(#clip16_236_10560)">
<path d="M255.199 0.00146484H255.998V0.801389L240.8 15.9999H240V15.2" fill="#FE9FBF" fill-opacity="0.43"/>
<path d="M240.8 0.00146484L240 0.801389V0.00146484" fill="#FE9FBF" fill-opacity="0.43"/>
<path d="M255.199 16.0001H255.999V15.2002" fill="#FE9FBF" fill-opacity="0.43"/>
</g>
<g clip-path="url(#clip17_236_10560)">
<path d="M271.199 0.00146484H271.998V0.801389L256.8 15.9999H256V15.2" fill="#FE9FBF" fill-opacity="0.43"/>
<path d="M256.8 0.00146484L256 0.801389V0.00146484" fill="#FE9FBF" fill-opacity="0.43"/>
<path d="M271.199 16.0001H271.999V15.2002" fill="#FE9FBF" fill-opacity="0.43"/>
</g>
<g clip-path="url(#clip18_236_10560)">
<path d="M287.199 0.00146484H287.998V0.801389L272.8 15.9999H272V15.2" fill="#FE9FBF" fill-opacity="0.43"/>
<path d="M272.8 0.00146484L272 0.801389V0.00146484" fill="#FE9FBF" fill-opacity="0.43"/>
<path d="M287.199 16.0001H287.999V15.2002" fill="#FE9FBF" fill-opacity="0.43"/>
</g>
<g clip-path="url(#clip19_236_10560)">
<path d="M303.199 0.00146484H303.998V0.801389L288.8 15.9999H288V15.2" fill="#FE9FBF" fill-opacity="0.43"/>
<path d="M288.8 0.00146484L288 0.801389V0.00146484" fill="#FE9FBF" fill-opacity="0.43"/>
</g>
<g clip-path="url(#clip20_236_10560)">
<path d="M15.1986 16.0015H15.9985V16.8014L0.799924 31.9999H0V31.2" fill="#FE9FBF" fill-opacity="0.43"/>
<path d="M0.799924 16.0015L0 16.8014V16.0015" fill="#FE9FBF" fill-opacity="0.43"/>
<path d="M15.1986 32.0001H15.9985V31.2002" fill="#FE9FBF" fill-opacity="0.43"/>
</g>
<g clip-path="url(#clip21_236_10560)">
<path d="M31.1986 16.0015H31.9985V16.8014L16.7999 31.9999H16V31.2" fill="#FE9FBF" fill-opacity="0.43"/>
<path d="M16.7999 16.0015L16 16.8014V16.0015" fill="#FE9FBF" fill-opacity="0.43"/>
<path d="M31.1986 32.0001H31.9985V31.2002" fill="#FE9FBF" fill-opacity="0.43"/>
</g>
<g clip-path="url(#clip22_236_10560)">
<path d="M47.1986 16.0015H47.9985V16.8014L32.7999 31.9999H32V31.2" fill="#FE9FBF" fill-opacity="0.43"/>
<path d="M32.7999 16.0015L32 16.8014V16.0015" fill="#FE9FBF" fill-opacity="0.43"/>
<path d="M47.1986 32.0001H47.9985V31.2002" fill="#FE9FBF" fill-opacity="0.43"/>
</g>
<g clip-path="url(#clip23_236_10560)">
<path d="M63.1986 16.0015H63.9985V16.8014L48.7999 31.9999H48V31.2" fill="#FE9FBF" fill-opacity="0.43"/>
<path d="M48.7999 16.0015L48 16.8014V16.0015" fill="#FE9FBF" fill-opacity="0.43"/>
<path d="M63.1986 32.0001H63.9985V31.2002" fill="#FE9FBF" fill-opacity="0.43"/>
</g>
<g clip-path="url(#clip24_236_10560)">
<path d="M79.1986 16.0015H79.9985V16.8014L64.7999 31.9999H64V31.2" fill="#FE9FBF" fill-opacity="0.43"/>
<path d="M64.7999 16.0015L64 16.8014V16.0015" fill="#FE9FBF" fill-opacity="0.43"/>
<path d="M79.1986 32.0001H79.9985V31.2002" fill="#FE9FBF" fill-opacity="0.43"/>
</g>
<g clip-path="url(#clip25_236_10560)">
<path d="M95.1986 16.0015H95.9985V16.8014L80.7999 31.9999H80V31.2" fill="#FE9FBF" fill-opacity="0.43"/>
<path d="M80.7999 16.0015L80 16.8014V16.0015" fill="#FE9FBF" fill-opacity="0.43"/>
<path d="M95.1986 32.0001H95.9985V31.2002" fill="#FE9FBF" fill-opacity="0.43"/>
</g>
<g clip-path="url(#clip26_236_10560)">
<path d="M111.199 16.0015H111.998V16.8014L96.7999 31.9999H96V31.2" fill="#FE9FBF" fill-opacity="0.43"/>
<path d="M96.7999 16.0015L96 16.8014V16.0015" fill="#FE9FBF" fill-opacity="0.43"/>
<path d="M111.199 32.0001H111.999V31.2002" fill="#FE9FBF" fill-opacity="0.43"/>
</g>
<g clip-path="url(#clip27_236_10560)">
<path d="M127.199 16.0015H127.998V16.8014L112.8 31.9999H112V31.2" fill="#FE9FBF" fill-opacity="0.43"/>
<path d="M112.8 16.0015L112 16.8014V16.0015" fill="#FE9FBF" fill-opacity="0.43"/>
<path d="M127.199 32.0001H127.999V31.2002" fill="#FE9FBF" fill-opacity="0.43"/>
</g>
<g clip-path="url(#clip28_236_10560)">
<path d="M143.199 16.0015H143.998V16.8014L128.8 31.9999H128V31.2" fill="#FE9FBF" fill-opacity="0.43"/>
<path d="M128.8 16.0015L128 16.8014V16.0015" fill="#FE9FBF" fill-opacity="0.43"/>
<path d="M143.199 32.0001H143.999V31.2002" fill="#FE9FBF" fill-opacity="0.43"/>
</g>
<g clip-path="url(#clip29_236_10560)">
<path d="M159.199 16.0015H159.998V16.8014L144.8 31.9999H144V31.2" fill="#FE9FBF" fill-opacity="0.43"/>
<path d="M144.8 16.0015L144 16.8014V16.0015" fill="#FE9FBF" fill-opacity="0.43"/>
<path d="M159.199 32.0001H159.999V31.2002" fill="#FE9FBF" fill-opacity="0.43"/>
</g>
<g clip-path="url(#clip30_236_10560)">
<path d="M175.199 16.0015H175.998V16.8014L160.8 31.9999H160V31.2" fill="#FE9FBF" fill-opacity="0.43"/>
<path d="M160.8 16.0015L160 16.8014V16.0015" fill="#FE9FBF" fill-opacity="0.43"/>
<path d="M175.199 32.0001H175.999V31.2002" fill="#FE9FBF" fill-opacity="0.43"/>
</g>
<g clip-path="url(#clip31_236_10560)">
<path d="M191.199 16.0015H191.998V16.8014L176.8 31.9999H176V31.2" fill="#FE9FBF" fill-opacity="0.43"/>
<path d="M176.8 16.0015L176 16.8014V16.0015" fill="#FE9FBF" fill-opacity="0.43"/>
<path d="M191.199 32.0001H191.999V31.2002" fill="#FE9FBF" fill-opacity="0.43"/>
</g>
<g clip-path="url(#clip32_236_10560)">
<path d="M207.199 16.0015H207.998V16.8014L192.8 31.9999H192V31.2" fill="#FE9FBF" fill-opacity="0.43"/>
<path d="M192.8 16.0015L192 16.8014V16.0015" fill="#FE9FBF" fill-opacity="0.43"/>
<path d="M207.199 32.0001H207.999V31.2002" fill="#FE9FBF" fill-opacity="0.43"/>
</g>
<g clip-path="url(#clip33_236_10560)">
<path d="M223.199 16.0015H223.998V16.8014L208.8 31.9999H208V31.2" fill="#FE9FBF" fill-opacity="0.43"/>
<path d="M208.8 16.0015L208 16.8014V16.0015" fill="#FE9FBF" fill-opacity="0.43"/>
<path d="M223.199 32.0001H223.999V31.2002" fill="#FE9FBF" fill-opacity="0.43"/>
</g>
<g clip-path="url(#clip34_236_10560)">
<path d="M239.199 16.0015H239.998V16.8014L224.8 31.9999H224V31.2" fill="#FE9FBF" fill-opacity="0.43"/>
<path d="M224.8 16.0015L224 16.8014V16.0015" fill="#FE9FBF" fill-opacity="0.43"/>
<path d="M239.199 32.0001H239.999V31.2002" fill="#FE9FBF" fill-opacity="0.43"/>
</g>
<g clip-path="url(#clip35_236_10560)">
<path d="M255.199 16.0015H255.998V16.8014L240.8 31.9999H240V31.2" fill="#FE9FBF" fill-opacity="0.43"/>
<path d="M240.8 16.0015L240 16.8014V16.0015" fill="#FE9FBF" fill-opacity="0.43"/>
<path d="M255.199 32.0001H255.999V31.2002" fill="#FE9FBF" fill-opacity="0.43"/>
</g>
<g clip-path="url(#clip36_236_10560)">
<path d="M271.199 16.0015H271.998V16.8014L256.8 31.9999H256V31.2" fill="#FE9FBF" fill-opacity="0.43"/>
<path d="M256.8 16.0015L256 16.8014V16.0015" fill="#FE9FBF" fill-opacity="0.43"/>
<path d="M271.199 32.0001H271.999V31.2002" fill="#FE9FBF" fill-opacity="0.43"/>
</g>
<g clip-path="url(#clip37_236_10560)">
<path d="M287.199 16.0015H287.998V16.8014L272.8 31.9999H272V31.2" fill="#FE9FBF" fill-opacity="0.43"/>
<path d="M272.8 16.0015L272 16.8014V16.0015" fill="#FE9FBF" fill-opacity="0.43"/>
<path d="M287.199 32.0001H287.999V31.2002" fill="#FE9FBF" fill-opacity="0.43"/>
</g>
<g clip-path="url(#clip38_236_10560)">
<path d="M303.199 16.0015H303.998V16.8014L288.8 31.9999H288V31.2" fill="#FE9FBF" fill-opacity="0.43"/>
<path d="M288.8 16.0015L288 16.8014V16.0015" fill="#FE9FBF" fill-opacity="0.43"/>
</g>
<g clip-path="url(#clip39_236_10560)">
<path d="M15.1986 32.0015H15.9985V32.8014L0.799924 47.9999H0V47.2" fill="#FE9FBF" fill-opacity="0.43"/>
<path d="M0.799924 32.0015L0 32.8014V32.0015" fill="#FE9FBF" fill-opacity="0.43"/>
</g>
<g clip-path="url(#clip40_236_10560)">
<path d="M31.1986 32.0015H31.9985V32.8014L16.7999 47.9999H16V47.2" fill="#FE9FBF" fill-opacity="0.43"/>
<path d="M16.7999 32.0015L16 32.8014V32.0015" fill="#FE9FBF" fill-opacity="0.43"/>
</g>
<g clip-path="url(#clip41_236_10560)">
<path d="M47.1986 32.0015H47.9985V32.8014L32.7999 47.9999H32V47.2" fill="#FE9FBF" fill-opacity="0.43"/>
<path d="M32.7999 32.0015L32 32.8014V32.0015" fill="#FE9FBF" fill-opacity="0.43"/>
</g>
<g clip-path="url(#clip42_236_10560)">
<path d="M63.1986 32.0015H63.9985V32.8014L48.7999 47.9999H48V47.2" fill="#FE9FBF" fill-opacity="0.43"/>
<path d="M48.7999 32.0015L48 32.8014V32.0015" fill="#FE9FBF" fill-opacity="0.43"/>
</g>
<g clip-path="url(#clip43_236_10560)">
<path d="M79.1986 32.0015H79.9985V32.8014L64.7999 47.9999H64V47.2" fill="#FE9FBF" fill-opacity="0.43"/>
<path d="M64.7999 32.0015L64 32.8014V32.0015" fill="#FE9FBF" fill-opacity="0.43"/>
</g>
<g clip-path="url(#clip44_236_10560)">
<path d="M95.1986 32.0015H95.9985V32.8014L80.7999 47.9999H80V47.2" fill="#FE9FBF" fill-opacity="0.43"/>
<path d="M80.7999 32.0015L80 32.8014V32.0015" fill="#FE9FBF" fill-opacity="0.43"/>
</g>
<g clip-path="url(#clip45_236_10560)">
<path d="M111.199 32.0015H111.998V32.8014L96.7999 47.9999H96V47.2" fill="#FE9FBF" fill-opacity="0.43"/>
<path d="M96.7999 32.0015L96 32.8014V32.0015" fill="#FE9FBF" fill-opacity="0.43"/>
</g>
<g clip-path="url(#clip46_236_10560)">
<path d="M127.199 32.0015H127.998V32.8014L112.8 47.9999H112V47.2" fill="#FE9FBF" fill-opacity="0.43"/>
<path d="M112.8 32.0015L112 32.8014V32.0015" fill="#FE9FBF" fill-opacity="0.43"/>
</g>
<g clip-path="url(#clip47_236_10560)">
<path d="M143.199 32.0015H143.998V32.8014L128.8 47.9999H128V47.2" fill="#FE9FBF" fill-opacity="0.43"/>
<path d="M128.8 32.0015L128 32.8014V32.0015" fill="#FE9FBF" fill-opacity="0.43"/>
</g>
<g clip-path="url(#clip48_236_10560)">
<path d="M159.199 32.0015H159.998V32.8014L144.8 47.9999H144V47.2" fill="#FE9FBF" fill-opacity="0.43"/>
<path d="M144.8 32.0015L144 32.8014V32.0015" fill="#FE9FBF" fill-opacity="0.43"/>
</g>
<g clip-path="url(#clip49_236_10560)">
<path d="M175.199 32.0015H175.998V32.8014L160.8 47.9999H160V47.2" fill="#FE9FBF" fill-opacity="0.43"/>
<path d="M160.8 32.0015L160 32.8014V32.0015" fill="#FE9FBF" fill-opacity="0.43"/>
</g>
<g clip-path="url(#clip50_236_10560)">
<path d="M191.199 32.0015H191.998V32.8014L176.8 47.9999H176V47.2" fill="#FE9FBF" fill-opacity="0.43"/>
<path d="M176.8 32.0015L176 32.8014V32.0015" fill="#FE9FBF" fill-opacity="0.43"/>
</g>
<g clip-path="url(#clip51_236_10560)">
<path d="M207.199 32.0015H207.998V32.8014L192.8 47.9999H192V47.2" fill="#FE9FBF" fill-opacity="0.43"/>
<path d="M192.8 32.0015L192 32.8014V32.0015" fill="#FE9FBF" fill-opacity="0.43"/>
</g>
<g clip-path="url(#clip52_236_10560)">
<path d="M223.199 32.0015H223.998V32.8014L208.8 47.9999H208V47.2" fill="#FE9FBF" fill-opacity="0.43"/>
<path d="M208.8 32.0015L208 32.8014V32.0015" fill="#FE9FBF" fill-opacity="0.43"/>
</g>
<g clip-path="url(#clip53_236_10560)">
<path d="M239.199 32.0015H239.998V32.8014L224.8 47.9999H224V47.2" fill="#FE9FBF" fill-opacity="0.43"/>
<path d="M224.8 32.0015L224 32.8014V32.0015" fill="#FE9FBF" fill-opacity="0.43"/>
</g>
<g clip-path="url(#clip54_236_10560)">
<path d="M255.199 32.0015H255.998V32.8014L240.8 47.9999H240V47.2" fill="#FE9FBF" fill-opacity="0.43"/>
<path d="M240.8 32.0015L240 32.8014V32.0015" fill="#FE9FBF" fill-opacity="0.43"/>
</g>
<g clip-path="url(#clip55_236_10560)">
<path d="M271.199 32.0015H271.998V32.8014L256.8 47.9999H256V47.2" fill="#FE9FBF" fill-opacity="0.43"/>
<path d="M256.8 32.0015L256 32.8014V32.0015" fill="#FE9FBF" fill-opacity="0.43"/>
</g>
<g clip-path="url(#clip56_236_10560)">
<path d="M287.199 32.0015H287.998V32.8014L272.8 47.9999H272V47.2" fill="#FE9FBF" fill-opacity="0.43"/>
<path d="M272.8 32.0015L272 32.8014V32.0015" fill="#FE9FBF" fill-opacity="0.43"/>
</g>
<g clip-path="url(#clip57_236_10560)">
<path d="M303.199 32.0015H303.998V32.8014L288.8 47.9999H288V47.2" fill="#FE9FBF" fill-opacity="0.43"/>
<path d="M288.8 32.0015L288 32.8014V32.0015" fill="#FE9FBF" fill-opacity="0.43"/>
</g>
</g>
<defs>
<clipPath id="clip0_236_10560">
<rect width="300" height="35" fill="white"/>
</clipPath>
<clipPath id="clip1_236_10560">
<rect width="16" height="16" fill="white"/>
</clipPath>
<clipPath id="clip2_236_10560">
<rect width="16" height="16" fill="white" transform="translate(16)"/>
</clipPath>
<clipPath id="clip3_236_10560">
<rect width="16" height="16" fill="white" transform="translate(32)"/>
</clipPath>
<clipPath id="clip4_236_10560">
<rect width="16" height="16" fill="white" transform="translate(48)"/>
</clipPath>
<clipPath id="clip5_236_10560">
<rect width="16" height="16" fill="white" transform="translate(64)"/>
</clipPath>
<clipPath id="clip6_236_10560">
<rect width="16" height="16" fill="white" transform="translate(80)"/>
</clipPath>
<clipPath id="clip7_236_10560">
<rect width="16" height="16" fill="white" transform="translate(96)"/>
</clipPath>
<clipPath id="clip8_236_10560">
<rect width="16" height="16" fill="white" transform="translate(112)"/>
</clipPath>
<clipPath id="clip9_236_10560">
<rect width="16" height="16" fill="white" transform="translate(128)"/>
</clipPath>
<clipPath id="clip10_236_10560">
<rect width="16" height="16" fill="white" transform="translate(144)"/>
</clipPath>
<clipPath id="clip11_236_10560">
<rect width="16" height="16" fill="white" transform="translate(160)"/>
</clipPath>
<clipPath id="clip12_236_10560">
<rect width="16" height="16" fill="white" transform="translate(176)"/>
</clipPath>
<clipPath id="clip13_236_10560">
<rect width="16" height="16" fill="white" transform="translate(192)"/>
</clipPath>
<clipPath id="clip14_236_10560">
<rect width="16" height="16" fill="white" transform="translate(208)"/>
</clipPath>
<clipPath id="clip15_236_10560">
<rect width="16" height="16" fill="white" transform="translate(224)"/>
</clipPath>
<clipPath id="clip16_236_10560">
<rect width="16" height="16" fill="white" transform="translate(240)"/>
</clipPath>
<clipPath id="clip17_236_10560">
<rect width="16" height="16" fill="white" transform="translate(256)"/>
</clipPath>
<clipPath id="clip18_236_10560">
<rect width="16" height="16" fill="white" transform="translate(272)"/>
</clipPath>
<clipPath id="clip19_236_10560">
<rect width="16" height="16" fill="white" transform="translate(288)"/>
</clipPath>
<clipPath id="clip20_236_10560">
<rect width="16" height="16" fill="white" transform="translate(0 16)"/>
</clipPath>
<clipPath id="clip21_236_10560">
<rect width="16" height="16" fill="white" transform="translate(16 16)"/>
</clipPath>
<clipPath id="clip22_236_10560">
<rect width="16" height="16" fill="white" transform="translate(32 16)"/>
</clipPath>
<clipPath id="clip23_236_10560">
<rect width="16" height="16" fill="white" transform="translate(48 16)"/>
</clipPath>
<clipPath id="clip24_236_10560">
<rect width="16" height="16" fill="white" transform="translate(64 16)"/>
</clipPath>
<clipPath id="clip25_236_10560">
<rect width="16" height="16" fill="white" transform="translate(80 16)"/>
</clipPath>
<clipPath id="clip26_236_10560">
<rect width="16" height="16" fill="white" transform="translate(96 16)"/>
</clipPath>
<clipPath id="clip27_236_10560">
<rect width="16" height="16" fill="white" transform="translate(112 16)"/>
</clipPath>
<clipPath id="clip28_236_10560">
<rect width="16" height="16" fill="white" transform="translate(128 16)"/>
</clipPath>
<clipPath id="clip29_236_10560">
<rect width="16" height="16" fill="white" transform="translate(144 16)"/>
</clipPath>
<clipPath id="clip30_236_10560">
<rect width="16" height="16" fill="white" transform="translate(160 16)"/>
</clipPath>
<clipPath id="clip31_236_10560">
<rect width="16" height="16" fill="white" transform="translate(176 16)"/>
</clipPath>
<clipPath id="clip32_236_10560">
<rect width="16" height="16" fill="white" transform="translate(192 16)"/>
</clipPath>
<clipPath id="clip33_236_10560">
<rect width="16" height="16" fill="white" transform="translate(208 16)"/>
</clipPath>
<clipPath id="clip34_236_10560">
<rect width="16" height="16" fill="white" transform="translate(224 16)"/>
</clipPath>
<clipPath id="clip35_236_10560">
<rect width="16" height="16" fill="white" transform="translate(240 16)"/>
</clipPath>
<clipPath id="clip36_236_10560">
<rect width="16" height="16" fill="white" transform="translate(256 16)"/>
</clipPath>
<clipPath id="clip37_236_10560">
<rect width="16" height="16" fill="white" transform="translate(272 16)"/>
</clipPath>
<clipPath id="clip38_236_10560">
<rect width="16" height="16" fill="white" transform="translate(288 16)"/>
</clipPath>
<clipPath id="clip39_236_10560">
<rect width="16" height="16" fill="white" transform="translate(0 32)"/>
</clipPath>
<clipPath id="clip40_236_10560">
<rect width="16" height="16" fill="white" transform="translate(16 32)"/>
</clipPath>
<clipPath id="clip41_236_10560">
<rect width="16" height="16" fill="white" transform="translate(32 32)"/>
</clipPath>
<clipPath id="clip42_236_10560">
<rect width="16" height="16" fill="white" transform="translate(48 32)"/>
</clipPath>
<clipPath id="clip43_236_10560">
<rect width="16" height="16" fill="white" transform="translate(64 32)"/>
</clipPath>
<clipPath id="clip44_236_10560">
<rect width="16" height="16" fill="white" transform="translate(80 32)"/>
</clipPath>
<clipPath id="clip45_236_10560">
<rect width="16" height="16" fill="white" transform="translate(96 32)"/>
</clipPath>
<clipPath id="clip46_236_10560">
<rect width="16" height="16" fill="white" transform="translate(112 32)"/>
</clipPath>
<clipPath id="clip47_236_10560">
<rect width="16" height="16" fill="white" transform="translate(128 32)"/>
</clipPath>
<clipPath id="clip48_236_10560">
<rect width="16" height="16" fill="white" transform="translate(144 32)"/>
</clipPath>
<clipPath id="clip49_236_10560">
<rect width="16" height="16" fill="white" transform="translate(160 32)"/>
</clipPath>
<clipPath id="clip50_236_10560">
<rect width="16" height="16" fill="white" transform="translate(176 32)"/>
</clipPath>
<clipPath id="clip51_236_10560">
<rect width="16" height="16" fill="white" transform="translate(192 32)"/>
</clipPath>
<clipPath id="clip52_236_10560">
<rect width="16" height="16" fill="white" transform="translate(208 32)"/>
</clipPath>
<clipPath id="clip53_236_10560">
<rect width="16" height="16" fill="white" transform="translate(224 32)"/>
</clipPath>
<clipPath id="clip54_236_10560">
<rect width="16" height="16" fill="white" transform="translate(240 32)"/>
</clipPath>
<clipPath id="clip55_236_10560">
<rect width="16" height="16" fill="white" transform="translate(256 32)"/>
</clipPath>
<clipPath id="clip56_236_10560">
<rect width="16" height="16" fill="white" transform="translate(272 32)"/>
</clipPath>
<clipPath id="clip57_236_10560">
<rect width="16" height="16" fill="white" transform="translate(288 32)"/>
</clipPath>
</defs>
</svg>
