<svg width="300" height="35" viewBox="0 0 300 35" fill="none" xmlns="http://www.w3.org/2000/svg">
<rect width="300" height="35" fill="#E5DFDA"/>
<path opacity="0.953" d="M149.999 8C154.963 8 159 12.0018 159 17C159 21.9655 154.963 26 149.999 26C145.037 26 141 21.9655 141 17C141 12.0018 145.037 8 149.999 8Z" fill="#EE6C99"/>
<path opacity="0.95" fill-rule="evenodd" clip-rule="evenodd" d="M150 26C154.971 26 159 21.9706 159 17C159 12.0294 154.971 8 150 8C145.029 8 141 12.0294 141 17C141 21.9706 145.029 26 150 26ZM150 27C155.523 27 160 22.5228 160 17C160 11.4772 155.523 7 150 7C144.477 7 140 11.4772 140 17C140 22.5228 144.477 27 150 27Z" fill="#E72B6C"/>
<g opacity="0.5">
<path fill-rule="evenodd" clip-rule="evenodd" d="M145 15H148V22H145V15ZM146 16H147V18H146V16ZM147 19H146V21H147V19Z" fill="white"/>
<path fill-rule="evenodd" clip-rule="evenodd" d="M155 22H152V15H155V22ZM153 16H154V18H153V16ZM153 19H154V21H153V19Z" fill="white"/>
<path d="M151 19H149V22H151V19Z" fill="white"/>
</g>
<path fill-rule="evenodd" clip-rule="evenodd" d="M153 12H147V22H149V19H151V22H153V12ZM149.5 14V13H150.5V14H151.5V15H150.5V16H149.5V15H148.5V14H149.5Z" fill="white"/>
</svg>
