<svg width="300" height="35" viewBox="0 0 300 35" fill="none" xmlns="http://www.w3.org/2000/svg">
<rect width="300" height="35" fill="#101E21"/>
<path d="M144 14.5C144 13.6716 144.672 13 145.5 13H147.5C148.032 13 148.525 13.166 148.93 13.449C149.202 13.1719 149.581 13 150 13C150.419 13 150.798 13.1719 151.07 13.449C151.475 13.166 151.968 13 152.5 13H154.5C155.328 13 156 13.6716 156 14.5C156 15.1917 155.532 15.7741 154.895 15.9475C154.963 16.1185 155 16.3049 155 16.5C155 17.3284 154.328 18 153.5 18C154.328 18 155 18.6716 155 19.5C155 19.6812 154.968 19.8549 154.909 20.0158C154.904 20.0281 154.9 20.0404 154.895 20.0525C155.532 20.2259 156 20.8083 156 21.5C156 22.3284 155.328 23 154.5 23H152.5C151.968 23 151.475 22.834 151.07 22.551C150.798 22.8281 150.419 23 150 23C149.581 23 149.202 22.8281 148.93 22.551C148.525 22.834 148.032 23 147.5 23H145.5C144.672 23 144 22.3284 144 21.5C144 20.8083 144.468 20.2259 145.105 20.0525C145.1 20.0404 145.096 20.0281 145.091 20.0158C145.032 19.8549 145 19.6812 145 19.5C145 18.6716 145.672 18 146.5 18C145.672 18 145 17.3284 145 16.5C145 16.3049 145.037 16.1185 145.105 15.9475C144.468 15.7741 144 15.1917 144 14.5Z" fill="#EBE7E4" fill-opacity="0.8"/>
<path fill-rule="evenodd" clip-rule="evenodd" d="M145 14.5C145 14.2239 145.224 14 145.5 14H147.5C148.328 14 149 14.6716 149 15.5C149 15.9585 148.794 16.3689 148.47 16.644C148.799 17.0005 149 17.4768 149 18C149 18.5232 148.799 18.9995 148.47 19.356C148.794 19.6311 149 20.0415 149 20.5C149 21.3284 148.328 22 147.5 22H145.5C145.224 22 145 21.7761 145 21.5C145 21.2239 145.224 21 145.5 21H147.5C147.776 21 148 20.7761 148 20.5C148 20.2239 147.776 20 147.5 20H147H146.5C146.224 20 146 19.7761 146 19.5C146 19.2239 146.224 19 146.5 19H147C147.552 19 148 18.5523 148 18C148 17.4477 147.552 17 147 17H146.5C146.224 17 146 16.7761 146 16.5C146 16.2239 146.224 16 146.5 16H147H147.5C147.776 16 148 15.7761 148 15.5C148 15.2239 147.776 15 147.5 15H145.5C145.224 15 145 14.7761 145 14.5ZM155 14.5C155 14.2239 154.776 14 154.5 14H152.5C151.672 14 151 14.6716 151 15.5C151 15.9585 151.206 16.3689 151.53 16.644C151.201 17.0005 151 17.4768 151 18C151 18.5232 151.201 18.9995 151.53 19.356C151.206 19.6311 151 20.0415 151 20.5C151 21.3284 151.672 22 152.5 22H154.5C154.776 22 155 21.7761 155 21.5C155 21.2239 154.776 21 154.5 21H152.5C152.224 21 152 20.7761 152 20.5C152 20.2239 152.224 20 152.5 20H153H153.5C153.776 20 154 19.7761 154 19.5C154 19.2239 153.776 19 153.5 19H153C152.448 19 152 18.5523 152 18C152 17.4477 152.448 17 153 17H153.5C153.776 17 154 16.7761 154 16.5C154 16.2239 153.776 16 153.5 16H153H152.5C152.224 16 152 15.7761 152 15.5C152 15.2239 152.224 15 152.5 15H154.5C154.776 15 155 14.7761 155 14.5ZM150.5 14.5C150.5 14.2239 150.276 14 150 14C149.724 14 149.5 14.2239 149.5 14.5V21.5C149.5 21.7761 149.724 22 150 22C150.276 22 150.5 21.7761 150.5 21.5V14.5Z" fill="#3F3F3F"/>
</svg>
