<svg width="300" height="35" viewBox="0 0 300 35" fill="none" xmlns="http://www.w3.org/2000/svg">
<rect width="300" height="35" fill="#19202E"/>
<path opacity="0.953" d="M149.999 7C155.514 7 160 11.4465 160 17C160 22.5172 155.514 27 149.999 27C144.486 27 140 22.5172 140 17C140 11.4465 144.486 7 149.999 7Z" fill="#505050"/>
<path opacity="0.95" fill-rule="evenodd" clip-rule="evenodd" d="M150 26C154.971 26 159 21.9706 159 17C159 12.0294 154.971 8 150 8C145.029 8 141 12.0294 141 17C141 21.9706 145.029 26 150 26ZM150 27C155.523 27 160 22.5228 160 17C160 11.4772 155.523 7 150 7C144.477 7 140 11.4772 140 17C140 22.5228 144.477 27 150 27Z" fill="#909090"/>
<g opacity="0.5">
<path d="M148.658 12.0258C148.92 12.1131 149.062 12.3963 148.974 12.6582L148.86 13.0001H147.806L148.026 12.342C148.113 12.0801 148.396 11.9385 148.658 12.0258Z" fill="white"/>
<path d="M145.515 19.8747L145.026 21.342C144.938 21.604 145.08 21.8872 145.342 21.9745C145.604 22.0618 145.887 21.9202 145.974 21.6582L146.527 20.0001H146C145.824 20.0001 145.658 19.9546 145.515 19.8747Z" fill="white"/>
<path d="M153.473 20.0001L154.026 21.6582C154.113 21.9202 154.396 22.0618 154.658 21.9745C154.92 21.8872 155.062 21.604 154.974 21.342L154.485 19.8747C154.342 19.9546 154.176 20.0001 154 20.0001H153.473Z" fill="white"/>
<path d="M152.194 13.0001L151.974 12.342C151.887 12.0801 151.604 11.9385 151.342 12.0258C151.08 12.1131 150.938 12.3963 151.026 12.6582L151.14 13.0001H152.194Z" fill="white"/>
</g>
<path fill-rule="evenodd" clip-rule="evenodd" d="M145 13C144.448 13 144 13.4477 144 14V19C144 19.5523 144.448 20 145 20H155C155.552 20 156 19.5523 156 19V14C156 13.4477 155.552 13 155 13H145ZM145 16.5V14H146V16.5C146 16.7761 146.224 17 146.5 17V14H147.5V17C147.776 17 148 16.7761 148 16.5V14H149V16.5C149 17.3284 148.328 18 147.5 18V19H146.5V18C145.672 18 145 17.3284 145 16.5ZM152.5 14C151.119 14 150 15.1193 150 16.5C150 17.3178 150.393 18.0439 151 18.5H150V19H152V18.1646C151.417 17.9587 151 17.4031 151 16.75V16.25C151 15.4216 151.672 14.75 152.5 14.75C153.328 14.75 154 15.4216 154 16.25V16.75C154 17.4031 153.583 17.9587 153 18.1646V19H155V18.5H154C154.607 18.0439 155 17.3178 155 16.5C155 15.1193 153.881 14 152.5 14Z" fill="white"/>
</svg>
