<svg width="300" height="35" viewBox="0 0 300 35" fill="none" xmlns="http://www.w3.org/2000/svg">
<rect width="300" height="35" fill="#E5DFDA"/>
<path opacity="0.953" d="M149.999 7C155.514 7 160 11.4465 160 17C160 22.5172 155.514 27 149.999 27C144.486 27 140 22.5172 140 17C140 11.4465 144.486 7 149.999 7Z" fill="#878787"/>
<path opacity="0.95" fill-rule="evenodd" clip-rule="evenodd" d="M150 26C154.971 26 159 21.9706 159 17C159 12.0294 154.971 8 150 8C145.029 8 141 12.0294 141 17C141 21.9706 145.029 26 150 26ZM150 27C155.523 27 160 22.5228 160 17C160 11.4772 155.523 7 150 7C144.477 7 140 11.4772 140 17C140 22.5228 144.477 27 150 27Z" fill="#404040"/>
<path d="M146.419 21.715C146.303 21.5865 146.295 21.4274 146.277 18.7764C146.261 16.4224 146.244 15.9736 146.168 15.9736C145.655 15.9622 145.745 17.7084 145.745 18.7775C145.568 18.943 145.1 19.0039 144.927 18.6769C144.951 17.3495 144.872 15.8578 145.161 15.1498C145.483 14.6866 146.148 14.4669 146.384 14.5044C146.599 14.6585 147.127 14.9992 148.051 14.4979C148.712 14.5098 151.021 14.3752 151.238 14.7491C151.348 14.9546 151.31 15.2324 151.152 15.3811C150.576 15.5663 149.807 15.5216 148.589 15.5216V18.5161C148.589 21.4477 148.586 21.5142 148.455 21.6808C148.282 21.9011 147.895 21.919 147.711 21.7152C147.444 21.2022 147.776 18.9224 147.426 18.7831C147.14 18.9731 147.367 20.6455 147.142 21.7152C146.974 21.8998 146.586 21.8997 146.419 21.715V21.715ZM149.165 16.1477C149.165 16.1477 150.939 16.2243 151.594 15.9078C151.847 15.6525 151.878 15.3641 151.877 15.0558C151.877 14.6142 151.8 14.0475 151.117 13.9265C148.771 13.9292 148.614 13.9265 148.614 13.9265C148.614 13.9265 148.931 13.4122 148.764 12.7928L148.715 12.6313H154.866V18.9005H149.165V16.1477Z" fill="white"/>
<path d="M147.171 14.2342C147.749 14.2342 148.217 13.7659 148.217 13.1883C148.217 12.6106 147.749 12.1423 147.171 12.1423C146.593 12.1423 146.125 12.6106 146.125 13.1883C146.125 13.7659 146.593 14.2342 147.171 14.2342Z" fill="white"/>
<path fill-rule="evenodd" clip-rule="evenodd" d="M150.616 19.4969L149.496 21.7598H150.256L151.376 19.4969H150.616V19.4969ZM152.413 19.4969L153.556 21.7598H154.319L153.176 19.4969H152.413V19.4969Z" fill="white"/>
</svg>
