<svg width="300" height="35" viewBox="0 0 300 35" fill="none" xmlns="http://www.w3.org/2000/svg">
<path opacity="0.953" d="M149.999 7C155.514 7 160 11.4465 160 17C160 22.5172 155.514 27 149.999 27C144.486 27 140 22.5172 140 17C140 11.4465 144.486 7 149.999 7Z" fill="#878787"/>
<path opacity="0.95" fill-rule="evenodd" clip-rule="evenodd" d="M150 26C154.971 26 159 21.9706 159 17C159 12.0294 154.971 8 150 8C145.029 8 141 12.0294 141 17C141 21.9706 145.029 26 150 26ZM150 27C155.523 27 160 22.5228 160 17C160 11.4772 155.523 7 150 7C144.477 7 140 11.4772 140 17C140 22.5228 144.477 27 150 27Z" fill="#404040"/>
<path opacity="0.5" d="M145 13V20.5C145 20.7761 145.223 21 145.499 21H148.5C149.5 21 150 21.5 150 21.5C150 21.5 150.5 21 151.5 21H154.501C154.777 21 155 20.7761 155 20.5L155 13C155.552 13 156 13.4477 156 14V21C156 21.5523 155.552 22 155 22L145 22C144.448 22 144 21.5523 144 21V14C144 13.4477 144.448 13 145 13Z" fill="white"/>
<path fill-rule="evenodd" clip-rule="evenodd" d="M150 12.5C150 12.5 150.5 12 151.5 12H154.5C154.776 12 155 12.2239 155 12.5V20.5C155 20.7761 154.777 21 154.501 21H151.5C150.5 21 150 21.5 150 21.5C150 21.5 149.5 21 148.5 21H145.499C145.223 21 145 20.7761 145 20.5V12.5C145 12.2239 145.224 12 145.5 12H148.5C149.5 12 150 12.5 150 12.5ZM146 13H149V14H146V13ZM146 15H149V16H146V15ZM149 17H146V18H149V17ZM151 13H154V14H151V13ZM151 15H154V16H151V15ZM154 17H151V18H154V17Z" fill="white"/>
</svg>
