<svg width="300" height="35" viewBox="0 0 300 35" fill="none" xmlns="http://www.w3.org/2000/svg">
<rect width="300" height="35" fill="#33C458" fill-opacity="0.23"/>
<path opacity="0.953" d="M149.999 9C154.963 9 159 13.0018 159 18C159 22.9655 154.963 27 149.999 27C145.037 27 141 22.9655 141 18C141 13.0018 145.037 9 149.999 9Z" fill="#673A1C"/>
<path opacity="0.95" fill-rule="evenodd" clip-rule="evenodd" d="M150 27C154.971 27 159 22.9706 159 18C159 13.0294 154.971 9 150 9C145.029 9 141 13.0294 141 18C141 22.9706 145.029 27 150 27ZM150 28C155.523 28 160 23.5228 160 18C160 12.4772 155.523 8 150 8C144.477 8 140 12.4772 140 18C140 23.5228 144.477 28 150 28Z" fill="#9F5A2B"/>
<path fill-rule="evenodd" clip-rule="evenodd" d="M150.955 15.4978L150.084 15.4187L150.329 16.7649L150.407 16.7093L152.757 19.9999H154V20.9999H155V21.9999H145V20.9999H146L146 15.0474L145.455 14.9978L145.545 14.002L151.045 14.502L150.955 15.4978ZM147 19.9999H148V15.2292L147 15.1383L147 19.9999ZM149 19.9999H149.901L149.051 15.3248L149 15.3201V19.9999ZM150.917 19.9999H151.528L150.709 18.8522L150.917 19.9999Z" fill="white"/>
</svg>
