<svg width="300" height="35" viewBox="0 0 300 35" fill="none" xmlns="http://www.w3.org/2000/svg">
<rect width="300" height="35" fill="#D9D5D2"/>
<path opacity="0.8" fill-rule="evenodd" clip-rule="evenodd" d="M148.073 11.6775C148.226 11.2996 148.592 11.0522 149 11.0522H152C152.337 11.0522 152.652 11.2221 152.836 11.504C153.021 11.786 153.051 12.1421 152.917 12.4512L152.026 14.5H153C153.381 14.5 153.729 14.7165 153.897 15.0582C154.065 15.4 154.025 15.8077 153.793 16.1097L148.793 22.6097C148.488 23.0055 147.939 23.116 147.505 22.8688C147.071 22.6215 146.886 22.0922 147.072 21.6286L148.523 18H147C146.668 18 146.357 17.8348 146.171 17.5591C145.985 17.2835 145.948 16.9335 146.073 16.6252L148.073 11.6775Z" fill="#EBE7E4"/>
<path d="M149 12.0522L147 17H150L148 22L153 15.5H150.5L152 12.0522H149Z" fill="#3F3F3F"/>
</svg>
