<svg width="300" height="35" viewBox="0 0 300 35" fill="none" xmlns="http://www.w3.org/2000/svg">
<rect width="300" height="35" fill="#3B3B3B"/>
<path opacity="0.953" d="M149.999 8C154.963 8 159 12.0018 159 17C159 21.9655 154.963 26 149.999 26C145.037 26 141 21.9655 141 17C141 12.0018 145.037 8 149.999 8Z" fill="#673A1C"/>
<path opacity="0.95" fill-rule="evenodd" clip-rule="evenodd" d="M150 26C154.971 26 159 21.9706 159 17C159 12.0294 154.971 8 150 8C145.029 8 141 12.0294 141 17C141 21.9706 145.029 26 150 26ZM150 27C155.523 27 160 22.5228 160 17C160 11.4772 155.523 7 150 7C144.477 7 140 11.4772 140 17C140 22.5228 144.477 27 150 27Z" fill="#9F5A2B"/>
<path fill-rule="evenodd" clip-rule="evenodd" d="M154 13H146V21L148 21L154 21L154 13ZM148 21L147 21L147 20L148 20L148 21ZM152 14L153 14V15L152 15V14ZM152 16H153L153 17H152V16ZM153 18H152V19H153V18ZM152 20H153L153 21H152V20ZM148 14L147 14L147 15L148 15L148 14ZM148 16H147L147 17H148L148 16ZM147 18L148 18V19L147 19L147 18Z" fill="white"/>
</svg>
