<svg width="300" height="35" viewBox="0 0 300 35" fill="none" xmlns="http://www.w3.org/2000/svg">
<rect width="300" height="35" fill="#121926"/>
<path opacity="0.953" d="M149.999 7C155.514 7 160 11.4465 160 17C160 22.5172 155.514 27 149.999 27C144.486 27 140 22.5172 140 17C140 11.4465 144.486 7 149.999 7Z" fill="#CECECE"/>
<path opacity="0.95" fill-rule="evenodd" clip-rule="evenodd" d="M150 26C154.971 26 159 21.9706 159 17C159 12.0294 154.971 8 150 8C145.029 8 141 12.0294 141 17C141 21.9706 145.029 26 150 26ZM150 27C155.523 27 160 22.5228 160 17C160 11.4772 155.523 7 150 7C144.477 7 140 11.4772 140 17C140 22.5228 144.477 27 150 27Z" fill="#E8E8E8"/>
<path d="M149.5 14C150.052 14 150.5 13.5523 150.5 13C150.5 12.4477 150.052 12 149.5 12C148.948 12 148.5 12.4477 148.5 13C148.5 13.5523 148.948 14 149.5 14Z" fill="#333333"/>
<path fill-rule="evenodd" clip-rule="evenodd" d="M148.024 21.6526C147.965 21.4702 148.017 21.2729 148.151 21.1422L150.392 18.9013L149.626 17.3692C149.561 17.2398 149.511 17.1037 149.475 16.9634L149.166 15.724L148.121 15.9851C147.926 16.0339 147.721 15.961 147.6 15.8L146.1 13.8C145.934 13.5791 145.979 13.2657 146.2 13.1C146.421 12.9343 146.734 12.9791 146.9 13.2L148.201 14.9344C148.201 14.9344 149.288 14.6473 149.644 14.5737C150 14.5 150.006 14.5 150.191 14.5C150.57 14.5 150.916 14.714 151.085 15.0528L151.415 15.7129C151.447 15.7763 151.474 15.842 151.497 15.9093L152.241 18.1412C152.449 18.766 152.225 19.4534 151.69 19.8362L150.06 21H152.5C152.776 21 153 21.2239 153 21.5C153 21.7762 152.776 22 152.5 22H148.5C148.283 22 148.09 21.8596 148.024 21.6526Z" fill="#333333"/>
</svg>
