<svg width="300" height="35" viewBox="0 0 300 35" fill="none" xmlns="http://www.w3.org/2000/svg">
<rect width="300" height="35" fill="#27A778" fill-opacity="0.23"/>
<rect x="1" y="1" width="298" height="33" stroke="#7E6E58" stroke-opacity="0.4" stroke-width="2" stroke-dasharray="10 3"/>
<path opacity="0.953" d="M149.999 9C154.963 9 159 13.0018 159 18C159 22.9655 154.963 27 149.999 27C145.037 27 141 22.9655 141 18C141 13.0018 145.037 9 149.999 9Z" fill="#673A1C"/>
<path opacity="0.95" fill-rule="evenodd" clip-rule="evenodd" d="M150 27C154.971 27 159 22.9706 159 18C159 13.0294 154.971 9 150 9C145.029 9 141 13.0294 141 18C141 22.9706 145.029 27 150 27ZM150 28C155.523 28 160 23.5228 160 18C160 12.4772 155.523 8 150 8C144.477 8 140 12.4772 140 18C140 23.5228 144.477 28 150 28Z" fill="#9F5A2B"/>
<path fill-rule="evenodd" clip-rule="evenodd" d="M150.732 13L154.196 15C153.92 15.4783 153.308 15.6422 152.83 15.366L152.33 16.2321C152.319 16.4221 152.325 16.5969 152.344 16.7588L153.059 16.2869C153.449 16.029 153.952 16.0139 154.358 16.248C154.949 16.5893 155.152 17.3453 154.81 17.9365L153.428 20.3301C153.173 20.7729 152.896 21.1364 152.612 21.4347C152.383 21.4781 152.149 21.5 151.915 21.5C151.438 21.5 150.965 21.4089 150.522 21.2317L149.413 20.7881C148.937 20.5978 148.429 20.5 147.917 20.5C147.122 20.5 146.344 20.7354 145.683 21.1765L145.317 21.4204L145.299 21.4103C145.06 21.2722 144.978 20.9664 145.116 20.7272C145.254 20.4881 145.56 20.4062 145.799 20.5442L146.232 20.7942C146.232 20.7942 145 18.9282 146.5 16.3301L147.882 13.9365C148.223 13.3453 148.979 13.1427 149.571 13.4841C149.976 13.7182 150.214 14.1612 150.186 14.6286L150.135 15.4835C150.285 15.4194 150.439 15.337 150.598 15.2321L151.098 14.366C150.62 14.0899 150.456 13.4783 150.732 13ZM149.121 15.6856L149.188 14.5687C149.193 14.4794 149.148 14.3948 149.071 14.3501C148.958 14.2849 148.813 14.3236 148.748 14.4365L148.091 15.5752C148.171 15.5855 148.252 15.5976 148.335 15.6099C148.582 15.6463 148.843 15.6849 149.121 15.6856ZM153.287 18.5752L153.944 17.4365C154.009 17.3236 153.971 17.1792 153.858 17.114C153.78 17.0693 153.684 17.0722 153.61 17.1215L152.676 17.738C152.816 17.9786 152.98 18.1854 153.134 18.3806C153.187 18.4465 153.238 18.5111 153.287 18.5752Z" fill="white"/>
<path d="M146.515 22.4246C146.93 22.1477 147.418 22 147.917 22C148.239 22 148.557 22.0614 148.856 22.1808L149.965 22.6244C150.585 22.8725 151.247 23 151.915 23C152.344 23 152.772 22.9473 153.189 22.8432L154.621 22.4851C154.889 22.4181 155.052 22.1466 154.985 21.8787C154.918 21.6108 154.647 21.448 154.379 21.5149L152.946 21.8731C152.609 21.9574 152.263 22 151.915 22C151.374 22 150.838 21.8968 150.336 21.6959L149.227 21.2523C148.81 21.0856 148.366 21 147.917 21C147.22 21 146.539 21.2062 145.96 21.5925L145.223 22.084C144.993 22.2372 144.931 22.5476 145.084 22.7774C145.237 23.0071 145.548 23.0692 145.777 22.916L146.515 22.4246Z" fill="white"/>
</svg>
