<svg width="300" height="35" viewBox="0 0 300 35" fill="none" xmlns="http://www.w3.org/2000/svg">
<rect width="300" height="35" fill="#DDBF92"/>
<path opacity="0.953" d="M149.999 7C155.514 7 160 11.4465 160 17C160 22.5172 155.514 27 149.999 27C144.486 27 140 22.5172 140 17C140 11.4465 144.486 7 149.999 7V7Z" fill="#878787"/>
<path opacity="0.95" fill-rule="evenodd" clip-rule="evenodd" d="M150 26C154.971 26 159 21.9706 159 17C159 12.0294 154.971 8 150 8C145.029 8 141 12.0294 141 17C141 21.9706 145.029 26 150 26ZM150 27C155.523 27 160 22.5228 160 17C160 11.4772 155.523 7 150 7C144.477 7 140 11.4772 140 17C140 22.5228 144.477 27 150 27Z" fill="#404040"/>
<mask id="path-4-outside-1_218_7903" maskUnits="userSpaceOnUse" x="145" y="14" width="10" height="8" fill="black">
<rect fill="white" x="145" y="14" width="10" height="8"/>
<path fill-rule="evenodd" clip-rule="evenodd" d="M154 14V21H146V14"/>
</mask>
<path d="M154 21V22H155V21H154ZM146 21H145V22H146V21ZM153 14V21H155V14H153ZM154 20H146V22H154V20ZM147 21V14H145V21H147Z" fill="white" mask="url(#path-4-outside-1_218_7903)"/>
<path fill-rule="evenodd" clip-rule="evenodd" d="M145 13V14H155V13L150 12L145 13Z" fill="white"/>
<path d="M152.084 14.9167L152.01 15.4095C152.031 15.4318 152.053 15.4558 152.075 15.4806C152.112 15.363 152.173 15.2352 152.27 15.1296C152.299 15.0981 152.31 15.0535 152.297 15.0124C152.285 14.9712 152.251 14.94 152.209 14.93C152.171 14.9207 152.131 14.9161 152.091 14.9161C152.089 14.9161 152.086 14.9167 152.084 14.9167L152.084 14.9167Z" fill="white" fill-opacity="0.814516"/>
<path d="M147.829 18.0821C147.829 16.2134 149.281 15.2913 150.824 15.186C150.864 15.0868 150.931 14.9343 151.066 14.7754C150.965 14.7107 150.919 14.7091 150.9 14.7091C150.895 14.7091 150.89 14.7094 150.885 14.7103C150.793 14.7217 150.726 14.7983 150.661 14.8721C150.633 14.9037 150.584 14.9602 150.557 14.9747C150.532 14.9681 150.479 14.9319 150.446 14.9095C150.352 14.8453 150.235 14.7654 150.103 14.7962C149.992 14.8183 149.926 14.9229 149.861 15.0241C149.835 15.0645 149.789 15.1368 149.763 15.1567C149.735 15.1485 149.68 15.1155 149.646 15.095C149.542 15.0332 149.435 14.9691 149.326 15.0056C149.212 15.0436 149.174 15.1705 149.139 15.2826C149.128 15.3199 149.11 15.3788 149.095 15.4052C149.064 15.4005 149.004 15.3748 148.967 15.3585C148.858 15.3115 148.734 15.2583 148.622 15.3143C148.504 15.3732 148.509 15.5141 148.513 15.6272C148.514 15.6607 148.515 15.7135 148.511 15.7399C148.481 15.7535 148.431 15.7609 148.383 15.7682C148.285 15.7829 148.174 15.7996 148.09 15.8747C148.005 15.9472 148.005 16.0586 148.005 16.1568C148.005 16.196 148.005 16.269 147.994 16.2849C147.977 16.2983 147.909 16.3071 147.868 16.3123C147.766 16.3252 147.64 16.3412 147.576 16.4381C147.499 16.5397 147.547 16.6672 147.586 16.7694C147.601 16.8095 147.628 16.8839 147.626 16.9012C147.611 16.9195 147.538 16.9459 147.493 16.9617C147.38 17.0021 147.239 17.0527 147.193 17.1906C147.166 17.2853 147.224 17.3762 147.28 17.4641C147.295 17.488 147.319 17.5244 147.33 17.5481C147.312 17.5637 147.274 17.5847 147.249 17.5983C147.168 17.6434 147.057 17.7052 147.033 17.8354C147.019 17.9295 147.087 18.0107 147.152 18.0891C147.173 18.1143 147.205 18.1533 147.22 18.1779C147.204 18.193 147.176 18.2142 147.157 18.2281C147.084 18.2826 146.983 18.357 146.983 18.4812C146.983 18.5658 147.043 18.6406 147.106 18.7199C147.13 18.749 147.168 18.7967 147.177 18.8179C147.179 18.8394 147.161 18.8623 147.124 18.9061C147.076 18.9632 147.009 19.0413 147.02 19.1595C147.034 19.2814 147.153 19.3421 147.249 19.3909C147.278 19.4057 147.325 19.4296 147.342 19.4441C147.349 19.4618 147.36 19.4776 147.374 19.4904C147.386 19.5006 147.635 19.7144 148.207 19.7117C147.949 19.328 147.829 18.514 147.829 18.0822L147.829 18.0821Z" fill="white" fill-opacity="0.814516"/>
<path d="M152.738 17.3061C152.524 16.3847 152.139 15.9291 151.993 15.7564L151.972 15.7319C151.89 15.6337 151.804 15.5418 151.754 15.4898L151.854 14.8239C151.859 14.7844 151.846 14.7445 151.816 14.7174C151.787 14.6902 151.746 14.6794 151.707 14.6881C151.692 14.6916 151.404 14.7665 151.251 14.9175C151.097 15.0685 151.019 15.2684 150.989 15.4199C149.503 15.4682 148.071 16.305 148.071 18.0822C148.071 18.5417 148.204 19.279 148.409 19.5813C148.409 19.5813 148.605 19.9742 149.542 20.4985C150.179 20.711 150.817 20.7306 151.027 20.7306C151.065 20.7306 151.09 20.73 151.097 20.7295C151.148 20.7277 151.193 20.6943 151.209 20.6456C151.213 20.6311 151.323 20.2848 151.323 19.9075C151.323 19.5148 151.166 19.262 151.013 19.0176C150.85 18.7569 150.682 18.4871 150.682 18.0093C150.682 17.7645 150.769 17.5819 150.942 17.4647C151.191 17.9316 151.663 18.0456 151.859 18.0731C151.899 18.1904 151.99 18.3914 152.154 18.4567C152.208 18.478 152.286 18.4917 152.38 18.4563C152.417 18.477 152.461 18.492 152.505 18.487C152.634 18.4853 152.764 18.393 152.854 18.2395C152.863 18.2252 152.873 18.2098 152.884 18.1931C152.983 18.0443 153.186 17.7378 152.738 17.3058L152.738 17.3061ZM151.758 16.8611C151.658 16.8611 151.577 16.78 151.577 16.6798C151.577 16.5796 151.658 16.4984 151.758 16.4984C151.858 16.4984 151.94 16.5796 151.94 16.6798C151.94 16.78 151.858 16.8611 151.758 16.8611Z" fill="white"/>
</svg>
