<svg width="300" height="35" viewBox="0 0 300 35" fill="none" xmlns="http://www.w3.org/2000/svg">
<rect width="300" height="35" fill="#EBE7E4"/>
<path opacity="0.949" d="M149.999 8C154.963 8 159 12.0018 159 17C159 21.9655 154.963 26 149.999 26C145.037 26 141 21.9655 141 17C141 12.0018 145.037 8 149.999 8Z" fill="#45ABE9"/>
<path opacity="0.95" fill-rule="evenodd" clip-rule="evenodd" d="M150 26C154.971 26 159 21.9706 159 17C159 12.0294 154.971 8 150 8C145.029 8 141 12.0294 141 17C141 21.9706 145.029 26 150 26ZM150 27C155.523 27 160 22.5228 160 17C160 11.4772 155.523 7 150 7C144.477 7 140 11.4772 140 17C140 22.5228 144.477 27 150 27Z" fill="#1578B3"/>
<path fill-rule="evenodd" clip-rule="evenodd" d="M145 12V16H146V15H147C147.552 15 148 14.5523 148 14V13C148 12.4477 147.552 12 147 12H145ZM146 14H147V13H146V14Z" fill="white"/>
<path fill-rule="evenodd" clip-rule="evenodd" d="M150 16.5C150 16.2239 150.224 16 150.5 16H151.5C151.776 16 152 16.2239 152 16.5V18.382L152.315 19.0113C152.375 19.0039 152.437 19 152.5 19C153.328 19 154 19.6716 154 20.5C154 21.3284 153.328 22 152.5 22C151.847 22 151.291 21.5826 151.085 21H148.915C148.709 21.5826 148.153 22 147.5 22C146.672 22 146 21.3284 146 20.5C146 19.6716 146.672 19 147.5 19C147.563 19 147.625 19.0039 147.685 19.0113L147.892 18.5987L147.146 17.8536C147.003 17.7106 146.961 17.4955 147.038 17.3087C147.115 17.1218 147.298 17 147.5 17H148.5C148.776 17 149 17.2239 149 17.5C149 17.7144 148.865 17.8973 148.675 17.9683L148.707 18H151V17H150.5C150.224 17 150 16.7761 150 16.5ZM148.58 19.4587C148.727 19.6115 148.842 19.7956 148.915 20H151.085C151.158 19.7956 151.273 19.6115 151.42 19.4587L151.191 19H148.809L148.58 19.4587ZM147.5 21C147.776 21 148 20.7761 148 20.5C148 20.2239 147.776 20 147.5 20C147.224 20 147 20.2239 147 20.5C147 20.7761 147.224 21 147.5 21ZM152.5 21C152.776 21 153 20.7761 153 20.5C153 20.2239 152.776 20 152.5 20C152.224 20 152 20.2239 152 20.5C152 20.7761 152.224 21 152.5 21Z" fill="white"/>
</svg>
