<svg width="300" height="35" viewBox="0 0 300 35" fill="none" xmlns="http://www.w3.org/2000/svg">
<rect width="300" height="35" fill="#B6FDB6" fill-opacity="0.69"/>
<path opacity="0.8" d="M144.638 18.2678C144.549 18.4946 144.5 18.7416 144.5 19V21H145.268C145.613 21.5978 146.26 22 147 22C147.74 22 148.387 21.5978 148.732 21L152.268 21C152.613 21.5978 153.26 22 154 22C154.74 22 155.387 21.5978 155.732 21H157V17.1807L154.738 14H151.535L150.129 11.8906C149.758 11.3342 149.134 11 148.465 11H148.299C147.909 11 147.527 11.114 147.201 11.328L143.903 13.493C143.339 13.8628 143 14.4913 143 15.1651V15.3359C143 15.714 143.107 16.0843 143.309 16.404L144.066 17.6021C144.225 17.8543 144.419 18.0777 144.638 18.2678Z" fill="#EBE7E4"/>
<path opacity="0.5" fill-rule="evenodd" clip-rule="evenodd" d="M150.553 19.2236L148.553 15.2236L149.447 14.7764L151.447 18.7764L150.553 19.2236Z" fill="#7FB837"/>
<path d="M144.155 15.8699C144.054 15.7101 144 15.5249 144 15.3359V15.1651C144 14.8282 144.17 14.5139 144.451 14.3291L147.75 12.164C147.913 12.057 148.104 12 148.299 12H148.465C148.799 12 149.111 12.1671 149.297 12.4453L150.832 14.7481C150.942 14.9124 151 15.1054 151 15.3028V15.4648C151 15.7992 150.833 16.1114 150.555 16.2969L148 18L146.602 18C145.916 18 145.278 17.6482 144.911 17.0681L144.155 15.8699Z" fill="#7FB837"/>
<path fill-rule="evenodd" clip-rule="evenodd" d="M152 18L148 18L146.5 18C145.948 18 145.5 18.4477 145.5 19V20H146C146 20.5523 146.448 21 147 21C147.552 21 148 20.5523 148 20L153 20C153 20.5523 153.448 21 154 21C154.552 21 155 20.5523 155 20H156V17.5L154.222 15H152L152 18ZM153 16H153.706L154.773 17.5H153V16Z" fill="#7FB837"/>
</svg>
