<svg width="300" height="35" viewBox="0 0 300 35" fill="none" xmlns="http://www.w3.org/2000/svg">
<rect width="300" height="35" fill="#D9D5D2"/>
<path d="M144 13.5C144 12.6716 144.672 12 145.5 12H147.5C148.032 12 148.525 12.166 148.93 12.449C149.202 12.1719 149.581 12 150 12C150.419 12 150.798 12.1719 151.07 12.449C151.475 12.166 151.968 12 152.5 12H154.5C155.328 12 156 12.6716 156 13.5C156 14.1917 155.532 14.7741 154.895 14.9475C154.963 15.1185 155 15.3049 155 15.5C155 16.3284 154.328 17 153.5 17C154.328 17 155 17.6716 155 18.5C155 18.6812 154.968 18.8549 154.909 19.0158C154.904 19.0281 154.9 19.0404 154.895 19.0525C155.532 19.2259 156 19.8083 156 20.5C156 21.3284 155.328 22 154.5 22H152.5C151.968 22 151.475 21.834 151.07 21.551C150.798 21.8281 150.419 22 150 22C149.581 22 149.202 21.8281 148.93 21.551C148.525 21.834 148.032 22 147.5 22H145.5C144.672 22 144 21.3284 144 20.5C144 19.8083 144.468 19.2259 145.105 19.0525C145.1 19.0404 145.096 19.0281 145.091 19.0158C145.032 18.8549 145 18.6812 145 18.5C145 17.6716 145.672 17 146.5 17C145.672 17 145 16.3284 145 15.5C145 15.3049 145.037 15.1185 145.105 14.9475C144.468 14.7741 144 14.1917 144 13.5Z" fill="#EBE7E4" fill-opacity="0.8"/>
<path fill-rule="evenodd" clip-rule="evenodd" d="M145 13.5C145 13.2239 145.224 13 145.5 13H147.5C148.328 13 149 13.6716 149 14.5C149 14.9585 148.794 15.3689 148.47 15.644C148.799 16.0005 149 16.4768 149 17C149 17.5232 148.799 17.9995 148.47 18.356C148.794 18.6311 149 19.0415 149 19.5C149 20.3284 148.328 21 147.5 21H145.5C145.224 21 145 20.7761 145 20.5C145 20.2239 145.224 20 145.5 20H147.5C147.776 20 148 19.7761 148 19.5C148 19.2239 147.776 19 147.5 19H147H146.5C146.224 19 146 18.7761 146 18.5C146 18.2239 146.224 18 146.5 18H147C147.552 18 148 17.5523 148 17C148 16.4477 147.552 16 147 16H146.5C146.224 16 146 15.7761 146 15.5C146 15.2239 146.224 15 146.5 15H147H147.5C147.776 15 148 14.7761 148 14.5C148 14.2239 147.776 14 147.5 14H145.5C145.224 14 145 13.7761 145 13.5ZM155 13.5C155 13.2239 154.776 13 154.5 13H152.5C151.672 13 151 13.6716 151 14.5C151 14.9585 151.206 15.3689 151.53 15.644C151.201 16.0005 151 16.4768 151 17C151 17.5232 151.201 17.9995 151.53 18.356C151.206 18.6311 151 19.0415 151 19.5C151 20.3284 151.672 21 152.5 21H154.5C154.776 21 155 20.7761 155 20.5C155 20.2239 154.776 20 154.5 20H152.5C152.224 20 152 19.7761 152 19.5C152 19.2239 152.224 19 152.5 19H153H153.5C153.776 19 154 18.7761 154 18.5C154 18.2239 153.776 18 153.5 18H153C152.448 18 152 17.5523 152 17C152 16.4477 152.448 16 153 16H153.5C153.776 16 154 15.7761 154 15.5C154 15.2239 153.776 15 153.5 15H153H152.5C152.224 15 152 14.7761 152 14.5C152 14.2239 152.224 14 152.5 14H154.5C154.776 14 155 13.7761 155 13.5ZM150.5 13.5C150.5 13.2239 150.276 13 150 13C149.724 13 149.5 13.2239 149.5 13.5V20.5C149.5 20.7761 149.724 21 150 21C150.276 21 150.5 20.7761 150.5 20.5V13.5Z" fill="#3F3F3F"/>
</svg>
