<svg width="300" height="35" viewBox="0 0 300 35" fill="none" xmlns="http://www.w3.org/2000/svg">
<g clip-path="url(#clip0_214_6043)">
<rect width="300" height="35" fill="#87CC70"/>
<path d="M25 3H23V5H21V7H23V11H25V7H27V5H25V3Z" fill="#67BF4C"/>
<path d="M19 13C19 12.4477 19.4477 12 20 12H28C28.5523 12 29 12.4477 29 13V14H19V13Z" fill="#67BF4C"/>
<path d="M9 18H7V20H5V22H7V26H9V22H11V20H9V18Z" fill="#67BF4C"/>
<path d="M3 28C3 27.4477 3.44772 27 4 27H12C12.5523 27 13 27.4477 13 28V29H3V28Z" fill="#67BF4C"/>
<path d="M57 3H55V5H53V7H55V11H57V7H59V5H57V3Z" fill="#67BF4C"/>
<path d="M51 13C51 12.4477 51.4477 12 52 12H60C60.5523 12 61 12.4477 61 13V14H51V13Z" fill="#67BF4C"/>
<path d="M41 18H39V20H37V22H39V26H41V22H43V20H41V18Z" fill="#67BF4C"/>
<path d="M35 28C35 27.4477 35.4477 27 36 27H44C44.5523 27 45 27.4477 45 28V29H35V28Z" fill="#67BF4C"/>
<path d="M89 3H87V5H85V7H87V11H89V7H91V5H89V3Z" fill="#67BF4C"/>
<path d="M83 13C83 12.4477 83.4477 12 84 12H92C92.5523 12 93 12.4477 93 13V14H83V13Z" fill="#67BF4C"/>
<path d="M73 18H71V20H69V22H71V26H73V22H75V20H73V18Z" fill="#67BF4C"/>
<path d="M67 28C67 27.4477 67.4477 27 68 27H76C76.5523 27 77 27.4477 77 28V29H67V28Z" fill="#67BF4C"/>
<path d="M121 3H119V5H117V7H119V11H121V7H123V5H121V3Z" fill="#67BF4C"/>
<path d="M115 13C115 12.4477 115.448 12 116 12H124C124.552 12 125 12.4477 125 13V14H115V13Z" fill="#67BF4C"/>
<path d="M105 18H103V20H101V22H103V26H105V22H107V20H105V18Z" fill="#67BF4C"/>
<path d="M99 28C99 27.4477 99.4477 27 100 27H108C108.552 27 109 27.4477 109 28V29H99V28Z" fill="#67BF4C"/>
<path d="M153 3H151V5H149V7H151V11H153V7H155V5H153V3Z" fill="#67BF4C"/>
<path d="M147 13C147 12.4477 147.448 12 148 12H156C156.552 12 157 12.4477 157 13V14H147V13Z" fill="#67BF4C"/>
<path d="M137 18H135V20H133V22H135V26H137V22H139V20H137V18Z" fill="#67BF4C"/>
<path d="M131 28C131 27.4477 131.448 27 132 27H140C140.552 27 141 27.4477 141 28V29H131V28Z" fill="#67BF4C"/>
<path d="M185 3H183V5H181V7H183V11H185V7H187V5H185V3Z" fill="#67BF4C"/>
<path d="M179 13C179 12.4477 179.448 12 180 12H188C188.552 12 189 12.4477 189 13V14H179V13Z" fill="#67BF4C"/>
<path d="M169 18H167V20H165V22H167V26H169V22H171V20H169V18Z" fill="#67BF4C"/>
<path d="M163 28C163 27.4477 163.448 27 164 27H172C172.552 27 173 27.4477 173 28V29H163V28Z" fill="#67BF4C"/>
<path d="M217 3H215V5H213V7H215V11H217V7H219V5H217V3Z" fill="#67BF4C"/>
<path d="M211 13C211 12.4477 211.448 12 212 12H220C220.552 12 221 12.4477 221 13V14H211V13Z" fill="#67BF4C"/>
<path d="M201 18H199V20H197V22H199V26H201V22H203V20H201V18Z" fill="#67BF4C"/>
<path d="M195 28C195 27.4477 195.448 27 196 27H204C204.552 27 205 27.4477 205 28V29H195V28Z" fill="#67BF4C"/>
<path d="M249 3H247V5H245V7H247V11H249V7H251V5H249V3Z" fill="#67BF4C"/>
<path d="M243 13C243 12.4477 243.448 12 244 12H252C252.552 12 253 12.4477 253 13V14H243V13Z" fill="#67BF4C"/>
<path d="M233 18H231V20H229V22H231V26H233V22H235V20H233V18Z" fill="#67BF4C"/>
<path d="M227 28C227 27.4477 227.448 27 228 27H236C236.552 27 237 27.4477 237 28V29H227V28Z" fill="#67BF4C"/>
<path d="M281 3H279V5H277V7H279V11H281V7H283V5H281V3Z" fill="#67BF4C"/>
<path d="M275 13C275 12.4477 275.448 12 276 12H284C284.552 12 285 12.4477 285 13V14H275V13Z" fill="#67BF4C"/>
<path d="M265 18H263V20H261V22H263V26H265V22H267V20H265V18Z" fill="#67BF4C"/>
<path d="M259 28C259 27.4477 259.448 27 260 27H268C268.552 27 269 27.4477 269 28V29H259V28Z" fill="#67BF4C"/>
<path d="M313 3H311V5H309V7H311V11H313V7H315V5H313V3Z" fill="#67BF4C"/>
<path d="M307 13C307 12.4477 307.448 12 308 12H316C316.552 12 317 12.4477 317 13V14H307V13Z" fill="#67BF4C"/>
<path d="M297 18H295V20H293V22H295V26H297V22H299V20H297V18Z" fill="#67BF4C"/>
<path d="M291 28C291 27.4477 291.448 27 292 27H300C300.552 27 301 27.4477 301 28V29H291V28Z" fill="#67BF4C"/>
</g>
<defs>
<clipPath id="clip0_214_6043">
<rect width="300" height="35" fill="white"/>
</clipPath>
</defs>
</svg>
