<svg width="300" height="35" viewBox="0 0 300 35" fill="none" xmlns="http://www.w3.org/2000/svg">
<path opacity="0.953" d="M149.999 7C155.514 7 160 11.4465 160 17C160 22.5172 155.514 27 149.999 27C144.486 27 140 22.5172 140 17C140 11.4465 144.486 7 149.999 7Z" fill="#2E702E"/>
<path opacity="0.95" fill-rule="evenodd" clip-rule="evenodd" d="M150 26C154.971 26 159 21.9706 159 17C159 12.0294 154.971 8 150 8C145.029 8 141 12.0294 141 17C141 21.9706 145.029 26 150 26ZM150 27C155.523 27 160 22.5228 160 17C160 11.4772 155.523 7 150 7C144.477 7 140 11.4772 140 17C140 22.5228 144.477 27 150 27Z" fill="#44A544"/>
<path d="M148.662 18.4654L148.892 19.9241C148.925 20.1672 149.071 20.3089 149.33 20.3492C149.508 20.3737 149.664 20.3231 149.798 20.1975C149.932 20.0719 149.986 19.9199 149.962 19.7417L149.682 17.9795C149.65 17.7931 149.549 17.6634 149.379 17.5904L148.115 17.0192L148.917 15.6216L149.318 16.132C149.35 16.1807 149.399 16.2172 149.464 16.2414L150.983 16.6791C151.023 16.6952 151.06 16.7032 151.092 16.7032C151.206 16.7032 151.303 16.6586 151.384 16.5695C151.465 16.4804 151.506 16.379 151.506 16.2655C151.506 16.063 151.408 15.9294 151.214 15.8646L149.901 15.4759L148.905 14.2723C148.767 14.1103 148.572 14.0091 148.321 13.9685C147.884 13.9037 147.556 14.0577 147.337 14.4303L146.231 16.3386C146.158 16.4603 146.125 16.6101 146.134 16.7881L146.17 19.2068L145.331 21.0057C145.299 21.0786 145.279 21.1393 145.271 21.1878C145.246 21.3419 145.279 21.4776 145.368 21.5951C145.457 21.7125 145.579 21.7835 145.733 21.808C145.992 21.8483 146.174 21.7591 146.279 21.5405L147.203 19.5714C147.236 19.4985 147.252 19.4216 147.252 19.3407L147.24 17.8456L148.662 18.4654ZM153.815 12.413L153.316 14.6736L152.466 15.026L151.724 17.1042L152.429 18.6964L152.235 19.3162L150.594 19.8025L150.497 20.5317L147.884 21.1759L147.908 21.6132H154.289C154.402 21.6132 154.497 21.5748 154.574 21.4979C154.651 21.421 154.69 21.3258 154.69 21.2123V12.6073L153.815 12.413ZM148.82 13.8591C149.038 13.8591 149.229 13.7801 149.391 13.6221C149.553 13.4641 149.634 13.2717 149.634 13.045C149.634 12.8261 149.553 12.6357 149.391 12.4736C149.229 12.3115 149.038 12.2305 148.82 12.2305C148.593 12.2305 148.4 12.3115 148.242 12.4736C148.084 12.6357 148.005 12.8261 148.005 13.045C148.005 13.2717 148.084 13.4641 148.242 13.6221C148.4 13.7801 148.593 13.8591 148.82 13.8591ZM145.976 16.0834L147.191 13.993C147.272 13.8553 147.244 13.7499 147.106 13.677L146.717 13.4459C146.579 13.3651 146.474 13.3935 146.401 13.5312L145.185 15.6216C145.105 15.7594 145.133 15.8647 145.271 15.9377L145.66 16.1684C145.797 16.2495 145.903 16.2212 145.976 16.0834Z" fill="white"/>
</svg>
