<svg width="300" height="35" viewBox="0 0 300 35" fill="none" xmlns="http://www.w3.org/2000/svg">
<rect width="300" height="35" fill="#EBE7E4"/>
<path d="M148 14C148 14.5523 147.552 15 147 15C146.448 15 146 14.5523 146 14C146 13.4477 146.448 13 147 13C147.552 13 148 13.4477 148 14Z" fill="#333333"/>
<path d="M144.68 14.6159C144.892 14.4391 145.207 14.4678 145.384 14.6799L146.426 15.9298L147.795 15.5385C147.885 15.5129 147.977 15.5 148.07 15.5H148.161C148.57 15.5 148.938 15.749 149.09 16.1286L149.814 17.9376C149.989 18.3767 149.833 18.8788 149.44 19.1411L148.151 20H149.5C149.776 20 150 20.2239 150 20.5C150 20.7761 149.776 21 149.5 21H146.5C146.28 21 146.085 20.8558 146.021 20.6449C145.958 20.434 146.039 20.2062 146.223 20.084L148.21 18.7592L147.482 16.6679L146.387 16.9808C146.197 17.0351 145.993 16.9721 145.866 16.8201L144.616 15.3201C144.439 15.108 144.468 14.7927 144.68 14.6159Z" fill="#333333"/>
<path d="M153 14C153 14.5523 152.552 15 152 15C151.448 15 151 14.5523 151 14C151 13.4477 151.448 13 152 13C152.552 13 153 13.4477 153 14Z" fill="#333333"/>
<path d="M149.68 14.6159C149.892 14.4391 150.207 14.4678 150.384 14.6799L151.426 15.9298L152.795 15.5385C152.885 15.5129 152.977 15.5 153.07 15.5H153.161C153.57 15.5 153.938 15.749 154.09 16.1286L154.814 17.9376C154.989 18.3767 154.833 18.8788 154.44 19.1411L153.151 20H154.5C154.776 20 155 20.2239 155 20.5C155 20.7761 154.776 21 154.5 21H151.5C151.28 21 151.085 20.8558 151.021 20.6449C150.958 20.434 151.039 20.2062 151.223 20.084L153.21 18.7592L152.482 16.6679L151.387 16.9808C151.197 17.0351 150.993 16.9721 150.866 16.8201L149.616 15.3201C149.439 15.108 149.468 14.7927 149.68 14.6159Z" fill="#333333"/>
</svg>
