<svg width="300" height="35" viewBox="0 0 300 35" fill="none" xmlns="http://www.w3.org/2000/svg">
<g clip-path="url(#clip0_236_9420)">
<rect width="300" height="35" fill="#585858"/>
<path d="M12.7537 9.31436C12.1772 9.45657 11.3885 9.17662 10.9699 9.70834C10.8283 10.341 11.4955 11.0235 12.1352 10.8235C12.7956 10.8442 13.5783 11.0877 14.1434 10.6278C14.061 10.0179 13.4182 9.69369 12.9734 9.35739C12.9033 9.32979 12.8301 9.30567 12.7538 9.31427L12.7537 9.31436Z" stroke="white" stroke-opacity="0.439216" stroke-width="0.664796" stroke-linecap="round" stroke-linejoin="round"/>
<path d="M15.3809 23.3129C14.8044 23.4551 14.0156 23.1751 13.5971 23.7069C13.4555 24.3396 14.1227 25.022 14.7624 24.8221C15.4227 24.8428 16.2055 25.0862 16.7706 24.6263C16.6882 24.0164 16.0454 23.6922 15.6005 23.3559C15.5304 23.3283 15.4572 23.3042 15.381 23.3128L15.3809 23.3129Z" stroke="white" stroke-opacity="0.439216" stroke-width="0.664796" stroke-linecap="round" stroke-linejoin="round"/>
<path d="M23.9601 19.047C23.4294 19.1744 22.7632 18.9127 22.3387 19.3502C22.2558 19.9355 22.8869 20.4241 23.4371 20.2432C24.0143 20.2605 24.7051 20.4818 25.1994 20.1189C25.0195 19.5985 24.4751 19.284 24.0269 19.0372C24.0028 19.038 23.9828 19.0165 23.96 19.048L23.9601 19.047Z" stroke="white" stroke-opacity="0.439216" stroke-width="0.664796" stroke-linecap="round" stroke-linejoin="round"/>
<path d="M12.8449 18.3975C12.6325 18.3733 12.5773 18.5332 12.7709 18.6146C13.1688 18.7842 13.621 18.5871 14.0365 18.722C14.3669 18.8052 14.1898 18.6377 14.0158 18.5359C13.6753 18.2911 13.2382 18.4602 12.8433 18.3974L12.8449 18.3975Z" stroke="white" stroke-opacity="0.439216" stroke-width="0.664796" stroke-linecap="round" stroke-linejoin="round"/>
<path d="M26.1336 26.7647C25.4511 26.8803 24.4873 26.6398 24.0848 27.3736C23.8414 28.2222 24.7617 29.1226 25.6083 28.8899C26.3349 28.9463 27.3248 29.1696 27.8141 28.4702C27.8708 27.6419 27.0072 27.1691 26.4011 26.7957C26.3148 26.7716 26.2236 26.7571 26.1335 26.7647L26.1336 26.7647Z" stroke="white" stroke-opacity="0.439216" stroke-width="0.664796" stroke-linecap="round" stroke-linejoin="round"/>
<path d="M18.8704 30.6711C18.658 30.647 18.6028 30.8069 18.7966 30.8883C19.1945 31.0575 19.6467 30.8607 20.0622 30.9956C20.3926 31.0788 20.2155 30.9114 20.0415 30.8096C19.701 30.5648 19.2639 30.7344 18.869 30.6711L18.8704 30.6711Z" stroke="white" stroke-opacity="0.439216" stroke-width="0.664796" stroke-linecap="round" stroke-linejoin="round"/>
<path d="M7.56754 21.5255C7.17122 21.6191 6.64065 21.3895 6.32581 21.6829C6.41321 22.1204 6.94375 22.1828 7.30484 22.0937C7.65653 22.0967 8.1719 22.2649 8.43912 22.1045C8.22126 21.8479 7.90682 21.5708 7.56754 21.5242V21.5255Z" stroke="white" stroke-opacity="0.439216" stroke-width="0.664796" stroke-linecap="round" stroke-linejoin="round"/>
<path d="M5.7312 27.5385C5.20051 27.6658 4.53429 27.4041 4.1098 27.8416C4.0269 28.427 4.65809 28.9155 5.20822 28.7347C5.78546 28.752 6.47625 28.9732 6.97052 28.6104C6.79063 28.09 6.2462 27.7754 5.79806 27.5287C5.77396 27.5294 5.75388 27.508 5.73108 27.5395L5.7312 27.5385Z" stroke="white" stroke-opacity="0.439216" stroke-width="0.664796" stroke-linecap="round" stroke-linejoin="round"/>
<path d="M2.67477 13.4688C1.99216 13.5844 1.02848 13.3439 0.625912 14.0777C0.382502 14.9263 1.3029 15.8267 2.14941 15.594C2.87602 15.6504 3.86595 15.8737 4.35528 15.1743C4.41198 14.346 3.54826 13.8732 2.9422 13.4998C2.8559 13.4757 2.76473 13.4612 2.67462 13.4688L2.67477 13.4688Z" stroke="white" stroke-opacity="0.439216" stroke-width="0.664796" stroke-linecap="round" stroke-linejoin="round"/>
<path d="M29.3113 15.6323C28.915 15.7259 28.3844 15.4963 28.0696 15.7901C28.157 16.2275 28.6875 16.2899 29.0486 16.2008C29.4003 16.2038 29.9157 16.3721 30.1829 16.2116C29.965 15.9551 29.6506 15.678 29.3113 15.6313V15.6323Z" stroke="white" stroke-opacity="0.439216" stroke-width="0.664796" stroke-linecap="round" stroke-linejoin="round"/>
<path d="M18.0748 1.59062C17.3922 1.70627 16.4285 1.46571 16.0259 2.19954C15.7825 3.04819 16.7029 3.94862 17.5494 3.71587C18.276 3.77227 19.266 3.99555 19.7553 3.29619C19.812 2.46786 18.9483 1.99506 18.3422 1.62166C18.2559 1.59756 18.1648 1.58305 18.0746 1.59065L18.0748 1.59062Z" stroke="white" stroke-opacity="0.439216" stroke-width="0.664796" stroke-linecap="round" stroke-linejoin="round"/>
<path d="M27.4957 6.63648C27.2834 6.61238 27.2281 6.77219 27.4219 6.85364C27.8198 7.02282 28.2721 6.82602 28.6875 6.96094C29.0179 7.04414 28.8409 6.87676 28.6668 6.77488C28.3264 6.53009 27.8892 6.69917 27.4943 6.63636L27.4957 6.63648Z" stroke="white" stroke-opacity="0.439216" stroke-width="0.664796" stroke-linecap="round" stroke-linejoin="round"/>
<path d="M7.31985 4.29675C6.92354 4.39035 6.39298 4.16072 6.07812 4.45419C6.16552 4.89162 6.69608 4.95403 7.05719 4.86487C7.40887 4.86787 7.92421 5.03613 8.19144 4.87567C7.97358 4.61915 7.65914 4.34204 7.31985 4.29541V4.29675Z" stroke="white" stroke-opacity="0.439216" stroke-width="0.664796" stroke-linecap="round" stroke-linejoin="round"/>
<path d="M21.7299 13.7393C21.5175 13.7152 21.4623 13.875 21.6561 13.9564C22.054 14.1256 22.5062 13.9288 22.9217 14.0638C23.2521 14.147 23.075 13.9795 22.901 13.8777C22.5605 13.6329 22.1234 13.802 21.7285 13.7392L21.7299 13.7393Z" stroke="white" stroke-opacity="0.439216" stroke-width="0.664796" stroke-linecap="round" stroke-linejoin="round"/>
<path d="M44.7537 9.31436C44.1772 9.45657 43.3885 9.17662 42.9699 9.70834C42.8283 10.341 43.4955 11.0235 44.1352 10.8235C44.7956 10.8442 45.5783 11.0877 46.1434 10.6278C46.061 10.0179 45.4182 9.69369 44.9734 9.35739C44.9033 9.32979 44.8301 9.30567 44.7538 9.31427L44.7537 9.31436Z" stroke="white" stroke-opacity="0.439216" stroke-width="0.664796" stroke-linecap="round" stroke-linejoin="round"/>
<path d="M47.3809 23.3129C46.8044 23.4551 46.0156 23.1751 45.5971 23.7069C45.4555 24.3396 46.1227 25.022 46.7624 24.8221C47.4227 24.8428 48.2055 25.0862 48.7706 24.6263C48.6882 24.0164 48.0454 23.6922 47.6005 23.3559C47.5304 23.3283 47.4572 23.3042 47.381 23.3128L47.3809 23.3129Z" stroke="white" stroke-opacity="0.439216" stroke-width="0.664796" stroke-linecap="round" stroke-linejoin="round"/>
<path d="M55.9601 19.047C55.4294 19.1744 54.7632 18.9127 54.3387 19.3502C54.2558 19.9355 54.8869 20.4241 55.4371 20.2432C56.0143 20.2605 56.7051 20.4818 57.1994 20.1189C57.0195 19.5985 56.4751 19.284 56.0269 19.0372C56.0028 19.038 55.9828 19.0165 55.96 19.048L55.9601 19.047Z" stroke="white" stroke-opacity="0.439216" stroke-width="0.664796" stroke-linecap="round" stroke-linejoin="round"/>
<path d="M44.8449 18.3975C44.6325 18.3733 44.5773 18.5332 44.7709 18.6146C45.1688 18.7842 45.621 18.5871 46.0365 18.722C46.3669 18.8052 46.1898 18.6377 46.0158 18.5359C45.6753 18.2911 45.2382 18.4602 44.8433 18.3974L44.8449 18.3975Z" stroke="white" stroke-opacity="0.439216" stroke-width="0.664796" stroke-linecap="round" stroke-linejoin="round"/>
<path d="M58.1336 26.7647C57.4511 26.8803 56.4873 26.6398 56.0848 27.3736C55.8414 28.2222 56.7617 29.1226 57.6083 28.8899C58.3349 28.9463 59.3248 29.1696 59.8141 28.4702C59.8708 27.6419 59.0072 27.1691 58.4011 26.7957C58.3148 26.7716 58.2236 26.7571 58.1335 26.7647L58.1336 26.7647Z" stroke="white" stroke-opacity="0.439216" stroke-width="0.664796" stroke-linecap="round" stroke-linejoin="round"/>
<path d="M50.8704 30.6711C50.658 30.647 50.6028 30.8069 50.7966 30.8883C51.1945 31.0575 51.6467 30.8607 52.0622 30.9956C52.3926 31.0788 52.2155 30.9114 52.0415 30.8096C51.701 30.5648 51.2639 30.7344 50.869 30.6711L50.8704 30.6711Z" stroke="white" stroke-opacity="0.439216" stroke-width="0.664796" stroke-linecap="round" stroke-linejoin="round"/>
<path d="M39.5675 21.5255C39.1712 21.6191 38.6406 21.3895 38.3258 21.6829C38.4132 22.1204 38.9438 22.1828 39.3048 22.0937C39.6565 22.0967 40.1719 22.2649 40.4391 22.1045C40.2213 21.8479 39.9068 21.5708 39.5675 21.5242V21.5255Z" stroke="white" stroke-opacity="0.439216" stroke-width="0.664796" stroke-linecap="round" stroke-linejoin="round"/>
<path d="M37.7312 27.5385C37.2005 27.6658 36.5343 27.4041 36.1098 27.8416C36.0269 28.427 36.6581 28.9155 37.2082 28.7347C37.7855 28.752 38.4762 28.9732 38.9705 28.6104C38.7906 28.09 38.2462 27.7754 37.7981 27.5287C37.774 27.5294 37.7539 27.508 37.7311 27.5395L37.7312 27.5385Z" stroke="white" stroke-opacity="0.439216" stroke-width="0.664796" stroke-linecap="round" stroke-linejoin="round"/>
<path d="M34.6748 13.4688C33.9922 13.5844 33.0285 13.3439 32.6259 14.0777C32.3825 14.9263 33.3029 15.8267 34.1494 15.594C34.876 15.6504 35.866 15.8737 36.3553 15.1743C36.412 14.346 35.5483 13.8732 34.9422 13.4998C34.8559 13.4757 34.7647 13.4612 34.6746 13.4688L34.6748 13.4688Z" stroke="white" stroke-opacity="0.439216" stroke-width="0.664796" stroke-linecap="round" stroke-linejoin="round"/>
<path d="M61.3113 15.6323C60.915 15.7259 60.3844 15.4963 60.0696 15.7901C60.157 16.2275 60.6875 16.2899 61.0486 16.2008C61.4003 16.2038 61.9157 16.3721 62.1829 16.2116C61.965 15.9551 61.6506 15.678 61.3113 15.6313V15.6323Z" stroke="white" stroke-opacity="0.439216" stroke-width="0.664796" stroke-linecap="round" stroke-linejoin="round"/>
<path d="M50.0748 1.59062C49.3922 1.70627 48.4285 1.46571 48.0259 2.19954C47.7825 3.04819 48.7029 3.94862 49.5494 3.71587C50.276 3.77227 51.266 3.99555 51.7553 3.29619C51.812 2.46786 50.9483 1.99506 50.3422 1.62166C50.2559 1.59756 50.1648 1.58305 50.0746 1.59065L50.0748 1.59062Z" stroke="white" stroke-opacity="0.439216" stroke-width="0.664796" stroke-linecap="round" stroke-linejoin="round"/>
<path d="M59.4957 6.63648C59.2834 6.61238 59.2281 6.77219 59.4219 6.85364C59.8198 7.02282 60.2721 6.82602 60.6875 6.96094C61.0179 7.04414 60.8409 6.87676 60.6668 6.77488C60.3264 6.53009 59.8892 6.69917 59.4943 6.63636L59.4957 6.63648Z" stroke="white" stroke-opacity="0.439216" stroke-width="0.664796" stroke-linecap="round" stroke-linejoin="round"/>
<path d="M39.3199 4.29675C38.9235 4.39035 38.393 4.16072 38.0781 4.45419C38.1655 4.89162 38.6961 4.95403 39.0572 4.86487C39.4089 4.86787 39.9242 5.03613 40.1914 4.87567C39.9736 4.61915 39.6591 4.34204 39.3199 4.29541V4.29675Z" stroke="white" stroke-opacity="0.439216" stroke-width="0.664796" stroke-linecap="round" stroke-linejoin="round"/>
<path d="M53.7299 13.7393C53.5175 13.7152 53.4623 13.875 53.6561 13.9564C54.054 14.1256 54.5062 13.9288 54.9217 14.0638C55.2521 14.147 55.075 13.9795 54.901 13.8777C54.5605 13.6329 54.1234 13.802 53.7285 13.7392L53.7299 13.7393Z" stroke="white" stroke-opacity="0.439216" stroke-width="0.664796" stroke-linecap="round" stroke-linejoin="round"/>
<path d="M76.7537 9.31436C76.1772 9.45657 75.3885 9.17662 74.9699 9.70834C74.8283 10.341 75.4955 11.0235 76.1352 10.8235C76.7956 10.8442 77.5783 11.0877 78.1434 10.6278C78.061 10.0179 77.4182 9.69369 76.9734 9.35739C76.9033 9.32979 76.8301 9.30567 76.7538 9.31427L76.7537 9.31436Z" stroke="white" stroke-opacity="0.439216" stroke-width="0.664796" stroke-linecap="round" stroke-linejoin="round"/>
<path d="M79.3809 23.3129C78.8044 23.4551 78.0156 23.1751 77.5971 23.7069C77.4555 24.3396 78.1227 25.022 78.7624 24.8221C79.4227 24.8428 80.2055 25.0862 80.7706 24.6263C80.6882 24.0164 80.0454 23.6922 79.6005 23.3559C79.5304 23.3283 79.4572 23.3042 79.381 23.3128L79.3809 23.3129Z" stroke="white" stroke-opacity="0.439216" stroke-width="0.664796" stroke-linecap="round" stroke-linejoin="round"/>
<path d="M87.9601 19.047C87.4294 19.1744 86.7632 18.9127 86.3387 19.3502C86.2558 19.9355 86.8869 20.4241 87.4371 20.2432C88.0143 20.2605 88.7051 20.4818 89.1994 20.1189C89.0195 19.5985 88.4751 19.284 88.0269 19.0372C88.0028 19.038 87.9828 19.0165 87.96 19.048L87.9601 19.047Z" stroke="white" stroke-opacity="0.439216" stroke-width="0.664796" stroke-linecap="round" stroke-linejoin="round"/>
<path d="M76.8449 18.3975C76.6325 18.3733 76.5773 18.5332 76.7709 18.6146C77.1688 18.7842 77.621 18.5871 78.0365 18.722C78.3669 18.8052 78.1898 18.6377 78.0158 18.5359C77.6753 18.2911 77.2382 18.4602 76.8433 18.3974L76.8449 18.3975Z" stroke="white" stroke-opacity="0.439216" stroke-width="0.664796" stroke-linecap="round" stroke-linejoin="round"/>
<path d="M90.1336 26.7647C89.4511 26.8803 88.4873 26.6398 88.0848 27.3736C87.8414 28.2222 88.7617 29.1226 89.6083 28.8899C90.3349 28.9463 91.3248 29.1696 91.8141 28.4702C91.8708 27.6419 91.0072 27.1691 90.4011 26.7957C90.3148 26.7716 90.2236 26.7571 90.1335 26.7647L90.1336 26.7647Z" stroke="white" stroke-opacity="0.439216" stroke-width="0.664796" stroke-linecap="round" stroke-linejoin="round"/>
<path d="M82.8704 30.6711C82.658 30.647 82.6028 30.8069 82.7966 30.8883C83.1945 31.0575 83.6467 30.8607 84.0622 30.9956C84.3926 31.0788 84.2155 30.9114 84.0415 30.8096C83.701 30.5648 83.2639 30.7344 82.869 30.6711L82.8704 30.6711Z" stroke="white" stroke-opacity="0.439216" stroke-width="0.664796" stroke-linecap="round" stroke-linejoin="round"/>
<path d="M71.5675 21.5255C71.1712 21.6191 70.6406 21.3895 70.3258 21.6829C70.4132 22.1204 70.9438 22.1828 71.3048 22.0937C71.6565 22.0967 72.1719 22.2649 72.4391 22.1045C72.2213 21.8479 71.9068 21.5708 71.5675 21.5242V21.5255Z" stroke="white" stroke-opacity="0.439216" stroke-width="0.664796" stroke-linecap="round" stroke-linejoin="round"/>
<path d="M69.7312 27.5385C69.2005 27.6658 68.5343 27.4041 68.1098 27.8416C68.0269 28.427 68.6581 28.9155 69.2082 28.7347C69.7855 28.752 70.4762 28.9732 70.9705 28.6104C70.7906 28.09 70.2462 27.7754 69.7981 27.5287C69.774 27.5294 69.7539 27.508 69.7311 27.5395L69.7312 27.5385Z" stroke="white" stroke-opacity="0.439216" stroke-width="0.664796" stroke-linecap="round" stroke-linejoin="round"/>
<path d="M66.6748 13.4688C65.9922 13.5844 65.0285 13.3439 64.6259 14.0777C64.3825 14.9263 65.3029 15.8267 66.1494 15.594C66.876 15.6504 67.866 15.8737 68.3553 15.1743C68.412 14.346 67.5483 13.8732 66.9422 13.4998C66.8559 13.4757 66.7647 13.4612 66.6746 13.4688L66.6748 13.4688Z" stroke="white" stroke-opacity="0.439216" stroke-width="0.664796" stroke-linecap="round" stroke-linejoin="round"/>
<path d="M93.3113 15.6323C92.915 15.7259 92.3844 15.4963 92.0696 15.7901C92.157 16.2275 92.6875 16.2899 93.0486 16.2008C93.4003 16.2038 93.9157 16.3721 94.1829 16.2116C93.965 15.9551 93.6506 15.678 93.3113 15.6313V15.6323Z" stroke="white" stroke-opacity="0.439216" stroke-width="0.664796" stroke-linecap="round" stroke-linejoin="round"/>
<path d="M82.0748 1.59062C81.3922 1.70627 80.4285 1.46571 80.0259 2.19954C79.7825 3.04819 80.7029 3.94862 81.5494 3.71587C82.276 3.77227 83.266 3.99555 83.7553 3.29619C83.812 2.46786 82.9483 1.99506 82.3422 1.62166C82.2559 1.59756 82.1648 1.58305 82.0746 1.59065L82.0748 1.59062Z" stroke="white" stroke-opacity="0.439216" stroke-width="0.664796" stroke-linecap="round" stroke-linejoin="round"/>
<path d="M91.4957 6.63648C91.2834 6.61238 91.2281 6.77219 91.4219 6.85364C91.8198 7.02282 92.2721 6.82602 92.6875 6.96094C93.0179 7.04414 92.8409 6.87676 92.6668 6.77488C92.3264 6.53009 91.8892 6.69917 91.4943 6.63636L91.4957 6.63648Z" stroke="white" stroke-opacity="0.439216" stroke-width="0.664796" stroke-linecap="round" stroke-linejoin="round"/>
<path d="M71.3199 4.29675C70.9235 4.39035 70.393 4.16072 70.0781 4.45419C70.1655 4.89162 70.6961 4.95403 71.0572 4.86487C71.4089 4.86787 71.9242 5.03613 72.1914 4.87567C71.9736 4.61915 71.6591 4.34204 71.3199 4.29541V4.29675Z" stroke="white" stroke-opacity="0.439216" stroke-width="0.664796" stroke-linecap="round" stroke-linejoin="round"/>
<path d="M85.7299 13.7393C85.5175 13.7152 85.4623 13.875 85.6561 13.9564C86.054 14.1256 86.5062 13.9288 86.9217 14.0638C87.2521 14.147 87.075 13.9795 86.901 13.8777C86.5605 13.6329 86.1234 13.802 85.7285 13.7392L85.7299 13.7393Z" stroke="white" stroke-opacity="0.439216" stroke-width="0.664796" stroke-linecap="round" stroke-linejoin="round"/>
<path d="M108.754 9.31436C108.177 9.45657 107.388 9.17662 106.97 9.70834C106.828 10.341 107.495 11.0235 108.135 10.8235C108.796 10.8442 109.578 11.0877 110.143 10.6278C110.061 10.0179 109.418 9.69369 108.973 9.35739C108.903 9.32979 108.83 9.30567 108.754 9.31427L108.754 9.31436Z" stroke="white" stroke-opacity="0.439216" stroke-width="0.664796" stroke-linecap="round" stroke-linejoin="round"/>
<path d="M111.381 23.3129C110.804 23.4551 110.016 23.1751 109.597 23.7069C109.455 24.3396 110.123 25.022 110.762 24.8221C111.423 24.8428 112.205 25.0862 112.771 24.6263C112.688 24.0164 112.045 23.6922 111.601 23.3559C111.53 23.3283 111.457 23.3042 111.381 23.3128L111.381 23.3129Z" stroke="white" stroke-opacity="0.439216" stroke-width="0.664796" stroke-linecap="round" stroke-linejoin="round"/>
<path d="M119.96 19.047C119.429 19.1744 118.763 18.9127 118.339 19.3502C118.256 19.9355 118.887 20.4241 119.437 20.2432C120.014 20.2605 120.705 20.4818 121.199 20.1189C121.02 19.5985 120.475 19.284 120.027 19.0372C120.003 19.038 119.983 19.0165 119.96 19.048L119.96 19.047Z" stroke="white" stroke-opacity="0.439216" stroke-width="0.664796" stroke-linecap="round" stroke-linejoin="round"/>
<path d="M108.845 18.3975C108.633 18.3733 108.577 18.5332 108.771 18.6146C109.169 18.7842 109.621 18.5871 110.036 18.722C110.367 18.8052 110.19 18.6377 110.016 18.5359C109.675 18.2911 109.238 18.4602 108.843 18.3974L108.845 18.3975Z" stroke="white" stroke-opacity="0.439216" stroke-width="0.664796" stroke-linecap="round" stroke-linejoin="round"/>
<path d="M122.134 26.7647C121.451 26.8803 120.487 26.6398 120.085 27.3736C119.841 28.2222 120.762 29.1226 121.608 28.8899C122.335 28.9463 123.325 29.1696 123.814 28.4702C123.871 27.6419 123.007 27.1691 122.401 26.7957C122.315 26.7716 122.224 26.7571 122.133 26.7647L122.134 26.7647Z" stroke="white" stroke-opacity="0.439216" stroke-width="0.664796" stroke-linecap="round" stroke-linejoin="round"/>
<path d="M114.87 30.6711C114.658 30.647 114.603 30.8069 114.797 30.8883C115.194 31.0575 115.647 30.8607 116.062 30.9956C116.393 31.0788 116.215 30.9114 116.041 30.8096C115.701 30.5648 115.264 30.7344 114.869 30.6711L114.87 30.6711Z" stroke="white" stroke-opacity="0.439216" stroke-width="0.664796" stroke-linecap="round" stroke-linejoin="round"/>
<path d="M103.568 21.5255C103.171 21.6191 102.641 21.3895 102.326 21.6829C102.413 22.1204 102.944 22.1828 103.305 22.0937C103.657 22.0967 104.172 22.2649 104.439 22.1045C104.221 21.8479 103.907 21.5708 103.568 21.5242V21.5255Z" stroke="white" stroke-opacity="0.439216" stroke-width="0.664796" stroke-linecap="round" stroke-linejoin="round"/>
<path d="M101.731 27.5385C101.201 27.6658 100.534 27.4041 100.11 27.8416C100.027 28.427 100.658 28.9155 101.208 28.7347C101.785 28.752 102.476 28.9732 102.971 28.6104C102.791 28.09 102.246 27.7754 101.798 27.5287C101.774 27.5294 101.754 27.508 101.731 27.5395L101.731 27.5385Z" stroke="white" stroke-opacity="0.439216" stroke-width="0.664796" stroke-linecap="round" stroke-linejoin="round"/>
<path d="M98.6748 13.4688C97.9922 13.5844 97.0285 13.3439 96.6259 14.0777C96.3825 14.9263 97.3029 15.8267 98.1494 15.594C98.876 15.6504 99.866 15.8737 100.355 15.1743C100.412 14.346 99.5483 13.8732 98.9422 13.4998C98.8559 13.4757 98.7647 13.4612 98.6746 13.4688L98.6748 13.4688Z" stroke="white" stroke-opacity="0.439216" stroke-width="0.664796" stroke-linecap="round" stroke-linejoin="round"/>
<path d="M125.311 15.6323C124.915 15.7259 124.384 15.4963 124.07 15.7901C124.157 16.2275 124.688 16.2899 125.049 16.2008C125.4 16.2038 125.916 16.3721 126.183 16.2116C125.965 15.9551 125.651 15.678 125.311 15.6313V15.6323Z" stroke="white" stroke-opacity="0.439216" stroke-width="0.664796" stroke-linecap="round" stroke-linejoin="round"/>
<path d="M114.075 1.59062C113.392 1.70627 112.429 1.46571 112.026 2.19954C111.783 3.04819 112.703 3.94862 113.549 3.71587C114.276 3.77227 115.266 3.99555 115.755 3.29619C115.812 2.46786 114.948 1.99506 114.342 1.62166C114.256 1.59756 114.165 1.58305 114.075 1.59065L114.075 1.59062Z" stroke="white" stroke-opacity="0.439216" stroke-width="0.664796" stroke-linecap="round" stroke-linejoin="round"/>
<path d="M123.496 6.63648C123.283 6.61238 123.228 6.77219 123.422 6.85364C123.82 7.02282 124.272 6.82602 124.688 6.96094C125.018 7.04414 124.841 6.87676 124.667 6.77488C124.326 6.53009 123.889 6.69917 123.494 6.63636L123.496 6.63648Z" stroke="white" stroke-opacity="0.439216" stroke-width="0.664796" stroke-linecap="round" stroke-linejoin="round"/>
<path d="M103.32 4.29675C102.924 4.39035 102.393 4.16072 102.078 4.45419C102.166 4.89162 102.696 4.95403 103.057 4.86487C103.409 4.86787 103.924 5.03613 104.191 4.87567C103.974 4.61915 103.659 4.34204 103.32 4.29541V4.29675Z" stroke="white" stroke-opacity="0.439216" stroke-width="0.664796" stroke-linecap="round" stroke-linejoin="round"/>
<path d="M117.73 13.7393C117.518 13.7152 117.462 13.875 117.656 13.9564C118.054 14.1256 118.506 13.9288 118.922 14.0638C119.252 14.147 119.075 13.9795 118.901 13.8777C118.561 13.6329 118.123 13.802 117.728 13.7392L117.73 13.7393Z" stroke="white" stroke-opacity="0.439216" stroke-width="0.664796" stroke-linecap="round" stroke-linejoin="round"/>
<path d="M140.754 9.31436C140.177 9.45657 139.388 9.17662 138.97 9.70834C138.828 10.341 139.495 11.0235 140.135 10.8235C140.796 10.8442 141.578 11.0877 142.143 10.6278C142.061 10.0179 141.418 9.69369 140.973 9.35739C140.903 9.32979 140.83 9.30567 140.754 9.31427L140.754 9.31436Z" stroke="white" stroke-opacity="0.439216" stroke-width="0.664796" stroke-linecap="round" stroke-linejoin="round"/>
<path d="M143.381 23.3129C142.804 23.4551 142.016 23.1751 141.597 23.7069C141.455 24.3396 142.123 25.022 142.762 24.8221C143.423 24.8428 144.205 25.0862 144.771 24.6263C144.688 24.0164 144.045 23.6922 143.601 23.3559C143.53 23.3283 143.457 23.3042 143.381 23.3128L143.381 23.3129Z" stroke="white" stroke-opacity="0.439216" stroke-width="0.664796" stroke-linecap="round" stroke-linejoin="round"/>
<path d="M151.96 19.047C151.429 19.1744 150.763 18.9127 150.339 19.3502C150.256 19.9355 150.887 20.4241 151.437 20.2432C152.014 20.2605 152.705 20.4818 153.199 20.1189C153.02 19.5985 152.475 19.284 152.027 19.0372C152.003 19.038 151.983 19.0165 151.96 19.048L151.96 19.047Z" stroke="white" stroke-opacity="0.439216" stroke-width="0.664796" stroke-linecap="round" stroke-linejoin="round"/>
<path d="M140.845 18.3975C140.633 18.3733 140.577 18.5332 140.771 18.6146C141.169 18.7842 141.621 18.5871 142.036 18.722C142.367 18.8052 142.19 18.6377 142.016 18.5359C141.675 18.2911 141.238 18.4602 140.843 18.3974L140.845 18.3975Z" stroke="white" stroke-opacity="0.439216" stroke-width="0.664796" stroke-linecap="round" stroke-linejoin="round"/>
<path d="M154.134 26.7647C153.451 26.8803 152.487 26.6398 152.085 27.3736C151.841 28.2222 152.762 29.1226 153.608 28.8899C154.335 28.9463 155.325 29.1696 155.814 28.4702C155.871 27.6419 155.007 27.1691 154.401 26.7957C154.315 26.7716 154.224 26.7571 154.133 26.7647L154.134 26.7647Z" stroke="white" stroke-opacity="0.439216" stroke-width="0.664796" stroke-linecap="round" stroke-linejoin="round"/>
<path d="M146.87 30.6711C146.658 30.647 146.603 30.8069 146.797 30.8883C147.194 31.0575 147.647 30.8607 148.062 30.9956C148.393 31.0788 148.215 30.9114 148.041 30.8096C147.701 30.5648 147.264 30.7344 146.869 30.6711L146.87 30.6711Z" stroke="white" stroke-opacity="0.439216" stroke-width="0.664796" stroke-linecap="round" stroke-linejoin="round"/>
<path d="M135.568 21.5255C135.171 21.6191 134.641 21.3895 134.326 21.6829C134.413 22.1204 134.944 22.1828 135.305 22.0937C135.657 22.0967 136.172 22.2649 136.439 22.1045C136.221 21.8479 135.907 21.5708 135.568 21.5242V21.5255Z" stroke="white" stroke-opacity="0.439216" stroke-width="0.664796" stroke-linecap="round" stroke-linejoin="round"/>
<path d="M133.731 27.5385C133.201 27.6658 132.534 27.4041 132.11 27.8416C132.027 28.427 132.658 28.9155 133.208 28.7347C133.785 28.752 134.476 28.9732 134.971 28.6104C134.791 28.09 134.246 27.7754 133.798 27.5287C133.774 27.5294 133.754 27.508 133.731 27.5395L133.731 27.5385Z" stroke="white" stroke-opacity="0.439216" stroke-width="0.664796" stroke-linecap="round" stroke-linejoin="round"/>
<path d="M130.675 13.4688C129.992 13.5844 129.028 13.3439 128.626 14.0777C128.383 14.9263 129.303 15.8267 130.149 15.594C130.876 15.6504 131.866 15.8737 132.355 15.1743C132.412 14.346 131.548 13.8732 130.942 13.4998C130.856 13.4757 130.765 13.4612 130.675 13.4688L130.675 13.4688Z" stroke="white" stroke-opacity="0.439216" stroke-width="0.664796" stroke-linecap="round" stroke-linejoin="round"/>
<path d="M157.311 15.6323C156.915 15.7259 156.384 15.4963 156.07 15.7901C156.157 16.2275 156.688 16.2899 157.049 16.2008C157.4 16.2038 157.916 16.3721 158.183 16.2116C157.965 15.9551 157.651 15.678 157.311 15.6313V15.6323Z" stroke="white" stroke-opacity="0.439216" stroke-width="0.664796" stroke-linecap="round" stroke-linejoin="round"/>
<path d="M146.075 1.59062C145.392 1.70627 144.429 1.46571 144.026 2.19954C143.783 3.04819 144.703 3.94862 145.549 3.71587C146.276 3.77227 147.266 3.99555 147.755 3.29619C147.812 2.46786 146.948 1.99506 146.342 1.62166C146.256 1.59756 146.165 1.58305 146.075 1.59065L146.075 1.59062Z" stroke="white" stroke-opacity="0.439216" stroke-width="0.664796" stroke-linecap="round" stroke-linejoin="round"/>
<path d="M155.496 6.63648C155.283 6.61238 155.228 6.77219 155.422 6.85364C155.82 7.02282 156.272 6.82602 156.688 6.96094C157.018 7.04414 156.841 6.87676 156.667 6.77488C156.326 6.53009 155.889 6.69917 155.494 6.63636L155.496 6.63648Z" stroke="white" stroke-opacity="0.439216" stroke-width="0.664796" stroke-linecap="round" stroke-linejoin="round"/>
<path d="M135.32 4.29675C134.924 4.39035 134.393 4.16072 134.078 4.45419C134.166 4.89162 134.696 4.95403 135.057 4.86487C135.409 4.86787 135.924 5.03613 136.191 4.87567C135.974 4.61915 135.659 4.34204 135.32 4.29541V4.29675Z" stroke="white" stroke-opacity="0.439216" stroke-width="0.664796" stroke-linecap="round" stroke-linejoin="round"/>
<path d="M149.73 13.7393C149.518 13.7152 149.462 13.875 149.656 13.9564C150.054 14.1256 150.506 13.9288 150.922 14.0638C151.252 14.147 151.075 13.9795 150.901 13.8777C150.561 13.6329 150.123 13.802 149.728 13.7392L149.73 13.7393Z" stroke="white" stroke-opacity="0.439216" stroke-width="0.664796" stroke-linecap="round" stroke-linejoin="round"/>
<path d="M172.754 9.31436C172.177 9.45657 171.388 9.17662 170.97 9.70834C170.828 10.341 171.495 11.0235 172.135 10.8235C172.796 10.8442 173.578 11.0877 174.143 10.6278C174.061 10.0179 173.418 9.69369 172.973 9.35739C172.903 9.32979 172.83 9.30567 172.754 9.31427L172.754 9.31436Z" stroke="white" stroke-opacity="0.439216" stroke-width="0.664796" stroke-linecap="round" stroke-linejoin="round"/>
<path d="M175.381 23.3129C174.804 23.4551 174.016 23.1751 173.597 23.7069C173.455 24.3396 174.123 25.022 174.762 24.8221C175.423 24.8428 176.205 25.0862 176.771 24.6263C176.688 24.0164 176.045 23.6922 175.601 23.3559C175.53 23.3283 175.457 23.3042 175.381 23.3128L175.381 23.3129Z" stroke="white" stroke-opacity="0.439216" stroke-width="0.664796" stroke-linecap="round" stroke-linejoin="round"/>
<path d="M183.96 19.047C183.429 19.1744 182.763 18.9127 182.339 19.3502C182.256 19.9355 182.887 20.4241 183.437 20.2432C184.014 20.2605 184.705 20.4818 185.199 20.1189C185.02 19.5985 184.475 19.284 184.027 19.0372C184.003 19.038 183.983 19.0165 183.96 19.048L183.96 19.047Z" stroke="white" stroke-opacity="0.439216" stroke-width="0.664796" stroke-linecap="round" stroke-linejoin="round"/>
<path d="M172.845 18.3975C172.633 18.3733 172.577 18.5332 172.771 18.6146C173.169 18.7842 173.621 18.5871 174.036 18.722C174.367 18.8052 174.19 18.6377 174.016 18.5359C173.675 18.2911 173.238 18.4602 172.843 18.3974L172.845 18.3975Z" stroke="white" stroke-opacity="0.439216" stroke-width="0.664796" stroke-linecap="round" stroke-linejoin="round"/>
<path d="M186.134 26.7647C185.451 26.8803 184.487 26.6398 184.085 27.3736C183.841 28.2222 184.762 29.1226 185.608 28.8899C186.335 28.9463 187.325 29.1696 187.814 28.4702C187.871 27.6419 187.007 27.1691 186.401 26.7957C186.315 26.7716 186.224 26.7571 186.133 26.7647L186.134 26.7647Z" stroke="white" stroke-opacity="0.439216" stroke-width="0.664796" stroke-linecap="round" stroke-linejoin="round"/>
<path d="M178.87 30.6711C178.658 30.647 178.603 30.8069 178.797 30.8883C179.194 31.0575 179.647 30.8607 180.062 30.9956C180.393 31.0788 180.215 30.9114 180.041 30.8096C179.701 30.5648 179.264 30.7344 178.869 30.6711L178.87 30.6711Z" stroke="white" stroke-opacity="0.439216" stroke-width="0.664796" stroke-linecap="round" stroke-linejoin="round"/>
<path d="M167.568 21.5255C167.171 21.6191 166.641 21.3895 166.326 21.6829C166.413 22.1204 166.944 22.1828 167.305 22.0937C167.657 22.0967 168.172 22.2649 168.439 22.1045C168.221 21.8479 167.907 21.5708 167.568 21.5242V21.5255Z" stroke="white" stroke-opacity="0.439216" stroke-width="0.664796" stroke-linecap="round" stroke-linejoin="round"/>
<path d="M165.731 27.5385C165.201 27.6658 164.534 27.4041 164.11 27.8416C164.027 28.427 164.658 28.9155 165.208 28.7347C165.785 28.752 166.476 28.9732 166.971 28.6104C166.791 28.09 166.246 27.7754 165.798 27.5287C165.774 27.5294 165.754 27.508 165.731 27.5395L165.731 27.5385Z" stroke="white" stroke-opacity="0.439216" stroke-width="0.664796" stroke-linecap="round" stroke-linejoin="round"/>
<path d="M162.675 13.4688C161.992 13.5844 161.028 13.3439 160.626 14.0777C160.383 14.9263 161.303 15.8267 162.149 15.594C162.876 15.6504 163.866 15.8737 164.355 15.1743C164.412 14.346 163.548 13.8732 162.942 13.4998C162.856 13.4757 162.765 13.4612 162.675 13.4688L162.675 13.4688Z" stroke="white" stroke-opacity="0.439216" stroke-width="0.664796" stroke-linecap="round" stroke-linejoin="round"/>
<path d="M189.311 15.6323C188.915 15.7259 188.384 15.4963 188.07 15.7901C188.157 16.2275 188.688 16.2899 189.049 16.2008C189.4 16.2038 189.916 16.3721 190.183 16.2116C189.965 15.9551 189.651 15.678 189.311 15.6313V15.6323Z" stroke="white" stroke-opacity="0.439216" stroke-width="0.664796" stroke-linecap="round" stroke-linejoin="round"/>
<path d="M178.075 1.59062C177.392 1.70627 176.429 1.46571 176.026 2.19954C175.783 3.04819 176.703 3.94862 177.549 3.71587C178.276 3.77227 179.266 3.99555 179.755 3.29619C179.812 2.46786 178.948 1.99506 178.342 1.62166C178.256 1.59756 178.165 1.58305 178.075 1.59065L178.075 1.59062Z" stroke="white" stroke-opacity="0.439216" stroke-width="0.664796" stroke-linecap="round" stroke-linejoin="round"/>
<path d="M187.496 6.63648C187.283 6.61238 187.228 6.77219 187.422 6.85364C187.82 7.02282 188.272 6.82602 188.688 6.96094C189.018 7.04414 188.841 6.87676 188.667 6.77488C188.326 6.53009 187.889 6.69917 187.494 6.63636L187.496 6.63648Z" stroke="white" stroke-opacity="0.439216" stroke-width="0.664796" stroke-linecap="round" stroke-linejoin="round"/>
<path d="M167.32 4.29675C166.924 4.39035 166.393 4.16072 166.078 4.45419C166.166 4.89162 166.696 4.95403 167.057 4.86487C167.409 4.86787 167.924 5.03613 168.191 4.87567C167.974 4.61915 167.659 4.34204 167.32 4.29541V4.29675Z" stroke="white" stroke-opacity="0.439216" stroke-width="0.664796" stroke-linecap="round" stroke-linejoin="round"/>
<path d="M181.73 13.7393C181.518 13.7152 181.462 13.875 181.656 13.9564C182.054 14.1256 182.506 13.9288 182.922 14.0638C183.252 14.147 183.075 13.9795 182.901 13.8777C182.561 13.6329 182.123 13.802 181.728 13.7392L181.73 13.7393Z" stroke="white" stroke-opacity="0.439216" stroke-width="0.664796" stroke-linecap="round" stroke-linejoin="round"/>
<path d="M204.754 9.31436C204.177 9.45657 203.388 9.17662 202.97 9.70834C202.828 10.341 203.495 11.0235 204.135 10.8235C204.796 10.8442 205.578 11.0877 206.143 10.6278C206.061 10.0179 205.418 9.69369 204.973 9.35739C204.903 9.32979 204.83 9.30567 204.754 9.31427L204.754 9.31436Z" stroke="white" stroke-opacity="0.439216" stroke-width="0.664796" stroke-linecap="round" stroke-linejoin="round"/>
<path d="M207.381 23.3129C206.804 23.4551 206.016 23.1751 205.597 23.7069C205.455 24.3396 206.123 25.022 206.762 24.8221C207.423 24.8428 208.205 25.0862 208.771 24.6263C208.688 24.0164 208.045 23.6922 207.601 23.3559C207.53 23.3283 207.457 23.3042 207.381 23.3128L207.381 23.3129Z" stroke="white" stroke-opacity="0.439216" stroke-width="0.664796" stroke-linecap="round" stroke-linejoin="round"/>
<path d="M215.96 19.047C215.429 19.1744 214.763 18.9127 214.339 19.3502C214.256 19.9355 214.887 20.4241 215.437 20.2432C216.014 20.2605 216.705 20.4818 217.199 20.1189C217.02 19.5985 216.475 19.284 216.027 19.0372C216.003 19.038 215.983 19.0165 215.96 19.048L215.96 19.047Z" stroke="white" stroke-opacity="0.439216" stroke-width="0.664796" stroke-linecap="round" stroke-linejoin="round"/>
<path d="M204.845 18.3975C204.633 18.3733 204.577 18.5332 204.771 18.6146C205.169 18.7842 205.621 18.5871 206.036 18.722C206.367 18.8052 206.19 18.6377 206.016 18.5359C205.675 18.2911 205.238 18.4602 204.843 18.3974L204.845 18.3975Z" stroke="white" stroke-opacity="0.439216" stroke-width="0.664796" stroke-linecap="round" stroke-linejoin="round"/>
<path d="M218.134 26.7647C217.451 26.8803 216.487 26.6398 216.085 27.3736C215.841 28.2222 216.762 29.1226 217.608 28.8899C218.335 28.9463 219.325 29.1696 219.814 28.4702C219.871 27.6419 219.007 27.1691 218.401 26.7957C218.315 26.7716 218.224 26.7571 218.133 26.7647L218.134 26.7647Z" stroke="white" stroke-opacity="0.439216" stroke-width="0.664796" stroke-linecap="round" stroke-linejoin="round"/>
<path d="M210.87 30.6711C210.658 30.647 210.603 30.8069 210.797 30.8883C211.194 31.0575 211.647 30.8607 212.062 30.9956C212.393 31.0788 212.215 30.9114 212.041 30.8096C211.701 30.5648 211.264 30.7344 210.869 30.6711L210.87 30.6711Z" stroke="white" stroke-opacity="0.439216" stroke-width="0.664796" stroke-linecap="round" stroke-linejoin="round"/>
<path d="M199.568 21.5255C199.171 21.6191 198.641 21.3895 198.326 21.6829C198.413 22.1204 198.944 22.1828 199.305 22.0937C199.657 22.0967 200.172 22.2649 200.439 22.1045C200.221 21.8479 199.907 21.5708 199.568 21.5242V21.5255Z" stroke="white" stroke-opacity="0.439216" stroke-width="0.664796" stroke-linecap="round" stroke-linejoin="round"/>
<path d="M197.731 27.5385C197.201 27.6658 196.534 27.4041 196.11 27.8416C196.027 28.427 196.658 28.9155 197.208 28.7347C197.785 28.752 198.476 28.9732 198.971 28.6104C198.791 28.09 198.246 27.7754 197.798 27.5287C197.774 27.5294 197.754 27.508 197.731 27.5395L197.731 27.5385Z" stroke="white" stroke-opacity="0.439216" stroke-width="0.664796" stroke-linecap="round" stroke-linejoin="round"/>
<path d="M194.675 13.4688C193.992 13.5844 193.028 13.3439 192.626 14.0777C192.383 14.9263 193.303 15.8267 194.149 15.594C194.876 15.6504 195.866 15.8737 196.355 15.1743C196.412 14.346 195.548 13.8732 194.942 13.4998C194.856 13.4757 194.765 13.4612 194.675 13.4688L194.675 13.4688Z" stroke="white" stroke-opacity="0.439216" stroke-width="0.664796" stroke-linecap="round" stroke-linejoin="round"/>
<path d="M221.311 15.6323C220.915 15.7259 220.384 15.4963 220.07 15.7901C220.157 16.2275 220.688 16.2899 221.049 16.2008C221.4 16.2038 221.916 16.3721 222.183 16.2116C221.965 15.9551 221.651 15.678 221.311 15.6313V15.6323Z" stroke="white" stroke-opacity="0.439216" stroke-width="0.664796" stroke-linecap="round" stroke-linejoin="round"/>
<path d="M210.075 1.59062C209.392 1.70627 208.429 1.46571 208.026 2.19954C207.783 3.04819 208.703 3.94862 209.549 3.71587C210.276 3.77227 211.266 3.99555 211.755 3.29619C211.812 2.46786 210.948 1.99506 210.342 1.62166C210.256 1.59756 210.165 1.58305 210.075 1.59065L210.075 1.59062Z" stroke="white" stroke-opacity="0.439216" stroke-width="0.664796" stroke-linecap="round" stroke-linejoin="round"/>
<path d="M219.496 6.63648C219.283 6.61238 219.228 6.77219 219.422 6.85364C219.82 7.02282 220.272 6.82602 220.688 6.96094C221.018 7.04414 220.841 6.87676 220.667 6.77488C220.326 6.53009 219.889 6.69917 219.494 6.63636L219.496 6.63648Z" stroke="white" stroke-opacity="0.439216" stroke-width="0.664796" stroke-linecap="round" stroke-linejoin="round"/>
<path d="M199.32 4.29675C198.924 4.39035 198.393 4.16072 198.078 4.45419C198.166 4.89162 198.696 4.95403 199.057 4.86487C199.409 4.86787 199.924 5.03613 200.191 4.87567C199.974 4.61915 199.659 4.34204 199.32 4.29541V4.29675Z" stroke="white" stroke-opacity="0.439216" stroke-width="0.664796" stroke-linecap="round" stroke-linejoin="round"/>
<path d="M213.73 13.7393C213.518 13.7152 213.462 13.875 213.656 13.9564C214.054 14.1256 214.506 13.9288 214.922 14.0638C215.252 14.147 215.075 13.9795 214.901 13.8777C214.561 13.6329 214.123 13.802 213.728 13.7392L213.73 13.7393Z" stroke="white" stroke-opacity="0.439216" stroke-width="0.664796" stroke-linecap="round" stroke-linejoin="round"/>
<path d="M236.754 9.31436C236.177 9.45657 235.388 9.17662 234.97 9.70834C234.828 10.341 235.495 11.0235 236.135 10.8235C236.796 10.8442 237.578 11.0877 238.143 10.6278C238.061 10.0179 237.418 9.69369 236.973 9.35739C236.903 9.32979 236.83 9.30567 236.754 9.31427L236.754 9.31436Z" stroke="white" stroke-opacity="0.439216" stroke-width="0.664796" stroke-linecap="round" stroke-linejoin="round"/>
<path d="M239.381 23.3129C238.804 23.4551 238.016 23.1751 237.597 23.7069C237.455 24.3396 238.123 25.022 238.762 24.8221C239.423 24.8428 240.205 25.0862 240.771 24.6263C240.688 24.0164 240.045 23.6922 239.601 23.3559C239.53 23.3283 239.457 23.3042 239.381 23.3128L239.381 23.3129Z" stroke="white" stroke-opacity="0.439216" stroke-width="0.664796" stroke-linecap="round" stroke-linejoin="round"/>
<path d="M247.96 19.047C247.429 19.1744 246.763 18.9127 246.339 19.3502C246.256 19.9355 246.887 20.4241 247.437 20.2432C248.014 20.2605 248.705 20.4818 249.199 20.1189C249.02 19.5985 248.475 19.284 248.027 19.0372C248.003 19.038 247.983 19.0165 247.96 19.048L247.96 19.047Z" stroke="white" stroke-opacity="0.439216" stroke-width="0.664796" stroke-linecap="round" stroke-linejoin="round"/>
<path d="M236.845 18.3975C236.633 18.3733 236.577 18.5332 236.771 18.6146C237.169 18.7842 237.621 18.5871 238.036 18.722C238.367 18.8052 238.19 18.6377 238.016 18.5359C237.675 18.2911 237.238 18.4602 236.843 18.3974L236.845 18.3975Z" stroke="white" stroke-opacity="0.439216" stroke-width="0.664796" stroke-linecap="round" stroke-linejoin="round"/>
<path d="M250.134 26.7647C249.451 26.8803 248.487 26.6398 248.085 27.3736C247.841 28.2222 248.762 29.1226 249.608 28.8899C250.335 28.9463 251.325 29.1696 251.814 28.4702C251.871 27.6419 251.007 27.1691 250.401 26.7957C250.315 26.7716 250.224 26.7571 250.133 26.7647L250.134 26.7647Z" stroke="white" stroke-opacity="0.439216" stroke-width="0.664796" stroke-linecap="round" stroke-linejoin="round"/>
<path d="M242.87 30.6711C242.658 30.647 242.603 30.8069 242.797 30.8883C243.194 31.0575 243.647 30.8607 244.062 30.9956C244.393 31.0788 244.215 30.9114 244.041 30.8096C243.701 30.5648 243.264 30.7344 242.869 30.6711L242.87 30.6711Z" stroke="white" stroke-opacity="0.439216" stroke-width="0.664796" stroke-linecap="round" stroke-linejoin="round"/>
<path d="M231.568 21.5255C231.171 21.6191 230.641 21.3895 230.326 21.6829C230.413 22.1204 230.944 22.1828 231.305 22.0937C231.657 22.0967 232.172 22.2649 232.439 22.1045C232.221 21.8479 231.907 21.5708 231.568 21.5242V21.5255Z" stroke="white" stroke-opacity="0.439216" stroke-width="0.664796" stroke-linecap="round" stroke-linejoin="round"/>
<path d="M229.731 27.5385C229.201 27.6658 228.534 27.4041 228.11 27.8416C228.027 28.427 228.658 28.9155 229.208 28.7347C229.785 28.752 230.476 28.9732 230.971 28.6104C230.791 28.09 230.246 27.7754 229.798 27.5287C229.774 27.5294 229.754 27.508 229.731 27.5395L229.731 27.5385Z" stroke="white" stroke-opacity="0.439216" stroke-width="0.664796" stroke-linecap="round" stroke-linejoin="round"/>
<path d="M226.675 13.4688C225.992 13.5844 225.028 13.3439 224.626 14.0777C224.383 14.9263 225.303 15.8267 226.149 15.594C226.876 15.6504 227.866 15.8737 228.355 15.1743C228.412 14.346 227.548 13.8732 226.942 13.4998C226.856 13.4757 226.765 13.4612 226.675 13.4688L226.675 13.4688Z" stroke="white" stroke-opacity="0.439216" stroke-width="0.664796" stroke-linecap="round" stroke-linejoin="round"/>
<path d="M253.311 15.6323C252.915 15.7259 252.384 15.4963 252.07 15.7901C252.157 16.2275 252.688 16.2899 253.049 16.2008C253.4 16.2038 253.916 16.3721 254.183 16.2116C253.965 15.9551 253.651 15.678 253.311 15.6313V15.6323Z" stroke="white" stroke-opacity="0.439216" stroke-width="0.664796" stroke-linecap="round" stroke-linejoin="round"/>
<path d="M242.075 1.59062C241.392 1.70627 240.429 1.46571 240.026 2.19954C239.783 3.04819 240.703 3.94862 241.549 3.71587C242.276 3.77227 243.266 3.99555 243.755 3.29619C243.812 2.46786 242.948 1.99506 242.342 1.62166C242.256 1.59756 242.165 1.58305 242.075 1.59065L242.075 1.59062Z" stroke="white" stroke-opacity="0.439216" stroke-width="0.664796" stroke-linecap="round" stroke-linejoin="round"/>
<path d="M251.496 6.63648C251.283 6.61238 251.228 6.77219 251.422 6.85364C251.82 7.02282 252.272 6.82602 252.688 6.96094C253.018 7.04414 252.841 6.87676 252.667 6.77488C252.326 6.53009 251.889 6.69917 251.494 6.63636L251.496 6.63648Z" stroke="white" stroke-opacity="0.439216" stroke-width="0.664796" stroke-linecap="round" stroke-linejoin="round"/>
<path d="M231.32 4.29675C230.924 4.39035 230.393 4.16072 230.078 4.45419C230.166 4.89162 230.696 4.95403 231.057 4.86487C231.409 4.86787 231.924 5.03613 232.191 4.87567C231.974 4.61915 231.659 4.34204 231.32 4.29541V4.29675Z" stroke="white" stroke-opacity="0.439216" stroke-width="0.664796" stroke-linecap="round" stroke-linejoin="round"/>
<path d="M245.73 13.7393C245.518 13.7152 245.462 13.875 245.656 13.9564C246.054 14.1256 246.506 13.9288 246.922 14.0638C247.252 14.147 247.075 13.9795 246.901 13.8777C246.561 13.6329 246.123 13.802 245.728 13.7392L245.73 13.7393Z" stroke="white" stroke-opacity="0.439216" stroke-width="0.664796" stroke-linecap="round" stroke-linejoin="round"/>
<path d="M268.754 9.31436C268.177 9.45657 267.388 9.17662 266.97 9.70834C266.828 10.341 267.495 11.0235 268.135 10.8235C268.796 10.8442 269.578 11.0877 270.143 10.6278C270.061 10.0179 269.418 9.69369 268.973 9.35739C268.903 9.32979 268.83 9.30567 268.754 9.31427L268.754 9.31436Z" stroke="white" stroke-opacity="0.439216" stroke-width="0.664796" stroke-linecap="round" stroke-linejoin="round"/>
<path d="M271.381 23.3129C270.804 23.4551 270.016 23.1751 269.597 23.7069C269.455 24.3396 270.123 25.022 270.762 24.8221C271.423 24.8428 272.205 25.0862 272.771 24.6263C272.688 24.0164 272.045 23.6922 271.601 23.3559C271.53 23.3283 271.457 23.3042 271.381 23.3128L271.381 23.3129Z" stroke="white" stroke-opacity="0.439216" stroke-width="0.664796" stroke-linecap="round" stroke-linejoin="round"/>
<path d="M279.96 19.047C279.429 19.1744 278.763 18.9127 278.339 19.3502C278.256 19.9355 278.887 20.4241 279.437 20.2432C280.014 20.2605 280.705 20.4818 281.199 20.1189C281.02 19.5985 280.475 19.284 280.027 19.0372C280.003 19.038 279.983 19.0165 279.96 19.048L279.96 19.047Z" stroke="white" stroke-opacity="0.439216" stroke-width="0.664796" stroke-linecap="round" stroke-linejoin="round"/>
<path d="M268.845 18.3975C268.633 18.3733 268.577 18.5332 268.771 18.6146C269.169 18.7842 269.621 18.5871 270.036 18.722C270.367 18.8052 270.19 18.6377 270.016 18.5359C269.675 18.2911 269.238 18.4602 268.843 18.3974L268.845 18.3975Z" stroke="white" stroke-opacity="0.439216" stroke-width="0.664796" stroke-linecap="round" stroke-linejoin="round"/>
<path d="M282.134 26.7647C281.451 26.8803 280.487 26.6398 280.085 27.3736C279.841 28.2222 280.762 29.1226 281.608 28.8899C282.335 28.9463 283.325 29.1696 283.814 28.4702C283.871 27.6419 283.007 27.1691 282.401 26.7957C282.315 26.7716 282.224 26.7571 282.133 26.7647L282.134 26.7647Z" stroke="white" stroke-opacity="0.439216" stroke-width="0.664796" stroke-linecap="round" stroke-linejoin="round"/>
<path d="M274.87 30.6711C274.658 30.647 274.603 30.8069 274.797 30.8883C275.194 31.0575 275.647 30.8607 276.062 30.9956C276.393 31.0788 276.215 30.9114 276.041 30.8096C275.701 30.5648 275.264 30.7344 274.869 30.6711L274.87 30.6711Z" stroke="white" stroke-opacity="0.439216" stroke-width="0.664796" stroke-linecap="round" stroke-linejoin="round"/>
<path d="M263.568 21.5255C263.171 21.6191 262.641 21.3895 262.326 21.6829C262.413 22.1204 262.944 22.1828 263.305 22.0937C263.657 22.0967 264.172 22.2649 264.439 22.1045C264.221 21.8479 263.907 21.5708 263.568 21.5242V21.5255Z" stroke="white" stroke-opacity="0.439216" stroke-width="0.664796" stroke-linecap="round" stroke-linejoin="round"/>
<path d="M261.731 27.5385C261.201 27.6658 260.534 27.4041 260.11 27.8416C260.027 28.427 260.658 28.9155 261.208 28.7347C261.785 28.752 262.476 28.9732 262.971 28.6104C262.791 28.09 262.246 27.7754 261.798 27.5287C261.774 27.5294 261.754 27.508 261.731 27.5395L261.731 27.5385Z" stroke="white" stroke-opacity="0.439216" stroke-width="0.664796" stroke-linecap="round" stroke-linejoin="round"/>
<path d="M258.675 13.4688C257.992 13.5844 257.028 13.3439 256.626 14.0777C256.383 14.9263 257.303 15.8267 258.149 15.594C258.876 15.6504 259.866 15.8737 260.355 15.1743C260.412 14.346 259.548 13.8732 258.942 13.4998C258.856 13.4757 258.765 13.4612 258.675 13.4688L258.675 13.4688Z" stroke="white" stroke-opacity="0.439216" stroke-width="0.664796" stroke-linecap="round" stroke-linejoin="round"/>
<path d="M285.311 15.6323C284.915 15.7259 284.384 15.4963 284.07 15.7901C284.157 16.2275 284.688 16.2899 285.049 16.2008C285.4 16.2038 285.916 16.3721 286.183 16.2116C285.965 15.9551 285.651 15.678 285.311 15.6313V15.6323Z" stroke="white" stroke-opacity="0.439216" stroke-width="0.664796" stroke-linecap="round" stroke-linejoin="round"/>
<path d="M274.075 1.59062C273.392 1.70627 272.429 1.46571 272.026 2.19954C271.783 3.04819 272.703 3.94862 273.549 3.71587C274.276 3.77227 275.266 3.99555 275.755 3.29619C275.812 2.46786 274.948 1.99506 274.342 1.62166C274.256 1.59756 274.165 1.58305 274.075 1.59065L274.075 1.59062Z" stroke="white" stroke-opacity="0.439216" stroke-width="0.664796" stroke-linecap="round" stroke-linejoin="round"/>
<path d="M283.496 6.63648C283.283 6.61238 283.228 6.77219 283.422 6.85364C283.82 7.02282 284.272 6.82602 284.688 6.96094C285.018 7.04414 284.841 6.87676 284.667 6.77488C284.326 6.53009 283.889 6.69917 283.494 6.63636L283.496 6.63648Z" stroke="white" stroke-opacity="0.439216" stroke-width="0.664796" stroke-linecap="round" stroke-linejoin="round"/>
<path d="M263.32 4.29675C262.924 4.39035 262.393 4.16072 262.078 4.45419C262.166 4.89162 262.696 4.95403 263.057 4.86487C263.409 4.86787 263.924 5.03613 264.191 4.87567C263.974 4.61915 263.659 4.34204 263.32 4.29541V4.29675Z" stroke="white" stroke-opacity="0.439216" stroke-width="0.664796" stroke-linecap="round" stroke-linejoin="round"/>
<path d="M277.73 13.7393C277.518 13.7152 277.462 13.875 277.656 13.9564C278.054 14.1256 278.506 13.9288 278.922 14.0638C279.252 14.147 279.075 13.9795 278.901 13.8777C278.561 13.6329 278.123 13.802 277.728 13.7392L277.73 13.7393Z" stroke="white" stroke-opacity="0.439216" stroke-width="0.664796" stroke-linecap="round" stroke-linejoin="round"/>
<path d="M300.754 9.31436C300.177 9.45657 299.388 9.17662 298.97 9.70834C298.828 10.341 299.495 11.0235 300.135 10.8235C300.796 10.8442 301.578 11.0877 302.143 10.6278C302.061 10.0179 301.418 9.69369 300.973 9.35739C300.903 9.32979 300.83 9.30567 300.754 9.31427L300.754 9.31436Z" stroke="white" stroke-opacity="0.439216" stroke-width="0.664796" stroke-linecap="round" stroke-linejoin="round"/>
<path d="M295.568 21.5255C295.171 21.6191 294.641 21.3895 294.326 21.6829C294.413 22.1204 294.944 22.1828 295.305 22.0937C295.657 22.0967 296.172 22.2649 296.439 22.1045C296.221 21.8479 295.907 21.5708 295.568 21.5242V21.5255Z" stroke="white" stroke-opacity="0.439216" stroke-width="0.664796" stroke-linecap="round" stroke-linejoin="round"/>
<path d="M293.731 27.5385C293.201 27.6658 292.534 27.4041 292.11 27.8416C292.027 28.427 292.658 28.9155 293.208 28.7347C293.785 28.752 294.476 28.9732 294.971 28.6104C294.791 28.09 294.246 27.7754 293.798 27.5287C293.774 27.5294 293.754 27.508 293.731 27.5395L293.731 27.5385Z" stroke="white" stroke-opacity="0.439216" stroke-width="0.664796" stroke-linecap="round" stroke-linejoin="round"/>
<path d="M290.675 13.4688C289.992 13.5844 289.028 13.3439 288.626 14.0777C288.383 14.9263 289.303 15.8267 290.149 15.594C290.876 15.6504 291.866 15.8737 292.355 15.1743C292.412 14.346 291.548 13.8732 290.942 13.4998C290.856 13.4757 290.765 13.4612 290.675 13.4688L290.675 13.4688Z" stroke="white" stroke-opacity="0.439216" stroke-width="0.664796" stroke-linecap="round" stroke-linejoin="round"/>
<path d="M295.32 4.29675C294.924 4.39035 294.393 4.16072 294.078 4.45419C294.166 4.89162 294.696 4.95403 295.057 4.86487C295.409 4.86787 295.924 5.03613 296.191 4.87567C295.974 4.61915 295.659 4.34204 295.32 4.29541V4.29675Z" stroke="white" stroke-opacity="0.439216" stroke-width="0.664796" stroke-linecap="round" stroke-linejoin="round"/>
<path d="M18.0748 33.5906C17.3922 33.7063 16.4285 33.4657 16.0259 34.1995C15.7825 35.0482 16.7029 35.9486 17.5494 35.7159C18.276 35.7723 19.266 35.9955 19.7553 35.2962C19.812 34.4679 18.9483 33.9951 18.3422 33.6217C18.2559 33.5976 18.1648 33.5831 18.0746 33.5907L18.0748 33.5906Z" stroke="white" stroke-opacity="0.439216" stroke-width="0.664796" stroke-linecap="round" stroke-linejoin="round"/>
<path d="M50.0748 33.5906C49.3922 33.7063 48.4285 33.4657 48.0259 34.1995C47.7825 35.0482 48.7029 35.9486 49.5494 35.7159C50.276 35.7723 51.266 35.9955 51.7553 35.2962C51.812 34.4679 50.9483 33.9951 50.3422 33.6217C50.2559 33.5976 50.1648 33.5831 50.0746 33.5907L50.0748 33.5906Z" stroke="white" stroke-opacity="0.439216" stroke-width="0.664796" stroke-linecap="round" stroke-linejoin="round"/>
<path d="M82.0748 33.5906C81.3922 33.7063 80.4285 33.4657 80.0259 34.1995C79.7825 35.0482 80.7029 35.9486 81.5494 35.7159C82.276 35.7723 83.266 35.9955 83.7553 35.2962C83.812 34.4679 82.9483 33.9951 82.3422 33.6217C82.2559 33.5976 82.1648 33.5831 82.0746 33.5907L82.0748 33.5906Z" stroke="white" stroke-opacity="0.439216" stroke-width="0.664796" stroke-linecap="round" stroke-linejoin="round"/>
<path d="M114.075 33.5906C113.392 33.7063 112.429 33.4657 112.026 34.1995C111.783 35.0482 112.703 35.9486 113.549 35.7159C114.276 35.7723 115.266 35.9955 115.755 35.2962C115.812 34.4679 114.948 33.9951 114.342 33.6217C114.256 33.5976 114.165 33.5831 114.075 33.5907L114.075 33.5906Z" stroke="white" stroke-opacity="0.439216" stroke-width="0.664796" stroke-linecap="round" stroke-linejoin="round"/>
<path d="M146.075 33.5906C145.392 33.7063 144.429 33.4657 144.026 34.1995C143.783 35.0482 144.703 35.9486 145.549 35.7159C146.276 35.7723 147.266 35.9955 147.755 35.2962C147.812 34.4679 146.948 33.9951 146.342 33.6217C146.256 33.5976 146.165 33.5831 146.075 33.5907L146.075 33.5906Z" stroke="white" stroke-opacity="0.439216" stroke-width="0.664796" stroke-linecap="round" stroke-linejoin="round"/>
<path d="M178.075 33.5906C177.392 33.7063 176.429 33.4657 176.026 34.1995C175.783 35.0482 176.703 35.9486 177.549 35.7159C178.276 35.7723 179.266 35.9955 179.755 35.2962C179.812 34.4679 178.948 33.9951 178.342 33.6217C178.256 33.5976 178.165 33.5831 178.075 33.5907L178.075 33.5906Z" stroke="white" stroke-opacity="0.439216" stroke-width="0.664796" stroke-linecap="round" stroke-linejoin="round"/>
<path d="M210.075 33.5906C209.392 33.7063 208.429 33.4657 208.026 34.1995C207.783 35.0482 208.703 35.9486 209.549 35.7159C210.276 35.7723 211.266 35.9955 211.755 35.2962C211.812 34.4679 210.948 33.9951 210.342 33.6217C210.256 33.5976 210.165 33.5831 210.075 33.5907L210.075 33.5906Z" stroke="white" stroke-opacity="0.439216" stroke-width="0.664796" stroke-linecap="round" stroke-linejoin="round"/>
<path d="M242.075 33.5906C241.392 33.7063 240.429 33.4657 240.026 34.1995C239.783 35.0482 240.703 35.9486 241.549 35.7159C242.276 35.7723 243.266 35.9955 243.755 35.2962C243.812 34.4679 242.948 33.9951 242.342 33.6217C242.256 33.5976 242.165 33.5831 242.075 33.5907L242.075 33.5906Z" stroke="white" stroke-opacity="0.439216" stroke-width="0.664796" stroke-linecap="round" stroke-linejoin="round"/>
<path d="M274.075 33.5906C273.392 33.7063 272.429 33.4657 272.026 34.1995C271.783 35.0482 272.703 35.9486 273.549 35.7159C274.276 35.7723 275.266 35.9955 275.755 35.2962C275.812 34.4679 274.948 33.9951 274.342 33.6217C274.256 33.5976 274.165 33.5831 274.075 33.5907L274.075 33.5906Z" stroke="white" stroke-opacity="0.439216" stroke-width="0.664796" stroke-linecap="round" stroke-linejoin="round"/>
</g>
<defs>
<clipPath id="clip0_236_9420">
<rect width="300" height="35" fill="white"/>
</clipPath>
</defs>
</svg>
