<svg width="300" height="35" viewBox="0 0 300 35" fill="none" xmlns="http://www.w3.org/2000/svg">
<g clip-path="url(#clip0_236_10532)">
<rect x="1" y="1" width="298" height="33" stroke="#FC86AE" stroke-opacity="0.8" stroke-width="2"/>
<g clip-path="url(#clip1_236_10532)">
<path d="M15.1965 0.00366211H15.9963V0.803479L0.799817 16H0V15.2002" fill="#FC86AE" fill-opacity="0.819277"/>
<path d="M0.799817 0.00366211L0 0.803479V0.00366211" fill="#FC86AE" fill-opacity="0.819277"/>
<path d="M15.1965 16H15.9964V15.2002" fill="#FC86AE" fill-opacity="0.819277"/>
</g>
<g clip-path="url(#clip2_236_10532)">
<path d="M31.1965 0.00366211H31.9963V0.803479L16.7998 16H16V15.2002" fill="#FC86AE" fill-opacity="0.819277"/>
<path d="M16.7998 0.00366211L16 0.803479V0.00366211" fill="#FC86AE" fill-opacity="0.819277"/>
<path d="M31.1965 16H31.9964V15.2002" fill="#FC86AE" fill-opacity="0.819277"/>
</g>
<g clip-path="url(#clip3_236_10532)">
<path d="M47.1965 0.00366211H47.9963V0.803479L32.7998 16H32V15.2002" fill="#FC86AE" fill-opacity="0.819277"/>
<path d="M32.7998 0.00366211L32 0.803479V0.00366211" fill="#FC86AE" fill-opacity="0.819277"/>
<path d="M47.1965 16H47.9964V15.2002" fill="#FC86AE" fill-opacity="0.819277"/>
</g>
<g clip-path="url(#clip4_236_10532)">
<path d="M63.1965 0.00366211H63.9963V0.803479L48.7998 16H48V15.2002" fill="#FC86AE" fill-opacity="0.819277"/>
<path d="M48.7998 0.00366211L48 0.803479V0.00366211" fill="#FC86AE" fill-opacity="0.819277"/>
<path d="M63.1965 16H63.9964V15.2002" fill="#FC86AE" fill-opacity="0.819277"/>
</g>
<g clip-path="url(#clip5_236_10532)">
<path d="M79.1965 0.00366211H79.9963V0.803479L64.7998 16H64V15.2002" fill="#FC86AE" fill-opacity="0.819277"/>
<path d="M64.7998 0.00366211L64 0.803479V0.00366211" fill="#FC86AE" fill-opacity="0.819277"/>
<path d="M79.1965 16H79.9964V15.2002" fill="#FC86AE" fill-opacity="0.819277"/>
</g>
<g clip-path="url(#clip6_236_10532)">
<path d="M95.1965 0.00366211H95.9963V0.803479L80.7998 16H80V15.2002" fill="#FC86AE" fill-opacity="0.819277"/>
<path d="M80.7998 0.00366211L80 0.803479V0.00366211" fill="#FC86AE" fill-opacity="0.819277"/>
<path d="M95.1965 16H95.9964V15.2002" fill="#FC86AE" fill-opacity="0.819277"/>
</g>
<g clip-path="url(#clip7_236_10532)">
<path d="M111.197 0.00366211H111.996V0.803479L96.7998 16H96V15.2002" fill="#FC86AE" fill-opacity="0.819277"/>
<path d="M96.7998 0.00366211L96 0.803479V0.00366211" fill="#FC86AE" fill-opacity="0.819277"/>
<path d="M111.197 16H111.996V15.2002" fill="#FC86AE" fill-opacity="0.819277"/>
</g>
<g clip-path="url(#clip8_236_10532)">
<path d="M127.197 0.00366211H127.996V0.803479L112.8 16H112V15.2002" fill="#FC86AE" fill-opacity="0.819277"/>
<path d="M112.8 0.00366211L112 0.803479V0.00366211" fill="#FC86AE" fill-opacity="0.819277"/>
<path d="M127.197 16H127.996V15.2002" fill="#FC86AE" fill-opacity="0.819277"/>
</g>
<g clip-path="url(#clip9_236_10532)">
<path d="M143.197 0.00366211H143.996V0.803479L128.8 16H128V15.2002" fill="#FC86AE" fill-opacity="0.819277"/>
<path d="M128.8 0.00366211L128 0.803479V0.00366211" fill="#FC86AE" fill-opacity="0.819277"/>
<path d="M143.197 16H143.996V15.2002" fill="#FC86AE" fill-opacity="0.819277"/>
</g>
<g clip-path="url(#clip10_236_10532)">
<path d="M159.197 0.00366211H159.996V0.803479L144.8 16H144V15.2002" fill="#FC86AE" fill-opacity="0.819277"/>
<path d="M144.8 0.00366211L144 0.803479V0.00366211" fill="#FC86AE" fill-opacity="0.819277"/>
<path d="M159.197 16H159.996V15.2002" fill="#FC86AE" fill-opacity="0.819277"/>
</g>
<g clip-path="url(#clip11_236_10532)">
<path d="M175.197 0.00366211H175.996V0.803479L160.8 16H160V15.2002" fill="#FC86AE" fill-opacity="0.819277"/>
<path d="M160.8 0.00366211L160 0.803479V0.00366211" fill="#FC86AE" fill-opacity="0.819277"/>
<path d="M175.197 16H175.996V15.2002" fill="#FC86AE" fill-opacity="0.819277"/>
</g>
<g clip-path="url(#clip12_236_10532)">
<path d="M191.197 0.00366211H191.996V0.803479L176.8 16H176V15.2002" fill="#FC86AE" fill-opacity="0.819277"/>
<path d="M176.8 0.00366211L176 0.803479V0.00366211" fill="#FC86AE" fill-opacity="0.819277"/>
<path d="M191.197 16H191.996V15.2002" fill="#FC86AE" fill-opacity="0.819277"/>
</g>
<g clip-path="url(#clip13_236_10532)">
<path d="M207.197 0.00366211H207.996V0.803479L192.8 16H192V15.2002" fill="#FC86AE" fill-opacity="0.819277"/>
<path d="M192.8 0.00366211L192 0.803479V0.00366211" fill="#FC86AE" fill-opacity="0.819277"/>
<path d="M207.197 16H207.996V15.2002" fill="#FC86AE" fill-opacity="0.819277"/>
</g>
<g clip-path="url(#clip14_236_10532)">
<path d="M223.197 0.00366211H223.996V0.803479L208.8 16H208V15.2002" fill="#FC86AE" fill-opacity="0.819277"/>
<path d="M208.8 0.00366211L208 0.803479V0.00366211" fill="#FC86AE" fill-opacity="0.819277"/>
<path d="M223.197 16H223.996V15.2002" fill="#FC86AE" fill-opacity="0.819277"/>
</g>
<g clip-path="url(#clip15_236_10532)">
<path d="M239.197 0.00366211H239.996V0.803479L224.8 16H224V15.2002" fill="#FC86AE" fill-opacity="0.819277"/>
<path d="M224.8 0.00366211L224 0.803479V0.00366211" fill="#FC86AE" fill-opacity="0.819277"/>
<path d="M239.197 16H239.996V15.2002" fill="#FC86AE" fill-opacity="0.819277"/>
</g>
<g clip-path="url(#clip16_236_10532)">
<path d="M255.197 0.00366211H255.996V0.803479L240.8 16H240V15.2002" fill="#FC86AE" fill-opacity="0.819277"/>
<path d="M240.8 0.00366211L240 0.803479V0.00366211" fill="#FC86AE" fill-opacity="0.819277"/>
<path d="M255.197 16H255.996V15.2002" fill="#FC86AE" fill-opacity="0.819277"/>
</g>
<g clip-path="url(#clip17_236_10532)">
<path d="M271.197 0.00366211H271.996V0.803479L256.8 16H256V15.2002" fill="#FC86AE" fill-opacity="0.819277"/>
<path d="M256.8 0.00366211L256 0.803479V0.00366211" fill="#FC86AE" fill-opacity="0.819277"/>
<path d="M271.197 16H271.996V15.2002" fill="#FC86AE" fill-opacity="0.819277"/>
</g>
<g clip-path="url(#clip18_236_10532)">
<path d="M287.197 0.00366211H287.996V0.803479L272.8 16H272V15.2002" fill="#FC86AE" fill-opacity="0.819277"/>
<path d="M272.8 0.00366211L272 0.803479V0.00366211" fill="#FC86AE" fill-opacity="0.819277"/>
<path d="M287.197 16H287.996V15.2002" fill="#FC86AE" fill-opacity="0.819277"/>
</g>
<g clip-path="url(#clip19_236_10532)">
<path d="M303.197 0.00366211H303.996V0.803479L288.8 16H288V15.2002" fill="#FC86AE" fill-opacity="0.819277"/>
<path d="M288.8 0.00366211L288 0.803479V0.00366211" fill="#FC86AE" fill-opacity="0.819277"/>
</g>
<g clip-path="url(#clip20_236_10532)">
<path d="M15.1965 16.0037H15.9963V16.8035L0.799817 32H0V31.2002" fill="#FC86AE" fill-opacity="0.819277"/>
<path d="M0.799817 16.0037L0 16.8035V16.0037" fill="#FC86AE" fill-opacity="0.819277"/>
<path d="M15.1965 32H15.9964V31.2002" fill="#FC86AE" fill-opacity="0.819277"/>
</g>
<g clip-path="url(#clip21_236_10532)">
<path d="M31.1965 16.0037H31.9963V16.8035L16.7998 32H16V31.2002" fill="#FC86AE" fill-opacity="0.819277"/>
<path d="M16.7998 16.0037L16 16.8035V16.0037" fill="#FC86AE" fill-opacity="0.819277"/>
<path d="M31.1965 32H31.9964V31.2002" fill="#FC86AE" fill-opacity="0.819277"/>
</g>
<g clip-path="url(#clip22_236_10532)">
<path d="M47.1965 16.0037H47.9963V16.8035L32.7998 32H32V31.2002" fill="#FC86AE" fill-opacity="0.819277"/>
<path d="M32.7998 16.0037L32 16.8035V16.0037" fill="#FC86AE" fill-opacity="0.819277"/>
<path d="M47.1965 32H47.9964V31.2002" fill="#FC86AE" fill-opacity="0.819277"/>
</g>
<g clip-path="url(#clip23_236_10532)">
<path d="M63.1965 16.0037H63.9963V16.8035L48.7998 32H48V31.2002" fill="#FC86AE" fill-opacity="0.819277"/>
<path d="M48.7998 16.0037L48 16.8035V16.0037" fill="#FC86AE" fill-opacity="0.819277"/>
<path d="M63.1965 32H63.9964V31.2002" fill="#FC86AE" fill-opacity="0.819277"/>
</g>
<g clip-path="url(#clip24_236_10532)">
<path d="M79.1965 16.0037H79.9963V16.8035L64.7998 32H64V31.2002" fill="#FC86AE" fill-opacity="0.819277"/>
<path d="M64.7998 16.0037L64 16.8035V16.0037" fill="#FC86AE" fill-opacity="0.819277"/>
<path d="M79.1965 32H79.9964V31.2002" fill="#FC86AE" fill-opacity="0.819277"/>
</g>
<g clip-path="url(#clip25_236_10532)">
<path d="M95.1965 16.0037H95.9963V16.8035L80.7998 32H80V31.2002" fill="#FC86AE" fill-opacity="0.819277"/>
<path d="M80.7998 16.0037L80 16.8035V16.0037" fill="#FC86AE" fill-opacity="0.819277"/>
<path d="M95.1965 32H95.9964V31.2002" fill="#FC86AE" fill-opacity="0.819277"/>
</g>
<g clip-path="url(#clip26_236_10532)">
<path d="M111.197 16.0037H111.996V16.8035L96.7998 32H96V31.2002" fill="#FC86AE" fill-opacity="0.819277"/>
<path d="M96.7998 16.0037L96 16.8035V16.0037" fill="#FC86AE" fill-opacity="0.819277"/>
<path d="M111.197 32H111.996V31.2002" fill="#FC86AE" fill-opacity="0.819277"/>
</g>
<g clip-path="url(#clip27_236_10532)">
<path d="M127.197 16.0037H127.996V16.8035L112.8 32H112V31.2002" fill="#FC86AE" fill-opacity="0.819277"/>
<path d="M112.8 16.0037L112 16.8035V16.0037" fill="#FC86AE" fill-opacity="0.819277"/>
<path d="M127.197 32H127.996V31.2002" fill="#FC86AE" fill-opacity="0.819277"/>
</g>
<g clip-path="url(#clip28_236_10532)">
<path d="M143.197 16.0037H143.996V16.8035L128.8 32H128V31.2002" fill="#FC86AE" fill-opacity="0.819277"/>
<path d="M128.8 16.0037L128 16.8035V16.0037" fill="#FC86AE" fill-opacity="0.819277"/>
<path d="M143.197 32H143.996V31.2002" fill="#FC86AE" fill-opacity="0.819277"/>
</g>
<g clip-path="url(#clip29_236_10532)">
<path d="M159.197 16.0037H159.996V16.8035L144.8 32H144V31.2002" fill="#FC86AE" fill-opacity="0.819277"/>
<path d="M144.8 16.0037L144 16.8035V16.0037" fill="#FC86AE" fill-opacity="0.819277"/>
<path d="M159.197 32H159.996V31.2002" fill="#FC86AE" fill-opacity="0.819277"/>
</g>
<g clip-path="url(#clip30_236_10532)">
<path d="M175.197 16.0037H175.996V16.8035L160.8 32H160V31.2002" fill="#FC86AE" fill-opacity="0.819277"/>
<path d="M160.8 16.0037L160 16.8035V16.0037" fill="#FC86AE" fill-opacity="0.819277"/>
<path d="M175.197 32H175.996V31.2002" fill="#FC86AE" fill-opacity="0.819277"/>
</g>
<g clip-path="url(#clip31_236_10532)">
<path d="M191.197 16.0037H191.996V16.8035L176.8 32H176V31.2002" fill="#FC86AE" fill-opacity="0.819277"/>
<path d="M176.8 16.0037L176 16.8035V16.0037" fill="#FC86AE" fill-opacity="0.819277"/>
<path d="M191.197 32H191.996V31.2002" fill="#FC86AE" fill-opacity="0.819277"/>
</g>
<g clip-path="url(#clip32_236_10532)">
<path d="M207.197 16.0037H207.996V16.8035L192.8 32H192V31.2002" fill="#FC86AE" fill-opacity="0.819277"/>
<path d="M192.8 16.0037L192 16.8035V16.0037" fill="#FC86AE" fill-opacity="0.819277"/>
<path d="M207.197 32H207.996V31.2002" fill="#FC86AE" fill-opacity="0.819277"/>
</g>
<g clip-path="url(#clip33_236_10532)">
<path d="M223.197 16.0037H223.996V16.8035L208.8 32H208V31.2002" fill="#FC86AE" fill-opacity="0.819277"/>
<path d="M208.8 16.0037L208 16.8035V16.0037" fill="#FC86AE" fill-opacity="0.819277"/>
<path d="M223.197 32H223.996V31.2002" fill="#FC86AE" fill-opacity="0.819277"/>
</g>
<g clip-path="url(#clip34_236_10532)">
<path d="M239.197 16.0037H239.996V16.8035L224.8 32H224V31.2002" fill="#FC86AE" fill-opacity="0.819277"/>
<path d="M224.8 16.0037L224 16.8035V16.0037" fill="#FC86AE" fill-opacity="0.819277"/>
<path d="M239.197 32H239.996V31.2002" fill="#FC86AE" fill-opacity="0.819277"/>
</g>
<g clip-path="url(#clip35_236_10532)">
<path d="M255.197 16.0037H255.996V16.8035L240.8 32H240V31.2002" fill="#FC86AE" fill-opacity="0.819277"/>
<path d="M240.8 16.0037L240 16.8035V16.0037" fill="#FC86AE" fill-opacity="0.819277"/>
<path d="M255.197 32H255.996V31.2002" fill="#FC86AE" fill-opacity="0.819277"/>
</g>
<g clip-path="url(#clip36_236_10532)">
<path d="M271.197 16.0037H271.996V16.8035L256.8 32H256V31.2002" fill="#FC86AE" fill-opacity="0.819277"/>
<path d="M256.8 16.0037L256 16.8035V16.0037" fill="#FC86AE" fill-opacity="0.819277"/>
<path d="M271.197 32H271.996V31.2002" fill="#FC86AE" fill-opacity="0.819277"/>
</g>
<g clip-path="url(#clip37_236_10532)">
<path d="M287.197 16.0037H287.996V16.8035L272.8 32H272V31.2002" fill="#FC86AE" fill-opacity="0.819277"/>
<path d="M272.8 16.0037L272 16.8035V16.0037" fill="#FC86AE" fill-opacity="0.819277"/>
<path d="M287.197 32H287.996V31.2002" fill="#FC86AE" fill-opacity="0.819277"/>
</g>
<g clip-path="url(#clip38_236_10532)">
<path d="M303.197 16.0037H303.996V16.8035L288.8 32H288V31.2002" fill="#FC86AE" fill-opacity="0.819277"/>
<path d="M288.8 16.0037L288 16.8035V16.0037" fill="#FC86AE" fill-opacity="0.819277"/>
</g>
<g clip-path="url(#clip39_236_10532)">
<path d="M15.1965 32.0037H15.9963V32.8035L0.799817 48H0V47.2002" fill="#FC86AE" fill-opacity="0.819277"/>
<path d="M0.799817 32.0037L0 32.8035V32.0037" fill="#FC86AE" fill-opacity="0.819277"/>
</g>
<g clip-path="url(#clip40_236_10532)">
<path d="M31.1965 32.0037H31.9963V32.8035L16.7998 48H16V47.2002" fill="#FC86AE" fill-opacity="0.819277"/>
<path d="M16.7998 32.0037L16 32.8035V32.0037" fill="#FC86AE" fill-opacity="0.819277"/>
</g>
<g clip-path="url(#clip41_236_10532)">
<path d="M47.1965 32.0037H47.9963V32.8035L32.7998 48H32V47.2002" fill="#FC86AE" fill-opacity="0.819277"/>
<path d="M32.7998 32.0037L32 32.8035V32.0037" fill="#FC86AE" fill-opacity="0.819277"/>
</g>
<g clip-path="url(#clip42_236_10532)">
<path d="M63.1965 32.0037H63.9963V32.8035L48.7998 48H48V47.2002" fill="#FC86AE" fill-opacity="0.819277"/>
<path d="M48.7998 32.0037L48 32.8035V32.0037" fill="#FC86AE" fill-opacity="0.819277"/>
</g>
<g clip-path="url(#clip43_236_10532)">
<path d="M79.1965 32.0037H79.9963V32.8035L64.7998 48H64V47.2002" fill="#FC86AE" fill-opacity="0.819277"/>
<path d="M64.7998 32.0037L64 32.8035V32.0037" fill="#FC86AE" fill-opacity="0.819277"/>
</g>
<g clip-path="url(#clip44_236_10532)">
<path d="M95.1965 32.0037H95.9963V32.8035L80.7998 48H80V47.2002" fill="#FC86AE" fill-opacity="0.819277"/>
<path d="M80.7998 32.0037L80 32.8035V32.0037" fill="#FC86AE" fill-opacity="0.819277"/>
</g>
<g clip-path="url(#clip45_236_10532)">
<path d="M111.197 32.0037H111.996V32.8035L96.7998 48H96V47.2002" fill="#FC86AE" fill-opacity="0.819277"/>
<path d="M96.7998 32.0037L96 32.8035V32.0037" fill="#FC86AE" fill-opacity="0.819277"/>
</g>
<g clip-path="url(#clip46_236_10532)">
<path d="M127.197 32.0037H127.996V32.8035L112.8 48H112V47.2002" fill="#FC86AE" fill-opacity="0.819277"/>
<path d="M112.8 32.0037L112 32.8035V32.0037" fill="#FC86AE" fill-opacity="0.819277"/>
</g>
<g clip-path="url(#clip47_236_10532)">
<path d="M143.197 32.0037H143.996V32.8035L128.8 48H128V47.2002" fill="#FC86AE" fill-opacity="0.819277"/>
<path d="M128.8 32.0037L128 32.8035V32.0037" fill="#FC86AE" fill-opacity="0.819277"/>
</g>
<g clip-path="url(#clip48_236_10532)">
<path d="M159.197 32.0037H159.996V32.8035L144.8 48H144V47.2002" fill="#FC86AE" fill-opacity="0.819277"/>
<path d="M144.8 32.0037L144 32.8035V32.0037" fill="#FC86AE" fill-opacity="0.819277"/>
</g>
<g clip-path="url(#clip49_236_10532)">
<path d="M175.197 32.0037H175.996V32.8035L160.8 48H160V47.2002" fill="#FC86AE" fill-opacity="0.819277"/>
<path d="M160.8 32.0037L160 32.8035V32.0037" fill="#FC86AE" fill-opacity="0.819277"/>
</g>
<g clip-path="url(#clip50_236_10532)">
<path d="M191.197 32.0037H191.996V32.8035L176.8 48H176V47.2002" fill="#FC86AE" fill-opacity="0.819277"/>
<path d="M176.8 32.0037L176 32.8035V32.0037" fill="#FC86AE" fill-opacity="0.819277"/>
</g>
<g clip-path="url(#clip51_236_10532)">
<path d="M207.197 32.0037H207.996V32.8035L192.8 48H192V47.2002" fill="#FC86AE" fill-opacity="0.819277"/>
<path d="M192.8 32.0037L192 32.8035V32.0037" fill="#FC86AE" fill-opacity="0.819277"/>
</g>
<g clip-path="url(#clip52_236_10532)">
<path d="M223.197 32.0037H223.996V32.8035L208.8 48H208V47.2002" fill="#FC86AE" fill-opacity="0.819277"/>
<path d="M208.8 32.0037L208 32.8035V32.0037" fill="#FC86AE" fill-opacity="0.819277"/>
</g>
<g clip-path="url(#clip53_236_10532)">
<path d="M239.197 32.0037H239.996V32.8035L224.8 48H224V47.2002" fill="#FC86AE" fill-opacity="0.819277"/>
<path d="M224.8 32.0037L224 32.8035V32.0037" fill="#FC86AE" fill-opacity="0.819277"/>
</g>
<g clip-path="url(#clip54_236_10532)">
<path d="M255.197 32.0037H255.996V32.8035L240.8 48H240V47.2002" fill="#FC86AE" fill-opacity="0.819277"/>
<path d="M240.8 32.0037L240 32.8035V32.0037" fill="#FC86AE" fill-opacity="0.819277"/>
</g>
<g clip-path="url(#clip55_236_10532)">
<path d="M271.197 32.0037H271.996V32.8035L256.8 48H256V47.2002" fill="#FC86AE" fill-opacity="0.819277"/>
<path d="M256.8 32.0037L256 32.8035V32.0037" fill="#FC86AE" fill-opacity="0.819277"/>
</g>
<g clip-path="url(#clip56_236_10532)">
<path d="M287.197 32.0037H287.996V32.8035L272.8 48H272V47.2002" fill="#FC86AE" fill-opacity="0.819277"/>
<path d="M272.8 32.0037L272 32.8035V32.0037" fill="#FC86AE" fill-opacity="0.819277"/>
</g>
<g clip-path="url(#clip57_236_10532)">
<path d="M303.197 32.0037H303.996V32.8035L288.8 48H288V47.2002" fill="#FC86AE" fill-opacity="0.819277"/>
<path d="M288.8 32.0037L288 32.8035V32.0037" fill="#FC86AE" fill-opacity="0.819277"/>
</g>
</g>
<defs>
<clipPath id="clip0_236_10532">
<rect width="300" height="35" fill="white"/>
</clipPath>
<clipPath id="clip1_236_10532">
<rect width="16" height="16" fill="white"/>
</clipPath>
<clipPath id="clip2_236_10532">
<rect width="16" height="16" fill="white" transform="translate(16)"/>
</clipPath>
<clipPath id="clip3_236_10532">
<rect width="16" height="16" fill="white" transform="translate(32)"/>
</clipPath>
<clipPath id="clip4_236_10532">
<rect width="16" height="16" fill="white" transform="translate(48)"/>
</clipPath>
<clipPath id="clip5_236_10532">
<rect width="16" height="16" fill="white" transform="translate(64)"/>
</clipPath>
<clipPath id="clip6_236_10532">
<rect width="16" height="16" fill="white" transform="translate(80)"/>
</clipPath>
<clipPath id="clip7_236_10532">
<rect width="16" height="16" fill="white" transform="translate(96)"/>
</clipPath>
<clipPath id="clip8_236_10532">
<rect width="16" height="16" fill="white" transform="translate(112)"/>
</clipPath>
<clipPath id="clip9_236_10532">
<rect width="16" height="16" fill="white" transform="translate(128)"/>
</clipPath>
<clipPath id="clip10_236_10532">
<rect width="16" height="16" fill="white" transform="translate(144)"/>
</clipPath>
<clipPath id="clip11_236_10532">
<rect width="16" height="16" fill="white" transform="translate(160)"/>
</clipPath>
<clipPath id="clip12_236_10532">
<rect width="16" height="16" fill="white" transform="translate(176)"/>
</clipPath>
<clipPath id="clip13_236_10532">
<rect width="16" height="16" fill="white" transform="translate(192)"/>
</clipPath>
<clipPath id="clip14_236_10532">
<rect width="16" height="16" fill="white" transform="translate(208)"/>
</clipPath>
<clipPath id="clip15_236_10532">
<rect width="16" height="16" fill="white" transform="translate(224)"/>
</clipPath>
<clipPath id="clip16_236_10532">
<rect width="16" height="16" fill="white" transform="translate(240)"/>
</clipPath>
<clipPath id="clip17_236_10532">
<rect width="16" height="16" fill="white" transform="translate(256)"/>
</clipPath>
<clipPath id="clip18_236_10532">
<rect width="16" height="16" fill="white" transform="translate(272)"/>
</clipPath>
<clipPath id="clip19_236_10532">
<rect width="16" height="16" fill="white" transform="translate(288)"/>
</clipPath>
<clipPath id="clip20_236_10532">
<rect width="16" height="16" fill="white" transform="translate(0 16)"/>
</clipPath>
<clipPath id="clip21_236_10532">
<rect width="16" height="16" fill="white" transform="translate(16 16)"/>
</clipPath>
<clipPath id="clip22_236_10532">
<rect width="16" height="16" fill="white" transform="translate(32 16)"/>
</clipPath>
<clipPath id="clip23_236_10532">
<rect width="16" height="16" fill="white" transform="translate(48 16)"/>
</clipPath>
<clipPath id="clip24_236_10532">
<rect width="16" height="16" fill="white" transform="translate(64 16)"/>
</clipPath>
<clipPath id="clip25_236_10532">
<rect width="16" height="16" fill="white" transform="translate(80 16)"/>
</clipPath>
<clipPath id="clip26_236_10532">
<rect width="16" height="16" fill="white" transform="translate(96 16)"/>
</clipPath>
<clipPath id="clip27_236_10532">
<rect width="16" height="16" fill="white" transform="translate(112 16)"/>
</clipPath>
<clipPath id="clip28_236_10532">
<rect width="16" height="16" fill="white" transform="translate(128 16)"/>
</clipPath>
<clipPath id="clip29_236_10532">
<rect width="16" height="16" fill="white" transform="translate(144 16)"/>
</clipPath>
<clipPath id="clip30_236_10532">
<rect width="16" height="16" fill="white" transform="translate(160 16)"/>
</clipPath>
<clipPath id="clip31_236_10532">
<rect width="16" height="16" fill="white" transform="translate(176 16)"/>
</clipPath>
<clipPath id="clip32_236_10532">
<rect width="16" height="16" fill="white" transform="translate(192 16)"/>
</clipPath>
<clipPath id="clip33_236_10532">
<rect width="16" height="16" fill="white" transform="translate(208 16)"/>
</clipPath>
<clipPath id="clip34_236_10532">
<rect width="16" height="16" fill="white" transform="translate(224 16)"/>
</clipPath>
<clipPath id="clip35_236_10532">
<rect width="16" height="16" fill="white" transform="translate(240 16)"/>
</clipPath>
<clipPath id="clip36_236_10532">
<rect width="16" height="16" fill="white" transform="translate(256 16)"/>
</clipPath>
<clipPath id="clip37_236_10532">
<rect width="16" height="16" fill="white" transform="translate(272 16)"/>
</clipPath>
<clipPath id="clip38_236_10532">
<rect width="16" height="16" fill="white" transform="translate(288 16)"/>
</clipPath>
<clipPath id="clip39_236_10532">
<rect width="16" height="16" fill="white" transform="translate(0 32)"/>
</clipPath>
<clipPath id="clip40_236_10532">
<rect width="16" height="16" fill="white" transform="translate(16 32)"/>
</clipPath>
<clipPath id="clip41_236_10532">
<rect width="16" height="16" fill="white" transform="translate(32 32)"/>
</clipPath>
<clipPath id="clip42_236_10532">
<rect width="16" height="16" fill="white" transform="translate(48 32)"/>
</clipPath>
<clipPath id="clip43_236_10532">
<rect width="16" height="16" fill="white" transform="translate(64 32)"/>
</clipPath>
<clipPath id="clip44_236_10532">
<rect width="16" height="16" fill="white" transform="translate(80 32)"/>
</clipPath>
<clipPath id="clip45_236_10532">
<rect width="16" height="16" fill="white" transform="translate(96 32)"/>
</clipPath>
<clipPath id="clip46_236_10532">
<rect width="16" height="16" fill="white" transform="translate(112 32)"/>
</clipPath>
<clipPath id="clip47_236_10532">
<rect width="16" height="16" fill="white" transform="translate(128 32)"/>
</clipPath>
<clipPath id="clip48_236_10532">
<rect width="16" height="16" fill="white" transform="translate(144 32)"/>
</clipPath>
<clipPath id="clip49_236_10532">
<rect width="16" height="16" fill="white" transform="translate(160 32)"/>
</clipPath>
<clipPath id="clip50_236_10532">
<rect width="16" height="16" fill="white" transform="translate(176 32)"/>
</clipPath>
<clipPath id="clip51_236_10532">
<rect width="16" height="16" fill="white" transform="translate(192 32)"/>
</clipPath>
<clipPath id="clip52_236_10532">
<rect width="16" height="16" fill="white" transform="translate(208 32)"/>
</clipPath>
<clipPath id="clip53_236_10532">
<rect width="16" height="16" fill="white" transform="translate(224 32)"/>
</clipPath>
<clipPath id="clip54_236_10532">
<rect width="16" height="16" fill="white" transform="translate(240 32)"/>
</clipPath>
<clipPath id="clip55_236_10532">
<rect width="16" height="16" fill="white" transform="translate(256 32)"/>
</clipPath>
<clipPath id="clip56_236_10532">
<rect width="16" height="16" fill="white" transform="translate(272 32)"/>
</clipPath>
<clipPath id="clip57_236_10532">
<rect width="16" height="16" fill="white" transform="translate(288 32)"/>
</clipPath>
</defs>
</svg>
