<svg width="300" height="35" viewBox="0 0 300 35" fill="none" xmlns="http://www.w3.org/2000/svg">
<g clip-path="url(#clip0_214_2527)">
<rect width="300" height="35" fill="#87CC70"/>
<path d="M21 4C21 2.89543 21.8954 2 23 2H26C27.1046 2 28 2.89543 28 4V10H21V4Z" fill="#67BF4C"/>
<path d="M19 13C19 11.8954 19.8954 11 21 11H28C29.1046 11 30 11.8954 30 13V14H19V13Z" fill="#67BF4C"/>
<path d="M4 20C4 18.8954 4.89543 18 6 18H9C10.1046 18 11 18.8954 11 20V26H4V20Z" fill="#67BF4C"/>
<path d="M2 29C2 27.8954 2.89543 27 4 27H11C12.1046 27 13 27.8954 13 29V30H2V29Z" fill="#67BF4C"/>
<path d="M53 4C53 2.89543 53.8954 2 55 2H58C59.1046 2 60 2.89543 60 4V10H53V4Z" fill="#67BF4C"/>
<path d="M51 13C51 11.8954 51.8954 11 53 11H60C61.1046 11 62 11.8954 62 13V14H51V13Z" fill="#67BF4C"/>
<path d="M36 20C36 18.8954 36.8954 18 38 18H41C42.1046 18 43 18.8954 43 20V26H36V20Z" fill="#67BF4C"/>
<path d="M34 29C34 27.8954 34.8954 27 36 27H43C44.1046 27 45 27.8954 45 29V30H34V29Z" fill="#67BF4C"/>
<path d="M85 4C85 2.89543 85.8954 2 87 2H90C91.1046 2 92 2.89543 92 4V10H85V4Z" fill="#67BF4C"/>
<path d="M83 13C83 11.8954 83.8954 11 85 11H92C93.1046 11 94 11.8954 94 13V14H83V13Z" fill="#67BF4C"/>
<path d="M68 20C68 18.8954 68.8954 18 70 18H73C74.1046 18 75 18.8954 75 20V26H68V20Z" fill="#67BF4C"/>
<path d="M66 29C66 27.8954 66.8954 27 68 27H75C76.1046 27 77 27.8954 77 29V30H66V29Z" fill="#67BF4C"/>
<path d="M117 4C117 2.89543 117.895 2 119 2H122C123.105 2 124 2.89543 124 4V10H117V4Z" fill="#67BF4C"/>
<path d="M115 13C115 11.8954 115.895 11 117 11H124C125.105 11 126 11.8954 126 13V14H115V13Z" fill="#67BF4C"/>
<path d="M100 20C100 18.8954 100.895 18 102 18H105C106.105 18 107 18.8954 107 20V26H100V20Z" fill="#67BF4C"/>
<path d="M98 29C98 27.8954 98.8954 27 100 27H107C108.105 27 109 27.8954 109 29V30H98V29Z" fill="#67BF4C"/>
<path d="M149 4C149 2.89543 149.895 2 151 2H154C155.105 2 156 2.89543 156 4V10H149V4Z" fill="#67BF4C"/>
<path d="M147 13C147 11.8954 147.895 11 149 11H156C157.105 11 158 11.8954 158 13V14H147V13Z" fill="#67BF4C"/>
<path d="M132 20C132 18.8954 132.895 18 134 18H137C138.105 18 139 18.8954 139 20V26H132V20Z" fill="#67BF4C"/>
<path d="M130 29C130 27.8954 130.895 27 132 27H139C140.105 27 141 27.8954 141 29V30H130V29Z" fill="#67BF4C"/>
<path d="M181 4C181 2.89543 181.895 2 183 2H186C187.105 2 188 2.89543 188 4V10H181V4Z" fill="#67BF4C"/>
<path d="M179 13C179 11.8954 179.895 11 181 11H188C189.105 11 190 11.8954 190 13V14H179V13Z" fill="#67BF4C"/>
<path d="M164 20C164 18.8954 164.895 18 166 18H169C170.105 18 171 18.8954 171 20V26H164V20Z" fill="#67BF4C"/>
<path d="M162 29C162 27.8954 162.895 27 164 27H171C172.105 27 173 27.8954 173 29V30H162V29Z" fill="#67BF4C"/>
<path d="M213 4C213 2.89543 213.895 2 215 2H218C219.105 2 220 2.89543 220 4V10H213V4Z" fill="#67BF4C"/>
<path d="M211 13C211 11.8954 211.895 11 213 11H220C221.105 11 222 11.8954 222 13V14H211V13Z" fill="#67BF4C"/>
<path d="M196 20C196 18.8954 196.895 18 198 18H201C202.105 18 203 18.8954 203 20V26H196V20Z" fill="#67BF4C"/>
<path d="M194 29C194 27.8954 194.895 27 196 27H203C204.105 27 205 27.8954 205 29V30H194V29Z" fill="#67BF4C"/>
<path d="M245 4C245 2.89543 245.895 2 247 2H250C251.105 2 252 2.89543 252 4V10H245V4Z" fill="#67BF4C"/>
<path d="M243 13C243 11.8954 243.895 11 245 11H252C253.105 11 254 11.8954 254 13V14H243V13Z" fill="#67BF4C"/>
<path d="M228 20C228 18.8954 228.895 18 230 18H233C234.105 18 235 18.8954 235 20V26H228V20Z" fill="#67BF4C"/>
<path d="M226 29C226 27.8954 226.895 27 228 27H235C236.105 27 237 27.8954 237 29V30H226V29Z" fill="#67BF4C"/>
<path d="M277 4C277 2.89543 277.895 2 279 2H282C283.105 2 284 2.89543 284 4V10H277V4Z" fill="#67BF4C"/>
<path d="M275 13C275 11.8954 275.895 11 277 11H284C285.105 11 286 11.8954 286 13V14H275V13Z" fill="#67BF4C"/>
<path d="M260 20C260 18.8954 260.895 18 262 18H265C266.105 18 267 18.8954 267 20V26H260V20Z" fill="#67BF4C"/>
<path d="M258 29C258 27.8954 258.895 27 260 27H267C268.105 27 269 27.8954 269 29V30H258V29Z" fill="#67BF4C"/>
<path d="M309 4C309 2.89543 309.895 2 311 2H314C315.105 2 316 2.89543 316 4V10H309V4Z" fill="#67BF4C"/>
<path d="M307 13C307 11.8954 307.895 11 309 11H316C317.105 11 318 11.8954 318 13V14H307V13Z" fill="#67BF4C"/>
<path d="M292 20C292 18.8954 292.895 18 294 18H297C298.105 18 299 18.8954 299 20V26H292V20Z" fill="#67BF4C"/>
<path d="M290 29C290 27.8954 290.895 27 292 27H299C300.105 27 301 27.8954 301 29V30H290V29Z" fill="#67BF4C"/>
<path d="M21 36C21 34.8954 21.8954 34 23 34H26C27.1046 34 28 34.8954 28 36V42H21V36Z" fill="#67BF4C"/>
<path d="M19 45C19 43.8954 19.8954 43 21 43H28C29.1046 43 30 43.8954 30 45V46H19V45Z" fill="#67BF4C"/>
<path d="M4 52C4 50.8954 4.89543 50 6 50H9C10.1046 50 11 50.8954 11 52V58H4V52Z" fill="#67BF4C"/>
<path d="M2 61C2 59.8954 2.89543 59 4 59H11C12.1046 59 13 59.8954 13 61V62H2V61Z" fill="#67BF4C"/>
<path d="M53 36C53 34.8954 53.8954 34 55 34H58C59.1046 34 60 34.8954 60 36V42H53V36Z" fill="#67BF4C"/>
<path d="M51 45C51 43.8954 51.8954 43 53 43H60C61.1046 43 62 43.8954 62 45V46H51V45Z" fill="#67BF4C"/>
<path d="M36 52C36 50.8954 36.8954 50 38 50H41C42.1046 50 43 50.8954 43 52V58H36V52Z" fill="#67BF4C"/>
<path d="M34 61C34 59.8954 34.8954 59 36 59H43C44.1046 59 45 59.8954 45 61V62H34V61Z" fill="#67BF4C"/>
<path d="M85 36C85 34.8954 85.8954 34 87 34H90C91.1046 34 92 34.8954 92 36V42H85V36Z" fill="#67BF4C"/>
<path d="M83 45C83 43.8954 83.8954 43 85 43H92C93.1046 43 94 43.8954 94 45V46H83V45Z" fill="#67BF4C"/>
<path d="M68 52C68 50.8954 68.8954 50 70 50H73C74.1046 50 75 50.8954 75 52V58H68V52Z" fill="#67BF4C"/>
<path d="M66 61C66 59.8954 66.8954 59 68 59H75C76.1046 59 77 59.8954 77 61V62H66V61Z" fill="#67BF4C"/>
<path d="M117 36C117 34.8954 117.895 34 119 34H122C123.105 34 124 34.8954 124 36V42H117V36Z" fill="#67BF4C"/>
<path d="M115 45C115 43.8954 115.895 43 117 43H124C125.105 43 126 43.8954 126 45V46H115V45Z" fill="#67BF4C"/>
<path d="M100 52C100 50.8954 100.895 50 102 50H105C106.105 50 107 50.8954 107 52V58H100V52Z" fill="#67BF4C"/>
<path d="M98 61C98 59.8954 98.8954 59 100 59H107C108.105 59 109 59.8954 109 61V62H98V61Z" fill="#67BF4C"/>
<path d="M149 36C149 34.8954 149.895 34 151 34H154C155.105 34 156 34.8954 156 36V42H149V36Z" fill="#67BF4C"/>
<path d="M147 45C147 43.8954 147.895 43 149 43H156C157.105 43 158 43.8954 158 45V46H147V45Z" fill="#67BF4C"/>
<path d="M132 52C132 50.8954 132.895 50 134 50H137C138.105 50 139 50.8954 139 52V58H132V52Z" fill="#67BF4C"/>
<path d="M130 61C130 59.8954 130.895 59 132 59H139C140.105 59 141 59.8954 141 61V62H130V61Z" fill="#67BF4C"/>
<path d="M181 36C181 34.8954 181.895 34 183 34H186C187.105 34 188 34.8954 188 36V42H181V36Z" fill="#67BF4C"/>
<path d="M179 45C179 43.8954 179.895 43 181 43H188C189.105 43 190 43.8954 190 45V46H179V45Z" fill="#67BF4C"/>
<path d="M164 52C164 50.8954 164.895 50 166 50H169C170.105 50 171 50.8954 171 52V58H164V52Z" fill="#67BF4C"/>
<path d="M162 61C162 59.8954 162.895 59 164 59H171C172.105 59 173 59.8954 173 61V62H162V61Z" fill="#67BF4C"/>
<path d="M213 36C213 34.8954 213.895 34 215 34H218C219.105 34 220 34.8954 220 36V42H213V36Z" fill="#67BF4C"/>
<path d="M211 45C211 43.8954 211.895 43 213 43H220C221.105 43 222 43.8954 222 45V46H211V45Z" fill="#67BF4C"/>
<path d="M196 52C196 50.8954 196.895 50 198 50H201C202.105 50 203 50.8954 203 52V58H196V52Z" fill="#67BF4C"/>
<path d="M194 61C194 59.8954 194.895 59 196 59H203C204.105 59 205 59.8954 205 61V62H194V61Z" fill="#67BF4C"/>
<path d="M245 36C245 34.8954 245.895 34 247 34H250C251.105 34 252 34.8954 252 36V42H245V36Z" fill="#67BF4C"/>
<path d="M243 45C243 43.8954 243.895 43 245 43H252C253.105 43 254 43.8954 254 45V46H243V45Z" fill="#67BF4C"/>
<path d="M228 52C228 50.8954 228.895 50 230 50H233C234.105 50 235 50.8954 235 52V58H228V52Z" fill="#67BF4C"/>
<path d="M226 61C226 59.8954 226.895 59 228 59H235C236.105 59 237 59.8954 237 61V62H226V61Z" fill="#67BF4C"/>
<path d="M277 36C277 34.8954 277.895 34 279 34H282C283.105 34 284 34.8954 284 36V42H277V36Z" fill="#67BF4C"/>
<path d="M275 45C275 43.8954 275.895 43 277 43H284C285.105 43 286 43.8954 286 45V46H275V45Z" fill="#67BF4C"/>
<path d="M260 52C260 50.8954 260.895 50 262 50H265C266.105 50 267 50.8954 267 52V58H260V52Z" fill="#67BF4C"/>
<path d="M258 61C258 59.8954 258.895 59 260 59H267C268.105 59 269 59.8954 269 61V62H258V61Z" fill="#67BF4C"/>
<path d="M309 36C309 34.8954 309.895 34 311 34H314C315.105 34 316 34.8954 316 36V42H309V36Z" fill="#67BF4C"/>
<path d="M307 45C307 43.8954 307.895 43 309 43H316C317.105 43 318 43.8954 318 45V46H307V45Z" fill="#67BF4C"/>
<path d="M292 52C292 50.8954 292.895 50 294 50H297C298.105 50 299 50.8954 299 52V58H292V52Z" fill="#67BF4C"/>
<path d="M290 61C290 59.8954 290.895 59 292 59H299C300.105 59 301 59.8954 301 61V62H290V61Z" fill="#67BF4C"/>
</g>
<defs>
<clipPath id="clip0_214_2527">
<rect width="300" height="35" fill="white"/>
</clipPath>
</defs>
</svg>
