<svg width="300" height="35" viewBox="0 0 300 35" fill="none" xmlns="http://www.w3.org/2000/svg">
<rect width="300" height="35" fill="#121926"/>
<path opacity="0.849" d="M149.999 8C154.963 8 159 12.0018 159 17C159 21.9655 154.963 26 149.999 26C145.037 26 141 21.9655 141 17C141 12.0018 145.037 8 149.999 8Z" fill="#0086C7"/>
<path opacity="0.95" fill-rule="evenodd" clip-rule="evenodd" d="M150 26C154.971 26 159 21.9706 159 17C159 12.0294 154.971 8 150 8C145.029 8 141 12.0294 141 17C141 21.9706 145.029 26 150 26ZM150 27C155.523 27 160 22.5228 160 17C160 11.4772 155.523 7 150 7C144.477 7 140 11.4772 140 17C140 22.5228 144.477 27 150 27Z" fill="#5FB7ED"/>
<path fill-rule="evenodd" clip-rule="evenodd" d="M146 12V22H148V19H150.5C152.433 19 154 17.433 154 15.5C154 13.567 152.433 12 150.5 12H146ZM148 14V17H150.5C151.328 17 152 16.3284 152 15.5C152 14.6716 151.328 14 150.5 14H148Z" fill="white"/>
</svg>
