<svg width="300" height="35" viewBox="0 0 300 35" fill="none" xmlns="http://www.w3.org/2000/svg">
<rect width="300" height="35" fill="#E5DFDA"/>
<path opacity="0.953" d="M149.999 7C155.514 7 160 11.4465 160 17C160 22.5172 155.514 27 149.999 27C144.486 27 140 22.5172 140 17C140 11.4465 144.486 7 149.999 7Z" fill="#878787"/>
<path opacity="0.95" fill-rule="evenodd" clip-rule="evenodd" d="M150 26C154.971 26 159 21.9706 159 17C159 12.0294 154.971 8 150 8C145.029 8 141 12.0294 141 17C141 21.9706 145.029 26 150 26ZM150 27C155.523 27 160 22.5228 160 17C160 11.4772 155.523 7 150 7C144.477 7 140 11.4772 140 17C140 22.5228 144.477 27 150 27Z" fill="#404040"/>
<path d="M145 15.5L150 13L155 15.5L150 18L146.25 16.125V18.5427C146.541 18.6456 146.75 18.9234 146.75 19.25C146.75 19.6642 146.414 20 146 20C145.586 20 145.25 19.6642 145.25 19.25C145.25 18.9234 145.459 18.6456 145.75 18.5427V15.875L145 15.5Z" fill="white"/>
<path d="M147 19C147.931 18.8448 148.875 19.188 149.49 19.9046L150 20.5L150.51 19.9046C151.125 19.188 152.069 18.8448 153 19V17L150 18.5L147 17V19Z" fill="white"/>
</svg>
