<svg width="300" height="35" viewBox="0 0 300 35" fill="none" xmlns="http://www.w3.org/2000/svg">
<rect x="0.5" y="0.5" width="299" height="34" fill="#3B3B3B" stroke="#555555"/>
<path opacity="0.953" d="M149.999 8C155.514 8 160 12.4465 160 18C160 23.5172 155.514 28 149.999 28C144.486 28 140 23.5172 140 18C140 12.4465 144.486 8 149.999 8Z" fill="#505050"/>
<path opacity="0.95" fill-rule="evenodd" clip-rule="evenodd" d="M150 27C154.971 27 159 22.9706 159 18C159 13.0294 154.971 9 150 9C145.029 9 141 13.0294 141 18C141 22.9706 145.029 27 150 27ZM150 28C155.523 28 160 23.5228 160 18C160 12.4772 155.523 8 150 8C144.477 8 140 12.4772 140 18C140 23.5228 144.477 28 150 28Z" fill="#909090"/>
<g opacity="0.5">
<path d="M151.5 14.5C151.5 15.3284 150.828 16 150 16C149.172 16 148.5 15.3284 148.5 14.5C148.5 13.6716 149.172 13 150 13C150.828 13 151.5 13.6716 151.5 14.5Z" fill="white"/>
<path fill-rule="evenodd" clip-rule="evenodd" d="M148.5 18.2071L146.854 19.8536C146.74 19.9672 146.579 20.0193 146.42 19.9935C146.261 19.9678 146.125 19.8674 146.053 19.7236L145.053 17.7236C144.929 17.4766 145.029 17.1763 145.276 17.0528C145.523 16.9293 145.824 17.0294 145.947 17.2764L146.637 18.6559L148.146 17.1464C148.409 16.8841 149.07 16.5 150 16.5C150.93 16.5 151.591 16.8841 151.854 17.1464L153.363 18.6559L154.053 17.2764C154.176 17.0294 154.477 16.9293 154.724 17.0528C154.971 17.1763 155.071 17.4766 154.947 17.7236L153.947 19.7236C153.875 19.8674 153.739 19.9678 153.58 19.9935C153.421 20.0193 153.26 19.9672 153.146 19.8536L151.5 18.2071V23H148.5V18.2071Z" fill="white"/>
</g>
<path fill-rule="evenodd" clip-rule="evenodd" d="M145 13.5C145 13.2239 144.776 13 144.5 13C144.224 13 144 13.2239 144 13.5V22.5C144 22.7761 144.224 23 144.5 23C144.776 23 145 22.7761 145 22.5V13.5ZM147.5 13C147.776 13 148 13.2239 148 13.5V22.5C148 22.7761 147.776 23 147.5 23C147.224 23 147 22.7761 147 22.5V13.5C147 13.2239 147.224 13 147.5 13ZM150.5 13.5C150.5 13.2239 150.276 13 150 13C149.724 13 149.5 13.2239 149.5 13.5V22.5C149.5 22.7761 149.724 23 150 23C150.276 23 150.5 22.7761 150.5 22.5V13.5ZM152.5 13C152.776 13 153 13.2239 153 13.5V22.5C153 22.7761 152.776 23 152.5 23C152.224 23 152 22.7761 152 22.5V13.5C152 13.2239 152.224 13 152.5 13ZM155.5 13C155.776 13 156 13.2239 156 13.5V22.5C156 22.7761 155.776 23 155.5 23C155.224 23 155 22.7761 155 22.5V13.5C155 13.2239 155.224 13 155.5 13Z" fill="white"/>
<path opacity="0.8" fill-rule="evenodd" clip-rule="evenodd" d="M155.5 19C155.776 19 156 18.7761 156 18.5C156 18.2239 155.776 18 155.5 18L144.7 18C144.424 18 144.2 18.2239 144.2 18.5C144.2 18.7761 144.424 19 144.7 19L155.5 19ZM155.4 22C155.676 22 155.9 21.7761 155.9 21.5C155.9 21.2239 155.676 21 155.4 21L144.6 21C144.324 21 144.1 21.2239 144.1 21.5C144.1 21.7761 144.324 22 144.6 22L155.4 22Z" fill="white"/>
</svg>
