<svg width="300" height="35" viewBox="0 0 300 35" fill="none" xmlns="http://www.w3.org/2000/svg">
<g clip-path="url(#clip0_236_11753)">
<rect x="1" y="1" width="298" height="33" stroke="#EC94B2" stroke-opacity="0.5" stroke-width="2"/>
<g clip-path="url(#clip1_236_11753)">
<path opacity="0.268657" d="M0 -2.125L-2.125 0L-1.0625 1.0625L13.875 16L-1.0625 30.9375L-2.125 32L0 34.125L1.0625 33.0625L16 18.125L30.9375 33.0625L32 34.125L34.125 32L33.0625 30.9375L18.125 16L33.0625 1.0625L34.125 0L32 -2.125L30.9375 -1.0625L16 13.875L1.0625 -1.0625L0 -2.125Z" fill="#EC94B2" fill-opacity="0.517647"/>
</g>
<g clip-path="url(#clip2_236_11753)">
<path opacity="0.268657" d="M32 -2.125L29.875 0L30.9375 1.0625L45.875 16L30.9375 30.9375L29.875 32L32 34.125L33.0625 33.0625L48 18.125L62.9375 33.0625L64 34.125L66.125 32L65.0625 30.9375L50.125 16L65.0625 1.0625L66.125 0L64 -2.125L62.9375 -1.0625L48 13.875L33.0625 -1.0625L32 -2.125Z" fill="#EC94B2" fill-opacity="0.517647"/>
</g>
<g clip-path="url(#clip3_236_11753)">
<path opacity="0.268657" d="M64 -2.125L61.875 0L62.9375 1.0625L77.875 16L62.9375 30.9375L61.875 32L64 34.125L65.0625 33.0625L80 18.125L94.9375 33.0625L96 34.125L98.125 32L97.0625 30.9375L82.125 16L97.0625 1.0625L98.125 0L96 -2.125L94.9375 -1.0625L80 13.875L65.0625 -1.0625L64 -2.125Z" fill="#EC94B2" fill-opacity="0.517647"/>
</g>
<g clip-path="url(#clip4_236_11753)">
<path opacity="0.268657" d="M96 -2.125L93.875 0L94.9375 1.0625L109.875 16L94.9375 30.9375L93.875 32L96 34.125L97.0625 33.0625L112 18.125L126.938 33.0625L128 34.125L130.125 32L129.062 30.9375L114.125 16L129.062 1.0625L130.125 0L128 -2.125L126.938 -1.0625L112 13.875L97.0625 -1.0625L96 -2.125Z" fill="#EC94B2" fill-opacity="0.517647"/>
</g>
<g clip-path="url(#clip5_236_11753)">
<path opacity="0.268657" d="M128 -2.125L125.875 0L126.938 1.0625L141.875 16L126.938 30.9375L125.875 32L128 34.125L129.062 33.0625L144 18.125L158.938 33.0625L160 34.125L162.125 32L161.062 30.9375L146.125 16L161.062 1.0625L162.125 0L160 -2.125L158.938 -1.0625L144 13.875L129.062 -1.0625L128 -2.125Z" fill="#EC94B2" fill-opacity="0.517647"/>
</g>
<g clip-path="url(#clip6_236_11753)">
<path opacity="0.268657" d="M160 -2.125L157.875 0L158.938 1.0625L173.875 16L158.938 30.9375L157.875 32L160 34.125L161.062 33.0625L176 18.125L190.938 33.0625L192 34.125L194.125 32L193.062 30.9375L178.125 16L193.062 1.0625L194.125 0L192 -2.125L190.938 -1.0625L176 13.875L161.062 -1.0625L160 -2.125Z" fill="#EC94B2" fill-opacity="0.517647"/>
</g>
<g clip-path="url(#clip7_236_11753)">
<path opacity="0.268657" d="M192 -2.125L189.875 0L190.938 1.0625L205.875 16L190.938 30.9375L189.875 32L192 34.125L193.062 33.0625L208 18.125L222.938 33.0625L224 34.125L226.125 32L225.062 30.9375L210.125 16L225.062 1.0625L226.125 0L224 -2.125L222.938 -1.0625L208 13.875L193.062 -1.0625L192 -2.125Z" fill="#EC94B2" fill-opacity="0.517647"/>
</g>
<g clip-path="url(#clip8_236_11753)">
<path opacity="0.268657" d="M224 -2.125L221.875 0L222.938 1.0625L237.875 16L222.938 30.9375L221.875 32L224 34.125L225.062 33.0625L240 18.125L254.938 33.0625L256 34.125L258.125 32L257.062 30.9375L242.125 16L257.062 1.0625L258.125 0L256 -2.125L254.938 -1.0625L240 13.875L225.062 -1.0625L224 -2.125Z" fill="#EC94B2" fill-opacity="0.517647"/>
</g>
<g clip-path="url(#clip9_236_11753)">
<path opacity="0.268657" d="M256 -2.125L253.875 0L254.938 1.0625L269.875 16L254.938 30.9375L253.875 32L256 34.125L257.062 33.0625L272 18.125L286.938 33.0625L288 34.125L290.125 32L289.062 30.9375L274.125 16L289.062 1.0625L290.125 0L288 -2.125L286.938 -1.0625L272 13.875L257.062 -1.0625L256 -2.125Z" fill="#EC94B2" fill-opacity="0.517647"/>
</g>
<g clip-path="url(#clip10_236_11753)">
<path opacity="0.268657" d="M288 -2.125L285.875 0L286.938 1.0625L301.875 16L286.938 30.9375L285.875 32L288 34.125L289.062 33.0625L304 18.125L318.938 33.0625L320 34.125L322.125 32L321.062 30.9375L306.125 16L321.062 1.0625L322.125 0L320 -2.125L318.938 -1.0625L304 13.875L289.062 -1.0625L288 -2.125Z" fill="#EC94B2" fill-opacity="0.517647"/>
</g>
<g clip-path="url(#clip11_236_11753)">
<path opacity="0.268657" d="M0 29.875L-2.125 32L-1.0625 33.0625L13.875 48L-1.0625 62.9375L-2.125 64L0 66.125L1.0625 65.0625L16 50.125L30.9375 65.0625L32 66.125L34.125 64L33.0625 62.9375L18.125 48L33.0625 33.0625L34.125 32L32 29.875L30.9375 30.9375L16 45.875L1.0625 30.9375L0 29.875Z" fill="#EC94B2" fill-opacity="0.517647"/>
</g>
<g clip-path="url(#clip12_236_11753)">
<path opacity="0.268657" d="M32 29.875L29.875 32L30.9375 33.0625L45.875 48L30.9375 62.9375L29.875 64L32 66.125L33.0625 65.0625L48 50.125L62.9375 65.0625L64 66.125L66.125 64L65.0625 62.9375L50.125 48L65.0625 33.0625L66.125 32L64 29.875L62.9375 30.9375L48 45.875L33.0625 30.9375L32 29.875Z" fill="#EC94B2" fill-opacity="0.517647"/>
</g>
<g clip-path="url(#clip13_236_11753)">
<path opacity="0.268657" d="M64 29.875L61.875 32L62.9375 33.0625L77.875 48L62.9375 62.9375L61.875 64L64 66.125L65.0625 65.0625L80 50.125L94.9375 65.0625L96 66.125L98.125 64L97.0625 62.9375L82.125 48L97.0625 33.0625L98.125 32L96 29.875L94.9375 30.9375L80 45.875L65.0625 30.9375L64 29.875Z" fill="#EC94B2" fill-opacity="0.517647"/>
</g>
<g clip-path="url(#clip14_236_11753)">
<path opacity="0.268657" d="M96 29.875L93.875 32L94.9375 33.0625L109.875 48L94.9375 62.9375L93.875 64L96 66.125L97.0625 65.0625L112 50.125L126.938 65.0625L128 66.125L130.125 64L129.062 62.9375L114.125 48L129.062 33.0625L130.125 32L128 29.875L126.938 30.9375L112 45.875L97.0625 30.9375L96 29.875Z" fill="#EC94B2" fill-opacity="0.517647"/>
</g>
<g clip-path="url(#clip15_236_11753)">
<path opacity="0.268657" d="M128 29.875L125.875 32L126.938 33.0625L141.875 48L126.938 62.9375L125.875 64L128 66.125L129.062 65.0625L144 50.125L158.938 65.0625L160 66.125L162.125 64L161.062 62.9375L146.125 48L161.062 33.0625L162.125 32L160 29.875L158.938 30.9375L144 45.875L129.062 30.9375L128 29.875Z" fill="#EC94B2" fill-opacity="0.517647"/>
</g>
<g clip-path="url(#clip16_236_11753)">
<path opacity="0.268657" d="M160 29.875L157.875 32L158.938 33.0625L173.875 48L158.938 62.9375L157.875 64L160 66.125L161.062 65.0625L176 50.125L190.938 65.0625L192 66.125L194.125 64L193.062 62.9375L178.125 48L193.062 33.0625L194.125 32L192 29.875L190.938 30.9375L176 45.875L161.062 30.9375L160 29.875Z" fill="#EC94B2" fill-opacity="0.517647"/>
</g>
<g clip-path="url(#clip17_236_11753)">
<path opacity="0.268657" d="M192 29.875L189.875 32L190.938 33.0625L205.875 48L190.938 62.9375L189.875 64L192 66.125L193.062 65.0625L208 50.125L222.938 65.0625L224 66.125L226.125 64L225.062 62.9375L210.125 48L225.062 33.0625L226.125 32L224 29.875L222.938 30.9375L208 45.875L193.062 30.9375L192 29.875Z" fill="#EC94B2" fill-opacity="0.517647"/>
</g>
<g clip-path="url(#clip18_236_11753)">
<path opacity="0.268657" d="M224 29.875L221.875 32L222.938 33.0625L237.875 48L222.938 62.9375L221.875 64L224 66.125L225.062 65.0625L240 50.125L254.938 65.0625L256 66.125L258.125 64L257.062 62.9375L242.125 48L257.062 33.0625L258.125 32L256 29.875L254.938 30.9375L240 45.875L225.062 30.9375L224 29.875Z" fill="#EC94B2" fill-opacity="0.517647"/>
</g>
<g clip-path="url(#clip19_236_11753)">
<path opacity="0.268657" d="M256 29.875L253.875 32L254.938 33.0625L269.875 48L254.938 62.9375L253.875 64L256 66.125L257.062 65.0625L272 50.125L286.938 65.0625L288 66.125L290.125 64L289.062 62.9375L274.125 48L289.062 33.0625L290.125 32L288 29.875L286.938 30.9375L272 45.875L257.062 30.9375L256 29.875Z" fill="#EC94B2" fill-opacity="0.517647"/>
</g>
<g clip-path="url(#clip20_236_11753)">
<path opacity="0.268657" d="M288 29.875L285.875 32L286.938 33.0625L301.875 48L286.938 62.9375L285.875 64L288 66.125L289.062 65.0625L304 50.125L318.938 65.0625L320 66.125L322.125 64L321.062 62.9375L306.125 48L321.062 33.0625L322.125 32L320 29.875L318.938 30.9375L304 45.875L289.062 30.9375L288 29.875Z" fill="#EC94B2" fill-opacity="0.517647"/>
</g>
</g>
<defs>
<clipPath id="clip0_236_11753">
<rect width="300" height="35" fill="white"/>
</clipPath>
<clipPath id="clip1_236_11753">
<rect width="32" height="32" fill="white"/>
</clipPath>
<clipPath id="clip2_236_11753">
<rect width="32" height="32" fill="white" transform="translate(32)"/>
</clipPath>
<clipPath id="clip3_236_11753">
<rect width="32" height="32" fill="white" transform="translate(64)"/>
</clipPath>
<clipPath id="clip4_236_11753">
<rect width="32" height="32" fill="white" transform="translate(96)"/>
</clipPath>
<clipPath id="clip5_236_11753">
<rect width="32" height="32" fill="white" transform="translate(128)"/>
</clipPath>
<clipPath id="clip6_236_11753">
<rect width="32" height="32" fill="white" transform="translate(160)"/>
</clipPath>
<clipPath id="clip7_236_11753">
<rect width="32" height="32" fill="white" transform="translate(192)"/>
</clipPath>
<clipPath id="clip8_236_11753">
<rect width="32" height="32" fill="white" transform="translate(224)"/>
</clipPath>
<clipPath id="clip9_236_11753">
<rect width="32" height="32" fill="white" transform="translate(256)"/>
</clipPath>
<clipPath id="clip10_236_11753">
<rect width="32" height="32" fill="white" transform="translate(288)"/>
</clipPath>
<clipPath id="clip11_236_11753">
<rect width="32" height="32" fill="white" transform="translate(0 32)"/>
</clipPath>
<clipPath id="clip12_236_11753">
<rect width="32" height="32" fill="white" transform="translate(32 32)"/>
</clipPath>
<clipPath id="clip13_236_11753">
<rect width="32" height="32" fill="white" transform="translate(64 32)"/>
</clipPath>
<clipPath id="clip14_236_11753">
<rect width="32" height="32" fill="white" transform="translate(96 32)"/>
</clipPath>
<clipPath id="clip15_236_11753">
<rect width="32" height="32" fill="white" transform="translate(128 32)"/>
</clipPath>
<clipPath id="clip16_236_11753">
<rect width="32" height="32" fill="white" transform="translate(160 32)"/>
</clipPath>
<clipPath id="clip17_236_11753">
<rect width="32" height="32" fill="white" transform="translate(192 32)"/>
</clipPath>
<clipPath id="clip18_236_11753">
<rect width="32" height="32" fill="white" transform="translate(224 32)"/>
</clipPath>
<clipPath id="clip19_236_11753">
<rect width="32" height="32" fill="white" transform="translate(256 32)"/>
</clipPath>
<clipPath id="clip20_236_11753">
<rect width="32" height="32" fill="white" transform="translate(288 32)"/>
</clipPath>
</defs>
</svg>
