<svg width="300" height="35" viewBox="0 0 300 35" fill="none" xmlns="http://www.w3.org/2000/svg">
<g clip-path="url(#clip0_214_12161)">
<rect width="300" height="35" fill="#87CC70"/>
<g opacity="0.8">
<path fill-rule="evenodd" clip-rule="evenodd" d="M20 10H22.6667L24 12.5L25.3333 10H28L26.6667 7.5L28 5H25.3333L24 2.5L22.6667 5H20L21.3333 7.5L20 10ZM21.73 8.24375L21.1667 9.3H22.2933L21.73 8.24375ZM23.0867 9.3L22.1267 7.5L23.0867 5.7H24.9133L25.8733 7.5L24.9133 9.3H23.0867ZM23.46 10L24 11.0125L24.54 10H23.46ZM26.8333 9.3L26.27 8.24375L25.7067 9.3H26.8333ZM26.27 6.75625L26.8333 5.7H25.7067L26.27 6.75625ZM24.54 5L24 3.9875L23.46 5H24.54ZM22.2933 5.7L21.73 6.75625L21.1667 5.7H22.2933Z" fill="#67BF4C"/>
<path d="M19 14C19 13.4477 19.4477 13 20 13H28C28.5523 13 29 13.4477 29 14V15H19V14Z" fill="#67BF4C"/>
<path fill-rule="evenodd" clip-rule="evenodd" d="M4 24H6.85714L8 26L9.14286 24H12L10.5714 21.5L12 19H9.14286L8 17L6.85714 19H4L5.42857 21.5L4 24ZM5.83168 22.2054L5.20623 23.3H6.45714L5.83168 22.2054ZM7.26337 23.3L6.2348 21.5L7.26337 19.7H8.73663L9.7652 21.5L8.73663 23.3H7.26337ZM7.66337 24L8 24.5891L8.33663 24H7.66337ZM10.7938 23.3L10.1683 22.2054L9.54286 23.3H10.7938ZM10.1683 20.7946L10.7938 19.7H9.54286L10.1683 20.7946ZM8.33663 19L8 18.4109L7.66337 19H8.33663ZM6.45714 19.7L5.83168 20.7946L5.20623 19.7H6.45714Z" fill="#67BF4C"/>
<path d="M3 28C3 27.4477 3.44772 27 4 27H12C12.5523 27 13 27.4477 13 28V29H3V28Z" fill="#67BF4C"/>
</g>
<g opacity="0.8">
<path fill-rule="evenodd" clip-rule="evenodd" d="M52 10H54.6667L56 12.5L57.3333 10H60L58.6667 7.5L60 5H57.3333L56 2.5L54.6667 5H52L53.3333 7.5L52 10ZM53.73 8.24375L53.1667 9.3H54.2933L53.73 8.24375ZM55.0867 9.3L54.1267 7.5L55.0867 5.7H56.9133L57.8733 7.5L56.9133 9.3H55.0867ZM55.46 10L56 11.0125L56.54 10H55.46ZM58.8333 9.3L58.27 8.24375L57.7067 9.3H58.8333ZM58.27 6.75625L58.8333 5.7H57.7067L58.27 6.75625ZM56.54 5L56 3.9875L55.46 5H56.54ZM54.2933 5.7L53.73 6.75625L53.1667 5.7H54.2933Z" fill="#67BF4C"/>
<path d="M51 14C51 13.4477 51.4477 13 52 13H60C60.5523 13 61 13.4477 61 14V15H51V14Z" fill="#67BF4C"/>
<path fill-rule="evenodd" clip-rule="evenodd" d="M36 24H38.8571L40 26L41.1429 24H44L42.5714 21.5L44 19H41.1429L40 17L38.8571 19H36L37.4286 21.5L36 24ZM37.8317 22.2054L37.2062 23.3H38.4571L37.8317 22.2054ZM39.2634 23.3L38.2348 21.5L39.2634 19.7H40.7366L41.7652 21.5L40.7366 23.3H39.2634ZM39.6634 24L40 24.5891L40.3366 24H39.6634ZM42.7938 23.3L42.1683 22.2054L41.5429 23.3H42.7938ZM42.1683 20.7946L42.7938 19.7H41.5429L42.1683 20.7946ZM40.3366 19L40 18.4109L39.6634 19H40.3366ZM38.4571 19.7L37.8317 20.7946L37.2062 19.7H38.4571Z" fill="#67BF4C"/>
<path d="M35 28C35 27.4477 35.4477 27 36 27H44C44.5523 27 45 27.4477 45 28V29H35V28Z" fill="#67BF4C"/>
</g>
<g opacity="0.8">
<path fill-rule="evenodd" clip-rule="evenodd" d="M84 10H86.6667L88 12.5L89.3333 10H92L90.6667 7.5L92 5H89.3333L88 2.5L86.6667 5H84L85.3333 7.5L84 10ZM85.73 8.24375L85.1667 9.3H86.2933L85.73 8.24375ZM87.0867 9.3L86.1267 7.5L87.0867 5.7H88.9133L89.8733 7.5L88.9133 9.3H87.0867ZM87.46 10L88 11.0125L88.54 10H87.46ZM90.8333 9.3L90.27 8.24375L89.7067 9.3H90.8333ZM90.27 6.75625L90.8333 5.7H89.7067L90.27 6.75625ZM88.54 5L88 3.9875L87.46 5H88.54ZM86.2933 5.7L85.73 6.75625L85.1667 5.7H86.2933Z" fill="#67BF4C"/>
<path d="M83 14C83 13.4477 83.4477 13 84 13H92C92.5523 13 93 13.4477 93 14V15H83V14Z" fill="#67BF4C"/>
<path fill-rule="evenodd" clip-rule="evenodd" d="M68 24H70.8571L72 26L73.1429 24H76L74.5714 21.5L76 19H73.1429L72 17L70.8571 19H68L69.4286 21.5L68 24ZM69.8317 22.2054L69.2062 23.3H70.4571L69.8317 22.2054ZM71.2634 23.3L70.2348 21.5L71.2634 19.7H72.7366L73.7652 21.5L72.7366 23.3H71.2634ZM71.6634 24L72 24.5891L72.3366 24H71.6634ZM74.7938 23.3L74.1683 22.2054L73.5429 23.3H74.7938ZM74.1683 20.7946L74.7938 19.7H73.5429L74.1683 20.7946ZM72.3366 19L72 18.4109L71.6634 19H72.3366ZM70.4571 19.7L69.8317 20.7946L69.2062 19.7H70.4571Z" fill="#67BF4C"/>
<path d="M67 28C67 27.4477 67.4477 27 68 27H76C76.5523 27 77 27.4477 77 28V29H67V28Z" fill="#67BF4C"/>
</g>
<g opacity="0.8">
<path fill-rule="evenodd" clip-rule="evenodd" d="M116 10H118.667L120 12.5L121.333 10H124L122.667 7.5L124 5H121.333L120 2.5L118.667 5H116L117.333 7.5L116 10ZM117.73 8.24375L117.167 9.3H118.293L117.73 8.24375ZM119.087 9.3L118.127 7.5L119.087 5.7H120.913L121.873 7.5L120.913 9.3H119.087ZM119.46 10L120 11.0125L120.54 10H119.46ZM122.833 9.3L122.27 8.24375L121.707 9.3H122.833ZM122.27 6.75625L122.833 5.7H121.707L122.27 6.75625ZM120.54 5L120 3.9875L119.46 5H120.54ZM118.293 5.7L117.73 6.75625L117.167 5.7H118.293Z" fill="#67BF4C"/>
<path d="M115 14C115 13.4477 115.448 13 116 13H124C124.552 13 125 13.4477 125 14V15H115V14Z" fill="#67BF4C"/>
<path fill-rule="evenodd" clip-rule="evenodd" d="M100 24H102.857L104 26L105.143 24H108L106.571 21.5L108 19H105.143L104 17L102.857 19H100L101.429 21.5L100 24ZM101.832 22.2054L101.206 23.3H102.457L101.832 22.2054ZM103.263 23.3L102.235 21.5L103.263 19.7H104.737L105.765 21.5L104.737 23.3H103.263ZM103.663 24L104 24.5891L104.337 24H103.663ZM106.794 23.3L106.168 22.2054L105.543 23.3H106.794ZM106.168 20.7946L106.794 19.7H105.543L106.168 20.7946ZM104.337 19L104 18.4109L103.663 19H104.337ZM102.457 19.7L101.832 20.7946L101.206 19.7H102.457Z" fill="#67BF4C"/>
<path d="M99 28C99 27.4477 99.4477 27 100 27H108C108.552 27 109 27.4477 109 28V29H99V28Z" fill="#67BF4C"/>
</g>
<g opacity="0.8">
<path fill-rule="evenodd" clip-rule="evenodd" d="M148 10H150.667L152 12.5L153.333 10H156L154.667 7.5L156 5H153.333L152 2.5L150.667 5H148L149.333 7.5L148 10ZM149.73 8.24375L149.167 9.3H150.293L149.73 8.24375ZM151.087 9.3L150.127 7.5L151.087 5.7H152.913L153.873 7.5L152.913 9.3H151.087ZM151.46 10L152 11.0125L152.54 10H151.46ZM154.833 9.3L154.27 8.24375L153.707 9.3H154.833ZM154.27 6.75625L154.833 5.7H153.707L154.27 6.75625ZM152.54 5L152 3.9875L151.46 5H152.54ZM150.293 5.7L149.73 6.75625L149.167 5.7H150.293Z" fill="#67BF4C"/>
<path d="M147 14C147 13.4477 147.448 13 148 13H156C156.552 13 157 13.4477 157 14V15H147V14Z" fill="#67BF4C"/>
<path fill-rule="evenodd" clip-rule="evenodd" d="M132 24H134.857L136 26L137.143 24H140L138.571 21.5L140 19H137.143L136 17L134.857 19H132L133.429 21.5L132 24ZM133.832 22.2054L133.206 23.3H134.457L133.832 22.2054ZM135.263 23.3L134.235 21.5L135.263 19.7H136.737L137.765 21.5L136.737 23.3H135.263ZM135.663 24L136 24.5891L136.337 24H135.663ZM138.794 23.3L138.168 22.2054L137.543 23.3H138.794ZM138.168 20.7946L138.794 19.7H137.543L138.168 20.7946ZM136.337 19L136 18.4109L135.663 19H136.337ZM134.457 19.7L133.832 20.7946L133.206 19.7H134.457Z" fill="#67BF4C"/>
<path d="M131 28C131 27.4477 131.448 27 132 27H140C140.552 27 141 27.4477 141 28V29H131V28Z" fill="#67BF4C"/>
</g>
<g opacity="0.8">
<path fill-rule="evenodd" clip-rule="evenodd" d="M180 10H182.667L184 12.5L185.333 10H188L186.667 7.5L188 5H185.333L184 2.5L182.667 5H180L181.333 7.5L180 10ZM181.73 8.24375L181.167 9.3H182.293L181.73 8.24375ZM183.087 9.3L182.127 7.5L183.087 5.7H184.913L185.873 7.5L184.913 9.3H183.087ZM183.46 10L184 11.0125L184.54 10H183.46ZM186.833 9.3L186.27 8.24375L185.707 9.3H186.833ZM186.27 6.75625L186.833 5.7H185.707L186.27 6.75625ZM184.54 5L184 3.9875L183.46 5H184.54ZM182.293 5.7L181.73 6.75625L181.167 5.7H182.293Z" fill="#67BF4C"/>
<path d="M179 14C179 13.4477 179.448 13 180 13H188C188.552 13 189 13.4477 189 14V15H179V14Z" fill="#67BF4C"/>
<path fill-rule="evenodd" clip-rule="evenodd" d="M164 24H166.857L168 26L169.143 24H172L170.571 21.5L172 19H169.143L168 17L166.857 19H164L165.429 21.5L164 24ZM165.832 22.2054L165.206 23.3H166.457L165.832 22.2054ZM167.263 23.3L166.235 21.5L167.263 19.7H168.737L169.765 21.5L168.737 23.3H167.263ZM167.663 24L168 24.5891L168.337 24H167.663ZM170.794 23.3L170.168 22.2054L169.543 23.3H170.794ZM170.168 20.7946L170.794 19.7H169.543L170.168 20.7946ZM168.337 19L168 18.4109L167.663 19H168.337ZM166.457 19.7L165.832 20.7946L165.206 19.7H166.457Z" fill="#67BF4C"/>
<path d="M163 28C163 27.4477 163.448 27 164 27H172C172.552 27 173 27.4477 173 28V29H163V28Z" fill="#67BF4C"/>
</g>
<g opacity="0.8">
<path fill-rule="evenodd" clip-rule="evenodd" d="M212 10H214.667L216 12.5L217.333 10H220L218.667 7.5L220 5H217.333L216 2.5L214.667 5H212L213.333 7.5L212 10ZM213.73 8.24375L213.167 9.3H214.293L213.73 8.24375ZM215.087 9.3L214.127 7.5L215.087 5.7H216.913L217.873 7.5L216.913 9.3H215.087ZM215.46 10L216 11.0125L216.54 10H215.46ZM218.833 9.3L218.27 8.24375L217.707 9.3H218.833ZM218.27 6.75625L218.833 5.7H217.707L218.27 6.75625ZM216.54 5L216 3.9875L215.46 5H216.54ZM214.293 5.7L213.73 6.75625L213.167 5.7H214.293Z" fill="#67BF4C"/>
<path d="M211 14C211 13.4477 211.448 13 212 13H220C220.552 13 221 13.4477 221 14V15H211V14Z" fill="#67BF4C"/>
<path fill-rule="evenodd" clip-rule="evenodd" d="M196 24H198.857L200 26L201.143 24H204L202.571 21.5L204 19H201.143L200 17L198.857 19H196L197.429 21.5L196 24ZM197.832 22.2054L197.206 23.3H198.457L197.832 22.2054ZM199.263 23.3L198.235 21.5L199.263 19.7H200.737L201.765 21.5L200.737 23.3H199.263ZM199.663 24L200 24.5891L200.337 24H199.663ZM202.794 23.3L202.168 22.2054L201.543 23.3H202.794ZM202.168 20.7946L202.794 19.7H201.543L202.168 20.7946ZM200.337 19L200 18.4109L199.663 19H200.337ZM198.457 19.7L197.832 20.7946L197.206 19.7H198.457Z" fill="#67BF4C"/>
<path d="M195 28C195 27.4477 195.448 27 196 27H204C204.552 27 205 27.4477 205 28V29H195V28Z" fill="#67BF4C"/>
</g>
<g opacity="0.8">
<path fill-rule="evenodd" clip-rule="evenodd" d="M244 10H246.667L248 12.5L249.333 10H252L250.667 7.5L252 5H249.333L248 2.5L246.667 5H244L245.333 7.5L244 10ZM245.73 8.24375L245.167 9.3H246.293L245.73 8.24375ZM247.087 9.3L246.127 7.5L247.087 5.7H248.913L249.873 7.5L248.913 9.3H247.087ZM247.46 10L248 11.0125L248.54 10H247.46ZM250.833 9.3L250.27 8.24375L249.707 9.3H250.833ZM250.27 6.75625L250.833 5.7H249.707L250.27 6.75625ZM248.54 5L248 3.9875L247.46 5H248.54ZM246.293 5.7L245.73 6.75625L245.167 5.7H246.293Z" fill="#67BF4C"/>
<path d="M243 14C243 13.4477 243.448 13 244 13H252C252.552 13 253 13.4477 253 14V15H243V14Z" fill="#67BF4C"/>
<path fill-rule="evenodd" clip-rule="evenodd" d="M228 24H230.857L232 26L233.143 24H236L234.571 21.5L236 19H233.143L232 17L230.857 19H228L229.429 21.5L228 24ZM229.832 22.2054L229.206 23.3H230.457L229.832 22.2054ZM231.263 23.3L230.235 21.5L231.263 19.7H232.737L233.765 21.5L232.737 23.3H231.263ZM231.663 24L232 24.5891L232.337 24H231.663ZM234.794 23.3L234.168 22.2054L233.543 23.3H234.794ZM234.168 20.7946L234.794 19.7H233.543L234.168 20.7946ZM232.337 19L232 18.4109L231.663 19H232.337ZM230.457 19.7L229.832 20.7946L229.206 19.7H230.457Z" fill="#67BF4C"/>
<path d="M227 28C227 27.4477 227.448 27 228 27H236C236.552 27 237 27.4477 237 28V29H227V28Z" fill="#67BF4C"/>
</g>
<g opacity="0.8">
<path fill-rule="evenodd" clip-rule="evenodd" d="M276 10H278.667L280 12.5L281.333 10H284L282.667 7.5L284 5H281.333L280 2.5L278.667 5H276L277.333 7.5L276 10ZM277.73 8.24375L277.167 9.3H278.293L277.73 8.24375ZM279.087 9.3L278.127 7.5L279.087 5.7H280.913L281.873 7.5L280.913 9.3H279.087ZM279.46 10L280 11.0125L280.54 10H279.46ZM282.833 9.3L282.27 8.24375L281.707 9.3H282.833ZM282.27 6.75625L282.833 5.7H281.707L282.27 6.75625ZM280.54 5L280 3.9875L279.46 5H280.54ZM278.293 5.7L277.73 6.75625L277.167 5.7H278.293Z" fill="#67BF4C"/>
<path d="M275 14C275 13.4477 275.448 13 276 13H284C284.552 13 285 13.4477 285 14V15H275V14Z" fill="#67BF4C"/>
<path fill-rule="evenodd" clip-rule="evenodd" d="M260 24H262.857L264 26L265.143 24H268L266.571 21.5L268 19H265.143L264 17L262.857 19H260L261.429 21.5L260 24ZM261.832 22.2054L261.206 23.3H262.457L261.832 22.2054ZM263.263 23.3L262.235 21.5L263.263 19.7H264.737L265.765 21.5L264.737 23.3H263.263ZM263.663 24L264 24.5891L264.337 24H263.663ZM266.794 23.3L266.168 22.2054L265.543 23.3H266.794ZM266.168 20.7946L266.794 19.7H265.543L266.168 20.7946ZM264.337 19L264 18.4109L263.663 19H264.337ZM262.457 19.7L261.832 20.7946L261.206 19.7H262.457Z" fill="#67BF4C"/>
<path d="M259 28C259 27.4477 259.448 27 260 27H268C268.552 27 269 27.4477 269 28V29H259V28Z" fill="#67BF4C"/>
</g>
<g opacity="0.8">
<path fill-rule="evenodd" clip-rule="evenodd" d="M308 10H310.667L312 12.5L313.333 10H316L314.667 7.5L316 5H313.333L312 2.5L310.667 5H308L309.333 7.5L308 10ZM309.73 8.24375L309.167 9.3H310.293L309.73 8.24375ZM311.087 9.3L310.127 7.5L311.087 5.7H312.913L313.873 7.5L312.913 9.3H311.087ZM311.46 10L312 11.0125L312.54 10H311.46ZM314.833 9.3L314.27 8.24375L313.707 9.3H314.833ZM314.27 6.75625L314.833 5.7H313.707L314.27 6.75625ZM312.54 5L312 3.9875L311.46 5H312.54ZM310.293 5.7L309.73 6.75625L309.167 5.7H310.293Z" fill="#67BF4C"/>
<path d="M307 14C307 13.4477 307.448 13 308 13H316C316.552 13 317 13.4477 317 14V15H307V14Z" fill="#67BF4C"/>
<path fill-rule="evenodd" clip-rule="evenodd" d="M292 24H294.857L296 26L297.143 24H300L298.571 21.5L300 19H297.143L296 17L294.857 19H292L293.429 21.5L292 24ZM293.832 22.2054L293.206 23.3H294.457L293.832 22.2054ZM295.263 23.3L294.235 21.5L295.263 19.7H296.737L297.765 21.5L296.737 23.3H295.263ZM295.663 24L296 24.5891L296.337 24H295.663ZM298.794 23.3L298.168 22.2054L297.543 23.3H298.794ZM298.168 20.7946L298.794 19.7H297.543L298.168 20.7946ZM296.337 19L296 18.4109L295.663 19H296.337ZM294.457 19.7L293.832 20.7946L293.206 19.7H294.457Z" fill="#67BF4C"/>
<path d="M291 28C291 27.4477 291.448 27 292 27H300C300.552 27 301 27.4477 301 28V29H291V28Z" fill="#67BF4C"/>
</g>
<g opacity="0.8">
<path fill-rule="evenodd" clip-rule="evenodd" d="M20 42H22.6667L24 44.5L25.3333 42H28L26.6667 39.5L28 37H25.3333L24 34.5L22.6667 37H20L21.3333 39.5L20 42ZM21.73 40.2438L21.1667 41.3H22.2933L21.73 40.2438ZM23.0867 41.3L22.1267 39.5L23.0867 37.7H24.9133L25.8733 39.5L24.9133 41.3H23.0867ZM23.46 42L24 43.0125L24.54 42H23.46ZM26.8333 41.3L26.27 40.2438L25.7067 41.3H26.8333ZM26.27 38.7562L26.8333 37.7H25.7067L26.27 38.7562ZM24.54 37L24 35.9875L23.46 37H24.54ZM22.2933 37.7L21.73 38.7562L21.1667 37.7H22.2933Z" fill="#67BF4C"/>
<path d="M19 46C19 45.4477 19.4477 45 20 45H28C28.5523 45 29 45.4477 29 46V47H19V46Z" fill="#67BF4C"/>
<path fill-rule="evenodd" clip-rule="evenodd" d="M4 56H6.85714L8 58L9.14286 56H12L10.5714 53.5L12 51H9.14286L8 49L6.85714 51H4L5.42857 53.5L4 56ZM5.83168 54.2054L5.20623 55.3H6.45714L5.83168 54.2054ZM7.26337 55.3L6.2348 53.5L7.26337 51.7H8.73663L9.7652 53.5L8.73663 55.3H7.26337ZM7.66337 56L8 56.5891L8.33663 56H7.66337ZM10.7938 55.3L10.1683 54.2054L9.54286 55.3H10.7938ZM10.1683 52.7946L10.7938 51.7H9.54286L10.1683 52.7946ZM8.33663 51L8 50.4109L7.66337 51H8.33663ZM6.45714 51.7L5.83168 52.7946L5.20623 51.7H6.45714Z" fill="#67BF4C"/>
<path d="M3 60C3 59.4477 3.44772 59 4 59H12C12.5523 59 13 59.4477 13 60V61H3V60Z" fill="#67BF4C"/>
</g>
<g opacity="0.8">
<path fill-rule="evenodd" clip-rule="evenodd" d="M52 42H54.6667L56 44.5L57.3333 42H60L58.6667 39.5L60 37H57.3333L56 34.5L54.6667 37H52L53.3333 39.5L52 42ZM53.73 40.2438L53.1667 41.3H54.2933L53.73 40.2438ZM55.0867 41.3L54.1267 39.5L55.0867 37.7H56.9133L57.8733 39.5L56.9133 41.3H55.0867ZM55.46 42L56 43.0125L56.54 42H55.46ZM58.8333 41.3L58.27 40.2438L57.7067 41.3H58.8333ZM58.27 38.7562L58.8333 37.7H57.7067L58.27 38.7562ZM56.54 37L56 35.9875L55.46 37H56.54ZM54.2933 37.7L53.73 38.7562L53.1667 37.7H54.2933Z" fill="#67BF4C"/>
<path d="M51 46C51 45.4477 51.4477 45 52 45H60C60.5523 45 61 45.4477 61 46V47H51V46Z" fill="#67BF4C"/>
<path fill-rule="evenodd" clip-rule="evenodd" d="M36 56H38.8571L40 58L41.1429 56H44L42.5714 53.5L44 51H41.1429L40 49L38.8571 51H36L37.4286 53.5L36 56ZM37.8317 54.2054L37.2062 55.3H38.4571L37.8317 54.2054ZM39.2634 55.3L38.2348 53.5L39.2634 51.7H40.7366L41.7652 53.5L40.7366 55.3H39.2634ZM39.6634 56L40 56.5891L40.3366 56H39.6634ZM42.7938 55.3L42.1683 54.2054L41.5429 55.3H42.7938ZM42.1683 52.7946L42.7938 51.7H41.5429L42.1683 52.7946ZM40.3366 51L40 50.4109L39.6634 51H40.3366ZM38.4571 51.7L37.8317 52.7946L37.2062 51.7H38.4571Z" fill="#67BF4C"/>
<path d="M35 60C35 59.4477 35.4477 59 36 59H44C44.5523 59 45 59.4477 45 60V61H35V60Z" fill="#67BF4C"/>
</g>
<g opacity="0.8">
<path fill-rule="evenodd" clip-rule="evenodd" d="M84 42H86.6667L88 44.5L89.3333 42H92L90.6667 39.5L92 37H89.3333L88 34.5L86.6667 37H84L85.3333 39.5L84 42ZM85.73 40.2438L85.1667 41.3H86.2933L85.73 40.2438ZM87.0867 41.3L86.1267 39.5L87.0867 37.7H88.9133L89.8733 39.5L88.9133 41.3H87.0867ZM87.46 42L88 43.0125L88.54 42H87.46ZM90.8333 41.3L90.27 40.2438L89.7067 41.3H90.8333ZM90.27 38.7562L90.8333 37.7H89.7067L90.27 38.7562ZM88.54 37L88 35.9875L87.46 37H88.54ZM86.2933 37.7L85.73 38.7562L85.1667 37.7H86.2933Z" fill="#67BF4C"/>
<path d="M83 46C83 45.4477 83.4477 45 84 45H92C92.5523 45 93 45.4477 93 46V47H83V46Z" fill="#67BF4C"/>
<path fill-rule="evenodd" clip-rule="evenodd" d="M68 56H70.8571L72 58L73.1429 56H76L74.5714 53.5L76 51H73.1429L72 49L70.8571 51H68L69.4286 53.5L68 56ZM69.8317 54.2054L69.2062 55.3H70.4571L69.8317 54.2054ZM71.2634 55.3L70.2348 53.5L71.2634 51.7H72.7366L73.7652 53.5L72.7366 55.3H71.2634ZM71.6634 56L72 56.5891L72.3366 56H71.6634ZM74.7938 55.3L74.1683 54.2054L73.5429 55.3H74.7938ZM74.1683 52.7946L74.7938 51.7H73.5429L74.1683 52.7946ZM72.3366 51L72 50.4109L71.6634 51H72.3366ZM70.4571 51.7L69.8317 52.7946L69.2062 51.7H70.4571Z" fill="#67BF4C"/>
<path d="M67 60C67 59.4477 67.4477 59 68 59H76C76.5523 59 77 59.4477 77 60V61H67V60Z" fill="#67BF4C"/>
</g>
<g opacity="0.8">
<path fill-rule="evenodd" clip-rule="evenodd" d="M116 42H118.667L120 44.5L121.333 42H124L122.667 39.5L124 37H121.333L120 34.5L118.667 37H116L117.333 39.5L116 42ZM117.73 40.2438L117.167 41.3H118.293L117.73 40.2438ZM119.087 41.3L118.127 39.5L119.087 37.7H120.913L121.873 39.5L120.913 41.3H119.087ZM119.46 42L120 43.0125L120.54 42H119.46ZM122.833 41.3L122.27 40.2438L121.707 41.3H122.833ZM122.27 38.7562L122.833 37.7H121.707L122.27 38.7562ZM120.54 37L120 35.9875L119.46 37H120.54ZM118.293 37.7L117.73 38.7562L117.167 37.7H118.293Z" fill="#67BF4C"/>
<path d="M115 46C115 45.4477 115.448 45 116 45H124C124.552 45 125 45.4477 125 46V47H115V46Z" fill="#67BF4C"/>
<path fill-rule="evenodd" clip-rule="evenodd" d="M100 56H102.857L104 58L105.143 56H108L106.571 53.5L108 51H105.143L104 49L102.857 51H100L101.429 53.5L100 56ZM101.832 54.2054L101.206 55.3H102.457L101.832 54.2054ZM103.263 55.3L102.235 53.5L103.263 51.7H104.737L105.765 53.5L104.737 55.3H103.263ZM103.663 56L104 56.5891L104.337 56H103.663ZM106.794 55.3L106.168 54.2054L105.543 55.3H106.794ZM106.168 52.7946L106.794 51.7H105.543L106.168 52.7946ZM104.337 51L104 50.4109L103.663 51H104.337ZM102.457 51.7L101.832 52.7946L101.206 51.7H102.457Z" fill="#67BF4C"/>
<path d="M99 60C99 59.4477 99.4477 59 100 59H108C108.552 59 109 59.4477 109 60V61H99V60Z" fill="#67BF4C"/>
</g>
<g opacity="0.8">
<path fill-rule="evenodd" clip-rule="evenodd" d="M148 42H150.667L152 44.5L153.333 42H156L154.667 39.5L156 37H153.333L152 34.5L150.667 37H148L149.333 39.5L148 42ZM149.73 40.2438L149.167 41.3H150.293L149.73 40.2438ZM151.087 41.3L150.127 39.5L151.087 37.7H152.913L153.873 39.5L152.913 41.3H151.087ZM151.46 42L152 43.0125L152.54 42H151.46ZM154.833 41.3L154.27 40.2438L153.707 41.3H154.833ZM154.27 38.7562L154.833 37.7H153.707L154.27 38.7562ZM152.54 37L152 35.9875L151.46 37H152.54ZM150.293 37.7L149.73 38.7562L149.167 37.7H150.293Z" fill="#67BF4C"/>
<path d="M147 46C147 45.4477 147.448 45 148 45H156C156.552 45 157 45.4477 157 46V47H147V46Z" fill="#67BF4C"/>
<path fill-rule="evenodd" clip-rule="evenodd" d="M132 56H134.857L136 58L137.143 56H140L138.571 53.5L140 51H137.143L136 49L134.857 51H132L133.429 53.5L132 56ZM133.832 54.2054L133.206 55.3H134.457L133.832 54.2054ZM135.263 55.3L134.235 53.5L135.263 51.7H136.737L137.765 53.5L136.737 55.3H135.263ZM135.663 56L136 56.5891L136.337 56H135.663ZM138.794 55.3L138.168 54.2054L137.543 55.3H138.794ZM138.168 52.7946L138.794 51.7H137.543L138.168 52.7946ZM136.337 51L136 50.4109L135.663 51H136.337ZM134.457 51.7L133.832 52.7946L133.206 51.7H134.457Z" fill="#67BF4C"/>
<path d="M131 60C131 59.4477 131.448 59 132 59H140C140.552 59 141 59.4477 141 60V61H131V60Z" fill="#67BF4C"/>
</g>
<g opacity="0.8">
<path fill-rule="evenodd" clip-rule="evenodd" d="M180 42H182.667L184 44.5L185.333 42H188L186.667 39.5L188 37H185.333L184 34.5L182.667 37H180L181.333 39.5L180 42ZM181.73 40.2438L181.167 41.3H182.293L181.73 40.2438ZM183.087 41.3L182.127 39.5L183.087 37.7H184.913L185.873 39.5L184.913 41.3H183.087ZM183.46 42L184 43.0125L184.54 42H183.46ZM186.833 41.3L186.27 40.2438L185.707 41.3H186.833ZM186.27 38.7562L186.833 37.7H185.707L186.27 38.7562ZM184.54 37L184 35.9875L183.46 37H184.54ZM182.293 37.7L181.73 38.7562L181.167 37.7H182.293Z" fill="#67BF4C"/>
<path d="M179 46C179 45.4477 179.448 45 180 45H188C188.552 45 189 45.4477 189 46V47H179V46Z" fill="#67BF4C"/>
<path fill-rule="evenodd" clip-rule="evenodd" d="M164 56H166.857L168 58L169.143 56H172L170.571 53.5L172 51H169.143L168 49L166.857 51H164L165.429 53.5L164 56ZM165.832 54.2054L165.206 55.3H166.457L165.832 54.2054ZM167.263 55.3L166.235 53.5L167.263 51.7H168.737L169.765 53.5L168.737 55.3H167.263ZM167.663 56L168 56.5891L168.337 56H167.663ZM170.794 55.3L170.168 54.2054L169.543 55.3H170.794ZM170.168 52.7946L170.794 51.7H169.543L170.168 52.7946ZM168.337 51L168 50.4109L167.663 51H168.337ZM166.457 51.7L165.832 52.7946L165.206 51.7H166.457Z" fill="#67BF4C"/>
<path d="M163 60C163 59.4477 163.448 59 164 59H172C172.552 59 173 59.4477 173 60V61H163V60Z" fill="#67BF4C"/>
</g>
<g opacity="0.8">
<path fill-rule="evenodd" clip-rule="evenodd" d="M212 42H214.667L216 44.5L217.333 42H220L218.667 39.5L220 37H217.333L216 34.5L214.667 37H212L213.333 39.5L212 42ZM213.73 40.2438L213.167 41.3H214.293L213.73 40.2438ZM215.087 41.3L214.127 39.5L215.087 37.7H216.913L217.873 39.5L216.913 41.3H215.087ZM215.46 42L216 43.0125L216.54 42H215.46ZM218.833 41.3L218.27 40.2438L217.707 41.3H218.833ZM218.27 38.7562L218.833 37.7H217.707L218.27 38.7562ZM216.54 37L216 35.9875L215.46 37H216.54ZM214.293 37.7L213.73 38.7562L213.167 37.7H214.293Z" fill="#67BF4C"/>
<path d="M211 46C211 45.4477 211.448 45 212 45H220C220.552 45 221 45.4477 221 46V47H211V46Z" fill="#67BF4C"/>
<path fill-rule="evenodd" clip-rule="evenodd" d="M196 56H198.857L200 58L201.143 56H204L202.571 53.5L204 51H201.143L200 49L198.857 51H196L197.429 53.5L196 56ZM197.832 54.2054L197.206 55.3H198.457L197.832 54.2054ZM199.263 55.3L198.235 53.5L199.263 51.7H200.737L201.765 53.5L200.737 55.3H199.263ZM199.663 56L200 56.5891L200.337 56H199.663ZM202.794 55.3L202.168 54.2054L201.543 55.3H202.794ZM202.168 52.7946L202.794 51.7H201.543L202.168 52.7946ZM200.337 51L200 50.4109L199.663 51H200.337ZM198.457 51.7L197.832 52.7946L197.206 51.7H198.457Z" fill="#67BF4C"/>
<path d="M195 60C195 59.4477 195.448 59 196 59H204C204.552 59 205 59.4477 205 60V61H195V60Z" fill="#67BF4C"/>
</g>
<g opacity="0.8">
<path fill-rule="evenodd" clip-rule="evenodd" d="M244 42H246.667L248 44.5L249.333 42H252L250.667 39.5L252 37H249.333L248 34.5L246.667 37H244L245.333 39.5L244 42ZM245.73 40.2438L245.167 41.3H246.293L245.73 40.2438ZM247.087 41.3L246.127 39.5L247.087 37.7H248.913L249.873 39.5L248.913 41.3H247.087ZM247.46 42L248 43.0125L248.54 42H247.46ZM250.833 41.3L250.27 40.2438L249.707 41.3H250.833ZM250.27 38.7562L250.833 37.7H249.707L250.27 38.7562ZM248.54 37L248 35.9875L247.46 37H248.54ZM246.293 37.7L245.73 38.7562L245.167 37.7H246.293Z" fill="#67BF4C"/>
<path d="M243 46C243 45.4477 243.448 45 244 45H252C252.552 45 253 45.4477 253 46V47H243V46Z" fill="#67BF4C"/>
<path fill-rule="evenodd" clip-rule="evenodd" d="M228 56H230.857L232 58L233.143 56H236L234.571 53.5L236 51H233.143L232 49L230.857 51H228L229.429 53.5L228 56ZM229.832 54.2054L229.206 55.3H230.457L229.832 54.2054ZM231.263 55.3L230.235 53.5L231.263 51.7H232.737L233.765 53.5L232.737 55.3H231.263ZM231.663 56L232 56.5891L232.337 56H231.663ZM234.794 55.3L234.168 54.2054L233.543 55.3H234.794ZM234.168 52.7946L234.794 51.7H233.543L234.168 52.7946ZM232.337 51L232 50.4109L231.663 51H232.337ZM230.457 51.7L229.832 52.7946L229.206 51.7H230.457Z" fill="#67BF4C"/>
<path d="M227 60C227 59.4477 227.448 59 228 59H236C236.552 59 237 59.4477 237 60V61H227V60Z" fill="#67BF4C"/>
</g>
<g opacity="0.8">
<path fill-rule="evenodd" clip-rule="evenodd" d="M276 42H278.667L280 44.5L281.333 42H284L282.667 39.5L284 37H281.333L280 34.5L278.667 37H276L277.333 39.5L276 42ZM277.73 40.2438L277.167 41.3H278.293L277.73 40.2438ZM279.087 41.3L278.127 39.5L279.087 37.7H280.913L281.873 39.5L280.913 41.3H279.087ZM279.46 42L280 43.0125L280.54 42H279.46ZM282.833 41.3L282.27 40.2438L281.707 41.3H282.833ZM282.27 38.7562L282.833 37.7H281.707L282.27 38.7562ZM280.54 37L280 35.9875L279.46 37H280.54ZM278.293 37.7L277.73 38.7562L277.167 37.7H278.293Z" fill="#67BF4C"/>
<path d="M275 46C275 45.4477 275.448 45 276 45H284C284.552 45 285 45.4477 285 46V47H275V46Z" fill="#67BF4C"/>
<path fill-rule="evenodd" clip-rule="evenodd" d="M260 56H262.857L264 58L265.143 56H268L266.571 53.5L268 51H265.143L264 49L262.857 51H260L261.429 53.5L260 56ZM261.832 54.2054L261.206 55.3H262.457L261.832 54.2054ZM263.263 55.3L262.235 53.5L263.263 51.7H264.737L265.765 53.5L264.737 55.3H263.263ZM263.663 56L264 56.5891L264.337 56H263.663ZM266.794 55.3L266.168 54.2054L265.543 55.3H266.794ZM266.168 52.7946L266.794 51.7H265.543L266.168 52.7946ZM264.337 51L264 50.4109L263.663 51H264.337ZM262.457 51.7L261.832 52.7946L261.206 51.7H262.457Z" fill="#67BF4C"/>
<path d="M259 60C259 59.4477 259.448 59 260 59H268C268.552 59 269 59.4477 269 60V61H259V60Z" fill="#67BF4C"/>
</g>
<g opacity="0.8">
<path fill-rule="evenodd" clip-rule="evenodd" d="M308 42H310.667L312 44.5L313.333 42H316L314.667 39.5L316 37H313.333L312 34.5L310.667 37H308L309.333 39.5L308 42ZM309.73 40.2438L309.167 41.3H310.293L309.73 40.2438ZM311.087 41.3L310.127 39.5L311.087 37.7H312.913L313.873 39.5L312.913 41.3H311.087ZM311.46 42L312 43.0125L312.54 42H311.46ZM314.833 41.3L314.27 40.2438L313.707 41.3H314.833ZM314.27 38.7562L314.833 37.7H313.707L314.27 38.7562ZM312.54 37L312 35.9875L311.46 37H312.54ZM310.293 37.7L309.73 38.7562L309.167 37.7H310.293Z" fill="#67BF4C"/>
<path d="M307 46C307 45.4477 307.448 45 308 45H316C316.552 45 317 45.4477 317 46V47H307V46Z" fill="#67BF4C"/>
<path fill-rule="evenodd" clip-rule="evenodd" d="M292 56H294.857L296 58L297.143 56H300L298.571 53.5L300 51H297.143L296 49L294.857 51H292L293.429 53.5L292 56ZM293.832 54.2054L293.206 55.3H294.457L293.832 54.2054ZM295.263 55.3L294.235 53.5L295.263 51.7H296.737L297.765 53.5L296.737 55.3H295.263ZM295.663 56L296 56.5891L296.337 56H295.663ZM298.794 55.3L298.168 54.2054L297.543 55.3H298.794ZM298.168 52.7946L298.794 51.7H297.543L298.168 52.7946ZM296.337 51L296 50.4109L295.663 51H296.337ZM294.457 51.7L293.832 52.7946L293.206 51.7H294.457Z" fill="#67BF4C"/>
<path d="M291 60C291 59.4477 291.448 59 292 59H300C300.552 59 301 59.4477 301 60V61H291V60Z" fill="#67BF4C"/>
</g>
</g>
<defs>
<clipPath id="clip0_214_12161">
<rect width="300" height="35" fill="white"/>
</clipPath>
</defs>
</svg>
