<svg width="300" height="35" viewBox="0 0 300 35" fill="none" xmlns="http://www.w3.org/2000/svg">
<g clip-path="url(#clip0_234_9217)">
<rect x="0.5" y="0.5" width="299" height="34" stroke="#AAAAAA"/>
<g clip-path="url(#clip1_234_9217)">
<path opacity="0.659574" d="M32.0224 -0.0224609H0V32H32.0224V-0.0224609Z" fill="#B1B1B1" fill-opacity="0.39"/>
<path opacity="0.6" d="M16 2.11279V30.021" stroke="#B7B7B7" stroke-width="4.2" stroke-linecap="square"/>
<path opacity="0.6" d="M30.95 1.06201V30.9836" stroke="#B7B7B7" stroke-width="2.1" stroke-linecap="square"/>
<path opacity="0.6" d="M1.04999 1.01733V30.9836" stroke="#B7B7B7" stroke-width="2.1" stroke-linecap="square"/>
</g>
<g clip-path="url(#clip2_234_9217)">
<path opacity="0.659574" d="M64.0224 -0.0224609H32V32H64.0224V-0.0224609Z" fill="#B1B1B1" fill-opacity="0.39"/>
<path opacity="0.6" d="M48 2.11279V30.021" stroke="#B7B7B7" stroke-width="4.2" stroke-linecap="square"/>
<path opacity="0.6" d="M62.95 1.06201V30.9836" stroke="#B7B7B7" stroke-width="2.1" stroke-linecap="square"/>
<path opacity="0.6" d="M33.05 1.01733V30.9836" stroke="#B7B7B7" stroke-width="2.1" stroke-linecap="square"/>
</g>
<g clip-path="url(#clip3_234_9217)">
<path opacity="0.659574" d="M96.0224 -0.0224609H64V32H96.0224V-0.0224609Z" fill="#B1B1B1" fill-opacity="0.39"/>
<path opacity="0.6" d="M80 2.11279V30.021" stroke="#B7B7B7" stroke-width="4.2" stroke-linecap="square"/>
<path opacity="0.6" d="M94.95 1.06201V30.9836" stroke="#B7B7B7" stroke-width="2.1" stroke-linecap="square"/>
<path opacity="0.6" d="M65.05 1.01733V30.9836" stroke="#B7B7B7" stroke-width="2.1" stroke-linecap="square"/>
</g>
<g clip-path="url(#clip4_234_9217)">
<path opacity="0.659574" d="M128.022 -0.0224609H96V32H128.022V-0.0224609Z" fill="#B1B1B1" fill-opacity="0.39"/>
<path opacity="0.6" d="M112 2.11279V30.021" stroke="#B7B7B7" stroke-width="4.2" stroke-linecap="square"/>
<path opacity="0.6" d="M126.95 1.06201V30.9836" stroke="#B7B7B7" stroke-width="2.1" stroke-linecap="square"/>
<path opacity="0.6" d="M97.05 1.01733V30.9836" stroke="#B7B7B7" stroke-width="2.1" stroke-linecap="square"/>
</g>
<g clip-path="url(#clip5_234_9217)">
<path opacity="0.659574" d="M160.022 -0.0224609H128V32H160.022V-0.0224609Z" fill="#B1B1B1" fill-opacity="0.39"/>
<path opacity="0.6" d="M144 2.11279V30.021" stroke="#B7B7B7" stroke-width="4.2" stroke-linecap="square"/>
<path opacity="0.6" d="M158.95 1.06201V30.9836" stroke="#B7B7B7" stroke-width="2.1" stroke-linecap="square"/>
<path opacity="0.6" d="M129.05 1.01733V30.9836" stroke="#B7B7B7" stroke-width="2.1" stroke-linecap="square"/>
</g>
<g clip-path="url(#clip6_234_9217)">
<path opacity="0.659574" d="M192.022 -0.0224609H160V32H192.022V-0.0224609Z" fill="#B1B1B1" fill-opacity="0.39"/>
<path opacity="0.6" d="M176 2.11279V30.021" stroke="#B7B7B7" stroke-width="4.2" stroke-linecap="square"/>
<path opacity="0.6" d="M190.95 1.06201V30.9836" stroke="#B7B7B7" stroke-width="2.1" stroke-linecap="square"/>
<path opacity="0.6" d="M161.05 1.01733V30.9836" stroke="#B7B7B7" stroke-width="2.1" stroke-linecap="square"/>
</g>
<g clip-path="url(#clip7_234_9217)">
<path opacity="0.659574" d="M224.022 -0.0224609H192V32H224.022V-0.0224609Z" fill="#B1B1B1" fill-opacity="0.39"/>
<path opacity="0.6" d="M208 2.11279V30.021" stroke="#B7B7B7" stroke-width="4.2" stroke-linecap="square"/>
<path opacity="0.6" d="M222.95 1.06201V30.9836" stroke="#B7B7B7" stroke-width="2.1" stroke-linecap="square"/>
<path opacity="0.6" d="M193.05 1.01733V30.9836" stroke="#B7B7B7" stroke-width="2.1" stroke-linecap="square"/>
</g>
<g clip-path="url(#clip8_234_9217)">
<path opacity="0.659574" d="M256.022 -0.0224609H224V32H256.022V-0.0224609Z" fill="#B1B1B1" fill-opacity="0.39"/>
<path opacity="0.6" d="M240 2.11279V30.021" stroke="#B7B7B7" stroke-width="4.2" stroke-linecap="square"/>
<path opacity="0.6" d="M254.95 1.06201V30.9836" stroke="#B7B7B7" stroke-width="2.1" stroke-linecap="square"/>
<path opacity="0.6" d="M225.05 1.01733V30.9836" stroke="#B7B7B7" stroke-width="2.1" stroke-linecap="square"/>
</g>
<g clip-path="url(#clip9_234_9217)">
<path opacity="0.659574" d="M288.022 -0.0224609H256V32H288.022V-0.0224609Z" fill="#B1B1B1" fill-opacity="0.39"/>
<path opacity="0.6" d="M272 2.11279V30.021" stroke="#B7B7B7" stroke-width="4.2" stroke-linecap="square"/>
<path opacity="0.6" d="M286.95 1.06201V30.9836" stroke="#B7B7B7" stroke-width="2.1" stroke-linecap="square"/>
<path opacity="0.6" d="M257.05 1.01733V30.9836" stroke="#B7B7B7" stroke-width="2.1" stroke-linecap="square"/>
</g>
<g clip-path="url(#clip10_234_9217)">
<path opacity="0.659574" d="M320.022 -0.0224609H288V32H320.022V-0.0224609Z" fill="#B1B1B1" fill-opacity="0.39"/>
<path opacity="0.6" d="M289.05 1.01733V30.9836" stroke="#B7B7B7" stroke-width="2.1" stroke-linecap="square"/>
</g>
<g clip-path="url(#clip11_234_9217)">
<path opacity="0.659574" d="M32.0224 31.9775H0V64H32.0224V31.9775Z" fill="#B1B1B1" fill-opacity="0.39"/>
<path opacity="0.6" d="M16 34.1128V62.021" stroke="#B7B7B7" stroke-width="4.2" stroke-linecap="square"/>
<path opacity="0.6" d="M30.95 33.062V62.9836" stroke="#B7B7B7" stroke-width="2.1" stroke-linecap="square"/>
<path opacity="0.6" d="M1.04999 33.0173V62.9836" stroke="#B7B7B7" stroke-width="2.1" stroke-linecap="square"/>
</g>
<g clip-path="url(#clip12_234_9217)">
<path opacity="0.659574" d="M64.0224 31.9775H32V64H64.0224V31.9775Z" fill="#B1B1B1" fill-opacity="0.39"/>
<path opacity="0.6" d="M48 34.1128V62.021" stroke="#B7B7B7" stroke-width="4.2" stroke-linecap="square"/>
<path opacity="0.6" d="M62.95 33.062V62.9836" stroke="#B7B7B7" stroke-width="2.1" stroke-linecap="square"/>
<path opacity="0.6" d="M33.05 33.0173V62.9836" stroke="#B7B7B7" stroke-width="2.1" stroke-linecap="square"/>
</g>
<g clip-path="url(#clip13_234_9217)">
<path opacity="0.659574" d="M96.0224 31.9775H64V64H96.0224V31.9775Z" fill="#B1B1B1" fill-opacity="0.39"/>
<path opacity="0.6" d="M80 34.1128V62.021" stroke="#B7B7B7" stroke-width="4.2" stroke-linecap="square"/>
<path opacity="0.6" d="M94.95 33.062V62.9836" stroke="#B7B7B7" stroke-width="2.1" stroke-linecap="square"/>
<path opacity="0.6" d="M65.05 33.0173V62.9836" stroke="#B7B7B7" stroke-width="2.1" stroke-linecap="square"/>
</g>
<g clip-path="url(#clip14_234_9217)">
<path opacity="0.659574" d="M128.022 31.9775H96V64H128.022V31.9775Z" fill="#B1B1B1" fill-opacity="0.39"/>
<path opacity="0.6" d="M112 34.1128V62.021" stroke="#B7B7B7" stroke-width="4.2" stroke-linecap="square"/>
<path opacity="0.6" d="M126.95 33.062V62.9836" stroke="#B7B7B7" stroke-width="2.1" stroke-linecap="square"/>
<path opacity="0.6" d="M97.05 33.0173V62.9836" stroke="#B7B7B7" stroke-width="2.1" stroke-linecap="square"/>
</g>
<g clip-path="url(#clip15_234_9217)">
<path opacity="0.659574" d="M160.022 31.9775H128V64H160.022V31.9775Z" fill="#B1B1B1" fill-opacity="0.39"/>
<path opacity="0.6" d="M144 34.1128V62.021" stroke="#B7B7B7" stroke-width="4.2" stroke-linecap="square"/>
<path opacity="0.6" d="M158.95 33.062V62.9836" stroke="#B7B7B7" stroke-width="2.1" stroke-linecap="square"/>
<path opacity="0.6" d="M129.05 33.0173V62.9836" stroke="#B7B7B7" stroke-width="2.1" stroke-linecap="square"/>
</g>
<g clip-path="url(#clip16_234_9217)">
<path opacity="0.659574" d="M192.022 31.9775H160V64H192.022V31.9775Z" fill="#B1B1B1" fill-opacity="0.39"/>
<path opacity="0.6" d="M176 34.1128V62.021" stroke="#B7B7B7" stroke-width="4.2" stroke-linecap="square"/>
<path opacity="0.6" d="M190.95 33.062V62.9836" stroke="#B7B7B7" stroke-width="2.1" stroke-linecap="square"/>
<path opacity="0.6" d="M161.05 33.0173V62.9836" stroke="#B7B7B7" stroke-width="2.1" stroke-linecap="square"/>
</g>
<g clip-path="url(#clip17_234_9217)">
<path opacity="0.659574" d="M224.022 31.9775H192V64H224.022V31.9775Z" fill="#B1B1B1" fill-opacity="0.39"/>
<path opacity="0.6" d="M208 34.1128V62.021" stroke="#B7B7B7" stroke-width="4.2" stroke-linecap="square"/>
<path opacity="0.6" d="M222.95 33.062V62.9836" stroke="#B7B7B7" stroke-width="2.1" stroke-linecap="square"/>
<path opacity="0.6" d="M193.05 33.0173V62.9836" stroke="#B7B7B7" stroke-width="2.1" stroke-linecap="square"/>
</g>
<g clip-path="url(#clip18_234_9217)">
<path opacity="0.659574" d="M256.022 31.9775H224V64H256.022V31.9775Z" fill="#B1B1B1" fill-opacity="0.39"/>
<path opacity="0.6" d="M240 34.1128V62.021" stroke="#B7B7B7" stroke-width="4.2" stroke-linecap="square"/>
<path opacity="0.6" d="M254.95 33.062V62.9836" stroke="#B7B7B7" stroke-width="2.1" stroke-linecap="square"/>
<path opacity="0.6" d="M225.05 33.0173V62.9836" stroke="#B7B7B7" stroke-width="2.1" stroke-linecap="square"/>
</g>
<g clip-path="url(#clip19_234_9217)">
<path opacity="0.659574" d="M288.022 31.9775H256V64H288.022V31.9775Z" fill="#B1B1B1" fill-opacity="0.39"/>
<path opacity="0.6" d="M272 34.1128V62.021" stroke="#B7B7B7" stroke-width="4.2" stroke-linecap="square"/>
<path opacity="0.6" d="M286.95 33.062V62.9836" stroke="#B7B7B7" stroke-width="2.1" stroke-linecap="square"/>
<path opacity="0.6" d="M257.05 33.0173V62.9836" stroke="#B7B7B7" stroke-width="2.1" stroke-linecap="square"/>
</g>
<g clip-path="url(#clip20_234_9217)">
<path opacity="0.659574" d="M320.022 31.9775H288V64H320.022V31.9775Z" fill="#B1B1B1" fill-opacity="0.39"/>
<path opacity="0.6" d="M289.05 33.0173V62.9836" stroke="#B7B7B7" stroke-width="2.1" stroke-linecap="square"/>
</g>
<path opacity="0.953" d="M149.999 7C155.514 7 160 11.4465 160 17C160 22.5172 155.514 27 149.999 27C144.486 27 140 22.5172 140 17C140 11.4465 144.486 7 149.999 7Z" fill="#878787"/>
<path opacity="0.95" fill-rule="evenodd" clip-rule="evenodd" d="M150 26C154.971 26 159 21.9706 159 17C159 12.0294 154.971 8 150 8C145.029 8 141 12.0294 141 17C141 21.9706 145.029 26 150 26ZM150 27C155.523 27 160 22.5228 160 17C160 11.4772 155.523 7 150 7C144.477 7 140 11.4772 140 17C140 22.5228 144.477 27 150 27Z" fill="#404040"/>
<g opacity="0.5">
<path d="M151.5 13.5C151.5 14.3284 150.828 15 150 15C149.172 15 148.5 14.3284 148.5 13.5C148.5 12.6716 149.172 12 150 12C150.828 12 151.5 12.6716 151.5 13.5Z" fill="white"/>
<path fill-rule="evenodd" clip-rule="evenodd" d="M148.5 17.2071L146.854 18.8536C146.74 18.9672 146.579 19.0193 146.42 18.9935C146.261 18.9678 146.125 18.8674 146.053 18.7236L145.053 16.7236C144.929 16.4766 145.029 16.1763 145.276 16.0528C145.523 15.9293 145.824 16.0294 145.947 16.2764L146.637 17.6559L148.146 16.1464C148.409 15.8841 149.07 15.5 150 15.5C150.93 15.5 151.591 15.8841 151.854 16.1464L153.363 17.6559L154.053 16.2764C154.176 16.0294 154.477 15.9293 154.724 16.0528C154.971 16.1763 155.071 16.4766 154.947 16.7236L153.947 18.7236C153.875 18.8674 153.739 18.9678 153.58 18.9935C153.421 19.0193 153.26 18.9672 153.146 18.8536L151.5 17.2071V22H148.5V17.2071Z" fill="white"/>
</g>
<path fill-rule="evenodd" clip-rule="evenodd" d="M145 12.5C145 12.2239 144.776 12 144.5 12C144.224 12 144 12.2239 144 12.5V21.5C144 21.7761 144.224 22 144.5 22C144.776 22 145 21.7761 145 21.5V12.5ZM147.5 12C147.776 12 148 12.2239 148 12.5V21.5C148 21.7761 147.776 22 147.5 22C147.224 22 147 21.7761 147 21.5V12.5C147 12.2239 147.224 12 147.5 12ZM150.5 12.5C150.5 12.2239 150.276 12 150 12C149.724 12 149.5 12.2239 149.5 12.5V21.5C149.5 21.7761 149.724 22 150 22C150.276 22 150.5 21.7761 150.5 21.5V12.5ZM152.5 12C152.776 12 153 12.2239 153 12.5V21.5C153 21.7761 152.776 22 152.5 22C152.224 22 152 21.7761 152 21.5V12.5C152 12.2239 152.224 12 152.5 12ZM155.5 12C155.776 12 156 12.2239 156 12.5V21.5C156 21.7761 155.776 22 155.5 22C155.224 22 155 21.7761 155 21.5V12.5C155 12.2239 155.224 12 155.5 12Z" fill="white"/>
<path opacity="0.8" fill-rule="evenodd" clip-rule="evenodd" d="M155.5 18C155.776 18 156 17.7761 156 17.5C156 17.2239 155.776 17 155.5 17L144.7 17C144.424 17 144.2 17.2239 144.2 17.5C144.2 17.7761 144.424 18 144.7 18L155.5 18ZM155.4 21C155.676 21 155.9 20.7761 155.9 20.5C155.9 20.2239 155.676 20 155.4 20L144.6 20C144.324 20 144.1 20.2239 144.1 20.5C144.1 20.7761 144.324 21 144.6 21L155.4 21Z" fill="white"/>
</g>
<defs>
<clipPath id="clip0_234_9217">
<rect width="300" height="35" fill="white"/>
</clipPath>
<clipPath id="clip1_234_9217">
<rect width="32" height="32" fill="white"/>
</clipPath>
<clipPath id="clip2_234_9217">
<rect width="32" height="32" fill="white" transform="translate(32)"/>
</clipPath>
<clipPath id="clip3_234_9217">
<rect width="32" height="32" fill="white" transform="translate(64)"/>
</clipPath>
<clipPath id="clip4_234_9217">
<rect width="32" height="32" fill="white" transform="translate(96)"/>
</clipPath>
<clipPath id="clip5_234_9217">
<rect width="32" height="32" fill="white" transform="translate(128)"/>
</clipPath>
<clipPath id="clip6_234_9217">
<rect width="32" height="32" fill="white" transform="translate(160)"/>
</clipPath>
<clipPath id="clip7_234_9217">
<rect width="32" height="32" fill="white" transform="translate(192)"/>
</clipPath>
<clipPath id="clip8_234_9217">
<rect width="32" height="32" fill="white" transform="translate(224)"/>
</clipPath>
<clipPath id="clip9_234_9217">
<rect width="32" height="32" fill="white" transform="translate(256)"/>
</clipPath>
<clipPath id="clip10_234_9217">
<rect width="32" height="32" fill="white" transform="translate(288)"/>
</clipPath>
<clipPath id="clip11_234_9217">
<rect width="32" height="32" fill="white" transform="translate(0 32)"/>
</clipPath>
<clipPath id="clip12_234_9217">
<rect width="32" height="32" fill="white" transform="translate(32 32)"/>
</clipPath>
<clipPath id="clip13_234_9217">
<rect width="32" height="32" fill="white" transform="translate(64 32)"/>
</clipPath>
<clipPath id="clip14_234_9217">
<rect width="32" height="32" fill="white" transform="translate(96 32)"/>
</clipPath>
<clipPath id="clip15_234_9217">
<rect width="32" height="32" fill="white" transform="translate(128 32)"/>
</clipPath>
<clipPath id="clip16_234_9217">
<rect width="32" height="32" fill="white" transform="translate(160 32)"/>
</clipPath>
<clipPath id="clip17_234_9217">
<rect width="32" height="32" fill="white" transform="translate(192 32)"/>
</clipPath>
<clipPath id="clip18_234_9217">
<rect width="32" height="32" fill="white" transform="translate(224 32)"/>
</clipPath>
<clipPath id="clip19_234_9217">
<rect width="32" height="32" fill="white" transform="translate(256 32)"/>
</clipPath>
<clipPath id="clip20_234_9217">
<rect width="32" height="32" fill="white" transform="translate(288 32)"/>
</clipPath>
</defs>
</svg>
