<svg width="300" height="35" viewBox="0 0 300 35" fill="none" xmlns="http://www.w3.org/2000/svg">
<rect x="1" y="1" width="298" height="33" stroke="#7479EC" stroke-width="2"/>
<path d="M151.5 14C152.052 14 152.5 14.4477 152.5 15V15.5C152.5 15.7761 152.724 16 153 16C153.276 16 153.5 15.7761 153.5 15.5V15C153.5 13.8954 152.605 13 151.5 13C150.395 13 149.5 13.8954 149.5 15V16.1684C149.273 16.0604 149.018 16 148.75 16C147.784 16 147 16.7835 147 17.75V18C147 18.2761 147.224 18.5 147.5 18.5C147.776 18.5 148 18.2761 148 18V17.75C148 17.3358 148.336 17 148.75 17C149.164 17 149.5 17.3358 149.5 17.75V20H148C146.895 20 146 20.8954 146 22H154C154 20.8954 153.105 20 152 20H150.5V15C150.5 14.4477 150.948 14 151.5 14Z" fill="#3F8FD4"/>
<path opacity="0.5" d="M147.5 14C147.5 13.4477 147.948 13 148.5 13C149.052 13 149.5 13.4477 149.5 14V20H151V18.5C151 18.2239 151.224 18 151.5 18C151.776 18 152 18.2239 152 18.5V19C152 19.2761 152.224 19.5 152.5 19.5C152.776 19.5 153 19.2761 153 19V18.5C153 17.6716 152.328 17 151.5 17C151.116 17 150.765 17.1444 150.5 17.3819V14C150.5 12.8954 149.605 12 148.5 12C147.395 12 146.5 12.8954 146.5 14V14.5C146.5 14.7761 146.724 15 147 15C147.276 15 147.5 14.7761 147.5 14.5V14Z" fill="#3F8FD4"/>
</svg>
