<svg width="300" height="35" viewBox="0 0 300 35" fill="none" xmlns="http://www.w3.org/2000/svg">
<rect width="300" height="35" fill="#E5DFDA"/>
<path opacity="0.953" d="M149.999 7C155.514 7 160 11.4465 160 17C160 22.5172 155.514 27 149.999 27C144.486 27 140 22.5172 140 17C140 11.4465 144.486 7 149.999 7Z" fill="#878787"/>
<path opacity="0.95" fill-rule="evenodd" clip-rule="evenodd" d="M150 26C154.971 26 159 21.9706 159 17C159 12.0294 154.971 8 150 8C145.029 8 141 12.0294 141 17C141 21.9706 145.029 26 150 26ZM150 27C155.523 27 160 22.5228 160 17C160 11.4772 155.523 7 150 7C144.477 7 140 11.4772 140 17C140 22.5228 144.477 27 150 27Z" fill="#404040"/>
<path d="M153.319 17.784H152.369C151.718 17.9116 151.475 17.0675 151.132 16.9061C151.098 16.9128 150.855 17.1803 150.855 17.2065C151.071 17.925 151.76 18.3197 152.133 18.3914C152.204 18.4071 152.288 18.4718 152.288 18.4718L151.72 20.6701H152.315V22.3929C152.315 22.5468 152.389 22.6238 152.537 22.6238C152.685 22.6238 152.759 22.5468 152.759 22.3929V20.6614H152.982V22.4018C152.982 22.5498 153.056 22.6238 153.204 22.6238C153.352 22.6238 153.425 22.5498 153.426 22.4018V20.6701H154.02L153.399 18.4589H153.612L153.985 19.7023C154.015 19.8089 154.077 19.8622 154.171 19.8622C154.308 19.8622 154.376 19.7941 154.376 19.6578C154.376 19.6282 154.37 19.6015 154.358 19.5779L153.949 18.2193C153.92 18.1244 153.852 18.0327 153.745 17.9439C153.615 17.8373 153.473 17.784 153.319 17.784V17.784ZM152.865 17.6862C153.047 17.6862 153.201 17.6228 153.328 17.4961C153.455 17.3694 153.518 17.2188 153.518 17.0445C153.518 16.8621 153.455 16.7076 153.328 16.5808C153.201 16.4541 153.047 16.3908 152.865 16.3908C152.69 16.3908 152.54 16.4541 152.413 16.5808C152.286 16.7076 152.223 16.8621 152.223 17.0445C152.223 17.2188 152.286 17.3694 152.413 17.4961C152.54 17.6228 152.69 17.6862 152.865 17.6862ZM148.009 13.1556C148.251 13.1556 148.459 13.0677 148.635 12.8919C148.811 12.7161 148.899 12.5073 148.899 12.2656C148.899 12.0132 148.811 11.8018 148.635 11.6315C148.459 11.4613 148.251 11.3761 148.009 11.3761C147.767 11.3761 147.559 11.4613 147.383 11.6315C147.207 11.8018 147.119 12.0132 147.119 12.2656C147.119 12.5073 147.207 12.7161 147.383 12.8919C147.559 13.0677 147.767 13.1556 148.009 13.1556ZM149.057 13.3366H146.951C146.667 13.3366 146.424 13.4493 146.223 13.6745C146.021 13.8998 145.921 14.1772 145.921 14.5067L145.628 17.2416C145.6 17.5039 145.736 17.6373 145.952 17.6373C146.158 17.6373 146.261 17.5054 146.261 17.2416L146.554 14.5726H146.806V21.8223C146.806 22.1519 146.889 22.3166 147.244 22.3166C147.6 22.3166 147.664 22.1519 147.664 21.8223V17.6207H148.354V21.8223C148.354 22.1519 148.418 22.3166 148.774 22.3166C149.141 22.3166 149.228 22.1519 149.228 21.8223V14.5726H149.469L150.557 16.9048C150.557 17.1793 150.672 17.3166 150.903 17.3166C151.134 17.3166 151.249 17.1793 151.249 16.9048L150.147 14.5134C149.991 14.1769 149.992 13.927 149.801 13.6909C149.609 13.4547 149.362 13.3366 149.057 13.3366V13.3366Z" fill="white"/>
</svg>
