<svg width="300" height="35" viewBox="0 0 300 35" fill="none" xmlns="http://www.w3.org/2000/svg">
<rect width="300" height="35" fill="#33C458" fill-opacity="0.23"/>
<rect x="1" y="1" width="298" height="33" stroke="#9A3300" stroke-opacity="0.4" stroke-width="2" stroke-dasharray="10 3"/>
<path opacity="0.958" d="M149.999 8C154.963 8 159 12.0018 159 17C159 21.9655 154.963 26 149.999 26C145.037 26 141 21.9655 141 17C141 12.0018 145.037 8 149.999 8Z" fill="#BA9171"/>
<path opacity="0.95" fill-rule="evenodd" clip-rule="evenodd" d="M150 26C154.971 26 159 21.9706 159 17C159 12.0294 154.971 8 150 8C145.029 8 141 12.0294 141 17C141 21.9706 145.029 26 150 26ZM150 27C155.523 27 160 22.5228 160 17C160 11.4772 155.523 7 150 7C144.477 7 140 11.4772 140 17C140 22.5228 144.477 27 150 27Z" fill="#AF7A57"/>
<path fill-rule="evenodd" clip-rule="evenodd" d="M150.955 14.4978L150.084 14.4187L150.329 15.7649L150.407 15.7093L152.757 18.9999H154V19.9999H155V20.9999H145V19.9999H146L146 14.0474L145.455 13.9978L145.545 13.002L151.045 13.502L150.955 14.4978ZM147 18.9999H148V14.2292L147 14.1383L147 18.9999ZM149 18.9999H149.901L149.051 14.3248L149 14.3201V18.9999ZM150.917 18.9999H151.528L150.709 17.8522L150.917 18.9999Z" fill="white"/>
</svg>
