<svg width="300" height="35" viewBox="0 0 300 35" fill="none" xmlns="http://www.w3.org/2000/svg">
<rect x="0.5" y="0.5" width="299" height="34" fill="#66F2CA" fill-opacity="0.92" stroke="#734A08" stroke-dasharray="9 9"/>
<path opacity="0.958" d="M149.999 8C154.963 8 159 12.0018 159 17C159 21.9655 154.963 26 149.999 26C145.037 26 141 21.9655 141 17C141 12.0018 145.037 8 149.999 8Z" fill="#BA9171"/>
<path opacity="0.95" fill-rule="evenodd" clip-rule="evenodd" d="M150 26C154.971 26 159 21.9706 159 17C159 12.0294 154.971 8 150 8C145.029 8 141 12.0294 141 17C141 21.9706 145.029 26 150 26ZM150 27C155.523 27 160 22.5228 160 17C160 11.4772 155.523 7 150 7C144.477 7 140 11.4772 140 17C140 22.5228 144.477 27 150 27Z" fill="#AF7A57"/>
<g opacity="0.5">
<path d="M146.5 13.1667L146 13V21H146.5V13.1667Z" fill="white"/>
<path d="M147.5 21H148V13.6667L147.5 13.5V21Z" fill="white"/>
<path d="M149 14V21H149.5V14.6667L149 14Z" fill="white"/>
<path d="M150.5 16V21H151V16.6667L150.5 16Z" fill="white"/>
<path d="M152 18V21H152.5V18H152Z" fill="white"/>
<path d="M153.5 18V21H154V18H153.5Z" fill="white"/>
</g>
<g opacity="0.3">
<path d="M146.5 20H147.5V19.5H146.5V20Z" fill="white"/>
<path d="M146.5 18.5H147.5V18H146.5V18.5Z" fill="white"/>
<path d="M146.5 17H147.5V16.5H146.5V17Z" fill="white"/>
<path d="M146.5 15.5H147.5V15H146.5V15.5Z" fill="white"/>
<path d="M148 15V15.5H149V15H148Z" fill="white"/>
<path d="M149 16.5L148 16.5V17L149 17V16.5Z" fill="white"/>
<path d="M149.5 17V16.5L150.5 16.5V17H149.5Z" fill="white"/>
<path d="M149 18H148V18.5H149V18Z" fill="white"/>
<path d="M149.5 18.5V18H150.5V18.5L149.5 18.5Z" fill="white"/>
<path d="M149 19.5H148V20H149V19.5Z" fill="white"/>
<path d="M149.5 20V19.5L150.5 19.5V20L149.5 20Z" fill="white"/>
<path d="M151 20H152V19.5H151V20Z" fill="white"/>
<path d="M151 18.5H152V18H151V18.5Z" fill="white"/>
<path d="M153.5 19.5H152.5V20H153.5V19.5Z" fill="white"/>
</g>
<path fill-rule="evenodd" clip-rule="evenodd" d="M148.809 14.7027C148.166 14.2925 147.294 14 146 14V13C147.456 13 148.521 13.3325 149.347 13.8598C150.166 14.3822 150.711 15.0725 151.16 15.7133C151.27 15.8715 151.373 16.0233 151.472 16.1686C151.789 16.6363 152.06 17.0355 152.395 17.3594C152.797 17.7488 153.27 18 154 18V19C152.98 19 152.266 18.6262 151.699 18.0781C151.283 17.675 150.933 17.1587 150.605 16.6736C150.516 16.5414 150.428 16.4114 150.34 16.2867C149.914 15.6775 149.459 15.1178 148.809 14.7027Z" fill="white"/>
<g opacity="0.8">
<path d="M151.628 13.5192C151.719 13.6234 151.877 13.6344 151.981 13.5438C152.085 13.4533 152.096 13.2954 152.006 13.1912C151.915 13.0869 151.757 13.0759 151.653 13.1665C151.549 13.2571 151.538 13.415 151.628 13.5192Z" fill="white"/>
<path d="M152.284 14.2739C152.375 14.3781 152.533 14.3891 152.637 14.2986C152.741 14.208 152.752 14.0501 152.662 13.9459C152.571 13.8417 152.413 13.8306 152.309 13.9212C152.205 14.0118 152.194 14.1697 152.284 14.2739Z" fill="white"/>
<path d="M151.44 13.6832C151.53 13.7874 151.519 13.9453 151.415 14.0359L151.038 14.3639L150.71 13.9866L151.087 13.6585C151.191 13.568 151.349 13.579 151.44 13.6832Z" fill="white"/>
<path d="M152.071 14.7906C152.175 14.7 152.186 14.5421 152.096 14.4379C152.005 14.3337 151.847 14.3227 151.743 14.4132L151.366 14.7413L151.694 15.1186L152.071 14.7906Z" fill="white"/>
</g>
<path d="M150.636 13.4431C150.719 13.3706 150.846 13.3794 150.918 13.4628L152.296 15.0477C152.368 15.1311 152.36 15.2574 152.276 15.3298L152.05 15.5267C151.841 15.7078 151.526 15.6857 151.344 15.4773L150.36 14.3453C150.179 14.1369 150.201 13.8211 150.41 13.6399L150.636 13.4431Z" fill="white"/>
</svg>
