<svg width="300" height="35" viewBox="0 0 300 35" fill="none" xmlns="http://www.w3.org/2000/svg">
<rect width="300" height="35" fill="#3B3B3B"/>
<path opacity="0.954" d="M149.999 8C154.963 8 159 12.0018 159 17C159 21.9655 154.963 26 149.999 26C145.037 26 141 21.9655 141 17C141 12.0018 145.037 8 149.999 8Z" fill="#B72A5C"/>
<path opacity="0.95" fill-rule="evenodd" clip-rule="evenodd" d="M150 26C154.971 26 159 21.9706 159 17C159 12.0294 154.971 8 150 8C145.029 8 141 12.0294 141 17C141 21.9706 145.029 26 150 26ZM150 27C155.523 27 160 22.5228 160 17C160 11.4772 155.523 7 150 7C144.477 7 140 11.4772 140 17C140 22.5228 144.477 27 150 27Z" fill="#DB628D"/>
<path opacity="0.2" fill-rule="evenodd" clip-rule="evenodd" d="M154.5 22H145.5V21H154.5V22Z" fill="white"/>
<path d="M150 10.928L145 13.7058V22H146V14.2942L150 12.0719L154 14.2942V22H155V13.7058L150 10.928Z" fill="white"/>
<path d="M151 14C151 14.5522 150.552 15 150 15C149.448 15 149 14.5522 149 14C149 13.4477 149.448 13 150 13C150.552 13 151 13.4477 151 14Z" fill="white"/>
<path d="M150 15.5C150.471 15.5 150.867 15.8261 150.972 16.2651L151.561 16.8535C151.654 16.9473 151.782 17 151.914 17H152.5C152.776 17 153 17.2238 153 17.5C153 17.7761 152.776 18 152.5 18H151.914C151.582 18 151.261 17.8896 151 17.6892V18.5H151.5C151.667 18.5 151.823 18.5835 151.916 18.7226L152.768 20H153C153.276 20 153.5 20.2238 153.5 20.5C153.5 20.7761 153.276 21 153 21H152.5C152.333 21 152.177 20.9164 152.084 20.7773L151.232 19.5H150C149.448 19.5 149 19.0522 149 18.5V16.5C149 15.9477 149.448 15.5 150 15.5Z" fill="white"/>
<path d="M148.5 17.05C147.359 17.2816 146.5 18.2905 146.5 19.5C146.5 20.8807 147.619 22 149 22C150.008 22 150.877 21.4035 151.272 20.5442L151 20H150.415C150.209 20.5826 149.653 21 149 21C148.172 21 147.5 20.3284 147.5 19.5C147.5 18.8469 147.917 18.2912 148.5 18.0853V17.05Z" fill="white"/>
</svg>
