<svg width="300" height="35" viewBox="0 0 300 35" fill="none" xmlns="http://www.w3.org/2000/svg">
<g clip-path="url(#clip0_214_10574)">
<rect width="300" height="35" fill="#87CC70"/>
<path opacity="0.804" d="M3.53973 29.0953L12.5024 29.1327C12.5024 29.1327 12.4148 26.9444 10.8318 26.9337C9.24889 26.9231 6.3275 26.916 5.18918 26.9277C4.05086 26.9386 3.58184 27.7959 3.53973 29.096V29.0953Z" fill="#67BF4C"/>
<path opacity="0.804" d="M19.532 13.1924L28.4947 13.2298C28.4947 13.2298 28.4071 11.0414 26.8241 11.0308C25.2412 11.0202 22.3198 11.0131 21.1815 11.0238C20.0431 11.0348 19.5741 11.8919 19.532 13.192V13.1924Z" fill="#67BF4C"/>
<g opacity="0.804">
<path opacity="0.804" d="M7.37779 25.7312C7.25016 25.7058 7.00215 25.6346 6.82665 25.5729C5.92718 25.2568 5.05863 24.3665 4.73452 23.4285C4.62145 23.1012 4.5485 22.7448 4.55279 22.265C4.55661 21.7848 4.62141 21.4768 4.73452 21.1496C5.04351 20.2553 5.82507 19.4146 6.68692 19.0496C7.00001 18.917 7.69553 18.788 8.09755 18.788C8.69676 18.788 9.83132 19.1669 10.061 19.4436C10.1785 19.5851 10.0696 19.5899 9.49054 19.4686C9.02743 19.3716 8.87382 19.3626 8.51575 19.4118C7.48473 19.5535 6.5572 20.3305 6.1865 21.3631C6.01164 21.8502 6.011 22.7262 6.18557 23.2102C6.54606 24.2122 7.45922 24.9958 8.46775 25.1685C8.78075 25.2222 8.92427 25.2136 9.43791 25.1103C9.76947 25.0437 10.0623 25.0099 10.0886 25.0352C10.1499 25.0942 9.87418 25.2904 9.46989 25.4755C8.87292 25.7488 8.00237 25.8552 7.37825 25.7311L7.37779 25.7312ZM9.29303 23.4255C9.27547 23.3971 9.32576 23.1838 9.40477 22.9515C9.48378 22.7192 9.5484 22.522 9.5484 22.5133C9.5484 22.5047 9.37916 22.3766 9.17229 22.229C8.96542 22.0814 8.79614 21.9379 8.79614 21.9101C8.79614 21.8824 9.01097 21.8521 9.27354 21.8429L9.75095 21.8261L9.9014 21.395C9.98413 21.1578 10.0792 20.9547 10.1126 20.9436C10.1461 20.9324 10.2433 21.1329 10.3287 21.3891L10.4838 21.855H10.9758C11.2471 21.855 11.4591 21.8786 11.4484 21.9077C11.4378 21.9367 11.2664 22.0798 11.0675 22.2258C10.8685 22.3718 10.7058 22.5133 10.7058 22.5402C10.7058 22.5671 10.7579 22.7405 10.8215 22.9255C10.933 23.2495 10.9687 23.4753 10.9085 23.4753C10.8926 23.4753 10.7205 23.3581 10.5259 23.2148C10.3314 23.0716 10.1479 22.9544 10.1182 22.9544C10.0886 22.9544 9.92866 23.0538 9.76292 23.1752C9.36223 23.4688 9.33026 23.4858 9.293 23.4255L9.29303 23.4255Z" fill="#67BF4C"/>
<path opacity="0.804" d="M10.1032 20.8994C9.97979 20.9882 9.95605 21.1623 9.89088 21.2923C9.83162 21.4548 9.77659 21.6191 9.71868 21.7822C9.40662 21.8089 9.07596 21.7678 8.77604 21.8652C8.70027 21.9546 8.85469 22.0244 8.90541 22.0824C9.09654 22.2391 9.30474 22.3725 9.49796 22.5273C9.4158 22.8271 9.26417 23.1173 9.24701 23.4298C9.29864 23.5685 9.4562 23.4549 9.52836 23.4002C9.72549 23.27 9.90983 23.0994 10.1221 23.0025C10.3936 23.1477 10.6243 23.3689 10.8953 23.5185C11.0165 23.5223 10.9813 23.3511 10.967 23.2738C10.9223 23.0251 10.798 22.783 10.7576 22.5407C10.9803 22.3115 11.2761 22.1677 11.4886 21.9285C11.5022 21.8084 11.3259 21.8374 11.2496 21.8188C11.0053 21.8031 10.7604 21.8131 10.5158 21.8102C10.3999 21.5114 10.347 21.1759 10.1573 20.9147C10.1425 20.9028 10.1229 20.8936 10.1032 20.8992V20.8994Z" fill="#67BF4C"/>
</g>
<g opacity="0.804">
<path opacity="0.804" d="M23.369 9.81985C23.2414 9.79447 22.9934 9.72327 22.8179 9.66157C21.9184 9.34545 21.0498 8.45517 20.7257 7.51714C20.6127 7.1899 20.5397 6.83353 20.544 6.3537C20.5478 5.87353 20.6126 5.56549 20.7257 5.23825C21.0347 4.34397 21.8163 3.50332 22.6781 3.13829C22.9912 3.00568 23.6867 2.87671 24.0888 2.87671C24.688 2.87671 25.8225 3.25554 26.0522 3.53231C26.1697 3.67381 26.0608 3.67859 25.4817 3.5573C25.0186 3.46027 24.865 3.45131 24.507 3.50051C23.4759 3.64217 22.5484 4.41916 22.1777 5.45175C22.0029 5.93885 22.0022 6.81487 22.1768 7.29887C22.5373 8.30089 23.4504 9.08445 24.459 9.25721C24.772 9.31084 24.9155 9.30228 25.4291 9.19902C25.7607 9.13241 26.0535 9.0986 26.0798 9.12392C26.1411 9.18289 25.8654 9.37912 25.4611 9.56422C24.8641 9.83752 23.9936 9.94389 23.3695 9.8198L23.369 9.81985ZM25.2842 7.5142C25.2667 7.48576 25.317 7.27248 25.396 7.04017C25.475 6.80787 25.5396 6.61066 25.5396 6.60194C25.5396 6.59335 25.3704 6.46529 25.1635 6.31767C24.9566 6.17005 24.7874 6.02655 24.7874 5.99881C24.7874 5.97104 25.0022 5.9408 25.2648 5.93154L25.7422 5.91474L25.8926 5.48364C25.9753 5.24652 26.0704 5.04339 26.1039 5.03224C26.1374 5.02107 26.2345 5.2216 26.3199 5.47781L26.475 5.94365H26.967C27.2383 5.94365 27.4503 5.96733 27.4396 5.99634C27.429 6.02535 27.2576 6.1685 27.0587 6.3145C26.8597 6.46051 26.697 6.60197 26.697 6.62888C26.697 6.65579 26.7491 6.82918 26.8127 7.0142C26.9242 7.33816 26.9599 7.56394 26.8997 7.56394C26.8838 7.56394 26.7117 7.44675 26.5171 7.30353C26.3226 7.1603 26.1391 7.04311 26.1095 7.04311C26.0798 7.04311 25.9199 7.14247 25.7541 7.26389C25.3534 7.55744 25.3215 7.57447 25.2842 7.51417L25.2842 7.5142Z" fill="#67BF4C"/>
<path opacity="0.804" d="M26.0944 4.98805C25.971 5.0769 25.9473 5.25094 25.8821 5.38097C25.8228 5.54344 25.7678 5.7078 25.7099 5.87093C25.3978 5.89755 25.0672 5.8565 24.7673 5.95384C24.6915 6.04326 24.8459 6.11308 24.8966 6.17104C25.0877 6.32783 25.2959 6.46115 25.4892 6.616C25.407 6.9158 25.2554 7.20598 25.2382 7.51853C25.2898 7.65723 25.4474 7.54363 25.5196 7.48886C25.7167 7.35871 25.901 7.18812 26.1134 7.09119C26.3848 7.23634 26.6155 7.45755 26.8866 7.60715C27.0077 7.61097 26.9725 7.4398 26.9582 7.36252C26.9135 7.11381 26.7892 6.87165 26.7488 6.6294C26.9715 6.40021 27.2673 6.25635 27.4798 6.01715C27.4935 5.8971 27.3171 5.9261 27.2408 5.90748C26.9965 5.89183 26.7516 5.90175 26.507 5.89889C26.3911 5.60013 26.3382 5.26456 26.1485 5.00337C26.1337 4.99144 26.1141 4.98228 26.0944 4.98791V4.98805Z" fill="#67BF4C"/>
</g>
<path opacity="0.804" d="M35.5397 29.0953L44.5024 29.1327C44.5024 29.1327 44.4148 26.9444 42.8318 26.9337C41.2489 26.9231 38.3275 26.916 37.1892 26.9277C36.0509 26.9386 35.5818 27.7959 35.5397 29.096V29.0953Z" fill="#67BF4C"/>
<path opacity="0.804" d="M51.532 13.1924L60.4947 13.2298C60.4947 13.2298 60.4071 11.0414 58.8241 11.0308C57.2412 11.0202 54.3198 11.0131 53.1815 11.0238C52.0431 11.0348 51.5741 11.8919 51.532 13.192V13.1924Z" fill="#67BF4C"/>
<g opacity="0.804">
<path opacity="0.804" d="M39.3778 25.7312C39.2502 25.7058 39.0021 25.6346 38.8266 25.5729C37.9272 25.2568 37.0586 24.3665 36.7345 23.4285C36.6215 23.1012 36.5485 22.7448 36.5528 22.265C36.5566 21.7848 36.6214 21.4768 36.7345 21.1496C37.0435 20.2553 37.8251 19.4146 38.6869 19.0496C39 18.917 39.6955 18.788 40.0975 18.788C40.6968 18.788 41.8313 19.1669 42.061 19.4436C42.1785 19.5851 42.0696 19.5899 41.4905 19.4686C41.0274 19.3716 40.8738 19.3626 40.5157 19.4118C39.4847 19.5535 38.5572 20.3305 38.1865 21.3631C38.0116 21.8502 38.011 22.7262 38.1856 23.2102C38.5461 24.2122 39.4592 24.9958 40.4678 25.1685C40.7808 25.2222 40.9243 25.2136 41.4379 25.1103C41.7695 25.0437 42.0623 25.0099 42.0886 25.0352C42.1499 25.0942 41.8742 25.2904 41.4699 25.4755C40.8729 25.7488 40.0024 25.8552 39.3783 25.7311L39.3778 25.7312ZM41.293 23.4255C41.2755 23.3971 41.3258 23.1838 41.4048 22.9515C41.4838 22.7192 41.5484 22.522 41.5484 22.5133C41.5484 22.5047 41.3792 22.3766 41.1723 22.229C40.9654 22.0814 40.7961 21.9379 40.7961 21.9101C40.7961 21.8824 41.011 21.8521 41.2735 21.8429L41.7509 21.8261L41.9014 21.395C41.9841 21.1578 42.0792 20.9547 42.1126 20.9436C42.1461 20.9324 42.2433 21.1329 42.3287 21.3891L42.4838 21.855H42.9758C43.2471 21.855 43.4591 21.8786 43.4484 21.9077C43.4378 21.9367 43.2664 22.0798 43.0675 22.2258C42.8685 22.3718 42.7058 22.5133 42.7058 22.5402C42.7058 22.5671 42.7579 22.7405 42.8215 22.9255C42.933 23.2495 42.9687 23.4753 42.9085 23.4753C42.8926 23.4753 42.7205 23.3581 42.5259 23.2148C42.3314 23.0716 42.1479 22.9544 42.1182 22.9544C42.0886 22.9544 41.9287 23.0538 41.7629 23.1752C41.3622 23.4688 41.3303 23.4858 41.293 23.4255L41.293 23.4255Z" fill="#67BF4C"/>
<path opacity="0.804" d="M42.1032 20.8994C41.9798 20.9882 41.956 21.1623 41.8909 21.2923C41.8316 21.4548 41.7766 21.6191 41.7187 21.7822C41.4066 21.8089 41.076 21.7678 40.776 21.8652C40.7003 21.9546 40.8547 22.0244 40.9054 22.0824C41.0965 22.2391 41.3047 22.3725 41.498 22.5273C41.4158 22.8271 41.2642 23.1173 41.247 23.4298C41.2986 23.5685 41.4562 23.4549 41.5284 23.4002C41.7255 23.27 41.9098 23.0994 42.1221 23.0025C42.3936 23.1477 42.6243 23.3689 42.8953 23.5185C43.0165 23.5223 42.9813 23.3511 42.967 23.2738C42.9223 23.0251 42.798 22.783 42.7576 22.5407C42.9803 22.3115 43.2761 22.1677 43.4886 21.9285C43.5022 21.8084 43.3259 21.8374 43.2496 21.8188C43.0053 21.8031 42.7604 21.8131 42.5158 21.8102C42.3999 21.5114 42.347 21.1759 42.1573 20.9147C42.1425 20.9028 42.1229 20.8936 42.1032 20.8992V20.8994Z" fill="#67BF4C"/>
</g>
<g opacity="0.804">
<path opacity="0.804" d="M55.369 9.81985C55.2414 9.79447 54.9934 9.72327 54.8179 9.66157C53.9184 9.34545 53.0498 8.45517 52.7257 7.51714C52.6127 7.1899 52.5397 6.83353 52.544 6.3537C52.5478 5.87353 52.6126 5.56549 52.7257 5.23825C53.0347 4.34397 53.8163 3.50332 54.6781 3.13829C54.9912 3.00568 55.6867 2.87671 56.0888 2.87671C56.688 2.87671 57.8225 3.25554 58.0522 3.53231C58.1697 3.67381 58.0608 3.67859 57.4817 3.5573C57.0186 3.46027 56.865 3.45131 56.507 3.50051C55.4759 3.64217 54.5484 4.41916 54.1777 5.45175C54.0029 5.93885 54.0022 6.81487 54.1768 7.29887C54.5373 8.30089 55.4504 9.08445 56.459 9.25721C56.772 9.31084 56.9155 9.30228 57.4291 9.19902C57.7607 9.13241 58.0535 9.0986 58.0798 9.12392C58.1411 9.18289 57.8654 9.37912 57.4611 9.56422C56.8641 9.83752 55.9936 9.94389 55.3695 9.8198L55.369 9.81985ZM57.2842 7.5142C57.2667 7.48576 57.317 7.27248 57.396 7.04017C57.475 6.80787 57.5396 6.61066 57.5396 6.60194C57.5396 6.59335 57.3704 6.46529 57.1635 6.31767C56.9566 6.17005 56.7874 6.02655 56.7874 5.99881C56.7874 5.97104 57.0022 5.9408 57.2648 5.93154L57.7422 5.91474L57.8926 5.48364C57.9753 5.24652 58.0704 5.04339 58.1039 5.03224C58.1374 5.02107 58.2345 5.2216 58.3199 5.47781L58.475 5.94365H58.967C59.2383 5.94365 59.4503 5.96733 59.4396 5.99634C59.429 6.02535 59.2576 6.1685 59.0587 6.3145C58.8597 6.46051 58.697 6.60197 58.697 6.62888C58.697 6.65579 58.7491 6.82918 58.8127 7.0142C58.9242 7.33816 58.9599 7.56394 58.8997 7.56394C58.8838 7.56394 58.7117 7.44675 58.5171 7.30353C58.3226 7.1603 58.1391 7.04311 58.1095 7.04311C58.0798 7.04311 57.9199 7.14247 57.7541 7.26389C57.3534 7.55744 57.3215 7.57447 57.2842 7.51417L57.2842 7.5142Z" fill="#67BF4C"/>
<path opacity="0.804" d="M58.0944 4.98805C57.971 5.0769 57.9473 5.25094 57.8821 5.38097C57.8228 5.54344 57.7678 5.7078 57.7099 5.87093C57.3978 5.89755 57.0672 5.8565 56.7673 5.95384C56.6915 6.04326 56.8459 6.11308 56.8966 6.17104C57.0877 6.32783 57.2959 6.46115 57.4892 6.616C57.407 6.9158 57.2554 7.20598 57.2382 7.51853C57.2898 7.65723 57.4474 7.54363 57.5196 7.48886C57.7167 7.35871 57.901 7.18812 58.1134 7.09119C58.3848 7.23634 58.6155 7.45755 58.8866 7.60715C59.0077 7.61097 58.9725 7.4398 58.9582 7.36252C58.9135 7.11381 58.7892 6.87165 58.7488 6.6294C58.9715 6.40021 59.2673 6.25635 59.4798 6.01715C59.4935 5.8971 59.3171 5.9261 59.2408 5.90748C58.9965 5.89183 58.7516 5.90175 58.507 5.89889C58.3911 5.60013 58.3382 5.26456 58.1485 5.00337C58.1337 4.99144 58.1141 4.98228 58.0944 4.98791V4.98805Z" fill="#67BF4C"/>
</g>
<path opacity="0.804" d="M67.5397 29.0953L76.5024 29.1327C76.5024 29.1327 76.4148 26.9444 74.8318 26.9337C73.2489 26.9231 70.3275 26.916 69.1892 26.9277C68.0509 26.9386 67.5818 27.7959 67.5397 29.096V29.0953Z" fill="#67BF4C"/>
<path opacity="0.804" d="M83.532 13.1924L92.4947 13.2298C92.4947 13.2298 92.4071 11.0414 90.8241 11.0308C89.2412 11.0202 86.3198 11.0131 85.1815 11.0238C84.0431 11.0348 83.5741 11.8919 83.532 13.192V13.1924Z" fill="#67BF4C"/>
<g opacity="0.804">
<path opacity="0.804" d="M71.3778 25.7312C71.2502 25.7058 71.0021 25.6346 70.8266 25.5729C69.9272 25.2568 69.0586 24.3665 68.7345 23.4285C68.6215 23.1012 68.5485 22.7448 68.5528 22.265C68.5566 21.7848 68.6214 21.4768 68.7345 21.1496C69.0435 20.2553 69.8251 19.4146 70.6869 19.0496C71 18.917 71.6955 18.788 72.0975 18.788C72.6968 18.788 73.8313 19.1669 74.061 19.4436C74.1785 19.5851 74.0696 19.5899 73.4905 19.4686C73.0274 19.3716 72.8738 19.3626 72.5157 19.4118C71.4847 19.5535 70.5572 20.3305 70.1865 21.3631C70.0116 21.8502 70.011 22.7262 70.1856 23.2102C70.5461 24.2122 71.4592 24.9958 72.4678 25.1685C72.7808 25.2222 72.9243 25.2136 73.4379 25.1103C73.7695 25.0437 74.0623 25.0099 74.0886 25.0352C74.1499 25.0942 73.8742 25.2904 73.4699 25.4755C72.8729 25.7488 72.0024 25.8552 71.3783 25.7311L71.3778 25.7312ZM73.293 23.4255C73.2755 23.3971 73.3258 23.1838 73.4048 22.9515C73.4838 22.7192 73.5484 22.522 73.5484 22.5133C73.5484 22.5047 73.3792 22.3766 73.1723 22.229C72.9654 22.0814 72.7961 21.9379 72.7961 21.9101C72.7961 21.8824 73.011 21.8521 73.2735 21.8429L73.7509 21.8261L73.9014 21.395C73.9841 21.1578 74.0792 20.9547 74.1126 20.9436C74.1461 20.9324 74.2433 21.1329 74.3287 21.3891L74.4838 21.855H74.9758C75.2471 21.855 75.4591 21.8786 75.4484 21.9077C75.4378 21.9367 75.2664 22.0798 75.0675 22.2258C74.8685 22.3718 74.7058 22.5133 74.7058 22.5402C74.7058 22.5671 74.7579 22.7405 74.8215 22.9255C74.933 23.2495 74.9687 23.4753 74.9085 23.4753C74.8926 23.4753 74.7205 23.3581 74.5259 23.2148C74.3314 23.0716 74.1479 22.9544 74.1182 22.9544C74.0886 22.9544 73.9287 23.0538 73.7629 23.1752C73.3622 23.4688 73.3303 23.4858 73.293 23.4255L73.293 23.4255Z" fill="#67BF4C"/>
<path opacity="0.804" d="M74.1032 20.8994C73.9798 20.9882 73.956 21.1623 73.8909 21.2923C73.8316 21.4548 73.7766 21.6191 73.7187 21.7822C73.4066 21.8089 73.076 21.7678 72.776 21.8652C72.7003 21.9546 72.8547 22.0244 72.9054 22.0824C73.0965 22.2391 73.3047 22.3725 73.498 22.5273C73.4158 22.8271 73.2642 23.1173 73.247 23.4298C73.2986 23.5685 73.4562 23.4549 73.5284 23.4002C73.7255 23.27 73.9098 23.0994 74.1221 23.0025C74.3936 23.1477 74.6243 23.3689 74.8953 23.5185C75.0165 23.5223 74.9813 23.3511 74.967 23.2738C74.9223 23.0251 74.798 22.783 74.7576 22.5407C74.9803 22.3115 75.2761 22.1677 75.4886 21.9285C75.5022 21.8084 75.3259 21.8374 75.2496 21.8188C75.0053 21.8031 74.7604 21.8131 74.5158 21.8102C74.3999 21.5114 74.347 21.1759 74.1573 20.9147C74.1425 20.9028 74.1229 20.8936 74.1032 20.8992V20.8994Z" fill="#67BF4C"/>
</g>
<g opacity="0.804">
<path opacity="0.804" d="M87.369 9.81985C87.2414 9.79447 86.9934 9.72327 86.8179 9.66157C85.9184 9.34545 85.0498 8.45517 84.7257 7.51714C84.6127 7.1899 84.5397 6.83353 84.544 6.3537C84.5478 5.87353 84.6126 5.56549 84.7257 5.23825C85.0347 4.34397 85.8163 3.50332 86.6781 3.13829C86.9912 3.00568 87.6867 2.87671 88.0888 2.87671C88.688 2.87671 89.8225 3.25554 90.0522 3.53231C90.1697 3.67381 90.0608 3.67859 89.4817 3.5573C89.0186 3.46027 88.865 3.45131 88.507 3.50051C87.4759 3.64217 86.5484 4.41916 86.1777 5.45175C86.0029 5.93885 86.0022 6.81487 86.1768 7.29887C86.5373 8.30089 87.4504 9.08445 88.459 9.25721C88.772 9.31084 88.9155 9.30228 89.4291 9.19902C89.7607 9.13241 90.0535 9.0986 90.0798 9.12392C90.1411 9.18289 89.8654 9.37912 89.4611 9.56422C88.8641 9.83752 87.9936 9.94389 87.3695 9.8198L87.369 9.81985ZM89.2842 7.5142C89.2667 7.48576 89.317 7.27248 89.396 7.04017C89.475 6.80787 89.5396 6.61066 89.5396 6.60194C89.5396 6.59335 89.3704 6.46529 89.1635 6.31767C88.9566 6.17005 88.7874 6.02655 88.7874 5.99881C88.7874 5.97104 89.0022 5.9408 89.2648 5.93154L89.7422 5.91474L89.8926 5.48364C89.9753 5.24652 90.0704 5.04339 90.1039 5.03224C90.1374 5.02107 90.2345 5.2216 90.3199 5.47781L90.475 5.94365H90.967C91.2383 5.94365 91.4503 5.96733 91.4396 5.99634C91.429 6.02535 91.2576 6.1685 91.0587 6.3145C90.8597 6.46051 90.697 6.60197 90.697 6.62888C90.697 6.65579 90.7491 6.82918 90.8127 7.0142C90.9242 7.33816 90.9599 7.56394 90.8997 7.56394C90.8838 7.56394 90.7117 7.44675 90.5171 7.30353C90.3226 7.1603 90.1391 7.04311 90.1095 7.04311C90.0798 7.04311 89.9199 7.14247 89.7541 7.26389C89.3534 7.55744 89.3215 7.57447 89.2842 7.51417L89.2842 7.5142Z" fill="#67BF4C"/>
<path opacity="0.804" d="M90.0944 4.98805C89.971 5.0769 89.9473 5.25094 89.8821 5.38097C89.8228 5.54344 89.7678 5.7078 89.7099 5.87093C89.3978 5.89755 89.0672 5.8565 88.7673 5.95384C88.6915 6.04326 88.8459 6.11308 88.8966 6.17104C89.0877 6.32783 89.2959 6.46115 89.4892 6.616C89.407 6.9158 89.2554 7.20598 89.2382 7.51853C89.2898 7.65723 89.4474 7.54363 89.5196 7.48886C89.7167 7.35871 89.901 7.18812 90.1134 7.09119C90.3848 7.23634 90.6155 7.45755 90.8866 7.60715C91.0077 7.61097 90.9725 7.4398 90.9582 7.36252C90.9135 7.11381 90.7892 6.87165 90.7488 6.6294C90.9715 6.40021 91.2673 6.25635 91.4798 6.01715C91.4935 5.8971 91.3171 5.9261 91.2408 5.90748C90.9965 5.89183 90.7516 5.90175 90.507 5.89889C90.3911 5.60013 90.3382 5.26456 90.1485 5.00337C90.1337 4.99144 90.1141 4.98228 90.0944 4.98791V4.98805Z" fill="#67BF4C"/>
</g>
<path opacity="0.804" d="M99.5397 29.0953L108.502 29.1327C108.502 29.1327 108.415 26.9444 106.832 26.9337C105.249 26.9231 102.327 26.916 101.189 26.9277C100.051 26.9386 99.5818 27.7959 99.5397 29.096V29.0953Z" fill="#67BF4C"/>
<path opacity="0.804" d="M115.532 13.1924L124.495 13.2298C124.495 13.2298 124.407 11.0414 122.824 11.0308C121.241 11.0202 118.32 11.0131 117.181 11.0238C116.043 11.0348 115.574 11.8919 115.532 13.192V13.1924Z" fill="#67BF4C"/>
<g opacity="0.804">
<path opacity="0.804" d="M103.378 25.7312C103.25 25.7058 103.002 25.6346 102.827 25.5729C101.927 25.2568 101.059 24.3665 100.735 23.4285C100.621 23.1012 100.548 22.7448 100.553 22.265C100.557 21.7848 100.621 21.4768 100.735 21.1496C101.044 20.2553 101.825 19.4146 102.687 19.0496C103 18.917 103.696 18.788 104.098 18.788C104.697 18.788 105.831 19.1669 106.061 19.4436C106.178 19.5851 106.07 19.5899 105.491 19.4686C105.027 19.3716 104.874 19.3626 104.516 19.4118C103.485 19.5535 102.557 20.3305 102.187 21.3631C102.012 21.8502 102.011 22.7262 102.186 23.2102C102.546 24.2122 103.459 24.9958 104.468 25.1685C104.781 25.2222 104.924 25.2136 105.438 25.1103C105.769 25.0437 106.062 25.0099 106.089 25.0352C106.15 25.0942 105.874 25.2904 105.47 25.4755C104.873 25.7488 104.002 25.8552 103.378 25.7311L103.378 25.7312ZM105.293 23.4255C105.275 23.3971 105.326 23.1838 105.405 22.9515C105.484 22.7192 105.548 22.522 105.548 22.5133C105.548 22.5047 105.379 22.3766 105.172 22.229C104.965 22.0814 104.796 21.9379 104.796 21.9101C104.796 21.8824 105.011 21.8521 105.274 21.8429L105.751 21.8261L105.901 21.395C105.984 21.1578 106.079 20.9547 106.113 20.9436C106.146 20.9324 106.243 21.1329 106.329 21.3891L106.484 21.855H106.976C107.247 21.855 107.459 21.8786 107.448 21.9077C107.438 21.9367 107.266 22.0798 107.067 22.2258C106.869 22.3718 106.706 22.5133 106.706 22.5402C106.706 22.5671 106.758 22.7405 106.822 22.9255C106.933 23.2495 106.969 23.4753 106.908 23.4753C106.893 23.4753 106.72 23.3581 106.526 23.2148C106.331 23.0716 106.148 22.9544 106.118 22.9544C106.089 22.9544 105.929 23.0538 105.763 23.1752C105.362 23.4688 105.33 23.4858 105.293 23.4255L105.293 23.4255Z" fill="#67BF4C"/>
<path opacity="0.804" d="M106.103 20.8994C105.98 20.9882 105.956 21.1623 105.891 21.2923C105.832 21.4548 105.777 21.6191 105.719 21.7822C105.407 21.8089 105.076 21.7678 104.776 21.8652C104.7 21.9546 104.855 22.0244 104.905 22.0824C105.097 22.2391 105.305 22.3725 105.498 22.5273C105.416 22.8271 105.264 23.1173 105.247 23.4298C105.299 23.5685 105.456 23.4549 105.528 23.4002C105.725 23.27 105.91 23.0994 106.122 23.0025C106.394 23.1477 106.624 23.3689 106.895 23.5185C107.016 23.5223 106.981 23.3511 106.967 23.2738C106.922 23.0251 106.798 22.783 106.758 22.5407C106.98 22.3115 107.276 22.1677 107.489 21.9285C107.502 21.8084 107.326 21.8374 107.25 21.8188C107.005 21.8031 106.76 21.8131 106.516 21.8102C106.4 21.5114 106.347 21.1759 106.157 20.9147C106.142 20.9028 106.123 20.8936 106.103 20.8992V20.8994Z" fill="#67BF4C"/>
</g>
<g opacity="0.804">
<path opacity="0.804" d="M119.369 9.81985C119.241 9.79447 118.993 9.72327 118.818 9.66157C117.918 9.34545 117.05 8.45517 116.726 7.51714C116.613 7.1899 116.54 6.83353 116.544 6.3537C116.548 5.87353 116.613 5.56549 116.726 5.23825C117.035 4.34397 117.816 3.50332 118.678 3.13829C118.991 3.00568 119.687 2.87671 120.089 2.87671C120.688 2.87671 121.823 3.25554 122.052 3.53231C122.17 3.67381 122.061 3.67859 121.482 3.5573C121.019 3.46027 120.865 3.45131 120.507 3.50051C119.476 3.64217 118.548 4.41916 118.178 5.45175C118.003 5.93885 118.002 6.81487 118.177 7.29887C118.537 8.30089 119.45 9.08445 120.459 9.25721C120.772 9.31084 120.915 9.30228 121.429 9.19902C121.761 9.13241 122.053 9.0986 122.08 9.12392C122.141 9.18289 121.865 9.37912 121.461 9.56422C120.864 9.83752 119.994 9.94389 119.369 9.8198L119.369 9.81985ZM121.284 7.5142C121.267 7.48576 121.317 7.27248 121.396 7.04017C121.475 6.80787 121.54 6.61066 121.54 6.60194C121.54 6.59335 121.37 6.46529 121.163 6.31767C120.957 6.17005 120.787 6.02655 120.787 5.99881C120.787 5.97104 121.002 5.9408 121.265 5.93154L121.742 5.91474L121.893 5.48364C121.975 5.24652 122.07 5.04339 122.104 5.03224C122.137 5.02107 122.235 5.2216 122.32 5.47781L122.475 5.94365H122.967C123.238 5.94365 123.45 5.96733 123.44 5.99634C123.429 6.02535 123.258 6.1685 123.059 6.3145C122.86 6.46051 122.697 6.60197 122.697 6.62888C122.697 6.65579 122.749 6.82918 122.813 7.0142C122.924 7.33816 122.96 7.56394 122.9 7.56394C122.884 7.56394 122.712 7.44675 122.517 7.30353C122.323 7.1603 122.139 7.04311 122.109 7.04311C122.08 7.04311 121.92 7.14247 121.754 7.26389C121.353 7.55744 121.321 7.57447 121.284 7.51417L121.284 7.5142Z" fill="#67BF4C"/>
<path opacity="0.804" d="M122.094 4.98805C121.971 5.0769 121.947 5.25094 121.882 5.38097C121.823 5.54344 121.768 5.7078 121.71 5.87093C121.398 5.89755 121.067 5.8565 120.767 5.95384C120.691 6.04326 120.846 6.11308 120.897 6.17104C121.088 6.32783 121.296 6.46115 121.489 6.616C121.407 6.9158 121.255 7.20598 121.238 7.51853C121.29 7.65723 121.447 7.54363 121.52 7.48886C121.717 7.35871 121.901 7.18812 122.113 7.09119C122.385 7.23634 122.615 7.45755 122.887 7.60715C123.008 7.61097 122.973 7.4398 122.958 7.36252C122.913 7.11381 122.789 6.87165 122.749 6.6294C122.972 6.40021 123.267 6.25635 123.48 6.01715C123.493 5.8971 123.317 5.9261 123.241 5.90748C122.997 5.89183 122.752 5.90175 122.507 5.89889C122.391 5.60013 122.338 5.26456 122.148 5.00337C122.134 4.99144 122.114 4.98228 122.094 4.98791V4.98805Z" fill="#67BF4C"/>
</g>
<path opacity="0.804" d="M131.54 29.0953L140.502 29.1327C140.502 29.1327 140.415 26.9444 138.832 26.9337C137.249 26.9231 134.327 26.916 133.189 26.9277C132.051 26.9386 131.582 27.7959 131.54 29.096V29.0953Z" fill="#67BF4C"/>
<path opacity="0.804" d="M147.532 13.1924L156.495 13.2298C156.495 13.2298 156.407 11.0414 154.824 11.0308C153.241 11.0202 150.32 11.0131 149.181 11.0238C148.043 11.0348 147.574 11.8919 147.532 13.192V13.1924Z" fill="#67BF4C"/>
<g opacity="0.804">
<path opacity="0.804" d="M135.378 25.7312C135.25 25.7058 135.002 25.6346 134.827 25.5729C133.927 25.2568 133.059 24.3665 132.735 23.4285C132.621 23.1012 132.548 22.7448 132.553 22.265C132.557 21.7848 132.621 21.4768 132.735 21.1496C133.044 20.2553 133.825 19.4146 134.687 19.0496C135 18.917 135.696 18.788 136.098 18.788C136.697 18.788 137.831 19.1669 138.061 19.4436C138.178 19.5851 138.07 19.5899 137.491 19.4686C137.027 19.3716 136.874 19.3626 136.516 19.4118C135.485 19.5535 134.557 20.3305 134.187 21.3631C134.012 21.8502 134.011 22.7262 134.186 23.2102C134.546 24.2122 135.459 24.9958 136.468 25.1685C136.781 25.2222 136.924 25.2136 137.438 25.1103C137.769 25.0437 138.062 25.0099 138.089 25.0352C138.15 25.0942 137.874 25.2904 137.47 25.4755C136.873 25.7488 136.002 25.8552 135.378 25.7311L135.378 25.7312ZM137.293 23.4255C137.275 23.3971 137.326 23.1838 137.405 22.9515C137.484 22.7192 137.548 22.522 137.548 22.5133C137.548 22.5047 137.379 22.3766 137.172 22.229C136.965 22.0814 136.796 21.9379 136.796 21.9101C136.796 21.8824 137.011 21.8521 137.274 21.8429L137.751 21.8261L137.901 21.395C137.984 21.1578 138.079 20.9547 138.113 20.9436C138.146 20.9324 138.243 21.1329 138.329 21.3891L138.484 21.855H138.976C139.247 21.855 139.459 21.8786 139.448 21.9077C139.438 21.9367 139.266 22.0798 139.067 22.2258C138.869 22.3718 138.706 22.5133 138.706 22.5402C138.706 22.5671 138.758 22.7405 138.822 22.9255C138.933 23.2495 138.969 23.4753 138.908 23.4753C138.893 23.4753 138.72 23.3581 138.526 23.2148C138.331 23.0716 138.148 22.9544 138.118 22.9544C138.089 22.9544 137.929 23.0538 137.763 23.1752C137.362 23.4688 137.33 23.4858 137.293 23.4255L137.293 23.4255Z" fill="#67BF4C"/>
<path opacity="0.804" d="M138.103 20.8994C137.98 20.9882 137.956 21.1623 137.891 21.2923C137.832 21.4548 137.777 21.6191 137.719 21.7822C137.407 21.8089 137.076 21.7678 136.776 21.8652C136.7 21.9546 136.855 22.0244 136.905 22.0824C137.097 22.2391 137.305 22.3725 137.498 22.5273C137.416 22.8271 137.264 23.1173 137.247 23.4298C137.299 23.5685 137.456 23.4549 137.528 23.4002C137.725 23.27 137.91 23.0994 138.122 23.0025C138.394 23.1477 138.624 23.3689 138.895 23.5185C139.016 23.5223 138.981 23.3511 138.967 23.2738C138.922 23.0251 138.798 22.783 138.758 22.5407C138.98 22.3115 139.276 22.1677 139.489 21.9285C139.502 21.8084 139.326 21.8374 139.25 21.8188C139.005 21.8031 138.76 21.8131 138.516 21.8102C138.4 21.5114 138.347 21.1759 138.157 20.9147C138.142 20.9028 138.123 20.8936 138.103 20.8992V20.8994Z" fill="#67BF4C"/>
</g>
<g opacity="0.804">
<path opacity="0.804" d="M151.369 9.81985C151.241 9.79447 150.993 9.72327 150.818 9.66157C149.918 9.34545 149.05 8.45517 148.726 7.51714C148.613 7.1899 148.54 6.83353 148.544 6.3537C148.548 5.87353 148.613 5.56549 148.726 5.23825C149.035 4.34397 149.816 3.50332 150.678 3.13829C150.991 3.00568 151.687 2.87671 152.089 2.87671C152.688 2.87671 153.823 3.25554 154.052 3.53231C154.17 3.67381 154.061 3.67859 153.482 3.5573C153.019 3.46027 152.865 3.45131 152.507 3.50051C151.476 3.64217 150.548 4.41916 150.178 5.45175C150.003 5.93885 150.002 6.81487 150.177 7.29887C150.537 8.30089 151.45 9.08445 152.459 9.25721C152.772 9.31084 152.915 9.30228 153.429 9.19902C153.761 9.13241 154.053 9.0986 154.08 9.12392C154.141 9.18289 153.865 9.37912 153.461 9.56422C152.864 9.83752 151.994 9.94389 151.369 9.8198L151.369 9.81985ZM153.284 7.5142C153.267 7.48576 153.317 7.27248 153.396 7.04017C153.475 6.80787 153.54 6.61066 153.54 6.60194C153.54 6.59335 153.37 6.46529 153.163 6.31767C152.957 6.17005 152.787 6.02655 152.787 5.99881C152.787 5.97104 153.002 5.9408 153.265 5.93154L153.742 5.91474L153.893 5.48364C153.975 5.24652 154.07 5.04339 154.104 5.03224C154.137 5.02107 154.235 5.2216 154.32 5.47781L154.475 5.94365H154.967C155.238 5.94365 155.45 5.96733 155.44 5.99634C155.429 6.02535 155.258 6.1685 155.059 6.3145C154.86 6.46051 154.697 6.60197 154.697 6.62888C154.697 6.65579 154.749 6.82918 154.813 7.0142C154.924 7.33816 154.96 7.56394 154.9 7.56394C154.884 7.56394 154.712 7.44675 154.517 7.30353C154.323 7.1603 154.139 7.04311 154.109 7.04311C154.08 7.04311 153.92 7.14247 153.754 7.26389C153.353 7.55744 153.321 7.57447 153.284 7.51417L153.284 7.5142Z" fill="#67BF4C"/>
<path opacity="0.804" d="M154.094 4.98805C153.971 5.0769 153.947 5.25094 153.882 5.38097C153.823 5.54344 153.768 5.7078 153.71 5.87093C153.398 5.89755 153.067 5.8565 152.767 5.95384C152.691 6.04326 152.846 6.11308 152.897 6.17104C153.088 6.32783 153.296 6.46115 153.489 6.616C153.407 6.9158 153.255 7.20598 153.238 7.51853C153.29 7.65723 153.447 7.54363 153.52 7.48886C153.717 7.35871 153.901 7.18812 154.113 7.09119C154.385 7.23634 154.615 7.45755 154.887 7.60715C155.008 7.61097 154.973 7.4398 154.958 7.36252C154.913 7.11381 154.789 6.87165 154.749 6.6294C154.972 6.40021 155.267 6.25635 155.48 6.01715C155.493 5.8971 155.317 5.9261 155.241 5.90748C154.997 5.89183 154.752 5.90175 154.507 5.89889C154.391 5.60013 154.338 5.26456 154.148 5.00337C154.134 4.99144 154.114 4.98228 154.094 4.98791V4.98805Z" fill="#67BF4C"/>
</g>
<path opacity="0.804" d="M163.54 29.0953L172.502 29.1327C172.502 29.1327 172.415 26.9444 170.832 26.9337C169.249 26.9231 166.327 26.916 165.189 26.9277C164.051 26.9386 163.582 27.7959 163.54 29.096V29.0953Z" fill="#67BF4C"/>
<path opacity="0.804" d="M179.532 13.1924L188.495 13.2298C188.495 13.2298 188.407 11.0414 186.824 11.0308C185.241 11.0202 182.32 11.0131 181.181 11.0238C180.043 11.0348 179.574 11.8919 179.532 13.192V13.1924Z" fill="#67BF4C"/>
<g opacity="0.804">
<path opacity="0.804" d="M167.378 25.7312C167.25 25.7058 167.002 25.6346 166.827 25.5729C165.927 25.2568 165.059 24.3665 164.735 23.4285C164.621 23.1012 164.548 22.7448 164.553 22.265C164.557 21.7848 164.621 21.4768 164.735 21.1496C165.044 20.2553 165.825 19.4146 166.687 19.0496C167 18.917 167.696 18.788 168.098 18.788C168.697 18.788 169.831 19.1669 170.061 19.4436C170.178 19.5851 170.07 19.5899 169.491 19.4686C169.027 19.3716 168.874 19.3626 168.516 19.4118C167.485 19.5535 166.557 20.3305 166.187 21.3631C166.012 21.8502 166.011 22.7262 166.186 23.2102C166.546 24.2122 167.459 24.9958 168.468 25.1685C168.781 25.2222 168.924 25.2136 169.438 25.1103C169.769 25.0437 170.062 25.0099 170.089 25.0352C170.15 25.0942 169.874 25.2904 169.47 25.4755C168.873 25.7488 168.002 25.8552 167.378 25.7311L167.378 25.7312ZM169.293 23.4255C169.275 23.3971 169.326 23.1838 169.405 22.9515C169.484 22.7192 169.548 22.522 169.548 22.5133C169.548 22.5047 169.379 22.3766 169.172 22.229C168.965 22.0814 168.796 21.9379 168.796 21.9101C168.796 21.8824 169.011 21.8521 169.274 21.8429L169.751 21.8261L169.901 21.395C169.984 21.1578 170.079 20.9547 170.113 20.9436C170.146 20.9324 170.243 21.1329 170.329 21.3891L170.484 21.855H170.976C171.247 21.855 171.459 21.8786 171.448 21.9077C171.438 21.9367 171.266 22.0798 171.067 22.2258C170.869 22.3718 170.706 22.5133 170.706 22.5402C170.706 22.5671 170.758 22.7405 170.822 22.9255C170.933 23.2495 170.969 23.4753 170.908 23.4753C170.893 23.4753 170.72 23.3581 170.526 23.2148C170.331 23.0716 170.148 22.9544 170.118 22.9544C170.089 22.9544 169.929 23.0538 169.763 23.1752C169.362 23.4688 169.33 23.4858 169.293 23.4255L169.293 23.4255Z" fill="#67BF4C"/>
<path opacity="0.804" d="M170.103 20.8994C169.98 20.9882 169.956 21.1623 169.891 21.2923C169.832 21.4548 169.777 21.6191 169.719 21.7822C169.407 21.8089 169.076 21.7678 168.776 21.8652C168.7 21.9546 168.855 22.0244 168.905 22.0824C169.097 22.2391 169.305 22.3725 169.498 22.5273C169.416 22.8271 169.264 23.1173 169.247 23.4298C169.299 23.5685 169.456 23.4549 169.528 23.4002C169.725 23.27 169.91 23.0994 170.122 23.0025C170.394 23.1477 170.624 23.3689 170.895 23.5185C171.016 23.5223 170.981 23.3511 170.967 23.2738C170.922 23.0251 170.798 22.783 170.758 22.5407C170.98 22.3115 171.276 22.1677 171.489 21.9285C171.502 21.8084 171.326 21.8374 171.25 21.8188C171.005 21.8031 170.76 21.8131 170.516 21.8102C170.4 21.5114 170.347 21.1759 170.157 20.9147C170.142 20.9028 170.123 20.8936 170.103 20.8992V20.8994Z" fill="#67BF4C"/>
</g>
<g opacity="0.804">
<path opacity="0.804" d="M183.369 9.81985C183.241 9.79447 182.993 9.72327 182.818 9.66157C181.918 9.34545 181.05 8.45517 180.726 7.51714C180.613 7.1899 180.54 6.83353 180.544 6.3537C180.548 5.87353 180.613 5.56549 180.726 5.23825C181.035 4.34397 181.816 3.50332 182.678 3.13829C182.991 3.00568 183.687 2.87671 184.089 2.87671C184.688 2.87671 185.823 3.25554 186.052 3.53231C186.17 3.67381 186.061 3.67859 185.482 3.5573C185.019 3.46027 184.865 3.45131 184.507 3.50051C183.476 3.64217 182.548 4.41916 182.178 5.45175C182.003 5.93885 182.002 6.81487 182.177 7.29887C182.537 8.30089 183.45 9.08445 184.459 9.25721C184.772 9.31084 184.915 9.30228 185.429 9.19902C185.761 9.13241 186.053 9.0986 186.08 9.12392C186.141 9.18289 185.865 9.37912 185.461 9.56422C184.864 9.83752 183.994 9.94389 183.369 9.8198L183.369 9.81985ZM185.284 7.5142C185.267 7.48576 185.317 7.27248 185.396 7.04017C185.475 6.80787 185.54 6.61066 185.54 6.60194C185.54 6.59335 185.37 6.46529 185.163 6.31767C184.957 6.17005 184.787 6.02655 184.787 5.99881C184.787 5.97104 185.002 5.9408 185.265 5.93154L185.742 5.91474L185.893 5.48364C185.975 5.24652 186.07 5.04339 186.104 5.03224C186.137 5.02107 186.235 5.2216 186.32 5.47781L186.475 5.94365H186.967C187.238 5.94365 187.45 5.96733 187.44 5.99634C187.429 6.02535 187.258 6.1685 187.059 6.3145C186.86 6.46051 186.697 6.60197 186.697 6.62888C186.697 6.65579 186.749 6.82918 186.813 7.0142C186.924 7.33816 186.96 7.56394 186.9 7.56394C186.884 7.56394 186.712 7.44675 186.517 7.30353C186.323 7.1603 186.139 7.04311 186.109 7.04311C186.08 7.04311 185.92 7.14247 185.754 7.26389C185.353 7.55744 185.321 7.57447 185.284 7.51417L185.284 7.5142Z" fill="#67BF4C"/>
<path opacity="0.804" d="M186.094 4.98805C185.971 5.0769 185.947 5.25094 185.882 5.38097C185.823 5.54344 185.768 5.7078 185.71 5.87093C185.398 5.89755 185.067 5.8565 184.767 5.95384C184.691 6.04326 184.846 6.11308 184.897 6.17104C185.088 6.32783 185.296 6.46115 185.489 6.616C185.407 6.9158 185.255 7.20598 185.238 7.51853C185.29 7.65723 185.447 7.54363 185.52 7.48886C185.717 7.35871 185.901 7.18812 186.113 7.09119C186.385 7.23634 186.615 7.45755 186.887 7.60715C187.008 7.61097 186.973 7.4398 186.958 7.36252C186.913 7.11381 186.789 6.87165 186.749 6.6294C186.972 6.40021 187.267 6.25635 187.48 6.01715C187.493 5.8971 187.317 5.9261 187.241 5.90748C186.997 5.89183 186.752 5.90175 186.507 5.89889C186.391 5.60013 186.338 5.26456 186.148 5.00337C186.134 4.99144 186.114 4.98228 186.094 4.98791V4.98805Z" fill="#67BF4C"/>
</g>
<path opacity="0.804" d="M195.54 29.0953L204.502 29.1327C204.502 29.1327 204.415 26.9444 202.832 26.9337C201.249 26.9231 198.327 26.916 197.189 26.9277C196.051 26.9386 195.582 27.7959 195.54 29.096V29.0953Z" fill="#67BF4C"/>
<path opacity="0.804" d="M211.532 13.1924L220.495 13.2298C220.495 13.2298 220.407 11.0414 218.824 11.0308C217.241 11.0202 214.32 11.0131 213.181 11.0238C212.043 11.0348 211.574 11.8919 211.532 13.192V13.1924Z" fill="#67BF4C"/>
<g opacity="0.804">
<path opacity="0.804" d="M199.378 25.7312C199.25 25.7058 199.002 25.6346 198.827 25.5729C197.927 25.2568 197.059 24.3665 196.735 23.4285C196.621 23.1012 196.548 22.7448 196.553 22.265C196.557 21.7848 196.621 21.4768 196.735 21.1496C197.044 20.2553 197.825 19.4146 198.687 19.0496C199 18.917 199.696 18.788 200.098 18.788C200.697 18.788 201.831 19.1669 202.061 19.4436C202.178 19.5851 202.07 19.5899 201.491 19.4686C201.027 19.3716 200.874 19.3626 200.516 19.4118C199.485 19.5535 198.557 20.3305 198.187 21.3631C198.012 21.8502 198.011 22.7262 198.186 23.2102C198.546 24.2122 199.459 24.9958 200.468 25.1685C200.781 25.2222 200.924 25.2136 201.438 25.1103C201.769 25.0437 202.062 25.0099 202.089 25.0352C202.15 25.0942 201.874 25.2904 201.47 25.4755C200.873 25.7488 200.002 25.8552 199.378 25.7311L199.378 25.7312ZM201.293 23.4255C201.275 23.3971 201.326 23.1838 201.405 22.9515C201.484 22.7192 201.548 22.522 201.548 22.5133C201.548 22.5047 201.379 22.3766 201.172 22.229C200.965 22.0814 200.796 21.9379 200.796 21.9101C200.796 21.8824 201.011 21.8521 201.274 21.8429L201.751 21.8261L201.901 21.395C201.984 21.1578 202.079 20.9547 202.113 20.9436C202.146 20.9324 202.243 21.1329 202.329 21.3891L202.484 21.855H202.976C203.247 21.855 203.459 21.8786 203.448 21.9077C203.438 21.9367 203.266 22.0798 203.067 22.2258C202.869 22.3718 202.706 22.5133 202.706 22.5402C202.706 22.5671 202.758 22.7405 202.822 22.9255C202.933 23.2495 202.969 23.4753 202.908 23.4753C202.893 23.4753 202.72 23.3581 202.526 23.2148C202.331 23.0716 202.148 22.9544 202.118 22.9544C202.089 22.9544 201.929 23.0538 201.763 23.1752C201.362 23.4688 201.33 23.4858 201.293 23.4255L201.293 23.4255Z" fill="#67BF4C"/>
<path opacity="0.804" d="M202.103 20.8994C201.98 20.9882 201.956 21.1623 201.891 21.2923C201.832 21.4548 201.777 21.6191 201.719 21.7822C201.407 21.8089 201.076 21.7678 200.776 21.8652C200.7 21.9546 200.855 22.0244 200.905 22.0824C201.097 22.2391 201.305 22.3725 201.498 22.5273C201.416 22.8271 201.264 23.1173 201.247 23.4298C201.299 23.5685 201.456 23.4549 201.528 23.4002C201.725 23.27 201.91 23.0994 202.122 23.0025C202.394 23.1477 202.624 23.3689 202.895 23.5185C203.016 23.5223 202.981 23.3511 202.967 23.2738C202.922 23.0251 202.798 22.783 202.758 22.5407C202.98 22.3115 203.276 22.1677 203.489 21.9285C203.502 21.8084 203.326 21.8374 203.25 21.8188C203.005 21.8031 202.76 21.8131 202.516 21.8102C202.4 21.5114 202.347 21.1759 202.157 20.9147C202.142 20.9028 202.123 20.8936 202.103 20.8992V20.8994Z" fill="#67BF4C"/>
</g>
<g opacity="0.804">
<path opacity="0.804" d="M215.369 9.81985C215.241 9.79447 214.993 9.72327 214.818 9.66157C213.918 9.34545 213.05 8.45517 212.726 7.51714C212.613 7.1899 212.54 6.83353 212.544 6.3537C212.548 5.87353 212.613 5.56549 212.726 5.23825C213.035 4.34397 213.816 3.50332 214.678 3.13829C214.991 3.00568 215.687 2.87671 216.089 2.87671C216.688 2.87671 217.823 3.25554 218.052 3.53231C218.17 3.67381 218.061 3.67859 217.482 3.5573C217.019 3.46027 216.865 3.45131 216.507 3.50051C215.476 3.64217 214.548 4.41916 214.178 5.45175C214.003 5.93885 214.002 6.81487 214.177 7.29887C214.537 8.30089 215.45 9.08445 216.459 9.25721C216.772 9.31084 216.915 9.30228 217.429 9.19902C217.761 9.13241 218.053 9.0986 218.08 9.12392C218.141 9.18289 217.865 9.37912 217.461 9.56422C216.864 9.83752 215.994 9.94389 215.369 9.8198L215.369 9.81985ZM217.284 7.5142C217.267 7.48576 217.317 7.27248 217.396 7.04017C217.475 6.80787 217.54 6.61066 217.54 6.60194C217.54 6.59335 217.37 6.46529 217.163 6.31767C216.957 6.17005 216.787 6.02655 216.787 5.99881C216.787 5.97104 217.002 5.9408 217.265 5.93154L217.742 5.91474L217.893 5.48364C217.975 5.24652 218.07 5.04339 218.104 5.03224C218.137 5.02107 218.235 5.2216 218.32 5.47781L218.475 5.94365H218.967C219.238 5.94365 219.45 5.96733 219.44 5.99634C219.429 6.02535 219.258 6.1685 219.059 6.3145C218.86 6.46051 218.697 6.60197 218.697 6.62888C218.697 6.65579 218.749 6.82918 218.813 7.0142C218.924 7.33816 218.96 7.56394 218.9 7.56394C218.884 7.56394 218.712 7.44675 218.517 7.30353C218.323 7.1603 218.139 7.04311 218.109 7.04311C218.08 7.04311 217.92 7.14247 217.754 7.26389C217.353 7.55744 217.321 7.57447 217.284 7.51417L217.284 7.5142Z" fill="#67BF4C"/>
<path opacity="0.804" d="M218.094 4.98805C217.971 5.0769 217.947 5.25094 217.882 5.38097C217.823 5.54344 217.768 5.7078 217.71 5.87093C217.398 5.89755 217.067 5.8565 216.767 5.95384C216.691 6.04326 216.846 6.11308 216.897 6.17104C217.088 6.32783 217.296 6.46115 217.489 6.616C217.407 6.9158 217.255 7.20598 217.238 7.51853C217.29 7.65723 217.447 7.54363 217.52 7.48886C217.717 7.35871 217.901 7.18812 218.113 7.09119C218.385 7.23634 218.615 7.45755 218.887 7.60715C219.008 7.61097 218.973 7.4398 218.958 7.36252C218.913 7.11381 218.789 6.87165 218.749 6.6294C218.972 6.40021 219.267 6.25635 219.48 6.01715C219.493 5.8971 219.317 5.9261 219.241 5.90748C218.997 5.89183 218.752 5.90175 218.507 5.89889C218.391 5.60013 218.338 5.26456 218.148 5.00337C218.134 4.99144 218.114 4.98228 218.094 4.98791V4.98805Z" fill="#67BF4C"/>
</g>
<path opacity="0.804" d="M227.54 29.0953L236.502 29.1327C236.502 29.1327 236.415 26.9444 234.832 26.9337C233.249 26.9231 230.327 26.916 229.189 26.9277C228.051 26.9386 227.582 27.7959 227.54 29.096V29.0953Z" fill="#67BF4C"/>
<path opacity="0.804" d="M243.532 13.1924L252.495 13.2298C252.495 13.2298 252.407 11.0414 250.824 11.0308C249.241 11.0202 246.32 11.0131 245.181 11.0238C244.043 11.0348 243.574 11.8919 243.532 13.192V13.1924Z" fill="#67BF4C"/>
<g opacity="0.804">
<path opacity="0.804" d="M231.378 25.7312C231.25 25.7058 231.002 25.6346 230.827 25.5729C229.927 25.2568 229.059 24.3665 228.735 23.4285C228.621 23.1012 228.548 22.7448 228.553 22.265C228.557 21.7848 228.621 21.4768 228.735 21.1496C229.044 20.2553 229.825 19.4146 230.687 19.0496C231 18.917 231.696 18.788 232.098 18.788C232.697 18.788 233.831 19.1669 234.061 19.4436C234.178 19.5851 234.07 19.5899 233.491 19.4686C233.027 19.3716 232.874 19.3626 232.516 19.4118C231.485 19.5535 230.557 20.3305 230.187 21.3631C230.012 21.8502 230.011 22.7262 230.186 23.2102C230.546 24.2122 231.459 24.9958 232.468 25.1685C232.781 25.2222 232.924 25.2136 233.438 25.1103C233.769 25.0437 234.062 25.0099 234.089 25.0352C234.15 25.0942 233.874 25.2904 233.47 25.4755C232.873 25.7488 232.002 25.8552 231.378 25.7311L231.378 25.7312ZM233.293 23.4255C233.275 23.3971 233.326 23.1838 233.405 22.9515C233.484 22.7192 233.548 22.522 233.548 22.5133C233.548 22.5047 233.379 22.3766 233.172 22.229C232.965 22.0814 232.796 21.9379 232.796 21.9101C232.796 21.8824 233.011 21.8521 233.274 21.8429L233.751 21.8261L233.901 21.395C233.984 21.1578 234.079 20.9547 234.113 20.9436C234.146 20.9324 234.243 21.1329 234.329 21.3891L234.484 21.855H234.976C235.247 21.855 235.459 21.8786 235.448 21.9077C235.438 21.9367 235.266 22.0798 235.067 22.2258C234.869 22.3718 234.706 22.5133 234.706 22.5402C234.706 22.5671 234.758 22.7405 234.822 22.9255C234.933 23.2495 234.969 23.4753 234.908 23.4753C234.893 23.4753 234.72 23.3581 234.526 23.2148C234.331 23.0716 234.148 22.9544 234.118 22.9544C234.089 22.9544 233.929 23.0538 233.763 23.1752C233.362 23.4688 233.33 23.4858 233.293 23.4255L233.293 23.4255Z" fill="#67BF4C"/>
<path opacity="0.804" d="M234.103 20.8994C233.98 20.9882 233.956 21.1623 233.891 21.2923C233.832 21.4548 233.777 21.6191 233.719 21.7822C233.407 21.8089 233.076 21.7678 232.776 21.8652C232.7 21.9546 232.855 22.0244 232.905 22.0824C233.097 22.2391 233.305 22.3725 233.498 22.5273C233.416 22.8271 233.264 23.1173 233.247 23.4298C233.299 23.5685 233.456 23.4549 233.528 23.4002C233.725 23.27 233.91 23.0994 234.122 23.0025C234.394 23.1477 234.624 23.3689 234.895 23.5185C235.016 23.5223 234.981 23.3511 234.967 23.2738C234.922 23.0251 234.798 22.783 234.758 22.5407C234.98 22.3115 235.276 22.1677 235.489 21.9285C235.502 21.8084 235.326 21.8374 235.25 21.8188C235.005 21.8031 234.76 21.8131 234.516 21.8102C234.4 21.5114 234.347 21.1759 234.157 20.9147C234.142 20.9028 234.123 20.8936 234.103 20.8992V20.8994Z" fill="#67BF4C"/>
</g>
<g opacity="0.804">
<path opacity="0.804" d="M247.369 9.81985C247.241 9.79447 246.993 9.72327 246.818 9.66157C245.918 9.34545 245.05 8.45517 244.726 7.51714C244.613 7.1899 244.54 6.83353 244.544 6.3537C244.548 5.87353 244.613 5.56549 244.726 5.23825C245.035 4.34397 245.816 3.50332 246.678 3.13829C246.991 3.00568 247.687 2.87671 248.089 2.87671C248.688 2.87671 249.823 3.25554 250.052 3.53231C250.17 3.67381 250.061 3.67859 249.482 3.5573C249.019 3.46027 248.865 3.45131 248.507 3.50051C247.476 3.64217 246.548 4.41916 246.178 5.45175C246.003 5.93885 246.002 6.81487 246.177 7.29887C246.537 8.30089 247.45 9.08445 248.459 9.25721C248.772 9.31084 248.915 9.30228 249.429 9.19902C249.761 9.13241 250.053 9.0986 250.08 9.12392C250.141 9.18289 249.865 9.37912 249.461 9.56422C248.864 9.83752 247.994 9.94389 247.369 9.8198L247.369 9.81985ZM249.284 7.5142C249.267 7.48576 249.317 7.27248 249.396 7.04017C249.475 6.80787 249.54 6.61066 249.54 6.60194C249.54 6.59335 249.37 6.46529 249.163 6.31767C248.957 6.17005 248.787 6.02655 248.787 5.99881C248.787 5.97104 249.002 5.9408 249.265 5.93154L249.742 5.91474L249.893 5.48364C249.975 5.24652 250.07 5.04339 250.104 5.03224C250.137 5.02107 250.235 5.2216 250.32 5.47781L250.475 5.94365H250.967C251.238 5.94365 251.45 5.96733 251.44 5.99634C251.429 6.02535 251.258 6.1685 251.059 6.3145C250.86 6.46051 250.697 6.60197 250.697 6.62888C250.697 6.65579 250.749 6.82918 250.813 7.0142C250.924 7.33816 250.96 7.56394 250.9 7.56394C250.884 7.56394 250.712 7.44675 250.517 7.30353C250.323 7.1603 250.139 7.04311 250.109 7.04311C250.08 7.04311 249.92 7.14247 249.754 7.26389C249.353 7.55744 249.321 7.57447 249.284 7.51417L249.284 7.5142Z" fill="#67BF4C"/>
<path opacity="0.804" d="M250.094 4.98805C249.971 5.0769 249.947 5.25094 249.882 5.38097C249.823 5.54344 249.768 5.7078 249.71 5.87093C249.398 5.89755 249.067 5.8565 248.767 5.95384C248.691 6.04326 248.846 6.11308 248.897 6.17104C249.088 6.32783 249.296 6.46115 249.489 6.616C249.407 6.9158 249.255 7.20598 249.238 7.51853C249.29 7.65723 249.447 7.54363 249.52 7.48886C249.717 7.35871 249.901 7.18812 250.113 7.09119C250.385 7.23634 250.615 7.45755 250.887 7.60715C251.008 7.61097 250.973 7.4398 250.958 7.36252C250.913 7.11381 250.789 6.87165 250.749 6.6294C250.972 6.40021 251.267 6.25635 251.48 6.01715C251.493 5.8971 251.317 5.9261 251.241 5.90748C250.997 5.89183 250.752 5.90175 250.507 5.89889C250.391 5.60013 250.338 5.26456 250.148 5.00337C250.134 4.99144 250.114 4.98228 250.094 4.98791V4.98805Z" fill="#67BF4C"/>
</g>
<path opacity="0.804" d="M259.54 29.0953L268.502 29.1327C268.502 29.1327 268.415 26.9444 266.832 26.9337C265.249 26.9231 262.327 26.916 261.189 26.9277C260.051 26.9386 259.582 27.7959 259.54 29.096V29.0953Z" fill="#67BF4C"/>
<path opacity="0.804" d="M275.532 13.1924L284.495 13.2298C284.495 13.2298 284.407 11.0414 282.824 11.0308C281.241 11.0202 278.32 11.0131 277.181 11.0238C276.043 11.0348 275.574 11.8919 275.532 13.192V13.1924Z" fill="#67BF4C"/>
<g opacity="0.804">
<path opacity="0.804" d="M263.378 25.7312C263.25 25.7058 263.002 25.6346 262.827 25.5729C261.927 25.2568 261.059 24.3665 260.735 23.4285C260.621 23.1012 260.548 22.7448 260.553 22.265C260.557 21.7848 260.621 21.4768 260.735 21.1496C261.044 20.2553 261.825 19.4146 262.687 19.0496C263 18.917 263.696 18.788 264.098 18.788C264.697 18.788 265.831 19.1669 266.061 19.4436C266.178 19.5851 266.07 19.5899 265.491 19.4686C265.027 19.3716 264.874 19.3626 264.516 19.4118C263.485 19.5535 262.557 20.3305 262.187 21.3631C262.012 21.8502 262.011 22.7262 262.186 23.2102C262.546 24.2122 263.459 24.9958 264.468 25.1685C264.781 25.2222 264.924 25.2136 265.438 25.1103C265.769 25.0437 266.062 25.0099 266.089 25.0352C266.15 25.0942 265.874 25.2904 265.47 25.4755C264.873 25.7488 264.002 25.8552 263.378 25.7311L263.378 25.7312ZM265.293 23.4255C265.275 23.3971 265.326 23.1838 265.405 22.9515C265.484 22.7192 265.548 22.522 265.548 22.5133C265.548 22.5047 265.379 22.3766 265.172 22.229C264.965 22.0814 264.796 21.9379 264.796 21.9101C264.796 21.8824 265.011 21.8521 265.274 21.8429L265.751 21.8261L265.901 21.395C265.984 21.1578 266.079 20.9547 266.113 20.9436C266.146 20.9324 266.243 21.1329 266.329 21.3891L266.484 21.855H266.976C267.247 21.855 267.459 21.8786 267.448 21.9077C267.438 21.9367 267.266 22.0798 267.067 22.2258C266.869 22.3718 266.706 22.5133 266.706 22.5402C266.706 22.5671 266.758 22.7405 266.822 22.9255C266.933 23.2495 266.969 23.4753 266.908 23.4753C266.893 23.4753 266.72 23.3581 266.526 23.2148C266.331 23.0716 266.148 22.9544 266.118 22.9544C266.089 22.9544 265.929 23.0538 265.763 23.1752C265.362 23.4688 265.33 23.4858 265.293 23.4255L265.293 23.4255Z" fill="#67BF4C"/>
<path opacity="0.804" d="M266.103 20.8994C265.98 20.9882 265.956 21.1623 265.891 21.2923C265.832 21.4548 265.777 21.6191 265.719 21.7822C265.407 21.8089 265.076 21.7678 264.776 21.8652C264.7 21.9546 264.855 22.0244 264.905 22.0824C265.097 22.2391 265.305 22.3725 265.498 22.5273C265.416 22.8271 265.264 23.1173 265.247 23.4298C265.299 23.5685 265.456 23.4549 265.528 23.4002C265.725 23.27 265.91 23.0994 266.122 23.0025C266.394 23.1477 266.624 23.3689 266.895 23.5185C267.016 23.5223 266.981 23.3511 266.967 23.2738C266.922 23.0251 266.798 22.783 266.758 22.5407C266.98 22.3115 267.276 22.1677 267.489 21.9285C267.502 21.8084 267.326 21.8374 267.25 21.8188C267.005 21.8031 266.76 21.8131 266.516 21.8102C266.4 21.5114 266.347 21.1759 266.157 20.9147C266.142 20.9028 266.123 20.8936 266.103 20.8992V20.8994Z" fill="#67BF4C"/>
</g>
<g opacity="0.804">
<path opacity="0.804" d="M279.369 9.81985C279.241 9.79447 278.993 9.72327 278.818 9.66157C277.918 9.34545 277.05 8.45517 276.726 7.51714C276.613 7.1899 276.54 6.83353 276.544 6.3537C276.548 5.87353 276.613 5.56549 276.726 5.23825C277.035 4.34397 277.816 3.50332 278.678 3.13829C278.991 3.00568 279.687 2.87671 280.089 2.87671C280.688 2.87671 281.823 3.25554 282.052 3.53231C282.17 3.67381 282.061 3.67859 281.482 3.5573C281.019 3.46027 280.865 3.45131 280.507 3.50051C279.476 3.64217 278.548 4.41916 278.178 5.45175C278.003 5.93885 278.002 6.81487 278.177 7.29887C278.537 8.30089 279.45 9.08445 280.459 9.25721C280.772 9.31084 280.915 9.30228 281.429 9.19902C281.761 9.13241 282.053 9.0986 282.08 9.12392C282.141 9.18289 281.865 9.37912 281.461 9.56422C280.864 9.83752 279.994 9.94389 279.369 9.8198L279.369 9.81985ZM281.284 7.5142C281.267 7.48576 281.317 7.27248 281.396 7.04017C281.475 6.80787 281.54 6.61066 281.54 6.60194C281.54 6.59335 281.37 6.46529 281.163 6.31767C280.957 6.17005 280.787 6.02655 280.787 5.99881C280.787 5.97104 281.002 5.9408 281.265 5.93154L281.742 5.91474L281.893 5.48364C281.975 5.24652 282.07 5.04339 282.104 5.03224C282.137 5.02107 282.235 5.2216 282.32 5.47781L282.475 5.94365H282.967C283.238 5.94365 283.45 5.96733 283.44 5.99634C283.429 6.02535 283.258 6.1685 283.059 6.3145C282.86 6.46051 282.697 6.60197 282.697 6.62888C282.697 6.65579 282.749 6.82918 282.813 7.0142C282.924 7.33816 282.96 7.56394 282.9 7.56394C282.884 7.56394 282.712 7.44675 282.517 7.30353C282.323 7.1603 282.139 7.04311 282.109 7.04311C282.08 7.04311 281.92 7.14247 281.754 7.26389C281.353 7.55744 281.321 7.57447 281.284 7.51417L281.284 7.5142Z" fill="#67BF4C"/>
<path opacity="0.804" d="M282.094 4.98805C281.971 5.0769 281.947 5.25094 281.882 5.38097C281.823 5.54344 281.768 5.7078 281.71 5.87093C281.398 5.89755 281.067 5.8565 280.767 5.95384C280.691 6.04326 280.846 6.11308 280.897 6.17104C281.088 6.32783 281.296 6.46115 281.489 6.616C281.407 6.9158 281.255 7.20598 281.238 7.51853C281.29 7.65723 281.447 7.54363 281.52 7.48886C281.717 7.35871 281.901 7.18812 282.113 7.09119C282.385 7.23634 282.615 7.45755 282.887 7.60715C283.008 7.61097 282.973 7.4398 282.958 7.36252C282.913 7.11381 282.789 6.87165 282.749 6.6294C282.972 6.40021 283.267 6.25635 283.48 6.01715C283.493 5.8971 283.317 5.9261 283.241 5.90748C282.997 5.89183 282.752 5.90175 282.507 5.89889C282.391 5.60013 282.338 5.26456 282.148 5.00337C282.134 4.99144 282.114 4.98228 282.094 4.98791V4.98805Z" fill="#67BF4C"/>
</g>
<path opacity="0.804" d="M291.54 29.0953L300.502 29.1327C300.502 29.1327 300.415 26.9444 298.832 26.9337C297.249 26.9231 294.327 26.916 293.189 26.9277C292.051 26.9386 291.582 27.7959 291.54 29.096V29.0953Z" fill="#67BF4C"/>
<g opacity="0.804">
<path opacity="0.804" d="M295.378 25.7312C295.25 25.7058 295.002 25.6346 294.827 25.5729C293.927 25.2568 293.059 24.3665 292.735 23.4285C292.621 23.1012 292.548 22.7448 292.553 22.265C292.557 21.7848 292.621 21.4768 292.735 21.1496C293.044 20.2553 293.825 19.4146 294.687 19.0496C295 18.917 295.696 18.788 296.098 18.788C296.697 18.788 297.831 19.1669 298.061 19.4436C298.178 19.5851 298.07 19.5899 297.491 19.4686C297.027 19.3716 296.874 19.3626 296.516 19.4118C295.485 19.5535 294.557 20.3305 294.187 21.3631C294.012 21.8502 294.011 22.7262 294.186 23.2102C294.546 24.2122 295.459 24.9958 296.468 25.1685C296.781 25.2222 296.924 25.2136 297.438 25.1103C297.769 25.0437 298.062 25.0099 298.089 25.0352C298.15 25.0942 297.874 25.2904 297.47 25.4755C296.873 25.7488 296.002 25.8552 295.378 25.7311L295.378 25.7312ZM297.293 23.4255C297.275 23.3971 297.326 23.1838 297.405 22.9515C297.484 22.7192 297.548 22.522 297.548 22.5133C297.548 22.5047 297.379 22.3766 297.172 22.229C296.965 22.0814 296.796 21.9379 296.796 21.9101C296.796 21.8824 297.011 21.8521 297.274 21.8429L297.751 21.8261L297.901 21.395C297.984 21.1578 298.079 20.9547 298.113 20.9436C298.146 20.9324 298.243 21.1329 298.329 21.3891L298.484 21.855H298.976C299.247 21.855 299.459 21.8786 299.448 21.9077C299.438 21.9367 299.266 22.0798 299.067 22.2258C298.869 22.3718 298.706 22.5133 298.706 22.5402C298.706 22.5671 298.758 22.7405 298.822 22.9255C298.933 23.2495 298.969 23.4753 298.908 23.4753C298.893 23.4753 298.72 23.3581 298.526 23.2148C298.331 23.0716 298.148 22.9544 298.118 22.9544C298.089 22.9544 297.929 23.0538 297.763 23.1752C297.362 23.4688 297.33 23.4858 297.293 23.4255L297.293 23.4255Z" fill="#67BF4C"/>
<path opacity="0.804" d="M298.103 20.8994C297.98 20.9882 297.956 21.1623 297.891 21.2923C297.832 21.4548 297.777 21.6191 297.719 21.7822C297.407 21.8089 297.076 21.7678 296.776 21.8652C296.7 21.9546 296.855 22.0244 296.905 22.0824C297.097 22.2391 297.305 22.3725 297.498 22.5273C297.416 22.8271 297.264 23.1173 297.247 23.4298C297.299 23.5685 297.456 23.4549 297.528 23.4002C297.725 23.27 297.91 23.0994 298.122 23.0025C298.394 23.1477 298.624 23.3689 298.895 23.5185C299.016 23.5223 298.981 23.3511 298.967 23.2738C298.922 23.0251 298.798 22.783 298.758 22.5407C298.98 22.3115 299.276 22.1677 299.489 21.9285C299.502 21.8084 299.326 21.8374 299.25 21.8188C299.005 21.8031 298.76 21.8131 298.516 21.8102C298.4 21.5114 298.347 21.1759 298.157 20.9147C298.142 20.9028 298.123 20.8936 298.103 20.8992V20.8994Z" fill="#67BF4C"/>
</g>
<g opacity="0.804">
<path opacity="0.804" d="M23.369 41.8199C23.2414 41.7945 22.9934 41.7233 22.8179 41.6616C21.9184 41.3454 21.0498 40.4552 20.7257 39.5171C20.6127 39.1899 20.5397 38.8335 20.544 38.3537C20.5478 37.8735 20.6126 37.5655 20.7257 37.2383C21.0347 36.344 21.8163 35.5033 22.6781 35.1383C22.9912 35.0057 23.6867 34.8767 24.0888 34.8767C24.688 34.8767 25.8225 35.2555 26.0522 35.5323C26.1697 35.6738 26.0608 35.6786 25.4817 35.5573C25.0186 35.4603 24.865 35.4513 24.507 35.5005C23.4759 35.6422 22.5484 36.4192 22.1777 37.4517C22.0029 37.9389 22.0022 38.8149 22.1768 39.2989C22.5373 40.3009 23.4504 41.0845 24.459 41.2572C24.772 41.3108 24.9155 41.3023 25.4291 41.199C25.7607 41.1324 26.0535 41.0986 26.0798 41.1239C26.1411 41.1829 25.8654 41.3791 25.4611 41.5642C24.8641 41.8375 23.9936 41.9439 23.3695 41.8198L23.369 41.8199ZM25.2842 39.5142C25.2667 39.4858 25.317 39.2725 25.396 39.0402C25.475 38.8079 25.5396 38.6107 25.5396 38.6019C25.5396 38.5933 25.3704 38.4653 25.1635 38.3177C24.9566 38.17 24.7874 38.0266 24.7874 37.9988C24.7874 37.971 25.0022 37.9408 25.2648 37.9315L25.7422 37.9147L25.8926 37.4836C25.9753 37.2465 26.0704 37.0434 26.1039 37.0322C26.1374 37.0211 26.2345 37.2216 26.3199 37.4778L26.475 37.9437H26.967C27.2383 37.9437 27.4503 37.9673 27.4396 37.9963C27.429 38.0253 27.2576 38.1685 27.0587 38.3145C26.8597 38.4605 26.697 38.602 26.697 38.6289C26.697 38.6558 26.7491 38.8292 26.8127 39.0142C26.9242 39.3382 26.9599 39.5639 26.8997 39.5639C26.8838 39.5639 26.7117 39.4467 26.5171 39.3035C26.3226 39.1603 26.1391 39.0431 26.1095 39.0431C26.0798 39.0431 25.9199 39.1425 25.7541 39.2639C25.3534 39.5574 25.3215 39.5745 25.2842 39.5142L25.2842 39.5142Z" fill="#67BF4C"/>
</g>
<g opacity="0.804">
<path opacity="0.804" d="M55.369 41.8199C55.2414 41.7945 54.9934 41.7233 54.8179 41.6616C53.9184 41.3454 53.0498 40.4552 52.7257 39.5171C52.6127 39.1899 52.5397 38.8335 52.544 38.3537C52.5478 37.8735 52.6126 37.5655 52.7257 37.2383C53.0347 36.344 53.8163 35.5033 54.6781 35.1383C54.9912 35.0057 55.6867 34.8767 56.0888 34.8767C56.688 34.8767 57.8225 35.2555 58.0522 35.5323C58.1697 35.6738 58.0608 35.6786 57.4817 35.5573C57.0186 35.4603 56.865 35.4513 56.507 35.5005C55.4759 35.6422 54.5484 36.4192 54.1777 37.4517C54.0029 37.9389 54.0022 38.8149 54.1768 39.2989C54.5373 40.3009 55.4504 41.0845 56.459 41.2572C56.772 41.3108 56.9155 41.3023 57.4291 41.199C57.7607 41.1324 58.0535 41.0986 58.0798 41.1239C58.1411 41.1829 57.8654 41.3791 57.4611 41.5642C56.8641 41.8375 55.9936 41.9439 55.3695 41.8198L55.369 41.8199ZM57.2842 39.5142C57.2667 39.4858 57.317 39.2725 57.396 39.0402C57.475 38.8079 57.5396 38.6107 57.5396 38.6019C57.5396 38.5933 57.3704 38.4653 57.1635 38.3177C56.9566 38.17 56.7874 38.0266 56.7874 37.9988C56.7874 37.971 57.0022 37.9408 57.2648 37.9315L57.7422 37.9147L57.8926 37.4836C57.9753 37.2465 58.0704 37.0434 58.1039 37.0322C58.1374 37.0211 58.2345 37.2216 58.3199 37.4778L58.475 37.9437H58.967C59.2383 37.9437 59.4503 37.9673 59.4396 37.9963C59.429 38.0253 59.2576 38.1685 59.0587 38.3145C58.8597 38.4605 58.697 38.602 58.697 38.6289C58.697 38.6558 58.7491 38.8292 58.8127 39.0142C58.9242 39.3382 58.9599 39.5639 58.8997 39.5639C58.8838 39.5639 58.7117 39.4467 58.5171 39.3035C58.3226 39.1603 58.1391 39.0431 58.1095 39.0431C58.0798 39.0431 57.9199 39.1425 57.7541 39.2639C57.3534 39.5574 57.3215 39.5745 57.2842 39.5142L57.2842 39.5142Z" fill="#67BF4C"/>
</g>
<g opacity="0.804">
<path opacity="0.804" d="M87.369 41.8199C87.2414 41.7945 86.9934 41.7233 86.8179 41.6616C85.9184 41.3454 85.0498 40.4552 84.7257 39.5171C84.6127 39.1899 84.5397 38.8335 84.544 38.3537C84.5478 37.8735 84.6126 37.5655 84.7257 37.2383C85.0347 36.344 85.8163 35.5033 86.6781 35.1383C86.9912 35.0057 87.6867 34.8767 88.0888 34.8767C88.688 34.8767 89.8225 35.2555 90.0522 35.5323C90.1697 35.6738 90.0608 35.6786 89.4817 35.5573C89.0186 35.4603 88.865 35.4513 88.507 35.5005C87.4759 35.6422 86.5484 36.4192 86.1777 37.4517C86.0029 37.9389 86.0022 38.8149 86.1768 39.2989C86.5373 40.3009 87.4504 41.0845 88.459 41.2572C88.772 41.3108 88.9155 41.3023 89.4291 41.199C89.7607 41.1324 90.0535 41.0986 90.0798 41.1239C90.1411 41.1829 89.8654 41.3791 89.4611 41.5642C88.8641 41.8375 87.9936 41.9439 87.3695 41.8198L87.369 41.8199ZM89.2842 39.5142C89.2667 39.4858 89.317 39.2725 89.396 39.0402C89.475 38.8079 89.5396 38.6107 89.5396 38.6019C89.5396 38.5933 89.3704 38.4653 89.1635 38.3177C88.9566 38.17 88.7874 38.0266 88.7874 37.9988C88.7874 37.971 89.0022 37.9408 89.2648 37.9315L89.7422 37.9147L89.8926 37.4836C89.9753 37.2465 90.0704 37.0434 90.1039 37.0322C90.1374 37.0211 90.2345 37.2216 90.3199 37.4778L90.475 37.9437H90.967C91.2383 37.9437 91.4503 37.9673 91.4396 37.9963C91.429 38.0253 91.2576 38.1685 91.0587 38.3145C90.8597 38.4605 90.697 38.602 90.697 38.6289C90.697 38.6558 90.7491 38.8292 90.8127 39.0142C90.9242 39.3382 90.9599 39.5639 90.8997 39.5639C90.8838 39.5639 90.7117 39.4467 90.5171 39.3035C90.3226 39.1603 90.1391 39.0431 90.1095 39.0431C90.0798 39.0431 89.9199 39.1425 89.7541 39.2639C89.3534 39.5574 89.3215 39.5745 89.2842 39.5142L89.2842 39.5142Z" fill="#67BF4C"/>
</g>
<g opacity="0.804">
<path opacity="0.804" d="M119.369 41.8199C119.241 41.7945 118.993 41.7233 118.818 41.6616C117.918 41.3454 117.05 40.4552 116.726 39.5171C116.613 39.1899 116.54 38.8335 116.544 38.3537C116.548 37.8735 116.613 37.5655 116.726 37.2383C117.035 36.344 117.816 35.5033 118.678 35.1383C118.991 35.0057 119.687 34.8767 120.089 34.8767C120.688 34.8767 121.823 35.2555 122.052 35.5323C122.17 35.6738 122.061 35.6786 121.482 35.5573C121.019 35.4603 120.865 35.4513 120.507 35.5005C119.476 35.6422 118.548 36.4192 118.178 37.4517C118.003 37.9389 118.002 38.8149 118.177 39.2989C118.537 40.3009 119.45 41.0845 120.459 41.2572C120.772 41.3108 120.915 41.3023 121.429 41.199C121.761 41.1324 122.053 41.0986 122.08 41.1239C122.141 41.1829 121.865 41.3791 121.461 41.5642C120.864 41.8375 119.994 41.9439 119.369 41.8198L119.369 41.8199ZM121.284 39.5142C121.267 39.4858 121.317 39.2725 121.396 39.0402C121.475 38.8079 121.54 38.6107 121.54 38.6019C121.54 38.5933 121.37 38.4653 121.163 38.3177C120.957 38.17 120.787 38.0266 120.787 37.9988C120.787 37.971 121.002 37.9408 121.265 37.9315L121.742 37.9147L121.893 37.4836C121.975 37.2465 122.07 37.0434 122.104 37.0322C122.137 37.0211 122.235 37.2216 122.32 37.4778L122.475 37.9437H122.967C123.238 37.9437 123.45 37.9673 123.44 37.9963C123.429 38.0253 123.258 38.1685 123.059 38.3145C122.86 38.4605 122.697 38.602 122.697 38.6289C122.697 38.6558 122.749 38.8292 122.813 39.0142C122.924 39.3382 122.96 39.5639 122.9 39.5639C122.884 39.5639 122.712 39.4467 122.517 39.3035C122.323 39.1603 122.139 39.0431 122.109 39.0431C122.08 39.0431 121.92 39.1425 121.754 39.2639C121.353 39.5574 121.321 39.5745 121.284 39.5142L121.284 39.5142Z" fill="#67BF4C"/>
</g>
<g opacity="0.804">
<path opacity="0.804" d="M151.369 41.8199C151.241 41.7945 150.993 41.7233 150.818 41.6616C149.918 41.3454 149.05 40.4552 148.726 39.5171C148.613 39.1899 148.54 38.8335 148.544 38.3537C148.548 37.8735 148.613 37.5655 148.726 37.2383C149.035 36.344 149.816 35.5033 150.678 35.1383C150.991 35.0057 151.687 34.8767 152.089 34.8767C152.688 34.8767 153.823 35.2555 154.052 35.5323C154.17 35.6738 154.061 35.6786 153.482 35.5573C153.019 35.4603 152.865 35.4513 152.507 35.5005C151.476 35.6422 150.548 36.4192 150.178 37.4517C150.003 37.9389 150.002 38.8149 150.177 39.2989C150.537 40.3009 151.45 41.0845 152.459 41.2572C152.772 41.3108 152.915 41.3023 153.429 41.199C153.761 41.1324 154.053 41.0986 154.08 41.1239C154.141 41.1829 153.865 41.3791 153.461 41.5642C152.864 41.8375 151.994 41.9439 151.369 41.8198L151.369 41.8199ZM153.284 39.5142C153.267 39.4858 153.317 39.2725 153.396 39.0402C153.475 38.8079 153.54 38.6107 153.54 38.6019C153.54 38.5933 153.37 38.4653 153.163 38.3177C152.957 38.17 152.787 38.0266 152.787 37.9988C152.787 37.971 153.002 37.9408 153.265 37.9315L153.742 37.9147L153.893 37.4836C153.975 37.2465 154.07 37.0434 154.104 37.0322C154.137 37.0211 154.235 37.2216 154.32 37.4778L154.475 37.9437H154.967C155.238 37.9437 155.45 37.9673 155.44 37.9963C155.429 38.0253 155.258 38.1685 155.059 38.3145C154.86 38.4605 154.697 38.602 154.697 38.6289C154.697 38.6558 154.749 38.8292 154.813 39.0142C154.924 39.3382 154.96 39.5639 154.9 39.5639C154.884 39.5639 154.712 39.4467 154.517 39.3035C154.323 39.1603 154.139 39.0431 154.109 39.0431C154.08 39.0431 153.92 39.1425 153.754 39.2639C153.353 39.5574 153.321 39.5745 153.284 39.5142L153.284 39.5142Z" fill="#67BF4C"/>
</g>
<g opacity="0.804">
<path opacity="0.804" d="M183.369 41.8199C183.241 41.7945 182.993 41.7233 182.818 41.6616C181.918 41.3454 181.05 40.4552 180.726 39.5171C180.613 39.1899 180.54 38.8335 180.544 38.3537C180.548 37.8735 180.613 37.5655 180.726 37.2383C181.035 36.344 181.816 35.5033 182.678 35.1383C182.991 35.0057 183.687 34.8767 184.089 34.8767C184.688 34.8767 185.823 35.2555 186.052 35.5323C186.17 35.6738 186.061 35.6786 185.482 35.5573C185.019 35.4603 184.865 35.4513 184.507 35.5005C183.476 35.6422 182.548 36.4192 182.178 37.4517C182.003 37.9389 182.002 38.8149 182.177 39.2989C182.537 40.3009 183.45 41.0845 184.459 41.2572C184.772 41.3108 184.915 41.3023 185.429 41.199C185.761 41.1324 186.053 41.0986 186.08 41.1239C186.141 41.1829 185.865 41.3791 185.461 41.5642C184.864 41.8375 183.994 41.9439 183.369 41.8198L183.369 41.8199ZM185.284 39.5142C185.267 39.4858 185.317 39.2725 185.396 39.0402C185.475 38.8079 185.54 38.6107 185.54 38.6019C185.54 38.5933 185.37 38.4653 185.163 38.3177C184.957 38.17 184.787 38.0266 184.787 37.9988C184.787 37.971 185.002 37.9408 185.265 37.9315L185.742 37.9147L185.893 37.4836C185.975 37.2465 186.07 37.0434 186.104 37.0322C186.137 37.0211 186.235 37.2216 186.32 37.4778L186.475 37.9437H186.967C187.238 37.9437 187.45 37.9673 187.44 37.9963C187.429 38.0253 187.258 38.1685 187.059 38.3145C186.86 38.4605 186.697 38.602 186.697 38.6289C186.697 38.6558 186.749 38.8292 186.813 39.0142C186.924 39.3382 186.96 39.5639 186.9 39.5639C186.884 39.5639 186.712 39.4467 186.517 39.3035C186.323 39.1603 186.139 39.0431 186.109 39.0431C186.08 39.0431 185.92 39.1425 185.754 39.2639C185.353 39.5574 185.321 39.5745 185.284 39.5142L185.284 39.5142Z" fill="#67BF4C"/>
</g>
<g opacity="0.804">
<path opacity="0.804" d="M215.369 41.8199C215.241 41.7945 214.993 41.7233 214.818 41.6616C213.918 41.3454 213.05 40.4552 212.726 39.5171C212.613 39.1899 212.54 38.8335 212.544 38.3537C212.548 37.8735 212.613 37.5655 212.726 37.2383C213.035 36.344 213.816 35.5033 214.678 35.1383C214.991 35.0057 215.687 34.8767 216.089 34.8767C216.688 34.8767 217.823 35.2555 218.052 35.5323C218.17 35.6738 218.061 35.6786 217.482 35.5573C217.019 35.4603 216.865 35.4513 216.507 35.5005C215.476 35.6422 214.548 36.4192 214.178 37.4517C214.003 37.9389 214.002 38.8149 214.177 39.2989C214.537 40.3009 215.45 41.0845 216.459 41.2572C216.772 41.3108 216.915 41.3023 217.429 41.199C217.761 41.1324 218.053 41.0986 218.08 41.1239C218.141 41.1829 217.865 41.3791 217.461 41.5642C216.864 41.8375 215.994 41.9439 215.369 41.8198L215.369 41.8199ZM217.284 39.5142C217.267 39.4858 217.317 39.2725 217.396 39.0402C217.475 38.8079 217.54 38.6107 217.54 38.6019C217.54 38.5933 217.37 38.4653 217.163 38.3177C216.957 38.17 216.787 38.0266 216.787 37.9988C216.787 37.971 217.002 37.9408 217.265 37.9315L217.742 37.9147L217.893 37.4836C217.975 37.2465 218.07 37.0434 218.104 37.0322C218.137 37.0211 218.235 37.2216 218.32 37.4778L218.475 37.9437H218.967C219.238 37.9437 219.45 37.9673 219.44 37.9963C219.429 38.0253 219.258 38.1685 219.059 38.3145C218.86 38.4605 218.697 38.602 218.697 38.6289C218.697 38.6558 218.749 38.8292 218.813 39.0142C218.924 39.3382 218.96 39.5639 218.9 39.5639C218.884 39.5639 218.712 39.4467 218.517 39.3035C218.323 39.1603 218.139 39.0431 218.109 39.0431C218.08 39.0431 217.92 39.1425 217.754 39.2639C217.353 39.5574 217.321 39.5745 217.284 39.5142L217.284 39.5142Z" fill="#67BF4C"/>
</g>
<g opacity="0.804">
<path opacity="0.804" d="M247.369 41.8199C247.241 41.7945 246.993 41.7233 246.818 41.6616C245.918 41.3454 245.05 40.4552 244.726 39.5171C244.613 39.1899 244.54 38.8335 244.544 38.3537C244.548 37.8735 244.613 37.5655 244.726 37.2383C245.035 36.344 245.816 35.5033 246.678 35.1383C246.991 35.0057 247.687 34.8767 248.089 34.8767C248.688 34.8767 249.823 35.2555 250.052 35.5323C250.17 35.6738 250.061 35.6786 249.482 35.5573C249.019 35.4603 248.865 35.4513 248.507 35.5005C247.476 35.6422 246.548 36.4192 246.178 37.4517C246.003 37.9389 246.002 38.8149 246.177 39.2989C246.537 40.3009 247.45 41.0845 248.459 41.2572C248.772 41.3108 248.915 41.3023 249.429 41.199C249.761 41.1324 250.053 41.0986 250.08 41.1239C250.141 41.1829 249.865 41.3791 249.461 41.5642C248.864 41.8375 247.994 41.9439 247.369 41.8198L247.369 41.8199ZM249.284 39.5142C249.267 39.4858 249.317 39.2725 249.396 39.0402C249.475 38.8079 249.54 38.6107 249.54 38.6019C249.54 38.5933 249.37 38.4653 249.163 38.3177C248.957 38.17 248.787 38.0266 248.787 37.9988C248.787 37.971 249.002 37.9408 249.265 37.9315L249.742 37.9147L249.893 37.4836C249.975 37.2465 250.07 37.0434 250.104 37.0322C250.137 37.0211 250.235 37.2216 250.32 37.4778L250.475 37.9437H250.967C251.238 37.9437 251.45 37.9673 251.44 37.9963C251.429 38.0253 251.258 38.1685 251.059 38.3145C250.86 38.4605 250.697 38.602 250.697 38.6289C250.697 38.6558 250.749 38.8292 250.813 39.0142C250.924 39.3382 250.96 39.5639 250.9 39.5639C250.884 39.5639 250.712 39.4467 250.517 39.3035C250.323 39.1603 250.139 39.0431 250.109 39.0431C250.08 39.0431 249.92 39.1425 249.754 39.2639C249.353 39.5574 249.321 39.5745 249.284 39.5142L249.284 39.5142Z" fill="#67BF4C"/>
</g>
<g opacity="0.804">
<path opacity="0.804" d="M279.369 41.8199C279.241 41.7945 278.993 41.7233 278.818 41.6616C277.918 41.3454 277.05 40.4552 276.726 39.5171C276.613 39.1899 276.54 38.8335 276.544 38.3537C276.548 37.8735 276.613 37.5655 276.726 37.2383C277.035 36.344 277.816 35.5033 278.678 35.1383C278.991 35.0057 279.687 34.8767 280.089 34.8767C280.688 34.8767 281.823 35.2555 282.052 35.5323C282.17 35.6738 282.061 35.6786 281.482 35.5573C281.019 35.4603 280.865 35.4513 280.507 35.5005C279.476 35.6422 278.548 36.4192 278.178 37.4517C278.003 37.9389 278.002 38.8149 278.177 39.2989C278.537 40.3009 279.45 41.0845 280.459 41.2572C280.772 41.3108 280.915 41.3023 281.429 41.199C281.761 41.1324 282.053 41.0986 282.08 41.1239C282.141 41.1829 281.865 41.3791 281.461 41.5642C280.864 41.8375 279.994 41.9439 279.369 41.8198L279.369 41.8199ZM281.284 39.5142C281.267 39.4858 281.317 39.2725 281.396 39.0402C281.475 38.8079 281.54 38.6107 281.54 38.6019C281.54 38.5933 281.37 38.4653 281.163 38.3177C280.957 38.17 280.787 38.0266 280.787 37.9988C280.787 37.971 281.002 37.9408 281.265 37.9315L281.742 37.9147L281.893 37.4836C281.975 37.2465 282.07 37.0434 282.104 37.0322C282.137 37.0211 282.235 37.2216 282.32 37.4778L282.475 37.9437H282.967C283.238 37.9437 283.45 37.9673 283.44 37.9963C283.429 38.0253 283.258 38.1685 283.059 38.3145C282.86 38.4605 282.697 38.602 282.697 38.6289C282.697 38.6558 282.749 38.8292 282.813 39.0142C282.924 39.3382 282.96 39.5639 282.9 39.5639C282.884 39.5639 282.712 39.4467 282.517 39.3035C282.323 39.1603 282.139 39.0431 282.109 39.0431C282.08 39.0431 281.92 39.1425 281.754 39.2639C281.353 39.5574 281.321 39.5745 281.284 39.5142L281.284 39.5142Z" fill="#67BF4C"/>
</g>
</g>
<defs>
<clipPath id="clip0_214_10574">
<rect width="300" height="35" fill="white"/>
</clipPath>
</defs>
</svg>
