<svg width="300" height="35" viewBox="0 0 300 35" fill="none" xmlns="http://www.w3.org/2000/svg">
<rect width="300" height="35" fill="#19202E"/>
<path opacity="0.953" d="M149.999 7C155.514 7 160 11.4465 160 17C160 22.5172 155.514 27 149.999 27C144.486 27 140 22.5172 140 17C140 11.4465 144.486 7 149.999 7Z" fill="#505050"/>
<path opacity="0.95" fill-rule="evenodd" clip-rule="evenodd" d="M150 26C154.971 26 159 21.9706 159 17C159 12.0294 154.971 8 150 8C145.029 8 141 12.0294 141 17C141 21.9706 145.029 26 150 26ZM150 27C155.523 27 160 22.5228 160 17C160 11.4772 155.523 7 150 7C144.477 7 140 11.4772 140 17C140 22.5228 144.477 27 150 27Z" fill="#909090"/>
<g opacity="0.5">
<path d="M148.658 12.0258C148.92 12.1131 149.062 12.3963 148.974 12.6582L148.86 13.0001H147.806L148.026 12.342C148.113 12.0801 148.396 11.9385 148.658 12.0258Z" fill="white"/>
<path d="M145.515 19.8747L145.026 21.342C144.938 21.604 145.08 21.8872 145.342 21.9745C145.604 22.0618 145.887 21.9202 145.974 21.6582L146.527 20.0001H146C145.824 20.0001 145.658 19.9546 145.515 19.8747Z" fill="white"/>
<path d="M153.473 20.0001L154.026 21.6582C154.113 21.9202 154.396 22.0618 154.658 21.9745C154.92 21.8872 155.062 21.604 154.974 21.342L154.485 19.8747C154.342 19.9546 154.176 20.0001 154 20.0001H153.473Z" fill="white"/>
<path d="M152.194 13.0001L151.974 12.342C151.887 12.0801 151.604 11.9385 151.342 12.0258C151.08 12.1131 150.938 12.3963 151.026 12.6582L151.14 13.0001H152.194Z" fill="white"/>
</g>
<path d="M148.4 17L148 15.6667L147.6 17H148.4Z" fill="white"/>
<path d="M152.5 15.5C152.5 15.7761 152.276 16 152 16V15C152.276 15 152.5 15.2239 152.5 15.5Z" fill="white"/>
<path d="M152 17V18H152.5C152.776 18 153 17.7761 153 17.5C153 17.2239 152.776 17 152.5 17H152Z" fill="white"/>
<path fill-rule="evenodd" clip-rule="evenodd" d="M146 13C145.448 13 145 13.4477 145 14V19C145 19.5523 145.448 20 146 20H154C154.552 20 155 19.5523 155 19V14C155 13.4477 154.552 13 154 13H146ZM150 19L148.5 14H147.5L146 19H147L147.3 18H148.7L149 19H150ZM153.308 16.2357C153.43 16.0183 153.5 15.7673 153.5 15.5C153.5 14.6716 152.828 14 152 14H151V19H152.5C153.328 19 154 18.3284 154 17.5C154 16.9689 153.724 16.5022 153.308 16.2357Z" fill="white"/>
</svg>
