<svg width="300" height="35" viewBox="0 0 300 35" fill="none" xmlns="http://www.w3.org/2000/svg">
<rect width="300" height="35" fill="#3B3B3B"/>
<path opacity="0.5" fill-rule="evenodd" clip-rule="evenodd" d="M150.553 20.2236L148.553 16.2236L149.447 15.7764L151.447 19.7764L150.553 20.2236Z" fill="#7FB837"/>
<path d="M144.155 16.8699C144.054 16.7101 144 16.5249 144 16.3359V16.1651C144 15.8282 144.17 15.5139 144.451 15.3291L147.75 13.164C147.913 13.057 148.104 13 148.299 13H148.465C148.799 13 149.111 13.1671 149.297 13.4453L150.832 15.7481C150.942 15.9124 151 16.1054 151 16.3028V16.4648C151 16.7992 150.833 17.1114 150.555 17.2969L148 19L146.602 19C145.916 19 145.278 18.6482 144.911 18.0681L144.155 16.8699Z" fill="#7FB837"/>
<path fill-rule="evenodd" clip-rule="evenodd" d="M152 19L148 19L146.5 19C145.948 19 145.5 19.4477 145.5 20V21H146C146 21.5523 146.448 22 147 22C147.552 22 148 21.5523 148 21L153 21C153 21.5523 153.448 22 154 22C154.552 22 155 21.5523 155 21H156V18.5L154.222 16H152L152 19ZM153 17H153.706L154.773 18.5H153V17Z" fill="#7FB837"/>
</svg>
