<svg width="300" height="35" viewBox="0 0 300 35" fill="none" xmlns="http://www.w3.org/2000/svg">
<path opacity="0.953" d="M149.999 8C154.963 8 159 12.0018 159 17C159 21.9655 154.963 26 149.999 26C145.037 26 141 21.9655 141 17C141 12.0018 145.037 8 149.999 8Z" fill="#673A1C"/>
<path opacity="0.95" fill-rule="evenodd" clip-rule="evenodd" d="M150 26C154.971 26 159 21.9706 159 17C159 12.0294 154.971 8 150 8C145.029 8 141 12.0294 141 17C141 21.9706 145.029 26 150 26ZM150 27C155.523 27 160 22.5228 160 17C160 11.4772 155.523 7 150 7C144.477 7 140 11.4772 140 17C140 22.5228 144.477 27 150 27Z" fill="#9F5A2B"/>
<path d="M146.004 18.6719C146.121 18.7064 146.407 18.6774 146.309 18.4836C146.255 18.3761 145.998 18.2407 145.884 18.2086C145.714 18.1602 145.427 18.3703 145.646 18.505L145.598 18.6481C145.415 18.5603 145.362 18.2917 145.377 18.0995C145.388 17.9643 145.51 17.8218 145.558 17.694C145.69 17.3449 145.799 17.0019 145.901 16.6445C145.942 16.5017 145.955 16.2314 146.079 16.1372C146.195 16.0489 146.374 16.0361 146.505 15.971C146.601 15.9231 146.664 15.8245 146.767 15.7924C146.99 15.7237 147.209 15.7414 147.316 15.4997C147.541 15.8397 147.729 16.1566 147.766 16.573C147.793 16.869 147.591 17.1725 147.523 17.4555C147.475 17.6533 147.49 17.8548 147.438 18.0518C147.373 18.2975 147.246 18.5245 147.185 18.7673C147.148 18.9138 147.181 19.0804 147.135 19.2205C147.053 19.4711 146.586 19.6209 146.642 19.9359C146.667 20.0815 146.837 20.1101 146.958 20.1348C147.238 20.1922 147.54 20.1568 147.816 20.1135C147.909 20.099 148.02 20.1169 148.092 20.0449C148.266 19.8714 148.061 19.5433 148.117 19.3398C148.157 19.1939 148.295 19.0667 148.367 18.9343C148.524 18.6463 148.657 18.3428 148.747 18.0279H148.771C148.776 18.3055 148.843 18.6534 148.95 18.9104C149.017 19.0727 149.19 19.3056 149.185 19.4829C149.177 19.7867 148.717 19.9855 148.938 20.3411C149.16 20.6988 149.685 20.3389 149.963 20.276C150.116 20.2414 150.32 20.2866 150.395 20.102C150.498 19.8471 150.289 19.6056 150.253 19.3636C150.213 19.0867 150.265 18.8081 150.214 18.5288C150.177 18.3244 150.011 18.0866 150.016 17.8848C150.02 17.7428 150.121 17.5747 150.154 17.4316L151.06 17.8573L151.442 18.0756C151.444 18.2784 151.438 18.5206 151.474 18.7196C151.491 18.8147 151.58 18.9107 151.553 19.0089C151.5 19.2004 151.031 19.3968 151.136 19.5996C151.194 19.7111 151.354 19.7493 151.466 19.7779C151.748 19.8504 152.486 19.9593 152.694 19.695C152.785 19.5784 152.778 19.3846 152.778 19.2444C152.778 18.8909 152.815 18.5165 152.73 18.171C153.037 18.3603 153.107 18.7406 153.26 19.0535C153.314 19.1619 153.425 19.3338 153.388 19.4587C153.332 19.6512 152.758 19.9519 153.024 20.2119C153.097 20.284 153.231 20.2894 153.326 20.3183C153.6 20.4017 154.433 20.538 154.563 20.1742C154.684 19.8342 154.653 19.2339 154.569 18.8866C154.519 18.6822 154.404 18.5049 154.384 18.2903C154.365 18.0928 154.502 17.893 154.517 17.694C154.537 17.417 154.451 17.1738 154.443 16.9069C154.437 16.7352 154.495 16.5584 154.495 16.3822C154.757 17.0766 154.483 17.8238 154.673 18.5288C154.701 18.6314 154.712 19.2135 154.917 19.1549C154.995 19.1329 155.017 18.9992 155.002 18.9343C154.934 18.6509 154.812 18.4003 154.811 18.0995C154.811 17.9499 154.879 17.7957 154.896 17.6463C154.995 16.764 155.133 15.537 154.376 14.89C154.038 14.6015 153.672 14.3908 153.302 14.152C153.013 13.965 152.717 13.7468 152.372 13.6724C152.119 13.6179 151.842 13.6985 151.585 13.686C151.025 13.6588 150.474 13.5527 149.915 13.5002C149.661 13.4763 149.409 13.5253 149.152 13.477C148.6 13.3731 148.191 12.9555 147.649 12.819C147.478 12.7757 147.181 12.8054 147.006 12.8362C146.84 12.8652 146.752 12.9811 146.624 13.0729C146.249 13.3394 145.759 13.7667 145.551 14.1878C145.424 14.4463 145.41 14.7918 145.329 15.0704C145.21 15.4764 144.984 15.8142 144.917 16.2391C144.847 16.6841 144.954 17.1515 144.954 17.5986C144.954 17.9347 144.766 18.3459 144.886 18.6719C145.053 19.1277 145.941 19.2783 146.004 18.6719Z" fill="white"/>
</svg>
