<svg width="14mm" height="25mm" version="1.1" viewBox="0 0 14 25" xml:space="preserve" xmlns="http://www.w3.org/2000/svg"><g transform="matrix(.26458 0 0 .26458 1.2104 1.1004)"><path d="m3.2773 2.8633c-0.19141 0-0.38281 0.0625-0.53516 0.17578-0.15625 0.11719-0.26563 0.28125-0.32031 0.46484l-1.3008 4.4961c-0.039063 0.13281-0.046875 0.27344-0.019532 0.40625 0.023438 0.13672 0.082032 0.26562 0.16406 0.375 0.082031 0.11328 0.19141 0.20312 0.3125 0.26172 0.125 0.0625 0.26172 0.09375 0.39844 0.09375h0.91016c0.19531 0 0.38672-0.0625 0.54297-0.18359 0.15234-0.11719 0.26562-0.28516 0.31641-0.47266l0.042968-0.16016h0.054688l0.042969 0.16016c0.050781 0.1875 0.16016 0.35547 0.31641 0.47266 0.15625 0.12109 0.34766 0.18359 0.54297 0.18359h0.91016c0.078125 0 0.15234-0.011719 0.23047-0.03125 0.074219 0.019531 0.15234 0.03125 0.23047 0.03125h0.85937c0.23047 0 0.45313-0.089844 0.62109-0.25 0.16406-0.16016 0.26172-0.37891 0.26953-0.61328h0.41016c0.00781 0.23437 0.10547 0.45312 0.26953 0.61328 0.16797 0.16016 0.38672 0.25 0.62109 0.25h0.85547c0.11719 0 0.23047-0.023438 0.33984-0.066407 0.10938-0.042968 0.20703-0.10937 0.28906-0.19141 0.08203-0.085937 0.14844-0.18359 0.19531-0.29297 0.04297-0.10547 0.06641-0.22266 0.06641-0.33984v-4.4922c0-0.11719-0.02344-0.23438-0.06641-0.33984-0.046875-0.10937-0.11328-0.20703-0.19531-0.29297-0.082032-0.082032-0.17969-0.14844-0.28906-0.19141-0.10938-0.042969-0.22266-0.066407-0.33984-0.066407h-1.1484c-0.16797 0-0.33203 0.046875-0.47656 0.13672-0.14063 0.089844-0.25391 0.21484-0.32813 0.36719-0.070312-0.15234-0.18359-0.27734-0.32812-0.36719-0.14063-0.089844-0.30469-0.13672-0.47266-0.13672h-1.1523c-0.20703 0-0.41406 0.074219-0.57422 0.21094-0.16016 0.13281-0.26562 0.32422-0.30078 0.53125l-0.03125-0.10156c-0.050782-0.18359-0.16406-0.34766-0.32031-0.46484-0.15234-0.11328-0.33984-0.17578-0.53516-0.17578z" fill="#fdfdfd" fill-opacity=".78824"/><path d="m4.5234 7.4297h-1.4141l-0.22266 0.81641h-0.91016l1.3008-4.4922h1.0781l1.3008 4.4922h-0.91016zm-1.1875-0.83594h0.96094l-0.48047-1.7891-0.48047 1.7891" fill="#6b003a"/><path d="m6.1172 3.7539h1.1523l0.80078 2.4023 0.80469-2.4023h1.1484v4.4922h-0.85547v-3.2852l-0.80859 2.4219h-0.57422l-0.80859-2.4219v3.2852h-0.85937v-4.4922" fill="#6b003a"/></g><g transform="matrix(.26458 0 0 .26458 1.2104 18.915)"><path d="m4.4648 2.2891c-0.96875 0-1.9219 0.35938-2.5664 1.0586-0.64844 0.69922-0.94141 1.6523-0.94141 2.6523s0.29688 1.957 0.94141 2.6562c0.64453 0.69922 1.5977 1.0547 2.5664 1.0547 0.34375 0 0.67969-0.042969 1.0078-0.13281 0.20703-0.058594 0.40625-0.13281 0.60156-0.22656 0.19922 0.16797 0.44922 0.26172 0.71094 0.26172h3.1523c0.29297 0 0.57422-0.11719 0.78125-0.32422 0.20703-0.20703 0.32422-0.48828 0.32422-0.78125v-0.98047c0-0.29297-0.11719-0.57422-0.32422-0.78125-0.20703-0.20703-0.48828-0.32422-0.78125-0.32422h-0.90234v-2.9375c0-0.29297-0.11719-0.57422-0.32422-0.78125-0.20703-0.20703-0.48828-0.32422-0.78125-0.32422h-1.1445c-0.26172 0-0.51562 0.09375-0.71875 0.26562-0.19141-0.089843-0.39062-0.16406-0.59375-0.22266-0.32812-0.089844-0.66406-0.13281-1.0078-0.13281zm0.00781 3.1445s0.015625 0.00781 0.085938 0.00781c0.10547 0 0.18359 0.015625 0.26562 0.042969 0.082033 0.031252 0.19531 0.089846 0.33594 0.19922 0.14844 0.11719 0.32812 0.19141 0.51953 0.21875v0.19531c-0.19141 0.027344-0.37109 0.10156-0.51953 0.21875-0.14062 0.10938-0.25391 0.16797-0.33594 0.19922-0.082031 0.027344-0.16016 0.042969-0.26562 0.042969-0.14062 0-0.054688 0.027344-0.09375-0.019532-0.039063-0.050781-0.11328-0.18359-0.11328-0.53906 0-0.35156 0.074219-0.48828 0.11328-0.53906 0.019531-0.023438 0.007812-0.027344 0.007812-0.027344z" fill="#fdfdfd" fill-opacity=".78824"/><path d="m5.8359 8.2305c-0.21094 0.125-0.42969 0.21875-0.65625 0.28125-0.22656 0.0625-0.46484 0.09375-0.71484 0.09375-0.73828 0-1.3203-0.23438-1.7539-0.69922-0.42969-0.46875-0.64844-1.1055-0.64844-1.9062s0.21875-1.4375 0.64844-1.9023c0.43359-0.46875 1.0156-0.70312 1.7539-0.70312 0.25 0 0.48828 0.03125 0.71484 0.09375 0.22656 0.0625 0.44531 0.15625 0.65625 0.28125v1.0391c-0.21094-0.16406-0.42188-0.28516-0.62891-0.35938-0.20312-0.078125-0.42188-0.11719-0.64844-0.11719-0.41016 0-0.73047 0.14844-0.96094 0.44531-0.23438 0.29688-0.35156 0.70312-0.35156 1.2227s0.11719 0.92578 0.35156 1.2227c0.23047 0.29688 0.55078 0.44531 0.96094 0.44531 0.22656 0 0.44531-0.039063 0.64844-0.11719 0.20703-0.074219 0.41797-0.19531 0.62891-0.35938z" fill="#6b003a"/><path d="m6.7852 3.4844h1.1445v4.043h2.0078v0.98047h-3.1523v-5.0234" fill="#6b003a"/></g><g transform="matrix(.26458 0 0 .26458 1.2105 21.293)"><path d="m4.1641 2.6289c-0.89062 0-1.7578 0.32031-2.3516 0.95312-0.59375 0.63281-0.87109 1.5039-0.87109 2.418 0 0.91797 0.27734 1.7852 0.87109 2.4219 0.59375 0.63281 1.4609 0.94922 2.3516 0.94922 0.3125 0 0.625-0.039063 0.92578-0.11719 0.20312-0.058594 0.40234-0.13281 0.59375-0.22266 0.17578 0.16016 0.41016 0.25 0.65234 0.25h1.0703c0.14844 0 0.29297-0.03125 0.42969-0.097656 0.13281-0.066406 0.25-0.16016 0.33984-0.27734 0.089844 0.11719 0.20703 0.21094 0.33984 0.27734s0.28125 0.097656 0.42969 0.097656h1.1367c0.16406 0 0.32422-0.039062 0.46484-0.11719 0.14453-0.078124 0.26562-0.1875 0.35156-0.32422 0.08984-0.13672 0.14453-0.29297 0.15625-0.45312 0.01172-0.16406-0.01563-0.32422-0.08203-0.47266l-0.57812-1.3125s-0.0039 0-0.0039-0.00391c-0.0625-0.14062-0.125-0.26953-0.19531-0.39062 0.23828-0.37891 0.33203-0.82031 0.33203-1.2461 0-0.62891-0.22266-1.3086-0.74609-1.7266v-0.00391c-0.51954-0.41796-1.1445-0.51952-1.8125-0.51952h-1.6328c-0.24219 0-0.48047 0.09375-0.65625 0.25781-0.19141-0.089844-0.39063-0.16406-0.58984-0.22266-0.30078-0.078125-0.61328-0.11719-0.92578-0.11719zm0.089844 2.8125c0.10156 0 0.1875 0.015625 0.27344 0.046875 0.082031 0.027344 0.19531 0.085938 0.32812 0.19141 0.14844 0.10937 0.32422 0.17578 0.50781 0.19141v0.25781c-0.18359 0.015625-0.35938 0.082032-0.50781 0.19141-0.13281 0.10547-0.24609 0.16406-0.32812 0.19141-0.085938 0.03125-0.17188 0.046875-0.27344 0.046875-0.15234 0-0.097656 0.011718-0.14062-0.042969-0.046875-0.054687-0.11719-0.1875-0.11719-0.51562s0.070312-0.46094 0.11719-0.51562c0.042969-0.054687-0.011719-0.042969 0.14062-0.042969z" fill="#fdfdfd" fill-opacity=".78824"/><path d="m5.4453 8.0547c-0.19531 0.11328-0.39844 0.19922-0.61328 0.25781-0.21094 0.054688-0.43359 0.085938-0.66797 0.085938-0.69141 0-1.2383-0.21484-1.6406-0.64453-0.40625-0.42969-0.60547-1.0156-0.60547-1.7539s0.19922-1.3203 0.60547-1.75c0.40234-0.43359 0.94922-0.64844 1.6406-0.64844 0.23438 0 0.45703 0.03125 0.66797 0.085938 0.21484 0.058594 0.41797 0.14453 0.61328 0.25781v0.95703c-0.19531-0.15234-0.39062-0.26172-0.58594-0.33203-0.19141-0.070312-0.39453-0.10547-0.60938-0.10547-0.37891 0-0.67969 0.13672-0.89844 0.41016s-0.32812 0.64844-0.32812 1.125 0.10937 0.85156 0.32812 1.125 0.51953 0.41016 0.89844 0.41016c0.21484 0 0.41797-0.035156 0.60938-0.10547 0.19531-0.070313 0.39062-0.17969 0.58594-0.33203z" fill="#6b003a"/><path d="m7.8555 5.7344c0.22656 0 0.38672-0.046875 0.48047-0.13672 0.10156-0.09375 0.14844-0.24609 0.14844-0.46094 0-0.21094-0.046875-0.35938-0.14844-0.44922-0.09375-0.09375-0.25391-0.13672-0.48047-0.13672h-0.44922v1.1836zm-0.44922 0.82422v1.75h-1.0703v-4.6211h1.6328c0.54688 0 0.94922 0.10156 1.2031 0.30469 0.25391 0.20312 0.38281 0.52734 0.38281 0.96875 0 0.30469-0.066407 0.55469-0.19922 0.75391-0.13281 0.19531-0.33203 0.33984-0.59766 0.43359 0.14453 0.035156 0.27734 0.12109 0.39063 0.25391 0.11719 0.12891 0.23437 0.32812 0.35156 0.59375l0.58203 1.3125h-1.1406l-0.50391-1.1484c-0.10156-0.23047-0.20703-0.39062-0.3125-0.47266-0.10156-0.085938-0.24219-0.12891-0.41406-0.12891h-0.30469" fill="#6b003a"/></g><g transform="matrix(.26458 0 0 .26458 1.2104 12.126)"><path d="m2.3359 2.6445c-0.28906 0-0.5625 0.11328-0.76953 0.31641-0.20312 0.20312-0.31641 0.48047-0.31641 0.76953v4.5391c0 0.28906 0.11328 0.56641 0.31641 0.76953 0.20703 0.20313 0.48047 0.31641 0.76953 0.31641h2.5391c0.14062 0 0.27734-0.027344 0.40625-0.078125 0.12891 0.050781 0.26562 0.078125 0.40625 0.078125h0.875c0.25 0 0.49219-0.085938 0.6875-0.24609s0.32812-0.37891 0.375-0.625h0.10156c0.050782 0.24609 0.18359 0.46484 0.37891 0.625 0.19141 0.16016 0.4375 0.24609 0.6875 0.24609h0.87109c0.28906 0 0.5625-0.11328 0.76953-0.31641 0.20312-0.20312 0.31641-0.48047 0.31641-0.76953v-4.5391c0-0.28906-0.11328-0.56641-0.31641-0.76953-0.20703-0.20313-0.48047-0.31641-0.76953-0.31641h-1.1719c-0.15234 0-0.30469 0.03125-0.44531 0.097657-0.14062 0.0625-0.26562 0.15625-0.36719 0.27344-0.10156-0.11719-0.23047-0.21094-0.37109-0.27344-0.14062-0.066407-0.29297-0.097657-0.44922-0.097657h-1.1719c-0.14844 0-0.29688 0.03125-0.43359 0.089844-0.13672-0.058594-0.28125-0.089844-0.42969-0.089844z" fill="#fdfdfd" fill-opacity=".78824"/><path d="m2.3359 3.7305h2.4883v0.88281h-1.5664v0.84766h1.4727v0.88281h-1.4727v1.043h1.6172v0.88281h-2.5391v-4.5391" fill="#6b003a"/><path d="m5.6875 3.7305h1.1719l0.81641 2.4297 0.81641-2.4297h1.1719v4.5391h-0.87109v-3.3203l-0.82422 2.4492h-0.58203l-0.82422-2.4492v3.3203h-0.875v-4.5391" fill="#6b003a"/></g><g transform="matrix(.26458 0 0 .26458 1.2104 14.321)"><path d="m2.125 2.9648c-0.10547 0-0.21094 0.019531-0.30859 0.058594-0.10156 0.042968-0.19141 0.10156-0.26562 0.17969-0.074219 0.074219-0.13672 0.16406-0.17578 0.26172-0.042969 0.097656-0.0625 0.20703-0.0625 0.3125v4.4453c0 0.10547 0.019531 0.21484 0.0625 0.3125 0.039062 0.097656 0.10156 0.1875 0.17578 0.26172 0.074219 0.078125 0.16406 0.13672 0.26562 0.17969 0.097656 0.039063 0.20312 0.058594 0.30859 0.058594h0.76953c0.21094 0 0.41406-0.082031 0.56641-0.23047 0.15234 0.14844 0.35547 0.23047 0.57031 0.23047h0.76953c0.12891 0 0.26172-0.03125 0.375-0.089844 0.11719 0.058594 0.24609 0.089844 0.37891 0.089844h2.1211c0.074219 0 0.14844-0.00781 0.21875-0.03125 0.070313 0.023438 0.14453 0.03125 0.22266 0.03125h0.76953c0.10547 0 0.21094-0.019531 0.30859-0.058594 0.10156-0.042968 0.19141-0.10156 0.26563-0.17969 0.074218-0.074219 0.13672-0.16406 0.17578-0.26172 0.039062-0.097656 0.0625-0.20703 0.0625-0.3125v-2.7656h0.17578c0.10547 0 0.21094-0.019531 0.30859-0.0625 0.10156-0.039062 0.19141-0.10156 0.26562-0.17578s0.13672-0.16406 0.17578-0.26562c0.042969-0.097656 0.0625-0.20312 0.0625-0.30859v-0.86719c0-0.10547-0.01953-0.21484-0.0625-0.3125-0.039062-0.097656-0.10156-0.1875-0.17578-0.26172-0.074219-0.078125-0.16406-0.13672-0.26562-0.17969-0.097656-0.039063-0.20312-0.058594-0.30859-0.058594h-2.75c-0.14062 0-0.27734 0.035156-0.40234 0.10547-0.12109-0.070312-0.25781-0.10547-0.39844-0.10547h-0.76953c-0.13281 0-0.26172 0.03125-0.37891 0.089844-0.11328-0.058594-0.24609-0.089844-0.375-0.089844h-0.76953c-0.21484 0-0.41797 0.082031-0.56641 0.23047-0.15234-0.14844-0.35547-0.23047-0.57031-0.23047zm5.0117 2.4922h0.16406v1.0859h-0.16406z" fill="#fdfdfd" fill-opacity=".78824"/><g fill="#6b003a"><path d="m2.125 3.7773h0.76953v1.6953h1.1367v-1.6953h0.76953v4.4453h-0.76953v-1.8828h-1.1367v1.8828h-0.76953v-4.4453"/><path d="m5.5547 3.7773h0.76953v3.5781h1.3516v0.86719h-2.1211v-4.4453"/><path d="m7.125 3.7773h2.75v0.86719h-0.98828v3.5781h-0.76953v-3.5781h-0.99219v-0.86719"/></g></g><g transform="matrix(.26458 0 0 .26458 1.2104 7.721)"><path d="m8.4102 2.7695c-0.40234 0-0.82422 0.125-1.168 0.36328-0.082032-0.089843-0.18359-0.16016-0.29688-0.21094-0.10937-0.046875-0.23047-0.070313-0.35156-0.070313h-0.78125c-0.13281 0-0.26172 0.027344-0.38281 0.085938-0.12109-0.058594-0.25-0.085938-0.38281-0.085938h-0.78125c-0.21094 0-0.41797 0.074219-0.57812 0.21094-0.16016-0.13672-0.36328-0.21094-0.57422-0.21094h-0.78125c-0.23438 0-0.46094 0.09375-0.62891 0.25781-0.16797 0.16797-0.26172 0.39453-0.26172 0.63281v4.5117c0 0.23438 0.09375 0.46094 0.26172 0.62891 0.16797 0.16797 0.39453 0.26172 0.62891 0.26172h0.78125c0.21094 0 0.41406-0.074219 0.57812-0.21094 0.16016 0.13281 0.36328 0.21094 0.57422 0.21094h0.78125c0.13281 0 0.26172-0.03125 0.38281-0.089843 0.11719 0.058593 0.25 0.089843 0.38281 0.089843h0.78125c0.20703 0 0.41016-0.074219 0.57031-0.20703 0.15625 0.070312 0.31641 0.13281 0.48047 0.17969 0.26562 0.074218 0.54297 0.11328 0.82031 0.11328 0.58203 0 1.207-0.21484 1.5938-0.6875 0.38672-0.47656 0.5-1.0625 0.5-1.6758 0-0.49219-0.08594-0.96875-0.37109-1.3828-0.01563-0.023437-0.03125-0.042969-0.04687-0.0625 0.14062-0.16016 0.21875-0.37109 0.21875-0.58594v-0.95313c0-0.17969-0.05469-0.35156-0.15234-0.5-0.10157-0.14844-0.2461-0.26172-0.41016-0.32812-0.22656-0.089844-0.45703-0.16016-0.68359-0.20703v-0.003906h-0.011719c-0.22656-0.050781-0.46094-0.074219-0.69141-0.074219zm-0.18359 4.5781c0.019532 0.011719 0.019532 0.011719 0 0z" fill="#fdfdfd" fill-opacity=".78824"/><g fill="#6b003a"><path d="m2.332 3.7422h0.78125v1.7188h1.1523v-1.7188h0.78125v4.5117h-0.78125v-1.9141h-1.1523v1.9141h-0.78125v-4.5117"/><path d="m5.8125 3.7422h0.78125v4.5117h-0.78125v-4.5117"/><path d="m9.4688 3.8828v0.95313c-0.16797-0.10938-0.32812-0.19141-0.48828-0.25-0.15625-0.054688-0.30469-0.082032-0.44531-0.082032-0.1875 0-0.32422 0.035156-0.41406 0.11328-0.089844 0.078124-0.13672 0.19531-0.13672 0.35547 0 0.12109 0.03125 0.21484 0.089844 0.28516 0.0625 0.066407 0.17188 0.125 0.32812 0.17188l0.33594 0.10156c0.33594 0.097656 0.57422 0.25391 0.71484 0.45703 0.14453 0.20703 0.21484 0.5 0.21484 0.87891 0 0.49609-0.10156 0.86719-0.30078 1.1094-0.19531 0.24219-0.49609 0.36328-0.90625 0.36328-0.19141 0-0.38281-0.027344-0.57813-0.082032-0.19141-0.050781-0.38281-0.13281-0.57812-0.23828v-0.98438c0.19531 0.15234 0.37891 0.26953 0.55859 0.34766 0.18359 0.078126 0.35547 0.11328 0.52344 0.11328 0.17188 0 0.30078-0.039063 0.39062-0.125 0.09375-0.085938 0.13672-0.20703 0.13672-0.36328 0-0.14062-0.03125-0.25-0.09375-0.32422-0.058593-0.078125-0.18359-0.14844-0.36719-0.20703l-0.30078-0.10156c-0.30078-0.09375-0.52344-0.25-0.66406-0.46094-0.14062-0.21094-0.21094-0.49609-0.21094-0.85547 0-0.44922 0.097656-0.79688 0.29297-1.0352 0.19531-0.24219 0.47656-0.36328 0.83984-0.36328 0.16797 0 0.33594 0.019532 0.51172 0.054688 0.17578 0.039062 0.35938 0.09375 0.54688 0.16797"/></g></g><g transform="matrix(.26458 0 0 .26458 1.2104 9.9068)"><path d="m1.9492 2.875c-0.25781 0-0.50391 0.10156-0.6875 0.28516-0.17969 0.17969-0.28516 0.42969-0.28516 0.6875v4.3047c0 0.25781 0.10547 0.50781 0.28516 0.6875 0.18359 0.18359 0.42969 0.28516 0.6875 0.28516h0.80078c0.23047 0 0.45703-0.082031 0.63281-0.23438 0.17578-0.15234 0.29297-0.36328 0.32813-0.59375h0.11719c0.035156 0.23047 0.15234 0.44141 0.32812 0.59375s0.39844 0.23438 0.63281 0.23438h0.79688c0.14062 0 0.28516-0.03125 0.41406-0.09375 0.12891 0.0625 0.26953 0.09375 0.41406 0.09375h0.80078c0.23047 0 0.45703-0.082031 0.63281-0.23438 0.17578-0.15234 0.29297-0.36328 0.32422-0.59375h0.12109c0.035156 0.23047 0.14844 0.44141 0.32422 0.59375 0.17969 0.15234 0.40234 0.23438 0.63672 0.23438h0.79688c0.25781 0 0.50391-0.10156 0.6875-0.28516 0.17969-0.17969 0.28516-0.42969 0.28516-0.6875v-4.3047c0-0.25781-0.10547-0.50781-0.28516-0.6875-0.18359-0.18359-0.42969-0.28516-0.6875-0.28516h-1.0703c-0.14453 0-0.28516 0.03125-0.41406 0.089844-0.12891 0.0625-0.24219 0.14844-0.33203 0.25781-0.09375-0.10938-0.20703-0.19531-0.33594-0.25781-0.12891-0.058594-0.26953-0.089844-0.41016-0.089844h-1.0742c-0.14062 0-0.28516 0.03125-0.41406 0.09375-0.12891-0.0625-0.26953-0.09375-0.41406-0.09375h-1.0703c-0.14453 0-0.28516 0.03125-0.41406 0.089844-0.12891 0.0625-0.24219 0.14844-0.33203 0.25781-0.089843-0.10938-0.20703-0.19531-0.33594-0.25781-0.12891-0.058594-0.26953-0.089844-0.41016-0.089844z" fill="#fdfdfd" fill-opacity=".78824"/><path d="m1.9492 3.8477h1.0742l0.74219 2.3047 0.75-2.3047h1.0703v4.3047h-0.79688v-3.1484l-0.75391 2.3203h-0.53516l-0.75-2.3203v3.1484h-0.80078v-4.3047" fill="#6b003a"/><path d="m6.4141 3.8477h1.0742l0.74219 2.3047 0.75-2.3047h1.0703v4.3047h-0.79688v-3.1484l-0.75391 2.3203h-0.53516l-0.75-2.3203v3.1484h-0.80078v-4.3047" fill="#6b003a"/></g><g transform="matrix(.26458 0 0 .26458 1.2104 16.528)"><path d="m4.3086 2.5977c-0.82422 0-1.6289 0.36719-2.1289 1.0117s-0.70313 1.4766-0.70313 2.3906c0 0.91797 0.20313 1.7461 0.70313 2.3906s1.3047 1.0117 2.1289 1.0117c0.6875 0 1.3555-0.25391 1.8516-0.71094 0.054688 0.17969 0.16797 0.33594 0.32031 0.44531 0.14844 0.11328 0.33203 0.17188 0.51953 0.17188h0.98047c0.11328 0 0.23047-0.023438 0.33594-0.066406 0.10547-0.042969 0.20312-0.10938 0.28516-0.19141 0.082032-0.082031 0.14844-0.17969 0.19141-0.28516s0.066406-0.22266 0.066406-0.33594v-1.1836h0.68359c0.11719 0 0.23047-0.019532 0.33984-0.066406 0.10547-0.042969 0.20313-0.10938 0.28516-0.19141s0.14453-0.17969 0.19141-0.28516c0.04297-0.10547 0.06641-0.22266 0.06641-0.33594v-0.94922c0-0.12891-0.03125-0.25391-0.08594-0.37109 0.12109-0.15234 0.18359-0.33984 0.18359-0.53516v-0.94531c-1e-6 -0.11719-0.023439-0.23047-0.066408-0.33984-0.042969-0.10547-0.10938-0.20312-0.19141-0.28516-0.082031-0.082031-0.17969-0.14453-0.28516-0.19141-0.10547-0.042969-0.22266-0.066406-0.33594-0.066406h-2.6445c-0.1875 0-0.37109 0.0625-0.52344 0.17578-0.15234 0.10938-0.26172 0.26953-0.31641 0.44922-0.49609-0.45703-1.1641-0.71094-1.8516-0.71094zm0.003906 2.8438c0.03125 0.12891 0.058594 0.3125 0.058594 0.55859 0 0.25-0.027344 0.42969-0.058594 0.55859-0.035156-0.12891-0.0625-0.30859-0.0625-0.55859 0-0.24609 0.027344-0.42969 0.0625-0.55859z" fill="#fdfdfd" fill-opacity=".78824"/><path d="m4.3086 4.3867c-0.29688 0-0.52734 0.14062-0.69141 0.42188-0.16797 0.28125-0.25 0.67969-0.25 1.1914s0.082031 0.91016 0.25 1.1914c0.16406 0.28125 0.39453 0.42188 0.69141 0.42188 0.30078 0 0.53516-0.14062 0.69922-0.42188 0.16406-0.28125 0.24609-0.67969 0.24609-1.1914s-0.082031-0.91016-0.24609-1.1914c-0.16406-0.28125-0.39844-0.42188-0.69922-0.42188zm0-0.91016c0.61328 0 1.0898 0.22266 1.4375 0.67188 0.34375 0.44531 0.51562 1.0664 0.51562 1.8516 0 0.78906-0.17188 1.4062-0.51562 1.8516-0.34766 0.44922-0.82422 0.67188-1.4375 0.67188-0.60547 0-1.0859-0.22266-1.4336-0.67188-0.34375-0.44531-0.51953-1.0625-0.51953-1.8516 0-0.78516 0.17578-1.4062 0.51953-1.8516 0.34766-0.44922 0.82812-0.67188 1.4336-0.67188" fill="#6b003a"/><path d="m7 3.5664h2.6445v0.94531h-1.6641v0.90625h1.5625v0.94922h-1.5625v2.0625h-0.98047v-4.8633" fill="#6b003a"/></g><g transform="matrix(.26458 0 0 .26458 1.2104 3.279)"><path d="m3.7383 2.8086c-0.625 0-1.2578 0.16797-1.7227 0.60156-0.46094 0.42969-0.67578 1.0742-0.67578 1.6875 0 0.41406 0.10156 0.84375 0.33203 1.207-0.09375 0.089843-0.16797 0.19531-0.22266 0.3125-0.050781 0.11719-0.074219 0.24609-0.074219 0.375v0.94141c0 0.1875 0.054688 0.37109 0.15625 0.52734 0.10547 0.15625 0.25391 0.27734 0.42578 0.34766 0.30078 0.125 0.60547 0.21875 0.91016 0.28516 0.3125 0.0625 0.625 0.097656 0.9375 0.097656 0.60156 0 1.1875-0.125 1.6602-0.48047 0.085937 0.12109 0.20312 0.22266 0.33594 0.28906 0.13281 0.070312 0.28125 0.10547 0.43359 0.10547h1c0.14062 0 0.28125-0.03125 0.41016-0.09375 0.12891-0.0625 0.24219-0.15234 0.32812-0.26172 0.089844 0.10938 0.20312 0.19922 0.33203 0.26172 0.125 0.0625 0.26562 0.09375 0.40625 0.09375h1.0039c0.125 0 0.24609-0.023438 0.36328-0.070313 0.11328-0.046875 0.21875-0.11719 0.30469-0.20703 0.08984-0.085937 0.15625-0.19141 0.20703-0.30469 0.04687-0.11719 0.07031-0.23828 0.07031-0.36328v-4.3281c0-0.125-0.02344-0.24609-0.07031-0.35938-0.050782-0.11719-0.11719-0.21875-0.20703-0.30859-0.085937-0.085937-0.19141-0.15625-0.30469-0.20312-0.11719-0.050782-0.23828-0.074219-0.36328-0.074219h-1.0039c-0.14063 0-0.28125 0.03125-0.41016 0.09375-0.125 0.0625-0.23828 0.15234-0.32812 0.26562-0.089844-0.11328-0.19922-0.20312-0.32812-0.26562-0.12891-0.0625-0.26953-0.09375-0.41016-0.09375h-1c-0.24609 0-0.48438 0.097656-0.66016 0.26953-0.066407-0.039062-0.13672-0.070312-0.21094-0.09375-0.27344-0.082031-0.54688-0.14453-0.81641-0.18359v-0.003906h-0.00781c-0.26953-0.042969-0.53516-0.066406-0.80078-0.066406z" fill="#fdfdfd" fill-opacity=".78824"/><path d="m5.0977 3.9688v0.91797c-0.21484-0.10938-0.42188-0.1875-0.625-0.24219-0.20312-0.054687-0.39453-0.082031-0.57812-0.082031-0.23828 0-0.41406 0.039062-0.52734 0.11328-0.11719 0.070313-0.17188 0.18359-0.17188 0.33984 0 0.11719 0.035157 0.20703 0.11328 0.27344 0.078125 0.0625 0.21875 0.11719 0.42188 0.16406l0.42578 0.097656c0.43359 0.09375 0.73828 0.24219 0.92188 0.4375 0.17969 0.19922 0.27344 0.48047 0.27344 0.84375 0 0.47656-0.12891 0.83203-0.38281 1.0664-0.25391 0.23047-0.64062 0.34766-1.1641 0.34766-0.24609 0-0.49219-0.027344-0.74219-0.078125-0.24609-0.054688-0.49609-0.12891-0.74219-0.23438v-0.94141c0.24609 0.14844 0.48828 0.25781 0.71875 0.33203 0.23047 0.074219 0.45313 0.11328 0.66797 0.11328 0.21875 0 0.38672-0.042969 0.50391-0.12109 0.11719-0.082031 0.17578-0.19922 0.17578-0.35156 0-0.13281-0.042969-0.23828-0.12109-0.3125-0.078125-0.070313-0.23438-0.13672-0.47266-0.19531l-0.38672-0.097656c-0.38672-0.089844-0.67188-0.23828-0.85156-0.44141-0.17969-0.20312-0.26953-0.47656-0.26953-0.82031 0-0.42969 0.125-0.76172 0.375-0.99609 0.25-0.23047 0.60938-0.34766 1.0781-0.34766 0.21094 0 0.43359 0.019532 0.65625 0.054688 0.22656 0.035156 0.46094 0.089844 0.70312 0.16016" fill="#6b003a"/><path d="m6.2344 3.832h1v1.6523h1.4766v-1.6523h1.0039v4.3281h-1.0039v-1.8359h-1.4766v1.8359h-1v-4.3281" fill="#6b003a"/></g><g transform="matrix(.26458 0 0 .26458 1.2104 5.4948)"><path d="m7.8906 2.7227c-0.54297 0.011719-1.0742 0.17188-1.5234 0.45312-0.082032-0.11328-0.19141-0.20703-0.32031-0.26953-0.125-0.066406-0.26562-0.10156-0.40625-0.10156h-3.6445c-0.23828 0-0.46875 0.097656-0.63672 0.26562-0.17188 0.16797-0.26562 0.39844-0.26562 0.64063v0.89062c0 0.23828 0.09375 0.46875 0.26562 0.63672 0.16797 0.17188 0.39844 0.26562 0.63672 0.26562h0.41016v2.7812c0 0.23828 0.097656 0.46875 0.26562 0.63672 0.16797 0.17188 0.39844 0.26562 0.63672 0.26562h1.0195c0.24219 0 0.47266-0.09375 0.64062-0.26562 0.16797-0.16797 0.26562-0.39844 0.26562-0.63672v-0.96484c0.12109 0.37109 0.30469 0.71484 0.55469 1.0078 0 0.00391 0.00391 0.00391 0.00391 0.00391 0.53125 0.61719 1.3438 0.94531 2.1758 0.94531 0.83594 0 1.6484-0.32812 2.1797-0.94922 0.53125-0.61719 0.75781-1.4414 0.75781-2.3281s-0.22656-1.7109-0.75781-2.3281c-0.53125-0.62109-1.3438-0.94922-2.1797-0.94922h-0.078125zm0.082031 2.7227c0.035156 0.10156 0.078125 0.28125 0.078125 0.55469 0 0.27734-0.042969 0.45312-0.078125 0.55469-0.039062-0.10156-0.078125-0.27734-0.078125-0.55469 0-0.27344 0.039063-0.45312 0.078125-0.55469z" fill="#fdfdfd" fill-opacity=".78824"/><path d="m1.9961 3.7109h3.6445v0.89062h-1.3125v3.6836h-1.0195v-3.6836h-1.3125v-0.89062" fill="#6b003a"/><path d="m7.9688 4.4805c-0.30859 0-0.55078 0.13281-0.72266 0.39844s-0.25391 0.64062-0.25391 1.1211 0.082031 0.85547 0.25391 1.1211 0.41406 0.39844 0.72266 0.39844c0.3125 0 0.55469-0.13281 0.72656-0.39844 0.17188-0.26562 0.25781-0.64062 0.25781-1.1211s-0.085937-0.85547-0.25781-1.1211c-0.17187-0.26562-0.41406-0.39844-0.72656-0.39844zm0-0.85547c0.63672 0 1.1328 0.21094 1.4961 0.63281 0.35938 0.42188 0.53906 1.0039 0.53906 1.7422 0 0.74219-0.17969 1.3203-0.53906 1.7422-0.36328 0.42187-0.85938 0.63281-1.4961 0.63281-0.63281 0-1.1289-0.21094-1.4922-0.63281-0.35937-0.42188-0.53906-1-0.53906-1.7422 0-0.73828 0.17969-1.3203 0.53906-1.7422 0.36328-0.42187 0.85938-0.63281 1.4922-0.63281z" fill="#6b003a"/></g><g font-family="Sans" font-size="1.4111px" letter-spacing="0px" stroke-width=".26458px" text-anchor="end" word-spacing="0px"><text x="10.872789" y="3.1674383" fill="none" stroke="#000000" text-align="end" style="line-height:125%" xml:space="preserve"><tspan x="10.872789" y="3.1674383" fill="#000000" font-size="1.4111px" stroke="none" stroke-width=".26458px">Amenity</tspan></text><text x="8.6869812" y="5.3517127" fill="none" stroke="#000000" text-align="end" style="line-height:125%" xml:space="preserve"><tspan x="8.6869812" y="5.3517127" fill="#000000" font-size="1.4111px" stroke="none" stroke-width=".26458px">Shop</tspan></text><text x="10.730268" y="7.5894699" fill="none" stroke="#000000" text-align="end" style="line-height:125%" xml:space="preserve"><tspan x="10.730268" y="7.5894699" fill="#000000" font-size="1.4111px" stroke="none" stroke-width=".26458px">Tourism</tspan></text><text x="10.326689" y="9.8464212" fill="none" stroke="#000000" text-align="end" style="line-height:125%" xml:space="preserve"><tspan x="10.326689" y="9.8464212" fill="#000000" font-size="1.4111px" stroke="none" stroke-width=".26458px">Historic</tspan></text><text x="12.338935" y="12.178797" fill="none" stroke="#000000" text-align="end" style="line-height:125%" xml:space="preserve"><tspan x="12.338935" y="12.178797" fill="#000000" font-size="1.4111px" stroke="none" stroke-width=".26458px">Man made</tspan></text><text x="12.65502" y="14.274386" fill="none" stroke="#000000" text-align="end" style="line-height:125%" xml:space="preserve"><tspan x="12.65502" y="14.274386" fill="#000000" font-size="1.4111px" stroke="none" stroke-width=".26458px">Emergency</tspan></text><text x="12.45182" y="16.501631" fill="none" stroke="#000000" text-align="end" style="line-height:125%" xml:space="preserve"><tspan x="12.45182" y="16.501631" fill="#000000" font-size="1.4111px" stroke="none" stroke-width=".26458px">Healthcare</tspan></text><text x="9.2147341" y="18.669188" fill="#000000" text-align="end" style="line-height:125%" xml:space="preserve"><tspan x="9.2147341" y="18.669188" stroke-width=".26458px">Office</tspan><tspan x="9.2147341" y="20.433075"/></text><text x="8.3003368" y="21.001562" fill="none" stroke="#000000" text-align="end" style="line-height:125%" xml:space="preserve"><tspan x="8.3003368" y="21.001562" fill="#000000" font-size="1.4111px" stroke="none" stroke-width=".26458px">Club</tspan></text><text x="8.537405" y="23.512869" fill="none" stroke="#000000" text-align="end" style="line-height:125%" xml:space="preserve"><tspan x="8.537405" y="23.512869" fill="#000000" font-size="1.4111px" stroke="none" stroke-width=".26458px">Craft</tspan></text></g></svg>
