<svg xmlns="http://www.w3.org/2000/svg">
<g id="access_PrivateColor">

<path fill-rule="evenodd" clip-rule="evenodd" d="M2 12C2 16.4183 5.58172 20 10 20H290C294.418 20 298 16.4183 298 12C298 7.58172 294.418 4 290 4H10C5.58172 4 2 7.58172 2 12Z" fill="#37555C" />
<circle cx="12" cy="12" r="6" fill="#B45D5D" />
<circle cx="35" cy="12" r="6" fill="#B45D5D" />
<circle cx="58" cy="12" r="6" fill="#B45D5D" />
<circle cx="81" cy="12" r="6" fill="#B45D5D" />
<circle cx="104" cy="12" r="6" fill="#B45D5D" />
<circle cx="127" cy="12" r="6" fill="#B45D5D" />
<circle cx="150" cy="12" r="6" fill="#B45D5D" />
<circle cx="173" cy="12" r="6" fill="#B45D5D" />
<circle cx="196" cy="12" r="6" fill="#B45D5D" />
<circle cx="219" cy="12" r="6" fill="#B45D5D" />
<circle cx="242" cy="12" r="6" fill="#B45D5D" />
<circle cx="265" cy="12" r="6" fill="#B45D5D" />
<circle cx="288" cy="12" r="6" fill="#B45D5D" />

</g>
<g id="access_EmergencyColor">

<path fill-rule="evenodd" clip-rule="evenodd" d="M2 12C2 16.4183 5.58172 20 10 20H290C294.418 20 298 16.4183 298 12C298 7.58172 294.418 4 290 4H10C5.58172 4 2 7.58172 2 12Z" fill="#37555C" />
<circle cx="12" cy="12" r="6" fill="#E17400" />
<circle cx="35" cy="12" r="6" fill="#E17400" />
<circle cx="58" cy="12" r="6" fill="#E17400" />
<circle cx="81" cy="12" r="6" fill="#E17400" />
<circle cx="104" cy="12" r="6" fill="#E17400" />
<circle cx="127" cy="12" r="6" fill="#E17400" />
<circle cx="150" cy="12" r="6" fill="#E17400" />
<circle cx="173" cy="12" r="6" fill="#E17400" />
<circle cx="196" cy="12" r="6" fill="#E17400" />
<circle cx="219" cy="12" r="6" fill="#E17400" />
<circle cx="242" cy="12" r="6" fill="#E17400" />
<circle cx="265" cy="12" r="6" fill="#E17400" />
<circle cx="288" cy="12" r="6" fill="#E17400" />

</g>
<g id="access_CustomersColor">

<path fill-rule="evenodd" clip-rule="evenodd" d="M2 12C2 16.4183 5.58172 20 10 20H290C294.418 20 298 16.4183 298 12C298 7.58172 294.418 4 290 4H10C5.58172 4 2 7.58172 2 12Z" fill="#37555C" />
<circle cx="12" cy="12" r="6" fill="#835188" />
<circle cx="35" cy="12" r="6" fill="#835188" />
<circle cx="58" cy="12" r="6" fill="#835188" />
<circle cx="81" cy="12" r="6" fill="#835188" />
<circle cx="104" cy="12" r="6" fill="#835188" />
<circle cx="127" cy="12" r="6" fill="#835188" />
<circle cx="150" cy="12" r="6" fill="#835188" />
<circle cx="173" cy="12" r="6" fill="#835188" />
<circle cx="196" cy="12" r="6" fill="#835188" />
<circle cx="219" cy="12" r="6" fill="#835188" />
<circle cx="242" cy="12" r="6" fill="#835188" />
<circle cx="265" cy="12" r="6" fill="#835188" />
<circle cx="288" cy="12" r="6" fill="#835188" />

</g>
<g id="access_tollColor">

<path fill-rule="evenodd" clip-rule="evenodd" d="M2 12C2 17.5228 6.47715 22 12 22H288C293.523 22 298 17.5228 298 12C298 6.47715 293.523 2 288 2H12C6.47715 2 2 6.47715 2 12Z" fill="#CCB77A" />
<circle cx="15" cy="12" r="8" fill="#A63F80" />
<circle cx="42" cy="12" r="8" fill="#A63F80" />
<circle cx="69" cy="12" r="8" fill="#A63F80" />
<circle cx="96" cy="12" r="8" fill="#A63F80" />
<circle cx="123" cy="12" r="8" fill="#A63F80" />
<circle cx="150" cy="12" r="8" fill="#A63F80" />
<circle cx="177" cy="12" r="8" fill="#A63F80" />
<circle cx="204" cy="12" r="8" fill="#A63F80" />
<circle cx="231" cy="12" r="8" fill="#A63F80" />
<circle cx="258" cy="12" r="8" fill="#A63F80" />
<circle cx="285" cy="12" r="8" fill="#A63F80" />

</g>
<g id="access_AgriculturalColor">

<path fill-rule="evenodd" clip-rule="evenodd" d="M2 12C2 16.4183 5.58172 20 10 20H290C294.418 20 298 16.4183 298 12C298 7.58172 294.418 4 290 4H10C5.58172 4 2 7.58172 2 12Z" fill="#37555C" />
<circle cx="12" cy="12" r="6" fill="#7DAD56" />
<circle cx="35" cy="12" r="6" fill="#7DAD56" />
<circle cx="58" cy="12" r="6" fill="#7DAD56" />
<circle cx="81" cy="12" r="6" fill="#7DAD56" />
<circle cx="104" cy="12" r="6" fill="#7DAD56" />
<circle cx="127" cy="12" r="6" fill="#7DAD56" />
<circle cx="150" cy="12" r="6" fill="#7DAD56" />
<circle cx="173" cy="12" r="6" fill="#7DAD56" />
<circle cx="196" cy="12" r="6" fill="#7DAD56" />
<circle cx="219" cy="12" r="6" fill="#7DAD56" />
<circle cx="242" cy="12" r="6" fill="#7DAD56" />
<circle cx="265" cy="12" r="6" fill="#7DAD56" />
<circle cx="288" cy="12" r="6" fill="#7DAD56" />

</g>
<g id="access_DestinationColor">

<path fill-rule="evenodd" clip-rule="evenodd" d="M2 12C2 16.4183 5.58172 20 10 20H290C294.418 20 298 16.4183 298 12C298 7.58172 294.418 4 290 4H10C5.58172 4 2 7.58172 2 12Z" fill="#37555C" />
<circle cx="12" cy="12" r="6" fill="#7CA1B9" />
<circle cx="35" cy="12" r="6" fill="#7CA1B9" />
<circle cx="58" cy="12" r="6" fill="#7CA1B9" />
<circle cx="81" cy="12" r="6" fill="#7CA1B9" />
<circle cx="104" cy="12" r="6" fill="#7CA1B9" />
<circle cx="127" cy="12" r="6" fill="#7CA1B9" />
<circle cx="150" cy="12" r="6" fill="#7CA1B9" />
<circle cx="173" cy="12" r="6" fill="#7CA1B9" />
<circle cx="196" cy="12" r="6" fill="#7CA1B9" />
<circle cx="219" cy="12" r="6" fill="#7CA1B9" />
<circle cx="242" cy="12" r="6" fill="#7CA1B9" />
<circle cx="265" cy="12" r="6" fill="#7CA1B9" />
<circle cx="288" cy="12" r="6" fill="#7CA1B9" />

</g>
<g id="access_DeliveryColor">

<path fill-rule="evenodd" clip-rule="evenodd" d="M2 12C2 16.4183 5.58172 20 10 20H290C294.418 20 298 16.4183 298 12C298 7.58172 294.418 4 290 4H10C5.58172 4 2 7.58172 2 12Z" fill="#37555C" />
<circle cx="12" cy="12" r="6" fill="#9383A5" />
<circle cx="35" cy="12" r="6" fill="#9383A5" />
<circle cx="58" cy="12" r="6" fill="#9383A5" />
<circle cx="81" cy="12" r="6" fill="#9383A5" />
<circle cx="104" cy="12" r="6" fill="#9383A5" />
<circle cx="127" cy="12" r="6" fill="#9383A5" />
<circle cx="150" cy="12" r="6" fill="#9383A5" />
<circle cx="173" cy="12" r="6" fill="#9383A5" />
<circle cx="196" cy="12" r="6" fill="#9383A5" />
<circle cx="219" cy="12" r="6" fill="#9383A5" />
<circle cx="242" cy="12" r="6" fill="#9383A5" />
<circle cx="265" cy="12" r="6" fill="#9383A5" />
<circle cx="288" cy="12" r="6" fill="#9383A5" />

</g>
<g id="access_PermissiveColor">

<path fill-rule="evenodd" clip-rule="evenodd" d="M2 12C2 16.4183 5.58172 20 10 20H290C294.418 20 298 16.4183 298 12C298 7.58172 294.418 4 290 4H10C5.58172 4 2 7.58172 2 12Z" fill="#37555C" />
<circle cx="12" cy="12" r="6" fill="#69A65E" />
<circle cx="35" cy="12" r="6" fill="#69A65E" />
<circle cx="58" cy="12" r="6" fill="#69A65E" />
<circle cx="81" cy="12" r="6" fill="#69A65E" />
<circle cx="104" cy="12" r="6" fill="#69A65E" />
<circle cx="127" cy="12" r="6" fill="#69A65E" />
<circle cx="150" cy="12" r="6" fill="#69A65E" />
<circle cx="173" cy="12" r="6" fill="#69A65E" />
<circle cx="196" cy="12" r="6" fill="#69A65E" />
<circle cx="219" cy="12" r="6" fill="#69A65E" />
<circle cx="242" cy="12" r="6" fill="#69A65E" />
<circle cx="265" cy="12" r="6" fill="#69A65E" />
<circle cx="288" cy="12" r="6" fill="#69A65E" />

</g>

</svg>