<svg width="700" height="1971" xmlns="http://www.w3.org/2000/svg" style="background-color:#F8F4F4;">
  <!-- Column 1 -->
 <g id="water">
    <rect x="55" y="20" width="275" height="40" fill="#52BDE9"/>
  </g>
  <g id="swimming_pool">
    <rect x="55" y="84" width="275" height="40" fill="#52BDE9" stroke="#6C59C3" stroke-width="2"/>
  </g>
  <g id="wood_unmaintained">
    <defs>
      <pattern id="wood_unmaintained-pattern" y="35" width="48" height="64" patternUnits="userSpaceOnUse" viewBox="16 0 48 64">
        <g stroke="#67bf4c" stroke-linecap="round" fill="none">
          <path d="m60 51v11h2.3"/>
          <path d="m57.3 52.4 2.7-1.3 2.7 1.3"/>
          <path d="m56.9 55.5 3.1-1.5 3.1 1.5"/>
          <path d="m56.7 58.5 3.3-1.6 3.3 1.6"/>
        </g>
        <g>
          <path d="m36.5 11.5v11h2.4" stroke="#67bf4c" stroke-linecap="round" fill="none"/>
          <path d="m36.1 11.5c-.7 0-1.2.6-1.2 1.4 0 .3.1.6.2.8-.1 0-.1 0-.1 0-.7 0-1.3.7-1.3 1.6 0 .4.1.8.4 1.1-.9 0-1.6.8-1.6 1.8s.7 1.9 1.6 1.9c.7 0 2.4 0 2.5 0h.1c0 0 1.7 0 2.5 0 .9 0 1.6-.8 1.6-1.8s-.7-1.9-1.6-1.9c.2-.3.4-.7.4-1.1 0-.9-.6-1.6-1.3-1.6-.1 0-.1 0-.1 0 .1-.2.2-.5.2-.8 0-.8-.5-1.4-1.2-1.4-.6 0-.4 0-.4 0 .1 0 .2 0-.4 0z" stroke="#67bf4c" stroke-linejoin="round" fill="none"/>
          <path d="m36.5 11.5.2 8.5s2.1.1 2.3 0c.3 0 1.7-1 1.7-1s.2-1.3 0-1.5c-.2-.2-.8-.8-.9-.9-.1-.1-.6-.1-.6-.3s0-1.2 0-1.2-.5-.8-.6-1c-.1-.2-.6-1-.6-1s-.1-1.3-.4-1.4c-.2-.1-.7-.2-.7-.2l-.5.1" fill="#67bf4c"/>
        </g>
      </pattern>
    </defs>
    <rect x="55" y="148" width="275" height="40" fill="#84cf73"/>
    <rect x="55" y="148" width="275" height="40" fill="url(#wood_unmaintained-pattern)"/>
  </g>
<g id="broadleaved_wood">
  <defs>
    <pattern id="broadleaved_wood-pattern" y="-8" width="64" height="64" patternUnits="userSpaceOnUse">
      <g stroke="#67bf4c" stroke-linecap="round" fill="none">
        <path d="m36 11v11h2.4" stroke-linecap="round" fill="none"/>
        <path d="m36 11c-0.66-0.00038-1.2 0.63-1.2 1.4 0.0004 0.29 0.076 0.56 0.21 0.8-0.046-0.006-0.092-0.009-0.14-0.01-0.73-0.00038-1.3 0.7-1.3 1.6 0 0.4 0.13 0.79 0.37 1.1-0.87 0.0008-1.6 0.83-1.6 1.8-0.0002 1 0.71 1.8 1.6 1.8 0.72-0.001 2.4-0.012 2.5-0.012h0.031c0.043 0.0003 1.8 0.011 2.5 0.012 0.87 0.0003 1.6-0.83 1.6-1.8 0.0002-1-0.7-1.8-1.6-1.8 0.24-0.29 0.37-0.68 0.37-1.1-0.0006-0.86-0.59-1.6-1.3-1.6-0.047 0.001-0.092 0.004-0.14 0.01 0.14-0.23 0.21-0.51 0.21-0.8-0.0006-0.77-0.53-1.4-1.2-1.4-0.63 0.00068-0.45 0.015-0.43 0.016 0.013-0.001 0.2-0.015-0.43-0.016z" stroke-linejoin="round"/>
        <path d="m59 51v11h2.4" stroke-linecap="round" fill="none"/>
        <path d="m58 51c-0.66-0.00038-1.2 0.63-1.2 1.4 0.0004 0.29 0.076 0.56 0.21 0.8-0.046-0.006-0.092-0.009-0.14-0.01-0.73-0.00038-1.3 0.7-1.3 1.6 0 0.4 0.13 0.79 0.37 1.1-0.87 0.0008-1.6 0.83-1.6 1.8-0.0002 1 0.71 1.8 1.6 1.8 0.72-0.001 2.4-0.012 2.5-0.012h0.031c0.043 0.0003 1.8 0.011 2.5 0.012 0.87 0.0003 1.6-0.83 1.6-1.8 0.0002-1-0.7-1.8-1.6-1.8 0.24-0.29 0.37-0.68 0.37-1.1-0.0006-0.86-0.59-1.6-1.3-1.6-0.047 0.001-0.092 0.004-0.14 0.01 0.14-0.23 0.21-0.51 0.21-0.8-0.0006-0.77-0.53-1.4-1.2-1.4-0.63 0.00068-0.45 0.015-0.43 0.016 0.013-0.001 0.2-0.015-0.43-0.016z" stroke-linejoin="round"/>
        <path d="m16 32v11h2.4" stroke-linecap="round" fill="none"/>
        <path d="m15 32c-0.66-0.0004-1.2 0.63-1.2 1.4 0.0004 0.29 0.076 0.56 0.21 0.8-0.046-0.006-0.092-0.0091-0.14-0.01-0.73-0.0003-1.3 0.7-1.3 1.6-0.0001 0.4 0.13 0.79 0.37 1.1-0.87 0.0008-1.6 0.83-1.6 1.8-0.00023 1 0.71 1.8 1.6 1.8 0.72-0.001 2.4-0.011 2.5-0.012h0.031c0.043 0.0002 1.8 0.011 2.5 0.012 0.87 0.0003 1.6-0.83 1.6-1.8 0.0002-1-0.7-1.8-1.6-1.8 0.24-0.29 0.37-0.68 0.37-1.1-0.0006-0.86-0.59-1.6-1.3-1.6-0.047 0.001-0.092 0.004-0.14 0.01 0.14-0.23 0.21-0.51 0.21-0.8-0.0006-0.77-0.53-1.4-1.2-1.4-0.63 0.0007-0.45 0.015-0.43 0.016 0.013-0.001 0.2-0.015-0.43-0.016z" stroke-linejoin="round"/>
      </g>
      <g fill="#67bf4c" >
        <path d="m36 11 0.17 8.5s2.1 0.065 2.3 0c0.24-0.065 1.7-1 1.7-1s0.22-1.3 0-1.5c-0.22-0.22-0.83-0.78-0.91-0.91-0.078-0.14-0.62-0.11-0.56-0.32 0.059-0.22 0-1.2 0-1.2s-0.45-0.78-0.58-1c-0.13-0.22-0.58-1-0.58-1s-0.14-1.3-0.36-1.4c-0.22-0.059-0.74-0.2-0.74-0.2l-0.5 0.054z"/>
        <path d="m59 51 0.17 8.5s2.1 0.065 2.3 0c0.24-0.065 1.7-1 1.7-1s0.22-1.3 0-1.5c-0.22-0.22-0.83-0.78-0.91-0.91-0.078-0.14-0.62-0.11-0.56-0.32 0.059-0.22 0-1.2 0-1.2s-0.45-0.78-0.58-1c-0.13-0.22-0.58-1-0.58-1s-0.14-1.3-0.36-1.4c-0.22-0.059-0.74-0.2-0.74-0.2l-0.5 0.054z"/>
        <path d="m16 32 0.17 8.5s2.1 0.065 2.3 0 1.7-1 1.7-1 0.22-1.3 0-1.5c-0.22-0.22-0.83-0.78-0.91-0.91s-0.62-0.11-0.56-0.32c0.059-0.22 0-1.2 0-1.2s-0.45-0.78-0.58-1c-0.13-0.22-0.58-1-0.58-1s-0.14-1.3-0.36-1.4c-0.22-0.059-0.74-0.2-0.74-0.2l-0.5 0.054z"/>
      </g>
    </pattern>
  </defs>
  <rect x="55" y="212" width="275" height="40" fill="#84cf73"/>
  <rect x="55" y="212" width="275" height="40" fill="url(#broadleaved_wood-pattern)"/>
</g>
    <g id="needleleaved_wood">
    <defs>
      <pattern id="needleleaved_wood-pattern" y="-8" width="64" height="64" patternUnits="userSpaceOnUse">
        <g fill="none" stroke="#67bf4c" stroke-linecap="round">
          <path d="m59.5 51.46v11h2.3"/>
          <path d="m56.5 52.46 2.7-1.3 2.7 1.3"/>
          <path d="m56.5 56.46 3.1-1.5 3.1 1.5"/>
          <path d="m56.5 59.46 3.3-1.5 3.3 1.5"/>
          <path d="m15.3 32v11h2.3"/>
          <path d="m12.3 33 2.7-1.3 2.7 1.3"/>
          <path d="m12.3 37 3.1-1.5 3.1 1.5"/>
          <path d="m12.3 40 3.3-1.5 3.3 1.5"/>
          <path d="m36 11v11h2.3"/>
          <path d="m33 12 2.7-1.3 2.7 1.3"/>
          <path d="m33 16 3.1-1.5 3.1 1.5"/>
          <path d="m33 19 3.3-1.5 3.3 1.5"/>
        </g>
      </pattern>
    </defs>
    <rect x="55" y="276" width="275" height="40" fill="#84cf73"/>
    <rect x="55" y="276" width="275" height="40" fill="url(#needleleaved_wood-pattern)"/>
  </g>
  <g id="mixed_wood">
    <rect x="55" y="340" width="275" height="40" fill="#84cf73"/>
    <rect x="55" y="340" width="275" height="40" fill="url(#wood_unmaintained-pattern)"/>
  </g>
  <g id="forest_maintained_by_human">
    <rect x="55" y="404" width="275" height="40" fill="#84cf73"/>
    <rect x="55" y="404" width="275" height="40" fill="url(#wood_unmaintained-pattern)"/>
  </g>
  <g id="broadleaved_forest">
    <rect x="55" y="468" width="275" height="40" fill="#84cf73"/>
    <rect x="55" y="468" width="275" height="40" fill="url(#broadleaved_wood-pattern)"/>
  </g>
  <g id="needleleaved_forest">
    <rect x="55" y="532" width="275" height="40" fill="#84cf73"/>
    <rect x="55" y="532" width="275" height="40" fill="url(#needleleaved_wood-pattern)"/>
  </g>
  <g id="mixed_forest">
    <rect x="55" y="596" width="275" height="40" fill="#84cf73"/>
    <rect x="55" y="596" width="275" height="40" fill="url(#wood_unmaintained-pattern)"/>
  </g>
  <g id="scrub">
    <defs>
      <pattern id="scrub-pattern" y="-1" width="32" height="25" patternUnits="userSpaceOnUse" viewBox="0 0 32 25">
        <path d="m11.4 10h-7v0.943h7v-0.943z m-4.86 0-1.03-1.06v-1.98h0.972l0.028 1 1.4 2.03h-1.37z m3.94 0 1.03-1.06v-1.98h-1v1l-1.43 2.03h1.4z m-1.12-5.06h-0.915v5.52h0.915v-5.52z m17.9 14.7h-7.03v0.915h7.03v-0.915z m-5.9-0.98v-2l0.97 0.029v1l1.43 2.03h-1.4l-1-1.06z m5 0 0.03-2-1 0.029v1l-1.43 2.03h1.4l1-1.06z m-2.1-4.02h-0.914v5.55h0.914v-5.55z" fill="#84C780"/>
      </pattern>
    </defs>
    <rect x="55" y="660" width="275" height="40" fill="#ade7a5"/>
    <rect x="55" y="660" width="275" height="40" fill="url(#scrub-pattern)"/>
  </g>
  <g id="orchard">
    <defs>
      <pattern id="orchard-pattern" width="20" height="20" patternUnits="userSpaceOnUse">
        <path d="m18 4.7c0.66 0 1.2-0.54 1.2-1.2s-0.54-1.2-1.2-1.2-1.2 0.54-1.2 1.2 0.54 1.2 1.2 1.2zm0 13.3c0.66 0 1.2-0.54 1.2-1.2s-0.54-1.2-1.2-1.2-1.2 0.54-1.2 1.2 0.54 1.2 1.2 1.2zm0-7c0.66 0 1.2-0.54 1.2-1.2s-0.54-1.2-1.2-1.2-1.2 0.54-1.2 1.2 0.54 1.2 1.2 1.2z" fill="#94D37D"/>
        <path d="m9.1 5.3v9.5h2.1" stroke="#94D37D" stroke-linecap="round" fill="none"/>
        <path d="m7.2 6.4c-0.077 0.24 0.086 0.49 0.24 0.69-0.053-5e-3 -0.1-7e-3 -0.16-8e-3 -0.83-3.2e-4 -1.5 0.5-1.5 1.2-7e-5 0.35 0.23 0.93 0.71 1-0.99 6.9e-4 -1.3 1.3-1.3 1.6-2.1e-4 0.88 0.93 1.6 1.7 1.6 0.75-8e-4 2.2-9e-3 2.1-0.01 0 0 0.018-2.1e-5 0.027 0 0.7 0.0017 1.5 9e-3 2.1 0.01 0.75 3e-4 1.7-0.71 1.7-1.6 0-0.23-0.24-1.6-1.2-1.6 0.52-0.19 0.67-0.76 0.67-1.1-7e-4 -0.74-0.68-1.2-1.5-1.2-0.053 8.7e-4 -0.11 3e-3 -0.16 8e-3 0.16-0.2 0.24-0.44 0.24-0.69-7e-4 -0.67-0.91-1.2-1.5-1.2-0.54 5.8e-4 -0.38 0.013-0.37 0.013 0.011-8.6e-4 0.17-0.013-0.37-0.013l5e-5 -3e-5c-0.85 0.1-1.2 0.57-1.4 1.3z" stroke="#94d37d" stroke-linejoin="round" fill="none"/>
        <path d="m9.1 5.3 0.15 7.3s1.8 0.056 2 0c0.21-0.056 1.5-0.86 1.5-0.86s0.19-1.1 0-1.3-0.72-0.67-0.78-0.79-0.15-0.11 -0.099-0.3c0.05-0.19 0.44-1.3 0.44-1.3l-1.1-0.73-0.71-0.77s-0.12-1.1-0.31-1.2c-0.19-0.051-0.64-0.17-0.64-0.17l-0.43 0.047" fill="#94D37D"/>
      </pattern>
    </defs>
    <rect x="55" y="724" width="275" height="40" fill="#a5e794"/>
    <rect x="55" y="724" width="275" height="40" fill="url(#orchard-pattern)"/>
  </g>
  <g id="plant_nursery">
    <rect x="55" y="788" width="275" height="40" fill="#f7e7d6"/>
    <rect x="55" y="788" width="275" height="40" fill="url(#orchard-pattern)"/>
  </g>
  <g id="olive_orchard">
    <rect x="55" y="852" width="275" height="40" fill="#a5e794"/>
    <rect x="55" y="852" width="275" height="40" fill="url(#orchard-pattern)"/>
  </g>
  <g id="apple_orchard">
    <rect x="55" y="916" width="275" height="40" fill="#a5e794"/>
    <rect x="55" y="916" width="275" height="40" fill="url(#orchard-pattern)"/>
  </g>
  <g id="almond_orchard">
    <rect x="55" y="980" width="275" height="40" fill="#a5e794"/>
    <rect x="55" y="980" width="275" height="40" fill="url(#orchard-pattern)"/>
  </g>
  <g id="oil_palms_orchard">
    <rect x="55" y="1044" width="275" height="40" fill="#a5e794"/>
    <rect x="55" y="1044" width="275" height="40" fill="url(#orchard-pattern)"/>
  </g>
  <g id="orange_orchard">
    <rect x="55" y="1108" width="275" height="40" fill="#a5e794"/>
    <rect x="55" y="1108" width="275" height="40" fill="url(#orchard-pattern)"/>
  </g>
  <g id="banana_plants">
    <rect x="55" y="1172" width="275" height="40" fill="#a5e794"/>
    <rect x="55" y="1172" width="275" height="40" fill="url(#orchard-pattern)"/>
  </g>
  <g id="vineyard">
      <defs>
      <pattern id="vineyard-pattern" x="5" y="3" width="13" height="14" patternUnits="userSpaceOnUse" >
        <path d="m6 6.1c-0.014 0.26-0.13 0.51-0.33 0.69s-0.46 0.27-0.72 0.25c-0.26-0.014-0.51-0.13-0.69-0.33-0.18-0.2-0.27-0.46-0.26-0.72s0.13-0.51 0.33-0.69c0.2-0.18 0.46-0.27 0.72-0.26 0.26 0.014 0.51 0.13 0.69 0.33s0.27 0.46 0.26 0.72" fill="#7ABA85"/>
        <path d="m9 6.1c-0.014 0.26-0.13 0.51-0.33 0.69-0.2 0.18-0.46 0.27-0.72 0.25s-0.51-0.13-0.69-0.33c-0.18-0.2-0.27-0.46-0.26-0.72s0.13-0.51 0.33-0.69 0.46-0.27 0.72-0.26c0.26 0.014 0.51 0.13 0.69 0.33s0.27 0.46 0.26 0.72" fill="#7ABA85"/>
        <path d="m7.5 8.4c-0.014 0.26-0.13 0.51-0.33 0.69-0.2 0.18-0.46 0.27-0.72 0.25-0.26-0.014-0.51-0.13-0.69-0.33-0.18-0.2-0.27-0.46-0.26-0.72 0.014-0.26 0.13-0.51 0.33-0.69 0.2-0.18 0.46-0.27 0.72-0.26 0.26 0.014 0.51 0.13 0.69 0.33 0.18 0.2 0.27 0.46 0.26 0.72" fill="#7ABA85"/>
      </pattern>
    </defs>
    <rect x="55" y="1236" width="275" height="40" fill="#a5e794"/>
    <rect x="55" y="1236" width="275" height="40" fill="url(#vineyard-pattern)"/>
  </g>
  <g id="heath">
    <rect x="55" y="1300" width="275" height="40" fill="#D3EBC6"/>
  </g>
  <g id="grass">
    <rect x="55" y="1364" width="275" height="40" fill="#D3EBC6"/>
  </g>
  <g id="grassland">
    <rect x="55" y="1428" width="275" height="40" fill="#C4E4B4"/>
  </g>
  <g id="meadow">
    <rect x="55" y="1492" width="275" height="40" fill="#E6F2C2"/>
  </g>
  <g id="farmland">
    <rect x="55" y="1556" width="275" height="40" fill="#E6F2C2"/>
  </g>
  <g id="greenfield">
    <rect x="55" y="1620" width="275" height="40" fill="#B2C999"/>
  </g>
  <g id="brownfield">
    <rect x="55" y="1684" width="275" height="40" fill="#B2C999"/>
  </g>
  <g id="logging">
    <defs>
    <pattern id="logging-pattern" width="32" height="32" patternUnits="userSpaceOnUse">
      <g fill="#B5C79E">
        <path d="m14 25c1.2 0.55 3 0.92 3 0.92l0.48 1.3c-0.043-0.064-2.7-0.061-3.1-0.14-1.6-0.32-2.8 0.22-2.8 0.22s0.65-1.2 0.84-1.3 1.6-0.99 1.6-0.99z"/>
        <path d="m13 21-1.8-0.12s-0.15 2.2-0.22 3.7c-0.055 1.2-1.2 1.9-2.2 2.3 0.15-0.02 0.24 0.2 0.38 0.19 1.9-0.25 2.1-0.46 2.3 0.031 0.15 0.32 0.66 0.59 0.66 0.59 0.99-0.9 1.7-1 2.6-0.31 0.13 0.095 0.24-0.015 0.38 0-0.37-0.53-0.59-1-1.4-1.6-0.3-0.23-0.5-0.64-0.62-1.2-0.12-0.51-0.17-1.1-0.19-1.7-0.022-0.97 0.067-1.6 0.094-1.8v1e-4z"/>
        <path d="m13 21c-0.027 0.25-0.12 0.88-0.094 1.8 0.013 0.57 0.065 1.2 0.19 1.7s0.32 0.93 0.62 1.2c0.79 0.59 1 1.1 1.4 1.6 0.29 0.033 0.61 0.052 0.81-0.031 0 0-1.7-2.2-1.8-3.1-0.096-1.3-0.031-3.1-0.031-3.1l-1.1-0.094-1e-4-1e-4z"/>
        <path d="m27 17c1.2 0.55 3.1 0.87 3.1 0.87l0.9 0.78s-2.3 0.02-2.9 0.096c-1.5 0.2-2-0.084-2-0.084s0.65-1.2 0.84-1.3c0.19-0.096 0.039-0.38 0.039-0.38v1e-4z"/>
        <path d="m26 14-2.4 0.028s-0.096 0.33-0.16 1.8c-0.055 1.2-0.77 1.3-1.4 2.2 0.15-0.02 0.6 0.32 1.2 0.053 0.53-0.26 1.4-0.16 1.4-0.16 0.43 0.02 1.1 0.58 1.1 0.58 0.76-0.12 1.2-0.86 2.8-0.62-0.48-0.32-0.9-0.66-1.5-0.84-0.29-0.085-0.49-0.42-0.62-0.91-0.13-0.49-0.18-1.1-0.22-1.7-0.057-0.97-0.02-0.02-4e-3-0.35z"/>
        <path d="m26 14c-0.016 0.33-0.054 0.65 0.061 1.6 0.12 0.92 0.5 1.3 0.79 1.4 0.63 0.19 1.1 0.52 1.5 0.84 0.013 2e-3 0.018-2e-3 0.031 0 0.47 0.058 0.77-0.16 1.1-0.28-0.16 0.08-2-0.71-2.7-2.4-0.24-0.61-0.38-1.2-0.38-1.2l-0.39 9e-3v4e-4z"/>
        <path d="m7.8 8.7c1.2 0.55 2.5 1.5 2.5 1.5l1 0.72c-0.043-0.064-2.7-0.061-3.1-0.14-1.6-0.32-3.4 0.22-3.4 0.22s1.3-1.2 1.4-1.3c0.19-0.096 1.6-0.99 1.6-0.99z"/>
        <path d="m6.3 4.1-1.8 0.46s-0.14 1.9-0.21 3.4c-0.055 1.2-2.2 2.3-3.1 2.7 0.15-0.02 0.79 0.14 0.92 0.12 1.9-0.25 2-0.78 2.2-0.29 0.15 0.32 0.3 0.82 0.3 0.82 0.99-0.9 2.5-1.3 3.5-0.57 0.13 0.095 0.24-0.015 0.38 0-0.37-0.53-0.59-1-1.4-1.6-0.3-0.23-0.5-0.64-0.62-1.2-0.12-0.51-0.17-1.1-0.19-1.7-0.022-0.97 0.078-1.9 0.11-2.1l6e-5 6e-5z"/>
        <path d="m6.3 4.1c-0.027 0.25-0.12 1.2-0.094 2.1 0.013 0.57 0.065 1.2 0.19 1.7 0.12 0.51 0.32 0.93 0.62 1.2 0.79 0.59 1 1.1 1.4 1.6 0.29 0.033 0.61 0.052 0.81-0.031 0 0-1.7-2.2-1.8-3.1-0.64-0.69-0.61-2.8-0.61-2.8l-0.44-0.59-0.11-0.0017z"/>
      </g>
    </pattern>
  </defs>
    <rect x="55" y="1748" width="275" height="40" fill="#dee3c6"/>
    <rect x="55" y="1748" width="275" height="40" fill="url(#logging-pattern)"/>
  </g>
  <g id="windfall">
    <defs>
      <pattern id="windfall-pattern" patternUnits="userSpaceOnUse" width="32" height="32">
        <path d="m5.6 20c0.79 0.28 1.3 0.067 1.3 0.067 2.3 0.17 4.9 0.15 6.8 0.5-1.7 0.42-7.6 0.72-8 0.6-1.2-0.41-1.7 0.23-1.7 0.23s-0.5-0.65-1.3-0.85-1-0.049-0.76-0.9l3.6 0.36z" fill="#C9D2BE"/>
        <path d="m1.9 19c-0.64 0.28-1.1 0.22-1.9 0.088 0.11 0.047 0.084 0.24 0.18 0.28 1.4 0.59 1.6 0.5 1.6 0.93-0.027 0.28 0.22 0.67 0.22 0.67 1-0.22 1.6-0.035 1.9 0.83 0.049 0.12 0.17 0.085 0.26 0.15-0.045-0.51 4e-3 -0.94-0.3-1.7 1.1-1.4 8.8-7.3 9.7-9-3.7 1.4-8.8 6.6-12 7.7z" fill="#92AC73"/>
        <path d="m16 8.2c0.79 0.28 1.3 0.067 1.3 0.067 2.3 0.17 5.9 0.46 7.9 0.81-1.7 0.42-8.7 0.41-9.1 0.29-1.2-0.41-2.3 0.34-2.3 0.34s-0.37-1.1-1.1-1.3-0.8-0.025-0.29-0.52l3.6 0.28z" fill="#C9D2BE"/>
        <path d="m12 6.4c-0.69 0.11-1.1-0.066-1.9-0.39 0.097 0.074 0.023 0.25 0.11 0.31 1.2 0.93 1.4 0.88 1.3 1.3-0.096 0.27 0.042 0.7 0.042 0.7 1.1 0.04 1.5 0.36 1.7 1.3 0.019 0.12 0.14 0.12 0.21 0.21 0.084-0.5 0.24-0.91 0.12-1.7 1.4-1.1 10-4.9 12-6.3-3.9 0.44-10 4.2-13 4.5h-1e-4z" fill="#92AC73"/>
        <path d="m22 25c0.79 0.28 1.3 0.067 1.3 0.067 2.3 0.17 5.9 0.66 7.9 1-1.7 0.42-8.6 0.22-9 0.087-1.2-0.41-2.3 0.34-2.3 0.34s-0.37-1.1-1.1-1.3-0.8-0.025-0.29-0.52l3.6 0.28z" fill="#C9D2BE"/>
        <path d="m18 24c-0.69 0.11-1.2-1-2-1.3 0.097 0.074 0.88 1.5 0.97 1.5 0.28 0.74 0.39 0.65 0.53 1-0.096 0.27 0.042 0.7 0.042 0.7 1.1 0.04 1.5 0.36 1.7 1.3 0.019 0.12 0.14 0.12 0.21 0.21 0.084-0.5 0.24-0.91 0.12-1.7 1.4-1.1 8.7-4.5 11-5.8-4.7 0.52-10 3.7-13 4.1h-1e-4z" fill="#92AC73"/>
      </pattern>
    </defs>
    <rect x="55" y="1812" width="275" height="40" fill="#dee3c6"/>
    <rect x="55" y="1812" width="275" height="40" fill="url(#windfall-pattern)"/>
  </g>
  <g id="dead_wood">
    <defs>
      <pattern id="dead_wood-pattern" width="32" height="32" patternUnits="userSpaceOnUse">
        <path d="m11.7 27.1c0.968 0.433 1.33 0.812 1.33 0.812l3.82 0.898c-0.0341-0.0512-4.52-0.0151-4.84-0.0793-1.27-0.256-2.25 0.176-2.25 0.176s0.514-0.94 0.667-1.02 1.27-0.789 1.27-0.789z" fill="#879972"/>
        <path d="m8.73 20.6-5.14-1.92s-0.0971 0.816 2.12 2.08c1.31 0.746 2.7 1.02 2.97 2.02 0.4 1.53 0.236 3.22 0.216 3.66-0.0434 0.951-0.988 1.53-1.74 1.81 0.121-0.0156 0.191 0.162 0.298 0.149 1.53-0.196 1.63-0.365 1.81 0.0247 0.118 0.258 0.521 0.472 0.521 0.472 0.783-0.712 1.33-0.811 2.08-0.248 0.1 0.0752 0.191-0.0121 0.298 0-0.293-0.419-0.468-0.82-1.09-1.29-0.239-0.18-0.399-0.51-0.496-0.918s0.402-1.1 0.391-1.56c0.0335-0.347 7e-4 -0.271-0.0712-0.937-0.0119-0.11 1.48-0.691 2.98-1.28 1.53-0.602 3.08-1.21 3.06-1.34-5.1 0.566-6.21 1.25-6.26 0.888-0.0872-0.659-0.242-1.57-0.472-3.01-0.0263-0.164 3.19-2.96 3.16-3.13-1.79 0.571-3.34 1.91-3.37 1.73-0.321-1.97-0.682-4.11-0.941-5.49-0.452 2.32-0.557 6.47-0.332 8.29z" fill="#92AC73"/>
        <path d="m10.5 24c-0.0217 0.202-0.128 0.398-0.11 1.16 0.0102 0.455 0.0518 0.931 0.149 1.34s0.258 0.738 0.496 0.918c0.624 0.471 0.798 0.871 1.09 1.29 0.232 0.0263 0.67 0.0258 0.833-0.0404 0 0-1.53-1.75-1.58-2.47-0.466-0.974-0.346-2.37-0.34-2.37-0.2-0.0182-0.35 0.207-0.542 0.161z" fill="#879972"/>
        <path d="m26.6 13.9c0.342 0.433 1.02 0.894 1.02 0.894l3.96 0.912c-0.0341-0.0512-4.36-0.112-4.67-0.177-1.27-0.256-1.54 0.177-1.54 0.177s-0.192-0.94-0.039-1.02 1.27-0.789 1.27-0.789z" fill="#879972"/>
        <path d="m23.4 7.85c-1.85 0.293-5.33 1.34-5.33 1.34s1.41 0.296 2.47 0.153c1.49-0.201 2.77-0.744 3.03 0.26 0.4 1.53 0.236 3.22 0.216 3.66-0.0434 0.951-0.988 1.53-1.74 1.81 0.121-0.0156 0.191 0.163 0.298 0.149 1.16 0.188 2.02-0.221 2.2 0.169 0.35 0.644 0.637 1.14 0.637 1.14 0.408-0.915 0.833-1.62 1.58-1.06 0.1 0.0752 0.191-0.0121 0.298 0-0.293-0.419-0.468-0.82-1.09-1.29-0.239-0.18-0.399-0.51-0.496-0.918-0.0971-0.408 0.284-1.08 0.274-1.53 0.0335-0.347 0.118-0.295 0.046-0.96-0.0119-0.11 0.33-1.22 1.55-2.28 1.37-1.19 1.85-2.3 1.84-2.43-2.2 1.41-3.67 3.06-3.72 2.7-0.0872-0.659-0.214-0.718-0.602-2.11-0.0447-0.16 1.34-1.3 2.64-2.17-1.61 0.171-3.04 1.5-3.13 1.33-0.822-1.43-1.28-3.29-2.43-4.31 0.613 3.3 1.36 4.48 1.46 6.35z" fill="#92AC73"/>
        <path d="m25.5 10.8c-0.0217 0.202-0.128 0.398-0.11 1.16 0.0102 0.455 0.0518 0.931 0.149 1.34s0.258 0.738 0.496 0.918c0.624 0.471 0.798 0.871 1.09 1.29 0.232 0.0263 0.483 0.0414 0.645-0.0248 0 0-1.34-1.77-1.39-2.48-0.719-0.894-0.53-2.31 0.0609-3.44-0.332 0.346-0.684 0.828-0.877 0.782l-0.0663 0.453z" fill="#879972"/>
      </pattern>
    </defs>
    <rect x="55" y="1876" width="275" height="40" fill="#dee3c6"/>
    <rect x="55" y="1876" width="275" height="40" fill="url(#dead_wood-pattern)"/>
  </g>
  <g id="aquaculture">
    <defs>
      <pattern id="aquaculture-pattern" width="8" height="6" patternUnits="userSpaceOnUse">
        <circle cx="1.62" cy="3" r="0.58" fill="#7DAFBB"/>
        <circle cx="6.32" cy="3" r="0.58" fill="#7DAFBB"/>
      </pattern>
    </defs>
    <rect x="55" y="1940" width="275" height="40" fill="none"/>
    <rect x="55" y="1940" width="275" height="40" fill="url(#aquaculture-pattern)"/>
  </g>
  <!-- Column 2 -->
  <g id="greenhouse_horticulture">
    <defs>
      <pattern id="greenhouse_horticulture-pattern" width="8" height="4" patternUnits="userSpaceOnUse">
        <path d="m5.8 2c0-.32.26-.58.58-.58s.58.26.58.58-.26.58-.58.58-.58-.26-.58-.58zm-4.7 0c0-.32.26-.58.58-.58s.58.26.58.58-.26.58-.58.58-.58-.26-.58-.58z" fill="#93d193"/>
      </pattern>
    </defs>
    <rect x="370" y="20" width="275" height="40" fill="#f7e7d6"/>
    <rect x="370" y="20" width="275" height="40" fill="url(#greenhouse_horticulture-pattern)"/>
  </g>
  <g id="conservation">
    <rect x="370" y="81" width="275" height="40" fill="#ceefad"/>
  </g>
  <g id="glacier">
    <defs>
      <pattern id="glacier-pattern" patternUnits="userSpaceOnUse" width="32" height="32">
        <rect width="32" height="32" fill="#DDECEC"/>
        <path d="M8.21467 29.6356H7.20267V30.6466H8.21467V29.6356ZM2.11454 24.807H1.10053V25.818H2.11454V24.807ZM6.50654 18.3184H5.49253V19.3293H6.50654V18.3184ZM19.6624 28.5489H18.6504V29.5599H19.6624V28.5489ZM2.22474 17.0277H1.21073V18.0387H2.22474V17.0277ZM3.26865 28.2128H2.25465V29.2238H3.26865V28.2128ZM12.3672 27.8235H11.3532V28.8346H12.3672V27.8235ZM10.8959 14.4604H9.88194V15.4714H10.8959V14.4604ZM5.33253 9.59003H4.31852V10.601H5.33253V9.59003ZM16.8946 17.4164H15.8806V18.4274H16.8946V17.4164ZM21.3086 13.8894H20.2946V14.9004H21.3086V13.8894ZM7.84324 2.59155H6.82923V3.60254H7.84324V2.59155ZM9.25745 3.7406H8.24345V4.75159H9.25745V3.7406ZM17.2124 1.00049H16.1984V2.01147H17.2124V1.00049ZM15.0027 7.27612H13.9887V8.28711H15.0027V7.27612ZM24.3719 1.53088H23.3579V2.54187H24.3719V1.53088ZM25.7861 2.59155H24.7721V3.60254H25.7861V2.59155ZM27.1119 8.42517H26.0979V9.43616H27.1119V8.42517ZM31.6197 23.8931H30.6057V24.9041H31.6197V23.8931ZM21.897 22.2137H20.883V23.2247H21.897V22.2137ZM28.6145 15.673H27.6005V16.684H28.6145V15.673ZM28.1726 29.1964H27.1585V30.2074H28.1726V29.1964ZM30.2055 0.116638H29.1915V1.12766H30.2055V0.116638Z" fill="#999999"/>
      </pattern>
    </defs>
    <rect x="370" y="142" width="275" height="40" fill="#84cf73"/>
    <rect x="370" y="142" width="275" height="40" fill="url(#glacier-pattern)" stroke-dasharray="4,2" stroke="#9ccfff" stroke-width="1"/>
  </g>
  <g id="scree">
    <defs>
      <pattern id="scree-pattern" width="16" height="16" patternUnits="userSpaceOnUse">
        <circle cx="6.5" cy="4.5" r="0.5" fill="#B5B5B5"/>
        <circle cx="3.5" cy="7.5" r="0.5" fill="#B5B5B5"/>
        <circle cx="12" cy="7.5" r="0.5" fill="#B5B5B5"/>
        <circle cx="14" cy="15.5" r="0.5" fill="#B5B5B5"/>
        <circle cx="9.5" cy="2.5" r="0.5" fill="#B5B5B5"/>
        <circle cx="1.6" cy="1.5" r="0.5" fill="#B5B5B5"/>
        <circle cx="8.5" cy="8.4" r="0.5" fill="#B5B5B5"/>
        <circle cx="12" cy="11.5" r="0.5" fill="#B5B5B5"/>
        <circle cx="8.4" cy="13.5" r="0.5" fill="#B5B5B5"/>
        <circle cx="1.4" cy="11.5" r="0.5" fill="#B5B5B5"/>
        <circle cx="12" cy="3.5" r="0.5" fill="#B5B5B5"/>
        <circle cx="15" cy="3.4" r="0.5" fill="#b5b5b5"/>
        <circle cx="4.5" cy="14.5" r="0.5" fill="#B5B5B5"/>
      </pattern>
    </defs>
    <rect x="370" y="203" width="275" height="40" fill="#FAF9F6"/>
    <rect x="370" y="203" width="275" height="40" fill="url(#scree-pattern)"/>
  </g>
  <g id="fell">
    <defs>
      <pattern id="fell-pattern" patternUnits="userSpaceOnUse" width="64" height="64" viewBox="0 0 64 64">
        <rect width="64" height="64" fill="none"/>
        <path d="m41 42 1 0.51 0.38 0.82s-0.14 0.77-0.3 0.82c-0.16 0.051-1.2 0.41-1.2 0.41l-0.12-1.5 0.19-1.1zm-23-19 0.26-0.18 0.72 0.42s0.39 1.1 0.19 1.2c-0.21 0.058-1.1 0.22-1.1 0.22l-0.16-1.7 0.12 0.033zm-8.8 34 0.29-0.19 0.8 0.45s0.44 1.2 0.21 1.3-1.3 0.23-1.3 0.23l-0.18-1.8 0.14 0.035zm47.8-50.3 0.26-0.18 0.72 0.42s0.39 1.1 0.19 1.2c-0.21 0.058-1.1 0.22-1.1 0.22l-0.16-1.7 0.12 0.033z" fill="#666"/>
        <path d="M4.8 62h1v1h-1z" fill="#7A7A7A"/>
        <path d="M26 31h1v1h-1zm-5-9h1v1h-1zm-3 8h1v1h-1zm32-3h1v1h-1zm-14-4h1v1h-1zm24-17.4h1v1h-1zm-3 7.4h1v1h-1zm-6-33h1v1h-1zm-1 10h1v1h-1z" fill-opacity=".4" fill="#171E1E"/>
        <path d="M.9 50h1v1h-1z" fill="#4B4B4B"/>
        <path d="M38 37h1v1h-1zm-36.3-10h1v1h-1zm26.3 2h1v1h-1zm-12 12h1v1h-1zm15-1h1v1h-1zm10-27h1v1h-1zm16 18h1v1h-1z" fill="#939393"/>
        <path d="M11 60h1v1h-1zm33-26h1v1h-1zm-8 23h1v1h-1zm-1 6h1v1h-1z" fill="#464C4C"/>
        <path d="M2.4 32h1v1h-1zm23.6-13h1v1h-1zM1.2 20h1v1h-1zm22.8 40h1v1h-1zm18-44h1v1h-1zm-2-12.9h1v1h-1zm-21 4.1h1v1h-1zm-2 4.1h1v1h-1zM8.3 16h1v1h-1zm5.7-11.5h1v1h-1zm39.7 18.5h1v1h-1zm6 22h1v1h-1z" fill="#C3C3C3"/>
        <path d="M28 58h1v1h-1z" fill="#BFBFBF"/>
        <path d="m41 44s-4.8 0.16-4.9-0.018c-0.071-0.18-0.99-2.1-0.99-2.1l0.62-2.4 1.5 0.17-0.52 0.81 1.1-0.75 1.4-0.58 1.7 0.54-0.52 1.1 0.75-0.5 0.55 1.5-0.74 2.3zm-23-19s-6.2 0.19-6.3-0.02c-0.04-0.092-1.1-2.3-1.1-2.3l1.4-0.49-1.4-0.22 0.6-2.1 1.9 0.2 0.74 0.81-0.028-0.73 1.7 0.46 1.2 0.78 0.59 1.2 0.96-0.57 0.59 0.41-0.94 2.6zm-8.8 34s-4.4 0.17-4.5-0.053c-0.045-0.098-0.69-1.3-0.69-1.3l0.51-1.5 0.86-0.36 2.9 0.25 0.85-7e-3 0.87 0.72 0.13 0.89-0.92 1.4zm47.8-50.6s-5.3 0.061-5.4-0.15c-0.04-0.092-0.53-0.72-0.53-0.72l-0.36-2.2 0.068-0.22 0.44-1.2 0.97-0.43 0.41 0.57 0.3-0.5 1.7 0.46 1.1 0.42 0.88-0.021 0.76 1 0.59 0.41-0.94 2.6z" fill="#C4C4C4"/>
        <path d="M14 43h1v1h-1z" fill="#969696"/>
        <path d="m18 49 2.3 4.2 0.51 3.9h1.9l-1.3-5.3-3.4-2.8zm9-4.2-1.5 4.2-0.21 3.7-1.2-0.5 0.57-3.5 2.3-3.9zm-1 4 0.81 1.9 0.086 2.1-0.89 0.079 0.077-1.6-0.09-2.5zm29-40 1.4 3.8 0.19 3.3 1.1-0.45-0.53-3.1-2.1-3.5zm-2 1 1.4 3.4-0.063 2.1 1.8 0.48-0.66-3.4-2.4-2.6zm0 2 0.89 1.7 0.094 1.9-0.97 0.071 0.084-1.4-0.098-2.2zm-36.1-12.4 1.4 3.8 0.19 3.3 1.1-0.45-0.53-3.1-2.1-3.5zm-2.3 1.1 1.4 3.4-0.063 2.1 1.8 0.48-0.66-3.4-2.4-2.6zm0.4 2.1 0.89 1.7 0.094 1.9-0.97 0.071 0.084-1.4-0.098-2.2zm49.6 28.2 1.9 4.2 0.42 3.9h1.6l-1.1-5.3-2.8-2.8zm6-4.2-1.5 4.2-0.21 3.7-1.2-0.5 0.57-3.5 2.3-3.9zm0 4-1.1 1.9-0.11 2.1 1.1 0.079-0.099-1.6 0.12-2.5z" fill="#8CA58C"/>
        <path d="m25 48-1.1 3.8 0.052 2.4-1.5 0.53 0.54-3.8 2-2.9zm27-36-2.3 4.6 0.077 2.7h-1.5l0.78-3.9 2.9-3.4zm-40-8.8-2.3 4.6 0.077 2.7h-1.5l0.78-3.9 2.9-3.4zm45 33.8 1.3 3.6 0.28 2.4 1.1 0.39-0.87-3.7-1.7-2.7z" fill="#5F8A5F"/>
        <path d="m12 41 0.15-0.1 0.27 0.52s0.38 0.35 0.26 0.39c-0.12 0.033-0.66 0.12-0.66 0.12l-0.093-0.95 0.072 0.018zm34 20 0.063 0.076 0.46 0.28s7e-3 0.44-0.11 0.47c-0.12 0.033-0.74 0.13-0.74 0.13l0.25-0.98 0.072 0.018zm-12-56.2 0.15-0.1 0.27 0.52s0.38 0.35 0.26 0.39c-0.12 0.033-0.66 0.12-0.66 0.12l-0.092-0.95 0.072 0.019z" fill="#373737"/>
        <path d="m12 42s-2.3 0.087-2.4-0.028c-0.024-0.051-0.36-0.7-0.36-0.7l0.73-0.76 0.69 0.21c0.27-0.1 0.24-0.68 0.81-0.31l0.56 0.24 0.15 0.4 0.27 0.2-0.48 0.75zm34 20s-0.78 0.19-1.4 0.19c-0.52 2e-4 -0.9-0.19-0.94-0.22-0.92-0.65-0.43-1.2-0.43-1.2l0.64-0.42 0.61 0.055c0.27-0.1 0.48-0.39 1-0.022l0.56 0.24 0.15 0.4 0.27 0.2-0.48 0.75zm-22-56.3s-2.3 0.087-2.4-0.028c-0.024-0.051-0.36-0.7-0.36-0.7l0.73-0.76 0.69 0.21c0.27-0.1 0.24-0.68 0.81-0.31l0.56 0.24 0.15 0.4 0.27 0.2-0.48 0.75z" fill="#B2B2B2"/>
      </pattern>
    </defs>
    <rect x="370" y="264" width="275" height="40" fill="url(#fell-pattern)"/>
  </g>
  <g id="bare_rock">
    <defs>
      <pattern id="bare_rock-pattern" width="32" height="32" patternUnits="userSpaceOnUse" fill="none">
        <path d="m2.7 22 3.1-9.1 4.9 0.35 3.6-6.1 7.4-4.7" stroke="#CDCDCD" stroke-width="1.3" />
        <path d="m9.4 32 0.67-7.3 8.9-5.6 7.1-12 5.9-5.1" stroke="#CDCDCD" stroke-width="1.3" />
        <path d="m-0.2 3.1 1.2-2.7" stroke="#CDCDCD" stroke-width="1.3" />
        <path d="m18 33 3.7-8.2 2.3 1.6 4.5-9.2 4.7 1.8" stroke="#CDCDCD" stroke-width="1.3" />
        <path d="m-0.32 19 2.4-8.7 2.4-1.8" stroke="#CDCDCD" stroke-width="1.3" />
        <path d="m18-0.29-2.6 3.7" stroke="#CDCDCD" stroke-width="1.3" />
        <path d="m9.4 0.37-4.7 2.7" stroke="#CDCDCD" stroke-width="1.3" />
        <path d="m21 16-6.2 1.1-3.7-0.58-2.2 2.3" stroke="#CDCDCD" stroke-width="1.3" />
        <path d="m16 6.1 4.7 1.1 7.5-1.7" stroke="#CDCDCD" stroke-width="1.3" />
        <path d="m0.74 15 1.8 1.2 2.6-0.59" stroke="#CDCDCD" stroke-width="1.3" />
        <path d="m9.8 30 3.4-1.7 1.2 1.9 6.2-4" stroke="#CDCDCD" stroke-width="1.3" />
      </pattern>
    </defs>
    <rect x="370" y="325" width="275" height="40" fill="#FAF9F6" />
    <rect x="370" y="325" width="275" height="40" fill="url(#bare_rock-pattern)" />
  </g>
  <g id="reef">
    <defs>
      <pattern id="reef-pattern" patternUnits="userSpaceOnUse" width="32" height="32">
        <g>
          <path d="m13 1.99c0.194-0.17 0.295-0.908 0.44-0.908 0.135 0 0.361 0.193 0.314 0.628-0.0666 0.614-0.718 0.861-0.718 1.1 0 0.555 0.335 1.36 0.518 2.76 0.244 1.86-0.722 2.91-0.167 3.42 0.211 0.196 0.807 0.355 0.807 0.804l-3.79-0.00302c0-0.597 0.549-0.517 0.8-0.818 1.75-2.09 1.11-5.92 0.889-6.31-0.189-0.332-0.618-0.493-0.618-1.23 0-0.242 0.162-0.563 0.314-0.563 0.486 0 0.204 1.05 0.724 1.2 0.141 0.0431 0.308 0.0666 0.484-0.0875v0.00131z" fill="#ABABAB"/>
          <path d="m16.6 2.25c-0.204 0-0.201 0.365-0.219 0.454-0.0379 0.188-0.101 0.58-0.37 0.58-0.276 0-0.379-0.248-0.41-0.393-0.0306-0.146-0.124-0.423-0.401-0.392-0.227 0.0252-0.201 0.332-0.165 0.465 0.2 0.732 0.762 0.644 0.517 1.47-0.436 1.47-1.81 2.12-2.64 1.79-0.161 0.762 3e-3 1.25 3e-3 1.25 2.57-0.064 3.36-2.27 3.47-3.36 0.0297-0.292 0.105-0.489 0.226-0.68 0.116-0.184 0.227-0.281 0.269-0.496 0.0575-0.297 0.0417-0.69-0.278-0.69h-0.0013z" fill="#ABABAB"/>
          <path d="m8.21 4.64c0.171 0 0.222 0.273 0.237 0.338 0.032 0.136 0.191 0.482 0.442 0.482 0.251 0 0.379-0.208 0.422-0.642 0.0111-0.11 0.151-0.171 0.269-0.147 0.11 0.0224 0.238 0.127 0.238 0.228 0 0.977-0.764 0.781-0.452 1.35 0.408 0.748 2.6 0.944 3.23 0.638 0.136 0.552-0.373 1.18-0.373 1.18-2.73-0.121-3.41-0.993-3.69-2.09-0.0978-0.394-0.553-0.483-0.553-0.997 3.3e-4 -0.289 0.125-0.342 0.223-0.342z" fill="#ABABAB"/>
          <path d="m12 5.81c0.0306-0.332 0.0431-0.657 0.0403-0.964-0.528-0.218-1.12-0.625-1.23-1-0.193-0.621 0.401-0.349 0.401-1.33 0-0.101-0.128-0.206-0.238-0.228-0.118-0.024-0.259 0.0365-0.269 0.147-0.0427 0.435-0.171 0.643-0.422 0.643s-0.41-0.346-0.442-0.482c-0.0155-0.0647-0.0661-0.338-0.238-0.338-0.0978 0-0.222 0.0533-0.222 0.343 0 0.514 0.39 0.626 0.553 0.997 0.39 0.892 0.679 1.57 2.07 2.21z" fill="#ABABAB"/>
          <path d="m24.4 16.2c-0.241-0.211-0.367-1.13-0.548-1.13-0.168 0-0.449 0.24-0.391 0.781 0.0827 0.764 0.894 1.07 0.894 1.37 0 0.691-0.418 1.69-0.645 3.44-0.303 2.32 0.899 3.62 0.208 4.26-0.263 0.244-1 0.442-1 1l4.71-9e-4c0-0.743-0.684-0.644-0.997-1.02-2.18-2.6-1.39-7.37-1.11-7.86 0.235-0.413 0.769-0.614 0.769-1.53 0-0.301-0.202-0.701-0.391-0.701-0.606 0-0.254 1.3-0.901 1.5-0.176 0.0536-0.384 0.0827-0.603-0.109v-0.0011z" fill="#C8C8C8"/>
          <path d="m19.9 16.5c0.254 0 0.25 0.454 0.272 0.565 0.0472 0.234 0.126 0.722 0.461 0.722 0.344 0 0.472-0.308 0.51-0.489 0.038-0.181 0.154-0.526 0.499-0.488 0.283 0.0313 0.251 0.414 0.205 0.58-0.249 0.911-0.949 0.802-0.644 1.83 0.543 1.83 2.25 2.63 3.29 2.23 0.201 0.948-2e-3 1.55-2e-3 1.55-3.2-0.0797-4.18-2.82-4.32-4.18-0.0369-0.364-0.131-0.608-0.282-0.847-0.144-0.228-0.283-0.35-0.335-0.618-0.0716-0.37-0.0519-0.859 0.346-0.859h-2e-4z" fill="#C8C8C8"/>
          <path d="m30.3 19.5c-0.214 0-0.276 0.34-0.295 0.42-0.0399 0.169-0.238 0.6-0.55 0.6-0.312 0-0.472-0.259-0.525-0.8-0.0138-0.137-0.189-0.213-0.335-0.183-0.137 0.0279-0.297 0.159-0.297 0.284 0 1.22 0.951 0.972 0.563 1.68-0.508 0.931-3.24 1.17-4.02 0.794-0.169 0.687 0.465 1.47 0.465 1.47 3.4-0.15 4.25-1.24 4.59-2.61 0.122-0.49 0.689-0.602 0.689-1.24-4e-4 -0.36-0.156-0.426-0.278-0.426z" fill="#C8C8C8"/>
          <path d="m25.7 21c-0.038-0.414-0.0536-0.818-0.0502-1.2 0.658-0.271 1.39-0.778 1.54-1.25 0.24-0.773-0.5-0.434-0.5-1.65 0-0.126 0.16-0.256 0.297-0.284 0.147-0.03 0.322 0.0454 0.335 0.183 0.0531 0.541 0.213 0.8 0.526 0.8s0.51-0.431 0.55-0.6c0.0193-0.0805 0.0823-0.42 0.296-0.42 0.122 0 0.277 0.0664 0.277 0.426 0 0.64-0.486 0.779-0.688 1.24-0.486 1.11-0.846 1.95-2.58 2.75z" fill="#C8C8C8"/>
          <path d="m4.19 12.9c-0.31 0.372-0.789 0.714-0.905 0.792-0.19 0.128-0.32 0.299-0.493 0.185-0.179-0.117-0.308-0.292-0.34-0.478-0.0523-0.306-0.014-0.591 0.412-0.664 0.432-0.074 1.18 0.128 1.33 0.165z" fill="#B1AAA0"/>
          <path d="m4.79 16.2c-0.339 0.172-0.608 0.42-1.14 0.51-0.459 0.0775-0.643-0.094-0.706-0.461-0.0357-0.209 0.0448-0.522 0.0789-0.603 0.459-0.0786 1.27 0.19 1.77 0.554h-3e-5z" fill="#B1AAA0"/>
          <path d="m7.44 12.3c-0.238 0.51-0.33 1.09-0.228 1.69 0.108 0.63 0.417 1.18 0.849 1.59 0.918-0.557 1.41-1.34 1.31-1.96-0.0981-0.573-1.02-1.07-1.93-1.32zm0.987 1.83c-0.184 0.0315-0.359-0.0922-0.39-0.276s0.0922-0.359 0.276-0.39 0.359 0.0923 0.39 0.276c0.0315 0.184-0.0923 0.359-0.276 0.39z" fill="#B1AAA0"/>
          <path d="m1.89 14.9c-0.0785-0.459 0.0391-0.691 0.0391-0.691-0.228-0.0777-0.603-0.242-0.803-0.207-0.46 0.0788-0.524 0.55-0.429 1.1 0.0946 0.552 0.311 0.976 0.771 0.897 0.313-0.0535 0.501-0.298 0.689-0.461 0 0-0.189-0.182-0.267-0.64z" fill="#B1AAA0"/>
          <path d="m4.79 16.2s-0.594-0.61-0.766-1.61c-0.171-1 0.17-1.7 0.17-1.7-0.643 0.372-1.21 0.811-1.61 1.16-0.0246 0.0207-0.16 0.116-0.229 0.143 0 0-0.0894 0.243-0.0138 0.685s0.235 0.64 0.235 0.64c0.0972 0.0046 0.237 0.0463 0.27 0.0587 0.472 0.176 1.17 0.47 1.95 0.622z" fill="#B1AAA0"/>
          <path d="m6.69 14.1c-0.147-0.861 0.158-1.55 0.396-1.87-0.422-0.0897-0.814-0.122-1.08-0.0755-0.464 0.0794-0.916 0.248-1.34 0.456-0.13 0.391-0.208 1.2-0.0964 1.85 0.117 0.682 0.441 1.39 0.755 1.78 0.346 0.033 0.703 0.03 1.06-0.0309 0.508-0.0869 0.963-0.241 1.36-0.436-0.241-0.133-0.886-0.77-1.04-1.68z" fill="#B1AAA0"/>
          <path d="m7.09 12.3c-0.445 0.348-0.469 0.505-1.11 0.616-0.644 0.11-1.09 1.07-1.31-0.235-0.131-0.763-0.29-1.21 0.53-1.35 0.597-0.102 1.56 0.166 1.9 0.965z" fill="#B1AAA0"/>
          <path d="m7.13 16c-0.189 0.274-0.423 0.815-1.24 0.954-0.318 0.0544-0.521 0.022-0.58-0.734-0.0628-0.367 0.2-0.567 0.659-0.645 0.459-0.0786 1.41 0.147 1.16 0.426z" fill="#B1AAA0"/>
          <path d="m26.5 3.71c0.232 0.278 0.591 0.535 0.678 0.594 0.142 0.0961 0.24 0.224 0.37 0.139 0.134-0.0876 0.23-0.219 0.254-0.358 0.0392-0.229 0.0105-0.443-0.308-0.497-0.324-0.0554-0.883 0.0957-0.993 0.123z" fill="#B5ABA1"/>
          <path d="m26.1 6.19c0.254 0.128 0.455 0.315 0.853 0.382 0.344 0.058 0.482-0.0704 0.529-0.345 0.0267-0.156-0.0336-0.391-0.0591-0.452-0.344-0.0589-0.952 0.142-1.32 0.415z" fill="#B5ABA1"/>
          <path d="m24.1 3.31c0.178 0.382 0.247 0.82 0.171 1.27-0.0808 0.472-0.313 0.88-0.636 1.19-0.688-0.417-1.06-1.01-0.981-1.46 0.0735-0.429 0.768-0.799 1.45-0.99zm-0.739 1.37c0.138 0.0236 0.269-0.0691 0.292-0.207s-0.0691-0.269-0.207-0.292c-0.138-0.0236-0.269 0.0691-0.292 0.207-0.0236 0.138 0.0691 0.269 0.207 0.292z" fill="#B5ABA1"/>
          <path d="m28.2 5.26c0.0588-0.344-0.0293-0.518-0.0293-0.518 0.17-0.0582 0.451-0.181 0.601-0.155 0.345 0.059 0.392 0.412 0.322 0.826-0.0709 0.414-0.233 0.731-0.578 0.672-0.234-0.0401-0.375-0.223-0.516-0.345 0 0 0.142-0.136 0.2-0.48z" fill="#B5ABA1"/>
          <path d="m26.1 6.19s0.445-0.457 0.574-1.21c0.128-0.749-0.127-1.27-0.127-1.27 0.482 0.278 0.903 0.607 1.21 0.867 0.0184 0.0155 0.12 0.087 0.172 0.107 0 0 0.067 0.182 0.0104 0.513s-0.176 0.48-0.176 0.48c-0.0728 0.00346-0.177 0.0346-0.202 0.044-0.354 0.132-0.874 0.352-1.46 0.466z" fill="#B5ABA1"/>
          <path d="m24.7 4.64c0.11-0.645-0.118-1.16-0.297-1.4 0.316-0.0672 0.61-0.0912 0.812-0.0566 0.348 0.0595 0.686 0.186 1.01 0.342 0.0971 0.293 0.156 0.897 0.0723 1.39-0.0875 0.511-0.33 1.04-0.565 1.33-0.259 0.0247-0.526 0.0224-0.793-0.0232-0.38-0.0651-0.721-0.18-1.02-0.326 0.181-0.0999 0.664-0.577 0.78-1.26z" fill="#B5ABA1"/>
          <path d="m24.4 3.24c0.333 0.261 0.352 0.379 0.834 0.461 0.483 0.0826 0.818 0.801 0.985-0.176 0.0978-0.571 0.217-0.903-0.397-1.01-0.447-0.0766-1.17 0.124-1.42 0.723z" fill="#B5ABA1"/>
          <path d="m24.3 6.08c0.142 0.205 0.317 0.61 0.926 0.715 0.238 0.0408 0.391 0.0165 0.435-0.55 0.047-0.275-0.15-0.424-0.494-0.483s-1.06 0.11-0.867 0.319z" fill="#B5ABA1"/>
          <path d="m7.54 21.6c0.172-0.151 0.262-0.806 0.391-0.806 0.12 0 0.32 0.172 0.279 0.557-0.0591 0.545-0.637 0.765-0.637 0.98 0 0.493 0.298 1.21 0.46 2.45 0.216 1.65-0.641 2.58-0.148 3.04 0.188 0.174 0.716 0.315 0.716 0.714l-3.36-3e-3c0-0.53 0.487-0.459 0.711-0.726 1.56-1.86 0.988-5.25 0.789-5.6-0.167-0.294-0.549-0.438-0.549-1.09 0-0.215 0.144-0.5 0.279-0.5 0.432 0 0.181 0.928 0.642 1.07 0.125 0.0383 0.274 0.0591 0.43-0.0777v0.0016z" fill="#A9A9A9"/>
          <path d="m10.8 21.9c-0.181 0-0.178 0.324-0.194 0.403-0.0336 0.167-0.0896 0.515-0.328 0.515-0.245 0-0.337-0.22-0.364-0.349-0.0272-0.129-0.11-0.375-0.356-0.348-0.202 0.0224-0.179 0.295-0.146 0.413 0.177 0.65 0.676 0.572 0.459 1.31-0.387 1.31-1.61 1.88-2.34 1.59-0.143 0.676 0.00302 1.11 0.00302 1.11 2.28-0.0568 2.98-2.01 3.08-2.98 0.0264-0.259 0.0932-0.434 0.201-0.604 0.103-0.163 0.202-0.249 0.239-0.44 0.051-0.264 0.037-0.612-0.247-0.612h-0.0015z" fill="#A9A9A9"/>
          <path d="m3.32 24c0.152 0 0.197 0.242 0.211 0.3 0.0284 0.121 0.17 0.428 0.392 0.428 0.222 0 0.337-0.185 0.375-0.57 0.01-0.0978 0.134-0.152 0.239-0.13 0.0975 0.0199 0.211 0.113 0.211 0.203 0 0.867-0.678 0.693-0.401 1.2 0.362 0.664 2.31 0.838 2.87 0.566 0.12 0.49-0.331 1.05-0.331 1.05-2.43-0.107-3.03-0.881-3.27-1.86-0.0868-0.349-0.491-0.429-0.491-0.885 2.9e-4 -0.256 0.111-0.304 0.198-0.304z" fill="#A9A9A9"/>
          <path d="m6.66 25c0.0272-0.295 0.0383-0.583 0.0358-0.856-0.469-0.193-0.992-0.555-1.1-0.889-0.171-0.551 0.356-0.31 0.356-1.18 0-0.0895-0.114-0.183-0.211-0.203-0.105-0.0213-0.23 0.0323-0.239 0.13-0.0379 0.386-0.152 0.57-0.375 0.57-0.223 0-0.364-0.307-0.392-0.428-0.0138-0.0574-0.0587-0.3-0.211-0.3-0.0868 0-0.197 0.0472-0.197 0.304 0 0.456 0.347 0.556 0.491 0.885 0.347 0.792 0.603 1.39 1.84 1.96h-3e-5z" fill="#A9A9A9"/>
        </g>
      </pattern>
    </defs>
    <rect x="370" y="386" width="275" height="40" fill="#71D1ED" stroke-dasharray="4,2" stroke="#4ab29c" stroke-width="1"/>
    <rect x="370" y="386" width="275" height="40" fill="url(#reef-pattern)"/>
  </g>
  <g id="coral_reef">
    <defs>
      <pattern id="coral_reef-pattern" patternUnits="userSpaceOnUse" width="32" height="32">
        <g>
          <path d="m13 1.99c0.194-0.17 0.295-0.908 0.44-0.908 0.135 0 0.361 0.193 0.314 0.628-0.0666 0.614-0.718 0.861-0.718 1.1 0 0.555 0.335 1.36 0.518 2.76 0.244 1.86-0.722 2.91-0.167 3.42 0.211 0.196 0.807 0.355 0.807 0.804l-3.79-0.00302c0-0.597 0.549-0.517 0.8-0.818 1.75-2.09 1.11-5.92 0.889-6.31-0.189-0.332-0.618-0.493-0.618-1.23 0-0.242 0.162-0.563 0.314-0.563 0.486 0 0.204 1.05 0.724 1.2 0.141 0.0431 0.308 0.0666 0.484-0.0875v0.00131z" fill="#869993"/>
          <path d="m16.6 2.25c-0.204 0-0.201 0.365-0.219 0.454-0.0379 0.188-0.101 0.58-0.37 0.58-0.276 0-0.379-0.248-0.41-0.393-0.0306-0.146-0.124-0.423-0.401-0.392-0.227 0.0252-0.201 0.332-0.165 0.465 0.2 0.732 0.762 0.644 0.517 1.47-0.436 1.47-1.81 2.12-2.64 1.79-0.161 0.762 3e-3 1.25 3e-3 1.25 2.57-0.064 3.36-2.27 3.47-3.36 0.0297-0.292 0.105-0.489 0.226-0.68 0.116-0.184 0.227-0.281 0.269-0.496 0.0575-0.297 0.0417-0.69-0.278-0.69h-0.0013z" fill="#869993"/>
          <path d="m8.21 4.64c0.171 0 0.222 0.273 0.237 0.338 0.032 0.136 0.191 0.482 0.442 0.482 0.251 0 0.379-0.208 0.422-0.642 0.0111-0.11 0.151-0.171 0.269-0.147 0.11 0.0224 0.238 0.127 0.238 0.228 0 0.977-0.764 0.781-0.452 1.35 0.408 0.748 2.6 0.944 3.23 0.638 0.136 0.552-0.373 1.18-0.373 1.18-2.73-0.121-3.41-0.993-3.69-2.09-0.0978-0.394-0.553-0.483-0.553-0.997 3.3e-4 -0.289 0.125-0.342 0.223-0.342z" fill="#869993"/>
          <path d="m12 5.81c0.0306-0.332 0.0431-0.657 0.0403-0.964-0.528-0.218-1.12-0.625-1.23-1-0.193-0.621 0.401-0.349 0.401-1.33 0-0.101-0.128-0.206-0.238-0.228-0.118-0.024-0.259 0.0365-0.269 0.147-0.0427 0.435-0.171 0.643-0.422 0.643s-0.41-0.346-0.442-0.482c-0.0155-0.0647-0.0661-0.338-0.238-0.338-0.0978 0-0.222 0.0533-0.222 0.343 0 0.514 0.39 0.626 0.553 0.997 0.39 0.892 0.679 1.57 2.07 2.21z" fill="#869993"/>
          <path d="m24.4 16.2c-0.241-0.211-0.367-1.13-0.548-1.13-0.168 0-0.449 0.24-0.391 0.781 0.0827 0.764 0.894 1.07 0.894 1.37 0 0.691-0.418 1.69-0.645 3.44-0.303 2.32 0.899 3.62 0.208 4.26-0.263 0.244-1 0.442-1 1l4.71-9e-4c0-0.743-0.684-0.644-0.997-1.02-2.18-2.6-1.39-7.37-1.11-7.86 0.235-0.413 0.769-0.614 0.769-1.53 0-0.301-0.202-0.701-0.391-0.701-0.606 0-0.254 1.3-0.901 1.5-0.176 0.0536-0.384 0.0827-0.603-0.109v-0.0011z" fill="#619888"/>
          <path d="m19.9 16.5c0.254 0 0.25 0.454 0.272 0.565 0.0472 0.234 0.126 0.722 0.461 0.722 0.344 0 0.472-0.308 0.51-0.489 0.038-0.181 0.154-0.526 0.499-0.488 0.283 0.0313 0.251 0.414 0.205 0.58-0.249 0.911-0.949 0.802-0.644 1.83 0.543 1.83 2.25 2.63 3.29 2.23 0.201 0.948-2e-3 1.55-2e-3 1.55-3.2-0.0797-4.18-2.82-4.32-4.18-0.0369-0.364-0.131-0.608-0.282-0.847-0.144-0.228-0.283-0.35-0.335-0.618-0.0716-0.37-0.0519-0.859 0.346-0.859h-2e-4z" fill="#619888"/>
          <path d="m30.3 19.5c-0.214 0-0.276 0.34-0.295 0.42-0.0399 0.169-0.238 0.6-0.55 0.6-0.312 0-0.472-0.259-0.525-0.8-0.0138-0.137-0.189-0.213-0.335-0.183-0.137 0.0279-0.297 0.159-0.297 0.284 0 1.22 0.951 0.972 0.563 1.68-0.508 0.931-3.24 1.17-4.02 0.794-0.169 0.687 0.465 1.47 0.465 1.47 3.4-0.15 4.25-1.24 4.59-2.61 0.122-0.49 0.689-0.602 0.689-1.24-4e-4 -0.36-0.156-0.426-0.278-0.426z" fill="#619888"/>
          <path d="m25.7 21c-0.038-0.414-0.0536-0.818-0.0502-1.2 0.658-0.271 1.39-0.778 1.54-1.25 0.24-0.773-0.5-0.434-0.5-1.65 0-0.126 0.16-0.256 0.297-0.284 0.147-0.03 0.322 0.0454 0.335 0.183 0.0531 0.541 0.213 0.8 0.526 0.8s0.51-0.431 0.55-0.6c0.0193-0.0805 0.0823-0.42 0.296-0.42 0.122 0 0.277 0.0664 0.277 0.426 0 0.64-0.486 0.779-0.688 1.24-0.486 1.11-0.846 1.95-2.58 2.75z" fill="#619888"/>
          <path d="m4.19 12.9c-0.31 0.372-0.789 0.714-0.905 0.792-0.19 0.128-0.32 0.299-0.493 0.185-0.179-0.117-0.308-0.292-0.34-0.478-0.0523-0.306-0.014-0.591 0.412-0.664 0.432-0.074 1.18 0.128 1.33 0.165z" fill="#C57D5C"/>
          <path d="m4.79 16.2c-0.339 0.172-0.608 0.42-1.14 0.51-0.459 0.0775-0.643-0.094-0.706-0.461-0.0357-0.209 0.0448-0.522 0.0789-0.603 0.459-0.0786 1.27 0.19 1.77 0.554h-3e-5z" fill="#C57D5C"/>
          <path d="m7.44 12.3c-0.238 0.51-0.33 1.09-0.228 1.69 0.108 0.63 0.417 1.18 0.849 1.59 0.918-0.557 1.41-1.34 1.31-1.96-0.0981-0.573-1.02-1.07-1.93-1.32zm0.987 1.83c-0.184 0.0315-0.359-0.0922-0.39-0.276-0.0315-0.184 0.0923-0.359 0.276-0.39 0.184-0.0315 0.359 0.0923 0.39 0.276 0.0315 0.184-0.0922 0.359-0.276 0.39z" fill="#C57D5C"/>
          <path d="m1.89 14.9c-0.0785-0.459 0.0391-0.691 0.0391-0.691-0.228-0.0777-0.603-0.242-0.803-0.207-0.46 0.0788-0.524 0.55-0.429 1.1 0.0946 0.552 0.311 0.976 0.771 0.897 0.313-0.0535 0.501-0.298 0.689-0.461 0 0-0.189-0.182-0.267-0.64z" fill="#C57D5C"/>
          <path d="m4.79 16.2s-0.594-0.61-0.766-1.61c-0.171-1 0.17-1.7 0.17-1.7-0.643 0.372-1.21 0.811-1.61 1.16-0.0246 0.0207-0.16 0.116-0.229 0.143 0 0-0.0894 0.243-0.0138 0.685s0.235 0.64 0.235 0.64c0.0972 0.0046 0.237 0.0463 0.27 0.0587 0.472 0.176 1.17 0.47 1.95 0.622z" fill="#C57D5C"/>
          <path d="m6.69 14.1c-0.147-0.861 0.158-1.55 0.396-1.87-0.422-0.0897-0.814-0.122-1.08-0.0755-0.464 0.0794-0.916 0.248-1.34 0.456-0.13 0.391-0.208 1.2-0.0964 1.85 0.117 0.682 0.441 1.39 0.755 1.78 0.346 0.033 0.703 0.03 1.06-0.0309 0.508-0.0869 0.963-0.241 1.36-0.436-0.241-0.133-0.886-0.77-1.04-1.68z" fill="#C57D5C"/>
          <path d="m7.09 12.3c-0.445 0.348-0.469 0.505-1.11 0.616-0.644 0.11-1.09 1.07-1.31-0.235-0.131-0.763-0.29-1.21 0.53-1.35 0.597-0.102 1.56 0.166 1.9 0.965z" fill="#C57D5C"/>
          <path d="m7.13 16c-0.189 0.274-0.423 0.815-1.24 0.954-0.318 0.0544-0.521 0.022-0.58-0.734-0.0628-0.367 0.2-0.567 0.659-0.645 0.459-0.0786 1.41 0.147 1.16 0.426z" fill="#C57D5C"/>
          <path d="m26.5 3.71c0.232 0.278 0.591 0.535 0.678 0.594 0.142 0.0961 0.24 0.224 0.37 0.139 0.134-0.0876 0.23-0.219 0.254-0.358 0.0392-0.229 0.0105-0.443-0.308-0.497-0.324-0.0554-0.883 0.0957-0.993 0.123z" fill="#C57D5C"/>
          <path d="m26.1 6.19c0.254 0.128 0.455 0.315 0.853 0.382 0.344 0.058 0.482-0.0704 0.529-0.345 0.0267-0.156-0.0336-0.391-0.0591-0.452-0.344-0.0589-0.952 0.142-1.32 0.415z" fill="#C57D5C"/>
          <path d="m24.1 3.31c0.178 0.382 0.247 0.82 0.171 1.27-0.0808 0.472-0.313 0.88-0.636 1.19-0.688-0.417-1.06-1.01-0.981-1.46 0.0735-0.429 0.768-0.799 1.45-0.99zm-0.739 1.37c0.138 0.0236 0.269-0.0691 0.292-0.207s-0.0691-0.269-0.207-0.292c-0.138-0.0236-0.269 0.0691-0.292 0.207-0.0236 0.138 0.0691 0.269 0.207 0.292z" fill="#C57D5C"/>
          <path d="m28.2 5.26c0.0588-0.344-0.0293-0.518-0.0293-0.518 0.17-0.0582 0.451-0.181 0.601-0.155 0.345 0.059 0.392 0.412 0.322 0.826-0.0709 0.414-0.233 0.731-0.578 0.672-0.234-0.0401-0.375-0.223-0.516-0.345 0 0 0.142-0.136 0.2-0.48z" fill="#C57D5C"/>
          <path d="m26.1 6.19s0.445-0.457 0.574-1.21c0.128-0.749-0.127-1.27-0.127-1.27 0.482 0.278 0.903 0.607 1.21 0.867 0.0184 0.0155 0.12 0.087 0.172 0.107 0 0 0.067 0.182 0.0104 0.513s-0.176 0.48-0.176 0.48c-0.0728 0.00346-0.177 0.0346-0.202 0.044-0.354 0.132-0.874 0.352-1.46 0.466z" fill="#C57D5C"/>
          <path d="m24.7 4.64c0.11-0.645-0.118-1.16-0.297-1.4 0.316-0.0672 0.61-0.0912 0.812-0.0566 0.348 0.0595 0.686 0.186 1.01 0.342 0.0971 0.293 0.156 0.897 0.0723 1.39-0.0875 0.511-0.33 1.04-0.565 1.33-0.259 0.0247-0.526 0.0224-0.793-0.0232-0.38-0.0651-0.721-0.18-1.02-0.326 0.181-0.0999 0.664-0.577 0.78-1.26z" fill="#C57D5C"/>
          <path d="m24.4 3.24c0.333 0.261 0.352 0.379 0.834 0.461 0.483 0.0826 0.818 0.801 0.985-0.176 0.0978-0.571 0.217-0.903-0.397-1.01-0.447-0.0766-1.17 0.124-1.42 0.723z" fill="#C57D5C"/>
          <path d="m24.3 6.08c0.142 0.205 0.317 0.61 0.926 0.715 0.238 0.0408 0.391 0.0165 0.435-0.55 0.047-0.275-0.15-0.424-0.494-0.483s-1.06 0.11-0.867 0.319z" fill="#C57D5C"/>
          <path d="m7.54 21.6c0.172-0.151 0.262-0.806 0.391-0.806 0.12 0 0.32 0.172 0.279 0.557-0.0591 0.545-0.637 0.765-0.637 0.98 0 0.493 0.298 1.21 0.46 2.45 0.216 1.65-0.641 2.58-0.148 3.04 0.188 0.174 0.716 0.315 0.716 0.714l-3.36-3e-3c0-0.53 0.487-0.459 0.711-0.726 1.56-1.86 0.988-5.25 0.789-5.6-0.167-0.294-0.549-0.438-0.549-1.09 0-0.215 0.144-0.5 0.279-0.5 0.432 0 0.181 0.928 0.642 1.07 0.125 0.0383 0.274 0.0591 0.43-0.0777v0.0016z" fill="#7F9861"/>
          <path d="m10.8 21.9c-0.181 0-0.178 0.324-0.194 0.403-0.0336 0.167-0.0896 0.515-0.328 0.515-0.245 0-0.337-0.22-0.364-0.349-0.0272-0.129-0.11-0.375-0.356-0.348-0.202 0.0224-0.179 0.295-0.146 0.413 0.177 0.65 0.676 0.572 0.459 1.31-0.387 1.31-1.61 1.88-2.34 1.59-0.143 0.676 0.00302 1.11 0.00302 1.11 2.28-0.0568 2.98-2.01 3.08-2.98 0.0264-0.259 0.0932-0.434 0.201-0.604 0.103-0.163 0.202-0.249 0.239-0.44 0.051-0.264 0.037-0.612-0.247-0.612h-0.0015z" fill="#7F9861"/>
          <path d="m3.32 24c0.152 0 0.197 0.242 0.211 0.3 0.0284 0.121 0.17 0.428 0.392 0.428 0.222 0 0.337-0.185 0.375-0.57 0.01-0.0978 0.134-0.152 0.239-0.13 0.0975 0.0199 0.211 0.113 0.211 0.203 0 0.867-0.678 0.693-0.401 1.2 0.362 0.664 2.31 0.838 2.87 0.566 0.12 0.49-0.331 1.05-0.331 1.05-2.43-0.107-3.03-0.881-3.27-1.86-0.0868-0.349-0.491-0.429-0.491-0.885 2.9e-4 -0.256 0.111-0.304 0.198-0.304z" fill="#7F9861"/>
          <path d="m6.66 25c0.0272-0.295 0.0383-0.583 0.0358-0.856-0.469-0.193-0.992-0.555-1.1-0.889-0.171-0.551 0.356-0.31 0.356-1.18 0-0.0895-0.114-0.183-0.211-0.203-0.105-0.0213-0.23 0.0323-0.239 0.13-0.0379 0.386-0.152 0.57-0.375 0.57-0.223 0-0.364-0.307-0.392-0.428-0.0138-0.0574-0.0587-0.3-0.211-0.3-0.0868 0-0.197 0.0472-0.197 0.304 0 0.456 0.347 0.556 0.491 0.885 0.347 0.792 0.603 1.39 1.84 1.96h-3e-5z" fill="#7F9861"/>
        </g>
      </pattern>
    </defs>
    <rect x="370" y="447" width="275" height="40" fill="#71D1ED" stroke-dasharray="4,2" stroke="#4ab29c" stroke-width="1"/>
    <rect x="370" y="447" width="275" height="40" fill="url(#coral_reef-pattern)"/>
  </g>
  <g id="rocky_reef">
    <defs>
      <pattern id="rocky_reef-pattern" width="32" height="32" patternUnits="userSpaceOnUse">
        <g>
          <path d="m15.6 3.99c-0.0298-0.071-0.0623-0.142-0.0995-0.211-0.0831-0.156-0.239-0.272-0.307-0.436-0.0602-0.145-0.0197-0.3-0.0974-0.437-0.284-0.498-0.424-0.951-1.06-1.04 0.276 0.185 0.356 0.841 0.326 1.19-0.0162 0.187-0.094 0.34-0.0744 0.545 0.0186 0.191 0.0978 0.35 0.0991 0.545 0.0031 0.461-0.21 0.736-0.0548 1.2 0.137 0.408 0.195 0.732-0.292 0.944-0.176 0.0764-0.37 0.0913-0.528 0.185-0.207 0.122-0.249 0.182-0.489 0.23-0.367 0.073-0.713 0.257-0.71 0.675 2e-3 0.227 0.072 0.317-0.0723 0.503-0.113 0.145-0.31 0.343-0.502 0.364-0.147 0.0162-0.208-0.104-0.338-0.147-0.154-0.0504-0.302 0.00778-0.436 0.0872-0.446 0.264-1.19 0.958-1.74 0.62-0.239-0.149-0.352-0.376-0.488-0.586-0.261 0.319-0.241 0.768 0.143 0.939 0.331 0.148 0.754 0.121 1.11 0.197 0.359 0.0764 0.622 0.349 0.992 0.428 0.666 0.142 1.21-0.132 1.82-0.302 0.294-0.0822 0.594-0.0764 0.887-0.149 0.264-0.0656 0.509-0.226 0.767-0.324 0.295-0.112 0.402-0.334 0.669-0.526 0.233-0.168 0.389-0.305 0.552-0.538 0.36-0.515 0.189-1.06 0.0044-1.6-0.0727-0.214-0.188-0.49-0.157-0.732 0.0308-0.236 0.252-0.349 0.318-0.563 0.103-0.33-0.126-0.757-0.252-1.06z" fill="#B6B6B6"></path>
          <path d="m13.7 2.12 0.0048 0.00271 0.0784 0.0216c0.0521 0.0145 0.106 0.0287 0.159 0.0429 0.132 0.0352 0.341 0.091 0.431 0.141 0 0.00237-3e-4 0.00474-3e-4 0.0071-0.0656 0.647 0.204 1.09 0.823 1.35 0.0142 0.00609 0.0406 0.0172 0.0684 0.0298-0.042 0.161-0.0974 0.412 3e-4 0.688 0.0737 0.21 0.206 0.338 0.278 0.404 0.0159 0.0352 0.0368 0.0916 0.0538 0.154-0.0082 0.0382-0.0342 0.107-0.0687 0.162-0.0206 0.0328-0.0477 0.0659-0.0784 0.105-0.142 0.176-0.474 0.587-0.154 1.23l0.0612 0.122c0.103 0.203 0.138 0.271 0.157 0.449 0.0257 0.235 0.0423 0.502-0.0301 0.704-0.0098 0.0277-0.123 0.106-0.191 0.152-0.189 0.13-0.447 0.306-0.626 0.627-0.0643 0.116-0.0937 0.168-0.381 0.221-0.157 0.0288-0.316 0.0507-0.486 0.0741-0.28 0.0386-0.569 0.0781-0.869 0.153-0.0977 0.0244-0.212 0.0453-0.333 0.0673-0.0924 0.0166-0.183 0.0335-0.269 0.0514-0.239 0.0507-0.46 0.113-0.675 0.172-0.362 0.1-0.681 0.189-1.01 0.21-0.0481-0.0636-0.11-0.129-0.191-0.19-0.278-0.211-0.584-0.215-0.767-0.217-0.0284-3.3e-4 -0.0565 3.4e-4 -0.0849-0.0027-0.134-0.0196-0.285-0.0494-0.43-0.0781l-0.113-0.0227c-0.301-0.0592-0.293-0.122-0.27-0.311 0.00913-0.0751 0.0203-0.143 0.0304-0.208 0.0409-0.26 0.0872-0.555 0.00676-0.961-0.0193-0.0947-0.0416-0.188-0.0639-0.281-0.0642-0.266-0.0987-0.423-0.0565-0.555 0.021-0.0646 0.0818-0.148 0.153-0.245 0.0852-0.116 0.191-0.26 0.275-0.44 0.196-0.425 0.149-0.825 0.112-1.15l-0.00981-0.0774c-0.0108-0.096-0.0291-0.2-0.048-0.307-0.024-0.135-0.0609-0.34-0.0497-0.402 0.0145-0.02 0.0764-0.07 0.121-0.106 0.0646-0.0524 0.131-0.108 0.198-0.17 0.23-0.217 0.372-0.461 0.487-0.657 0.177-0.304 0.212-0.332 0.326-0.35 0.0761-0.0118 0.167-0.0179 0.272-0.0179 0.205 0 0.423 0.0223 0.634 0.0436l0.0662 0.0071c0.141 0.0142 0.281 0.0213 0.416 0.0213 0.616 0 1.18-0.151 1.66-0.45 0.0341-0.021 0.0693-0.0433 0.106-0.067 0.073-0.047 0.198-0.127 0.276-0.159zm0.0274-0.688c-0.274 0-0.554 0.209-0.763 0.336-0.406 0.249-0.845 0.35-1.31 0.35-0.115 0-0.231-0.00643-0.348-0.0179-0.234-0.0233-0.504-0.0538-0.768-0.0538-0.129 0-0.256 0.0071-0.376 0.026-0.705 0.111-0.728 0.765-1.17 1.18-0.213 0.2-0.435 0.298-0.507 0.598-0.0717 0.298 0.0443 0.666 0.0764 0.955 0.0335 0.3 0.0835 0.59-0.0446 0.867-0.125 0.271-0.362 0.462-0.458 0.763-0.13 0.407 0.0223 0.777 0.101 1.17 0.0744 0.373 3.4e-4 0.592-0.0446 0.953-0.0754 0.6 0.222 0.942 0.81 1.06 0.19 0.0372 0.388 0.0795 0.578 0.107 0.169 0.0254 0.392-0.0226 0.539 0.0886 0.173 0.13 0.0815 0.321 0.347 0.331 0.0348 0.0014 0.0693 2e-3 0.104 2e-3 0.706 0 1.3-0.257 1.98-0.402 0.197-0.0419 0.426-0.0744 0.626-0.124 0.435-0.109 0.876-0.138 1.31-0.218 0.4-0.0734 0.65-0.199 0.849-0.557 0.219-0.393 0.707-0.446 0.863-0.88 0.113-0.317 0.104-0.658 0.0656-1.01-0.0379-0.349-0.137-0.5-0.285-0.798-0.171-0.342 0.0287-0.408 0.198-0.677 0.105-0.167 0.211-0.442 0.163-0.642-0.0318-0.134-0.094-0.319-0.17-0.433-0.0565-0.0845-0.154-0.125-0.191-0.229-0.0609-0.172 0.071-0.38 0.0629-0.559-0.0156-0.336-0.24-0.445-0.506-0.558-0.348-0.148-0.45-0.303-0.414-0.661 0.0673-0.669-0.556-0.763-1.08-0.91-0.0774-0.0443-0.158-0.0626-0.238-0.0626z" fill="#B6B6B6"></path>
          <path d="m11.7 4.28c-0.0031-0.103 0.0683-0.31 0.14-0.384 0.117-0.12 0.325-0.0781 0.464-0.176 0.15-0.104 0.757-0.567 0.891-0.262 0.0964 0.219-0.139 0.411 0.0781 0.601 0.102 0.0889 0.191 0.09 0.152 0.238-0.0264 0.101-0.134 0.189-0.14 0.293-0.0064 0.0991 0.107 0.161 0.107 0.243 7e-4 0.145-0.191 0.171-0.287 0.224-0.167 0.0926-0.339 0.22-0.472 0.357-0.136 0.139-0.251 0.292-0.47 0.282-0.445-0.0226-0.251-0.554-0.288-0.833-0.0263-0.202-0.168-0.376-0.174-0.584z" fill="#B6B6B6"></path>
          <path d="m9.89 6.26c-0.0362-0.0531-0.0686-0.185-0.0568-0.248 0.0206-0.102 0.144-0.151 0.184-0.249 0.0433-0.106 0.205-0.554 0.379-0.439 0.125 0.0822 0.0663 0.262 0.245 0.289 0.0835 0.0118 0.13-0.0179 0.16 0.0734 0.0209 0.0622-0.0064 0.145 0.0257 0.201 0.0304 0.0541 0.11 0.048 0.139 0.0916 0.0494 0.0757-0.0419 0.154-0.0747 0.215-0.0558 0.105-0.103 0.231-0.126 0.347-0.0244 0.119-0.0325 0.238-0.151 0.307-0.241 0.139-0.319-0.205-0.433-0.34-0.0829-0.0977-0.216-0.141-0.29-0.248z" fill="#B6B6B6"></path>
          <path d="m23 21.9c0.0506-0.0605 0.104-0.12 0.161-0.176 0.129-0.128 0.316-0.194 0.433-0.334 0.103-0.124 0.11-0.288 0.228-0.398 0.429-0.402 0.703-0.803 1.35-0.697-0.326 0.0976-0.603 0.716-0.679 1.07-0.0408 0.188-0.0106 0.361-0.0921 0.556-0.076 0.181-0.202 0.313-0.262 0.504-0.142 0.45-0.0169 0.784-0.308 1.19-0.258 0.358-0.412 0.658 7e-4 1.01 0.149 0.128 0.334 0.201 0.461 0.34 0.166 0.182 0.188 0.253 0.409 0.373 0.337 0.182 0.621 0.467 0.491 0.875-0.0705 0.221-0.166 0.288-0.0812 0.514 0.0665 0.176 0.2 0.43 0.382 0.508 0.139 0.0603 0.235-0.0396 0.376-0.0421 0.166-0.0027 0.293 0.0989 0.4 0.217 0.357 0.394 0.879 1.3 1.51 1.13 0.279-0.0734 0.459-0.261 0.655-0.426 0.159 0.391 0.0035 0.825-0.424 0.876-0.368 0.0447-0.775-0.11-1.15-0.144-0.374-0.0336-0.714 0.154-1.1 0.12-0.695-0.0618-1.14-0.494-1.69-0.845-0.264-0.17-0.558-0.254-0.823-0.414-0.238-0.144-0.43-0.375-0.652-0.549-0.255-0.199-0.293-0.448-0.496-0.718-0.177-0.235-0.289-0.416-0.378-0.694-0.197-0.613 0.134-1.09 0.48-1.57 0.136-0.188 0.332-0.423 0.375-0.669 0.0412-0.24-0.141-0.418-0.142-0.648-1e-3 -0.354 0.352-0.703 0.566-0.958z" fill="#B8B8B8"></path>
          <path d="m25.4 20.6-0.0055 0.0012-0.0833-0.0025c-0.0554-0.0015-0.112-0.0037-0.169-6e-3 -0.139-0.0053-0.361-0.014-0.465 0.0074-7e-4 0.0023-0.0011 0.0047-0.0018 7e-3 -0.131 0.654-0.529 1.01-1.22 1.08-0.0157 0.0017-0.0449 0.0046-0.0758 0.0085-0.0077 0.171-0.0292 0.433-0.208 0.674-0.136 0.183-0.303 0.269-0.395 0.312-0.0261 0.0297-0.0637 0.0786-0.099 0.134-0.0036 0.0399 0.0011 0.115 0.0182 0.179 0.0103 0.0384 0.0268 0.079 0.045 0.127 0.0859 0.215 0.287 0.718-0.222 1.25l-0.0967 0.101c-0.162 0.167-0.217 0.224-0.29 0.392-0.0962 0.222-0.193 0.479-0.183 0.698 0.0013 0.0301 0.0889 0.141 0.141 0.207 0.146 0.184 0.345 0.435 0.423 0.803 0.028 0.133 0.0408 0.193 0.306 0.331 0.145 0.0755 0.295 0.145 0.453 0.219 0.262 0.122 0.534 0.248 0.804 0.413 0.0883 0.0534 0.194 0.108 0.306 0.167 0.0853 0.0441 0.169 0.0882 0.248 0.132 0.218 0.122 0.417 0.249 0.608 0.372 0.324 0.208 0.609 0.391 0.928 0.512 0.0662-0.0477 0.147-0.0932 0.244-0.128 0.336-0.123 0.637-0.0336 0.817 0.0198 0.0279 0.0082 0.0552 0.0174 0.0839 0.023 0.137 0.0214 0.294 0.0377 0.444 0.0534l0.118 0.0121c0.312 0.0331 0.324-0.031 0.358-0.223 0.0138-0.0762 0.0234-0.146 0.033-0.212 0.0386-0.267 0.0824-0.57 0.284-0.943 0.0475-0.0869 0.0976-0.172 0.147-0.256 0.143-0.241 0.224-0.384 0.223-0.526-1e-3 -0.0696-0.0353-0.17-0.0759-0.286-0.0483-0.139-0.108-0.313-0.136-0.513-0.0636-0.475 0.103-0.853 0.237-1.16l0.033-0.0729c0.0397-0.0907 0.089-0.187 0.14-0.286 0.0644-0.125 0.162-0.314 0.17-0.379-0.0082-0.0239-0.0536-0.0916-0.0867-0.141-0.0474-0.0708-0.096-0.145-0.143-0.226-0.16-0.282-0.225-0.564-0.278-0.79-0.0812-0.351-0.107-0.389-0.213-0.441-0.0709-0.0346-0.158-0.0682-0.26-0.0997-0.2-0.0618-0.421-0.106-0.634-0.149l-0.067-0.0131c-0.143-0.0289-0.282-0.0642-0.413-0.105-0.603-0.186-1.1-0.503-1.49-0.943-0.0271-0.0309-0.0548-0.0634-0.084-0.0978-0.0573-0.0681-0.156-0.184-0.222-0.239zm0.181-0.682c0.268 0.0827 0.48 0.372 0.646 0.56 0.322 0.366 0.722 0.599 1.18 0.739 0.112 0.0346 0.228 0.0635 0.346 0.0877 0.236 0.0478 0.51 0.0998 0.768 0.18 0.126 0.0389 0.248 0.0842 0.36 0.139 0.657 0.322 0.481 0.968 0.789 1.51 0.148 0.26 0.336 0.424 0.316 0.739-0.0197 0.313-0.245 0.638-0.363 0.912-0.123 0.283-0.26 0.552-0.218 0.862 0.0407 0.303 0.215 0.562 0.218 0.885 0.0045 0.438-0.257 0.754-0.454 1.12-0.186 0.343-0.179 0.58-0.244 0.946-0.108 0.61-0.502 0.856-1.11 0.791-0.197-0.0211-0.404-0.0396-0.598-0.0706-0.173-0.0261-0.377-0.141-0.554-0.0761-0.208 0.0746-0.177 0.29-0.439 0.219-0.0345-0.0092-0.0685-0.019-0.102-0.0294-0.691-0.214-1.19-0.644-1.81-0.992-0.18-0.101-0.395-0.202-0.575-0.311-0.393-0.238-0.816-0.4-1.22-0.611-0.369-0.193-0.576-0.391-0.663-0.802-0.0956-0.451-0.557-0.65-0.578-1.12-0.0151-0.344 0.0973-0.676 0.24-1 0.143-0.33 0.285-0.448 0.52-0.695 0.271-0.283 0.0953-0.408 0.0108-0.723-0.0523-0.196-0.0725-0.497 0.0347-0.678 0.0716-0.121 0.188-0.283 0.298-0.372 0.0809-0.0657 0.189-0.0761 0.256-0.166 0.112-0.15 0.0454-0.394 0.107-0.566 0.117-0.324 0.37-0.363 0.664-0.393 0.385-0.0395 0.533-0.16 0.606-0.522 0.136-0.676 0.775-0.579 1.33-0.564 0.0892-0.02 0.173-0.0136 0.252 0.0108z" fill="#B8B8B8"></path>
          <path d="m2.96 23.6c0.0951 0.598-0.14 1.44-0.325 1.8-0.0661 0.131 0.00198 0.218 0.124 0.198 1.5-0.239 1.61-1.7 1.61-1.7s1.95 1.45 4.01 1.12c2.14-0.34 3.17-1.21 3.68-2.29 0.112-0.239 0.193-0.433-0.0601-0.755-0.389-0.496-1.58-1.97-4.34-1.53-1.88 0.298-3.45 2.42-3.45 2.42s-0.877-1.21-2.04-1.02c-0.049 8e-3 -0.177 0.0636-0.0181 0.254 0.245 0.293 0.712 0.892 0.808 1.49h1.3e-4zm6.41-1.17c-0.0604-0.38 0.198-0.738 0.579-0.799 0.381-0.0607 0.738 0.199 0.799 0.579 0.0605 0.38-0.198 0.738-0.58 0.798-0.381 0.0607-0.738-0.198-0.799-0.579z" fill="#9DA8BE"></path>
          <path d="m9.18 20.4c-0.334-0.709-1.17-1.1-1.47-1.06-0.602 0.0959-2.14 0.341-2.55 0.405-0.403 0.0641 1.15 0.743 0.509 1.64-0.487 0.678 3.85-0.279 3.51-0.988z" fill="#9DA8BE"></path>
          <path d="m10.1 22.6c0.159-0.0253 0.268-0.175 0.242-0.334s-0.175-0.268-0.334-0.242c-0.159 0.0253-0.268 0.175-0.242 0.334s0.175 0.268 0.334 0.242z" fill="#9DA8BE"></path>
          <path d="m9.46 24.8c-0.0142 0.59-0.852 1.49-1 1.51-0.293 0.0466-0.415 0.0661-0.612 0.0973-0.35 0.0558 0.381-0.932-0.2-1.49-0.39-0.371 1.83-0.713 1.81-0.124v1e-4z" fill="#9DA8BE"></path>
          <path d="m29.6 10.8c-0.0827 0.52 0.122 1.25 0.283 1.57 0.0576 0.114-2e-3 0.189-0.108 0.172-1.31-0.208-1.4-1.48-1.4-1.48s-1.7 1.26-3.49 0.975c-1.86-0.296-2.76-1.06-3.2-1.99-0.0971-0.208-0.168-0.377 0.0523-0.657 0.339-0.432 1.38-1.72 3.78-1.33 1.63 0.26 3 2.11 3 2.11s0.764-1.05 1.77-0.891c0.0426 7e-3 0.154 0.0554 0.0157 0.221-0.213 0.255-0.62 0.776-0.703 1.3h-1e-4zm-5.58-1.02c0.0526-0.331-0.172-0.642-0.504-0.695-0.332-0.0528-0.642 0.174-0.695 0.504-0.0526 0.331 0.172 0.642 0.504 0.695s0.642-0.173 0.695-0.504z" fill="#9DABCA"></path>
          <path d="m24.1 8.08c0.29-0.617 1.02-0.961 1.28-0.918 0.524 0.0834 1.87 0.297 2.22 0.353 0.35 0.0558-1 0.646-0.443 1.43 0.424 0.59-3.35-0.243-3.06-0.86z" fill="#9DABCA"></path>
          <path d="m23.3 9.97c-0.138-0.022-0.233-0.152-0.211-0.291s0.152-0.233 0.291-0.211 0.233 0.152 0.211 0.291c-0.0221 0.138-0.152 0.233-0.291 0.211z" fill="#9DABCA"></path>
          <path d="m23.9 11.9c0.0123 0.513 0.742 1.3 0.872 1.32 0.255 0.0406 0.362 0.0576 0.532 0.0847 0.305 0.0485-0.332-0.811 0.174-1.29 0.34-0.323-1.59-0.621-1.58-0.108z" fill="#9DABCA"></path>
          <path d="m2.69 13.9c0.0136-0.0324 0.0284-0.0646 0.0453-0.0962 0.0379-0.071 0.109-0.124 0.14-0.198 0.0274-0.0661 0.00894-0.137 0.0444-0.199 0.129-0.227 0.193-0.434 0.482-0.473-0.126 0.0843-0.162 0.383-0.149 0.542 0.0074 0.0854 0.0428 0.155 0.0339 0.249-0.00847 0.087-0.0445 0.16-0.0452 0.248-0.00138 0.21 0.0957 0.335 0.025 0.545-0.0626 0.186-0.0889 0.334 0.133 0.43 0.0801 0.0348 0.168 0.0416 0.24 0.0843 0.0943 0.0556 0.113 0.0829 0.223 0.105 0.167 0.0333 0.325 0.117 0.323 0.307-9.3e-4 0.103-0.0328 0.144 0.033 0.229 0.0513 0.066 0.141 0.156 0.229 0.166 0.067 0.0074 0.0946-0.0476 0.154-0.0672 0.0703-0.023 0.137 0.0035 0.198 0.0398 0.203 0.12 0.544 0.436 0.791 0.282 0.109-0.0678 0.161-0.171 0.223-0.267 0.119 0.145 0.11 0.35-0.0653 0.428-0.151 0.0673-0.344 0.0551-0.508 0.09-0.163 0.0348-0.283 0.159-0.452 0.195-0.303 0.0649-0.55-0.0601-0.828-0.137-0.134-0.0375-0.271-0.0349-0.404-0.0682-0.12-0.0298-0.232-0.103-0.349-0.148-0.134-0.051-0.183-0.152-0.305-0.24-0.106-0.0766-0.177-0.139-0.252-0.245-0.164-0.235-0.0861-0.482-0.00201-0.73 0.0331-0.0976 0.0857-0.223 0.0715-0.333-0.014-0.108-0.115-0.159-0.145-0.257-0.0468-0.15 0.0573-0.345 0.115-0.481z" fill="#9E9E9E"></path>
          <path d="m3.54 13.1-0.00215 0.0013-0.0358 0.0098c-0.0237 0.0066-0.0481 0.0131-0.0724 0.0196-0.0599 0.016-0.155 0.0414-0.196 0.0641 0 0.0011 1.5e-4 0.0021 1.5e-4 0.0032 0.0299 0.295-0.0928 0.496-0.375 0.616-0.00647 0.0028-0.0185 0.0079-0.0311 0.0136 0.0191 0.0735 0.0444 0.188-1.5e-4 0.314-0.0336 0.0956-0.0937 0.154-0.127 0.184-0.00724 0.016-0.0168 0.0418-0.0245 0.07 0.0037 0.0174 0.0156 0.0487 0.0313 0.0738 0.0094 0.0149 0.0217 0.03 0.0358 0.0479 0.0647 0.0801 0.216 0.268 0.07 0.562l-0.0279 0.0555c-0.047 0.0925-0.0627 0.124-0.0716 0.205-0.0117 0.107-0.0193 0.229 0.0137 0.321 0.00447 0.0126 0.0562 0.0482 0.0871 0.0693 0.086 0.0591 0.204 0.14 0.285 0.286 0.0293 0.0527 0.0427 0.0767 0.174 0.101 0.0713 0.0131 0.144 0.0231 0.221 0.0338 0.127 0.0175 0.259 0.0355 0.396 0.0698 0.0445 0.011 0.0966 0.0206 0.152 0.0306 0.0421 0.0076 0.0835 0.0153 0.123 0.0234 0.109 0.0232 0.21 0.0514 0.307 0.0785 0.165 0.0457 0.31 0.0861 0.461 0.0958 0.0219-0.029 0.0501-0.0588 0.0871-0.0866 0.127-0.0963 0.266-0.0978 0.35-0.0988 0.013-1e-4 0.0257 2e-4 0.0387-0.0012 0.0612-0.0089 0.13-0.0225 0.196-0.0356l0.0516-0.0103c0.137-0.027 0.133-0.0556 0.123-0.142-0.00416-0.0342-0.00924-0.0652-0.0139-0.0946-0.0186-0.119-0.0398-0.253-0.00308-0.438 0.00878-0.0431 0.019-0.0857 0.0291-0.128 0.0293-0.121 0.045-0.193 0.0257-0.253-0.00956-0.0294-0.0373-0.0675-0.0698-0.112-0.0388-0.0528-0.0871-0.119-0.125-0.2-0.0894-0.194-0.0681-0.376-0.051-0.523l0.00447-0.0353c0.00493-0.0437 0.0132-0.0912 0.0219-0.14 0.0109-0.0617 0.0277-0.155 0.0226-0.183-0.00663-0.0091-0.0348-0.0319-0.0553-0.0484-0.0294-0.0239-0.0598-0.049-0.0904-0.0775-0.105-0.099-0.17-0.21-0.222-0.299-0.0806-0.138-0.0965-0.151-0.148-0.159-0.0347-0.0054-0.0763-0.0082-0.124-0.0082-0.0932 0-0.193 0.0102-0.289 0.0199l-0.0302 0.0032c-0.0644 0.0065-0.128 0.0097-0.189 0.0097-0.28 0-0.535-0.0688-0.757-0.205-0.0156-0.0096-0.0316-0.0197-0.0485-0.0305-0.0333-0.0214-0.0903-0.0578-0.126-0.0723zm-0.0125-0.314c0.125 0 0.253 0.0951 0.348 0.153 0.185 0.113 0.385 0.16 0.596 0.16 0.0522 0 0.105-3e-3 0.159-0.0082 0.106-0.0106 0.23-0.0245 0.35-0.0245 0.0587 0 0.116 0.0032 0.171 0.0118 0.321 0.0504 0.332 0.348 0.534 0.539 0.0969 0.0911 0.198 0.136 0.231 0.272 0.0327 0.136-0.0202 0.303-0.0348 0.435-0.0152 0.137-0.0381 0.269 0.0203 0.395 0.057 0.123 0.165 0.21 0.209 0.348 0.0593 0.185-0.0102 0.354-0.0462 0.535-0.0339 0.17-1.5e-4 0.27 0.0203 0.434 0.0344 0.273-0.101 0.429-0.369 0.482-0.0866 0.017-0.177 0.0362-0.264 0.0486-0.0769 0.0115-0.179-0.0104-0.245 0.0403-0.0787 0.0591-0.0371 0.146-0.158 0.151-0.0159 7e-4 -0.0316 1e-3 -0.0473 1e-3 -0.322 0-0.591-0.117-0.901-0.183-0.0898-0.0192-0.194-0.0339-0.285-0.0566-0.198-0.0495-0.399-0.0627-0.598-0.0995-0.182-0.0335-0.296-0.0906-0.387-0.254-0.0998-0.179-0.322-0.203-0.393-0.401-0.0516-0.144-0.0473-0.3-0.0299-0.458 0.0173-0.159 0.0624-0.228 0.13-0.364 0.0778-0.156-0.0131-0.186-0.0903-0.309-0.0479-0.0762-0.096-0.202-0.0743-0.293 0.0145-0.061 0.0428-0.145 0.0777-0.197 0.0257-0.0385 0.0704-0.0571 0.0869-0.104 0.0277-0.0786-0.0324-0.173-0.0287-0.255 0.00709-0.153 0.11-0.203 0.231-0.254 0.159-0.0673 0.205-0.138 0.189-0.301-0.0307-0.305 0.253-0.348 0.492-0.415 0.0353-0.0202 0.0718-0.0285 0.109-0.0285z" fill="#9E9E9E"></path>
          <path d="m5.47 15.1c0.00138-0.0472-0.0311-0.141-0.0636-0.175-0.0532-0.0547-0.148-0.0356-0.211-0.0801-0.0681-0.0476-0.345-0.259-0.406-0.119-0.0439 0.1 0.0632 0.187-0.0356 0.274-0.0464 0.0405-0.0871 0.041-0.0692 0.108 0.012 0.046 0.0612 0.0861 0.0639 0.133 0.00293 0.0452-0.0487 0.0734-0.0488 0.111-3.1e-4 0.0661 0.0871 0.0779 0.131 0.102 0.076 0.0422 0.155 0.1 0.215 0.163 0.062 0.0635 0.114 0.133 0.214 0.128 0.203-0.0103 0.114-0.252 0.131-0.38 0.012-0.092 0.0767-0.171 0.0795-0.266z" fill="#9E9E9E"></path>
        </g>
      </pattern>
    </defs>
    <rect x="370" y="508" width="275" height="41" fill="#71D1ED" stroke-dasharray="4,2" stroke="#4ab29c" stroke-width="1"/>
    <rect x="370" y="508" width="275" height="40" fill="url(#rocky_reef-pattern)"></rect>
  </g>
  <g id="crater_sinkhole">
    <rect x="370" y="569" width="275" height="40" fill="#d6cbc6" stroke="#8c696b" stroke-width="4"/>
  </g>
<g id="sand">
    <defs>
      <pattern id="sand-pattern" patternUnits="userSpaceOnUse" width="32" height="32">
        <g>
          <circle cx="2.36" cy="15.7" r="0.54" fill="#999"/>
          <circle cx="4.58" cy="18.1" r="0.54" fill="#999"/>
          <circle cx="6.96" cy="18.8" r="0.54" fill="#999"/>
          <circle cx="9.86" cy="19.2" r="0.54" fill="#999"/>
          <circle cx="13.76" cy="20.1" r="0.54" fill="#999"/>
          <circle cx="15.96" cy="22.1" r="0.54" fill="#999"/>
          <circle cx="16.26" cy="25.2" r="0.54" fill="#999"/>
          <circle cx="16.96" cy="28.2" r="0.54" fill="#999"/>
          <circle cx="21.06" cy="29.1" r="0.54" fill="#999"/>
          <circle cx="22.26" cy="28.6" r="0.54" fill="#999"/>
          <circle cx="4.34" cy="16" r="0.54" fill="#999"/>
          <circle cx="6.77" cy="16.6" r="0.54" fill="#999"/>
          <circle cx="7.91" cy="13.5" r="0.54" fill="#999"/>
          <circle cx="12.46" cy="19.9" r="0.54" fill="#999"/>
          <circle cx="16.76" cy="13.9" r="0.54" fill="#999"/>
          <circle cx="19.86" cy="12.5" r="0.54" fill="#999"/>
          <circle cx="18.06" cy="21.8" r="0.54" fill="#999"/>
          <circle cx="19.16" cy="25.6" r="0.54" fill="#999"/>
          <circle cx="18.46" cy="23.9" r="0.54" fill="#999"/>
          <circle cx="19.06" cy="7.37" r="0.54" fill="#999"/>
          <circle cx="22.26" cy="11.3" r="0.54" fill="#999"/>
          <circle cx="25.36" cy="2.1" r="0.54" fill="#999"/>
          <circle cx="4.13" cy="5.09" r="0.54" fill="#999"/>
          <circle cx="12.06" cy="2.64" r="0.54" fill="#999"/>
          <circle cx="22.86" cy="7.49" r="0.54" fill="#999"/>
          <circle cx="20.36" cy="21.2" r="0.54" fill="#999"/>
          <circle cx="26.86" cy="11.3" r="0.54" fill="#999"/>
          <circle cx="29.16" cy="7.85" r="0.54" fill="#999"/>
          <circle cx="25.06" cy="4.97" r="0.54" fill="#999"/>
          <circle cx="16.26" cy="4.91" r="0.54" fill="#999"/>
          <circle cx="19.76" cy="2.28" r="0.54" fill="#999"/>
          <circle cx="30.36" cy="1.26" r="0.54" fill="#999"/>
          <circle cx="30.56" cy="26.2" r="0.54" fill="#999"/>
          <circle cx="29.86" cy="13.7" r="0.54" fill="#999"/>
          <circle cx="11.26" cy="19.5" r="0.54" fill="#999"/>
          <circle cx="30.76" cy="4.31" r="0.54" fill="#999"/>
          <circle cx="8.42" cy="19" r="0.54" fill="#999"/>
          <circle cx="5.68" cy="18.5" r="0.54" fill="#999"/>
          <circle cx="3.47" cy="17" r="0.54" fill="#999"/>
          <circle cx="14.96" cy="20.8" r="0.54" fill="#999"/>
          <circle cx="1.19" cy="14.3" r="0.54" fill="#999"/>
          <circle cx="17.66" cy="23" r="0.54" fill="#999"/>
          <circle cx="16.46" cy="23.6" r="0.54" fill="#999"/>
          <circle cx="16.36" cy="26.8" r="0.54" fill="#999"/>
          <circle cx="25.26" cy="28.7" r="0.54" fill="#999"/>
          <circle cx="27.56" cy="6.07" r="0.54" fill="#999"/>
          <circle cx="31.26" cy="6.53" r="0.54" fill="#999"/>
          <circle cx="30.06" cy="18.2" r="0.54" fill="#999"/>
          <circle cx="17.76" cy="29.3" r="0.54" fill="#999"/>
          <circle cx="3.24" cy="23.6" r="0.54" fill="#999"/>
          <circle cx="10.26" cy="17.9" r="0.54" fill="#999"/>
          <circle cx="13.06" cy="18.3" r="0.54" fill="#999"/>
          <circle cx="14.56" cy="16.6" r="0.54" fill="#999"/>
          <circle cx="24.76" cy="25.7" r="0.54" fill="#999"/>
          <circle cx="26.96" cy="27.5" r="0.54" fill="#999"/>
          <circle cx="29.36" cy="28" r="0.54" fill="#999"/>
          <circle cx="19.36" cy="29.6" r="0.54" fill="#999"/>
          <circle cx="22.16" cy="20.5" r="0.54" fill="#999"/>
          <circle cx="9.96" cy="30.8" r="0.54" fill="#999"/>
          <circle cx="19.46" cy="16.8" r="0.54" fill="#999"/>
          <circle cx="0.9" cy="31.1" r="0.54" fill="#999"/>
          <circle cx="5.81" cy="9.05" r="0.54" fill="#999"/>
          <circle cx="13.86" cy="10.5" r="0.54" fill="#999"/>
          <circle cx="23.46" cy="14.7" r="0.54" fill="#999"/>
          <circle cx="15.56" cy="19.2" r="0.54" fill="#999"/>
          <circle cx="16.76" cy="16.5" r="0.54" fill="#999"/>
          <circle cx="18.26" cy="19.3" r="0.54" fill="#999"/>
          <circle cx="9.46" cy="16.1" r="0.54" fill="#999"/>
          <circle cx="8.09" cy="16.7" r="0.54" fill="#999"/>
          <circle cx="7.01" cy="14.8" r="0.54" fill="#999"/>
          <circle cx="2.64" cy="13.4" r="0.54" fill="#999"/>
          <circle cx="3.18" cy="14.7" r="0.54" fill="#999"/>
          <circle cx="5.39" cy="16.4" r="0.54" fill="#999"/>
          <circle cx="11.76" cy="16.5" r="0.54" fill="#999"/>
          <circle cx="19.76" cy="24.2" r="0.54" fill="#999"/>
          <circle cx="13.66" cy="14.3" r="0.54" fill="#999"/>
          <circle cx="11.16" cy="13.4" r="0.54" fill="#999"/>
          <circle cx="2.04" cy="11.7" r="0.54" fill="#999"/>
          <circle cx="6.89" cy="11.6" r="0.54" fill="#999"/>
          <circle cx="20.66" cy="18.9" r="0.54" fill="#999"/>
          <circle cx="14.66" cy="18.4" r="0.54" fill="#999"/>
          <circle cx="11.76" cy="18.1" r="0.54" fill="#999"/>
          <circle cx="7.19" cy="17.6" r="0.54" fill="#999"/>
          <circle cx="9.05" cy="17.9" r="0.54" fill="#999"/>
          <circle cx="17.66" cy="25.3" r="0.54" fill="#999"/>
          <circle cx="16.86" cy="20.8" r="0.54" fill="#999"/>
          <circle cx="16.86" cy="18.2" r="0.54" fill="#999"/>
          <circle cx="19.76" cy="22.7" r="0.54" fill="#999"/>
          <circle cx="18.56" cy="28.2" r="0.54" fill="#999"/>
          <circle cx="17.96" cy="26.8" r="0.54" fill="#999"/>
          <circle cx="20.06" cy="28.1" r="0.54" fill="#999"/>
          <circle cx="21.96" cy="27.3" r="0.54" fill="#999"/>
          <circle cx="27.86" cy="26" r="0.54" fill="#999"/>
          <circle cx="28.26" cy="28.2" r="0.54" fill="#999"/>
          <circle cx="30.06" cy="29.5" r="0.54" fill="#999"/>
          <circle cx="29.06" cy="30.5" r="0.54" fill="#999"/>
          <circle cx="26.66" cy="29.1" r="0.54" fill="#999"/>
          <circle cx="26.56" cy="24.6" r="0.54" fill="#999"/>
          <circle cx="23.96" cy="27.2" r="0.54" fill="#999"/>
          <circle cx="31.46" cy="29.9" r="0.54" fill="#999"/>
          <circle cx="28.96" cy="0.6" r="0.54" fill="#999"/>
          <circle cx="31.26" cy="2.4" r="0.54" fill="#999"/>
          <circle cx="31.56" cy="0.6" r="0.54" fill="#999"/>
          <circle cx="27.86" cy="29.7" r="0.54" fill="#999"/>
          <circle cx="30.36" cy="24.6" r="0.54" fill="#999"/>
          <circle cx="28.26" cy="22.4" r="0.54" fill="#999"/>
          <circle cx="23.86" cy="19.2" r="0.54" fill="#999"/>
          <circle cx="25.86" cy="21.7" r="0.54" fill="#999"/>
          <circle cx="26.16" cy="17.2" r="0.54" fill="#999"/>
          <circle cx="22.46" cy="16.2" r="0.54" fill="#999"/>
          <circle cx="0.54" cy="27.6" r="0.54" fill="#999"/>
          <circle cx="1.44" cy="0.719" r="0.54" fill="#999"/>
          <circle cx="1.68" cy="3.18" r="0.54" fill="#999"/>
          <circle cx="3.3" cy="1.02" r="0.54" fill="#999"/>
          <circle cx="1.14" cy="4.85" r="0.54" fill="#999"/>
          <circle cx="2.76" cy="2.28" r="0.54" fill="#999"/>
          <circle cx="0.96" cy="6.95" r="0.54" fill="#999"/>
          <circle cx="7.79" cy="4.55" r="0.54" fill="#999"/>
          <circle cx="10.16" cy="7.55" r="0.54" fill="#999"/>
          <circle cx="15.36" cy="0.6" r="0.54" fill="#999"/>
          <circle cx="6.53" cy="0.42" r="0.54" fill="#999"/>
          <circle cx="21.06" cy="26.6" r="0.54" fill="#999"/>
          <circle cx="19.26" cy="26.8" r="0.54" fill="#999"/>
          <circle cx="23.06" cy="26.5" r="0.54" fill="#999"/>
          <circle cx="21.06" cy="28.1" r="0.54" fill="#999"/>
          <circle cx="22.46" cy="24.8" r="0.54" fill="#999"/>
          <circle cx="24.46" cy="23.8" r="0.54" fill="#999"/>
          <circle cx="22.66" cy="22.4" r="0.54" fill="#999"/>
          <circle cx="21.16" cy="24.6" r="0.54" fill="#999"/>
          <circle cx="25.56" cy="27.5" r="0.54" fill="#999"/>
          <circle cx="23.56" cy="28.4" r="0.54" fill="#999"/>
          <circle cx="30.46" cy="31.3" r="0.54" fill="#999"/>
          <circle cx="0.78" cy="11.5" r="0.54" fill="#999"/>
          <circle cx="0.6" cy="12.9" r="0.54" fill="#999"/>
          <circle cx="5.09" cy="14.1" r="0.54" fill="#999"/>
          <circle cx="4.43" cy="11.5" r="0.54" fill="#999"/>
          <circle cx="0.66" cy="9.47" r="0.54" fill="#999"/>
          <circle cx="4.79" cy="1.62" r="0.54" fill="#999"/>
          <circle cx="6.11" cy="3.48" r="0.54" fill="#999"/>
          <circle cx="4.01" cy="3.18" r="0.54" fill="#999"/>
        </g>
      </pattern>
    </defs>
    <rect x="370" y="630" width="275" height="40" fill="#FFE3BA"/>
    <rect x="370" y="630" width="275" height="40" fill="url(#sand-pattern)"/>
  </g>
  <g id="shoal">
    <defs>
      <pattern id="shoal-pattern" width="24" height="24" patternUnits="userSpaceOnUse">
        <path d="m21 17h-1v1h1v-1z" fill="#6C6C6C"/>
        <path d="m11 2h-1v1h1v-1z" fill="#6C6C6C"/>
        <path d="m20 13h-1v1h1v-1z" fill="#6C6C6C"/>
        <path d="m5 14h-1v1h1v-1z" fill="#6C6C6C"/>
        <path d="m12 23h-1v1h1v-1z" fill="#6C6C6C"/>
        <path d="m7 11h-1v1h1v-1z" fill="#6C6C6C"/>
        <path d="m23 22h-1v1h1v-1z" fill="#6C6C6C"/>
        <path d="m2 21h-1v1h1v-1z" fill="#6C6C6C"/>
        <path d="m23 3h-1v1h1v-1z" fill="#6C6C6C"/>
        <path d="m16 12h-1v1h1v-1z" fill="#6C6C6C"/>
        <path d="m3 18h-1v1h1v-1z" fill="#6C6C6C"/>
        <path d="m7 17h-1v1h1v-1z" fill="#6C6C6C"/>
        <path d="m4 1h-1v1h1v-1z" fill="#6C6C6C"/>
        <path d="m16 22h-1v1h1v-1z" fill="#6C6C6C"/>
        <path d="m12 7h-1v1h1v-1z" fill="#6C6C6C"/>
        <path d="m23 9h-1v1h1v-1z" fill="#6C6C6C"/>
        <path d="m8 8h-1v1h1v-1z" fill="#6C6C6C"/>
        <path d="m20 7h-1v1h1v-1z" fill="#6C6C6C"/>
        <path d="m11 18h-1v1h1v-1z" fill="#6C6C6C"/>
        <path d="m9 15h-1v1h1v-1z" fill="#6C6C6C"/>
        <path d="m3 4h-1v1h1v-1z" fill="#6C6C6C"/>
        <path d="m15 8h-1v1h1v-1z" fill="#6C6C6C"/>
        <path d="m18 20h-1v1h1v-1z" fill="#6C6C6C"/>
        <path d="m12 13h-1v1h1v-1z" fill="#6C6C6C"/>
        <path d="m2 12h-1v1h1v-1z" fill="#6C6C6C"/>
        <path d="m5 7h-1v1h1v-1z" fill="#6C6C6C"/>
        <path d="m7 22h-1v1h1v-1z" fill="#6C6C6C"/>
        <path d="m17 5h-1v1h1v-1z" fill="#6C6C6C"/>
      </pattern>
    </defs>
    <rect x="370" y="691" width="275" height="40" fill="url(#shoal-pattern)"/>
  </g>
  <g id="garden">
    <rect x="370" y="752" width="275" height="40" fill="#c6e7a5"/>
  </g>
  <g id="nature_reserve">
    <defs>
      <pattern id="nature_reserve-pattern" width="32" height="32" patternUnits="userSpaceOnUse">
        <path d="M20 5H19V10H20V6.5L23 10H24V5H23V8.5L20 5Z" fill="#6DE783"/>
        <path fill-rule="evenodd" clip-rule="evenodd" d="M25 5H28.5L29 5.5V7.5L28.5 8H27.5L29 9.5V10H28L26 8L26.0087 10H25V5ZM26.0087 7H27.9912V6H26.0087V7Z" fill="#6DE783"/>
        <path d="M4 22H3V27H4V23.5L7 27H8V22H7V25.5L4 22Z" fill="#6DE783"/>
        <path fill-rule="evenodd" clip-rule="evenodd" d="M9 22H12.5L13 22.5V24.5L12.5 25H11.5L13 26.5V27H12L10 25L10.0087 27H9V22ZM10.0087 24H11.9912V23H10.0087V24Z" fill="#6DE783"/>
      </pattern>
    </defs>
    <rect x="370" y="813" width="275" height="40" fill="none" stroke="#94e7a5" stroke-width="3"/>
    <rect x="370" y="813" width="275" height="40" fill="url(#nature_reserve-pattern)"/>
  </g>
  <g id="beach">
    <defs>
      <pattern id="beach-pattern" width="32" height="32" patternUnits="userSpaceOnUse">
        <rect width="32" height="32" fill="#FFF1BA"/>
        <path d="M4.01201 30H3.00002V31.011H4.01201V30Z" fill="#999999"/>
        <path d="M3.00002 16.989H1.98601V18H3.00002V16.989Z" fill="#999999"/>
        <path d="M29.014 13H28V14.011H29.014V13Z" fill="#999999"/>
        <path d="M14.012 20H13V21.011H14.012V20Z" fill="#999999"/>
        <path d="M20.014 14H19V15.011H20.014V14Z" fill="#999999"/>
        <path d="M30.014 10H29V11.011H30.014V10Z" fill="#999999"/>
        <path d="M18.014 12H17V13.011H18.014V12Z" fill="#999999"/>
        <path d="M24 7H22.988V8.01099H24V7Z" fill="#999999"/>
        <path d="M11.6692 12.5613H10.6552V13.5723H11.6692V12.5613Z" fill="#999999"/>
        <path d="M20 -0.0109863H18.986V1H20V-0.0109863Z" fill="#999999"/>
        <path d="M29.012 28H28V29.011H29.012V28Z" fill="#999999"/>
        <path d="M6.00002 14H4.98601V15.011H6.00002V14Z" fill="#999999"/>
        <path d="M8.01402 5H7.00002V6.01099H8.01402V5Z" fill="#999999"/>
        <path d="M15 31H13.986V32.011H15V31Z" fill="#999999"/>
        <path d="M7.01201 15.989H6.00002V17H7.01201V15.989Z" fill="#999999"/>
        <path d="M14 6H12.986V7.01099H14V6Z" fill="#999999"/>
        <path d="M16.5423 3.95996H15.5283V4.97095H16.5423V3.95996Z" fill="#999999"/>
        <path d="M2.00002 10H0.988022V11.011H2.00002V10Z" fill="#999999"/>
        <path d="M22 26.989H20.986V28H22V26.989Z" fill="#999999"/>
        <path d="M32 28H30.986V29.011H32V28Z" fill="#999999"/>
        <path d="M24 4H22.986V5.01099H24V4Z" fill="#999999"/>
        <path d="M14 24H12.988V25.011H14V24Z" fill="#999999"/>
        <path d="M28.014 9H27V10.011H28.014V9Z" fill="#999999"/>
        <path d="M27 4H25.986V5.01099H27V4Z" fill="#999999"/>
        <path d="M15.012 11.989H14V13H15.012V11.989Z" fill="#999999"/>
        <path d="M7.01402 17.989H6.00002V19H7.01402V17.989Z" fill="#999999"/>
        <path d="M11.014 23.989H10V25H11.014V23.989Z" fill="#999999"/>
        <path d="M6.01402 23H5.00002V24.011H6.01402V23Z" fill="#999999"/>
      </pattern>
    </defs>
    <rect x="370" y="874" width="275" height="40" fill="url(#beach-pattern)"/>
  </g>
  <g id="wetland">
    <defs>
      <pattern id="wetland-pattern" patternUnits="userSpaceOnUse" width="64" height="64">
          <path d="M37 22H22V23H37V22Z" fill="#2F91EA"/>
          <path d="M49 12H34V13H49V12Z" fill="#2F91EA"/>
          <path d="M16 53H1V54H16V53Z" fill="#2F91EA"/>
          <path d="M26 3H11V4H26V3Z" fill="#2F91EA"/>
          <path d="M25.7623 43.0463H10.9814V44.0463H25.7623V43.0463Z" fill="#2F91EA"/>
          <path d="M14 14H5V15H14V14Z" fill="#2F91EA"/>
          <path d="M64 25H57V26H64V25Z" fill="#2F91EA"/>
          <path d="M41 33H27V34H41V33Z" fill="#2F91EA"/>
          <path d="M59.9843 38H48V39H59.9843V38Z" fill="#2F91EA"/>
          <path d="M43 47H25V48H43V47Z" fill="#2F91EA"/>
          <path d="M64 49H57V50H64V49Z" fill="#2F91EA"/>
          <path d="M62 5H47V6H62V5Z" fill="#2F91EA"/>
          <path d="M51 62H36V63H51V62Z" fill="#2F91EA"/>
          <path d="M5 32H1V33H5V32Z" fill="#2F91EA"/>
          <path d="M27 58H23V59H27V58Z" fill="#2F91EA"/>
          <path d="M57.0955 16H49V17H57.0955V16Z" fill="#2F91EA"/>
          <path d="M6 5H2V6H6V5Z" fill="#2F91EA"/>
          <path d="M49.0112 55H41V56H49.0112V55Z" fill="#2F91EA"/>
          <path d="M17.0391 35.9948H7.58975V36.9948H17.0391V35.9948Z" fill="#2F91EA"/>
          <path d="M27 9H19V10H27V9Z" fill="#2F91EA"/>
          <path d="M46 1H39V2H46V1Z" fill="#2F91EA"/>
          <path d="M17 63H7V64H17V63Z" fill="#2F91EA"/>
          <path d="M55 28H44V29H55V28Z" fill="#2F91EA"/>
          <path d="M34 28H26V29H34V28Z" fill="#2F91EA"/>
          <path d="M16 21H9V22H16V21Z" fill="#2F91EA"/>
          <path d="M45 42H39V43H45V42Z" fill="#2F91EA"/>
          <path d="M60 59H55V60H60V59Z" fill="#2F91EA"/>
      </pattern>
    </defs>
    <rect x="370" y="935" width="275" height="40" fill="url(#wetland-pattern)"/>
  </g>
  <g id="tidal_flat_mud_flat">
    <defs>
      <pattern id="tidal_flat_mud_flat-pattern" width="64" height="64" patternUnits="userSpaceOnUse" viewBox="0 0 64 64">
          <path d="m37 21h-15v1h15v-1z" fill="#9E937C"/>
          <path d="m47 14h-15v1h15v-1z" fill="#9E937C"/>
          <path d="M16 53H1V54H16V53Z" fill="#9E937C"/>
          <path d="M23 3H8V4H23V3Z" fill="#9E937C"/>
          <path d="m26 43h-15v1h15v-1z" fill="#9E937C"/>
          <path d="m10 14h-9v1h9v-1z" fill="#9E937C"/>
          <path d="m63 25h-5v1h5v-1z" fill="#9E937C"/>
          <path d="m41 33h-14v1h14v-1z" fill="#9E937C"/>
          <path d="m62 38h-10v1h10v-1z" fill="#9E937C"/>
          <path d="m42 47h-17v1h17v-1z" fill="#9E937C"/>
          <path d="m64 49h-6v1h6v-1z" fill="#9E937C"/>
          <path d="M62 5H47V6H62V5Z" fill="#9E937C"/>
          <path d="m61 11h-15v1h15v-1z" fill="#9E937C"/>
          <path d="m56 16h-8v1h8v-1z" fill="#9E937C"/>
          <path d="m51 54h-8v1h8v-1z" fill="#9E937C"/>
          <path d="m11 38h-9v1h9v-1z" fill="#9E937C"/>
          <path d="m64 1h-7v1h7v-1z" fill="#9E937C"/>
          <path d="m25 63h-10v1h10v-1z" fill="#9E937C"/>
          <path d="m55 23h-11v1h11v-1z" fill="#9E937C"/>
          <path d="m8 49h-8v1h8v-1z" fill="#9E937C"/>
          <path d="m62 52h-5v1h5v-1z" fill="#9E937C"/>
          <path d="m22 31h-10v1h10v-1z" fill="#9E937C"/>
          <path d="m15 10.6s4.16 0.454 8.32-1.08c2.32-0.855 3.22-2.48 6.92-1.88 2.17 0.348 2.03 0.733 5.45 2 2.91 1.08 6.33 0.528 6.33 0.528" stroke="#9E937C" stroke-linecap="round" stroke-width=".89"/>
          <path d="m23.8 9.33c6.3-1.65 4.96-1.25 12 0.298" stroke="#9E937C" stroke-linecap="round" stroke-width=".89"/>
          <path d="m18.9 58.2 1.51 2.09" stroke="#9E937C"/>
          <path d="m19.9 55.5 1.78 4.76" stroke="#9E937C"/>
          <path d="m22.6 53.1-0.0195 7.31" stroke="#9E937C"/>
          <path d="m26.4 58.2-1.51 2.09" stroke="#9E937C"/>
          <path d="m25.4 55.5-1.78 4.76" stroke="#9E937C"/>
          <path d="m49 33.1 1.51 2.09" stroke="#9E937C"/>
          <path d="m49.9 30.4 1.78 4.76" stroke="#9E937C"/>
          <path d="m52.7 28-0.0195 7.31" stroke="#9E937C"/>
          <path d="m56.4 33.1-1.51 2.09" stroke="#9E937C"/>
          <path d="m55.5 30.4-1.78 4.76" stroke="#9E937C"/>
          <path d="m37.1 6.15 1.51 2.09" stroke="#9E937C"/>
          <path d="m38 3.43 1.78 4.76" stroke="#9E937C"/>
          <path d="m40.8 1.02-0.0195 7.31" stroke="#9E937C"/>
          <path d="m44.5 6.15-1.51 2.09" stroke="#9E937C"/>
          <path d="m43.6 3.43-1.78 4.76" stroke="#9E937C"/>
          <path d="m1.49 29.7s4.16 0.454 8.32-1.08c2.32-0.855 3.22-2.48 6.92-1.88 2.17 0.348 2.03 0.733 5.45 2 2.91 1.08 6.33 0.528 6.33 0.528" stroke="#9E937C" stroke-linecap="round" stroke-width=".89"/>
          <path d="m10.3 28.4c6.3-1.65 4.96-1.25 12 0.298" stroke="#9E937C" stroke-linecap="round" stroke-width=".89"/>
          <path d="m31.1 42.3s4.16 0.454 8.32-1.08c2.32-0.855 3.22-2.48 6.92-1.88 2.17 0.348 2.03 0.733 5.45 2 2.91 1.08 6.33 0.528 6.33 0.528" stroke="#9E937C" stroke-linecap="round" stroke-width=".89"/>
          <path d="m39.9 41c6.3-1.65 4.96-1.25 12 0.298" stroke="#9E937C" stroke-linecap="round" stroke-width=".89"/>
          <path d="m42.9 62.7s4.16 0.454 8.32-1.08c2.32-0.855 3.22-2.48 6.92-1.88 2.17 0.348 2.03 0.733 5.45 2" stroke="#9E937C" stroke-linecap="round" stroke-width=".89"/>
          <path d="m51.7 61.5c6.3-1.65 4.96-1.25 12 0.298" stroke="#9E937C" stroke-linecap="round" stroke-width=".89"/>
          <path d="m0 61.6c5.36 1.45 6.26 1.43 10.6 0.635" stroke="#9E937C" stroke-linecap="round" stroke-width=".89"/>
          <path d="m0.0798 19.3c1.77-0.855 2.46-2.48 5.29-1.88 1.66 0.348 1.55 0.733 4.17 2 2.23 1.08 4.84 0.528 4.84 0.528" stroke="#9E937C" stroke-linecap="round" stroke-width=".89"/>
          <path d="m0.445 19.2c4.82-1.65 3.8-1.25 9.21 0.298"  fill="#9E937C" stroke="#9E937C" stroke-linecap="round" stroke-width=".89"/>
          <path d="m63.9 19.6c-2.23 1.08-4.84 0.528-4.84 0.528"  fill="#9E937C" stroke="#9E937C" stroke-linecap="round" stroke-width=".89"/>
          <path d="m28.6 58.3s2.99 0.325 5.99-0.772c1.67-0.611 2.32-1.77 4.99-1.35 1.56 0.249 1.46 0.524 3.93 1.43 2.1 0.771 4.56 0.377 4.56 0.377" stroke="#9E937C" stroke-linecap="round" stroke-width=".89"/>
          <path d="m34.9 57.4c4.54-1.18 3.58-0.895 8.68 0.213"  fill="#9E937C" stroke="#9E937C" stroke-linecap="round" stroke-width=".89"/>
      </pattern>
    </defs>
    <rect x="370" y="996" width="275" height="40" fill="#C2C2C2"/>
    <rect x="370" y="996" width="275" height="40" fill="url(#tidal_flat_mud_flat-pattern)"/>
  </g>
  <g id="bog">
    <rect x="370" y="1057" width="275" height="40"/>
  </g>
  <g id="marsh">
    <rect x="370" y="1118" width="275" height="40"/>
  </g>
  <g id="swamp">
    <rect x="370" y="1179" width="275" height="40"/>
  </g>
  <g id="reedbed">
    <rect x="370" y="1240" width="275" height="40"/>
  </g>
  <g id="wet_meadow">
    <rect x="370" y="1301" width="275" height="40"/>
  </g>
  <g id="saltmarsh">
    <rect x="370" y="1362" width="275" height="40"/>
  </g>
  <g id="string_bog">
    <rect x="370" y="1423" width="275" height="40"/>
  </g>
  <g id="mangrove">
    <rect x="370" y="1484" width="275" height="40"/>
  </g>
  <g id="fen">
    <rect x="370" y="1545" width="275" height="40"/>
  </g>
  <g id="palsa_bog">
    <rect x="370" y="1606" width="275" height="40"/>
  </g>
  <g id="intermittent_wetland">
    <rect x="370" y="1667" width="275" height="40" fill="#D6F4F9" stroke-dasharray="4,2" stroke="#52BDE9" stroke-width="1"/>
  </g>
  <g id="mud">
    <rect x="370" y="1728" width="275" height="40" fill="#E9EEE8"/>
  </g>
  <g id="saltpond">
    <rect x="370" y="1789" width="275" height="40" fill="#D6F4F9" stroke="#52BDE9" stroke-width="1"/>
  </g>
  <g id="protected_area">
    <rect x="370" y="1850" width="275" height="40" fill="#D3EBC6" stroke-dasharray="4,2" stroke="#90C475" stroke-width="2"/>
  </g>
</svg>