<svg width="40" height="40" viewBox="0 0 40 40" fill="none" xmlns="http://www.w3.org/2000/svg" >

<g transform="translate(0.000000, 0.000000) scale(2.000000 2.000000) "> 

<g clip-path="url(#clip0)">
<path opacity="0.953" d="M9.99934 0C15.514 0 20 4.44646 20 10C20 15.5172 15.514 20 9.99934 20C4.48599 20 0 15.5172 0 10C0 4.44646 4.48599 0 9.99934 0V0Z" fill="#878787"/>
<path opacity="0.95" fill-rule="evenodd" clip-rule="evenodd" d="M10 19C14.9706 19 19 14.9706 19 10C19 5.02944 14.9706 1 10 1C5.02944 1 1 5.02944 1 10C1 14.9706 5.02944 19 10 19ZM10 20C15.5228 20 20 15.5228 20 10C20 4.47715 15.5228 0 10 0C4.47715 0 0 4.47715 0 10C0 15.5228 4.47715 20 10 20Z" fill="#404040"/>
</g>
<defs>
<clipPath id="clip0">
<path d="M0 0H20V20H0V0Z" fill="white"/>
</clipPath>
</defs>

</g>


<g transform="translate(8.000000, 8.000000) scale(2.000000 2.000000) "> 

<path d="M493.596 160.231H313.773C308.212 160.231 306.358 154.669 310.066 150.962L337.873 123.154H493.596V160.231Z" fill="#ffffff"/>
<path d="M493.596 76.8077C493.596 71.2462 489.889 67.5385 486.181 67.5385L319.335 49C311.919 49 306.358 56.4154 310.066 63.8308L345.289 104.615H493.596V76.8077Z" fill="#ffffff"/>
<path d="M356.412 123.154C348.996 134.277 345.289 147.254 345.289 160.231C345.289 201.015 378.658 234.385 419.443 234.385C460.227 234.385 493.596 201.015 493.596 160.231C493.596 147.254 489.889 134.277 482.473 123.154H356.412Z" fill="#ffffff"/>
<path d="M185.858 327.077H89.4579C83.8964 327.077 80.1887 325.223 78.3349 319.662L50.5272 175.062C48.6733 167.646 50.5272 162.085 56.0887 160.231H152.489C158.05 160.231 161.758 162.085 163.612 167.646L193.273 315.954C195.127 321.515 191.419 325.223 185.858 327.077Z" fill="#ffffff"/>
<path d="M59.7964 175.062C56.0887 163.938 61.6502 162.085 67.2118 160.231L169.173 113.885C174.735 113.885 178.443 115.738 180.296 121.3L209.958 269.608" stroke="#ffffff" stroke-width="18.5385" stroke-miterlimit="10" stroke-linecap="round" stroke-linejoin="round"/>
<path d="M289.673 499.485L460.227 271.462H352.704C336.019 271.462 319.335 277.023 306.358 290L217.373 369.715L193.273 345.615H89.4579L189.566 445.723C196.981 453.138 206.25 456.846 215.519 456.846C224.789 456.846 232.204 453.138 239.619 447.577L289.673 404.938V499.485Z" fill="#ffffff"/>
<path d="M508.427 282.585L323.043 531H530.673V327.077C530.673 308.538 521.404 293.708 508.427 282.585Z" fill="#ffffff"/>

</g>

</svg>