<svg width="300" height="40" viewBox="0 0 300 40" fill="none" xmlns="http://www.w3.org/2000/svg" xmlns:xlink="http://www.w3.org/1999/xlink">

<g transform="translate(130.000000, 0.000000) scale(2.500000 2.500000) "> 

<path fill-rule="evenodd" clip-rule="evenodd" d="M4 2.25C4.88162 2.25 5.61097 2.90193 5.73228 3.75H12C12.9665 3.75 13.75 4.5335 13.75 5.5V12C13.75 12.9665 12.9665 13.75 12 13.75C11.0335 13.75 10.25 12.9665 10.25 12V10.7414L5.75 11.8664V12C5.75 12.9665 4.9665 13.75 4 13.75C3.0335 13.75 2.25 12.9665 2.25 12V4C2.25 3.0335 3.0335 2.25 4 2.25Z" fill="#EBE7E4" fill-opacity="0.8"/>

</g>%n%n
<g transform="translate(138.000000, 8.000000) scale(0.750000 0.750000) "> 

<defs>
<filter id="filter-remove-color" x="0%" y="0%" width="100%" height="100%">
<feColorMatrix color-interpolation-filters="sRGB" values="0 0 0 0 1 0 0 0 0 1 0 0 0 0 1 0 0 0 1 0" />
</filter>
<mask id="mask-0">
<g filter="url(#filter-remove-color)">
<rect x="-3.2" y="-3.2" width="38.4" height="38.4" fill="rgb(0%, 0%, 0%)" fill-opacity="0.6"/>
</g>
</mask>
<clip100Path id="clip100-0">
<rect x="0" y="0" width="32" height="32"/>
</clip100Path>
<g id="source-6" clip100-path="url(#clip100-0)">
<path fill-rule="evenodd" fill="rgb(26.666667%, 26.666667%, 26.666667%)" fill-opacity="1" d="M 26.667969 8.667969 C 27.769531 8.667969 28.667969 9.5625 28.667969 10.667969 L 28.667969 26.667969 C 28.667969 27.769531 27.769531 28.667969 26.667969 28.667969 C 25.5625 28.667969 24.667969 27.769531 24.667969 26.667969 L 24.667969 10.667969 C 24.667969 9.5625 25.5625 8.667969 26.667969 8.667969 Z M 26.667969 8.667969 "/>
</g>
</defs>
<g mask="url(#mask-0)">
<use xlink:href="#source-6"/>
</g>
<path fill-rule="evenodd" fill="rgb(26.666667%, 26.666667%, 26.666667%)" fill-opacity="1" d="M 7.332031 5.332031 C 7.332031 4.230469 6.4375 3.332031 5.332031 3.332031 C 4.230469 3.332031 3.332031 4.230469 3.332031 5.332031 L 3.332031 26.667969 C 3.332031 27.769531 4.230469 28.667969 5.332031 28.667969 C 6.4375 28.667969 7.332031 27.769531 7.332031 26.667969 L 7.332031 24.226562 L 27.152344 19.273438 C 28.042969 19.050781 28.667969 18.25 28.667969 17.332031 L 28.667969 9.332031 C 28.667969 8.230469 27.769531 7.332031 26.667969 7.332031 L 7.332031 7.332031 Z M 7.332031 11.332031 L 7.332031 20.105469 L 24.667969 15.773438 L 24.667969 11.332031 Z M 7.332031 11.332031 "/>

</g>%n%n</svg>