<svg width="300" height="40" viewBox="0 0 300 40" fill="none" xmlns="http://www.w3.org/2000/svg" xmlns:xlink="http://www.w3.org/1999/xlink">

<g transform="translate(130.000000, 0.000000) scale(2.500000 2.500000) "> 

<path opacity="0.812" d="M4.60664 2.28046C4.32614 2.28048 4.04657 2.39519 3.84822 2.59354C3.64988 2.79188 3.53517 3.07145 3.53514 3.35196V4.07522L3.16179 4.53061H3.07641C2.7959 4.53063 2.51633 4.64534 2.31799 4.84369C2.11964 5.04203 2.00494 5.3216 2.00491 5.60211V5.9403L1.50432 6.54971C1.32613 6.76662 1.23907 7.05557 1.26658 7.33492C1.29409 7.61428 1.43625 7.8802 1.65332 8.05819L1.8559 8.22561L1.50599 8.65086C1.32757 8.8675 1.23946 9.15505 1.26658 9.43439C1.2937 9.71374 1.43656 9.98105 1.65332 10.1593L1.99486 10.4406V12.5953C1.99489 12.8758 2.10959 13.1554 2.30794 13.3537C2.50629 13.5521 2.78586 13.6668 3.06636 13.6668H3.07641H3.84655H11.491C11.7715 13.6668 12.0511 13.5521 12.2495 13.3537C12.4478 13.1554 12.5625 12.8758 12.5625 12.5953V10.2849V9.85127H13.0313C13.3118 9.85125 13.5914 9.73654 13.7897 9.5382C13.9881 9.33985 14.1028 9.06028 14.1028 8.77977V7.27967L14.4996 6.7975C14.6778 6.5806 14.7649 6.29165 14.7373 6.01229C14.7098 5.73293 14.5677 5.46701 14.3506 5.28903L14.148 5.12328L14.4996 4.69635C14.6778 4.47945 14.7649 4.1905 14.7373 3.91115C14.7098 3.63179 14.5677 3.36586 14.3506 3.18788L13.9639 2.86978L14.0275 2.95684C13.8702 2.56085 13.4574 2.28035 13.0313 2.28046H12.2612C11.9807 2.28048 11.7011 2.39519 11.5028 2.59354C11.3044 2.79188 11.1897 3.07145 11.1897 3.35196V4.13717L10.8665 4.53061H10.7192C10.4387 4.53063 10.1591 4.64534 9.96079 4.84369C9.76245 5.04203 9.64774 5.3216 9.64772 5.60211V6.01396L9.6226 6.04577H6.99743C6.97492 5.75724 6.87131 5.47359 6.64752 5.28903L6.44996 5.12663V5.11825L6.79652 4.69635C6.9747 4.47945 7.06177 4.1905 7.03426 3.91115C7.00675 3.63179 6.86459 3.36586 6.64752 3.18788L6.37127 2.96186C6.31753 2.82499 6.24088 2.69754 6.13688 2.59354C5.93853 2.39519 5.65896 2.28048 5.37846 2.28046H4.60664V2.28046Z" fill="#EBE7E4"/>

</g>%n%n
<g transform="translate(138.000000, 8.000000) scale(2.000000 2.000000) "> 

<defs>
<filter id="filter-remove-color" x="0%" y="0%" width="100%" height="100%">
<feColorMatrix color-interpolation-filters="sRGB" values="0 0 0 0 1 0 0 0 0 1 0 0 0 0 1 0 0 0 1 0" />
</filter>
<mask id="mask-0">
<g filter="url(#filter-remove-color)">
<rect x="-1.2" y="-1.2" width="14.4" height="14.4" fill="rgb(0%, 0%, 0%)" fill-opacity="0.75"/>
</g>
</mask>
<mask id="mask-1">
<g filter="url(#filter-remove-color)">
<rect x="-2.64" y="-2.64" width="17.28" height="17.28" fill="rgb(0%, 0%, 0%)" fill-opacity="0.75"/>
</g>
</mask>
<clip100Path id="clip100-0">
<rect x="0" y="0" width="12" height="12"/>
</clip100Path>
<g id="source-7" clip100-path="url(#clip100-0)">
<path fill-rule="nonzero" fill="rgb(26.666667%, 26.666667%, 26.666667%)" fill-opacity="1" d="M 9.050781 8.019531 L 1.683594 8.019531 L 1.683594 10.042969 L 9.050781 10.042969 Z M 9.050781 8.019531 "/>
</g>
<clip100Path id="clip100-1">
<rect x="0" y="0" width="12" height="12"/>
</clip100Path>
<g id="source-9" clip100-path="url(#clip100-1)">
<g mask="url(#mask-1)">
<use xlink:href="#source-7"/>
</g>
</g>
<mask id="mask-2">
<g filter="url(#filter-remove-color)">
<rect x="-1.2" y="-1.2" width="14.4" height="14.4" fill="rgb(0%, 0%, 0%)" fill-opacity="0.75"/>
</g>
</mask>
<mask id="mask-3">
<g filter="url(#filter-remove-color)">
<rect x="-2.64" y="-2.64" width="17.28" height="17.28" fill="rgb(0%, 0%, 0%)" fill-opacity="0.75"/>
</g>
</mask>
<clip100Path id="clip100-2">
<rect x="0" y="0" width="12" height="12"/>
</clip100Path>
<g id="source-14" clip100-path="url(#clip100-2)">
<path fill-rule="nonzero" fill="rgb(26.666667%, 26.666667%, 26.666667%)" fill-opacity="1" d="M 10.398438 5.25 L 3.03125 5.25 L 3.03125 6.675781 L 10.398438 6.675781 Z M 10.398438 5.25 "/>
</g>
<clip100Path id="clip100-3">
<rect x="0" y="0" width="12" height="12"/>
</clip100Path>
<g id="source-16" clip100-path="url(#clip100-3)">
<g mask="url(#mask-3)">
<use xlink:href="#source-14"/>
</g>
</g>
</defs>
<g mask="url(#mask-0)">
<use xlink:href="#source-9"/>
</g>
<g mask="url(#mask-2)">
<use xlink:href="#source-16"/>
</g>
<path fill-rule="nonzero" fill="rgb(26.666667%, 26.666667%, 26.666667%)" fill-opacity="1" d="M 4.21875 2.539062 L 3.703125 2.113281 L 3.703125 1.957031 L 3.03125 1.957031 L 3.03125 2.925781 L 2.210938 3.925781 L 1.691406 3.925781 L 1.691406 4.558594 L 1.042969 5.347656 L 1.5625 5.777344 L 1.691406 5.617188 L 1.691406 6.394531 L 1.042969 7.1875 L 1.5625 7.613281 L 1.691406 7.457031 L 1.691406 10.042969 L 2.367188 10.042969 L 2.367188 6.636719 L 3.03125 5.824219 L 3.03125 6.675781 L 3.703125 6.675781 L 3.703125 5.003906 L 4.21875 4.375 L 3.703125 3.953125 L 3.703125 3.167969 Z M 3.03125 4.761719 L 2.367188 5.574219 L 2.367188 4.796875 L 3.03125 3.988281 Z M 3.03125 4.761719 "/>
<path fill-rule="nonzero" fill="rgb(26.666667%, 26.666667%, 26.666667%)" fill-opacity="1" d="M 10.4375 3.949219 L 10.398438 3.996094 L 10.398438 3.21875 L 10.957031 2.539062 L 10.4375 2.109375 L 10.398438 2.15625 L 10.398438 1.957031 L 9.726562 1.957031 L 9.726562 2.976562 L 8.949219 3.925781 L 8.378906 3.925781 L 8.378906 4.621094 L 7.78125 5.347656 L 8.300781 5.777344 L 8.378906 5.683594 L 8.378906 6.460938 L 7.78125 7.1875 L 8.300781 7.613281 L 8.378906 7.519531 L 8.378906 10.042969 L 9.050781 10.042969 L 9.050781 6.699219 L 9.726562 5.878906 L 9.726562 6.703125 L 10.398438 6.703125 L 10.398438 5.058594 L 10.957031 4.375 Z M 9.050781 5.636719 L 9.050781 4.863281 L 9.726562 4.039062 L 9.726562 4.816406 Z M 9.050781 5.636719 "/>

</g>%n%n</svg>