<svg width="300" height="40" viewBox="0 0 300 40" fill="none" xmlns="http://www.w3.org/2000/svg" xmlns:xlink="http://www.w3.org/1999/xlink">

<g transform="translate(130.000000, 0.000000) scale(2.500000 2.500000) "> 

<path opacity="0.812" d="M7.61838 2C7.38081 2.00011 7.153 2.09379 6.98501 2.26046C6.81702 2.42712 6.7226 2.65313 6.72248 2.88883V2.90806L3.03304 7.06384H2.8959C2.65833 7.06395 2.43052 7.15763 2.26253 7.3243C2.09454 7.49096 2.00011 7.71698 2 7.95267V13.0638C2.00011 13.2995 2.09454 13.5256 2.26253 13.6922C2.43052 13.8589 2.65833 13.9526 2.8959 13.9527H3.49217C3.68562 13.9524 3.87378 13.89 4.02853 13.7748C4.18329 13.6597 4.29634 13.4979 4.35081 13.3138H6.74783C6.7939 13.5087 6.90491 13.6825 7.06289 13.807C7.22088 13.9315 7.4166 13.9995 7.61838 14H8.47702C8.6788 13.9995 8.87452 13.9315 9.03251 13.807C9.1905 13.6825 9.30151 13.5087 9.34758 13.3138H11.6492C11.7037 13.4979 11.8167 13.6597 11.9715 13.7748C12.1262 13.89 12.3144 13.9524 12.5078 13.9527H13.1041C13.3417 13.9526 13.5695 13.8589 13.7375 13.6922C13.9055 13.5256 13.9999 13.2995 14 13.0638V7.95267C13.9999 7.71698 13.9055 7.49096 13.7375 7.3243C13.5695 7.15763 13.3417 7.06395 13.1041 7.06384H12.9491L9.37292 2.91545V2.88883C9.37281 2.65314 9.27838 2.42712 9.11039 2.26046C8.9424 2.09379 8.71459 2.00011 8.47702 2H7.61838ZM6.72248 6.55953V7.06384H6.27826L6.72248 6.55953ZM9.37292 6.60981L9.76646 7.06384H9.37292V6.60981Z" fill="#EBE7E4"/>

</g>%n%n
<g transform="translate(138.000000, 8.000000) scale(2.000000 2.000000) "> 

<defs>
<filter id="filter-remove-color" x="0%" y="0%" width="100%" height="100%">
<feColorMatrix color-interpolation-filters="sRGB" values="0 0 0 0 1 0 0 0 0 1 0 0 0 0 1 0 0 0 1 0" />
</filter>
<mask id="mask-0">
<g filter="url(#filter-remove-color)">
<rect x="-1.2" y="-1.2" width="14.4" height="14.4" fill="rgb(0%, 0%, 0%)" fill-opacity="0.752"/>
</g>
</mask>
<clip100Path id="clip100-0">
<rect x="0" y="0" width="12" height="12"/>
</clip100Path>
<g id="source-11" clip100-path="url(#clip100-0)">
<path fill="none" stroke-width="28.2995" stroke-linecap="butt" stroke-linejoin="miter" stroke="rgb(26.666667%, 26.666667%, 26.666667%)" stroke-opacity="1" stroke-miterlimit="4" d="M 61.927083 288.111979 L 61.927083 533.177083 " transform="matrix(0.0206897, 0, 0, 0.0206897, 0, 0)"/>
</g>
<mask id="mask-1">
<g filter="url(#filter-remove-color)">
<rect x="-1.2" y="-1.2" width="14.4" height="14.4" fill="rgb(0%, 0%, 0%)" fill-opacity="0.752"/>
</g>
</mask>
<clip100Path id="clip100-1">
<rect x="0" y="0" width="12" height="12"/>
</clip100Path>
<g id="source-15" clip100-path="url(#clip100-1)">
<path fill="none" stroke-width="28.2995" stroke-linecap="butt" stroke-linejoin="miter" stroke="rgb(26.666667%, 26.666667%, 26.666667%)" stroke-opacity="1" stroke-miterlimit="4" d="M 518.072917 288.300781 L 518.072917 533.177083 " transform="matrix(0.0206897, 0, 0, 0.0206897, 0, 0)"/>
</g>
</defs>
<path fill="none" stroke-width="30" stroke-linecap="round" stroke-linejoin="round" stroke="rgb(26.666667%, 26.666667%, 26.666667%)" stroke-opacity="1" stroke-miterlimit="4" d="M 91.191406 291.699219 L 292.832031 61.927083 L 488.808594 291.321615 " transform="matrix(0.0206897, 0, 0, 0.0206897, 0, 0)"/>
<path fill="none" stroke-width="40" stroke-linecap="butt" stroke-linejoin="miter" stroke="rgb(26.666667%, 26.666667%, 26.666667%)" stroke-opacity="1" stroke-miterlimit="4" d="M 292.832031 45.3125 L 292.832031 534.6875 " transform="matrix(0.0206897, 0, 0, 0.0206897, 0, 0)"/>
<path fill="none" stroke-width="47.534" stroke-linecap="butt" stroke-linejoin="miter" stroke="rgb(26.666667%, 26.666667%, 26.666667%)" stroke-opacity="1" stroke-miterlimit="4" d="M 75.898438 312.089844 L 504.101562 312.089844 " transform="matrix(0.0206897, 0, 0, 0.0206897, 0, 0)"/>
<path fill="none" stroke-width="47.534" stroke-linecap="butt" stroke-linejoin="miter" stroke="rgb(26.666667%, 26.666667%, 26.666667%)" stroke-opacity="1" stroke-miterlimit="4" d="M 75.898438 396.295573 L 504.101562 396.295573 " transform="matrix(0.0206897, 0, 0, 0.0206897, 0, 0)"/>
<path fill="none" stroke-width="47.534" stroke-linecap="butt" stroke-linejoin="miter" stroke="rgb(26.666667%, 26.666667%, 26.666667%)" stroke-opacity="1" stroke-miterlimit="4" d="M 75.898438 478.802083 L 504.101562 478.802083 " transform="matrix(0.0206897, 0, 0, 0.0206897, 0, 0)"/>
<g mask="url(#mask-0)">
<use xlink:href="#source-11"/>
</g>
<g mask="url(#mask-1)">
<use xlink:href="#source-15"/>
</g>

</g>%n%n</svg>