<svg width="300" height="40" viewBox="0 0 300 40" fill="none" xmlns="http://www.w3.org/2000/svg" xmlns:xlink="http://www.w3.org/1999/xlink" version="1.1">

<g transform="translate(130.000000, 0.000000) scale(2.500000 2.500000) "> 

<path opacity="0.812" d="M9.57492 2.00175C9.51964 2.00478 9.46238 2.01048 9.40204 2.02236C9.40141 2.02236 9.40078 2.02236 9.40014 2.02236L7.38257 2.42714C7.07922 2.48832 6.83004 2.67538 6.65305 2.91249C6.57895 2.96145 6.52592 3.0177 6.47257 3.07365C6.36967 3.06902 6.26549 3.05967 6.14391 3.09427L4.34861 3.60024C3.97113 3.70676 3.71482 4.00926 3.5792 4.35731C3.37053 4.35523 3.15701 4.38329 2.96367 4.49599C2.67976 4.66147 2.47364 4.93601 2.39373 5.25119L2.01757 6.73537C1.9404 7.03948 2.02361 7.33958 2.17336 7.60301L2.16006 7.61238C2.15942 7.61238 2.15879 7.61238 2.15816 7.61238C1.93039 7.78435 1.77896 8.03158 1.71361 8.29824L1.7459 8.22703C1.60982 8.42644 1.53346 8.66398 1.53313 8.90728V9.64187H1.39824C0.894318 9.64187 0.54939 9.92115 0.379957 10.1254C0.230494 10.3055 0.158079 10.4758 0.115887 10.5957C0.0266316 10.8494 0 11.0887 0 11.3209C0 11.5532 0.0266315 11.7925 0.115887 12.0462C0.15808 12.1661 0.230495 12.3364 0.379957 12.5165C0.54939 12.7207 0.894318 13 1.39824 13H14.6037C15.109 13 15.4561 12.7173 15.6257 12.5109C15.7749 12.3294 15.8466 12.158 15.8879 12.0387C15.9752 11.7864 16 11.5508 16 11.3209C16 11.0911 15.9752 10.8555 15.8879 10.6032C15.8466 10.4839 15.7749 10.3125 15.6257 10.131C15.4561 9.92461 15.109 9.64187 14.6037 9.64187H14.4802C14.445 9.54344 14.4018 9.44985 14.3415 9.36265C14.3979 9.25115 14.4627 9.13729 14.4726 8.98224L14.6094 6.83656C14.6286 6.51553 14.497 6.21496 14.2902 5.98016C14.28 5.96856 14.2742 5.95392 14.2636 5.94268C14.2636 5.94206 14.2636 5.94143 14.2636 5.94081L14.2807 5.96142C14.2807 5.9608 14.2807 5.96018 14.2807 5.95955C14.2729 5.94445 14.2639 5.93039 14.2541 5.91645C14.2479 5.90764 14.2467 5.91189 14.2408 5.90521C14.2404 5.9047 14.2413 5.90383 14.2408 5.90334C14.2402 5.90271 14.2395 5.90209 14.2389 5.90147C14.2389 5.90084 14.2389 5.90022 14.2389 5.8996C14.2343 5.89339 14.2264 5.89072 14.2218 5.8846C14.2209 5.8835 14.2188 5.88383 14.218 5.88273C14.0422 5.654 13.783 5.51984 13.5018 5.45545L13.1199 4.55408C13.1193 4.5522 13.1187 4.55032 13.118 4.54846L13.1142 4.53908C13.1142 4.53783 13.1142 4.53658 13.1142 4.53533C12.971 4.19795 12.6615 3.99037 12.3201 3.88695V3.79325C12.3202 3.7105 12.3072 3.63164 12.2916 3.55526C12.3239 3.2716 12.2738 2.97479 12.1016 2.72885C11.906 2.4494 11.5977 2.26272 11.2581 2.21538L9.82189 2.013C9.74158 2.00148 9.65984 1.99728 9.57682 2.00175C9.57619 2.00175 9.57555 2.00175 9.57492 2.00175Z" fill="#EBE7E4"/>

</g>%n%n
<g transform="translate(138.000000, 8.000000) scale(2.000000 2.000000) "> 

<g id="surface1">
<path style=" stroke:none;fill-rule:nonzero;fill:rgb(26.666668%,26.666668%,26.666668%);fill-opacity:1;" d="M 3.601562 9.5 L 4.167969 8.09375 L 0.539062 8.09375 L 0.539062 9.5 Z M 3.601562 9.5 "/>
<path style=" stroke:none;fill-rule:nonzero;fill:rgb(26.666668%,26.666668%,26.666668%);fill-opacity:1;" d="M 4.925781 6.71875 L 4.167969 7.691406 L 0.683594 7.691406 L 2.023438 6.464844 Z M 4.925781 6.71875 "/>
<path style=" stroke:none;fill-rule:nonzero;fill:rgb(26.666668%,26.666668%,26.666668%);fill-opacity:1;" d="M 3.828125 9.5 L 4.925781 8.796875 L 4.925781 7.078125 L 4.359375 8.09375 Z M 3.828125 9.5 "/>
<path style=" stroke:none;fill-rule:nonzero;fill:rgb(26.666668%,26.666668%,26.666668%);fill-opacity:1;" d="M 8.28125 9.5 L 10.050781 6.761719 L 6.199219 5.75 L 5.246094 8.09375 Z M 8.28125 9.5 "/>
<path style=" stroke:none;fill-rule:nonzero;fill:rgb(26.666668%,26.666668%,26.666668%);fill-opacity:1;" d="M 6.550781 5.226562 L 11.359375 5.226562 L 10.050781 6.46875 Z M 6.550781 5.226562 "/>
<path style=" stroke:none;fill-rule:nonzero;fill:rgb(26.666668%,26.666668%,26.666668%);fill-opacity:1;" d="M 8.8125 9.5 L 11.359375 8.09375 L 11.5 5.414062 L 10.300781 6.675781 Z M 8.8125 9.5 "/>
<path style=" stroke:none;fill-rule:nonzero;fill:rgb(26.666668%,26.666668%,26.666668%);fill-opacity:1;" d="M 5.558594 6.46875 L 5.558594 5.214844 L 1.390625 3.894531 L 1 5.75 Z M 5.558594 6.46875 "/>
<path style=" stroke:none;fill-rule:nonzero;fill:rgb(26.666668%,26.666668%,26.666668%);fill-opacity:1;" d="M 5.558594 8.796875 L 5.101562 9.5 L 6.761719 9.5 Z M 5.558594 8.796875 "/>
<path style=" stroke:none;fill-rule:nonzero;fill:rgb(26.666668%,26.666668%,26.666668%);fill-opacity:1;" d="M 10.6875 8.796875 L 9.664062 9.5 L 11.5 9.5 Z M 10.6875 8.796875 "/>
<path style=" stroke:none;fill-rule:nonzero;fill:rgb(26.666668%,26.666668%,26.666668%);fill-opacity:1;" d="M 8.035156 2.210938 L 6.550781 4.738281 L 4.167969 3.894531 L 5.242188 1.871094 Z M 8.035156 2.210938 "/>
<path style=" stroke:none;fill-rule:nonzero;fill:rgb(26.666668%,26.666668%,26.666668%);fill-opacity:1;" d="M 9.132812 1.238281 L 8.246094 1.871094 L 5.558594 1.492188 L 7.648438 0.988281 Z M 9.132812 1.238281 "/>
<path style=" stroke:none;fill-rule:nonzero;fill:rgb(26.666668%,26.666668%,26.666668%);fill-opacity:1;" d="M 9.132812 3.558594 L 9.132812 1.703125 L 8.351562 2.378906 L 6.761719 4.738281 Z M 9.132812 3.558594 "/>
<path style=" stroke:none;fill-rule:nonzero;fill:rgb(26.666668%,26.666668%,26.666668%);fill-opacity:1;" d="M 8.210938 4.527344 L 10.578125 4.738281 L 10.050781 3.21875 L 9.664062 3.894531 Z M 8.210938 4.527344 "/>
<path style=" stroke:none;fill-rule:nonzero;fill:rgb(26.666668%,26.666668%,26.666668%);fill-opacity:1;" d="M 4.375 2.292969 L 3.6875 3.476562 L 3.828125 4.191406 L 2.550781 3.695312 L 2.519531 2.925781 Z M 4.375 2.292969 "/>
<path style=" stroke:none;fill-rule:evenodd;fill:rgb(26.666668%,26.666668%,26.666668%);fill-opacity:1;" d="M 0.5 10.5 L 0.5 11 L 11.5 11 L 11.5 10.5 Z M 0.5 10.5 "/>
</g>

</g>%n%n</svg>