<svg width="40" height="40" viewBox="0 0 40 40" fill="none" xmlns="http://www.w3.org/2000/svg" >

<g transform="translate(0.000000, 0.000000) scale(2.500000 2.500000) "> 

 <path transform="matrix(.8 0 0 .8 1.6 1.7238)" d="m5.5234 3.7598c-1.3742 2.759e-4 -2.4769 1.1513-2.7734 2.4766h-0.94336a1.7641 1.7641 0 0 0-1.7402 2.0547s0.17047 1.0862 0.6543 2.2461c0.24192 0.57994 0.55842 1.2054 1.0937 1.7891 0.53533 0.58363 1.4184 1.1523 2.4707 1.1523h7.4297c1.0523 0 1.9354-0.56871 2.4707-1.1523 0.53533-0.58364 0.85184-1.2091 1.0938-1.7891 0.48383-1.1599 0.6543-2.2461 0.6543-2.2461a1.7641 1.7641 0 0 0-1.7402-2.0547h-0.93555c-0.2823-1.3597-1.3477-2.4766-2.7812-2.4766-0.4889 0-0.85237 0.31486-1.2637 0.5293-0.40072-0.20938-0.75682-0.52921-1.2129-0.5293-0.46571 9.36e-5 -0.83098 0.32339-1.2383 0.54102-0.4073-0.21762-0.77257-0.54092-1.2383-0.54102z" fill="#ebe7e4" opacity=".8" stop-color="#000000" stroke-width="1.5625" style="-inkscape-stroke:none;font-variation-settings:normal"/>

</g>


<g transform="translate(8.000000, 8.000000) scale(0.500000 0.500000) "> 

<path d="M4 24H44C44 24 42 36 36 36C30 36 18 36 12 36C6 36 4 24 4 24Z" fill="#444444"/>
<circle cx="16" cy="20" r="4" fill="#444444" fill-opacity="0.7"/>
<circle cx="24" cy="20" r="4" fill="#444444" fill-opacity="0.7"/>
<path d="M36 20C36 22.2091 34.2091 24 32 24C29.7909 24 28 22.2091 28 20C28 17.7909 29.7909 16 32 16C34.2091 16 36 17.7909 36 20Z" fill="#444444" fill-opacity="0.7"/>

</g>

</svg>