<svg width="300" height="35" viewBox="0 0 300 35" fill="none" xmlns="http://www.w3.org/2000/svg" >

<g transform="translate(135.000000, 2.000000) scale(1.875000 1.875000) "> 

<path opacity="0.812" d="M8 1.29868C4.33056 1.29868 1.32991 4.29932 1.32991 7.96876C1.32991 11.6382 4.33056 14.6389 8 14.6389C11.6694 14.6389 14.6701 11.6382 14.6701 7.96876C14.6701 4.29932 11.6694 1.29868 8 1.29868ZM11.3049 5.51938C11.815 6.21343 12.1788 7.02528 12.1788 7.96876C12.1788 9.31071 11.4866 10.4173 10.5197 11.1816L8.49557 9.2847C8.34787 9.14637 8.15344 9.06884 7.95108 9.0676C7.74873 9.06636 7.55335 9.14149 7.40398 9.278L5.39324 11.1213C4.47789 10.3545 3.82115 9.27054 3.82115 7.96876C3.82115 7.0277 4.19343 6.21786 4.71183 5.52273L7.42909 8.02401C7.57621 8.1595 7.76857 8.23527 7.96857 8.23651C8.16857 8.23774 8.36185 8.16436 8.51063 8.03071L11.3049 5.51938Z" fill="#EBE7E4"/>

</g>


<g transform="translate(141.000000, 8.000000) scale(0.031034 0.031034) "> 

<path d="M128.889 119.683L289.233 266.984L449.484 122.488L340.683 62.4652C340.683 62.4652 238.695 66.8051 227.846 68.9751C216.996 71.145 155.152 100.439 155.152 100.439L128.889 119.683Z" fill="#444444"/>
<path d="M519.392 290C519.392 350.838 495.224 409.185 452.204 452.204C409.185 495.224 350.838 519.392 290 519.392C229.162 519.392 170.815 495.224 127.796 452.204C84.7764 409.185 60.6084 350.838 60.6084 290C60.6084 229.162 84.7764 170.815 127.796 127.796C170.815 84.7764 229.162 60.6085 290 60.6085C350.838 60.6085 409.185 84.7764 452.204 127.796C495.224 170.815 519.392 229.162 519.392 290V290Z" stroke="#444444" stroke-width="37" stroke-linecap="round" stroke-linejoin="round"/>
<path d="M167.948 480.41L287.915 369.984L404.747 479.389L326.894 523.35C326.894 523.35 250.355 520.093 242.212 518.464C234.07 516.836 187.658 494.851 187.658 494.851L167.948 480.41Z" fill="#444444"/>

</g>

</svg>