<svg width="300" height="40" viewBox="0 0 300 40" fill="none" xmlns="http://www.w3.org/2000/svg" >

<g transform="translate(130.000000, 0.000000) scale(2.500000 2.500000) "> 

<path opacity="0.812" d="M3.11573 2.91483C2.63928 2.91483 2.30645 3.1196 2.06265 3.36352C1.81943 3.60707 1.61563 3.93889 1.61563 4.41493V11.6743C1.61563 12.1508 1.82051 12.4837 2.06432 12.7274C2.39497 13.0572 2.81388 13.1477 3.11573 13.1477H4.16044C4.46248 13.1477 4.88257 13.0568 5.21353 12.7257C5.45671 12.4822 5.66054 12.1504 5.66054 11.6743V9.16134L10.5911 10.9913L10.499 10.9528C10.5356 10.9704 10.5786 10.94 10.6162 10.9545V11.7547C10.6161 11.9889 10.6617 12.4048 11.0113 12.7543C11.368 13.1098 11.7737 13.1478 12.0092 13.1477H13.2414C13.4768 13.1478 13.884 13.1095 14.2409 12.7526C14.5964 12.396 14.6345 11.9902 14.6344 11.7547V4.38818C14.6345 4.15271 14.4875 3.66362 14.2392 3.41542C13.9912 3.16774 13.6939 2.99497 13.2414 2.99519H12.0092C11.5563 2.99492 11.2579 3.16876 11.0097 3.41709C10.7621 3.66571 10.6161 4.15288 10.6162 4.38814V7.33979L5.64548 5.4948C5.65496 5.43892 5.66 5.38238 5.66054 5.3257V4.41493C5.66054 3.93847 5.45577 3.60565 5.21185 3.36184C4.96829 3.11863 4.63648 2.91483 4.16044 2.91483H3.11573ZM4.13533 5.03104L4.21737 5.03606C4.19786 5.03403 4.17834 5.03742 4.15877 5.03606C4.15075 5.03573 4.14336 5.03125 4.13533 5.03104Z" fill="#EBE7E4"/>

</g>


<g transform="translate(138.000000, 8.000000) scale(0.041379 0.041379) "> 

<path d="M124.726 239.072L423.389 350.032" stroke="#444444" stroke-width="54.685" stroke-linecap="round"/>
<path opacity="0.75" d="M458.25 124.906C454.527 124.904 450.826 126.436 448.194 129.069C445.561 131.701 444.03 135.402 444.031 139.125L444.324 298.929C444.324 298.929 483.566 301.935 481.688 351.293C479.81 400.651 444.208 401.379 444.208 401.379L444.031 449.656C444.029 453.457 445.561 457.08 448.194 459.712C450.826 462.345 454.527 463.877 458.25 463.875H510.094C513.817 463.877 517.517 462.345 520.15 459.712C522.782 457.08 524.314 453.379 524.312 449.656V139.125C524.314 135.402 522.782 131.701 520.15 129.069C517.517 126.436 513.817 124.905 510.094 124.906H458.25Z" fill="#444444"/>
<path opacity="0.75" d="M81.75 121.906C77.1113 121.906 72.4988 123.814 69.2188 127.094C65.9387 130.374 64.0314 134.986 64.0312 139.625V446.156C64.0314 450.795 65.9387 455.407 69.2188 458.688C72.4988 461.968 77.1113 463.875 81.75 463.875H126.594C131.232 463.875 135.845 461.968 139.125 458.688C142.405 455.407 144.312 450.795 144.312 446.156V291.688C121.897 298.57 95.0114 292.474 80.5312 273.438C58.5706 247.169 69.7759 200.748 102.156 188.5C116.206 185.246 130.26 182.022 144.312 178.781V139.625C144.312 134.986 142.405 130.374 139.125 127.094C135.845 123.814 131.232 121.906 126.594 121.906H81.75Z" fill="#444444"/>

</g>

</svg>