<svg width="300" height="40" viewBox="0 0 300 40" fill="none" xmlns="http://www.w3.org/2000/svg" xmlns:xlink="http://www.w3.org/1999/xlink">

<g transform="translate(130.000000, 0.000000) scale(2.500000 2.500000) "> 

 <path transform="matrix(.8 0 0 .8 1.6 1.7238)" d="m5.5234 3.7598c-1.3742 2.759e-4 -2.4769 1.1513-2.7734 2.4766h-0.94336a1.7641 1.7641 0 0 0-1.7402 2.0547s0.17047 1.0862 0.6543 2.2461c0.24192 0.57994 0.55842 1.2054 1.0937 1.7891 0.53533 0.58363 1.4184 1.1523 2.4707 1.1523h7.4297c1.0523 0 1.9354-0.56871 2.4707-1.1523 0.53533-0.58364 0.85184-1.2091 1.0938-1.7891 0.48383-1.1599 0.6543-2.2461 0.6543-2.2461a1.7641 1.7641 0 0 0-1.7402-2.0547h-0.93555c-0.2823-1.3597-1.3477-2.4766-2.7812-2.4766-0.4889 0-0.85237 0.31486-1.2637 0.5293-0.40072-0.20938-0.75682-0.52921-1.2129-0.5293-0.46571 9.36e-5 -0.83098 0.32339-1.2383 0.54102-0.4073-0.21762-0.77257-0.54092-1.2383-0.54102z" fill="#ebe7e4" opacity=".8" stop-color="#000000" stroke-width="1.5625" style="-inkscape-stroke:none;font-variation-settings:normal"/>

</g>%n%n
<g transform="translate(138.000000, 8.000000) scale(0.750000 0.750000) "> 

<path fill-rule="nonzero" fill="rgb(26.666667%, 26.666667%, 26.666667%)" fill-opacity="1" d="M 2.667969 16 L 29.332031 16 C 29.332031 16 28 24 24 24 C 20 24 12 24 8 24 C 4 24 2.667969 16 2.667969 16 Z M 2.667969 16 "/>
<path fill-rule="nonzero" fill="rgb(26.666667%, 26.666667%, 26.666667%)" fill-opacity="0.7" d="M 13.332031 13.332031 C 13.332031 14.804688 12.140625 16 10.667969 16 C 9.195312 16 8 14.804688 8 13.332031 C 8 11.859375 9.195312 10.667969 10.667969 10.667969 C 12.140625 10.667969 13.332031 11.859375 13.332031 13.332031 Z M 13.332031 13.332031 "/>
<path fill-rule="nonzero" fill="rgb(26.666667%, 26.666667%, 26.666667%)" fill-opacity="0.7" d="M 18.667969 13.332031 C 18.667969 14.804688 17.472656 16 16 16 C 14.527344 16 13.332031 14.804688 13.332031 13.332031 C 13.332031 11.859375 14.527344 10.667969 16 10.667969 C 17.472656 10.667969 18.667969 11.859375 18.667969 13.332031 Z M 18.667969 13.332031 "/>
<path fill-rule="nonzero" fill="rgb(26.666667%, 26.666667%, 26.666667%)" fill-opacity="0.7" d="M 24 13.332031 C 24 14.804688 22.804688 16 21.332031 16 C 19.859375 16 18.667969 14.804688 18.667969 13.332031 C 18.667969 11.859375 19.859375 10.667969 21.332031 10.667969 C 22.804688 10.667969 24 11.859375 24 13.332031 Z M 24 13.332031 "/>

</g>%n%n</svg>