<svg width="300" height="40" viewBox="0 0 300 40" fill="none" xmlns="http://www.w3.org/2000/svg" xmlns:xlink="http://www.w3.org/1999/xlink">

<g transform="translate(130.000000, 0.000000) scale(2.500000 2.500000) "> 

<path opacity="0.812" d="M4.12927 3C3.82979 3.00009 3.54262 3.10765 3.33086 3.29905C3.1191 3.49045 3.0001 3.75002 3 4.0207V11.9793C3.0001 12.25 3.1191 12.5095 3.33086 12.7009C3.54262 12.8923 3.82979 12.9999 4.12927 13H7.84471C8.14418 12.9999 8.43136 12.8923 8.64311 12.7009C8.85487 12.5095 8.97388 12.25 8.97397 11.9793V11.2662C8.9738 11.0263 8.88013 10.794 8.70941 10.6103C8.53868 10.4265 8.3018 10.303 8.04034 10.2614L7.67611 10.2024V8.52041L10.0285 10.4957C10.0343 10.501 10.0401 10.5063 10.046 10.5115C10.6679 11.0113 11.7373 10.9543 12.2902 10.3922C12.843 9.83001 12.7802 8.86334 12.1582 8.36371L11.2929 7.64059H12.3745L12.2838 7.63772C13.1558 7.70147 14 6.99655 14 6.20586C14 5.41516 13.1558 4.71025 12.2838 4.774L12.3745 4.77112H9.43204V4.02069C9.43194 3.75001 9.31294 3.49045 9.10118 3.29905C8.88942 3.10765 8.60225 3.00009 8.30278 3H4.12927Z" fill="#EBE7E4"/>

</g>%n%n
<g transform="translate(138.000000, 8.000000) scale(2.000000 2.000000) "> 

<path fill-rule="nonzero" fill="rgb(26.666667%, 26.666667%, 26.666667%)" fill-opacity="1" d="M 1.992188 1.945312 L 5.839844 1.945312 L 5.839844 3.4375 L 4.226562 5.503906 L 4.226562 9.113281 L 5.425781 9.332031 L 5.425781 10.054688 L 1.992188 10.054688 Z M 1.992188 1.945312 "/>
<path fill="none" stroke-width="40.900002" stroke-linecap="round" stroke-linejoin="round" stroke="rgb(26.666667%, 26.666667%, 26.666667%)" stroke-opacity="1" stroke-miterlimit="4" d="M 236.191406 202.018229 L 463.320312 202.018229 " transform="matrix(0.0206897, 0, 0, 0.0206897, 0, 0)"/>
<path fill="none" stroke-width="40.900002" stroke-linecap="round" stroke-linejoin="round" stroke="rgb(26.666667%, 26.666667%, 26.666667%)" stroke-opacity="1" stroke-miterlimit="4" d="M 236.191406 202.018229 L 407.246094 360.989583 " transform="matrix(0.0206897, 0, 0, 0.0206897, 0, 0)"/>

</g>%n%n</svg>