<svg width="300" height="40" viewBox="0 0 300 40" fill="none" xmlns="http://www.w3.org/2000/svg" xmlns:xlink="http://www.w3.org/1999/xlink">

<g transform="translate(130.000000, 0.000000) scale(2.500000 2.500000) "> 

<path opacity="0.812" d="M3.89602 4.03959C3.34742 3.89129 2.66283 4.18111 2.37281 4.55126C2.0828 4.92142 2 5.28606 2 5.66553V11.3124C2 12.1838 2.69901 12.9753 3.61755 12.9753H6.22267C7.1412 12.9753 7.86456 12.2427 7.86456 11.3124C7.8643 11.299 7.86379 11.2857 7.86304 11.2723L7.69413 6.52859C7.69413 6.19128 7.56034 5.72517 7.28023 5.42049C7.00108 5.11684 6.69624 4.99238 6.42201 4.89957L3.96297 4.06117C3.94089 4.05325 3.91856 4.04605 3.89602 4.03959V4.03959ZM10.0695 5.63009C9.15094 5.63009 8.45193 6.42162 8.45193 7.29301L8.4565 7.20671L8.13999 11.2508C8.13734 11.2794 8.13582 11.3082 8.13542 11.3371C8.13542 12.2085 8.83443 13 9.75297 13C9.75652 13 9.76007 13 9.76362 13L12.3824 12.9753C13.301 12.9753 14 12.1838 14 11.3124C14 11.3078 14 11.3032 14 11.2985L13.9513 7.44097C13.9513 6.56957 13.1941 5.8027 12.3337 5.8027L12.4144 5.80578L10.1501 5.63317C10.1233 5.63113 10.0964 5.6301 10.0695 5.63009V5.63009Z" fill="#EBE7E4"/>

</g>%n%n
<g transform="translate(138.000000, 8.000000) scale(0.750000 0.750000) "> 

<path fill-rule="nonzero" fill="rgb(26.666667%, 26.666667%, 26.666667%)" fill-opacity="1" stroke-width="5.2" stroke-linecap="butt" stroke-linejoin="miter" stroke="rgb(26.666667%, 26.666667%, 26.666667%)" stroke-opacity="1" stroke-miterlimit="4" d="M 244.616699 439.814453 C 244.616699 453.903809 233.217773 465.373535 219.128418 465.373535 L 97.138672 465.373535 C 83.049316 465.373535 71.650391 453.903809 71.650391 439.814453 L 71.650391 178.842773 C 71.650391 164.753418 80.854492 149.035645 97.138672 153.354492 L 212.189941 191.091309 C 230.102539 197.109375 236.616211 205.251465 236.616211 219.34082 Z M 244.616699 439.814453 " transform="matrix(0.0551724, 0, 0, 0.0551724, 0, 0)"/>
<path fill-rule="nonzero" fill="rgb(26.666667%, 26.666667%, 26.666667%)" fill-opacity="1" stroke-width="5.2" stroke-linecap="butt" stroke-linejoin="miter" stroke="rgb(26.666667%, 26.666667%, 26.666667%)" stroke-opacity="1" stroke-miterlimit="4" d="M 531.643066 439.814453 C 531.643066 453.903809 520.17334 465.373535 506.083984 465.373535 L 384.165039 466.364746 C 370.075684 466.364746 358.605957 454.89502 358.605957 440.805664 L 373.120117 253.820801 C 373.120117 239.731445 384.519043 228.33252 398.608398 228.33252 L 504.101562 235.837402 C 518.190918 235.837402 529.589844 247.236328 529.589844 261.325684 Z M 531.643066 439.814453 " transform="matrix(0.0551724, 0, 0, 0.0551724, 0, 0)"/>

</g>%n%n</svg>