<svg width="300" height="40" viewBox="0 0 300 40" fill="none" xmlns="http://www.w3.org/2000/svg" xmlns:xlink="http://www.w3.org/1999/xlink">

<g transform="translate(130.000000, 0.000000) scale(2.500000 2.500000) "> 

 <path transform="matrix(.8 0 0 .8 1.6 1.7334)" d="m1.334 4.0195a1.3142 1.3142 0 0 0-1.3145 1.3145v1.332a1.3142 1.3142 0 0 0 1.3145 1.3145h0.017578v4.0195a1.3142 1.3142 0 0 0 1.3145 1.3145h1.334a1.3142 1.3142 0 0 0 1.3145-1.3145v-4.0195h5.3711v4.0195a1.3142 1.3142 0 0 0 1.3145 1.3145h1.334a1.3142 1.3142 0 0 0 1.3145-1.3145v-4.0195h0.01758a1.3142 1.3142 0 0 0 1.3145-1.3145v-1.332a1.3142 1.3142 0 0 0-1.3145-1.3145z" fill="#ebe7e4" opacity=".8" stop-color="#000000" stroke-width="1.5625" style="-inkscape-stroke:none;font-variation-settings:normal"/>

</g>%n%n
<g transform="translate(138.000000, 8.000000) scale(0.750000 0.750000) "> 

<path fill-rule="evenodd" fill="rgb(26.666667%, 26.666667%, 26.666667%)" fill-opacity="1" d="M 2.667969 10.667969 L 29.332031 10.667969 L 29.332031 13.332031 L 2.667969 13.332031 Z M 2.667969 10.667969 "/>
<path fill-rule="evenodd" fill="rgb(26.666667%, 26.666667%, 26.666667%)" fill-opacity="0.7" d="M 8 13.332031 L 8 24 L 5.332031 24 L 5.332031 13.332031 Z M 8 13.332031 "/>
<path fill-rule="evenodd" fill="rgb(26.666667%, 26.666667%, 26.666667%)" fill-opacity="0.7" d="M 26.667969 13.332031 L 26.667969 24 L 24 24 L 24 13.332031 Z M 26.667969 13.332031 "/>

</g>%n%n</svg>