<svg width="40" height="40" viewBox="0 0 40 40" fill="none" xmlns="http://www.w3.org/2000/svg" >

<g transform="translate(0.000000, 0.000000) scale(2.500000 2.500000) "> 

<g opacity="0.812">
<path opacity="0.812" d="M6.897 1.37915C6.63962 1.37917 6.3913 1.4742 6.19966 1.646C6.00801 1.81781 5.88653 2.05431 5.85849 2.31016L5.20018 8.32437C5.19713 8.35223 5.19521 8.3802 5.19441 8.40822C5.19441 8.40822 5.1872 9.11288 4.55698 9.97656C3.72094 11.1222 3.1586 12.0596 3.1586 12.0596C3.06119 12.222 3.00975 12.4077 3.00975 12.5971V13.5246C3.00978 13.8017 3.11986 14.0674 3.31577 14.2633C3.51168 14.4592 3.77739 14.5693 4.05445 14.5693H11.9496C12.2267 14.5693 12.4924 14.4592 12.6883 14.2633C12.8842 14.0674 12.9943 13.8017 12.9943 13.5246V12.5971C12.9943 12.4077 12.9429 12.222 12.8455 12.0596C12.8455 12.0596 12.2831 11.1222 11.4471 9.97656C10.8169 9.11288 10.8097 8.40822 10.8097 8.40822C10.8089 8.38022 10.8069 8.35226 10.8039 8.32441L10.1456 2.31021C10.1176 2.05435 9.99612 1.81784 9.80447 1.64602C9.61283 1.4742 9.3645 1.37917 9.10711 1.37915H6.897V1.37915Z" fill="#EBE7E4"/>
</g>

</g>


<g transform="translate(8.000000, 8.000000) scale(0.041379 0.041379) "> 

<path d="M456.897 524.66V485.445C456.897 485.445 434.126 447.495 399.971 400.69C365.816 353.882 364.55 309.609 364.55 309.609L336.72 55.339H243.281L215.45 309.609C215.45 309.609 214.184 353.882 180.029 400.69C145.874 447.495 123.103 485.445 123.103 485.445V524.66H456.897Z" fill="#444444"/>

</g>

</svg>