<svg width="40" height="40" viewBox="0 0 40 40" fill="none" xmlns="http://www.w3.org/2000/svg" >

<g transform="translate(0.000000, 0.000000) scale(2.500000 2.500000) "> 

 <path d="m4.3187 2.6636a1.0531 1.0531 0 0 0-0.57187 0.93592v4.2813h-1.0797a1.0531 1.0531 0 0 0-1.0531 1.0531v2.1328a1.0531 1.0531 0 0 0 1.0531 1.0531h10.666a1.0531 1.0531 0 0 0 1.0531-1.0531v-2.1328a1.0531 1.0531 0 0 0-1.0531-1.0531h-0.72813l-7.1922-5.1375a1.0531 1.0531 0 0 0-1.0938-0.079687z" fill="#ebe7e4" opacity=".8" stop-color="#000000" stroke-width="1.25" style="-inkscape-stroke:none;font-variation-settings:normal"/>

</g>


<g transform="translate(8.000000, 8.000000) scale(0.500000 0.500000) "> 

<path d="M4 28H44V36H4V28Z" fill="#444444"/>
<path d="M12 8L40 28H12V8Z" fill="#444444" fill-opacity="0.7"/>

</g>

</svg>