<svg width="300" height="40" viewBox="0 0 300 40" fill="none" xmlns="http://www.w3.org/2000/svg" xmlns:xlink="http://www.w3.org/1999/xlink" version="1.1">

<g transform="translate(130.000000, 0.000000) scale(2.500000 2.500000) "> 

 <path d="m3.1992 1.6504a1.0171 1.0171 0 0 0-1.0176 1.0176v2.8398a1.0171 1.0171 0 0 0-0.53125 0.89258v0.5332a1.0171 1.0171 0 0 0 0.53125 0.89062v0.88281a1.0171 1.0171 0 0 0-0.53125 0.89258v0.5332a1.0171 1.0171 0 0 0 0.53125 0.89063v2.3086a1.0171 1.0171 0 0 0 1.0176 1.0176h1.0684a1.0171 1.0171 0 0 0 0.80078-0.39062 1.0171 1.0171 0 0 0 0.79883 0.39062h1.0664a1.0171 1.0171 0 0 0 0.80078-0.39062 1.0171 1.0171 0 0 0 0.79883 0.39062h1.0664a1.0171 1.0171 0 0 0 1.0117-0.91602l0.01563-0.14844h0.08789v0.04687a1.0171 1.0171 0 0 0 1.0176 1.0176h1.0684a1.0171 1.0171 0 0 0 1.0176-1.0176v-0.17188a1.0171 1.0171 0 0 0 0.53125-0.89258v-0.53516a1.0171 1.0171 0 0 0-0.53125-0.89062v-5.1484a1.0171 1.0171 0 0 0 0.53125-0.89258v-0.5332a1.0171 1.0171 0 0 0-0.53125-0.89062v-0.70898a1.0171 1.0171 0 0 0-1.0176-1.0176h-1.0684a1.0171 1.0171 0 0 0-0.5332 0.15234 1.0171 1.0171 0 0 0-0.53125-0.15234h-1.0684a1.0171 1.0171 0 0 0-1.0117 0.91797l-0.068359 0.68164a1.0171 1.0171 0 0 0-0.56836 0.18359v-0.76562a1.0171 1.0171 0 0 0-1.0176-1.0176h-1.0664a1.0171 1.0171 0 0 0-0.80078 0.39062 1.0171 1.0171 0 0 0-0.79883-0.39062zm4.752 6.3008h0.097656l-0.0625 0.63086h-0.035156z" clip-rule="evenodd" fill="#ebe7e4" fill-rule="evenodd" opacity=".812"/>

</g>%n%n
<g transform="translate(138.000000, 8.000000) scale(2.000000 2.000000) "> 

<g id="surface1">
<path style=" stroke:none;fill-rule:evenodd;fill:rgb(26.666668%,26.666668%,26.666668%);fill-opacity:1;" d="M 1 5 L 7.5 5 L 7.5 4.5 L 1 4.5 Z M 1 5 "/>
<path style=" stroke:none;fill-rule:evenodd;fill:rgb(26.666668%,26.666668%,26.666668%);fill-opacity:1;" d="M 1.5 1 L 1.5 11 L 2.5 11 L 2.5 1 Z M 1.5 1 "/>
<path style=" stroke:none;fill-rule:evenodd;fill:rgb(26.666668%,26.666668%,26.666668%);fill-opacity:1;" d="M 4 1 L 4 11 L 5 11 L 5 1 Z M 4 1 "/>
<path style=" stroke:none;fill-rule:evenodd;fill:rgb(26.666668%,26.666668%,26.666668%);fill-opacity:1;" d="M 1 8 L 7 8 L 7 7.5 L 1 7.5 Z M 1 8 "/>
<path style=" stroke:none;fill-rule:evenodd;fill:rgb(26.666668%,26.666668%,26.666668%);fill-opacity:1;" d="M 7.5 1 L 6.5 11 L 7.5 11 L 8.5 1 Z M 7.5 1 "/>
<path style=" stroke:none;fill-rule:evenodd;fill:rgb(26.666668%,26.666668%,26.666668%);fill-opacity:1;" d="M 6.5 3 L 11 3 L 11 2.5 L 6.5 2.5 Z M 6.5 3 "/>
<path style=" stroke:none;fill-rule:evenodd;fill:rgb(26.666668%,26.666668%,26.666668%);fill-opacity:1;" d="M 9.5 1 L 9.5 11 L 10.5 11 L 10.5 1 Z M 9.5 1 "/>
<path style=" stroke:none;fill-rule:evenodd;fill:rgb(26.666668%,26.666668%,26.666668%);fill-opacity:1;" d="M 6 10 L 11 10 L 11 9.5 L 6 9.5 Z M 6 10 "/>
</g>

</g>%n%n</svg>