<svg width="300" height="40" viewBox="0 0 300 40" fill="none" xmlns="http://www.w3.org/2000/svg" xmlns:xlink="http://www.w3.org/1999/xlink">

<g transform="translate(130.000000, 0.000000) scale(2.500000 2.500000) "> 

<g opacity="0.812">
<path opacity="0.812" d="M6.897 1.37915C6.63962 1.37917 6.3913 1.4742 6.19966 1.646C6.00801 1.81781 5.88653 2.05431 5.85849 2.31016L5.20018 8.32437C5.19713 8.35223 5.19521 8.3802 5.19441 8.40822C5.19441 8.40822 5.1872 9.11288 4.55698 9.97656C3.72094 11.1222 3.1586 12.0596 3.1586 12.0596C3.06119 12.222 3.00975 12.4077 3.00975 12.5971V13.5246C3.00978 13.8017 3.11986 14.0674 3.31577 14.2633C3.51168 14.4592 3.77739 14.5693 4.05445 14.5693H11.9496C12.2267 14.5693 12.4924 14.4592 12.6883 14.2633C12.8842 14.0674 12.9943 13.8017 12.9943 13.5246V12.5971C12.9943 12.4077 12.9429 12.222 12.8455 12.0596C12.8455 12.0596 12.2831 11.1222 11.4471 9.97656C10.8169 9.11288 10.8097 8.40822 10.8097 8.40822C10.8089 8.38022 10.8069 8.35226 10.8039 8.32441L10.1456 2.31021C10.1176 2.05435 9.99612 1.81784 9.80447 1.64602C9.61283 1.4742 9.3645 1.37917 9.10711 1.37915H6.897V1.37915Z" fill="#EBE7E4"/>
</g>

</g>%n%n
<g transform="translate(138.000000, 8.000000) scale(0.750000 0.750000) "> 

<path fill-rule="nonzero" fill="rgb(26.666667%, 26.666667%, 26.666667%)" fill-opacity="1" d="M 25.207031 28.945312 L 25.207031 26.78125 C 25.207031 26.78125 23.953125 24.6875 22.066406 22.105469 C 20.183594 19.523438 20.113281 17.082031 20.113281 17.082031 L 18.578125 3.054688 L 13.421875 3.054688 L 11.886719 17.082031 C 11.886719 17.082031 11.816406 19.523438 9.933594 22.105469 C 8.046875 24.6875 6.792969 26.78125 6.792969 26.78125 L 6.792969 28.945312 Z M 25.207031 28.945312 "/>

</g>%n%n</svg>