<svg width="300" height="40" viewBox="0 0 300 40" fill="none" xmlns="http://www.w3.org/2000/svg" xmlns:xlink="http://www.w3.org/1999/xlink">

<g transform="translate(130.000000, 0.000000) scale(2.500000 2.500000) "> 

<path opacity="0.812" d="M3.79714 3.68416C3.19354 3.52305 2.44033 3.83788 2.12124 4.24C1.80216 4.64211 1.71106 5.03822 1.71106 5.45046V11.5848C1.71106 12.5314 2.48014 13.3913 3.49075 13.3913H6.35702C7.36763 13.3913 8.1635 12.5954 8.1635 11.5848C8.16321 11.5703 8.16265 11.5558 8.16183 11.5413L7.97599 6.38802C7.97599 6.02159 7.82878 5.51524 7.5206 5.18426C7.21346 4.85439 6.87806 4.71919 6.57634 4.61837L3.8708 3.70759C3.84651 3.69899 3.82194 3.69117 3.79714 3.68416V3.68416ZM10.5894 5.41195C9.57883 5.41195 8.80975 6.27181 8.80975 7.21843L8.81477 7.12468L8.46653 11.5178C8.46363 11.549 8.46195 11.5803 8.46151 11.6116C8.46151 12.5582 9.23059 13.4181 10.2412 13.4181C10.2451 13.4181 10.249 13.4181 10.2529 13.4181L13.1343 13.3913C14.1449 13.3913 14.9139 12.5314 14.9139 11.5848C14.914 11.5798 14.914 11.5747 14.9139 11.5697L14.8604 7.37916C14.8604 6.43253 14.0273 5.59946 13.0807 5.59946L13.1694 5.60281L10.6782 5.4153C10.6486 5.41308 10.6191 5.41196 10.5894 5.41195V5.41195Z" fill="#EBE7E4"/>

</g>%n%n
<g transform="translate(138.000000, 8.000000) scale(2.000000 2.000000) "> 

<path fill-rule="nonzero" fill="rgb(26.666667%, 26.666667%, 26.666667%)" fill-opacity="1" stroke-width="5.2" stroke-linecap="butt" stroke-linejoin="miter" stroke="rgb(26.666667%, 26.666667%, 26.666667%)" stroke-opacity="1" stroke-miterlimit="4" d="M 244.6875 439.908854 C 244.6875 453.880208 233.170573 465.397135 219.199219 465.397135 L 97.044271 465.397135 C 83.072917 465.397135 71.55599 453.880208 71.55599 439.908854 L 71.55599 178.795573 C 71.55599 164.824219 80.807292 148.964844 97.044271 153.307292 L 212.213542 191.067708 C 230.14974 197.109375 236.56901 205.227865 236.56901 219.388021 Z M 244.6875 439.908854 " transform="matrix(0.0206897, 0, 0, 0.0206897, 0, 0)"/>
<path fill-rule="nonzero" fill="rgb(26.666667%, 26.666667%, 26.666667%)" fill-opacity="1" stroke-width="5.2" stroke-linecap="butt" stroke-linejoin="miter" stroke="rgb(26.666667%, 26.666667%, 26.666667%)" stroke-opacity="1" stroke-miterlimit="4" d="M 531.666667 439.908854 C 531.666667 453.880208 520.14974 465.397135 506.178385 465.397135 L 384.21224 466.341146 C 370.052083 466.341146 358.535156 454.824219 358.535156 440.852865 L 373.072917 253.938802 C 373.072917 239.778646 384.589844 228.261719 398.561198 228.261719 L 504.101562 235.813802 C 518.261719 235.813802 529.589844 247.330729 529.589844 261.302083 Z M 531.666667 439.908854 " transform="matrix(0.0206897, 0, 0, 0.0206897, 0, 0)"/>

</g>%n%n</svg>