<svg width="300" height="40" viewBox="0 0 300 40" fill="none" xmlns="http://www.w3.org/2000/svg" xmlns:xlink="http://www.w3.org/1999/xlink">

<g transform="translate(130.000000, 0.000000) scale(2.500000 2.500000) "> 

<path fill-rule="evenodd" clip-rule="evenodd" d="M11.9998 2.25C12.9663 2.25 13.7498 3.0335 13.7498 4V12C13.7498 12.9665 12.9663 13.75 11.9998 13.75C11.1182 13.75 10.3889 13.0981 10.2676 12.25H4.49984C3.25719 12.25 2.24984 11.2426 2.24984 10V6C2.24984 4.75736 3.2572 3.75 4.49984 3.75H10.2676C10.3889 2.90193 11.1182 2.25 11.9998 2.25Z" fill="#EBE7E4" fill-opacity="0.8"/>

</g>%n%n
<g transform="translate(138.000000, 8.000000) scale(0.750000 0.750000) "> 

<path fill-rule="evenodd" fill="rgb(26.666667%, 26.666667%, 26.666667%)" fill-opacity="1" d="M 26.667969 3.332031 C 27.769531 3.332031 28.667969 4.230469 28.667969 5.332031 L 28.667969 26.667969 C 28.667969 27.769531 27.769531 28.667969 26.667969 28.667969 C 25.5625 28.667969 24.667969 27.769531 24.667969 26.667969 L 24.667969 24.667969 L 6.667969 24.667969 C 4.824219 24.667969 3.332031 23.175781 3.332031 21.332031 L 3.332031 10.667969 C 3.332031 8.824219 4.824219 7.332031 6.667969 7.332031 L 24.667969 7.332031 L 24.667969 5.332031 C 24.667969 4.230469 25.5625 3.332031 26.667969 3.332031 Z M 24.667969 11.332031 L 24.667969 20.667969 L 14.828125 20.667969 L 22.292969 11.332031 Z M 17.171875 11.332031 L 9.703125 20.667969 L 7.332031 20.667969 L 7.332031 11.332031 Z M 17.171875 11.332031 "/>

</g>%n%n</svg>