<svg width="300" height="40" viewBox="0 0 300 40" fill="none" xmlns="http://www.w3.org/2000/svg" xmlns:xlink="http://www.w3.org/1999/xlink" version="1.1">

<g transform="translate(130.000000, 0.000000) scale(2.500000 2.500000) "> 

 <path transform="matrix(.8 0 0 .8 1.6 1.7334)" d="m1.334 4.0195a1.3142 1.3142 0 0 0-1.3145 1.3145v1.332a1.3142 1.3142 0 0 0 1.3145 1.3145h0.017578v4.0195a1.3142 1.3142 0 0 0 1.3145 1.3145h1.334a1.3142 1.3142 0 0 0 1.3145-1.3145v-4.0195h5.3711v4.0195a1.3142 1.3142 0 0 0 1.3145 1.3145h1.334a1.3142 1.3142 0 0 0 1.3145-1.3145v-4.0195h0.01758a1.3142 1.3142 0 0 0 1.3145-1.3145v-1.332a1.3142 1.3142 0 0 0-1.3145-1.3145z" fill="#ebe7e4" opacity=".8" stop-color="#000000" stroke-width="1.5625" style="-inkscape-stroke:none;font-variation-settings:normal"/>

</g>%n%n
<g transform="translate(138.000000, 8.000000) scale(2.000000 2.000000) "> 

<g id="surface1">
<path style=" stroke:none;fill-rule:evenodd;fill:rgb(26.666668%,26.666668%,26.666668%);fill-opacity:1;" d="M 1 4 L 11 4 L 11 5 L 1 5 Z M 1 4 "/>
<path style=" stroke:none;fill-rule:evenodd;fill:rgb(26.666668%,26.666668%,26.666668%);fill-opacity:0.698039;" d="M 3 5 L 3 9 L 2 9 L 2 5 Z M 3 5 "/>
<path style=" stroke:none;fill-rule:evenodd;fill:rgb(26.666668%,26.666668%,26.666668%);fill-opacity:0.698039;" d="M 10 5 L 10 9 L 9 9 L 9 5 Z M 10 5 "/>
</g>

</g>%n%n</svg>