<svg width="300" height="40" viewBox="0 0 300 40" fill="none" xmlns="http://www.w3.org/2000/svg" xmlns:xlink="http://www.w3.org/1999/xlink" version="1.1">

<g transform="translate(130.000000, 0.000000) scale(2.500000 2.500000) "> 

<path opacity="0.812" d="M7.96844 2.76501C7.18431 2.79663 6.4238 2.90274 5.39182 3.63393C5.26344 3.72498 5.15876 3.84545 5.08652 3.98527C5.01428 4.12509 4.97659 4.28018 4.97661 4.43756V10.2956C4.92224 10.334 4.86321 10.3362 4.81086 10.3861C4.6023 10.5846 4.43665 10.9124 4.42579 11.2315C4.41649 11.5048 4.43658 11.7728 4.43081 12.0218C4.42753 12.1739 4.45953 12.3247 4.5243 12.4624C4.58908 12.6001 4.68487 12.7209 4.80417 12.8153C4.84427 12.8608 4.83776 12.9578 4.87951 12.9928C5.11627 13.1913 5.36413 13.277 5.61784 13.331C6.37472 13.5268 7.10042 13.4946 7.67545 13.5168C7.68438 13.517 7.69331 13.517 7.70224 13.5168C8.57589 13.5278 9.53234 13.5284 10.458 13.3477C10.4811 13.3435 10.504 13.3385 10.5266 13.3327C10.8044 13.2573 11.0901 13.083 11.3219 12.8137C11.353 12.7888 11.3888 12.7602 11.3889 12.7601C11.3889 12.76 11.4185 12.7162 11.4341 12.6931C11.4292 12.6978 11.3848 12.7401 11.3353 12.7869C11.458 12.6368 11.5893 12.4984 11.6316 12.2344C11.6513 12.1232 11.6718 12.0119 11.6718 12.0117L11.6735 12.0653C11.6733 11.7962 11.6754 11.5313 11.6718 11.2533C11.6674 10.9176 11.3793 10.5314 11.1026 10.3191V4.43755C11.1025 4.29311 11.0707 4.15044 11.0094 4.01967C10.948 3.88889 10.8587 3.77321 10.7476 3.68081C9.83226 2.91876 8.88022 2.78312 8.03038 2.76501C8.00974 2.76436 7.98908 2.76436 7.96844 2.76501H7.96844ZM11.0373 10.2119L11.0741 10.2337C11.0622 10.2262 11.0557 10.2291 11.044 10.222C11.0409 10.2202 11.0404 10.2137 11.0373 10.2119H11.0373ZM11.6316 12.2428L11.4424 12.6814C11.5006 12.5951 11.593 12.4573 11.5931 12.4571C11.5932 12.4569 11.6127 12.3496 11.6316 12.2428H11.6316ZM10.9988 12.9995C10.9836 13.0044 10.9561 13.0165 10.9452 13.0196C10.8839 13.0372 10.8734 13.0383 10.89 13.0347C10.8994 13.0326 10.9612 13.0105 10.9988 12.9995L10.9988 12.9995Z" fill="#EBE7E4"/>

</g>%n%n
<g transform="translate(138.000000, 8.000000) scale(2.000000 2.000000) "> 

<g id="surface1">
<path style=" stroke:none;fill-rule:nonzero;fill:rgb(26.666668%,26.666668%,26.666668%);fill-opacity:1;" d="M 6 2.269531 C 5.292969 2.296875 5.039062 2.28125 4.210938 2.871094 L 4.210938 8.96875 C 4.609375 9.410156 7.429688 9.449219 7.847656 8.96875 L 7.847656 2.871094 C 7.179688 2.316406 6.726562 2.285156 6 2.269531 Z M 6 2.269531 "/>
<path style=" stroke:none;fill-rule:nonzero;fill:rgb(26.666668%,26.666668%,26.666668%);fill-opacity:1;" d="M 6.0625 8.4375 C 5.371094 8.445312 4.621094 8.429688 4.015625 8.597656 C 3.816406 8.652344 3.730469 8.75 3.726562 8.851562 C 3.722656 8.960938 3.738281 9.273438 3.730469 9.535156 C 3.75 9.710938 5.191406 9.238281 5.742188 9.257812 C 6.496094 9.269531 8.351562 9.703125 8.34375 9.554688 C 8.34375 9.3125 8.347656 9.085938 8.34375 8.855469 C 8.34375 8.792969 8.3125 8.730469 8.222656 8.679688 C 7.957031 8.511719 7.449219 8.480469 7.011719 8.457031 C 6.699219 8.441406 6.378906 8.4375 6.0625 8.4375 Z M 6.0625 8.4375 "/>
<path style=" stroke:none;fill-rule:nonzero;fill:rgb(26.666668%,26.666668%,26.666668%);fill-opacity:1;" d="M 6.0625 9.140625 C 5.371094 9.148438 4.621094 9.132812 4.015625 9.300781 C 3.597656 9.417969 3.640625 9.734375 4.101562 9.828125 C 4.585938 9.957031 5.191406 9.941406 5.742188 9.960938 C 6.496094 9.972656 7.285156 9.964844 7.976562 9.832031 C 8.3125 9.738281 8.472656 9.527344 8.222656 9.382812 C 7.957031 9.214844 7.449219 9.183594 7.011719 9.160156 C 6.699219 9.144531 6.378906 9.140625 6.0625 9.140625 Z M 6.0625 9.140625 "/>
</g>

</g>%n%n</svg>