<svg width="40" height="40" viewBox="0 0 40 40" fill="none" xmlns="http://www.w3.org/2000/svg" >

<g transform="translate(0.000000, 0.000000) scale(2.500000 2.500000) "> 

 <path transform="matrix(.8 0 0 .8 1.6 1.6006)" d="m7.041 0.0019531-2.5859 0.64648a1.039 1.039 0 0 0-0.66211 1.1035l-0.2168-0.19336a1.039 1.039 0 0 0-1.4648 0.087891l-1.7734 1.9941a1.039 1.039 0 0 0 0.085938 1.4668l3.7656 3.3477-3.8672 3.8672a1.039 1.039 0 0 0 0 1.4688l1.8867 1.8867a1.039 1.039 0 0 0 1.4688 0l2.7715-2.7715 0.58203 2.3359a1.039 1.039 0 0 0 1.2598 0.75586l2.5879-0.64648a1.039 1.039 0 0 0 0.59375-0.42383l0.95117 0.8457a1.039 1.039 0 0 0 1.4648-0.08594l1.7734-1.9922a1.039 1.039 0 0 0-0.08594-1.4668l-4.4727-3.9766 4.5742-4.5742a1.039 1.039 0 0 0 0-1.4688l-1.8867-1.8867a1.039 1.039 0 0 0-1.4688 0l-3.3047 3.3047-0.7168-2.8691a1.039 1.039 0 0 0-1.2598-0.75586z" fill="#ebe7e4" opacity=".8" stop-color="#000000" stroke-width="1.5625" style="-inkscape-stroke:none;font-variation-settings:normal"/>

</g>


<g transform="translate(8.000000, 8.000000) scale(2.000000 2.000000) "> 

<path fill-rule="evenodd" clip100-rule="evenodd" d="M44.8284 8.82842L8.82842 44.8284L3.17157 39.1716L39.1716 3.17157L44.8284 8.82842Z" fill="#444444"/>
<path fill-rule="evenodd" clip100-rule="evenodd" d="M39.3425 44.9896L3.34253 12.9897L8.65744 7.01038L44.6574 39.0104L39.3425 44.9896Z" fill="#444444"/>
<path fill-rule="evenodd" clip100-rule="evenodd" d="M24.1194 44.9701L14.1194 4.97013L21.8806 3.02985L31.8806 43.0298L24.1194 44.9701Z" fill="#444444"/>

</g>

</svg>