<svg width="300" height="40" viewBox="0 0 300 40" fill="none" xmlns="http://www.w3.org/2000/svg" xmlns:xlink="http://www.w3.org/1999/xlink" version="1.1">

<g transform="translate(130.000000, 0.000000) scale(2.500000 2.500000) "> 

 <path transform="matrix(.8 0 0 .8 1.6 1.6)" d="m8 0c-1.7668 0-3.4643 0.70061-4.7148 1.9512-1.2499 1.25-1.9531 2.9468-1.9531 4.7148a1.3341 1.3341 0 0 0 0.66797 0.66602 1.3341 1.3341 0 0 0-0.66797 0.66797v2.666a1.3341 1.3341 0 0 0 0.66797 0.66602 1.3341 1.3341 0 0 0-0.66797 0.66797v2.666a1.3341 1.3341 0 0 0 1.334 1.334h10.668a1.3341 1.3341 0 0 0 1.334-1.334v-2.666a1.3341 1.3341 0 0 0-0.66797-0.66797 1.3341 1.3341 0 0 0 0.66797-0.66602v-2.666a1.3341 1.3341 0 0 0-0.66797-0.66797 1.3341 1.3341 0 0 0 0.66797-0.66602c0-1.768-0.70317-3.4649-1.9531-4.7148-1.2506-1.2506-2.948-1.9512-4.7148-1.9512zm0 5.7188c0.25222 0 0.49207 0.099488 0.66992 0.27734 0.17786 0.17786 0.27734 0.4177 0.27734 0.66992h-1.8945c0-0.25222 0.099488-0.49207 0.27734-0.66992 0.17786-0.17786 0.4177-0.27734 0.66992-0.27734z" fill="#ebe7e4" opacity=".8" stop-color="#000000" stroke-width="1.5625" style="-inkscape-stroke:none;font-variation-settings:normal"/>

</g>%n%n
<g transform="translate(138.000000, 8.000000) scale(2.000000 2.000000) "> 

<g id="surface1">
<path style=" stroke:none;fill-rule:nonzero;fill:rgb(26.666668%,26.666668%,26.666668%);fill-opacity:1;" d="M 2 9 L 10 9 L 10 11 L 2 11 Z M 2 9 "/>
<path style=" stroke:none;fill-rule:nonzero;fill:rgb(26.666668%,26.666668%,26.666668%);fill-opacity:1;" d="M 2 6 L 10 6 L 10 8 L 2 8 Z M 2 6 "/>
<path style=" stroke:none;fill-rule:nonzero;fill:rgb(26.666668%,26.666668%,26.666668%);fill-opacity:0.698039;" d="M 10 5 C 10 3.9375 9.578125 2.921875 8.828125 2.171875 C 8.078125 1.421875 7.0625 1 6 1 C 4.9375 1 3.921875 1.421875 3.171875 2.171875 C 2.421875 2.921875 2 3.9375 2 5 L 4.289062 5 C 4.289062 4.546875 4.46875 4.109375 4.789062 3.789062 C 5.109375 3.46875 5.546875 3.289062 6 3.289062 C 6.453125 3.289062 6.890625 3.46875 7.210938 3.789062 C 7.53125 4.109375 7.710938 4.546875 7.710938 5 Z M 10 5 "/>
</g>

</g>%n%n</svg>