<svg width="300" height="40" viewBox="0 0 300 40" fill="none" xmlns="http://www.w3.org/2000/svg" >

<g transform="translate(130.000000, 0.000000) scale(2.500000 2.500000) "> 

 <path d="m6.075 4.5547c-1.1374 0-1.9649 0.86688-2.2484 1.925h-0.63906a1.5207 1.5207 0 0 0-1.5203 1.5203v1.925a1.5207 1.5207 0 0 0 1.5203 1.5203h9.6248a1.5207 1.5207 0 0 0 1.5203-1.5203v-1.925a1.5207 1.5207 0 0 0-1.5203-1.5203h-0.63906c-0.28355-1.0581-1.111-1.925-2.2484-1.925z" fill="#ebe7e4" opacity=".8" stop-color="#000000" stroke-width="1.5625" style="-inkscape-stroke:none;font-variation-settings:normal"/>

</g>


<g transform="translate(138.000000, 8.000000) scale(0.500000 0.500000) "> 

<rect x="4" y="24" width="40" height="8" fill="#444444"/>
<path d="M12 20C12 17.7909 13.7909 16 16 16H32C34.2091 16 36 17.7909 36 20V24H12L12 20Z" fill="#444444" fill-opacity="0.7"/>

</g>

</svg>