<svg width="300" height="40" viewBox="0 0 300 40" fill="none" xmlns="http://www.w3.org/2000/svg" xmlns:xlink="http://www.w3.org/1999/xlink">

<g transform="translate(130.000000, 0.000000) scale(2.500000 2.500000) "> 

<path opacity="0.812" d="M4.97763 3C4.72794 3.00002 4.47908 3.10076 4.30252 3.27496C4.12596 3.44916 4.02385 3.69469 4.02383 3.94104V4.57624L3.69149 4.97618H3.61548C3.36579 4.9762 3.11693 5.07694 2.94037 5.25114C2.76381 5.42534 2.6617 5.67087 2.66168 5.91722V6.21423L2.21607 6.74945C2.05746 6.93994 1.97996 7.19371 2.00445 7.43905C2.02893 7.6844 2.15548 7.91794 2.34871 8.07425L2.52904 8.22129L2.21756 8.59477C2.05874 8.78503 1.9803 9.03757 2.00445 9.2829C2.02859 9.52823 2.15576 9.763 2.34871 9.91957L2.65274 10.1666V12.059C2.65276 12.3053 2.75486 12.5508 2.93142 12.725C3.10798 12.8992 3.35685 13 3.60654 13H3.61548H4.30103H11.1058C11.3555 13 11.6044 12.8992 11.7809 12.725C11.9575 12.5508 12.0596 12.3053 12.0596 12.059V10.0298V9.64902H12.4769C12.7266 9.649 12.9755 9.54826 13.152 9.37406C13.3286 9.19987 13.4307 8.95434 13.4307 8.70798V7.39053L13.7839 6.96706C13.9425 6.77657 14.02 6.5228 13.9956 6.27746C13.9711 6.03212 13.8445 5.79857 13.6513 5.64226L13.471 5.49669L13.7839 5.12175C13.9425 4.93125 14.02 4.67748 13.9956 4.43214C13.9711 4.1868 13.8445 3.95325 13.6513 3.79694L13.307 3.51757L13.3637 3.59403C13.2236 3.24625 12.8562 2.99991 12.4769 3H11.7914C11.5417 3.00002 11.2928 3.10076 11.1163 3.27496C10.9397 3.44916 10.8376 3.69469 10.8376 3.94104V4.63064L10.5499 4.97618H10.4188C10.1691 4.9762 9.92023 5.07694 9.74367 5.25114C9.56711 5.42534 9.46501 5.67087 9.46498 5.91722V6.27893L9.44263 6.30687H7.10581C7.08577 6.05347 6.99355 5.80435 6.79433 5.64226L6.61847 5.49963V5.49228L6.92697 5.12174C7.08558 4.93125 7.16308 4.67748 7.1386 4.43214C7.11411 4.1868 6.98756 3.95325 6.79433 3.79694L6.54843 3.59844C6.50059 3.47823 6.43236 3.3663 6.33978 3.27496C6.16322 3.10076 5.91436 3.00002 5.66467 3H4.97763V3Z" fill="#EBE7E4"/>

</g>%n%n
<g transform="translate(138.000000, 8.000000) scale(0.750000 0.750000) "> 

<defs>
<filter id="filter-remove-color" x="0%" y="0%" width="100%" height="100%">
<feColorMatrix color-interpolation-filters="sRGB" values="0 0 0 0 1 0 0 0 0 1 0 0 0 0 1 0 0 0 1 0" />
</filter>
<mask id="mask-0">
<g filter="url(#filter-remove-color)">
<rect x="-3.2" y="-3.2" width="38.4" height="38.4" fill="rgb(0%, 0%, 0%)" fill-opacity="0.75"/>
</g>
</mask>
<mask id="mask-1">
<g filter="url(#filter-remove-color)">
<rect x="-7.04" y="-7.04" width="46.08" height="46.08" fill="rgb(0%, 0%, 0%)" fill-opacity="0.75"/>
</g>
</mask>
<clip100Path id="clip100-0">
<rect x="0" y="0" width="32" height="32"/>
</clip100Path>
<g id="source-7" clip100-path="url(#clip100-0)">
<path fill-rule="nonzero" fill="rgb(26.666667%, 26.666667%, 26.666667%)" fill-opacity="1" d="M 24.136719 21.390625 L 4.488281 21.390625 L 4.488281 26.78125 L 24.136719 26.78125 Z M 24.136719 21.390625 "/>
</g>
<clip100Path id="clip100-1">
<rect x="0" y="0" width="32" height="32"/>
</clip100Path>
<g id="source-9" clip100-path="url(#clip100-1)">
<g mask="url(#mask-1)">
<use xlink:href="#source-7"/>
</g>
</g>
<mask id="mask-2">
<g filter="url(#filter-remove-color)">
<rect x="-3.2" y="-3.2" width="38.4" height="38.4" fill="rgb(0%, 0%, 0%)" fill-opacity="0.75"/>
</g>
</mask>
<mask id="mask-3">
<g filter="url(#filter-remove-color)">
<rect x="-7.04" y="-7.04" width="46.08" height="46.08" fill="rgb(0%, 0%, 0%)" fill-opacity="0.75"/>
</g>
</mask>
<clip100Path id="clip100-2">
<rect x="0" y="0" width="32" height="32"/>
</clip100Path>
<g id="source-14" clip100-path="url(#clip100-2)">
<path fill-rule="nonzero" fill="rgb(26.666667%, 26.666667%, 26.666667%)" fill-opacity="1" d="M 27.730469 14.003906 L 8.082031 14.003906 L 8.082031 17.796875 L 27.730469 17.796875 Z M 27.730469 14.003906 "/>
</g>
<clip100Path id="clip100-3">
<rect x="0" y="0" width="32" height="32"/>
</clip100Path>
<g id="source-16" clip100-path="url(#clip100-3)">
<g mask="url(#mask-3)">
<use xlink:href="#source-14"/>
</g>
</g>
</defs>
<g mask="url(#mask-0)">
<use xlink:href="#source-9"/>
</g>
<g mask="url(#mask-2)">
<use xlink:href="#source-16"/>
</g>
<path fill-rule="nonzero" fill="rgb(26.666667%, 26.666667%, 26.666667%)" fill-opacity="1" d="M 11.253906 6.769531 L 9.878906 5.640625 L 9.878906 5.21875 L 8.082031 5.21875 L 8.082031 7.800781 L 5.894531 10.46875 L 4.511719 10.46875 L 4.511719 12.152344 L 2.777344 14.265625 L 4.167969 15.402344 L 4.511719 14.984375 L 4.511719 17.054688 L 2.777344 19.164062 L 4.167969 20.304688 L 4.511719 19.886719 L 4.511719 26.78125 L 6.308594 26.78125 L 6.308594 17.695312 L 8.082031 15.535156 L 8.082031 17.796875 L 9.878906 17.796875 L 9.878906 13.347656 L 11.253906 11.667969 L 9.878906 10.542969 L 9.878906 8.445312 Z M 8.082031 12.703125 L 6.308594 14.863281 L 6.308594 12.792969 L 8.082031 10.632812 Z M 8.082031 12.703125 "/>
<path fill-rule="nonzero" fill="rgb(26.666667%, 26.666667%, 26.666667%)" fill-opacity="1" d="M 27.832031 10.53125 L 27.730469 10.65625 L 27.730469 8.585938 L 29.222656 6.769531 L 27.832031 5.628906 L 27.730469 5.753906 L 27.730469 5.21875 L 25.933594 5.21875 L 25.933594 7.941406 L 23.863281 10.46875 L 22.339844 10.46875 L 22.339844 12.324219 L 20.746094 14.265625 L 22.136719 15.402344 L 22.339844 15.15625 L 22.339844 17.222656 L 20.746094 19.164062 L 22.136719 20.304688 L 22.339844 20.058594 L 22.339844 26.78125 L 24.136719 26.78125 L 24.136719 17.867188 L 25.933594 15.675781 L 25.933594 17.878906 L 27.730469 17.878906 L 27.730469 13.488281 L 29.222656 11.667969 Z M 24.136719 15.035156 L 24.136719 12.964844 L 25.933594 10.777344 L 25.933594 12.84375 Z M 24.136719 15.035156 "/>

</g>%n%n</svg>