<svg width="300" height="40" viewBox="0 0 300 40" fill="none" xmlns="http://www.w3.org/2000/svg" xmlns:xlink="http://www.w3.org/1999/xlink">

<g transform="translate(130.000000, 0.000000) scale(2.500000 2.500000) "> 

<path opacity="0.812" d="M8.42419 3.84266C8.20594 3.78453 7.81186 3.76027 7.49834 4.01343C7.2156 4.24174 7.02551 4.45361 6.90232 4.55588C6.77913 4.65814 6.78921 4.64698 6.74327 4.64628C6.29813 4.63956 5.71696 4.50113 5.15109 4.32986C4.58522 4.15858 4.05085 3.95878 3.53882 3.86777C3.50781 3.86242 3.47649 3.85906 3.44506 3.85773C2.33803 3.80528 1.56322 4.67977 1.27695 5.58887C1.13381 6.04342 1.09616 6.54389 1.24011 7.03539C1.38407 7.5269 1.74228 8.00009 2.26808 8.26762C2.29995 8.28396 2.33296 8.29795 2.36686 8.30948C5.96098 9.5184 9.74693 11.0312 11.421 11.8756C11.5732 11.9521 11.7472 11.9734 11.9133 11.9358C12.1944 12.0195 12.4604 12.1916 12.7403 12.1334C13.231 12.0313 13.6633 11.7422 14.0111 11.3398C14.893 10.3185 15.1641 8.83716 14.5535 7.66323C14.5477 7.65134 14.5415 7.63962 14.5351 7.62807L14.4698 7.51757C14.466 7.51137 14.4621 7.50523 14.4581 7.49915C14.218 7.11863 13.8517 6.81127 13.4067 6.68548C13.4 6.68371 13.3933 6.68204 13.3866 6.68046C13.3686 6.67595 13.3459 6.67299 13.3263 6.66874C13.3223 6.6676 13.3136 6.66487 13.3096 6.66372C12.7434 6.5051 11.7942 6.27217 10.969 6.04593C10.5783 5.93882 10.2319 5.83508 9.97284 5.74792C9.98948 5.67417 10.0012 5.61299 10.0197 5.53529C10.0606 5.36339 10.103 5.19522 10.1336 5.05312C10.1488 4.98207 10.162 4.92334 10.1721 4.84049C10.1771 4.79907 10.1876 4.76458 10.1754 4.64126C10.1724 4.61043 10.1678 4.57225 10.1537 4.51904C10.1466 4.49244 10.1367 4.46129 10.1218 4.42529C10.107 4.38928 10.0569 4.30187 10.0565 4.30139C10.0562 4.30092 9.92465 4.14936 9.92429 4.14904C9.92392 4.14872 9.70371 4.01694 9.70329 4.01678C9.70287 4.01662 9.43924 3.96655 9.43876 3.96655C9.43829 3.96655 9.22164 3.99987 9.22111 4.00004C8.88635 4.10273 8.99046 3.99354 8.42419 3.84266Z" fill="#EBE7E4"/>

</g>%n%n
<g transform="translate(138.000000, 8.000000) scale(2.000000 2.000000) "> 

<path fill-rule="nonzero" fill="rgb(26.666667%, 26.666667%, 26.666667%)" fill-opacity="1" d="M 6.203125 2.992188 C 6.109375 2.96875 6.023438 2.96875 5.960938 3.023438 C 5.570312 3.339844 5.339844 3.726562 4.886719 3.71875 C 3.878906 3.703125 2.675781 3.152344 1.976562 3.027344 C 0.8125 2.972656 0.0351562 5.042969 1.269531 5.671875 C 4.4375 6.738281 7.746094 8.058594 9.28125 8.832031 C 9.28125 8.828125 9.28125 8.828125 9.28125 8.828125 C 9.710938 9.175781 10.3125 9.050781 10.773438 8.515625 C 11.359375 7.835938 11.535156 6.722656 11.164062 6.011719 L 11.109375 5.914062 C 10.96875 5.691406 10.777344 5.542969 10.554688 5.480469 C 10.53125 5.472656 10.507812 5.46875 10.484375 5.464844 C 9.542969 5.199219 7.089844 4.628906 7.019531 4.414062 C 6.96875 4.265625 7.316406 3.105469 7.253906 3.125 C 6.726562 3.285156 6.40625 3.046875 6.203125 2.992188 Z M 10.40625 6.023438 C 10.558594 6.066406 10.691406 6.171875 10.785156 6.324219 L 10.824219 6.394531 C 11.082031 6.882812 10.960938 7.648438 10.554688 8.117188 C 10.152344 8.585938 9.613281 8.582031 9.339844 8.109375 C 9.070312 7.640625 9.167969 6.871094 9.5625 6.386719 C 9.808594 6.082031 10.128906 5.945312 10.40625 6.023438 Z M 10.183594 6.835938 C 10.089844 6.808594 9.988281 6.855469 9.90625 6.957031 C 9.777344 7.117188 9.742188 7.367188 9.832031 7.523438 C 9.921875 7.679688 10.101562 7.679688 10.234375 7.527344 C 10.367188 7.371094 10.40625 7.117188 10.320312 6.957031 L 10.308594 6.933594 C 10.277344 6.882812 10.234375 6.851562 10.183594 6.835938 Z M 10.183594 6.835938 "/>

</g>%n%n</svg>