<svg width="300" height="40" viewBox="0 0 300 40" fill="none" xmlns="http://www.w3.org/2000/svg" xmlns:xlink="http://www.w3.org/1999/xlink">

<g transform="translate(130.000000, 0.000000) scale(2.500000 2.500000) "> 

<path opacity="0.812" d="M8 2C4.6992 2 2 4.6992 2 8C2 11.3008 4.6992 14 8 14C11.3008 14 14 11.3008 14 8C14 4.6992 11.3008 2 8 2ZM10.9729 5.79669C11.4318 6.42101 11.759 7.1513 11.759 8C11.759 9.20713 11.1363 10.2026 10.2666 10.8901L8.44578 9.18373C8.31293 9.0593 8.13802 8.98956 7.956 8.98844C7.77397 8.98733 7.59823 9.05491 7.46386 9.17771L5.65512 10.8358C4.83173 10.1461 4.24096 9.17099 4.24096 8C4.24096 7.15348 4.57585 6.42499 5.04217 5.7997L7.48645 8.0497C7.61879 8.17158 7.79182 8.23973 7.97173 8.24084C8.15164 8.24196 8.3255 8.17595 8.45934 8.05572L10.9729 5.79669Z" fill="#EBE7E4"/>

</g>%n%n
<g transform="translate(138.000000, 8.000000) scale(2.000000 2.000000) "> 

<path fill-rule="nonzero" fill="rgb(26.666667%, 26.666667%, 26.666667%)" fill-opacity="1" d="M 2.667969 2.476562 L 5.984375 5.523438 L 9.300781 2.535156 L 7.046875 1.292969 C 7.046875 1.292969 4.9375 1.382812 4.714844 1.425781 C 4.488281 1.472656 3.210938 2.078125 3.210938 2.078125 Z M 2.667969 2.476562 "/>
<path fill="none" stroke-width="37" stroke-linecap="round" stroke-linejoin="round" stroke="rgb(26.666667%, 26.666667%, 26.666667%)" stroke-opacity="1" stroke-miterlimit="4" d="M 519.394531 290 C 519.394531 350.794271 495.227865 409.134115 452.18099 452.18099 C 409.134115 495.227865 350.794271 519.394531 290 519.394531 C 229.205729 519.394531 170.865885 495.227865 127.81901 452.18099 C 84.772135 409.134115 60.605469 350.794271 60.605469 290 C 60.605469 229.205729 84.772135 170.865885 127.81901 127.81901 C 170.865885 84.772135 229.205729 60.605469 290 60.605469 C 350.794271 60.605469 409.134115 84.772135 452.18099 127.81901 C 495.227865 170.865885 519.394531 229.205729 519.394531 290 Z M 519.394531 290 " transform="matrix(0.0206897, 0, 0, 0.0206897, 0, 0)"/>
<path fill-rule="nonzero" fill="rgb(26.666667%, 26.666667%, 26.666667%)" fill-opacity="1" d="M 3.476562 9.941406 L 5.957031 7.65625 L 8.375 9.917969 L 6.761719 10.828125 C 6.761719 10.828125 5.179688 10.761719 5.011719 10.726562 C 4.84375 10.691406 3.882812 10.238281 3.882812 10.238281 Z M 3.476562 9.941406 "/>

</g>%n%n</svg>