<svg width="300" height="40" viewBox="0 0 300 40" fill="none" xmlns="http://www.w3.org/2000/svg" xmlns:xlink="http://www.w3.org/1999/xlink">

<g transform="translate(130.000000, 0.000000) scale(2.500000 2.500000) "> 

<path fill-rule="evenodd" clip-rule="evenodd" d="M4 2.25C4.88162 2.25 5.61097 2.90193 5.73228 3.75H12C12.9665 3.75 13.75 4.5335 13.75 5.5V12C13.75 12.9665 12.9665 13.75 12 13.75C11.0335 13.75 10.25 12.9665 10.25 12V10.7414L5.75 11.8664V12C5.75 12.9665 4.9665 13.75 4 13.75C3.0335 13.75 2.25 12.9665 2.25 12V4C2.25 3.0335 3.0335 2.25 4 2.25Z" fill="#EBE7E4" fill-opacity="0.8"/>

</g>%n%n
<g transform="translate(138.000000, 8.000000) scale(2.000000 2.000000) "> 

<defs>
<filter id="filter-remove-color" x="0%" y="0%" width="100%" height="100%">
<feColorMatrix color-interpolation-filters="sRGB" values="0 0 0 0 1 0 0 0 0 1 0 0 0 0 1 0 0 0 1 0" />
</filter>
<mask id="mask-0">
<g filter="url(#filter-remove-color)">
<rect x="-1.2" y="-1.2" width="14.4" height="14.4" fill="rgb(0%, 0%, 0%)" fill-opacity="0.6"/>
</g>
</mask>
<clip100Path id="clip100-0">
<rect x="0" y="0" width="12" height="12"/>
</clip100Path>
<g id="source-6" clip100-path="url(#clip100-0)">
<path fill-rule="evenodd" fill="rgb(26.666667%, 26.666667%, 26.666667%)" fill-opacity="1" d="M 10 3.25 C 10.414062 3.25 10.75 3.585938 10.75 4 L 10.75 10 C 10.75 10.414062 10.414062 10.75 10 10.75 C 9.585938 10.75 9.25 10.414062 9.25 10 L 9.25 4 C 9.25 3.585938 9.585938 3.25 10 3.25 Z M 10 3.25 "/>
</g>
</defs>
<g mask="url(#mask-0)">
<use xlink:href="#source-6"/>
</g>
<path fill-rule="evenodd" fill="rgb(26.666667%, 26.666667%, 26.666667%)" fill-opacity="1" d="M 2.75 2 C 2.75 1.585938 2.414062 1.25 2 1.25 C 1.585938 1.25 1.25 1.585938 1.25 2 L 1.25 10 C 1.25 10.414062 1.585938 10.75 2 10.75 C 2.414062 10.75 2.75 10.414062 2.75 10 L 2.75 9.085938 L 10.183594 7.226562 C 10.515625 7.144531 10.75 6.84375 10.75 6.5 L 10.75 3.5 C 10.75 3.085938 10.414062 2.75 10 2.75 L 2.75 2.75 Z M 2.75 4.25 L 2.75 7.539062 L 9.25 5.914062 L 9.25 4.25 Z M 2.75 4.25 "/>

</g>%n%n</svg>