<svg width="40" height="40" viewBox="0 0 40 40" fill="none" xmlns="http://www.w3.org/2000/svg" >

<g transform="translate(0.000000, 0.000000) scale(2.500000 2.500000) "> 

<path opacity="0.812" d="M3.11574 2.91708C2.63153 2.91712 2.29181 3.12479 2.04424 3.37247C1.79688 3.61983 1.58885 3.95968 1.58885 4.44397V11.6766C1.58885 12.1609 1.79659 12.5006 2.04424 12.7481C2.38044 13.0843 2.80931 13.1767 3.11574 13.1767H4.16045C4.46694 13.1767 4.89555 13.0846 5.23195 12.7481C5.47928 12.5008 5.68734 12.1609 5.68734 11.6766V8.22101L10.8573 7.06915C10.7323 7.26605 10.5625 7.43365 10.5627 7.73883V11.757C10.5624 12.2174 10.7384 12.5222 10.9913 12.7749C11.2437 13.0273 11.7432 13.1768 11.9824 13.1767H13.2146C13.4537 13.1768 13.8693 13.1383 14.2326 12.7749C14.4849 12.5225 14.6614 12.2179 14.6612 11.757V7.73883C14.6614 7.27837 14.4853 6.97352 14.2326 6.72091C13.9938 6.48214 13.6878 6.33653 13.2682 6.3191C13.6936 6.1898 13.8423 6.14882 14.1254 5.78335C14.4085 5.41787 14.5733 4.8201 14.3732 4.21628C14.1242 3.46481 13.2692 3.02044 12.6521 3.1046C12.6646 3.10259 12.479 3.13447 12.4914 3.13138C12.4938 3.13079 12.4729 3.12884 12.4646 3.13138C12.4296 3.14203 12.3477 3.1615 12.3574 3.15817L5.68734 4.65827V4.44397C5.68734 3.95963 5.47963 3.62004 5.23195 3.37247C4.98459 3.12511 4.64461 2.91712 4.16045 2.91708H3.11574Z" fill="#EBE7E4"/>

</g>


<g transform="translate(8.000000, 8.000000) scale(2.000000 2.000000) "> 

<path d="M124.726 239.072L494.254 156.692" stroke="#444444" stroke-width="54.685" stroke-linecap="round"/>
<path opacity="0.75" d="M458.25 264.906C454.527 264.904 450.826 266.436 448.194 269.069C445.561 271.701 444.03 275.402 444.031 279.125V449.656C444.029 453.379 445.561 457.08 448.194 459.712C450.826 462.345 454.527 463.877 458.25 463.875H510.094C513.817 463.877 517.517 462.345 520.15 459.712C522.782 457.08 524.314 453.379 524.312 449.656V279.125C524.314 275.402 522.782 271.701 520.15 269.069C517.517 266.436 513.817 264.905 510.094 264.906H458.25Z" fill="#444444"/>
<path opacity="0.75" d="M81.75 121.906C77.1113 121.906 72.4988 123.814 69.2188 127.094C65.9387 130.374 64.0314 134.986 64.0312 139.625V446.156C64.0314 450.795 65.9387 455.407 69.2188 458.688C72.4988 461.968 77.1113 463.875 81.75 463.875H126.594C131.232 463.875 135.845 461.968 139.125 458.688C142.405 455.407 144.312 450.795 144.312 446.156V291.688C121.897 298.57 95.0114 292.474 80.5312 273.438C58.5706 247.169 69.7759 200.748 102.156 188.5C116.206 185.246 130.26 182.022 144.312 178.781V139.625C144.312 134.986 142.405 130.374 139.125 127.094C135.845 123.814 131.232 121.906 126.594 121.906H81.75Z" fill="#444444"/>

</g>

</svg>