<svg width="300" height="40" viewBox="0 0 300 40" fill="none" xmlns="http://www.w3.org/2000/svg" xmlns:xlink="http://www.w3.org/1999/xlink">

<g transform="translate(130.000000, 0.000000) scale(2.500000 2.500000) "> 

 <path d="m6.075 4.5547c-1.1374 0-1.9649 0.86688-2.2484 1.925h-0.63906a1.5207 1.5207 0 0 0-1.5203 1.5203v1.925a1.5207 1.5207 0 0 0 1.5203 1.5203h9.6248a1.5207 1.5207 0 0 0 1.5203-1.5203v-1.925a1.5207 1.5207 0 0 0-1.5203-1.5203h-0.63906c-0.28355-1.0581-1.111-1.925-2.2484-1.925z" fill="#ebe7e4" opacity=".8" stop-color="#000000" stroke-width="1.5625" style="-inkscape-stroke:none;font-variation-settings:normal"/>

</g>%n%n
<g transform="translate(138.000000, 8.000000) scale(0.750000 0.750000) "> 

<path fill-rule="nonzero" fill="rgb(26.666667%, 26.666667%, 26.666667%)" fill-opacity="1" d="M 2.667969 16 L 29.332031 16 L 29.332031 21.332031 L 2.667969 21.332031 Z M 2.667969 16 "/>
<path fill-rule="nonzero" fill="rgb(26.666667%, 26.666667%, 26.666667%)" fill-opacity="0.7" d="M 8 13.332031 C 8 11.859375 9.195312 10.667969 10.667969 10.667969 L 21.332031 10.667969 C 22.804688 10.667969 24 11.859375 24 13.332031 L 24 16 L 8 16 Z M 8 13.332031 "/>

</g>%n%n</svg>