<svg width="300" height="40" viewBox="0 0 300 40" fill="none" xmlns="http://www.w3.org/2000/svg" xmlns:xlink="http://www.w3.org/1999/xlink">

<g transform="translate(130.000000, 0.000000) scale(2.500000 2.500000) "> 

 <path d="m3.1992 1.6504a1.0171 1.0171 0 0 0-1.0176 1.0176v2.8398a1.0171 1.0171 0 0 0-0.53125 0.89258v0.5332a1.0171 1.0171 0 0 0 0.53125 0.89062v0.88281a1.0171 1.0171 0 0 0-0.53125 0.89258v0.5332a1.0171 1.0171 0 0 0 0.53125 0.89063v2.3086a1.0171 1.0171 0 0 0 1.0176 1.0176h1.0684a1.0171 1.0171 0 0 0 0.80078-0.39062 1.0171 1.0171 0 0 0 0.79883 0.39062h1.0664a1.0171 1.0171 0 0 0 0.80078-0.39062 1.0171 1.0171 0 0 0 0.79883 0.39062h1.0664a1.0171 1.0171 0 0 0 1.0117-0.91602l0.01563-0.14844h0.08789v0.04687a1.0171 1.0171 0 0 0 1.0176 1.0176h1.0684a1.0171 1.0171 0 0 0 1.0176-1.0176v-0.17188a1.0171 1.0171 0 0 0 0.53125-0.89258v-0.53516a1.0171 1.0171 0 0 0-0.53125-0.89062v-5.1484a1.0171 1.0171 0 0 0 0.53125-0.89258v-0.5332a1.0171 1.0171 0 0 0-0.53125-0.89062v-0.70898a1.0171 1.0171 0 0 0-1.0176-1.0176h-1.0684a1.0171 1.0171 0 0 0-0.5332 0.15234 1.0171 1.0171 0 0 0-0.53125-0.15234h-1.0684a1.0171 1.0171 0 0 0-1.0117 0.91797l-0.068359 0.68164a1.0171 1.0171 0 0 0-0.56836 0.18359v-0.76562a1.0171 1.0171 0 0 0-1.0176-1.0176h-1.0664a1.0171 1.0171 0 0 0-0.80078 0.39062 1.0171 1.0171 0 0 0-0.79883-0.39062zm4.752 6.3008h0.097656l-0.0625 0.63086h-0.035156z" clip-rule="evenodd" fill="#ebe7e4" fill-rule="evenodd" opacity=".812"/>

</g>%n%n
<g transform="translate(138.000000, 8.000000) scale(0.750000 0.750000) "> 

<path fill-rule="evenodd" fill="rgb(26.666667%, 26.666667%, 26.666667%)" fill-opacity="1" d="M 2.667969 13.332031 L 20 13.332031 L 20 12 L 2.667969 12 Z M 2.667969 13.332031 "/>
<path fill-rule="evenodd" fill="rgb(26.666667%, 26.666667%, 26.666667%)" fill-opacity="1" d="M 4 2.667969 L 4 29.332031 L 6.667969 29.332031 L 6.667969 2.667969 Z M 4 2.667969 "/>
<path fill-rule="evenodd" fill="rgb(26.666667%, 26.666667%, 26.666667%)" fill-opacity="1" d="M 10.667969 2.667969 L 10.667969 29.332031 L 13.332031 29.332031 L 13.332031 2.667969 Z M 10.667969 2.667969 "/>
<path fill-rule="evenodd" fill="rgb(26.666667%, 26.666667%, 26.666667%)" fill-opacity="1" d="M 2.667969 21.332031 L 18.667969 21.332031 L 18.667969 20 L 2.667969 20 Z M 2.667969 21.332031 "/>
<path fill-rule="evenodd" fill="rgb(26.666667%, 26.666667%, 26.666667%)" fill-opacity="1" d="M 20 2.667969 L 17.332031 29.332031 L 20 29.332031 L 22.667969 2.667969 Z M 20 2.667969 "/>
<path fill-rule="evenodd" fill="rgb(26.666667%, 26.666667%, 26.666667%)" fill-opacity="1" d="M 17.332031 8 L 29.332031 8 L 29.332031 6.667969 L 17.332031 6.667969 Z M 17.332031 8 "/>
<path fill-rule="evenodd" fill="rgb(26.666667%, 26.666667%, 26.666667%)" fill-opacity="1" d="M 25.332031 2.667969 L 25.332031 29.332031 L 28 29.332031 L 28 2.667969 Z M 25.332031 2.667969 "/>
<path fill-rule="evenodd" fill="rgb(26.666667%, 26.666667%, 26.666667%)" fill-opacity="1" d="M 16 26.667969 L 29.332031 26.667969 L 29.332031 25.332031 L 16 25.332031 Z M 16 26.667969 "/>

</g>%n%n</svg>