<svg width="300" height="35" viewBox="0 0 300 35" fill="none" xmlns="http://www.w3.org/2000/svg" >

<g transform="translate(135.000000, 2.000000) scale(1.875000 1.875000) "> 

<path opacity="0.812" d="M3.714 2.84283C3.58493 2.8428 3.45712 2.8682 3.33787 2.91757C3.21862 2.96695 3.11027 3.03934 3.019 3.1306C2.92774 3.22187 2.85535 3.33022 2.80597 3.44947C2.75659 3.56872 2.7312 3.69653 2.73123 3.8256V12.6119C2.7312 12.741 2.75659 12.8688 2.80597 12.988C2.85535 13.1073 2.92774 13.2156 3.019 13.3069C3.11027 13.3982 3.21862 13.4706 3.33787 13.5199C3.45712 13.5693 3.58493 13.5947 3.714 13.5947H5.80342C6.04589 13.5943 6.27964 13.5042 6.45972 13.3419C6.63979 13.5042 6.87355 13.5943 7.11601 13.5947H8.88399C9.12645 13.5943 9.3602 13.5042 9.54028 13.3419C9.72036 13.5042 9.95411 13.5943 10.1966 13.5947H12.286C12.4151 13.5947 12.5429 13.5693 12.6621 13.5199C12.7814 13.4706 12.8897 13.3982 12.981 13.3069C13.0723 13.2156 13.1446 13.1073 13.194 12.988C13.2434 12.8688 13.2688 12.741 13.2688 12.6119V3.8256C13.2688 3.69653 13.2434 3.56872 13.194 3.44947C13.1446 3.33022 13.0723 3.22187 12.981 3.1306C12.8897 3.03934 12.7814 2.96695 12.6621 2.91757C12.5429 2.8682 12.4151 2.8428 12.286 2.84283H3.714Z" fill="#EBE7E4"/>

</g>


<g transform="translate(141.000000, 8.000000) scale(0.031034 0.031034) "> 

<path d="M108.274 113.223H471.726V485.161H383.461C383.461 485.161 383.461 484.988 383.461 266.262C383.931 208.701 337.321 187.151 290.672 186.777C244.023 186.402 197.79 209.832 196.774 266.262C197.139 481.745 196.774 485.161 196.774 485.161H108.274V113.223Z" fill="#444444"/>
<path opacity="0.75" d="M252.5 272.115C252.5 272.115 254.182 243.642 289.242 244.538C324.303 245.433 327.5 272.115 327.5 272.115V485.115H252.5V272.115Z" fill="#444444"/>

</g>

</svg>