<svg width="300" height="40" viewBox="0 0 300 40" fill="none" xmlns="http://www.w3.org/2000/svg" xmlns:xlink="http://www.w3.org/1999/xlink">

<g transform="translate(130.000000, 0.000000) scale(2.500000 2.500000) "> 

<path opacity="0.812" d="M3.87723 4.00017C3.60502 4.00398 3.31009 4.08493 3.04555 4.36016C2.80823 4.60709 2.7085 4.86215 2.71287 5.17614V5.27213C2.61141 5.3326 2.46221 5.33449 2.3802 5.41613C2.14457 5.65077 2 6.00921 2 6.30411C2 6.59911 2.1026 6.93956 2.3802 7.21608C2.48118 7.31664 2.59849 7.30458 2.71287 7.36008V7.91206C2.60131 7.96732 2.47863 7.95806 2.3802 8.05606C2.10246 8.33263 2 8.67314 2 8.96804C2 9.26304 2.1026 9.60349 2.3802 9.88001C2.48117 9.98056 2.59849 9.9685 2.71287 10.024V10.48V10.912V11.32C2.7115 11.4181 2.72962 11.5154 2.76616 11.6063C2.80269 11.6972 2.8569 11.7798 2.92558 11.8491C2.99426 11.9185 3.07601 11.9732 3.166 12.0101C3.25599 12.047 3.35239 12.0653 3.44951 12.064H4.30495C4.40207 12.0653 4.49847 12.047 4.58846 12.0101C4.67845 11.9732 4.7602 11.9185 4.82888 11.8491C4.89755 11.7798 4.95176 11.6972 4.9883 11.6063C5.02483 11.5154 5.04295 11.4181 5.04159 11.32V10.912V10.48V10.24H6.13466V10.456C5.94258 10.4596 5.75974 10.5399 5.62614 10.6793C5.49254 10.8188 5.41906 11.006 5.42178 11.2V12.2559C5.42042 12.354 5.43854 12.4514 5.47507 12.5423C5.51161 12.6332 5.56582 12.7157 5.63449 12.7851C5.70317 12.8545 5.78492 12.9092 5.87491 12.9461C5.9649 12.983 6.0613 13.0013 6.15842 12.9999H6.68119H9.62773H10.1505C10.2476 13.0013 10.344 12.983 10.434 12.9461C10.524 12.9092 10.6057 12.8545 10.6744 12.7851C10.7431 12.7157 10.7973 12.6332 10.8338 12.5423C10.8704 12.4514 10.8885 12.354 10.8871 12.2559V11.2C10.8885 11.1019 10.8704 11.0045 10.8338 10.9136C10.7973 10.8228 10.7431 10.7402 10.6744 10.6708C10.6057 10.6015 10.524 10.5467 10.434 10.5098C10.344 10.4729 10.2476 10.4546 10.1505 10.456H10.103V10.24H11.0297V10.48V10.912V11.32C11.0283 11.4181 11.0465 11.5154 11.083 11.6063C11.1195 11.6972 11.1737 11.7798 11.2424 11.8491C11.3111 11.9185 11.3928 11.9732 11.4828 12.0101C11.5728 12.047 11.6692 12.0653 11.7663 12.064H12.598C12.6951 12.0653 12.7915 12.047 12.8815 12.0101C12.9715 11.9732 13.0533 11.9185 13.1219 11.8491C13.1906 11.7798 13.2448 11.6972 13.2814 11.6063C13.3179 11.5154 13.336 11.4181 13.3347 11.32V10.912V10.48V10C13.4287 9.94785 13.5358 9.96368 13.6198 9.88001C13.8975 9.60344 14 9.26293 14 8.96804C14 8.67328 13.8977 8.33269 13.6198 8.05606C13.5336 7.97024 13.4311 7.98867 13.3347 7.93606V7.33608C13.4287 7.28392 13.5358 7.29974 13.6198 7.21608C13.8975 6.93951 14 6.599 14 6.30411C14 6.00935 13.8556 5.65084 13.6198 5.41613C13.548 5.34465 13.4208 5.35174 13.3347 5.29613V5.17614C13.3386 4.87659 13.2477 4.58392 13.002 4.33616C12.7579 4.08999 12.4695 3.99545 12.1703 4.00017C11.8966 4.004 11.5745 4.13939 11.3624 4.36016C11.1658 4.5647 11.1019 4.78343 11.0772 5.03214H4.97029C4.92854 4.74358 4.84534 4.49765 4.68515 4.33616C4.49247 4.14188 4.17484 3.99547 3.87723 4.00017ZM5.04159 7.57607H11.0297V7.69607H5.04159V7.57607V7.57607Z" fill="#EBE7E4"/>

</g>%n%n
<g transform="translate(138.000000, 8.000000) scale(2.000000 2.000000) "> 

<defs>
<filter id="filter-remove-color" x="0%" y="0%" width="100%" height="100%">
<feColorMatrix color-interpolation-filters="sRGB" values="0 0 0 0 1 0 0 0 0 1 0 0 0 0 1 0 0 0 1 0" />
</filter>
<mask id="mask-0">
<g filter="url(#filter-remove-color)">
<rect x="-1.2" y="-1.2" width="14.4" height="14.4" fill="rgb(0%, 0%, 0%)" fill-opacity="0.75"/>
</g>
</mask>
<clip100Path id="clip100-0">
<rect x="0" y="0" width="12" height="12"/>
</clip100Path>
<g id="source-6" clip100-path="url(#clip100-0)">
<path fill-rule="nonzero" fill="rgb(26.666667%, 26.666667%, 26.666667%)" fill-opacity="1" d="M 2.019531 2.863281 C 1.914062 2.863281 1.804688 2.910156 1.730469 2.988281 C 1.65625 3.066406 1.613281 3.175781 1.613281 3.28125 L 1.613281 3.878906 L 1.421875 3.878906 C 1.285156 3.878906 1.148438 3.933594 1.050781 4.027344 C 0.953125 4.125 0.898438 4.261719 0.898438 4.398438 C 0.898438 4.535156 0.953125 4.667969 1.050781 4.765625 C 1.148438 4.859375 1.285156 4.914062 1.421875 4.914062 L 1.613281 4.914062 L 1.613281 6.476562 L 1.421875 6.476562 C 1.285156 6.476562 1.148438 6.53125 1.050781 6.625 C 0.953125 6.722656 0.898438 6.859375 0.898438 6.996094 C 0.898438 7.132812 0.953125 7.265625 1.050781 7.363281 C 1.148438 7.457031 1.285156 7.511719 1.421875 7.511719 L 1.613281 7.511719 L 1.613281 9.296875 L 2.441406 9.296875 L 2.441406 7.511719 L 4.394531 7.511719 L 4.394531 6.890625 L 8.019531 6.890625 L 8.019531 7.511719 L 9.808594 7.511719 L 9.808594 9.296875 L 10.632812 9.296875 L 10.632812 7.511719 L 10.769531 7.511719 C 10.902344 7.511719 11.039062 7.457031 11.136719 7.363281 C 11.234375 7.265625 11.292969 7.132812 11.292969 6.996094 C 11.292969 6.859375 11.234375 6.722656 11.136719 6.625 C 11.039062 6.53125 10.902344 6.476562 10.769531 6.476562 L 10.632812 6.476562 L 10.632812 4.914062 L 10.769531 4.914062 C 10.902344 4.914062 11.039062 4.859375 11.136719 4.765625 C 11.234375 4.667969 11.292969 4.535156 11.292969 4.398438 C 11.292969 4.261719 11.234375 4.125 11.136719 4.027344 C 11.039062 3.933594 10.902344 3.878906 10.769531 3.878906 L 10.632812 3.878906 L 10.632812 3.28125 C 10.636719 3.171875 10.589844 3.0625 10.511719 2.984375 C 10.433594 2.90625 10.324219 2.859375 10.214844 2.863281 C 10.105469 2.863281 10 2.910156 9.925781 2.988281 C 9.847656 3.066406 9.804688 3.175781 9.808594 3.28125 L 9.808594 3.878906 L 2.441406 3.878906 L 2.441406 3.28125 C 2.441406 3.171875 2.398438 3.0625 2.320312 2.984375 C 2.242188 2.90625 2.132812 2.859375 2.019531 2.863281 Z M 2.441406 4.914062 L 9.808594 4.914062 L 9.808594 6.476562 L 2.441406 6.476562 Z M 2.441406 4.914062 "/>
</g>
</defs>
<g mask="url(#mask-0)">
<use xlink:href="#source-6"/>
</g>
<path fill="none" stroke-width="50" stroke-linecap="square" stroke-linejoin="miter" stroke="rgb(26.666667%, 26.666667%, 26.666667%)" stroke-opacity="1" stroke-miterlimit="4" d="M 232.03776 468.040365 L 371.940104 468.040365 " transform="matrix(0.0206897, 0, 0, 0.0206897, 0, 0)"/>
<path fill="none" stroke-width="50" stroke-linecap="butt" stroke-linejoin="miter" stroke="rgb(26.666667%, 26.666667%, 26.666667%)" stroke-opacity="1" stroke-miterlimit="4" d="M 240.345052 385.911458 L 359.667969 385.911458 " transform="matrix(0.0206897, 0, 0, 0.0206897, 0, 0)"/>

</g>%n%n</svg>