<svg width="300" height="40" viewBox="0 0 300 40" fill="none" xmlns="http://www.w3.org/2000/svg" xmlns:xlink="http://www.w3.org/1999/xlink" version="1.1">

<g transform="translate(130.000000, 0.000000) scale(2.500000 2.500000) "> 

 <path transform="matrix(.8 0 0 .8 1.6 1.6)" d="m1.334-0.0058594a1.34 1.34 0 0 0-1.3398 1.3398v13.332a1.34 1.34 0 0 0 1.3398 1.3398h1.332a1.34 1.34 0 0 0 1.3398-1.3398v-5.3262h7.9883v5.3262a1.34 1.34 0 0 0 1.3398 1.3398h1.332a1.34 1.34 0 0 0 1.3398-1.3398v-13.332a1.34 1.34 0 0 0-1.3398-1.3398z" fill="#ebe7e4" opacity=".8" stop-color="#000000" stroke-width="1.5625" style="-inkscape-stroke:none;font-variation-settings:normal"/>

</g>%n%n
<g transform="translate(138.000000, 8.000000) scale(2.000000 2.000000) "> 

<g id="surface1">
<path style=" stroke:none;fill-rule:evenodd;fill:rgb(26.666668%,26.666668%,26.666668%);fill-opacity:0.698039;" d="M 2 6 L 2 11 L 1 11 L 1 6 Z M 2 6 "/>
<path style=" stroke:none;fill-rule:evenodd;fill:rgb(26.666668%,26.666668%,26.666668%);fill-opacity:0.698039;" d="M 11 6 L 11 11 L 10 11 L 10 6 Z M 11 6 "/>
<path style=" stroke:none;fill-rule:nonzero;fill:rgb(26.666668%,26.666668%,26.666668%);fill-opacity:1;" d="M 1 1 L 11 1 L 11 6 L 1 6 Z M 1 1 "/>
</g>

</g>%n%n</svg>