<svg width="300" height="40" viewBox="0 0 300 40" fill="none" xmlns="http://www.w3.org/2000/svg" xmlns:xlink="http://www.w3.org/1999/xlink" version="1.1">

<g transform="translate(130.000000, 0.000000) scale(2.500000 2.500000) "> 

<path opacity="0.812" d="M3.89602 4.03959C3.34742 3.89129 2.66283 4.18111 2.37281 4.55126C2.0828 4.92142 2 5.28606 2 5.66553V11.3124C2 12.1838 2.69901 12.9753 3.61755 12.9753H6.22267C7.1412 12.9753 7.86456 12.2427 7.86456 11.3124C7.8643 11.299 7.86379 11.2857 7.86304 11.2723L7.69413 6.52859C7.69413 6.19128 7.56034 5.72517 7.28023 5.42049C7.00108 5.11684 6.69624 4.99238 6.42201 4.89957L3.96297 4.06117C3.94089 4.05325 3.91856 4.04605 3.89602 4.03959V4.03959ZM10.0695 5.63009C9.15094 5.63009 8.45193 6.42162 8.45193 7.29301L8.4565 7.20671L8.13999 11.2508C8.13734 11.2794 8.13582 11.3082 8.13542 11.3371C8.13542 12.2085 8.83443 13 9.75297 13C9.75652 13 9.76007 13 9.76362 13L12.3824 12.9753C13.301 12.9753 14 12.1838 14 11.3124C14 11.3078 14 11.3032 14 11.2985L13.9513 7.44097C13.9513 6.56957 13.1941 5.8027 12.3337 5.8027L12.4144 5.80578L10.1501 5.63317C10.1233 5.63113 10.0964 5.6301 10.0695 5.63009V5.63009Z" fill="#EBE7E4"/>

</g>%n%n
<g transform="translate(138.000000, 8.000000) scale(2.000000 2.000000) "> 

<g id="surface1">
<path style="fill-rule:nonzero;fill:rgb(26.666668%,26.666668%,26.666668%);fill-opacity:1;stroke-width:5.2;stroke-linecap:butt;stroke-linejoin:miter;stroke:rgb(26.666668%,26.666668%,26.666668%);stroke-opacity:1;stroke-miterlimit:4;" d="M 244.6875 439.908854 C 244.6875 453.880208 233.170573 465.397135 219.199219 465.397135 L 97.044271 465.397135 C 83.072917 465.397135 71.55599 453.880208 71.55599 439.908854 L 71.55599 178.795573 C 71.55599 164.824219 80.807292 148.964844 97.044271 153.307292 L 212.213542 191.067708 C 230.14974 197.109375 236.56901 205.227865 236.56901 219.388021 Z M 244.6875 439.908854 " transform="matrix(0.0206897,0,0,0.0206897,0,0)"/>
<path style="fill-rule:nonzero;fill:rgb(26.666668%,26.666668%,26.666668%);fill-opacity:1;stroke-width:5.2;stroke-linecap:butt;stroke-linejoin:miter;stroke:rgb(26.666668%,26.666668%,26.666668%);stroke-opacity:1;stroke-miterlimit:4;" d="M 531.666667 439.908854 C 531.666667 453.880208 520.14974 465.397135 506.178385 465.397135 L 384.21224 466.341146 C 370.052083 466.341146 358.535156 454.824219 358.535156 440.852865 L 373.072917 253.938802 C 373.072917 239.778646 384.589844 228.261719 398.561198 228.261719 L 504.101562 235.813802 C 518.261719 235.813802 529.589844 247.330729 529.589844 261.302083 Z M 531.666667 439.908854 " transform="matrix(0.0206897,0,0,0.0206897,0,0)"/>
</g>

</g>%n%n</svg>