<svg width="300" height="40" viewBox="0 0 300 40" fill="none" xmlns="http://www.w3.org/2000/svg" xmlns:xlink="http://www.w3.org/1999/xlink">

<g transform="translate(130.000000, 0.000000) scale(2.500000 2.500000) "> 

<path opacity="0.812" d="M8 1.29868C4.33056 1.29868 1.32991 4.29932 1.32991 7.96876C1.32991 11.6382 4.33056 14.6389 8 14.6389C11.6694 14.6389 14.6701 11.6382 14.6701 7.96876C14.6701 4.29932 11.6694 1.29868 8 1.29868ZM11.3049 5.51938C11.815 6.21343 12.1788 7.02528 12.1788 7.96876C12.1788 9.31071 11.4866 10.4173 10.5197 11.1816L8.49557 9.2847C8.34787 9.14637 8.15344 9.06884 7.95108 9.0676C7.74873 9.06636 7.55335 9.14149 7.40398 9.278L5.39324 11.1213C4.47789 10.3545 3.82115 9.27054 3.82115 7.96876C3.82115 7.0277 4.19343 6.21786 4.71183 5.52273L7.42909 8.02401C7.57621 8.1595 7.76857 8.23527 7.96857 8.23651C8.16857 8.23774 8.36185 8.16436 8.51063 8.03071L11.3049 5.51938Z" fill="#EBE7E4"/>

</g>%n%n
<g transform="translate(138.000000, 8.000000) scale(2.000000 2.000000) "> 

<path fill-rule="nonzero" fill="rgb(26.666667%, 26.666667%, 26.666667%)" fill-opacity="1" d="M 2.667969 2.476562 L 5.984375 5.523438 L 9.300781 2.535156 L 7.046875 1.292969 C 7.046875 1.292969 4.9375 1.382812 4.714844 1.425781 C 4.488281 1.472656 3.210938 2.078125 3.210938 2.078125 Z M 2.667969 2.476562 "/>
<path fill="none" stroke-width="37" stroke-linecap="round" stroke-linejoin="round" stroke="rgb(26.666667%, 26.666667%, 26.666667%)" stroke-opacity="1" stroke-miterlimit="4" d="M 519.394531 290 C 519.394531 350.794271 495.227865 409.134115 452.18099 452.18099 C 409.134115 495.227865 350.794271 519.394531 290 519.394531 C 229.205729 519.394531 170.865885 495.227865 127.81901 452.18099 C 84.772135 409.134115 60.605469 350.794271 60.605469 290 C 60.605469 229.205729 84.772135 170.865885 127.81901 127.81901 C 170.865885 84.772135 229.205729 60.605469 290 60.605469 C 350.794271 60.605469 409.134115 84.772135 452.18099 127.81901 C 495.227865 170.865885 519.394531 229.205729 519.394531 290 Z M 519.394531 290 " transform="matrix(0.0206897, 0, 0, 0.0206897, 0, 0)"/>
<path fill-rule="nonzero" fill="rgb(26.666667%, 26.666667%, 26.666667%)" fill-opacity="1" d="M 3.476562 9.941406 L 5.957031 7.65625 L 8.375 9.917969 L 6.761719 10.828125 C 6.761719 10.828125 5.179688 10.761719 5.011719 10.726562 C 4.84375 10.691406 3.882812 10.238281 3.882812 10.238281 Z M 3.476562 9.941406 "/>

</g>%n%n</svg>