<svg width="40" height="40" viewBox="0 0 40 40" fill="none" xmlns="http://www.w3.org/2000/svg" >

<g transform="translate(0.000000, 0.000000) scale(2.500000 2.500000) "> 

<path opacity="0.812" d="M3.00417 1.62361C2.92505 1.63866 2.84764 1.66165 2.77313 1.69226C2.70321 1.72131 2.63575 1.75587 2.57055 1.79438L2.80494 1.68723C2.1342 1.90713 1.65504 2.60622 1.68991 3.31123L1.68824 3.25263V12.65C1.66524 13.5148 2.44718 14.3175 3.31223 14.3175C4.15476 14.3175 4.89315 13.5489 4.91111 12.7103C4.97588 12.7207 5.0414 12.7257 5.10699 12.7254H10.8931C10.9582 12.7251 11.0231 12.7195 11.0873 12.7086C11.1039 13.5481 11.8446 14.3175 12.6879 14.3175C13.5529 14.3175 14.3348 13.5148 14.3118 12.65V3.25263L14.3085 3.34806C14.3887 2.35335 13.3595 1.43369 12.3798 1.62361C12.3007 1.63866 12.2233 1.66165 12.1488 1.69226C12.0788 1.72131 12.0114 1.75587 11.9462 1.79438L12.1806 1.68723C11.5478 1.89469 11.1201 2.53597 11.099 3.19905C11.031 3.18754 10.9621 3.18194 10.8931 3.18231H5.10699C5.02772 3.18228 4.94865 3.19013 4.87093 3.20575C4.83572 2.27578 3.93048 1.44404 3.00417 1.62361Z" fill="#EBE7E4"/>

</g>


<g transform="translate(8.000000, 8.000000) scale(2.000000 2.000000) "> 

<path d="M91.9078 489.653V90.3475" stroke="#444444" stroke-width="36.25" stroke-linecap="round"/>
<path d="M488.092 489.653V90.3475" stroke="#444444" stroke-width="36.25" stroke-linecap="round"/>
<path d="M411.856 138.259H168.144C168.017 138.259 167.914 138.362 167.914 138.488V440.156C167.914 440.282 168.017 440.385 168.144 440.385H411.856C411.983 440.385 412.086 440.282 412.086 440.156V138.488C412.086 138.362 411.983 138.259 411.856 138.259Z" fill="#444444"/>

</g>

</svg>