<svg width="300" height="40" viewBox="0 0 300 40" fill="none" xmlns="http://www.w3.org/2000/svg" xmlns:xlink="http://www.w3.org/1999/xlink">

<g transform="translate(130.000000, 0.000000) scale(2.500000 2.500000) "> 

<path opacity="0.812" d="M12.3716 1.34772C11.795 1.34772 11.2119 1.57149 10.776 2.00736L9.07504 3.70837C9.07448 3.70837 9.07392 3.70837 9.07337 3.70837C8.75248 4.02925 8.56037 4.4266 8.47399 4.84349C8.05781 4.93068 7.66053 5.12285 7.34055 5.44286L5.63954 7.14386C5.63898 7.14386 5.63843 7.14386 5.63787 7.14386C5.2702 7.51153 5.09314 7.97845 5.03347 8.46147C4.5606 8.52599 4.09634 8.68536 3.73596 9.04577L2.03495 10.7468C1.16027 11.6215 1.16024 13.0665 2.03495 13.9412C2.90896 14.8152 4.35365 14.8152 5.22768 13.9412L6.92869 12.2402C6.92925 12.2402 6.9298 12.2402 6.93036 12.2402C7.29199 11.8785 7.47442 11.4206 7.5381 10.946C8.01267 10.8823 8.47063 10.6999 8.83227 10.3383C8.83228 10.3377 8.83228 10.3371 8.83227 10.3366L10.5333 8.63555V8.63388C10.8527 8.31409 11.0456 7.91782 11.1327 7.50211C11.5495 7.41574 11.9469 7.22361 12.2678 6.90274C12.2678 6.90218 12.2678 6.90162 12.2678 6.90107L13.9688 5.20006V5.19839C14.8416 4.32424 14.8424 2.88097 13.9688 2.00733C13.5316 1.57019 12.9482 1.34772 12.3716 1.34772Z" fill="#EBE7E4"/>

</g>%n%n
<g transform="translate(138.000000, 8.000000) scale(2.000000 2.000000) "> 

<path fill-rule="nonzero" fill="rgb(26.666667%, 26.666667%, 26.666667%)" fill-opacity="1" d="M 4.09375 8.765625 L 2.605469 10.253906 C 2.371094 10.488281 1.984375 10.488281 1.746094 10.253906 C 1.511719 10.015625 1.511719 9.628906 1.746094 9.394531 L 3.234375 7.90625 C 3.34375 7.796875 3.484375 7.738281 3.628906 7.726562 L 4.128906 7.226562 C 3.695312 7.042969 3.171875 7.128906 2.816406 7.484375 L 1.328125 8.972656 C 0.859375 9.441406 0.859375 10.203125 1.328125 10.671875 C 1.796875 11.140625 2.558594 11.140625 3.027344 10.671875 L 4.515625 9.183594 C 4.871094 8.828125 4.957031 8.304688 4.773438 7.871094 L 4.273438 8.371094 C 4.261719 8.515625 4.203125 8.65625 4.09375 8.765625 Z M 4.09375 8.765625 "/>
<path fill-rule="nonzero" fill="rgb(26.666667%, 26.666667%, 26.666667%)" fill-opacity="1" d="M 8.972656 1.328125 L 7.484375 2.816406 C 7.152344 3.148438 7.058594 3.625 7.195312 4.042969 C 6.777344 3.90625 6.300781 4.003906 5.96875 4.332031 L 4.480469 5.820312 C 4.125 6.175781 4.039062 6.699219 4.222656 7.136719 L 4.722656 6.632812 C 4.730469 6.492188 4.789062 6.351562 4.898438 6.242188 L 6.386719 4.753906 C 6.496094 4.644531 6.636719 4.585938 6.78125 4.574219 L 7.726562 3.628906 C 7.738281 3.484375 7.796875 3.34375 7.90625 3.234375 L 9.394531 1.746094 C 9.628906 1.511719 10.015625 1.511719 10.253906 1.746094 C 10.488281 1.984375 10.488281 2.371094 10.253906 2.605469 L 8.765625 4.09375 C 8.65625 4.203125 8.515625 4.261719 8.371094 4.273438 L 7.425781 5.21875 C 7.414062 5.363281 7.355469 5.503906 7.246094 5.613281 L 5.757812 7.101562 C 5.648438 7.210938 5.507812 7.269531 5.367188 7.277344 L 4.863281 7.777344 C 5.300781 7.960938 5.824219 7.875 6.179688 7.519531 L 7.667969 6.03125 C 7.996094 5.699219 8.09375 5.222656 7.957031 4.804688 C 8.375 4.941406 8.851562 4.847656 9.183594 4.515625 L 10.671875 3.027344 C 11.140625 2.558594 11.140625 1.796875 10.671875 1.328125 C 10.203125 0.859375 9.441406 0.859375 8.972656 1.328125 Z M 8.972656 1.328125 "/>
<path fill-rule="nonzero" fill="rgb(26.666667%, 26.666667%, 26.666667%)" fill-opacity="1" d="M 5.550781 6.871094 C 5.664062 6.753906 5.664062 6.566406 5.550781 6.449219 C 5.433594 6.335938 5.246094 6.335938 5.128906 6.449219 L 4.746094 6.835938 L 4.296875 7.285156 L 4.277344 7.300781 L 3.832031 7.75 L 3.453125 8.128906 C 3.335938 8.242188 3.335938 8.433594 3.453125 8.546875 C 3.566406 8.664062 3.757812 8.664062 3.871094 8.546875 L 4.25 8.167969 L 4.699219 7.722656 L 4.714844 7.703125 L 5.164062 7.253906 Z M 5.550781 6.871094 "/>
<path fill-rule="nonzero" fill="rgb(26.666667%, 26.666667%, 26.666667%)" fill-opacity="1" d="M 7.402344 5.015625 L 7.722656 4.699219 L 7.851562 4.570312 L 8.167969 4.25 L 8.652344 3.765625 C 8.769531 3.652344 8.769531 3.464844 8.652344 3.347656 C 8.535156 3.230469 8.347656 3.230469 8.234375 3.347656 L 7.75 3.832031 L 7.429688 4.148438 L 7.300781 4.277344 L 6.984375 4.597656 L 6.554688 5.023438 C 6.441406 5.140625 6.441406 5.328125 6.554688 5.445312 C 6.671875 5.558594 6.859375 5.558594 6.976562 5.445312 Z M 7.402344 5.015625 "/>

</g>%n%n</svg>