<svg width="300" height="40" viewBox="0 0 300 40" fill="none" xmlns="http://www.w3.org/2000/svg" xmlns:xlink="http://www.w3.org/1999/xlink">

<g transform="translate(130.000000, 0.000000) scale(2.500000 2.500000) "> 

<path opacity="0.812" d="M12.3716 1.34772C11.795 1.34772 11.2119 1.57149 10.776 2.00736L9.07504 3.70837C9.07448 3.70837 9.07392 3.70837 9.07337 3.70837C8.75248 4.02925 8.56037 4.4266 8.47399 4.84349C8.05781 4.93068 7.66053 5.12285 7.34055 5.44286L5.63954 7.14386C5.63898 7.14386 5.63843 7.14386 5.63787 7.14386C5.2702 7.51153 5.09314 7.97845 5.03347 8.46147C4.5606 8.52599 4.09634 8.68536 3.73596 9.04577L2.03495 10.7468C1.16027 11.6215 1.16024 13.0665 2.03495 13.9412C2.90896 14.8152 4.35365 14.8152 5.22768 13.9412L6.92869 12.2402C6.92925 12.2402 6.9298 12.2402 6.93036 12.2402C7.29199 11.8785 7.47442 11.4206 7.5381 10.946C8.01267 10.8823 8.47063 10.6999 8.83227 10.3383C8.83228 10.3377 8.83228 10.3371 8.83227 10.3366L10.5333 8.63555V8.63388C10.8527 8.31409 11.0456 7.91782 11.1327 7.50211C11.5495 7.41574 11.9469 7.22361 12.2678 6.90274C12.2678 6.90218 12.2678 6.90162 12.2678 6.90107L13.9688 5.20006V5.19839C14.8416 4.32424 14.8424 2.88097 13.9688 2.00733C13.5316 1.57019 12.9482 1.34772 12.3716 1.34772Z" fill="#EBE7E4"/>

</g>%n%n
<g transform="translate(138.000000, 8.000000) scale(0.750000 0.750000) "> 

<path fill-rule="nonzero" fill="rgb(26.666667%, 26.666667%, 26.666667%)" fill-opacity="1" d="M 10.921875 23.371094 L 6.953125 27.339844 C 6.320312 27.972656 5.292969 27.972656 4.660156 27.339844 C 4.027344 26.707031 4.027344 25.679688 4.660156 25.046875 L 8.628906 21.078125 C 8.921875 20.789062 9.296875 20.628906 9.675781 20.609375 L 11.011719 19.273438 C 9.851562 18.785156 8.457031 19.015625 7.511719 19.960938 L 3.542969 23.929688 C 2.292969 25.179688 2.292969 27.210938 3.542969 28.457031 C 4.789062 29.707031 6.820312 29.707031 8.070312 28.457031 L 12.039062 24.488281 C 12.984375 23.542969 13.214844 22.148438 12.726562 20.988281 L 11.390625 22.324219 C 11.371094 22.703125 11.210938 23.078125 10.921875 23.371094 Z M 10.921875 23.371094 "/>
<path fill-rule="nonzero" fill="rgb(26.666667%, 26.666667%, 26.666667%)" fill-opacity="1" d="M 23.929688 3.542969 L 19.960938 7.511719 C 19.078125 8.394531 18.820312 9.667969 19.183594 10.78125 C 18.074219 10.414062 16.800781 10.671875 15.917969 11.554688 L 11.945312 15.523438 C 11 16.46875 10.773438 17.863281 11.257812 19.027344 L 12.59375 17.691406 C 12.617188 17.308594 12.773438 16.933594 13.066406 16.644531 L 17.035156 12.671875 C 17.324219 12.382812 17.699219 12.226562 18.082031 12.203125 L 20.609375 9.675781 C 20.628906 9.296875 20.789062 8.921875 21.078125 8.628906 L 25.046875 4.660156 C 25.679688 4.027344 26.707031 4.027344 27.339844 4.660156 C 27.972656 5.292969 27.972656 6.320312 27.339844 6.953125 L 23.371094 10.921875 C 23.078125 11.210938 22.703125 11.367188 22.324219 11.390625 L 19.796875 13.917969 C 19.773438 14.300781 19.617188 14.675781 19.328125 14.964844 L 15.355469 18.933594 C 15.066406 19.226562 14.691406 19.382812 14.308594 19.40625 L 12.972656 20.742188 C 14.136719 21.226562 15.53125 21 16.476562 20.054688 L 20.445312 16.082031 C 21.328125 15.199219 21.585938 13.925781 21.21875 12.816406 C 22.332031 13.179688 23.605469 12.921875 24.488281 12.039062 L 28.457031 8.070312 C 29.707031 6.820312 29.707031 4.789062 28.457031 3.542969 C 27.210938 2.292969 25.179688 2.292969 23.929688 3.542969 Z M 23.929688 3.542969 "/>
<path fill-rule="nonzero" fill="rgb(26.666667%, 26.666667%, 26.666667%)" fill-opacity="1" d="M 14.796875 18.320312 C 15.105469 18.011719 15.105469 17.511719 14.796875 17.203125 C 14.488281 16.894531 13.988281 16.894531 13.679688 17.203125 L 11.410156 19.472656 L 10.214844 20.664062 L 9.207031 21.675781 C 8.898438 21.984375 8.898438 22.484375 9.207031 22.792969 C 9.515625 23.101562 10.015625 23.101562 10.324219 22.792969 L 11.335938 21.785156 L 12.527344 20.589844 Z M 14.796875 18.320312 "/>
<path fill-rule="nonzero" fill="rgb(26.666667%, 26.666667%, 26.666667%)" fill-opacity="1" d="M 19.738281 13.378906 L 20.933594 12.183594 L 21.785156 11.335938 L 23.074219 10.046875 C 23.382812 9.738281 23.382812 9.234375 23.074219 8.925781 C 22.765625 8.617188 22.261719 8.617188 21.953125 8.925781 L 20.664062 10.214844 L 19.816406 11.066406 L 18.621094 12.261719 L 17.480469 13.398438 C 17.171875 13.710938 17.171875 14.210938 17.480469 14.519531 C 17.789062 14.828125 18.289062 14.828125 18.601562 14.519531 Z M 19.738281 13.378906 "/>

</g>%n%n</svg>