<svg width="300" height="40" viewBox="0 0 300 40" fill="none" xmlns="http://www.w3.org/2000/svg" xmlns:xlink="http://www.w3.org/1999/xlink">

<g transform="translate(130.000000, 0.000000) scale(2.500000 2.500000) "> 

<path opacity="0.812" d="M3.87723 4.00017C3.60502 4.00398 3.31009 4.08493 3.04555 4.36016C2.80823 4.60709 2.7085 4.86215 2.71287 5.17614V5.27213C2.61141 5.3326 2.46221 5.33449 2.3802 5.41613C2.14457 5.65077 2 6.00921 2 6.30411C2 6.59911 2.1026 6.93956 2.3802 7.21608C2.48118 7.31664 2.59849 7.30458 2.71287 7.36008V7.91206C2.60131 7.96732 2.47863 7.95806 2.3802 8.05606C2.10246 8.33263 2 8.67314 2 8.96804C2 9.26304 2.1026 9.60349 2.3802 9.88001C2.48117 9.98056 2.59849 9.9685 2.71287 10.024V10.48V10.912V11.32C2.7115 11.4181 2.72962 11.5154 2.76616 11.6063C2.80269 11.6972 2.8569 11.7798 2.92558 11.8491C2.99426 11.9185 3.07601 11.9732 3.166 12.0101C3.25599 12.047 3.35239 12.0653 3.44951 12.064H4.30495C4.40207 12.0653 4.49847 12.047 4.58846 12.0101C4.67845 11.9732 4.7602 11.9185 4.82888 11.8491C4.89755 11.7798 4.95176 11.6972 4.9883 11.6063C5.02483 11.5154 5.04295 11.4181 5.04159 11.32V10.912V10.48V10.24H6.13466V10.456C5.94258 10.4596 5.75974 10.5399 5.62614 10.6793C5.49254 10.8188 5.41906 11.006 5.42178 11.2V12.2559C5.42042 12.354 5.43854 12.4514 5.47507 12.5423C5.51161 12.6332 5.56582 12.7157 5.63449 12.7851C5.70317 12.8545 5.78492 12.9092 5.87491 12.9461C5.9649 12.983 6.0613 13.0013 6.15842 12.9999H6.68119H9.62773H10.1505C10.2476 13.0013 10.344 12.983 10.434 12.9461C10.524 12.9092 10.6057 12.8545 10.6744 12.7851C10.7431 12.7157 10.7973 12.6332 10.8338 12.5423C10.8704 12.4514 10.8885 12.354 10.8871 12.2559V11.2C10.8885 11.1019 10.8704 11.0045 10.8338 10.9136C10.7973 10.8228 10.7431 10.7402 10.6744 10.6708C10.6057 10.6015 10.524 10.5467 10.434 10.5098C10.344 10.4729 10.2476 10.4546 10.1505 10.456H10.103V10.24H11.0297V10.48V10.912V11.32C11.0283 11.4181 11.0465 11.5154 11.083 11.6063C11.1195 11.6972 11.1737 11.7798 11.2424 11.8491C11.3111 11.9185 11.3928 11.9732 11.4828 12.0101C11.5728 12.047 11.6692 12.0653 11.7663 12.064H12.598C12.6951 12.0653 12.7915 12.047 12.8815 12.0101C12.9715 11.9732 13.0533 11.9185 13.1219 11.8491C13.1906 11.7798 13.2448 11.6972 13.2814 11.6063C13.3179 11.5154 13.336 11.4181 13.3347 11.32V10.912V10.48V10C13.4287 9.94785 13.5358 9.96368 13.6198 9.88001C13.8975 9.60344 14 9.26293 14 8.96804C14 8.67328 13.8977 8.33269 13.6198 8.05606C13.5336 7.97024 13.4311 7.98867 13.3347 7.93606V7.33608C13.4287 7.28392 13.5358 7.29974 13.6198 7.21608C13.8975 6.93951 14 6.599 14 6.30411C14 6.00935 13.8556 5.65084 13.6198 5.41613C13.548 5.34465 13.4208 5.35174 13.3347 5.29613V5.17614C13.3386 4.87659 13.2477 4.58392 13.002 4.33616C12.7579 4.08999 12.4695 3.99545 12.1703 4.00017C11.8966 4.004 11.5745 4.13939 11.3624 4.36016C11.1658 4.5647 11.1019 4.78343 11.0772 5.03214H4.97029C4.92854 4.74358 4.84534 4.49765 4.68515 4.33616C4.49247 4.14188 4.17484 3.99547 3.87723 4.00017ZM5.04159 7.57607H11.0297V7.69607H5.04159V7.57607V7.57607Z" fill="#EBE7E4"/>

</g>%n%n
<g transform="translate(138.000000, 8.000000) scale(0.750000 0.750000) "> 

<defs>
<filter id="filter-remove-color" x="0%" y="0%" width="100%" height="100%">
<feColorMatrix color-interpolation-filters="sRGB" values="0 0 0 0 1 0 0 0 0 1 0 0 0 0 1 0 0 0 1 0" />
</filter>
<mask id="mask-0">
<g filter="url(#filter-remove-color)">
<rect x="-3.2" y="-3.2" width="38.4" height="38.4" fill="rgb(0%, 0%, 0%)" fill-opacity="0.75"/>
</g>
</mask>
<clip100Path id="clip100-0">
<rect x="0" y="0" width="32" height="32"/>
</clip100Path>
<g id="source-6" clip100-path="url(#clip100-0)">
<path fill-rule="nonzero" fill="rgb(26.666667%, 26.666667%, 26.666667%)" fill-opacity="1" d="M 5.390625 7.632812 C 5.101562 7.640625 4.816406 7.761719 4.617188 7.96875 C 4.414062 8.175781 4.300781 8.464844 4.304688 8.753906 L 4.304688 10.34375 L 3.789062 10.34375 C 3.425781 10.339844 3.0625 10.484375 2.800781 10.742188 C 2.542969 10.996094 2.390625 11.359375 2.390625 11.722656 C 2.390625 12.089844 2.542969 12.449219 2.800781 12.707031 C 3.0625 12.960938 3.425781 13.109375 3.789062 13.101562 L 4.304688 13.101562 L 4.304688 17.273438 L 3.789062 17.273438 C 3.425781 17.265625 3.0625 17.414062 2.800781 17.667969 C 2.542969 17.925781 2.390625 18.289062 2.390625 18.652344 C 2.390625 19.015625 2.542969 19.378906 2.800781 19.632812 C 3.0625 19.890625 3.425781 20.035156 3.789062 20.03125 L 4.304688 20.03125 L 4.304688 24.792969 L 6.511719 24.792969 L 6.511719 20.03125 L 11.714844 20.03125 L 11.714844 18.371094 L 21.390625 18.371094 L 21.390625 20.03125 L 26.152344 20.03125 L 26.152344 24.792969 L 28.359375 24.792969 L 28.359375 20.03125 L 28.714844 20.03125 C 29.078125 20.035156 29.441406 19.890625 29.703125 19.632812 C 29.960938 19.378906 30.113281 19.015625 30.113281 18.652344 C 30.113281 18.289062 29.960938 17.925781 29.703125 17.667969 C 29.441406 17.414062 29.078125 17.265625 28.714844 17.273438 L 28.359375 17.273438 L 28.359375 13.101562 L 28.714844 13.101562 C 29.078125 13.109375 29.441406 12.960938 29.703125 12.707031 C 29.960938 12.449219 30.113281 12.089844 30.113281 11.722656 C 30.113281 11.359375 29.960938 10.996094 29.703125 10.742188 C 29.441406 10.484375 29.078125 10.339844 28.714844 10.34375 L 28.359375 10.34375 L 28.359375 8.753906 C 28.363281 8.460938 28.242188 8.164062 28.035156 7.957031 C 27.824219 7.75 27.53125 7.628906 27.238281 7.632812 C 26.949219 7.640625 26.664062 7.761719 26.464844 7.96875 C 26.261719 8.175781 26.148438 8.464844 26.152344 8.753906 L 26.152344 10.34375 L 6.511719 10.34375 L 6.511719 8.753906 C 6.515625 8.460938 6.394531 8.164062 6.1875 7.957031 C 5.976562 7.75 5.683594 7.628906 5.390625 7.632812 Z M 6.511719 13.101562 L 26.152344 13.101562 L 26.152344 17.273438 L 6.511719 17.273438 Z M 6.511719 13.101562 "/>
</g>
</defs>
<g mask="url(#mask-0)">
<use xlink:href="#source-6"/>
</g>
<path fill="none" stroke-width="50" stroke-linecap="square" stroke-linejoin="miter" stroke="rgb(26.666667%, 26.666667%, 26.666667%)" stroke-opacity="1" stroke-miterlimit="4" d="M 232.01416 467.993164 L 371.987305 467.993164 " transform="matrix(0.0551724, 0, 0, 0.0551724, 0, 0)"/>
<path fill="none" stroke-width="50" stroke-linecap="butt" stroke-linejoin="miter" stroke="rgb(26.666667%, 26.666667%, 26.666667%)" stroke-opacity="1" stroke-miterlimit="4" d="M 240.297852 386.005859 L 359.667969 386.005859 " transform="matrix(0.0551724, 0, 0, 0.0551724, 0, 0)"/>

</g>%n%n</svg>