<svg width="300" height="40" viewBox="0 0 300 40" fill="none" xmlns="http://www.w3.org/2000/svg" xmlns:xlink="http://www.w3.org/1999/xlink">

<g transform="translate(130.000000, 0.000000) scale(2.500000 2.500000) "> 

 <path transform="matrix(.8 0 0 .8 1.6 1.7238)" d="m5.5234 3.7598c-1.3742 2.759e-4 -2.4769 1.1513-2.7734 2.4766h-0.94336a1.7641 1.7641 0 0 0-1.7402 2.0547s0.17047 1.0862 0.6543 2.2461c0.24192 0.57994 0.55842 1.2054 1.0937 1.7891 0.53533 0.58363 1.4184 1.1523 2.4707 1.1523h7.4297c1.0523 0 1.9354-0.56871 2.4707-1.1523 0.53533-0.58364 0.85184-1.2091 1.0938-1.7891 0.48383-1.1599 0.6543-2.2461 0.6543-2.2461a1.7641 1.7641 0 0 0-1.7402-2.0547h-0.93555c-0.2823-1.3597-1.3477-2.4766-2.7812-2.4766-0.4889 0-0.85237 0.31486-1.2637 0.5293-0.40072-0.20938-0.75682-0.52921-1.2129-0.5293-0.46571 9.36e-5 -0.83098 0.32339-1.2383 0.54102-0.4073-0.21762-0.77257-0.54092-1.2383-0.54102z" fill="#ebe7e4" opacity=".8" stop-color="#000000" stroke-width="1.5625" style="-inkscape-stroke:none;font-variation-settings:normal"/>

</g>%n%n
<g transform="translate(138.000000, 8.000000) scale(2.000000 2.000000) "> 

<path fill-rule="nonzero" fill="rgb(26.666667%, 26.666667%, 26.666667%)" fill-opacity="1" d="M 1 6 L 11 6 C 11 6 10.5 9 9 9 C 7.5 9 4.5 9 3 9 C 1.5 9 1 6 1 6 Z M 1 6 "/>
<path fill-rule="nonzero" fill="rgb(26.666667%, 26.666667%, 26.666667%)" fill-opacity="0.7" d="M 5 5 C 5 5.550781 4.550781 6 4 6 C 3.449219 6 3 5.550781 3 5 C 3 4.449219 3.449219 4 4 4 C 4.550781 4 5 4.449219 5 5 Z M 5 5 "/>
<path fill-rule="nonzero" fill="rgb(26.666667%, 26.666667%, 26.666667%)" fill-opacity="0.7" d="M 7 5 C 7 5.550781 6.550781 6 6 6 C 5.449219 6 5 5.550781 5 5 C 5 4.449219 5.449219 4 6 4 C 6.550781 4 7 4.449219 7 5 Z M 7 5 "/>
<path fill-rule="nonzero" fill="rgb(26.666667%, 26.666667%, 26.666667%)" fill-opacity="0.7" d="M 9 5 C 9 5.550781 8.550781 6 8 6 C 7.449219 6 7 5.550781 7 5 C 7 4.449219 7.449219 4 8 4 C 8.550781 4 9 4.449219 9 5 Z M 9 5 "/>

</g>%n%n</svg>