<svg width="300" height="40" viewBox="0 0 300 40" fill="none" xmlns="http://www.w3.org/2000/svg" xmlns:xlink="http://www.w3.org/1999/xlink" version="1.1">

<g transform="translate(130.000000, 0.000000) scale(2.500000 2.500000) "> 

<path opacity="0.812" d="M4.97763 3C4.72794 3.00002 4.47908 3.10076 4.30252 3.27496C4.12596 3.44916 4.02385 3.69469 4.02383 3.94104V4.57624L3.69149 4.97618H3.61548C3.36579 4.9762 3.11693 5.07694 2.94037 5.25114C2.76381 5.42534 2.6617 5.67087 2.66168 5.91722V6.21423L2.21607 6.74945C2.05746 6.93994 1.97996 7.19371 2.00445 7.43905C2.02893 7.6844 2.15548 7.91794 2.34871 8.07425L2.52904 8.22129L2.21756 8.59477C2.05874 8.78503 1.9803 9.03757 2.00445 9.2829C2.02859 9.52823 2.15576 9.763 2.34871 9.91957L2.65274 10.1666V12.059C2.65276 12.3053 2.75486 12.5508 2.93142 12.725C3.10798 12.8992 3.35685 13 3.60654 13H3.61548H4.30103H11.1058C11.3555 13 11.6044 12.8992 11.7809 12.725C11.9575 12.5508 12.0596 12.3053 12.0596 12.059V10.0298V9.64902H12.4769C12.7266 9.649 12.9755 9.54826 13.152 9.37406C13.3286 9.19987 13.4307 8.95434 13.4307 8.70798V7.39053L13.7839 6.96706C13.9425 6.77657 14.02 6.5228 13.9956 6.27746C13.9711 6.03212 13.8445 5.79857 13.6513 5.64226L13.471 5.49669L13.7839 5.12175C13.9425 4.93125 14.02 4.67748 13.9956 4.43214C13.9711 4.1868 13.8445 3.95325 13.6513 3.79694L13.307 3.51757L13.3637 3.59403C13.2236 3.24625 12.8562 2.99991 12.4769 3H11.7914C11.5417 3.00002 11.2928 3.10076 11.1163 3.27496C10.9397 3.44916 10.8376 3.69469 10.8376 3.94104V4.63064L10.5499 4.97618H10.4188C10.1691 4.9762 9.92023 5.07694 9.74367 5.25114C9.56711 5.42534 9.46501 5.67087 9.46498 5.91722V6.27893L9.44263 6.30687H7.10581C7.08577 6.05347 6.99355 5.80435 6.79433 5.64226L6.61847 5.49963V5.49228L6.92697 5.12174C7.08558 4.93125 7.16308 4.67748 7.1386 4.43214C7.11411 4.1868 6.98756 3.95325 6.79433 3.79694L6.54843 3.59844C6.50059 3.47823 6.43236 3.3663 6.33978 3.27496C6.16322 3.10076 5.91436 3.00002 5.66467 3H4.97763V3Z" fill="#EBE7E4"/>

</g>%n%n
<g transform="translate(138.000000, 8.000000) scale(2.000000 2.000000) "> 

<defs>
<filter id="alpha" filterUnits="objectBoundingBox" x="0%" y="0%" width="100%" height="100%">
  <feColorMatrix type="matrix" in="SourceGraphic" values="0 0 0 0 1 0 0 0 0 1 0 0 0 0 1 0 0 0 1 0"/>
</filter>
<mask id="mask0">
  <g filter="url(#alpha)">
<rect x="0" y="0" width="12" height="12" style="fill:rgb(0%,0%,0%);fill-opacity:0.75;stroke:none;"/>
  </g>
</mask>
<mask id="mask1">
  <g filter="url(#alpha)">
<rect x="0" y="0" width="12" height="12" style="fill:rgb(0%,0%,0%);fill-opacity:0.75;stroke:none;"/>
  </g>
</mask>
<clip100Path id="clip1002">
  <rect x="0" y="0" width="12" height="12"/>
</clip100Path>
<g id="surface6" clip100-path="url(#clip1002)">
<path style=" stroke:none;fill-rule:nonzero;fill:rgb(26.666668%,26.666668%,26.666668%);fill-opacity:1;" d="M 9.050781 8.019531 L 1.683594 8.019531 L 1.683594 10.042969 L 9.050781 10.042969 Z M 9.050781 8.019531 "/>
</g>
<clip100Path id="clip1001">
  <rect x="0" y="0" width="12" height="12"/>
</clip100Path>
<g id="surface8" clip100-path="url(#clip1001)">
<use xlink:href="#surface6" mask="url(#mask1)"/>
</g>
<mask id="mask2">
  <g filter="url(#alpha)">
<rect x="0" y="0" width="12" height="12" style="fill:rgb(0%,0%,0%);fill-opacity:0.75;stroke:none;"/>
  </g>
</mask>
<mask id="mask3">
  <g filter="url(#alpha)">
<rect x="0" y="0" width="12" height="12" style="fill:rgb(0%,0%,0%);fill-opacity:0.75;stroke:none;"/>
  </g>
</mask>
<clip100Path id="clip1004">
  <rect x="0" y="0" width="12" height="12"/>
</clip100Path>
<g id="surface12" clip100-path="url(#clip1004)">
<path style=" stroke:none;fill-rule:nonzero;fill:rgb(26.666668%,26.666668%,26.666668%);fill-opacity:1;" d="M 10.398438 5.25 L 3.03125 5.25 L 3.03125 6.675781 L 10.398438 6.675781 Z M 10.398438 5.25 "/>
</g>
<clip100Path id="clip1003">
  <rect x="0" y="0" width="12" height="12"/>
</clip100Path>
<g id="surface14" clip100-path="url(#clip1003)">
<use xlink:href="#surface12" mask="url(#mask3)"/>
</g>
</defs>
<g id="surface1">
<use xlink:href="#surface8" mask="url(#mask0)"/>
<use xlink:href="#surface14" mask="url(#mask2)"/>
<path style=" stroke:none;fill-rule:nonzero;fill:rgb(26.666668%,26.666668%,26.666668%);fill-opacity:1;" d="M 4.21875 2.539062 L 3.703125 2.113281 L 3.703125 1.957031 L 3.03125 1.957031 L 3.03125 2.925781 L 2.210938 3.925781 L 1.691406 3.925781 L 1.691406 4.558594 L 1.042969 5.347656 L 1.5625 5.777344 L 1.691406 5.617188 L 1.691406 6.394531 L 1.042969 7.1875 L 1.5625 7.613281 L 1.691406 7.457031 L 1.691406 10.042969 L 2.367188 10.042969 L 2.367188 6.636719 L 3.03125 5.824219 L 3.03125 6.675781 L 3.703125 6.675781 L 3.703125 5.003906 L 4.21875 4.375 L 3.703125 3.953125 L 3.703125 3.167969 Z M 3.03125 4.761719 L 2.367188 5.574219 L 2.367188 4.796875 L 3.03125 3.988281 Z M 3.03125 4.761719 "/>
<path style=" stroke:none;fill-rule:nonzero;fill:rgb(26.666668%,26.666668%,26.666668%);fill-opacity:1;" d="M 10.4375 3.949219 L 10.398438 3.996094 L 10.398438 3.21875 L 10.957031 2.539062 L 10.4375 2.109375 L 10.398438 2.15625 L 10.398438 1.957031 L 9.726562 1.957031 L 9.726562 2.976562 L 8.949219 3.925781 L 8.378906 3.925781 L 8.378906 4.621094 L 7.78125 5.347656 L 8.300781 5.777344 L 8.378906 5.683594 L 8.378906 6.460938 L 7.78125 7.1875 L 8.300781 7.613281 L 8.378906 7.519531 L 8.378906 10.042969 L 9.050781 10.042969 L 9.050781 6.699219 L 9.726562 5.878906 L 9.726562 6.703125 L 10.398438 6.703125 L 10.398438 5.058594 L 10.957031 4.375 Z M 9.050781 5.636719 L 9.050781 4.863281 L 9.726562 4.039062 L 9.726562 4.816406 Z M 9.050781 5.636719 "/>
</g>

</g>%n%n</svg>