<svg width="300" height="40" viewBox="0 0 300 40" fill="none" xmlns="http://www.w3.org/2000/svg" xmlns:xlink="http://www.w3.org/1999/xlink">

<g transform="translate(130.000000, 0.000000) scale(2.500000 2.500000) "> 

<path opacity="0.812" d="M3.714 2.84283C3.58493 2.8428 3.45712 2.8682 3.33787 2.91757C3.21862 2.96695 3.11027 3.03934 3.019 3.1306C2.92774 3.22187 2.85535 3.33022 2.80597 3.44947C2.75659 3.56872 2.7312 3.69653 2.73123 3.8256V12.6119C2.7312 12.741 2.75659 12.8688 2.80597 12.988C2.85535 13.1073 2.92774 13.2156 3.019 13.3069C3.11027 13.3982 3.21862 13.4706 3.33787 13.5199C3.45712 13.5693 3.58493 13.5947 3.714 13.5947H5.80342C6.04589 13.5943 6.27964 13.5042 6.45972 13.3419C6.63979 13.5042 6.87355 13.5943 7.11601 13.5947H8.88399C9.12645 13.5943 9.3602 13.5042 9.54028 13.3419C9.72036 13.5042 9.95411 13.5943 10.1966 13.5947H12.286C12.4151 13.5947 12.5429 13.5693 12.6621 13.5199C12.7814 13.4706 12.8897 13.3982 12.981 13.3069C13.0723 13.2156 13.1446 13.1073 13.194 12.988C13.2434 12.8688 13.2688 12.741 13.2688 12.6119V3.8256C13.2688 3.69653 13.2434 3.56872 13.194 3.44947C13.1446 3.33022 13.0723 3.22187 12.981 3.1306C12.8897 3.03934 12.7814 2.96695 12.6621 2.91757C12.5429 2.8682 12.4151 2.8428 12.286 2.84283H3.714Z" fill="#EBE7E4"/>

</g>%n%n
<g transform="translate(138.000000, 8.000000) scale(2.000000 2.000000) "> 

<defs>
<filter id="filter-remove-color" x="0%" y="0%" width="100%" height="100%">
<feColorMatrix color-interpolation-filters="sRGB" values="0 0 0 0 1 0 0 0 0 1 0 0 0 0 1 0 0 0 1 0" />
</filter>
<mask id="mask-0">
<g filter="url(#filter-remove-color)">
<rect x="-1.2" y="-1.2" width="14.4" height="14.4" fill="rgb(0%, 0%, 0%)" fill-opacity="0.75"/>
</g>
</mask>
<clip100Path id="clip100-0">
<rect x="0" y="0" width="12" height="12"/>
</clip100Path>
<g id="source-7" clip100-path="url(#clip100-0)">
<path fill-rule="nonzero" fill="rgb(26.666667%, 26.666667%, 26.666667%)" fill-opacity="1" d="M 5.222656 5.628906 C 5.222656 5.628906 5.257812 5.039062 5.984375 5.058594 C 6.710938 5.078125 6.777344 5.628906 6.777344 5.628906 L 6.777344 10.035156 L 5.222656 10.035156 Z M 5.222656 5.628906 "/>
</g>
</defs>
<path fill-rule="nonzero" fill="rgb(26.666667%, 26.666667%, 26.666667%)" fill-opacity="1" d="M 2.238281 2.34375 L 9.761719 2.34375 L 9.761719 10.039062 L 7.933594 10.039062 C 7.933594 10.039062 7.933594 10.035156 7.933594 5.507812 C 7.945312 4.316406 6.980469 3.871094 6.015625 3.863281 C 5.046875 3.855469 4.09375 4.339844 4.070312 5.507812 C 4.078125 9.96875 4.070312 10.039062 4.070312 10.039062 L 2.238281 10.039062 Z M 2.238281 2.34375 "/>
<g mask="url(#mask-0)">
<use xlink:href="#source-7"/>
</g>

</g>%n%n</svg>