<svg width="300" height="40" viewBox="0 0 300 40" fill="none" xmlns="http://www.w3.org/2000/svg" xmlns:xlink="http://www.w3.org/1999/xlink" version="1.1">

<g transform="translate(130.000000, 0.000000) scale(2.500000 2.500000) "> 

<path opacity="0.8" fill-rule="evenodd" clip-rule="evenodd" d="M11 11C11 12.1046 10.1046 13 9 13H5C3.89543 13 3 12.1046 3 11V5C3 3.89543 3.89543 3 5 3H9C10.1046 3 11 3.89543 11 5C11.3839 5 11.7678 5.14645 12.0607 5.43934L13.5607 6.93934C14.1464 7.52513 14.1464 8.47487 13.5607 9.06066L12.0607 10.5607C11.7678 10.8536 11.3839 11 11 11Z" fill="#EBE7E4"/>

</g>%n%n
<g transform="translate(138.000000, 8.000000) scale(2.000000 2.000000) "> 

<defs>
<filter id="alpha" filterUnits="objectBoundingBox" x="0%" y="0%" width="100%" height="100%">
  <feColorMatrix type="matrix" in="SourceGraphic" values="0 0 0 0 1 0 0 0 0 1 0 0 0 0 1 0 0 0 1 0"/>
</filter>
<mask id="mask0">
  <g filter="url(#alpha)">
<rect x="0" y="0" width="12" height="12" style="fill:rgb(0%,0%,0%);fill-opacity:0.2;stroke:none;"/>
  </g>
</mask>
<clip100Path id="clip1001">
  <rect x="0" y="0" width="12" height="12"/>
</clip100Path>
<g id="surface5" clip100-path="url(#clip1001)">
<path style=" stroke:none;fill-rule:nonzero;fill:rgb(58.039218%,0%,0%);fill-opacity:1;" d="M 8 3 L 3 3 L 3 9 L 8 9 Z M 8 3 "/>
</g>
</defs>
<g id="surface1">
<use xlink:href="#surface5" mask="url(#mask0)"/>
<path style=" stroke:none;fill-rule:nonzero;fill:rgb(58.039218%,0%,0%);fill-opacity:1;" d="M 7 2 C 7.550781 2 8 2.449219 8 3 L 8 4.5 C 8 4.777344 7.777344 5 7.5 5 C 7.222656 5 7 4.777344 7 4.5 L 7 3 L 3 3 L 3 9 L 7 9 L 7 7.5 C 7 7.222656 7.222656 7 7.5 7 C 7.777344 7 8 7.222656 8 7.5 L 8 9 C 8 9.550781 7.550781 10 7 10 L 3 10 C 2.449219 10 2 9.550781 2 9 L 2 3 C 2 2.449219 2.449219 2 3 2 Z M 7 2 "/>
<path style=" stroke:none;fill-rule:nonzero;fill:rgb(58.039218%,0%,0%);fill-opacity:1;" d="M 9.355469 4.144531 C 9.160156 3.953125 8.839844 3.953125 8.644531 4.144531 C 8.453125 4.339844 8.453125 4.660156 8.644531 4.855469 L 9.292969 5.5 L 6.5 5.5 C 6.222656 5.5 6 5.722656 6 6 C 6 6.277344 6.222656 6.5 6.5 6.5 L 9.292969 6.5 L 8.644531 7.144531 C 8.453125 7.339844 8.453125 7.660156 8.644531 7.855469 C 8.839844 8.046875 9.160156 8.046875 9.355469 7.855469 L 10.855469 6.355469 C 11.046875 6.160156 11.046875 5.839844 10.855469 5.644531 Z M 9.355469 4.144531 "/>
</g>

</g>%n%n</svg>