<svg width="300" height="35" viewBox="0 0 300 35" fill="none" xmlns="http://www.w3.org/2000/svg" >

<g transform="translate(135.000000, 2.000000) scale(1.875000 1.875000) "> 

<path opacity="0.812" d="M3.493 3.6492C3.18613 3.65345 2.85366 3.74381 2.55544 4.05102C2.28791 4.32663 2.17548 4.61132 2.18041 4.96179V5.06894C2.06603 5.13644 1.89783 5.13854 1.80539 5.22967C1.53976 5.49157 1.37679 5.89165 1.37679 6.2208C1.37679 6.55008 1.49244 6.93008 1.80539 7.23873C1.91922 7.35097 2.05146 7.33751 2.18041 7.39945V8.01557C2.05464 8.07724 1.91635 8.06691 1.80539 8.17629C1.49229 8.48499 1.37679 8.86506 1.37679 9.19422C1.37679 9.52349 1.49244 9.90349 1.80539 10.2121C1.91921 10.3244 2.05146 10.3109 2.18041 10.3729V10.8818V11.364V11.8194C2.17887 11.9289 2.1993 12.0375 2.24048 12.139C2.28167 12.2404 2.34278 12.3326 2.4202 12.41C2.49762 12.4874 2.58978 12.5485 2.69122 12.5897C2.79267 12.6309 2.90134 12.6513 3.01082 12.6498H3.97517C4.08465 12.6513 4.19333 12.6309 4.29477 12.5897C4.39622 12.5485 4.48838 12.4874 4.5658 12.41C4.64322 12.3326 4.70433 12.2404 4.74551 12.139C4.7867 12.0375 4.80713 11.9289 4.80558 11.8194V11.364V10.8818V10.614H6.03781V10.855C5.82128 10.8591 5.61516 10.9487 5.46456 11.1043C5.31395 11.26 5.23112 11.4689 5.23419 11.6855V12.8641C5.23264 12.9736 5.25307 13.0823 5.29426 13.1837C5.33544 13.2851 5.39655 13.3773 5.47397 13.4547C5.55139 13.5321 5.64355 13.5933 5.745 13.6344C5.84644 13.6756 5.95512 13.6961 6.0646 13.6945H6.65392H9.97557H10.5649C10.6744 13.6961 10.7831 13.6756 10.8845 13.6344C10.9859 13.5933 11.0781 13.5321 11.1555 13.4547C11.2329 13.3773 11.2941 13.2851 11.3352 13.1837C11.3764 13.0823 11.3969 12.9736 11.3953 12.8641V11.6855C11.3969 11.576 11.3764 11.4673 11.3352 11.3659C11.2941 11.2644 11.2329 11.1723 11.1555 11.0948C11.0781 11.0174 10.9859 10.9563 10.8845 10.9151C10.7831 10.8739 10.6744 10.8535 10.5649 10.855H10.5113V10.614H11.556V10.8818V11.364V11.8194C11.5545 11.9289 11.5749 12.0375 11.6161 12.139C11.6573 12.2404 11.7184 12.3326 11.7958 12.41C11.8732 12.4874 11.9654 12.5485 12.0668 12.5897C12.1683 12.6309 12.277 12.6513 12.3864 12.6498H13.324C13.4335 12.6513 13.5422 12.6309 13.6436 12.5897C13.7451 12.5485 13.8372 12.4874 13.9146 12.41C13.9921 12.3326 14.0532 12.2404 14.0943 12.139C14.1355 12.0375 14.156 11.9289 14.1544 11.8194V11.364V10.8818V10.3461C14.2604 10.2879 14.3811 10.3055 14.4759 10.2121C14.789 9.90344 14.9045 9.52337 14.9045 9.19422C14.9045 8.86521 14.7891 8.48506 14.4759 8.17629C14.3787 8.0805 14.2631 8.10107 14.1544 8.04236V7.37267C14.2604 7.31445 14.3811 7.33211 14.4759 7.23873C14.789 6.93003 14.9045 6.54996 14.9045 6.2208C14.9045 5.8918 14.7417 5.49164 14.4759 5.22967C14.3949 5.14989 14.2516 5.15779 14.1544 5.09573V4.96179C14.1589 4.62745 14.0564 4.30078 13.7794 4.02423C13.5042 3.74946 13.1791 3.64393 12.8418 3.6492C12.5333 3.65348 12.1702 3.8046 11.9311 4.05102C11.7095 4.27932 11.6375 4.52346 11.6096 4.80107H4.72522C4.67815 4.47899 4.58436 4.20449 4.40377 4.02423C4.18657 3.80738 3.82849 3.64396 3.493 3.6492ZM4.80558 7.64054H11.556V7.77448H4.80558V7.64054V7.64054Z" fill="#EBE7E4"/>

</g>


<g transform="translate(141.000000, 8.000000) scale(0.031034 0.031034) "> 

<path opacity="0.75" d="M97.6875 138.375C92.4568 138.457 87.3 140.684 83.6562 144.438C80.0125 148.191 77.9263 153.425 78 158.656V178.656V187.5H68.6875C62.0836 187.407 55.4843 190.051 50.7812 194.688C46.0782 199.325 43.3438 205.895 43.3438 212.5C43.3438 219.105 46.0782 225.676 50.7812 230.313C55.4843 234.95 62.0836 237.593 68.6875 237.5H78V313.063H68.6875C62.0836 312.969 55.4843 315.613 50.7812 320.25C46.0782 324.887 43.3438 331.458 43.3438 338.063C43.3438 344.667 46.0782 351.238 50.7812 355.875C55.4843 360.512 62.0836 363.156 68.6875 363.063H78V409.344V429.344V449.344H118V429.344V409.344V363.063H212.312V335V334V333H387.688V363.063H474V409.344V429.344V449.344H514V429.344V409.344V363.063H520.438C527.041 363.156 533.641 360.512 538.344 355.875C543.047 351.238 545.781 344.667 545.781 338.063C545.781 331.458 543.047 324.887 538.344 320.25C533.641 315.613 527.041 312.969 520.438 313.063H514V237.5H520.438C527.041 237.593 533.641 234.95 538.344 230.313C543.047 225.676 545.781 219.105 545.781 212.5C545.781 205.895 543.047 199.325 538.344 194.688C533.641 190.051 527.041 187.407 520.438 187.5H514V178.656V158.656C514.075 153.321 511.901 147.989 508.125 144.219C504.349 140.449 499.022 138.292 493.688 138.375C488.457 138.457 483.3 140.684 479.656 144.438C476.012 148.191 473.926 153.425 474 158.656V178.656V187.5H118V178.656V158.656C118.075 153.321 115.901 147.989 112.125 144.219C108.349 140.449 103.022 138.292 97.6875 138.375ZM118 237.5H474V313.063H118V237.5Z" fill="#444444"/>
<path d="M232 468H372" stroke="#444444" stroke-width="50" stroke-linecap="square"/>
<path d="M240.316 386H359.684" stroke="#444444" stroke-width="50"/>

</g>

</svg>