<svg width="40" height="40" viewBox="0 0 40 40" fill="none" xmlns="http://www.w3.org/2000/svg" >

<g transform="translate(0.000000, 0.000000) scale(2.500000 2.500000) "> 

 <path transform="matrix(.8 0 0 .8 1.6 1.6)" d="m8 0c-1.7668 0-3.4643 0.70061-4.7148 1.9512-1.2499 1.25-1.9531 2.9468-1.9531 4.7148a1.3341 1.3341 0 0 0 0.66797 0.66602 1.3341 1.3341 0 0 0-0.66797 0.66797v2.666a1.3341 1.3341 0 0 0 0.66797 0.66602 1.3341 1.3341 0 0 0-0.66797 0.66797v2.666a1.3341 1.3341 0 0 0 1.334 1.334h10.668a1.3341 1.3341 0 0 0 1.334-1.334v-2.666a1.3341 1.3341 0 0 0-0.66797-0.66797 1.3341 1.3341 0 0 0 0.66797-0.66602v-2.666a1.3341 1.3341 0 0 0-0.66797-0.66797 1.3341 1.3341 0 0 0 0.66797-0.66602c0-1.768-0.70317-3.4649-1.9531-4.7148-1.2506-1.2506-2.948-1.9512-4.7148-1.9512zm0 5.7188c0.25222 0 0.49207 0.099488 0.66992 0.27734 0.17786 0.17786 0.27734 0.4177 0.27734 0.66992h-1.8945c0-0.25222 0.099488-0.49207 0.27734-0.66992 0.17786-0.17786 0.4177-0.27734 0.66992-0.27734z" fill="#ebe7e4" opacity=".8" stop-color="#000000" stroke-width="1.5625" style="-inkscape-stroke:none;font-variation-settings:normal"/>

</g>


<g transform="translate(8.000000, 8.000000) scale(2.000000 2.000000) "> 

<rect x="8" y="36" width="32" height="8" fill="#444444"/>
<rect x="8" y="24" width="32" height="8" fill="#444444"/>
<path d="M40 20C40 15.7565 38.3143 11.6869 35.3137 8.68629C32.3131 5.68571 28.2435 4 24 4C19.7565 4 15.6869 5.68571 12.6863 8.68629C9.68571 11.6869 8 15.7565 8 20L17.1554 20C17.1554 18.1847 17.8765 16.4437 19.1601 15.1601C20.4437 13.8765 22.1847 13.1554 24 13.1554C25.8153 13.1554 27.5563 13.8765 28.8399 15.1601C30.1235 16.4437 30.8446 18.1847 30.8446 20H40Z" fill="#444444" fill-opacity="0.7"/>

</g>

</svg>