<svg width="300" height="40" viewBox="0 0 300 40" fill="none" xmlns="http://www.w3.org/2000/svg" xmlns:xlink="http://www.w3.org/1999/xlink">

<g transform="translate(130.000000, 0.000000) scale(2.500000 2.500000) "> 

<path opacity="0.812" d="M3.87405 4.01656C3.98164 4.01629 3.86145 3.96636 3.57624 4.04123C3.40618 4.08591 2.94987 4.15696 2.5835 4.50996C2.21678 4.86331 2.10758 5.30394 2.0375 5.59543C2.03738 5.60366 2.03738 5.61188 2.0375 5.62011C1.97135 5.90433 2.0129 5.97962 2.01268 5.89147V10.0607C2.00713 10.4328 2.12554 10.6875 2.36014 10.9241C2.54667 11.1121 2.87673 11.2942 3.22878 11.2942C3.58081 11.2942 3.87214 11.1762 4.12223 10.9241C4.35749 10.6871 4.47497 10.4318 4.46969 10.0607V6.43421H5.26388C5.09 6.72534 4.93473 7.04427 4.8916 7.22365C4.88128 7.25599 4.87298 7.28897 4.86678 7.32233C4.86781 7.31391 4.86626 7.4048 4.86678 7.39634C4.8673 7.38788 4.86678 7.47882 4.86678 7.47035C4.86678 7.4647 4.8661 7.49563 4.86678 7.51969C4.86712 7.53172 4.86695 7.54718 4.86678 7.54436C4.86626 7.53589 4.86781 7.62678 4.86678 7.61837V11.5903C4.86792 11.5827 4.86607 11.6719 4.86678 11.6642V11.6889C4.86555 11.7077 4.86664 11.7174 4.86678 11.7136C4.86706 11.7059 4.86692 11.7953 4.86678 11.7876C4.86664 11.78 4.86735 11.8692 4.86678 11.8616C4.86621 11.8539 4.86777 11.9432 4.86678 11.9356C4.86578 11.9281 4.86819 11.9924 4.86678 11.985C4.86536 11.9775 4.89343 12.0664 4.8916 12.0589C4.88976 12.0515 4.91866 12.1403 4.91642 12.133C4.91417 12.1256 4.94389 12.1895 4.94124 12.1823C4.93859 12.1752 4.9691 12.2634 4.96606 12.2563C4.96301 12.2493 4.99431 12.3125 4.99087 12.3057C4.98744 12.2987 5.01951 12.3863 5.01569 12.3797C5.01188 12.3731 5.04469 12.4354 5.04051 12.429C5.03633 12.4225 5.09467 12.4845 5.09014 12.4783C5.08561 12.4722 5.14465 12.5583 5.13978 12.5524C5.13492 12.5465 5.16979 12.6074 5.1646 12.6016C5.15941 12.5959 5.21973 12.6564 5.21424 12.651C5.20874 12.6457 5.26966 12.6808 5.26388 12.6757C5.25809 12.6706 5.31957 12.7298 5.31351 12.7251C5.30745 12.7204 5.39428 12.7787 5.38796 12.7744C5.38165 12.77 5.44415 12.8031 5.4376 12.7991C5.43105 12.795 5.494 12.8521 5.48723 12.8484C5.48047 12.8448 5.56865 12.8764 5.5617 12.8731C5.55474 12.8697 5.61846 12.9007 5.61133 12.8977C5.60419 12.8948 5.69306 12.9249 5.68578 12.9224C5.6785 12.9199 5.74283 12.9492 5.73542 12.9471C5.72801 12.945 5.81739 12.9734 5.80987 12.9718C5.80236 12.9701 5.89192 12.9731 5.88433 12.9718C5.87673 12.9705 5.96644 12.9726 5.95878 12.9718C5.95113 12.9709 6.01611 12.9968 6.00842 12.9965C6.00072 12.996 6.09058 12.9965 6.08287 12.9965C6.07517 12.9965 6.16502 12.996 6.15732 12.9965C6.14963 12.9968 6.21463 12.9709 6.20697 12.9718C6.19931 12.9726 6.28902 12.9705 6.28142 12.9718C6.27382 12.9731 6.36339 12.9701 6.35587 12.9718C6.34836 12.9734 6.43774 12.945 6.43033 12.9471C6.42292 12.9492 6.48725 12.9199 6.47996 12.9224C6.47268 12.9249 6.56155 12.8949 6.55442 12.8977C6.54728 12.9007 6.61102 12.8698 6.60406 12.8731C6.5971 12.8764 6.68527 12.8448 6.67851 12.8484C6.67175 12.852 6.7347 12.795 6.72815 12.7991C6.7216 12.8032 6.7841 12.77 6.77778 12.7744C6.77147 12.7788 6.8583 12.7204 6.85224 12.7251C6.84618 12.7298 6.90767 12.6706 6.90188 12.6757C6.89609 12.6808 6.95701 12.6457 6.95151 12.651C6.94601 12.6564 7.00634 12.596 7.00115 12.6016C6.99595 12.6074 7.03083 12.5464 7.02597 12.5524C7.02111 12.5583 7.08013 12.4722 7.0756 12.4783C7.07107 12.4845 7.12942 12.4226 7.12524 12.429C7.12106 12.4354 7.15387 12.373 7.15005 12.3797C7.14625 12.3863 7.17831 12.2988 7.17488 12.3057C7.17145 12.3126 7.20274 12.2493 7.1997 12.2563C7.19665 12.2633 7.22717 12.1752 7.22452 12.1823C7.22187 12.1895 7.25158 12.1256 7.24934 12.133C7.24709 12.1403 7.27598 12.0516 7.27415 12.0589C7.27231 12.0664 7.30039 11.9774 7.29897 11.985C7.29755 11.9924 7.29996 11.9281 7.29897 11.9356C7.29798 11.9432 7.29953 11.8539 7.29897 11.8616C7.2984 11.8692 7.29911 11.78 7.29897 11.7876C7.29883 11.7953 7.29868 11.7059 7.29897 11.7136C7.29912 11.7174 7.30019 11.7078 7.29897 11.6889C7.29775 11.6701 7.29862 11.6604 7.29897 11.6642C7.29968 11.6719 7.29783 11.5826 7.29897 11.5903V8.06243H8.68879V10.1594C8.68324 10.5315 8.80168 10.7862 9.03625 11.0229C9.22275 11.2107 9.55288 11.3929 9.90485 11.3929C10.257 11.3929 10.5483 11.2748 10.7984 11.0229C11.0337 10.7857 11.1511 10.5304 11.1458 10.1594V8.06243H11.5429V11.7876C11.5429 11.7876 11.5864 12.9919 12.8006 13C14.0148 13.0081 13.9999 11.7876 13.9999 11.7876V7.59369C14 7.58547 14 7.57726 13.9999 7.56903C14.0004 7.57984 13.9986 7.4596 13.9999 7.47035C14.0012 7.4811 13.973 7.36105 13.9751 7.37167C13.9772 7.38228 13.9473 7.26258 13.9503 7.27299C13.952 7.27924 13.9597 7.25256 13.9503 7.22365C13.9494 7.22121 13.9263 7.22611 13.9254 7.22365C13.9239 7.21905 13.9269 7.2037 13.9254 7.19898C13.8517 6.96891 13.745 6.59177 13.4291 6.26152C13.1029 5.92062 12.6772 5.76454 12.3122 5.66944C12.2797 5.65918 12.2465 5.65094 12.213 5.64477C12.2214 5.6458 12.13 5.64425 12.1385 5.64477C12.147 5.64529 12.0555 5.64477 12.064 5.64477C12.0698 5.64477 12.0386 5.64409 12.0145 5.64477H11.9151H11.0961C11.0963 5.63655 11.0963 5.62832 11.0961 5.6201C11.0275 5.40762 10.9251 4.99918 10.575 4.63331C10.2488 4.29241 9.82304 4.13633 9.45815 4.04123C9.17586 3.96808 9.0588 4.01679 9.16034 4.01656H3.87405Z" fill="#EBE7E4"/>

</g>%n%n
<g transform="translate(138.000000, 8.000000) scale(0.750000 0.750000) "> 

<path fill-rule="nonzero" fill="rgb(26.666667%, 26.666667%, 26.666667%)" fill-opacity="1" d="M 6.34375 9.25 C 6.257812 9.25 6.167969 9.261719 6.085938 9.285156 C 5.5 9.4375 4.996094 9.496094 4.503906 9.976562 C 4.007812 10.453125 3.90625 10.996094 3.734375 11.707031 C 3.71875 11.785156 3.707031 11.867188 3.707031 11.945312 L 3.707031 22.542969 C 3.703125 22.8125 3.8125 23.082031 4.003906 23.273438 C 4.191406 23.464844 4.460938 23.578125 4.730469 23.578125 C 5 23.578125 5.265625 23.464844 5.457031 23.273438 C 5.644531 23.082031 5.753906 22.8125 5.75 22.542969 L 5.75 12.089844 C 5.84375 11.722656 5.917969 11.515625 5.933594 11.457031 C 5.980469 11.445312 6.175781 11.378906 6.492188 11.292969 L 19.488281 11.292969 C 20.035156 11.445312 20.199219 11.546875 20.238281 11.585938 C 20.28125 11.628906 20.371094 11.644531 20.429688 11.882812 C 21.871094 11.898438 21.871094 11.886719 22.523438 11.902344 C 22.328125 11.292969 22.179688 10.667969 21.71875 10.179688 C 21.253906 9.691406 20.65625 9.484375 19.894531 9.28125 C 19.808594 9.261719 19.722656 9.25 19.632812 9.25 Z M 20.53125 16.898438 L 20.53125 22.78125 C 20.527344 23.050781 20.632812 23.320312 20.824219 23.511719 C 21.011719 23.703125 21.28125 23.816406 21.550781 23.816406 C 21.820312 23.816406 22.085938 23.703125 22.277344 23.511719 C 22.464844 23.320312 22.574219 23.050781 22.570312 22.78125 L 22.570312 16.898438 C 21.496094 16.917969 21.671875 16.90625 20.53125 16.898438 Z M 20.53125 16.898438 "/>
<path fill="none" stroke-width="37" stroke-linecap="round" stroke-linejoin="round" stroke="rgb(26.666667%, 26.666667%, 26.666667%)" stroke-opacity="1" stroke-miterlimit="4" d="M 215.800781 483.427734 L 215.800781 291.416016 C 221.818848 266.352539 223.447266 266.706543 245.112305 261.04248 L 485.976562 261.04248 C 511.677246 267.768555 513.659668 272.724609 520.668945 294.672852 L 520.668945 487.746582 " transform="matrix(0.0551724, 0, 0, 0.0551724, 0, 0)"/>

</g>%n%n</svg>