<svg width="40" height="40" viewBox="0 0 40 40" fill="none" xmlns="http://www.w3.org/2000/svg" xmlns:dc="http://purl.org/dc/elements/1.1/"  xmlns:cc="http://creativecommons.org/ns#"  xmlns:rdf="http://www.w3.org/1999/02/22-rdf-syntax-ns#"  xmlns:svg="http://www.w3.org/2000/svg"  xmlns:sodipodi="http://sodipodi.sourceforge.net/DTD/sodipodi-0.dtd"  xmlns:inkscape="http://www.inkscape.org/namespaces/inkscape"  version="1.1"  id="svg32"  style="fill:none"  sodipodi:docname="debris.svg"  inkscape:version="0.92.5 (2060ec1f9f, 2020-04-08)">

<g transform="translate(0.000000, 0.000000) scale(2.500000 2.500000) "> 

  <metadata
     id="metadata8">
    <rdf:RDF>
      <cc:Work
         rdf:about="">
        <dc:format>image/svg+xml</dc:format>
        <dc:type
           rdf:resource="http://purl.org/dc/dcmitype/StillImage" />
      </cc:Work>
    </rdf:RDF>
  </metadata>
  <defs
     id="defs6" />
  <sodipodi:namedview
     pagecolor="#ffffff"
     bordercolor="#666666"
     borderopacity="1"
     objecttolerance="10"
     gridtolerance="10"
     guidetolerance="10"
     inkscape:pageopacity="0"
     inkscape:pageshadow="2"
     inkscape:window-width="1920"
     inkscape:window-height="1014"
     id="namedview4"
     showgrid="false"
     inkscape:zoom="14.75"
     inkscape:cx="8"
     inkscape:cy="8"
     inkscape:window-x="1920"
     inkscape:window-y="0"
     inkscape:window-maximized="1"
     inkscape:current-layer="svg4" />
  <path
     style="opacity:0.81199999;vector-effect:none;fill:#ebe7e4;fill-opacity:1;stroke-width:0.99999988;stroke-linecap:butt;stroke-linejoin:miter;stroke-miterlimit:4;stroke-dasharray:none;stroke-dashoffset:0;stroke-opacity:1"
     id="path4"
     d="M 9.9942639,0.55246327 A 0.951007,0.951007 0 0 0 9.8096023,0.57092613 L 7.2243407,1.1895422 a 0.951007,0.951007 0 0 0 -0.6555485,0.581684 0.951007,0.951007 0 0 0 -0.350857,0.3693225 l -0.018466,0.036936 A 0.951007,0.951007 0 0 0 5.69165,2.2051847 L 3.4018466,2.9807631 A 0.951007,0.951007 0 0 0 2.7555311,3.922536 L 2.7739972,4.2272278 2.5985688,4.1625918 A 0.951007,0.951007 0 0 0 1.3890355,4.8735393 L 0.91814863,7.163342 A 0.951007,0.951007 0 0 0 1.6567948,8.2805442 L 0.81658469,9.0376564 A 0.951007,0.951007 0 0 0 0.50266006,9.6839722 0.951007,0.951007 0 0 0 0.31799855,10.237955 v 1.735819 a 0.951007,0.951007 0 0 0 0.21236083,0.581684 0.951007,0.951007 0 0 0 -0.24929314,0.646314 v 0.618617 A 0.951007,0.951007 0 0 0 1.2320734,14.762167 H 14.767765 a 0.951007,0.951007 0 0 0 0.951007,-0.941774 v -0.618616 a 0.951007,0.951007 0 0 0 -0.230827,-0.618616 0.951007,0.951007 0 0 0 -0.09233,-1.329563 l -0.26776,-0.230827 a 0.951007,0.951007 0 0 0 0.415489,-0.738647 L 15.718777,6.9879181 A 0.951007,0.951007 0 0 0 15.441785,6.267738 0.951007,0.951007 0 0 0 15.43257,6.2585226 0.951007,0.951007 0 0 0 14.601593,5.7599365 h -0.0831 L 13.872156,3.931791 A 0.951007,0.951007 0 0 0 12.80112,3.3131749 V 2.3714009 A 0.951007,0.951007 0 0 0 12.754957,2.0944087 0.951007,0.951007 0 0 0 12.016311,0.86640901 L 10.188161,0.5524847 a 0.951007,0.951007 0 0 0 -0.184661,0 z"
     inkscape:connector-curvature="0" />

</g>


<g transform="translate(8.000000, 8.000000) scale(2.000000 2.000000) "> 

  <metadata
     id="metadata22">
    <rdf:RDF>
      <cc:Work
         rdf:about="">
        <dc:format>image/svg+xml</dc:format>
        <dc:type
           rdf:resource="http://purl.org/dc/dcmitype/StillImage" />
      </cc:Work>
    </rdf:RDF>
  </metadata>
  <defs
     id="defs20" />
  <sodipodi:namedview
     pagecolor="#ffffff"
     bordercolor="#666666"
     borderopacity="1"
     objecttolerance="10"
     gridtolerance="10"
     guidetolerance="10"
     inkscape:pageopacity="0"
     inkscape:pageshadow="2"
     inkscape:window-width="1720"
     inkscape:window-height="1051"
     id="namedview18"
     showgrid="false"
     inkscape:zoom="4.9166667"
     inkscape:cx="24"
     inkscape:cy="24"
     inkscape:window-x="200"
     inkscape:window-y="0"
     inkscape:window-maximized="1"
     inkscape:current-layer="svg32" />
  <path
     d="M14.4 38l2.27-5.62H2.15V38z"
     id="path4"
     style="fill:#444444;fill-opacity:1;stroke-width:1;font-variant-east_asian:normal;opacity:1;vector-effect:none;stroke-linecap:butt;stroke-linejoin:miter;stroke-miterlimit:4;stroke-dasharray:none;stroke-dashoffset:0;stroke-opacity:1" />
  <path
     d="M19.7 26.88l-3.03 3.88H2.73l5.37-4.9z"
     id="path6"
     style="fill:#444444;fill-opacity:1;stroke-width:1;font-variant-east_asian:normal;opacity:1;vector-effect:none;stroke-linecap:butt;stroke-linejoin:miter;stroke-miterlimit:4;stroke-dasharray:none;stroke-dashoffset:0;stroke-opacity:1" />
  <path
     d="M15.31 38l4.39-2.81v-6.88l-2.27 4.07z"
     id="path8"
     style="fill:#444444;fill-opacity:1;stroke-width:1;font-variant-east_asian:normal;opacity:1;vector-effect:none;stroke-linecap:butt;stroke-linejoin:miter;stroke-miterlimit:4;stroke-dasharray:none;stroke-dashoffset:0;stroke-opacity:1" />
  <path
     d="M33.13 38l7.07-10.95L24.8 23l-3.82 9.38z"
     id="path10"
     style="fill:#444444;fill-opacity:1;stroke-width:1;font-variant-east_asian:normal;opacity:1;vector-effect:none;stroke-linecap:butt;stroke-linejoin:miter;stroke-miterlimit:4;stroke-dasharray:none;stroke-dashoffset:0;stroke-opacity:1" />
  <path
     d="M26.2 20.9h19.23l-5.23 4.97z"
     id="path12"
     style="fill:#444444;fill-opacity:1;stroke-width:1;font-variant-east_asian:normal;opacity:1;vector-effect:none;stroke-linecap:butt;stroke-linejoin:miter;stroke-miterlimit:4;stroke-dasharray:none;stroke-dashoffset:0;stroke-opacity:1" />
  <path
     d="M35.25 38l10.18-5.62.57-10.73-4.8 5.06z"
     id="path14"
     style="fill:#444444;fill-opacity:1;stroke-width:1;font-variant-east_asian:normal;opacity:1;vector-effect:none;stroke-linecap:butt;stroke-linejoin:miter;stroke-miterlimit:4;stroke-dasharray:none;stroke-dashoffset:0;stroke-opacity:1" />
  <path
     d="M22.24 25.87v-5.01L5.56 15.58 4 23z"
     id="path16"
     style="fill:#444444;fill-opacity:1;stroke-width:1;font-variant-east_asian:normal;opacity:1;vector-effect:none;stroke-linecap:butt;stroke-linejoin:miter;stroke-miterlimit:4;stroke-dasharray:none;stroke-dashoffset:0;stroke-opacity:1" />
  <path
     d="M22.24 35.19L20.4 38h6.65z"
     id="path18"
     style="fill:#444444;fill-opacity:1;stroke-width:1;font-variant-east_asian:normal;opacity:1;vector-effect:none;stroke-linecap:butt;stroke-linejoin:miter;stroke-miterlimit:4;stroke-dasharray:none;stroke-dashoffset:0;stroke-opacity:1" />
  <path
     d="M42.75 35.19L38.65 38H46z"
     id="path20"
     style="fill:#444444;fill-opacity:1;stroke-width:1;font-variant-east_asian:normal;opacity:1;vector-effect:none;stroke-linecap:butt;stroke-linejoin:miter;stroke-miterlimit:4;stroke-dasharray:none;stroke-dashoffset:0;stroke-opacity:1" />
  <path
     d="M32.14 8.84L26.2 18.95l-9.53-3.37 4.3-8.1z"
     id="path22"
     style="fill:#444444;fill-opacity:1;stroke-width:1;font-variant-east_asian:normal;opacity:1;vector-effect:none;stroke-linecap:butt;stroke-linejoin:miter;stroke-miterlimit:4;stroke-dasharray:none;stroke-dashoffset:0;stroke-opacity:1" />
  <path
     d="M36.53 4.96l-3.54 2.53-10.75-1.52 8.35-2.02z"
     id="path24"
     style="fill:#444444;fill-opacity:1;stroke-width:1;font-variant-east_asian:normal;opacity:1;vector-effect:none;stroke-linecap:butt;stroke-linejoin:miter;stroke-miterlimit:4;stroke-dasharray:none;stroke-dashoffset:0;stroke-opacity:1" />
  <path
     d="M36.53 14.23V6.81l-3.12 2.7-6.36 9.44z"
     id="path26"
     style="fill:#444444;fill-opacity:1;stroke-width:1;font-variant-east_asian:normal;opacity:1;vector-effect:none;stroke-linecap:butt;stroke-linejoin:miter;stroke-miterlimit:4;stroke-dasharray:none;stroke-dashoffset:0;stroke-opacity:1" />
  <path
     d="M32.85 18.11l9.47.84-2.12-6.07-1.55 2.7z"
     id="path28"
     style="fill:#444444;fill-opacity:1;stroke-width:1;font-variant-east_asian:normal;opacity:1;vector-effect:none;stroke-linecap:butt;stroke-linejoin:miter;stroke-miterlimit:4;stroke-dasharray:none;stroke-dashoffset:0;stroke-opacity:1" />
  <path
     d="M17.5 9.17l-2.75 4.73.56 2.86-5.1-1.98-.13-3.08z"
     id="path30"
     style="fill:#444444;fill-opacity:1;stroke-width:1;font-variant-east_asian:normal;opacity:1;vector-effect:none;stroke-linecap:butt;stroke-linejoin:miter;stroke-miterlimit:4;stroke-dasharray:none;stroke-dashoffset:0;stroke-opacity:1" />
  <path
     style="color:#000;font-style:normal;font-variant:normal;font-weight:400;font-stretch:normal;font-size:medium;line-height:normal;font-family:sans-serif;font-variant-ligatures:normal;font-variant-position:normal;font-variant-caps:normal;font-variant-numeric:normal;font-variant-alternates:normal;font-feature-settings:normal;text-indent:0;text-align:start;text-decoration:none;text-decoration-line:none;text-decoration-style:solid;text-decoration-color:#000;letter-spacing:normal;word-spacing:normal;text-transform:none;writing-mode:lr-tb;direction:ltr;text-orientation:mixed;dominant-baseline:auto;baseline-shift:baseline;text-anchor:start;white-space:normal;shape-padding:0;clip100-rule:nonzero;display:inline;overflow:visible;visibility:visible;opacity:1;isolation:auto;mix-blend-mode:normal;color-interpolation:sRGB;color-interpolation-filters:linearRGB;solid-color:#000;solid-opacity:1;vector-effect:none;fill:#444444;fill-opacity:1;fill-rule:evenodd;stroke:none;stroke-width:1;stroke-linecap:butt;stroke-linejoin:miter;stroke-miterlimit:4;stroke-dasharray:none;stroke-dashoffset:0;stroke-opacity:1;color-rendering:auto;image-rendering:auto;shape-rendering:auto;text-rendering:auto;enable-background:accumulate;font-variant-east_asian:normal"
     d="M2 42v2h44v-2z"
     id="path847" />

</g>

</svg>