<svg width="300" height="40" viewBox="0 0 300 40" fill="none" xmlns="http://www.w3.org/2000/svg" xmlns:xlink="http://www.w3.org/1999/xlink">

<g transform="translate(130.000000, 0.000000) scale(2.500000 2.500000) "> 

<path fill-rule="evenodd" clip-rule="evenodd" d="M13.6703 3.97806C13.9586 4.90056 13.4445 5.8821 12.522 6.17038L5.75 8.28662V11.5C5.75 12.4665 4.9665 13.25 4 13.25C3.0335 13.25 2.25 12.4665 2.25 11.5C2.25 9.16666 2.25 6.83335 2.25 4.50002C2.25 3.53352 3.0335 2.75002 4 2.75002C4.9665 2.75002 5.75 3.53352 5.75 4.50002V4.61971L11.478 2.8297C12.4005 2.54142 13.3821 3.05556 13.6703 3.97806ZM12 7.25004C12.9665 7.25004 13.75 8.03354 13.75 9.00004V11.5C13.75 12.4665 12.9665 13.25 12 13.25C11.0335 13.25 10.25 12.4665 10.25 11.5V9.00004C10.25 8.03354 11.0335 7.25004 12 7.25004Z" fill="#EBE7E4" fill-opacity="0.8"/>

</g>%n%n
<g transform="translate(138.000000, 8.000000) scale(2.000000 2.000000) "> 

<path fill-rule="nonzero" fill="rgb(26.666667%, 26.666667%, 26.666667%)" fill-opacity="1" d="M 10.714844 2.277344 C 10.839844 2.671875 10.617188 3.09375 10.222656 3.214844 L 2.75 5.550781 L 2.75 9.5 C 2.75 9.914062 2.414062 10.25 2 10.25 C 1.585938 10.25 1.25 9.914062 1.25 9.5 L 1.25 5.015625 C 1.25 5.003906 1.25 4.992188 1.25 4.984375 L 1.25 2.5 C 1.25 2.085938 1.585938 1.75 2 1.75 C 2.414062 1.75 2.75 2.085938 2.75 2.5 L 2.75 3.980469 L 9.777344 1.785156 C 10.171875 1.660156 10.59375 1.882812 10.714844 2.277344 Z M 10.714844 2.277344 "/>
<path fill-rule="nonzero" fill="rgb(26.666667%, 26.666667%, 26.666667%)" fill-opacity="1" d="M 10 6.25 C 10.414062 6.25 10.75 6.585938 10.75 7 L 10.75 9.5 C 10.75 9.914062 10.414062 10.25 10 10.25 C 9.585938 10.25 9.25 9.914062 9.25 9.5 L 9.25 7 C 9.25 6.585938 9.585938 6.25 10 6.25 Z M 10 6.25 "/>

</g>%n%n</svg>