<svg width="300" height="40" viewBox="0 0 300 40" fill="none" xmlns="http://www.w3.org/2000/svg" xmlns:xlink="http://www.w3.org/1999/xlink">

<g transform="translate(130.000000, 0.000000) scale(2.500000 2.500000) "> 

<path fill-rule="evenodd" clip-rule="evenodd" d="M4.89097 9.13238C4.86504 9.55256 4.88889 9.97919 4.88889 10.4C4.88889 11.2837 5.68483 12 6.66667 12H10.2222C11.2041 12 12 11.2837 12 10.4V5.6C12 4.71634 11.2041 4 10.2222 4H6.66667C5.68483 4 4.88889 4.71634 4.88889 5.6C4.88889 6.02081 4.86504 6.44744 4.89097 6.86762C4.37202 7.03183 4 7.47681 4 8C4 8.52319 4.37202 8.96817 4.89097 9.13238Z" fill="#F1EAE4"/>

</g>%n%n
<g transform="translate(138.000000, 8.000000) scale(0.750000 0.750000) "> 

<defs>
<filter id="filter-remove-color" x="0%" y="0%" width="100%" height="100%">
<feColorMatrix color-interpolation-filters="sRGB" values="0 0 0 0 1 0 0 0 0 1 0 0 0 0 1 0 0 0 1 0" />
</filter>
<mask id="mask-0">
<g filter="url(#filter-remove-color)">
<rect x="-3.2" y="-3.2" width="38.4" height="38.4" fill="rgb(0%, 0%, 0%)" fill-opacity="0.2"/>
</g>
</mask>
<clip100Path id="clip100-0">
<rect x="0" y="0" width="32" height="32"/>
</clip100Path>
<g id="source-6" clip100-path="url(#clip100-0)">
<path fill-rule="nonzero" fill="rgb(47.843137%, 47.843137%, 47.843137%)" fill-opacity="1" d="M 10.667969 10.667969 L 21.332031 10.667969 L 21.332031 21.332031 L 10.667969 21.332031 Z M 10.667969 10.667969 "/>
</g>
<mask id="mask-1">
<g filter="url(#filter-remove-color)">
<rect x="-3.2" y="-3.2" width="38.4" height="38.4" fill="rgb(0%, 0%, 0%)" fill-opacity="0.2"/>
</g>
</mask>
<clip100Path id="clip100-1">
<rect x="0" y="0" width="32" height="32"/>
</clip100Path>
<g id="source-12" clip100-path="url(#clip100-1)">
<path fill-rule="nonzero" fill="rgb(26.666667%, 26.666667%, 26.666667%)" fill-opacity="1" d="M 10.667969 10.667969 L 21.332031 10.667969 L 21.332031 21.332031 L 10.667969 21.332031 Z M 10.667969 10.667969 "/>
</g>
</defs>
<g mask="url(#mask-0)">
<use xlink:href="#source-6"/>
</g>
<path fill-rule="nonzero" fill="rgb(47.843137%, 47.843137%, 47.843137%)" fill-opacity="1" d="M 11.667969 12 C 11.667969 12.183594 11.816406 12.332031 12 12.332031 C 12.183594 12.332031 12.332031 12.183594 12.332031 12 Z M 12.332031 20 C 12.332031 19.816406 12.183594 19.667969 12 19.667969 C 11.816406 19.667969 11.667969 19.816406 11.667969 20 Z M 12.332031 12 L 12.332031 9.667969 L 11.667969 9.667969 L 11.667969 12 Z M 12.332031 9.667969 L 22.332031 9.667969 L 22.332031 9 L 12.332031 9 Z M 22.332031 9.667969 L 22.332031 22.332031 L 23 22.332031 L 23 9.667969 Z M 22.332031 22.332031 L 12.332031 22.332031 L 12.332031 23 L 22.332031 23 Z M 12.332031 22.332031 L 12.332031 20 L 11.667969 20 L 11.667969 22.332031 Z M 12.332031 22.332031 L 11.667969 22.332031 C 11.667969 22.703125 11.964844 23 12.332031 23 Z M 22.332031 22.332031 L 22.332031 23 C 22.703125 23 23 22.703125 23 22.332031 Z M 22.332031 9.667969 L 23 9.667969 C 23 9.296875 22.703125 9 22.332031 9 Z M 12.332031 9.667969 L 12.332031 9 C 11.964844 9 11.667969 9.296875 11.667969 9.667969 Z M 12.332031 9.667969 "/>
<path fill="none" stroke-width="1" stroke-linecap="round" stroke-linejoin="round" stroke="rgb(47.843137%, 47.843137%, 47.843137%)" stroke-opacity="1" stroke-miterlimit="4" d="M 24 19.998047 L 28.001953 24 M 28.001953 24 L 24 28.001953 M 28.001953 24 L 13.998047 24 " transform="matrix(0.666667, 0, 0, 0.666667, 0, 0)"/>
<g mask="url(#mask-1)">
<use xlink:href="#source-12"/>
</g>
<path fill-rule="nonzero" fill="rgb(26.666667%, 26.666667%, 26.666667%)" fill-opacity="1" d="M 13.332031 8 C 11.859375 8 10.667969 9.195312 10.667969 10.667969 L 10.667969 12 C 10.667969 12.738281 11.261719 13.332031 12 13.332031 C 12.738281 13.332031 13.332031 12.738281 13.332031 12 L 13.332031 10.667969 L 21.332031 10.667969 L 21.332031 21.332031 L 13.332031 21.332031 L 13.332031 20 C 13.332031 19.261719 12.738281 18.667969 12 18.667969 C 11.261719 18.667969 10.667969 19.261719 10.667969 20 L 10.667969 21.332031 C 10.667969 22.804688 11.859375 24 13.332031 24 L 21.332031 24 C 22.804688 24 24 22.804688 24 21.332031 L 24 10.667969 C 24 9.195312 22.804688 8 21.332031 8 Z M 13.332031 8 "/>
<path fill-rule="nonzero" fill="rgb(26.666667%, 26.666667%, 26.666667%)" fill-opacity="1" d="M 16.941406 12.390625 C 16.421875 11.871094 15.578125 11.871094 15.058594 12.390625 C 14.535156 12.910156 14.535156 13.753906 15.058594 14.277344 L 15.449219 14.667969 L 9.332031 14.667969 C 8.597656 14.667969 8 15.261719 8 16 C 8 16.738281 8.597656 17.332031 9.332031 17.332031 L 15.449219 17.332031 L 15.058594 17.722656 C 14.535156 18.246094 14.535156 19.089844 15.058594 19.609375 C 15.578125 20.128906 16.421875 20.128906 16.941406 19.609375 L 19.609375 16.941406 C 20.128906 16.421875 20.128906 15.578125 19.609375 15.058594 Z M 16.941406 12.390625 "/>

</g>%n%n</svg>