<svg width="300" height="40" viewBox="0 0 300 40" fill="none" xmlns="http://www.w3.org/2000/svg" xmlns:xlink="http://www.w3.org/1999/xlink" version="1.1">

<g transform="translate(130.000000, 0.000000) scale(2.500000 2.500000) "> 

<path fill-rule="evenodd" clip-rule="evenodd" d="M11.9998 2.25C12.9663 2.25 13.7498 3.0335 13.7498 4V12C13.7498 12.9665 12.9663 13.75 11.9998 13.75C11.1182 13.75 10.3889 13.0981 10.2676 12.25H4.49984C3.25719 12.25 2.24984 11.2426 2.24984 10V6C2.24984 4.75736 3.2572 3.75 4.49984 3.75H10.2676C10.3889 2.90193 11.1182 2.25 11.9998 2.25Z" fill="#EBE7E4" fill-opacity="0.8"/>

</g>%n%n
<g transform="translate(138.000000, 8.000000) scale(2.000000 2.000000) "> 

<g id="surface1">
<path style=" stroke:none;fill-rule:evenodd;fill:rgb(26.666668%,26.666668%,26.666668%);fill-opacity:1;" d="M 10 1.25 C 10.414062 1.25 10.75 1.585938 10.75 2 L 10.75 10 C 10.75 10.414062 10.414062 10.75 10 10.75 C 9.585938 10.75 9.25 10.414062 9.25 10 L 9.25 9.25 L 2.5 9.25 C 1.808594 9.25 1.25 8.691406 1.25 8 L 1.25 4 C 1.25 3.308594 1.808594 2.75 2.5 2.75 L 9.25 2.75 L 9.25 2 C 9.25 1.585938 9.585938 1.25 10 1.25 Z M 9.25 4.25 L 9.25 7.75 L 5.558594 7.75 L 8.359375 4.25 Z M 6.4375 4.25 L 3.640625 7.75 L 2.75 7.75 L 2.75 4.25 Z M 6.4375 4.25 "/>
</g>

</g>%n%n</svg>