<svg width="300" height="40" viewBox="0 0 300 40" fill="none" xmlns="http://www.w3.org/2000/svg" xmlns:xlink="http://www.w3.org/1999/xlink">

<g transform="translate(130.000000, 0.000000) scale(2.500000 2.500000) "> 

<path opacity="0.812" d="M8 2C4.6992 2 2 4.6992 2 8C2 11.3008 4.6992 14 8 14C11.3008 14 14 11.3008 14 8C14 4.6992 11.3008 2 8 2ZM10.9729 5.79669C11.4318 6.42101 11.759 7.1513 11.759 8C11.759 9.20713 11.1363 10.2026 10.2666 10.8901L8.44578 9.18373C8.31293 9.0593 8.13802 8.98956 7.956 8.98844C7.77397 8.98733 7.59823 9.05491 7.46386 9.17771L5.65512 10.8358C4.83173 10.1461 4.24096 9.17099 4.24096 8C4.24096 7.15348 4.57585 6.42499 5.04217 5.7997L7.48645 8.0497C7.61879 8.17158 7.79182 8.23973 7.97173 8.24084C8.15164 8.24196 8.3255 8.17595 8.45934 8.05572L10.9729 5.79669Z" fill="#EBE7E4"/>

</g>%n%n
<g transform="translate(138.000000, 8.000000) scale(0.750000 0.750000) "> 

<path fill-rule="nonzero" fill="rgb(26.666667%, 26.666667%, 26.666667%)" fill-opacity="1" d="M 7.109375 6.601562 L 15.957031 14.730469 L 24.800781 6.757812 L 18.796875 3.445312 C 18.796875 3.445312 13.167969 3.6875 12.570312 3.804688 C 11.972656 3.925781 8.558594 5.542969 8.558594 5.542969 Z M 7.109375 6.601562 "/>
<path fill="none" stroke-width="37" stroke-linecap="round" stroke-linejoin="round" stroke="rgb(26.666667%, 26.666667%, 26.666667%)" stroke-opacity="1" stroke-miterlimit="4" d="M 519.394531 290 C 519.394531 350.817871 495.251465 409.157715 452.20459 452.20459 C 409.157715 495.251465 350.817871 519.394531 290 519.394531 C 229.182129 519.394531 170.842285 495.251465 127.79541 452.20459 C 84.748535 409.157715 60.605469 350.817871 60.605469 290 C 60.605469 229.182129 84.748535 170.842285 127.79541 127.79541 C 170.842285 84.748535 229.182129 60.605469 290 60.605469 C 350.817871 60.605469 409.157715 84.748535 452.20459 127.79541 C 495.251465 170.842285 519.394531 229.182129 519.394531 290 Z M 519.394531 290 " transform="matrix(0.0551724, 0, 0, 0.0551724, 0, 0)"/>
<path fill-rule="nonzero" fill="rgb(26.666667%, 26.666667%, 26.666667%)" fill-opacity="1" d="M 9.265625 26.503906 L 15.886719 20.414062 L 22.332031 26.449219 L 18.035156 28.875 C 18.035156 28.875 13.8125 28.695312 13.363281 28.605469 C 12.914062 28.515625 10.355469 27.300781 10.355469 27.300781 Z M 9.265625 26.503906 "/>

</g>%n%n</svg>