<svg width="300" height="40" viewBox="0 0 300 40" fill="none" xmlns="http://www.w3.org/2000/svg" xmlns:xlink="http://www.w3.org/1999/xlink">

<g transform="translate(130.000000, 0.000000) scale(2.500000 2.500000) "> 

 <path transform="matrix(.8 0 0 .8 1.6 1.6)" d="m1.334-0.0058594a1.34 1.34 0 0 0-1.3398 1.3398v13.332a1.34 1.34 0 0 0 1.3398 1.3398h1.332a1.34 1.34 0 0 0 1.3398-1.3398v-5.3262h7.9883v5.3262a1.34 1.34 0 0 0 1.3398 1.3398h1.332a1.34 1.34 0 0 0 1.3398-1.3398v-13.332a1.34 1.34 0 0 0-1.3398-1.3398z" fill="#ebe7e4" opacity=".8" stop-color="#000000" stroke-width="1.5625" style="-inkscape-stroke:none;font-variation-settings:normal"/>

</g>%n%n
<g transform="translate(138.000000, 8.000000) scale(0.750000 0.750000) "> 

<path fill-rule="evenodd" fill="rgb(26.666667%, 26.666667%, 26.666667%)" fill-opacity="0.7" d="M 5.332031 16 L 5.332031 29.332031 L 2.667969 29.332031 L 2.667969 16 Z M 5.332031 16 "/>
<path fill-rule="evenodd" fill="rgb(26.666667%, 26.666667%, 26.666667%)" fill-opacity="0.7" d="M 29.332031 16 L 29.332031 29.332031 L 26.667969 29.332031 L 26.667969 16 Z M 29.332031 16 "/>
<path fill-rule="nonzero" fill="rgb(26.666667%, 26.666667%, 26.666667%)" fill-opacity="1" d="M 2.667969 2.667969 L 29.332031 2.667969 L 29.332031 16 L 2.667969 16 Z M 2.667969 2.667969 "/>

</g>%n%n</svg>