<svg width="40" height="40" viewBox="0 0 40 40" fill="none" xmlns="http://www.w3.org/2000/svg" >

<g transform="translate(0.000000, 0.000000) scale(2.500000 2.500000) "> 

<path opacity="0.8" fill-rule="evenodd" clip-rule="evenodd" d="M11 11C11 12.1046 10.1046 13 9 13H5C3.89543 13 3 12.1046 3 11V5C3 3.89543 3.89543 3 5 3H9C10.1046 3 11 3.89543 11 5C11.3839 5 11.7678 5.14645 12.0607 5.43934L13.5607 6.93934C14.1464 7.52513 14.1464 8.47487 13.5607 9.06066L12.0607 10.5607C11.7678 10.8536 11.3839 11 11 11Z" fill="#EBE7E4"/>

</g>


<g transform="translate(8.000000, 8.000000) scale(0.500000 0.500000) "> 

<rect opacity="0.2" width="20" height="24" transform="matrix(-1 0 0 1 32 12)" fill="#940000"/>
<path d="M28 8C30.2091 8 32 9.79086 32 12V18C32 19.1046 31.1046 20 30 20C28.8954 20 28 19.1046 28 18V12H12V36H28V30C28 28.8954 28.8954 28 30 28C31.1046 28 32 28.8954 32 30V36C32 38.2091 30.2091 40 28 40H12C9.79086 40 8 38.2091 8 36V12C8 9.79086 9.79086 8 12 8H28Z" fill="#940000"/>
<path d="M37.4142 16.5858C36.6332 15.8047 35.3668 15.8047 34.5858 16.5858C33.8047 17.3668 33.8047 18.6332 34.5858 19.4142L37.1716 22H26C24.8954 22 24 22.8954 24 24C24 25.1046 24.8954 26 26 26H37.1716L34.5858 28.5858C33.8047 29.3668 33.8047 30.6332 34.5858 31.4142C35.3668 32.1953 36.6332 32.1953 37.4142 31.4142L43.4142 25.4142C44.1953 24.6332 44.1953 23.3668 43.4142 22.5858L37.4142 16.5858Z" fill="#940000"/>

</g>

</svg>