<svg width="300" height="40" viewBox="0 0 300 40" fill="none" xmlns="http://www.w3.org/2000/svg" xmlns:xlink="http://www.w3.org/1999/xlink">

<g transform="translate(130.000000, 0.000000) scale(2.500000 2.500000) "> 

 <path transform="matrix(.8 0 0 .8 1.6 1.6)" d="m8 0c-1.7668 0-3.4643 0.70061-4.7148 1.9512-1.2499 1.25-1.9531 2.9468-1.9531 4.7148a1.3341 1.3341 0 0 0 0.66797 0.66602 1.3341 1.3341 0 0 0-0.66797 0.66797v2.666a1.3341 1.3341 0 0 0 0.66797 0.66602 1.3341 1.3341 0 0 0-0.66797 0.66797v2.666a1.3341 1.3341 0 0 0 1.334 1.334h10.668a1.3341 1.3341 0 0 0 1.334-1.334v-2.666a1.3341 1.3341 0 0 0-0.66797-0.66797 1.3341 1.3341 0 0 0 0.66797-0.66602v-2.666a1.3341 1.3341 0 0 0-0.66797-0.66797 1.3341 1.3341 0 0 0 0.66797-0.66602c0-1.768-0.70317-3.4649-1.9531-4.7148-1.2506-1.2506-2.948-1.9512-4.7148-1.9512zm0 5.7188c0.25222 0 0.49207 0.099488 0.66992 0.27734 0.17786 0.17786 0.27734 0.4177 0.27734 0.66992h-1.8945c0-0.25222 0.099488-0.49207 0.27734-0.66992 0.17786-0.17786 0.4177-0.27734 0.66992-0.27734z" fill="#ebe7e4" opacity=".8" stop-color="#000000" stroke-width="1.5625" style="-inkscape-stroke:none;font-variation-settings:normal"/>

</g>%n%n
<g transform="translate(138.000000, 8.000000) scale(0.750000 0.750000) "> 

<path fill-rule="nonzero" fill="rgb(26.666667%, 26.666667%, 26.666667%)" fill-opacity="1" d="M 5.332031 24 L 26.667969 24 L 26.667969 29.332031 L 5.332031 29.332031 Z M 5.332031 24 "/>
<path fill-rule="nonzero" fill="rgb(26.666667%, 26.666667%, 26.666667%)" fill-opacity="1" d="M 5.332031 16 L 26.667969 16 L 26.667969 21.332031 L 5.332031 21.332031 Z M 5.332031 16 "/>
<path fill-rule="nonzero" fill="rgb(26.666667%, 26.666667%, 26.666667%)" fill-opacity="0.7" d="M 26.667969 13.332031 C 26.667969 10.503906 25.542969 7.792969 23.542969 5.789062 C 21.542969 3.789062 18.828125 2.667969 16 2.667969 C 13.171875 2.667969 10.457031 3.789062 8.457031 5.789062 C 6.457031 7.792969 5.332031 10.503906 5.332031 13.332031 L 11.4375 13.332031 C 11.4375 12.125 11.917969 10.960938 12.773438 10.105469 C 13.628906 9.25 14.789062 8.769531 16 8.769531 C 17.210938 8.769531 18.371094 9.25 19.226562 10.105469 C 20.082031 10.960938 20.5625 12.125 20.5625 13.332031 Z M 26.667969 13.332031 "/>

</g>%n%n</svg>