<svg width="300" height="40" viewBox="0 0 300 40" fill="none" xmlns="http://www.w3.org/2000/svg" xmlns:xlink="http://www.w3.org/1999/xlink">

<g transform="translate(130.000000, 0.000000) scale(2.500000 2.500000) "> 

<path opacity="0.812" d="M9.57492 2.00175C9.51964 2.00478 9.46238 2.01048 9.40204 2.02236C9.40141 2.02236 9.40078 2.02236 9.40014 2.02236L7.38257 2.42714C7.07922 2.48832 6.83004 2.67538 6.65305 2.91249C6.57895 2.96145 6.52592 3.0177 6.47257 3.07365C6.36967 3.06902 6.26549 3.05967 6.14391 3.09427L4.34861 3.60024C3.97113 3.70676 3.71482 4.00926 3.5792 4.35731C3.37053 4.35523 3.15701 4.38329 2.96367 4.49599C2.67976 4.66147 2.47364 4.93601 2.39373 5.25119L2.01757 6.73537C1.9404 7.03948 2.02361 7.33958 2.17336 7.60301L2.16006 7.61238C2.15942 7.61238 2.15879 7.61238 2.15816 7.61238C1.93039 7.78435 1.77896 8.03158 1.71361 8.29824L1.7459 8.22703C1.60982 8.42644 1.53346 8.66398 1.53313 8.90728V9.64187H1.39824C0.894318 9.64187 0.54939 9.92115 0.379957 10.1254C0.230494 10.3055 0.158079 10.4758 0.115887 10.5957C0.0266316 10.8494 0 11.0887 0 11.3209C0 11.5532 0.0266315 11.7925 0.115887 12.0462C0.15808 12.1661 0.230495 12.3364 0.379957 12.5165C0.54939 12.7207 0.894318 13 1.39824 13H14.6037C15.109 13 15.4561 12.7173 15.6257 12.5109C15.7749 12.3294 15.8466 12.158 15.8879 12.0387C15.9752 11.7864 16 11.5508 16 11.3209C16 11.0911 15.9752 10.8555 15.8879 10.6032C15.8466 10.4839 15.7749 10.3125 15.6257 10.131C15.4561 9.92461 15.109 9.64187 14.6037 9.64187H14.4802C14.445 9.54344 14.4018 9.44985 14.3415 9.36265C14.3979 9.25115 14.4627 9.13729 14.4726 8.98224L14.6094 6.83656C14.6286 6.51553 14.497 6.21496 14.2902 5.98016C14.28 5.96856 14.2742 5.95392 14.2636 5.94268C14.2636 5.94206 14.2636 5.94143 14.2636 5.94081L14.2807 5.96142C14.2807 5.9608 14.2807 5.96018 14.2807 5.95955C14.2729 5.94445 14.2639 5.93039 14.2541 5.91645C14.2479 5.90764 14.2467 5.91189 14.2408 5.90521C14.2404 5.9047 14.2413 5.90383 14.2408 5.90334C14.2402 5.90271 14.2395 5.90209 14.2389 5.90147C14.2389 5.90084 14.2389 5.90022 14.2389 5.8996C14.2343 5.89339 14.2264 5.89072 14.2218 5.8846C14.2209 5.8835 14.2188 5.88383 14.218 5.88273C14.0422 5.654 13.783 5.51984 13.5018 5.45545L13.1199 4.55408C13.1193 4.5522 13.1187 4.55032 13.118 4.54846L13.1142 4.53908C13.1142 4.53783 13.1142 4.53658 13.1142 4.53533C12.971 4.19795 12.6615 3.99037 12.3201 3.88695V3.79325C12.3202 3.7105 12.3072 3.63164 12.2916 3.55526C12.3239 3.2716 12.2738 2.97479 12.1016 2.72885C11.906 2.4494 11.5977 2.26272 11.2581 2.21538L9.82189 2.013C9.74158 2.00148 9.65984 1.99728 9.57682 2.00175C9.57619 2.00175 9.57555 2.00175 9.57492 2.00175Z" fill="#EBE7E4"/>

</g>%n%n
<g transform="translate(138.000000, 8.000000) scale(0.750000 0.750000) "> 

<path fill-rule="nonzero" fill="rgb(26.666667%, 26.666667%, 26.666667%)" fill-opacity="1" d="M 9.601562 25.332031 L 11.113281 21.585938 L 1.433594 21.585938 L 1.433594 25.332031 Z M 9.601562 25.332031 "/>
<path fill-rule="nonzero" fill="rgb(26.666667%, 26.666667%, 26.666667%)" fill-opacity="1" d="M 13.132812 17.921875 L 11.113281 20.507812 L 1.820312 20.507812 L 5.398438 17.238281 Z M 13.132812 17.921875 "/>
<path fill-rule="nonzero" fill="rgb(26.666667%, 26.666667%, 26.666667%)" fill-opacity="1" d="M 10.207031 25.332031 L 13.132812 23.460938 L 13.132812 18.875 L 11.621094 21.585938 Z M 10.207031 25.332031 "/>
<path fill-rule="nonzero" fill="rgb(26.666667%, 26.666667%, 26.666667%)" fill-opacity="1" d="M 22.085938 25.332031 L 26.800781 18.035156 L 16.535156 15.332031 L 13.988281 21.585938 Z M 22.085938 25.332031 "/>
<path fill-rule="nonzero" fill="rgb(26.666667%, 26.666667%, 26.666667%)" fill-opacity="1" d="M 17.464844 13.933594 L 30.285156 13.933594 L 26.800781 17.246094 Z M 17.464844 13.933594 "/>
<path fill-rule="nonzero" fill="rgb(26.666667%, 26.666667%, 26.666667%)" fill-opacity="1" d="M 23.5 25.332031 L 30.285156 21.585938 L 30.667969 14.433594 L 27.464844 17.808594 Z M 23.5 25.332031 "/>
<path fill-rule="nonzero" fill="rgb(26.666667%, 26.666667%, 26.666667%)" fill-opacity="1" d="M 14.828125 17.246094 L 14.828125 13.90625 L 3.707031 10.386719 L 2.667969 15.332031 Z M 14.828125 17.246094 "/>
<path fill-rule="nonzero" fill="rgb(26.666667%, 26.666667%, 26.666667%)" fill-opacity="1" d="M 14.828125 23.460938 L 13.601562 25.332031 L 18.035156 25.332031 Z M 14.828125 23.460938 "/>
<path fill-rule="nonzero" fill="rgb(26.666667%, 26.666667%, 26.666667%)" fill-opacity="1" d="M 28.5 23.460938 L 25.765625 25.332031 L 30.667969 25.332031 Z M 28.5 23.460938 "/>
<path fill-rule="nonzero" fill="rgb(26.666667%, 26.666667%, 26.666667%)" fill-opacity="1" d="M 21.425781 5.894531 L 17.464844 12.632812 L 11.113281 10.386719 L 13.980469 4.988281 Z M 21.425781 5.894531 "/>
<path fill-rule="nonzero" fill="rgb(26.666667%, 26.666667%, 26.666667%)" fill-opacity="1" d="M 24.351562 3.308594 L 21.992188 4.992188 L 14.828125 3.980469 L 20.394531 2.632812 Z M 24.351562 3.308594 "/>
<path fill-rule="nonzero" fill="rgb(26.666667%, 26.666667%, 26.666667%)" fill-opacity="1" d="M 24.351562 9.488281 L 24.351562 4.539062 L 22.273438 6.339844 L 18.035156 12.632812 Z M 24.351562 9.488281 "/>
<path fill-rule="nonzero" fill="rgb(26.666667%, 26.666667%, 26.666667%)" fill-opacity="1" d="M 21.898438 12.074219 L 28.214844 12.632812 L 26.800781 8.585938 L 25.765625 10.386719 Z M 21.898438 12.074219 "/>
<path fill-rule="nonzero" fill="rgb(26.666667%, 26.666667%, 26.666667%)" fill-opacity="1" d="M 11.667969 6.113281 L 9.832031 9.265625 L 10.207031 11.171875 L 6.808594 9.851562 L 6.71875 7.800781 Z M 11.667969 6.113281 "/>
<path fill-rule="evenodd" fill="rgb(26.666667%, 26.666667%, 26.666667%)" fill-opacity="1" d="M 1.332031 28 L 1.332031 29.332031 L 30.667969 29.332031 L 30.667969 28 Z M 1.332031 28 "/>

</g>%n%n</svg>