<svg width="300" height="40" viewBox="0 0 300 40" fill="none" xmlns="http://www.w3.org/2000/svg" >

<g transform="translate(130.000000, 0.000000) scale(2.500000 2.500000) "> 

 <path transform="matrix(.8 0 0 .8 1.6 1.6)" d="m1.334-0.0058594a1.34 1.34 0 0 0-1.3398 1.3398v13.332a1.34 1.34 0 0 0 1.3398 1.3398h1.332a1.34 1.34 0 0 0 1.3398-1.3398v-5.3262h7.9883v5.3262a1.34 1.34 0 0 0 1.3398 1.3398h1.332a1.34 1.34 0 0 0 1.3398-1.3398v-13.332a1.34 1.34 0 0 0-1.3398-1.3398z" fill="#ebe7e4" opacity=".8" stop-color="#000000" stroke-width="1.5625" style="-inkscape-stroke:none;font-variation-settings:normal"/>

</g>


<g transform="translate(138.000000, 8.000000) scale(0.500000 0.500000) "> 

<path fill-rule="evenodd" clip100-rule="evenodd" d="M8 24V44H4V24H8Z" fill="#444444" fill-opacity="0.7"/>
<path fill-rule="evenodd" clip100-rule="evenodd" d="M44 24V44H40V24H44Z" fill="#444444" fill-opacity="0.7"/>
<path d="M4 4H44V24H4V4Z" fill="#444444"/>

</g>

</svg>