<svg width="300" height="40" viewBox="0 0 300 40" fill="none" xmlns="http://www.w3.org/2000/svg" xmlns:xlink="http://www.w3.org/1999/xlink" version="1.1">

<g transform="translate(130.000000, 0.000000) scale(2.500000 2.500000) "> 

<path opacity="0.812" d="M8.35666 4.03671C8.16596 3.98096 7.82164 3.95769 7.5477 4.20051C7.30066 4.41949 7.13456 4.6227 7.02692 4.72079C6.91929 4.81887 6.92809 4.80817 6.88795 4.8075C6.49901 4.80105 5.99121 4.66828 5.49678 4.504C5.00235 4.33973 4.53543 4.14809 4.08804 4.0608C4.06095 4.05567 4.03359 4.05245 4.00612 4.05117C3.03886 4.00086 2.36186 4.83962 2.11173 5.71158C1.98666 6.14756 1.95376 6.62757 2.07954 7.099C2.20533 7.57042 2.51831 8.02427 2.97774 8.28087C3.00558 8.29655 3.03442 8.30997 3.06404 8.32102C6.20442 9.48055 9.51241 10.9316 10.9752 11.7414C11.1081 11.8148 11.2601 11.8353 11.4053 11.7992C11.6509 11.8795 11.8834 12.0446 12.1279 11.9887C12.5566 11.8908 12.9344 11.6134 13.2382 11.2275C14.0088 10.248 14.2457 8.82714 13.7122 7.70117C13.7071 7.68978 13.7017 7.67853 13.6961 7.66745L13.639 7.56147C13.6357 7.55553 13.6323 7.54964 13.6288 7.54381C13.419 7.17883 13.099 6.88403 12.7101 6.76338C12.7043 6.76169 12.6984 6.76008 12.6926 6.75856C12.6769 6.75424 12.657 6.7514 12.6399 6.74732C12.6364 6.74623 12.6288 6.74361 12.6253 6.74251C12.1306 6.59037 11.3013 6.36695 10.5802 6.14996C10.2388 6.04723 9.93614 5.94773 9.70981 5.86413C9.72434 5.79339 9.73463 5.73471 9.75077 5.66019C9.78647 5.4953 9.82355 5.33401 9.85024 5.19771C9.86359 5.12957 9.87508 5.07324 9.88389 4.99378C9.8883 4.95404 9.89743 4.92096 9.88681 4.80268C9.88419 4.77312 9.88014 4.7365 9.86779 4.68546C9.86165 4.65994 9.85294 4.63007 9.84 4.59553C9.82705 4.561 9.78322 4.47716 9.78295 4.4767C9.78268 4.47625 9.6677 4.33088 9.66738 4.33058C9.66706 4.33027 9.47465 4.20387 9.47428 4.20372C9.47392 4.20356 9.24357 4.15554 9.24315 4.15554C9.24274 4.15554 9.05344 4.1875 9.05298 4.18766C8.76048 4.28615 8.85144 4.18143 8.35666 4.03671Z" fill="#EBE7E4"/>

</g>%n%n
<g transform="translate(138.000000, 8.000000) scale(2.000000 2.000000) "> 

<g id="surface1">
<path style=" stroke:none;fill-rule:nonzero;fill:rgb(26.666668%,26.666668%,26.666668%);fill-opacity:1;" d="M 6.203125 2.992188 C 6.109375 2.96875 6.023438 2.96875 5.960938 3.023438 C 5.570312 3.339844 5.339844 3.726562 4.886719 3.71875 C 3.878906 3.703125 2.675781 3.152344 1.976562 3.027344 C 0.8125 2.972656 0.0351562 5.042969 1.269531 5.671875 C 4.4375 6.738281 7.746094 8.058594 9.28125 8.832031 C 9.28125 8.828125 9.28125 8.828125 9.28125 8.828125 C 9.710938 9.175781 10.3125 9.050781 10.773438 8.515625 C 11.359375 7.835938 11.535156 6.722656 11.164062 6.011719 L 11.109375 5.914062 C 10.96875 5.691406 10.777344 5.542969 10.554688 5.480469 C 10.53125 5.472656 10.507812 5.46875 10.484375 5.464844 C 9.542969 5.199219 7.089844 4.628906 7.019531 4.414062 C 6.96875 4.265625 7.316406 3.105469 7.253906 3.125 C 6.726562 3.285156 6.40625 3.046875 6.203125 2.992188 Z M 10.40625 6.023438 C 10.558594 6.066406 10.691406 6.171875 10.785156 6.324219 L 10.824219 6.394531 C 11.082031 6.882812 10.960938 7.648438 10.554688 8.117188 C 10.152344 8.585938 9.613281 8.582031 9.339844 8.109375 C 9.070312 7.640625 9.167969 6.871094 9.5625 6.386719 C 9.808594 6.082031 10.128906 5.945312 10.40625 6.023438 Z M 10.183594 6.835938 C 10.089844 6.808594 9.988281 6.855469 9.90625 6.957031 C 9.777344 7.117188 9.742188 7.367188 9.832031 7.523438 C 9.921875 7.679688 10.101562 7.679688 10.234375 7.527344 C 10.367188 7.371094 10.40625 7.117188 10.320312 6.957031 L 10.308594 6.933594 C 10.277344 6.882812 10.234375 6.851562 10.183594 6.835938 Z M 10.183594 6.835938 "/>
</g>

</g>%n%n</svg>