<svg width="300" height="40" viewBox="0 0 300 40" fill="none" xmlns="http://www.w3.org/2000/svg" xmlns:xlink="http://www.w3.org/1999/xlink">

<g transform="translate(130.000000, 0.000000) scale(2.000000 2.000000) "> 

<g clip-path="url(#clip0)">
<path opacity="0.953" d="M9.99934 0C15.514 0 20 4.44646 20 10C20 15.5172 15.514 20 9.99934 20C4.48599 20 0 15.5172 0 10C0 4.44646 4.48599 0 9.99934 0V0Z" fill="#878787"/>
<path opacity="0.95" fill-rule="evenodd" clip-rule="evenodd" d="M10 19C14.9706 19 19 14.9706 19 10C19 5.02944 14.9706 1 10 1C5.02944 1 1 5.02944 1 10C1 14.9706 5.02944 19 10 19ZM10 20C15.5228 20 20 15.5228 20 10C20 4.47715 15.5228 0 10 0C4.47715 0 0 4.47715 0 10C0 15.5228 4.47715 20 10 20Z" fill="#404040"/>
</g>
<defs>
<clipPath id="clip0">
<path d="M0 0H20V20H0V0Z" fill="white"/>
</clipPath>
</defs>

</g>%n%n
<g transform="translate(138.000000, 8.000000) scale(0.750000 0.750000) "> 

<defs>
<filter id="filter-remove-color" x="0%" y="0%" width="100%" height="100%">
<feColorMatrix color-interpolation-filters="sRGB" values="0 0 0 0 1 0 0 0 0 1 0 0 0 0 1 0 0 0 1 0" />
</filter>
<mask id="mask-0">
<g filter="url(#filter-remove-color)">
<rect x="-3.2" y="-3.2" width="38.4" height="38.4" fill="rgb(0%, 0%, 0%)" fill-opacity="0.4"/>
</g>
</mask>
<clip100Path id="clip100-0">
<rect x="0" y="0" width="32" height="32"/>
</clip100Path>
<g id="source-6" clip100-path="url(#clip100-0)">
<path fill-rule="nonzero" fill="rgb(100%, 100%, 100%)" fill-opacity="1" d="M 8 13.332031 L 24 13.332031 L 24 16 L 8 16 Z M 8 13.332031 "/>
</g>
<mask id="mask-1">
<g filter="url(#filter-remove-color)">
<rect x="-3.2" y="-3.2" width="38.4" height="38.4" fill="rgb(0%, 0%, 0%)" fill-opacity="0.5"/>
</g>
</mask>
<clip100Path id="clip100-1">
<rect x="0" y="0" width="32" height="32"/>
</clip100Path>
<g id="source-11" clip100-path="url(#clip100-1)">
<path fill-rule="nonzero" fill="rgb(100%, 100%, 100%)" fill-opacity="1" d="M 18.667969 8 L 16 8 L 16 13.332031 L 18.667969 13.332031 Z M 18.667969 8 "/>
<path fill-rule="nonzero" fill="rgb(100%, 100%, 100%)" fill-opacity="1" d="M 16 18.667969 L 13.332031 18.667969 L 13.332031 24 L 16 24 Z M 16 18.667969 "/>
</g>
</defs>
<g mask="url(#mask-0)">
<use xlink:href="#source-6"/>
</g>
<g mask="url(#mask-1)">
<use xlink:href="#source-11"/>
</g>
<path fill-rule="nonzero" fill="rgb(100%, 100%, 100%)" fill-opacity="1" d="M 13.332031 8 L 10.667969 8 L 10.667969 13.332031 L 13.332031 13.332031 Z M 13.332031 8 "/>
<path fill-rule="nonzero" fill="rgb(100%, 100%, 100%)" fill-opacity="1" d="M 18.667969 8 L 21.332031 8 L 21.332031 13.332031 L 18.667969 13.332031 Z M 18.667969 8 "/>
<path fill-rule="evenodd" fill="rgb(100%, 100%, 100%)" fill-opacity="1" d="M 24 26.667969 L 26.667969 26.667969 L 26.667969 5.332031 C 26.667969 3.859375 25.472656 2.667969 24 2.667969 L 8 2.667969 C 6.527344 2.667969 5.332031 3.859375 5.332031 5.332031 L 5.332031 26.667969 L 8 26.667969 C 8 28.140625 9.195312 29.332031 10.667969 29.332031 C 12.140625 29.332031 13.332031 28.140625 13.332031 26.667969 L 18.667969 26.667969 C 18.667969 28.140625 19.859375 29.332031 21.332031 29.332031 C 22.804688 29.332031 24 28.140625 24 26.667969 Z M 10.667969 24 L 10.667969 18.667969 L 13.332031 18.667969 L 13.332031 24 L 18.667969 24 L 18.667969 18.667969 L 21.332031 18.667969 L 21.332031 24 L 24 24 L 24 5.332031 L 8 5.332031 L 8 24 Z M 10.667969 28 C 11.402344 28 12 27.402344 12 26.667969 C 12 25.929688 11.402344 25.332031 10.667969 25.332031 C 9.929688 25.332031 9.332031 25.929688 9.332031 26.667969 C 9.332031 27.402344 9.929688 28 10.667969 28 Z M 21.332031 28 C 22.070312 28 22.667969 27.402344 22.667969 26.667969 C 22.667969 25.929688 22.070312 25.332031 21.332031 25.332031 C 20.597656 25.332031 20 25.929688 20 26.667969 C 20 27.402344 20.597656 28 21.332031 28 Z M 21.332031 28 "/>

</g>%n%n</svg>