<svg width="300" height="40" viewBox="0 0 300 40" fill="none" xmlns="http://www.w3.org/2000/svg" xmlns:xlink="http://www.w3.org/1999/xlink">

<g transform="translate(130.000000, 0.000000) scale(2.000000 2.000000) "> 

<g clip-path="url(#clip0)">
<path opacity="0.953" d="M9.99934 0C15.514 0 20 4.44646 20 10C20 15.5172 15.514 20 9.99934 20C4.48599 20 0 15.5172 0 10C0 4.44646 4.48599 0 9.99934 0V0Z" fill="#878787"/>
<path opacity="0.95" fill-rule="evenodd" clip-rule="evenodd" d="M10 19C14.9706 19 19 14.9706 19 10C19 5.02944 14.9706 1 10 1C5.02944 1 1 5.02944 1 10C1 14.9706 5.02944 19 10 19ZM10 20C15.5228 20 20 15.5228 20 10C20 4.47715 15.5228 0 10 0C4.47715 0 0 4.47715 0 10C0 15.5228 4.47715 20 10 20Z" fill="#404040"/>
</g>
<defs>
<clipPath id="clip0">
<path d="M0 0H20V20H0V0Z" fill="white"/>
</clipPath>
</defs>

</g>%n%n
<g transform="translate(138.000000, 8.000000) scale(0.750000 0.750000) "> 

<path fill-rule="nonzero" fill="rgb(100%, 100%, 100%)" fill-opacity="1" d="M 24.851562 18.089844 L 22.316406 18.089844 C 20.582031 18.429688 19.933594 16.179688 19.019531 15.75 C 18.925781 15.765625 18.277344 16.480469 18.277344 16.550781 C 18.855469 18.464844 20.695312 19.519531 21.6875 19.710938 C 21.875 19.753906 22.101562 19.925781 22.101562 19.925781 L 20.585938 25.785156 L 22.175781 25.785156 L 22.175781 30.382812 C 22.175781 30.792969 22.371094 30.996094 22.765625 30.996094 C 23.160156 30.996094 23.359375 30.792969 23.359375 30.382812 L 23.359375 25.765625 L 23.949219 25.765625 L 23.949219 30.40625 C 23.949219 30.800781 24.148438 30.996094 24.542969 30.996094 C 24.9375 30.996094 25.132812 30.800781 25.132812 30.40625 L 25.132812 25.785156 L 26.722656 25.785156 L 25.0625 19.890625 L 25.632812 19.890625 L 26.625 23.207031 C 26.707031 23.492188 26.871094 23.632812 27.125 23.632812 C 27.488281 23.632812 27.667969 23.449219 27.667969 23.085938 C 27.667969 23.007812 27.652344 22.9375 27.621094 22.875 L 26.53125 19.25 C 26.453125 19 26.269531 18.753906 25.988281 18.515625 C 25.640625 18.234375 25.261719 18.089844 24.851562 18.089844 Z M 23.640625 17.828125 C 24.125 17.828125 24.535156 17.660156 24.875 17.324219 C 25.214844 16.984375 25.382812 16.582031 25.382812 16.117188 C 25.382812 15.632812 25.214844 15.21875 24.875 14.882812 C 24.535156 14.542969 24.125 14.375 23.640625 14.375 C 23.175781 14.375 22.773438 14.542969 22.433594 14.882812 C 22.097656 15.21875 21.925781 15.632812 21.925781 16.117188 C 21.925781 16.582031 22.097656 16.984375 22.433594 17.324219 C 22.773438 17.660156 23.175781 17.828125 23.640625 17.828125 Z M 10.691406 5.75 C 11.335938 5.75 11.890625 5.515625 12.359375 5.046875 C 12.828125 4.578125 13.0625 4.019531 13.0625 3.375 C 13.0625 2.703125 12.828125 2.136719 12.359375 1.683594 C 11.890625 1.230469 11.335938 1.003906 10.691406 1.003906 C 10.046875 1.003906 9.488281 1.230469 9.019531 1.683594 C 8.550781 2.136719 8.320312 2.703125 8.320312 3.375 C 8.320312 4.019531 8.550781 4.578125 9.019531 5.046875 C 9.488281 5.515625 10.046875 5.75 10.691406 5.75 Z M 13.484375 6.230469 L 7.871094 6.230469 C 7.113281 6.230469 6.464844 6.53125 5.925781 7.132812 C 5.390625 7.734375 5.121094 8.472656 5.121094 9.351562 L 4.339844 16.644531 C 4.265625 17.34375 4.628906 17.699219 5.207031 17.699219 C 5.753906 17.699219 6.03125 17.347656 6.03125 16.644531 L 6.808594 9.527344 L 7.484375 9.527344 L 7.484375 28.859375 C 7.484375 29.738281 7.703125 30.179688 8.652344 30.179688 C 9.601562 30.179688 9.769531 29.738281 9.769531 28.859375 L 9.769531 17.65625 L 11.609375 17.65625 L 11.609375 28.859375 C 11.609375 29.738281 11.78125 30.179688 12.730469 30.179688 C 13.710938 30.179688 13.941406 29.738281 13.941406 28.859375 L 13.941406 9.527344 L 14.585938 9.527344 L 17.484375 15.746094 C 17.484375 16.476562 17.792969 16.84375 18.40625 16.84375 C 19.023438 16.84375 19.332031 16.476562 19.332031 15.746094 L 16.390625 9.371094 C 15.976562 8.472656 15.980469 7.804688 15.46875 7.175781 C 14.957031 6.546875 14.296875 6.230469 13.484375 6.230469 Z M 13.484375 6.230469 "/>

</g>%n%n</svg>