<svg width="300" height="40" viewBox="0 0 300 40" fill="none" xmlns="http://www.w3.org/2000/svg" xmlns:xlink="http://www.w3.org/1999/xlink">

<g transform="translate(130.000000, 0.000000) scale(2.000000 2.000000) "> 

<g clip-path="url(#clip0)">
<path opacity="0.953" d="M9.99934 0C15.514 0 20 4.44646 20 10C20 15.5172 15.514 20 9.99934 20C4.48599 20 0 15.5172 0 10C0 4.44646 4.48599 0 9.99934 0V0Z" fill="#878787"/>
<path opacity="0.95" fill-rule="evenodd" clip-rule="evenodd" d="M10 19C14.9706 19 19 14.9706 19 10C19 5.02944 14.9706 1 10 1C5.02944 1 1 5.02944 1 10C1 14.9706 5.02944 19 10 19ZM10 20C15.5228 20 20 15.5228 20 10C20 4.47715 15.5228 0 10 0C4.47715 0 0 4.47715 0 10C0 15.5228 4.47715 20 10 20Z" fill="#404040"/>
</g>
<defs>
<clipPath id="clip0">
<path d="M0 0H20V20H0V0Z" fill="white"/>
</clipPath>
</defs>

</g>%n%n
<g transform="translate(138.000000, 8.000000) scale(0.750000 0.750000) "> 

<path fill-rule="nonzero" fill="rgb(100%, 100%, 100%)" fill-opacity="1" d="M 2.667969 12 L 16 5.332031 L 29.332031 12 L 16 18.667969 L 6 13.667969 L 6 20.113281 C 6.777344 20.386719 7.332031 21.128906 7.332031 22 C 7.332031 23.105469 6.4375 24 5.332031 24 C 4.230469 24 3.332031 23.105469 3.332031 22 C 3.332031 21.128906 3.890625 20.386719 4.667969 20.113281 L 4.667969 13 Z M 2.667969 12 "/>
<path fill-rule="nonzero" fill="rgb(100%, 100%, 100%)" fill-opacity="1" d="M 8 21.332031 C 10.484375 20.917969 13 21.835938 14.640625 23.746094 L 16 25.332031 L 17.359375 23.746094 C 19 21.835938 21.515625 20.917969 24 21.332031 L 24 16 L 16 20 L 8 16 Z M 8 21.332031 "/>

</g>%n%n</svg>