<svg width="300" height="35" viewBox="0 0 300 35" fill="none" xmlns="http://www.w3.org/2000/svg" >

<g transform="translate(135.000000, 2.000000) scale(1.500000 1.500000) "> 

<g clip-path="url(#clip0)">
<path opacity="0.953" d="M9.99934 0C15.514 0 20 4.44646 20 10C20 15.5172 15.514 20 9.99934 20C4.48599 20 0 15.5172 0 10C0 4.44646 4.48599 0 9.99934 0V0Z" fill="#878787"/>
<path opacity="0.95" fill-rule="evenodd" clip-rule="evenodd" d="M10 19C14.9706 19 19 14.9706 19 10C19 5.02944 14.9706 1 10 1C5.02944 1 1 5.02944 1 10C1 14.9706 5.02944 19 10 19ZM10 20C15.5228 20 20 15.5228 20 10C20 4.47715 15.5228 0 10 0C4.47715 0 0 4.47715 0 10C0 15.5228 4.47715 20 10 20Z" fill="#404040"/>
</g>
<defs>
<clipPath id="clip0">
<path d="M0 0H20V20H0V0Z" fill="white"/>
</clipPath>
</defs>

</g>


<g transform="translate(141.000000, 8.000000) scale(0.031034 0.031034) "> 

<path d="M116.917 517.897C111.292 511.685 110.921 503.993 110.065 375.863C109.304 262.085 108.458 240.396 104.777 240.396C80.0024 239.841 84.3652 324.241 84.3652 375.913C75.7838 383.914 53.1816 386.859 44.8086 371.051C45.9889 306.896 42.1473 234.799 56.0941 200.575C71.6594 178.19 103.834 167.57 115.244 169.384C125.64 176.829 151.131 193.297 195.799 169.069C227.738 169.643 339.354 163.139 349.841 181.208C355.157 191.14 353.324 204.568 345.672 211.757C317.851 220.706 280.672 218.544 221.788 218.544V363.279C221.788 504.977 221.652 508.187 215.318 516.24C206.941 526.89 188.275 527.752 179.35 517.902C166.444 493.11 182.524 382.919 165.599 376.187C151.746 385.367 162.716 466.204 151.848 517.902C143.762 526.825 124.999 526.823 116.917 517.896V517.897ZM249.64 248.807C249.64 248.807 335.386 252.51 367.026 237.214C379.273 224.874 380.747 210.936 380.737 196.033C380.721 174.689 377 147.297 343.981 141.448C230.618 141.582 222.992 141.448 222.992 141.448C222.992 141.448 238.322 116.591 230.267 86.6554L227.913 78.8513H525.191V381.862H249.64V248.807Z" fill="#ffffff"/>
<path d="M153.271 156.318C181.191 156.318 203.824 133.684 203.824 105.765C203.824 77.8456 181.191 55.2124 153.271 55.2124C125.352 55.2124 102.719 77.8456 102.719 105.765C102.719 133.684 125.352 156.318 153.271 156.318Z" fill="#ffffff"/>
<path fill-rule="evenodd" clip100-rule="evenodd" d="M319.758 410.688L265.618 520.06H302.367L356.507 410.688H319.758ZM406.63 410.688L461.868 520.06H498.764L443.527 410.688H406.63Z" fill="#ffffff"/>

</g>

</svg>