<svg width="300" height="40" viewBox="0 0 300 40" fill="none" xmlns="http://www.w3.org/2000/svg" >

<g transform="translate(130.000000, 0.000000) scale(2.000000 2.000000) "> 

<g clip-path="url(#clip0)">
<path opacity="0.953" d="M9.99934 0C15.514 0 20 4.44646 20 10C20 15.5172 15.514 20 9.99934 20C4.48599 20 0 15.5172 0 10C0 4.44646 4.48599 0 9.99934 0V0Z" fill="#878787"/>
<path opacity="0.95" fill-rule="evenodd" clip-rule="evenodd" d="M10 19C14.9706 19 19 14.9706 19 10C19 5.02944 14.9706 1 10 1C5.02944 1 1 5.02944 1 10C1 14.9706 5.02944 19 10 19ZM10 20C15.5228 20 20 15.5228 20 10C20 4.47715 15.5228 0 10 0C4.47715 0 0 4.47715 0 10C0 15.5228 4.47715 20 10 20Z" fill="#404040"/>
</g>
<defs>
<clipPath id="clip0">
<path d="M0 0H20V20H0V0Z" fill="white"/>
</clipPath>
</defs>

</g>


<g transform="translate(138.000000, 8.000000) scale(0.500000 0.500000) "> 

<path d="M4 18L24 8L44 18L24 28L9 20.5V30.1707C10.1652 30.5825 11 31.6938 11 33C11 34.6569 9.65685 36 8 36C6.34315 36 5 34.6569 5 33C5 31.6938 5.83481 30.5825 7 30.1707V19.5L4 18Z" fill="#ffffff"/>
<path d="M12 32C15.7241 31.3793 19.5016 32.7518 21.9586 35.6184L24 38L26.0414 35.6184C28.4984 32.7518 32.2759 31.3793 36 32V24L24 30L12 24V32Z" fill="#ffffff"/>

</g>

</svg>