<svg width="300" height="40" viewBox="0 0 300 40" fill="none" xmlns="http://www.w3.org/2000/svg" xmlns:xlink="http://www.w3.org/1999/xlink">

<g transform="translate(130.000000, 0.000000) scale(2.000000 2.000000) "> 

<g clip-path="url(#clip0)">
<path opacity="0.953" d="M9.99934 0C15.514 0 20 4.44646 20 10C20 15.5172 15.514 20 9.99934 20C4.48599 20 0 15.5172 0 10C0 4.44646 4.48599 0 9.99934 0V0Z" fill="#878787"/>
<path opacity="0.95" fill-rule="evenodd" clip-rule="evenodd" d="M10 19C14.9706 19 19 14.9706 19 10C19 5.02944 14.9706 1 10 1C5.02944 1 1 5.02944 1 10C1 14.9706 5.02944 19 10 19ZM10 20C15.5228 20 20 15.5228 20 10C20 4.47715 15.5228 0 10 0C4.47715 0 0 4.47715 0 10C0 15.5228 4.47715 20 10 20Z" fill="#404040"/>
</g>
<defs>
<clipPath id="clip0">
<path d="M0 0H20V20H0V0Z" fill="white"/>
</clipPath>
</defs>

</g>%n%n
<g transform="translate(138.000000, 8.000000) scale(0.750000 0.750000) "> 

<path fill-rule="nonzero" fill="rgb(100%, 100%, 100%)" fill-opacity="1" d="M 21.332031 16 L 18.667969 14.667969 L 18.277344 14.277344 C 17.671875 13.671875 16.855469 13.332031 16 13.332031 C 15.144531 13.332031 14.328125 13.671875 13.722656 14.277344 L 13.332031 14.667969 L 10.667969 16 C 10.667969 13.054688 13.054688 10.667969 16 10.667969 C 18.945312 10.667969 21.332031 13.054688 21.332031 16 Z M 21.332031 16 "/>
<path fill-rule="nonzero" fill="rgb(100%, 100%, 100%)" fill-opacity="1" d="M 17.332031 17.332031 L 17.332031 21.164062 C 18.808594 20.785156 20.039062 19.789062 20.730469 18.464844 Z M 17.332031 17.332031 "/>
<path fill-rule="nonzero" fill="rgb(100%, 100%, 100%)" fill-opacity="1" d="M 14.667969 17.332031 L 14.667969 21.164062 C 13.191406 20.785156 11.960938 19.789062 11.269531 18.464844 Z M 14.667969 17.332031 "/>
<path fill-rule="evenodd" fill="rgb(100%, 100%, 100%)" fill-opacity="1" d="M 24 2.667969 C 25.472656 2.667969 26.667969 3.859375 26.667969 5.332031 L 26.667969 24 C 26.667969 25.472656 25.472656 26.667969 24 26.667969 L 9.332031 26.667969 C 8.597656 26.667969 8 27.261719 8 28 C 8 28.738281 8.597656 29.332031 9.332031 29.332031 L 25.332031 29.332031 C 26.070312 29.332031 26.667969 29.929688 26.667969 30.667969 C 26.667969 31.402344 26.070312 32 25.332031 32 L 10.667969 32 C 7.722656 32 5.332031 29.613281 5.332031 26.667969 L 5.332031 8 C 5.332031 5.054688 7.722656 2.667969 10.667969 2.667969 Z M 16 24 C 20.417969 24 24 20.417969 24 16 C 24 11.582031 20.417969 8 16 8 C 11.582031 8 8 11.582031 8 16 C 8 20.417969 11.582031 24 16 24 Z M 16 24 "/>

</g>%n%n</svg>