<svg width="300" height="40" viewBox="0 0 300 40" fill="none" xmlns="http://www.w3.org/2000/svg" xmlns:xlink="http://www.w3.org/1999/xlink">

<g transform="translate(130.000000, 0.000000) scale(2.000000 2.000000) "> 

<g clip-path="url(#clip0)">
<path opacity="0.953" d="M9.99934 0C15.514 0 20 4.44646 20 10C20 15.5172 15.514 20 9.99934 20C4.48599 20 0 15.5172 0 10C0 4.44646 4.48599 0 9.99934 0V0Z" fill="#878787"/>
<path opacity="0.95" fill-rule="evenodd" clip-rule="evenodd" d="M10 19C14.9706 19 19 14.9706 19 10C19 5.02944 14.9706 1 10 1C5.02944 1 1 5.02944 1 10C1 14.9706 5.02944 19 10 19ZM10 20C15.5228 20 20 15.5228 20 10C20 4.47715 15.5228 0 10 0C4.47715 0 0 4.47715 0 10C0 15.5228 4.47715 20 10 20Z" fill="#404040"/>
</g>
<defs>
<clipPath id="clip0">
<path d="M0 0H20V20H0V0Z" fill="white"/>
</clipPath>
</defs>

</g>%n%n
<g transform="translate(138.000000, 8.000000) scale(2.000000 2.000000) "> 

<path fill-rule="nonzero" fill="rgb(100%, 100%, 100%)" fill-opacity="1" d="M 1 4.5 L 6 2 L 11 4.5 L 6 7 L 2.25 5.125 L 2.25 7.542969 C 2.542969 7.644531 2.75 7.921875 2.75 8.25 C 2.75 8.664062 2.414062 9 2 9 C 1.585938 9 1.25 8.664062 1.25 8.25 C 1.25 7.921875 1.457031 7.644531 1.75 7.542969 L 1.75 4.875 Z M 1 4.5 "/>
<path fill-rule="nonzero" fill="rgb(100%, 100%, 100%)" fill-opacity="1" d="M 3 8 C 3.929688 7.84375 4.875 8.1875 5.488281 8.90625 L 6 9.5 L 6.511719 8.90625 C 7.125 8.1875 8.070312 7.84375 9 8 L 9 6 L 6 7.5 L 3 6 Z M 3 8 "/>

</g>%n%n</svg>