<svg width="300" height="40" viewBox="0 0 300 40" fill="none" xmlns="http://www.w3.org/2000/svg" xmlns:xlink="http://www.w3.org/1999/xlink">

<g transform="translate(130.000000, 0.000000) scale(2.000000 2.000000) "> 

<g clip-path="url(#clip0)">
<path opacity="0.953" d="M9.99934 0C15.514 0 20 4.44646 20 10C20 15.5172 15.514 20 9.99934 20C4.48599 20 0 15.5172 0 10C0 4.44646 4.48599 0 9.99934 0V0Z" fill="#878787"/>
<path opacity="0.95" fill-rule="evenodd" clip-rule="evenodd" d="M10 19C14.9706 19 19 14.9706 19 10C19 5.02944 14.9706 1 10 1C5.02944 1 1 5.02944 1 10C1 14.9706 5.02944 19 10 19ZM10 20C15.5228 20 20 15.5228 20 10C20 4.47715 15.5228 0 10 0C4.47715 0 0 4.47715 0 10C0 15.5228 4.47715 20 10 20Z" fill="#404040"/>
</g>
<defs>
<clipPath id="clip0">
<path d="M0 0H20V20H0V0Z" fill="white"/>
</clipPath>
</defs>

</g>%n%n
<g transform="translate(138.000000, 8.000000) scale(2.000000 2.000000) "> 

<defs>
<filter id="filter-remove-color" x="0%" y="0%" width="100%" height="100%">
<feColorMatrix color-interpolation-filters="sRGB" values="0 0 0 0 1 0 0 0 0 1 0 0 0 0 1 0 0 0 1 0" />
</filter>
<mask id="mask-0">
<g filter="url(#filter-remove-color)">
<rect x="-1.2" y="-1.2" width="14.4" height="14.4" fill="rgb(0%, 0%, 0%)" fill-opacity="0.5"/>
</g>
</mask>
<clip100Path id="clip100-0">
<rect x="0" y="0" width="12" height="12"/>
</clip100Path>
<g id="source-10" clip100-path="url(#clip100-0)">
<path fill-rule="nonzero" fill="rgb(100%, 100%, 100%)" fill-opacity="1" d="M 4.65625 1.023438 C 4.785156 1.066406 4.886719 1.15625 4.949219 1.277344 C 5.007812 1.394531 5.015625 1.53125 4.976562 1.65625 L 4.859375 2 L 3.808594 2 L 4.023438 1.34375 C 4.066406 1.214844 4.15625 1.113281 4.277344 1.050781 C 4.394531 0.992188 4.53125 0.984375 4.65625 1.023438 Z M 4.65625 1.023438 "/>
<path fill-rule="nonzero" fill="rgb(100%, 100%, 100%)" fill-opacity="1" d="M 1.515625 8.875 L 1.023438 10.34375 C 0.9375 10.605469 1.082031 10.886719 1.34375 10.976562 C 1.605469 11.0625 1.886719 10.917969 1.976562 10.65625 L 2.523438 9 L 2 9 C 1.824219 9 1.65625 8.953125 1.515625 8.875 Z M 1.515625 8.875 "/>
<path fill-rule="nonzero" fill="rgb(100%, 100%, 100%)" fill-opacity="1" d="M 9.476562 9 L 10.023438 10.65625 C 10.113281 10.917969 10.394531 11.0625 10.65625 10.976562 C 10.917969 10.886719 11.0625 10.605469 10.976562 10.34375 L 10.484375 8.875 C 10.34375 8.953125 10.175781 9 10 9 Z M 9.476562 9 "/>
<path fill-rule="nonzero" fill="rgb(100%, 100%, 100%)" fill-opacity="1" d="M 8.191406 2 L 7.976562 1.34375 C 7.886719 1.082031 7.605469 0.9375 7.34375 1.023438 C 7.082031 1.113281 6.9375 1.394531 7.023438 1.65625 L 7.140625 2 Z M 8.191406 2 "/>
</g>
</defs>
<path fill-rule="evenodd" fill="rgb(100%, 100%, 100%)" fill-opacity="1" d="M 2 2 C 1.449219 2 1 2.449219 1 3 L 1 8 C 1 8.550781 1.449219 9 2 9 L 10 9 C 10.550781 9 11 8.550781 11 8 L 11 3 C 11 2.449219 10.550781 2 10 2 Z M 6 6 L 6 8 L 5 8 L 5 3 L 6.5 3 C 7.328125 3 8 3.5 8 4.5 C 8 5.5 7.5 6 6 6 Z M 6 6 "/>
<g mask="url(#mask-0)">
<use xlink:href="#source-10"/>
</g>
<path fill-rule="nonzero" fill="rgb(100%, 100%, 100%)" fill-opacity="1" d="M 4.398438 6 L 4 4.667969 L 3.601562 6 Z M 4.398438 6 "/>
<path fill-rule="nonzero" fill="rgb(100%, 100%, 100%)" fill-opacity="1" d="M 6 5 L 6 4 L 6.5 4 C 6.777344 4 7 4.222656 7 4.5 C 7 4.777344 6.777344 5 6.5 5 Z M 6 5 "/>

</g>%n%n</svg>