<svg width="300" height="40" viewBox="0 0 300 40" fill="none" xmlns="http://www.w3.org/2000/svg" xmlns:xlink="http://www.w3.org/1999/xlink" version="1.1">

<g transform="translate(130.000000, 0.000000) scale(2.000000 2.000000) "> 

<g clip-path="url(#clip0)">
<path opacity="0.953" d="M9.99934 0C15.514 0 20 4.44646 20 10C20 15.5172 15.514 20 9.99934 20C4.48599 20 0 15.5172 0 10C0 4.44646 4.48599 0 9.99934 0V0Z" fill="#878787"/>
<path opacity="0.95" fill-rule="evenodd" clip-rule="evenodd" d="M10 19C14.9706 19 19 14.9706 19 10C19 5.02944 14.9706 1 10 1C5.02944 1 1 5.02944 1 10C1 14.9706 5.02944 19 10 19ZM10 20C15.5228 20 20 15.5228 20 10C20 4.47715 15.5228 0 10 0C4.47715 0 0 4.47715 0 10C0 15.5228 4.47715 20 10 20Z" fill="#404040"/>
</g>
<defs>
<clipPath id="clip0">
<path d="M0 0H20V20H0V0Z" fill="white"/>
</clipPath>
</defs>

</g>%n%n
<g transform="translate(138.000000, 8.000000) scale(2.000000 2.000000) "> 

<g id="surface1">
<path style=" stroke:none;fill-rule:nonzero;fill:rgb(100%,100%,100%);fill-opacity:1;" d="M 8 6 L 7 5.5 L 6.855469 5.355469 C 6.628906 5.128906 6.320312 5 6 5 C 5.679688 5 5.371094 5.128906 5.144531 5.355469 L 5 5.5 L 4 6 C 4 4.894531 4.894531 4 6 4 C 7.105469 4 8 4.894531 8 6 Z M 8 6 "/>
<path style=" stroke:none;fill-rule:nonzero;fill:rgb(100%,100%,100%);fill-opacity:1;" d="M 6.5 6.5 L 6.5 7.9375 C 7.054688 7.792969 7.515625 7.421875 7.773438 6.925781 Z M 6.5 6.5 "/>
<path style=" stroke:none;fill-rule:nonzero;fill:rgb(100%,100%,100%);fill-opacity:1;" d="M 5.5 6.5 L 5.5 7.9375 C 4.945312 7.792969 4.484375 7.421875 4.226562 6.925781 Z M 5.5 6.5 "/>
<path style=" stroke:none;fill-rule:evenodd;fill:rgb(100%,100%,100%);fill-opacity:1;" d="M 9 1 C 9.550781 1 10 1.449219 10 2 L 10 9 C 10 9.550781 9.550781 10 9 10 L 3.5 10 C 3.222656 10 3 10.222656 3 10.5 C 3 10.777344 3.222656 11 3.5 11 L 9.5 11 C 9.777344 11 10 11.222656 10 11.5 C 10 11.777344 9.777344 12 9.5 12 L 4 12 C 2.894531 12 2 11.105469 2 10 L 2 3 C 2 1.894531 2.894531 1 4 1 Z M 6 9 C 7.65625 9 9 7.65625 9 6 C 9 4.34375 7.65625 3 6 3 C 4.34375 3 3 4.34375 3 6 C 3 7.65625 4.34375 9 6 9 Z M 6 9 "/>
</g>

</g>%n%n</svg>