<svg width="300" height="35" viewBox="0 0 300 35" fill="none" xmlns="http://www.w3.org/2000/svg">

<g transform="translate(135.000000, 2.000000) scale(1.500000 1.500000) "> 

<g clip-path="url(#clip0)">
<path opacity="0.953" d="M9.99934 0C15.514 0 20 4.44646 20 10C20 15.5172 15.514 20 9.99934 20C4.48599 20 0 15.5172 0 10C0 4.44646 4.48599 0 9.99934 0V0Z" fill="#878787"/>
<path opacity="0.95" fill-rule="evenodd" clip-rule="evenodd" d="M10 19C14.9706 19 19 14.9706 19 10C19 5.02944 14.9706 1 10 1C5.02944 1 1 5.02944 1 10C1 14.9706 5.02944 19 10 19ZM10 20C15.5228 20 20 15.5228 20 10C20 4.47715 15.5228 0 10 0C4.47715 0 0 4.47715 0 10C0 15.5228 4.47715 20 10 20Z" fill="#404040"/>
</g>
<defs>
<clipPath id="clip0">
<path d="M0 0H20V20H0V0Z" fill="white"/>
</clipPath>
</defs>

</g>


<g transform="translate(141.000000, 8.000000) scale(0.375000 0.375000) "> 
<path d="M8 8a4 4 0 0 0-4 4v20a4 4 0 0 0 4 4h32a4 4 0 0 0 4-4V12a4 4 0 0 0-4-4zm16 16v8h-4V12h6c3.31 0 6 2 6 6s-2 6-8 6z" id="path18" style="clip100-rule:evenodd;fill:#fff;fill-opacity:1;fill-rule:evenodd"/><g opacity=".5" id="g10" style="fill:#fff;fill-opacity:1"><path d="M18.63 4.1a2 2 0 0 1 1.27 2.53L19.44 8h-4.21l.87-2.63a2 2 0 0 1 2.53-1.27z" fill="#fff" id="path2" style="fill:#fff;fill-opacity:1"/><path d="M6.06 35.5L4.1 41.37a2 2 0 1 0 3.8 1.26L10.1 36H8c-.7 0-1.37-.18-1.94-.5z" fill="#fff" id="path4" style="fill:#fff;fill-opacity:1"/><path d="M37.9 36l2.2 6.63a2 2 0 1 0 3.8-1.26l-1.96-5.87c-.57.32-1.24.5-1.94.5h-2.1z" fill="#fff" id="path6" style="fill:#fff;fill-opacity:1"/><path d="M32.77 8l-.87-2.63a2 2 0 1 0-3.8 1.26L28.56 8h4.21z" fill="#fff" id="path8" style="fill:#fff;fill-opacity:1"/></g><path d="M17.6 24L16 18.67 14.4 24h3.2z" fill="#fff" id="path12" style="fill:#fff;fill-opacity:1"/><path d="M24 20v-4h2a2 2 0 1 1 0 4z" id="path16" style="fill:#fff;fill-opacity:1"/>
</g>

</svg>