<svg width="300" height="40" viewBox="0 0 300 40" fill="none" xmlns="http://www.w3.org/2000/svg" >

<g transform="translate(130.000000, 0.000000) scale(2.000000 2.000000) "> 

<g clip-path="url(#clip0)">
<path opacity="0.953" d="M9.99934 0C15.514 0 20 4.44646 20 10C20 15.5172 15.514 20 9.99934 20C4.48599 20 0 15.5172 0 10C0 4.44646 4.48599 0 9.99934 0V0Z" fill="#878787"/>
<path opacity="0.95" fill-rule="evenodd" clip-rule="evenodd" d="M10 19C14.9706 19 19 14.9706 19 10C19 5.02944 14.9706 1 10 1C5.02944 1 1 5.02944 1 10C1 14.9706 5.02944 19 10 19ZM10 20C15.5228 20 20 15.5228 20 10C20 4.47715 15.5228 0 10 0C4.47715 0 0 4.47715 0 10C0 15.5228 4.47715 20 10 20Z" fill="#404040"/>
</g>
<defs>
<clipPath id="clip0">
<path d="M0 0H20V20H0V0Z" fill="white"/>
</clipPath>
</defs>

</g>


<g transform="translate(138.000000, 8.000000) scale(0.500000 0.500000) "> 

<rect opacity="0.4" x="12" y="20" width="24" height="4" fill="#ffffff"/>
<g opacity="0.5">
<path d="M28 12H24V20H28V12Z" fill="#ffffff"/>
<path d="M24 28H20V36H24V28Z" fill="#ffffff"/>
</g>
<path d="M20 12H16V20H20V12Z" fill="#ffffff"/>
<path d="M28 12H32V20H28V12Z" fill="#ffffff"/>
<path fill-rule="evenodd" clip100-rule="evenodd" d="M36 40H40V8C40 5.79086 38.2091 4 36 4H12C9.79086 4 8 5.79086 8 8V40H12C12 42.2091 13.7909 44 16 44C18.2091 44 20 42.2091 20 40H28C28 42.2091 29.7909 44 32 44C34.2091 44 36 42.2091 36 40ZM16 36V28H20V36H28V28H32V36H36V8H12V36H16ZM16 42C17.1046 42 18 41.1046 18 40C18 38.8954 17.1046 38 16 38C14.8954 38 14 38.8954 14 40C14 41.1046 14.8954 42 16 42ZM32 42C33.1046 42 34 41.1046 34 40C34 38.8954 33.1046 38 32 38C30.8954 38 30 38.8954 30 40C30 41.1046 30.8954 42 32 42Z" fill="#ffffff"/>

</g>

</svg>