<svg width="300" height="35" viewBox="0 0 300 35" fill="none" xmlns="http://www.w3.org/2000/svg" >

<g transform="translate(135.000000, 2.000000) scale(1.875000 1.875000) "> 

<path opacity="0.851" d="M8.14731 2.14807C7.688 2.14809 7.15947 2.32261 6.79653 2.68035C6.45278 3.01921 6.25421 3.56238 6.25421 4.01439C6.25421 4.47194 6.40153 5.02871 6.81327 5.44551C6.96011 5.59417 7.20198 5.5997 7.39409 5.69993C7.33245 5.74204 7.22595 5.83987 7.19491 5.85393C7.18986 5.85667 7.18484 5.85946 7.17984 5.8623C6.95767 5.96769 6.66826 6.03815 6.2676 6.06148C6.01071 6.07624 5.76918 6.18863 5.59244 6.37564C5.4157 6.56265 5.31711 6.81014 5.31687 7.06745V7.46917C5.31692 7.72459 5.41388 7.97047 5.58816 8.15718C5.76245 8.34389 6.00108 8.45752 6.25589 8.47514C6.33214 8.48044 6.29898 8.47719 6.36134 8.48518V9.39742V9.7188V10.0937C6.36139 10.1122 6.36195 10.1306 6.36301 10.149C6.37392 10.3452 6.36134 10.406 6.36134 10.6026C6.36134 10.7587 6.36723 10.8671 6.36301 10.9558C6.36058 11.0066 6.36355 10.9986 6.36301 11.0428L6.11194 11.0763C5.86973 11.1085 5.64748 11.2276 5.48647 11.4114C5.32546 11.5952 5.23664 11.8312 5.23653 12.0755V12.5308C5.23643 12.6634 5.26247 12.7947 5.31316 12.9172C5.36385 13.0397 5.43819 13.151 5.53193 13.2447C5.62568 13.3385 5.73698 13.4128 5.85948 13.4635C5.98198 13.5142 6.11327 13.5402 6.24585 13.5401C6.41093 13.5401 6.55411 13.5271 6.77812 13.51C6.9773 13.4949 7.16682 13.4866 7.37066 13.4866C8.15936 13.4866 8.79529 13.5149 9.27715 13.5385L9.26041 13.5368C9.48134 13.5511 9.66584 13.5401 9.64706 13.5401C9.65764 13.5401 9.80542 13.5448 9.97848 13.5384C10.2395 13.529 10.4867 13.4188 10.6681 13.2309C10.8495 13.043 10.9509 12.792 10.951 12.5308V12.1291C10.9509 11.9239 10.8882 11.7235 10.7713 11.5548C10.6543 11.3861 10.4887 11.2571 10.2965 11.1851C10.0829 11.1049 9.99883 11.1105 9.90985 11.1031L9.9584 8.47849C9.95902 8.47236 9.95959 8.46622 9.96011 8.46008C9.96011 7.5128 9.95131 6.73438 9.93166 6.12509C9.92682 5.97393 9.88805 5.82579 9.81821 5.69165C9.74838 5.5575 9.64927 5.44077 9.52822 5.3501C9.66826 5.20609 9.83495 5.10494 9.92157 4.91491C10.0683 4.59305 10.1207 4.28815 10.1208 3.98761C10.1207 3.5159 9.88766 2.99365 9.53324 2.66194C9.13895 2.29294 8.58946 2.14809 8.14731 2.14807Z" fill="#EBE7E4"/>

</g>


<g transform="translate(139.000000, 6.000000) scale(0.037931 0.037931) "> 

<path d="M257.727 123.376C257.727 112.515 261.246 103.615 268.286 96.675C275.326 89.7363 284.377 86.267 295.439 86.2667C307.306 86.267 317.162 89.9378 325.006 97.2788C332.851 104.621 336.772 112.917 336.773 122.169C336.772 129.008 335.214 135.846 332.096 142.685C328.979 149.524 324.051 155.005 317.313 159.128C310.575 163.251 303.686 165.313 296.646 165.313C286.992 165.313 278.091 161.19 269.946 152.943C261.799 144.697 257.727 134.841 257.727 123.376ZM215.488 483.308L214.885 463.697L248.977 459.171C254.006 457.763 257.475 455.702 259.386 452.986C261.297 450.271 262.252 444.186 262.252 434.733V431.415C262.252 429.001 262.403 424.626 262.705 418.291C263.006 411.955 263.157 406.373 263.157 401.546C263.157 397.725 262.855 390.383 262.252 379.522L262.554 364.437L262.252 350.256L262.856 301.079C262.855 294.844 262.252 288.408 261.045 281.77C258.833 278.753 254.81 276.139 248.977 273.926C243.144 271.714 232.987 270.104 218.505 269.099V252.203C239.222 250.997 257.425 246.672 273.113 239.23C283.774 234.403 295.339 225.855 307.809 213.585H328.023C328.828 238.526 329.23 270.909 329.23 310.734L327.118 433.828C327.118 442.276 327.52 449.919 328.325 456.758C334.56 458.97 344.717 461.183 358.797 463.395C364.228 464.2 368.552 465.205 371.77 466.412L371.469 483.005C366.038 483.207 362.015 483.308 359.4 483.308C356.383 483.308 351.757 483.106 345.522 482.704C325.006 481.698 297.551 481.196 263.157 481.196C253.302 481.196 243.748 481.548 234.495 482.252C225.243 482.956 218.907 483.308 215.488 483.308Z" fill="#593906"/>

</g>

</svg>