<svg width="300" height="40" viewBox="0 0 300 40" fill="none" xmlns="http://www.w3.org/2000/svg" xmlns:xlink="http://www.w3.org/1999/xlink">

<g transform="translate(130.000000, 0.000000) scale(2.000000 2.000000) "> 

<g clip-path="url(#clip0)">
<path opacity="0.958" d="M9.9994 1C14.9626 1 19 5.00182 19 10C19 14.9655 14.9626 19 9.9994 19C5.03739 19 1 14.9655 1 10C1 5.00182 5.03739 1 9.9994 1Z" fill="#BA9171"/>
<path opacity="0.95" fill-rule="evenodd" clip-rule="evenodd" d="M10 19C14.9706 19 19 14.9706 19 10C19 5.02944 14.9706 1 10 1C5.02944 1 1 5.02944 1 10C1 14.9706 5.02944 19 10 19ZM10 20C15.5228 20 20 15.5228 20 10C20 4.47715 15.5228 0 10 0C4.47715 0 0 4.47715 0 10C0 15.5228 4.47715 20 10 20Z" fill="#AF7A57"/>
</g>
<defs>
<clipPath id="clip0">
<path d="M0 0H20V20H0V0Z" fill="white"/>
</clipPath>
</defs>

</g>%n%n
<g transform="translate(138.000000, 8.000000) scale(0.750000 0.750000) "> 

<path fill-rule="nonzero" fill="rgb(100%, 100%, 100%)" fill-opacity="1" d="M 24.757812 24.253906 C 25.589844 23.84375 26.378906 22.839844 26.554688 21.976562 C 26.679688 21.347656 26.710938 21.328125 27.789062 21.328125 C 28.695312 21.328125 28.992188 21.238281 29.398438 20.828125 C 30.453125 19.777344 29.691406 18.0625 28.171875 18.0625 C 27.585938 18.0625 27.449219 17.984375 27.449219 17.652344 C 27.449219 17.246094 27.3125 17.246094 15.1875 17.363281 L 2.929688 17.363281 L 2.929688 21.328125 L 5.335938 21.328125 L 5.472656 22.054688 C 5.652344 23.023438 6.957031 24.328125 7.925781 24.507812 C 8.324219 24.582031 8.976562 24.582031 9.378906 24.507812 C 10.34375 24.328125 11.648438 23.023438 11.828125 22.054688 C 12.019531 21.050781 12.640625 21.050781 12.828125 22.054688 C 13.007812 23.023438 14.316406 24.328125 15.28125 24.507812 C 15.679688 24.582031 16.332031 24.582031 16.734375 24.507812 C 17.699219 24.328125 19.003906 23.023438 19.183594 22.054688 C 19.363281 21.097656 19.984375 21.046875 20.171875 21.976562 C 20.574219 23.984375 22.929688 25.15625 24.757812 24.253906 Z M 22.300781 23.238281 C 20.34375 22.082031 21.140625 19.089844 23.40625 19.089844 C 25.117188 19.089844 26.15625 20.875 25.351562 22.429688 C 24.816406 23.460938 23.339844 23.851562 22.300781 23.238281 Z M 14.972656 23.199219 C 13.050781 22.0625 13.835938 19.128906 16.058594 19.128906 C 17.738281 19.128906 18.757812 20.878906 17.964844 22.410156 C 17.445312 23.417969 15.992188 23.800781 14.972656 23.199219 Z M 7.625 23.1875 C 5.714844 22.058594 6.492188 19.136719 8.703125 19.136719 C 10.375 19.136719 11.386719 20.882812 10.601562 22.402344 C 10.082031 23.40625 8.640625 23.785156 7.625 23.1875 Z M 28.886719 15.558594 C 29.636719 13.898438 29.257812 11.835938 28.070312 11.160156 C 27.535156 10.855469 26.964844 10.691406 26.964844 9.9375 L 26.964844 9.070312 L 23.695312 9.070312 L 23.695312 10.703125 L 11.222656 10.703125 L 11.222656 16.425781 L 28.492188 16.425781 Z M 10.285156 11.929688 L 10.285156 7.433594 L 2.113281 7.433594 L 2.113281 9.257812 C 2.113281 9.785156 2.246094 10.164062 2.519531 10.414062 C 2.898438 10.753906 2.929688 12.210938 2.929688 13.085938 L 2.929688 16.425781 L 10.285156 16.425781 Z M 5.382812 10.703125 L 5.382812 9.070312 L 8.652344 9.070312 L 8.652344 12.339844 L 5.382812 12.339844 Z M 5.382812 10.703125 "/>

</g>%n%n</svg>