<svg width="300" height="40" viewBox="0 0 300 40" fill="none" xmlns="http://www.w3.org/2000/svg" xmlns:xlink="http://www.w3.org/1999/xlink">

<g transform="translate(130.000000, 0.000000) scale(2.500000 2.500000) "> 

<path opacity="0.851" d="M8.14731 2.14807C7.688 2.14809 7.15947 2.32261 6.79653 2.68035C6.45278 3.01921 6.25421 3.56238 6.25421 4.01439C6.25421 4.47194 6.40153 5.02871 6.81327 5.44551C6.96011 5.59417 7.20198 5.5997 7.39409 5.69993C7.33245 5.74204 7.22595 5.83987 7.19491 5.85393C7.18986 5.85667 7.18484 5.85946 7.17984 5.8623C6.95767 5.96769 6.66826 6.03815 6.2676 6.06148C6.01071 6.07624 5.76918 6.18863 5.59244 6.37564C5.4157 6.56265 5.31711 6.81014 5.31687 7.06745V7.46917C5.31692 7.72459 5.41388 7.97047 5.58816 8.15718C5.76245 8.34389 6.00108 8.45752 6.25589 8.47514C6.33214 8.48044 6.29898 8.47719 6.36134 8.48518V9.39742V9.7188V10.0937C6.36139 10.1122 6.36195 10.1306 6.36301 10.149C6.37392 10.3452 6.36134 10.406 6.36134 10.6026C6.36134 10.7587 6.36723 10.8671 6.36301 10.9558C6.36058 11.0066 6.36355 10.9986 6.36301 11.0428L6.11194 11.0763C5.86973 11.1085 5.64748 11.2276 5.48647 11.4114C5.32546 11.5952 5.23664 11.8312 5.23653 12.0755V12.5308C5.23643 12.6634 5.26247 12.7947 5.31316 12.9172C5.36385 13.0397 5.43819 13.151 5.53193 13.2447C5.62568 13.3385 5.73698 13.4128 5.85948 13.4635C5.98198 13.5142 6.11327 13.5402 6.24585 13.5401C6.41093 13.5401 6.55411 13.5271 6.77812 13.51C6.9773 13.4949 7.16682 13.4866 7.37066 13.4866C8.15936 13.4866 8.79529 13.5149 9.27715 13.5385L9.26041 13.5368C9.48134 13.5511 9.66584 13.5401 9.64706 13.5401C9.65764 13.5401 9.80542 13.5448 9.97848 13.5384C10.2395 13.529 10.4867 13.4188 10.6681 13.2309C10.8495 13.043 10.9509 12.792 10.951 12.5308V12.1291C10.9509 11.9239 10.8882 11.7235 10.7713 11.5548C10.6543 11.3861 10.4887 11.2571 10.2965 11.1851C10.0829 11.1049 9.99883 11.1105 9.90985 11.1031L9.9584 8.47849C9.95902 8.47236 9.95959 8.46622 9.96011 8.46008C9.96011 7.5128 9.95131 6.73438 9.93166 6.12509C9.92682 5.97393 9.88805 5.82579 9.81821 5.69165C9.74838 5.5575 9.64927 5.44077 9.52822 5.3501C9.66826 5.20609 9.83495 5.10494 9.92157 4.91491C10.0683 4.59305 10.1207 4.28815 10.1208 3.98761C10.1207 3.5159 9.88766 2.99365 9.53324 2.66194C9.13895 2.29294 8.58946 2.14809 8.14731 2.14807Z" fill="#EBE7E4"/>

</g>%n%n
<g transform="translate(139.000000, 9.000000) scale(0.687500 0.687500) "> 

<path fill-rule="nonzero" fill="rgb(34.901961%, 22.352941%, 2.352941%)" fill-opacity="1" d="M 14.21875 6.808594 C 14.21875 6.207031 14.414062 5.714844 14.800781 5.332031 C 15.191406 4.949219 15.691406 4.757812 16.300781 4.757812 C 16.953125 4.757812 17.5 4.960938 17.929688 5.367188 C 18.363281 5.773438 18.582031 6.230469 18.582031 6.742188 C 18.582031 7.117188 18.496094 7.496094 18.324219 7.871094 C 18.152344 8.25 17.878906 8.550781 17.507812 8.78125 C 17.136719 9.007812 16.753906 9.121094 16.367188 9.121094 C 15.835938 9.121094 15.34375 8.894531 14.894531 8.4375 C 14.445312 7.984375 14.21875 7.441406 14.21875 6.808594 Z M 11.890625 26.664062 L 11.855469 25.582031 L 13.738281 25.332031 C 14.015625 25.257812 14.207031 25.140625 14.3125 24.992188 C 14.417969 24.84375 14.46875 24.507812 14.46875 23.984375 L 14.46875 23.800781 C 14.46875 23.667969 14.476562 23.425781 14.492188 23.078125 C 14.511719 22.730469 14.519531 22.421875 14.519531 22.152344 C 14.519531 21.945312 14.503906 21.539062 14.46875 20.9375 L 14.484375 20.105469 L 14.46875 19.324219 L 14.503906 16.609375 C 14.503906 16.265625 14.46875 15.914062 14.402344 15.546875 C 14.28125 15.378906 14.058594 15.234375 13.738281 15.113281 C 13.414062 14.992188 12.855469 14.902344 12.054688 14.847656 L 12.054688 13.914062 C 13.199219 13.847656 14.203125 13.609375 15.066406 13.199219 C 15.65625 12.933594 16.292969 12.460938 16.984375 11.785156 L 18.097656 11.785156 C 18.140625 13.160156 18.164062 14.945312 18.164062 17.144531 L 18.046875 23.933594 C 18.046875 24.402344 18.070312 24.824219 18.113281 25.199219 C 18.457031 25.324219 19.019531 25.445312 19.796875 25.566406 C 20.09375 25.609375 20.332031 25.667969 20.511719 25.734375 L 20.496094 26.648438 C 20.195312 26.660156 19.972656 26.664062 19.828125 26.664062 C 19.664062 26.664062 19.40625 26.652344 19.0625 26.632812 C 17.929688 26.578125 16.417969 26.546875 14.519531 26.546875 C 13.976562 26.546875 13.449219 26.566406 12.9375 26.605469 C 12.425781 26.644531 12.078125 26.664062 11.890625 26.664062 Z M 11.890625 26.664062 "/>

</g>%n%n</svg>