<svg width="300" height="40" viewBox="0 0 300 40" fill="none" xmlns="http://www.w3.org/2000/svg" xmlns:xlink="http://www.w3.org/1999/xlink">

<g transform="translate(130.000000, 0.000000) scale(2.000000 2.000000) "> 

<g clip-path="url(#clip0)">
<path opacity="0.958" d="M9.9994 1C14.9626 1 19 5.00182 19 10C19 14.9655 14.9626 19 9.9994 19C5.03739 19 1 14.9655 1 10C1 5.00182 5.03739 1 9.9994 1Z" fill="#BA9171"/>
<path opacity="0.95" fill-rule="evenodd" clip-rule="evenodd" d="M10 19C14.9706 19 19 14.9706 19 10C19 5.02944 14.9706 1 10 1C5.02944 1 1 5.02944 1 10C1 14.9706 5.02944 19 10 19ZM10 20C15.5228 20 20 15.5228 20 10C20 4.47715 15.5228 0 10 0C4.47715 0 0 4.47715 0 10C0 15.5228 4.47715 20 10 20Z" fill="#AF7A57"/>
</g>
<defs>
<clipPath id="clip0">
<path d="M0 0H20V20H0V0Z" fill="white"/>
</clipPath>
</defs>

</g>%n%n
<g transform="translate(138.000000, 8.000000) scale(2.000000 2.000000) "> 

<path fill-rule="nonzero" fill="rgb(100%, 100%, 100%)" fill-opacity="1" d="M 1 1 L 1 6 L 11 6 L 11 1 Z M 6 2 C 6.828125 2 7.5 2.671875 7.5 3.5 C 7.5 4.328125 6.828125 5 6 5 C 5.171875 5 4.5 4.328125 4.5 3.5 C 4.5 2.671875 5.171875 2 6 2 Z M 3 2.5 C 3.550781 2.5 4 2.949219 4 3.5 C 4 4.050781 3.550781 4.5 3 4.5 C 2.449219 4.5 2 4.050781 2 3.5 C 2 2.949219 2.449219 2.5 3 2.5 Z M 9 2.5 C 9.550781 2.5 10 2.949219 10 3.5 C 10 4.050781 9.550781 4.5 9 4.5 C 8.449219 4.5 8 4.050781 8 3.5 C 8 2.949219 8.449219 2.5 9 2.5 Z M 9 2.5 "/>
<path fill-rule="evenodd" fill="rgb(100%, 100%, 100%)" fill-opacity="1" d="M 1 7 L 1 11 L 2 11 L 2 7 Z M 1 7 "/>
<path fill-rule="evenodd" fill="rgb(100%, 100%, 100%)" fill-opacity="1" d="M 10 7 L 10 11 L 11 11 L 11 7 Z M 10 7 "/>
<path fill-rule="evenodd" fill="rgb(100%, 100%, 100%)" fill-opacity="1" d="M 3 9 L 3 10 L 9 10 L 9 9 Z M 3 9 "/>

</g>%n%n</svg>