<svg width="300" height="35" viewBox="0 0 300 35" fill="none" xmlns="http://www.w3.org/2000/svg" >

<g transform="translate(135.000000, 2.000000) scale(1.500000 1.500000) "> 

<g clip-path="url(#clip0)">
<path opacity="0.958" d="M9.9994 1C14.9626 1 19 5.00182 19 10C19 14.9655 14.9626 19 9.9994 19C5.03739 19 1 14.9655 1 10C1 5.00182 5.03739 1 9.9994 1Z" fill="#BA9171"/>
<path opacity="0.95" fill-rule="evenodd" clip-rule="evenodd" d="M10 19C14.9706 19 19 14.9706 19 10C19 5.02944 14.9706 1 10 1C5.02944 1 1 5.02944 1 10C1 14.9706 5.02944 19 10 19ZM10 20C15.5228 20 20 15.5228 20 10C20 4.47715 15.5228 0 10 0C4.47715 0 0 4.47715 0 10C0 15.5228 4.47715 20 10 20Z" fill="#AF7A57"/>
</g>
<defs>
<clipPath id="clip0">
<path d="M0 0H20V20H0V0Z" fill="white"/>
</clipPath>
</defs>

</g>


<g transform="translate(141.000000, 8.000000) scale(0.375000 0.375000) "> 

<path fill-rule="evenodd" clip100-rule="evenodd" d="M10 4C8.89543 4 8 4.89543 8 6V42C8 43.1046 8.89543 44 10 44H38C39.1046 44 40 43.1046 40 42V6C40 4.89543 39.1046 4 38 4H10ZM12 8H36V14H12V8ZM12 20H36V24H12V20ZM36 28H12V32H36V28ZM12 36H36V40H12V36Z" fill="#ffffff"/>
<g opacity="0.5">
<path d="M36 8H12V14H36V8Z" fill="#ffffff"/>
<path d="M36 20H12V24H36V20Z" fill="#ffffff"/>
<path d="M12 28H36V32H12V28Z" fill="#ffffff"/>
<path d="M36 36H12V40H36V36Z" fill="#ffffff"/>
</g>

</g>

</svg>