<svg width="300" height="40" viewBox="0 0 300 40" fill="none" xmlns="http://www.w3.org/2000/svg" xmlns:xlink="http://www.w3.org/1999/xlink" version="1.1">

<g transform="translate(130.000000, 0.000000) scale(2.000000 2.000000) "> 

<g clip-path="url(#clip0)">
<path opacity="0.958" d="M9.9994 1C14.9626 1 19 5.00182 19 10C19 14.9655 14.9626 19 9.9994 19C5.03739 19 1 14.9655 1 10C1 5.00182 5.03739 1 9.9994 1Z" fill="#BA9171"/>
<path opacity="0.95" fill-rule="evenodd" clip-rule="evenodd" d="M10 19C14.9706 19 19 14.9706 19 10C19 5.02944 14.9706 1 10 1C5.02944 1 1 5.02944 1 10C1 14.9706 5.02944 19 10 19ZM10 20C15.5228 20 20 15.5228 20 10C20 4.47715 15.5228 0 10 0C4.47715 0 0 4.47715 0 10C0 15.5228 4.47715 20 10 20Z" fill="#AF7A57"/>
</g>
<defs>
<clipPath id="clip0">
<path d="M0 0H20V20H0V0Z" fill="white"/>
</clipPath>
</defs>

</g>%n%n
<g transform="translate(138.000000, 8.000000) scale(2.000000 2.000000) "> 

<g id="surface1">
<path style=" stroke:none;fill-rule:evenodd;fill:rgb(100%,100%,100%);fill-opacity:1;" d="M 3.21875 1.84375 C 2.761719 2.152344 2.636719 2.773438 2.945312 3.230469 L 2.972656 3.273438 C 3.324219 3.796875 3.753906 4.257812 4.25 4.644531 L 6 6 L 3.898438 5.300781 C 3.304688 5.101562 2.679688 5 2.050781 5 L 2 5 C 1.449219 5 1 5.449219 1 6 C 1 6.550781 1.449219 7 2 7 L 2.050781 7 C 2.679688 7 3.304688 6.898438 3.898438 6.699219 L 6 6 L 4.25 7.355469 C 3.753906 7.742188 3.324219 8.203125 2.972656 8.726562 L 2.945312 8.769531 C 2.636719 9.226562 2.761719 9.847656 3.21875 10.15625 C 3.679688 10.460938 4.300781 10.339844 4.605469 9.878906 L 4.636719 9.835938 C 4.984375 9.316406 5.246094 8.742188 5.414062 8.136719 L 6 6 L 6.585938 8.136719 C 6.753906 8.742188 7.015625 9.316406 7.363281 9.835938 L 7.394531 9.878906 C 7.699219 10.339844 8.320312 10.460938 8.78125 10.15625 C 9.238281 9.847656 9.363281 9.226562 9.054688 8.769531 L 9.027344 8.726562 C 8.675781 8.203125 8.246094 7.742188 7.75 7.355469 L 6 6 L 8.101562 6.699219 C 8.695312 6.898438 9.320312 7 9.949219 7 L 10 7 C 10.550781 7 11 6.550781 11 6 C 11 5.449219 10.550781 5 10 5 L 9.949219 5 C 9.320312 5 8.695312 5.101562 8.101562 5.300781 L 6 6 L 7.75 4.644531 C 8.246094 4.257812 8.675781 3.796875 9.027344 3.273438 L 9.054688 3.230469 C 9.363281 2.773438 9.238281 2.152344 8.78125 1.84375 C 8.320312 1.539062 7.699219 1.660156 7.394531 2.121094 L 7.363281 2.164062 C 7.015625 2.683594 6.753906 3.257812 6.585938 3.863281 L 6 6 L 5.414062 3.863281 C 5.246094 3.257812 4.984375 2.683594 4.636719 2.164062 L 4.605469 2.121094 C 4.300781 1.660156 3.679688 1.539062 3.21875 1.84375 Z M 6 6 Z M 6 6 "/>
</g>

</g>%n%n</svg>