<svg width="300" height="40" viewBox="0 0 300 40" fill="none" xmlns="http://www.w3.org/2000/svg" >

<g transform="translate(130.000000, 0.000000) scale(2.500000 2.500000) "> 

<path opacity="0.794" d="M12.0676 1.802C11.6063 1.80202 11.1094 1.97849 10.767 2.31587C10.425 2.65292 10.2398 3.15347 10.2398 3.61476C10.2398 4.10993 10.453 4.62383 10.8005 4.97558C11.0117 5.18932 11.3383 5.24712 11.6391 5.3455C11.4413 5.52051 11.248 5.67651 11.1436 5.72378C11.1386 5.72541 11.1336 5.72708 11.1286 5.7288C10.8529 5.85956 10.5106 5.94825 10.0824 5.97318C9.85837 5.98655 9.64786 6.08494 9.49388 6.24825C9.3399 6.41156 9.25406 6.62748 9.25388 6.85194V7.27542C9.25392 7.49852 9.3386 7.7133 9.49083 7.8764C9.64306 8.0395 9.85149 8.13877 10.0741 8.15418C10.2605 8.16713 10.2771 8.17666 10.367 8.19268L10.3519 9.3041C10.3517 9.3147 10.3517 9.3253 10.3519 9.3359L10.3603 9.67067L10.3519 10.0305C10.3516 10.0534 10.3522 10.0763 10.3536 10.0992C10.3686 10.3676 10.3754 10.559 10.3754 10.6047C10.3754 10.7056 10.3708 10.8325 10.3637 10.983C10.3584 11.0942 10.3573 11.1608 10.3553 11.2357L10.2163 11.2541V10.6482C10.2162 10.4147 10.1234 10.1909 9.95829 10.0258C9.79321 9.86071 9.56936 9.7679 9.3359 9.76775H8.4404V9.44135C8.44083 9.41735 8.44027 9.39334 8.43873 9.36938L8.37178 8.55088C8.36419 8.45694 8.34159 8.36482 8.30482 8.27804C8.13959 7.8885 7.80957 7.62448 7.42941 7.4428C7.54467 7.19732 7.7374 6.99084 7.7374 6.70464C7.7374 5.6544 6.86788 4.78476 5.81751 4.78476C4.76715 4.78476 3.89763 5.6544 3.89763 6.70464C3.89763 6.99029 4.09078 7.19601 4.20562 7.44113C3.82512 7.62227 3.49444 7.88848 3.32853 8.27972C3.29194 8.36597 3.26934 8.45751 3.26158 8.55088L3.19463 9.36938C3.19309 9.39334 3.19253 9.41735 3.19295 9.44135V9.76775H2.29746C2.064 9.76791 1.84015 9.86072 1.67507 10.0258C1.50999 10.1909 1.41718 10.4147 1.41702 10.6482V11.2692V11.5186V13.6711C1.41718 13.9046 1.50999 14.1284 1.67507 14.2935C1.84015 14.4586 2.064 14.5514 2.29746 14.5515H2.87158C3.10504 14.5514 3.32889 14.4586 3.49397 14.2935C3.65905 14.1284 3.75186 13.9046 3.75201 13.6711V12.399H7.88135V13.6711C7.8815 13.9046 7.97431 14.1284 8.13939 14.2935C8.30447 14.4586 8.52832 14.5514 8.76178 14.5515H9.3359C9.56936 14.5514 9.79321 14.4586 9.95829 14.2935C10.1234 14.1284 10.2162 13.9046 10.2163 13.6711V13.5305C10.3295 13.5261 10.4327 13.5234 10.603 13.5104C10.8127 13.4945 11.0296 13.4853 11.2558 13.4853C12.1112 13.4853 12.7906 13.4997 13.2828 13.5238L13.2694 13.5221C13.4354 13.5328 13.5602 13.5388 13.6745 13.5388C13.7698 13.5388 13.8709 13.5356 14.0092 13.5304C14.234 13.5222 14.4471 13.4284 14.6049 13.2681C14.7626 13.1078 14.8532 12.8933 14.8579 12.6684L14.8663 12.2516C14.8702 12.0692 14.8174 11.8901 14.7151 11.739C14.6129 11.5879 14.4663 11.4722 14.2955 11.408C14.1215 11.3428 13.9658 11.3128 13.7967 11.2875L13.7883 11.2858C13.7659 11.2823 13.7678 11.281 13.7464 11.2774L13.7966 8.33648C13.7967 8.33146 13.7967 8.32644 13.7966 8.32142C13.7966 7.31489 13.7872 6.4945 13.7665 5.85252C13.7612 5.68708 13.7094 5.52647 13.6171 5.38911C13.5247 5.25175 13.3955 5.14319 13.2443 5.07586C13.4581 4.90061 13.6752 4.71512 13.79 4.46339C13.9147 4.18975 13.9858 3.88743 13.9858 3.58296C13.9858 3.10433 13.7452 2.62644 13.4133 2.31587C13.0537 1.97931 12.5464 1.80202 12.0676 1.802ZM4.84502 9.86818L4.92369 9.94685L4.84502 10.0238L4.76635 9.94685L4.84502 9.86818ZM6.78833 9.86989L6.86533 9.94689L6.78833 10.0239L6.71134 9.94689L6.78833 9.86989Z" fill="#EBE7E4"/>

</g>


<g transform="translate(139.000000, 9.000000) scale(0.037931 0.037931) "> 

<path d="M420.988 104.31C420.988 92.7675 424.729 83.3084 432.211 75.9329C439.693 68.5584 449.312 64.871 461.069 64.8706C473.681 64.871 484.156 68.7723 492.493 76.5743C500.83 84.3771 504.998 93.195 504.998 103.028C504.998 110.296 503.341 117.564 500.028 124.832C496.715 132.1 491.477 137.926 484.316 142.307C477.155 146.69 469.834 148.881 462.352 148.881C452.091 148.881 442.632 144.499 433.974 135.734C425.317 126.97 420.988 116.496 420.988 104.31ZM376.097 486.845L375.456 466.003L411.689 461.193C417.033 459.697 420.721 457.506 422.752 454.62C424.782 451.734 425.798 445.268 425.798 435.221V431.693C425.798 429.128 425.958 424.479 426.279 417.745C426.599 411.012 426.76 405.08 426.76 399.949C426.76 395.888 426.439 388.085 425.798 376.542L426.118 360.509L425.798 345.439L426.439 293.173C426.439 286.546 425.798 279.706 424.515 272.651C422.164 269.445 417.888 266.666 411.689 264.315C405.49 261.963 394.695 260.253 379.304 259.184V241.228C401.322 239.945 420.667 235.349 437.341 227.44C448.671 222.31 460.962 213.225 474.216 200.185H495.699C496.554 226.692 496.982 261.108 496.982 303.434L494.738 434.259C494.737 443.237 495.165 451.36 496.02 458.628C502.647 460.98 513.442 463.331 528.406 465.682C534.177 466.537 538.773 467.606 542.194 468.889L541.873 486.524C536.101 486.738 531.826 486.845 529.047 486.845C525.84 486.845 520.924 486.631 514.297 486.204C492.493 485.135 463.314 484.601 426.76 484.601C416.285 484.601 406.131 484.975 396.298 485.723C386.465 486.471 379.731 486.845 376.097 486.845Z" fill="#593906"/>
<path d="M158.953 294.232C144.089 294.232 131.334 303.262 125.875 316.138L123.04 350.755V388.745C123.04 393.366 123.92 397.778 125.51 401.836H47.9404V428.096V438.601V529.641H72.2298V438.601H321.284V529.641H345.569V438.601H345.571V401.836H268.002C269.592 397.778 270.472 393.366 270.472 388.745V350.757L267.637 316.136C262.177 303.264 249.423 294.232 234.559 294.232H158.953H158.953ZM151.392 342.434H159.898V401.836H151.392V342.434ZM233.613 342.434H242.12V401.836H233.613V342.434Z" fill="#593906"/>
<path d="M196.757 191.068C172.485 191.068 152.809 210.742 152.809 235.014C152.809 259.285 172.485 278.96 196.757 278.96C221.028 278.96 240.703 259.285 240.703 235.014C240.703 210.742 221.028 191.068 196.757 191.068Z" fill="#593906"/>

</g>

</svg>