<svg width="300" height="35" viewBox="0 0 300 35" fill="none" xmlns="http://www.w3.org/2000/svg">

<g transform="translate(135.000000, 2.000000) scale(1.500000 1.500000) "> 

<g clip-path="url(#clip0)">
<path opacity="0.953" d="M9.99934 0C15.514 0 20 4.44646 20 10C20 15.5172 15.514 20 9.99934 20C4.48599 20 0 15.5172 0 10C0 4.44646 4.48599 0 9.99934 0V0Z" fill="#CECECE"/>
<path opacity="0.95" fill-rule="evenodd" clip-rule="evenodd" d="M10 19C14.9706 19 19 14.9706 19 10C19 5.02944 14.9706 1 10 1C5.02944 1 1 5.02944 1 10C1 14.9706 5.02944 19 10 19ZM10 20C15.5228 20 20 15.5228 20 10C20 4.47715 15.5228 0 10 0C4.47715 0 0 4.47715 0 10C0 15.5228 4.47715 20 10 20Z" fill="#E8E8E8"/>
</g>
<defs>
<clipPath id="clip0">
<path d="M0 0H20V20H0V0Z" fill="white"/>
</clipPath>
</defs>

</g>


<g transform="translate(141.000000, 8.000000) scale(0.031034 0.031034) "> 

<path d="M244.594 189.484C242.283 197.354 232.354 195.825 226.062 195.266C186.231 195.777 146.35 195.337 106.5 195.484C106.5 221.151 106.5 246.818 106.5 272.484C150.795 272.61 195.147 272.234 239.406 272.672C247.458 276.361 243.945 286.341 244.562 293.172C244.635 375.783 244.573 458.402 244.594 541.016C273.333 541.016 302.073 541.016 330.812 541.016C330.938 453.241 330.562 365.41 331 277.672C334.689 269.62 344.669 273.133 351.5 272.516C392.163 272.443 432.834 272.505 473.5 272.484C473.5 246.818 473.5 221.151 473.5 195.484C427.674 195.359 381.791 195.735 336 195.297C327.948 191.608 331.461 181.628 330.844 174.797C330.771 129.529 330.833 84.2547 330.812 38.9844C302.073 38.9844 273.333 38.9844 244.594 38.9844C244.594 89.151 244.594 139.318 244.594 189.484V189.484Z" fill="#333333" stroke="#333333" stroke-width="20" stroke-linecap="round" stroke-linejoin="round"/>

</g>

</svg>