<svg width="300" height="40" viewBox="0 0 300 40" fill="none" xmlns="http://www.w3.org/2000/svg" xmlns:xlink="http://www.w3.org/1999/xlink">

<g transform="translate(130.000000, 0.000000) scale(2.500000 2.500000) "> 

<path opacity="0.794" d="M12.0676 1.802C11.6063 1.80202 11.1094 1.97849 10.767 2.31587C10.425 2.65292 10.2398 3.15347 10.2398 3.61476C10.2398 4.10993 10.453 4.62383 10.8005 4.97558C11.0117 5.18932 11.3383 5.24712 11.6391 5.3455C11.4413 5.52051 11.248 5.67651 11.1436 5.72378C11.1386 5.72541 11.1336 5.72708 11.1286 5.7288C10.8529 5.85956 10.5106 5.94825 10.0824 5.97318C9.85837 5.98655 9.64786 6.08494 9.49388 6.24825C9.3399 6.41156 9.25406 6.62748 9.25388 6.85194V7.27542C9.25392 7.49852 9.3386 7.7133 9.49083 7.8764C9.64306 8.0395 9.85149 8.13877 10.0741 8.15418C10.2605 8.16713 10.2771 8.17666 10.367 8.19268L10.3519 9.3041C10.3517 9.3147 10.3517 9.3253 10.3519 9.3359L10.3603 9.67067L10.3519 10.0305C10.3516 10.0534 10.3522 10.0763 10.3536 10.0992C10.3686 10.3676 10.3754 10.559 10.3754 10.6047C10.3754 10.7056 10.3708 10.8325 10.3637 10.983C10.3584 11.0942 10.3573 11.1608 10.3553 11.2357L10.2163 11.2541V10.6482C10.2162 10.4147 10.1234 10.1909 9.95829 10.0258C9.79321 9.86071 9.56936 9.7679 9.3359 9.76775H8.4404V9.44135C8.44083 9.41735 8.44027 9.39334 8.43873 9.36938L8.37178 8.55088C8.36419 8.45694 8.34159 8.36482 8.30482 8.27804C8.13959 7.8885 7.80957 7.62448 7.42941 7.4428C7.54467 7.19732 7.7374 6.99084 7.7374 6.70464C7.7374 5.6544 6.86788 4.78476 5.81751 4.78476C4.76715 4.78476 3.89763 5.6544 3.89763 6.70464C3.89763 6.99029 4.09078 7.19601 4.20562 7.44113C3.82512 7.62227 3.49444 7.88848 3.32853 8.27972C3.29194 8.36597 3.26934 8.45751 3.26158 8.55088L3.19463 9.36938C3.19309 9.39334 3.19253 9.41735 3.19295 9.44135V9.76775H2.29746C2.064 9.76791 1.84015 9.86072 1.67507 10.0258C1.50999 10.1909 1.41718 10.4147 1.41702 10.6482V11.2692V11.5186V13.6711C1.41718 13.9046 1.50999 14.1284 1.67507 14.2935C1.84015 14.4586 2.064 14.5514 2.29746 14.5515H2.87158C3.10504 14.5514 3.32889 14.4586 3.49397 14.2935C3.65905 14.1284 3.75186 13.9046 3.75201 13.6711V12.399H7.88135V13.6711C7.8815 13.9046 7.97431 14.1284 8.13939 14.2935C8.30447 14.4586 8.52832 14.5514 8.76178 14.5515H9.3359C9.56936 14.5514 9.79321 14.4586 9.95829 14.2935C10.1234 14.1284 10.2162 13.9046 10.2163 13.6711V13.5305C10.3295 13.5261 10.4327 13.5234 10.603 13.5104C10.8127 13.4945 11.0296 13.4853 11.2558 13.4853C12.1112 13.4853 12.7906 13.4997 13.2828 13.5238L13.2694 13.5221C13.4354 13.5328 13.5602 13.5388 13.6745 13.5388C13.7698 13.5388 13.8709 13.5356 14.0092 13.5304C14.234 13.5222 14.4471 13.4284 14.6049 13.2681C14.7626 13.1078 14.8532 12.8933 14.8579 12.6684L14.8663 12.2516C14.8702 12.0692 14.8174 11.8901 14.7151 11.739C14.6129 11.5879 14.4663 11.4722 14.2955 11.408C14.1215 11.3428 13.9658 11.3128 13.7967 11.2875L13.7883 11.2858C13.7659 11.2823 13.7678 11.281 13.7464 11.2774L13.7966 8.33648C13.7967 8.33146 13.7967 8.32644 13.7966 8.32142C13.7966 7.31489 13.7872 6.4945 13.7665 5.85252C13.7612 5.68708 13.7094 5.52647 13.6171 5.38911C13.5247 5.25175 13.3955 5.14319 13.2443 5.07586C13.4581 4.90061 13.6752 4.71512 13.79 4.46339C13.9147 4.18975 13.9858 3.88743 13.9858 3.58296C13.9858 3.10433 13.7452 2.62644 13.4133 2.31587C13.0537 1.97931 12.5464 1.80202 12.0676 1.802ZM4.84502 9.86818L4.92369 9.94685L4.84502 10.0238L4.76635 9.94685L4.84502 9.86818ZM6.78833 9.86989L6.86533 9.94689L6.78833 10.0239L6.71134 9.94689L6.78833 9.86989Z" fill="#EBE7E4"/>

</g>%n%n
<g transform="translate(139.000000, 9.000000) scale(0.687500 0.687500) "> 

<path fill-rule="nonzero" fill="rgb(34.901961%, 22.352941%, 2.352941%)" fill-opacity="1" d="M 23.226562 5.753906 C 23.226562 5.117188 23.433594 4.597656 23.847656 4.1875 C 24.257812 3.78125 24.789062 3.578125 25.4375 3.578125 C 26.132812 3.578125 26.710938 3.792969 27.171875 4.226562 C 27.632812 4.65625 27.863281 5.140625 27.863281 5.683594 C 27.863281 6.085938 27.769531 6.484375 27.585938 6.886719 C 27.40625 7.289062 27.117188 7.609375 26.722656 7.851562 C 26.324219 8.09375 25.921875 8.214844 25.507812 8.214844 C 24.941406 8.214844 24.421875 7.972656 23.945312 7.488281 C 23.464844 7.003906 23.226562 6.425781 23.226562 5.753906 Z M 20.75 26.859375 L 20.714844 25.710938 L 22.714844 25.445312 C 23.007812 25.363281 23.210938 25.242188 23.324219 25.082031 C 23.4375 24.921875 23.492188 24.566406 23.492188 24.011719 L 23.492188 23.816406 C 23.492188 23.675781 23.5 23.417969 23.519531 23.046875 C 23.535156 22.675781 23.546875 22.347656 23.546875 22.066406 C 23.546875 21.84375 23.527344 21.410156 23.492188 20.773438 L 23.511719 19.890625 L 23.492188 19.058594 L 23.527344 16.175781 C 23.527344 15.808594 23.492188 15.433594 23.421875 15.042969 C 23.292969 14.867188 23.054688 14.710938 22.714844 14.582031 C 22.371094 14.453125 21.777344 14.359375 20.925781 14.300781 L 20.925781 13.308594 C 22.140625 13.238281 23.210938 12.984375 24.128906 12.546875 C 24.753906 12.265625 25.433594 11.765625 26.164062 11.042969 L 27.347656 11.042969 C 27.394531 12.507812 27.417969 14.40625 27.417969 16.742188 L 27.296875 23.960938 C 27.296875 24.453125 27.320312 24.902344 27.367188 25.304688 C 27.730469 25.433594 28.328125 25.5625 29.152344 25.691406 C 29.472656 25.738281 29.726562 25.800781 29.914062 25.871094 L 29.894531 26.84375 C 29.578125 26.855469 29.34375 26.859375 29.1875 26.859375 C 29.011719 26.859375 28.742188 26.847656 28.375 26.824219 C 27.171875 26.765625 25.5625 26.738281 23.546875 26.738281 C 22.96875 26.738281 22.40625 26.757812 21.863281 26.796875 C 21.320312 26.839844 20.949219 26.859375 20.75 26.859375 Z M 20.75 26.859375 "/>
<path fill-rule="nonzero" fill="rgb(34.901961%, 22.352941%, 2.352941%)" fill-opacity="1" d="M 8.769531 16.234375 C 7.949219 16.234375 7.246094 16.730469 6.945312 17.441406 L 6.789062 19.351562 L 6.789062 21.449219 C 6.789062 21.703125 6.835938 21.945312 6.925781 22.171875 L 2.644531 22.171875 L 2.644531 29.222656 L 3.984375 29.222656 L 3.984375 24.199219 L 17.726562 24.199219 L 17.726562 29.222656 L 19.066406 29.222656 L 19.066406 22.171875 L 14.785156 22.171875 C 14.875 21.945312 14.921875 21.703125 14.921875 21.449219 L 14.921875 19.351562 L 14.765625 17.441406 C 14.464844 16.730469 13.761719 16.234375 12.941406 16.234375 Z M 8.351562 18.894531 L 8.820312 18.894531 L 8.820312 22.171875 L 8.351562 22.171875 Z M 12.890625 18.894531 L 13.359375 18.894531 L 13.359375 22.171875 L 12.890625 22.171875 Z M 12.890625 18.894531 "/>
<path fill-rule="nonzero" fill="rgb(34.901961%, 22.352941%, 2.352941%)" fill-opacity="1" d="M 10.855469 10.542969 C 9.515625 10.542969 8.429688 11.628906 8.429688 12.964844 C 8.429688 14.304688 9.515625 15.390625 10.855469 15.390625 C 12.195312 15.390625 13.28125 14.304688 13.28125 12.964844 C 13.28125 11.628906 12.195312 10.542969 10.855469 10.542969 Z M 10.855469 10.542969 "/>

</g>%n%n</svg>