<svg width="300" height="35" viewBox="0 0 300 35" fill="none" xmlns="http://www.w3.org/2000/svg" >

<g transform="translate(135.000000, 2.000000) scale(1.500000 1.500000) "> 

<g clip-path="url(#clip0)">
<path opacity="0.953" d="M9.9994 1C14.9626 1 19 5.00182 19 10C19 14.9655 14.9626 19 9.9994 19C5.03739 19 1 14.9655 1 10C1 5.00182 5.03739 1 9.9994 1Z" fill="#673A1C"/>
<path opacity="0.95" fill-rule="evenodd" clip-rule="evenodd" d="M10 19C14.9706 19 19 14.9706 19 10C19 5.02944 14.9706 1 10 1C5.02944 1 1 5.02944 1 10C1 14.9706 5.02944 19 10 19ZM10 20C15.5228 20 20 15.5228 20 10C20 4.47715 15.5228 0 10 0C4.47715 0 0 4.47715 0 10C0 15.5228 4.47715 20 10 20Z" fill="#9F5A2B"/>
</g>
<defs>
<clipPath id="clip0">
<path d="M0 0H20V20H0V0Z" fill="white"/>
</clipPath>
</defs>

</g>


<g transform="translate(141.000000, 8.000000) scale(0.375000 0.375000) "> 

<path fill-rule="evenodd" clip100-rule="evenodd" d="M27.8189 13.9919L24.3373 13.6754L25.3164 19.0599L25.6275 18.8377L35.0292 32.0001H40V36.0001H44V40.0001H4V36.0001H8L7.99991 12.1901L5.81892 11.9919L6.18106 8.0083L28.1811 10.0083L27.8189 13.9919ZM12 32.0001H16V12.9174L11.9999 12.5538L12 32.0001ZM20 32.0001H23.6036L20.2034 13.2996L20 13.2811V32.0001ZM27.6692 32.0001H30.1136L26.8345 27.4093L27.6692 32.0001Z" fill="#ffffff"/>

</g>

</svg>