<svg width="300" height="40" viewBox="0 0 300 40" fill="none" xmlns="http://www.w3.org/2000/svg" xmlns:xlink="http://www.w3.org/1999/xlink" version="1.1">

<g transform="translate(130.000000, 0.000000) scale(2.500000 2.500000) "> 

<path opacity="0.794" d="M12.0676 1.802C11.6063 1.80202 11.1094 1.97849 10.767 2.31587C10.425 2.65292 10.2398 3.15347 10.2398 3.61476C10.2398 4.10993 10.453 4.62383 10.8005 4.97558C11.0117 5.18932 11.3383 5.24712 11.6391 5.3455C11.4413 5.52051 11.248 5.67651 11.1436 5.72378C11.1386 5.72541 11.1336 5.72708 11.1286 5.7288C10.8529 5.85956 10.5106 5.94825 10.0824 5.97318C9.85837 5.98655 9.64786 6.08494 9.49388 6.24825C9.3399 6.41156 9.25406 6.62748 9.25388 6.85194V7.27542C9.25392 7.49852 9.3386 7.7133 9.49083 7.8764C9.64306 8.0395 9.85149 8.13877 10.0741 8.15418C10.2605 8.16713 10.2771 8.17666 10.367 8.19268L10.3519 9.3041C10.3517 9.3147 10.3517 9.3253 10.3519 9.3359L10.3603 9.67067L10.3519 10.0305C10.3516 10.0534 10.3522 10.0763 10.3536 10.0992C10.3686 10.3676 10.3754 10.559 10.3754 10.6047C10.3754 10.7056 10.3708 10.8325 10.3637 10.983C10.3584 11.0942 10.3573 11.1608 10.3553 11.2357L10.2163 11.2541V10.6482C10.2162 10.4147 10.1234 10.1909 9.95829 10.0258C9.79321 9.86071 9.56936 9.7679 9.3359 9.76775H8.4404V9.44135C8.44083 9.41735 8.44027 9.39334 8.43873 9.36938L8.37178 8.55088C8.36419 8.45694 8.34159 8.36482 8.30482 8.27804C8.13959 7.8885 7.80957 7.62448 7.42941 7.4428C7.54467 7.19732 7.7374 6.99084 7.7374 6.70464C7.7374 5.6544 6.86788 4.78476 5.81751 4.78476C4.76715 4.78476 3.89763 5.6544 3.89763 6.70464C3.89763 6.99029 4.09078 7.19601 4.20562 7.44113C3.82512 7.62227 3.49444 7.88848 3.32853 8.27972C3.29194 8.36597 3.26934 8.45751 3.26158 8.55088L3.19463 9.36938C3.19309 9.39334 3.19253 9.41735 3.19295 9.44135V9.76775H2.29746C2.064 9.76791 1.84015 9.86072 1.67507 10.0258C1.50999 10.1909 1.41718 10.4147 1.41702 10.6482V11.2692V11.5186V13.6711C1.41718 13.9046 1.50999 14.1284 1.67507 14.2935C1.84015 14.4586 2.064 14.5514 2.29746 14.5515H2.87158C3.10504 14.5514 3.32889 14.4586 3.49397 14.2935C3.65905 14.1284 3.75186 13.9046 3.75201 13.6711V12.399H7.88135V13.6711C7.8815 13.9046 7.97431 14.1284 8.13939 14.2935C8.30447 14.4586 8.52832 14.5514 8.76178 14.5515H9.3359C9.56936 14.5514 9.79321 14.4586 9.95829 14.2935C10.1234 14.1284 10.2162 13.9046 10.2163 13.6711V13.5305C10.3295 13.5261 10.4327 13.5234 10.603 13.5104C10.8127 13.4945 11.0296 13.4853 11.2558 13.4853C12.1112 13.4853 12.7906 13.4997 13.2828 13.5238L13.2694 13.5221C13.4354 13.5328 13.5602 13.5388 13.6745 13.5388C13.7698 13.5388 13.8709 13.5356 14.0092 13.5304C14.234 13.5222 14.4471 13.4284 14.6049 13.2681C14.7626 13.1078 14.8532 12.8933 14.8579 12.6684L14.8663 12.2516C14.8702 12.0692 14.8174 11.8901 14.7151 11.739C14.6129 11.5879 14.4663 11.4722 14.2955 11.408C14.1215 11.3428 13.9658 11.3128 13.7967 11.2875L13.7883 11.2858C13.7659 11.2823 13.7678 11.281 13.7464 11.2774L13.7966 8.33648C13.7967 8.33146 13.7967 8.32644 13.7966 8.32142C13.7966 7.31489 13.7872 6.4945 13.7665 5.85252C13.7612 5.68708 13.7094 5.52647 13.6171 5.38911C13.5247 5.25175 13.3955 5.14319 13.2443 5.07586C13.4581 4.90061 13.6752 4.71512 13.79 4.46339C13.9147 4.18975 13.9858 3.88743 13.9858 3.58296C13.9858 3.10433 13.7452 2.62644 13.4133 2.31587C13.0537 1.97931 12.5464 1.80202 12.0676 1.802ZM4.84502 9.86818L4.92369 9.94685L4.84502 10.0238L4.76635 9.94685L4.84502 9.86818ZM6.78833 9.86989L6.86533 9.94689L6.78833 10.0239L6.71134 9.94689L6.78833 9.86989Z" fill="#EBE7E4"/>

</g>%n%n
<g transform="translate(139.000000, 9.000000) scale(1.833333 1.833333) "> 

<g id="surface1">
<path style=" stroke:none;fill-rule:nonzero;fill:rgb(34.901962%,22.352941%,2.352941%);fill-opacity:1;" d="M 8.710938 2.15625 C 8.710938 1.917969 8.789062 1.722656 8.941406 1.570312 C 9.097656 1.417969 9.296875 1.34375 9.539062 1.34375 C 9.800781 1.34375 10.015625 1.421875 10.191406 1.585938 C 10.363281 1.746094 10.449219 1.929688 10.449219 2.132812 C 10.449219 2.28125 10.414062 2.433594 10.34375 2.582031 C 10.277344 2.734375 10.167969 2.855469 10.019531 2.945312 C 9.871094 3.035156 9.722656 3.082031 9.566406 3.082031 C 9.355469 3.082031 9.15625 2.988281 8.980469 2.808594 C 8.800781 2.628906 8.710938 2.410156 8.710938 2.15625 Z M 7.78125 10.074219 L 7.769531 9.640625 L 8.519531 9.542969 C 8.628906 9.511719 8.703125 9.464844 8.746094 9.40625 C 8.789062 9.347656 8.808594 9.210938 8.808594 9.003906 L 8.808594 8.929688 C 8.808594 8.878906 8.8125 8.78125 8.820312 8.644531 C 8.828125 8.503906 8.828125 8.382812 8.828125 8.273438 C 8.828125 8.191406 8.824219 8.03125 8.808594 7.789062 L 8.816406 7.457031 L 8.808594 7.148438 L 8.824219 6.066406 C 8.824219 5.929688 8.808594 5.785156 8.78125 5.640625 C 8.734375 5.574219 8.644531 5.515625 8.519531 5.46875 C 8.390625 5.421875 8.167969 5.382812 7.847656 5.363281 L 7.847656 4.992188 C 8.304688 4.964844 8.703125 4.871094 9.046875 4.707031 C 9.28125 4.597656 9.539062 4.410156 9.8125 4.140625 L 10.253906 4.140625 C 10.273438 4.691406 10.28125 5.402344 10.28125 6.277344 L 10.234375 8.984375 C 10.234375 9.171875 10.246094 9.339844 10.261719 9.488281 C 10.398438 9.539062 10.621094 9.585938 10.933594 9.636719 C 11.050781 9.652344 11.148438 9.675781 11.21875 9.699219 L 11.210938 10.066406 C 11.089844 10.070312 11.003906 10.074219 10.945312 10.074219 C 10.878906 10.074219 10.777344 10.066406 10.640625 10.058594 C 10.191406 10.039062 9.585938 10.027344 8.828125 10.027344 C 8.613281 10.027344 8.402344 10.035156 8.199219 10.050781 C 7.996094 10.066406 7.855469 10.074219 7.78125 10.074219 Z M 7.78125 10.074219 "/>
<path style=" stroke:none;fill-rule:nonzero;fill:rgb(34.901962%,22.352941%,2.352941%);fill-opacity:1;" d="M 3.289062 6.085938 C 2.980469 6.085938 2.71875 6.273438 2.605469 6.539062 L 2.546875 7.257812 L 2.546875 8.042969 C 2.546875 8.136719 2.5625 8.230469 2.597656 8.3125 L 0.992188 8.3125 L 0.992188 10.957031 L 1.496094 10.957031 L 1.496094 9.074219 L 6.648438 9.074219 L 6.648438 10.957031 L 7.148438 10.957031 L 7.148438 8.3125 L 5.542969 8.3125 C 5.578125 8.230469 5.597656 8.136719 5.597656 8.042969 L 5.597656 7.257812 L 5.539062 6.539062 C 5.425781 6.273438 5.160156 6.085938 4.851562 6.085938 Z M 3.132812 7.085938 L 3.308594 7.085938 L 3.308594 8.3125 L 3.132812 8.3125 Z M 4.832031 7.085938 L 5.007812 7.085938 L 5.007812 8.3125 L 4.832031 8.3125 Z M 4.832031 7.085938 "/>
<path style=" stroke:none;fill-rule:nonzero;fill:rgb(34.901962%,22.352941%,2.352941%);fill-opacity:1;" d="M 4.070312 3.953125 C 3.570312 3.953125 3.160156 4.359375 3.160156 4.863281 C 3.160156 5.363281 3.570312 5.773438 4.070312 5.773438 C 4.574219 5.773438 4.980469 5.363281 4.980469 4.863281 C 4.980469 4.359375 4.574219 3.953125 4.070312 3.953125 Z M 4.070312 3.953125 "/>
</g>

</g>%n%n</svg>