<svg width="300" height="35" viewBox="0 0 300 35" fill="none" xmlns="http://www.w3.org/2000/svg">

<g transform="translate(135.000000, 2.000000) scale(1.500000 1.500000) "> 

<g clip-path="url(#clip0)">
<path opacity="0.953" d="M9.9994 1C14.9626 1 19 5.00182 19 10C19 14.9655 14.9626 19 9.9994 19C5.03739 19 1 14.9655 1 10C1 5.00182 5.03739 1 9.9994 1Z" fill="#673A1C"/>
<path opacity="0.95" fill-rule="evenodd" clip-rule="evenodd" d="M10 19C14.9706 19 19 14.9706 19 10C19 5.02944 14.9706 1 10 1C5.02944 1 1 5.02944 1 10C1 14.9706 5.02944 19 10 19ZM10 20C15.5228 20 20 15.5228 20 10C20 4.47715 15.5228 0 10 0C4.47715 0 0 4.47715 0 10C0 15.5228 4.47715 20 10 20Z" fill="#9F5A2B"/>
</g>
<defs>
<clipPath id="clip0">
<path d="M0 0H20V20H0V0Z" fill="white"/>
</clipPath>
</defs>

</g>


<g transform="translate(141.000000, 8.000000) scale(0.375000 0.375000) "> 

<path fill-rule="evenodd" clip100-rule="evenodd" d="M12.8793 7.3771C11.0432 8.6055 10.5505 11.0898 11.7789 12.9259L11.8961 13.1011C13.2917 15.187 15.0144 17.0344 16.998 18.572L23.9998 23.9995L23.9997 23.9999L15.5948 21.1983C13.2138 20.4046 10.7205 20 8.21074 20H8C5.79086 20 4 21.7909 4 24C4 26.2091 5.79086 28 8 28H8.21074C10.7205 28 13.2138 27.5954 15.5948 26.8017L23.9996 24.0001L16.9972 29.4281C15.0137 30.9657 13.2909 32.8131 11.8954 34.8991L11.7782 35.0742C10.5498 36.9103 11.0424 39.3946 12.8785 40.623C14.7147 41.8514 17.1989 41.3588 18.4273 39.5227L18.5445 39.3475C19.9401 37.2615 20.9902 34.9642 21.6545 32.544L23.9996 24.0001L24 24L24.0004 24.0001L26.3455 32.544C27.0098 34.9642 28.0599 37.2615 29.4555 39.3475L29.5727 39.5227C30.8011 41.3588 33.2853 41.8514 35.1215 40.623C36.9576 39.3946 37.4502 36.9103 36.2218 35.0742L36.1046 34.8991C34.7091 32.8131 32.9863 30.9657 31.0028 29.4281L24.0004 24.0001L32.4052 26.8017C34.7862 27.5954 37.2795 28 39.7893 28H40C42.2091 28 44 26.2091 44 24C44 21.7909 42.2091 20 40 20H39.7893C37.2795 20 34.7862 20.4046 32.4052 21.1983L24.0003 23.9999L24.0002 23.9995L31.002 18.572C32.9856 17.0344 34.7083 15.187 36.1039 13.1011L36.2211 12.9259C37.4495 11.0898 36.9568 8.6055 35.1207 7.3771C33.2846 6.1487 30.8003 6.64135 29.5719 8.47746L29.4547 8.65262C28.0592 10.7386 27.009 13.0359 26.3447 15.4562L24 23.9987L21.6553 15.4562C20.991 13.0359 19.9408 10.7386 18.5453 8.65262L18.4281 8.47746C17.1997 6.64135 14.7154 6.1487 12.8793 7.3771ZM24 24L23.9997 23.9999L24 23.9997L24.0003 23.9999L24 24Z" fill="#ffffff"/>

</g>

</svg>