<svg width="300" height="40" viewBox="0 0 300 40" fill="none" xmlns="http://www.w3.org/2000/svg" xmlns:xlink="http://www.w3.org/1999/xlink">

<g transform="translate(130.000000, 0.000000) scale(2.000000 2.000000) "> 

<g clip-path="url(#clip0)">
<path opacity="0.953" d="M9.99934 0C15.514 0 20 4.44646 20 10C20 15.5172 15.514 20 9.99934 20C4.48599 20 0 15.5172 0 10C0 4.44646 4.48599 0 9.99934 0V0Z" fill="#878787"/>
<path opacity="0.95" fill-rule="evenodd" clip-rule="evenodd" d="M10 19C14.9706 19 19 14.9706 19 10C19 5.02944 14.9706 1 10 1C5.02944 1 1 5.02944 1 10C1 14.9706 5.02944 19 10 19ZM10 20C15.5228 20 20 15.5228 20 10C20 4.47715 15.5228 0 10 0C4.47715 0 0 4.47715 0 10C0 15.5228 4.47715 20 10 20Z" fill="#404040"/>
</g>
<defs>
<clipPath id="clip0">
<path d="M0 0H20V20H0V0Z" fill="white"/>
</clipPath>
</defs>

</g>%n%n
<g transform="translate(138.000000, 8.000000) scale(0.750000 0.750000) "> 

<path fill-rule="nonzero" fill="rgb(100%, 98.823529%, 98.823529%)" fill-opacity="1" d="M 18.667969 2.667969 L 14.667969 4 L 14.667969 12 L 5.332031 16 L 5.332031 29.332031 L 13.332031 29.332031 L 13.332031 21.433594 L 18.667969 21.433594 L 18.667969 29.332031 L 26.667969 29.332031 L 26.667969 16 L 17.332031 12 L 17.332031 8.386719 L 18.667969 8 L 22.667969 9.332031 L 26.667969 8 L 26.667969 2.667969 L 22.667969 4 Z M 18.667969 2.667969 "/>

</g>%n%n</svg>