<svg width="300" height="40" viewBox="0 0 300 40" fill="none" xmlns="http://www.w3.org/2000/svg" xmlns:xlink="http://www.w3.org/1999/xlink">

<g transform="translate(130.000000, 0.000000) scale(2.000000 2.000000) "> 

<g clip-path="url(#clip0)">
<path opacity="0.958" d="M9.9994 1C14.9626 1 19 5.00182 19 10C19 14.9655 14.9626 19 9.9994 19C5.03739 19 1 14.9655 1 10C1 5.00182 5.03739 1 9.9994 1Z" fill="#BA9171"/>
<path opacity="0.95" fill-rule="evenodd" clip-rule="evenodd" d="M10 19C14.9706 19 19 14.9706 19 10C19 5.02944 14.9706 1 10 1C5.02944 1 1 5.02944 1 10C1 14.9706 5.02944 19 10 19ZM10 20C15.5228 20 20 15.5228 20 10C20 4.47715 15.5228 0 10 0C4.47715 0 0 4.47715 0 10C0 15.5228 4.47715 20 10 20Z" fill="#AF7A57"/>
</g>
<defs>
<clipPath id="clip0">
<path d="M0 0H20V20H0V0Z" fill="white"/>
</clipPath>
</defs>

</g>%n%n
<g transform="translate(138.000000, 8.000000) scale(2.000000 2.000000) "> 

<path fill-rule="nonzero" fill="rgb(100%, 100%, 100%)" fill-opacity="1" d="M 6.550781 4.34375 C 7.105469 4.019531 7.5 3.238281 7.5 2.5 C 7.5 1.535156 6.828125 1 6 1 C 5.171875 1 4.5 1.535156 4.5 2.5 C 4.5 3.238281 4.894531 4.019531 5.449219 4.34375 C 5.394531 4.535156 5.289062 4.710938 5.144531 4.855469 L 5 5 L 4 5 C 3.359375 5 2.746094 5.253906 2.292969 5.707031 L 2 6 L 3.199219 6.898438 C 3.703125 7.277344 4 7.871094 4 8.5 L 4 9 L 8 9 L 8 8.5 C 8 7.871094 8.296875 7.277344 8.800781 6.898438 L 10 6 L 9.707031 5.707031 C 9.253906 5.253906 8.640625 5 8 5 L 7 5 L 6.855469 4.855469 C 6.710938 4.710938 6.605469 4.535156 6.550781 4.34375 Z M 6.550781 4.34375 "/>
<path fill-rule="nonzero" fill="rgb(100%, 100%, 100%)" fill-opacity="1" d="M 4 10 C 3.449219 10 3 10.449219 3 11 L 9 11 C 9 10.449219 8.550781 10 8 10 Z M 4 10 "/>

</g>%n%n</svg>