<svg width="300" height="35" viewBox="0 0 300 35" fill="none" xmlns="http://www.w3.org/2000/svg">

<g transform="translate(135.000000, 2.000000) scale(1.500000 1.500000) "> 

<g clip-path="url(#clip0)">
<path opacity="0.958" d="M9.9994 1C14.9626 1 19 5.00182 19 10C19 14.9655 14.9626 19 9.9994 19C5.03739 19 1 14.9655 1 10C1 5.00182 5.03739 1 9.9994 1Z" fill="#BA9171"/>
<path opacity="0.95" fill-rule="evenodd" clip-rule="evenodd" d="M10 19C14.9706 19 19 14.9706 19 10C19 5.02944 14.9706 1 10 1C5.02944 1 1 5.02944 1 10C1 14.9706 5.02944 19 10 19ZM10 20C15.5228 20 20 15.5228 20 10C20 4.47715 15.5228 0 10 0C4.47715 0 0 4.47715 0 10C0 15.5228 4.47715 20 10 20Z" fill="#AF7A57"/>
</g>
<defs>
<clipPath id="clip0">
<path d="M0 0H20V20H0V0Z" fill="white"/>
</clipPath>
</defs>

</g>


<g transform="translate(141.000000, 8.000000) scale(0.031034 0.031034) "> 

<path d="M290 36.3564C270.489 36.3564 260.611 49.8922 262.562 77.2077C262.562 83.061 264.879 85.1341 266.831 85.1341C268.782 96.8407 274.147 100.499 274.147 108.303C274.147 114.157 270.245 116.596 254.636 120.498C244.881 124.4 233.662 135.619 227.808 147.326C220.004 164.886 211.956 182.689 211.956 192.445C211.956 202.2 233.662 219.76 247.319 231.467C247.319 231.467 242.929 258.782 254.636 309.511C256.587 350.484 264.392 393.409 264.392 426.578H313.169C313.169 393.409 320.974 350.484 322.925 309.511C334.631 258.782 330.851 231.467 330.851 231.467C346.46 219.76 368.044 202.2 368.044 192.445C368.044 182.689 359.996 165.373 352.191 149.764C346.338 136.107 335.119 124.278 325.364 122.327C311.706 116.474 305.853 116.596 305.853 110.742C305.853 102.938 311.218 100.621 313.169 86.9632C315.12 85.0121 317.437 82.9391 317.437 79.0369C319.388 49.7703 309.511 36.3564 290 36.3564ZM231.467 446.089C221.711 446.089 211.956 453.893 211.956 465.6V485.111H368.044V465.6C368.044 453.893 360.24 446.089 348.533 446.089H231.467ZM208.297 504.622C188.786 504.622 172.934 520.475 172.934 539.986V543.644H407.066V539.986C407.066 520.475 391.336 504.622 369.873 504.622H208.297Z" fill="#ffffff"/>

</g>

</svg>