<svg width="300" height="40" viewBox="0 0 300 40" fill="none" xmlns="http://www.w3.org/2000/svg" xmlns:xlink="http://www.w3.org/1999/xlink" version="1.1">

<g transform="translate(130.000000, 0.000000) scale(2.500000 2.500000) "> 

<path fill-rule="evenodd" clip-rule="evenodd" d="M3.28335 7.31745C2.80099 6.86169 2.5 6.21599 2.5 5.5V5C2.5 2.79086 4.29086 1 6.5 1C7.5233 1 8.45517 1.38386 9.16146 2.01422C9.27316 2.0048 9.38608 2 9.5 2C11.7091 2 13.5 3.79086 13.5 6V6.5C13.5 7.18697 13.2229 7.80923 12.7744 8.2611C12.9202 8.64623 13 9.06379 13 9.5V10C13 10.1118 12.9927 10.222 12.9784 10.3299C13.6136 11.038 14 11.9739 14 13C14 14.1046 13.1046 15 12 15H4C2.89543 15 2 14.1046 2 13C2 11.8554 2.48078 10.823 3.25141 10.0939C3.09036 9.7635 3 9.3923 3 9V8.75C3 8.24265 3.10075 7.75882 3.28335 7.31745Z" fill="#EBE7E4"/>

</g>%n%n
<g transform="translate(138.000000, 8.000000) scale(2.000000 2.000000) "> 

<defs>
<filter id="alpha" filterUnits="objectBoundingBox" x="0%" y="0%" width="100%" height="100%">
  <feColorMatrix type="matrix" in="SourceGraphic" values="0 0 0 0 1 0 0 0 0 1 0 0 0 0 1 0 0 0 1 0"/>
</filter>
<mask id="mask0">
  <g filter="url(#alpha)">
<rect x="0" y="0" width="12" height="12" style="fill:rgb(0%,0%,0%);fill-opacity:0.5;stroke:none;"/>
  </g>
</mask>
<clip100Path id="clip1001">
  <rect x="0" y="0" width="12" height="12"/>
</clip100Path>
<g id="surface5" clip100-path="url(#clip1001)">
<path style=" stroke:none;fill-rule:nonzero;fill:rgb(0%,57.254905%,85.490197%);fill-opacity:1;" d="M 3.5 3 C 3.5 2.449219 3.949219 2 4.5 2 C 5.050781 2 5.5 2.449219 5.5 3 L 5.5 9 L 7 9 L 7 7.5 C 7 7.222656 7.222656 7 7.5 7 C 7.777344 7 8 7.222656 8 7.5 L 8 8 C 8 8.277344 8.222656 8.5 8.5 8.5 C 8.777344 8.5 9 8.277344 9 8 L 9 7.5 C 9 6.671875 8.328125 6 7.5 6 C 7.117188 6 6.765625 6.144531 6.5 6.382812 L 6.5 3 C 6.5 1.894531 5.605469 1 4.5 1 C 3.394531 1 2.5 1.894531 2.5 3 L 2.5 3.5 C 2.5 3.777344 2.722656 4 3 4 C 3.277344 4 3.5 3.777344 3.5 3.5 Z M 3.5 3 "/>
</g>
</defs>
<g id="surface1">
<path style=" stroke:none;fill-rule:nonzero;fill:rgb(0%,57.254905%,85.490197%);fill-opacity:1;" d="M 7.5 3 C 8.050781 3 8.5 3.449219 8.5 4 L 8.5 4.5 C 8.5 4.777344 8.722656 5 9 5 C 9.277344 5 9.5 4.777344 9.5 4.5 L 9.5 4 C 9.5 2.894531 8.605469 2 7.5 2 C 6.394531 2 5.5 2.894531 5.5 4 L 5.5 5.167969 C 5.273438 5.058594 5.019531 5 4.75 5 C 3.785156 5 3 5.785156 3 6.75 L 3 7 C 3 7.277344 3.222656 7.5 3.5 7.5 C 3.777344 7.5 4 7.277344 4 7 L 4 6.75 C 4 6.335938 4.335938 6 4.75 6 C 5.164062 6 5.5 6.335938 5.5 6.75 L 5.5 9 L 4 9 C 2.894531 9 2 9.894531 2 11 L 10 11 C 10 9.894531 9.105469 9 8 9 L 6.5 9 L 6.5 4 C 6.5 3.449219 6.949219 3 7.5 3 Z M 7.5 3 "/>
<use xlink:href="#surface5" mask="url(#mask0)"/>
</g>

</g>%n%n</svg>