<svg width="40" height="40" viewBox="0 0 40 40" fill="none" xmlns="http://www.w3.org/2000/svg" >

<g transform="translate(0.000000, 0.000000) scale(2.000000 2.000000) "> 

<g clip-path="url(#clip0)">
<path opacity="0.958" d="M9.9994 1C14.9626 1 19 5.00182 19 10C19 14.9655 14.9626 19 9.9994 19C5.03739 19 1 14.9655 1 10C1 5.00182 5.03739 1 9.9994 1Z" fill="#BA9171"/>
<path opacity="0.95" fill-rule="evenodd" clip-rule="evenodd" d="M10 19C14.9706 19 19 14.9706 19 10C19 5.02944 14.9706 1 10 1C5.02944 1 1 5.02944 1 10C1 14.9706 5.02944 19 10 19ZM10 20C15.5228 20 20 15.5228 20 10C20 4.47715 15.5228 0 10 0C4.47715 0 0 4.47715 0 10C0 15.5228 4.47715 20 10 20Z" fill="#AF7A57"/>
</g>
<defs>
<clipPath id="clip0">
<path d="M0 0H20V20H0V0Z" fill="white"/>
</clipPath>
</defs>

</g>


<g transform="translate(8.000000, 8.000000) scale(0.041379 0.041379) "> 

<path opacity="0.2" d="M552.66 343.637H32.8438V528.195H552.66V343.637Z" fill="#ffffff" stroke="#ffffff" stroke-width="10.9734" stroke-linecap="round" stroke-linejoin="round"/>
<path d="M23.6772 339.896H560.742" stroke="#ffffff" stroke-width="20"/>
<path d="M23.6772 527.896H560.742" stroke="#ffffff" stroke-width="20"/>
<path d="M39.1514 431.896H547.973" stroke="#ffffff" stroke-width="19.467" stroke-dasharray="38.93 38.93"/>
<path d="M333.182 128.381L352.171 202.809L333.182 128.381Z" fill="#D53B3B"/>
<path d="M333.182 128.381L352.171 202.809" stroke="#ffffff" stroke-width="75.1311" stroke-linecap="round" stroke-linejoin="round"/>
<path d="M328.004 115.025L255.028 125.434L212.265 74.5166" stroke="#ffffff" stroke-width="33.0091" stroke-linecap="round" stroke-linejoin="round"/>
<path d="M381.61 284.426L280.686 285.518" stroke="#ffffff" stroke-width="41.8183" stroke-linecap="round" stroke-linejoin="round"/>
<path d="M368.081 212.736L281.233 277.112" stroke="#ffffff" stroke-width="45.6659" stroke-linecap="round" stroke-linejoin="round"/>
<path d="M302.067 42.8929C292.517 43.3262 288.757 57.0997 296.656 62.3529C303.851 68.2871 315.761 61.0949 313.806 51.9109C312.944 46.4063 307.627 42.2715 302.067 42.8929Z" fill="#ffffff" stroke="#ffffff" stroke-width="45.6659" stroke-linecap="round" stroke-linejoin="round"/>
<path d="M359.715 206.301L281.233 277.111" stroke="#ffffff" stroke-width="45.6659" stroke-linecap="round" stroke-linejoin="round"/>
<path d="M328.004 120.849L255.028 125.434L212.265 74.5166" stroke="#ffffff" stroke-width="33.0091" stroke-linecap="round" stroke-linejoin="round"/>

</g>

</svg>