<svg width="300" height="40" viewBox="0 0 300 40" fill="none" xmlns="http://www.w3.org/2000/svg" >

<g transform="translate(130.000000, 0.000000) scale(2.000000 2.000000) "> 

<g clip-path="url(#clip0)">
<path opacity="0.958" d="M9.9994 1C14.9626 1 19 5.00182 19 10C19 14.9655 14.9626 19 9.9994 19C5.03739 19 1 14.9655 1 10C1 5.00182 5.03739 1 9.9994 1Z" fill="#BA9171"/>
<path opacity="0.95" fill-rule="evenodd" clip-rule="evenodd" d="M10 19C14.9706 19 19 14.9706 19 10C19 5.02944 14.9706 1 10 1C5.02944 1 1 5.02944 1 10C1 14.9706 5.02944 19 10 19ZM10 20C15.5228 20 20 15.5228 20 10C20 4.47715 15.5228 0 10 0C4.47715 0 0 4.47715 0 10C0 15.5228 4.47715 20 10 20Z" fill="#AF7A57"/>
</g>
<defs>
<clipPath id="clip0">
<path d="M0 0H20V20H0V0Z" fill="white"/>
</clipPath>
</defs>

</g>


<g transform="translate(138.000000, 8.000000) scale(0.041379 0.041379) "> 

<g clip100-path="url(#clip1000)">
<path d="M326.889 99.3545H253.111V521.411H326.889V99.3545Z" fill="#ffffff"/>
<path fill-rule="evenodd" clip100-rule="evenodd" d="M50.2197 80.3673H193.333C193.333 80.3673 220.833 30.1741 287.698 29.7323C354.564 29.2905 385.132 80.3673 385.132 80.3673H529.78L513.506 138.956H66.4944L50.2197 80.3673Z" fill="#ffffff"/>
<path d="M97.1054 123.224L42.314 321.232" stroke="#ffffff" stroke-width="20" stroke-linecap="round" stroke-linejoin="round"/>
<path d="M33.8109 280.99L20.8926 326.382L56.2629 336.075L69.1812 290.746L33.8109 280.99Z" fill="#ffffff"/>
<path d="M184.953 138.661L157.704 342.296" stroke="#ffffff" stroke-width="20" stroke-linecap="round" stroke-linejoin="round"/>
<path d="M143.787 303.591L137.186 350.321L173.548 355.095L180.158 308.427L143.787 303.591Z" fill="#ffffff"/>
<path d="M487.339 125.36L542.13 323.369" stroke="#ffffff" stroke-width="20" stroke-linecap="round" stroke-linejoin="round"/>
<path d="M550.633 283.127L563.552 328.519L528.181 338.212L515.263 292.883L550.633 283.127Z" fill="#ffffff"/>
<path d="M399.491 140.798L426.741 344.432" stroke="#ffffff" stroke-width="20" stroke-linecap="round" stroke-linejoin="round"/>
<path d="M440.658 305.728L447.259 352.458L410.896 357.232L404.287 310.564L440.658 305.728Z" fill="#ffffff"/>
<path fill-rule="evenodd" clip100-rule="evenodd" d="M291.888 479.466C267.086 479.466 232.813 488.966 213.25 521.719C264.927 521.719 316.604 521.719 368.281 521.719C346.041 488.912 316.689 479.466 291.888 479.466Z" fill="#ffffff"/>
</g>
<defs>
<clip100Path id="clip1000">
<path d="M0 0H580V580H0V0Z" fill="#ffffff"/>
</clip100Path>
</defs>

</g>

</svg>