<svg width="300" height="40" viewBox="0 0 300 40" fill="none" xmlns="http://www.w3.org/2000/svg" xmlns:xlink="http://www.w3.org/1999/xlink">

<g transform="translate(130.000000, 0.000000) scale(2.500000 2.500000) "> 

<path opacity="0.851" d="M8.14731 2.14807C7.688 2.14809 7.15947 2.32261 6.79653 2.68035C6.45278 3.01921 6.25421 3.56238 6.25421 4.01439C6.25421 4.47194 6.40153 5.02871 6.81327 5.44551C6.96011 5.59417 7.20198 5.5997 7.39409 5.69993C7.33245 5.74204 7.22595 5.83987 7.19491 5.85393C7.18986 5.85667 7.18484 5.85946 7.17984 5.8623C6.95767 5.96769 6.66826 6.03815 6.2676 6.06148C6.01071 6.07624 5.76918 6.18863 5.59244 6.37564C5.4157 6.56265 5.31711 6.81014 5.31687 7.06745V7.46917C5.31692 7.72459 5.41388 7.97047 5.58816 8.15718C5.76245 8.34389 6.00108 8.45752 6.25589 8.47514C6.33214 8.48044 6.29898 8.47719 6.36134 8.48518V9.39742V9.7188V10.0937C6.36139 10.1122 6.36195 10.1306 6.36301 10.149C6.37392 10.3452 6.36134 10.406 6.36134 10.6026C6.36134 10.7587 6.36723 10.8671 6.36301 10.9558C6.36058 11.0066 6.36355 10.9986 6.36301 11.0428L6.11194 11.0763C5.86973 11.1085 5.64748 11.2276 5.48647 11.4114C5.32546 11.5952 5.23664 11.8312 5.23653 12.0755V12.5308C5.23643 12.6634 5.26247 12.7947 5.31316 12.9172C5.36385 13.0397 5.43819 13.151 5.53193 13.2447C5.62568 13.3385 5.73698 13.4128 5.85948 13.4635C5.98198 13.5142 6.11327 13.5402 6.24585 13.5401C6.41093 13.5401 6.55411 13.5271 6.77812 13.51C6.9773 13.4949 7.16682 13.4866 7.37066 13.4866C8.15936 13.4866 8.79529 13.5149 9.27715 13.5385L9.26041 13.5368C9.48134 13.5511 9.66584 13.5401 9.64706 13.5401C9.65764 13.5401 9.80542 13.5448 9.97848 13.5384C10.2395 13.529 10.4867 13.4188 10.6681 13.2309C10.8495 13.043 10.9509 12.792 10.951 12.5308V12.1291C10.9509 11.9239 10.8882 11.7235 10.7713 11.5548C10.6543 11.3861 10.4887 11.2571 10.2965 11.1851C10.0829 11.1049 9.99883 11.1105 9.90985 11.1031L9.9584 8.47849C9.95902 8.47236 9.95959 8.46622 9.96011 8.46008C9.96011 7.5128 9.95131 6.73438 9.93166 6.12509C9.92682 5.97393 9.88805 5.82579 9.81821 5.69165C9.74838 5.5575 9.64927 5.44077 9.52822 5.3501C9.66826 5.20609 9.83495 5.10494 9.92157 4.91491C10.0683 4.59305 10.1207 4.28815 10.1208 3.98761C10.1207 3.5159 9.88766 2.99365 9.53324 2.66194C9.13895 2.29294 8.58946 2.14809 8.14731 2.14807Z" fill="#EBE7E4"/>

</g>%n%n
<g transform="translate(139.000000, 9.000000) scale(1.833333 1.833333) "> 

<path fill-rule="nonzero" fill="rgb(34.901961%, 22.352941%, 2.352941%)" fill-opacity="1" d="M 5.332031 2.550781 C 5.332031 2.328125 5.40625 2.144531 5.550781 2 C 5.695312 1.855469 5.882812 1.785156 6.113281 1.785156 C 6.359375 1.785156 6.5625 1.859375 6.722656 2.011719 C 6.886719 2.164062 6.96875 2.335938 6.96875 2.527344 C 6.96875 2.667969 6.933594 2.8125 6.871094 2.953125 C 6.804688 3.09375 6.703125 3.207031 6.566406 3.292969 C 6.425781 3.378906 6.28125 3.421875 6.136719 3.421875 C 5.9375 3.421875 5.753906 3.335938 5.585938 3.164062 C 5.417969 2.992188 5.332031 2.789062 5.332031 2.550781 Z M 4.457031 10 L 4.445312 9.59375 L 5.152344 9.5 C 5.253906 9.472656 5.328125 9.429688 5.367188 9.371094 C 5.40625 9.316406 5.425781 9.191406 5.425781 8.996094 L 5.425781 8.925781 C 5.425781 8.875 5.429688 8.785156 5.433594 8.652344 C 5.441406 8.523438 5.445312 8.40625 5.445312 8.308594 C 5.445312 8.230469 5.4375 8.078125 5.425781 7.851562 L 5.433594 7.539062 L 5.425781 7.246094 L 5.4375 6.230469 C 5.4375 6.101562 5.425781 5.96875 5.402344 5.828125 C 5.355469 5.765625 5.273438 5.714844 5.152344 5.667969 C 5.03125 5.621094 4.820312 5.589844 4.519531 5.566406 L 4.519531 5.21875 C 4.949219 5.191406 5.324219 5.105469 5.652344 4.949219 C 5.871094 4.851562 6.109375 4.671875 6.367188 4.417969 L 6.785156 4.417969 C 6.804688 4.933594 6.8125 5.605469 6.8125 6.429688 L 6.769531 8.976562 C 6.769531 9.152344 6.777344 9.308594 6.792969 9.449219 C 6.921875 9.496094 7.132812 9.542969 7.421875 9.585938 C 7.535156 9.605469 7.625 9.625 7.691406 9.648438 L 7.6875 9.992188 C 7.574219 9.996094 7.488281 10 7.4375 10 C 7.375 10 7.277344 9.996094 7.148438 9.988281 C 6.722656 9.964844 6.15625 9.957031 5.445312 9.957031 C 5.242188 9.957031 5.042969 9.964844 4.851562 9.976562 C 4.660156 9.992188 4.527344 10 4.457031 10 Z M 4.457031 10 "/>

</g>%n%n</svg>