<svg width="300" height="40" viewBox="0 0 300 40" fill="none" xmlns="http://www.w3.org/2000/svg" xmlns:xlink="http://www.w3.org/1999/xlink" version="1.1">

<g transform="translate(130.000000, 0.000000) scale(2.500000 2.500000) "> 

<path opacity="0.807" d="M4.05351 1.35828C3.60722 1.35829 3.10265 1.53737 2.76131 1.87382C2.42202 2.20828 2.23238 2.71618 2.23238 3.16601C2.23238 3.65112 2.45023 4.1681 2.78642 4.50842C2.87077 4.59382 3.02876 4.58878 3.13457 4.66074C2.94731 4.74823 2.70512 4.81438 2.38303 4.83314C2.12066 4.84834 1.87402 4.96321 1.69356 5.15425C1.51309 5.34529 1.41245 5.59807 1.41221 5.86087V6.21405C1.41237 6.46907 1.50711 6.71498 1.67808 6.90419C1.84906 7.09341 2.08413 7.2125 2.33783 7.23843L2.32946 7.90127C2.32926 7.91299 2.32926 7.92471 2.32946 7.93642L2.33448 8.20925L2.32946 8.50385C2.32846 8.53006 2.32846 8.55631 2.32946 8.58252C2.34163 8.80163 2.3462 8.95568 2.3462 8.98591C2.3462 9.06227 2.34352 9.153 2.3395 9.25038L2.23071 9.26544C1.97841 9.29949 1.74766 9.42573 1.58292 9.61983C1.41819 9.81392 1.33114 10.0621 1.33856 10.3166L1.35027 10.7267C1.35794 10.9947 1.46973 11.2491 1.66193 11.436C1.85413 11.6229 2.1116 11.7275 2.37968 11.7276C2.51869 11.7276 2.65218 11.7181 2.85672 11.7025C3.02173 11.69 3.19449 11.6841 3.37728 11.6841C3.79158 11.6841 4.04346 11.6955 4.3548 11.7025C4.22877 11.9804 4.0284 12.2257 4.0284 12.5394C4.0284 13.6399 4.88134 14.6535 6.03867 14.6535C6.05707 14.6535 6.05011 14.6523 6.06545 14.6518C6.16808 14.6787 6.20786 14.8058 6.3182 14.8058C6.69084 14.8058 6.85576 14.7284 7.10155 14.5999C7.22444 14.5356 7.35636 14.4563 7.50327 14.3019C7.65017 14.1476 7.84006 13.8724 7.84305 13.4834C7.84306 13.4806 7.84306 13.4778 7.84305 13.475V12.4674C7.86136 12.3912 7.8709 12.3131 7.87151 12.2347C7.87151 11.6174 8.05839 11.1744 8.32009 10.8873C8.5818 10.6002 8.92125 10.4337 9.43486 10.4337C9.94846 10.4337 10.2883 10.6004 10.5496 10.8873C10.8109 11.1742 10.9965 11.6171 10.9965 12.2347C10.9973 12.2954 11.0035 12.3559 11.015 12.4155V13.475C11.015 13.8665 11.2072 14.1466 11.3547 14.3019C11.5023 14.4572 11.6351 14.5356 11.7581 14.5999C12.0043 14.7284 12.1671 14.8057 12.5398 14.8057C12.6502 14.8057 12.6899 14.6787 12.7926 14.6517C12.8079 14.6522 12.801 14.6535 12.8193 14.6535C13.9767 14.6535 14.8313 13.6418 14.8313 12.5394C14.8314 11.6819 14.2325 11.0269 13.4587 10.7133C13.3298 10.5745 13.1865 10.4789 13.0051 10.4036C12.3356 8.97246 11.0776 7.85775 9.43486 7.85775C8.12598 7.85775 7.12638 8.62403 6.37176 9.61025C6.26927 9.50893 6.14668 9.43024 6.01189 9.37926C5.92031 9.34493 5.83731 9.33482 5.75244 9.31566L5.78927 7.10285C5.78987 7.09728 5.79043 7.0917 5.79094 7.08612C5.79093 6.24599 5.78156 5.55869 5.76416 5.01894C5.75555 4.75836 5.64849 4.51074 5.46454 4.32597C5.55931 4.2091 5.69587 4.13134 5.75746 3.99623C5.8744 3.73973 5.94994 3.44486 5.94995 3.1409C5.94994 2.65077 5.6976 2.16828 5.37583 1.86712C5.0222 1.53618 4.51119 1.35829 4.05351 1.35828Z" fill="#EBE7E4"/>

</g>%n%n
<g transform="translate(139.000000, 9.000000) scale(1.833333 1.833333) "> 

<g id="surface1">
<path style=" stroke:none;fill-rule:nonzero;fill:rgb(34.901962%,22.352941%,2.352941%);fill-opacity:1;" d="M 1.84375 1.777344 C 1.84375 1.582031 1.910156 1.417969 2.039062 1.289062 C 2.167969 1.164062 2.332031 1.101562 2.535156 1.101562 C 2.75 1.101562 2.933594 1.167969 3.074219 1.300781 C 3.21875 1.4375 3.292969 1.585938 3.292969 1.757812 C 3.292969 1.882812 3.261719 2.007812 3.207031 2.132812 C 3.148438 2.257812 3.058594 2.359375 2.933594 2.433594 C 2.8125 2.507812 2.6875 2.546875 2.558594 2.546875 C 2.378906 2.546875 2.21875 2.472656 2.066406 2.320312 C 1.917969 2.167969 1.84375 1.988281 1.84375 1.777344 Z M 1.070312 8.367188 L 1.058594 8.007812 L 1.683594 7.925781 C 1.777344 7.902344 1.839844 7.863281 1.875 7.8125 C 1.910156 7.765625 1.925781 7.652344 1.925781 7.480469 L 1.925781 7.417969 C 1.925781 7.375 1.929688 7.292969 1.933594 7.179688 C 1.941406 7.0625 1.945312 6.960938 1.945312 6.871094 C 1.945312 6.800781 1.9375 6.667969 1.925781 6.46875 L 1.933594 6.191406 L 1.925781 5.933594 L 1.9375 5.03125 C 1.9375 4.917969 1.925781 4.800781 1.90625 4.679688 C 1.863281 4.625 1.789062 4.574219 1.683594 4.535156 C 1.578125 4.496094 1.390625 4.464844 1.125 4.445312 L 1.125 4.136719 C 1.503906 4.117188 1.839844 4.035156 2.125 3.898438 C 2.320312 3.8125 2.53125 3.65625 2.761719 3.429688 L 3.132812 3.429688 C 3.144531 3.886719 3.152344 4.480469 3.152344 5.210938 L 3.113281 7.460938 C 3.113281 7.617188 3.121094 7.757812 3.136719 7.882812 C 3.25 7.921875 3.4375 7.964844 3.695312 8.003906 C 3.792969 8.019531 3.875 8.035156 3.933594 8.058594 L 3.925781 8.363281 C 3.828125 8.367188 3.753906 8.367188 3.707031 8.367188 C 3.652344 8.367188 3.566406 8.363281 3.453125 8.359375 C 3.074219 8.339844 2.574219 8.328125 1.945312 8.328125 C 1.761719 8.328125 1.589844 8.335938 1.417969 8.347656 C 1.25 8.363281 1.132812 8.367188 1.070312 8.367188 Z M 1.070312 8.367188 "/>
<path style=" stroke:none;fill-rule:nonzero;fill:rgb(34.901962%,22.352941%,2.352941%);fill-opacity:1;" d="M 10.203125 9.035156 C 10.195312 9.035156 10.191406 9.035156 10.183594 9.035156 C 10.144531 8.949219 10.058594 8.886719 9.960938 8.886719 C 9.921875 8.886719 9.890625 8.894531 9.859375 8.910156 C 9.53125 7.683594 8.484375 6.785156 7.242188 6.785156 C 6 6.785156 4.949219 7.6875 4.625 8.914062 C 4.59375 8.898438 4.554688 8.886719 4.515625 8.886719 C 4.417969 8.886719 4.332031 8.949219 4.292969 9.035156 C 4.285156 9.035156 4.28125 9.035156 4.273438 9.035156 C 3.796875 9.035156 3.414062 9.457031 3.414062 9.980469 C 3.414062 10.503906 3.796875 10.925781 4.273438 10.925781 C 4.28125 10.925781 4.289062 10.925781 4.300781 10.925781 C 4.339844 11.007812 4.421875 11.0625 4.515625 11.0625 C 4.652344 11.0625 4.949219 10.945312 4.949219 10.800781 L 4.949219 9.714844 L 4.972656 9.714844 C 4.972656 8.253906 5.890625 7.238281 7.242188 7.238281 C 8.59375 7.238281 9.511719 8.253906 9.511719 9.714844 L 9.527344 9.714844 L 9.527344 10.800781 C 9.527344 10.945312 9.824219 11.0625 9.960938 11.0625 C 10.054688 11.0625 10.136719 11.007812 10.175781 10.925781 C 10.1875 10.925781 10.195312 10.925781 10.203125 10.925781 C 10.679688 10.925781 11.0625 10.503906 11.0625 9.980469 C 11.0625 9.457031 10.679688 9.035156 10.203125 9.035156 Z M 10.203125 9.035156 "/>
</g>

</g>%n%n</svg>