<svg width="300" height="35" viewBox="0 0 300 35" fill="none" xmlns="http://www.w3.org/2000/svg" >

<g transform="translate(135.000000, 2.000000) scale(1.500000 1.500000) "> 

<g clip-path="url(#clip0)">
<path opacity="0.958" d="M9.9994 1C14.9626 1 19 5.00182 19 10C19 14.9655 14.9626 19 9.9994 19C5.03739 19 1 14.9655 1 10C1 5.00182 5.03739 1 9.9994 1Z" fill="#BA9171"/>
<path opacity="0.95" fill-rule="evenodd" clip-rule="evenodd" d="M10 19C14.9706 19 19 14.9706 19 10C19 5.02944 14.9706 1 10 1C5.02944 1 1 5.02944 1 10C1 14.9706 5.02944 19 10 19ZM10 20C15.5228 20 20 15.5228 20 10C20 4.47715 15.5228 0 10 0C4.47715 0 0 4.47715 0 10C0 15.5228 4.47715 20 10 20Z" fill="#AF7A57"/>
</g>
<defs>
<clipPath id="clip0">
<path d="M0 0H20V20H0V0Z" fill="white"/>
</clipPath>
</defs>

</g>


<g transform="translate(141.000000, 8.000000) scale(0.031034 0.031034) "> 

<path d="M383 519.071L331.407 473.852L401.157 404.946C375.156 376.732 348.976 348.643 322.75 320.602C328.735 315.021 334.71 309.44 340.688 303.852C366.256 332.613 391.889 361.332 417.657 389.883C423.031 393.712 453.566 364.399 457.25 358.883L541.844 314.29C537.188 317.617 499.071 410.296 493.063 415.54C483.783 423.675 472.937 433.344 461.625 443.571L479.532 461.008L465.75 472.665L448.375 455.602C423.964 477.971 399.03 501.734 383 519.071ZM247.875 240.54C243.637 235.996 239.39 231.462 235.157 226.915L111.907 95.0708L135.688 73.3833L255.657 208.227C259.614 212.657 263.547 217.106 267.5 221.54C260.958 227.872 254.424 234.214 247.875 240.54Z" fill="#ffffff" stroke="#ffffff" stroke-width="20" stroke-linecap="round" stroke-linejoin="round"/>
<path d="M116.009 442.331C87.5562 413.467 68.4451 376.664 44.5635 343.963L97.3867 305.435L154.553 387.824C161.422 391.436 165.891 382.546 170.042 378.578C227.626 321.478 284.54 263.568 341.864 206.15L469.115 78.1621L491.66 101.135L361.3 225.956C302.814 282.19 243.843 338.004 185.67 394.503C181.625 398.579 172.652 402.88 176.135 409.816L257.434 468.522L217.918 520.611C182.68 495.903 146.854 472.55 116.009 442.331Z" fill="#ffffff" stroke="#ffffff" stroke-width="20" stroke-linecap="round" stroke-linejoin="round"/>

</g>

</svg>