<svg width="300" height="40" viewBox="0 0 300 40" fill="none" xmlns="http://www.w3.org/2000/svg" xmlns:xlink="http://www.w3.org/1999/xlink">

<g transform="translate(130.000000, 0.000000) scale(2.000000 2.000000) "> 

<g clip-path="url(#clip0)">
<path opacity="0.953" d="M9.99934 0C15.514 0 20 4.44646 20 10C20 15.5172 15.514 20 9.99934 20C4.48599 20 0 15.5172 0 10C0 4.44646 4.48599 0 9.99934 0V0Z" fill="#60BE60"/>
<path opacity="0.95" fill-rule="evenodd" clip-rule="evenodd" d="M10 19C14.9706 19 19 14.9706 19 10C19 5.02944 14.9706 1 10 1C5.02944 1 1 5.02944 1 10C1 14.9706 5.02944 19 10 19ZM10 20C15.5228 20 20 15.5228 20 10C20 4.47715 15.5228 0 10 0C4.47715 0 0 4.47715 0 10C0 15.5228 4.47715 20 10 20Z" fill="#398C39"/>
</g>
<defs>
<clipPath id="clip0">
<path d="M0 0H20V20H0V0Z" fill="white"/>
</clipPath>
</defs>

</g>%n%n
<g transform="translate(138.000000, 8.000000) scale(2.000000 2.000000) "> 

<path fill-rule="nonzero" fill="rgb(100%, 100%, 100%)" fill-opacity="1" d="M 4.472656 0.769531 C 2.25 0.769531 0.769531 1.769531 0.769531 3.078125 C 0.769531 4.777344 2.6875 5.390625 3.6875 5.519531 C 3.6875 5.519531 4.300781 5.214844 4.519531 4.996094 C 2.25 4.953125 1.683594 3.90625 1.683594 3.90625 C 1.683594 3.90625 2.382812 4.648438 4.910156 4.691406 C 4.910156 4.691406 5.214844 4.386719 5.347656 4.257812 C 2.949219 4.210938 1.640625 3.777344 1.640625 3.035156 C 1.640625 2.25 2.730469 1.203125 4.472656 1.203125 C 7.4375 1.203125 7.308594 5.738281 0.769531 7.132812 C 0.769531 8.527344 2.078125 9.488281 3.382812 9.488281 C 3.863281 9.488281 4.34375 9.355469 4.734375 9.09375 C 4.734375 9.09375 9.050781 6.699219 9.050781 4.386719 C 9.050781 1.597656 5.738281 0.769531 4.472656 0.769531 Z M 4.953125 7.265625 C 4.953125 7.265625 4.824219 8.617188 3.210938 8.617188 C 1.988281 8.617188 1.597656 7.65625 1.597656 7.65625 C 6.566406 6.128906 7.742188 2.335938 6 1.335938 C 9.140625 2.03125 8.703125 6 4.953125 7.265625 Z M 4.953125 7.265625 "/>
<path fill-rule="nonzero" fill="rgb(100%, 100%, 100%)" fill-opacity="1" d="M 9.445312 4.039062 C 10.707031 3.382812 11.625 1.597656 8.570312 0.769531 C 8.570312 0.769531 11.1875 0.898438 11.1875 2.949219 C 11.1875 4.691406 10.097656 5.476562 9.183594 5.824219 C 9.402344 5.519531 9.488281 4.910156 9.488281 4.910156 C 10.535156 4.210938 10.753906 3.210938 10.753906 3.210938 C 10.753906 3.210938 10.402344 4.082031 9.488281 4.5625 C 9.488281 4.5625 9.53125 4.34375 9.445312 4.039062 Z M 9.445312 4.039062 "/>
<path fill-rule="nonzero" fill="rgb(100%, 100%, 100%)" fill-opacity="1" d="M 11.230469 10.445312 C 10.882812 10.445312 10.316406 10.359375 9.921875 10.054688 C 9.53125 10.359375 8.964844 10.445312 8.617188 10.445312 C 8.265625 10.445312 7.699219 10.359375 7.308594 10.054688 C 6.914062 10.359375 6.347656 10.445312 6 10.445312 C 5.652344 10.445312 5.085938 10.359375 4.691406 10.054688 C 4.300781 10.359375 3.734375 10.445312 3.382812 10.445312 C 3.035156 10.445312 2.46875 10.359375 2.078125 10.054688 C 1.683594 10.359375 1.117188 10.445312 0.769531 10.445312 L 0.769531 11.230469 C 1.507812 11.230469 1.816406 11.058594 2.078125 10.839844 C 2.46875 11.144531 3.035156 11.230469 3.382812 11.230469 C 3.734375 11.230469 4.300781 11.144531 4.691406 10.839844 C 5.085938 11.144531 5.652344 11.230469 6 11.230469 C 6.347656 11.230469 6.914062 11.144531 7.308594 10.839844 C 7.699219 11.144531 8.265625 11.230469 8.617188 11.230469 C 8.964844 11.230469 9.53125 11.144531 9.921875 10.839844 C 10.316406 11.144531 10.882812 11.230469 11.230469 11.230469 Z M 11.230469 10.445312 "/>
<path fill-rule="nonzero" fill="rgb(100%, 100%, 100%)" fill-opacity="1" d="M 11.230469 8.703125 C 10.882812 8.703125 10.316406 8.617188 9.921875 8.3125 C 9.53125 8.617188 8.964844 8.703125 8.617188 8.703125 C 8.265625 8.703125 7.699219 8.617188 7.308594 8.3125 C 7.089844 8.484375 6.871094 8.570312 6.609375 8.617188 C 6.347656 8.832031 5.390625 9.402344 5.390625 9.402344 C 5.609375 9.445312 5.824219 9.488281 6 9.488281 C 6.347656 9.488281 6.914062 9.402344 7.308594 9.09375 C 7.699219 9.402344 8.265625 9.488281 8.617188 9.488281 C 8.964844 9.488281 9.53125 9.402344 9.921875 9.09375 C 10.316406 9.402344 10.882812 9.488281 11.230469 9.488281 Z M 11.230469 8.703125 "/>

</g>%n%n</svg>