<svg width="300" height="35" viewBox="0 0 300 35" fill="none" xmlns="http://www.w3.org/2000/svg">

<g transform="translate(135.000000, 2.000000) scale(1.500000 1.500000) "> 

<g clip-path="url(#clip0)">
<path opacity="0.953" d="M9.99934 0C15.514 0 20 4.44646 20 10C20 15.5172 15.514 20 9.99934 20C4.48599 20 0 15.5172 0 10C0 4.44646 4.48599 0 9.99934 0V0Z" fill="#CECECE"/>
<path opacity="0.95" fill-rule="evenodd" clip-rule="evenodd" d="M10 19C14.9706 19 19 14.9706 19 10C19 5.02944 14.9706 1 10 1C5.02944 1 1 5.02944 1 10C1 14.9706 5.02944 19 10 19ZM10 20C15.5228 20 20 15.5228 20 10C20 4.47715 15.5228 0 10 0C4.47715 0 0 4.47715 0 10C0 15.5228 4.47715 20 10 20Z" fill="#E8E8E8"/>
</g>
<defs>
<clipPath id="clip0">
<path d="M0 0H20V20H0V0Z" fill="white"/>
</clipPath>
</defs>

</g>


<g transform="translate(141.000000, 8.000000) scale(0.031034 0.031034) "> 

<path d="M290 44.176C154.242 44.176 44.1758 154.242 44.1758 290C44.1758 425.758 154.242 535.824 290 535.824C425.758 535.824 535.824 425.758 535.824 290L535.794 286.201C533.716 151.942 424.275 44.176 290 44.176ZM323.595 75.6348C426.258 91.5967 505.289 179.566 506.947 286.646V290C506.947 409.824 409.824 506.947 290 506.947C284.383 506.947 278.83 506.743 273.321 506.324C273.301 506.322 273.281 506.326 273.261 506.324C197.294 498.681 164.808 444.452 164.728 403.845C164.686 382.184 167.867 354.646 185.028 332.232C202.189 309.818 233.366 292.381 289.851 291.068L290.653 291.039C347.037 289.484 375.429 263.418 389.57 235.333C403.77 207.131 403.765 176.909 404.053 167.37V167.34C404.351 157.518 401.05 134.262 385.089 113.059C373.059 97.0795 353.795 82.3572 323.595 75.6348ZM290 136.772C307.448 136.772 321.663 150.754 321.933 168.201V168.705C321.933 186.347 307.641 200.639 290 200.639C272.358 200.639 258.066 186.347 258.066 168.705C258.066 151.064 272.358 136.772 290 136.772ZM290 379.361C272.358 379.361 258.066 393.653 258.066 411.294C258.066 428.936 272.358 443.228 290 443.228C307.641 443.228 321.933 428.936 321.933 411.294V410.79C321.663 393.343 307.448 379.361 290 379.361Z" fill="#333333"/>

</g>

</svg>