<svg width="300" height="40" viewBox="0 0 300 40" fill="none" xmlns="http://www.w3.org/2000/svg" xmlns:xlink="http://www.w3.org/1999/xlink">

<g transform="translate(130.000000, 0.000000) scale(2.000000 2.000000) "> 

<g clip-path="url(#clip0)">
<path opacity="0.958" d="M9.9994 1C14.9626 1 19 5.00182 19 10C19 14.9655 14.9626 19 9.9994 19C5.03739 19 1 14.9655 1 10C1 5.00182 5.03739 1 9.9994 1Z" fill="#BA9171"/>
<path opacity="0.95" fill-rule="evenodd" clip-rule="evenodd" d="M10 19C14.9706 19 19 14.9706 19 10C19 5.02944 14.9706 1 10 1C5.02944 1 1 5.02944 1 10C1 14.9706 5.02944 19 10 19ZM10 20C15.5228 20 20 15.5228 20 10C20 4.47715 15.5228 0 10 0C4.47715 0 0 4.47715 0 10C0 15.5228 4.47715 20 10 20Z" fill="#AF7A57"/>
</g>
<defs>
<clipPath id="clip0">
<path d="M0 0H20V20H0V0Z" fill="white"/>
</clipPath>
</defs>

</g>%n%n
<g transform="translate(138.000000, 8.000000) scale(2.000000 2.000000) "> 

<path fill-rule="evenodd" fill="rgb(100%, 100%, 100%)" fill-opacity="1" d="M 2 1 L 2 7.5 C 2.503906 7.8125 3.003906 8 4.503906 8 C 6.003906 8 6.503906 7.5 8.003906 7.5 C 9.503906 7.5 11.003906 8 11.003906 8 L 11.003906 1.5 C 11.003906 1.5 9.503906 1 8.003906 1 C 6.503906 1 6.003906 1.5 4.503906 1.5 C 3.003906 1.5 2.488281 1.34375 2 1 Z M 7 2 L 10 4.5 L 7 7 L 7 6 L 3 6 L 3 3 L 7 3 Z M 7 2 "/>
<path fill-rule="nonzero" fill="rgb(100%, 100%, 100%)" fill-opacity="1" d="M 1 1 L 1 11 C 1 11 0.839844 10.996094 2 10.996094 L 2 1 Z M 1 1 "/>

</g>%n%n</svg>