<svg width="40" height="40" viewBox="0 0 40 40" fill="none" xmlns="http://www.w3.org/2000/svg" >

<g transform="translate(0.000000, 0.000000) scale(2.000000 2.000000) "> 

<g clip-path="url(#clip0)">
<path opacity="0.958" d="M9.9994 1C14.9626 1 19 5.00182 19 10C19 14.9655 14.9626 19 9.9994 19C5.03739 19 1 14.9655 1 10C1 5.00182 5.03739 1 9.9994 1Z" fill="#BA9171"/>
<path opacity="0.95" fill-rule="evenodd" clip-rule="evenodd" d="M10 19C14.9706 19 19 14.9706 19 10C19 5.02944 14.9706 1 10 1C5.02944 1 1 5.02944 1 10C1 14.9706 5.02944 19 10 19ZM10 20C15.5228 20 20 15.5228 20 10C20 4.47715 15.5228 0 10 0C4.47715 0 0 4.47715 0 10C0 15.5228 4.47715 20 10 20Z" fill="#AF7A57"/>
</g>
<defs>
<clipPath id="clip0">
<path d="M0 0H20V20H0V0Z" fill="white"/>
</clipPath>
</defs>

</g>


<g transform="translate(8.000000, 8.000000) scale(0.500000 0.500000) "> 

<path fill-rule="evenodd" clip100-rule="evenodd" d="M10 4C8.89543 4 8 4.89543 8 6V42C8 43.1046 8.89543 44 10 44H38C39.1046 44 40 43.1046 40 42V6C40 4.89543 39.1046 4 38 4H10ZM26 17.1493C27.1956 16.0731 28 14.1364 28 12.2857C28 9.52429 26.2091 8 24 8C21.7909 8 20 9.52429 20 12.2857C20 14.1364 20.8044 16.0731 22 17.1493V18L21.135 18.865C20.4083 19.5917 19.4226 20 18.3949 20C16.9271 20 15.5854 20.8293 14.929 22.1421L14 24L18 28V32H30V28L34 24L33.071 22.1421C32.4146 20.8293 31.0729 20 29.6051 20C28.5774 20 27.5917 19.5917 26.865 18.865L26 18V17.1493ZM36 36V40H12V36H36Z" fill="#ffffff"/>
<rect opacity="0.5" x="12" y="36" width="24" height="4" fill="#ffffff"/>

</g>

</svg>