<svg width="300" height="40" viewBox="0 0 300 40" fill="none" xmlns="http://www.w3.org/2000/svg" >

<g transform="translate(130.000000, 0.000000) scale(2.000000 2.000000) "> 

<g clip-path="url(#clip0)">
<path opacity="0.958" d="M9.9994 1C14.9626 1 19 5.00182 19 10C19 14.9655 14.9626 19 9.9994 19C5.03739 19 1 14.9655 1 10C1 5.00182 5.03739 1 9.9994 1Z" fill="#BA9171"/>
<path opacity="0.95" fill-rule="evenodd" clip-rule="evenodd" d="M10 19C14.9706 19 19 14.9706 19 10C19 5.02944 14.9706 1 10 1C5.02944 1 1 5.02944 1 10C1 14.9706 5.02944 19 10 19ZM10 20C15.5228 20 20 15.5228 20 10C20 4.47715 15.5228 0 10 0C4.47715 0 0 4.47715 0 10C0 15.5228 4.47715 20 10 20Z" fill="#AF7A57"/>
</g>
<defs>
<clipPath id="clip0">
<path d="M0 0H20V20H0V0Z" fill="white"/>
</clipPath>
</defs>

</g>%n%n
<g transform="translate(138.000000, 8.000000) scale(0.041379 0.041379) "> 

<g clip100-path="url(#clip1000)">
<path d="M85.2926 273.889L34.127 527.026L87.8239 527.288L134.386 285.851L85.2926 273.889Z" fill="#ffffff"/>
<path d="M91.3312 250.372L85.0625 274.392L523.767 527.965L570.893 527.977L91.3312 250.372Z" fill="#ffffff"/>
<path d="M169.466 142.79L166.642 243.827" stroke="#ffffff" stroke-width="45.3" stroke-linecap="round" stroke-linejoin="round"/>
<path d="M166.793 251.696L250.976 240.308L288.3 321.306" stroke="#ffffff" stroke-width="30" stroke-linecap="round" stroke-linejoin="round"/>
<path fill-rule="evenodd" clip100-rule="evenodd" d="M208.751 68.6172C208.751 73.7554 207.739 78.8434 205.773 83.5905C203.806 88.3376 200.924 92.6509 197.291 96.2842C193.658 99.9174 189.344 102.8 184.597 104.766C179.85 106.732 174.762 107.744 169.624 107.744C164.486 107.744 159.398 106.732 154.651 104.766C149.904 102.8 145.59 99.9174 141.957 96.2842C138.324 92.6509 135.442 88.3376 133.475 83.5905C131.509 78.8434 130.497 73.7554 130.497 68.6172C130.497 63.479 131.509 58.3911 133.475 53.644C135.442 48.8969 138.324 44.5835 141.957 40.9503C145.59 37.317 149.904 34.4349 154.651 32.4686C159.398 30.5023 164.486 29.4902 169.624 29.4902C174.762 29.4902 179.85 30.5023 184.597 32.4686C189.344 34.4349 193.658 37.317 197.291 40.9503C200.924 44.5835 203.806 48.8969 205.773 53.644C207.739 58.3911 208.751 63.479 208.751 68.6172Z" fill="#ffffff"/>
</g>
<defs>
<clip100Path id="clip1000">
<path d="M0 0H580V580H0V0Z" fill="#ffffff"/>
</clip100Path>
</defs>

</g>%n%n</svg>