<svg width="300" height="40" viewBox="0 0 300 40" fill="none" xmlns="http://www.w3.org/2000/svg" xmlns:xlink="http://www.w3.org/1999/xlink" version="1.1">

<g transform="translate(130.000000, 0.000000) scale(2.500000 2.500000) "> 

  <metadata
     id="metadata10">
    <rdf:RDF>
      <cc:Work
         rdf:about="">
        <dc:format>image/svg+xml</dc:format>
        <dc:type
           rdf:resource="http://purl.org/dc/dcmitype/StillImage" />
      </cc:Work>
    </rdf:RDF>
  </metadata>
  <defs
     id="defs8" />
  <sodipodi:namedview
     pagecolor="#ffffff"
     bordercolor="#666666"
     borderopacity="1"
     objecttolerance="10"
     gridtolerance="10"
     guidetolerance="10"
     inkscape:pageopacity="0"
     inkscape:pageshadow="2"
     inkscape:window-width="1920"
     inkscape:window-height="1014"
     id="namedview6"
     showgrid="false"
     inkscape:zoom="32"
     inkscape:cx="6.9035398"
     inkscape:cy="6.8863088"
     inkscape:window-x="1920"
     inkscape:window-y="0"
     inkscape:window-maximized="1"
     inkscape:current-layer="svg4" />
  <path
     style="color:#000000;font-style:normal;font-variant:normal;font-weight:normal;font-stretch:normal;font-size:medium;line-height:normal;font-family:sans-serif;font-variant-ligatures:normal;font-variant-position:normal;font-variant-caps:normal;font-variant-numeric:normal;font-variant-alternates:normal;font-feature-settings:normal;text-indent:0;text-align:start;text-decoration:none;text-decoration-line:none;text-decoration-style:solid;text-decoration-color:#000000;letter-spacing:normal;word-spacing:normal;text-transform:none;writing-mode:lr-tb;direction:ltr;text-orientation:mixed;dominant-baseline:auto;baseline-shift:baseline;text-anchor:start;white-space:normal;shape-padding:0;clip-rule:nonzero;display:inline;overflow:visible;visibility:visible;opacity:0.819;isolation:auto;mix-blend-mode:normal;color-interpolation:sRGB;color-interpolation-filters:linearRGB;solid-color:#000000;solid-opacity:1;vector-effect:none;fill:#ebe7e4;fill-opacity:1;fill-rule:evenodd;stroke:none;stroke-width:1;stroke-linecap:butt;stroke-linejoin:miter;stroke-miterlimit:4;stroke-dasharray:none;stroke-dashoffset:0;stroke-opacity:1;color-rendering:auto;image-rendering:auto;shape-rendering:auto;text-rendering:auto;enable-background:accumulate"
     d="m 3.3893755,2.4115484 c -0.5100977,0.00204 -0.9729608,0.4649023 -0.975,0.975 -1.4e-6,6.24e-4 -1.4e-6,0.00125 0,0.00187 v 8.1918756 c -6.242e-4,0.511792 0.4631064,0.978577 0.975,0.980624 h 0.00187 0.045 c 0.039902,1.058546 1.8428803,1.276773 1.959375,0.0375 v -0.0375 h 5.2087505 c -0.01044,1.061758 1.843373,1.279008 1.959375,0.045 v -0.045 h 0.045 0.0019 c 0.512487,-0.002 0.976705,-0.470011 0.975,-0.9825 v -8.1899966 -0.00187 c -0.002,-0.5100976 -0.464903,-0.9729606 -0.975,-0.975 -6.41e-4,-1.3e-6 -0.0012,-1.3e-6 -0.0019,0 H 3.3912505 c -6.24e-4,-1.2e-6 -0.00125,-1.2e-6 -0.00187,0 z"
     id="path824-3"
     inkscape:connector-curvature="0"
     sodipodi:nodetypes="cccccccccccccccccccccc" />

</g>%n%n
<g transform="translate(139.000000, 9.000000) scale(1.833333 1.833333) "> 

<g id="surface1">
<path style=" stroke:none;fill-rule:evenodd;fill:rgb(34.901962%,22.352941%,2.352941%);fill-opacity:1;" d="M 9.492188 9.003906 C 9.214844 9.007812 8.996094 9.238281 9 9.511719 L 9 10.5 C 9 10.777344 9.222656 11 9.5 11 C 9.777344 11 10 10.777344 10 10.5 L 10 9.511719 C 10.003906 9.378906 9.949219 9.246094 9.855469 9.152344 C 9.757812 9.054688 9.628906 9.003906 9.492188 9.003906 Z M 9.492188 9.003906 "/>
<path style=" stroke:none;fill-rule:evenodd;fill:rgb(34.901962%,22.352941%,2.352941%);fill-opacity:1;" d="M 2.492188 9 C 2.214844 9.003906 1.996094 9.230469 2 9.507812 L 2 10.492188 C 2 10.769531 2.222656 10.992188 2.5 10.992188 C 2.777344 10.992188 3 10.769531 3 10.492188 L 3 9.507812 C 3.003906 9.371094 2.949219 9.242188 2.855469 9.144531 C 2.757812 9.050781 2.628906 8.996094 2.492188 9 Z M 2.492188 9 "/>
<path style=" stroke:none;fill-rule:nonzero;fill:rgb(34.901962%,22.352941%,2.352941%);fill-opacity:1;" d="M 1.5 1 C 1.222656 1 1 1.222656 1 1.5 L 1 9.5 C 1 9.777344 1.222656 10 1.5 10 L 10.5 10 C 10.777344 10 11 9.777344 11 9.5 L 11 1.5 C 11 1.222656 10.777344 1 10.5 1 Z M 2 2 L 10 2 L 10 9 L 2 9 Z M 2 2 "/>
<path style=" stroke:none;fill-rule:nonzero;fill:rgb(34.901962%,22.352941%,2.352941%);fill-opacity:1;" d="M 3.25 2.5 L 3.226562 2.5 L 3.195312 2.507812 C 3.140625 2.519531 3.085938 2.550781 3.050781 2.59375 C 3.019531 2.632812 3 2.683594 3 2.738281 C 3 3.230469 3.355469 3.683594 3.890625 4.019531 C 4.183594 4.203125 4.539062 4.355469 4.9375 4.453125 C 4.820312 4.535156 4.714844 4.636719 4.625 4.738281 C 4.488281 4.527344 4.261719 4.386719 4.007812 4.363281 C 3.585938 4.308594 3.164062 4.421875 3.148438 4.425781 C 3.09375 4.441406 3.046875 4.480469 3.023438 4.53125 C 2.996094 4.582031 2.992188 4.640625 3.015625 4.691406 C 3.066406 4.800781 3.339844 5.363281 3.757812 5.484375 C 3.921875 5.527344 4.09375 5.535156 4.265625 5.511719 C 4.253906 5.585938 4.25 5.65625 4.25 5.734375 C 4.25 6.65625 5.296875 8.5 6 8.5 C 6.703125 8.5 7.75 6.65625 7.75 5.734375 C 7.75 5.660156 7.746094 5.585938 7.734375 5.511719 C 7.90625 5.53125 8.074219 5.519531 8.242188 5.484375 C 8.65625 5.367188 8.933594 4.800781 8.984375 4.691406 C 9.007812 4.640625 9.003906 4.582031 8.976562 4.53125 C 8.953125 4.480469 8.90625 4.441406 8.851562 4.425781 C 8.570312 4.355469 8.28125 4.335938 7.992188 4.367188 C 7.738281 4.390625 7.511719 4.527344 7.375 4.742188 C 7.28125 4.632812 7.179688 4.535156 7.0625 4.453125 C 7.457031 4.351562 7.808594 4.203125 8.101562 4.019531 C 8.636719 3.683594 9 3.230469 9 2.738281 C 9 2.707031 8.996094 2.675781 8.984375 2.648438 C 8.96875 2.621094 8.949219 2.597656 8.925781 2.574219 C 8.878906 2.527344 8.816406 2.503906 8.75 2.503906 C 8.683594 2.503906 8.621094 2.527344 8.574219 2.574219 C 8.550781 2.59375 8.53125 2.617188 8.515625 2.648438 C 8.503906 2.675781 8.5 2.707031 8.5 2.738281 C 8.5 3.011719 8.265625 3.359375 7.820312 3.636719 C 7.683594 3.726562 7.523438 3.800781 7.351562 3.871094 C 7.605469 3.546875 7.742188 3.148438 7.75 2.738281 C 7.75 2.707031 7.746094 2.675781 7.734375 2.648438 C 7.71875 2.621094 7.699219 2.597656 7.675781 2.574219 C 7.628906 2.527344 7.566406 2.503906 7.5 2.503906 C 7.433594 2.503906 7.371094 2.527344 7.324219 2.574219 C 7.300781 2.59375 7.28125 2.617188 7.265625 2.648438 C 7.253906 2.675781 7.25 2.707031 7.25 2.738281 C 7.25 3.058594 7.109375 3.421875 6.875 3.6875 C 6.660156 3.957031 6.34375 4.117188 6 4.125 C 5.660156 4.117188 5.339844 3.957031 5.125 3.691406 C 4.894531 3.429688 4.761719 3.09375 4.75 2.742188 C 4.75 2.707031 4.742188 2.671875 4.726562 2.640625 C 4.710938 2.609375 4.6875 2.578125 4.65625 2.558594 C 4.597656 2.511719 4.519531 2.496094 4.445312 2.511719 C 4.390625 2.523438 4.335938 2.550781 4.300781 2.59375 C 4.269531 2.636719 4.25 2.6875 4.25 2.738281 C 4.25 3.140625 4.398438 3.546875 4.65625 3.878906 C 4.488281 3.816406 4.328125 3.738281 4.171875 3.640625 C 3.726562 3.359375 3.5 3.011719 3.5 2.738281 C 3.5 2.707031 3.496094 2.675781 3.484375 2.648438 C 3.472656 2.617188 3.453125 2.59375 3.429688 2.574219 C 3.382812 2.527344 3.316406 2.5 3.25 2.5 Z M 5.125 5.734375 C 5.332031 5.734375 5.5 5.890625 5.5 6.078125 C 5.5 6.269531 5.332031 6.425781 5.125 6.425781 C 4.917969 6.425781 4.75 6.269531 4.75 6.078125 C 4.75 5.890625 4.917969 5.734375 5.125 5.734375 Z M 6.875 5.734375 C 7.082031 5.734375 7.25 5.890625 7.25 6.078125 C 7.25 6.269531 7.082031 6.425781 6.875 6.425781 C 6.667969 6.425781 6.5 6.269531 6.5 6.078125 C 6.5 5.890625 6.667969 5.734375 6.875 5.734375 Z M 6 7.347656 C 6.207031 7.347656 6.375 7.378906 6.375 7.523438 C 6.375 7.664062 6.207031 7.867188 6 7.867188 C 5.792969 7.867188 5.625 7.664062 5.625 7.519531 C 5.625 7.378906 5.792969 7.347656 6 7.347656 Z M 6 7.347656 "/>
</g>

</g>%n%n</svg>