<svg width="300" height="40" viewBox="0 0 300 40" fill="none" xmlns="http://www.w3.org/2000/svg" xmlns:xlink="http://www.w3.org/1999/xlink" version="1.1">

<g transform="translate(130.000000, 0.000000) scale(2.000000 2.000000) "> 

<g clip-path="url(#clip0)">
<path opacity="0.958" d="M9.9994 1C14.9626 1 19 5.00182 19 10C19 14.9655 14.9626 19 9.9994 19C5.03739 19 1 14.9655 1 10C1 5.00182 5.03739 1 9.9994 1Z" fill="#BA9171"/>
<path opacity="0.95" fill-rule="evenodd" clip-rule="evenodd" d="M10 19C14.9706 19 19 14.9706 19 10C19 5.02944 14.9706 1 10 1C5.02944 1 1 5.02944 1 10C1 14.9706 5.02944 19 10 19ZM10 20C15.5228 20 20 15.5228 20 10C20 4.47715 15.5228 0 10 0C4.47715 0 0 4.47715 0 10C0 15.5228 4.47715 20 10 20Z" fill="#AF7A57"/>
</g>
<defs>
<clipPath id="clip0">
<path d="M0 0H20V20H0V0Z" fill="white"/>
</clipPath>
</defs>

</g>%n%n
<g transform="translate(138.000000, 8.000000) scale(2.000000 2.000000) "> 

<defs>
<filter id="alpha" filterUnits="objectBoundingBox" x="0%" y="0%" width="100%" height="100%">
  <feColorMatrix type="matrix" in="SourceGraphic" values="0 0 0 0 1 0 0 0 0 1 0 0 0 0 1 0 0 0 1 0"/>
</filter>
<mask id="mask0">
  <g filter="url(#alpha)">
<rect x="0" y="0" width="12" height="12" style="fill:rgb(0%,0%,0%);fill-opacity:0.5;stroke:none;"/>
  </g>
</mask>
<clip100Path id="clip1001">
  <rect x="0" y="0" width="12" height="12"/>
</clip100Path>
<g id="surface5" clip100-path="url(#clip1001)">
<path style=" stroke:none;fill-rule:evenodd;fill:rgb(100%,100%,100%);fill-opacity:1;" d="M 6.5 2.5 L 6.5 10.5 L 5.5 10.5 L 5.5 2.5 Z M 6.5 2.5 "/>
</g>
</defs>
<g id="surface1">
<use xlink:href="#surface5" mask="url(#mask0)"/>
<path style=" stroke:none;fill-rule:nonzero;fill:rgb(100%,100%,100%);fill-opacity:1;" d="M 10.519531 2.355469 L 6 1 L 1.480469 2.355469 C 1.195312 2.441406 1 2.703125 1 3 L 1 3.5 C 1 3.777344 1.222656 4 1.5 4 C 1.777344 4 2 3.777344 2 3.5 C 2 3.777344 2.222656 4 2.5 4 C 2.777344 4 3 3.777344 3 3.5 L 3 3.25 C 3 3.664062 3.335938 4 3.75 4 C 4.164062 4 4.5 3.664062 4.5 3.25 C 4.5 3.664062 4.835938 4 5.25 4 C 5.664062 4 6 3.664062 6 3.25 C 6 3.664062 6.335938 4 6.75 4 C 7.164062 4 7.5 3.664062 7.5 3.25 C 7.5 3.664062 7.835938 4 8.25 4 C 8.664062 4 9 3.664062 9 3.25 L 9 3.5 C 9 3.777344 9.222656 4 9.5 4 C 9.777344 4 10 3.777344 10 3.5 C 10 3.777344 10.222656 4 10.5 4 C 10.777344 4 11 3.777344 11 3.5 L 11 3 C 11 2.703125 10.804688 2.441406 10.519531 2.355469 Z M 10.519531 2.355469 "/>
<path style=" stroke:none;fill-rule:nonzero;fill:rgb(100%,100%,100%);fill-opacity:1;" d="M 1 10.5 C 1 10.222656 1.222656 10 1.5 10 L 10.5 10 C 10.777344 10 11 10.222656 11 10.5 L 11 11 L 1 11 Z M 1 10.5 "/>
<path style=" stroke:none;fill-rule:nonzero;fill:rgb(100%,100%,100%);fill-opacity:1;" d="M 5.566406 5.917969 C 5.671875 5.957031 5.789062 6 6 6 C 6.59375 6 6.941406 5.589844 7.179688 5.308594 C 7.546875 4.871094 7.929688 4.597656 8.527344 4.640625 C 8.585938 4.644531 8.585938 4.640625 8.59375 4.648438 C 8.644531 4.695312 8.515625 4.878906 8.597656 4.960938 C 9.039062 5.566406 9.320312 5.867188 9.320312 6.109375 C 9.320312 6.351562 9.121094 6.46875 9 6.351562 C 8.867188 6.21875 8.609375 6.121094 8.410156 6.046875 C 7.921875 5.859375 7.832031 6.5 7.796875 6.890625 C 7.796875 7.042969 7.90625 7.265625 8.050781 7.550781 C 8.207031 7.855469 8.398438 8.226562 8.523438 8.664062 C 8.640625 8.984375 8.242188 9.144531 8 8.863281 C 7.800781 8.625 7.03125 7.53125 6.027344 7.53125 C 4.863281 7.53125 4.28125 8.433594 4 8.875 C 3.800781 9.195312 3.199219 9.074219 3.398438 8.554688 C 3.476562 8.351562 4.0625 7.289062 4.101562 7.007812 C 4.082031 6.832031 4.082031 6.546875 4.222656 6.300781 C 3.886719 6.289062 3.523438 6.441406 3.5 7 C 3.5 7.160156 3.160156 7.121094 3 7 C 2.941406 6.96875 2.96875 6.753906 2.988281 6.613281 C 3.058594 6.082031 3.410156 5.84375 3.941406 5.84375 C 4.171875 5.84375 4.351562 5.925781 4.503906 6.015625 C 4.808594 5.828125 5.230469 5.789062 5.566406 5.917969 Z M 5.566406 5.917969 "/>
</g>

</g>%n%n</svg>