<svg width="300" height="40" viewBox="0 0 300 40" fill="none" xmlns="http://www.w3.org/2000/svg" xmlns:xlink="http://www.w3.org/1999/xlink">

<g transform="translate(130.000000, 0.000000) scale(2.000000 2.000000) "> 

<g clip-path="url(#clip0)">
<path opacity="0.953" d="M9.99934 0C15.514 0 20 4.44646 20 10C20 15.5172 15.514 20 9.99934 20C4.48599 20 0 15.5172 0 10C0 4.44646 4.48599 0 9.99934 0V0Z" fill="#60BE60"/>
<path opacity="0.95" fill-rule="evenodd" clip-rule="evenodd" d="M10 19C14.9706 19 19 14.9706 19 10C19 5.02944 14.9706 1 10 1C5.02944 1 1 5.02944 1 10C1 14.9706 5.02944 19 10 19ZM10 20C15.5228 20 20 15.5228 20 10C20 4.47715 15.5228 0 10 0C4.47715 0 0 4.47715 0 10C0 15.5228 4.47715 20 10 20Z" fill="#398C39"/>
</g>
<defs>
<clipPath id="clip0">
<path d="M0 0H20V20H0V0Z" fill="white"/>
</clipPath>
</defs>

</g>%n%n
<g transform="translate(138.000000, 8.000000) scale(0.750000 0.750000) "> 

<path fill-rule="evenodd" fill="rgb(100%, 100%, 100%)" fill-opacity="1" d="M 8.890625 23.617188 L 5.332031 2.667969 C 8.832031 5.132812 12.382812 5.28125 16 2.667969 C 19.34375 4.917969 22.84375 5.480469 26.667969 2.667969 L 23.109375 23.617188 C 22.207031 28.398438 19.554688 29.332031 16 29.332031 C 12.445312 29.332031 9.703125 28.347656 8.890625 23.617188 Z M 16 24 C 17.472656 24 18.667969 22.804688 18.667969 21.332031 C 18.667969 19.859375 17.472656 18.667969 16 18.667969 C 14.527344 18.667969 13.332031 19.859375 13.332031 21.332031 C 13.332031 22.804688 14.527344 24 16 24 Z M 16 24 "/>

</g>%n%n</svg>