<svg width="300" height="40" viewBox="0 0 300 40" fill="none" xmlns="http://www.w3.org/2000/svg" xmlns:xlink="http://www.w3.org/1999/xlink">

<g transform="translate(130.000000, 0.000000) scale(2.500000 2.500000) "> 

<path fill-rule="evenodd" clip-rule="evenodd" d="M3 4H13V8H14V11H12.618L13.618 13H10.382L9.38197 11H6.61803L5.61803 13H2.38197L3.38197 11H2V8H3V4Z" fill="#EBE7E4" fill-opacity="0.8"/>

</g>%n%n
<g transform="translate(139.000000, 9.000000) scale(0.687500 0.687500) "> 

<path fill-rule="evenodd" fill="rgb(34.901961%, 22.352941%, 2.352941%)" fill-opacity="1" d="M 26.667969 8 L 5.332031 8 L 5.332031 13.332031 L 12 13.332031 L 9.332031 18.667969 L 2.667969 18.667969 L 2.667969 21.332031 L 8 21.332031 L 5.332031 26.667969 L 8 26.667969 L 10.667969 21.332031 L 21.332031 21.332031 L 24 26.667969 L 26.667969 26.667969 L 24 21.332031 L 29.332031 21.332031 L 29.332031 18.667969 L 22.667969 18.667969 L 20 13.332031 L 26.667969 13.332031 Z M 20 18.667969 L 17.332031 13.332031 L 14.667969 13.332031 L 12 18.667969 Z M 20 18.667969 "/>

</g>%n%n</svg>