<svg width="300" height="40" viewBox="0 0 300 40" fill="none" xmlns="http://www.w3.org/2000/svg" xmlns:xlink="http://www.w3.org/1999/xlink" version="1.1">

<g transform="translate(130.000000, 0.000000) scale(2.000000 2.000000) "> 

<g clip-path="url(#clip0)">
<path opacity="0.953" d="M9.99934 0C15.514 0 20 4.44646 20 10C20 15.5172 15.514 20 9.99934 20C4.48599 20 0 15.5172 0 10C0 4.44646 4.48599 0 9.99934 0V0Z" fill="#878787"/>
<path opacity="0.95" fill-rule="evenodd" clip-rule="evenodd" d="M10 19C14.9706 19 19 14.9706 19 10C19 5.02944 14.9706 1 10 1C5.02944 1 1 5.02944 1 10C1 14.9706 5.02944 19 10 19ZM10 20C15.5228 20 20 15.5228 20 10C20 4.47715 15.5228 0 10 0C4.47715 0 0 4.47715 0 10C0 15.5228 4.47715 20 10 20Z" fill="#404040"/>
</g>
<defs>
<clipPath id="clip0">
<path d="M0 0H20V20H0V0Z" fill="white"/>
</clipPath>
</defs>

</g>%n%n
<g transform="translate(138.000000, 8.000000) scale(2.000000 2.000000) "> 

<g id="surface1">
<path style=" stroke:none;fill-rule:nonzero;fill:rgb(100%,100%,100%);fill-opacity:1;" d="M 3.324219 0.457031 C 2.976562 0.457031 2.746094 0.769531 2.746094 1.085938 L 2.746094 10.726562 C 2.746094 11.042969 2.976562 11.359375 3.324219 11.359375 L 8.144531 11.359375 C 8.496094 11.359375 8.726562 11.042969 8.726562 10.726562 L 8.726562 8.277344 L 5.0625 5.441406 L 5.0625 0.457031 Z M 3.324219 0.457031 "/>
<path style=" stroke:none;fill-rule:evenodd;fill:rgb(100%,100%,100%);fill-opacity:1;" d="M 5.871094 0.476562 L 5.871094 5.378906 C 5.871094 5.378906 6.824219 4.886719 6.832031 2.957031 C 6.839844 1.03125 5.871094 0.476562 5.871094 0.476562 Z M 5.871094 0.476562 "/>
<path style="fill:none;stroke-width:25;stroke-linecap:round;stroke-linejoin:miter;stroke:rgb(100%,100%,100%);stroke-opacity:1;stroke-miterlimit:4;" d="M 370.052083 97.799479 L 434.622396 60.416667 " transform="matrix(0.0206897,0,0,0.0206897,0,0)"/>
<path style="fill:none;stroke-width:25;stroke-linecap:round;stroke-linejoin:miter;stroke:rgb(100%,100%,100%);stroke-opacity:1;stroke-miterlimit:4;" d="M 370.052083 190.878906 L 434.622396 228.072917 " transform="matrix(0.0206897,0,0,0.0206897,0,0)"/>
<path style="fill:none;stroke-width:25;stroke-linecap:round;stroke-linejoin:miter;stroke:rgb(100%,100%,100%);stroke-opacity:1;stroke-miterlimit:4;" d="M 370.052083 142.923177 L 434.622396 142.923177 " transform="matrix(0.0206897,0,0,0.0206897,0,0)"/>
<path style="fill:none;stroke-width:35;stroke-linecap:round;stroke-linejoin:miter;stroke:rgb(100%,100%,100%);stroke-opacity:1;stroke-miterlimit:4;" d="M 360.234375 354.192708 L 383.268229 327.19401 " transform="matrix(0.0206897,0,0,0.0206897,0,0)"/>
<path style="fill-rule:nonzero;fill:rgb(100%,100%,100%);fill-opacity:1;stroke-width:30;stroke-linecap:round;stroke-linejoin:miter;stroke:rgb(100%,100%,100%);stroke-opacity:1;stroke-miterlimit:4;" d="M 395.729167 328.515625 C 405.169271 328.515625 412.721354 320.963542 412.721354 311.523438 C 412.721354 302.083333 405.169271 294.53125 395.729167 294.53125 C 386.289062 294.53125 378.736979 302.083333 378.736979 311.523438 C 378.736979 320.963542 386.289062 328.515625 395.729167 328.515625 Z M 395.729167 328.515625 " transform="matrix(0.0206897,0,0,0.0206897,0,0)"/>
</g>

</g>%n%n</svg>