<svg width="300" height="40" viewBox="0 0 300 40" fill="none" xmlns="http://www.w3.org/2000/svg" xmlns:xlink="http://www.w3.org/1999/xlink">

<g transform="translate(130.000000, 0.000000) scale(2.500000 2.500000) "> 

<path fill-rule="evenodd" clip-rule="evenodd" d="M3 4H13V8H14V11H12.618L13.618 13H10.382L9.38197 11H6.61803L5.61803 13H2.38197L3.38197 11H2V8H3V4Z" fill="#EBE7E4" fill-opacity="0.8"/>

</g>%n%n
<g transform="translate(139.000000, 9.000000) scale(1.833333 1.833333) "> 

<path fill-rule="evenodd" fill="rgb(34.901961%, 22.352941%, 2.352941%)" fill-opacity="1" d="M 10 3 L 2 3 L 2 5 L 4.5 5 L 3.5 7 L 1 7 L 1 8 L 3 8 L 2 10 L 3 10 L 4 8 L 8 8 L 9 10 L 10 10 L 9 8 L 11 8 L 11 7 L 8.5 7 L 7.5 5 L 10 5 Z M 7.5 7 L 6.5 5 L 5.5 5 L 4.5 7 Z M 7.5 7 "/>

</g>%n%n</svg>