<svg width="300" height="40" viewBox="0 0 300 40" fill="none" xmlns="http://www.w3.org/2000/svg" >

<g transform="translate(130.000000, 0.000000) scale(2.000000 2.000000) "> 

<g clip-path="url(#clip0)">
<path opacity="0.958" d="M9.9994 1C14.9626 1 19 5.00182 19 10C19 14.9655 14.9626 19 9.9994 19C5.03739 19 1 14.9655 1 10C1 5.00182 5.03739 1 9.9994 1Z" fill="#BA9171"/>
<path opacity="0.95" fill-rule="evenodd" clip-rule="evenodd" d="M10 19C14.9706 19 19 14.9706 19 10C19 5.02944 14.9706 1 10 1C5.02944 1 1 5.02944 1 10C1 14.9706 5.02944 19 10 19ZM10 20C15.5228 20 20 15.5228 20 10C20 4.47715 15.5228 0 10 0C4.47715 0 0 4.47715 0 10C0 15.5228 4.47715 20 10 20Z" fill="#AF7A57"/>
</g>
<defs>
<clipPath id="clip0">
<path d="M0 0H20V20H0V0Z" fill="white"/>
</clipPath>
</defs>

</g>%n%n
<g transform="translate(138.000000, 8.000000) scale(0.041379 0.041379) "> 

<path d="M459.2 396.08V274.218H481.119V247.918H407.475V184.797H435.53V158.496H338.217V136.58L311.915 64.6899H264.576L241.782 136.579V158.496H144.469V184.797H172.523V247.918H98.8805V274.218H120.798V396.08H62.0605V422.38H98.0045V515.31H481.995V422.38H517.94V396.08H459.2ZM166 357H151V322H166V357ZM210 232H195V197H210V232ZM273.071 153H306.928V232H273.071V153ZM297.427 322V357H282.427V322H297.427ZM273 357H258V322H273V357ZM306.929 505H273.072V426H306.929V505ZM320.5 357H305.5V322H320.5V357ZM384 232H369V197H384V232ZM424 357H409V322H424V357Z" fill="#ffffff"/>

</g>%n%n</svg>