<svg width="300" height="40" viewBox="0 0 300 40" fill="none" xmlns="http://www.w3.org/2000/svg" xmlns:xlink="http://www.w3.org/1999/xlink" version="1.1">

<g transform="translate(130.000000, 0.000000) scale(2.500000 2.500000) "> 
<path style="clip-rule:evenodd;opacity:.8;fill:#ebe7e4;fill-opacity:1;fill-rule:evenodd;stroke-width:1;font-variant-east_asian:normal;vector-effect:none;stroke-linecap:butt;stroke-linejoin:miter;stroke-miterlimit:4;stroke-dasharray:none;stroke-dashoffset:0;stroke-opacity:1" id="path2-6-7" d="M8.13 1.45c-.68 0-1.17.48-1.46 1.07H4.93a1.22 1.22 0 0 0-1.21 1.21v3.2a1.22 1.22 0 0 0 1.21 1.22h1.45v5.18a1.22 1.22 0 0 0 1.22 1.22h1.07a1.22 1.22 0 0 0 1.21-1.22V9.21a1.22 1.22 0 0 0 .71-.35l2.67-2.67a1.22 1.22 0 0 0 0-1.72l-2.67-2.66a1.22 1.22 0 0 0-1.68-.03c-.25-.14-.48-.33-.78-.33z"/>
</g>%n%n
<g transform="translate(139.000000, 9.000000) scale(1.833333 1.833333) "> 

<defs>
<filter id="alpha" filterUnits="objectBoundingBox" x="0%" y="0%" width="100%" height="100%">
  <feColorMatrix type="matrix" in="SourceGraphic" values="0 0 0 0 1 0 0 0 0 1 0 0 0 0 1 0 0 0 1 0"/>
</filter>
<mask id="mask0">
  <g filter="url(#alpha)">
<rect x="0" y="0" width="12" height="12" style="fill:rgb(0%,0%,0%);fill-opacity:0.7;stroke:none;"/>
  </g>
</mask>
<clip100Path id="clip1001">
  <rect x="0" y="0" width="12" height="12"/>
</clip100Path>
<g id="surface5" clip100-path="url(#clip1001)">
<path style=" stroke:none;fill-rule:evenodd;fill:rgb(34.901962%,22.352941%,2.352941%);fill-opacity:1;" d="M 6 1 C 6.277344 1 6.5 1.222656 6.5 1.5 L 6.5 11 L 5.5 11 L 5.5 1.5 C 5.5 1.222656 5.722656 1 6 1 Z M 6 1 "/>
</g>
</defs>
<g id="surface1">
<use xlink:href="#surface5" mask="url(#mask0)"/>
<path style=" stroke:none;fill-rule:nonzero;fill:rgb(34.901962%,22.352941%,2.352941%);fill-opacity:1;" d="M 3 2 L 7.5 2 L 7.5 1 L 10 3.5 L 7.5 6 L 7.5 5 L 3 5 Z M 3 2 "/>
</g>

</g>%n%n</svg>