<svg width="300" height="40" viewBox="0 0 300 40" fill="none" xmlns="http://www.w3.org/2000/svg" xmlns:xlink="http://www.w3.org/1999/xlink">

<g transform="translate(130.000000, 0.000000) scale(2.500000 2.500000) "> 

 <path d="m3.3894 2.4115c-0.5101 0.00204-0.97296 0.4649-0.975 0.975-1.4e-6 6.24e-4 -1.4e-6 0.00125 0 0.00187v8.1919c-6.242e-4 0.51179 0.46311 0.97858 0.975 0.98062h0.04687c0.039902 1.0585 1.8429 1.2768 1.9594 0.0375v-0.0375h5.2088c-0.01044 1.0618 1.8434 1.279 1.9594 0.045v-0.045h0.0469c0.51249-2e-3 0.9767-0.47001 0.975-0.9825v-8.1919c-2e-3 -0.5101-0.4649-0.97296-0.975-0.975-6.41e-4 -1.3e-6 -0.0012-1.3e-6 -0.0019 0h-9.2175c-6.24e-4 -1.2e-6 -0.00125-1.2e-6 -0.00187 0z" color="#000000" color-rendering="auto" dominant-baseline="auto" fill="#ebe7e4" fill-rule="evenodd" image-rendering="auto" opacity=".819" shape-rendering="auto" solid-color="#000000" style="font-feature-settings:normal;font-variant-alternates:normal;font-variant-caps:normal;font-variant-ligatures:normal;font-variant-numeric:normal;font-variant-position:normal;isolation:auto;mix-blend-mode:normal;shape-padding:0;text-decoration-color:#000000;text-decoration-line:none;text-decoration-style:solid;text-indent:0;text-orientation:mixed;text-transform:none;white-space:normal"/>

</g>%n%n
<g transform="translate(139.000000, 9.000000) scale(1.833333 1.833333) "> 

<path fill-rule="evenodd" fill="rgb(34.901961%, 22.352941%, 2.352941%)" fill-opacity="1" d="M 9.492188 9.003906 C 9.214844 9.007812 8.996094 9.238281 9 9.511719 L 9 10.5 C 9 10.777344 9.222656 11 9.5 11 C 9.777344 11 10 10.777344 10 10.5 L 10 9.511719 C 10.003906 9.378906 9.949219 9.246094 9.855469 9.152344 C 9.757812 9.054688 9.628906 9.003906 9.492188 9.003906 Z M 9.492188 9.003906 "/>
<path fill-rule="evenodd" fill="rgb(34.901961%, 22.352941%, 2.352941%)" fill-opacity="1" d="M 2.492188 9 C 2.214844 9.003906 1.996094 9.230469 2 9.507812 L 2 10.492188 C 2 10.769531 2.222656 10.992188 2.5 10.992188 C 2.777344 10.992188 3 10.769531 3 10.492188 L 3 9.507812 C 3.003906 9.371094 2.949219 9.242188 2.855469 9.144531 C 2.757812 9.050781 2.628906 8.996094 2.492188 9 Z M 2.492188 9 "/>
<path fill-rule="nonzero" fill="rgb(34.901961%, 22.352941%, 2.352941%)" fill-opacity="1" d="M 1.5 1 C 1.222656 1 1 1.222656 1 1.5 L 1 9.5 C 1 9.777344 1.222656 10 1.5 10 L 10.5 10 C 10.777344 10 11 9.777344 11 9.5 L 11 1.5 C 11 1.222656 10.777344 1 10.5 1 Z M 2 2 L 10 2 L 10 9 L 2 9 Z M 2 2 "/>
<path fill-rule="evenodd" fill="rgb(34.901961%, 22.352941%, 2.352941%)" fill-opacity="1" d="M 5.5 4.5 L 5.5 8 L 6.5 8 L 6.5 4.5 Z M 5.5 4.5 "/>
<path fill-rule="nonzero" fill="rgb(34.901961%, 22.352941%, 2.352941%)" fill-opacity="1" d="M 6.5 3.5 C 6.5 3.777344 6.277344 4 6 4 C 5.722656 4 5.5 3.777344 5.5 3.5 C 5.5 3.222656 5.722656 3 6 3 C 6.277344 3 6.5 3.222656 6.5 3.5 Z M 6.5 3.5 "/>
<path fill-rule="evenodd" fill="rgb(34.901961%, 22.352941%, 2.352941%)" fill-opacity="1" d="M 4.75 7.5 C 4.613281 7.5 4.5 7.613281 4.5 7.75 C 4.5 7.886719 4.613281 8 4.75 8 L 7.25 8 C 7.386719 8 7.5 7.886719 7.5 7.75 C 7.5 7.613281 7.386719 7.5 7.25 7.5 Z M 4.75 7.5 "/>
<path fill-rule="evenodd" fill="rgb(34.901961%, 22.352941%, 2.352941%)" fill-opacity="1" d="M 5.253906 5 C 5.113281 5 5.003906 5.113281 5.003906 5.25 C 5.003906 5.386719 5.113281 5.5 5.253906 5.5 L 6.25 5.5 C 6.386719 5.5 6.5 5.386719 6.5 5.25 C 6.5 5.113281 6.386719 5 6.25 5 Z M 5.253906 5 "/>

</g>%n%n</svg>