<svg width="300" height="40" viewBox="0 0 300 40" fill="none" xmlns="http://www.w3.org/2000/svg" xmlns:xlink="http://www.w3.org/1999/xlink">

<g transform="translate(130.000000, 0.000000) scale(2.000000 2.000000) "> 

<g clip-path="url(#clip0)">
<path opacity="0.958" d="M9.9994 1C14.9626 1 19 5.00182 19 10C19 14.9655 14.9626 19 9.9994 19C5.03739 19 1 14.9655 1 10C1 5.00182 5.03739 1 9.9994 1Z" fill="#BA9171"/>
<path opacity="0.95" fill-rule="evenodd" clip-rule="evenodd" d="M10 19C14.9706 19 19 14.9706 19 10C19 5.02944 14.9706 1 10 1C5.02944 1 1 5.02944 1 10C1 14.9706 5.02944 19 10 19ZM10 20C15.5228 20 20 15.5228 20 10C20 4.47715 15.5228 0 10 0C4.47715 0 0 4.47715 0 10C0 15.5228 4.47715 20 10 20Z" fill="#AF7A57"/>
</g>
<defs>
<clipPath id="clip0">
<path d="M0 0H20V20H0V0Z" fill="white"/>
</clipPath>
</defs>

</g>%n%n
<g transform="translate(138.000000, 8.000000) scale(2.000000 2.000000) "> 

<path fill-rule="evenodd" fill="rgb(100%, 100%, 100%)" fill-opacity="1" d="M 10 2 L 2 2 L 2 10 L 10 10 Z M 8 3 L 9 3 L 9 4 L 8 4 Z M 8 5 L 9 5 L 9 6 L 8 6 Z M 9 7 L 8 7 L 8 8 L 9 8 Z M 8 9 L 9 9 L 9 10 L 8 10 Z M 4 3 L 3 3 L 3 4 L 4 4 Z M 4 5 L 3 5 L 3 6 L 4 6 Z M 3 7 L 4 7 L 4 8 L 3 8 Z M 4 9 L 3 9 L 3 10 L 4 10 Z M 4 9 "/>

</g>%n%n</svg>