<svg width="40" height="40" viewBox="0 0 40 40" fill="none" xmlns="http://www.w3.org/2000/svg" >

<g transform="translate(0.000000, 0.000000) scale(2.000000 2.000000) "> 

<g clip-path="url(#clip0)">
<path opacity="0.958" d="M9.9994 1C14.9626 1 19 5.00182 19 10C19 14.9655 14.9626 19 9.9994 19C5.03739 19 1 14.9655 1 10C1 5.00182 5.03739 1 9.9994 1Z" fill="#BA9171"/>
<path opacity="0.95" fill-rule="evenodd" clip-rule="evenodd" d="M10 19C14.9706 19 19 14.9706 19 10C19 5.02944 14.9706 1 10 1C5.02944 1 1 5.02944 1 10C1 14.9706 5.02944 19 10 19ZM10 20C15.5228 20 20 15.5228 20 10C20 4.47715 15.5228 0 10 0C4.47715 0 0 4.47715 0 10C0 15.5228 4.47715 20 10 20Z" fill="#AF7A57"/>
</g>
<defs>
<clipPath id="clip0">
<path d="M0 0H20V20H0V0Z" fill="white"/>
</clipPath>
</defs>

</g>


<g transform="translate(8.000000, 8.000000) scale(2.000000 2.000000) "> 

<path fill-rule="evenodd" clip100-rule="evenodd" d="M343.887 167.059L330.408 188.826L307.5 169.551V415.223H544.576L528.102 328.148L508.631 341.209L492.156 312.91L483.17 291.141L453.217 273.725L460.705 243.248L432.25 210.596L403.793 201.889L397.803 219.303L369.348 191.004L343.887 167.059ZM225.57 175.766L212.09 206.242L161.17 208.418L149.188 245.426L108.75 262.842L96.7695 299.848L56.332 328.148L50.3398 369.508L35.3633 382.57L41.3555 415.223H272.5V181.189L270.5 182.297L225.57 175.766Z" fill="#ffffff" stroke="black"/>

</g>

</svg>