<svg width="300" height="40" viewBox="0 0 300 40" fill="none" xmlns="http://www.w3.org/2000/svg" xmlns:xlink="http://www.w3.org/1999/xlink" version="1.1">

<g transform="translate(130.000000, 0.000000) scale(2.000000 2.000000) "> 

<g clip-path="url(#clip0)">
<path opacity="0.958" d="M9.9994 1C14.9626 1 19 5.00182 19 10C19 14.9655 14.9626 19 9.9994 19C5.03739 19 1 14.9655 1 10C1 5.00182 5.03739 1 9.9994 1Z" fill="#BA9171"/>
<path opacity="0.95" fill-rule="evenodd" clip-rule="evenodd" d="M10 19C14.9706 19 19 14.9706 19 10C19 5.02944 14.9706 1 10 1C5.02944 1 1 5.02944 1 10C1 14.9706 5.02944 19 10 19ZM10 20C15.5228 20 20 15.5228 20 10C20 4.47715 15.5228 0 10 0C4.47715 0 0 4.47715 0 10C0 15.5228 4.47715 20 10 20Z" fill="#AF7A57"/>
</g>
<defs>
<clipPath id="clip0">
<path d="M0 0H20V20H0V0Z" fill="white"/>
</clipPath>
</defs>

</g>%n%n
<g transform="translate(138.000000, 8.000000) scale(2.000000 2.000000) "> 

<g id="surface1">
<path style=" stroke:none;fill-rule:nonzero;fill:rgb(100%,100%,100%);fill-opacity:1;" d="M 1.5 5.761719 Z M 1.5 5.789062 L 1.5 8.875 L 1.507812 8.875 C 1.5 9.015625 3.109375 10.988281 6 11 C 8.398438 11 10.359375 10.058594 10.492188 8.875 L 10.5 8.875 L 10.5 5.785156 C 10.5 7.03125 8.484375 8.042969 6 8.042969 C 3.515625 8.042969 1.5 7.035156 1.5 5.789062 Z M 10.5 5.789062 L 10.5 5.761719 Z M 10.5 5.789062 "/>
<path style=" stroke:none;fill-rule:nonzero;fill:rgb(100%,100%,100%);fill-opacity:1;" d="M 6.066406 0.871094 C 5.726562 0.878906 5.371094 0.921875 5 1 C 3.058594 1.433594 1.625 2.96875 1.625 4.792969 L 1.628906 4.851562 C 1.691406 6.070312 3.679688 7.050781 6.128906 7.050781 C 8.570312 7.050781 10.5625 6.074219 10.628906 4.851562 L 10.628906 4.792969 C 10.628906 2.910156 9.101562 1.335938 7.066406 0.960938 C 6.738281 0.894531 6.402344 0.863281 6.066406 0.871094 Z M 5.75 1.5 L 6 3 L 7.5 3.246094 L 6 3.5 L 5.753906 5 L 5.5 3.5 L 4 3.253906 L 5.5 3 L 5.746094 1.5 Z M 3.75 3.5 L 4 4.5 L 5 4.75 L 4 5 L 3.75 6 L 3.5 5 L 2.5 4.75 L 3.5 4.5 Z M 8.75 3.5 L 9 4.5 L 10 4.75 L 9 5 L 8.75 6 L 8.5 5 L 7.5 4.75 L 8.5 4.5 Z M 8.75 3.5 "/>
</g>

</g>%n%n</svg>