<svg width="300" height="35" viewBox="0 0 300 35" fill="none" xmlns="http://www.w3.org/2000/svg" >

<g transform="translate(135.000000, 2.000000) scale(1.500000 1.500000) "> 

<g clip-path="url(#clip0)">
<path opacity="0.953" d="M9.9994 1C14.9626 1 19 5.00182 19 10C19 14.9655 14.9626 19 9.9994 19C5.03739 19 1 14.9655 1 10C1 5.00182 5.03739 1 9.9994 1Z" fill="#673A1C"/>
<path opacity="0.95" fill-rule="evenodd" clip-rule="evenodd" d="M10 19C14.9706 19 19 14.9706 19 10C19 5.02944 14.9706 1 10 1C5.02944 1 1 5.02944 1 10C1 14.9706 5.02944 19 10 19ZM10 20C15.5228 20 20 15.5228 20 10C20 4.47715 15.5228 0 10 0C4.47715 0 0 4.47715 0 10C0 15.5228 4.47715 20 10 20Z" fill="#9F5A2B"/>
</g>
<defs>
<clipPath id="clip0">
<path d="M0 0H20V20H0V0Z" fill="white"/>
</clipPath>
</defs>

</g>


<g transform="translate(141.000000, 8.000000) scale(0.375000 0.375000) "> 

<path d="M24 8C25.1046 8 26 7.10457 26 6C26 4.89543 25.1046 4 24 4C22.8954 4 22 4.89543 22 6C22 7.10457 22.8954 8 24 8Z" fill="#ffffff"/>
<path d="M22 10H25.6875L26 12H28V14L26 16L28 28H20L22 16L20 14V12H22V10Z" fill="#ffffff"/>
<path d="M16 42C16 40.8954 16.8954 40 18 40H20V36C18.8954 36 18 35.1046 18 34C18 32.8954 18.8954 32 20 32H28C29.1046 32 30 32.8954 30 34C30 35.1046 29.1046 36 28 36V40H30C31.1046 40 32 40.8954 32 42V44H16V42Z" fill="#ffffff"/>

</g>

</svg>