<svg width="300" height="40" viewBox="0 0 300 40" fill="none" xmlns="http://www.w3.org/2000/svg" xmlns:xlink="http://www.w3.org/1999/xlink">

<g transform="translate(130.000000, 0.000000) scale(2.000000 2.000000) "> 

<g clip-path="url(#clip0)">
<path opacity="0.958" d="M9.9994 1C14.9626 1 19 5.00182 19 10C19 14.9655 14.9626 19 9.9994 19C5.03739 19 1 14.9655 1 10C1 5.00182 5.03739 1 9.9994 1Z" fill="#BA9171"/>
<path opacity="0.95" fill-rule="evenodd" clip-rule="evenodd" d="M10 19C14.9706 19 19 14.9706 19 10C19 5.02944 14.9706 1 10 1C5.02944 1 1 5.02944 1 10C1 14.9706 5.02944 19 10 19ZM10 20C15.5228 20 20 15.5228 20 10C20 4.47715 15.5228 0 10 0C4.47715 0 0 4.47715 0 10C0 15.5228 4.47715 20 10 20Z" fill="#AF7A57"/>
</g>
<defs>
<clipPath id="clip0">
<path d="M0 0H20V20H0V0Z" fill="white"/>
</clipPath>
</defs>

</g>%n%n
<g transform="translate(138.000000, 8.000000) scale(0.750000 0.750000) "> 

<path fill-rule="nonzero" fill="rgb(100%, 100%, 100%)" fill-opacity="1" d="M 16 5.332031 C 16.738281 5.332031 17.332031 4.738281 17.332031 4 C 17.332031 3.261719 16.738281 2.667969 16 2.667969 C 15.261719 2.667969 14.667969 3.261719 14.667969 4 C 14.667969 4.738281 15.261719 5.332031 16 5.332031 Z M 16 5.332031 "/>
<path fill-rule="nonzero" fill="rgb(100%, 100%, 100%)" fill-opacity="1" d="M 14.667969 6.667969 L 17.125 6.667969 L 17.332031 8 L 18.667969 8 L 18.667969 9.332031 L 17.332031 10.667969 L 18.667969 18.667969 L 13.332031 18.667969 L 14.667969 10.667969 L 13.332031 9.332031 L 13.332031 8 L 14.667969 8 Z M 14.667969 6.667969 "/>
<path fill-rule="nonzero" fill="rgb(100%, 100%, 100%)" fill-opacity="1" d="M 10.667969 28 C 10.667969 27.261719 11.261719 26.667969 12 26.667969 L 13.332031 26.667969 L 13.332031 24 C 12.597656 24 12 23.402344 12 22.667969 C 12 21.929688 12.597656 21.332031 13.332031 21.332031 L 18.667969 21.332031 C 19.402344 21.332031 20 21.929688 20 22.667969 C 20 23.402344 19.402344 24 18.667969 24 L 18.667969 26.667969 L 20 26.667969 C 20.738281 26.667969 21.332031 27.261719 21.332031 28 L 21.332031 29.332031 L 10.667969 29.332031 Z M 10.667969 28 "/>

</g>%n%n</svg>