<svg width="40" height="40" viewBox="0 0 40 40" fill="none" xmlns="http://www.w3.org/2000/svg" >

<g transform="translate(0.000000, 0.000000) scale(2.000000 2.000000) "> 

<g clip-path="url(#clip0)">
<path opacity="0.958" d="M9.9994 1C14.9626 1 19 5.00182 19 10C19 14.9655 14.9626 19 9.9994 19C5.03739 19 1 14.9655 1 10C1 5.00182 5.03739 1 9.9994 1Z" fill="#BA9171"/>
<path opacity="0.95" fill-rule="evenodd" clip-rule="evenodd" d="M10 19C14.9706 19 19 14.9706 19 10C19 5.02944 14.9706 1 10 1C5.02944 1 1 5.02944 1 10C1 14.9706 5.02944 19 10 19ZM10 20C15.5228 20 20 15.5228 20 10C20 4.47715 15.5228 0 10 0C4.47715 0 0 4.47715 0 10C0 15.5228 4.47715 20 10 20Z" fill="#AF7A57"/>
</g>
<defs>
<clipPath id="clip0">
<path d="M0 0H20V20H0V0Z" fill="white"/>
</clipPath>
</defs>

</g>


<g transform="translate(8.000000, 8.000000) scale(0.500000 0.500000) "> 

<path d="M26.2 17.3754C28.4253 16.0769 30 12.9599 30 10C30 6.13401 27.3137 4 24 4C20.6863 4 18 6.13401 18 10C18 12.9599 19.5747 16.0769 21.8 17.3754C21.5731 18.1386 21.159 18.841 20.5858 19.4142L20 20H16C13.4388 20 10.9826 21.0174 9.17157 22.8284L8 24L12.8 27.6C14.8144 29.1108 16 31.4819 16 34V36H32V34C32 31.4819 33.1856 29.1108 35.2 27.6L40 24L38.8284 22.8284C37.0174 21.0174 34.5612 20 32 20H28L27.4142 19.4142C26.841 18.841 26.4269 18.1386 26.2 17.3754Z" fill="#ffffff"/>
<path d="M16 40C13.7909 40 12 41.7909 12 44H36C36 41.7909 34.2091 40 32 40H16Z" fill="#ffffff"/>

</g>

</svg>