<svg width="300" height="40" viewBox="0 0 300 40" fill="none" xmlns="http://www.w3.org/2000/svg" xmlns:xlink="http://www.w3.org/1999/xlink">

<g transform="translate(130.000000, 0.000000) scale(2.000000 2.000000) "> 

<g clip-path="url(#clip0)">
<path opacity="0.958" d="M9.9994 1C14.9626 1 19 5.00182 19 10C19 14.9655 14.9626 19 9.9994 19C5.03739 19 1 14.9655 1 10C1 5.00182 5.03739 1 9.9994 1Z" fill="#BA9171"/>
<path opacity="0.95" fill-rule="evenodd" clip-rule="evenodd" d="M10 19C14.9706 19 19 14.9706 19 10C19 5.02944 14.9706 1 10 1C5.02944 1 1 5.02944 1 10C1 14.9706 5.02944 19 10 19ZM10 20C15.5228 20 20 15.5228 20 10C20 4.47715 15.5228 0 10 0C4.47715 0 0 4.47715 0 10C0 15.5228 4.47715 20 10 20Z" fill="#AF7A57"/>
</g>
<defs>
<clipPath id="clip0">
<path d="M0 0H20V20H0V0Z" fill="white"/>
</clipPath>
</defs>

</g>%n%n
<g transform="translate(138.000000, 8.000000) scale(0.750000 0.750000) "> 

<path fill-rule="evenodd" fill="rgb(100%, 100%, 100%)" fill-opacity="1" d="M 16 2.667969 L 8 8 L 8 29.332031 L 24 29.332031 L 24 8 Z M 11.609375 12.390625 C 11.089844 11.871094 10.246094 11.871094 9.722656 12.390625 C 9.203125 12.910156 9.203125 13.753906 9.722656 14.277344 L 16 20.550781 L 18.667969 17.886719 L 20.390625 19.609375 C 20.910156 20.128906 21.753906 20.128906 22.277344 19.609375 C 22.796875 19.089844 22.796875 18.246094 22.277344 17.722656 L 20.550781 16 L 22.277344 14.277344 C 22.796875 13.753906 22.796875 12.910156 22.277344 12.390625 C 21.753906 11.871094 20.910156 11.871094 20.390625 12.390625 L 18.667969 14.113281 L 16.941406 12.390625 C 16.421875 11.871094 15.578125 11.871094 15.058594 12.390625 C 14.535156 12.910156 14.535156 13.753906 15.058594 14.277344 L 16.78125 16 L 16 16.78125 Z M 11.609375 12.390625 "/>

</g>%n%n</svg>