<svg width="300" height="40" viewBox="0 0 300 40" fill="none" xmlns="http://www.w3.org/2000/svg" xmlns:xlink="http://www.w3.org/1999/xlink">

<g transform="translate(130.000000, 0.000000) scale(2.500000 2.500000) "> 

<path opacity="0.802" d="M4.95167 1.40088C4.46466 1.4009 3.91297 1.59945 3.55402 1.95324C3.1945 2.30765 2.98827 2.864 2.98827 3.34921C2.98827 3.87292 3.22505 4.4435 3.59252 4.81549C3.69875 4.92303 3.96909 4.95221 4.2721 5.09669C4.30482 5.1123 4.33294 5.13613 4.35369 5.16586C4.37445 5.19558 4.38714 5.23019 4.39051 5.26629C4.39388 5.30239 4.38783 5.33874 4.37294 5.3718C4.35805 5.40486 4.33484 5.43349 4.30557 5.45489C4.2609 5.48776 4.19791 5.54025 4.13819 5.5888C4.07847 5.63734 4.04454 5.67671 3.95407 5.71768C3.95133 5.71904 3.94841 5.71964 3.9457 5.72103C3.94404 5.72217 3.94237 5.72329 3.94068 5.72438C3.62987 5.87182 3.24546 5.96946 2.769 5.99721C2.53728 6.01072 2.31233 6.11629 2.15303 6.28511C1.99373 6.45393 1.90201 6.68403 1.90196 6.91614V7.38314C1.90183 7.61355 1.99261 7.84225 2.14968 8.01083C2.30675 8.1794 2.52912 8.28593 2.75896 8.30207C2.8777 8.31032 2.86761 8.31236 2.94642 8.32383C2.99681 8.33121 3.04278 8.35669 3.07575 8.39551C3.10871 8.43432 3.1264 8.48382 3.12552 8.53473L3.11213 9.62105C3.11197 9.63105 3.11197 9.64118 3.11213 9.65118L3.12051 10.0194C3.12059 10.0228 3.12059 10.0261 3.12051 10.0295L3.11213 10.4228C3.11176 10.4454 3.11251 10.4688 3.1138 10.4914C3.13023 10.7872 3.13724 10.9829 3.13724 11.0505C3.13724 11.1683 3.13491 11.3088 3.12719 11.4706C3.12439 11.5295 3.12463 11.5627 3.12217 11.6179C3.11977 11.667 3.10017 11.7137 3.06682 11.7498C3.03347 11.7859 2.98848 11.8092 2.93973 11.8154L2.59994 11.8606C2.37643 11.8903 2.16676 12.0051 2.0208 12.177C1.87484 12.3488 1.79465 12.5759 1.80153 12.8013L1.81826 13.3436C1.82571 13.5798 1.92812 13.812 2.09779 13.9763C2.26747 14.1407 2.50262 14.2358 2.73887 14.2358C2.8953 14.2358 3.06697 14.2244 3.33475 14.204C3.5685 14.1862 3.80892 14.1772 4.05785 14.1772C4.99421 14.1772 5.73537 14.1911 6.27734 14.2174C6.27846 14.2174 6.27958 14.2174 6.28069 14.2174C6.46324 14.2291 6.59695 14.2358 6.72426 14.2358C6.82226 14.2358 6.93557 14.2331 7.09083 14.2274C7.28139 14.2202 7.46901 14.1517 7.61976 14.0349C7.6476 14.0133 7.68045 13.999 7.71527 13.9935C7.75009 13.9879 7.78575 13.9912 7.81894 14.0031C7.92407 14.041 7.99811 14.0943 8.05328 14.1253C8.10844 14.1563 8.13748 14.1655 8.16375 14.1655H13.294C13.9254 14.1655 14.4758 13.615 14.4758 12.9837V4.07228C14.4758 3.43938 13.9352 2.88888 13.294 2.88888H8.16375C7.82509 2.88888 7.53542 3.04927 7.3101 3.29897C7.28292 3.32882 7.24769 3.35019 7.20865 3.3605C7.16961 3.3708 7.12843 3.36961 7.09005 3.35706C7.05168 3.3445 7.01775 3.32113 6.99235 3.28975C6.96695 3.25836 6.95115 3.22031 6.94687 3.18016C6.89874 2.71037 6.70072 2.23514 6.39953 1.95324C6.01771 1.59592 5.46047 1.4009 4.95167 1.40088ZM6.75606 4.39368C6.78476 4.39165 6.81358 4.39555 6.84072 4.40515C6.86785 4.41475 6.89271 4.42983 6.91376 4.44946C6.9348 4.46909 6.95158 4.49285 6.96303 4.51925C6.97449 4.54565 6.98039 4.57413 6.98035 4.60291V5.18708C6.97996 5.23106 6.96573 5.2738 6.93969 5.30925C6.91365 5.34469 6.87711 5.37104 6.83526 5.38456C6.79341 5.39808 6.74836 5.39808 6.70651 5.38457C6.66465 5.37105 6.62811 5.34471 6.60206 5.30927C6.53966 5.22323 6.46232 5.14808 6.37442 5.08832C6.34894 5.07097 6.3276 5.0482 6.31193 5.02165C6.29626 4.9951 6.28664 4.96542 6.28376 4.93472C6.28088 4.90403 6.28482 4.87307 6.29528 4.84407C6.30574 4.81507 6.32248 4.78873 6.3443 4.76695C6.44728 4.66419 6.53269 4.58086 6.59704 4.48574C6.61481 4.45932 6.63836 4.4373 6.66592 4.42135C6.69347 4.4054 6.7243 4.39594 6.75606 4.39368V4.39368ZM9.71873 5.42811C9.72375 5.42793 9.72878 5.42793 9.7338 5.42811H11.7223C11.7778 5.42818 11.831 5.45024 11.8702 5.48947C11.9094 5.52869 11.9315 5.58187 11.9315 5.63734V6.02064C11.9315 6.07611 11.9094 6.12929 11.8702 6.16852C11.831 6.20774 11.7778 6.2298 11.7223 6.22987H9.7338C9.67833 6.2298 9.62515 6.20774 9.58593 6.16852C9.5467 6.12929 9.52464 6.07611 9.52457 6.02064V5.63734C9.52449 5.58438 9.54448 5.53336 9.5805 5.49454C9.61653 5.45572 9.66592 5.43198 9.71873 5.42811Z" fill="#EBE7E4"/>

</g>%n%n
<g transform="translate(139.000000, 9.000000) scale(1.833333 1.833333) "> 

<path fill-rule="nonzero" fill="rgb(34.901961%, 22.352941%, 2.352941%)" fill-opacity="1" d="M 2.402344 1.972656 C 2.402344 1.710938 2.488281 1.492188 2.65625 1.324219 C 2.828125 1.15625 3.046875 1.074219 3.316406 1.074219 C 3.601562 1.074219 3.839844 1.164062 4.03125 1.339844 C 4.222656 1.519531 4.316406 1.71875 4.316406 1.941406 C 4.316406 2.109375 4.277344 2.273438 4.203125 2.441406 C 4.128906 2.605469 4.007812 2.738281 3.84375 2.839844 C 3.679688 2.9375 3.515625 2.988281 3.34375 2.988281 C 3.109375 2.988281 2.894531 2.886719 2.695312 2.6875 C 2.5 2.488281 2.402344 2.25 2.402344 1.972656 Z M 1.378906 10.691406 L 1.363281 10.21875 L 2.1875 10.109375 C 2.3125 10.074219 2.394531 10.023438 2.441406 9.957031 C 2.488281 9.890625 2.511719 9.746094 2.511719 9.515625 L 2.511719 9.433594 C 2.511719 9.375 2.515625 9.269531 2.523438 9.117188 C 2.527344 8.964844 2.53125 8.828125 2.53125 8.710938 C 2.53125 8.617188 2.523438 8.441406 2.511719 8.179688 L 2.519531 7.8125 L 2.511719 7.46875 L 2.523438 6.277344 C 2.523438 6.125 2.511719 5.96875 2.480469 5.808594 C 2.429688 5.738281 2.332031 5.671875 2.1875 5.621094 C 2.046875 5.566406 1.800781 5.527344 1.449219 5.503906 L 1.449219 5.09375 C 1.953125 5.0625 2.394531 4.960938 2.773438 4.777344 C 3.03125 4.664062 3.3125 4.457031 3.613281 4.15625 L 4.105469 4.15625 C 4.125 4.761719 4.132812 5.546875 4.132812 6.511719 L 4.082031 9.492188 C 4.082031 9.699219 4.09375 9.882812 4.113281 10.050781 C 4.261719 10.101562 4.507812 10.15625 4.851562 10.210938 C 4.980469 10.230469 5.085938 10.253906 5.164062 10.28125 L 5.15625 10.683594 C 5.023438 10.691406 4.925781 10.691406 4.863281 10.691406 C 4.792969 10.691406 4.679688 10.6875 4.527344 10.679688 C 4.03125 10.652344 3.367188 10.640625 2.53125 10.640625 C 2.292969 10.640625 2.0625 10.648438 1.839844 10.667969 C 1.613281 10.683594 1.460938 10.691406 1.378906 10.691406 Z M 1.378906 10.691406 "/>
<path fill-rule="nonzero" fill="rgb(34.901961%, 22.352941%, 2.352941%)" fill-opacity="1" d="M 10.613281 2.375 L 6.125 2.375 C 5.996094 2.375 5.894531 2.476562 5.894531 2.605469 L 5.894531 10.402344 C 5.894531 10.527344 5.996094 10.632812 6.125 10.632812 L 10.613281 10.632812 C 10.738281 10.632812 10.84375 10.527344 10.84375 10.402344 L 10.84375 2.605469 C 10.84375 2.476562 10.738281 2.375 10.613281 2.375 Z M 6.511719 2.984375 L 10.226562 2.984375 L 10.226562 5.300781 L 6.511719 5.300781 Z M 6.308594 6.503906 L 6.507812 5.570312 L 10.222656 5.570312 L 10.429688 6.503906 Z M 6.308594 6.503906 "/>

</g>%n%n</svg>