<svg width="300" height="35" viewBox="0 0 300 35" fill="none" xmlns="http://www.w3.org/2000/svg">

<g transform="translate(135.000000, 2.000000) scale(1.500000 1.500000) "> 

<g clip-path="url(#clip0)">
<path opacity="0.958" d="M9.9994 1C14.9626 1 19 5.00182 19 10C19 14.9655 14.9626 19 9.9994 19C5.03739 19 1 14.9655 1 10C1 5.00182 5.03739 1 9.9994 1Z" fill="#BA9171"/>
<path opacity="0.95" fill-rule="evenodd" clip-rule="evenodd" d="M10 19C14.9706 19 19 14.9706 19 10C19 5.02944 14.9706 1 10 1C5.02944 1 1 5.02944 1 10C1 14.9706 5.02944 19 10 19ZM10 20C15.5228 20 20 15.5228 20 10C20 4.47715 15.5228 0 10 0C4.47715 0 0 4.47715 0 10C0 15.5228 4.47715 20 10 20Z" fill="#AF7A57"/>
</g>
<defs>
<clipPath id="clip0">
<path d="M0 0H20V20H0V0Z" fill="white"/>
</clipPath>
</defs>

</g>


<g transform="translate(141.000000, 8.000000) scale(0.375000 0.375000) "> 

<path d="M36 8H12L16 12V16H18L20 18H28L30 16H32V12L36 8Z" fill="#ffffff"/>
<path d="M20 40C17.7909 40 16 41.7909 16 44H32C32 41.7909 30.2091 40 28 40H20Z" fill="#ffffff"/>
<g opacity="0.8">
<path d="M21.7889 1.10561C20.6925 1.65377 20 2.7743 20 4.00003H28C28 2.7743 27.3075 1.65377 26.2111 1.10561L25.7889 0.894459C24.6627 0.331404 23.3373 0.331404 22.2111 0.894459L21.7889 1.10561Z" fill="#ffffff"/>
<path d="M28 20H20V40H28V20Z" fill="#ffffff"/>
</g>

</g>

</svg>