<svg width="300" height="40" viewBox="0 0 300 40" fill="none" xmlns="http://www.w3.org/2000/svg" xmlns:xlink="http://www.w3.org/1999/xlink" version="1.1">

<g transform="translate(130.000000, 0.000000) scale(2.000000 2.000000) "> 

<g clip-path="url(#clip0)">
<path opacity="0.958" d="M9.9994 1C14.9626 1 19 5.00182 19 10C19 14.9655 14.9626 19 9.9994 19C5.03739 19 1 14.9655 1 10C1 5.00182 5.03739 1 9.9994 1Z" fill="#BA9171"/>
<path opacity="0.95" fill-rule="evenodd" clip-rule="evenodd" d="M10 19C14.9706 19 19 14.9706 19 10C19 5.02944 14.9706 1 10 1C5.02944 1 1 5.02944 1 10C1 14.9706 5.02944 19 10 19ZM10 20C15.5228 20 20 15.5228 20 10C20 4.47715 15.5228 0 10 0C4.47715 0 0 4.47715 0 10C0 15.5228 4.47715 20 10 20Z" fill="#AF7A57"/>
</g>
<defs>
<clipPath id="clip0">
<path d="M0 0H20V20H0V0Z" fill="white"/>
</clipPath>
</defs>

</g>%n%n
<g transform="translate(138.000000, 8.000000) scale(2.000000 2.000000) "> 

<g id="surface1">
<path style=" stroke:none;fill-rule:evenodd;fill:rgb(100%,100%,100%);fill-opacity:1;" d="M 6.953125 3.496094 L 6.085938 3.417969 L 6.328125 4.765625 L 6.40625 4.710938 L 8.757812 8 L 10 8 L 10 9 L 11 9 L 11 10 L 1 10 L 1 9 L 2 9 L 2 3.046875 L 1.453125 2.996094 L 1.546875 2.003906 L 7.046875 2.503906 Z M 3 8 L 4 8 L 4 3.230469 L 3 3.136719 Z M 5 8 L 5.902344 8 L 5.050781 3.324219 L 5 3.320312 Z M 6.917969 8 L 7.527344 8 L 6.707031 6.851562 Z M 6.917969 8 "/>
</g>

</g>%n%n</svg>