<svg width="300" height="40" viewBox="0 0 300 40" fill="none" xmlns="http://www.w3.org/2000/svg" xmlns:xlink="http://www.w3.org/1999/xlink">

<g transform="translate(130.000000, 0.000000) scale(2.000000 2.000000) "> 

<g clip-path="url(#clip0)">
<path opacity="0.958" d="M9.9994 1C14.9626 1 19 5.00182 19 10C19 14.9655 14.9626 19 9.9994 19C5.03739 19 1 14.9655 1 10C1 5.00182 5.03739 1 9.9994 1Z" fill="#BA9171"/>
<path opacity="0.95" fill-rule="evenodd" clip-rule="evenodd" d="M10 19C14.9706 19 19 14.9706 19 10C19 5.02944 14.9706 1 10 1C5.02944 1 1 5.02944 1 10C1 14.9706 5.02944 19 10 19ZM10 20C15.5228 20 20 15.5228 20 10C20 4.47715 15.5228 0 10 0C4.47715 0 0 4.47715 0 10C0 15.5228 4.47715 20 10 20Z" fill="#AF7A57"/>
</g>
<defs>
<clipPath id="clip0">
<path d="M0 0H20V20H0V0Z" fill="white"/>
</clipPath>
</defs>

</g>%n%n
<g transform="translate(138.000000, 8.000000) scale(0.750000 0.750000) "> 

<path fill-rule="nonzero" fill="rgb(100%, 100%, 100%)" fill-opacity="1" d="M 2.667969 2.667969 L 2.667969 16 L 29.332031 16 L 29.332031 2.667969 Z M 16 5.332031 C 18.210938 5.332031 20 7.125 20 9.332031 C 20 11.542969 18.210938 13.332031 16 13.332031 C 13.789062 13.332031 12 11.542969 12 9.332031 C 12 7.125 13.789062 5.332031 16 5.332031 Z M 8 6.667969 C 9.472656 6.667969 10.667969 7.859375 10.667969 9.332031 C 10.667969 10.804688 9.472656 12 8 12 C 6.527344 12 5.332031 10.804688 5.332031 9.332031 C 5.332031 7.859375 6.527344 6.667969 8 6.667969 Z M 24 6.667969 C 25.472656 6.667969 26.667969 7.859375 26.667969 9.332031 C 26.667969 10.804688 25.472656 12 24 12 C 22.527344 12 21.332031 10.804688 21.332031 9.332031 C 21.332031 7.859375 22.527344 6.667969 24 6.667969 Z M 24 6.667969 "/>
<path fill-rule="evenodd" fill="rgb(100%, 100%, 100%)" fill-opacity="1" d="M 2.667969 18.667969 L 2.667969 29.332031 L 5.332031 29.332031 L 5.332031 18.667969 Z M 2.667969 18.667969 "/>
<path fill-rule="evenodd" fill="rgb(100%, 100%, 100%)" fill-opacity="1" d="M 26.667969 18.667969 L 26.667969 29.332031 L 29.332031 29.332031 L 29.332031 18.667969 Z M 26.667969 18.667969 "/>
<path fill-rule="evenodd" fill="rgb(100%, 100%, 100%)" fill-opacity="1" d="M 8 24 L 8 26.667969 L 24 26.667969 L 24 24 Z M 8 24 "/>

</g>%n%n</svg>