<svg width="300" height="35" viewBox="0 0 300 35" fill="none" xmlns="http://www.w3.org/2000/svg">

<g transform="translate(135.000000, 2.000000) scale(1.875000 1.875000) "> 
<path style="clip-rule:evenodd;opacity:.8;fill:#ebe7e4;fill-opacity:1;fill-rule:evenodd;stroke-width:1;font-variant-east_asian:normal;vector-effect:none;stroke-linecap:butt;stroke-linejoin:miter;stroke-miterlimit:4;stroke-dasharray:none;stroke-dashoffset:0;stroke-opacity:1" id="path2-6-7" d="M8.13 1.45c-.68 0-1.17.48-1.46 1.07H4.93a1.22 1.22 0 0 0-1.21 1.21v3.2a1.22 1.22 0 0 0 1.21 1.22h1.45v5.18a1.22 1.22 0 0 0 1.22 1.22h1.07a1.22 1.22 0 0 0 1.21-1.22V9.21a1.22 1.22 0 0 0 .71-.35l2.67-2.67a1.22 1.22 0 0 0 0-1.72l-2.67-2.66a1.22 1.22 0 0 0-1.68-.03c-.25-.14-.48-.33-.78-.33z"/>
</g>


<g transform="translate(139.000000, 6.000000) scale(0.458333 0.458333) "> 

  <metadata
     id="metadata14">
    <rdf:RDF>
      <cc:Work
         rdf:about="">
        <dc:format>image/svg+xml</dc:format>
        <dc:type
           rdf:resource="http://purl.org/dc/dcmitype/StillImage" />
        <dc:title></dc:title>
      </cc:Work>
    </rdf:RDF>
  </metadata>
  <defs
     id="defs12" />
  <sodipodi:namedview
     pagecolor="#ffffff"
     bordercolor="#666666"
     borderopacity="1"
     objecttolerance="10"
     gridtolerance="10"
     guidetolerance="10"
     inkscape:pageopacity="0"
     inkscape:pageshadow="2"
     inkscape:window-width="1920"
     inkscape:window-height="1014"
     id="namedview10"
     showgrid="true"
     inkscape:zoom="6.9532167"
     inkscape:cx="9.2416699"
     inkscape:cy="23.562141"
     inkscape:window-x="1920"
     inkscape:window-y="0"
     inkscape:window-maximized="1"
     inkscape:current-layer="svg8">
    <inkscape:grid
       type="xygrid"
       id="grid821"
       spacingx="2"
       spacingy="2" />
  </sodipodi:namedview>
  <path
     opacity="0.7"
     fill-rule="evenodd"
     clip100-rule="evenodd"
     d="M24 4C25.1046 4 26 4.89543 26 6V44H22V6C22 4.89543 22.8954 4 24 4Z"
     fill="white"
     id="path2"
     style="fill:#ffffff;fill-opacity:1" />
  <path
     d="M 12,8 H 30 V 4 L 40,14 30,24 V 20 H 12 Z"
     id="path4"
     style="fill:#ffffff;fill-opacity:1"
     inkscape:connector-curvature="0"
     sodipodi:nodetypes="cccccccc" />

</g>

</svg>