<svg width="300" height="40" viewBox="0 0 300 40" fill="none" xmlns="http://www.w3.org/2000/svg" xmlns:xlink="http://www.w3.org/1999/xlink" version="1.1">

<g transform="translate(130.000000, 0.000000) scale(2.000000 2.000000) "> 

<g clip-path="url(#clip0)">
<path opacity="0.953" d="M9.99934 0C15.514 0 20 4.44646 20 10C20 15.5172 15.514 20 9.99934 20C4.48599 20 0 15.5172 0 10C0 4.44646 4.48599 0 9.99934 0V0Z" fill="#60BE60"/>
<path opacity="0.95" fill-rule="evenodd" clip-rule="evenodd" d="M10 19C14.9706 19 19 14.9706 19 10C19 5.02944 14.9706 1 10 1C5.02944 1 1 5.02944 1 10C1 14.9706 5.02944 19 10 19ZM10 20C15.5228 20 20 15.5228 20 10C20 4.47715 15.5228 0 10 0C4.47715 0 0 4.47715 0 10C0 15.5228 4.47715 20 10 20Z" fill="#398C39"/>
</g>
<defs>
<clipPath id="clip0">
<path d="M0 0H20V20H0V0Z" fill="white"/>
</clipPath>
</defs>

</g>%n%n
<g transform="translate(138.000000, 8.000000) scale(2.000000 2.000000) "> 

<g id="surface1">
<path style=" stroke:none;fill-rule:nonzero;fill:rgb(100%,100%,100%);fill-opacity:1;" d="M 6 1.574219 C 3.585938 1.574219 1.632812 3.523438 1.632812 5.9375 L 1.632812 7.394531 L 2.363281 7.394531 L 2.363281 5.9375 C 2.363281 3.914062 3.976562 2.300781 6 2.300781 C 8.023438 2.300781 9.636719 3.914062 9.636719 5.9375 L 9.636719 7.394531 L 10.367188 7.394531 L 10.367188 5.9375 C 10.367188 3.523438 8.414062 1.574219 6 1.574219 Z M 6 3.027344 C 4.386719 3.027344 3.089844 4.328125 3.089844 5.9375 L 3.089844 7.394531 L 3.816406 7.394531 L 3.816406 5.9375 C 3.816406 4.710938 4.773438 3.753906 6 3.753906 C 7.226562 3.753906 8.183594 4.710938 8.183594 5.9375 L 8.183594 7.394531 L 8.910156 7.394531 L 8.910156 5.9375 C 8.910156 4.328125 7.613281 3.027344 6 3.027344 Z M 6 4.484375 C 5.195312 4.484375 4.542969 5.132812 4.542969 5.9375 L 4.542969 7.394531 L 5.273438 7.394531 L 5.273438 5.9375 C 5.273438 5.503906 5.566406 5.210938 6 5.210938 C 6.433594 5.210938 6.726562 5.503906 6.726562 5.9375 L 6.726562 7.394531 L 7.457031 7.394531 L 7.457031 5.9375 C 7.457031 5.132812 6.804688 4.484375 6 4.484375 Z M 1.632812 7.796875 L 1.269531 9.253906 L 10.730469 9.253906 L 10.367188 7.796875 Z M 1.269531 9.699219 L 1.269531 10.425781 L 10.730469 10.425781 L 10.730469 9.699219 Z M 1.269531 9.699219 "/>
</g>

</g>%n%n</svg>