<svg width="300" height="40" viewBox="0 0 300 40" fill="none" xmlns="http://www.w3.org/2000/svg" xmlns:xlink="http://www.w3.org/1999/xlink">

<g transform="translate(130.000000, 0.000000) scale(2.500000 2.500000) "> 

<path opacity="0.812" d="M7.65233 0.421905C7.42311 0.432868 7.20352 0.517462 7.02619 0.663128C6.84886 0.808794 6.72323 1.00777 6.66796 1.2305C6.56928 1.6312 6.59295 1.93365 6.5664 2.27737C6.43373 2.34446 6.31655 2.43854 6.22237 2.55357C6.12819 2.6686 6.0591 2.80204 6.01952 2.94534C5.97812 3.097 6.02995 3.17837 6.0039 3.3223C5.80509 3.2104 5.57566 3.16519 5.34926 3.19329C5.12287 3.22139 4.91145 3.32133 4.74604 3.47844C4.58063 3.63555 4.46995 3.84154 4.43023 4.06619C4.39052 4.29083 4.42386 4.5223 4.52538 4.72659C4.59315 4.86317 4.60821 5.07123 4.51757 5.45901C4.42692 5.8468 4.23142 6.32776 4.10155 6.89651C3.75318 8.4223 4.2595 9.81137 5.30077 10.4551L4.64452 10.3203C4.46115 10.2809 4.33829 10.2875 4.30077 10.2871C3.51924 10.2801 2.79118 10.7744 2.60155 11.6035C2.56204 11.7758 2.67622 11.9527 2.6914 12.1328C2.69028 12.1337 2.68861 12.1339 2.68749 12.1348C2.55784 12.2342 2.42167 12.3573 2.28905 12.5509C2.28905 12.5515 2.28905 12.5522 2.28905 12.5529C2.04259 12.9139 1.94203 13.3865 2.02733 13.8204C2.02733 13.8211 2.02733 13.8218 2.02733 13.8224C2.18702 14.6321 2.90887 15.1974 3.71679 15.1974C3.80246 15.1974 3.90414 15.1922 4.02733 15.1701L4.02342 15.1721L8.65623 14.3576C8.81242 14.5499 9.03062 14.6818 9.27342 14.7307L11.3906 15.1584C11.4385 15.1687 11.5308 15.193 11.6914 15.1975C11.7012 15.1976 11.7109 15.1976 11.7207 15.1975H11.7461C12.5319 15.1975 13.2426 14.6429 13.4199 13.8733V13.8713C13.4694 13.6551 13.3569 13.4315 13.3144 13.2013C13.4418 13.0988 13.6206 13.081 13.7148 12.9435C13.7161 12.9422 13.7174 12.9409 13.7187 12.9396C13.9691 12.5707 14.0609 12.1024 13.9765 11.6721C13.9256 11.4119 13.8281 11.0774 13.5312 10.7658C13.2343 10.4542 12.7355 10.2747 12.3164 10.2873C12.2412 10.2895 12.1195 10.2934 11.9609 10.3244L10.7304 10.5431C10.8913 10.4268 11.0164 10.2678 11.0918 10.0842C11.2527 9.6905 11.8522 8.91486 11.9961 7.71487C12.14 6.51489 11.7293 5.05409 10.3926 3.22855C10.2793 3.07447 10.1268 2.95365 9.95086 2.87875C9.77494 2.80384 9.58211 2.7776 9.39257 2.80276C9.06774 2.36492 8.8649 2.22615 8.76171 1.35941C8.72937 1.09193 8.59701 0.84659 8.39122 0.672685C8.18543 0.49878 7.92146 0.409188 7.65233 0.421905V0.421905Z" fill="#EBE7E4"/>

</g>%n%n
<g transform="translate(138.000000, 8.000000) scale(0.750000 0.750000) "> 

<path fill-rule="evenodd" fill="rgb(34.901961%, 22.352941%, 2.352941%)" fill-opacity="1" d="M 11.761719 19.25 C 10.484375 18.53125 9.703125 16.84375 10.28125 14.324219 C 10.683594 12.554688 11.859375 10.375 10.957031 8.554688 C 12.050781 9.3125 13.1875 11.109375 14.335938 13.140625 C 14.414062 10.945312 13.273438 9.507812 14.09375 6.507812 C 14.65625 10.21875 16.910156 10.449219 18.054688 13.824219 C 18.539062 12.234375 19.554688 11.714844 19.058594 7.773438 C 24.035156 14.566406 21.199219 16.980469 20.207031 19.410156 L 20.527344 16.035156 C 18.964844 20.546875 17.714844 21.378906 16.585938 22.386719 C 17.21875 20.269531 17.46875 18.152344 16.183594 16.035156 C 15.875 19.511719 14.996094 18.789062 14.816406 21.582031 C 13.0625 20.257812 12.699219 18.898438 12.386719 16.679688 C 12.148438 16.9375 11.742188 18.023438 11.761719 19.25 Z M 11.761719 19.25 "/>
<path fill-rule="evenodd" fill="rgb(34.901961%, 22.352941%, 2.352941%)" fill-opacity="1" d="M 15.402344 3.027344 C 14.101562 8.3125 16.476562 8.265625 17.792969 11.371094 C 18.71875 6.582031 15.953125 7.660156 15.402344 3.027344 Z M 15.402344 3.027344 "/>
<path fill-rule="nonzero" fill="rgb(34.901961%, 22.352941%, 2.352941%)" fill-opacity="1" d="M 8.582031 22.757812 C 7.980469 22.753906 7.410156 23.15625 7.277344 23.734375 C 7.207031 24.054688 7.253906 24.398438 7.433594 24.675781 L 13.15625 23.664062 L 8.839844 22.773438 C 8.75 22.757812 8.667969 22.757812 8.582031 22.757812 Z M 24.6875 22.757812 C 24.578125 22.761719 24.453125 22.765625 24.328125 22.792969 L 6.882812 25.894531 C 6.839844 25.882812 6.535156 26.066406 6.335938 26.355469 C 6.148438 26.628906 6.085938 26.957031 6.148438 27.28125 C 6.265625 27.875 6.804688 28.308594 7.433594 28.308594 C 7.511719 28.308594 7.59375 28.304688 7.671875 28.292969 L 24.808594 25.277344 C 25.160156 25.210938 25.464844 25.015625 25.664062 24.726562 C 25.851562 24.453125 25.914062 24.125 25.851562 23.800781 C 25.738281 23.214844 25.445312 22.734375 24.6875 22.757812 Z M 24.617188 26.425781 L 18.964844 27.417969 L 23.195312 28.273438 C 23.277344 28.292969 23.359375 28.308594 23.4375 28.308594 L 23.488281 28.308594 C 24.105469 28.308594 24.621094 27.894531 24.753906 27.316406 C 24.828125 27.007812 24.78125 26.699219 24.617188 26.425781 Z M 24.617188 26.425781 "/>

</g>%n%n</svg>