<svg width="300" height="40" viewBox="0 0 300 40" fill="none" xmlns="http://www.w3.org/2000/svg" xmlns:xlink="http://www.w3.org/1999/xlink">

<g transform="translate(130.000000, 0.000000) scale(2.500000 2.500000) "> 

<path opacity="0.807" d="M4.05351 1.35828C3.60722 1.35829 3.10265 1.53737 2.76131 1.87382C2.42202 2.20828 2.23238 2.71618 2.23238 3.16601C2.23238 3.65112 2.45023 4.1681 2.78642 4.50842C2.87077 4.59382 3.02876 4.58878 3.13457 4.66074C2.94731 4.74823 2.70512 4.81438 2.38303 4.83314C2.12066 4.84834 1.87402 4.96321 1.69356 5.15425C1.51309 5.34529 1.41245 5.59807 1.41221 5.86087V6.21405C1.41237 6.46907 1.50711 6.71498 1.67808 6.90419C1.84906 7.09341 2.08413 7.2125 2.33783 7.23843L2.32946 7.90127C2.32926 7.91299 2.32926 7.92471 2.32946 7.93642L2.33448 8.20925L2.32946 8.50385C2.32846 8.53006 2.32846 8.55631 2.32946 8.58252C2.34163 8.80163 2.3462 8.95568 2.3462 8.98591C2.3462 9.06227 2.34352 9.153 2.3395 9.25038L2.23071 9.26544C1.97841 9.29949 1.74766 9.42573 1.58292 9.61983C1.41819 9.81392 1.33114 10.0621 1.33856 10.3166L1.35027 10.7267C1.35794 10.9947 1.46973 11.2491 1.66193 11.436C1.85413 11.6229 2.1116 11.7275 2.37968 11.7276C2.51869 11.7276 2.65218 11.7181 2.85672 11.7025C3.02173 11.69 3.19449 11.6841 3.37728 11.6841C3.79158 11.6841 4.04346 11.6955 4.3548 11.7025C4.22877 11.9804 4.0284 12.2257 4.0284 12.5394C4.0284 13.6399 4.88134 14.6535 6.03867 14.6535C6.05707 14.6535 6.05011 14.6523 6.06545 14.6518C6.16808 14.6787 6.20786 14.8058 6.3182 14.8058C6.69084 14.8058 6.85576 14.7284 7.10155 14.5999C7.22444 14.5356 7.35636 14.4563 7.50327 14.3019C7.65017 14.1476 7.84006 13.8724 7.84305 13.4834C7.84306 13.4806 7.84306 13.4778 7.84305 13.475V12.4674C7.86136 12.3912 7.8709 12.3131 7.87151 12.2347C7.87151 11.6174 8.05839 11.1744 8.32009 10.8873C8.5818 10.6002 8.92125 10.4337 9.43486 10.4337C9.94846 10.4337 10.2883 10.6004 10.5496 10.8873C10.8109 11.1742 10.9965 11.6171 10.9965 12.2347C10.9973 12.2954 11.0035 12.3559 11.015 12.4155V13.475C11.015 13.8665 11.2072 14.1466 11.3547 14.3019C11.5023 14.4572 11.6351 14.5356 11.7581 14.5999C12.0043 14.7284 12.1671 14.8057 12.5398 14.8057C12.6502 14.8057 12.6899 14.6787 12.7926 14.6517C12.8079 14.6522 12.801 14.6535 12.8193 14.6535C13.9767 14.6535 14.8313 13.6418 14.8313 12.5394C14.8314 11.6819 14.2325 11.0269 13.4587 10.7133C13.3298 10.5745 13.1865 10.4789 13.0051 10.4036C12.3356 8.97246 11.0776 7.85775 9.43486 7.85775C8.12598 7.85775 7.12638 8.62403 6.37176 9.61025C6.26927 9.50893 6.14668 9.43024 6.01189 9.37926C5.92031 9.34493 5.83731 9.33482 5.75244 9.31566L5.78927 7.10285C5.78987 7.09728 5.79043 7.0917 5.79094 7.08612C5.79093 6.24599 5.78156 5.55869 5.76416 5.01894C5.75555 4.75836 5.64849 4.51074 5.46454 4.32597C5.55931 4.2091 5.69587 4.13134 5.75746 3.99623C5.8744 3.73973 5.94994 3.44486 5.94995 3.1409C5.94994 2.65077 5.6976 2.16828 5.37583 1.86712C5.0222 1.53618 4.51119 1.35829 4.05351 1.35828Z" fill="#EBE7E4"/>

</g>%n%n
<g transform="translate(139.000000, 9.000000) scale(0.687500 0.687500) "> 

<path fill-rule="nonzero" fill="rgb(34.901961%, 22.352941%, 2.352941%)" fill-opacity="1" d="M 4.917969 4.746094 C 4.917969 4.214844 5.089844 3.78125 5.433594 3.441406 C 5.777344 3.101562 6.21875 2.933594 6.757812 2.933594 C 7.339844 2.933594 7.820312 3.113281 8.203125 3.46875 C 8.585938 3.828125 8.777344 4.234375 8.777344 4.683594 C 8.777344 5.019531 8.699219 5.351562 8.546875 5.6875 C 8.398438 6.019531 8.15625 6.289062 7.828125 6.488281 C 7.5 6.691406 7.160156 6.792969 6.816406 6.792969 C 6.347656 6.792969 5.914062 6.589844 5.515625 6.1875 C 5.117188 5.785156 4.917969 5.304688 4.917969 4.746094 Z M 2.855469 22.316406 L 2.828125 21.359375 L 4.492188 21.136719 C 4.738281 21.070312 4.90625 20.96875 5 20.835938 C 5.09375 20.703125 5.140625 20.40625 5.140625 19.945312 L 5.140625 19.78125 C 5.140625 19.664062 5.144531 19.453125 5.160156 19.140625 C 5.175781 18.832031 5.183594 18.558594 5.183594 18.324219 C 5.183594 18.136719 5.167969 17.78125 5.140625 17.25 L 5.152344 16.511719 L 5.140625 15.820312 L 5.167969 13.417969 C 5.167969 13.117188 5.140625 12.800781 5.082031 12.476562 C 4.972656 12.328125 4.777344 12.203125 4.492188 12.09375 C 4.207031 11.984375 3.710938 11.90625 3.003906 11.859375 L 3.003906 11.035156 C 4.015625 10.976562 4.902344 10.761719 5.667969 10.398438 C 6.191406 10.164062 6.753906 9.746094 7.363281 9.148438 L 8.351562 9.148438 C 8.390625 10.367188 8.410156 11.945312 8.410156 13.890625 L 8.304688 19.902344 C 8.304688 20.3125 8.324219 20.6875 8.363281 21.019531 C 8.667969 21.128906 9.164062 21.234375 9.851562 21.34375 C 10.117188 21.382812 10.328125 21.433594 10.484375 21.492188 L 10.472656 22.300781 C 10.207031 22.3125 10.007812 22.316406 9.882812 22.316406 C 9.734375 22.316406 9.507812 22.304688 9.203125 22.285156 C 8.203125 22.238281 6.863281 22.210938 5.183594 22.210938 C 4.703125 22.210938 4.234375 22.230469 3.785156 22.265625 C 3.332031 22.296875 3.023438 22.316406 2.855469 22.316406 Z M 2.855469 22.316406 "/>
<path fill-rule="nonzero" fill="rgb(34.901961%, 22.352941%, 2.352941%)" fill-opacity="1" d="M 27.210938 24.09375 C 27.191406 24.09375 27.171875 24.09375 27.15625 24.097656 C 27.046875 23.859375 26.820312 23.699219 26.558594 23.699219 C 26.460938 23.699219 26.371094 23.722656 26.289062 23.761719 C 25.421875 20.496094 22.621094 18.097656 19.3125 18.097656 C 16 18.097656 13.199219 20.5 12.335938 23.769531 C 12.25 23.726562 12.148438 23.699219 12.046875 23.699219 C 11.78125 23.699219 11.554688 23.859375 11.449219 24.097656 C 11.429688 24.09375 11.414062 24.09375 11.394531 24.09375 C 10.128906 24.09375 9.105469 25.222656 9.105469 26.617188 C 9.105469 28.011719 10.128906 29.140625 11.394531 29.140625 C 11.417969 29.140625 11.441406 29.136719 11.464844 29.132812 C 11.578125 29.351562 11.792969 29.496094 12.046875 29.496094 C 12.410156 29.496094 13.195312 29.183594 13.195312 28.800781 L 13.195312 25.90625 L 13.261719 25.90625 C 13.261719 22.015625 15.707031 19.296875 19.3125 19.296875 C 22.917969 19.296875 25.363281 22.015625 25.363281 25.90625 L 25.40625 25.90625 L 25.40625 28.800781 C 25.40625 29.183594 26.191406 29.496094 26.558594 29.496094 C 26.808594 29.496094 27.027344 29.351562 27.140625 29.132812 C 27.164062 29.136719 27.1875 29.140625 27.210938 29.140625 C 28.472656 29.140625 29.5 28.011719 29.5 26.617188 C 29.5 25.222656 28.472656 24.09375 27.210938 24.09375 Z M 27.210938 24.09375 "/>

</g>%n%n</svg>