<svg width="300" height="40" viewBox="0 0 300 40" fill="none" xmlns="http://www.w3.org/2000/svg" xmlns:xlink="http://www.w3.org/1999/xlink">

<g transform="translate(130.000000, 0.000000) scale(2.500000 2.500000) "> 
<path style="clip-rule:evenodd;opacity:.8;fill:#ebe7e4;fill-opacity:1;fill-rule:evenodd;stroke-width:1;font-variant-east_asian:normal;vector-effect:none;stroke-linecap:butt;stroke-linejoin:miter;stroke-miterlimit:4;stroke-dasharray:none;stroke-dashoffset:0;stroke-opacity:1" id="path2-6-7" d="M8.13 1.45c-.68 0-1.17.48-1.46 1.07H4.93a1.22 1.22 0 0 0-1.21 1.21v3.2a1.22 1.22 0 0 0 1.21 1.22h1.45v5.18a1.22 1.22 0 0 0 1.22 1.22h1.07a1.22 1.22 0 0 0 1.21-1.22V9.21a1.22 1.22 0 0 0 .71-.35l2.67-2.67a1.22 1.22 0 0 0 0-1.72l-2.67-2.66a1.22 1.22 0 0 0-1.68-.03c-.25-.14-.48-.33-.78-.33z"/>
</g>%n%n
<g transform="translate(139.000000, 9.000000) scale(0.687500 0.687500) "> 

<defs>
<filter id="filter-remove-color" x="0%" y="0%" width="100%" height="100%">
<feColorMatrix color-interpolation-filters="sRGB" values="0 0 0 0 1 0 0 0 0 1 0 0 0 0 1 0 0 0 1 0" />
</filter>
<mask id="mask-0">
<g filter="url(#filter-remove-color)">
<rect x="-3.2" y="-3.2" width="38.4" height="38.4" fill="rgb(0%, 0%, 0%)" fill-opacity="0.7"/>
</g>
</mask>
<clip100Path id="clip100-0">
<rect x="0" y="0" width="32" height="32"/>
</clip100Path>
<g id="source-6" clip100-path="url(#clip100-0)">
<path fill-rule="evenodd" fill="rgb(34.901961%, 22.352941%, 2.352941%)" fill-opacity="1" d="M 16 2.667969 C 16.738281 2.667969 17.332031 3.261719 17.332031 4 L 17.332031 29.332031 L 14.667969 29.332031 L 14.667969 4 C 14.667969 3.261719 15.261719 2.667969 16 2.667969 Z M 16 2.667969 "/>
</g>
</defs>
<g mask="url(#mask-0)">
<use xlink:href="#source-6"/>
</g>
<path fill-rule="nonzero" fill="rgb(34.901961%, 22.352941%, 2.352941%)" fill-opacity="1" d="M 8 5.332031 L 20 5.332031 L 20 2.667969 L 26.667969 9.332031 L 20 16 L 20 13.332031 L 8 13.332031 Z M 8 5.332031 "/>

</g>%n%n</svg>