<svg width="300" height="40" viewBox="0 0 300 40" fill="none" xmlns="http://www.w3.org/2000/svg" xmlns:xlink="http://www.w3.org/1999/xlink">

<g transform="translate(130.000000, 0.000000) scale(2.000000 2.000000) "> 

<g clip-path="url(#clip0)">
<path opacity="0.958" d="M9.9994 1C14.9626 1 19 5.00182 19 10C19 14.9655 14.9626 19 9.9994 19C5.03739 19 1 14.9655 1 10C1 5.00182 5.03739 1 9.9994 1Z" fill="#BA9171"/>
<path opacity="0.95" fill-rule="evenodd" clip-rule="evenodd" d="M10 19C14.9706 19 19 14.9706 19 10C19 5.02944 14.9706 1 10 1C5.02944 1 1 5.02944 1 10C1 14.9706 5.02944 19 10 19ZM10 20C15.5228 20 20 15.5228 20 10C20 4.47715 15.5228 0 10 0C4.47715 0 0 4.47715 0 10C0 15.5228 4.47715 20 10 20Z" fill="#AF7A57"/>
</g>
<defs>
<clipPath id="clip0">
<path d="M0 0H20V20H0V0Z" fill="white"/>
</clipPath>
</defs>

</g>%n%n
<g transform="translate(138.000000, 8.000000) scale(2.000000 2.000000) "> 

<defs>
<filter id="filter-remove-color" x="0%" y="0%" width="100%" height="100%">
<feColorMatrix color-interpolation-filters="sRGB" values="0 0 0 0 1 0 0 0 0 1 0 0 0 0 1 0 0 0 1 0" />
</filter>
<mask id="mask-0">
<g filter="url(#filter-remove-color)">
<rect x="-1.2" y="-1.2" width="14.4" height="14.4" fill="rgb(0%, 0%, 0%)" fill-opacity="0.5"/>
</g>
</mask>
<clip100Path id="clip100-0">
<rect x="0" y="0" width="12" height="12"/>
</clip100Path>
<g id="source-7" clip100-path="url(#clip100-0)">
<path fill-rule="nonzero" fill="rgb(100%, 100%, 100%)" fill-opacity="1" d="M 3 9 L 9 9 L 9 10 L 3 10 Z M 3 9 "/>
</g>
</defs>
<path fill-rule="evenodd" fill="rgb(100%, 100%, 100%)" fill-opacity="1" d="M 2.5 1 C 2.222656 1 2 1.222656 2 1.5 L 2 10.5 C 2 10.777344 2.222656 11 2.5 11 L 9.5 11 C 9.777344 11 10 10.777344 10 10.5 L 10 1.5 C 10 1.222656 9.777344 1 9.5 1 Z M 6.5 4.289062 C 6.800781 4.019531 7 3.535156 7 3.070312 C 7 2.382812 6.550781 2 6 2 C 5.449219 2 5 2.382812 5 3.070312 C 5 3.535156 5.199219 4.019531 5.5 4.289062 L 5.5 4.5 L 5.285156 4.714844 C 5.101562 4.898438 4.855469 5 4.597656 5 C 4.230469 5 3.894531 5.207031 3.730469 5.535156 L 3.5 6 L 4.5 7 L 4.5 8 L 7.5 8 L 7.5 7 L 8.5 6 L 8.269531 5.535156 C 8.105469 5.207031 7.769531 5 7.402344 5 C 7.144531 5 6.898438 4.898438 6.714844 4.714844 L 6.5 4.5 Z M 9 9 L 9 10 L 3 10 L 3 9 Z M 9 9 "/>
<g mask="url(#mask-0)">
<use xlink:href="#source-7"/>
</g>

</g>%n%n</svg>