<svg width="300" height="40" viewBox="0 0 300 40" fill="none" xmlns="http://www.w3.org/2000/svg" xmlns:xlink="http://www.w3.org/1999/xlink">

<g transform="translate(130.000000, 0.000000) scale(2.500000 2.500000) "> 

<path fill-rule="evenodd" clip-rule="evenodd" d="M3.28335 7.31745C2.80099 6.86169 2.5 6.21599 2.5 5.5V5C2.5 2.79086 4.29086 1 6.5 1C7.5233 1 8.45517 1.38386 9.16146 2.01422C9.27316 2.0048 9.38608 2 9.5 2C11.7091 2 13.5 3.79086 13.5 6V6.5C13.5 7.18697 13.2229 7.80923 12.7744 8.2611C12.9202 8.64623 13 9.06379 13 9.5V10C13 10.1118 12.9927 10.222 12.9784 10.3299C13.6136 11.038 14 11.9739 14 13C14 14.1046 13.1046 15 12 15H4C2.89543 15 2 14.1046 2 13C2 11.8554 2.48078 10.823 3.25141 10.0939C3.09036 9.7635 3 9.3923 3 9V8.75C3 8.24265 3.10075 7.75882 3.28335 7.31745Z" fill="#EBE7E4"/>

</g>%n%n
<g transform="translate(138.000000, 8.000000) scale(0.750000 0.750000) "> 

<defs>
<filter id="filter-remove-color" x="0%" y="0%" width="100%" height="100%">
<feColorMatrix color-interpolation-filters="sRGB" values="0 0 0 0 1 0 0 0 0 1 0 0 0 0 1 0 0 0 1 0" />
</filter>
<mask id="mask-0">
<g filter="url(#filter-remove-color)">
<rect x="-3.2" y="-3.2" width="38.4" height="38.4" fill="rgb(0%, 0%, 0%)" fill-opacity="0.5"/>
</g>
</mask>
<clip100Path id="clip100-0">
<rect x="0" y="0" width="32" height="32"/>
</clip100Path>
<g id="source-7" clip100-path="url(#clip100-0)">
<path fill-rule="nonzero" fill="rgb(0%, 57.254902%, 85.490196%)" fill-opacity="1" d="M 9.332031 8 C 9.332031 6.527344 10.527344 5.332031 12 5.332031 C 13.472656 5.332031 14.667969 6.527344 14.667969 8 L 14.667969 24 L 18.667969 24 L 18.667969 20 C 18.667969 19.261719 19.261719 18.667969 20 18.667969 C 20.738281 18.667969 21.332031 19.261719 21.332031 20 L 21.332031 21.332031 C 21.332031 22.070312 21.929688 22.667969 22.667969 22.667969 C 23.402344 22.667969 24 22.070312 24 21.332031 L 24 20 C 24 17.789062 22.210938 16 20 16 C 18.976562 16 18.039062 16.386719 17.332031 17.019531 L 17.332031 8 C 17.332031 5.054688 14.945312 2.667969 12 2.667969 C 9.054688 2.667969 6.667969 5.054688 6.667969 8 L 6.667969 9.332031 C 6.667969 10.070312 7.261719 10.667969 8 10.667969 C 8.738281 10.667969 9.332031 10.070312 9.332031 9.332031 Z M 9.332031 8 "/>
</g>
</defs>
<path fill-rule="nonzero" fill="rgb(0%, 57.254902%, 85.490196%)" fill-opacity="1" d="M 20 8 C 21.472656 8 22.667969 9.195312 22.667969 10.667969 L 22.667969 12 C 22.667969 12.738281 23.261719 13.332031 24 13.332031 C 24.738281 13.332031 25.332031 12.738281 25.332031 12 L 25.332031 10.667969 C 25.332031 7.722656 22.945312 5.332031 20 5.332031 C 17.054688 5.332031 14.667969 7.722656 14.667969 10.667969 L 14.667969 13.78125 C 14.058594 13.496094 13.382812 13.332031 12.667969 13.332031 C 10.089844 13.332031 8 15.421875 8 18 L 8 18.667969 C 8 19.402344 8.597656 20 9.332031 20 C 10.070312 20 10.667969 19.402344 10.667969 18.667969 L 10.667969 18 C 10.667969 16.894531 11.5625 16 12.667969 16 C 13.769531 16 14.667969 16.894531 14.667969 18 L 14.667969 24 L 10.667969 24 C 7.722656 24 5.332031 26.386719 5.332031 29.332031 L 26.667969 29.332031 C 26.667969 26.386719 24.277344 24 21.332031 24 L 17.332031 24 L 17.332031 10.667969 C 17.332031 9.195312 18.527344 8 20 8 Z M 20 8 "/>
<g mask="url(#mask-0)">
<use xlink:href="#source-7"/>
</g>

</g>%n%n</svg>