<svg width="300" height="40" viewBox="0 0 300 40" fill="none" xmlns="http://www.w3.org/2000/svg" xmlns:xlink="http://www.w3.org/1999/xlink">

<g transform="translate(130.000000, 0.000000) scale(2.500000 2.500000) "> 

 <path d="m3.3894 2.4115c-0.5101 0.00204-0.97296 0.4649-0.975 0.975-1.4e-6 6.24e-4 -1.4e-6 0.00125 0 0.00187v8.1919c-6.242e-4 0.51179 0.46311 0.97858 0.975 0.98062h0.04687c0.039902 1.0585 1.8429 1.2768 1.9594 0.0375v-0.0375h5.2088c-0.01044 1.0618 1.8434 1.279 1.9594 0.045v-0.045h0.0469c0.51249-2e-3 0.9767-0.47001 0.975-0.9825v-8.1919c-2e-3 -0.5101-0.4649-0.97296-0.975-0.975-6.41e-4 -1.3e-6 -0.0012-1.3e-6 -0.0019 0h-9.2175c-6.24e-4 -1.2e-6 -0.00125-1.2e-6 -0.00187 0z" color="#000000" color-rendering="auto" dominant-baseline="auto" fill="#ebe7e4" fill-rule="evenodd" image-rendering="auto" opacity=".819" shape-rendering="auto" solid-color="#000000" style="font-feature-settings:normal;font-variant-alternates:normal;font-variant-caps:normal;font-variant-ligatures:normal;font-variant-numeric:normal;font-variant-position:normal;isolation:auto;mix-blend-mode:normal;shape-padding:0;text-decoration-color:#000000;text-decoration-line:none;text-decoration-style:solid;text-indent:0;text-orientation:mixed;text-transform:none;white-space:normal"/>

</g>%n%n
<g transform="translate(139.000000, 9.000000) scale(0.687500 0.687500) "> 

<path fill-rule="evenodd" fill="rgb(34.901961%, 22.352941%, 2.352941%)" fill-opacity="1" d="M 25.3125 24.011719 C 24.578125 24.023438 23.988281 24.628906 24 25.367188 L 24 28 C 24 28.738281 24.597656 29.332031 25.332031 29.332031 C 26.070312 29.332031 26.667969 28.738281 26.667969 28 L 26.667969 25.367188 C 26.671875 25.007812 26.53125 24.660156 26.277344 24.402344 C 26.019531 24.148438 25.675781 24.007812 25.3125 24.011719 Z M 25.3125 24.011719 "/>
<path fill-rule="evenodd" fill="rgb(34.901961%, 22.352941%, 2.352941%)" fill-opacity="1" d="M 6.648438 24 C 5.910156 24.011719 5.320312 24.617188 5.332031 25.351562 L 5.332031 27.980469 C 5.332031 28.714844 5.929688 29.3125 6.667969 29.3125 C 7.402344 29.3125 8 28.714844 8 27.980469 L 8 25.351562 C 8.003906 24.992188 7.863281 24.644531 7.609375 24.390625 C 7.355469 24.136719 7.007812 23.996094 6.648438 24 Z M 6.648438 24 "/>
<path fill-rule="nonzero" fill="rgb(34.901961%, 22.352941%, 2.352941%)" fill-opacity="1" d="M 4 2.667969 C 3.261719 2.667969 2.667969 3.261719 2.667969 4 L 2.667969 25.332031 C 2.667969 26.070312 3.261719 26.667969 4 26.667969 L 28 26.667969 C 28.738281 26.667969 29.332031 26.070312 29.332031 25.332031 L 29.332031 4 C 29.332031 3.261719 28.738281 2.667969 28 2.667969 Z M 5.332031 5.332031 L 26.667969 5.332031 L 26.667969 24 L 5.332031 24 Z M 5.332031 5.332031 "/>
<path fill-rule="evenodd" fill="rgb(34.901961%, 22.352941%, 2.352941%)" fill-opacity="1" d="M 23.960938 6.707031 C 23.960938 6.707031 15.476562 6.054688 11.5625 9.96875 C 7.957031 13.574219 8.011719 16.40625 10.285156 19.074219 C 12.867188 16.492188 21.339844 9.308594 21.339844 9.308594 C 21.339844 9.308594 14.171875 17.796875 11.59375 20.378906 C 14.261719 22.65625 17.089844 22.710938 20.699219 19.101562 C 24.613281 15.1875 23.960938 6.707031 23.960938 6.707031 Z M 11.589844 20.378906 C 11.363281 20.1875 11.136719 19.980469 10.910156 19.753906 C 10.683594 19.53125 10.480469 19.304688 10.285156 19.074219 L 8.296875 21.0625 C 7.402344 21.933594 8.730469 23.265625 9.601562 22.367188 Z M 11.589844 20.378906 "/>

</g>%n%n</svg>