<svg width="300" height="40" viewBox="0 0 300 40" fill="none" xmlns="http://www.w3.org/2000/svg" xmlns:xlink="http://www.w3.org/1999/xlink">

<g transform="translate(130.000000, 0.000000) scale(2.500000 2.500000) "> 

<path opacity="0.812" d="M7.65233 0.421905C7.42311 0.432868 7.20352 0.517462 7.02619 0.663128C6.84886 0.808794 6.72323 1.00777 6.66796 1.2305C6.56928 1.6312 6.59295 1.93365 6.5664 2.27737C6.43373 2.34446 6.31655 2.43854 6.22237 2.55357C6.12819 2.6686 6.0591 2.80204 6.01952 2.94534C5.97812 3.097 6.02995 3.17837 6.0039 3.3223C5.80509 3.2104 5.57566 3.16519 5.34926 3.19329C5.12287 3.22139 4.91145 3.32133 4.74604 3.47844C4.58063 3.63555 4.46995 3.84154 4.43023 4.06619C4.39052 4.29083 4.42386 4.5223 4.52538 4.72659C4.59315 4.86317 4.60821 5.07123 4.51757 5.45901C4.42692 5.8468 4.23142 6.32776 4.10155 6.89651C3.75318 8.4223 4.2595 9.81137 5.30077 10.4551L4.64452 10.3203C4.46115 10.2809 4.33829 10.2875 4.30077 10.2871C3.51924 10.2801 2.79118 10.7744 2.60155 11.6035C2.56204 11.7758 2.67622 11.9527 2.6914 12.1328C2.69028 12.1337 2.68861 12.1339 2.68749 12.1348C2.55784 12.2342 2.42167 12.3573 2.28905 12.5509C2.28905 12.5515 2.28905 12.5522 2.28905 12.5529C2.04259 12.9139 1.94203 13.3865 2.02733 13.8204C2.02733 13.8211 2.02733 13.8218 2.02733 13.8224C2.18702 14.6321 2.90887 15.1974 3.71679 15.1974C3.80246 15.1974 3.90414 15.1922 4.02733 15.1701L4.02342 15.1721L8.65623 14.3576C8.81242 14.5499 9.03062 14.6818 9.27342 14.7307L11.3906 15.1584C11.4385 15.1687 11.5308 15.193 11.6914 15.1975C11.7012 15.1976 11.7109 15.1976 11.7207 15.1975H11.7461C12.5319 15.1975 13.2426 14.6429 13.4199 13.8733V13.8713C13.4694 13.6551 13.3569 13.4315 13.3144 13.2013C13.4418 13.0988 13.6206 13.081 13.7148 12.9435C13.7161 12.9422 13.7174 12.9409 13.7187 12.9396C13.9691 12.5707 14.0609 12.1024 13.9765 11.6721C13.9256 11.4119 13.8281 11.0774 13.5312 10.7658C13.2343 10.4542 12.7355 10.2747 12.3164 10.2873C12.2412 10.2895 12.1195 10.2934 11.9609 10.3244L10.7304 10.5431C10.8913 10.4268 11.0164 10.2678 11.0918 10.0842C11.2527 9.6905 11.8522 8.91486 11.9961 7.71487C12.14 6.51489 11.7293 5.05409 10.3926 3.22855C10.2793 3.07447 10.1268 2.95365 9.95086 2.87875C9.77494 2.80384 9.58211 2.7776 9.39257 2.80276C9.06774 2.36492 8.8649 2.22615 8.76171 1.35941C8.72937 1.09193 8.59701 0.84659 8.39122 0.672685C8.18543 0.49878 7.92146 0.409188 7.65233 0.421905V0.421905Z" fill="#EBE7E4"/>

</g>%n%n
<g transform="translate(138.000000, 8.000000) scale(2.000000 2.000000) "> 

<path fill-rule="evenodd" fill="rgb(34.901961%, 22.352941%, 2.352941%)" fill-opacity="1" d="M 4.410156 7.21875 C 3.929688 6.949219 3.640625 6.316406 3.855469 5.371094 C 4.007812 4.707031 4.449219 3.890625 4.109375 3.207031 C 4.519531 3.492188 4.945312 4.167969 5.375 4.925781 C 5.40625 4.105469 4.976562 3.566406 5.285156 2.441406 C 5.496094 3.832031 6.339844 3.917969 6.769531 5.183594 C 6.953125 4.589844 7.332031 4.394531 7.148438 2.914062 C 9.011719 5.460938 7.949219 6.367188 7.578125 7.28125 L 7.699219 6.011719 C 7.113281 7.703125 6.644531 8.015625 6.21875 8.394531 C 6.457031 7.601562 6.550781 6.808594 6.070312 6.011719 C 5.953125 7.316406 5.625 7.046875 5.558594 8.09375 C 4.898438 7.597656 4.761719 7.085938 4.644531 6.253906 C 4.554688 6.351562 4.402344 6.757812 4.410156 7.21875 Z M 4.410156 7.21875 "/>
<path fill-rule="evenodd" fill="rgb(34.901961%, 22.352941%, 2.352941%)" fill-opacity="1" d="M 5.773438 1.136719 C 5.289062 3.117188 6.179688 3.101562 6.671875 4.265625 C 7.019531 2.46875 5.980469 2.871094 5.773438 1.136719 Z M 5.773438 1.136719 "/>
<path fill-rule="nonzero" fill="rgb(34.901961%, 22.352941%, 2.352941%)" fill-opacity="1" d="M 3.21875 8.535156 C 2.992188 8.53125 2.777344 8.683594 2.730469 8.898438 C 2.703125 9.019531 2.71875 9.148438 2.789062 9.253906 L 4.933594 8.875 L 3.3125 8.539062 C 3.28125 8.535156 3.25 8.535156 3.21875 8.535156 Z M 9.257812 8.535156 C 9.21875 8.535156 9.171875 8.539062 9.121094 8.546875 L 2.582031 9.710938 C 2.566406 9.707031 2.449219 9.773438 2.375 9.882812 C 2.304688 9.988281 2.28125 10.109375 2.304688 10.230469 C 2.347656 10.453125 2.550781 10.617188 2.789062 10.617188 C 2.816406 10.617188 2.847656 10.613281 2.878906 10.609375 L 9.300781 9.480469 C 9.433594 9.453125 9.550781 9.382812 9.625 9.273438 C 9.695312 9.171875 9.71875 9.046875 9.695312 8.925781 C 9.652344 8.707031 9.542969 8.527344 9.257812 8.535156 Z M 9.230469 9.910156 L 7.113281 10.28125 L 8.699219 10.601562 C 8.730469 10.609375 8.757812 10.613281 8.789062 10.617188 L 8.808594 10.617188 C 9.039062 10.617188 9.234375 10.460938 9.285156 10.242188 C 9.308594 10.128906 9.292969 10.011719 9.230469 9.910156 Z M 9.230469 9.910156 "/>

</g>%n%n</svg>