<svg width="300" height="40" viewBox="0 0 300 40" fill="none" xmlns="http://www.w3.org/2000/svg" xmlns:xlink="http://www.w3.org/1999/xlink">

<g transform="translate(130.000000, 0.000000) scale(2.000000 2.000000) "> 

<g clip-path="url(#clip0)">
<path opacity="0.958" d="M9.9994 1C14.9626 1 19 5.00182 19 10C19 14.9655 14.9626 19 9.9994 19C5.03739 19 1 14.9655 1 10C1 5.00182 5.03739 1 9.9994 1Z" fill="#BA9171"/>
<path opacity="0.95" fill-rule="evenodd" clip-rule="evenodd" d="M10 19C14.9706 19 19 14.9706 19 10C19 5.02944 14.9706 1 10 1C5.02944 1 1 5.02944 1 10C1 14.9706 5.02944 19 10 19ZM10 20C15.5228 20 20 15.5228 20 10C20 4.47715 15.5228 0 10 0C4.47715 0 0 4.47715 0 10C0 15.5228 4.47715 20 10 20Z" fill="#AF7A57"/>
</g>
<defs>
<clipPath id="clip0">
<path d="M0 0H20V20H0V0Z" fill="white"/>
</clipPath>
</defs>

</g>%n%n
<g transform="translate(138.000000, 8.000000) scale(2.000000 2.000000) "> 

<path fill-rule="nonzero" fill="rgb(100%, 100%, 100%)" fill-opacity="1" d="M 9.5 8.195312 L 9.5 5.671875 L 9.953125 5.671875 L 9.953125 5.128906 L 8.429688 5.128906 L 8.429688 3.824219 L 9.011719 3.824219 L 9.011719 3.277344 L 6.996094 3.277344 L 6.996094 2.824219 L 6.453125 1.339844 L 5.472656 1.339844 L 5.003906 2.824219 L 5.003906 3.277344 L 2.988281 3.277344 L 2.988281 3.824219 L 3.570312 3.824219 L 3.570312 5.128906 L 2.046875 5.128906 L 2.046875 5.671875 L 2.5 5.671875 L 2.5 8.195312 L 1.285156 8.195312 L 1.285156 8.738281 L 2.027344 8.738281 L 2.027344 10.660156 L 9.972656 10.660156 L 9.972656 8.738281 L 10.714844 8.738281 L 10.714844 8.195312 Z M 3.433594 7.386719 L 3.125 7.386719 L 3.125 6.660156 L 3.433594 6.660156 Z M 4.34375 4.800781 L 4.035156 4.800781 L 4.035156 4.074219 L 4.34375 4.074219 Z M 5.648438 3.164062 L 6.351562 3.164062 L 6.351562 4.800781 L 5.648438 4.800781 Z M 6.152344 6.660156 L 6.152344 7.386719 L 5.84375 7.386719 L 5.84375 6.660156 Z M 5.648438 7.386719 L 5.339844 7.386719 L 5.339844 6.660156 L 5.648438 6.660156 Z M 6.351562 10.449219 L 5.648438 10.449219 L 5.648438 8.8125 L 6.351562 8.8125 Z M 6.632812 7.386719 L 6.320312 7.386719 L 6.320312 6.660156 L 6.632812 6.660156 Z M 7.945312 4.800781 L 7.632812 4.800781 L 7.632812 4.074219 L 7.945312 4.074219 Z M 8.773438 7.386719 L 8.460938 7.386719 L 8.460938 6.660156 L 8.773438 6.660156 Z M 8.773438 7.386719 "/>

</g>%n%n</svg>