<svg width="40" height="40" viewBox="0 0 40 40" fill="none" xmlns="http://www.w3.org/2000/svg" >

<g transform="translate(0.000000, 0.000000) scale(2.000000 2.000000) "> 

<g clip-path="url(#clip0)">
<path opacity="0.958" d="M9.9994 1C14.9626 1 19 5.00182 19 10C19 14.9655 14.9626 19 9.9994 19C5.03739 19 1 14.9655 1 10C1 5.00182 5.03739 1 9.9994 1Z" fill="#BA9171"/>
<path opacity="0.95" fill-rule="evenodd" clip-rule="evenodd" d="M10 19C14.9706 19 19 14.9706 19 10C19 5.02944 14.9706 1 10 1C5.02944 1 1 5.02944 1 10C1 14.9706 5.02944 19 10 19ZM10 20C15.5228 20 20 15.5228 20 10C20 4.47715 15.5228 0 10 0C4.47715 0 0 4.47715 0 10C0 15.5228 4.47715 20 10 20Z" fill="#AF7A57"/>
</g>
<defs>
<clipPath id="clip0">
<path d="M0 0H20V20H0V0Z" fill="white"/>
</clipPath>
</defs>

</g>


<g transform="translate(8.000000, 8.000000) scale(0.500000 0.500000) "> 

<path fill-rule="evenodd" clip100-rule="evenodd" d="M24 4L12 12V44H36V12L24 4ZM17.4142 18.5858C16.6332 17.8047 15.3668 17.8047 14.5858 18.5858C13.8047 19.3668 13.8047 20.6332 14.5858 21.4142L24 30.8284L28 26.8284L30.5858 29.4142C31.3668 30.1953 32.6332 30.1953 33.4142 29.4142C34.1953 28.6332 34.1953 27.3668 33.4142 26.5858L30.8284 24L33.4142 21.4142C34.1953 20.6332 34.1953 19.3668 33.4142 18.5858C32.6332 17.8047 31.3668 17.8047 30.5858 18.5858L28 21.1716L25.4142 18.5858C24.6332 17.8047 23.3668 17.8047 22.5858 18.5858C21.8047 19.3668 21.8047 20.6332 22.5858 21.4142L25.1716 24L24 25.1716L17.4142 18.5858Z" fill="#ffffff"/>

</g>

</svg>