<svg width="300" height="40" viewBox="0 0 300 40" fill="none" xmlns="http://www.w3.org/2000/svg" xmlns:xlink="http://www.w3.org/1999/xlink">

<g transform="translate(130.000000, 0.000000) scale(2.000000 2.000000) "> 

<g clip-path="url(#clip0)">
<path opacity="0.958" d="M9.9994 1C14.9626 1 19 5.00182 19 10C19 14.9655 14.9626 19 9.9994 19C5.03739 19 1 14.9655 1 10C1 5.00182 5.03739 1 9.9994 1Z" fill="#BA9171"/>
<path opacity="0.95" fill-rule="evenodd" clip-rule="evenodd" d="M10 19C14.9706 19 19 14.9706 19 10C19 5.02944 14.9706 1 10 1C5.02944 1 1 5.02944 1 10C1 14.9706 5.02944 19 10 19ZM10 20C15.5228 20 20 15.5228 20 10C20 4.47715 15.5228 0 10 0C4.47715 0 0 4.47715 0 10C0 15.5228 4.47715 20 10 20Z" fill="#AF7A57"/>
</g>
<defs>
<clipPath id="clip0">
<path d="M0 0H20V20H0V0Z" fill="white"/>
</clipPath>
</defs>

</g>%n%n
<g transform="translate(138.000000, 8.000000) scale(0.750000 0.750000) "> 

<path fill-rule="nonzero" fill="rgb(100%, 100%, 100%)" fill-opacity="1" d="M 16 2.007812 C 14.921875 2.007812 14.378906 2.753906 14.484375 4.257812 C 14.484375 4.582031 14.613281 4.695312 14.722656 4.695312 C 14.828125 5.34375 15.125 5.542969 15.125 5.976562 C 15.125 6.296875 14.910156 6.433594 14.050781 6.648438 C 13.511719 6.863281 12.890625 7.484375 12.570312 8.128906 C 12.136719 9.097656 11.695312 10.078125 11.695312 10.617188 C 11.695312 11.15625 12.890625 12.125 13.644531 12.769531 C 13.644531 12.769531 13.402344 14.277344 14.050781 17.078125 C 14.15625 19.335938 14.585938 21.707031 14.585938 23.535156 L 17.277344 23.535156 C 17.277344 21.707031 17.707031 19.335938 17.816406 17.078125 C 18.460938 14.277344 18.253906 12.769531 18.253906 12.769531 C 19.113281 12.125 20.304688 11.15625 20.304688 10.617188 C 20.304688 10.078125 19.863281 9.125 19.429688 8.261719 C 19.109375 7.507812 18.488281 6.855469 17.949219 6.75 C 17.199219 6.425781 16.875 6.433594 16.875 6.109375 C 16.875 5.679688 17.171875 5.550781 17.277344 4.796875 C 17.386719 4.691406 17.515625 4.574219 17.515625 4.359375 C 17.621094 2.746094 17.078125 2.007812 16 2.007812 Z M 12.769531 24.613281 C 12.230469 24.613281 11.695312 25.042969 11.695312 25.6875 L 11.695312 26.765625 L 20.304688 26.765625 L 20.304688 25.6875 C 20.304688 25.042969 19.875 24.613281 19.230469 24.613281 Z M 11.492188 27.839844 C 10.414062 27.839844 9.542969 28.714844 9.542969 29.792969 L 9.542969 29.996094 L 22.457031 29.996094 L 22.457031 29.792969 C 22.457031 28.714844 21.589844 27.839844 20.40625 27.839844 Z M 11.492188 27.839844 "/>

</g>%n%n</svg>