<svg width="300" height="40" viewBox="0 0 300 40" fill="none" xmlns="http://www.w3.org/2000/svg" xmlns:xlink="http://www.w3.org/1999/xlink">

<g transform="translate(130.000000, 0.000000) scale(2.000000 2.000000) "> 

<g clip-path="url(#clip0)">
<path opacity="0.953" d="M9.99934 0C15.514 0 20 4.44646 20 10C20 15.5172 15.514 20 9.99934 20C4.48599 20 0 15.5172 0 10C0 4.44646 4.48599 0 9.99934 0V0Z" fill="#60BE60"/>
<path opacity="0.95" fill-rule="evenodd" clip-rule="evenodd" d="M10 19C14.9706 19 19 14.9706 19 10C19 5.02944 14.9706 1 10 1C5.02944 1 1 5.02944 1 10C1 14.9706 5.02944 19 10 19ZM10 20C15.5228 20 20 15.5228 20 10C20 4.47715 15.5228 0 10 0C4.47715 0 0 4.47715 0 10C0 15.5228 4.47715 20 10 20Z" fill="#398C39"/>
</g>
<defs>
<clipPath id="clip0">
<path d="M0 0H20V20H0V0Z" fill="white"/>
</clipPath>
</defs>

</g>%n%n
<g transform="translate(138.000000, 8.000000) scale(0.750000 0.750000) "> 

<path fill-rule="nonzero" fill="rgb(100%, 100%, 100%)" fill-opacity="1" d="M 16 4.191406 C 9.5625 4.191406 4.359375 9.398438 4.359375 15.835938 L 4.359375 19.714844 L 6.300781 19.714844 L 6.300781 15.835938 C 6.300781 10.4375 10.601562 6.132812 16 6.132812 C 21.398438 6.132812 25.699219 10.4375 25.699219 15.835938 L 25.699219 19.714844 L 27.640625 19.714844 L 27.640625 15.835938 C 27.640625 9.398438 22.4375 4.191406 16 4.191406 Z M 16 8.074219 C 11.703125 8.074219 8.238281 11.535156 8.238281 15.835938 L 8.238281 19.714844 L 10.179688 19.714844 L 10.179688 15.835938 C 10.179688 12.566406 12.730469 10.015625 16 10.015625 C 19.269531 10.015625 21.820312 12.566406 21.820312 15.835938 L 21.820312 19.714844 L 23.761719 19.714844 L 23.761719 15.835938 C 23.761719 11.535156 20.296875 8.074219 16 8.074219 Z M 16 11.953125 C 13.855469 11.953125 12.121094 13.691406 12.121094 15.835938 L 12.121094 19.714844 L 14.058594 19.714844 L 14.058594 15.835938 C 14.058594 14.679688 14.84375 13.894531 16 13.894531 C 17.15625 13.894531 17.941406 14.679688 17.941406 15.835938 L 17.941406 19.714844 L 19.878906 19.714844 L 19.878906 15.835938 C 19.878906 13.691406 18.144531 11.953125 16 11.953125 Z M 4.359375 20.796875 L 3.386719 24.675781 L 28.613281 24.675781 L 27.640625 20.796875 Z M 3.386719 25.867188 L 3.386719 27.808594 L 28.613281 27.808594 L 28.613281 25.867188 Z M 3.386719 25.867188 "/>

</g>%n%n</svg>