<svg width="300" height="40" viewBox="0 0 300 40" fill="none" xmlns="http://www.w3.org/2000/svg" xmlns:xlink="http://www.w3.org/1999/xlink" version="1.1">

<g transform="translate(130.000000, 0.000000) scale(2.500000 2.500000) "> 

  <metadata
     id="metadata10">
    <rdf:RDF>
      <cc:Work
         rdf:about="">
        <dc:format>image/svg+xml</dc:format>
        <dc:type
           rdf:resource="http://purl.org/dc/dcmitype/StillImage" />
      </cc:Work>
    </rdf:RDF>
  </metadata>
  <defs
     id="defs8" />
  <sodipodi:namedview
     pagecolor="#ffffff"
     bordercolor="#666666"
     borderopacity="1"
     objecttolerance="10"
     gridtolerance="10"
     guidetolerance="10"
     inkscape:pageopacity="0"
     inkscape:pageshadow="2"
     inkscape:window-width="1920"
     inkscape:window-height="1014"
     id="namedview6"
     showgrid="false"
     inkscape:zoom="32"
     inkscape:cx="6.9035398"
     inkscape:cy="6.8863088"
     inkscape:window-x="1920"
     inkscape:window-y="0"
     inkscape:window-maximized="1"
     inkscape:current-layer="svg4" />
  <path
     style="color:#000000;font-style:normal;font-variant:normal;font-weight:normal;font-stretch:normal;font-size:medium;line-height:normal;font-family:sans-serif;font-variant-ligatures:normal;font-variant-position:normal;font-variant-caps:normal;font-variant-numeric:normal;font-variant-alternates:normal;font-feature-settings:normal;text-indent:0;text-align:start;text-decoration:none;text-decoration-line:none;text-decoration-style:solid;text-decoration-color:#000000;letter-spacing:normal;word-spacing:normal;text-transform:none;writing-mode:lr-tb;direction:ltr;text-orientation:mixed;dominant-baseline:auto;baseline-shift:baseline;text-anchor:start;white-space:normal;shape-padding:0;clip-rule:nonzero;display:inline;overflow:visible;visibility:visible;opacity:0.819;isolation:auto;mix-blend-mode:normal;color-interpolation:sRGB;color-interpolation-filters:linearRGB;solid-color:#000000;solid-opacity:1;vector-effect:none;fill:#ebe7e4;fill-opacity:1;fill-rule:evenodd;stroke:none;stroke-width:1;stroke-linecap:butt;stroke-linejoin:miter;stroke-miterlimit:4;stroke-dasharray:none;stroke-dashoffset:0;stroke-opacity:1;color-rendering:auto;image-rendering:auto;shape-rendering:auto;text-rendering:auto;enable-background:accumulate"
     d="m 3.3893755,2.4115484 c -0.5100977,0.00204 -0.9729608,0.4649023 -0.975,0.975 -1.4e-6,6.24e-4 -1.4e-6,0.00125 0,0.00187 v 8.1918756 c -6.242e-4,0.511792 0.4631064,0.978577 0.975,0.980624 h 0.00187 0.045 c 0.039902,1.058546 1.8428803,1.276773 1.959375,0.0375 v -0.0375 h 5.2087505 c -0.01044,1.061758 1.843373,1.279008 1.959375,0.045 v -0.045 h 0.045 0.0019 c 0.512487,-0.002 0.976705,-0.470011 0.975,-0.9825 v -8.1899966 -0.00187 c -0.002,-0.5100976 -0.464903,-0.9729606 -0.975,-0.975 -6.41e-4,-1.3e-6 -0.0012,-1.3e-6 -0.0019,0 H 3.3912505 c -6.24e-4,-1.2e-6 -0.00125,-1.2e-6 -0.00187,0 z"
     id="path824-3"
     inkscape:connector-curvature="0"
     sodipodi:nodetypes="cccccccccccccccccccccc" />

</g>%n%n
<g transform="translate(139.000000, 9.000000) scale(1.833333 1.833333) "> 

<g id="surface1">
<path style=" stroke:none;fill-rule:evenodd;fill:rgb(34.901962%,22.352941%,2.352941%);fill-opacity:1;" d="M 9.492188 9.003906 C 9.214844 9.007812 8.996094 9.238281 9 9.511719 L 9 10.5 C 9 10.777344 9.222656 11 9.5 11 C 9.777344 11 10 10.777344 10 10.5 L 10 9.511719 C 10.003906 9.378906 9.949219 9.246094 9.855469 9.152344 C 9.757812 9.054688 9.628906 9.003906 9.492188 9.003906 Z M 9.492188 9.003906 "/>
<path style=" stroke:none;fill-rule:evenodd;fill:rgb(34.901962%,22.352941%,2.352941%);fill-opacity:1;" d="M 2.492188 9 C 2.214844 9.003906 1.996094 9.230469 2 9.507812 L 2 10.492188 C 2 10.769531 2.222656 10.992188 2.5 10.992188 C 2.777344 10.992188 3 10.769531 3 10.492188 L 3 9.507812 C 3.003906 9.371094 2.949219 9.242188 2.855469 9.144531 C 2.757812 9.050781 2.628906 8.996094 2.492188 9 Z M 2.492188 9 "/>
<path style=" stroke:none;fill-rule:nonzero;fill:rgb(34.901962%,22.352941%,2.352941%);fill-opacity:1;" d="M 1.5 1 C 1.222656 1 1 1.222656 1 1.5 L 1 9.5 C 1 9.777344 1.222656 10 1.5 10 L 10.5 10 C 10.777344 10 11 9.777344 11 9.5 L 11 1.5 C 11 1.222656 10.777344 1 10.5 1 Z M 2 2 L 10 2 L 10 9 L 2 9 Z M 2 2 "/>
<path style=" stroke:none;fill-rule:evenodd;fill:rgb(34.901962%,22.352941%,2.352941%);fill-opacity:1;" d="M 8.984375 2.515625 C 8.984375 2.515625 5.804688 2.269531 4.335938 3.738281 C 2.984375 5.089844 3.003906 6.152344 3.855469 7.152344 C 4.824219 6.183594 8.003906 3.488281 8.003906 3.488281 C 8.003906 3.488281 5.316406 6.675781 4.347656 7.644531 C 5.347656 8.496094 6.410156 8.515625 7.761719 7.164062 C 9.230469 5.695312 8.984375 2.515625 8.984375 2.515625 Z M 4.347656 7.644531 C 4.261719 7.570312 4.175781 7.492188 4.089844 7.410156 C 4.007812 7.324219 3.929688 7.238281 3.855469 7.152344 L 3.113281 7.898438 C 2.777344 8.226562 3.273438 8.722656 3.601562 8.386719 Z M 4.347656 7.644531 "/>
</g>

</g>%n%n</svg>