<svg width="300" height="40" viewBox="0 0 300 40" fill="none" xmlns="http://www.w3.org/2000/svg" xmlns:xlink="http://www.w3.org/1999/xlink">

<g transform="translate(130.000000, 0.000000) scale(2.000000 2.000000) "> 

<g clip-path="url(#clip0)">
<path opacity="0.958" d="M9.9994 1C14.9626 1 19 5.00182 19 10C19 14.9655 14.9626 19 9.9994 19C5.03739 19 1 14.9655 1 10C1 5.00182 5.03739 1 9.9994 1Z" fill="#BA9171"/>
<path opacity="0.95" fill-rule="evenodd" clip-rule="evenodd" d="M10 19C14.9706 19 19 14.9706 19 10C19 5.02944 14.9706 1 10 1C5.02944 1 1 5.02944 1 10C1 14.9706 5.02944 19 10 19ZM10 20C15.5228 20 20 15.5228 20 10C20 4.47715 15.5228 0 10 0C4.47715 0 0 4.47715 0 10C0 15.5228 4.47715 20 10 20Z" fill="#AF7A57"/>
</g>
<defs>
<clipPath id="clip0">
<path d="M0 0H20V20H0V0Z" fill="white"/>
</clipPath>
</defs>

</g>%n%n
<g transform="translate(138.000000, 8.000000) scale(0.750000 0.750000) "> 

<defs>
<filter id="filter-remove-color" x="0%" y="0%" width="100%" height="100%">
<feColorMatrix color-interpolation-filters="sRGB" values="0 0 0 0 1 0 0 0 0 1 0 0 0 0 1 0 0 0 1 0" />
</filter>
<mask id="mask-0">
<g filter="url(#filter-remove-color)">
<rect x="-3.2" y="-3.2" width="38.4" height="38.4" fill="rgb(0%, 0%, 0%)" fill-opacity="0.5"/>
</g>
</mask>
<clip100Path id="clip100-0">
<rect x="0" y="0" width="32" height="32"/>
</clip100Path>
<g id="source-7" clip100-path="url(#clip100-0)">
<path fill-rule="nonzero" fill="rgb(100%, 100%, 100%)" fill-opacity="1" d="M 8 24 L 24 24 L 24 26.667969 L 8 26.667969 Z M 8 24 "/>
</g>
</defs>
<path fill-rule="evenodd" fill="rgb(100%, 100%, 100%)" fill-opacity="1" d="M 6.667969 2.667969 C 5.929688 2.667969 5.332031 3.261719 5.332031 4 L 5.332031 28 C 5.332031 28.738281 5.929688 29.332031 6.667969 29.332031 L 25.332031 29.332031 C 26.070312 29.332031 26.667969 28.738281 26.667969 28 L 26.667969 4 C 26.667969 3.261719 26.070312 2.667969 25.332031 2.667969 Z M 17.332031 11.433594 C 18.128906 10.714844 18.667969 9.425781 18.667969 8.191406 C 18.667969 6.347656 17.472656 5.332031 16 5.332031 C 14.527344 5.332031 13.332031 6.347656 13.332031 8.191406 C 13.332031 9.425781 13.871094 10.714844 14.667969 11.433594 L 14.667969 12 L 14.089844 12.578125 C 13.605469 13.0625 12.949219 13.332031 12.261719 13.332031 C 11.285156 13.332031 10.390625 13.886719 9.953125 14.761719 L 9.332031 16 L 12 18.667969 L 12 21.332031 L 20 21.332031 L 20 18.667969 L 22.667969 16 L 22.046875 14.761719 C 21.609375 13.886719 20.714844 13.332031 19.738281 13.332031 C 19.050781 13.332031 18.394531 13.0625 17.910156 12.578125 L 17.332031 12 Z M 24 24 L 24 26.667969 L 8 26.667969 L 8 24 Z M 24 24 "/>
<g mask="url(#mask-0)">
<use xlink:href="#source-7"/>
</g>

</g>%n%n</svg>