<svg width="300" height="35" viewBox="0 0 300 35" fill="none" xmlns="http://www.w3.org/2000/svg">

<g transform="translate(135.000000, 2.000000) scale(1.500000 1.500000) "> 

<g clip-path="url(#clip0)">
<path opacity="0.958" d="M9.9994 1C14.9626 1 19 5.00182 19 10C19 14.9655 14.9626 19 9.9994 19C5.03739 19 1 14.9655 1 10C1 5.00182 5.03739 1 9.9994 1Z" fill="#BA9171"/>
<path opacity="0.95" fill-rule="evenodd" clip-rule="evenodd" d="M10 19C14.9706 19 19 14.9706 19 10C19 5.02944 14.9706 1 10 1C5.02944 1 1 5.02944 1 10C1 14.9706 5.02944 19 10 19ZM10 20C15.5228 20 20 15.5228 20 10C20 4.47715 15.5228 0 10 0C4.47715 0 0 4.47715 0 10C0 15.5228 4.47715 20 10 20Z" fill="#AF7A57"/>
</g>
<defs>
<clipPath id="clip0">
<path d="M0 0H20V20H0V0Z" fill="white"/>
</clipPath>
</defs>

</g>


<g transform="translate(141.000000, 8.000000) scale(0.375000 0.375000) "> 
<path d="M6 23.05zm0 .1V35.5h.03C6 36.07 12.43 43.96 24 44c9.6 0 17.43-3.76 17.97-8.5H42V23.14c0 4.99-8.06 9.03-18 9.03S6 28.14 6 23.15zm36 0v-.1.1z" id="path2" style="fill:#fff;fill-opacity:1;stroke-width:1"/><path style="fill:#fff;fill-opacity:1;stroke-width:1" d="M24.27 3.48c-1.37.03-2.78.2-4.27.52-7.76 1.74-13.5 7.88-13.5 15.17l.01.24c.25 4.87 8.21 8.79 18 8.79 9.77 0 17.74-3.91 18-8.79v-.24c0-7.53-6.1-13.82-14.25-15.32a17.6 17.6 0 0 0-3.99-.37zM23 6l1 6 6 .99L24 14l-.99 6L22 14l-6-.99L22 12l.99-6zm-8 8l1 4 4 1-4 1-1 4-1-4-4-1 4-1 1-4zm20 0l1 4 4 1-4 1-1 4-1-4-4-1 4-1 1-4z" id="path4"/>
</g>

</svg>