<svg width="40" height="40" viewBox="0 0 40 40" fill="none" xmlns="http://www.w3.org/2000/svg" >

<g transform="translate(0.000000, 0.000000) scale(2.500000 2.500000) "> 

<path opacity="0.802" d="M4.96018 1.43494C4.42813 1.43496 3.87106 1.63256 3.4755 2.02245C3.07821 2.41409 2.87459 2.97305 2.87459 3.50546C2.87459 4.07815 3.11252 4.65069 3.514 5.0571C3.73305 5.27886 4.01139 5.3895 4.294 5.47221C4.15622 5.57858 3.98628 5.72831 3.91237 5.76178C3.90737 5.76397 3.90226 5.76621 3.8973 5.76848C3.89618 5.76902 3.89506 5.76958 3.89395 5.77015C3.5989 5.91012 3.23454 6.00426 2.77082 6.03127C2.77026 6.03127 2.7697 6.03127 2.76915 6.03127C2.50687 6.04681 2.25311 6.16654 2.07283 6.35767C1.89255 6.54879 1.78849 6.80965 1.78828 7.07239V7.53939C1.78832 7.80053 1.89129 8.05987 2.06948 8.25077C2.24768 8.44166 2.49858 8.56251 2.7591 8.58051C2.91809 8.59155 2.95135 8.60269 3.01352 8.61399L2.99846 9.77562C2.99829 9.78662 2.99828 9.79811 2.99846 9.8091L3.00683 10.179L2.99846 10.5774C2.99845 10.578 2.99845 10.5785 2.99846 10.5791C2.99818 10.6049 2.9985 10.6303 3.00013 10.6561C3.01632 10.9482 3.02356 11.1609 3.02356 11.2068C3.02356 11.322 3.01948 11.4616 3.01185 11.6219C3.00732 11.7169 3.00703 11.7717 3.00515 11.8395L2.59172 11.8947C2.33847 11.9286 2.09908 12.0596 1.9339 12.2546C1.76908 12.4491 1.68019 12.7061 1.68785 12.9609L1.70459 13.5032C1.70459 13.5038 1.70459 13.5044 1.70459 13.505C1.7131 13.7724 1.82873 14.0335 2.02094 14.2197C2.21316 14.4059 2.47977 14.5142 2.74738 14.5143C2.9155 14.5143 3.08904 14.5025 3.35164 14.4825C3.57823 14.4652 3.81669 14.4557 4.06636 14.4557C5.00836 14.4557 5.75777 14.4711 6.29757 14.4975C6.30371 14.4978 6.30985 14.4978 6.31598 14.4975C6.31664 14.4976 6.317 14.4975 6.31766 14.4975C6.47954 14.5076 6.61454 14.5143 6.73277 14.5143C6.8307 14.5143 6.94778 14.5117 7.10435 14.5059C7.36777 14.496 7.62619 14.3811 7.81071 14.1929C7.99523 14.0046 8.10405 13.7451 8.10865 13.4815L8.11032 13.3978H9.47784C9.50167 13.3977 9.52605 13.3962 9.54981 13.3945C9.57131 13.3961 9.59354 13.3975 9.61509 13.3978C9.61565 13.3978 9.61621 13.3978 9.61677 13.3978H9.83102C9.83159 13.3978 9.83216 13.3978 9.83273 13.3978C9.8772 13.3974 9.92091 13.3921 9.96496 13.3861C10.009 13.3922 10.0527 13.3974 10.0972 13.3978C10.0978 13.3978 10.0983 13.3978 10.0989 13.3978H10.3584C10.3589 13.3978 10.3595 13.3978 10.3601 13.3978C10.3818 13.3976 10.4036 13.396 10.4253 13.3945C10.4433 13.3958 10.4608 13.3974 10.4789 13.3978C10.4806 13.3978 10.4823 13.3978 10.484 13.3978H13.3295C13.3609 13.3979 13.3919 13.3955 13.4232 13.3927C13.4503 13.3952 13.478 13.3974 13.5052 13.3978C13.5058 13.3978 13.5064 13.3978 13.5069 13.3978H13.6659C13.9389 13.3976 14.2094 13.2845 14.4024 13.0915C14.5954 12.8985 14.7086 12.628 14.7087 12.355V11.9734V11.9717C14.709 11.9381 14.7067 11.9046 14.7037 11.8712C14.7065 11.8391 14.7088 11.8064 14.7087 11.7741V11.7724V5.01184C14.7084 4.73895 14.5953 4.46844 14.4022 4.27542C14.2092 4.08241 13.9387 3.96927 13.6658 3.96911H13.0498C13.0219 3.96887 12.9939 3.97048 12.9661 3.97246C12.965 3.97238 12.9639 3.97254 12.9628 3.97246C12.9418 3.97092 12.9202 3.9694 12.8992 3.96911C12.8986 3.96911 12.898 3.96911 12.8974 3.96911H12.5727C12.5284 3.96904 12.4844 3.97359 12.4405 3.97916C12.3965 3.97359 12.3526 3.96904 12.3083 3.96911H11.4831C11.4257 3.96897 11.3689 3.97659 11.3123 3.98585C11.3118 3.98576 11.3112 3.98594 11.3106 3.98585C11.256 3.97689 11.2003 3.9693 11.1449 3.96911H9.30201C9.30146 3.96911 9.3009 3.96911 9.30034 3.96911C9.27794 3.96926 9.25574 3.97087 9.23339 3.97246C9.21473 3.97103 9.19686 3.96954 9.17815 3.96911C9.17648 3.96909 9.17481 3.96909 9.17313 3.96911H7.80729C7.5344 3.96927 7.26389 4.08241 7.07088 4.27542C6.87787 4.46844 6.76473 4.73895 6.76457 5.01191V5.5174C6.67713 5.35949 6.56115 5.21657 6.40972 5.11903C6.6176 4.93838 6.80654 4.73169 6.92526 4.47126C7.06695 4.16046 7.14786 3.81882 7.14788 3.47199C7.14786 2.91448 6.87937 2.38202 6.49341 2.02078C6.07757 1.63161 5.51007 1.43495 4.96018 1.43494Z" fill="#EBE7E4"/>

</g>


<g transform="translate(9.000000, 9.000000) scale(1.833333 1.833333) "> 

<path d="M116.052 100.992C116.052 88.2746 120.173 77.8528 128.417 69.7267C136.66 61.6016 147.259 57.5389 160.213 57.5384C174.108 57.5389 185.649 61.8372 194.834 70.4333C204.02 79.0304 208.612 88.7457 208.613 99.5793C208.612 107.588 206.787 115.595 203.137 123.603C199.486 131.611 193.715 138.029 185.826 142.857C177.935 147.685 169.869 150.099 161.626 150.099C150.32 150.099 139.899 145.271 130.36 135.614C120.821 125.958 116.052 114.418 116.052 100.992ZM66.5919 522.462L65.8853 499.498L105.807 494.199C111.695 492.55 115.757 490.136 117.995 486.956C120.232 483.777 121.351 476.652 121.351 465.583V461.697C121.351 458.87 121.528 453.748 121.881 446.329C122.234 438.91 122.411 432.374 122.411 426.721C122.411 422.246 122.058 413.65 121.351 400.932L121.704 383.267L121.351 366.663L122.058 309.077C122.058 301.776 121.351 294.24 119.938 286.467C117.347 282.935 112.637 279.873 105.807 277.282C98.9762 274.691 87.0824 272.807 70.1248 271.629V251.845C94.3837 250.432 115.699 245.369 134.069 236.654C146.552 231.002 160.095 220.992 174.697 206.625H198.367C199.309 235.83 199.78 273.749 199.78 320.383L197.307 464.523C197.307 474.415 197.778 483.365 198.72 491.372C206.022 493.963 217.915 496.554 234.402 499.145C240.761 500.087 245.825 501.264 249.594 502.678L249.24 522.108C242.881 522.344 238.17 522.462 235.109 522.462C231.576 522.462 226.159 522.226 218.858 521.755C194.834 520.577 162.685 519.989 122.411 519.989C110.87 519.989 99.6829 520.401 88.8488 521.225C78.0147 522.049 70.5957 522.462 66.5919 522.462Z" fill="#593906"/>
<path d="M348.82 215.593C348.82 240.304 312.656 244.93 302.809 245.731C302.649 247.582 302.453 249.386 302.263 251.107C301.66 256.597 301.088 261.783 302.039 264.999C303.793 270.95 307.084 278.363 312.801 279.887C317.531 281.147 323.588 278.286 330.804 271.384C346.526 256.346 366.297 264.807 377.373 273.404C379.251 262.656 385.334 252.786 396.658 250.068C400.123 249.236 402.149 247.728 402.851 245.455C403.636 242.923 402.94 239.622 401.489 236.143C396.687 233.04 393.344 227.878 392.739 221.895C391.764 220.637 390.843 219.512 390.039 218.574C376.619 221.579 362.085 220.443 361.161 220.366L361.607 214.999C361.854 215.02 380.933 216.506 394.46 211.791C396.843 206.68 401.391 202.797 406.932 201.31C407.618 199.136 407.72 196.702 407.204 193.945C406.797 191.773 406.605 189.727 406.605 187.808C406.603 176.442 413.323 169.371 421.759 164.728H343.786C344.232 172.208 345.311 180.652 346.287 188.28C347.59 198.469 348.82 208.092 348.82 215.593Z" fill="#593906"/>
<path d="M384.693 292.216C388.002 292.692 390.5 294.715 391.673 297.789C438.846 265.036 461.628 200.033 470.933 164.729H436.044C421.102 169.319 409.417 176.524 412.497 192.954C413.014 195.702 413.057 198.274 412.643 200.665C422.976 201.037 431.244 209.508 431.244 219.931C431.244 230.592 422.602 239.233 411.942 239.233C410.583 239.233 409.259 239.09 407.979 238.822C408.657 241.719 408.775 244.531 407.998 247.042C407.109 249.92 404.637 253.69 397.915 255.304C386.26 258.101 383.269 270.28 382.524 275.386C381.182 284.591 383.431 291.34 384.693 292.216Z" fill="#593906"/>
<path d="M432.206 318.759C432.205 312.324 437.274 305.244 445.513 297.613C438.522 297.892 418.334 299.671 409.724 310.832C405.569 316.217 404.672 323.286 407.059 331.841C412.633 351.818 423.685 354.331 429.623 355.681C432.317 356.294 434.642 356.821 435.233 359.222C435.903 361.941 433.583 364.238 427.273 369.617C413.179 381.63 393.688 387.06 379.872 382.822C373.53 380.876 368.82 376.956 366.303 371.617C365.926 375.842 365.273 380.142 363.732 382.879L362.711 382.305C361.421 419.379 371.907 457.766 377.468 475.271H388.431C388.712 468.55 389.642 461.54 391.084 455.769C391.779 452.989 393.224 451.012 395.377 449.892C400.36 447.303 407.639 450.103 416.068 453.347C423.794 456.321 432.552 459.689 438.886 458.282C440.947 457.824 441.238 457.036 441.334 456.777C442.803 452.816 434.365 441.571 429.325 434.851C424.406 428.294 421.356 424.124 420.686 421.105C419.957 417.832 417.981 406.945 423.08 404.323C426.788 402.414 430.659 406.027 433.249 408.912C437.632 413.793 451.771 413.428 465.051 411.396C463.348 408.519 462.352 405.173 462.352 401.586C462.352 397.243 463.804 393.248 466.224 390.023C451.255 380.02 434.916 339.449 432.314 320.363C432.242 319.834 432.206 319.299 432.206 318.759Z" fill="#593906"/>
<path d="M365.535 357.87C367.773 358.246 368.712 361.242 370.263 366.852C372.109 373.526 377.365 376.42 381.452 377.674C393.604 381.402 411.011 376.404 423.78 365.52C424.789 364.659 427.265 362.549 428.799 361.016C428.673 360.988 428.55 360.96 428.431 360.932C421.9 359.447 408.311 356.357 401.873 333.289C399.005 323.003 400.214 314.338 405.468 307.533C417.575 291.856 446.807 292.157 448.045 292.177L447.992 295.389C457.066 287.442 469.286 278.923 482.616 269.928C491.641 263.838 500.166 258.086 501.885 255.629C504.893 251.336 500.25 239.547 495.762 228.146C492.383 219.563 488.889 210.689 487.094 202.076C484.134 187.868 490.505 173.594 495.831 164.728H482.127C479.288 175.923 475.04 190.426 468.953 206.264C456.598 238.407 434.038 282.045 396.721 307.401C379.119 319.363 369.779 337.584 365.535 357.87Z" fill="#593906"/>
<path d="M351.829 394.298C341.533 387.123 342.699 381.265 345.222 374.985C347.093 370.324 348.332 367.243 339.308 361.558C333.597 357.961 328.272 356.909 323.481 358.431C317.179 360.432 312.991 366.413 311.012 369.898C315.592 371.659 320.823 374.747 324.933 380.18C332.513 390.197 333.868 404.904 328.966 423.888C328.87 424.266 328.778 424.627 328.684 424.995C328.686 424.999 328.689 425.003 328.691 425.007L328.679 425.013C323.35 445.93 324.175 450.468 324.718 451.435C325.53 451.418 327.575 450.459 328.827 449.872C332.548 448.125 337.645 445.734 341.609 449.174C347.507 454.293 353.728 467.4 357.108 475.271H366.133C361.877 461.512 355.813 438.72 353.112 413.351C352.415 406.79 351.991 400.437 351.829 394.298Z" fill="#593906"/>
<path d="M285.993 355.483C294.253 355.483 301.282 360.682 304.037 367.978C304.561 368.069 305.129 368.179 305.734 368.312C307.804 364.367 313.042 356.112 321.819 353.308C328.2 351.27 335.05 352.512 342.178 357.003C355.002 365.079 352.24 371.963 350.22 376.992C348.772 380.6 347.624 383.474 351.77 387.412C351.863 373.904 353.314 361.525 356.14 350.434C358.018 343.066 360.506 336.266 363.578 330.033C346.923 339.045 323.624 348.72 300.355 348.72C293.307 348.72 286.702 349.561 280.61 350.99V356.259C282.319 355.762 284.122 355.483 285.993 355.483Z" fill="#593906"/>
<path d="M324.677 418.619C328.017 403.234 326.672 391.403 320.639 383.43C316.051 377.366 309.644 374.809 305.242 373.732C305.261 374.083 305.296 374.429 305.296 374.785C305.296 385.446 296.654 394.087 285.994 394.087C284.123 394.087 282.32 393.807 280.609 393.311V429.066C283.74 426.836 287.355 425.004 291.514 423.775C294.763 422.815 296.814 421.507 297.611 419.889C298.77 417.532 297.423 414.054 296.238 410.983C294.95 407.651 293.734 404.505 295.247 401.851C296.108 400.34 297.662 399.388 299.865 399.019C308.813 397.521 318.983 410.181 324.677 418.619Z" fill="#593906"/>
<path d="M300.354 337.951C338.391 337.951 378.64 308.066 380.841 306.407C382.792 304.564 384.835 302.818 386.976 301.177C386.94 300.772 386.88 300.37 386.761 299.986C386.311 298.537 385.364 297.736 383.865 297.536C377.951 296.753 376.954 286.338 376.789 283.165C376.75 282.408 376.73 281.646 376.73 280.879C376.73 280.557 376.737 280.233 376.744 279.909C372.31 275.99 351.35 259.181 334.526 275.274C325.86 283.564 318.084 286.866 311.416 285.089C304.978 283.374 299.95 276.954 296.874 266.522C295.621 262.269 296.247 256.56 296.912 250.518C298.374 237.2 299.887 223.429 285.086 218.127L286.902 213.058C300.896 218.071 303.371 229.379 303.123 240.283C312.843 239.358 343.435 234.911 343.435 215.593C343.435 208.434 342.226 198.977 340.946 188.964C339.856 180.439 338.794 172.107 338.374 164.729H280.608V339.983C286.784 338.693 293.385 337.951 300.354 337.951Z" fill="#593906"/>
<path d="M492.367 200.978C494.067 209.143 497.476 217.801 500.773 226.174C506.24 240.06 510.963 252.052 506.296 258.718C504.111 261.838 497.365 266.471 485.628 274.391C467.082 286.905 436.041 307.846 437.649 319.636C438.862 328.527 443.155 341.813 448.648 354.245C455.724 346.028 474.806 326.487 490.834 333.7C506.867 340.915 510.026 338.05 520.574 318.711L525.302 321.289C514.327 341.409 508.697 347.643 488.625 338.611C484.466 336.739 479.702 337.481 474.936 339.619C481.576 345.959 496.172 361.935 487.583 372.826C485.728 375.179 484.743 378.578 484.353 382.495C493.731 383.812 500.954 391.846 500.954 401.586C500.954 409.192 496.544 415.75 490.152 418.896C492.48 424.567 518.65 443.573 522.959 443.858C524.267 443.858 527.349 444.555 528.323 450.662V164.729H502.229C497.203 172.416 489.467 187.061 492.367 200.978Z" fill="#593906"/>
<path d="M478.934 382.498C479.398 377.444 480.706 372.852 483.355 369.493C489.117 362.185 476.762 348.464 469.962 342.328C462.213 347.236 455.041 354.804 451.139 359.648C457.178 372.204 464.218 382.997 470.141 386.12C472.669 384.235 475.667 382.96 478.934 382.498Z" fill="#593906"/>
<path d="M338.08 453.242C336.858 452.182 334.314 453.246 331.114 454.748C327.85 456.279 324.15 458.016 321.323 455.67C318.279 453.146 317.571 447.324 322.917 425.842C316.747 415.773 306.513 403.367 300.754 404.331C300.286 404.409 300.04 404.507 299.93 404.563C299.833 405.339 300.687 407.559 301.259 409.043C302.766 412.943 304.642 417.796 302.44 422.267C300.931 425.333 297.856 427.515 293.037 428.939C288.024 430.42 283.919 432.916 280.606 435.974V475.272H351.229C347.674 467.285 342.469 457.05 338.08 453.242Z" fill="#593906"/>
<path d="M521.585 475.272H528.324V459.021C527.584 464.499 525.435 470.395 521.585 475.272Z" fill="#593906"/>
<path d="M429.241 412.51C427.224 410.264 426.042 409.536 425.523 409.304C424.943 410.651 424.825 414.903 425.943 419.939C426.395 421.976 430.24 427.101 433.632 431.622C441.123 441.605 448.866 451.92 446.385 458.647C445.743 460.38 444.125 462.635 440.053 463.54C432.134 465.3 422.571 461.62 414.133 458.374C407.524 455.831 400.689 453.202 397.859 454.673C397.391 454.916 396.719 455.431 396.308 457.077C394.824 463.013 394.016 469.415 393.765 475.272H514.127C518.723 471.416 520.944 466.291 521.965 462.861C523.954 456.18 523.191 450.609 522.355 449.204C517.488 448.59 506.889 440.957 502.422 437.596C497.768 434.093 486.79 425.449 485.022 420.576C483.926 420.77 482.804 420.889 481.653 420.889C476.841 420.889 472.451 419.117 469.071 416.205C455.672 418.58 436.272 420.342 429.241 412.51Z" fill="#593906"/>

</g>

</svg>