<svg width="300" height="40" viewBox="0 0 300 40" fill="none" xmlns="http://www.w3.org/2000/svg" >

<g transform="translate(130.000000, 0.000000) scale(2.000000 2.000000) "> 

<g clip-path="url(#clip0)">
<path opacity="0.953" d="M9.99934 0C15.514 0 20 4.44646 20 10C20 15.5172 15.514 20 9.99934 20C4.48599 20 0 15.5172 0 10C0 4.44646 4.48599 0 9.99934 0V0Z" fill="#60BE60"/>
<path opacity="0.95" fill-rule="evenodd" clip-rule="evenodd" d="M10 19C14.9706 19 19 14.9706 19 10C19 5.02944 14.9706 1 10 1C5.02944 1 1 5.02944 1 10C1 14.9706 5.02944 19 10 19ZM10 20C15.5228 20 20 15.5228 20 10C20 4.47715 15.5228 0 10 0C4.47715 0 0 4.47715 0 10C0 15.5228 4.47715 20 10 20Z" fill="#398C39"/>
</g>
<defs>
<clipPath id="clip0">
<path d="M0 0H20V20H0V0Z" fill="white"/>
</clipPath>
</defs>

</g>


<g transform="translate(138.000000, 8.000000) scale(0.041379 0.041379) "> 

<path d="M290 76C173.325 76 79 170.325 79 287V357.333H114.167V287C114.167 189.158 192.158 111.167 290 111.167C387.842 111.167 465.833 189.158 465.833 287V357.333H501V287C501 170.325 406.675 76 290 76ZM290 146.333C212.107 146.333 149.333 209.107 149.333 287V357.333H184.5V287C184.5 227.743 230.743 181.5 290 181.5C349.257 181.5 395.5 227.743 395.5 287V357.333H430.667V287C430.667 209.107 367.893 146.333 290 146.333ZM290 216.667C251.144 216.667 219.667 248.144 219.667 287V357.333H254.833V287C254.833 266.072 269.072 251.833 290 251.833C310.928 251.833 325.167 266.072 325.167 287V357.333H360.333V287C360.333 248.144 328.856 216.667 290 216.667ZM79 376.917L61.4167 447.25H518.583L501 376.917H79ZM61.4167 468.833V504H518.583V468.833H61.4167Z" fill="#ffffff"/>

</g>

</svg>