<svg width="18" height="18" viewBox="0 0 18 18" fill="none" xmlns="http://www.w3.org/2000/svg">
<path fill-rule="evenodd" clip-rule="evenodd" d="M2.00003 8.0508C2.00003 4.1848 5.13404 1.0508 9.00003 1.0508C12.866 1.0508 16 4.1848 16 8.0508C16 10.9513 14.236 13.4397 11.7223 14.5018C10.6528 14.9536 9.87503 15.3425 9.68059 16.1202C9.58336 16.5091 9.34031 16.8008 9.00003 16.8008C8.65975 16.8008 8.4167 16.5091 8.31948 16.1202C8.12503 15.3425 7.34725 14.9536 6.27781 14.5018C3.76408 13.4397 2.00003 10.9513 2.00003 8.0508ZM9.00004 11.5508C10.933 11.5508 12.5 9.98379 12.5 8.05079C12.5 6.11779 10.933 4.55079 9.00004 4.55079C7.06704 4.55079 5.50004 6.11779 5.50004 8.05079C5.50004 9.98379 7.06704 11.5508 9.00004 11.5508Z" fill="#FF8800"/>
</svg>
