<svg width="18" height="18" viewBox="0 0 18 18" fill="none" xmlns="http://www.w3.org/2000/svg">
<path fill-rule="evenodd" clip-rule="evenodd" d="M2 8.0508C2 4.1848 5.13401 1.0508 9 1.0508C12.866 1.0508 16 4.1848 16 8.0508C16 10.9513 14.236 13.4397 11.7222 14.5018C10.6528 14.9536 9.875 15.3425 9.68056 16.1202C9.58333 16.5091 9.34028 16.8008 9 16.8008C8.65972 16.8008 8.41667 16.5091 8.31944 16.1202C8.125 15.3425 7.34722 14.9536 6.27778 14.5018C3.76405 13.4397 2 10.9513 2 8.0508ZM9.00001 11.5508C10.933 11.5508 12.5 9.98379 12.5 8.05079C12.5 6.11779 10.933 4.55079 9.00001 4.55079C7.06701 4.55079 5.50001 6.11779 5.50001 8.05079C5.50001 9.98379 7.06701 11.5508 9.00001 11.5508Z" fill="#FF8800"/>
<path d="M15 2C15 1.44772 14.5523 1 14 1C13.4477 1 13 1.44772 13 2V3H12C11.4477 3 11 3.44772 11 4C11 4.55229 11.4477 5 12 5H13V6C13 6.55229 13.4477 7 14 7C14.5523 7 15 6.55229 15 6V5H16C16.5523 5 17 4.55229 17 4C17 3.44772 16.5523 3 16 3H15V2Z" fill="#223EA4"/>
</svg>
