<svg width="62" height="24" viewBox="0 0 62 24" fill="none" xmlns="http://www.w3.org/2000/svg">
<rect width="62" height="24" rx="3" fill="#5714CC" fill-opacity="0.2"/>
<path d="M9 4.3125L15 5.8125L18 5.0625V16.3125L15 17.0625L9 15.5625V20H6V5.0625L9 4.3125Z" fill="#5714CC"/>
<path fill-rule="evenodd" clip-rule="evenodd" d="M15 8.90483L9 7.40483V12.4702L15 13.9702V8.90483Z" fill="#FFC30D"/>
<path d="M15 5.8125L18 5.0625V16.3125L15 17.0625V5.8125Z" fill="white" fill-opacity="0.2"/>
<path fill-rule="evenodd" clip-rule="evenodd" d="M24 6H28.3944C29.899 6 31.3041 6.75195 32.1387 8.00385C33.1464 9.5154 33.1464 11.4846 32.1387 12.9962C31.3041 14.248 29.899 15 28.3944 15H27V18H24V6ZM27 12H28.3944C28.896 12 29.3643 11.7493 29.6425 11.3321C29.9784 10.8282 29.9784 10.1718 29.6425 9.66795C29.3643 9.25065 28.896 9 28.3944 9H27V12Z" fill="#5714CC"/>
<path fill-rule="evenodd" clip-rule="evenodd" d="M35 6V18H38V15H39.125L41 18H44L41.7734 14.4375C42.2558 14.1706 42.6906 13.8144 43.0519 13.3808C44.4425 11.712 44.4425 9.28798 43.0519 7.61917C42.1969 6.5932 40.9304 6 39.5949 6H35ZM39.5949 12H38V9H39.5949C40.04 9 40.4622 9.19773 40.7472 9.53972C41.2108 10.096 41.2108 10.904 40.7472 11.4603C40.4622 11.8023 40.04 12 39.5949 12Z" fill="#5714CC"/>
<path fill-rule="evenodd" clip-rule="evenodd" d="M46 11.5C46 8.46243 48.4624 6 51.5 6C54.5376 6 57 8.46243 57 11.5V12.5C57 15.5376 54.5376 18 51.5 18C48.4624 18 46 15.5376 46 12.5V11.5ZM51.5 9C50.1193 9 49 10.1193 49 11.5V12.5C49 13.8807 50.1193 15 51.5 15C52.8807 15 54 13.8807 54 12.5V11.5C54 10.1193 52.8807 9 51.5 9Z" fill="#5714CC"/>
</svg>
