<svg width="300" height="35" viewBox="0 0 300 35" fill="none" xmlns="http://www.w3.org/2000/svg" >

<g transform="translate(135.000000, 2.000000) scale(1.500000 1.500000) "> 

<g clip-path="url(#clip0)">
<path opacity="0.953" d="M9.99934 0C15.514 0 20 4.44646 20 10C20 15.5172 15.514 20 9.99934 20C4.48599 20 0 15.5172 0 10C0 4.44646 4.48599 0 9.99934 0V0Z" fill="#878787"/>
<path opacity="0.95" fill-rule="evenodd" clip-rule="evenodd" d="M10 19C14.9706 19 19 14.9706 19 10C19 5.02944 14.9706 1 10 1C5.02944 1 1 5.02944 1 10C1 14.9706 5.02944 19 10 19ZM10 20C15.5228 20 20 15.5228 20 10C20 4.47715 15.5228 0 10 0C4.47715 0 0 4.47715 0 10C0 15.5228 4.47715 20 10 20Z" fill="#404040"/>
</g>
<defs>
<clipPath id="clip0">
<path d="M0 0H20V20H0V0Z" fill="white"/>
</clipPath>
</defs>

</g>


<g transform="translate(141.000000, 8.000000) scale(0.031034 0.031034) "> 

<path fill-rule="evenodd" clip100-rule="evenodd" d="M309.203 64.3535L237.162 101.141L238.535 69.4629L181.387 126.713L172.904 96.1602L136.244 168.268L118.736 141.832L106.152 221.738L81.332 202.008L94.0566 281.893L64.3535 270.797L101.141 342.838L69.4629 341.465L126.713 398.613L96.1602 407.096L168.268 443.756L141.832 461.264L221.738 473.848L202.008 498.668L281.893 485.943L270.797 515.646L342.838 478.859L341.465 510.537L398.613 453.287L407.096 483.84L443.756 411.732L461.264 438.168L473.848 358.262L498.668 377.992L485.943 298.107L515.646 309.203L478.859 237.162L510.537 238.535L453.287 181.387L483.84 172.904L411.732 136.244L438.168 118.736L358.262 106.152L377.992 81.332L298.107 94.0566L309.203 64.3535ZM290 240.502C296.5 240.502 302.937 241.782 308.942 244.27C314.948 246.757 320.404 250.403 325.001 254.999C329.597 259.596 333.243 265.052 335.73 271.058C338.218 277.063 339.498 283.5 339.498 290C339.498 296.5 338.218 302.937 335.73 308.942C333.243 314.948 329.597 320.404 325.001 325.001C320.404 329.597 314.948 333.243 308.942 335.73C302.937 338.218 296.5 339.498 290 339.498C283.5 339.498 277.063 338.218 271.058 335.73C265.052 333.243 259.596 329.597 254.999 325.001C250.403 320.404 246.757 314.948 244.27 308.942C241.782 302.937 240.502 296.5 240.502 290C240.502 283.5 241.782 277.063 244.27 271.058C246.757 265.052 250.403 259.596 254.999 254.999C259.596 250.403 265.052 246.757 271.058 244.27C277.063 241.782 283.5 240.502 290 240.502Z" fill="#ffffff"/>

</g>

</svg>