<svg width="300" height="40" viewBox="0 0 300 40" fill="none" xmlns="http://www.w3.org/2000/svg" xmlns:xlink="http://www.w3.org/1999/xlink">

<g transform="translate(130.000000, 0.000000) scale(2.000000 2.000000) "> 

<g clip-path="url(#clip0)">
<path opacity="0.953" d="M9.99934 0C15.514 0 20 4.44646 20 10C20 15.5172 15.514 20 9.99934 20C4.48599 20 0 15.5172 0 10C0 4.44646 4.48599 0 9.99934 0V0Z" fill="#878787"/>
<path opacity="0.95" fill-rule="evenodd" clip-rule="evenodd" d="M10 19C14.9706 19 19 14.9706 19 10C19 5.02944 14.9706 1 10 1C5.02944 1 1 5.02944 1 10C1 14.9706 5.02944 19 10 19ZM10 20C15.5228 20 20 15.5228 20 10C20 4.47715 15.5228 0 10 0C4.47715 0 0 4.47715 0 10C0 15.5228 4.47715 20 10 20Z" fill="#404040"/>
</g>
<defs>
<clipPath id="clip0">
<path d="M0 0H20V20H0V0Z" fill="white"/>
</clipPath>
</defs>

</g>%n%n
<g transform="translate(138.000000, 8.000000) scale(0.750000 0.750000) "> 

<path fill-rule="evenodd" fill="rgb(100%, 100%, 100%)" fill-opacity="1" d="M 17.058594 3.550781 L 13.085938 5.582031 L 13.160156 3.832031 L 10.007812 6.992188 L 9.539062 5.304688 L 7.515625 9.285156 L 6.550781 7.824219 L 5.855469 12.234375 L 4.488281 11.144531 L 5.1875 15.550781 L 3.550781 14.941406 L 5.582031 18.914062 L 3.832031 18.839844 L 6.992188 21.992188 L 5.304688 22.460938 L 9.285156 24.484375 L 7.824219 25.449219 L 12.234375 26.144531 L 11.144531 27.511719 L 15.550781 26.8125 L 14.941406 28.449219 L 18.914062 26.417969 L 18.839844 28.167969 L 21.992188 25.007812 L 22.460938 26.695312 L 24.484375 22.714844 L 25.449219 24.175781 L 26.144531 19.765625 L 27.511719 20.855469 L 26.8125 16.449219 L 28.449219 17.058594 L 26.417969 13.085938 L 28.167969 13.160156 L 25.007812 10.007812 L 26.695312 9.539062 L 22.714844 7.515625 L 24.175781 6.550781 L 19.765625 5.855469 L 20.855469 4.488281 L 16.449219 5.1875 Z M 16 13.269531 C 16.359375 13.269531 16.714844 13.339844 17.046875 13.476562 C 17.375 13.613281 17.675781 13.816406 17.929688 14.070312 C 18.183594 14.324219 18.386719 14.625 18.523438 14.953125 C 18.660156 15.285156 18.730469 15.640625 18.730469 16 C 18.730469 16.359375 18.660156 16.714844 18.523438 17.046875 C 18.386719 17.375 18.183594 17.675781 17.929688 17.929688 C 17.675781 18.183594 17.375 18.386719 17.046875 18.523438 C 16.714844 18.660156 16.359375 18.730469 16 18.730469 C 15.640625 18.730469 15.285156 18.660156 14.953125 18.523438 C 14.625 18.386719 14.324219 18.183594 14.070312 17.929688 C 13.816406 17.675781 13.613281 17.375 13.476562 17.046875 C 13.339844 16.714844 13.269531 16.359375 13.269531 16 C 13.269531 15.640625 13.339844 15.285156 13.476562 14.953125 C 13.613281 14.625 13.816406 14.324219 14.070312 14.070312 C 14.324219 13.816406 14.625 13.613281 14.953125 13.476562 C 15.285156 13.339844 15.640625 13.269531 16 13.269531 Z M 16 13.269531 "/>

</g>%n%n</svg>