<svg width="300" height="35" viewBox="0 0 300 35" fill="none" xmlns="http://www.w3.org/2000/svg">

<g transform="translate(135.000000, 2.000000) scale(1.500000 1.500000) "> 

<g clip-path="url(#clip0)">
<path opacity="0.953" d="M9.99934 0C15.514 0 20 4.44646 20 10C20 15.5172 15.514 20 9.99934 20C4.48599 20 0 15.5172 0 10C0 4.44646 4.48599 0 9.99934 0V0Z" fill="#878787"/>
<path opacity="0.95" fill-rule="evenodd" clip-rule="evenodd" d="M10 19C14.9706 19 19 14.9706 19 10C19 5.02944 14.9706 1 10 1C5.02944 1 1 5.02944 1 10C1 14.9706 5.02944 19 10 19ZM10 20C15.5228 20 20 15.5228 20 10C20 4.47715 15.5228 0 10 0C4.47715 0 0 4.47715 0 10C0 15.5228 4.47715 20 10 20Z" fill="#404040"/>
</g>
<defs>
<clipPath id="clip0">
<path d="M0 0H20V20H0V0Z" fill="white"/>
</clipPath>
</defs>

</g>


<g transform="translate(141.000000, 8.000000) scale(0.031034 0.031034) "> 

<path d="M308.385 510.615V363.538C308.385 353.39 300.148 345.154 290 345.154H253.231C243.082 345.154 234.846 353.39 234.846 363.538V510.615C234.846 520.764 243.082 529 253.231 529H290C300.148 529 308.385 520.764 308.385 510.615Z" fill="#ffffff"/>
<path d="M69.3846 198.077H455.462C465.61 198.077 473.846 189.841 473.846 179.692V69.3846C473.846 59.2363 465.61 51 455.462 51H69.3846C59.2363 51 51 59.2363 51 69.3846V179.692C51 189.841 59.2363 198.077 69.3846 198.077Z" fill="#ffffff"/>
<path d="M271.615 400.308V290L510.615 234.846V124.538H455.462" stroke="#ffffff" stroke-width="36.7692" stroke-miterlimit="10" stroke-linecap="round" stroke-linejoin="round"/>

</g>

</svg>