<svg width="300" height="40" viewBox="0 0 300 40" fill="none" xmlns="http://www.w3.org/2000/svg" xmlns:xlink="http://www.w3.org/1999/xlink">

<g transform="translate(130.000000, 0.000000) scale(2.000000 2.000000) "> 

<g clip-path="url(#clip0)">
<path opacity="0.953" d="M9.99934 0C15.514 0 20 4.44646 20 10C20 15.5172 15.514 20 9.99934 20C4.48599 20 0 15.5172 0 10C0 4.44646 4.48599 0 9.99934 0V0Z" fill="#878787"/>
<path opacity="0.95" fill-rule="evenodd" clip-rule="evenodd" d="M10 19C14.9706 19 19 14.9706 19 10C19 5.02944 14.9706 1 10 1C5.02944 1 1 5.02944 1 10C1 14.9706 5.02944 19 10 19ZM10 20C15.5228 20 20 15.5228 20 10C20 4.47715 15.5228 0 10 0C4.47715 0 0 4.47715 0 10C0 15.5228 4.47715 20 10 20Z" fill="#404040"/>
</g>
<defs>
<clipPath id="clip0">
<path d="M0 0H20V20H0V0Z" fill="white"/>
</clipPath>
</defs>

</g>%n%n
<g transform="translate(138.000000, 8.000000) scale(2.000000 2.000000) "> 

<path fill-rule="nonzero" fill="rgb(100%, 100%, 100%)" fill-opacity="1" d="M 1.03125 10.675781 L 3.292969 5.296875 L 4.03125 5.789062 L 1.125 10.714844 Z M 1.03125 10.675781 "/>
<path fill-rule="nonzero" fill="rgb(100%, 100%, 100%)" fill-opacity="1" d="M 4.253906 0.949219 L 2.886719 2.898438 C 2.617188 3.285156 2.71875 3.78125 3.132812 4.015625 L 5.28125 5.46875 C 5.695312 5.703125 6.261719 5.578125 6.539062 5.195312 L 6.886719 4.722656 L 10.46875 7.519531 C 10.679688 7.6875 10.980469 7.644531 11.140625 7.425781 C 11.300781 7.207031 11.25 6.910156 11.027344 6.757812 L 7.273438 4.195312 L 7.671875 3.648438 C 7.949219 3.265625 7.890625 2.699219 7.535156 2.382812 L 5.40625 0.824219 C 5.050781 0.511719 4.535156 0.566406 4.253906 0.949219 Z M 4.253906 0.949219 "/>

</g>%n%n</svg>