<svg width="300" height="40" viewBox="0 0 300 40" fill="none" xmlns="http://www.w3.org/2000/svg" xmlns:xlink="http://www.w3.org/1999/xlink">

<g transform="translate(130.000000, 0.000000) scale(2.000000 2.000000) "> 

<g clip-path="url(#clip0)">
<path opacity="0.953" d="M9.99934 0C15.514 0 20 4.44646 20 10C20 15.5172 15.514 20 9.99934 20C4.48599 20 0 15.5172 0 10C0 4.44646 4.48599 0 9.99934 0V0Z" fill="#878787"/>
<path opacity="0.95" fill-rule="evenodd" clip-rule="evenodd" d="M10 19C14.9706 19 19 14.9706 19 10C19 5.02944 14.9706 1 10 1C5.02944 1 1 5.02944 1 10C1 14.9706 5.02944 19 10 19ZM10 20C15.5228 20 20 15.5228 20 10C20 4.47715 15.5228 0 10 0C4.47715 0 0 4.47715 0 10C0 15.5228 4.47715 20 10 20Z" fill="#404040"/>
</g>
<defs>
<clipPath id="clip0">
<path d="M0 0H20V20H0V0Z" fill="white"/>
</clipPath>
</defs>

</g>%n%n
<g transform="translate(138.000000, 8.000000) scale(0.750000 0.750000) "> 

<path fill-rule="nonzero" fill="rgb(100%, 100%, 100%)" fill-opacity="1" d="M 22.789062 15.21875 L 7.644531 15.21875 L 7.644531 8.429688 L 29.054688 8.429688 L 29.054688 8.953125 C 29.054688 12.40625 26.242188 15.21875 22.789062 15.21875 Z M 22.789062 15.21875 "/>
<path fill-rule="nonzero" fill="rgb(100%, 100%, 100%)" fill-opacity="1" d="M 6.601562 9.472656 L 3.46875 9.472656 C 3.179688 9.472656 2.945312 9.707031 2.945312 9.996094 C 2.945312 12.011719 4.585938 13.652344 6.601562 13.652344 Z M 6.601562 9.472656 "/>
<path fill-rule="nonzero" fill="rgb(100%, 100%, 100%)" fill-opacity="1" d="M 24.875 18.871094 L 24.355469 18.871094 C 22.6875 18.871094 21.480469 17.820312 21.261719 16.261719 L 11.785156 16.261719 C 11.5625 17.820312 10.355469 18.871094 8.691406 18.871094 L 8.167969 18.871094 C 7.363281 18.871094 6.601562 19.632812 6.601562 20.4375 L 6.601562 23.570312 L 13.050781 23.570312 L 13.195312 23.453125 C 13.214844 23.441406 15.007812 22.003906 17.042969 22.003906 C 19.015625 22.003906 20.300781 23.386719 20.3125 23.398438 L 20.464844 23.570312 L 26.441406 23.570312 L 26.441406 20.4375 C 26.441406 19.632812 25.679688 18.871094 24.875 18.871094 Z M 24.875 18.871094 "/>

</g>%n%n</svg>