<svg width="300" height="40" viewBox="0 0 300 40" fill="none" xmlns="http://www.w3.org/2000/svg" xmlns:xlink="http://www.w3.org/1999/xlink">

<g transform="translate(130.000000, 0.000000) scale(2.000000 2.000000) "> 

<g clip-path="url(#clip0)">
<path opacity="0.953" d="M9.99934 0C15.514 0 20 4.44646 20 10C20 15.5172 15.514 20 9.99934 20C4.48599 20 0 15.5172 0 10C0 4.44646 4.48599 0 9.99934 0V0Z" fill="#878787"/>
<path opacity="0.95" fill-rule="evenodd" clip-rule="evenodd" d="M10 19C14.9706 19 19 14.9706 19 10C19 5.02944 14.9706 1 10 1C5.02944 1 1 5.02944 1 10C1 14.9706 5.02944 19 10 19ZM10 20C15.5228 20 20 15.5228 20 10C20 4.47715 15.5228 0 10 0C4.47715 0 0 4.47715 0 10C0 15.5228 4.47715 20 10 20Z" fill="#404040"/>
</g>
<defs>
<clipPath id="clip0">
<path d="M0 0H20V20H0V0Z" fill="white"/>
</clipPath>
</defs>

</g>%n%n
<g transform="translate(138.000000, 8.000000) scale(2.000000 2.000000) "> 

<path fill-rule="nonzero" fill="rgb(100%, 100%, 100%)" fill-opacity="1" d="M 6.378906 10.5625 L 6.378906 7.519531 C 6.378906 7.3125 6.210938 7.140625 6 7.140625 L 5.238281 7.140625 C 5.027344 7.140625 4.859375 7.3125 4.859375 7.519531 L 4.859375 10.5625 C 4.859375 10.773438 5.027344 10.945312 5.238281 10.945312 L 6 10.945312 C 6.210938 10.945312 6.378906 10.773438 6.378906 10.5625 Z M 6.378906 10.5625 "/>
<path fill-rule="nonzero" fill="rgb(100%, 100%, 100%)" fill-opacity="1" d="M 1.433594 4.097656 L 9.421875 4.097656 C 9.632812 4.097656 9.804688 3.929688 9.804688 3.71875 L 9.804688 1.433594 C 9.804688 1.226562 9.632812 1.054688 9.421875 1.054688 L 1.433594 1.054688 C 1.226562 1.054688 1.054688 1.226562 1.054688 1.433594 L 1.054688 3.71875 C 1.054688 3.929688 1.226562 4.097656 1.433594 4.097656 Z M 1.433594 4.097656 "/>
<path fill="none" stroke-width="36.769199" stroke-linecap="round" stroke-linejoin="round" stroke="rgb(100%, 100%, 100%)" stroke-opacity="1" stroke-miterlimit="10" d="M 271.686198 400.260417 L 271.686198 290 L 510.520833 234.869792 L 510.520833 124.609375 L 455.390625 124.609375 " transform="matrix(0.0206897, 0, 0, 0.0206897, 0, 0)"/>

</g>%n%n</svg>