<svg width="300" height="40" viewBox="0 0 300 40" fill="none" xmlns="http://www.w3.org/2000/svg" xmlns:xlink="http://www.w3.org/1999/xlink" version="1.1">

<g transform="translate(130.000000, 0.000000) scale(2.000000 2.000000) "> 

<g clip-path="url(#clip0)">
<path opacity="0.953" d="M9.99934 0C15.514 0 20 4.44646 20 10C20 15.5172 15.514 20 9.99934 20C4.48599 20 0 15.5172 0 10C0 4.44646 4.48599 0 9.99934 0V0Z" fill="#878787"/>
<path opacity="0.95" fill-rule="evenodd" clip-rule="evenodd" d="M10 19C14.9706 19 19 14.9706 19 10C19 5.02944 14.9706 1 10 1C5.02944 1 1 5.02944 1 10C1 14.9706 5.02944 19 10 19ZM10 20C15.5228 20 20 15.5228 20 10C20 4.47715 15.5228 0 10 0C4.47715 0 0 4.47715 0 10C0 15.5228 4.47715 20 10 20Z" fill="#404040"/>
</g>
<defs>
<clipPath id="clip0">
<path d="M0 0H20V20H0V0Z" fill="white"/>
</clipPath>
</defs>

</g>%n%n
<g transform="translate(138.000000, 8.000000) scale(2.000000 2.000000) "> 

<defs>
<filter id="alpha" filterUnits="objectBoundingBox" x="0%" y="0%" width="100%" height="100%">
  <feColorMatrix type="matrix" in="SourceGraphic" values="0 0 0 0 1 0 0 0 0 1 0 0 0 0 1 0 0 0 1 0"/>
</filter>
<mask id="mask0">
  <g filter="url(#alpha)">
<rect x="0" y="0" width="12" height="12" style="fill:rgb(0%,0%,0%);fill-opacity:0.4;stroke:none;"/>
  </g>
</mask>
<mask id="mask1">
  <g filter="url(#alpha)">
<rect x="0" y="0" width="12" height="12" style="fill:rgb(0%,0%,0%);fill-opacity:0.4;stroke:none;"/>
  </g>
</mask>
<clip100Path id="clip1002">
  <rect x="0" y="0" width="12" height="12"/>
</clip100Path>
<g id="surface6" clip100-path="url(#clip1002)">
<path style="fill-rule:evenodd;fill:rgb(100%,100%,100%);fill-opacity:1;stroke-width:14.4564;stroke-linecap:butt;stroke-linejoin:miter;stroke:rgb(100%,100%,100%);stroke-opacity:1;stroke-miterlimit:4;" d="M 366.08724 233.548177 L 315.677083 139.902344 L 378.548177 98.554688 L 438.964844 98.554688 L 444.440104 224.108073 Z M 366.08724 233.548177 " transform="matrix(0.0206897,0,0,0.0206897,0,0)"/>
</g>
<mask id="mask2">
  <g filter="url(#alpha)">
<rect x="0" y="0" width="12" height="12" style="fill:rgb(0%,0%,0%);fill-opacity:0.4;stroke:none;"/>
  </g>
</mask>
<clip100Path id="clip1003">
  <rect x="0" y="0" width="12" height="12"/>
</clip100Path>
<g id="surface9" clip100-path="url(#clip1003)">
<path style="fill-rule:evenodd;fill:rgb(100%,100%,100%);fill-opacity:1;stroke-width:14.4564;stroke-linecap:butt;stroke-linejoin:miter;stroke:rgb(100%,100%,100%);stroke-opacity:1;stroke-miterlimit:4;" d="M 470.494792 233.548177 L 520.904948 139.902344 L 457.845052 98.554688 L 387.421875 98.554688 L 391.953125 224.108073 Z M 470.494792 233.548177 " transform="matrix(0.0206897,0,0,0.0206897,0,0)"/>
</g>
<clip100Path id="clip1001">
  <rect x="0" y="0" width="12" height="12"/>
</clip100Path>
<g id="surface11" clip100-path="url(#clip1001)">
<use xlink:href="#surface6" mask="url(#mask1)"/>
<use xlink:href="#surface9" mask="url(#mask2)"/>
</g>
<mask id="mask3">
  <g filter="url(#alpha)">
<rect x="0" y="0" width="12" height="12" style="fill:rgb(0%,0%,0%);fill-opacity:0.6;stroke:none;"/>
  </g>
</mask>
<clip100Path id="clip1004">
  <rect x="0" y="0" width="12" height="12"/>
</clip100Path>
<g id="surface14" clip100-path="url(#clip1004)">
<path style="fill:none;stroke-width:14.4564;stroke-linecap:butt;stroke-linejoin:miter;stroke:rgb(100%,100%,100%);stroke-opacity:1;stroke-miterlimit:4;" d="M 378.548177 98.554688 L 315.677083 139.902344 L 366.08724 233.548177 L 418.196615 227.317708 L 470.494792 233.548177 L 520.904948 139.902344 L 457.845052 98.554688 Z M 378.548177 98.554688 " transform="matrix(0.0206897,0,0,0.0206897,0,0)"/>
</g>
<mask id="mask4">
  <g filter="url(#alpha)">
<rect x="0" y="0" width="12" height="12" style="fill:rgb(0%,0%,0%);fill-opacity:0.6;stroke:none;"/>
  </g>
</mask>
<clip100Path id="clip1005">
  <rect x="0" y="0" width="12" height="12"/>
</clip100Path>
<g id="surface17" clip100-path="url(#clip1005)">
<path style="fill:none;stroke-width:14.4562;stroke-linecap:butt;stroke-linejoin:bevel;stroke:rgb(100%,100%,100%);stroke-opacity:1;stroke-miterlimit:4;" d="M 378.548177 150.286458 L 315.677083 139.902344 L 366.08724 233.548177 L 418.196615 227.317708 L 470.494792 233.548177 L 520.904948 139.902344 L 457.845052 150.286458 Z M 378.548177 150.286458 " transform="matrix(0.0206897,0,0,0.0206897,0,0)"/>
</g>
<mask id="mask5">
  <g filter="url(#alpha)">
<rect x="0" y="0" width="12" height="12" style="fill:rgb(0%,0%,0%);fill-opacity:0.6;stroke:none;"/>
  </g>
</mask>
<clip100Path id="clip1006">
  <rect x="0" y="0" width="12" height="12"/>
</clip100Path>
<g id="surface20" clip100-path="url(#clip1006)">
<path style="fill:none;stroke-width:14.4564;stroke-linecap:butt;stroke-linejoin:miter;stroke:rgb(100%,100%,100%);stroke-opacity:1;stroke-miterlimit:4;" d="M 377.604167 150.286458 L 366.08724 233.548177 L 418.196615 227.317708 L 470.494792 233.548177 L 461.621094 150.664062 L 455.390625 98.554688 L 382.324219 98.554688 Z M 377.604167 150.286458 " transform="matrix(0.0206897,0,0,0.0206897,0,0)"/>
</g>
</defs>
<g id="surface1">
<path style="fill:none;stroke-width:40.2183;stroke-linecap:round;stroke-linejoin:round;stroke:rgb(100%,100%,100%);stroke-opacity:1;stroke-miterlimit:4;" d="M 418.007812 468.417969 C 484.277344 468.417969 537.897135 414.798177 537.897135 348.528646 C 537.897135 282.259115 484.277344 228.639323 418.007812 228.639323 C 351.738281 228.639323 298.11849 282.259115 298.11849 348.528646 C 298.11849 414.798177 351.738281 468.417969 418.007812 468.417969 Z M 418.007812 468.417969 " transform="matrix(0.0206897,0,0,0.0206897,0,0)"/>
<use xlink:href="#surface11" mask="url(#mask0)"/>
<use xlink:href="#surface14" mask="url(#mask3)"/>
<use xlink:href="#surface17" mask="url(#mask4)"/>
<use xlink:href="#surface20" mask="url(#mask5)"/>
<path style=" stroke:none;fill-rule:nonzero;fill:rgb(100%,100%,100%);fill-opacity:1;" d="M 2.679688 3.753906 L 2.679688 9.703125 C 2.679688 9.890625 2.832031 10.042969 3.019531 10.042969 L 3.667969 10.042969 C 3.761719 10.042969 3.847656 10.003906 3.910156 9.945312 C 3.972656 9.882812 4.007812 9.796875 4.007812 9.703125 L 4.007812 3.753906 Z M 2.679688 3.753906 "/>
<path style=" stroke:none;fill-rule:nonzero;fill:rgb(100%,100%,100%);fill-opacity:1;" d="M 5.207031 1.832031 L 4.605469 1.832031 C 4.519531 1.832031 4.441406 1.890625 4.414062 1.972656 C 4.402344 2.015625 4.316406 2.113281 4.25 2.113281 L 4.003906 2.113281 C 3.992188 2.046875 3.957031 1.984375 3.910156 1.933594 C 3.84375 1.867188 3.757812 1.832031 3.667969 1.832031 L 3.015625 1.832031 C 3.011719 1.832031 3.003906 1.832031 2.996094 1.832031 L 2.859375 1.832031 C 2.578125 1.832031 2.3125 1.832031 2.246094 1.832031 C 1.667969 1.832031 0.609375 2.871094 0.488281 2.988281 C 0.449219 3.03125 0.441406 3.09375 0.472656 3.144531 C 0.503906 3.191406 0.566406 3.210938 0.621094 3.191406 C 0.625 3.1875 1.109375 3.003906 1.898438 3.023438 C 2.253906 3.03125 2.675781 3.09375 2.675781 3.335938 C 2.675781 3.339844 2.675781 3.371094 2.675781 3.476562 C 2.675781 3.488281 2.679688 3.496094 2.679688 3.503906 L 2.679688 3.507812 L 4.007812 3.507812 L 4.007812 3.386719 C 4.011719 3.382812 4.007812 3.378906 4.007812 3.378906 L 4.007812 3.183594 C 4.015625 3.183594 4.0625 3.183594 4.25 3.183594 C 4.320312 3.183594 4.402344 3.277344 4.410156 3.308594 C 4.445312 3.40625 4.519531 3.472656 4.605469 3.472656 C 4.640625 3.472656 5.207031 3.472656 5.207031 3.472656 C 5.300781 3.472656 5.386719 3.433594 5.449219 3.371094 C 5.507812 3.308594 5.546875 3.222656 5.546875 3.132812 L 5.546875 2.171875 C 5.546875 1.984375 5.394531 1.832031 5.207031 1.832031 Z M 5.207031 1.832031 "/>
</g>

</g>%n%n</svg>