<svg width="300" height="40" viewBox="0 0 300 40" fill="none" xmlns="http://www.w3.org/2000/svg" xmlns:xlink="http://www.w3.org/1999/xlink">

<g transform="translate(130.000000, 0.000000) scale(2.000000 2.000000) "> 

<g clip-path="url(#clip0)">
<path opacity="0.953" d="M9.99934 0C15.514 0 20 4.44646 20 10C20 15.5172 15.514 20 9.99934 20C4.48599 20 0 15.5172 0 10C0 4.44646 4.48599 0 9.99934 0V0Z" fill="#878787"/>
<path opacity="0.95" fill-rule="evenodd" clip-rule="evenodd" d="M10 19C14.9706 19 19 14.9706 19 10C19 5.02944 14.9706 1 10 1C5.02944 1 1 5.02944 1 10C1 14.9706 5.02944 19 10 19ZM10 20C15.5228 20 20 15.5228 20 10C20 4.47715 15.5228 0 10 0C4.47715 0 0 4.47715 0 10C0 15.5228 4.47715 20 10 20Z" fill="#404040"/>
</g>
<defs>
<clipPath id="clip0">
<path d="M0 0H20V20H0V0Z" fill="white"/>
</clipPath>
</defs>

</g>%n%n
<g transform="translate(138.000000, 8.000000) scale(2.000000 2.000000) "> 

<path fill="none" stroke-width="35.365898" stroke-linecap="round" stroke-linejoin="round" stroke="rgb(100%, 100%, 100%)" stroke-opacity="1" stroke-miterlimit="10" d="M 413.854167 198.053385 L 413.854167 449.160156 C 413.854167 484.466146 396.106771 502.213542 360.800781 502.213542 L 183.893229 502.213542 C 148.58724 502.213542 130.839844 484.466146 130.839844 449.160156 L 130.839844 201.640625 " transform="matrix(0.0206897, 0, 0, 0.0206897, 0, 0)"/>
<path fill="none" stroke-width="35.365898" stroke-linecap="round" stroke-linejoin="round" stroke="rgb(100%, 100%, 100%)" stroke-opacity="1" stroke-miterlimit="10" d="M 413.854167 265.266927 C 413.854167 265.266927 426.126302 236.946615 466.907552 236.946615 C 495.039062 236.946615 502.213542 258.092448 502.213542 290 C 502.213542 311.145833 489.752604 396.106771 431.41276 396.106771 L 413.854167 396.106771 " transform="matrix(0.0206897, 0, 0, 0.0206897, 0, 0)"/>
<path fill="none" stroke-width="35.365898" stroke-linecap="round" stroke-linejoin="round" stroke="rgb(100%, 100%, 100%)" stroke-opacity="1" stroke-miterlimit="10" d="M 378.359375 95.533854 C 367.786458 95.533854 357.213542 98.932292 348.339844 104.407552 C 339.466146 98.932292 328.893229 95.533854 316.432292 95.533854 C 307.747396 95.533854 300.572917 97.233073 293.58724 100.820312 C 281.126302 86.660156 265.266927 77.786458 245.820312 77.786458 C 224.485677 77.786458 206.927083 88.359375 194.466146 104.407552 C 187.480469 98.932292 176.907552 95.533854 166.145833 95.533854 C 136.126302 95.533854 113.092448 118.567708 113.092448 148.58724 C 113.092448 178.606771 136.126302 201.640625 166.145833 201.640625 C 180.30599 201.640625 194.466146 194.466146 205.039062 185.592448 C 215.800781 194.466146 229.960938 201.640625 245.820312 201.640625 C 254.69401 201.640625 261.679688 199.752604 268.854167 196.354167 C 321.907552 196.354167 213.91276 360.800781 316.432292 360.800781 C 413.854167 360.800781 311.145833 198.053385 362.5 198.053385 C 367.786458 199.752604 373.072917 201.640625 378.359375 201.640625 C 408.567708 201.640625 431.41276 178.606771 431.41276 148.58724 C 431.41276 118.567708 408.567708 95.533854 378.359375 95.533854 Z M 378.359375 95.533854 " transform="matrix(0.0206897, 0, 0, 0.0206897, 0, 0)"/>
<path fill-rule="nonzero" fill="rgb(100%, 100%, 100%)" fill-opacity="1" d="M 7.097656 10.390625 L 5.269531 10.390625 C 5.269531 10.390625 3.804688 10.5 3.804688 8.925781 C 3.804688 7.355469 3.804688 5.269531 3.804688 5.269531 L 5.78125 5.269531 C 5.78125 5.269531 4.976562 7.464844 6.546875 7.464844 C 8.121094 7.464844 7.28125 5.269531 7.28125 5.269531 L 8.5625 5.269531 C 8.5625 5.269531 8.5625 7.316406 8.5625 8.925781 C 8.5625 10.535156 7.097656 10.390625 7.097656 10.390625 Z M 7.097656 10.390625 "/>

</g>%n%n</svg>