<svg width="300" height="40" viewBox="0 0 300 40" fill="none" xmlns="http://www.w3.org/2000/svg" >

<g transform="translate(130.000000, 0.000000) scale(2.000000 2.000000) "> 

<g clip-path="url(#clip0)">
<path opacity="0.953" d="M9.99934 0C15.514 0 20 4.44646 20 10C20 15.5172 15.514 20 9.99934 20C4.48599 20 0 15.5172 0 10C0 4.44646 4.48599 0 9.99934 0V0Z" fill="#878787"/>
<path opacity="0.95" fill-rule="evenodd" clip-rule="evenodd" d="M10 19C14.9706 19 19 14.9706 19 10C19 5.02944 14.9706 1 10 1C5.02944 1 1 5.02944 1 10C1 14.9706 5.02944 19 10 19ZM10 20C15.5228 20 20 15.5228 20 10C20 4.47715 15.5228 0 10 0C4.47715 0 0 4.47715 0 10C0 15.5228 4.47715 20 10 20Z" fill="#404040"/>
</g>
<defs>
<clipPath id="clip0">
<path d="M0 0H20V20H0V0Z" fill="white"/>
</clipPath>
</defs>

</g>


<g transform="translate(138.000000, 8.000000) scale(0.041379 0.041379) "> 

<path d="M48.4883 333.451V317.158H68.3496H88.2108L89.441 305.178C90.1175 298.59 92.8206 285.172 95.4478 275.361C115.178 201.68 174.594 145.661 249.4 130.209C257.437 128.549 264.257 126.946 264.557 126.647C264.856 126.347 262.932 115.453 260.281 102.437C257.402 88.3006 256.19 78.3203 257.272 77.6517C258.268 77.0361 266.255 74.0591 275.021 71.0361L290.958 65.5399L305.366 70.6832C326.741 78.3137 325.457 75.8762 320.718 99.8261C318.447 111.302 316.203 122.049 315.731 123.709C315.057 126.08 317.47 127.207 326.963 128.956C411.627 144.556 478.114 214.418 489.774 300.032L492.107 317.158H511.809H531.511V333.451V349.743H48.4883V333.451Z" fill="#ffffff"/>
<path d="M393.736 464.279L291.592 511.345C291.592 511.345 279.575 518.355 259.548 511.345L94.3181 445.252C94.3181 445.252 71.8633 434.703 101.906 420.684L227.725 453.706C253.166 454.214 289.862 447.166 289.52 429.474L194.457 416.369C194.457 416.369 168.422 404.195 193.457 386.17C270.179 388.176 339.168 377.68 394.242 386.99L499.884 412.193V507.731L393.736 464.279Z" fill="#ffffff"/>

</g>

</svg>