<svg width="300" height="40" viewBox="0 0 300 40" fill="none" xmlns="http://www.w3.org/2000/svg" xmlns:xlink="http://www.w3.org/1999/xlink">

<g transform="translate(130.000000, 0.000000) scale(2.000000 2.000000) "> 

<g clip-path="url(#clip0)">
<path opacity="0.953" d="M9.99934 0C15.514 0 20 4.44646 20 10C20 15.5172 15.514 20 9.99934 20C4.48599 20 0 15.5172 0 10C0 4.44646 4.48599 0 9.99934 0V0Z" fill="#878787"/>
<path opacity="0.95" fill-rule="evenodd" clip-rule="evenodd" d="M10 19C14.9706 19 19 14.9706 19 10C19 5.02944 14.9706 1 10 1C5.02944 1 1 5.02944 1 10C1 14.9706 5.02944 19 10 19ZM10 20C15.5228 20 20 15.5228 20 10C20 4.47715 15.5228 0 10 0C4.47715 0 0 4.47715 0 10C0 15.5228 4.47715 20 10 20Z" fill="#404040"/>
</g>
<defs>
<clipPath id="clip0">
<path d="M0 0H20V20H0V0Z" fill="white"/>
</clipPath>
</defs>

</g>%n%n
<g transform="translate(138.000000, 8.000000) scale(2.000000 2.000000) "> 

<path fill-rule="nonzero" fill="rgb(100%, 100%, 100%)" fill-opacity="1" d="M 8.546875 5.707031 L 2.867188 5.707031 L 2.867188 3.160156 L 10.894531 3.160156 L 10.894531 3.355469 C 10.894531 4.652344 9.839844 5.707031 8.546875 5.707031 Z M 8.546875 5.707031 "/>
<path fill-rule="nonzero" fill="rgb(100%, 100%, 100%)" fill-opacity="1" d="M 2.476562 3.550781 L 1.300781 3.550781 C 1.191406 3.550781 1.105469 3.640625 1.105469 3.75 C 1.105469 4.503906 1.71875 5.117188 2.476562 5.117188 Z M 2.476562 3.550781 "/>
<path fill-rule="nonzero" fill="rgb(100%, 100%, 100%)" fill-opacity="1" d="M 9.328125 7.078125 L 9.132812 7.078125 C 8.507812 7.078125 8.054688 6.683594 7.972656 6.097656 L 4.417969 6.097656 C 4.335938 6.683594 3.882812 7.078125 3.257812 7.078125 L 3.0625 7.078125 C 2.761719 7.078125 2.476562 7.363281 2.476562 7.664062 L 2.476562 8.839844 L 4.894531 8.839844 L 4.949219 8.796875 C 4.957031 8.789062 5.628906 8.25 6.390625 8.25 C 7.132812 8.25 7.613281 8.769531 7.617188 8.773438 L 7.675781 8.839844 L 9.914062 8.839844 L 9.914062 7.664062 C 9.914062 7.363281 9.628906 7.078125 9.328125 7.078125 Z M 9.328125 7.078125 "/>

</g>%n%n</svg>