<svg width="300" height="40" viewBox="0 0 300 40" fill="none" xmlns="http://www.w3.org/2000/svg" xmlns:xlink="http://www.w3.org/1999/xlink">

<g transform="translate(130.000000, 0.000000) scale(2.000000 2.000000) "> 

<g clip-path="url(#clip0)">
<path opacity="0.953" d="M9.99934 0C15.514 0 20 4.44646 20 10C20 15.5172 15.514 20 9.99934 20C4.48599 20 0 15.5172 0 10C0 4.44646 4.48599 0 9.99934 0V0Z" fill="#878787"/>
<path opacity="0.95" fill-rule="evenodd" clip-rule="evenodd" d="M10 19C14.9706 19 19 14.9706 19 10C19 5.02944 14.9706 1 10 1C5.02944 1 1 5.02944 1 10C1 14.9706 5.02944 19 10 19ZM10 20C15.5228 20 20 15.5228 20 10C20 4.47715 15.5228 0 10 0C4.47715 0 0 4.47715 0 10C0 15.5228 4.47715 20 10 20Z" fill="#404040"/>
</g>
<defs>
<clipPath id="clip0">
<path d="M0 0H20V20H0V0Z" fill="white"/>
</clipPath>
</defs>

</g>%n%n
<g transform="translate(138.000000, 8.000000) scale(0.750000 0.750000) "> 

<path fill-rule="nonzero" fill="rgb(100%, 100%, 100%)" fill-opacity="1" d="M 2.675781 18.398438 L 2.675781 17.5 L 4.867188 17.5 L 4.933594 16.835938 C 4.972656 16.472656 5.121094 15.734375 5.265625 15.191406 C 6.355469 11.128906 9.632812 8.035156 13.761719 7.183594 C 14.203125 7.09375 14.578125 7.003906 14.597656 6.988281 C 14.613281 6.972656 14.507812 6.371094 14.359375 5.652344 C 14.203125 4.871094 14.132812 4.320312 14.195312 4.285156 C 14.25 4.25 14.691406 4.085938 15.171875 3.917969 L 16.054688 3.617188 L 16.847656 3.898438 C 18.027344 4.320312 17.957031 4.1875 17.695312 5.507812 C 17.570312 6.140625 17.445312 6.734375 17.417969 6.824219 C 17.382812 6.957031 17.515625 7.019531 18.039062 7.113281 C 22.710938 7.976562 26.378906 11.828125 27.023438 16.554688 L 27.152344 17.5 L 29.324219 17.5 L 29.324219 19.296875 L 2.675781 19.296875 Z M 2.675781 18.398438 "/>
<path fill-rule="nonzero" fill="rgb(100%, 100%, 100%)" fill-opacity="1" d="M 21.722656 25.617188 L 16.085938 28.210938 C 16.085938 28.210938 15.425781 28.597656 14.320312 28.210938 L 5.203125 24.566406 C 5.203125 24.566406 3.964844 23.984375 5.621094 23.210938 L 12.5625 25.03125 C 13.96875 25.058594 15.992188 24.671875 15.972656 23.695312 L 10.730469 22.972656 C 10.730469 22.972656 9.292969 22.300781 10.671875 21.304688 C 14.90625 21.417969 18.710938 20.835938 21.75 21.351562 L 27.578125 22.742188 L 27.578125 28.011719 Z M 21.722656 25.617188 "/>

</g>%n%n</svg>