<svg width="40" height="40" viewBox="0 0 40 40" fill="none" xmlns="http://www.w3.org/2000/svg" >

<g transform="translate(0.000000, 0.000000) scale(2.000000 2.000000) "> 

<g clip-path="url(#clip0)">
<path opacity="0.953" d="M9.99934 0C15.514 0 20 4.44646 20 10C20 15.5172 15.514 20 9.99934 20C4.48599 20 0 15.5172 0 10C0 4.44646 4.48599 0 9.99934 0V0Z" fill="#878787"/>
<path opacity="0.95" fill-rule="evenodd" clip-rule="evenodd" d="M10 19C14.9706 19 19 14.9706 19 10C19 5.02944 14.9706 1 10 1C5.02944 1 1 5.02944 1 10C1 14.9706 5.02944 19 10 19ZM10 20C15.5228 20 20 15.5228 20 10C20 4.47715 15.5228 0 10 0C4.47715 0 0 4.47715 0 10C0 15.5228 4.47715 20 10 20Z" fill="#404040"/>
</g>
<defs>
<clipPath id="clip0">
<path d="M0 0H20V20H0V0Z" fill="white"/>
</clipPath>
</defs>

</g>


<g transform="translate(8.000000, 8.000000) scale(0.041379 0.041379) "> 

<path d="M526.902 207.686C517.028 164.347 473.892 137.219 430.555 147.091C387.214 156.963 360.087 200.099 369.958 243.438C378.001 278.746 408.124 303.292 442.449 305.836L495.152 447.345L521.755 452.87L535.31 410.674L514.403 395.173L509.359 382.564L515.939 366.946L506.425 334.72L521.874 316.719L506.786 280.989C524.676 262.116 533.112 234.945 526.902 207.686ZM434.789 165.675C444.293 163.51 453.751 169.459 455.917 178.963C458.082 188.467 452.132 197.927 442.628 200.091C433.125 202.256 423.667 196.307 421.5 186.803C419.334 177.299 425.285 167.839 434.789 165.675Z" fill="#ffffff"/>
<path d="M58.6816 60.5117V519.488H325.668V60.5117H58.6816ZM261 246C270.813 246 280.224 249.898 287.163 256.837C294.102 263.776 298 273.187 298 283C298 292.813 294.102 302.224 287.163 309.163C280.224 316.102 270.813 320 261 320C253.385 319.992 245.958 317.635 239.732 313.251C233.507 308.866 228.785 302.667 226.213 295.5H161C159.344 295.523 157.699 295.217 156.162 294.6C154.625 293.982 153.226 293.065 152.046 291.902C150.867 290.739 149.93 289.353 149.291 287.825C148.651 286.297 148.322 284.657 148.322 283C148.322 281.343 148.651 279.703 149.291 278.175C149.93 276.647 150.867 275.261 152.046 274.098C153.226 272.935 154.625 272.018 156.162 271.4C157.699 270.783 159.344 270.477 161 270.5H226.225C228.796 263.335 233.516 257.137 239.739 252.753C245.963 248.368 253.387 246.01 261 246Z" fill="#ffffff"/>

</g>

</svg>