<svg width="300" height="35" viewBox="0 0 300 35" fill="none" xmlns="http://www.w3.org/2000/svg" >

<g transform="translate(135.000000, 2.000000) scale(1.500000 1.500000) "> 

<g clip-path="url(#clip0)">
<path opacity="0.953" d="M9.99934 0C15.514 0 20 4.44646 20 10C20 15.5172 15.514 20 9.99934 20C4.48599 20 0 15.5172 0 10C0 4.44646 4.48599 0 9.99934 0V0Z" fill="#505050"/>
<path opacity="0.95" fill-rule="evenodd" clip-rule="evenodd" d="M10 19C14.9706 19 19 14.9706 19 10C19 5.02944 14.9706 1 10 1C5.02944 1 1 5.02944 1 10C1 14.9706 5.02944 19 10 19ZM10 20C15.5228 20 20 15.5228 20 10C20 4.47715 15.5228 0 10 0C4.47715 0 0 4.47715 0 10C0 15.5228 4.47715 20 10 20Z" fill="#909090"/>
</g>
<defs>
<clipPath id="clip0">
<path d="M0 0H20V20H0V0Z" fill="white"/>
</clipPath>
</defs>

</g>


<g transform="translate(141.000000, 8.000000) scale(0.031034 0.031034) "> 

<path d="M47.7574 149.543V372.775H396.565V149.543H47.7574ZM71.3911 172.037H374.146V350.95H71.3911V172.037ZM124.505 400.992C120.654 400.992 117.519 405.873 117.519 411.917C117.519 417.961 120.654 422.842 124.505 422.842H319.818C323.675 422.842 326.804 417.961 326.804 411.917C326.804 405.873 323.675 400.992 319.818 400.992H124.505Z" fill="#ffffff"/>
<path opacity="0.581028" d="M374.155 172.044H71.3954V350.947H374.155V172.044Z" fill="#ffffff"/>
<path d="M234.021 361H210.302V412.696H234.021V361Z" fill="#ffffff"/>
<path d="M477.68 38.8543C466.774 38.681 440.562 90.1357 439.602 146.581C439.047 180.206 459.268 200.658 459.061 212.952C458.9 221.299 438.097 236.054 437.989 242.489C437.722 258.361 453.231 256.915 453.231 256.915L521.704 258.057C521.704 258.057 536.771 262.116 537.063 244.157C537.174 237.578 516.853 223.046 517.016 213.928C517.281 198.18 538.272 173.516 538.686 148.259C539.603 93.1495 515.469 39.5093 504.542 39.3152L477.68 38.8543ZM472.55 278.124L469.276 477.219L458.626 499.065L468.276 536.657C468.232 539.916 470.839 542.633 474.108 542.688L491.891 542.987C495.14 543.042 497.858 540.413 497.923 537.155L508.835 499.747L498.928 477.411L502.196 278.622L472.55 278.124Z" fill="#ffffff"/>

</g>

</svg>