<svg width="300" height="40" viewBox="0 0 300 40" fill="none" xmlns="http://www.w3.org/2000/svg" xmlns:xlink="http://www.w3.org/1999/xlink">

<g transform="translate(130.000000, 0.000000) scale(2.000000 2.000000) "> 

<g clip-path="url(#clip0)">
<path opacity="0.953" d="M9.99934 0C15.514 0 20 4.44646 20 10C20 15.5172 15.514 20 9.99934 20C4.48599 20 0 15.5172 0 10C0 4.44646 4.48599 0 9.99934 0V0Z" fill="#878787"/>
<path opacity="0.95" fill-rule="evenodd" clip-rule="evenodd" d="M10 19C14.9706 19 19 14.9706 19 10C19 5.02944 14.9706 1 10 1C5.02944 1 1 5.02944 1 10C1 14.9706 5.02944 19 10 19ZM10 20C15.5228 20 20 15.5228 20 10C20 4.47715 15.5228 0 10 0C4.47715 0 0 4.47715 0 10C0 15.5228 4.47715 20 10 20Z" fill="#404040"/>
</g>
<defs>
<clipPath id="clip0">
<path d="M0 0H20V20H0V0Z" fill="white"/>
</clipPath>
</defs>

</g>%n%n
<g transform="translate(138.000000, 8.000000) scale(0.750000 0.750000) "> 

<path fill-rule="nonzero" fill="rgb(100%, 100%, 100%)" fill-opacity="1" d="M 13.527344 1.257812 C 12.71875 1.261719 11.132812 1.570312 11.273438 2.019531 L 12.074219 4.558594 C 12.179688 4.886719 12 5.238281 11.671875 5.339844 C 11.34375 5.441406 10.996094 5.253906 10.898438 4.925781 L 10.230469 2.777344 C 8.898438 3.789062 7.960938 5.367188 7.605469 7.167969 L 7.5 7.167969 C 7.121094 7.164062 6.8125 7.46875 6.8125 7.847656 C 6.8125 8.222656 7.121094 8.527344 7.5 8.523438 L 19.539062 8.523438 C 19.914062 8.527344 20.222656 8.222656 20.222656 7.847656 C 20.222656 7.46875 19.914062 7.164062 19.539062 7.167969 L 19.433594 7.167969 C 19.054688 5.257812 18.027344 3.605469 16.574219 2.605469 L 15.851562 4.925781 C 15.757812 5.253906 15.40625 5.441406 15.078125 5.339844 C 14.75 5.238281 14.570312 4.886719 14.675781 4.558594 L 15.574219 1.890625 C 15.578125 1.453125 14.238281 1.261719 13.527344 1.257812 Z M 8.03125 10.710938 C 7.996094 10.992188 7.980469 11.277344 7.980469 11.566406 C 7.980469 15.019531 10.433594 17.816406 13.464844 17.816406 C 16.492188 17.816406 18.949219 15.019531 18.949219 11.566406 C 18.949219 11.277344 18.933594 10.992188 18.898438 10.710938 Z M 8.746094 19.722656 C 6.890625 19.722656 5.296875 20.847656 4.617188 22.457031 L 4.261719 26.777344 L 4.261719 30.019531 L 18.066406 30.019531 L 18.066406 27.777344 C 17.964844 27.597656 17.910156 27.394531 17.910156 27.1875 L 17.910156 24.644531 C 17.910156 24.601562 17.914062 24.5625 17.917969 24.519531 L 14.882812 24.519531 C 14.210938 24.519531 13.667969 23.976562 13.667969 23.304688 L 13.667969 20.761719 C 13.667969 20.335938 13.890625 19.941406 14.257812 19.722656 Z M 19.125 28.402344 L 19.125 30.019531 L 22.664062 30.019531 L 22.664062 28.402344 Z M 19.125 28.402344 "/>
<path fill-rule="nonzero" fill="rgb(100%, 100%, 100%)" fill-opacity="1" d="M 19.152344 16.820312 L 19.152344 19.359375 L 26.019531 19.359375 L 26.019531 16.820312 Z M 23.238281 20.730469 L 23.238281 23.273438 L 30.101562 23.273438 L 30.101562 20.730469 Z M 14.882812 20.761719 L 14.882812 23.304688 L 21.746094 23.304688 L 21.746094 20.761719 Z M 19.125 24.644531 L 19.125 27.1875 L 25.992188 27.1875 L 25.992188 24.644531 Z M 19.125 24.644531 "/>

</g>%n%n</svg>