<svg width="300" height="40" viewBox="0 0 300 40" fill="none" xmlns="http://www.w3.org/2000/svg" xmlns:xlink="http://www.w3.org/1999/xlink">

<g transform="translate(130.000000, 0.000000) scale(2.000000 2.000000) "> 

<g clip-path="url(#clip0)">
<path opacity="0.953" d="M9.99934 0C15.514 0 20 4.44646 20 10C20 15.5172 15.514 20 9.99934 20C4.48599 20 0 15.5172 0 10C0 4.44646 4.48599 0 9.99934 0V0Z" fill="#878787"/>
<path opacity="0.95" fill-rule="evenodd" clip-rule="evenodd" d="M10 19C14.9706 19 19 14.9706 19 10C19 5.02944 14.9706 1 10 1C5.02944 1 1 5.02944 1 10C1 14.9706 5.02944 19 10 19ZM10 20C15.5228 20 20 15.5228 20 10C20 4.47715 15.5228 0 10 0C4.47715 0 0 4.47715 0 10C0 15.5228 4.47715 20 10 20Z" fill="#404040"/>
</g>
<defs>
<clipPath id="clip0">
<path d="M0 0H20V20H0V0Z" fill="white"/>
</clipPath>
</defs>

</g>%n%n
<g transform="translate(138.000000, 8.000000) scale(0.750000 0.750000) "> 

<path fill-rule="nonzero" fill="rgb(100%, 100%, 100%)" fill-opacity="1" d="M 21.429688 4.679688 C 20.921875 5.546875 19.480469 6.867188 19.507812 10.761719 C 19.261719 9.871094 18.96875 7.902344 19.058594 6.402344 C 19.058594 6.402344 16.761719 7.9375 16.761719 11.980469 C 16.761719 14.917969 18.320312 17.066406 20.410156 17.597656 L 20.410156 24.300781 C 18.457031 20.550781 14.652344 18.632812 14.652344 18.632812 C 14.652344 18.632812 15.59375 20.71875 16.191406 23.183594 C 16.875 25.988281 18.023438 27.210938 20.410156 27.269531 L 20.410156 27.289062 L 22.449219 27.289062 C 25.433594 27.191406 26.253906 24.410156 28.894531 19.699219 C 25.769531 20.652344 25.308594 21.367188 22.449219 23.816406 L 22.449219 17.597656 C 24.535156 17.066406 26.097656 14.917969 26.097656 11.980469 C 26.097656 7.9375 23.800781 6.402344 23.800781 6.402344 C 23.890625 7.902344 23.597656 9.871094 23.351562 10.761719 C 23.378906 6.867188 21.9375 5.546875 21.429688 4.679688 C 21.429688 4.683594 21.429688 4.6875 21.429688 4.691406 C 21.429688 4.6875 21.429688 4.683594 21.429688 4.679688 Z M 21.429688 4.679688 "/>
<path fill-rule="nonzero" fill="rgb(100%, 100%, 100%)" fill-opacity="1" d="M 11.847656 9.355469 L 8.0625 3.042969 C 7.835938 2.664062 7.207031 2.664062 6.980469 3.042969 L 3.195312 9.355469 C 3.136719 9.453125 3.105469 9.566406 3.105469 9.679688 L 3.105469 26.085938 C 3.105469 27.828125 4.519531 29.242188 6.261719 29.242188 L 8.785156 29.242188 C 10.523438 29.242188 11.941406 27.828125 11.941406 26.085938 L 11.941406 9.679688 C 11.941406 9.566406 11.910156 9.453125 11.847656 9.355469 Z M 7.523438 4.59375 L 10.195312 9.046875 L 4.851562 9.046875 Z M 6.261719 25.457031 L 4.996094 25.457031 L 4.996094 10.308594 L 6.261719 10.308594 Z M 10.046875 25.457031 L 8.785156 25.457031 L 8.785156 10.308594 L 10.046875 10.308594 Z M 10.046875 25.457031 "/>

</g>%n%n</svg>