<svg width="300" height="35" viewBox="0 0 300 35" fill="none" xmlns="http://www.w3.org/2000/svg">

<g transform="translate(135.000000, 2.000000) scale(1.500000 1.500000) "> 

<g clip-path="url(#clip0)">
<path opacity="0.953" d="M9.99934 0C15.514 0 20 4.44646 20 10C20 15.5172 15.514 20 9.99934 20C4.48599 20 0 15.5172 0 10C0 4.44646 4.48599 0 9.99934 0V0Z" fill="#505050"/>
<path opacity="0.95" fill-rule="evenodd" clip-rule="evenodd" d="M10 19C14.9706 19 19 14.9706 19 10C19 5.02944 14.9706 1 10 1C5.02944 1 1 5.02944 1 10C1 14.9706 5.02944 19 10 19ZM10 20C15.5228 20 20 15.5228 20 10C20 4.47715 15.5228 0 10 0C4.47715 0 0 4.47715 0 10C0 15.5228 4.47715 20 10 20Z" fill="#909090"/>
</g>
<defs>
<clipPath id="clip0">
<path d="M0 0H20V20H0V0Z" fill="white"/>
</clipPath>
</defs>

</g>


<g transform="translate(141.000000, 8.000000) scale(0.031034 0.031034) "> 

<path d="M413.025 275.805H138.585V152.78H526.586V162.243C526.586 224.863 475.644 275.805 413.025 275.805Z" fill="#ffffff"/>
<path d="M119.658 171.707H62.8773C57.6534 171.707 53.4138 175.947 53.4138 181.17C53.4138 217.699 83.129 247.414 119.658 247.414V171.707Z" fill="#ffffff"/>
<path d="M450.879 342.049H441.415C411.246 342.049 389.357 322.999 385.354 294.732H213.573C209.57 322.999 187.681 342.049 157.512 342.049H148.048C133.456 342.049 119.658 355.847 119.658 370.439V427.22H236.569L239.172 425.1C239.503 424.845 272.019 398.83 308.927 398.83C344.68 398.83 367.922 423.86 368.14 424.088L370.96 427.22H479.269V370.439C479.269 355.847 465.471 342.049 450.879 342.049Z" fill="#ffffff"/>

</g>

</svg>