<svg width="300" height="40" viewBox="0 0 300 40" fill="none" xmlns="http://www.w3.org/2000/svg" xmlns:xlink="http://www.w3.org/1999/xlink" version="1.1">

<g transform="translate(130.000000, 0.000000) scale(2.000000 2.000000) "> 

<g clip-path="url(#clip0)">
<path opacity="0.953" d="M9.99934 0C15.514 0 20 4.44646 20 10C20 15.5172 15.514 20 9.99934 20C4.48599 20 0 15.5172 0 10C0 4.44646 4.48599 0 9.99934 0V0Z" fill="#878787"/>
<path opacity="0.95" fill-rule="evenodd" clip-rule="evenodd" d="M10 19C14.9706 19 19 14.9706 19 10C19 5.02944 14.9706 1 10 1C5.02944 1 1 5.02944 1 10C1 14.9706 5.02944 19 10 19ZM10 20C15.5228 20 20 15.5228 20 10C20 4.47715 15.5228 0 10 0C4.47715 0 0 4.47715 0 10C0 15.5228 4.47715 20 10 20Z" fill="#404040"/>
</g>
<defs>
<clipPath id="clip0">
<path d="M0 0H20V20H0V0Z" fill="white"/>
</clipPath>
</defs>

</g>%n%n
<g transform="translate(138.000000, 8.000000) scale(2.000000 2.000000) "> 

<g id="surface1">
<path style=" stroke:none;fill-rule:nonzero;fill:rgb(100%,100%,100%);fill-opacity:0.756863;" d="M 3.351562 5.554688 C 2.921875 5.667969 2.554688 5.808594 2.261719 5.972656 C 1.621094 6.328125 1.390625 6.757812 1.617188 7.175781 C 1.84375 7.59375 2.511719 7.960938 3.480469 8.199219 C 4.445312 8.4375 5.632812 8.53125 6.785156 8.457031 C 7.9375 8.382812 8.960938 8.148438 9.640625 7.800781 C 10.285156 7.472656 10.570312 7.066406 10.433594 6.664062 C 10.296875 6.261719 9.753906 5.894531 8.90625 5.628906 C 8.90625 5.640625 8.902344 5.648438 8.902344 5.65625 C 8.6875 6.703125 7.972656 7.238281 7.347656 7.417969 C 7.039062 7.507812 6.75 7.527344 6.535156 7.535156 C 6.429688 7.539062 6.339844 7.539062 6.285156 7.539062 C 6.273438 7.539062 6.261719 7.539062 6.25 7.542969 C 6.261719 7.539062 6.277344 7.53125 6.304688 7.523438 C 6.1875 7.566406 6.058594 7.5625 5.945312 7.515625 C 5.976562 7.527344 5.996094 7.535156 6.011719 7.542969 C 6.046875 7.550781 6.070312 7.5625 6.011719 7.542969 C 6.003906 7.539062 5.996094 7.539062 5.988281 7.539062 C 5.933594 7.539062 5.84375 7.539062 5.734375 7.535156 C 5.519531 7.527344 5.234375 7.507812 4.921875 7.417969 C 4.300781 7.238281 3.582031 6.703125 3.371094 5.65625 C 3.363281 5.625 3.359375 5.589844 3.351562 5.554688 Z M 6.25 7.542969 C 6.230469 7.550781 6.234375 7.546875 6.25 7.542969 Z M 6.25 7.542969 "/>
<path style=" stroke:none;fill-rule:nonzero;fill:rgb(100%,100%,100%);fill-opacity:1;" d="M 10.46875 7.921875 C 10.300781 8.066406 10.109375 8.1875 9.890625 8.296875 C 8.332031 9.089844 5.394531 9.246094 3.34375 8.738281 C 2.601562 8.554688 1.964844 8.316406 1.53125 7.933594 L 1.53125 8.960938 L 1.539062 8.960938 C 1.550781 9.21875 1.734375 9.472656 2.070312 9.699219 C 2.410156 9.925781 2.890625 10.121094 3.480469 10.269531 C 4.445312 10.507812 5.632812 10.601562 6.785156 10.527344 C 7.9375 10.453125 8.960938 10.214844 9.640625 9.871094 C 10.160156 9.605469 10.445312 9.285156 10.460938 8.960938 L 10.46875 8.960938 Z M 10.46875 7.921875 "/>
<path style=" stroke:none;fill-rule:evenodd;fill:rgb(100%,100%,100%);fill-opacity:1;" d="M 8.433594 5.5625 C 8.601562 4.730469 8.527344 4.085938 7.921875 3.464844 C 7.484375 3.019531 7.125 3.101562 7.0625 2.445312 C 7.035156 2.15625 7.230469 2.253906 7.3125 2.191406 C 7.578125 2 7.40625 1.734375 7.207031 1.730469 C 6.871094 1.71875 6.136719 1.722656 6.136719 1.722656 C 6.136719 1.722656 5.398438 1.71875 5.066406 1.730469 C 4.867188 1.734375 4.695312 2 4.957031 2.191406 C 5.042969 2.253906 5.238281 2.15625 5.210938 2.445312 C 5.144531 3.101562 4.785156 3.019531 4.351562 3.464844 C 3.746094 4.085938 3.667969 4.730469 3.839844 5.5625 C 4.199219 7.347656 5.953125 6.996094 6.136719 7.078125 C 6.320312 6.996094 8.070312 7.347656 8.433594 5.5625 Z M 8.433594 5.5625 "/>
</g>

</g>%n%n</svg>