<svg width="300" height="35" viewBox="0 0 300 35" fill="none" xmlns="http://www.w3.org/2000/svg">

<g transform="translate(135.000000, 2.000000) scale(1.500000 1.500000) "> 

<g clip-path="url(#clip0)">
<path opacity="0.953" d="M9.99934 0C15.514 0 20 4.44646 20 10C20 15.5172 15.514 20 9.99934 20C4.48599 20 0 15.5172 0 10C0 4.44646 4.48599 0 9.99934 0V0Z" fill="#878787"/>
<path opacity="0.95" fill-rule="evenodd" clip-rule="evenodd" d="M10 19C14.9706 19 19 14.9706 19 10C19 5.02944 14.9706 1 10 1C5.02944 1 1 5.02944 1 10C1 14.9706 5.02944 19 10 19ZM10 20C15.5228 20 20 15.5228 20 10C20 4.47715 15.5228 0 10 0C4.47715 0 0 4.47715 0 10C0 15.5228 4.47715 20 10 20Z" fill="#404040"/>
</g>
<defs>
<clipPath id="clip0">
<path d="M0 0H20V20H0V0Z" fill="white"/>
</clipPath>
</defs>

</g>


<g transform="translate(141.000000, 8.000000) scale(0.031034 0.031034) "> 

<path d="M388.388 84.8167C379.192 100.53 353.086 124.441 353.574 195.067C349.115 178.912 343.799 143.243 345.431 116.008C345.431 116.008 303.787 143.889 303.787 217.162C303.787 270.395 332.085 309.341 369.926 318.936V440.42C334.503 372.484 265.549 337.715 265.549 337.715C265.549 337.715 282.634 375.501 293.498 420.199C305.874 471.055 326.679 493.163 369.926 494.252V494.604H406.892C461.013 492.87 475.839 442.439 523.726 357.063C467.105 374.291 458.688 387.294 406.892 431.645V318.938C444.733 309.346 473.031 270.409 473.031 217.162C473.031 143.889 431.386 116.008 431.386 116.008C433.019 143.243 427.703 178.912 423.244 195.067C423.732 124.441 397.626 100.53 388.429 84.8167C388.429 84.8797 388.419 84.9431 388.41 85.0061C388.41 84.9431 388.398 84.8797 388.388 84.8167Z" fill="#ffffff"/>
<path d="M214.773 169.54L146.144 55.1571C142.015 48.2599 130.657 48.2599 126.527 55.1571L57.8979 169.54C56.8342 171.324 56.2737 173.36 56.2737 175.43V186.868V449.948V472.825C56.2737 504.36 81.9297 530.016 113.465 530.016H159.218C190.753 530.016 216.409 504.36 216.409 472.825V449.948V186.868V175.43C216.409 173.36 215.849 171.324 214.773 169.54ZM136.341 83.2838L184.771 163.992H87.9119L136.341 83.2838ZM113.465 461.386H90.5884V186.868H113.465V461.386ZM182.094 461.386H159.218V186.868H182.094V461.386Z" fill="#ffffff"/>

</g>

</svg>