<svg width="300" height="40" viewBox="0 0 300 40" fill="none" xmlns="http://www.w3.org/2000/svg" xmlns:xlink="http://www.w3.org/1999/xlink" version="1.1">

<g transform="translate(130.000000, 0.000000) scale(2.000000 2.000000) "> 

<g clip-path="url(#clip0)">
<path opacity="0.953" d="M9.99934 0C15.514 0 20 4.44646 20 10C20 15.5172 15.514 20 9.99934 20C4.48599 20 0 15.5172 0 10C0 4.44646 4.48599 0 9.99934 0V0Z" fill="#878787"/>
<path opacity="0.95" fill-rule="evenodd" clip-rule="evenodd" d="M10 19C14.9706 19 19 14.9706 19 10C19 5.02944 14.9706 1 10 1C5.02944 1 1 5.02944 1 10C1 14.9706 5.02944 19 10 19ZM10 20C15.5228 20 20 15.5228 20 10C20 4.47715 15.5228 0 10 0C4.47715 0 0 4.47715 0 10C0 15.5228 4.47715 20 10 20Z" fill="#404040"/>
</g>
<defs>
<clipPath id="clip0">
<path d="M0 0H20V20H0V0Z" fill="white"/>
</clipPath>
</defs>

</g>%n%n
<g transform="translate(138.000000, 8.000000) scale(2.000000 2.000000) "> 

<g id="surface1">
<path style=" stroke:none;fill-rule:nonzero;fill:rgb(100%,100%,100%);fill-opacity:1;" d="M 3.210938 5.078125 L 4.683594 5.777344 C 4.773438 5.820312 4.886719 5.746094 4.882812 5.648438 L 4.808594 4.019531 C 4.808594 3.992188 4.800781 3.96875 4.785156 3.949219 L 4.707031 3.832031 L 2.933594 1.15625 L 2.777344 0.921875 C 2.566406 0.601562 2.128906 0.511719 1.808594 0.726562 L 1.34375 1.035156 C 1.023438 1.246094 0.933594 1.683594 1.148438 2.003906 L 1.304688 2.234375 L 3.078125 4.914062 L 3.15625 5.03125 C 3.171875 5.050781 3.191406 5.066406 3.210938 5.078125 Z M 4.59375 5.425781 L 3.554688 4.933594 L 4.542969 4.277344 Z M 2.273438 1.425781 L 2.507812 1.269531 L 4.359375 4.0625 L 4.125 4.21875 Z M 1.574219 1.886719 L 1.808594 1.734375 L 3.660156 4.527344 L 3.429688 4.679688 Z M 1.574219 1.886719 "/>
<path style=" stroke:none;fill-rule:nonzero;fill:rgb(100%,100%,100%);fill-opacity:1;" d="M 10.476562 6.109375 C 9.617188 5.96875 9 6.835938 8.226562 7.050781 C 8.085938 7.089844 6.988281 7.292969 6.972656 7.046875 C 6.945312 6.65625 7.03125 6.222656 7.230469 5.886719 C 7.597656 5.261719 8.566406 5.101562 8.667969 4.296875 C 8.722656 3.867188 8.4375 3.496094 8.042969 3.351562 C 7.144531 3.027344 6.027344 3.992188 6.675781 4.878906 C 6.789062 5.035156 7.175781 5.203125 7.195312 5.386719 C 7.207031 5.5 6.976562 5.714844 6.921875 5.785156 C 6.65625 6.117188 6.390625 6.453125 6.128906 6.789062 C 6.09375 6.832031 6.042969 6.871094 5.980469 6.90625 L 5.988281 6.898438 C 4.230469 7.074219 2.121094 6.914062 0.75 8.214844 C 2.210938 8.171875 3.671875 8.125 5.132812 8.082031 C 4.371094 9.183594 3.609375 10.289062 2.84375 11.390625 C 4.683594 10.945312 5.695312 9.089844 6.800781 7.710938 C 6.871094 7.621094 7.414062 7.640625 7.554688 7.613281 C 7.753906 7.578125 7.945312 7.535156 8.128906 7.457031 C 8.339844 7.371094 8.753906 7.007812 9.003906 7.136719 C 9.179688 7.226562 9.238281 7.644531 9.441406 7.789062 C 9.636719 7.929688 9.871094 7.992188 10.109375 7.992188 C 11.253906 7.992188 11.800781 6.324219 10.476562 6.109375 Z M 6.964844 3.871094 C 7.566406 3.183594 8.859375 3.894531 8.171875 4.667969 C 7.535156 5.375 6.28125 4.652344 6.964844 3.871094 Z M 6.148438 7.699219 C 6.066406 7.699219 6 7.617188 6 7.519531 C 6 7.417969 6.066406 7.339844 6.148438 7.339844 C 6.226562 7.339844 6.292969 7.417969 6.292969 7.519531 C 6.292969 7.617188 6.226562 7.699219 6.148438 7.699219 Z M 9.640625 7.535156 C 8.929688 6.898438 10.078125 6.085938 10.699219 6.492188 C 11.566406 7.058594 10.3125 8.117188 9.640625 7.535156 Z M 9.640625 7.535156 "/>
</g>

</g>%n%n</svg>