<svg width="300" height="40" viewBox="0 0 300 40" fill="none" xmlns="http://www.w3.org/2000/svg" xmlns:xlink="http://www.w3.org/1999/xlink">

<g transform="translate(130.000000, 0.000000) scale(2.000000 2.000000) "> 

<g clip-path="url(#clip0)">
<path opacity="0.953" d="M9.99934 0C15.514 0 20 4.44646 20 10C20 15.5172 15.514 20 9.99934 20C4.48599 20 0 15.5172 0 10C0 4.44646 4.48599 0 9.99934 0V0Z" fill="#878787"/>
<path opacity="0.95" fill-rule="evenodd" clip-rule="evenodd" d="M10 19C14.9706 19 19 14.9706 19 10C19 5.02944 14.9706 1 10 1C5.02944 1 1 5.02944 1 10C1 14.9706 5.02944 19 10 19ZM10 20C15.5228 20 20 15.5228 20 10C20 4.47715 15.5228 0 10 0C4.47715 0 0 4.47715 0 10C0 15.5228 4.47715 20 10 20Z" fill="#404040"/>
</g>
<defs>
<clipPath id="clip0">
<path d="M0 0H20V20H0V0Z" fill="white"/>
</clipPath>
</defs>

</g>%n%n
<g transform="translate(138.000000, 8.000000) scale(0.750000 0.750000) "> 

<path fill-rule="nonzero" fill="rgb(100%, 100%, 100%)" fill-opacity="1" d="M 26.953125 5 C 26.351562 4.316406 25.613281 3.90625 24.984375 3.90625 C 24.652344 3.90625 24.371094 4.019531 24.167969 4.238281 L 16.738281 12.050781 C 16.328125 12.484375 16.167969 13.0625 16.273438 13.566406 L 13.546875 15.734375 C 13.46875 15.796875 13.421875 15.894531 13.421875 15.996094 L 13.421875 21.132812 L 11.183594 20.023438 C 10.15625 19.511719 8.820312 19.890625 8.210938 20.859375 L 4.476562 26.800781 C 3.867188 27.769531 4.273438 28.3125 5.375 28.007812 L 17.445312 24.675781 C 18.550781 24.371094 18.613281 23.707031 17.585938 23.199219 L 14.5625 21.765625 L 14.5625 16.460938 L 17.054688 14.480469 C 17.183594 14.59375 17.222656 14.671875 17.636719 14.671875 C 18.011719 14.671875 18.378906 14.488281 18.6875 14.257812 L 27.367188 7.863281 C 27.613281 7.683594 27.761719 7.40625 27.796875 7.066406 C 27.863281 6.449219 27.550781 5.675781 26.953125 5 Z M 26.953125 5 "/>

</g>%n%n</svg>