<svg width="300" height="40" viewBox="0 0 300 40" fill="none" xmlns="http://www.w3.org/2000/svg" xmlns:xlink="http://www.w3.org/1999/xlink">

<g transform="translate(130.000000, 0.000000) scale(2.000000 2.000000) "> 

<g clip-path="url(#clip0)">
<path opacity="0.953" d="M9.99934 0C15.514 0 20 4.44646 20 10C20 15.5172 15.514 20 9.99934 20C4.48599 20 0 15.5172 0 10C0 4.44646 4.48599 0 9.99934 0V0Z" fill="#878787"/>
<path opacity="0.95" fill-rule="evenodd" clip-rule="evenodd" d="M10 19C14.9706 19 19 14.9706 19 10C19 5.02944 14.9706 1 10 1C5.02944 1 1 5.02944 1 10C1 14.9706 5.02944 19 10 19ZM10 20C15.5228 20 20 15.5228 20 10C20 4.47715 15.5228 0 10 0C4.47715 0 0 4.47715 0 10C0 15.5228 4.47715 20 10 20Z" fill="#404040"/>
</g>
<defs>
<clipPath id="clip0">
<path d="M0 0H20V20H0V0Z" fill="white"/>
</clipPath>
</defs>

</g>%n%n
<g transform="translate(138.000000, 8.000000) scale(0.750000 0.750000) "> 

<path fill-rule="evenodd" fill="rgb(100%, 100%, 100%)" fill-opacity="1" d="M 8 11.332031 C 8 10.964844 8.296875 10.667969 8.667969 10.667969 L 23.332031 10.667969 C 23.703125 10.667969 24 10.964844 24 11.332031 L 24 14 C 24 12.894531 24.894531 12 26 12 L 29.332031 12 L 29.332031 12.78125 C 29.332031 13.132812 29.191406 13.472656 28.941406 13.722656 L 28.667969 14 C 28.296875 14.367188 28.296875 14.964844 28.667969 15.332031 C 29.035156 15.703125 29.035156 16.296875 28.667969 16.667969 C 28.296875 17.035156 28.296875 17.632812 28.667969 18 L 28.941406 18.277344 C 29.191406 18.527344 29.332031 18.867188 29.332031 19.21875 L 29.332031 20 L 26 20 C 24.894531 20 24 19.105469 24 18 L 24 20.667969 C 24 21.035156 23.703125 21.332031 23.332031 21.332031 L 8.667969 21.332031 C 8.296875 21.332031 8 21.035156 8 20.667969 L 8 18.667969 C 8 19.402344 7.402344 20 6.667969 20 L 2.667969 20 L 2.667969 19.21875 C 2.667969 18.867188 2.808594 18.527344 3.058594 18.277344 L 3.332031 18 C 3.703125 17.632812 3.703125 17.035156 3.332031 16.667969 C 2.964844 16.296875 2.964844 15.703125 3.332031 15.332031 C 3.703125 14.964844 3.703125 14.367188 3.332031 14 L 3.058594 13.722656 C 2.808594 13.472656 2.667969 13.132812 2.667969 12.78125 L 2.667969 12 L 6.667969 12 C 7.402344 12 8 12.597656 8 13.332031 Z M 8 11.332031 "/>

</g>%n%n</svg>