<svg width="300" height="40" viewBox="0 0 300 40" fill="none" xmlns="http://www.w3.org/2000/svg" xmlns:xlink="http://www.w3.org/1999/xlink">

<g transform="translate(130.000000, 0.000000) scale(2.000000 2.000000) "> 

<g clip-path="url(#clip0)">
<path opacity="0.953" d="M9.99934 0C15.514 0 20 4.44646 20 10C20 15.5172 15.514 20 9.99934 20C4.48599 20 0 15.5172 0 10C0 4.44646 4.48599 0 9.99934 0V0Z" fill="#878787"/>
<path opacity="0.95" fill-rule="evenodd" clip-rule="evenodd" d="M10 19C14.9706 19 19 14.9706 19 10C19 5.02944 14.9706 1 10 1C5.02944 1 1 5.02944 1 10C1 14.9706 5.02944 19 10 19ZM10 20C15.5228 20 20 15.5228 20 10C20 4.47715 15.5228 0 10 0C4.47715 0 0 4.47715 0 10C0 15.5228 4.47715 20 10 20Z" fill="#404040"/>
</g>
<defs>
<clipPath id="clip0">
<path d="M0 0H20V20H0V0Z" fill="white"/>
</clipPath>
</defs>

</g>%n%n
<g transform="translate(138.000000, 8.000000) scale(0.750000 0.750000) "> 

<path fill-rule="nonzero" fill="rgb(100%, 100%, 100%)" fill-opacity="1" d="M 2.753906 28.472656 L 8.777344 14.125 L 10.753906 15.441406 L 2.996094 28.578125 Z M 2.753906 28.472656 "/>
<path fill-rule="nonzero" fill="rgb(100%, 100%, 100%)" fill-opacity="1" d="M 11.34375 2.53125 L 7.703125 7.726562 C 6.976562 8.757812 7.25 10.085938 8.351562 10.703125 L 14.085938 14.585938 C 15.1875 15.207031 16.695312 14.878906 17.441406 13.859375 L 18.367188 12.59375 L 27.914062 20.054688 C 28.484375 20.496094 29.285156 20.382812 29.710938 19.804688 C 30.132812 19.222656 29.996094 18.425781 29.402344 18.019531 L 19.394531 11.1875 L 20.457031 9.734375 C 21.199219 8.714844 21.039062 7.191406 20.09375 6.355469 L 14.417969 2.203125 C 13.472656 1.363281 12.089844 1.511719 11.34375 2.53125 Z M 11.34375 2.53125 "/>

</g>%n%n</svg>