<svg width="300" height="40" viewBox="0 0 300 40" fill="none" xmlns="http://www.w3.org/2000/svg" xmlns:xlink="http://www.w3.org/1999/xlink" version="1.1">

<g transform="translate(130.000000, 0.000000) scale(2.000000 2.000000) "> 

<g clip-path="url(#clip0)">
<path opacity="0.953" d="M9.99934 0C15.514 0 20 4.44646 20 10C20 15.5172 15.514 20 9.99934 20C4.48599 20 0 15.5172 0 10C0 4.44646 4.48599 0 9.99934 0V0Z" fill="#878787"/>
<path opacity="0.95" fill-rule="evenodd" clip-rule="evenodd" d="M10 19C14.9706 19 19 14.9706 19 10C19 5.02944 14.9706 1 10 1C5.02944 1 1 5.02944 1 10C1 14.9706 5.02944 19 10 19ZM10 20C15.5228 20 20 15.5228 20 10C20 4.47715 15.5228 0 10 0C4.47715 0 0 4.47715 0 10C0 15.5228 4.47715 20 10 20Z" fill="#404040"/>
</g>
<defs>
<clipPath id="clip0">
<path d="M0 0H20V20H0V0Z" fill="white"/>
</clipPath>
</defs>

</g>%n%n
<g transform="translate(138.000000, 8.000000) scale(2.000000 2.000000) "> 

<g id="surface1">
<path style=" stroke:none;fill-rule:nonzero;fill:rgb(100%,100%,100%);fill-opacity:1;" d="M 1.003906 6.898438 L 1.003906 6.5625 L 1.824219 6.5625 L 1.851562 6.3125 C 1.863281 6.175781 1.921875 5.898438 1.976562 5.695312 C 2.382812 4.171875 3.613281 3.015625 5.160156 2.695312 C 5.328125 2.660156 5.46875 2.625 5.472656 2.621094 C 5.480469 2.613281 5.441406 2.390625 5.386719 2.121094 C 5.324219 1.828125 5.300781 1.621094 5.324219 1.605469 C 5.34375 1.59375 5.507812 1.53125 5.691406 1.46875 L 6.019531 1.355469 L 6.316406 1.460938 C 6.761719 1.621094 6.734375 1.570312 6.636719 2.066406 C 6.589844 2.304688 6.542969 2.523438 6.53125 2.558594 C 6.519531 2.609375 6.566406 2.632812 6.765625 2.667969 C 8.515625 2.992188 9.890625 4.4375 10.132812 6.207031 L 10.179688 6.5625 L 10.996094 6.5625 L 10.996094 7.234375 L 1.003906 7.234375 Z M 1.003906 6.898438 "/>
<path style=" stroke:none;fill-rule:nonzero;fill:rgb(100%,100%,100%);fill-opacity:1;" d="M 8.144531 9.605469 L 6.03125 10.578125 C 6.03125 10.578125 5.785156 10.722656 5.371094 10.578125 L 1.953125 9.210938 C 1.953125 9.210938 1.488281 8.992188 2.109375 8.703125 L 4.710938 9.386719 C 5.238281 9.398438 5.996094 9.25 5.988281 8.886719 L 4.023438 8.613281 C 4.023438 8.613281 3.484375 8.363281 4.003906 7.988281 C 5.589844 8.03125 7.015625 7.8125 8.15625 8.007812 L 10.34375 8.527344 L 10.34375 10.503906 Z M 8.144531 9.605469 "/>
</g>

</g>%n%n</svg>