<svg width="300" height="40" viewBox="0 0 300 40" fill="none" xmlns="http://www.w3.org/2000/svg" xmlns:xlink="http://www.w3.org/1999/xlink">

<g transform="translate(130.000000, 0.000000) scale(2.000000 2.000000) "> 

<g clip-path="url(#clip0)">
<path opacity="0.953" d="M9.99934 0C15.514 0 20 4.44646 20 10C20 15.5172 15.514 20 9.99934 20C4.48599 20 0 15.5172 0 10C0 4.44646 4.48599 0 9.99934 0V0Z" fill="#878787"/>
<path opacity="0.95" fill-rule="evenodd" clip-rule="evenodd" d="M10 19C14.9706 19 19 14.9706 19 10C19 5.02944 14.9706 1 10 1C5.02944 1 1 5.02944 1 10C1 14.9706 5.02944 19 10 19ZM10 20C15.5228 20 20 15.5228 20 10C20 4.47715 15.5228 0 10 0C4.47715 0 0 4.47715 0 10C0 15.5228 4.47715 20 10 20Z" fill="#404040"/>
</g>
<defs>
<clipPath id="clip0">
<path d="M0 0H20V20H0V0Z" fill="white"/>
</clipPath>
</defs>

</g>%n%n
<g transform="translate(138.000000, 8.000000) scale(0.750000 0.750000) "> 

<path fill-rule="nonzero" fill="rgb(100%, 100%, 100%)" fill-opacity="1" d="M 22.449219 15.105469 C 21.898438 15.105469 21.324219 15.539062 21.09375 16.136719 L 20.902344 16.632812 L 19.277344 16.632812 L 19.277344 16.324219 C 19.277344 16.15625 19.140625 16.019531 18.972656 16.019531 L 16.832031 16.019531 C 16.664062 16.019531 16.527344 16.15625 16.527344 16.324219 L 16.527344 16.71875 C 15.628906 16.984375 15 17.8125 15 18.769531 L 15 27.328125 C 15 28.507812 15.960938 29.46875 17.140625 29.46875 L 28.140625 29.46875 C 29.320312 29.46875 30.28125 28.507812 30.28125 27.328125 L 30.28125 18.769531 C 30.28125 17.589844 29.320312 16.632812 28.140625 16.632812 L 27.433594 16.632812 L 27.242188 16.136719 C 27.011719 15.539062 26.4375 15.105469 25.886719 15.105469 Z M 24.167969 17.855469 C 26.359375 17.855469 28.140625 19.636719 28.140625 21.828125 C 28.140625 24.019531 26.359375 25.800781 24.167969 25.800781 C 21.976562 25.800781 20.195312 24.019531 20.195312 21.828125 C 20.195312 19.636719 21.976562 17.855469 24.167969 17.855469 Z M 17.140625 17.601562 C 17.785156 17.601562 18.308594 18.125 18.308594 18.769531 C 18.308594 19.414062 17.785156 19.9375 17.140625 19.9375 C 16.492188 19.9375 15.972656 19.414062 15.972656 18.769531 C 15.972656 18.125 16.492188 17.601562 17.140625 17.601562 Z M 24.167969 19.0625 C 22.644531 19.0625 21.402344 20.304688 21.402344 21.828125 C 21.402344 23.351562 22.644531 24.59375 24.167969 24.59375 C 25.691406 24.59375 26.933594 23.351562 26.933594 21.828125 C 26.933594 20.304688 25.691406 19.0625 24.167969 19.0625 Z M 24.167969 19.0625 "/>
<path fill-rule="nonzero" fill="rgb(100%, 100%, 100%)" fill-opacity="1" d="M 13.789062 2.246094 C 10.261719 2.246094 7.402344 5.105469 7.402344 8.628906 C 7.402344 12.15625 10.261719 15.015625 13.789062 15.015625 C 14.433594 15.015625 15.054688 14.917969 15.640625 14.742188 C 15.929688 14.519531 16.277344 14.371094 16.652344 14.335938 C 18.738281 13.285156 20.171875 11.125 20.171875 8.628906 C 20.171875 5.105469 17.3125 2.246094 13.789062 2.246094 Z M 8.296875 17.234375 C 6.136719 17.234375 4.285156 18.542969 3.492188 20.414062 L 3.078125 25.441406 L 3.078125 28.78125 L 7.199219 28.78125 L 7.199219 24.234375 L 8.433594 24.234375 L 8.433594 28.78125 L 13.597656 28.78125 C 13.410156 28.332031 13.304688 27.84375 13.304688 27.328125 L 13.304688 18.769531 C 13.304688 18.230469 13.421875 17.707031 13.632812 17.234375 Z M 17.140625 18.246094 C 16.867188 18.246094 16.613281 18.5 16.613281 18.769531 C 16.613281 19.042969 16.867188 19.296875 17.140625 19.296875 C 17.410156 19.296875 17.664062 19.042969 17.664062 18.769531 C 17.664062 18.5 17.410156 18.246094 17.140625 18.246094 Z M 17.140625 18.246094 "/>

</g>%n%n</svg>