<svg width="300" height="40" viewBox="0 0 300 40" fill="none" xmlns="http://www.w3.org/2000/svg" xmlns:xlink="http://www.w3.org/1999/xlink">

<g transform="translate(130.000000, 0.000000) scale(2.000000 2.000000) "> 

<g clip-path="url(#clip0)">
<path opacity="0.953" d="M9.99934 0C15.514 0 20 4.44646 20 10C20 15.5172 15.514 20 9.99934 20C4.48599 20 0 15.5172 0 10C0 4.44646 4.48599 0 9.99934 0V0Z" fill="#878787"/>
<path opacity="0.95" fill-rule="evenodd" clip-rule="evenodd" d="M10 19C14.9706 19 19 14.9706 19 10C19 5.02944 14.9706 1 10 1C5.02944 1 1 5.02944 1 10C1 14.9706 5.02944 19 10 19ZM10 20C15.5228 20 20 15.5228 20 10C20 4.47715 15.5228 0 10 0C4.47715 0 0 4.47715 0 10C0 15.5228 4.47715 20 10 20Z" fill="#404040"/>
</g>
<defs>
<clipPath id="clip0">
<path d="M0 0H20V20H0V0Z" fill="white"/>
</clipPath>
</defs>

</g>%n%n
<g transform="translate(138.000000, 8.000000) scale(0.750000 0.750000) "> 

<path fill-rule="nonzero" fill="rgb(100%, 100%, 100%)" fill-opacity="1" d="M 17.015625 28.171875 L 17.015625 20.058594 C 17.015625 19.496094 16.558594 19.042969 16 19.042969 L 13.972656 19.042969 C 13.410156 19.042969 12.957031 19.496094 12.957031 20.058594 L 12.957031 28.171875 C 12.957031 28.730469 13.410156 29.1875 13.972656 29.1875 L 16 29.1875 C 16.558594 29.1875 17.015625 28.730469 17.015625 28.171875 Z M 17.015625 28.171875 "/>
<path fill-rule="nonzero" fill="rgb(100%, 100%, 100%)" fill-opacity="1" d="M 3.828125 10.929688 L 25.128906 10.929688 C 25.6875 10.929688 26.144531 10.472656 26.144531 9.914062 L 26.144531 3.828125 C 26.144531 3.269531 25.6875 2.8125 25.128906 2.8125 L 3.828125 2.8125 C 3.269531 2.8125 2.8125 3.269531 2.8125 3.828125 L 2.8125 9.914062 C 2.8125 10.472656 3.269531 10.929688 3.828125 10.929688 Z M 3.828125 10.929688 "/>
<path fill="none" stroke-width="36.769199" stroke-linecap="round" stroke-linejoin="round" stroke="rgb(100%, 100%, 100%)" stroke-opacity="1" stroke-miterlimit="10" d="M 271.591797 400.307617 L 271.591797 290 L 510.615234 234.846191 L 510.615234 124.538574 L 455.461426 124.538574 " transform="matrix(0.0551724, 0, 0, 0.0551724, 0, 0)"/>

</g>%n%n</svg>