<svg width="300" height="40" viewBox="0 0 300 40" fill="none" xmlns="http://www.w3.org/2000/svg" xmlns:xlink="http://www.w3.org/1999/xlink">

<g transform="translate(130.000000, 0.000000) scale(2.000000 2.000000) "> 

<g clip-path="url(#clip0)">
<path opacity="0.953" d="M9.99934 0C15.514 0 20 4.44646 20 10C20 15.5172 15.514 20 9.99934 20C4.48599 20 0 15.5172 0 10C0 4.44646 4.48599 0 9.99934 0V0Z" fill="#878787"/>
<path opacity="0.95" fill-rule="evenodd" clip-rule="evenodd" d="M10 19C14.9706 19 19 14.9706 19 10C19 5.02944 14.9706 1 10 1C5.02944 1 1 5.02944 1 10C1 14.9706 5.02944 19 10 19ZM10 20C15.5228 20 20 15.5228 20 10C20 4.47715 15.5228 0 10 0C4.47715 0 0 4.47715 0 10C0 15.5228 4.47715 20 10 20Z" fill="#404040"/>
</g>
<defs>
<clipPath id="clip0">
<path d="M0 0H20V20H0V0Z" fill="white"/>
</clipPath>
</defs>

</g>%n%n
<g transform="translate(138.000000, 8.000000) scale(2.000000 2.000000) "> 

<path fill-rule="evenodd" fill="rgb(100%, 100%, 100%)" fill-opacity="1" d="M 3 4.25 C 3 4.113281 3.113281 4 3.25 4 L 8.75 4 C 8.886719 4 9 4.113281 9 4.25 L 9 5.25 C 9 4.835938 9.335938 4.5 9.75 4.5 L 11 4.5 L 11 4.792969 C 11 4.925781 10.949219 5.050781 10.855469 5.144531 L 10.75 5.25 C 10.613281 5.386719 10.613281 5.613281 10.75 5.75 C 10.886719 5.886719 10.886719 6.113281 10.75 6.25 C 10.613281 6.386719 10.613281 6.613281 10.75 6.75 L 10.855469 6.855469 C 10.949219 6.949219 11 7.074219 11 7.207031 L 11 7.5 L 9.75 7.5 C 9.335938 7.5 9 7.164062 9 6.75 L 9 7.75 C 9 7.886719 8.886719 8 8.75 8 L 3.25 8 C 3.113281 8 3 7.886719 3 7.75 L 3 7 C 3 7.277344 2.777344 7.5 2.5 7.5 L 1 7.5 L 1 7.207031 C 1 7.074219 1.050781 6.949219 1.144531 6.855469 L 1.25 6.75 C 1.386719 6.613281 1.386719 6.386719 1.25 6.25 C 1.113281 6.113281 1.113281 5.886719 1.25 5.75 C 1.386719 5.613281 1.386719 5.386719 1.25 5.25 L 1.144531 5.144531 C 1.050781 5.050781 1 4.925781 1 4.792969 L 1 4.5 L 2.5 4.5 C 2.777344 4.5 3 4.722656 3 5 Z M 3 4.25 "/>

</g>%n%n</svg>