<svg width="40" height="40" viewBox="0 0 40 40" fill="none" xmlns="http://www.w3.org/2000/svg" >

<g transform="translate(0.000000, 0.000000) scale(2.000000 2.000000) "> 

<g clip-path="url(#clip0)">
<path opacity="0.953" d="M9.99934 0C15.514 0 20 4.44646 20 10C20 15.5172 15.514 20 9.99934 20C4.48599 20 0 15.5172 0 10C0 4.44646 4.48599 0 9.99934 0V0Z" fill="#878787"/>
<path opacity="0.95" fill-rule="evenodd" clip-rule="evenodd" d="M10 19C14.9706 19 19 14.9706 19 10C19 5.02944 14.9706 1 10 1C5.02944 1 1 5.02944 1 10C1 14.9706 5.02944 19 10 19ZM10 20C15.5228 20 20 15.5228 20 10C20 4.47715 15.5228 0 10 0C4.47715 0 0 4.47715 0 10C0 15.5228 4.47715 20 10 20Z" fill="#404040"/>
</g>
<defs>
<clipPath id="clip0">
<path d="M0 0H20V20H0V0Z" fill="white"/>
</clipPath>
</defs>

</g>


<g transform="translate(8.000000, 8.000000) scale(0.041379 0.041379) "> 

<path d="M49.8916 516.039L159.107 256.045L194.893 279.868L54.2842 517.973L49.8916 516.039Z" fill="#ffffff"/>
<path d="M205.618 45.9084L139.617 140.015C126.474 158.755 131.391 182.795 151.343 194.013L255.309 264.382C275.263 275.599 302.634 269.654 316.138 251.172L332.88 228.258L505.977 363.458C516.244 371.479 530.801 369.454 538.483 358.935C546.164 348.423 543.671 333.942 532.906 326.595L351.493 202.784L370.766 176.404C384.268 157.922 381.3 130.379 364.172 115.197L261.313 39.9093C244.185 24.7262 219.121 27.4275 205.618 45.9084Z" fill="#ffffff"/>

</g>

</svg>