<svg width="192" height="192" viewBox="0 0 192 192" fill="none" xmlns="http://www.w3.org/2000/svg">
<path fill-rule="evenodd" clip-rule="evenodd" d="M168 96C168 125.833 149.856 151.429 124 162.353C110.634 168 106 171 102 179C101.611 179.779 101.278 180.52 100.969 181.208C99.6915 184.055 98.8184 186 96 186C93.1816 186 92.3085 184.055 91.0311 181.208C90.7221 180.52 90.3895 179.779 90 179C86 171 81 168 68 162.353C42.1445 151.429 24 125.833 24 96C24 56.2355 56.2355 24 96 24C135.765 24 168 56.2355 168 96ZM136 96.0001C136 118.091 118.091 136 96.0001 136C73.9087 136 56 118.091 56 96.0001C56 73.9087 73.9087 56 96.0001 56C118.091 56 136 73.9087 136 96.0001Z" fill="#FF8800"/>
</svg>
