<svg version="1.1" viewBox="0 0 933.333 774.667" xmlns="http://www.w3.org/2000/svg">
 <g id="River" transform="translate(60,113)">
  <path d="m0.500978 0.50479 368.32-4e-3 0.0274 16.3254-368.341 0.0105z" fill="#5ac3e7" stroke="#a5d3e7"/>
  <path d="m23.3267 5.87446v-3.13533l6.62432 5.96808-6.64747 6.00576 0.05329-3.47228h-8.04935l-6.28e-4 -5.36105z" fill="#429ab5" stroke="#4aaece"/>
  <path d="m255.336 5.93233v-3.13533l6.62432 5.96808-6.64747 6.00576 0.0533-3.47228h-8.04935l-6.2e-4 -5.36105z" fill="#429ab5" stroke="#4aaece"/>
 </g>
 <g id="Stream" transform="translate(60,227)">
  <path d="m0.500785 4.16032h368.148v5.62002h-368.148z" fill="#5ac3e7" stroke="#a5d3e7"/>
  <path d="m23.1211 4.32122v-3.13533l6.62432 5.96808-6.64747 6.00576 0.05329-3.47228h-8.04935l-6.28e-4 -5.36105z" fill="#429ab5" stroke="#4aaece"/>
  <path d="m255.232 4.26056v-3.13533l6.62432 5.96808-6.64747 6.00576 0.0533-3.47228h-8.04934l-6.3e-4 -5.36105z" fill="#429ab5" stroke="#4aaece"/>
 </g>
 <g id="Drain" transform="translate(60,289)">
  <path d="m0.500891 0.505792 368.325-5e-3 8e-3 2.99349-368.333-4e-3z" fill="#5ac3e7" stroke="#a5d3e7"/>
 </g>
 <g id="Intermitten stream" transform="translate(60.822,400.515)" fill="#5ac3e7" stroke="#a5d3e7">
  <path d="m0 0h16.322v5.64623h-16.331z"/>
  <path d="m25.345-0.014h16.322v5.646h-16.331z"/>
  <path d="m50.692 0h16.322v5.646h-16.331z"/>
  <path d="m76.037-0.014h16.322v5.646h-16.331z"/>
  <path d="m101.31 0h16.322v5.646h-16.331z"/>
  <path d="m126.655-0.014h16.322v5.646h-16.331z"/>
  <path d="m152.002 0h16.322v5.646h-16.331z"/>
  <path d="m177.347-0.014h16.322v5.646h-16.331z"/>
  <path d="m202.689 0h16.322v5.646h-16.331z"/>
  <path d="m228.033-0.014h16.322v5.646h-16.331z"/>
  <path d="m253.38 0h16.322v5.646h-16.331z"/>
  <path d="m278.725-0.014h16.322v5.646h-16.331z"/>
  <path d="m304 0h16.322v5.646h-16.331z"/>
  <path d="m329.345-0.014h16.322v5.646h-16.331z"/>
  <path d="m354.692 0h16.322v5.646h-16.331z"/>
 </g>
 <g id="Dam" transform="translate(60,459)">
  <path d="m0 0h368.325v2.993h-368.325z" fill="#525552" stroke="#9c9e9c"/>
 </g>
 <g id="Groyne" transform="translate(60,569)">
  <path d="m0 0 368.325-5e-3 8e-3 5.60638-368.333-4e-3z" fill="#adaaad" stroke="#cec7c6"/>
 </g>
 <g id="Pier" transform="translate(61.61,662.692)">
  <path d="m0 0h366.643v63.969h-366.609z" fill="#5ac3e7" stroke="#a5d3e7"/>
  <path d="m63.979 25.235h267.518v6.761h-143.454v31.997h-6.629v-32.041h-117.435z" fill="#a4d1df" stroke="#7fc9e3"/>
 </g>
 <g id="Cliff" transform="translate(488.301,112)" fill="none" stroke="#397539">
  <path d="m0 7.324h367.298"/>
  <path d="m0 0v14.625"/>
  <path d="m18.65 0v14.625"/>
  <path d="m37.3 0v14.625"/>
  <path d="m55.95 0v14.625"/>
  <path d="m74.6 0v14.625"/>
  <path d="m93.25 0v14.625"/>
  <path d="m111.9 0v14.625"/>
  <path d="m130.55 0v14.625"/>
  <path d="m149.2 0v14.625"/>
  <path d="m167.85 0v14.625"/>
  <path d="m186.5 0v14.625"/>
  <path d="m205.15 0v14.625"/>
  <path d="m223.8 0v14.625"/>
  <path d="m242.45 0v14.625"/>
  <path d="m261.1 0v14.625"/>
  <path d="m279.75 0v14.625"/>
  <path d="m298.4 0v14.625"/>
  <path d="m317.05 0v14.625"/>
  <path d="m335.7 0v14.625"/>
  <path d="m354.35 0v14.625"/>
 </g>
 <g id="Slope" transform="translate(488.301,172)" fill="none" stroke="#c69e39">
  <path d="m0 7.324h367.298"/>
  <path d="m0 0v14.625"/>
  <path d="m18.65 0v14.625"/>
  <path d="m37.3 0v14.625"/>
  <path d="m55.95 0v14.625"/>
  <path d="m74.6 0v14.625"/>
  <path d="m93.25 0v14.625"/>
  <path d="m111.9 0v14.625"/>
  <path d="m130.55 0v14.625"/>
  <path d="m149.2 0v14.625"/>
  <path d="m167.85 0v14.625"/>
  <path d="m186.5 0v14.625"/>
  <path d="m205.15 0v14.625"/>
  <path d="m223.8 0v14.625"/>
  <path d="m242.45 0v14.625"/>
  <path d="m261.1 0v14.625"/>
  <path d="m279.75 0v14.625"/>
  <path d="m298.4 0v14.625"/>
  <path d="m317.05 0v14.625"/>
  <path d="m335.7 0v14.625"/>
  <path d="m354.35 0v14.625"/>
 </g>
 <g id="Earth bank" transform="translate(488.301,112)" fill="none" stroke="#a5aaa5">
  <path d="m0 7.324h367.298"/>
  <path d="m0 0v14.625"/>
  <path d="m18.65 0v14.625"/>
  <path d="m37.3 0v14.625"/>
  <path d="m55.95 0v14.625"/>
  <path d="m74.6 0v14.625"/>
  <path d="m93.25 0v14.625"/>
  <path d="m111.9 0v14.625"/>
  <path d="m130.55 0v14.625"/>
  <path d="m149.2 0v14.625"/>
  <path d="m167.85 0v14.625"/>
  <path d="m186.5 0v14.625"/>
  <path d="m205.15 0v14.625"/>
  <path d="m223.8 0v14.625"/>
  <path d="m242.45 0v14.625"/>
  <path d="m261.1 0v14.625"/>
  <path d="m279.75 0v14.625"/>
  <path d="m298.4 0v14.625"/>
  <path d="m317.05 0v14.625"/>
  <path d="m335.7 0v14.625"/>
  <path d="m354.35 0v14.625"/>
 </g>
 <g id="Ridge" transform="translate(487.587,291.44)" fill="none" stroke="#a5aaa5">
  <path d="m0 0h367.298"/>
 </g>
 <g id="Waterfall" transform="translate(488.5,404.324)" fill="none">
  <path d="m0 0h367.298" stroke="#a5aaa5"/>
  <path d="m0.574-7.324v14.625" stroke="#a5a2e7"/>
  <path d="m19.224-7.324v14.625" stroke="#a5a2e7"/>
  <path d="m37.874-7.324v14.625" stroke="#a5a2e7"/>
  <path d="m56.524-7.324v14.625" stroke="#a5a2e7"/>
  <path d="m75.174-7.324v14.625" stroke="#a5a2e7"/>
  <path d="m93.824-7.324v14.625" stroke="#a5a2e7"/>
  <path d="m112.474-7.324v14.625" stroke="#a5a2e7"/>
  <path d="m131.124-7.324v14.625" stroke="#a5a2e7"/>
  <path d="m149.774-7.324v14.625" stroke="#a5a2e7"/>
  <path d="m168.424-7.324v14.625" stroke="#a5a2e7"/>
  <path d="m187.074-7.324v14.625" stroke="#a5a2e7"/>
  <path d="m205.724-7.324v14.625" stroke="#a5a2e7"/>
  <path d="m224.374-7.324v14.625" stroke="#a5a2e7"/>
  <path d="m243.024-7.324v14.625" stroke="#a5a2e7"/>
  <path d="m261.674-7.324v14.625" stroke="#a5a2e7"/>
  <path d="m280.324-7.324v14.625" stroke="#a5a2e7"/>
  <path d="m298.974-7.324v14.625" stroke="#a5a2e7"/>
  <path d="m317.624-7.324v14.625" stroke="#a5a2e7"/>
  <path d="m336.274-7.324v14.625" stroke="#a5a2e7"/>
  <path d="m354.924-7.324v14.625" stroke="#a5a2e7"/>
 </g>
 <g id="Tree row" transform="translate(488.434,462.154)" fill="#84cf73">
  <ellipse rx="3.88909" ry="3.09359"/>
  <ellipse cx="21.278" rx="3.88909" ry="3.09359"/>
  <ellipse cx="42.556" rx="3.88909" ry="3.09359"/>
  <ellipse cx="63.835" rx="3.88909" ry="3.09359"/>
  <ellipse cx="85.113" rx="3.88909" ry="3.09359"/>
  <ellipse cx="106.391" rx="3.88909" ry="3.09359"/>
  <ellipse cx="127.669" rx="3.88909" ry="3.09359"/>
  <ellipse cx="148.947" rx="3.88909" ry="3.09359"/>
  <ellipse cx="170.225" rx="3.88909" ry="3.09359"/>
  <ellipse cx="191.504" rx="3.88909" ry="3.09359"/>
  <ellipse cx="212.782" rx="3.88909" ry="3.09359"/>
  <ellipse cx="234.06" rx="3.88909" ry="3.09359"/>
  <ellipse cx="255.338" rx="3.88909" ry="3.09359"/>
  <ellipse cx="276.616" rx="3.88909" ry="3.09359"/>
  <ellipse cx="297.894" rx="3.88909" ry="3.09359"/>
  <ellipse cx="319.173" rx="3.88909" ry="3.09359"/>
  <ellipse cx="340.451" rx="3.88909" ry="3.09359"/>
  <ellipse cx="361.729" rx="3.889" ry="3.09359"/>
 </g>
 <g id="Water slide" transform="translate(488,629)">
  <rect width="368" height="9.375" fill="#84b2ce"/>
  <rect y="1.34107" width="368" height="6.67456" fill="#187db5"/>
  <rect y="2.67524" width="368" height="3.99731" fill="#b5dff7"/>
 </g>
</svg>
