<?xml version="1.0" standalone="no"?>
<!DOCTYPE svg PUBLIC "-//W3C//DTD SVG 20010904//EN"
 "http://www.w3.org/TR/2001/REC-SVG-20010904/DTD/svg10.dtd">
<svg version="1.0" xmlns="http://www.w3.org/2000/svg"
 width="512.000000pt" height="512.000000pt" viewBox="0 0 512.000000 512.000000"
 preserveAspectRatio="xMidYMid meet">
<metadata>
Created by potrace 1.11, written by Peter Selinger 2001-2013
</metadata>
<g transform="translate(0.000000,512.000000) scale(0.100000,-0.100000)"
fill="#000000" stroke="none">
<path d="M2319 5025 c-3 -2 -27 -6 -54 -9 -335 -37 -675 -160 -969 -352 -55
-37 -102 -70 -104 -75 -2 -5 -8 -9 -13 -9 -6 0 -21 -10 -33 -22 -13 -13 -37
-33 -52 -45 -26 -19 -48 -39 -154 -137 -19 -18 -57 -59 -85 -91 -27 -32 -55
-63 -60 -69 -13 -14 -73 -90 -101 -130 -13 -17 -32 -48 -44 -68 -11 -21 -25
-38 -30 -38 -6 0 -9 -6 -8 -12 2 -7 -3 -12 -10 -10 -8 1 -11 -2 -7 -7 3 -6 -5
-27 -17 -48 -13 -21 -34 -59 -46 -85 -13 -27 -28 -48 -33 -48 -6 0 -8 -4 -5
-8 3 -5 -3 -26 -14 -48 -38 -82 -55 -119 -55 -129 0 -5 -8 -26 -16 -45 -9 -19
-24 -65 -34 -102 -10 -37 -21 -66 -24 -64 -3 2 -7 -8 -7 -22 -2 -41 -15 -96
-25 -108 -5 -6 -7 -13 -4 -16 3 -3 1 -27 -4 -54 -5 -27 -12 -78 -16 -114 -9
-78 -12 -97 -20 -110 -3 -6 -1 -10 5 -10 6 0 8 -4 5 -10 -3 -5 -6 -59 -6 -120
-1 -80 -4 -108 -13 -103 -6 4 -5 0 2 -10 8 -9 15 -47 17 -84 2 -37 7 -93 11
-123 4 -30 7 -67 8 -82 0 -16 4 -28 8 -28 3 0 5 -8 3 -17 -1 -10 2 -23 7 -29
5 -7 10 -34 11 -62 1 -27 5 -48 10 -45 4 2 8 -3 8 -11 2 -17 3 -23 11 -46 28
-81 35 -108 32 -123 -1 -9 2 -15 7 -11 5 3 9 -3 9 -14 0 -10 3 -22 7 -26 14
-14 42 -99 36 -109 -3 -6 -1 -7 5 -3 7 4 12 1 12 -8 0 -8 -3 -16 -7 -19 -5 -2
-3 -3 3 -1 9 2 34 -33 39 -56 0 -3 9 -20 18 -38 10 -18 15 -38 11 -44 -5 -7
-3 -8 6 -3 10 6 12 4 7 -9 -4 -9 -3 -14 2 -11 16 9 23 -15 10 -33 -11 -14 -11
-15 1 -5 11 10 16 9 26 -5 17 -21 18 -36 2 -26 -7 5 -8 3 -4 -5 5 -7 11 -10
14 -7 8 9 73 -96 68 -110 -3 -8 0 -11 10 -7 7 3 14 0 14 -6 0 -7 9 -22 20 -34
11 -12 18 -27 15 -35 -3 -7 0 -10 6 -7 13 8 40 -25 34 -42 -2 -7 2 -10 11 -6
7 3 14 1 14 -4 0 -6 14 -24 30 -42 17 -17 28 -36 25 -42 -4 -5 -2 -8 3 -7 12
4 148 -133 144 -145 -1 -5 2 -6 7 -2 6 3 16 -3 23 -15 7 -11 17 -20 22 -20 5
0 22 -14 38 -30 15 -17 31 -30 34 -30 2 0 17 -12 32 -26 15 -15 20 -23 12 -19
-9 5 -12 4 -7 -1 5 -5 16 -9 25 -9 9 0 16 -6 14 -13 -1 -8 2 -11 7 -8 5 4 16
-1 24 -9 9 -8 20 -15 26 -15 6 0 11 -4 11 -10 0 -5 7 -10 15 -10 8 0 15 -3 15
-7 0 -5 23 -19 52 -33 28 -14 53 -33 56 -43 3 -12 7 -14 11 -8 5 7 15 4 29 -9
12 -11 25 -20 29 -20 19 0 43 -12 43 -21 0 -6 -5 -7 -12 -3 -7 4 -8 3 -4 -5 6
-9 11 -9 22 0 10 8 14 8 14 0 0 -6 3 -10 8 -10 14 3 72 -23 72 -32 0 -5 3 -8
8 -8 23 4 42 -2 37 -12 -4 -6 -1 -10 6 -8 29 3 40 -1 33 -13 -5 -9 -3 -9 9 1
14 11 18 11 23 -2 3 -9 12 -13 21 -10 12 5 14 1 8 -15 -4 -13 -2 -22 4 -22 6
0 10 6 8 12 -2 13 43 12 53 -1 5 -7 28 -13 48 -14 6 0 12 -5 12 -10 0 -6 3 -7
7 -4 3 4 13 1 21 -6 11 -8 13 -8 9 0 -11 17 35 4 51 -15 9 -12 12 -13 12 -2 0
9 5 8 16 -6 8 -10 13 -13 9 -6 -9 18 20 15 39 -4 9 -8 16 -11 16 -6 0 5 7 9
15 9 10 0 14 -6 10 -15 -5 -13 -3 -13 11 -2 13 11 17 11 24 1 6 -11 9 -11 13
0 4 9 6 10 6 2 1 -7 8 -10 16 -7 9 4 15 0 15 -7 0 -11 3 -11 10 1 9 13 10 13
10 0 0 -13 1 -13 10 0 8 13 10 13 10 -1 0 -9 7 -20 17 -23 14 -6 14 -8 -3 -21
-18 -13 -18 -14 4 -8 16 4 22 1 22 -11 0 -9 3 -16 8 -16 12 0 62 -96 54 -104
-4 -4 0 -6 8 -4 9 2 14 -4 14 -14 -1 -10 4 -18 11 -18 6 0 20 -18 31 -40 10
-22 22 -40 27 -40 4 0 7 -7 7 -15 0 -8 5 -15 11 -15 6 0 8 -7 5 -17 -4 -10 -4
-14 0 -11 8 9 36 -26 54 -69 8 -17 17 -30 21 -27 4 2 10 -5 14 -16 6 -18 38
-30 33 -13 -4 14 23 54 32 48 6 -4 7 1 3 11 -4 11 -2 15 4 11 6 -4 10 1 9 11
0 9 4 16 11 15 7 -2 10 3 7 10 -2 7 4 22 15 34 11 11 18 23 15 25 -2 3 7 17
20 31 14 15 22 27 18 27 -4 0 1 7 11 14 10 8 19 18 20 23 1 4 5 7 9 6 4 -2 5
4 2 12 -4 8 -1 15 6 15 6 0 8 4 5 10 -3 5 -1 10 5 10 6 0 8 4 5 10 -3 5 -2 10
4 10 6 0 18 16 27 35 9 19 21 35 26 35 5 0 6 5 3 10 -3 6 1 10 9 10 8 0 13 6
11 13 -2 6 1 19 8 27 14 17 77 42 77 31 0 -4 7 -8 15 -8 8 0 15 4 15 9 0 4 5
8 11 8 5 0 8 -4 5 -8 -3 -5 1 -9 9 -9 8 0 12 4 9 8 -6 10 37 23 106 34 8 1 28
7 43 14 37 14 37 14 30 -6 -3 -12 1 -10 12 5 9 13 23 21 30 18 8 -3 15 -1 17
4 5 13 43 16 43 3 0 -6 3 -15 7 -19 4 -3 6 3 3 14 -5 29 15 39 33 16 13 -18
14 -18 7 5 -6 21 -5 23 14 18 12 -3 19 -2 16 2 -6 11 44 33 56 25 5 -3 7 -10
4 -15 -4 -5 -1 -9 5 -9 7 0 9 8 4 22 -6 20 -5 21 10 9 15 -12 16 -12 10 5 -4
10 -3 16 1 11 5 -4 17 1 28 10 11 10 17 12 13 6 -4 -7 8 -3 26 8 18 11 74 43
123 71 50 27 114 66 144 86 30 19 60 35 67 35 7 0 12 5 11 11 -1 6 6 11 15 11
9 0 20 4 25 9 5 5 2 6 -7 1 -13 -8 -13 -7 -1 9 8 9 20 15 27 12 8 -3 13 -1 11
3 -3 14 45 52 59 47 7 -3 11 0 8 7 -2 7 16 28 40 46 25 19 47 40 50 48 3 8 11
11 17 7 7 -4 9 -3 6 3 -8 13 37 56 47 46 4 -5 6 -3 4 3 -2 7 8 23 22 36 14 14
41 44 60 66 19 22 39 38 44 35 5 -3 6 -1 2 5 -6 10 47 82 67 90 4 2 7 8 7 14
0 17 29 40 42 32 10 -6 9 -3 0 9 -12 14 -10 20 12 42 14 14 25 26 24 28 -5 6
55 97 64 97 5 0 7 4 3 9 -3 5 2 17 11 25 8 9 13 16 9 16 -9 0 16 44 31 53 7 4
11 14 8 22 -4 8 -1 15 5 15 6 0 10 3 10 8 -3 15 23 72 31 67 4 -3 8 1 7 8 -1
31 4 48 12 42 5 -3 13 0 17 6 5 8 3 9 -6 4 -10 -6 -11 -4 -5 11 4 10 19 51 33
91 14 41 30 70 35 66 6 -3 7 -1 3 5 -3 6 2 43 13 81 11 39 18 71 15 71 -3 0 0
9 5 19 6 10 13 35 15 54 2 20 10 62 17 94 7 32 12 64 10 72 -1 8 2 10 11 5 10
-6 10 -5 2 7 -6 8 -10 23 -8 34 2 11 4 34 5 50 2 17 8 36 13 44 9 11 8 13 -3
7 -10 -6 -12 -4 -7 11 8 25 10 242 3 250 -4 3 -2 13 3 23 5 10 6 20 3 24 -8 7
-9 16 -18 99 -5 41 -3 63 7 75 12 15 11 16 -4 3 -16 -12 -18 -10 -19 25 0 22
-2 46 -4 54 -2 8 -13 53 -25 100 -12 47 -23 93 -25 103 -2 9 -7 22 -10 27 -4
6 -8 20 -10 33 -3 12 -16 51 -30 86 -13 35 -22 67 -20 71 3 5 2 10 -3 12 -14
6 -82 159 -76 170 4 6 3 8 -3 5 -10 -6 -60 90 -55 106 1 5 -2 6 -8 2 -5 -3
-10 -2 -10 3 0 18 -142 221 -192 277 -16 17 -28 33 -28 37 0 14 -226 235 -300
293 -41 33 -77 63 -80 66 -3 3 -20 14 -37 24 -18 11 -33 23 -33 27 0 4 -6 8
-13 8 -7 0 -23 9 -35 20 -12 11 -24 20 -27 20 -3 0 -24 12 -47 26 -207 131
-575 262 -813 290 -22 3 -51 8 -65 11 -29 6 -475 14 -481 8z m114 -909 c-4 -6
1 -5 10 3 14 11 17 11 18 0 0 -10 2 -11 6 -1 2 6 9 12 14 12 6 0 7 -6 3 -12
-6 -10 -5 -10 7 -1 19 16 91 14 82 -1 -3 -6 0 -5 8 2 20 18 33 15 18 -5 -11
-15 -10 -14 9 1 12 11 22 14 22 8 0 -6 9 -10 20 -9 11 1 20 5 20 9 0 5 9 4 20
-2 11 -6 20 -7 21 -3 0 4 4 -1 9 -12 7 -15 9 -16 9 -4 1 12 8 15 26 11 14 -2
22 -9 19 -14 -4 -6 1 -8 12 -4 24 7 157 -28 147 -38 -5 -5 2 -5 15 -2 17 6 22
3 23 -11 0 -10 3 -13 5 -7 8 19 66 -7 59 -26 -5 -11 -3 -12 5 -4 13 13 50 7
50 -7 0 -5 6 -8 13 -7 6 2 11 -2 10 -9 -2 -7 3 -10 11 -7 16 6 126 -53 126
-67 0 -5 3 -8 8 -7 15 4 52 -23 46 -34 -5 -7 -2 -8 5 -4 15 10 53 -23 44 -37
-3 -6 -1 -7 6 -3 15 10 43 -13 34 -28 -3 -6 -3 -8 1 -4 9 8 23 -2 82 -60 25
-24 41 -48 38 -54 -4 -6 -3 -8 4 -5 5 4 22 -8 37 -25 14 -18 34 -42 43 -53 9
-11 15 -27 13 -35 -1 -8 1 -12 5 -8 17 18 169 -252 160 -285 -2 -9 0 -15 5
-11 5 3 10 0 10 -5 3 -20 5 -26 15 -46 6 -11 10 -30 9 -42 -1 -12 2 -20 7 -17
13 8 9 -11 -4 -25 -11 -10 -10 -11 4 -6 12 5 16 2 14 -12 -2 -10 1 -25 6 -33
26 -47 43 -372 24 -465 -4 -16 -9 -50 -13 -75 -3 -25 -9 -47 -14 -48 -5 -2 -7
-8 -4 -12 7 -11 -15 -101 -24 -96 -3 2 -7 -8 -7 -22 -1 -24 -30 -95 -82 -202
-29 -60 -94 -160 -104 -160 -5 0 -7 -4 -4 -8 3 -5 -4 -15 -15 -22 -10 -8 -19
-18 -19 -23 0 -23 -226 -241 -262 -253 -10 -3 -18 -10 -18 -15 0 -5 -7 -9 -15
-9 -8 0 -15 -4 -15 -10 0 -5 -7 -10 -15 -10 -8 0 -15 -3 -15 -8 0 -4 -21 -17
-47 -30 -27 -13 -61 -31 -78 -41 -25 -14 -117 -53 -135 -57 -3 0 -12 -3 -20
-7 -28 -10 -115 -36 -145 -41 -16 -4 -41 -9 -55 -12 -102 -22 -356 -23 -465
-1 -11 3 -38 8 -60 12 -22 3 -80 20 -130 37 -271 92 -491 250 -660 474 -30 39
-55 77 -57 85 -2 7 -13 24 -25 38 -12 14 -20 28 -17 33 3 4 0 8 -5 8 -6 0 -11
9 -11 20 0 11 -3 20 -7 20 -8 0 -33 48 -33 63 0 4 5 5 12 1 7 -4 8 -3 4 5 -4
6 -11 9 -16 6 -11 -7 -65 148 -85 245 -2 8 -6 23 -10 33 -5 11 -2 17 6 17 10
0 11 2 2 8 -6 4 -14 27 -18 52 -10 61 -14 270 -5 270 4 0 5 20 4 45 -1 25 1
45 5 45 4 0 6 14 3 30 -2 17 0 30 4 30 5 0 10 18 11 40 0 22 6 46 12 54 6 7 8
16 5 19 -4 4 1 18 11 33 9 15 12 23 5 19 -8 -5 -9 -2 -2 11 6 11 18 42 27 69
10 28 25 58 34 69 9 10 14 19 12 20 -2 0 -1 11 3 24 4 13 12 19 18 16 7 -5 9
-1 5 9 -3 10 -2 17 3 17 6 0 9 3 8 8 -4 14 33 73 43 67 5 -4 6 -11 3 -17 -4
-7 -2 -8 5 -4 9 6 9 11 0 22 -11 13 -4 30 21 54 3 3 14 18 24 35 11 17 21 24
24 17 2 -6 8 -12 14 -12 6 0 6 6 -2 15 -13 16 -4 39 12 29 6 -4 9 -3 5 2 -8
13 20 47 32 40 5 -4 13 -1 17 5 4 8 3 9 -4 5 -17 -10 -15 3 3 20 8 9 19 13 24
9 5 -3 13 0 17 6 4 8 3 9 -4 5 -22 -14 -12 7 17 35 16 15 32 25 35 22 3 -4 6
-1 6 6 0 7 5 9 12 5 6 -4 8 -3 5 3 -4 6 0 16 8 23 12 10 19 10 33 -1 15 -12
16 -12 5 2 -11 13 -9 19 9 35 14 13 19 14 14 4 -4 -8 2 -4 13 10 14 17 21 20
21 10 1 -9 5 -6 10 8 5 12 14 22 20 22 6 0 8 -5 4 -12 -4 -7 -3 -8 5 -4 6 4 9
11 6 16 -6 10 63 52 75 45 4 -3 11 2 14 11 3 8 10 12 16 9 5 -3 10 -2 10 2 0
13 80 44 92 37 6 -4 8 -3 5 3 -4 6 0 14 9 17 10 4 13 2 8 -7 -4 -6 2 -3 14 7
12 11 22 15 22 10 0 -5 4 -4 8 2 4 6 34 18 66 27 45 13 63 14 73 5 11 -9 13
-8 11 3 -2 9 6 14 24 14 14 -1 24 4 21 9 -4 5 7 7 25 3 18 -4 32 -3 32 2 0 4
16 8 36 9 20 1 38 3 40 5 9 9 32 3 27 -7z"/>
<path d="M2690 4100 c0 -5 5 -10 11 -10 5 0 7 5 4 10 -3 6 -8 10 -11 10 -2 0
-4 -4 -4 -10z"/>
<path d="M2905 4040 c10 -11 20 -20 23 -20 3 0 -3 9 -13 20 -10 11 -20 20 -23
20 -3 0 3 -9 13 -20z"/>
<path d="M2090 4039 c0 -5 5 -7 10 -4 6 3 10 8 10 11 0 2 -4 4 -10 4 -5 0 -10
-5 -10 -11z"/>
<path d="M3153 3945 c0 -8 4 -12 9 -9 5 3 6 10 3 15 -9 13 -12 11 -12 -6z"/>
<path d="M3260 3886 c0 -2 8 -10 18 -17 15 -13 16 -12 3 4 -13 16 -21 21 -21
13z"/>
<path d="M3733 3335 c0 -8 4 -12 9 -9 5 3 6 10 3 15 -9 13 -12 11 -12 -6z"/>
<path d="M4435 1571 c-3 -5 -2 -12 3 -15 5 -3 9 1 9 9 0 17 -3 19 -12 6z"/>
<path d="M636 1527 c3 -10 9 -15 12 -12 3 3 0 11 -7 18 -10 9 -11 8 -5 -6z"/>
<path d="M4355 1441 c-3 -5 -2 -12 3 -15 5 -3 9 1 9 9 0 17 -3 19 -12 6z"/>
<path d="M810 1279 c0 -5 5 -7 10 -4 6 3 10 8 10 11 0 2 -4 4 -10 4 -5 0 -10
-5 -10 -11z"/>
<path d="M856 1238 c3 -5 10 -6 15 -3 13 9 11 12 -6 12 -8 0 -12 -4 -9 -9z"/>
<path d="M936 1167 c3 -10 9 -15 12 -12 3 3 0 11 -7 18 -10 9 -11 8 -5 -6z"/>
<path d="M1336 838 c3 -4 11 -5 19 -1 21 7 19 12 -4 10 -11 0 -18 -5 -15 -9z"/>
<path d="M3656 807 c3 -10 9 -15 12 -12 3 3 0 11 -7 18 -10 9 -11 8 -5 -6z"/>
<path d="M1566 722 c-3 -5 1 -9 9 -9 8 0 12 4 9 9 -3 4 -7 8 -9 8 -2 0 -6 -4
-9 -8z"/>
<path d="M3355 671 c-3 -5 -2 -12 3 -15 5 -3 9 1 9 9 0 17 -3 19 -12 6z"/>
<path d="M1853 595 c0 -8 4 -12 9 -9 5 3 6 10 3 15 -9 13 -12 11 -12 -6z"/>
<path d="M3185 600 c-3 -6 1 -7 9 -4 18 7 21 14 7 14 -6 0 -13 -4 -16 -10z"/>
<path d="M1980 566 c0 -2 8 -10 18 -17 15 -13 16 -12 3 4 -13 16 -21 21 -21
13z"/>
<path d="M3015 560 c3 -5 8 -10 11 -10 2 0 4 5 4 10 0 6 -5 10 -11 10 -5 0 -7
-4 -4 -10z"/>
<path d="M2989 523 c-13 -16 -12 -17 4 -4 16 13 21 21 13 21 -2 0 -10 -8 -17
-17z"/>
</g>
</svg>
