<svg width="300" height="35" viewBox="0 0 300 35" fill="none" xmlns="http://www.w3.org/2000/svg">
<rect width="300" height="35" fill="#3B3B3B"/>
<path opacity="0.953" d="M149.999 9C154.963 9 159 13.0018 159 18C159 22.9655 154.963 27 149.999 27C145.037 27 141 22.9655 141 18C141 13.0018 145.037 9 149.999 9Z" fill="#673A1C"/>
<path opacity="0.95" fill-rule="evenodd" clip-rule="evenodd" d="M150 27C154.971 27 159 22.9706 159 18C159 13.0294 154.971 9 150 9C145.029 9 141 13.0294 141 18C141 22.9706 145.029 27 150 27ZM150 28C155.523 28 160 23.5228 160 18C160 12.4772 155.523 8 150 8C144.477 8 140 12.4772 140 18C140 23.5228 144.477 28 150 28Z" fill="#9F5A2B"/>
<path fill-rule="evenodd" clip-rule="evenodd" d="M145.146 19.1464C145.342 18.9512 145.658 18.9512 145.854 19.1464L147.561 20.8536C147.654 20.9473 147.782 21 147.914 21H154.5C154.776 21 155 21.2239 155 21.5C155 21.7761 154.776 22 154.5 22H147.914C147.516 22 147.135 21.842 146.854 21.5607L145.146 19.8536C144.951 19.6583 144.951 19.3417 145.146 19.1464Z" fill="white"/>
<path opacity="0.8" fill-rule="evenodd" clip-rule="evenodd" d="M148 22.5V22H149V22.5C149 22.7761 148.776 23 148.5 23C148.224 23 148 22.7761 148 22.5ZM153 22.5V22H154V22.5C154 22.7761 153.776 23 153.5 23C153.224 23 153 22.7761 153 22.5Z" fill="white"/>
<path opacity="0.5" fill-rule="evenodd" clip-rule="evenodd" d="M151.5 18V23H150.5V18H151.5Z" fill="white"/>
<path opacity="0.8" fill-rule="evenodd" clip-rule="evenodd" d="M155 18V17C155 14.7909 153.209 13 151 13C148.791 13 147 14.7909 147 17V18H155ZM148 17H149V16.3028C149 15.6264 149.177 14.9734 149.499 14.4017C148.603 14.9206 148 15.8899 148 17ZM150 16.3028V17H152V16.3028C152 15.4606 151.63 14.6673 151 14.1263C150.37 14.6673 150 15.4606 150 16.3028ZM152.501 14.4017C152.823 14.9734 153 15.6264 153 16.3028V17H154C154 15.8899 153.397 14.9206 152.501 14.4017Z" fill="white"/>
</svg>
