<svg width="300" height="35" viewBox="0 0 300 35" fill="none" xmlns="http://www.w3.org/2000/svg">
<rect width="300" height="35" fill="#CCFF99" fill-opacity="0.63"/>
<path opacity="0.949" d="M149.999 9C154.963 9 159 13.0018 159 18C159 22.9655 154.963 27 149.999 27C145.037 27 141 22.9655 141 18C141 13.0018 145.037 9 149.999 9Z" fill="#45ABE9"/>
<path opacity="0.95" fill-rule="evenodd" clip-rule="evenodd" d="M150 27C154.971 27 159 22.9706 159 18C159 13.0294 154.971 9 150 9C145.029 9 141 13.0294 141 18C141 22.9706 145.029 27 150 27ZM150 28C155.523 28 160 23.5228 160 18C160 12.4772 155.523 8 150 8C144.477 8 140 12.4772 140 18C140 23.5228 144.477 28 150 28Z" fill="#1578B3"/>
<path opacity="0.5" d="M150 13.8264L149.442 12.7671L148.558 13.2329L149.435 14.9L150 13.8264Z" fill="white"/>
<path fill-rule="evenodd" clip-rule="evenodd" d="M145 23H155L150.533 14.9601L151.442 13.2329L150.558 12.7671L145 23ZM152 22C150.5 20.5 150 18 150 18C150 18 149.5 20.5 148 22H152Z" fill="white"/>
</svg>
