<svg width="300" height="35" viewBox="0 0 300 35" fill="none" xmlns="http://www.w3.org/2000/svg">
<rect width="300" height="35" fill="#3B3B3B"/>
<path opacity="0.953" d="M149.999 8C155.514 8 160 12.4465 160 18C160 23.5172 155.514 28 149.999 28C144.486 28 140 23.5172 140 18C140 12.4465 144.486 8 149.999 8Z" fill="#904513"/>
<path opacity="0.95" fill-rule="evenodd" clip-rule="evenodd" d="M150 27C154.971 27 159 22.9706 159 18C159 13.0294 154.971 9 150 9C145.029 9 141 13.0294 141 18C141 22.9706 145.029 27 150 27ZM150 28C155.523 28 160 23.5228 160 18C160 12.4772 155.523 8 150 8C144.477 8 140 12.4772 140 18C140 23.5228 144.477 28 150 28Z" fill="#CF631B"/>
<path d="M146 18.5C146 18.2239 145.776 18 145.5 18C145.224 18 145 18.2239 145 18.5V22.5C145 22.7761 145.224 23 145.5 23C145.776 23 146 22.7761 146 22.5V21.5H147V22.5C147 22.7761 147.224 23 147.5 23C147.776 23 148 22.7761 148 22.5V21C148 20.7239 147.776 20.5 147.5 20.5H146V18.5Z" fill="white"/>
<path d="M154 18.5C154 18.2239 154.224 18 154.5 18C154.776 18 155 18.2239 155 18.5V22.5C155 22.7761 154.776 23 154.5 23C154.224 23 154 22.7761 154 22.5V21.5H153V22.5C153 22.7761 152.776 23 152.5 23C152.224 23 152 22.7761 152 22.5V21C152 20.7239 152.224 20.5 152.5 20.5H154V18.5Z" fill="white"/>
<path opacity="0.8" fill-rule="evenodd" clip-rule="evenodd" d="M150.5 15V22.5C150.5 22.7761 150.276 23 150 23C149.724 23 149.5 22.7761 149.5 22.5V15H150.5Z" fill="white"/>
<path d="M149.924 13C149.645 13 149.368 13.0587 149.112 13.1724L145.36 14.84C145.141 14.9373 145 15.1544 145 15.3939C145 15.7286 145.271 16 145.606 16H154.394C154.729 16 155 15.7286 155 15.3939C155 15.1544 154.859 14.9373 154.64 14.84L150.888 13.1724C150.632 13.0587 150.355 13 150.076 13H149.924Z" fill="white"/>
<path d="M147.5 18.5C147.224 18.5 147 18.7239 147 19C147 19.2761 147.224 19.5 147.5 19.5H152.5C152.776 19.5 153 19.2761 153 19C153 18.7239 152.776 18.5 152.5 18.5H147.5Z" fill="white"/>
</svg>
