<svg width="300" height="35" viewBox="0 0 300 35" fill="none" xmlns="http://www.w3.org/2000/svg">
<rect width="300" height="35" fill="#DEC8C8" fill-opacity="0.87"/>
<path opacity="0.953" d="M149.999 7C155.514 7 160 11.4465 160 17C160 22.5172 155.514 27 149.999 27C144.486 27 140 22.5172 140 17C140 11.4465 144.486 7 149.999 7Z" fill="#878787"/>
<path opacity="0.95" fill-rule="evenodd" clip-rule="evenodd" d="M150 26C154.971 26 159 21.9706 159 17C159 12.0294 154.971 8 150 8C145.029 8 141 12.0294 141 17C141 21.9706 145.029 26 150 26ZM150 27C155.523 27 160 22.5228 160 17C160 11.4772 155.523 7 150 7C144.477 7 140 11.4772 140 17C140 22.5228 144.477 27 150 27Z" fill="#404040"/>
<path opacity="0.75" fill-rule="evenodd" clip-rule="evenodd" d="M147.93 17.8409L146.065 19.1455C145.346 19.9598 146.864 19.9377 147.58 20.3196L148.443 20.711L148.373 20.0587L147.464 19.4064L148.396 18.441L147.93 17.8409Z" fill="white"/>
<path opacity="0.75" fill-rule="evenodd" clip-rule="evenodd" d="M152.523 18.3366C152.846 19.2608 153.487 21.0199 153.269 21.6242L154.039 21.5982C153.663 20.511 153.611 19.4238 153.479 18.3366H152.523Z" fill="white"/>
<path fill-rule="evenodd" clip-rule="evenodd" d="M146.767 15.4719C147.2 15.1317 149.15 13.7843 149.368 13.6217C149.589 13.4561 149.689 13.4831 149.843 13.5217L151.243 13.8717C152.174 14.1602 151.466 15.2524 150.868 15.5907C150.794 16.0467 151.135 16.5079 152.193 17.0971L150.868 17.3221C150.826 16.5073 149.484 16.7721 149.443 16.297L150.193 15.0719C149.835 15.0534 149.55 14.9966 149.193 14.8281C148.174 15.2451 147.668 15.5913 147.017 15.947L146.767 15.4719Z" fill="white"/>
<path fill-rule="evenodd" clip-rule="evenodd" d="M147.555 12.4813L149 12.4999L148.887 12.6645L147.521 12.5472L147.555 12.4813Z" fill="white"/>
<path d="M148.652 12.1903C148.395 12.1903 148.177 12.3586 148.102 12.5909L149.227 12.7862C149.228 12.7797 149.228 12.7731 149.228 12.7666C149.228 12.4482 148.97 12.1903 148.652 12.1903Z" fill="white"/>
<path fill-rule="evenodd" clip-rule="evenodd" d="M147.946 12.9132C147.943 12.9347 147.942 12.9565 147.941 12.9787C147.934 13.3202 148.206 13.6033 148.548 13.6103C148.846 13.6164 149.098 13.4104 149.162 13.1307L147.946 12.9132Z" fill="white"/>
<path fill-rule="evenodd" clip-rule="evenodd" d="M148.42 16.1187L150.868 15.5708C151.988 15.399 152.565 15.6323 152.943 16.0144C154.417 15.6601 155.013 16.1658 155.508 16.7711L155.187 17.199C154.791 16.6489 154.133 16.1302 153.12 16.3394C153.249 17.0056 153.661 17.5435 154.225 18.0011C154.583 18.8664 154.953 20.1388 155.554 20.8676L155.181 21.4416C154.775 20.4821 154.186 19.084 153.345 18.5411C152.697 18.357 152.1 18.1909 151.637 17.6619L151.329 17.5621C150.571 18.2621 149.411 18.5062 148.35 18.5229C147.631 19.2818 147.025 20.347 146.018 21.6243L145.319 21.3112C146.155 20.6613 146.794 19.2342 147.51 18.3142C147.48 17.1693 146.817 16.1686 146.366 15.8562C145.914 15.5438 145.372 16.1953 144.852 16.2753C144.554 16.3221 144.33 15.8907 144.503 15.6752C144.683 15.4503 145.369 14.6623 145.972 14.3445L146.205 13.7443L146.345 14.3184C147.065 14.7882 147.817 15.122 148.42 16.1187Z" fill="white"/>
</svg>
