<svg width="300" height="35" viewBox="0 0 300 35" fill="none" xmlns="http://www.w3.org/2000/svg">
<rect width="300" height="35" fill="#3B3B3B"/>
<path fill-rule="evenodd" clip-rule="evenodd" d="M145 14H155V18H156V21H154.618L155.618 23H152.382L151.382 21H148.618L147.618 23H144.382L145.382 21H144V18H145V14Z" fill="#EBE7E4" fill-opacity="0.8"/>
<path fill-rule="evenodd" clip-rule="evenodd" d="M154 15H146V17H148.5L147.5 19H145V20H147L146 22H147L148 20H152L153 22H154L153 20H155V19H152.5L151.5 17H154V15ZM151.5 19L150.5 17H149.5L148.5 19H151.5Z" fill="#543A12"/>
</svg>
