<svg width="300" height="35" viewBox="0 0 300 35" fill="none" xmlns="http://www.w3.org/2000/svg">
<rect width="300" height="35" fill="#CCFF99" fill-opacity="0.63"/>
<path opacity="0.949" d="M149.999 9C154.963 9 159 13.0018 159 18C159 22.9655 154.963 27 149.999 27C145.037 27 141 22.9655 141 18C141 13.0018 145.037 9 149.999 9Z" fill="#45ABE9"/>
<path opacity="0.95" fill-rule="evenodd" clip-rule="evenodd" d="M150 27C154.971 27 159 22.9706 159 18C159 13.0294 154.971 9 150 9C145.029 9 141 13.0294 141 18C141 22.9706 145.029 27 150 27ZM150 28C155.523 28 160 23.5228 160 18C160 12.4772 155.523 8 150 8C144.477 8 140 12.4772 140 18C140 23.5228 144.477 28 150 28Z" fill="#1578B3"/>
<path d="M145.935 14.706C145.395 15.1953 144.722 15.6435 144.722 15.6435V16.0616L145.205 16.4999H148.028L148.021 17.0253L146.839 17.0356L145.957 18.5775L144.722 18.912V20.4796H145.7C145.7 20.4684 145.699 20.4573 145.699 20.4461C145.699 19.8217 146.205 19.3154 146.83 19.3155C147.454 19.3155 147.961 19.8217 147.961 20.4461C147.96 20.4573 147.96 20.4684 147.959 20.4796H151.607C151.606 20.4684 151.606 20.4573 151.605 20.4461C151.605 19.8217 152.112 19.3155 152.736 19.3155C153.36 19.3155 153.867 19.8217 153.867 20.4461C153.866 20.4573 153.866 20.4684 153.865 20.4796H155.278V15.1419H152.331L151.787 14.706H145.935ZM146.077 15.2251H148.028V16.0528H146.077V15.2251ZM152.003 16.4999H153.954V17.9927H152.003V16.4999ZM149.512 16.4999H151.183V19.9953H149.512V16.4999ZM147.181 17.5295H148.02V18.5922H146.608L147.181 17.5295ZM152.736 19.7224C152.336 19.7224 152.012 20.0464 152.012 20.4461C152.012 20.8458 152.336 21.1698 152.736 21.1698C153.136 21.1698 153.46 20.8458 153.46 20.4461C153.46 20.0464 153.136 19.7224 152.736 19.7224ZM146.83 19.7329C146.436 19.7329 146.117 20.0522 146.117 20.4461C146.117 20.8401 146.436 21.1594 146.83 21.1594C147.224 21.1594 147.543 20.84 147.543 20.4461C147.543 20.0522 147.224 19.7329 146.83 19.7329Z" fill="white"/>
</svg>
