<svg width="300" height="35" viewBox="0 0 300 35" fill="none" xmlns="http://www.w3.org/2000/svg">
<rect width="300" height="35" fill="#3B3B3B"/>
<path d="M146.047 18.1031C146.704 18.1031 147.237 17.5702 147.237 16.9127C147.237 16.2553 146.704 15.7224 146.047 15.7224C145.389 15.7224 144.856 16.2553 144.856 16.9127C144.856 17.5702 145.389 18.1031 146.047 18.1031Z" fill="#67C066"/>
<path d="M152.721 20.1494C152.777 20.112 152.85 20.1224 152.89 20.1764L153.109 20.4807C153.147 20.5332 153.136 20.6097 153.082 20.6502L151.466 21.824C151.414 21.8615 151.337 21.851 151.297 21.797L151.078 21.4927C151.04 21.4402 151.051 21.3638 151.105 21.3233L152.721 20.1494Z" fill="#67C066"/>
<path d="M150.558 18.8871L150.895 18.6353L150.253 17.5109L149.916 17.7568L150.558 18.8871Z" fill="#67C066"/>
<path d="M149.059 16.2576L149.399 16.0087L146.906 11.6312L146.428 11.6342L149.059 16.2576Z" fill="#67C066"/>
<path d="M151.747 18.325C151.888 18.223 152.048 18.1436 152.232 18.1436L154.549 18.1466C155 18.1466 155.363 18.5124 155.363 18.9606C155.363 19.4118 155 19.7746 154.549 19.7746L152.616 19.7716L150.148 21.5137C149.279 22.1403 148.751 21.4522 148.751 21.4522L146.814 19.5138C146.489 19.124 146.559 18.3834 146.949 18.0551L149.63 16.1467C149.897 15.9248 150.291 15.9593 150.517 16.2231C150.739 16.49 150.705 16.8873 150.438 17.1106L148.721 18.3669L149.954 19.5857L151.747 18.325Z" fill="#67C066"/>
</svg>
