<svg width="300" height="35" viewBox="0 0 300 35" fill="none" xmlns="http://www.w3.org/2000/svg">
<rect width="300" height="35" fill="#192E33"/>
<path fill-rule="evenodd" clip-rule="evenodd" d="M150.443 17L147.5 9.15201L144.557 17H144.934L143.734 19H144.5L143 21H146V23H149V21H150V22H150.5V23H155.5V22H156V19H151.266L150.066 17H150.443Z" fill="#EBE7E4" fill-opacity="0.8"/>
<path d="M146 16L147.5 12L149 16H148.3L149.5 18H148.5L150 20H148V22H147V20H145L146.5 18H145.5L146.7 16H146Z" fill="#6DBA00"/>
<path d="M152.5 21H153.5V22H154.5V21H155V20H151V21H151.5V22H152.5V21Z" fill="#6DBA00"/>
</svg>
