<svg width="300" height="35" viewBox="0 0 300 35" fill="none" version="1.1" id="svg14" xmlns="http://www.w3.org/2000/svg"><rect width="300" height="35" fill="#888" id="rect2"/><rect x="1" y="1" width="298" height="33" fill="#EBE7E4" id="rect4" style="fill:#8de9a1;fill-opacity:1"/><path opacity=".95" d="M150 7a10.01 10.01 0 1 1-.02 19.98A10.01 10.01 0 0 1 150 7z" fill="#60BE60" id="path6"/><path opacity=".95" fill-rule="evenodd" clip-rule="evenodd" d="M150 26a9 9 0 1 0 0-18 9 9 0 0 0 0 18zm0 1a10 10 0 1 0 0-20 10 10 0 0 0 0 20z" fill="#398C39" id="path8"/><path d="M146.8 13.1a.5.5 0 0 0-.6.8l2.6 1.86c-.13.84-.1 1.7.1 2.52l-.88 3.08a.5.5 0 1 0 .96.28l.88-3.07 2.29 2.28a.5.5 0 0 0 .7-.7l-1.94-1.95.04-.02a4.43 4.43 0 0 1-.2-1.96l2.95-1.26a.5.5 0 0 0-.4-.92l-2.63 1.13-1.5-.38-2.38-1.7z" fill="#fff" id="path10"/><path d="M150 14.5a.75.75 0 1 0 0-1.5.75.75 0 0 0 0 1.5z" fill="#fff" id="path12"/></svg>
