<svg width="300" height="35" viewBox="0 0 300 35" fill="none" xmlns="http://www.w3.org/2000/svg">
<rect width="300" height="35" fill="#888888"/>
<rect x="1" y="1" width="298" height="33" fill="#EBE7E4"/>
<path opacity="0.953" d="M149.999 7C155.514 7 160 11.4465 160 17C160 22.5172 155.514 27 149.999 27C144.486 27 140 22.5172 140 17C140 11.4465 144.486 7 149.999 7Z" fill="#60BE60"/>
<path opacity="0.95" fill-rule="evenodd" clip-rule="evenodd" d="M150 26C154.971 26 159 21.9706 159 17C159 12.0294 154.971 8 150 8C145.029 8 141 12.0294 141 17C141 21.9706 145.029 26 150 26ZM150 27C155.523 27 160 22.5228 160 17C160 11.4772 155.523 7 150 7C144.477 7 140 11.4772 140 17C140 22.5228 144.477 27 150 27Z" fill="#398C39"/>
<path opacity="0.5" d="M146.314 13.5359C146.571 13.4333 146.862 13.558 146.964 13.8144L147.928 16.2241C148.415 16.113 148.944 16.0399 149.5 16.0123V14.0001C149.5 13.724 149.724 13.5001 150 13.5001C150.276 13.5001 150.5 13.724 150.5 14.0001V16.0123C151.056 16.0399 151.585 16.113 152.072 16.2241L153.036 13.8144C153.138 13.558 153.429 13.4333 153.686 13.5359C153.942 13.6385 154.067 13.9294 153.964 14.1858L153.034 16.5125C153.557 16.7127 153.999 16.9633 154.331 17.25C153.467 17.6984 151.851 18 150 18C148.149 18 146.533 17.6983 145.669 17.25C146.001 16.9633 146.443 16.7126 146.966 16.5125L146.036 14.1858C145.933 13.9294 146.058 13.6385 146.314 13.5359Z" fill="white"/>
<path fill-rule="evenodd" clip-rule="evenodd" d="M156 15.5C156 15.8849 155.938 16.2673 155.816 16.6325L155.124 18.7102C155.003 19.0729 154.787 19.4443 154.425 19.7034C153.748 20.1871 152.27 21 150 21C147.73 21 146.252 20.1871 145.575 19.7034C145.213 19.4443 144.997 19.0729 144.876 18.7102L144.184 16.6325C144.062 16.2673 144 15.8849 144 15.5C144 14.1193 146.686 13 150 13C153.314 13 156 14.1193 156 15.5ZM154.981 15.563C155 15.5239 155 15.5053 155 15.5C155 15.4947 155 15.4761 154.981 15.437C154.96 15.3942 154.915 15.3264 154.827 15.2393C154.644 15.0594 154.329 14.8514 153.858 14.6553C152.921 14.265 151.558 14 150 14C148.442 14 147.079 14.265 146.142 14.6553C145.671 14.8514 145.356 15.0594 145.173 15.2393C145.085 15.3264 145.04 15.3942 145.019 15.437C145 15.4761 145 15.4947 145 15.5C145 15.5053 145 15.5239 145.019 15.563C145.04 15.6058 145.085 15.6736 145.173 15.7607C145.356 15.9406 145.671 16.1486 146.142 16.3447C147.079 16.735 148.442 17 150 17C151.558 17 152.921 16.735 153.858 16.3447C154.329 16.1486 154.644 15.9406 154.827 15.7607C154.915 15.6736 154.96 15.6058 154.981 15.563ZM145.395 17.1025L145.825 18.394C145.9 18.6203 146.014 18.7877 146.157 18.8898C146.607 19.2116 147.554 19.7566 149.002 19.9387C149.034 19.415 149.468 19 150 19C150.532 19 150.966 19.415 150.998 19.9387C152.446 19.7566 153.393 19.2116 153.843 18.8898C153.986 18.7877 154.1 18.6203 154.175 18.394L154.605 17.1025C153.505 17.6511 151.85 18 150 18C148.15 18 146.495 17.6511 145.395 17.1025Z" fill="white"/>
</svg>
