<svg width="18" height="18" viewBox="0 0 18 18" fill="none" xmlns="http://www.w3.org/2000/svg">
<path fill-rule="evenodd" clip-rule="evenodd" d="M1.4755 8.46008L1.37622 16.2039L1.4755 8.46008Z" fill="white"/>
<path d="M1.4755 8.46008L1.37622 16.2039" stroke="white" stroke-linecap="round"/>
<path fill-rule="evenodd" clip-rule="evenodd" d="M1.57471 13.3247L16.4666 13.424L1.57471 13.3247Z" fill="white"/>
<path d="M1.57471 13.3247L16.4666 13.424" stroke="white"/>
<path fill-rule="evenodd" clip-rule="evenodd" d="M16.5659 15.906L16.6652 10.8428L16.5659 15.906Z" fill="white"/>
<path d="M16.5659 15.906L16.6652 10.8428" stroke="white" stroke-linecap="round"/>
<path d="M14.3819 10.4952H7.92872C7.54489 10.4952 7.23376 10.8064 7.23376 11.1902C7.23376 11.574 7.54489 11.8851 7.92872 11.8851H14.3819C14.7657 11.8851 15.0768 11.574 15.0768 11.1902C15.0768 10.8064 14.7657 10.4952 14.3819 10.4952Z" fill="white" stroke="white"/>
<path d="M6.10777 8.64238C6.10777 8.89671 5.99365 9.14064 5.79053 9.32051C5.58741 9.50036 5.31192 9.60141 5.02466 9.60141C4.73741 9.60141 4.46191 9.50036 4.25879 9.32051C4.05564 9.14064 3.94153 8.89671 3.94153 8.64238C3.94153 8.38802 4.05564 8.14409 4.25879 7.96424C4.46191 7.7844 4.73741 7.68335 5.02466 7.68335C5.31192 7.68335 5.58741 7.7844 5.79053 7.96424C5.99365 8.14409 6.10777 8.38802 6.10777 8.64238Z" fill="white" stroke="white"/>
<path d="M5.71972 11.5873H2.9399C2.87136 11.5873 2.8158 11.6428 2.8158 11.7114C2.8158 11.7799 2.87136 11.8355 2.9399 11.8355H5.71972C5.78824 11.8355 5.84382 11.7799 5.84382 11.7114C5.84382 11.6428 5.78824 11.5873 5.71972 11.5873Z" fill="white" stroke="white"/>
<path opacity="0.350962" fill-rule="evenodd" clip-rule="evenodd" d="M8.3792 1.07273C8.27107 1.06964 8.16223 1.10327 8.07469 1.16681L5.35529 3.1443C5.22951 3.23573 5.15143 3.38935 5.15161 3.54483V5.468C6.05316 5.46912 6.92688 5.85953 7.52671 6.51054H7.62369V6.62112C8.00318 7.07435 8.25481 7.64017 8.30453 8.28047H14.5046C15.3089 8.28047 16.034 8.62812 16.5432 9.17855L17.0175 9.18727V3.54483C17.0176 3.38935 16.9395 3.23573 16.8138 3.1443L14.0944 1.16681C14.0144 1.10878 13.9167 1.07553 13.818 1.07273C13.7096 1.06943 13.6003 1.10307 13.5125 1.16681L11.084 2.93286L8.65559 1.16681C8.57564 1.10878 8.47795 1.07553 8.3792 1.07273ZM6.63447 4.03846H7.62369V5.02769H6.63447V4.03846ZM9.10658 4.03846H10.0958V5.02769H9.10658V4.03846ZM12.0733 4.03846H13.0615V5.02769H12.0733V4.03846ZM14.5454 4.03846H15.5336V5.02769H14.5454V4.03846ZM9.10658 6.51054H10.0958V7.49977H9.10658V6.51054ZM12.0733 6.51054H13.0615V7.49977H12.0733V6.51054ZM14.5454 6.51054H15.5336V7.49977H14.5454V6.51054Z" fill="white"/>
</svg>
