<svg width="18" height="18" viewBox="0 0 18 18" fill="none" xmlns="http://www.w3.org/2000/svg">
<path opacity="0.7" d="M16.5 9C16.5 9.82843 15.8284 10.5 15 10.5H3C2.17157 10.5 1.5 9.82843 1.5 9V9V9C1.5 8.17157 2.17157 7.5 3 7.5H15C15.8284 7.5 16.5 8.17157 16.5 9V9V9Z" fill="white"/>
<path d="M2.58391 5.13287C3.09601 4.72319 3.73228 4.5 4.38809 4.5H13.6119C14.2677 4.5 14.904 4.72319 15.4161 5.13287V5.13287C16.1012 5.68095 16.5 6.51073 16.5 7.38809V7.5H1.5V7.38809C1.5 6.51073 1.89882 5.68095 2.58391 5.13287V5.13287Z" fill="white"/>
<path d="M15.4161 12.8671C14.904 13.2768 14.2677 13.5 13.6119 13.5H4.38809C3.73228 13.5 3.09601 13.2768 2.58391 12.8671V12.8671C1.89881 12.3191 1.5 11.4893 1.5 10.6119V10.5H16.5V10.6119C16.5 11.4893 16.1012 12.3191 15.4161 12.8671V12.8671Z" fill="white"/>
</svg>
