<svg width="18" height="18" viewBox="0 0 18 18" fill="none" xmlns="http://www.w3.org/2000/svg">
<path d="M14.8555 3.14452C13.2914 1.58048 11.2119 0.719116 9.00002 0.719116C6.7881 0.719116 4.70857 1.58048 3.14452 3.14452C1.58048 4.7086 0.719116 6.78813 0.719116 9.00002C0.719116 11.2119 1.58048 13.2914 3.14452 14.8555C4.70857 16.4196 6.7881 17.2809 9.00002 17.2809C11.2119 17.2809 13.2914 16.4196 14.8555 14.8555C16.4196 13.2915 17.2809 11.2119 17.2809 9.00002C17.2809 6.7881 16.4196 4.7086 14.8555 3.14452V3.14452ZM9.00002 16.5527C4.83547 16.5527 1.4474 13.1645 1.4474 9.00002C1.4474 4.8355 4.83547 1.4474 9.00002 1.4474C13.1645 1.4474 16.5527 4.8355 16.5527 9.00002C16.5527 13.1645 13.1645 16.5527 9.00002 16.5527Z" fill="white"/>
<path d="M6.58711 3.14929C6.05505 3.14929 5.02734 4.49764 5.02734 5.7294C5.02734 6.72066 5.4798 7.56042 6.10536 7.85072L5.97588 14.8504H7.1983L7.06882 7.85072C7.69442 7.56042 8.14681 6.72066 8.14681 5.7294C8.14684 4.49767 7.11922 3.14929 6.58711 3.14929V3.14929Z" fill="white"/>
<path d="M12.9727 6.69449L12.8101 3.32387C12.8101 3.25947 12.7579 3.20724 12.6935 3.20724H12.6169C12.5525 3.20724 12.5003 3.25947 12.5003 3.32387L12.5544 6.69449H12.2178L12.1325 3.29103C12.1325 3.22664 12.0802 3.17444 12.0158 3.17444H11.9162C11.8518 3.17444 11.7996 3.22664 11.7996 3.29103L11.8457 6.69449H11.4279L11.474 3.29103C11.474 3.22664 11.4218 3.17444 11.3574 3.17444H11.2578C11.1934 3.17444 11.1411 3.22664 11.1411 3.29103L11.0558 6.69449H10.7263L10.7804 3.32427C10.7804 3.25988 10.7282 3.20768 10.6638 3.20768H10.5872C10.5228 3.20768 10.4706 3.25991 10.4706 3.32427L10.3015 6.69449C10.3015 7.68577 10.5295 8.05911 11.155 8.34938L11.0255 14.8505H12.2479L12.1186 8.34938C12.7442 8.05908 12.9727 7.6858 12.9727 6.69449Z" fill="white"/>
</svg>
