<svg width="18" height="18" viewBox="0 0 18 18" fill="none" xmlns="http://www.w3.org/2000/svg">
<path fill-rule="evenodd" clip-rule="evenodd" d="M8.98416 1.46948L8.93059 1.47172L8.88375 1.49772L8.86441 1.51477L1.57365 7.95626C1.44889 8.06653 1.52684 8.27254 1.69334 8.2726H2.97067V16.4119C2.97069 16.5118 3.05166 16.5927 3.15154 16.5927H7.52596C7.62584 16.5927 7.70682 16.5118 7.70683 16.4119V11.6825H10.3614L10.3615 16.4119C10.3615 16.5118 10.4425 16.5927 10.5423 16.5927H14.8168C14.9166 16.5927 14.9976 16.5118 14.9976 16.4119V8.2726H16.2749C16.4415 8.27259 16.5195 8.06654 16.3947 7.95626L9.10386 1.51477V1.51482C9.07082 1.48562 9.02826 1.4695 8.98416 1.46948L8.98416 1.46948ZM8.90969 7.06201C9.23668 7.06201 9.47695 7.12556 9.63052 7.25264C9.78408 7.37973 9.86086 7.53197 9.86086 7.70936C9.86086 7.80865 9.83736 7.90397 9.79037 7.99531C9.74337 8.08666 9.68678 8.16079 9.62059 8.21771C9.5544 8.27464 9.43591 8.35937 9.26514 8.47189C9.40679 8.61354 9.5544 8.74526 9.70796 8.86705C9.749 8.78498 9.78408 8.69827 9.81321 8.60692L10.4447 8.74791C10.4116 8.86441 10.3798 8.95774 10.3494 9.0279C10.3189 9.09806 10.2759 9.1808 10.2203 9.27612L10.5241 9.48462C10.5612 9.50845 10.6088 9.53691 10.6671 9.57001L10.2322 10.0704C10.1528 10.0281 10.0704 9.97907 9.98497 9.92347C9.89958 9.86787 9.82313 9.82021 9.75562 9.7805C9.61529 9.87317 9.47497 9.94068 9.33464 9.98304C9.14004 10.0413 8.91896 10.0704 8.6714 10.0704C8.28352 10.0704 7.99493 9.98966 7.80562 9.82816C7.61631 9.66665 7.52166 9.47072 7.52166 9.24037C7.52166 9.0749 7.57726 8.91835 7.68846 8.77075C7.79966 8.62314 7.98169 8.49837 8.23454 8.39643C8.12863 8.26802 8.05582 8.15649 8.01611 8.06183C7.97639 7.96718 7.95654 7.87087 7.95654 7.77291C7.95654 7.56639 8.0353 7.39628 8.19284 7.26257C8.35037 7.12887 8.58933 7.06201 8.90969 7.06201V7.06201ZM4.35639 7.11165H6.0403C6.32095 7.11166 6.5364 7.18116 6.68666 7.32016C6.83691 7.45916 6.91203 7.63126 6.91204 7.83645C6.91203 8.00855 6.85842 8.15616 6.75119 8.27927C6.6797 8.36135 6.57512 8.42622 6.43744 8.47388C6.64661 8.52418 6.8005 8.61056 6.89913 8.73302C6.99775 8.85547 7.04706 9.00937 7.04707 9.1947C7.04706 9.34562 7.01198 9.48131 6.94182 9.60178C6.87166 9.72225 6.77568 9.81757 6.65389 9.88773C6.57843 9.93141 6.46458 9.96319 6.31234 9.98304C6.1098 10.0095 5.97543 10.0228 5.90924 10.0228H4.35639V7.11165ZM11.1317 7.11165H12.8156C13.0963 7.11166 13.3117 7.18116 13.462 7.32016C13.6123 7.45916 13.6874 7.63126 13.6874 7.83645C13.6874 8.00855 13.6338 8.15616 13.5265 8.27927C13.4551 8.36135 13.3505 8.42622 13.2128 8.47388C13.422 8.52418 13.5759 8.61056 13.6745 8.73302C13.7731 8.85547 13.8224 9.00937 13.8224 9.1947C13.8224 9.34562 13.7873 9.48131 13.7172 9.60178C13.647 9.72225 13.551 9.81757 13.4292 9.88773C13.3538 9.93141 13.2399 9.96319 13.0877 9.98304C12.8851 10.0095 12.7508 10.0228 12.6846 10.0228H11.1317V7.11165ZM8.94345 7.49887C8.86137 7.49888 8.79452 7.52271 8.74289 7.57036C8.69126 7.61802 8.66545 7.67428 8.66545 7.73915C8.66545 7.82123 8.73826 7.94037 8.88388 8.09658C8.98846 8.03966 9.06921 7.97777 9.12614 7.91092C9.18306 7.84407 9.21152 7.78085 9.21153 7.72128C9.21152 7.65906 9.18769 7.60644 9.14004 7.56341C9.09238 7.52039 9.02685 7.49888 8.94345 7.49887V7.49887ZM5.26387 7.70142V8.25346H5.65506C5.79539 8.25346 5.89302 8.2293 5.94796 8.18098C6.0029 8.13266 6.03037 8.06283 6.03037 7.97148C6.03037 7.88676 6.0029 7.82057 5.94796 7.77291C5.89302 7.72525 5.79737 7.70142 5.66102 7.70142H5.26387ZM12.0392 7.70142V8.25346H12.4304C12.5707 8.25346 12.6684 8.2293 12.7233 8.18098C12.7782 8.13266 12.8057 8.06283 12.8057 7.97148C12.8057 7.88676 12.7782 7.82057 12.7233 7.77291C12.6684 7.72525 12.5727 7.70142 12.4364 7.70142H12.0392ZM8.59595 8.80351C8.48474 8.88162 8.41094 8.94847 8.37454 9.00407C8.33813 9.05967 8.31993 9.11858 8.31993 9.1808C8.31993 9.27744 8.36163 9.36349 8.44503 9.43895C8.52843 9.51441 8.63698 9.55214 8.77069 9.55214C8.91499 9.55214 9.07716 9.49587 9.2572 9.38335C9.0851 9.25097 8.86468 9.05769 8.59595 8.80351ZM5.26387 8.80748V9.39725H5.72258C5.87746 9.39725 5.98668 9.36978 6.05023 9.31484C6.11377 9.2599 6.14554 9.1861 6.14554 9.09343C6.14554 9.00738 6.1141 8.93821 6.05122 8.88592C5.98833 8.83363 5.87813 8.80748 5.72059 8.80748H5.26387ZM12.0392 8.80748V9.39725H12.4979C12.6528 9.39725 12.762 9.36978 12.8256 9.31484C12.8891 9.2599 12.9209 9.1861 12.9209 9.09343C12.9209 9.00738 12.8894 8.93821 12.8266 8.88592C12.7637 8.83363 12.6535 8.80748 12.4959 8.80748H12.0392Z" fill="white"/>
</svg>
