<svg width="18" height="18" viewBox="0 0 18 18" fill="none" xmlns="http://www.w3.org/2000/svg">
<path fill-rule="evenodd" clip-rule="evenodd" d="M1.4259 1.3468V16.7004Z" fill="white"/>
<path d="M1.4259 1.3468V16.7004" stroke="white" stroke-linecap="round"/>
<path fill-rule="evenodd" clip-rule="evenodd" d="M1.57483 15.0626L16.4668 15.1619Z" fill="white"/>
<path d="M1.57483 15.0626L16.4668 15.1619" stroke="white"/>
<path fill-rule="evenodd" clip-rule="evenodd" d="M16.6157 16.4024V4.47009Z" fill="white"/>
<path d="M16.6157 16.4024V4.47009" stroke="white" stroke-linecap="round"/>
<path d="M13.2141 12.2162H7.95806C7.62721 12.2162 7.35901 12.4844 7.35901 12.8152C7.35901 13.1461 7.62721 13.4143 7.95806 13.4143H13.2141C13.5449 13.4143 13.8131 13.1461 13.8131 12.8152C13.8131 12.4844 13.5449 12.2162 13.2141 12.2162Z" fill="white" stroke="white"/>
<path d="M6.37051 10.8051C6.37051 11.0243 6.27661 11.2346 6.10946 11.3896C5.9423 11.5446 5.71559 11.6317 5.4792 11.6317C5.24281 11.6317 5.0161 11.5446 4.84895 11.3896C4.6818 11.2346 4.58789 11.0243 4.58789 10.8051C4.58789 10.5858 4.6818 10.3755 4.84895 10.2205C5.0161 10.0655 5.24281 9.97839 5.4792 9.97839C5.71559 9.97839 5.9423 10.0655 6.10946 10.2205C6.27661 10.3755 6.37051 10.5858 6.37051 10.8051V10.8051Z" fill="white" stroke="white"/>
<path d="M6.1082 13.1575H3.83036C3.77128 13.1575 3.72339 13.2054 3.72339 13.2644C3.72339 13.3235 3.77128 13.3714 3.83036 13.3714H6.1082C6.16728 13.3714 6.21517 13.3235 6.21517 13.2644C6.21517 13.2054 6.16728 13.1575 6.1082 13.1575Z" fill="white" stroke="white"/>
<path fill-rule="evenodd" clip-rule="evenodd" d="M1.72266 7.7478L16.6145 7.84708Z" fill="white"/>
<path d="M1.72266 7.7478L16.6145 7.84708" stroke="white"/>
<path d="M13.3552 4.94031H8.09917C7.76832 4.94031 7.50012 5.20851 7.50012 5.53936C7.50012 5.8702 7.76832 6.13841 8.09917 6.13841H13.3552C13.686 6.13841 13.9542 5.8702 13.9542 5.53936C13.9542 5.20851 13.686 4.94031 13.3552 4.94031Z" fill="white" stroke="white"/>
<path d="M6.51151 3.52931C6.51151 3.74856 6.4176 3.95882 6.25045 4.11385C6.08329 4.26888 5.85658 4.35598 5.62019 4.35598C5.3838 4.35598 5.15709 4.26888 4.98994 4.11385C4.82279 3.95882 4.72888 3.74856 4.72888 3.52931C4.72888 3.31006 4.82279 3.09979 4.98994 2.94476C5.15709 2.78973 5.3838 2.70264 5.62019 2.70264C5.85658 2.70264 6.08329 2.78973 6.25045 2.94476C6.4176 3.09979 6.51151 3.31006 6.51151 3.52931V3.52931Z" fill="white" stroke="white"/>
<path d="M6.24932 5.88171H3.97148C3.9124 5.88171 3.8645 5.92961 3.8645 5.9887C3.8645 6.04778 3.9124 6.09568 3.97148 6.09568H6.24932C6.3084 6.09568 6.3563 6.04778 6.3563 5.9887C6.3563 5.92961 6.3084 5.88171 6.24932 5.88171Z" fill="white" stroke="white"/>
</svg>
