<svg width="18" height="18" viewBox="0 0 18 18" fill="none" xmlns="http://www.w3.org/2000/svg">
<path fill-rule="evenodd" clip-rule="evenodd" d="M1.64539 8.66638V15.9332Z" fill="white"/>
<path d="M1.64539 8.66638V15.9332" stroke="white"/>
<path fill-rule="evenodd" clip-rule="evenodd" d="M2.03357 13.4641H16.0082Z" fill="white"/>
<path d="M2.03357 13.4641H16.0082" stroke="white"/>
<path fill-rule="evenodd" clip-rule="evenodd" d="M16.4581 15.6538V10.9025Z" fill="white"/>
<path d="M16.4581 15.6538V10.9025" stroke="white"/>
<path d="M13.9712 10.4619H8.41909C8.08887 10.4619 7.82117 10.7296 7.82117 11.0598C7.82117 11.3901 8.08887 11.6578 8.41909 11.6578H13.9712C14.3014 11.6578 14.5691 11.3901 14.5691 11.0598C14.5691 10.7296 14.3014 10.4619 13.9712 10.4619Z" fill="white" stroke="white"/>
<path d="M5.00147 9.38744C5.53137 9.38744 5.96095 8.97386 5.96095 8.46368C5.96095 7.9535 5.53137 7.53992 5.00147 7.53992C4.47156 7.53992 4.04199 7.9535 4.04199 8.46368C4.04199 8.97386 4.47156 9.38744 5.00147 9.38744Z" fill="white" stroke="white"/>
<path d="M6.0365 11.4082H3.63434C3.57511 11.4082 3.5271 11.4562 3.5271 11.5154C3.5271 11.5747 3.57511 11.6227 3.63434 11.6227H6.0365C6.09573 11.6227 6.14374 11.5747 6.14374 11.5154C6.14374 11.4562 6.09573 11.4082 6.0365 11.4082Z" fill="white" stroke="white"/>
<path opacity="0.345" fill-rule="evenodd" clip-rule="evenodd" d="M9.15065 1.24548L2.67236 6.1482H4.50674V14.3923V14.628V16.1402H10.3912V14.628H10.4183V16.1402H13.7946V14.628V14.4542V9.35094V6.1482H15.629L9.15065 1.24548Z" fill="white" stroke="white"/>
</svg>
