<svg width="26" height="26" viewBox="0 0 26 26" fill="none" xmlns="http://www.w3.org/2000/svg">
<circle opacity="0.3" cx="13" cy="13" r="13" fill="black"/>
<circle cx="13" cy="13" r="12" fill="white"/>
<path d="M23 13C23 18.5228 18.5228 23 13 23C7.47715 23 3 18.5228 3 13C3 7.47715 7.47715 3 13 3C18.5228 3 23 7.47715 23 13Z" fill="black"/>
<path fill-rule="evenodd" clip-rule="evenodd" d="M11 8H10V9V12V13V14V17V18H11H14C15.6569 18 17 16.6569 17 15C17 14.09 16.5949 13.2747 15.9551 12.7245C16.2984 12.2367 16.5 11.6419 16.5 11C16.5 9.34315 15.1569 8 13.5 8H11ZM13.5 12C14.0523 12 14.5 11.5523 14.5 11C14.5 10.4477 14.0523 10 13.5 10H12V12H13.5ZM12 14V16H14C14.5523 16 15 15.5523 15 15C15 14.4477 14.5523 14 14 14H13.5H12Z" fill="white"/>
</svg>
