<svg width="18" height="18" viewBox="0 0 18 18" fill="none" xmlns="http://www.w3.org/2000/svg">
<path d="M6.972 5.40674L2.83679 16.7279L12.3314 9.5772L6.972 5.40674Z" stroke="white" stroke-linejoin="round"/>
<path opacity="0.25" d="M12.142 3.97474C12.27 5.33629 11.2701 6.54386 9.90852 6.67191C8.54697 6.79996 7.3394 5.80001 7.21135 4.43846C7.0833 3.0769 8.08325 1.86934 9.44481 1.74129C10.8064 1.61323 12.0139 2.61318 12.142 3.97474Z" fill="white" stroke="white" stroke-linejoin="round"/>
<path d="M15.4663 6.43898C15.5943 7.80054 14.5944 9.00812 13.2328 9.13617C11.8713 9.26422 10.6637 8.26426 10.5357 6.9027C10.4076 5.54114 11.4076 4.33357 12.7691 4.20552C14.1307 4.07747 15.3382 5.07742 15.4663 6.43898Z" fill="white" stroke="white" stroke-linejoin="round"/>
<path d="M12.5357 3.93775C12.6842 5.5167 11.5246 6.91707 9.94564 7.06557C8.36669 7.21406 6.96633 6.05446 6.81783 4.47551C6.66933 2.89657 7.82894 1.4962 9.40788 1.3477C10.9868 1.1992 12.3872 2.35881 12.5357 3.93775Z" stroke="white" stroke-linejoin="round"/>
<path opacity="0.01" d="M6.972 5.40674L2.83679 16.7279L12.3314 9.5772L6.972 5.40674Z" fill="white" stroke="white" stroke-linejoin="round"/>
</svg>
