<svg width="1601" height="511" viewBox="0 0 1601 511" fill="none" xmlns="http://www.w3.org/2000/svg">
<path fill-rule="evenodd" clip-rule="evenodd" d="M640.918 370.082V322.307H631.027L616.761 349.492L602.63 322.307H592.671V370.082H601.957V338.456L614.272 362.008H619.318L631.632 338.456V370.082H640.918ZM666.966 370.082H676.521L680.895 358.172H697.583L702.024 370.082H711.58L693.411 322.307H685.2L666.966 370.082ZM682.443 351.645L689.307 332.871L695.901 351.645H682.443ZM746.913 370.082V354.067H758.213C760.308 354.091 762.381 353.63 764.269 352.722C766.062 351.86 767.664 350.647 768.98 349.155C770.29 347.66 771.316 345.938 772.008 344.075C772.721 342.194 773.085 340.199 773.084 338.187C773.075 336.214 772.687 334.261 771.94 332.434C771.195 330.557 770.125 328.825 768.778 327.32C767.423 325.811 765.789 324.577 763.967 323.686C762.072 322.759 759.987 322.287 757.877 322.307H737.627V370.082H746.913ZM746.913 330.449H757.276C758.098 330.451 758.911 330.621 759.665 330.949C760.456 331.29 761.158 331.808 761.717 332.463C762.331 333.19 762.81 334.022 763.13 334.919C763.503 335.966 763.686 337.072 763.669 338.183C763.78 340.21 763.172 342.212 761.953 343.835C761.451 344.49 760.804 345.02 760.063 345.382C759.321 345.744 758.505 345.929 757.68 345.921H746.913V330.449ZM833.05 327.286C830.742 325.749 828.258 324.495 825.65 323.551C822.673 322.472 819.526 321.936 816.36 321.97C814.061 321.953 811.772 322.282 809.57 322.946C807.557 323.547 805.674 324.517 804.016 325.806C802.421 327.064 801.142 328.677 800.281 330.516C799.353 332.541 798.893 334.749 798.935 336.976C798.895 338.598 799.181 340.211 799.776 341.72C800.348 343.059 801.21 344.254 802.3 345.22C803.554 346.314 804.976 347.199 806.51 347.844C808.441 348.672 810.429 349.358 812.46 349.896C814.34 350.435 816.05 350.929 817.57 351.377C818.914 351.755 820.222 352.251 821.48 352.857C822.432 353.305 823.28 353.947 823.97 354.741C824.559 355.487 824.868 356.416 824.84 357.366C824.84 360.641 822.283 362.278 817.17 362.278C815.355 362.281 813.548 362.055 811.79 361.605C810.152 361.195 808.552 360.643 807.01 359.956C805.724 359.385 804.477 358.732 803.276 358C802.494 357.551 801.761 357.021 801.089 356.419L796.984 364.426C799.858 366.445 803.037 367.99 806.4 369.002C809.846 370.07 813.432 370.614 817.04 370.617C819.293 370.626 821.539 370.366 823.73 369.843C825.748 369.378 827.663 368.546 829.38 367.387C831.024 366.259 832.366 364.746 833.29 362.979C834.3 360.943 834.794 358.691 834.73 356.419C834.787 354.512 834.421 352.616 833.66 350.867C832.94 349.366 831.895 348.045 830.6 347C829.139 345.848 827.501 344.939 825.75 344.308C823.84 343.591 821.72 342.919 819.39 342.29C817.6 341.842 816.02 341.416 814.65 341.011C813.472 340.684 812.332 340.233 811.25 339.665C810.447 339.253 809.747 338.667 809.2 337.949C808.707 337.227 808.458 336.367 808.49 335.493C808.455 334.728 808.608 333.966 808.936 333.274C809.264 332.582 809.756 331.981 810.37 331.523C811.63 330.581 813.537 330.11 816.09 330.11C817.52 330.109 818.945 330.29 820.33 330.649C821.652 330.985 822.946 331.423 824.2 331.961C825.252 332.404 826.265 332.933 827.23 333.542C827.84 333.916 828.416 334.343 828.95 334.82L833.05 327.286ZM943.88 370.086L933.99 359.724C935.322 357.498 936.339 355.097 937.01 352.591C937.76 349.758 938.146 346.841 938.16 343.911H930.82C930.832 345.765 930.641 347.615 930.25 349.428C929.896 351.051 929.366 352.631 928.67 354.139L919.52 344.584C921.723 343.046 923.693 341.199 925.37 339.099C926.897 337.154 927.706 334.741 927.66 332.269C927.695 330.666 927.323 329.081 926.58 327.66C925.892 326.367 924.93 325.241 923.76 324.36C922.544 323.461 921.175 322.788 919.72 322.375C918.167 321.923 916.557 321.696 914.94 321.702C913.171 321.684 911.411 321.957 909.73 322.509C908.212 323.007 906.806 323.796 905.59 324.831C904.424 325.834 903.484 327.073 902.83 328.465C902.147 329.928 901.802 331.526 901.82 333.141C901.816 334.838 902.221 336.512 903 338.02C904.118 340.034 905.485 341.899 907.07 343.571C905.951 344.332 904.882 345.163 903.87 346.061C902.877 346.944 901.976 347.924 901.18 348.988C900.397 350.046 899.773 351.214 899.33 352.453C898.871 353.772 898.645 355.161 898.66 356.558C898.656 358.424 899.044 360.269 899.8 361.975C900.559 363.692 901.658 365.237 903.03 366.517C904.505 367.871 906.231 368.924 908.11 369.617C910.254 370.405 912.526 370.793 914.81 370.761C917.212 370.764 919.599 370.366 921.87 369.584C924.179 368.788 926.341 367.617 928.27 366.118L932.04 370.088H943.88V370.086ZM912.32 363.122C911.351 362.777 910.451 362.265 909.66 361.608C908.93 360.993 908.346 360.223 907.95 359.354C907.547 358.502 907.338 357.571 907.34 356.628C907.334 355.212 907.81 353.837 908.69 352.728C909.748 351.408 910.994 350.252 912.39 349.296L923.42 360.937C921.229 362.71 918.499 363.683 915.68 363.696C914.535 363.706 913.396 363.51 912.32 363.118V363.122ZM911.41 329.679C911.883 329.239 912.439 328.897 913.044 328.672C913.65 328.447 914.294 328.343 914.94 328.367C916.108 328.32 917.252 328.716 918.14 329.477C918.55 329.843 918.873 330.296 919.088 330.802C919.302 331.308 919.402 331.855 919.38 332.404C919.372 333.644 918.893 334.835 918.04 335.735C916.872 336.971 915.563 338.066 914.14 338.998C913.33 338.147 912.67 337.429 912.15 336.845C911.705 336.355 911.291 335.838 910.91 335.297C910.629 334.915 910.4 334.496 910.23 334.053C910.099 333.674 910.031 333.276 910.03 332.875C910.021 332.274 910.139 331.678 910.376 331.127C910.614 330.575 910.967 330.08 911.41 329.675V329.679ZM1041.92 370.086H1049.46V322.374H1040.17V353.664L1015.27 322.307H1008.07V370.082H1017.36V339.466L1041.92 370.086ZM1075.5 370.086H1085.06L1089.43 358.176H1106.12L1110.56 370.086H1120.12L1101.95 322.311H1093.74L1075.5 370.086ZM1090.98 351.649L1097.84 332.875L1104.44 351.649H1090.98ZM1137.61 322.311L1156.38 370.086H1164.19L1182.82 322.311H1173.07L1160.28 358.445L1147.36 322.311H1137.61ZM1218.06 370.086V322.307H1208.77V370.082H1218.06V370.086ZM1282.72 370.086H1290.39V345.526H1273.1V352.326H1282.72V355.69C1279 360.042 1274.83 362.218 1270.21 362.218C1268.27 362.235 1266.34 361.809 1264.59 360.973C1262.88 360.157 1261.36 359 1260.11 357.573C1258.82 356.075 1257.82 354.353 1257.15 352.493C1256.43 350.475 1256.06 348.345 1256.08 346.201C1256.07 344.121 1256.39 342.052 1257.05 340.078C1257.66 338.223 1258.59 336.492 1259.81 334.964C1260.98 333.502 1262.45 332.308 1264.12 331.464C1265.84 330.602 1267.74 330.163 1269.67 330.185C1272.16 330.168 1274.61 330.819 1276.77 332.07C1278.96 333.347 1280.73 335.243 1281.85 337.52L1288.78 332.406C1287.16 329.223 1284.65 326.582 1281.55 324.806C1278.03 322.843 1274.04 321.867 1270.01 321.98C1266.83 321.949 1263.69 322.603 1260.79 323.898C1258.02 325.132 1255.52 326.892 1253.42 329.079C1249.1 333.623 1246.7 339.662 1246.72 345.935C1246.69 349.239 1247.3 352.517 1248.51 355.591C1249.62 358.462 1251.26 361.098 1253.35 363.363C1255.38 365.554 1257.83 367.316 1260.55 368.545C1263.33 369.805 1266.35 370.448 1269.4 370.429C1271.89 370.436 1274.36 369.932 1276.65 368.948C1278.94 367.965 1281.01 366.522 1282.72 364.709V370.092V370.086ZM1315.49 370.086H1325.04L1329.42 358.176H1346.1L1350.54 370.086H1360.1L1341.93 322.311H1333.72L1315.49 370.086ZM1330.96 351.649L1337.83 332.875L1344.42 351.649H1330.96ZM1416.5 322.311H1376.73V330.453H1392.01V370.086H1401.23V330.449H1416.5V322.307V322.311ZM1452.13 370.086V322.307H1442.85V370.082H1452.13V370.086ZM1513.39 368.438C1516.18 367.169 1518.7 365.363 1520.8 363.122C1522.87 360.883 1524.51 358.283 1525.64 355.451C1526.81 352.554 1527.4 349.457 1527.39 346.333C1527.38 343.294 1526.81 340.282 1525.71 337.451C1524.62 334.587 1523.03 331.943 1521 329.645C1518.95 327.338 1516.47 325.452 1513.7 324.094C1510.76 322.659 1507.52 321.933 1504.24 321.974C1501.02 321.945 1497.82 322.622 1494.89 323.959C1492.08 325.237 1489.56 327.055 1487.45 329.309C1485.36 331.569 1483.69 334.191 1482.54 337.047C1481.35 339.952 1480.75 343.061 1480.76 346.198C1480.79 352.369 1483.07 358.316 1487.18 362.92C1489.24 365.203 1491.74 367.055 1494.52 368.371C1497.5 369.768 1500.75 370.469 1504.04 370.423C1507.26 370.451 1510.46 369.773 1513.39 368.434V368.438ZM1491.09 340.378C1491.66 338.53 1492.56 336.798 1493.74 335.264C1494.92 333.752 1496.42 332.512 1498.12 331.63C1499.96 330.734 1501.97 330.263 1504.02 330.251C1506.06 330.24 1508.08 330.688 1509.93 331.563C1511.62 332.414 1513.11 333.619 1514.3 335.096C1515.52 336.624 1516.45 338.355 1517.06 340.21C1517.71 342.139 1518.04 344.162 1518.04 346.198C1518.04 348.174 1517.73 350.137 1517.13 352.019C1516.54 353.88 1515.63 355.622 1514.44 357.167C1513.26 358.687 1511.76 359.937 1510.06 360.834C1508.22 361.781 1506.18 362.256 1504.11 362.214C1502.07 362.25 1500.04 361.788 1498.22 360.868C1496.53 360.003 1495.04 358.787 1493.85 357.301C1492.64 355.777 1491.71 354.044 1491.12 352.187C1489.88 348.349 1489.87 344.218 1491.09 340.374V340.378ZM1589.79 370.086H1597.32V322.374H1588.04V353.664L1563.14 322.307H1555.94V370.082H1565.23V339.466L1589.79 370.086Z" fill="#999999"/>
<path fill-rule="evenodd" clip-rule="evenodd" d="M699.891 270.618C720.758 261.175 737.16 244.022 745.659 222.753C749.993 212.184 752.215 200.867 752.198 189.444C752.173 178.3 750.081 167.257 746.029 156.876C742.008 146.336 736.068 136.632 728.512 128.255C720.81 119.767 711.501 112.891 701.124 108.023C690.007 102.833 677.863 100.219 665.595 100.375C653.529 100.25 641.578 102.733 630.56 107.653C609.602 116.988 593.1 134.112 584.545 155.4C580.209 165.969 577.988 177.285 578.006 188.709C578 200.028 580.135 211.246 584.298 221.771C588.373 232.276 594.354 241.938 601.939 250.271C609.666 258.7 618.97 265.531 629.326 270.38C640.442 275.573 652.587 278.187 664.855 278.028C676.935 278.15 688.895 275.621 699.891 270.618ZM622.048 169.829C623.834 163.701 626.763 157.967 630.683 152.929C634.563 147.982 639.438 143.906 644.993 140.963C650.668 137.921 657.371 136.399 665.102 136.398C671.89 136.262 678.613 137.742 684.717 140.716C690.294 143.519 695.214 147.472 699.151 152.316C703.16 157.287 706.176 162.983 708.033 169.094C710.009 175.444 711.008 182.058 710.994 188.709C710.996 195.269 710.04 201.794 708.156 208.077C706.361 214.216 703.478 219.982 699.644 225.102C695.813 230.16 690.931 234.327 685.334 237.315C679.091 240.555 672.131 242.167 665.1 242C658.259 242.128 651.488 240.605 645.362 237.558C639.743 234.713 634.816 230.671 630.928 225.715C627.001 220.664 624.032 214.936 622.169 208.815C620.193 202.465 619.195 195.851 619.21 189.2C619.207 182.639 620.163 176.113 622.048 169.829ZM866.16 267.657C875.7 260.094 880.47 249.896 880.47 237.063C880.591 232.235 879.666 227.438 877.76 223C875.783 218.849 872.816 215.248 869.12 212.514C864.393 209.05 859.202 206.267 853.7 204.249C846.068 201.366 838.287 198.896 830.39 196.849C821.657 194.716 815.693 192.742 812.5 190.927C811.005 190.17 809.757 189.002 808.905 187.559C808.053 186.116 807.631 184.46 807.69 182.785C807.69 179.003 809.17 176.248 812.13 174.52C815.45 172.702 819.197 171.808 822.98 171.929C828.743 171.997 834.439 173.17 839.76 175.383C846.723 178.357 853.342 182.078 859.5 186.483L874.8 162.797C866.9 155.889 858.717 151.119 850.25 148.487C841.411 145.803 832.217 144.472 822.98 144.539C815.984 144.476 809.025 145.56 802.38 147.747C796.416 149.684 790.856 152.694 785.973 156.629C781.267 160.476 777.492 165.337 774.929 170.849C772.367 176.36 771.082 182.379 771.173 188.457C771.067 192.861 771.908 197.236 773.64 201.287C775.479 205.143 778.284 208.458 781.782 210.91C786.312 214.103 791.25 216.675 796.463 218.558C802.463 220.864 809.823 223.249 818.543 225.713C827.423 228.019 833.633 230.199 837.173 232.252C840.713 234.305 842.48 237.06 842.473 240.517C842.543 242.088 842.191 243.649 841.454 245.038C840.717 246.427 839.622 247.593 838.283 248.417C835.483 250.228 831.536 251.132 826.443 251.131C819.029 251.03 811.703 249.522 804.851 246.689C796.712 243.373 788.972 239.15 781.779 234.1L767.716 258.28C775.568 265.284 784.819 270.54 794.856 273.7C805.356 277.203 816.351 278.993 827.42 279C843.71 279.005 856.623 275.224 866.16 267.657ZM1108.25 193.639C1108.24 188.019 1107.78 182.409 1106.89 176.861C1106.04 171.258 1104.16 165.861 1101.34 160.947C1098.51 156.063 1094.47 151.985 1089.62 149.104C1084.6 146.062 1077.98 144.54 1069.76 144.539C1059.4 144.539 1050.19 146.719 1042.13 151.078C1034.08 155.427 1027.35 161.861 1022.64 169.706C1021.82 166.277 1020.49 162.991 1018.69 159.96C1016.83 156.862 1014.4 154.141 1011.53 151.941C1008.38 149.539 1004.83 147.702 1001.05 146.513C996.453 145.116 991.664 144.45 986.86 144.539C976 144.539 966.5 146.595 958.36 150.708C950.312 154.733 943.589 160.984 938.99 168.719V147.007H903.46V276.54H942.94V202.274C944.954 195.797 948.761 190.023 953.92 185.62C958.94 181.425 964.08 179.327 969.34 179.328C971.669 179.279 973.977 179.778 976.077 180.785C978.177 181.793 980.011 183.281 981.43 185.128C984.55 188.995 986.113 195.204 986.12 203.756V276.54H1025.6V202.274C1027.79 195.984 1031.52 190.343 1036.45 185.866C1038.68 183.858 1041.22 182.232 1043.98 181.055C1046.51 179.943 1049.24 179.355 1052 179.328C1054.33 179.28 1056.64 179.779 1058.74 180.787C1060.84 181.794 1062.67 183.281 1064.09 185.128C1067.21 188.995 1068.77 195.204 1068.77 203.756V276.54H1108.25V193.64V193.639ZM1124.66 276.539H1166.11L1179.43 237.309H1233.96L1247.53 276.539H1288.98L1225.08 101.36H1188.56L1124.66 276.539ZM1185.85 209.428L1206.82 147.499L1227.3 209.428H1185.85ZM1430.77 193.638C1430.75 188.019 1430.3 182.409 1429.42 176.86C1428.56 171.259 1426.68 165.864 1423.87 160.946C1421.01 156.038 1416.93 151.957 1412.02 149.103C1406.92 146.061 1400.18 144.539 1391.79 144.538C1380.44 144.538 1370.41 146.635 1361.69 150.83C1353.35 154.692 1346.31 160.91 1341.46 168.718V147.007H1305.93V276.54H1345.41V202.274C1346.55 199.007 1348.17 195.93 1350.22 193.145C1352.22 190.408 1354.58 187.958 1357.25 185.866C1359.73 183.898 1362.47 182.28 1365.39 181.055C1368.05 179.934 1370.9 179.347 1373.78 179.328C1376.2 179.249 1378.61 179.732 1380.81 180.738C1383.02 181.744 1384.96 183.247 1386.49 185.128C1389.69 188.995 1391.29 195.204 1391.3 203.756V276.54H1430.77V193.64V193.638ZM1540.37 273.085C1548.24 269.079 1554.73 262.805 1559 255.074L1559.74 261.736C1559.96 264.236 1560.73 266.654 1562.02 268.812C1563.3 270.969 1565.05 272.81 1567.14 274.196C1571.42 277.072 1577.01 278.511 1583.92 278.514C1586.22 278.514 1588.69 278.391 1591.32 278.144C1594.48 277.809 1597.61 277.275 1600.7 276.544V243.231C1597.57 242.904 1595.39 241.959 1594.16 240.394C1592.93 238.829 1592.32 236.074 1592.31 232.128V96.428H1552.83V168.228C1548.91 161.017 1543.05 155.037 1535.93 150.957C1528.47 146.645 1519.99 144.428 1511.38 144.542C1503.39 144.451 1495.49 146.225 1488.31 149.724C1481.35 153.151 1475.18 157.981 1470.18 163.911C1464.92 170.211 1460.89 177.453 1458.33 185.253C1455.49 193.763 1454.08 202.683 1454.14 211.653C1454.04 220.778 1455.58 229.846 1458.7 238.423C1461.57 246.268 1465.88 253.506 1471.41 259.765C1476.79 265.816 1483.39 270.652 1490.78 273.952C1498.51 277.374 1506.88 279.099 1515.33 279.01C1524.03 279.052 1532.61 277.021 1540.37 273.086V273.085ZM1513.48 243.23C1509.73 241.67 1506.36 239.313 1503.61 236.322C1500.82 233.225 1498.64 229.624 1497.19 225.712C1495.6 221.451 1494.81 216.936 1494.85 212.389C1494.82 207.944 1495.53 203.525 1496.95 199.312C1498.26 195.346 1500.31 191.663 1502.99 188.456C1505.57 185.378 1508.71 182.823 1512.25 180.931C1515.86 179.023 1519.88 178.048 1523.96 178.094C1529.89 178.094 1535.61 180.191 1541.11 184.385C1546.57 188.511 1550.72 194.122 1553.08 200.546V227.686C1550.61 233.097 1546.62 237.68 1541.61 240.886C1536.97 243.98 1531.52 245.652 1525.94 245.698C1521.66 245.732 1517.42 244.892 1513.48 243.231V243.23Z" fill="black"/>
<path fill-rule="evenodd" clip-rule="evenodd" d="M286.256 466.458L243 507.682C241.149 509.414 238.708 510.378 236.173 510.378C233.638 510.378 231.197 509.414 229.346 507.682L186.09 466.459C80.08 443.5 0.656982 349.181 0.656982 236.3C0.656982 106.228 106.101 0.785034 236.172 0.785034C366.243 0.785034 471.687 106.227 471.687 236.3C471.687 349.181 392.265 443.5 286.256 466.458ZM236.184 101.713C209.572 101.714 183.557 109.607 161.43 124.393C139.304 139.179 122.058 160.195 111.875 184.782C101.692 209.369 99.0286 236.423 104.221 262.524C109.414 288.625 122.23 312.6 141.048 331.417C159.867 350.235 183.842 363.049 209.944 368.24C236.045 373.431 263.099 370.766 287.686 360.582C312.272 350.397 333.286 333.15 348.071 311.023C362.856 288.895 370.747 262.88 370.747 236.268C370.747 218.597 367.266 201.1 360.503 184.775C353.741 168.449 343.829 153.616 331.333 141.121C318.838 128.626 304.004 118.715 287.678 111.954C271.352 105.192 253.855 101.712 236.184 101.713Z" fill="#FF8800"/>
</svg>
