<svg width="48" height="48" viewBox="0 0 48 48" fill="none" xmlns="http://www.w3.org/2000/svg">
<path d="M13 15C10.7909 15 9 16.7909 9 19V29C9 31.2091 10.7909 33 13 33H35C37.2091 33 39 31.2091 39 29V19C39 16.7909 37.2091 15 35 15H13Z" fill="black" fill-opacity="0.05"/>
<path d="M13 16C11.3431 16 10 17.3431 10 19V29C10 30.6569 11.3431 32 13 32H35C36.6569 32 38 30.6569 38 29V19C38 17.3431 36.6569 16 35 16H13Z" fill="black" fill-opacity="0.05"/>
<path d="M13 17C11.8954 17 11 17.8954 11 19V29C11 30.1046 11.8954 31 13 31H35C36.1046 31 37 30.1046 37 29V19C37 17.8954 36.1046 17 35 17H13Z" fill="white"/>
<rect x="13" y="19" width="10" height="10" fill="#14CC70"/>
<path d="M16 21L21 24L16 27V21Z" fill="white"/>
<path d="M27 25H25V23H27V25Z" fill="black"/>
<path fill-rule="evenodd" clip-rule="evenodd" d="M29 25H27V27H25V29H27V27H29V29H31V27H33V29H35V27H33V25H35V23H33V21H35V19H33V21H31V19H29V21H27V19H25V21H27V23H29V25ZM31 25V27H29V25H31ZM31 23H33V25H31V23ZM31 23H29V21H31V23Z" fill="black"/>
</svg>
