<svg width="48" height="48" viewBox="0 0 48 48" fill="none" xmlns="http://www.w3.org/2000/svg">
<path d="M33 24C33 28.9706 28.9706 33 24 33C19.0294 33 15 28.9706 15 24C15 19.0294 19.0294 15 24 15C28.9706 15 33 19.0294 33 24Z" fill="black" fill-opacity="0.05"/>
<path d="M32 24C32 28.4183 28.4183 32 24 32C19.5817 32 16 28.4183 16 24C16 19.5817 19.5817 16 24 16C28.4183 16 32 19.5817 32 24Z" fill="black" fill-opacity="0.15"/>
<path d="M31 24C31 27.866 27.866 31 24 31C20.134 31 17 27.866 17 24C17 20.134 20.134 17 24 17C27.866 17 31 20.134 31 24Z" fill="white"/>
<path fill-rule="evenodd" clip-rule="evenodd" d="M21 19.1707C20.1476 19.472 19.472 20.1476 19.1707 21H21V23H19V25H21V27H19.1707C19.472 27.8524 20.1476 28.528 21 28.8293V27H23V29H25V27H27V28.8293C27.8524 28.528 28.528 27.8524 28.8293 27H27V25H29V23H27V21H28.8293C28.528 20.1476 27.8524 19.472 27 19.1707V21H25V19H23V21H21V19.1707ZM23 23V21H25V23H23ZM23 25H21V23H23V25ZM25 25V27H23V25H25ZM25 25V23H27V25H25Z" fill="#212121"/>
</svg>
