<svg width="18" height="18" viewBox="0 0 18 18" fill="none" xmlns="http://www.w3.org/2000/svg">
<path fill-rule="evenodd" clip-rule="evenodd" d="M3.17726 2.51257L3.10034 8.51043Z" fill="white"/>
<path d="M3.17726 2.51257L3.10034 8.51043" stroke="white" stroke-linecap="round"/>
<path fill-rule="evenodd" clip-rule="evenodd" d="M3.25415 6.28088L14.7882 6.35784Z" fill="white"/>
<path d="M3.25415 6.28088L14.7882 6.35784" stroke="white"/>
<path fill-rule="evenodd" clip-rule="evenodd" d="M14.8656 8.27876L14.9426 4.35718Z" fill="white"/>
<path d="M14.8656 8.27876L14.9426 4.35718" stroke="white" stroke-linecap="round"/>
<path d="M13.1741 4.08801H8.17584C7.87856 4.08801 7.63757 4.329 7.63757 4.62627C7.63757 4.92354 7.87856 5.16453 8.17584 5.16453H13.1741C13.4713 5.16453 13.7123 4.92354 13.7123 4.62627C13.7123 4.329 13.4713 4.08801 13.1741 4.08801Z" fill="white" stroke="white"/>
<path d="M6.76537 2.65332C6.76537 3.06356 6.3898 3.39612 5.92651 3.39612C5.46322 3.39612 5.08765 3.06356 5.08765 2.65332C5.08765 2.24308 5.46322 1.91052 5.92651 1.91052C6.3898 1.91052 6.76537 2.24308 6.76537 2.65332Z" fill="white" stroke="white"/>
<path d="M6.4646 4.93408H4.31157C4.25849 4.93408 4.21545 4.97712 4.21545 5.03021C4.21545 5.08329 4.25849 5.12633 4.31157 5.12633H6.4646C6.51768 5.12633 6.56072 5.08329 6.56072 5.03021C6.56072 4.97712 6.51768 4.93408 6.4646 4.93408Z" fill="white" stroke="white"/>
<path opacity="0.2" d="M17.0902 10.5732H0.958008V16.3012H17.0902V10.5732Z" fill="white" stroke="white" stroke-linecap="round" stroke-linejoin="round"/>
<path d="M0.673462 10.4568H17.341" stroke="white"/>
<path d="M0.673462 16.2916H17.341" stroke="white"/>
<path d="M1.15356 13.3121H16.9446" stroke="white" stroke-dasharray="38.93 38.93"/>
</svg>
