<svg width="18" height="18" viewBox="0 0 18 18" fill="none" xmlns="http://www.w3.org/2000/svg">
<path d="M14.5313 2.41842H14.5235C14.5324 2.41072 14.5373 2.40296 14.5373 2.39514C14.5373 2.21089 12.0214 2.06152 8.91787 2.06152C5.81436 2.06152 3.29846 2.21089 3.29846 2.39514C3.29846 2.40296 3.30337 2.41072 3.3123 2.41842H3.29846L5.05228 15.792H5.0602C5.04468 15.8004 5.03645 15.8089 5.03645 15.8175C5.03645 15.9448 6.77426 16.048 8.91794 16.048C11.0616 16.048 12.7994 15.9448 12.7994 15.8175C12.7994 15.8089 12.7912 15.8004 12.7757 15.792L14.5313 2.41842ZM11.6496 14.8143C11.5598 14.8974 6.23099 14.8585 6.14114 14.7753L4.47514 4.21576C7.42582 6.2611 9.36643 3.93797 13.2318 4.13784L11.6496 14.8143Z" fill="white"/>
<path opacity="0.1" fill-rule="evenodd" clip-rule="evenodd" d="M4.01294 3.70129L13.6363 3.77922L12.0779 15.3117L5.49346 15.3896L4.01294 3.70129Z" fill="white"/>
</svg>
