<svg width="18" height="18" viewBox="0 0 18 18" fill="none" xmlns="http://www.w3.org/2000/svg">
<path d="M3 6V2.25C3 1.83579 3.33579 1.5 3.75 1.5C4.16421 1.5 4.5 1.83579 4.5 2.25V6H5.25V2.25C5.25 1.83579 5.58579 1.5 6 1.5C6.41421 1.5 6.75 1.83579 6.75 2.25V6H7.5V2.25C7.5 1.83579 7.83579 1.5 8.25 1.5C8.66421 1.5 9 1.83579 9 2.25V6C9 7.39788 8.04392 8.57245 6.75 8.90549V16.5H5.25V8.90549C3.95608 8.57245 3 7.39788 3 6Z" fill="white"/>
<path d="M10.5 4.5C10.5 2.84315 11.8431 1.5 13.5 1.5V16.5H12V10.4944C11.1601 10.4251 10.5 9.72145 10.5 8.86364V4.5Z" fill="white"/>
</svg>
