<svg width="300" height="35" viewBox="0 0 300 35" fill="none" xmlns="http://www.w3.org/2000/svg">

<g transform="translate(135.000000, 2.000000) scale(1.875000 1.875000) "> 

<path opacity="0.804" d="M8.30324 1.56549C7.7012 1.56549 7.42774 1.76203 7.05457 2.00069C6.86798 2.12002 6.68606 2.25757 6.51392 2.45429C6.34178 2.65102 6.13898 2.93126 6.13898 3.37657C6.13898 3.57841 6.27963 3.66447 6.35993 3.82181C6.23524 3.88318 6.11686 3.89144 5.99001 4.00258C5.71072 4.2473 5.52533 4.64529 5.49288 5.01358C5.46044 5.38187 5.53217 5.72971 5.66027 6.10659C5.68609 6.18231 5.75597 6.21393 5.7925 6.28066C5.22771 6.55119 4.72962 7.22532 4.72962 7.9093C4.72962 7.96252 4.70186 8.13322 4.68108 8.38969C4.66287 8.61443 4.70265 8.96479 4.85516 9.31531C4.72806 9.34093 4.56463 9.35304 4.44339 9.38227C3.9317 9.50563 3.45962 9.64258 3.02566 10.0066C2.59171 10.3706 2.33544 11.1446 2.50845 11.739C2.65075 12.2279 2.74807 12.9254 3.36712 13.5149C3.98618 14.1045 4.89039 14.3345 6.26117 14.377C7.63743 14.4196 9.26038 14.2532 10.6215 13.9301C11.302 13.7685 11.9126 13.5745 12.4292 13.299C12.6875 13.1613 12.9255 13.0047 13.1406 12.7751C13.3557 12.5455 13.5597 12.2013 13.5725 11.7892C13.6023 10.8268 12.9861 10.1082 12.1865 9.57811C11.7752 9.30544 11.2852 9.08785 10.7387 8.93703C10.7866 8.881 10.8554 8.84032 10.8993 8.78136C11.1295 8.47283 11.3362 8.11743 11.3362 7.61805C11.3362 7.11424 11.1453 6.55633 10.7437 6.22543C10.6169 6.12095 10.4933 6.15569 10.3621 6.09822C10.4038 5.9736 10.5211 5.89404 10.5211 5.7668C10.5211 4.99083 10.13 4.28628 9.59209 3.95237C9.70952 3.71541 9.86827 3.49242 9.86827 3.22593C9.86827 2.38706 9.23452 1.56549 8.30324 1.56549V1.56549Z" fill="#EBE7E4"/>

</g>


<g transform="translate(139.000000, 6.000000) scale(0.037931 0.037931) "> 

<path d="M391.191 274.906C391.191 305.518 328.932 354.969 275.846 354.969C166.269 354.969 191.26 317.836 191.26 287.224C191.26 256.612 222.76 244.113 275.846 244.113C328.932 244.113 391.191 219.478 391.191 274.906Z" fill="#3f3f3f"/>
<path d="M485.755 450.151C484.399 493.858 325.19 524.388 217.502 521.051C109.815 517.714 109.172 484.06 95.7862 438.066C79.9902 383.79 187.057 383.494 293.223 364.97C407.448 345.04 487.109 406.444 485.755 450.151Z" fill="#3f3f3f"/>
<path d="M356.777 196.638C356.777 217.012 321.851 219.094 292.62 219.094C263.387 219.094 235.018 217.532 228.462 198.242C205.565 130.877 263.387 145.312 292.62 145.312C321.852 145.312 356.777 145.312 356.777 196.638Z" fill="#3f3f3f"/>
<path d="M329.114 89.1742C329.114 106.005 317.266 119.649 302.649 119.649C288.033 119.649 250.885 112.421 250.885 95.5902C250.885 78.7592 288.032 58.6992 302.649 58.6992C317.267 58.6992 329.114 72.3432 329.114 89.1742Z" fill="#3f3f3f"/>

</g>

</svg>