<svg width="300" height="40" viewBox="0 0 300 40" fill="none" xmlns="http://www.w3.org/2000/svg" xmlns:xlink="http://www.w3.org/1999/xlink">

<g transform="translate(130.000000, 0.000000) scale(2.500000 2.500000) "> 

<path opacity="0.816" d="M7.79831 1.44775C7.29874 1.44775 6.80406 1.94243 6.80406 2.44201V3.54004C6.80406 3.6425 6.88308 3.73582 6.92123 3.843L4.89255 13.3118L4.90427 13.27C4.85548 13.4478 4.85548 13.6378 4.90427 13.8157C4.90825 13.8314 4.91271 13.8471 4.91766 13.8625C4.99458 14.0878 5.15164 14.2837 5.35453 14.4082C5.37359 14.4196 5.39314 14.4302 5.41311 14.44C5.52825 14.4978 5.65644 14.522 5.7847 14.5337C5.99491 14.5594 6.21238 14.5302 6.39899 14.43C6.4492 14.4034 6.49634 14.3714 6.5396 14.3346C6.54922 14.3263 6.55707 14.3164 6.56638 14.3078L6.59316 14.281L6.64839 14.2258C6.65702 14.2165 6.66689 14.2086 6.67518 14.199C6.68381 14.1897 6.69367 14.1818 6.70196 14.1722C6.73947 14.1285 6.77203 14.0808 6.79904 14.0299C6.85351 13.9278 6.89012 13.8163 6.90784 13.7019L6.90282 13.7353L6.95303 13.4842L8.08621 12.6339L9.02188 13.3554L9.09721 13.7152L9.09052 13.6751C9.10823 13.7895 9.14484 13.901 9.19932 14.0031C9.2067 14.0173 9.21451 14.0313 9.22275 14.045C9.34725 14.2479 9.54315 14.4049 9.76842 14.4819L9.77348 14.4836C9.97207 14.55 10.1901 14.5422 10.3911 14.4836C10.4724 14.4631 10.5548 14.4443 10.6288 14.4049C10.6797 14.3779 10.7274 14.3453 10.771 14.3078C10.7806 14.2995 10.7885 14.2896 10.7978 14.281L10.8798 14.199C10.8884 14.1897 10.8983 14.1818 10.9066 14.1722C10.9481 14.1237 10.9836 14.0703 11.0121 14.0132C11.0737 13.8902 11.1034 13.7537 11.1125 13.6165C11.1211 13.5284 11.1266 13.4394 11.1125 13.352C11.1115 13.3458 11.1104 13.3397 11.1092 13.3336C10.5071 10.1601 9.9116 7.07517 9.3148 3.89824C9.37057 3.7779 9.4621 3.66732 9.4621 3.54004V2.44201C9.4621 1.94243 8.96742 1.44775 8.46784 1.44775H7.79831Z" fill="#EBE7E4"/>

</g>%n%n
<g transform="translate(139.000000, 9.000000) scale(0.687500 0.687500) "> 

<path fill="none" stroke-width="21.400299" stroke-linecap="round" stroke-linejoin="miter" stroke="rgb(24.705882%, 24.705882%, 24.705882%)" stroke-opacity="1" stroke-miterlimit="4" d="M 295.45166 82.766113 L 295.45166 83.828125 L 201.003418 523.713379 " transform="matrix(0.0551724, 0, 0, 0.0551724, 0, 0)"/>
<path fill="none" stroke-width="21.400299" stroke-linecap="round" stroke-linejoin="miter" stroke="rgb(24.705882%, 24.705882%, 24.705882%)" stroke-opacity="1" stroke-miterlimit="4" d="M 295.168457 82.199707 L 295.168457 83.261719 L 378.996582 523.217773 " transform="matrix(0.0551724, 0, 0, 0.0551724, 0, 0)"/>
<path fill="none" stroke-width="13.5365" stroke-linecap="round" stroke-linejoin="miter" stroke="rgb(24.705882%, 24.705882%, 24.705882%)" stroke-opacity="1" stroke-miterlimit="4" d="M 262.104492 230.102539 L 337.719727 298.212891 " transform="matrix(0.0551724, 0, 0, 0.0551724, 0, 0)"/>
<path fill="none" stroke-width="16.6604" stroke-linecap="round" stroke-linejoin="miter" stroke="rgb(24.705882%, 24.705882%, 24.705882%)" stroke-opacity="1" stroke-miterlimit="4" d="M 249.501953 298.283691 L 350.74707 387.138672 " transform="matrix(0.0551724, 0, 0, 0.0551724, 0, 0)"/>
<path fill="none" stroke-width="16.6604" stroke-linecap="round" stroke-linejoin="miter" stroke="rgb(24.705882%, 24.705882%, 24.705882%)" stroke-opacity="1" stroke-miterlimit="4" d="M 338.781738 302.460938 L 233.005371 383.38623 " transform="matrix(0.0551724, 0, 0, 0.0551724, 0, 0)"/>
<path fill-rule="nonzero" fill="rgb(24.705882%, 24.705882%, 24.705882%)" fill-opacity="1" d="M 17.070312 2.515625 L 15.527344 2.515625 C 15.238281 2.515625 15 2.75 15 3.039062 L 15 5.601562 C 15 5.894531 15.238281 6.128906 15.527344 6.128906 L 17.070312 6.128906 C 17.359375 6.128906 17.59375 5.894531 17.59375 5.601562 L 17.59375 3.039062 C 17.59375 2.75 17.359375 2.515625 17.070312 2.515625 Z M 17.070312 2.515625 "/>
<path fill="none" stroke-width="13.5365" stroke-linecap="round" stroke-linejoin="miter" stroke="rgb(24.705882%, 24.705882%, 24.705882%)" stroke-opacity="1" stroke-miterlimit="4" d="M 324.196777 231.943359 L 251.05957 294.035645 " transform="matrix(0.0551724, 0, 0, 0.0551724, 0, 0)"/>
<path fill="none" stroke-width="16.6604" stroke-linecap="round" stroke-linejoin="miter" stroke="rgb(24.705882%, 24.705882%, 24.705882%)" stroke-opacity="1" stroke-miterlimit="4" d="M 370.712891 492.419434 L 233.217773 387.138672 " transform="matrix(0.0551724, 0, 0, 0.0551724, 0, 0)"/>
<path fill="none" stroke-width="16.6604" stroke-linecap="round" stroke-linejoin="miter" stroke="rgb(24.705882%, 24.705882%, 24.705882%)" stroke-opacity="1" stroke-miterlimit="4" d="M 211.694336 495.959473 L 355.136719 387.138672 " transform="matrix(0.0551724, 0, 0, 0.0551724, 0, 0)"/>
<path fill="none" stroke-width="13.5365" stroke-linecap="round" stroke-linejoin="miter" stroke="rgb(24.705882%, 24.705882%, 24.705882%)" stroke-opacity="1" stroke-miterlimit="4" d="M 313.151855 187.834473 L 265.361328 229.606934 " transform="matrix(0.0551724, 0, 0, 0.0551724, 0, 0)"/>
<path fill="none" stroke-width="13.5365" stroke-linecap="round" stroke-linejoin="miter" stroke="rgb(24.705882%, 24.705882%, 24.705882%)" stroke-opacity="1" stroke-miterlimit="4" d="M 275.273438 186.489258 L 322.709961 232.084961 " transform="matrix(0.0551724, 0, 0, 0.0551724, 0, 0)"/>

</g>%n%n</svg>