<svg width="300" height="40" viewBox="0 0 300 40" fill="none" xmlns="http://www.w3.org/2000/svg" xmlns:xlink="http://www.w3.org/1999/xlink">

<g transform="translate(130.000000, 0.000000) scale(2.500000 2.500000) "> 

<path opacity="0.801" d="M3.72421 2.94476C3.33043 2.94483 3.01123 3.26404 3.01116 3.65781V4.11142V12.2914C3.01123 12.6852 3.33043 13.0044 3.72421 13.0045H12.3578C12.7516 13.0044 13.0708 12.6852 13.0709 12.2914V3.65781C13.0708 3.26404 12.7516 2.94483 12.3578 2.94476H3.72421Z" fill="#EBE7E4"/>

</g>%n%n
<g transform="translate(139.000000, 9.000000) scale(0.687500 0.687500) "> 

<path fill-rule="evenodd" fill="rgb(24.705882%, 24.705882%, 24.705882%)" fill-opacity="1" d="M 26.667969 5.332031 L 5.332031 5.332031 L 5.332031 26.667969 L 26.667969 26.667969 Z M 29.332031 2.667969 L 29.332031 29.332031 L 2.667969 29.332031 L 2.667969 2.667969 Z M 29.332031 2.667969 "/>
<path fill-rule="evenodd" fill="rgb(24.705882%, 24.705882%, 24.705882%)" fill-opacity="1" d="M 5.332031 9.332031 C 5.332031 8.597656 5.929688 8 6.667969 8 L 10 8 C 11.839844 8 13.332031 9.492188 13.332031 11.332031 C 13.332031 12.183594 13.015625 12.957031 12.492188 13.546875 C 13.019531 14.222656 13.332031 15.074219 13.332031 16 C 13.332031 16.925781 13.019531 17.777344 12.492188 18.453125 C 13.015625 19.042969 13.332031 19.816406 13.332031 20.667969 C 13.332031 22.507812 11.839844 24 10 24 L 6.667969 24 C 5.929688 24 5.332031 23.402344 5.332031 22.667969 C 5.332031 21.929688 5.929688 21.332031 6.667969 21.332031 L 10 21.332031 C 10.367188 21.332031 10.667969 21.035156 10.667969 20.667969 C 10.667969 20.296875 10.367188 20 10 20 L 9.332031 20 C 8.597656 20 8 19.402344 8 18.667969 C 8 17.929688 8.597656 17.332031 9.332031 17.332031 C 10.070312 17.332031 10.667969 16.738281 10.667969 16 C 10.667969 15.261719 10.070312 14.667969 9.332031 14.667969 C 8.597656 14.667969 8 14.070312 8 13.332031 C 8 12.597656 8.597656 12 9.332031 12 L 10 12 C 10.367188 12 10.667969 11.703125 10.667969 11.332031 C 10.667969 10.964844 10.367188 10.667969 10 10.667969 L 6.667969 10.667969 C 5.929688 10.667969 5.332031 10.070312 5.332031 9.332031 Z M 26.667969 9.332031 C 26.667969 8.597656 26.070312 8 25.332031 8 L 22 8 C 20.160156 8 18.667969 9.492188 18.667969 11.332031 C 18.667969 12.183594 18.984375 12.957031 19.507812 13.546875 C 18.980469 14.222656 18.667969 15.074219 18.667969 16 C 18.667969 16.925781 18.980469 17.777344 19.507812 18.453125 C 18.984375 19.042969 18.667969 19.816406 18.667969 20.667969 C 18.667969 22.507812 20.160156 24 22 24 L 25.332031 24 C 26.070312 24 26.667969 23.402344 26.667969 22.667969 C 26.667969 21.929688 26.070312 21.332031 25.332031 21.332031 L 22 21.332031 C 21.632812 21.332031 21.332031 21.035156 21.332031 20.667969 C 21.332031 20.296875 21.632812 20 22 20 L 22.667969 20 C 23.402344 20 24 19.402344 24 18.667969 C 24 17.929688 23.402344 17.332031 22.667969 17.332031 C 21.929688 17.332031 21.332031 16.738281 21.332031 16 C 21.332031 15.261719 21.929688 14.667969 22.667969 14.667969 C 23.402344 14.667969 24 14.070312 24 13.332031 C 24 12.597656 23.402344 12 22.667969 12 L 22 12 C 21.632812 12 21.332031 11.703125 21.332031 11.332031 C 21.332031 10.964844 21.632812 10.667969 22 10.667969 L 25.332031 10.667969 C 26.070312 10.667969 26.667969 10.070312 26.667969 9.332031 Z M 17.332031 9.332031 C 17.332031 8.597656 16.738281 8 16 8 C 15.261719 8 14.667969 8.597656 14.667969 9.332031 L 14.667969 22.667969 C 14.667969 23.402344 15.261719 24 16 24 C 16.738281 24 17.332031 23.402344 17.332031 22.667969 Z M 17.332031 9.332031 "/>

</g>%n%n</svg>