<svg width="300" height="40" viewBox="0 0 300 40" fill="none" xmlns="http://www.w3.org/2000/svg" >

<g transform="translate(130.000000, 0.000000) scale(2.500000 2.500000) "> 

<path opacity="0.824" d="M8.00001 1.04523C6.80918 1.04523 5.85431 1.62173 5.193 2.15832C4.86234 2.42662 4.59984 2.69195 4.41132 2.9015C4.23801 3.09415 4.18178 3.16214 4.0866 3.30155C3.80939 3.67587 3.80939 4.34328 4.0866 4.71761C4.18178 4.85702 4.23801 4.925 4.41132 5.11765C4.59984 5.32721 4.86234 5.59254 5.193 5.86083C5.43511 6.05728 5.75698 6.23969 6.0751 6.41654C5.98801 6.51872 5.92559 6.63956 5.89266 6.76972L4.20544 13.4918C4.17318 13.6208 4.17073 13.7555 4.19829 13.8856C4.22584 14.0157 4.28268 14.1379 4.36447 14.2427C4.44627 14.3476 4.55088 14.4324 4.67037 14.4909C4.78985 14.5493 4.92107 14.5797 5.05407 14.5798H10.9459C11.0789 14.5797 11.2102 14.5493 11.3296 14.4909C11.4491 14.4324 11.5537 14.3476 11.6355 14.2427C11.7173 14.1379 11.7742 14.0157 11.8017 13.8856C11.8293 13.7555 11.8268 13.6208 11.7946 13.4918L10.1074 6.76972C10.0744 6.63956 10.012 6.51872 9.92491 6.41654C10.243 6.23969 10.5649 6.05728 10.807 5.86083C11.1377 5.59254 11.4002 5.32721 11.5887 5.11765C11.762 4.925 11.8182 4.85701 11.9134 4.71761C12.1906 4.34328 12.1906 3.67587 11.9134 3.30155C11.8182 3.16215 11.762 3.09415 11.5887 2.9015C11.4002 2.69195 11.1377 2.42662 10.807 2.15832C10.1457 1.62173 9.19083 1.04523 8.00001 1.04523Z" fill="#EBE7E4"/>

</g>


<g transform="translate(139.000000, 9.000000) scale(0.037931 0.037931) "> 

<path d="M426.348 115.649C423.823 111.862 365.749 34.8506 290.001 34.8506C214.252 34.8506 156.178 111.862 153.653 115.649C149.866 120.699 149.866 125.749 153.653 130.799C156.178 134.586 214.252 211.597 290.001 211.597C365.749 211.597 423.823 134.586 426.348 130.799C430.136 125.749 430.136 120.699 426.348 115.649ZM290.001 186.348C254.651 186.348 226.877 158.573 226.877 123.224C226.877 87.8746 254.651 60.1001 290.001 60.1001C325.35 60.1001 353.124 87.8746 353.124 123.224C353.124 158.573 325.35 186.348 290.001 186.348Z" fill="#3f3f3f"/>
<path d="M290.001 154.786C307.433 154.786 321.563 140.655 321.563 123.224C321.563 105.793 307.433 91.6621 290.001 91.6621C272.57 91.6621 258.439 105.793 258.439 123.224C258.439 140.655 272.57 154.786 290.001 154.786Z" fill="#3f3f3f"/>
<path d="M343.451 248.676H236.548L165.279 533.751H414.72L343.451 248.676ZM255.844 319.945H325.438L334.168 355.579H246.864L255.844 319.945ZM237.866 391.214H342.881L351.611 426.848H228.887L237.866 391.214ZM219.907 462.482H360.359L369.09 498.117H210.927L219.907 462.482Z" fill="#3f3f3f"/>

</g>

</svg>