<svg width="300" height="40" viewBox="0 0 300 40" fill="none" xmlns="http://www.w3.org/2000/svg" >

<g transform="translate(130.000000, 0.000000) scale(2.500000 2.500000) "> 

<path opacity="0.812" d="M9.10965 1.14465C7.71083 1.14465 6.90549 2.03479 6.4309 2.69833C5.45167 2.76206 4.66282 3.16107 4.20754 3.63589C3.67698 4.18923 3.45749 4.78775 3.45749 4.78775C3.4036 4.93237 3.39414 5.0932 3.4307 5.24314C3.43055 5.25207 3.43055 5.261 3.4307 5.26993C3.27887 5.41455 3.18962 5.62278 3.18962 5.83247V8.24334C3.13781 8.36585 2.71313 9.3874 2.22527 10.5471C1.96725 11.1604 1.69611 11.7684 1.502 12.2347C1.40495 12.4678 1.31872 12.6822 1.26092 12.824C1.23201 12.8949 1.22497 12.9397 1.20734 12.9847C1.19852 13.0072 1.1886 13.0162 1.18055 13.0383C1.17653 13.0494 1.1605 13.0706 1.15377 13.0919C1.1504 13.1025 1.16013 13.1203 1.15377 13.1455C1.15059 13.1581 1.13164 13.1731 1.12698 13.199C1.12232 13.225 1.12698 13.3328 1.12698 13.333C1.12698 13.7078 1.34099 13.9535 1.502 14.083C1.66302 14.2126 1.82289 14.2874 1.98418 14.3509C2.30676 14.4778 2.68394 14.5691 3.13604 14.6456C4.04025 14.7986 5.23268 14.8867 6.56484 14.8867C7.897 14.8867 9.08944 14.7986 9.99364 14.6456C10.4457 14.5691 10.8229 14.4778 11.1455 14.3509C11.3068 14.2874 11.4667 14.2126 11.6277 14.083C11.7887 13.9535 12.0027 13.7078 12.0027 13.333C12.0027 13.3328 12.0073 13.225 12.0027 13.199C11.9981 13.1731 11.9791 13.1581 11.9759 13.1455C11.9696 13.1203 11.9792 13.1025 11.9759 13.0919C11.9691 13.0706 11.9531 13.0494 11.9491 13.0383C11.941 13.0162 11.9312 13.0072 11.9223 12.9847C11.9047 12.9397 11.8977 12.8949 11.8688 12.824C11.8666 12.8185 11.8711 12.8029 11.8688 12.7972C11.9604 12.7514 12.0429 12.6873 12.1098 12.6097L14.8957 9.07375C15.2572 8.61701 14.8621 7.80957 14.2796 7.81474H14.0921L14.6279 6.95754C14.9118 6.48755 14.5073 5.77556 13.9582 5.77889H13.7171C13.8392 5.66965 14.0525 5.62888 14.1457 5.51102C14.7984 4.68599 14.9225 3.74304 14.9225 3.74304C14.9613 3.50292 14.8792 3.24638 14.7082 3.07335C15.093 2.77011 15.0638 2.08381 14.6547 1.81434C14.6547 1.81434 12.8304 0.70594 10.7437 1.62683C10.2781 1.40365 9.7891 1.14465 9.10965 1.14465H9.10965ZM13.4492 3.28765C13.4492 3.28765 13.2123 3.75117 12.8331 4.06449C12.4588 4.37377 12.107 4.58047 11.2794 4.11807C11.2719 4.11354 11.2601 4.12256 11.2527 4.11807C11.0702 4.00819 10.8365 4.03465 10.6365 3.95734C10.8643 3.99452 11.1074 3.92363 11.2794 3.76983C11.2794 3.76983 12.0963 3.28519 13.4492 3.28765H13.4492ZM8.86857 3.55553C9.57506 3.38732 10.3419 3.8234 10.3419 3.8234C10.4072 3.86989 10.4798 3.90618 10.5562 3.93055C10.146 3.78389 9.74985 3.57787 9.29717 3.63589C8.78396 3.70166 8.3108 4.00128 7.90422 4.41273C7.90422 4.41273 8.19838 3.7151 8.86857 3.55553V3.55553ZM6.27018 4.76097C6.67184 4.72935 6.91308 4.84133 6.91308 4.84133C7.11056 4.91672 7.33899 4.90678 7.52919 4.81454C7.50365 4.85341 7.47283 4.88107 7.44883 4.92169C7.42687 4.96455 7.40891 5.00945 7.39525 5.05563H5.43977C5.74581 4.88078 6.03655 4.77936 6.27018 4.76097ZM9.94007 5.83247C10.0968 5.88572 10.2182 5.87313 10.3955 5.9664V5.93962C10.9282 6.2399 11.422 6.36932 11.8956 6.42179L10.5562 9.10054C10.4988 9.21626 10.4709 9.34648 10.4758 9.47556C10.2635 8.97248 9.96793 8.30924 9.94007 8.24334V5.83247ZM10.6365 9.90417C10.7773 10.0987 11.0125 10.2215 11.2527 10.2256H11.5205L11.1187 11.0828C11.0396 10.8945 10.9855 10.7398 10.9044 10.5471C10.7684 10.2237 10.7631 10.2044 10.6365 9.90417V9.90417Z" fill="#EBE7E4"/>

</g>%n%n
<g transform="translate(139.000000, 9.000000) scale(0.037931 0.037931) "> 

<path d="M406.342 54.0803C386.617 43.122 364.7 34.3553 336.209 34.3553C285.8 34.3553 255.117 71.6137 239.775 95.722C156.492 89.147 128 165.855 128 165.855C187.175 102.297 255.117 126.405 255.117 126.405C255.117 126.405 272.65 82.572 318.675 71.6137C364.701 60.6553 406.342 86.9553 406.342 86.9553C406.342 86.9553 461.134 40.9303 553.184 56.272C553.184 56.272 485.242 10.247 406.342 54.0803Z" fill="#3f3f3f"/>
<path d="M338.4 308.272V198.689H119.234V308.272C119.234 308.272 31.5671 514.289 31.5671 516.48C31.5671 534.014 119.234 549.355 228.817 549.355C338.4 549.355 426.067 534.014 426.067 516.48C426.067 514.289 338.4 308.272 338.4 308.272ZM229.524 392.616C241.749 392.616 250.917 401.785 250.917 414.009C250.917 426.233 241.749 435.401 229.524 435.401C217.3 435.401 208.132 426.233 208.132 414.009C208.132 401.785 217.3 392.616 229.524 392.616ZM171.459 310.102L214.244 383.448C205.076 389.56 198.964 401.785 198.964 414.009H110.337C110.337 368.168 134.786 328.439 171.459 310.102ZM229.524 533.196C208.132 533.196 186.739 527.084 171.459 517.915L214.244 441.514C217.3 444.57 223.412 447.626 229.524 447.626C235.636 447.626 241.749 444.57 244.805 441.514L287.59 517.915C272.309 530.14 250.917 533.196 229.524 533.196ZM263.141 414.009C263.141 401.785 257.029 389.56 247.861 383.448L290.646 307.046C327.319 328.439 348.711 368.168 348.711 410.953H263.141V414.009Z" fill="#3f3f3f"/>
<path d="M410.725 155.43C502.775 208.03 548.8 105.022 548.8 105.022C548.8 105.022 526.884 243.097 406.342 175.155C364.7 153.239 325.25 148.855 294.567 177.347C323.059 129.13 371.275 131.322 410.725 155.43Z" fill="#3f3f3f"/>
<path d="M488.108 229.218L426.947 351.762H488.768L436.878 464.782L555.053 316.058H488.266L540.973 229.218H488.108Z" fill="#3f3f3f"/>

</g>%n%n</svg>