<svg width="300" height="40" viewBox="0 0 300 40" fill="none" xmlns="http://www.w3.org/2000/svg" xmlns:xlink="http://www.w3.org/1999/xlink" version="1.1">

<g transform="translate(130.000000, 0.000000) scale(2.500000 2.500000) "> 

<path opacity="0.801" d="M3.52962 2C3.24654 2 2.92219 2.06032 2.59385 2.30521C2.26551 2.55011 2 3.0423 2 3.55721V7.71807C2.00002 7.93613 2.08345 8.14525 2.23194 8.29944C2.38042 8.45363 2.58181 8.54026 2.7918 8.54028H3.77556C3.98555 8.54026 4.18694 8.45363 4.33542 8.29944C4.48391 8.14525 4.56734 7.93613 4.56736 7.71807V6.19824H4.63484V7.71807C4.63486 7.93613 4.71829 8.14525 4.86678 8.29944C5.01527 8.45363 5.21665 8.54026 5.42665 8.54028H7.5936C7.54334 8.65026 7.51721 8.77047 7.51712 8.89221V9.57894C7.51761 9.61281 7.52012 9.64661 7.52463 9.68016C7.46641 9.70496 7.35758 9.71941 7.31168 9.73933C7.15223 9.80854 7.0544 9.825 7.11373 9.82186C6.90818 9.82835 6.71313 9.91762 6.56983 10.0708C6.42653 10.2239 6.34623 10.429 6.34592 10.6425V11.3308C6.34624 11.3927 6.35328 11.4543 6.36691 11.5145C6.2938 11.5444 6.16684 11.5623 6.11198 11.5862C5.9529 11.6554 5.85613 11.6719 5.91553 11.6687C5.70998 11.6752 5.51493 11.7645 5.37163 11.9176C5.22833 12.0708 5.14803 12.2758 5.14772 12.4894V13.1776C5.14773 13.3941 5.22992 13.6018 5.37646 13.7557C5.52301 13.9097 5.72209 13.9974 5.93052 13.9999C5.94033 14 5.95175 14.0001 5.96801 13.9999C5.97752 13.9995 5.98702 13.999 5.99651 13.9983C6.35158 13.9795 6.5683 13.8588 6.72382 13.7911C6.87685 13.7246 6.96325 13.7115 6.91428 13.7133C6.85779 13.715 6.8847 13.7071 7.01475 13.7616C7.14875 13.8176 7.37719 13.9362 7.72258 13.9438C7.72607 13.9438 7.72957 13.9438 7.73307 13.9438C8.07319 13.9467 8.29881 13.845 8.44839 13.7927C8.59798 13.7404 8.66804 13.7341 8.64784 13.7335C8.65084 13.7335 8.65384 13.7335 8.65684 13.7335C8.6279 13.7331 8.71588 13.7481 8.88029 13.8098C9.0447 13.8716 9.28737 13.9794 9.6391 13.978C9.6441 13.9781 9.64909 13.9781 9.65409 13.978C10.0114 13.9693 10.249 13.8472 10.4024 13.7834C10.5558 13.7195 10.6233 13.7115 10.5959 13.7117H10.5674C10.7146 13.7161 10.5415 13.6827 10.5779 13.6977C10.6053 13.7092 10.6333 13.7191 10.6618 13.7273C10.7397 13.7496 10.8729 13.8019 11.0397 13.8566C11.0405 13.8568 11.042 13.8563 11.0427 13.8566C11.1963 13.9105 11.4001 13.9791 11.6681 13.9781C11.6731 13.9781 11.6781 13.9781 11.6831 13.9781C12.0404 13.9693 12.278 13.8472 12.4314 13.7834C12.5823 13.7206 12.6458 13.7134 12.6218 13.7133C12.6029 13.7139 12.7388 13.7421 12.9518 13.8177C13.071 13.86 13.1983 13.8722 13.323 13.8532C13.4477 13.8342 13.5663 13.7846 13.6688 13.7085C13.7714 13.6323 13.8549 13.5318 13.9125 13.4154C13.9701 13.299 14.0001 13.17 14 13.0391V12.3523C13.9998 12.1427 13.9226 11.9411 13.7841 11.7886C13.9226 11.6362 13.9998 11.4345 14 11.2249V10.5382C14 10.4243 13.9772 10.3116 13.933 10.2073C13.8889 10.1031 13.8244 10.0094 13.7436 9.93242C13.8242 9.85558 13.8886 9.76222 13.9327 9.65823C13.9769 9.55423 13.9998 9.44187 14 9.32823V8.63994C14.0001 8.45705 13.9414 8.27935 13.8333 8.13495C13.7252 7.99055 13.5739 7.88769 13.4031 7.84265C13.2809 7.81035 13.1352 7.78036 12.9593 7.78036C12.9573 7.78035 12.9553 7.78035 12.9533 7.78036C12.7247 7.78219 12.6742 7.84504 12.5289 7.89559V7.56079C12.5289 6.43032 11.9413 5.5755 11.2092 5.22342C10.936 5.09203 10.7834 5.11842 10.5749 5.09262C10.5037 4.97509 10.4051 4.87819 10.2881 4.81093C10.1712 4.74368 10.0397 4.70826 9.90603 4.70799H9.27019C9.1566 4.70815 9.04438 4.73368 8.94114 4.78285C8.8379 4.83202 8.74605 4.90368 8.67183 4.99296H8.51887V3.61638L8.51738 3.67556C8.53913 3.36548 8.51094 2.94731 8.22645 2.56838C7.94195 2.18945 7.44489 2 6.95626 2H3.52962V2ZM8.51887 7.6262H8.67333C8.75632 7.7245 8.86068 7.80083 8.97776 7.84888C8.79117 7.89493 8.58676 7.94226 8.47988 7.98903C8.47378 7.9917 8.47829 7.98963 8.47238 7.99214C8.50276 7.90419 8.51848 7.81151 8.51887 7.71808V7.6262L8.51887 7.6262ZM9.99301 7.90182V7.95633C9.9917 7.95579 9.9928 7.95687 9.99147 7.95633C9.95425 7.94062 9.85078 7.92895 9.79952 7.90805H9.90599C9.93507 7.90764 9.96411 7.90556 9.99297 7.90182L9.99301 7.90182ZM9.87903 9.55402H9.88803C9.88588 9.55396 9.88565 9.55562 9.8835 9.55562C9.88151 9.55558 9.88097 9.5541 9.87897 9.55402H9.87903ZM8.68083 11.4009H8.68983C8.68771 11.4008 8.68744 11.4025 8.68533 11.4025C8.68317 11.4024 8.683 11.401 8.68083 11.4009H8.68083Z" fill="#EBE7E4"/>

</g>%n%n
<g transform="translate(139.000000, 9.000000) scale(1.833333 1.833333) "> 

<g id="surface1">
<path style=" stroke:none;fill-rule:nonzero;fill:rgb(24.705882%,24.705882%,24.705882%);fill-opacity:1;" d="M 0.972656 1.855469 L 0.972656 5.769531 L 1.933594 5.769531 L 1.933594 3.566406 L 3.550781 3.566406 L 3.550781 5.769531 L 5.796875 5.769531 L 5.796875 1.910156 C 5.824219 1.546875 5.695312 1.164062 5.042969 1.164062 L 1.695312 1.164062 C 1.421875 1.164062 0.972656 1.308594 0.972656 1.855469 Z M 0.972656 1.855469 "/>
<path style=" stroke:none;fill-rule:evenodd;fill:rgb(24.705882%,24.705882%,24.705882%);fill-opacity:1;" d="M 7.316406 6.605469 C 7.308594 6.605469 7.300781 6.605469 7.292969 6.605469 C 6.996094 6.617188 6.671875 6.859375 6.382812 6.875 C 6.378906 6.875 6.371094 6.875 6.367188 6.875 L 6.367188 7.523438 C 6.371094 7.523438 6.378906 7.523438 6.382812 7.523438 C 6.671875 7.511719 6.996094 7.261719 7.292969 7.253906 C 7.578125 7.238281 7.835938 7.46875 8.125 7.472656 C 8.160156 7.472656 8.195312 7.46875 8.226562 7.464844 L 8.226562 6.816406 C 8.195312 6.820312 8.160156 6.824219 8.125 6.824219 C 7.847656 6.816406 7.59375 6.609375 7.316406 6.605469 Z M 10.914062 6.605469 C 10.691406 6.605469 10.484375 6.71875 10.277344 6.792969 L 10.277344 7.4375 C 10.484375 7.363281 10.691406 7.253906 10.914062 7.253906 C 10.992188 7.25 11.074219 7.265625 11.15625 7.285156 L 11.15625 6.640625 C 11.074219 6.617188 10.992188 6.605469 10.914062 6.605469 Z M 10.914062 6.605469 "/>
<path style=" stroke:none;fill-rule:evenodd;fill:rgb(24.705882%,24.705882%,24.705882%);fill-opacity:1;" d="M 6.171875 8.253906 C 6.164062 8.253906 6.15625 8.253906 6.144531 8.253906 C 5.851562 8.265625 5.527344 8.507812 5.238281 8.523438 C 5.230469 8.523438 5.226562 8.523438 5.222656 8.523438 L 5.222656 9.171875 C 5.226562 9.171875 5.230469 9.171875 5.238281 9.171875 C 5.527344 9.15625 5.851562 8.914062 6.144531 8.902344 C 6.433594 8.890625 6.691406 9.113281 6.980469 9.121094 C 7.277344 9.121094 7.574219 8.914062 7.890625 8.921875 C 8.003906 8.921875 8.113281 8.953125 8.226562 8.992188 L 8.226562 8.34375 C 8.113281 8.304688 8.003906 8.277344 7.890625 8.273438 C 7.574219 8.265625 7.277344 8.472656 6.980469 8.472656 C 6.699219 8.464844 6.449219 8.257812 6.171875 8.253906 Z M 10.277344 8.367188 L 10.277344 9.019531 C 10.335938 9.039062 10.398438 9.058594 10.457031 9.078125 C 10.578125 9.117188 10.699219 9.152344 10.820312 9.152344 C 10.933594 9.148438 11.042969 9.113281 11.15625 9.074219 L 11.15625 8.425781 C 11.046875 8.46875 10.933594 8.5 10.820312 8.503906 C 10.71875 8.503906 10.617188 8.480469 10.515625 8.449219 C 10.503906 8.445312 10.492188 8.441406 10.480469 8.4375 C 10.414062 8.417969 10.34375 8.390625 10.277344 8.367188 Z M 10.277344 8.367188 "/>
<path style=" stroke:none;fill-rule:evenodd;fill:rgb(24.705882%,24.705882%,24.705882%);fill-opacity:0.8;" d="M 7.308594 3.710938 L 7.308594 3.980469 L 6.445312 3.980469 L 6.445312 4.910156 L 7.308594 4.910156 L 7.308594 5.175781 L 7.929688 5.175781 L 7.929688 4.910156 L 8.109375 4.910156 C 8.128906 4.910156 8.144531 4.910156 8.160156 4.90625 C 8.160156 4.90625 8.332031 4.898438 8.484375 4.96875 C 8.640625 5.039062 8.785156 5.109375 8.785156 5.621094 L 8.785156 9.601562 L 9.71875 9.601562 L 9.71875 5.621094 C 9.71875 4.835938 9.292969 4.316406 8.878906 4.125 C 8.566406 3.980469 8.261719 3.972656 8.132812 3.976562 C 8.109375 3.976562 8.109375 3.976562 8.097656 3.980469 L 7.929688 3.980469 L 7.929688 3.710938 Z M 7.308594 3.710938 "/>
<path style=" stroke:none;fill-rule:evenodd;fill:rgb(24.705882%,24.705882%,24.705882%);fill-opacity:1;" d="M 5.003906 9.992188 C 4.992188 9.992188 4.984375 9.992188 4.976562 9.992188 C 4.679688 10.003906 4.355469 10.25 4.066406 10.261719 C 4.0625 10.261719 4.054688 10.261719 4.050781 10.261719 L 4.050781 10.910156 C 4.054688 10.910156 4.0625 10.910156 4.066406 10.910156 C 4.355469 10.894531 4.679688 10.652344 4.976562 10.640625 C 5.261719 10.628906 5.519531 10.851562 5.808594 10.859375 C 6.105469 10.859375 6.402344 10.652344 6.71875 10.660156 C 7.03125 10.664062 7.347656 10.890625 7.664062 10.890625 C 7.976562 10.882812 8.273438 10.640625 8.597656 10.640625 C 8.753906 10.644531 8.789062 10.648438 8.871094 10.683594 C 9.007812 10.71875 9.148438 10.773438 9.285156 10.816406 C 9.40625 10.859375 9.527344 10.890625 9.648438 10.890625 C 9.960938 10.882812 10.253906 10.640625 10.582031 10.640625 C 10.765625 10.640625 10.960938 10.714844 11.15625 10.78125 L 11.15625 10.132812 C 10.960938 10.066406 10.765625 9.992188 10.582031 9.992188 C 10.253906 9.996094 9.960938 10.234375 9.648438 10.242188 C 9.546875 10.242188 9.445312 10.21875 9.34375 10.1875 C 9.332031 10.183594 9.320312 10.179688 9.308594 10.175781 C 9.160156 10.128906 8.945312 10.175781 8.796875 10.144531 C 8.707031 10.121094 8.683594 9.992188 8.597656 9.992188 C 8.273438 9.996094 7.976562 10.234375 7.664062 10.242188 C 7.347656 10.242188 7.03125 10.019531 6.71875 10.011719 C 6.402344 10.003906 6.105469 10.214844 5.808594 10.210938 C 5.527344 10.203125 5.277344 9.996094 5.003906 9.992188 Z M 5.003906 9.992188 "/>
</g>

</g>%n%n</svg>