<svg width="40" height="40" viewBox="0 0 40 40" fill="none" xmlns="http://www.w3.org/2000/svg" >

<g transform="translate(0.000000, 0.000000) scale(2.500000 2.500000) "> 

<path opacity="0.812" d="M5.57797 1.58519C5.36609 1.58841 5.16402 1.67501 5.01556 1.82622C4.29204 2.56121 3.82045 3.56986 3.82045 4.69349C3.82045 5.86738 4.30862 6.95742 5.11934 7.7181C5.2719 7.86093 5.47401 7.93886 5.68296 7.93542C5.89192 7.93198 6.09135 7.84745 6.23913 7.69969L6.66763 7.27119C6.70428 7.23483 6.73735 7.19503 6.76639 7.15234V13.3489C6.74892 14.0056 7.34301 14.6159 8 14.6159C8.65699 14.6159 9.25108 14.0056 9.23361 13.3489V7.15234C9.26264 7.19503 9.29571 7.23483 9.33237 7.27118L9.76087 7.69968C9.90865 7.84745 10.1081 7.93198 10.317 7.93542C10.526 7.93885 10.7281 7.86093 10.8807 7.7181C11.6914 6.95742 12.1795 5.86738 12.1795 4.69349C12.1795 3.56986 11.708 2.56121 10.9844 1.82622C10.9099 1.75046 10.8211 1.6902 10.7232 1.64891C10.6253 1.60762 10.5201 1.58612 10.4139 1.58565C10.3076 1.58519 10.2023 1.60576 10.104 1.64619C10.0057 1.68661 9.9164 1.7461 9.84121 1.8212L9.43949 2.22292C9.28981 2.37275 9.20518 2.57552 9.20393 2.7873C9.20267 2.99908 9.2849 3.20283 9.4328 3.35443C9.77841 3.70851 9.98014 4.16196 9.98014 4.69349C9.98014 5.25232 9.73905 5.75532 9.35413 6.1129C9.30868 6.15497 9.26824 6.20215 9.23361 6.2535V6.13466C9.46369 5.95799 9.63533 5.70748 9.63533 5.36302V4.26499C9.63533 3.63771 9.10095 3.24563 8.58919 3.24563H8.18747H8.1339L8.4218 3.29919C8.25063 3.23386 8.06377 3.2074 7.88116 3.22219L7.99665 3.22052C7.94532 3.21731 7.89399 3.21731 7.84266 3.22052C7.78895 3.22356 7.73568 3.23197 7.68365 3.24563H7.41081C6.89905 3.24563 6.36467 3.63771 6.36467 4.26499V5.36302C6.36467 5.70748 6.53631 5.95799 6.76639 6.13466V6.2535C6.73176 6.20215 6.69132 6.15497 6.64587 6.1129C6.26095 5.75532 6.01986 5.25232 6.01986 4.69349C6.01986 4.16196 6.22159 3.70851 6.5672 3.35443C6.7151 3.20283 6.79732 2.99908 6.79607 2.7873C6.79482 2.57552 6.71019 2.37275 6.56051 2.22292L6.15879 1.8212C6.08267 1.74503 5.99205 1.68489 5.89229 1.64435C5.79253 1.60382 5.68564 1.5837 5.57797 1.58519V1.58519Z" fill="#EBE7E4"/>

</g>


<g transform="translate(9.000000, 9.000000) scale(1.833333 1.833333) "> 

<path d="M315.25 122.813H264.75C259.503 122.813 255.25 127.066 255.25 132.313V178.813C255.25 184.06 259.503 188.313 264.75 188.313H315.25C320.497 188.313 324.75 184.06 324.75 178.813V132.313C324.75 127.066 320.497 122.813 315.25 122.813Z" fill="#3f3f3f"/>
<path d="M289.593 141V517" stroke="#3f3f3f" stroke-width="36.25" stroke-linecap="round"/>
<path d="M187.845 52.7671C162.847 78.1611 147.407 112.8 147.407 150.924C147.407 191.074 164.503 227.389 191.884 253.08L209.25 235.714C186.43 214.514 172.186 184.419 172.186 150.924C172.186 119.478 184.709 90.9681 205.127 70.0498L187.845 52.7671ZM392.155 52.7671L374.873 70.0498C395.291 90.9681 407.814 119.478 407.814 150.924C407.814 184.419 393.57 214.514 370.75 235.714L388.116 253.08C415.497 227.389 432.593 191.074 432.593 150.924C432.593 112.8 417.153 78.1611 392.155 52.7671Z" fill="#3f3f3f"/>

</g>

</svg>