<svg width="300" height="40" viewBox="0 0 300 40" fill="none" xmlns="http://www.w3.org/2000/svg" xmlns:xlink="http://www.w3.org/1999/xlink" version="1.1">

<g transform="translate(130.000000, 0.000000) scale(2.500000 2.500000) "> 

<path opacity="0.809" d="M6.06067 1.26898C5.85904 1.26914 5.66232 1.33119 5.49709 1.44673C5.33185 1.56228 5.20606 1.72576 5.13671 1.91508L3.26203 7.0303C3.20041 7.19838 3.18578 7.38007 3.2197 7.55584C3.25361 7.73161 3.33479 7.89481 3.45452 8.0279L4.20439 8.85812C4.2968 8.96043 4.40965 9.04219 4.53565 9.09813C4.66165 9.15407 4.79799 9.18293 4.93585 9.18284H6.12092V13.903C6.12109 14.164 6.22484 14.4143 6.40938 14.5988C6.59392 14.7833 6.84416 14.8871 7.10514 14.8872H8.06926C8.33024 14.8871 8.58048 14.7833 8.76502 14.5988C8.94956 14.4143 9.05331 14.164 9.05347 13.903V9.18284H10.1314C10.3335 9.1829 10.5308 9.12077 10.6964 9.00488C10.8619 8.889 10.9879 8.72498 11.057 8.53507L12.9585 3.31273C13.0214 3.13962 13.0346 2.95234 12.9964 2.77215C12.9582 2.59196 12.8703 2.42609 12.7426 2.29337L12.0463 1.57027C11.9543 1.4749 11.8441 1.39906 11.7221 1.34729C11.6002 1.29552 11.4691 1.26889 11.3366 1.26898H6.06067Z" fill="#EBE7E4"/>

</g>%n%n
<g transform="translate(139.000000, 9.000000) scale(1.833333 1.833333) "> 

<g id="surface1">
<path style=" stroke:none;fill-rule:nonzero;fill:rgb(91.37255%,29.411766%,29.411766%);fill-opacity:0.592157;" d="M 5.710938 11.171875 L 5.730469 5.898438 Z M 5.710938 11.171875 "/>
<path style="fill:none;stroke-width:37.584;stroke-linecap:butt;stroke-linejoin:round;stroke:rgb(24.705882%,24.705882%,24.705882%);stroke-opacity:1;stroke-miterlimit:4;" d="M 276.028646 539.973958 L 276.972656 285.091146 " transform="matrix(0.0206897,0,0,0.0206897,0,0)"/>
<path style=" stroke:none;fill-rule:nonzero;fill:rgb(24.705882%,24.705882%,24.705882%);fill-opacity:1;" d="M 4.316406 0.910156 L 2.675781 5.3125 L 3.226562 5.988281 C 3.34375 6.089844 3.308594 6.074219 3.34375 6.089844 L 7.761719 6.089844 C 7.835938 6.089844 7.917969 6.03125 7.941406 5.957031 L 9.425781 1.847656 C 9.441406 1.804688 9.433594 1.765625 9.410156 1.742188 L 9.417969 1.742188 L 8.492188 0.910156 Z M 5.144531 2.128906 L 6.015625 2.128906 L 5.703125 3 L 4.832031 3 Z M 6.523438 2.128906 L 7.390625 2.128906 L 7.078125 3 L 6.207031 3 Z M 7.898438 2.128906 L 8.765625 2.128906 L 8.453125 3 L 7.585938 3 Z M 4.675781 3.433594 L 5.542969 3.433594 L 5.230469 4.300781 L 4.363281 4.300781 Z M 6.050781 3.433594 L 6.921875 3.433594 L 6.605469 4.300781 L 5.738281 4.300781 Z M 7.425781 3.433594 L 8.296875 3.433594 L 7.980469 4.300781 L 7.113281 4.300781 Z M 4.210938 4.714844 L 5.082031 4.714844 L 4.765625 5.585938 L 3.898438 5.585938 Z M 5.589844 4.714844 L 6.457031 4.714844 L 6.144531 5.585938 L 5.273438 5.585938 Z M 6.964844 4.714844 L 7.832031 4.714844 L 7.519531 5.585938 L 6.648438 5.585938 Z M 6.964844 4.714844 "/>
</g>

</g>%n%n</svg>