<svg width="40" height="40" viewBox="0 0 40 40" fill="none" xmlns="http://www.w3.org/2000/svg" >

<g transform="translate(0.000000, 0.000000) scale(2.500000 2.500000) "> 

<path opacity="0.854" d="M12.849 1.49883C12.2777 1.50202 11.7537 1.65969 11.2689 1.79343C10.8572 1.90701 10.7254 1.95921 10.5191 2.03446C10.1228 1.89594 9.69984 1.90388 9.15321 2.06124C8.23464 2.32568 7.76192 2.81216 7.49277 3.13249C7.39553 3.14715 7.38221 3.13312 7.25174 3.15927C6.94594 3.22056 6.64761 3.23074 6.20727 3.56099C5.9229 3.77427 5.81303 3.84893 5.5913 4.06983C5.60861 4.06171 5.6181 4.05896 5.69843 4.04305C5.72048 4.03868 5.79715 4.04716 5.83233 4.04305C5.35089 4.05669 4.87501 4.45057 4.7343 4.76615C4.68435 4.87818 4.66928 4.96965 4.65396 5.06074C4.65374 5.06202 4.62739 5.05946 4.62718 5.06074C4.51738 5.13831 4.42495 5.23791 4.35578 5.35319C4.28661 5.46846 4.24223 5.59689 4.22546 5.73027L3.23455 13.2826C3.20766 13.4702 3.23647 13.6616 3.31741 13.833C3.39835 14.0044 3.52785 14.1483 3.68983 14.2467C3.68983 14.2467 4.00212 14.3884 4.33258 14.461C4.66305 14.5335 5.12535 14.5966 5.80555 14.5949C6.4837 14.5932 6.93151 14.5387 7.25174 14.461C7.41185 14.4221 7.54369 14.3775 7.65346 14.3271C7.76322 14.2766 7.92127 14.1664 7.92127 14.1664C8.04624 14.0639 8.14358 13.9319 8.20439 13.7822C8.26521 13.6325 8.28757 13.4699 8.26943 13.3094L7.49277 5.94452C7.63382 5.90721 7.76333 5.86645 7.86771 5.81062C7.89591 5.79553 7.92082 5.77391 7.94805 5.75705C8.27885 5.81291 8.80243 5.9318 9.63527 5.70349C9.94791 5.61779 10.1894 5.50076 10.4119 5.30177C12.1949 5.24857 13.1804 5.08317 13.7864 4.52512C13.9212 4.40098 13.8772 4.21532 13.9471 4.04305C14.0789 3.98434 14.2261 3.95958 14.3488 3.8288C14.5456 3.61883 14.649 3.30313 14.6701 3.02537C14.6707 3.00752 14.6707 2.98965 14.6701 2.9718C14.6665 2.62226 14.5307 2.2044 14.2684 1.95412C14.0061 1.70383 13.6905 1.60349 13.4382 1.5524C13.2379 1.51183 13.0394 1.49777 12.849 1.49883Z" fill="#EBE7E4"/>

</g>


<g transform="translate(9.000000, 9.000000) scale(1.833333 1.833333) "> 

<path d="M123.943 519.465L165.723 199.974L220.405 199.359L254.992 519.503C254.992 519.503 243.669 527.95 190.914 528.086C138.158 528.222 123.943 519.465 123.943 519.465Z" fill="#3f3f3f"/>
<path d="M207.89 149.813C216.99 140.747 217.402 141.065 229.69 131.849C241.978 122.633 280.989 118.71 280.989 118.71C280.989 118.71 302.668 85.2906 343.219 73.6168C383.77 61.9431 386.518 77.9613 386.518 77.9613C386.518 77.9613 528.981 19.4482 529.596 77.8168C528.017 98.5192 506.754 93.6434 506.754 93.6434C506.754 93.6434 546.77 138.08 364.358 140.461C364.358 140.461 375.274 149.341 343.137 158.15C310.999 166.96 268.866 158.931 268.866 158.931C268.866 158.931 267.478 171.803 216.042 175.294C203.699 180.546 180.065 180.465 177.27 175.863C177.27 175.863 176.877 160.039 193.65 159.564C193.924 160.589 203.241 154.445 207.89 149.813Z" fill="#3f3f3f"/>

</g>

</svg>