<svg width="300" height="40" viewBox="0 0 300 40" fill="none" xmlns="http://www.w3.org/2000/svg" xmlns:xlink="http://www.w3.org/1999/xlink" version="1.1">

<g transform="translate(130.000000, 0.000000) scale(2.500000 2.500000) "> 

<path opacity="0.804" d="M8.30324 1.56549C7.7012 1.56549 7.42774 1.76203 7.05457 2.00069C6.86798 2.12002 6.68606 2.25757 6.51392 2.45429C6.34178 2.65102 6.13898 2.93126 6.13898 3.37657C6.13898 3.57841 6.27963 3.66447 6.35993 3.82181C6.23524 3.88318 6.11686 3.89144 5.99001 4.00258C5.71072 4.2473 5.52533 4.64529 5.49288 5.01358C5.46044 5.38187 5.53217 5.72971 5.66027 6.10659C5.68609 6.18231 5.75597 6.21393 5.7925 6.28066C5.22771 6.55119 4.72962 7.22532 4.72962 7.9093C4.72962 7.96252 4.70186 8.13322 4.68108 8.38969C4.66287 8.61443 4.70265 8.96479 4.85516 9.31531C4.72806 9.34093 4.56463 9.35304 4.44339 9.38227C3.9317 9.50563 3.45962 9.64258 3.02566 10.0066C2.59171 10.3706 2.33544 11.1446 2.50845 11.739C2.65075 12.2279 2.74807 12.9254 3.36712 13.5149C3.98618 14.1045 4.89039 14.3345 6.26117 14.377C7.63743 14.4196 9.26038 14.2532 10.6215 13.9301C11.302 13.7685 11.9126 13.5745 12.4292 13.299C12.6875 13.1613 12.9255 13.0047 13.1406 12.7751C13.3557 12.5455 13.5597 12.2013 13.5725 11.7892C13.6023 10.8268 12.9861 10.1082 12.1865 9.57811C11.7752 9.30544 11.2852 9.08785 10.7387 8.93703C10.7866 8.881 10.8554 8.84032 10.8993 8.78136C11.1295 8.47283 11.3362 8.11743 11.3362 7.61805C11.3362 7.11424 11.1453 6.55633 10.7437 6.22543C10.6169 6.12095 10.4933 6.15569 10.3621 6.09822C10.4038 5.9736 10.5211 5.89404 10.5211 5.7668C10.5211 4.99083 10.13 4.28628 9.59209 3.95237C9.70952 3.71541 9.86827 3.49242 9.86827 3.22593C9.86827 2.38706 9.23452 1.56549 8.30324 1.56549V1.56549Z" fill="#EBE7E4"/>

</g>%n%n
<g transform="translate(139.000000, 9.000000) scale(1.833333 1.833333) "> 

<g id="surface1">
<path style=" stroke:none;fill-rule:nonzero;fill:rgb(24.705882%,24.705882%,24.705882%);fill-opacity:1;" d="M 8.09375 5.6875 C 8.09375 6.320312 6.804688 7.34375 5.707031 7.34375 C 3.441406 7.34375 3.957031 6.574219 3.957031 5.941406 C 3.957031 5.308594 4.609375 5.050781 5.707031 5.050781 C 6.804688 5.050781 8.09375 4.539062 8.09375 5.6875 Z M 8.09375 5.6875 "/>
<path style=" stroke:none;fill-rule:nonzero;fill:rgb(24.705882%,24.705882%,24.705882%);fill-opacity:1;" d="M 10.050781 9.3125 C 10.023438 10.21875 6.726562 10.847656 4.5 10.78125 C 2.273438 10.710938 2.257812 10.015625 1.980469 9.0625 C 1.65625 7.941406 3.871094 7.933594 6.066406 7.550781 C 8.429688 7.140625 10.078125 8.410156 10.050781 9.3125 Z M 10.050781 9.3125 "/>
<path style=" stroke:none;fill-rule:nonzero;fill:rgb(24.705882%,24.705882%,24.705882%);fill-opacity:1;" d="M 7.382812 4.070312 C 7.382812 4.488281 6.660156 4.53125 6.054688 4.53125 C 5.449219 4.53125 4.863281 4.5 4.726562 4.101562 C 4.253906 2.707031 5.449219 3.007812 6.054688 3.007812 C 6.660156 3.007812 7.382812 3.007812 7.382812 4.070312 Z M 7.382812 4.070312 "/>
<path style=" stroke:none;fill-rule:nonzero;fill:rgb(24.705882%,24.705882%,24.705882%);fill-opacity:1;" d="M 6.808594 1.84375 C 6.808594 2.191406 6.5625 2.476562 6.261719 2.476562 C 5.960938 2.476562 5.191406 2.324219 5.191406 1.976562 C 5.191406 1.628906 5.960938 1.214844 6.261719 1.214844 C 6.5625 1.214844 6.808594 1.496094 6.808594 1.84375 Z M 6.808594 1.84375 "/>
</g>

</g>%n%n</svg>