<svg width="300" height="40" viewBox="0 0 300 40" fill="none" xmlns="http://www.w3.org/2000/svg" xmlns:xlink="http://www.w3.org/1999/xlink">

<g transform="translate(130.000000, 0.000000) scale(2.500000 2.500000) "> 

<path opacity="0.812" d="M5.11022 1.04689C4.944 1.05644 4.78774 1.12923 4.67348 1.25033C4.55923 1.37144 4.49565 1.53167 4.49578 1.69816V1.75843C4.3829 2.5278 4.18799 2.83811 3.97175 3.14301C3.76654 3.43235 3.38407 3.84392 3.3188 4.52926C3.27275 5.01279 3.42941 5.39612 3.62351 5.72633C3.49162 5.77784 3.38009 5.87089 3.30579 5.99141C3.23148 6.11193 3.19844 6.25337 3.21165 6.39434C3.43279 8.72055 3.27121 10.9378 2.68762 13.6973C2.66751 13.7923 2.66886 13.8905 2.69158 13.9849C2.7143 14.0793 2.75782 14.1674 2.81895 14.2428C2.88008 14.3182 2.95729 14.379 3.04493 14.4208C3.13256 14.4625 3.22842 14.4842 3.3255 14.4842H4.02197H7.15611H7.26326H7.87937H12.4332C12.6059 14.484 12.7715 14.4154 12.8936 14.2932C13.0157 14.1711 13.0844 14.0056 13.0845 13.8329V11.1541C13.0844 10.9815 13.0157 10.8159 12.8936 10.6938C12.7715 10.5717 12.6059 10.503 12.4332 10.5029H10.096L14.1225 5.42497C14.1986 5.32895 14.246 5.21346 14.2594 5.09173C14.2728 4.97 14.2516 4.84696 14.1983 4.7367C14.145 4.62644 14.0618 4.53342 13.958 4.46831C13.8543 4.4032 13.7344 4.36862 13.6119 4.36854H12.3813L13.6605 2.24898C13.7199 2.15016 13.752 2.03734 13.7536 1.92203C13.7552 1.80672 13.7262 1.69306 13.6695 1.59263C13.6128 1.4922 13.5305 1.40861 13.431 1.35038C13.3315 1.29216 13.2183 1.26138 13.1029 1.26119H11.2278C11.107 1.26107 10.9886 1.29451 10.8857 1.35777C10.7829 1.42104 10.6996 1.51164 10.6452 1.61947L8.44861 5.98583C8.39872 6.08522 8.37509 6.19571 8.37996 6.30681C8.38483 6.4179 8.41804 6.5259 8.47643 6.62054C8.53482 6.71518 8.61646 6.7933 8.71357 6.84749C8.81068 6.90167 8.92003 6.9301 9.03124 6.93009H10.24L8.81359 10.0525C8.74912 10.1938 8.73724 10.3536 8.7801 10.5029H8.06019C7.92228 9.09345 7.86484 7.74476 7.99322 6.39434C8.00212 6.30133 7.99093 6.20749 7.96039 6.11918C7.92985 6.03087 7.88068 5.95016 7.81621 5.88252C7.75175 5.81488 7.67349 5.76189 7.58676 5.72714C7.50002 5.69239 7.40682 5.6767 7.31349 5.68113C7.61686 5.12605 7.78685 4.52861 7.66005 3.92152C7.44993 2.91552 6.72135 2.01133 5.62755 1.24445L5.53882 1.17748C5.41587 1.08467 5.26402 1.03841 5.11022 1.04689V1.04689ZM5.67443 4.81388C5.66488 4.83817 5.6428 5.11669 5.56728 5.36972C5.55017 5.42703 5.53883 5.46111 5.52375 5.51036C5.51113 5.49016 5.50941 5.49173 5.49696 5.47017C5.41575 5.32957 5.40286 5.18496 5.39483 5.26927C5.40121 5.20232 5.37325 5.28611 5.41157 5.22239C5.45934 5.14297 5.53687 5.02152 5.65099 4.86076C5.65855 4.85011 5.66671 4.82495 5.67443 4.81388V4.81388Z" fill="#EBE7E4"/>

</g>%n%n
<g transform="translate(139.000000, 9.000000) scale(1.833333 1.833333) "> 

<defs>
<filter id="filter-remove-color" x="0%" y="0%" width="100%" height="100%">
<feColorMatrix color-interpolation-filters="sRGB" values="0 0 0 0 1 0 0 0 0 1 0 0 0 0 1 0 0 0 1 0" />
</filter>
<mask id="mask-0">
<g filter="url(#filter-remove-color)">
<rect x="-1.2" y="-1.2" width="14.4" height="14.4" fill="rgb(0%, 0%, 0%)" fill-opacity="0.1"/>
</g>
</mask>
<clip100Path id="clip100-0">
<path clip100-rule="nonzero" d="M 1 0 L 6 0 L 6 6 L 1 6 Z M 1 0 "/>
</clip100Path>
<clip100Path id="clip100-1">
<rect x="0" y="0" width="12" height="12"/>
</clip100Path>
<g id="source-9" clip100-path="url(#clip100-1)">
<path fill-rule="evenodd" fill="rgb(24.705882%, 24.705882%, 24.705882%)" fill-opacity="1" d="M 3.5 0.667969 C 3.277344 2.25 2.570312 2.261719 2.492188 3.078125 C 2.414062 3.898438 3.246094 4.40625 3.386719 4.441406 C 3.386719 4.441406 2.992188 3.988281 3.03125 3.597656 C 3.054688 3.332031 3.164062 3.234375 3.375 2.941406 C 3.523438 2.730469 3.691406 2.441406 3.816406 2.011719 C 4.257812 2.402344 4.449219 2.625 4.539062 3.09375 C 4.625 3.5625 4.261719 4.402344 4.261719 4.402344 C 5.582031 3.40625 5.242188 1.886719 3.5 0.667969 Z M 3.5 0.667969 "/>
<g clip100-path="url(#clip100-0)">
<path fill="none" stroke-width="6.67402" stroke-linecap="square" stroke-linejoin="miter" stroke="rgb(24.705882%, 24.705882%, 24.705882%)" stroke-opacity="1" stroke-miterlimit="4" d="M 169.166667 32.285156 C 158.404948 108.75 124.231771 109.316406 120.455729 148.776042 C 116.679688 188.424479 156.894531 212.96875 163.691406 214.667969 C 163.691406 214.667969 144.622396 192.766927 146.510417 173.886719 C 147.643229 161.048177 152.929688 156.328125 163.125 142.167969 C 170.299479 131.972656 178.417969 118.001302 184.459635 97.233073 C 205.794271 116.113281 215.045573 126.875 219.388021 149.53125 C 223.541667 172.1875 205.983073 212.779948 205.983073 212.779948 C 269.798177 164.635417 253.372396 91.191406 169.166667 32.285156 Z M 169.166667 32.285156 " transform="matrix(0.0206897, 0, 0, 0.0206897, 0, 0)"/>
</g>
</g>
<mask id="mask-1">
<g filter="url(#filter-remove-color)">
<rect x="-1.2" y="-1.2" width="14.4" height="14.4" fill="rgb(0%, 0%, 0%)" fill-opacity="0.2"/>
</g>
</mask>
<clip100Path id="clip100-2">
<rect x="0" y="0" width="12" height="12"/>
</clip100Path>
<g id="source-13" clip100-path="url(#clip100-2)">
<path fill-rule="evenodd" fill="rgb(24.705882%, 24.705882%, 24.705882%)" fill-opacity="1" stroke-width="6.67402" stroke-linecap="square" stroke-linejoin="miter" stroke="rgb(24.705882%, 24.705882%, 24.705882%)" stroke-opacity="1" stroke-miterlimit="4" d="M 163.691406 214.667969 C 163.691406 214.667969 144.622396 192.766927 146.510417 173.886719 C 147.643229 161.048177 152.929688 156.328125 163.125 142.167969 C 170.299479 131.972656 178.417969 118.001302 184.459635 97.233073 C 205.794271 116.113281 215.045573 126.875 219.388021 149.53125 C 223.541667 172.1875 205.983073 212.779948 205.983073 212.779948 C 190.690104 223.541667 180.494792 219.388021 163.691406 214.667969 Z M 163.691406 214.667969 " transform="matrix(0.0206897, 0, 0, 0.0206897, 0, 0)"/>
</g>
</defs>
<path fill-rule="nonzero" fill="rgb(24.705882%, 24.705882%, 24.705882%)" fill-opacity="1" stroke-width="9.4229" stroke-linecap="round" stroke-linejoin="round" stroke="rgb(24.705882%, 24.705882%, 24.705882%)" stroke-opacity="1" stroke-miterlimit="4" d="M 111.770833 221.842448 C 121.39974 323.040365 114.22526 420.273438 89.114583 539.029948 L 281.503906 539.029948 C 256.393229 420.273438 249.21875 323.040365 258.847656 221.842448 C 227.317708 235.625 209.38151 233.548177 185.214844 235.436198 C 161.236979 233.548177 143.111979 235.625 111.770833 221.842448 Z M 111.770833 221.842448 " transform="matrix(0.0206897, 0, 0, 0.0206897, 0, 0)"/>
<path fill-rule="nonzero" fill="rgb(24.705882%, 24.705882%, 24.705882%)" fill-opacity="1" stroke-width="7.88587" stroke-linecap="round" stroke-linejoin="round" stroke="rgb(24.705882%, 24.705882%, 24.705882%)" stroke-opacity="1" stroke-miterlimit="4" d="M 255.826823 425.371094 L 475.026042 425.371094 L 475.026042 539.029948 L 255.826823 539.029948 Z M 255.826823 425.371094 " transform="matrix(0.0206897, 0, 0, 0.0206897, 0, 0)"/>
<path fill="none" stroke-width="6.67402" stroke-linecap="square" stroke-linejoin="miter" stroke="rgb(24.705882%, 24.705882%, 24.705882%)" stroke-opacity="1" stroke-miterlimit="4" d="M 169.166667 32.285156 C 158.404948 108.75 124.231771 109.316406 120.455729 148.776042 C 116.679688 188.424479 156.894531 212.96875 163.691406 214.667969 C 163.691406 214.667969 144.622396 192.766927 146.510417 173.886719 C 147.643229 161.048177 152.929688 156.328125 163.125 142.167969 C 170.299479 131.972656 178.417969 118.001302 184.459635 97.233073 C 205.794271 116.113281 215.045573 126.875 219.388021 149.53125 C 223.541667 172.1875 205.983073 212.779948 205.983073 212.779948 C 269.798177 164.635417 253.372396 91.191406 169.166667 32.285156 Z M 169.166667 32.285156 " transform="matrix(0.0206897, 0, 0, 0.0206897, 0, 0)"/>
<g mask="url(#mask-0)">
<use xlink:href="#source-9"/>
</g>
<g mask="url(#mask-1)">
<use xlink:href="#source-13"/>
</g>
<path fill-rule="nonzero" fill="rgb(24.705882%, 24.705882%, 24.705882%)" fill-opacity="1" d="M 8.761719 0.714844 L 6.847656 4.546875 L 8.78125 4.546875 L 7.160156 8.082031 L 10.855469 3.429688 L 8.765625 3.429688 L 10.414062 0.714844 Z M 8.761719 0.714844 "/>

</g>%n%n</svg>