<svg width="300" height="40" viewBox="0 0 300 40" fill="none" xmlns="http://www.w3.org/2000/svg" xmlns:xlink="http://www.w3.org/1999/xlink">

<g transform="translate(130.000000, 0.000000) scale(2.500000 2.500000) "> 

<path opacity="0.824" d="M8.00001 1.04523C6.80918 1.04523 5.85431 1.62173 5.193 2.15832C4.86234 2.42662 4.59984 2.69195 4.41132 2.9015C4.23801 3.09415 4.18178 3.16214 4.0866 3.30155C3.80939 3.67587 3.80939 4.34328 4.0866 4.71761C4.18178 4.85702 4.23801 4.925 4.41132 5.11765C4.59984 5.32721 4.86234 5.59254 5.193 5.86083C5.43511 6.05728 5.75698 6.23969 6.0751 6.41654C5.98801 6.51872 5.92559 6.63956 5.89266 6.76972L4.20544 13.4918C4.17318 13.6208 4.17073 13.7555 4.19829 13.8856C4.22584 14.0157 4.28268 14.1379 4.36447 14.2427C4.44627 14.3476 4.55088 14.4324 4.67037 14.4909C4.78985 14.5493 4.92107 14.5797 5.05407 14.5798H10.9459C11.0789 14.5797 11.2102 14.5493 11.3296 14.4909C11.4491 14.4324 11.5537 14.3476 11.6355 14.2427C11.7173 14.1379 11.7742 14.0157 11.8017 13.8856C11.8293 13.7555 11.8268 13.6208 11.7946 13.4918L10.1074 6.76972C10.0744 6.63956 10.012 6.51872 9.92491 6.41654C10.243 6.23969 10.5649 6.05728 10.807 5.86083C11.1377 5.59254 11.4002 5.32721 11.5887 5.11765C11.762 4.925 11.8182 4.85701 11.9134 4.71761C12.1906 4.34328 12.1906 3.67587 11.9134 3.30155C11.8182 3.16215 11.762 3.09415 11.5887 2.9015C11.4002 2.69195 11.1377 2.42662 10.807 2.15832C10.1457 1.62173 9.19083 1.04523 8.00001 1.04523Z" fill="#EBE7E4"/>

</g>%n%n
<g transform="translate(139.000000, 9.000000) scale(1.833333 1.833333) "> 

<path fill-rule="nonzero" fill="rgb(24.705882%, 24.705882%, 24.705882%)" fill-opacity="1" d="M 8.820312 2.394531 C 8.769531 2.3125 7.566406 0.722656 6 0.722656 C 4.433594 0.722656 3.230469 2.3125 3.179688 2.394531 C 3.101562 2.496094 3.101562 2.601562 3.179688 2.707031 C 3.230469 2.785156 4.433594 4.378906 6 4.378906 C 7.566406 4.378906 8.769531 2.785156 8.820312 2.707031 C 8.898438 2.601562 8.898438 2.496094 8.820312 2.394531 Z M 6 3.855469 C 5.269531 3.855469 4.695312 3.28125 4.695312 2.550781 C 4.695312 1.816406 5.269531 1.242188 6 1.242188 C 6.730469 1.242188 7.304688 1.816406 7.304688 2.550781 C 7.304688 3.28125 6.730469 3.855469 6 3.855469 Z M 6 3.855469 "/>
<path fill-rule="nonzero" fill="rgb(24.705882%, 24.705882%, 24.705882%)" fill-opacity="1" d="M 6 3.203125 C 6.359375 3.203125 6.652344 2.910156 6.652344 2.550781 C 6.652344 2.1875 6.359375 1.894531 6 1.894531 C 5.640625 1.894531 5.347656 2.1875 5.347656 2.550781 C 5.347656 2.910156 5.640625 3.203125 6 3.203125 Z M 6 3.203125 "/>
<path fill-rule="nonzero" fill="rgb(24.705882%, 24.705882%, 24.705882%)" fill-opacity="1" d="M 7.105469 5.144531 L 4.894531 5.144531 L 3.417969 11.042969 L 8.582031 11.042969 Z M 5.292969 6.621094 L 6.734375 6.621094 L 6.914062 7.355469 L 5.109375 7.355469 Z M 4.921875 8.09375 L 7.09375 8.09375 L 7.273438 8.832031 L 4.734375 8.832031 Z M 4.550781 9.570312 L 7.457031 9.570312 L 7.636719 10.304688 L 4.363281 10.304688 Z M 4.550781 9.570312 "/>

</g>%n%n</svg>