<svg width="300" height="40" viewBox="0 0 300 40" fill="none" xmlns="http://www.w3.org/2000/svg" xmlns:xlink="http://www.w3.org/1999/xlink">

<g transform="translate(130.000000, 0.000000) scale(2.500000 2.500000) "> 

<path opacity="0.8" d="M3.76662 2C3.5633 2.00002 3.36832 2.08024 3.22456 2.22301C3.0808 2.36578 3.00002 2.55941 3 2.76132V13.2387C3.00002 13.4406 3.0808 13.6342 3.22456 13.777C3.36832 13.9198 3.5633 14 3.76662 14H12.2334C12.4367 14 12.6317 13.9198 12.7754 13.777C12.9192 13.6342 13 13.4406 13 13.2387V2.76132C13 2.55941 12.9192 2.36578 12.7754 2.22301C12.6317 2.08024 12.4367 2.00002 12.2334 2H3.76662V2Z" fill="#EBE7E4"/>

</g>%n%n
<g transform="translate(139.000000, 9.000000) scale(1.833333 1.833333) "> 

<path fill-rule="nonzero" fill="rgb(24.705882%, 24.705882%, 24.705882%)" fill-opacity="1" d="M 1.96875 0.976562 L 1.96875 11.023438 L 10.03125 11.023438 L 10.03125 0.976562 Z M 2.71875 1.484375 L 9.242188 1.484375 C 9.394531 1.484375 9.523438 1.613281 9.523438 1.765625 L 9.523438 10.273438 C 9.523438 10.425781 9.394531 10.554688 9.242188 10.554688 L 2.71875 10.554688 C 2.566406 10.554688 2.4375 10.425781 2.4375 10.273438 L 2.4375 1.765625 C 2.4375 1.613281 2.566406 1.484375 2.71875 1.484375 Z M 2.976562 2.023438 L 2.976562 10.015625 L 8.984375 10.015625 L 8.984375 6.964844 L 8.058594 6.964844 C 8.050781 6.964844 8.046875 6.960938 8.046875 6.957031 L 8.046875 5.101562 C 8.046875 5.097656 8.050781 5.09375 8.058594 5.09375 L 8.984375 5.09375 L 8.984375 2.023438 Z M 5.6875 2.625 L 7.226562 2.625 L 5.691406 5.160156 L 7.640625 5.160156 L 4.191406 9.496094 L 5.707031 6.199219 L 3.902344 6.199219 Z M 5.6875 2.625 "/>

</g>%n%n</svg>