<svg width="300" height="40" viewBox="0 0 300 40" fill="none" xmlns="http://www.w3.org/2000/svg" xmlns:xlink="http://www.w3.org/1999/xlink">

<g transform="translate(130.000000, 0.000000) scale(2.500000 2.500000) "> 

<path opacity="0.801" d="M3.72421 2.94476C3.33043 2.94483 3.01123 3.26404 3.01116 3.65781V4.11142V12.2914C3.01123 12.6852 3.33043 13.0044 3.72421 13.0045H12.3578C12.7516 13.0044 13.0708 12.6852 13.0709 12.2914V3.65781C13.0708 3.26404 12.7516 2.94483 12.3578 2.94476H3.72421Z" fill="#EBE7E4"/>

</g>%n%n
<g transform="translate(139.000000, 9.000000) scale(1.833333 1.833333) "> 

<path fill-rule="evenodd" fill="rgb(24.705882%, 24.705882%, 24.705882%)" fill-opacity="1" d="M 10 2 L 2 2 L 2 10 L 10 10 Z M 11 1 L 11 11 L 1 11 L 1 1 Z M 11 1 "/>
<path fill-rule="evenodd" fill="rgb(24.705882%, 24.705882%, 24.705882%)" fill-opacity="1" d="M 2 3.5 C 2 3.222656 2.222656 3 2.5 3 L 3.75 3 C 4.441406 3 5 3.558594 5 4.25 C 5 4.570312 4.882812 4.859375 4.683594 5.078125 C 4.882812 5.332031 5 5.652344 5 6 C 5 6.347656 4.882812 6.667969 4.683594 6.921875 C 4.882812 7.140625 5 7.429688 5 7.75 C 5 8.441406 4.441406 9 3.75 9 L 2.5 9 C 2.222656 9 2 8.777344 2 8.5 C 2 8.222656 2.222656 8 2.5 8 L 3.75 8 C 3.886719 8 4 7.886719 4 7.75 C 4 7.613281 3.886719 7.5 3.75 7.5 L 3.5 7.5 C 3.222656 7.5 3 7.277344 3 7 C 3 6.722656 3.222656 6.5 3.5 6.5 C 3.777344 6.5 4 6.277344 4 6 C 4 5.722656 3.777344 5.5 3.5 5.5 C 3.222656 5.5 3 5.277344 3 5 C 3 4.722656 3.222656 4.5 3.5 4.5 L 3.75 4.5 C 3.886719 4.5 4 4.386719 4 4.25 C 4 4.113281 3.886719 4 3.75 4 L 2.5 4 C 2.222656 4 2 3.777344 2 3.5 Z M 10 3.5 C 10 3.222656 9.777344 3 9.5 3 L 8.25 3 C 7.558594 3 7 3.558594 7 4.25 C 7 4.570312 7.117188 4.859375 7.316406 5.078125 C 7.117188 5.332031 7 5.652344 7 6 C 7 6.347656 7.117188 6.667969 7.316406 6.921875 C 7.117188 7.140625 7 7.429688 7 7.75 C 7 8.441406 7.558594 9 8.25 9 L 9.5 9 C 9.777344 9 10 8.777344 10 8.5 C 10 8.222656 9.777344 8 9.5 8 L 8.25 8 C 8.113281 8 8 7.886719 8 7.75 C 8 7.613281 8.113281 7.5 8.25 7.5 L 8.5 7.5 C 8.777344 7.5 9 7.277344 9 7 C 9 6.722656 8.777344 6.5 8.5 6.5 C 8.222656 6.5 8 6.277344 8 6 C 8 5.722656 8.222656 5.5 8.5 5.5 C 8.777344 5.5 9 5.277344 9 5 C 9 4.722656 8.777344 4.5 8.5 4.5 L 8.25 4.5 C 8.113281 4.5 8 4.386719 8 4.25 C 8 4.113281 8.113281 4 8.25 4 L 9.5 4 C 9.777344 4 10 3.777344 10 3.5 Z M 6.5 3.5 C 6.5 3.222656 6.277344 3 6 3 C 5.722656 3 5.5 3.222656 5.5 3.5 L 5.5 8.5 C 5.5 8.777344 5.722656 9 6 9 C 6.277344 9 6.5 8.777344 6.5 8.5 Z M 6.5 3.5 "/>

</g>%n%n</svg>