<svg width="300" height="40" viewBox="0 0 300 40" fill="none" xmlns="http://www.w3.org/2000/svg" >

<g transform="translate(130.000000, 0.000000) scale(2.500000 2.500000) "> 

<path opacity="0.812" d="M12.4342 1.09878C12.108 1.13323 11.8088 1.35763 11.6843 1.66118L11.4433 2.22359L10.8541 2.27715C10.1336 2.32357 9.76992 3.41456 10.3185 3.88402L10.8006 4.28574L10.7738 4.33931C10.0291 3.6393 9.08374 3.09309 8.01531 2.89312C7.3781 2.77524 7.09298 3.01971 6.80825 3.39597C6.6173 3.40609 6.73076 3.46698 6.48878 3.21449C6.2639 2.98707 5.9142 2.8917 5.605 2.97346C3.32726 3.49104 1.56103 5.3555 1.56103 7.66018C1.56326 8.02399 1.5656 8.19165 1.56103 8.51718V11.4899V11.6238C1.55894 11.6595 1.55894 11.6953 1.56103 11.7309C1.70072 12.979 2.77449 13.7183 3.97134 14.168C4.20256 14.2577 4.47049 14.2477 4.69444 14.1412C4.82553 14.3312 5.0311 14.4682 5.25684 14.5162C5.78152 14.6121 6.33261 14.6501 6.91728 14.6501C8.22352 14.6501 9.41012 14.4085 10.3721 13.9538C11.334 13.4991 12.1814 12.7935 12.3003 11.7309C12.3024 11.6953 12.3024 11.6595 12.3003 11.6238V11.4899V8.51718C12.301 8.07241 12.2999 7.95034 12.3003 7.66018C12.3003 7.0445 12.1814 6.45693 11.9522 5.9194C11.9703 5.91106 11.9882 5.90213 12.0057 5.89262L12.5413 5.57125L13.077 5.89262C13.6885 6.26585 14.6078 5.59892 14.4428 4.90171L14.2821 4.28574L14.7642 3.88403C15.3128 3.41456 14.9491 2.32357 14.2286 2.27715L13.6394 2.22359L13.3983 1.66118C13.2476 1.29043 12.8311 1.04746 12.4342 1.09878Z" fill="#EBE7E4"/>

</g>


<g transform="translate(139.000000, 9.000000) scale(0.037931 0.037931) "> 

<path d="M54.4297 312.152V313.187C54.4297 312.84 54.4505 312.498 54.4576 312.152H54.4297ZM54.4297 313.187V438.511V444.021H54.7654C58.0425 473.3 87.2469 499.059 130.906 515.465C130.906 483.119 131.315 440.129 131.315 440.129C146.3 447.342 163.295 452.802 178.876 455.845C178.876 455.845 179.047 457.315 179.047 528.554C198.975 532.196 220.462 534.181 242.862 534.181C343.278 534.181 425.332 494.291 430.959 444.021H431.294V438.511V313.187C431.294 366.023 346.923 408.858 242.862 408.858C138.801 408.858 54.4297 366.023 54.4297 313.187ZM431.294 313.187V312.152H431.266C431.273 312.498 431.294 312.84 431.294 313.187Z" fill="#3f3f3f"/>
<path d="M269.285 318.693C265.808 255.38 242.708 164.779 195.68 115.709C114.445 134.169 54.4297 199.178 54.4297 276.541C54.4297 277.366 54.4441 278.182 54.4576 279.003C54.4585 279.022 54.4567 279.041 54.4576 279.059C57.094 330.727 140.407 372.212 242.806 372.212C345.205 372.212 428.627 330.754 431.266 279.087C431.267 279.068 431.266 279.05 431.266 279.031C431.28 278.2 431.294 277.375 431.294 276.541C431.294 196.706 367.383 130.028 282.196 114.084C307.955 141.536 322.71 166.901 332.44 196.012C344.013 230.634 351.753 263.592 354.778 295.722C334.288 308.754 298.813 316.015 269.285 318.693H269.285Z" fill="#3f3f3f"/>
<path d="M324.324 226.478C324.324 241.804 311.9 254.228 296.574 254.228C281.248 254.228 268.824 241.804 268.824 226.478C268.824 211.152 281.248 198.728 296.574 198.728C311.9 198.728 324.324 211.152 324.324 226.478Z" fill="#3f3f3f"/>
<path d="M549.57 88.1751L510.759 120.599L523.095 169.644L480.265 142.753L437.434 169.644L449.77 120.599L410.959 88.1751L461.419 84.7503L480.265 37.8188L499.11 84.7503L549.57 88.1751Z" fill="#3f3f3f"/>

</g>

</svg>