<svg width="300" height="40" viewBox="0 0 300 40" fill="none" xmlns="http://www.w3.org/2000/svg" xmlns:xlink="http://www.w3.org/1999/xlink">

<g transform="translate(130.000000, 0.000000) scale(2.500000 2.500000) "> 

<g clip-path="url(#clip0)">
<path opacity="0.812" d="M10.2832 -0.201174C9.93348 -0.190128 9.62957 0.0423143 9.52735 0.376951C9.08261 1.84015 8.30596 2.60676 7.46485 3.29101C6.62373 3.97527 5.62349 4.51685 5.16016 5.67187C4.72167 6.76497 5.07084 7.80974 5.54493 8.44726C5.69803 8.65315 5.8579 8.78048 6.01758 8.92578C5.66356 9.02362 5.41828 9.34559 5.41797 9.71289V14.4609C5.39617 15.1144 5.96962 15.7298 6.62305 15.752C7.27648 15.7741 7.89152 15.1983 7.91407 14.5449L7.79297 14.9453L8.00196 14.6055L8.21289 14.9492L8.09571 14.5977C8.15615 15.2237 8.75424 15.7494 9.38282 15.7266C10.0114 15.7038 10.571 15.1366 10.5859 14.5078C10.586 14.5013 10.586 14.4948 10.5859 14.4883V9.71289C10.586 9.38715 10.3926 9.09247 10.0938 8.96289C11.2342 8.24261 12.1081 7.05521 12.5273 5.70508C13.1143 3.81489 12.7456 1.4991 10.8145 -0.0253926C10.6636 -0.144669 10.4755 -0.206913 10.2832 -0.201174V-0.201174Z" fill="#EBE7E4"/>
</g>
<defs>
<clipPath id="clip0">
<path d="M0 0H16V16H0V0Z" fill="white"/>
</clipPath>
</defs>

</g>%n%n
<g transform="translate(139.000000, 9.000000) scale(1.833333 1.833333) "> 

<path fill-rule="nonzero" fill="rgb(24.705882%, 24.705882%, 24.705882%)" fill-opacity="1" d="M 7.730469 0.480469 C 6.976562 2.957031 4.925781 3.285156 4.4375 4.5 C 3.945312 5.722656 5.175781 6.546875 5.378906 6.597656 C 5.378906 6.597656 5.050781 5.90625 5.28125 5.328125 C 5.441406 4.929688 5.570312 4.804688 6.03125 4.367188 C 6.363281 4.050781 6.882812 3.621094 7.269531 2.984375 C 7.703125 3.773438 7.597656 4.414062 7.304688 5.050781 C 6.902344 5.921875 6.335938 6.613281 6.335938 6.613281 C 8.570312 6.15625 10.230469 2.457031 7.730469 0.480469 Z M 7.730469 0.480469 "/>
<path fill="none" stroke-width="31.2889" stroke-linecap="round" stroke-linejoin="miter" stroke="rgb(24.705882%, 24.705882%, 24.705882%)" stroke-opacity="1" stroke-miterlimit="4" d="M 241.477865 526.002604 L 241.477865 368.541667 L 338.522135 368.541667 L 338.522135 526.002604 " transform="matrix(0.0206897, 0, 0, 0.0206897, 0, 0)"/>
<path fill="none" stroke-width="27.8631" stroke-linecap="round" stroke-linejoin="round" stroke="rgb(24.705882%, 24.705882%, 24.705882%)" stroke-opacity="1" stroke-miterlimit="4" d="M 241.477865 368.541667 L 338.522135 526.002604 L 338.522135 368.541667 L 241.477865 526.002604 " transform="matrix(0.0206897, 0, 0, 0.0206897, 0, 0)"/>

</g>%n%n</svg>