<svg width="40" height="40" viewBox="0 0 40 40" fill="none" xmlns="http://www.w3.org/2000/svg" >

<g transform="translate(0.000000, 0.000000) scale(2.500000 2.500000) "> 

<path d="M2 4.5C2 3.67157 2.67157 3 3.5 3H5.5C6.0317 3 6.52463 3.16598 6.9298 3.44896C7.20197 3.17187 7.58091 3 8 3C8.41909 3 8.79803 3.17187 9.0702 3.44896C9.47537 3.16598 9.9683 3 10.5 3H12.5C13.3284 3 14 3.67157 14 4.5C14 5.19173 13.5318 5.77411 12.895 5.94746C12.9627 6.11845 13 6.30488 13 6.5C13 7.32843 12.3284 8 11.5 8C12.3284 8 13 8.67157 13 9.5C13 9.68122 12.9679 9.85493 12.909 10.0158C12.9045 10.0281 12.8998 10.0404 12.895 10.0525C13.5318 10.2259 14 10.8083 14 11.5C14 12.3284 13.3284 13 12.5 13H10.5C9.9683 13 9.47537 12.834 9.0702 12.551C8.79803 12.8281 8.41909 13 8 13C7.58091 13 7.20197 12.8281 6.9298 12.551C6.52463 12.834 6.0317 13 5.5 13H3.5C2.67157 13 2 12.3284 2 11.5C2 10.8083 2.46823 10.2259 3.10504 10.0525C3.10021 10.0404 3.09554 10.0281 3.09102 10.0158C3.03214 9.85493 3 9.68122 3 9.5C3 8.67157 3.67157 8 4.5 8C3.67157 8 3 7.32843 3 6.5C3 6.30488 3.03726 6.11845 3.10504 5.94746C2.46823 5.77411 2 5.19173 2 4.5Z" fill="#EBE7E4" fill-opacity="0.8"/>

</g>


<g transform="translate(9.000000, 9.000000) scale(0.458333 0.458333) "> 

<path fill-rule="evenodd" clip100-rule="evenodd" d="M4 10C4 8.89543 4.89543 8 6 8H14C17.3137 8 20 10.6863 20 14C20 15.8339 19.1772 17.4756 17.8807 18.5762C19.1963 20.0019 20 21.9071 20 24C20 26.0929 19.1963 27.9981 17.8807 29.4238C19.1772 30.5244 20 32.1661 20 34C20 37.3137 17.3137 40 14 40H6C4.89543 40 4 39.1046 4 38C4 36.8954 4.89543 36 6 36H14C15.1046 36 16 35.1046 16 34C16 32.8954 15.1046 32 14 32H12H10C8.89543 32 8 31.1046 8 30C8 28.8954 8.89543 28 10 28H12C14.2091 28 16 26.2091 16 24C16 21.7909 14.2091 20 12 20H10C8.89543 20 8 19.1046 8 18C8 16.8954 8.89543 16 10 16H12H14C15.1046 16 16 15.1046 16 14C16 12.8954 15.1046 12 14 12H6C4.89543 12 4 11.1046 4 10ZM44 10C44 8.89543 43.1046 8 42 8H34C30.6863 8 28 10.6863 28 14C28 15.8339 28.8228 17.4756 30.1193 18.5762C28.8037 20.0019 28 21.9071 28 24C28 26.0929 28.8037 27.9981 30.1193 29.4238C28.8228 30.5244 28 32.1661 28 34C28 37.3137 30.6863 40 34 40H42C43.1046 40 44 39.1046 44 38C44 36.8954 43.1046 36 42 36H34C32.8954 36 32 35.1046 32 34C32 32.8954 32.8954 32 34 32H36H38C39.1046 32 40 31.1046 40 30C40 28.8954 39.1046 28 38 28H36C33.7909 28 32 26.2091 32 24C32 21.7909 33.7909 20 36 20H38C39.1046 20 40 19.1046 40 18C40 16.8954 39.1046 16 38 16H36H34C32.8954 16 32 15.1046 32 14C32 12.8954 32.8954 12 34 12H42C43.1046 12 44 11.1046 44 10ZM26 10C26 8.89543 25.1046 8 24 8C22.8954 8 22 8.89543 22 10V38C22 39.1046 22.8954 40 24 40C25.1046 40 26 39.1046 26 38V10Z" fill="#3f3f3f"/>

</g>

</svg>