<svg width="40" height="40" viewBox="0 0 40 40" fill="none" xmlns="http://www.w3.org/2000/svg" >

<g transform="translate(0.000000, 0.000000) scale(2.500000 2.500000) "> 

<path opacity="0.802" d="M8.03124 1.12781C4.26237 1.12781 1.19031 4.19986 1.19031 7.96874C1.19031 11.7376 4.26237 14.8097 8.03124 14.8097C11.8001 14.8097 14.8722 11.7376 14.8722 7.96874C14.8722 4.19986 11.8001 1.12781 8.03124 1.12781V1.12781ZM8.9485 2.94224C11.3706 3.38808 13.2151 5.40656 13.2151 7.96874C13.2151 8.06387 13.1664 8.14272 13.1615 8.23656C13.0507 7.80457 12.849 7.32311 12.4719 6.88075C12.4075 6.80523 12.3229 6.74967 12.228 6.72061C12.1331 6.69155 12.0319 6.6902 11.9363 6.71672C11.1602 6.9305 10.67 7.39338 10.3378 7.78295C10.3611 7.72263 10.3731 7.65849 10.3729 7.59381V6.87071C10.3728 6.73268 10.318 6.60033 10.2204 6.50273C10.1227 6.40513 9.9904 6.35025 9.85237 6.35015H9.2749V6.12586C9.6938 5.76172 9.99799 5.2669 9.99799 4.67465C9.99799 3.92806 9.56634 3.28309 8.9485 2.94224ZM7.10059 2.94559C6.47886 3.28501 6.03771 3.92304 6.03771 4.67465C6.03771 5.2669 6.3419 5.76172 6.76081 6.12586V6.35015H6.18334C6.04531 6.35025 5.91296 6.40513 5.81535 6.50273C5.71775 6.60033 5.66287 6.73268 5.66278 6.87071V7.59381C5.66283 7.64602 5.67073 7.69793 5.68621 7.7478C5.34662 7.37355 4.85629 6.94462 4.1262 6.7435C4.04361 6.72089 3.95672 6.719 3.87322 6.73797C3.78973 6.75695 3.71219 6.79622 3.64749 6.8523C3.17122 7.26377 3.00752 7.84559 2.89426 8.33364C2.88505 8.20648 2.82062 8.09833 2.82062 7.96874C2.82062 5.41319 4.67942 3.39646 7.10059 2.94558V2.94559ZM8.03124 4.47212C8.17135 4.47212 8.23378 4.53455 8.23378 4.67465C8.23378 4.81476 8.17135 4.87719 8.03124 4.87719C7.89114 4.87719 7.80193 4.79197 7.80193 4.67465C7.80193 4.55734 7.89114 4.47212 8.03124 4.47212V4.47212ZM10.1436 8.02566C10.0825 8.11213 9.92602 8.29849 9.92602 8.29849C9.88426 8.3623 9.85701 8.43449 9.84621 8.50998C9.83541 8.58546 9.84131 8.6624 9.8635 8.73536C9.88569 8.80831 9.92363 8.87551 9.97463 8.9322C10.0256 8.98888 10.0885 9.03368 10.1587 9.06343C10.0031 9.30278 9.88649 9.56646 9.7034 9.75807C9.54552 9.92329 9.42769 9.92436 9.2749 10.0242V8.11437H9.85237C9.95612 8.11446 10.0575 8.08357 10.1436 8.02565V8.02566ZM5.93226 8.04909C6.00911 8.09167 6.09548 8.11413 6.18334 8.11437H6.76081V10.0192C6.61408 9.92066 6.50053 9.92258 6.34905 9.76141C6.16949 9.57038 6.05402 9.30442 5.90046 9.0651C5.97167 9.03554 6.03543 8.99053 6.08714 8.93334C6.13885 8.87615 6.17722 8.80819 6.19948 8.73437C6.22173 8.66054 6.22733 8.5827 6.21585 8.50646C6.20438 8.43021 6.17612 8.35747 6.13312 8.29347C6.13312 8.29347 5.98417 8.12152 5.93226 8.04909ZM12.4652 9.72626C12.4744 9.73089 12.5439 9.77647 12.5439 9.77647C12.6374 9.8218 12.7423 9.83812 12.8452 9.82334C12.1436 11.6813 10.4328 12.9794 8.35764 13.1141C8.41775 13.0657 8.46634 13.0045 8.49991 12.935C8.49991 12.935 8.8082 12.4324 9.1343 12.3609C10.6079 12.0373 11.8089 11.0003 12.4652 9.72626ZM3.57049 9.72798C4.227 11.0014 5.42832 12.0375 6.90141 12.3609C7.23045 12.4331 7.56927 12.9484 7.56927 12.9484C7.60201 13.0123 7.6476 13.0687 7.70317 13.1141C5.62739 12.979 3.90264 11.6797 3.19388 9.82334C3.2969 9.8376 3.40184 9.8207 3.49517 9.7748C3.49517 9.7748 3.562 9.7323 3.57049 9.72793L3.57049 9.72798Z" fill="#EBE7E4"/>

</g>


<g transform="translate(9.000000, 9.000000) scale(1.833333 1.833333) "> 

<path d="M289.999 197.248C315.612 197.248 336.375 176.484 336.375 150.872C336.375 125.259 315.612 104.496 289.999 104.496C264.386 104.496 243.623 125.259 243.623 150.872C243.623 176.484 264.386 197.248 289.999 197.248Z" stroke="#3f3f3f" stroke-width="30.9174" stroke-miterlimit="10" stroke-linecap="round" stroke-linejoin="round"/>
<path d="M388.549 316.404C388.549 316.404 419.976 270.553 462.009 258.975C488.876 290.495 490.963 328.137 490.963 346.687C490.963 346.687 466.105 337.211 446.519 311.256C431.292 319.835 388.549 316.404 388.549 316.404Z" fill="#3f3f3f"/>
<path d="M191.451 316.403C191.451 316.403 161.523 271.31 119.491 259.732C93.2419 282.41 89.0371 346.687 89.0371 346.687C89.0371 346.687 114.807 333.903 133.481 311.256C148.708 319.835 191.451 316.403 191.451 316.403Z" fill="#3f3f3f"/>
<path d="M428.556 289.119C417.194 339.963 366.211 410.609 320.917 413.809V197.248H259.083V413.809C213.789 410.609 162.806 339.978 151.444 289.119L104.279 307.499C116.275 375.44 174.616 438.574 247.349 454.542C274.68 460.54 290 490.963 290 490.963C290 490.963 305.32 460.54 332.651 454.542C405.384 438.574 463.725 375.44 475.721 307.499L428.556 289.119Z" fill="#3f3f3f"/>
<path d="M367.294 243.624H212.707V274.541H367.294V243.624Z" fill="#3f3f3f"/>
<path d="M544.739 290C544.739 357.561 517.9 422.355 470.127 470.127C422.355 517.9 357.561 544.739 290 544.739C222.439 544.739 157.646 517.9 109.873 470.127C62.1002 422.355 35.2617 357.561 35.2617 290C35.2617 222.439 62.1002 157.646 109.873 109.873C157.646 62.1002 222.439 35.2617 290 35.2617C357.561 35.2617 422.355 62.1002 470.127 109.873C517.9 157.646 544.739 222.439 544.739 290V290Z" stroke="#3f3f3f" stroke-width="25"/>

</g>

</svg>