<svg width="300" height="40" viewBox="0 0 300 40" fill="none" xmlns="http://www.w3.org/2000/svg" >

<g transform="translate(130.000000, 0.000000) scale(2.500000 2.500000) "> 

<path opacity="0.801" d="M3.06891 1.61719C2.75295 1.61719 2.39092 1.68202 2.02444 1.94526C1.65796 2.20849 1.3616 2.73755 1.3616 3.29102V7.76348C1.36163 7.99787 1.45475 8.22265 1.62048 8.38839C1.78622 8.55412 2.011 8.64724 2.24538 8.64727H3.34342C3.5778 8.64724 3.80258 8.55412 3.96832 8.38839C4.13405 8.22265 4.22717 7.99787 4.2272 7.76348V6.12983H4.30252V7.76348C4.30254 7.99787 4.39566 8.22265 4.5614 8.38839C4.72713 8.55412 4.95191 8.64724 5.1863 8.64727H7.60498C7.54887 8.76549 7.51972 8.89469 7.51962 9.02555V9.76371C7.52016 9.80011 7.52296 9.83645 7.52799 9.87251C7.46301 9.89917 7.34154 9.9147 7.29031 9.93611C7.11233 10.0105 7.00314 10.0282 7.06936 10.0248C6.83994 10.0318 6.62223 10.1278 6.46228 10.2924C6.30234 10.457 6.21271 10.6774 6.21236 10.9069V11.6468C6.21272 11.7133 6.22058 11.7795 6.23579 11.8443C6.15419 11.8764 6.01248 11.8956 5.95124 11.9213C5.77369 11.9957 5.66568 12.0134 5.73197 12.01C5.50255 12.017 5.28484 12.1129 5.12489 12.2775C4.96495 12.4422 4.87532 12.6626 4.87497 12.8921V13.6319C4.87498 13.8646 4.96672 14.0879 5.13029 14.2533C5.29386 14.4188 5.51607 14.513 5.74871 14.5157C5.75965 14.5158 5.7724 14.516 5.79056 14.5157C5.80117 14.5153 5.81177 14.5148 5.82236 14.514C6.21868 14.4938 6.46057 14.3641 6.63417 14.2914C6.80497 14.2198 6.9014 14.2058 6.84674 14.2077C6.78369 14.2095 6.81372 14.2011 6.95889 14.2596C7.10845 14.3198 7.36343 14.4473 7.74893 14.4554C7.75284 14.4554 7.75675 14.4554 7.76065 14.4554C8.14028 14.4586 8.39211 14.3493 8.55907 14.293C8.72603 14.2368 8.80423 14.2301 8.78169 14.2294C8.78503 14.2295 8.78838 14.2295 8.79173 14.2294C8.75943 14.2289 8.85762 14.2451 9.04113 14.3115C9.22464 14.3778 9.4955 14.4938 9.88809 14.4922C9.89367 14.4923 9.89925 14.4923 9.90482 14.4922C10.3037 14.4828 10.5688 14.3516 10.7401 14.283C10.9113 14.2144 10.9866 14.2058 10.956 14.206H10.9242C11.0885 14.2107 10.8954 14.1748 10.9359 14.1909C10.9665 14.2033 10.9978 14.2139 11.0296 14.2228C11.1165 14.2467 11.2652 14.303 11.4514 14.3617C11.4522 14.362 11.454 14.3614 11.4548 14.3617C11.6262 14.4197 11.8536 14.4934 12.1528 14.4923C12.1583 14.4923 12.1639 14.4923 12.1695 14.4923C12.5684 14.4829 12.8335 14.3516 13.0047 14.283C13.1732 14.2156 13.2441 14.2078 13.2173 14.2077C13.1962 14.2083 13.3479 14.2387 13.5856 14.3199C13.7187 14.3654 13.8608 14.3785 14 14.3581C14.1392 14.3377 14.2715 14.2843 14.3859 14.2025C14.5004 14.1206 14.5936 14.0126 14.6579 13.8875C14.7222 13.7623 14.7557 13.6237 14.7556 13.483V12.7448C14.7554 12.5195 14.6692 12.3027 14.5145 12.1389C14.6692 11.975 14.7554 11.7583 14.7556 11.5329V10.7948C14.7556 10.6724 14.7301 10.5513 14.6808 10.4392C14.6316 10.3271 14.5595 10.2265 14.4693 10.1437C14.5593 10.0611 14.6312 9.96072 14.6805 9.84894C14.7298 9.73716 14.7553 9.61638 14.7556 9.49422V8.75439C14.7556 8.5578 14.6902 8.36679 14.5695 8.21158C14.4489 8.05637 14.2799 7.94581 14.0894 7.89739C13.9529 7.86268 13.7904 7.83044 13.5939 7.83044C13.5917 7.83043 13.5895 7.83043 13.5872 7.83044C13.3321 7.83241 13.2758 7.89996 13.1136 7.9543V7.59443C13.1136 6.37929 12.4577 5.46046 11.6406 5.08201C11.3356 4.94078 11.1654 4.96914 10.9326 4.94141C10.8531 4.81508 10.743 4.71092 10.6125 4.63863C10.482 4.56634 10.3352 4.52827 10.186 4.52797H9.47632C9.34955 4.52815 9.22429 4.55559 9.10906 4.60844C8.99382 4.6613 8.89131 4.73832 8.80846 4.83429H8.63773V3.35462L8.63606 3.41823C8.66035 3.08493 8.62888 2.63544 8.31134 2.22813C7.99379 1.82083 7.43899 1.61719 6.8936 1.61719H3.06891V1.61719ZM8.63773 7.66473H8.81014C8.90276 7.77039 9.01925 7.85244 9.14992 7.90409C8.94166 7.95359 8.71351 8.00446 8.59421 8.05473C8.5874 8.0576 8.59244 8.05538 8.58584 8.05808C8.61975 7.96354 8.6373 7.86392 8.63773 7.76349V7.66473L8.63773 7.66473ZM10.2831 7.961V8.01958C10.2816 8.019 10.2829 8.02017 10.2814 8.01958C10.2399 8.0027 10.1244 7.99015 10.0671 7.96769H10.186C10.2184 7.96724 10.2509 7.96501 10.2831 7.961L10.2831 7.961ZM10.1559 9.73693H10.1659C10.1635 9.73686 10.1633 9.73864 10.1609 9.73864C10.1587 9.7386 10.1581 9.73701 10.1558 9.73693H10.1559ZM8.81851 11.7221H8.82855C8.82618 11.722 8.82589 11.7238 8.82353 11.7238C8.82112 11.7238 8.82092 11.7222 8.81851 11.7221H8.81851Z" fill="#EBE7E4"/>

</g>%n%n
<g transform="translate(139.000000, 9.000000) scale(0.037931 0.037931) "> 

<path d="M47.0742 89.5896V278.947L93.5318 278.945V172.387H171.532V278.945H280.274V92.3021C281.557 74.6961 275.325 56.1719 243.822 56.1719H81.9177C68.7404 56.1719 47.0742 63.3155 47.0742 89.5896Z" fill="#3f3f3f"/>
<path fill-rule="evenodd" clip100-rule="evenodd" d="M353.711 319.188C353.279 319.181 352.845 319.185 352.41 319.199C338.12 319.793 322.458 331.616 308.486 332.324C308.232 332.328 307.98 332.327 307.727 332.324V363.606C307.98 363.609 308.232 363.641 308.486 363.637C322.458 363.049 338.12 350.926 352.41 350.512C366.329 349.922 378.769 360.901 392.795 361.137C394.417 361.151 396.042 361.019 397.67 360.799V329.453C396.042 329.674 394.417 329.807 392.795 329.793C379.209 329.509 367.108 319.391 353.711 319.188ZM527.488 319.199C516.815 319.28 506.8 324.672 496.748 328.24V359.553C506.8 355.985 516.815 350.592 527.488 350.512C531.326 350.498 535.26 351.172 539.236 352.19V320.883C535.26 319.871 531.326 319.199 527.488 319.199Z" fill="#3f3f3f"/>
<path fill-rule="evenodd" clip100-rule="evenodd" d="M298.391 398.885C297.958 398.879 297.509 398.901 297.074 398.916C282.784 399.506 267.122 411.298 253.15 412.01C252.896 412.014 252.644 412.013 252.391 412.01V443.322C252.644 443.325 252.896 443.326 253.15 443.322C267.122 442.611 282.784 430.787 297.074 430.197C310.993 429.724 323.433 440.496 337.459 440.791C351.696 440.909 366.139 430.814 381.381 431.229C386.778 431.314 392.211 432.782 397.668 434.619V403.307C392.211 401.47 386.778 400.001 381.381 399.916C366.139 399.502 351.696 409.596 337.459 409.479C323.873 409.193 311.788 399.086 298.391 398.885ZM496.746 404.416V435.904C499.632 436.898 502.514 437.896 505.371 438.781C511.213 440.757 517.075 442.345 522.943 442.322C528.443 442.194 533.837 440.556 539.234 438.529V407.229C533.838 409.25 528.443 410.881 522.943 411.01C518.015 411.029 513.091 409.91 508.18 408.383V408.354C507.641 408.202 507.096 408.021 506.555 407.859C503.278 406.785 500.008 405.571 496.746 404.416Z" fill="#3f3f3f"/>
<path fill-rule="evenodd" clip100-rule="evenodd" d="M353.182 179.371V192.314H311.484V237.314H353.182V250.166H383.182V237.314H392.039C392.828 237.315 393.616 237.274 394.4 237.191C394.4 237.191 402.749 236.728 410.168 240.164C417.587 243.6 424.709 246.961 424.709 271.744V464.154H469.709V271.744C469.709 233.774 449.246 208.67 429.08 199.33C413.956 192.325 399.354 191.952 392.998 192.203C392 192.243 391.995 192.268 391.434 192.314H383.182V179.371H353.182Z" fill="#3f3f3f" fill-opacity="0.801932"/>
<path fill-rule="evenodd" clip100-rule="evenodd" d="M241.766 482.916C241.333 482.91 240.884 482.933 240.449 482.947C226.159 483.537 210.497 495.33 196.525 496.041C196.271 496.045 196.019 496.044 195.766 496.041V527.353C196.019 527.356 196.271 527.357 196.525 527.353C210.497 526.642 226.159 514.818 240.449 514.228C254.368 513.755 266.808 524.527 280.834 524.822C295.071 524.94 309.514 514.846 324.756 515.26C339.786 515.497 355.086 526.414 370.434 526.353C385.516 526.001 399.809 514.344 415.527 514.228C423.021 514.443 424.765 514.693 428.85 516.322C435.458 518.141 442.164 520.773 448.746 522.812C454.588 524.789 460.45 526.377 466.318 526.353C481.401 526.001 495.694 514.344 511.412 514.228C520.385 514.228 529.873 517.859 539.232 521.057V489.775C529.873 486.577 520.385 482.947 511.412 482.947C495.694 483.066 481.401 494.688 466.318 495.041C461.39 495.06 456.466 493.942 451.555 492.414V492.385C451.016 492.234 450.471 492.052 449.93 491.891C442.682 489.513 432.395 491.799 425.228 490.267C420.904 489.107 419.694 482.947 415.527 482.947C399.809 483.066 385.516 494.688 370.434 495.041C355.086 495.101 339.786 484.184 324.756 483.947C309.514 483.533 295.071 493.628 280.834 493.51C267.248 493.224 255.163 483.117 241.766 482.916V482.916Z" fill="#3f3f3f"/>

</g>%n%n</svg>