<svg width="300" height="40" viewBox="0 0 300 40" fill="none" xmlns="http://www.w3.org/2000/svg" xmlns:xlink="http://www.w3.org/1999/xlink">

<g transform="translate(130.000000, 0.000000) scale(2.500000 2.500000) "> 

<path opacity="0.812" d="M12.4342 1.09878C12.108 1.13323 11.8088 1.35763 11.6843 1.66118L11.4433 2.22359L10.8541 2.27715C10.1336 2.32357 9.76992 3.41456 10.3185 3.88402L10.8006 4.28574L10.7738 4.33931C10.0291 3.6393 9.08374 3.09309 8.01531 2.89312C7.3781 2.77524 7.09298 3.01971 6.80825 3.39597C6.6173 3.40609 6.73076 3.46698 6.48878 3.21449C6.2639 2.98707 5.9142 2.8917 5.605 2.97346C3.32726 3.49104 1.56103 5.3555 1.56103 7.66018C1.56326 8.02399 1.5656 8.19165 1.56103 8.51718V11.4899V11.6238C1.55894 11.6595 1.55894 11.6953 1.56103 11.7309C1.70072 12.979 2.77449 13.7183 3.97134 14.168C4.20256 14.2577 4.47049 14.2477 4.69444 14.1412C4.82553 14.3312 5.0311 14.4682 5.25684 14.5162C5.78152 14.6121 6.33261 14.6501 6.91728 14.6501C8.22352 14.6501 9.41012 14.4085 10.3721 13.9538C11.334 13.4991 12.1814 12.7935 12.3003 11.7309C12.3024 11.6953 12.3024 11.6595 12.3003 11.6238V11.4899V8.51718C12.301 8.07241 12.2999 7.95034 12.3003 7.66018C12.3003 7.0445 12.1814 6.45693 11.9522 5.9194C11.9703 5.91106 11.9882 5.90213 12.0057 5.89262L12.5413 5.57125L13.077 5.89262C13.6885 6.26585 14.6078 5.59892 14.4428 4.90171L14.2821 4.28574L14.7642 3.88403C15.3128 3.41456 14.9491 2.32357 14.2286 2.27715L13.6394 2.22359L13.3983 1.66118C13.2476 1.29043 12.8311 1.04746 12.4342 1.09878Z" fill="#EBE7E4"/>

</g>%n%n
<g transform="translate(139.000000, 9.000000) scale(0.687500 0.687500) "> 

<path fill-rule="nonzero" fill="rgb(24.705882%, 24.705882%, 24.705882%)" fill-opacity="1" d="M 3.003906 17.222656 L 3.003906 17.277344 C 3.003906 17.261719 3.003906 17.242188 3.003906 17.222656 Z M 3.003906 17.277344 L 3.003906 24.496094 L 3.023438 24.496094 C 3.203125 26.113281 4.8125 27.535156 7.222656 28.4375 C 7.222656 26.65625 7.246094 24.28125 7.246094 24.28125 C 8.070312 24.679688 9.007812 24.980469 9.867188 25.148438 C 9.867188 25.148438 9.878906 25.230469 9.878906 29.160156 C 10.976562 29.363281 12.164062 29.472656 13.398438 29.472656 C 18.941406 29.472656 23.464844 27.269531 23.777344 24.496094 L 23.796875 24.496094 L 23.796875 17.277344 C 23.796875 20.195312 19.140625 22.558594 13.398438 22.558594 C 7.65625 22.558594 3.003906 20.195312 3.003906 17.277344 Z M 23.796875 17.277344 L 23.796875 17.222656 L 23.792969 17.222656 C 23.792969 17.242188 23.796875 17.261719 23.796875 17.277344 Z M 23.796875 17.277344 "/>
<path fill-rule="nonzero" fill="rgb(24.705882%, 24.705882%, 24.705882%)" fill-opacity="1" d="M 14.855469 17.582031 C 14.664062 14.089844 13.390625 9.089844 10.796875 6.382812 C 6.3125 7.402344 3.003906 10.988281 3.003906 15.257812 C 3.003906 15.304688 3.003906 15.347656 3.003906 15.394531 C 3.148438 18.246094 7.746094 20.535156 13.394531 20.535156 C 19.046875 20.535156 23.648438 18.25 23.792969 15.398438 C 23.792969 15.398438 23.792969 15.394531 23.792969 15.394531 C 23.792969 15.347656 23.796875 15.304688 23.796875 15.257812 C 23.796875 10.851562 20.269531 7.175781 15.570312 6.292969 C 16.992188 7.808594 17.804688 9.207031 18.339844 10.816406 C 18.980469 12.726562 19.40625 14.542969 19.574219 16.316406 C 18.445312 17.035156 16.484375 17.433594 14.855469 17.582031 Z M 14.855469 17.582031 "/>
<path fill-rule="nonzero" fill="rgb(24.705882%, 24.705882%, 24.705882%)" fill-opacity="1" d="M 17.894531 12.496094 C 17.894531 13.339844 17.207031 14.027344 16.363281 14.027344 C 15.515625 14.027344 14.832031 13.339844 14.832031 12.496094 C 14.832031 11.648438 15.515625 10.964844 16.363281 10.964844 C 17.207031 10.964844 17.894531 11.648438 17.894531 12.496094 Z M 17.894531 12.496094 "/>
<path fill-rule="nonzero" fill="rgb(24.705882%, 24.705882%, 24.705882%)" fill-opacity="1" d="M 30.320312 4.863281 L 28.179688 6.652344 L 28.859375 9.359375 L 26.496094 7.875 L 24.132812 9.359375 L 24.816406 6.652344 L 22.671875 4.863281 L 25.457031 4.675781 L 26.496094 2.085938 L 27.535156 4.675781 Z M 30.320312 4.863281 "/>

</g>%n%n</svg>