<svg width="300" height="35" viewBox="0 0 300 35" fill="none" xmlns="http://www.w3.org/2000/svg" >

<g transform="translate(135.000000, 2.000000) scale(1.875000 1.875000) "> 

<path opacity="0.811" d="M5.77716 1.4436C5.65736 1.4436 5.53874 1.4672 5.42806 1.51304C5.31738 1.55889 5.21682 1.62608 5.13211 1.71079C5.0474 1.7955 4.98021 1.89606 4.93436 2.00674C4.88852 2.11742 4.86492 2.23604 4.86492 2.35584V5.46247C4.86499 5.67444 4.93888 5.87977 5.07389 6.04319C5.2089 6.20661 5.3966 6.3179 5.60476 6.35796L4.16024 13.5588C4.13375 13.6911 4.13694 13.8276 4.16957 13.9585C4.20221 14.0895 4.26348 14.2115 4.34898 14.3159C4.43447 14.4203 4.54206 14.5044 4.66398 14.5622C4.78591 14.62 4.91914 14.65 5.05407 14.6501H10.9459C11.0809 14.65 11.2141 14.62 11.336 14.5622C11.4579 14.5044 11.5655 14.4203 11.651 14.3159C11.7365 14.2115 11.7978 14.0895 11.8304 13.9585C11.8631 13.8276 11.8663 13.6911 11.8398 13.5588L10.3936 6.35294C10.5963 6.30799 10.7775 6.19526 10.9075 6.03336C11.0374 5.87145 11.1083 5.67007 11.1083 5.46247V2.35584C11.1083 2.23604 11.0847 2.11742 11.0389 2.00674C10.993 1.89606 10.9258 1.7955 10.8411 1.71079C10.7564 1.62608 10.6558 1.55889 10.5452 1.51304C10.4345 1.4672 10.3159 1.4436 10.1961 1.4436H9.44619C9.30239 1.44403 9.16073 1.47844 9.03276 1.54403C8.90378 1.47792 8.76091 1.4435 8.61597 1.4436H7.35725C7.2078 1.44367 7.06066 1.48046 6.92875 1.55073C6.79685 1.48046 6.64971 1.44367 6.50025 1.4436H5.77716Z" fill="#EBE7E4"/>

</g>


<g transform="translate(141.000000, 8.000000) scale(0.031034 0.031034) "> 

<path d="M236.562 174.25L165.281 533.75H414.719L343.438 174.25H236.562ZM311.875 184.125L318.25 223.562L263.531 223.625L269.312 184.219L311.875 184.125ZM255.844 264.125H325.438L334.156 309.062H246.875L255.844 264.125ZM237.875 354H342.875L351.625 398.938H228.875L237.875 354ZM219.906 443.875H360.375L369.094 488.812H210.938L219.906 443.875Z" fill="#3f3f3f"/>
<path d="M351.788 50.8135V89.7789H315.574V50.8135H262.642V89.7789H226.428V50.8135L195.359 50.9321V182.536H382.857V50.9321L351.788 50.8135Z" fill="#3f3f3f"/>

</g>

</svg>