<svg width="300" height="40" viewBox="0 0 300 40" fill="none" xmlns="http://www.w3.org/2000/svg" >

<g transform="translate(130.000000, 0.000000) scale(2.500000 2.500000) "> 

<path opacity="0.807" d="M6.32611 1.20709C5.28796 1.20709 4.43636 2.05869 4.43636 3.09684C4.43636 3.45933 4.64893 3.73463 4.83139 4.01912H4.23718C3.82777 4.01912 3.44698 4.20095 3.19103 4.57483C2.97611 4.8888 2.90983 5.20388 2.90983 5.53394C2.90983 5.78685 3.01071 6.02701 3.12576 6.26875H2.71065C2.4865 6.26886 2.27156 6.35795 2.11307 6.51645C1.95457 6.67495 1.86548 6.88988 1.86536 7.11403V9.28331L1.86871 9.20967C1.86218 9.28502 1.86218 9.36195 1.86871 9.43731L1.86536 9.36366V11.2651V13.7022C1.86536 14.4913 2.40362 15.0296 3.19271 15.0296C3.9818 15.0296 4.49327 14.4298 4.49327 13.7022V12.1104H7.03414V13.729L7.05423 13.5466C6.86471 14.4014 7.46688 15.1367 8.33471 15.1367C9.20254 15.1367 9.80471 14.4014 9.61519 13.5466L9.63527 13.729V9.39044L9.63192 9.46409C9.63845 9.38873 9.63845 9.3118 9.63192 9.23645L9.63527 9.31009V7.11403C9.63475 6.99633 9.60967 6.88003 9.56162 6.77257C9.71721 6.66166 9.96504 6.61771 10.0504 6.49304C10.298 6.13133 10.2705 5.93414 10.278 5.81681H13.7445C14.089 5.81681 14.3889 5.73649 14.6902 5.43518C14.9294 5.19604 15.0719 4.86069 15.0719 4.51625C15.0719 4.17182 14.9294 3.83646 14.6902 3.59732C14.3889 3.29601 14.089 3.21569 13.7445 3.21569H12.7151V2.37375C12.715 2.1496 12.6259 1.93467 12.4674 1.77617C12.3089 1.61767 12.094 1.52858 11.8698 1.52847H11.0664C10.8741 1.52846 10.6875 1.594 10.5375 1.71426L10.5023 1.74272H9.68884L9.58004 1.67074C9.44127 1.57813 9.2782 1.52863 9.11137 1.52847H8.33471C8.20825 1.52828 8.08336 1.55645 7.96922 1.6109C7.85509 1.66536 7.75463 1.74473 7.67522 1.84315C7.33606 1.4649 6.87271 1.20709 6.32611 1.20709Z" fill="#EBE7E4"/>

</g>


<g transform="translate(139.000000, 9.000000) scale(0.037931 0.037931) "> 

<path d="M321 258.397H63V427.912H321V258.397Z" fill="#3f3f3f"/>
<path d="M259.679 84.1712C259.681 89.9296 258.548 95.6319 256.346 100.952C254.144 106.273 250.915 111.107 246.843 115.18C242.772 119.252 237.939 122.483 232.619 124.687C227.299 126.891 221.597 128.025 215.839 128.025C210.08 128.025 204.378 126.891 199.059 124.687C193.739 122.483 188.905 119.252 184.834 115.18C180.763 111.107 177.534 106.273 175.331 100.952C173.129 95.6319 171.996 89.9296 171.998 84.1712C171.996 78.4129 173.129 72.7106 175.331 67.3901C177.534 62.0696 180.763 57.2351 184.834 53.1627C188.905 49.0903 193.739 45.8598 199.059 43.6558C204.378 41.4518 210.08 40.3174 215.839 40.3174C221.597 40.3174 227.299 41.4518 232.619 43.6558C237.939 45.8598 242.772 49.0903 246.843 53.1627C250.915 57.2351 254.144 62.0696 256.346 67.3901C258.548 72.7106 259.681 78.4129 259.679 84.1712Z" fill="#3f3f3f"/>
<path d="M127.156 159.202C122.01 159.202 116.896 162.296 113.257 167.612C109.618 172.927 107.5 180.398 107.5 187.916C107.5 195.433 109.618 202.904 113.257 208.219C116.896 213.535 122.01 216.629 127.156 216.629H330.812C335.958 216.629 341.073 213.535 344.712 208.219C348.35 202.904 348.941 195.094 350.469 187.916C353.469 173.825 357.35 161.971 353.712 156.656C350.073 151.34 335.958 159.202 330.812 159.202H127.156Z" fill="#3f3f3f"/>
<path d="M287.188 124.942C282.042 124.942 276.928 127.06 273.289 130.699C269.65 134.338 265.532 139.952 265.532 145.098C265.532 150.244 262.65 163.358 266.289 166.997C269.928 170.636 282.042 164.254 287.188 164.254H530.813C535.959 164.254 541.073 162.136 544.712 158.497C548.351 154.858 550.469 149.744 550.469 144.598C550.469 139.452 548.351 134.338 544.712 130.699C541.073 127.06 535.959 124.942 530.813 124.942H287.188Z" fill="#3f3f3f"/>
<path d="M301 52.1128H334.606L347.452 61.8355H405.771L417.559 52.1128H451.577V89.1128H417.559L406.593 79.3901H348.684L334.606 89.1128H301V52.1128Z" fill="#3f3f3f"/>
<path d="M82.6582 347.816V531.395" stroke="#3f3f3f" stroke-width="39.437" stroke-linecap="round" stroke-linejoin="round"/>
<path d="M301.361 349.372V532.951" stroke="#3f3f3f" stroke-width="39.437" stroke-linecap="round" stroke-linejoin="round"/>

</g>

</svg>