<svg width="300" height="40" viewBox="0 0 300 40" fill="none" xmlns="http://www.w3.org/2000/svg" xmlns:xlink="http://www.w3.org/1999/xlink">

<g transform="translate(130.000000, 0.000000) scale(2.500000 2.500000) "> 

<path opacity="0.812" d="M9.10965 1.14465C7.71083 1.14465 6.90549 2.03479 6.4309 2.69833C5.45167 2.76206 4.66282 3.16107 4.20754 3.63589C3.67698 4.18923 3.45749 4.78775 3.45749 4.78775C3.4036 4.93237 3.39414 5.0932 3.4307 5.24314C3.43055 5.25207 3.43055 5.261 3.4307 5.26993C3.27887 5.41455 3.18962 5.62278 3.18962 5.83247V8.24334C3.13781 8.36585 2.71313 9.3874 2.22527 10.5471C1.96725 11.1604 1.69611 11.7684 1.502 12.2347C1.40495 12.4678 1.31872 12.6822 1.26092 12.824C1.23201 12.8949 1.22497 12.9397 1.20734 12.9847C1.19852 13.0072 1.1886 13.0162 1.18055 13.0383C1.17653 13.0494 1.1605 13.0706 1.15377 13.0919C1.1504 13.1025 1.16013 13.1203 1.15377 13.1455C1.15059 13.1581 1.13164 13.1731 1.12698 13.199C1.12232 13.225 1.12698 13.3328 1.12698 13.333C1.12698 13.7078 1.34099 13.9535 1.502 14.083C1.66302 14.2126 1.82289 14.2874 1.98418 14.3509C2.30676 14.4778 2.68394 14.5691 3.13604 14.6456C4.04025 14.7986 5.23268 14.8867 6.56484 14.8867C7.897 14.8867 9.08944 14.7986 9.99364 14.6456C10.4457 14.5691 10.8229 14.4778 11.1455 14.3509C11.3068 14.2874 11.4667 14.2126 11.6277 14.083C11.7887 13.9535 12.0027 13.7078 12.0027 13.333C12.0027 13.3328 12.0073 13.225 12.0027 13.199C11.9981 13.1731 11.9791 13.1581 11.9759 13.1455C11.9696 13.1203 11.9792 13.1025 11.9759 13.0919C11.9691 13.0706 11.9531 13.0494 11.9491 13.0383C11.941 13.0162 11.9312 13.0072 11.9223 12.9847C11.9047 12.9397 11.8977 12.8949 11.8688 12.824C11.8666 12.8185 11.8711 12.8029 11.8688 12.7972C11.9604 12.7514 12.0429 12.6873 12.1098 12.6097L14.8957 9.07375C15.2572 8.61701 14.8621 7.80957 14.2796 7.81474H14.0921L14.6279 6.95754C14.9118 6.48755 14.5073 5.77556 13.9582 5.77889H13.7171C13.8392 5.66965 14.0525 5.62888 14.1457 5.51102C14.7984 4.68599 14.9225 3.74304 14.9225 3.74304C14.9613 3.50292 14.8792 3.24638 14.7082 3.07335C15.093 2.77011 15.0638 2.08381 14.6547 1.81434C14.6547 1.81434 12.8304 0.70594 10.7437 1.62683C10.2781 1.40365 9.7891 1.14465 9.10965 1.14465H9.10965ZM13.4492 3.28765C13.4492 3.28765 13.2123 3.75117 12.8331 4.06449C12.4588 4.37377 12.107 4.58047 11.2794 4.11807C11.2719 4.11354 11.2601 4.12256 11.2527 4.11807C11.0702 4.00819 10.8365 4.03465 10.6365 3.95734C10.8643 3.99452 11.1074 3.92363 11.2794 3.76983C11.2794 3.76983 12.0963 3.28519 13.4492 3.28765H13.4492ZM8.86857 3.55553C9.57506 3.38732 10.3419 3.8234 10.3419 3.8234C10.4072 3.86989 10.4798 3.90618 10.5562 3.93055C10.146 3.78389 9.74985 3.57787 9.29717 3.63589C8.78396 3.70166 8.3108 4.00128 7.90422 4.41273C7.90422 4.41273 8.19838 3.7151 8.86857 3.55553V3.55553ZM6.27018 4.76097C6.67184 4.72935 6.91308 4.84133 6.91308 4.84133C7.11056 4.91672 7.33899 4.90678 7.52919 4.81454C7.50365 4.85341 7.47283 4.88107 7.44883 4.92169C7.42687 4.96455 7.40891 5.00945 7.39525 5.05563H5.43977C5.74581 4.88078 6.03655 4.77936 6.27018 4.76097ZM9.94007 5.83247C10.0968 5.88572 10.2182 5.87313 10.3955 5.9664V5.93962C10.9282 6.2399 11.422 6.36932 11.8956 6.42179L10.5562 9.10054C10.4988 9.21626 10.4709 9.34648 10.4758 9.47556C10.2635 8.97248 9.96793 8.30924 9.94007 8.24334V5.83247ZM10.6365 9.90417C10.7773 10.0987 11.0125 10.2215 11.2527 10.2256H11.5205L11.1187 11.0828C11.0396 10.8945 10.9855 10.7398 10.9044 10.5471C10.7684 10.2237 10.7631 10.2044 10.6365 9.90417V9.90417Z" fill="#EBE7E4"/>

</g>%n%n
<g transform="translate(139.000000, 9.000000) scale(0.687500 0.687500) "> 

<path fill-rule="nonzero" fill="rgb(24.705882%, 24.705882%, 24.705882%)" fill-opacity="1" d="M 22.417969 2.984375 C 21.332031 2.378906 20.121094 1.894531 18.550781 1.894531 C 15.769531 1.894531 14.074219 3.949219 13.230469 5.28125 C 8.632812 4.917969 7.0625 9.152344 7.0625 9.152344 C 10.328125 5.644531 14.074219 6.972656 14.074219 6.972656 C 14.074219 6.972656 15.042969 4.554688 17.582031 3.949219 C 20.121094 3.347656 22.417969 4.796875 22.417969 4.796875 C 22.417969 4.796875 25.441406 2.257812 30.519531 3.105469 C 30.519531 3.105469 26.773438 0.566406 22.417969 2.984375 Z M 22.417969 2.984375 "/>
<path fill-rule="nonzero" fill="rgb(24.705882%, 24.705882%, 24.705882%)" fill-opacity="1" d="M 18.671875 17.007812 L 18.671875 10.960938 L 6.578125 10.960938 L 6.578125 17.007812 C 6.578125 17.007812 1.742188 28.375 1.742188 28.496094 C 1.742188 29.460938 6.578125 30.308594 12.625 30.308594 C 18.671875 30.308594 23.507812 29.460938 23.507812 28.496094 C 23.507812 28.375 18.671875 17.007812 18.671875 17.007812 Z M 12.664062 21.660156 C 13.335938 21.660156 13.84375 22.167969 13.84375 22.84375 C 13.84375 23.515625 13.335938 24.023438 12.664062 24.023438 C 11.988281 24.023438 11.484375 23.515625 11.484375 22.84375 C 11.484375 22.167969 11.988281 21.660156 12.664062 21.660156 Z M 9.460938 17.109375 L 11.820312 21.15625 C 11.316406 21.492188 10.976562 22.167969 10.976562 22.84375 L 6.085938 22.84375 C 6.085938 20.3125 7.4375 18.121094 9.460938 17.109375 Z M 12.664062 29.417969 C 11.484375 29.417969 10.304688 29.082031 9.460938 28.574219 L 11.820312 24.359375 C 11.988281 24.527344 12.328125 24.695312 12.664062 24.695312 C 13 24.695312 13.335938 24.527344 13.507812 24.359375 L 15.867188 28.574219 C 15.023438 29.25 13.84375 29.417969 12.664062 29.417969 Z M 14.519531 22.84375 C 14.519531 22.167969 14.179688 21.492188 13.675781 21.15625 L 16.035156 16.941406 C 18.058594 18.121094 19.238281 20.3125 19.238281 22.671875 L 14.519531 22.671875 Z M 14.519531 22.84375 "/>
<path fill-rule="nonzero" fill="rgb(24.705882%, 24.705882%, 24.705882%)" fill-opacity="1" d="M 22.660156 8.574219 C 27.738281 11.476562 30.277344 5.792969 30.277344 5.792969 C 30.277344 5.792969 29.070312 13.414062 22.417969 9.664062 C 20.121094 8.453125 17.945312 8.210938 16.253906 9.785156 C 17.824219 7.125 20.484375 7.246094 22.660156 8.574219 Z M 22.660156 8.574219 "/>
<path fill-rule="nonzero" fill="rgb(24.705882%, 24.705882%, 24.705882%)" fill-opacity="1" d="M 26.929688 12.648438 L 23.554688 19.40625 L 26.964844 19.40625 L 24.105469 25.644531 L 30.625 17.4375 L 26.9375 17.4375 L 29.847656 12.648438 Z M 26.929688 12.648438 "/>

</g>%n%n</svg>