<svg width="300" height="40" viewBox="0 0 300 40" fill="none" xmlns="http://www.w3.org/2000/svg" xmlns:xlink="http://www.w3.org/1999/xlink">

<g transform="translate(130.000000, 0.000000) scale(2.500000 2.500000) "> 

<path opacity="0.804" d="M5.98435 3.00168C5.77001 3.00291 5.61553 3.0052 5.50391 3.00791C5.4481 3.00927 5.4031 3.01021 5.3615 3.01259C5.31991 3.01498 5.34958 2.989 5.15493 3.04535C4.87126 3.12746 4.73922 3.21132 4.55556 3.45399C4.39905 3.66079 4.40177 3.76559 4.38341 3.88291C4.36505 4.00023 4.34849 4.10474 4.39593 4.29311C4.45723 4.53651 4.55594 4.62919 4.64789 4.72359C4.73984 4.81799 4.8382 4.89448 4.97183 4.96067C5.01537 4.98223 5.27089 5.06324 5.4241 5.07141C5.57731 5.07957 5.77747 5.07963 6.18936 5.08232H6.31612C6.31612 5.08232 6.39526 5.08002 6.41784 5.20554C6.54626 5.44469 6.79335 5.54078 6.95306 5.58299V5.71088L6.34273 5.71244C6.16616 5.7129 5.99626 5.77974 5.86698 5.89961L5.82003 5.94328L5.81847 5.94484C5.79546 5.96636 5.58356 6.28927 5.56338 6.43926C5.54321 6.58926 5.55086 6.65139 5.55086 6.80424C5.55086 6.95581 5.54462 7.02305 5.56338 7.16609C5.57857 7.28189 5.69173 7.45993 5.75587 7.55757C5.74795 7.56477 5.74203 7.56738 5.73396 7.57473C5.72405 7.56659 5.72883 7.55581 5.71831 7.54821C5.4983 7.38928 5.34116 7.39908 5.24883 7.39381C5.1565 7.38854 5.09125 7.39068 5.00783 7.39068C4.89718 7.39068 4.81285 7.39117 4.72926 7.39692C4.68747 7.3998 4.64778 7.40367 4.58529 7.41564C4.5528 7.42187 4.445 7.49877 4.38185 7.52014L4.38028 7.51859C4.34587 7.49702 4.31786 7.48249 4.29421 7.47179C4.24692 7.45039 4.21675 7.44172 4.19092 7.43436C4.13927 7.41964 4.10835 7.41512 4.08138 7.41096C4.02744 7.40265 3.98951 7.39963 3.94836 7.39693C3.86606 7.39153 3.78021 7.38912 3.69327 7.38912C3.60634 7.38912 3.52205 7.39152 3.43975 7.39693C3.3986 7.39963 3.36067 7.40264 3.30673 7.41096C3.27976 7.41512 3.24884 7.41964 3.19718 7.43436C3.17135 7.44171 3.14119 7.45039 3.0939 7.47179C3.07025 7.48249 3.04224 7.49702 3.00783 7.51858C2.97341 7.54015 2.88263 7.61684 2.88263 7.61684C2.76971 7.72941 2.78965 7.75974 2.77152 7.81649C2.7595 7.81722 2.74749 7.81826 2.73552 7.81961L2.76995 7.81805C2.73552 7.81961 2.6657 7.82801 2.65571 7.82896C2.49882 7.85901 2.35693 7.94155 2.25352 8.06292L2.2097 8.11439L2.16588 8.16586C2.05856 8.29228 1.99978 8.45258 2 8.61818V9.81603V11.0139C2.00021 11.2033 2.07758 11.3846 2.2144 11.5161L2.25039 11.552L2.25352 11.5536C2.28887 11.5874 2.57996 11.7688 2.72457 11.7891C2.73044 11.7899 2.73304 11.7884 2.73865 11.7891C2.75771 11.8428 2.76175 11.8901 2.88263 12.0106C3.12629 12.253 3.20827 12.1996 3.27074 12.2118C3.33321 12.224 3.37331 12.226 3.41471 12.2289C3.49752 12.2348 3.57977 12.2368 3.68701 12.2368C3.8096 12.2368 3.88692 12.2376 3.98592 12.2289C4.05174 12.2232 4.19754 12.1434 4.32707 12.0792C4.4252 12.1332 4.54108 12.2037 4.58216 12.2118C4.64463 12.224 4.68473 12.226 4.72613 12.2289C4.80894 12.2348 4.8912 12.2367 4.99843 12.2367C5.12102 12.2367 5.19811 12.2377 5.29734 12.2289C5.386 12.2211 5.58112 12.1663 5.7543 12.0277C6.12682 12.3766 6.36804 12.5592 6.6698 12.7093C7.01777 12.8824 7.4066 12.9588 7.83881 12.9854C7.89062 12.9886 7.98998 12.9977 7.92175 12.9901C8.08635 13.0088 8.0973 12.996 8.16745 12.9917C8.2376 12.9874 8.31473 12.9808 8.39437 12.973C8.55364 12.9573 8.68935 12.9448 8.84664 12.9106C9.07723 12.8604 9.29121 12.7832 9.5133 12.6719C9.7587 12.549 10.0033 12.333 10.3099 12.0481C10.4694 12.1547 10.6433 12.222 10.723 12.229C10.822 12.2377 10.8993 12.2368 11.0219 12.2368C11.1291 12.2368 11.2114 12.2349 11.2942 12.229C11.3356 12.226 11.3756 12.224 11.4382 12.2118C11.4778 12.2041 11.5926 12.131 11.6839 12.0839C11.8086 12.1434 11.9501 12.2233 12.0141 12.229C12.1133 12.2378 12.1904 12.2368 12.313 12.2368C12.4202 12.2368 12.5025 12.2349 12.5853 12.229C12.6267 12.226 12.6667 12.224 12.7293 12.2118C12.7918 12.1996 12.8738 12.2534 13.1174 12.0106C13.2439 11.8847 13.2245 11.8493 13.2394 11.7907C13.2529 11.7891 13.2604 11.7913 13.2754 11.7891C13.42 11.7688 13.7112 11.5873 13.7465 11.5536L13.7856 11.5162C13.9224 11.3846 13.9998 11.2034 14 11.0139V9.81291V8.6135C14.0002 8.42811 13.9264 8.25025 13.795 8.11907L13.7418 8.06604L13.6886 8.01301C13.5649 7.89032 13.3997 7.81803 13.2254 7.81025C13.2063 7.75406 13.227 7.72616 13.1174 7.61684C12.8718 7.37205 12.7903 7.42772 12.7277 7.41564C12.6651 7.40357 12.6254 7.39983 12.5837 7.39693C12.5004 7.39113 12.4163 7.39069 12.3067 7.39069C12.1971 7.39069 12.1131 7.39117 12.0297 7.39693C11.988 7.3998 11.948 7.40375 11.8858 7.41564C11.85 7.42249 11.7367 7.49893 11.6604 7.53106C11.5837 7.49874 11.4693 7.42244 11.4335 7.41564C11.3713 7.40386 11.3313 7.39978 11.2895 7.39693C11.2059 7.39121 11.1216 7.39069 11.011 7.39069C10.9275 7.39069 10.8623 7.38852 10.77 7.39381C10.6874 7.39854 10.5344 7.42084 10.349 7.53419C10.4302 7.40252 10.5128 7.24356 10.5227 7.16142C10.5357 7.0532 10.5358 6.97428 10.5383 6.84012C10.5418 6.66211 10.5721 6.56342 10.4961 6.30826C10.4581 6.18067 10.3466 5.99543 10.2097 5.89181C10.0728 5.78819 9.96741 5.76424 9.91236 5.74832C9.74769 5.7007 9.7604 5.71955 9.72457 5.71712C9.68874 5.7147 9.65354 5.71373 9.61189 5.71244C9.5286 5.70988 9.41956 5.70736 9.277 5.70621C9.22994 5.70583 9.12018 5.70646 9.06573 5.70621V5.63602C9.06243 5.5079 9.06573 5.60023 9.06573 5.54868C9.15168 5.52788 9.11301 5.56182 9.29264 5.49409C9.54985 5.39894 9.61711 5.24141 9.70422 5.08232H9.83098C9.84142 5.08204 9.85186 5.08152 9.86228 5.08077C10.2476 5.06127 10.4339 5.0603 10.554 5.05893C10.614 5.05825 10.6585 5.05914 10.7386 5.05113C10.8188 5.04312 10.9534 5.00784 11.0282 4.97314C11.3436 4.82677 11.6334 4.50704 11.6604 4.10283C11.6873 3.69941 11.4313 3.33443 11.1283 3.15609L11.0438 3.10618C10.9363 3.04243 10.8137 3.0085 10.6886 3.00792L8.05634 3.00168C7.07635 2.99967 6.41302 2.99922 5.98435 3.00168Z" fill="#EBE7E4"/>

</g>%n%n
<g transform="translate(139.000000, 9.000000) scale(0.687500 0.687500) "> 

<path fill-rule="nonzero" fill="rgb(24.705882%, 24.705882%, 24.705882%)" fill-opacity="1" d="M 15.707031 26.738281 C 14.789062 26.683594 14.019531 26.507812 13.464844 26.230469 C 12.804688 25.902344 12.488281 25.660156 11.570312 24.796875 C 11.246094 24.492188 10.863281 24.136719 10.71875 24.007812 L 10.457031 23.769531 L 9.367188 23.769531 L 9.367188 24.246094 C 9.367188 24.613281 9.351562 24.734375 9.296875 24.789062 C 9.238281 24.847656 9.097656 24.863281 8.507812 24.863281 C 8.015625 24.863281 7.777344 24.84375 7.742188 24.808594 C 7.660156 24.726562 7.660156 16.359375 7.742188 16.28125 C 7.777344 16.242188 8.019531 16.226562 8.535156 16.226562 C 9.414062 16.226562 9.367188 16.195312 9.367188 16.835938 L 9.367188 17.273438 L 10.367188 17.273438 L 11.214844 16.488281 C 11.988281 15.769531 12.511719 15.335938 12.832031 15.144531 L 12.957031 15.070312 L 12.957031 14 L 12.410156 14 C 11.890625 14 11.855469 13.996094 11.75 13.890625 C 11.640625 13.78125 11.640625 13.765625 11.640625 13.011719 C 11.640625 12.246094 11.640625 12.242188 11.757812 12.132812 L 11.875 12.023438 L 15.996094 12.011719 C 18.871094 12 20.164062 12.011719 20.285156 12.046875 C 20.578125 12.132812 20.601562 12.210938 20.582031 13.0625 C 20.570312 13.710938 20.558594 13.828125 20.488281 13.898438 C 20.421875 13.964844 20.300781 13.980469 19.785156 14 L 19.160156 14.023438 L 19.148438 14.484375 C 19.136719 14.921875 19.140625 14.953125 19.238281 15.023438 C 19.804688 15.421875 20.242188 15.789062 20.949219 16.472656 L 21.78125 17.273438 L 22.683594 17.273438 L 22.683594 16.835938 C 22.683594 16.195312 22.636719 16.226562 23.515625 16.226562 C 24.03125 16.226562 24.269531 16.242188 24.308594 16.28125 C 24.386719 16.359375 24.386719 24.726562 24.308594 24.808594 C 24.269531 24.84375 24.035156 24.863281 23.539062 24.863281 C 22.949219 24.863281 22.8125 24.847656 22.753906 24.789062 C 22.699219 24.734375 22.683594 24.613281 22.683594 24.246094 L 22.683594 23.769531 L 21.765625 23.769531 L 20.894531 24.613281 C 19.921875 25.550781 19.519531 25.875 18.992188 26.136719 C 18.511719 26.378906 18.230469 26.480469 17.738281 26.589844 C 17.382812 26.667969 16.199219 26.785156 16 26.761719 C 15.964844 26.757812 15.832031 26.746094 15.707031 26.738281 Z M 4.46875 24.808594 C 4.433594 24.769531 4.355469 24.578125 4.414062 24.261719 L 4.414062 23.769531 L 3.707031 23.769531 C 3.019531 23.769531 3 23.769531 2.890625 23.660156 L 2.777344 23.546875 L 2.777344 17.550781 L 2.886719 17.421875 L 2.996094 17.296875 L 3.707031 17.28125 L 4.414062 17.265625 L 4.414062 16.800781 C 4.414062 16.5 4.433594 16.316406 4.46875 16.28125 C 4.546875 16.207031 5.964844 16.207031 6.039062 16.28125 C 6.082031 16.324219 6.09375 17.328125 6.09375 20.527344 C 6.09375 24.277344 6.085938 24.726562 6.023438 24.789062 C 5.964844 24.847656 5.828125 24.863281 5.238281 24.863281 C 4.742188 24.863281 4.507812 24.84375 4.46875 24.808594 Z M 25.976562 24.789062 C 25.910156 24.726562 25.90625 24.277344 25.90625 20.527344 C 25.90625 17.328125 25.917969 16.324219 25.960938 16.28125 C 25.996094 16.242188 26.238281 16.226562 26.746094 16.226562 C 27.253906 16.226562 27.492188 16.242188 27.53125 16.28125 C 27.566406 16.316406 27.585938 16.5 27.585938 16.804688 L 27.585938 17.273438 L 28.957031 17.273438 L 29.222656 17.539062 L 29.222656 23.546875 L 29.109375 23.660156 C 29 23.769531 28.980469 23.769531 28.292969 23.769531 L 27.585938 23.769531 L 27.585938 24.261719 C 27.585938 24.582031 27.566406 24.769531 27.53125 24.808594 C 27.492188 24.84375 27.257812 24.863281 26.761719 24.863281 C 26.171875 24.863281 26.035156 24.847656 25.976562 24.789062 Z M 15.136719 9.523438 L 15.136719 8.367188 L 14.53125 8.367188 C 13.894531 8.367188 13.667969 8.320312 13.59375 8.183594 C 13.566406 8.136719 13.546875 7.84375 13.546875 7.53125 L 13.546875 6.960938 L 11.492188 6.949219 C 9.4375 6.933594 9.433594 6.933594 9.21875 6.828125 C 8.980469 6.707031 8.746094 6.46875 8.703125 6.292969 C 8.660156 6.117188 8.710938 5.796875 8.804688 5.671875 C 8.925781 5.511719 9.179688 5.339844 9.390625 5.277344 C 9.523438 5.238281 11.25 5.230469 16.136719 5.238281 L 22.703125 5.253906 L 22.917969 5.378906 C 23.589844 5.773438 23.539062 6.503906 22.816406 6.839844 C 22.621094 6.929688 22.53125 6.847656 20.558594 6.949219 L 18.5 6.960938 L 18.5 7.566406 C 18.5 8.371094 18.207031 8.34375 17.609375 8.359375 L 16.910156 8.375 L 16.910156 10.683594 L 15.136719 10.683594 Z M 15.136719 9.523438 "/>

</g>%n%n</svg>