<svg width="300" height="35" viewBox="0 0 300 35" fill="none" xmlns="http://www.w3.org/2000/svg" >

<g transform="translate(135.000000, 2.000000) scale(1.875000 1.875000) "> 

<g clip-path="url(#clip0)">
<path opacity="0.812" d="M10.2832 -0.201174C9.93348 -0.190128 9.62957 0.0423143 9.52735 0.376951C9.08261 1.84015 8.30596 2.60676 7.46485 3.29101C6.62373 3.97527 5.62349 4.51685 5.16016 5.67187C4.72167 6.76497 5.07084 7.80974 5.54493 8.44726C5.69803 8.65315 5.8579 8.78048 6.01758 8.92578C5.66356 9.02362 5.41828 9.34559 5.41797 9.71289V14.4609C5.39617 15.1144 5.96962 15.7298 6.62305 15.752C7.27648 15.7741 7.89152 15.1983 7.91407 14.5449L7.79297 14.9453L8.00196 14.6055L8.21289 14.9492L8.09571 14.5977C8.15615 15.2237 8.75424 15.7494 9.38282 15.7266C10.0114 15.7038 10.571 15.1366 10.5859 14.5078C10.586 14.5013 10.586 14.4948 10.5859 14.4883V9.71289C10.586 9.38715 10.3926 9.09247 10.0938 8.96289C11.2342 8.24261 12.1081 7.05521 12.5273 5.70508C13.1143 3.81489 12.7456 1.4991 10.8145 -0.0253926C10.6636 -0.144669 10.4755 -0.206913 10.2832 -0.201174V-0.201174Z" fill="#EBE7E4"/>
</g>
<defs>
<clipPath id="clip0">
<path d="M0 0H16V16H0V0Z" fill="white"/>
</clipPath>
</defs>

</g>


<g transform="translate(139.000000, 6.000000) scale(0.037931 0.037931) "> 

<path d="M373.576 23.2793C337.197 142.967 238.041 158.783 214.452 217.586C190.758 276.653 250.23 316.493 259.966 318.969C259.966 318.969 244.137 285.472 255.318 257.598C263.061 238.297 269.316 232.156 291.532 211.033C307.498 195.851 332.59 175.019 351.301 144.25C372.379 182.328 367.294 213.415 353.076 244.109C333.546 286.271 306.271 319.587 306.271 319.587C414.174 297.57 494.406 118.667 373.576 23.2793Z" fill="#3f3f3f"/>
<path d="M241.57 526.078V368.625H338.43V526.078" stroke="#3f3f3f" stroke-width="31.2889" stroke-linecap="round"/>
<path d="M241.57 368.625L338.43 526.078V368.625L241.57 526.078" stroke="#3f3f3f" stroke-width="27.8631" stroke-linecap="round" stroke-linejoin="round"/>

</g>

</svg>