<svg width="300" height="40" viewBox="0 0 300 40" fill="none" xmlns="http://www.w3.org/2000/svg" xmlns:xlink="http://www.w3.org/1999/xlink">

<g transform="translate(130.000000, 0.000000) scale(2.000000 2.000000) "> 

<g clip-path="url(#clip0)">
<path opacity="0.953" d="M9.99934 0C15.514 0 20 4.44646 20 10C20 15.5172 15.514 20 9.99934 20C4.48599 20 0 15.5172 0 10C0 4.44646 4.48599 0 9.99934 0V0Z" fill="#878787"/>
<path opacity="0.95" fill-rule="evenodd" clip-rule="evenodd" d="M10 19C14.9706 19 19 14.9706 19 10C19 5.02944 14.9706 1 10 1C5.02944 1 1 5.02944 1 10C1 14.9706 5.02944 19 10 19ZM10 20C15.5228 20 20 15.5228 20 10C20 4.47715 15.5228 0 10 0C4.47715 0 0 4.47715 0 10C0 15.5228 4.47715 20 10 20Z" fill="#404040"/>
</g>
<defs>
<clipPath id="clip0">
<path d="M0 0H20V20H0V0Z" fill="white"/>
</clipPath>
</defs>

</g>%n%n
<g transform="translate(139.000000, 9.000000) scale(0.687500 0.687500) "> 

<path fill-rule="nonzero" fill="rgb(100%, 100%, 100%)" fill-opacity="1" d="M 23.636719 24.671875 L 5.875 24.671875 L 5.875 26.710938 L 23.636719 26.710938 Z M 23.636719 24.671875 "/>
<path fill-rule="nonzero" fill="rgb(100%, 100%, 100%)" fill-opacity="1" d="M 8.332031 5.242188 L 5.886719 5.242188 L 5.886719 29.695312 L 8.332031 29.695312 Z M 8.332031 5.242188 "/>
<path fill-rule="nonzero" fill="rgb(100%, 100%, 100%)" fill-opacity="1" d="M 23.636719 5.164062 L 21.195312 5.164062 L 21.195312 29.503906 L 23.636719 29.503906 Z M 23.636719 5.164062 "/>
<path fill-rule="nonzero" fill="rgb(100%, 100%, 100%)" fill-opacity="1" d="M 6.835938 10.363281 L 9.621094 10.363281 L 10.503906 12.285156 L 6.835938 12.285156 Z M 6.835938 10.363281 "/>
<path fill="none" stroke-width="25.6462" stroke-linecap="round" stroke-linejoin="round" stroke="rgb(100%, 100%, 100%)" stroke-opacity="1" stroke-miterlimit="4" d="M 198.950195 172.966309 L 224.72168 230.17334 " transform="matrix(0.0551724, 0, 0, 0.0551724, 0, 0)"/>
<path fill="none" stroke-width="25.6462" stroke-linecap="round" stroke-linejoin="round" stroke="rgb(100%, 100%, 100%)" stroke-opacity="1" stroke-miterlimit="4" d="M 242.988281 172.966309 L 268.759766 230.17334 " transform="matrix(0.0551724, 0, 0, 0.0551724, 0, 0)"/>
<path fill="none" stroke-width="25.6462" stroke-linecap="round" stroke-linejoin="round" stroke="rgb(100%, 100%, 100%)" stroke-opacity="1" stroke-miterlimit="4" d="M 288.937988 172.966309 L 314.780273 230.17334 " transform="matrix(0.0551724, 0, 0, 0.0551724, 0, 0)"/>
<path fill-rule="nonzero" fill="rgb(100%, 100%, 100%)" fill-opacity="1" d="M 21.898438 10.363281 L 18.121094 10.363281 L 19.003906 12.285156 L 21.898438 12.285156 Z M 21.898438 10.363281 "/>
<path fill="none" stroke-width="25.6462" stroke-linecap="round" stroke-linejoin="round" stroke="rgb(100%, 100%, 100%)" stroke-opacity="1" stroke-miterlimit="4" d="M 269.892578 233.78418 L 270.246582 274.56543 " transform="matrix(0.0551724, 0, 0, 0.0551724, 0, 0)"/>
<path fill="none" stroke-width="13.646" stroke-linecap="round" stroke-linejoin="round" stroke="rgb(100%, 100%, 100%)" stroke-opacity="1" stroke-miterlimit="4" d="M 323.134766 315.913086 C 307.558594 260.900879 230.952148 263.095703 217.712402 316.196289 " transform="matrix(0.0551724, 0, 0, 0.0551724, 0, 0)"/>
<path fill-rule="nonzero" fill="rgb(100%, 100%, 100%)" fill-opacity="1" d="M 11.613281 17.382812 L 18.1875 17.382812 L 17.226562 22.78125 L 12.585938 22.773438 Z M 11.613281 17.382812 "/>
<path fill="none" stroke-width="30.546" stroke-linecap="round" stroke-linejoin="round" stroke="rgb(100%, 100%, 100%)" stroke-opacity="1" stroke-miterlimit="4" d="M 405.05127 207.021484 L 477.692871 207.375488 L 478.684082 350.888672 L 535.891113 350.74707 " transform="matrix(0.0551724, 0, 0, 0.0551724, 0, 0)"/>
<path fill-rule="nonzero" fill="rgb(100%, 100%, 100%)" fill-opacity="1" d="M 8.425781 1.785156 L 22.71875 1.734375 C 22.71875 1.734375 26.742188 5.285156 29.160156 7.265625 L 1.539062 7.265625 C 4.128906 5.246094 8.425781 1.785156 8.425781 1.785156 Z M 8.425781 1.785156 "/>
<path fill-rule="nonzero" fill="rgb(100%, 100%, 100%)" fill-opacity="1" d="M 25.707031 27.761719 L 3.921875 27.761719 L 3.921875 29.800781 L 25.707031 29.800781 Z M 25.707031 27.761719 "/>

</g>%n%n</svg>