<svg width="300" height="40" viewBox="0 0 300 40" fill="none" xmlns="http://www.w3.org/2000/svg" xmlns:xlink="http://www.w3.org/1999/xlink">

<g transform="translate(130.000000, 0.000000) scale(2.500000 2.500000) "> 

 <path d="m5.8418 2.2969c-0.68917-0.0041212-1.4018 0.2023-1.9141 0.7207-0.69251 0.70085-1.4244 1.9152-1.5957 3.4922-0.17131 1.577 0.31721 3.4918 2.0215 5.2168 1.5883 1.6077 3.474 2.0854 5.0508 1.9531 1.5768-0.1323 2.8391-0.76606 3.584-1.5195 0.69867-0.70703 0.81878-1.732 0.63477-2.7012-0.18401-0.9692-0.66036-1.9777-1.3594-2.9688-0.07556-0.10706-0.17353-0.19637-0.28711-0.26172 0.02733-0.12637 0.12498-0.23129 0.125-0.36133-2.51e-4 -1.0304-0.93832-1.9685-1.9688-1.9688-0.15284-1.204e-4 -0.27835 0.10738-0.42578 0.14453-0.06488-0.16644-0.17772-0.30988-0.32422-0.41211-1.1915-0.82333-2.3918-1.327-3.541-1.334z" fill="#ebe7e4" opacity=".812" style="font-variant-east_asian:normal"/>

</g>%n%n
<g transform="translate(139.000000, 9.000000) scale(0.687500 0.687500) "> 

<path fill-rule="nonzero" fill="rgb(24.705882%, 24.705882%, 24.705882%)" fill-opacity="1" d="M 10.589844 4 C 9.289062 3.992188 8.191406 4.347656 7.421875 5.128906 C 4.761719 7.820312 0.792969 15.9375 8.492188 23.730469 C 15.53125 30.855469 24.210938 27.503906 26.871094 24.8125 C 28.992188 22.667969 28.023438 18.070312 24.820312 13.527344 C 24.214844 14.019531 23.503906 15.664062 23.835938 16.234375 C 25.421875 18.941406 25.882812 21.347656 24.773438 22.464844 C 23.070312 24.1875 18.3125 22.199219 14.15625 17.996094 C 10 13.789062 8.035156 8.976562 9.742188 7.25 C 10.78125 6.195312 12.953125 6.53125 15.449219 7.929688 C 16.035156 8.253906 17.695312 7.550781 18.171875 6.933594 C 15.445312 5.050781 12.75 4.011719 10.589844 4 Z M 21.332031 8 C 20.167969 8 19.140625 8.753906 18.789062 9.863281 L 14.570312 10.390625 C 13.84375 10.363281 13.265625 10.996094 13.351562 11.722656 C 13.433594 12.449219 14.140625 12.933594 14.835938 12.738281 L 19.199219 12.261719 C 19.363281 12.480469 19.558594 12.671875 19.78125 12.832031 L 19.253906 17.207031 C 19.0625 17.914062 19.539062 18.628906 20.257812 18.714844 C 20.976562 18.796875 21.601562 18.210938 21.574219 17.480469 L 22.0625 13.230469 C 23.207031 12.90625 24 11.859375 24 10.667969 C 24 9.195312 22.804688 8 21.332031 8 Z M 21.332031 8 "/>

</g>%n%n</svg>