<svg width="300" height="40" viewBox="0 0 300 40" fill="none" xmlns="http://www.w3.org/2000/svg" xmlns:xlink="http://www.w3.org/1999/xlink">

<g transform="translate(130.000000, 0.000000) scale(2.000000 2.000000) "> 

<g clip-path="url(#clip0)">
<path opacity="0.949" d="M9.9994 1C14.9626 1 19 5.00181 19 10C19 14.9655 14.9626 19 9.9994 19C5.0374 19 1 14.9655 1 10C1 5.00181 5.0374 1 9.9994 1Z" fill="#45ABE9"/>
<path opacity="0.95" fill-rule="evenodd" clip-rule="evenodd" d="M10 19C14.9706 19 19 14.9706 19 10C19 5.02944 14.9706 1 10 1C5.02944 1 1 5.02944 1 10C1 14.9706 5.02944 19 10 19ZM10 20C15.5228 20 20 15.5228 20 10C20 4.47715 15.5228 0 10 0C4.47715 0 0 4.47715 0 10C0 15.5228 4.47715 20 10 20Z" fill="#1578B3"/>
</g>
<defs>
<clipPath id="clip0">
<path d="M0 0H20V20H0V0Z" fill="white"/>
</clipPath>
</defs>

</g>%n%n
<g transform="translate(138.000000, 8.000000) scale(2.000000 2.000000) "> 

<path fill-rule="evenodd" fill="rgb(100%, 100%, 100%)" fill-opacity="1" d="M 3 10 C 2.722656 10 2.5 10.222656 2.5 10.5 C 2.5 10.777344 2.722656 11 3 11 L 9 11 C 9.277344 11 9.5 10.777344 9.5 10.5 C 9.5 10.222656 9.277344 10 9 10 Z M 3 10 "/>
<path fill-rule="evenodd" fill="rgb(100%, 100%, 100%)" fill-opacity="1" d="M 1.5 8.5 C 1.222656 8.5 1 8.722656 1 9 C 1 9.277344 1.222656 9.5 1.5 9.5 L 10.5 9.5 C 10.777344 9.5 11 9.277344 11 9 C 11 8.722656 10.777344 8.5 10.5 8.5 Z M 1.5 8.5 "/>
<path fill-rule="evenodd" fill="rgb(100%, 100%, 100%)" fill-opacity="1" d="M 10 4 L 9.15625 1.476562 C 9.0625 1.191406 8.796875 1 8.5 1 L 3.5 1 C 3.199219 1 2.9375 1.191406 2.84375 1.476562 L 2 4 L 2 7.25 C 2 7.664062 2.335938 8 2.75 8 C 3.164062 8 3.5 7.664062 3.5 7.25 L 3.5 7 L 8.5 7 L 8.5 7.25 C 8.5 7.664062 8.835938 8 9.25 8 C 9.664062 8 10 7.664062 10 7.25 Z M 8.28125 2 L 8.945312 4 L 3.054688 4 L 3.71875 2 Z M 4 5.5 C 4 5.777344 3.777344 6 3.5 6 C 3.222656 6 3 5.777344 3 5.5 C 3 5.222656 3.222656 5 3.5 5 C 3.777344 5 4 5.222656 4 5.5 Z M 9 5.5 C 9 5.777344 8.777344 6 8.5 6 C 8.222656 6 8 5.777344 8 5.5 C 8 5.222656 8.222656 5 8.5 5 C 8.777344 5 9 5.222656 9 5.5 Z M 9 5.5 "/>

</g>%n%n</svg>