<svg width="300" height="40" viewBox="0 0 300 40" fill="none" xmlns="http://www.w3.org/2000/svg" xmlns:xlink="http://www.w3.org/1999/xlink">

<g transform="translate(130.000000, 0.000000) scale(2.500000 2.500000) "> 

<path d="M2 4.5C2 3.67157 2.67157 3 3.5 3H5.5C6.0317 3 6.52463 3.16598 6.9298 3.44896C7.20197 3.17187 7.58091 3 8 3C8.41909 3 8.79803 3.17187 9.0702 3.44896C9.47537 3.16598 9.9683 3 10.5 3H12.5C13.3284 3 14 3.67157 14 4.5C14 5.19173 13.5318 5.77411 12.895 5.94746C12.9627 6.11845 13 6.30488 13 6.5C13 7.32843 12.3284 8 11.5 8C12.3284 8 13 8.67157 13 9.5C13 9.68122 12.9679 9.85493 12.909 10.0158C12.9045 10.0281 12.8998 10.0404 12.895 10.0525C13.5318 10.2259 14 10.8083 14 11.5C14 12.3284 13.3284 13 12.5 13H10.5C9.9683 13 9.47537 12.834 9.0702 12.551C8.79803 12.8281 8.41909 13 8 13C7.58091 13 7.20197 12.8281 6.9298 12.551C6.52463 12.834 6.0317 13 5.5 13H3.5C2.67157 13 2 12.3284 2 11.5C2 10.8083 2.46823 10.2259 3.10504 10.0525C3.10021 10.0404 3.09554 10.0281 3.09102 10.0158C3.03214 9.85493 3 9.68122 3 9.5C3 8.67157 3.67157 8 4.5 8C3.67157 8 3 7.32843 3 6.5C3 6.30488 3.03726 6.11845 3.10504 5.94746C2.46823 5.77411 2 5.19173 2 4.5Z" fill="#EBE7E4" fill-opacity="0.8"/>

</g>%n%n
<g transform="translate(139.000000, 9.000000) scale(1.833333 1.833333) "> 

<path fill-rule="evenodd" fill="rgb(24.705882%, 24.705882%, 24.705882%)" fill-opacity="1" d="M 1 2.5 C 1 2.222656 1.222656 2 1.5 2 L 3.5 2 C 4.328125 2 5 2.671875 5 3.5 C 5 3.957031 4.792969 4.367188 4.46875 4.644531 C 4.800781 5 5 5.476562 5 6 C 5 6.523438 4.800781 7 4.46875 7.355469 C 4.792969 7.632812 5 8.042969 5 8.5 C 5 9.328125 4.328125 10 3.5 10 L 1.5 10 C 1.222656 10 1 9.777344 1 9.5 C 1 9.222656 1.222656 9 1.5 9 L 3.5 9 C 3.777344 9 4 8.777344 4 8.5 C 4 8.222656 3.777344 8 3.5 8 L 2.5 8 C 2.222656 8 2 7.777344 2 7.5 C 2 7.222656 2.222656 7 2.5 7 L 3 7 C 3.550781 7 4 6.550781 4 6 C 4 5.449219 3.550781 5 3 5 L 2.5 5 C 2.222656 5 2 4.777344 2 4.5 C 2 4.222656 2.222656 4 2.5 4 L 3.5 4 C 3.777344 4 4 3.777344 4 3.5 C 4 3.222656 3.777344 3 3.5 3 L 1.5 3 C 1.222656 3 1 2.777344 1 2.5 Z M 11 2.5 C 11 2.222656 10.777344 2 10.5 2 L 8.5 2 C 7.671875 2 7 2.671875 7 3.5 C 7 3.957031 7.207031 4.367188 7.53125 4.644531 C 7.199219 5 7 5.476562 7 6 C 7 6.523438 7.199219 7 7.53125 7.355469 C 7.207031 7.632812 7 8.042969 7 8.5 C 7 9.328125 7.671875 10 8.5 10 L 10.5 10 C 10.777344 10 11 9.777344 11 9.5 C 11 9.222656 10.777344 9 10.5 9 L 8.5 9 C 8.222656 9 8 8.777344 8 8.5 C 8 8.222656 8.222656 8 8.5 8 L 9.5 8 C 9.777344 8 10 7.777344 10 7.5 C 10 7.222656 9.777344 7 9.5 7 L 9 7 C 8.449219 7 8 6.550781 8 6 C 8 5.449219 8.449219 5 9 5 L 9.5 5 C 9.777344 5 10 4.777344 10 4.5 C 10 4.222656 9.777344 4 9.5 4 L 8.5 4 C 8.222656 4 8 3.777344 8 3.5 C 8 3.222656 8.222656 3 8.5 3 L 10.5 3 C 10.777344 3 11 2.777344 11 2.5 Z M 6.5 2.5 C 6.5 2.222656 6.277344 2 6 2 C 5.722656 2 5.5 2.222656 5.5 2.5 L 5.5 9.5 C 5.5 9.777344 5.722656 10 6 10 C 6.277344 10 6.5 9.777344 6.5 9.5 Z M 6.5 2.5 "/>

</g>%n%n</svg>