<svg width="300" height="40" viewBox="0 0 300 40" fill="none" xmlns="http://www.w3.org/2000/svg" xmlns:xlink="http://www.w3.org/1999/xlink">

<g transform="translate(130.000000, 0.000000) scale(2.500000 2.500000) "> 

 <path transform="matrix(.288 0 0 .288 1.0863 1.0427)" d="m12 4a2.0002 2.0002 0 0 0-2 2v6.0117l-5.0312-0.05078c-1.5808-0.03161-3.0432 1.3897-3.0586 2.9707-0.01544 1.581 1.4189 3.03 3 3.0293l5.0898 0.05078v0.07031h-4.9297c-1.5848-0.02241-3.041 1.415-3.041 3 0 1.585 1.4562 3.0224 3.041 3h4.9297v15.918a2.0002 2.0002 0 0 0 2 2h24a2.0002 2.0002 0 0 0 2-2v-16h4.9727c1.5848 0.02241 3.041-1.415 3.041-3s-1.4562-3.0224-3.041-3c1.5848 0.02241 3.041-1.415 3.041-3s-1.4562-3.0224-3.041-3h-4.9727v-6a2.0002 2.0002 0 0 0-2-2h-1zm4 6h8a2.0002 2.0002 0 0 0-1.8184 1.166l-5.7285 12.484a2.0002 2.0002 0 0 0 1.8184 2.834h2.7773l-3.6895 8.7383a2.0002 2.0002 0 0 0-0.1582 0.77734h-1.2012zm12.951 0h3.0488v4.832l0.02734-0.32617c-0.05342 0.32323-0.05342 0.65529 0 0.97852l-0.02734-0.32617v4.6895a2.0002 2.0002 0 0 0-1.7285-1h-2.8496l3.2754-5.873a2.0002 2.0002 0 0 0-1.7461-2.9746zm3.0488 11.854v14.146h-10.322l10.209-13.973a2.0002 2.0002 0 0 0 0.11328-0.17383z" fill="#ebe7e4" opacity=".799" stroke-width="3.4722"/>

</g>%n%n
<g transform="translate(139.000000, 9.000000) scale(0.687500 0.687500) "> 

<path fill-rule="nonzero" fill="rgb(24.705882%, 24.705882%, 24.705882%)" fill-opacity="1" d="M 16 8 L 12.179688 16.324219 L 16.042969 16.324219 L 12.800781 24 L 20.179688 13.898438 L 16.011719 13.898438 L 19.300781 8 Z M 16 8 "/>
<path fill="none" stroke-width="2" stroke-linecap="butt" stroke-linejoin="miter" stroke="rgb(24.705882%, 24.705882%, 24.705882%)" stroke-opacity="1" stroke-miterlimit="4" d="M 34.998047 7.001953 L 34.998047 39 L 13.001953 39 L 13.001953 7.001953 Z M 34.998047 7.001953 " transform="matrix(0.666667, 0, 0, 0.666667, 0, 0)"/>
<path fill="none" stroke-width="2" stroke-linecap="round" stroke-linejoin="miter" stroke="rgb(24.705882%, 24.705882%, 24.705882%)" stroke-opacity="1" stroke-miterlimit="4" d="M 4.921875 14.964844 L 12.808594 15.041016 " transform="matrix(0.666667, 0, 0, 0.666667, 0, 0)"/>
<path fill="none" stroke-width="2" stroke-linecap="round" stroke-linejoin="miter" stroke="rgb(24.705882%, 24.705882%, 24.705882%)" stroke-opacity="1" stroke-miterlimit="4" d="M 5.044922 21.082031 L 12.902344 21.082031 " transform="matrix(0.666667, 0, 0, 0.666667, 0, 0)"/>
<path fill="none" stroke-width="2" stroke-linecap="round" stroke-linejoin="miter" stroke="rgb(24.705882%, 24.705882%, 24.705882%)" stroke-opacity="1" stroke-miterlimit="4" d="M 34.998047 15 L 43.001953 15 " transform="matrix(0.666667, 0, 0, 0.666667, 0, 0)"/>
<path fill="none" stroke-width="2" stroke-linecap="round" stroke-linejoin="miter" stroke="rgb(24.705882%, 24.705882%, 24.705882%)" stroke-opacity="1" stroke-miterlimit="4" d="M 34.998047 21 L 43.001953 21 " transform="matrix(0.666667, 0, 0, 0.666667, 0, 0)"/>

</g>%n%n</svg>