<svg width="300" height="40" viewBox="0 0 300 40" fill="none" xmlns="http://www.w3.org/2000/svg" xmlns:dc="http://purl.org/dc/elements/1.1/"  xmlns:cc="http://creativecommons.org/ns#"  xmlns:rdf="http://www.w3.org/1999/02/22-rdf-syntax-ns#"  xmlns:svg="http://www.w3.org/2000/svg"  xmlns:sodipodi="http://sodipodi.sourceforge.net/DTD/sodipodi-0.dtd"  xmlns:inkscape="http://www.inkscape.org/namespaces/inkscape"  version="1.1"  id="svg6"  sodipodi:docname="satellite_dish.svg"  style="fill:none"  inkscape:version="0.92.5 (2060ec1f9f, 2020-04-08)">

<g transform="translate(130.000000, 0.000000) scale(2.500000 2.500000) "> 

  <metadata
     id="metadata10">
    <rdf:RDF>
      <cc:Work
         rdf:about="">
        <dc:format>image/svg+xml</dc:format>
        <dc:type
           rdf:resource="http://purl.org/dc/dcmitype/StillImage" />
        <dc:title></dc:title>
      </cc:Work>
    </rdf:RDF>
  </metadata>
  <defs
     id="defs8" />
  <sodipodi:namedview
     pagecolor="#ffffff"
     bordercolor="#666666"
     borderopacity="1"
     objecttolerance="10"
     gridtolerance="10"
     guidetolerance="10"
     inkscape:pageopacity="0"
     inkscape:pageshadow="2"
     inkscape:window-width="1920"
     inkscape:window-height="1014"
     id="namedview6"
     showgrid="true"
     inkscape:zoom="20.85965"
     inkscape:cx="6.7684817"
     inkscape:cy="11.155345"
     inkscape:window-x="1920"
     inkscape:window-y="0"
     inkscape:window-maximized="1"
     inkscape:current-layer="svg4">
    <inkscape:grid
       type="xygrid"
       id="grid827"
       spacingx="1"
       spacingy="1" />
  </sodipodi:namedview>
  <path
     style="fill:#ebe7e4;fill-opacity:1;stroke-width:1;font-variant-east_asian:normal;opacity:0.81199999;vector-effect:none;stroke-linecap:butt;stroke-linejoin:miter;stroke-miterlimit:4;stroke-dasharray:none;stroke-dashoffset:0;stroke-opacity:1"
     d="M 5.8417969,2.296875 C 5.1526272,2.2927538 4.4400409,2.4991721 3.9277344,3.0175781 3.2352196,3.7184252 2.5033443,4.9327349 2.3320312,6.5097656 2.1607182,8.0867964 2.649244,10.00152 4.3535156,11.726562 c 1.5883064,1.607692 3.4739775,2.085426 5.0507813,1.953126 1.5768041,-0.132301 2.8390521,-0.766055 3.5839841,-1.519532 0.698672,-0.707033 0.818775,-1.731971 0.634766,-2.7011716 -0.184009,-0.9692002 -0.660365,-1.9777478 -1.359375,-2.96875 -0.07556,-0.1070582 -0.173533,-0.196369 -0.28711,-0.2617188 0.02733,-0.1263706 0.124979,-0.2312869 0.125,-0.3613281 -2.51e-4,-1.0304333 -0.938316,-1.9684992 -1.96875,-1.96875 C 9.9799718,3.8983171 9.8544664,4.005819 9.7070312,4.0429688 9.6421514,3.8765244 9.5293097,3.733093 9.3828125,3.6308594 8.1913116,2.8075304 6.9909736,2.3038124 5.8417969,2.296875 Z"
     id="path4"
     inkscape:connector-curvature="0"
     sodipodi:nodetypes="ccscscsccccccc" />

</g>%n%n
<g transform="translate(139.000000, 9.000000) scale(0.458333 0.458333) "> 

  <metadata
     id="metadata12">
    <rdf:RDF>
      <cc:Work
         rdf:about="">
        <dc:format>image/svg+xml</dc:format>
        <dc:type
           rdf:resource="http://purl.org/dc/dcmitype/StillImage" />
        <dc:title></dc:title>
      </cc:Work>
    </rdf:RDF>
  </metadata>
  <defs
     id="defs10">
    <clip100Path
       id="clip1000">
      <path
         style="fill:#3f3f3f"
         inkscape:connector-curvature="0"
         d="M 0,0 H 580 V 580 H 0 Z"
         id="path6" />
    </clip100Path>
  </defs>
  <sodipodi:namedview
     pagecolor="#ffffff"
     bordercolor="#666666"
     borderopacity="1"
     objecttolerance="10"
     gridtolerance="10"
     guidetolerance="10"
     inkscape:pageopacity="0"
     inkscape:pageshadow="2"
     inkscape:window-width="1920"
     inkscape:window-height="1014"
     id="namedview8"
     showgrid="true"
     inkscape:snap-grids="true"
     inkscape:zoom="13.02069"
     inkscape:cx="15.047657"
     inkscape:cy="25.315559"
     inkscape:window-x="1920"
     inkscape:window-y="0"
     inkscape:window-maximized="1"
     inkscape:current-layer="svg6">
    <inkscape:grid
       type="xygrid"
       id="grid822"
       spacingx="2"
       spacingy="2" />
  </sodipodi:namedview>
  <path
     style="fill:#3f3f3f;fill-opacity:1;stroke-width:1;font-variant-east_asian:normal;opacity:1;vector-effect:none;stroke-linecap:butt;stroke-linejoin:miter;stroke-miterlimit:4;stroke-dasharray:none;stroke-dashoffset:0;stroke-opacity:1"
     d="M 15.882812 6 C 13.936184 5.988361 12.287202 6.5232487 11.130859 7.6933594 C 7.1437122 11.728479 1.1881618 23.904841 12.736328 35.59375 C 23.299568 46.28591 36.317392 41.253757 40.306641 37.21875 C 43.486584 34.00075 42.03581 27.104468 37.228516 20.289062 C 36.324874 21.028063 35.25477 23.497733 35.755859 24.351562 C 38.134899 28.412647 38.821643 32.020052 37.162109 33.697266 C 34.60745 36.282589 27.466257 33.299707 21.234375 26.994141 C 14.999408 20.685453 12.052356 13.46653 14.611328 10.876953 C 16.174426 9.2928554 19.430606 9.7948841 23.175781 11.892578 C 24.051553 12.382334 26.542618 11.327576 27.257812 10.402344 C 23.169141 7.5770661 19.127119 6.019586 15.882812 6 z M 32 12 A 4 4 0 0 0 28.185547 14.796875 L 21.853516 15.587891 C 20.767841 15.545811 19.900866 16.491656 20.025391 17.583984 C 20.149917 18.676309 21.208227 19.400589 22.255859 19.109375 L 28.798828 18.392578 A 4 4 0 0 0 29.669922 19.246094 L 28.880859 25.8125 C 28.5931 26.872817 29.307458 27.944294 30.386719 28.070312 C 31.46609 28.196334 32.40291 27.317458 32.361328 26.21875 L 33.09375 19.845703 A 4 4 0 0 0 36 16 A 4 4 0 0 0 32 12 z "
     id="path4" />

</g>%n%n</svg>