<svg width="300" height="35" viewBox="0 0 300 35" fill="none" xmlns="http://www.w3.org/2000/svg">

<g transform="translate(135.000000, 2.000000) scale(1.875000 1.875000) "> 

<path opacity="0.812" d="M4.89281 1.91221C4.70644 1.95343 4.54271 2.08647 4.46421 2.26045L1.75867 7.64474C1.57716 8.02076 1.9037 8.5339 2.32121 8.52873H4.08919L2.21406 12.6004C2.08075 12.8724 2.18643 13.2376 2.44442 13.3964C2.7024 13.5551 3.07603 13.4849 3.25877 13.2433L8.42876 6.73396C8.70553 6.37312 8.40132 5.74781 7.94659 5.74283H6.12504L7.86622 2.84978C8.09511 2.4755 7.76914 1.90504 7.33047 1.91221H5.02675C4.98228 1.90735 4.93728 1.90735 4.89281 1.91221ZM11.4022 6.8679C10.486 6.8679 9.64674 7.02138 8.9913 7.32329C8.33586 7.6252 7.75907 8.13276 7.75907 8.87696C7.75907 9.08832 7.92799 9.23104 8.02695 9.41271C8.03093 9.42001 8.02285 9.43228 8.02695 9.4395V10.2163C7.92233 10.4097 7.75907 10.5667 7.75907 10.8057C7.75907 11.0486 7.92295 11.1871 8.02695 11.3682C8.03513 11.3824 8.01851 11.408 8.02695 11.4218V12.1718C7.92233 12.3652 7.75907 12.5222 7.75907 12.7612C7.75907 13.1333 7.93103 13.478 8.16089 13.7255C8.39074 13.973 8.69034 14.1411 9.01809 14.288C9.67358 14.5819 10.4893 14.7434 11.4022 14.7434C12.3151 14.7434 13.1308 14.5819 13.7863 14.288C14.114 14.1411 14.4136 13.973 14.6435 13.7255C14.8733 13.478 15.0453 13.1333 15.0453 12.7612C15.0453 12.4575 14.8769 12.3047 14.7506 12.1183V11.4218C14.8782 11.2349 15.0453 11.0916 15.0453 10.8057C15.0453 10.5064 14.8774 10.3512 14.7506 10.1628V9.43951V9.41272C14.8611 9.23519 15.0453 9.11755 15.0453 8.87697C15.0453 8.13277 14.4685 7.62521 13.813 7.32329C13.1576 7.02138 12.3183 6.8679 11.4022 6.8679Z" fill="#EBE7E4"/>

</g>


<g transform="translate(139.000000, 6.000000) scale(0.037931 0.037931) "> 

<path d="M431.068 290.884C498.618 290.884 535.888 315.341 535.888 325.823C535.888 336.305 498.618 360.763 431.068 360.763C363.518 360.763 326.249 336.305 326.249 325.823C326.249 315.341 363.518 290.884 431.068 290.884ZM431.068 267.59C360.024 267.59 302.955 293.213 302.955 325.823C302.955 358.434 359.705 377.37 430.75 377.37C501.794 377.37 559.181 358.434 559.181 325.823C559.181 293.213 502.112 267.59 431.068 267.59Z" fill="#3f3f3f"/>
<path d="M384.482 337.47C397.346 337.47 407.775 332.256 407.775 325.823C407.775 319.391 397.346 314.177 384.482 314.177C371.617 314.177 361.188 319.391 361.188 325.823C361.188 332.256 371.617 337.47 384.482 337.47Z" fill="#3f3f3f"/>
<path d="M388.634 475.153C388.634 486.726 394.42 504.086 413.709 513.73C409.851 506.015 405.993 490.584 405.993 480.94C405.993 455.865 423.353 415.359 425.282 401.858C411.78 428.861 388.634 455.865 388.634 475.153Z" fill="#3f3f3f"/>
<path d="M547.534 431.808C554.522 424.82 559.181 416.667 559.181 407.35C559.181 398.032 554.522 391.044 547.534 382.892C547.534 358.434 547.534 351.446 547.534 349.117C547.534 349.117 497.454 375.904 428.739 375.904C360.024 375.904 314.602 349.117 314.602 349.117C314.602 351.446 314.602 359.599 314.602 382.892C307.614 389.88 302.955 398.032 302.955 407.35C302.955 416.667 307.614 423.655 314.602 431.808C314.602 448.113 314.602 452.771 314.602 465.583C307.614 472.571 302.955 480.723 302.955 490.041C302.955 522.651 360.024 548.274 431.068 548.274C502.112 548.274 559.181 522.651 559.181 490.041C559.181 481.888 554.522 473.735 547.534 465.583C547.534 452.771 547.534 448.113 547.534 431.808ZM431.068 531.089C398.278 531.089 373.203 507.943 373.203 477.082C373.203 440.434 431.068 376.783 431.068 376.783C431.068 376.783 488.933 442.363 488.933 477.082C488.933 507.943 463.858 531.089 431.068 531.089Z" fill="#3f3f3f"/>
<path d="M161.475 57.8922L47.9465 285.356H162.7L66.3817 495.144L285.737 219.083H161.766L259.601 57.8922H161.475Z" fill="#3f3f3f"/>

</g>

</svg>