<svg width="300" height="40" viewBox="0 0 300 40" fill="none" xmlns="http://www.w3.org/2000/svg" xmlns:xlink="http://www.w3.org/1999/xlink">

<g transform="translate(130.000000, 0.000000) scale(2.500000 2.500000) "> 

<path opacity="0.801" d="M3.52962 2C3.24654 2 2.92219 2.06032 2.59385 2.30521C2.26551 2.55011 2 3.0423 2 3.55721V7.71807C2.00002 7.93613 2.08345 8.14525 2.23194 8.29944C2.38042 8.45363 2.58181 8.54026 2.7918 8.54028H3.77556C3.98555 8.54026 4.18694 8.45363 4.33542 8.29944C4.48391 8.14525 4.56734 7.93613 4.56736 7.71807V6.19824H4.63484V7.71807C4.63486 7.93613 4.71829 8.14525 4.86678 8.29944C5.01527 8.45363 5.21665 8.54026 5.42665 8.54028H7.5936C7.54334 8.65026 7.51721 8.77047 7.51712 8.89221V9.57894C7.51761 9.61281 7.52012 9.64661 7.52463 9.68016C7.46641 9.70496 7.35758 9.71941 7.31168 9.73933C7.15223 9.80854 7.0544 9.825 7.11373 9.82186C6.90818 9.82835 6.71313 9.91762 6.56983 10.0708C6.42653 10.2239 6.34623 10.429 6.34592 10.6425V11.3308C6.34624 11.3927 6.35328 11.4543 6.36691 11.5145C6.2938 11.5444 6.16684 11.5623 6.11198 11.5862C5.9529 11.6554 5.85613 11.6719 5.91553 11.6687C5.70998 11.6752 5.51493 11.7645 5.37163 11.9176C5.22833 12.0708 5.14803 12.2758 5.14772 12.4894V13.1776C5.14773 13.3941 5.22992 13.6018 5.37646 13.7557C5.52301 13.9097 5.72209 13.9974 5.93052 13.9999C5.94033 14 5.95175 14.0001 5.96801 13.9999C5.97752 13.9995 5.98702 13.999 5.99651 13.9983C6.35158 13.9795 6.5683 13.8588 6.72382 13.7911C6.87685 13.7246 6.96325 13.7115 6.91428 13.7133C6.85779 13.715 6.8847 13.7071 7.01475 13.7616C7.14875 13.8176 7.37719 13.9362 7.72258 13.9438C7.72607 13.9438 7.72957 13.9438 7.73307 13.9438C8.07319 13.9467 8.29881 13.845 8.44839 13.7927C8.59798 13.7404 8.66804 13.7341 8.64784 13.7335C8.65084 13.7335 8.65384 13.7335 8.65684 13.7335C8.6279 13.7331 8.71588 13.7481 8.88029 13.8098C9.0447 13.8716 9.28737 13.9794 9.6391 13.978C9.6441 13.9781 9.64909 13.9781 9.65409 13.978C10.0114 13.9693 10.249 13.8472 10.4024 13.7834C10.5558 13.7195 10.6233 13.7115 10.5959 13.7117H10.5674C10.7146 13.7161 10.5415 13.6827 10.5779 13.6977C10.6053 13.7092 10.6333 13.7191 10.6618 13.7273C10.7397 13.7496 10.8729 13.8019 11.0397 13.8566C11.0405 13.8568 11.042 13.8563 11.0427 13.8566C11.1963 13.9105 11.4001 13.9791 11.6681 13.9781C11.6731 13.9781 11.6781 13.9781 11.6831 13.9781C12.0404 13.9693 12.278 13.8472 12.4314 13.7834C12.5823 13.7206 12.6458 13.7134 12.6218 13.7133C12.6029 13.7139 12.7388 13.7421 12.9518 13.8177C13.071 13.86 13.1983 13.8722 13.323 13.8532C13.4477 13.8342 13.5663 13.7846 13.6688 13.7085C13.7714 13.6323 13.8549 13.5318 13.9125 13.4154C13.9701 13.299 14.0001 13.17 14 13.0391V12.3523C13.9998 12.1427 13.9226 11.9411 13.7841 11.7886C13.9226 11.6362 13.9998 11.4345 14 11.2249V10.5382C14 10.4243 13.9772 10.3116 13.933 10.2073C13.8889 10.1031 13.8244 10.0094 13.7436 9.93242C13.8242 9.85558 13.8886 9.76222 13.9327 9.65823C13.9769 9.55423 13.9998 9.44187 14 9.32823V8.63994C14.0001 8.45705 13.9414 8.27935 13.8333 8.13495C13.7252 7.99055 13.5739 7.88769 13.4031 7.84265C13.2809 7.81035 13.1352 7.78036 12.9593 7.78036C12.9573 7.78035 12.9553 7.78035 12.9533 7.78036C12.7247 7.78219 12.6742 7.84504 12.5289 7.89559V7.56079C12.5289 6.43032 11.9413 5.5755 11.2092 5.22342C10.936 5.09203 10.7834 5.11842 10.5749 5.09262C10.5037 4.97509 10.4051 4.87819 10.2881 4.81093C10.1712 4.74368 10.0397 4.70826 9.90603 4.70799H9.27019C9.1566 4.70815 9.04438 4.73368 8.94114 4.78285C8.8379 4.83202 8.74605 4.90368 8.67183 4.99296H8.51887V3.61638L8.51738 3.67556C8.53913 3.36548 8.51094 2.94731 8.22645 2.56838C7.94195 2.18945 7.44489 2 6.95626 2H3.52962V2ZM8.51887 7.6262H8.67333C8.75632 7.7245 8.86068 7.80083 8.97776 7.84888C8.79117 7.89493 8.58676 7.94226 8.47988 7.98903C8.47378 7.9917 8.47829 7.98963 8.47238 7.99214C8.50276 7.90419 8.51848 7.81151 8.51887 7.71808V7.6262L8.51887 7.6262ZM9.99301 7.90182V7.95633C9.9917 7.95579 9.9928 7.95687 9.99147 7.95633C9.95425 7.94062 9.85078 7.92895 9.79952 7.90805H9.90599C9.93507 7.90764 9.96411 7.90556 9.99297 7.90182L9.99301 7.90182ZM9.87903 9.55402H9.88803C9.88588 9.55396 9.88565 9.55562 9.8835 9.55562C9.88151 9.55558 9.88097 9.5541 9.87897 9.55402H9.87903ZM8.68083 11.4009H8.68983C8.68771 11.4008 8.68744 11.4025 8.68533 11.4025C8.68317 11.4024 8.683 11.401 8.68083 11.4009H8.68083Z" fill="#EBE7E4"/>

</g>%n%n
<g transform="translate(139.000000, 9.000000) scale(0.687500 0.687500) "> 

<path fill-rule="nonzero" fill="rgb(24.705882%, 24.705882%, 24.705882%)" fill-opacity="1" d="M 2.597656 4.941406 L 2.597656 15.390625 L 5.160156 15.390625 L 5.160156 9.511719 L 9.464844 9.511719 L 9.464844 15.390625 L 15.464844 15.390625 L 15.464844 5.09375 C 15.535156 4.121094 15.191406 3.097656 13.453125 3.097656 L 4.519531 3.097656 C 3.792969 3.097656 2.597656 3.492188 2.597656 4.941406 Z M 2.597656 4.941406 "/>
<path fill-rule="evenodd" fill="rgb(24.705882%, 24.705882%, 24.705882%)" fill-opacity="1" d="M 19.515625 17.609375 C 19.492188 17.609375 19.46875 17.609375 19.441406 17.609375 C 18.65625 17.644531 17.789062 18.296875 17.019531 18.335938 C 17.007812 18.335938 16.992188 18.335938 16.976562 18.335938 L 16.976562 20.0625 C 16.992188 20.0625 17.007812 20.0625 17.019531 20.0625 C 17.789062 20.03125 18.65625 19.363281 19.441406 19.339844 C 20.210938 19.304688 20.898438 19.910156 21.671875 19.925781 C 21.761719 19.925781 21.851562 19.917969 21.941406 19.90625 L 21.941406 18.175781 C 21.851562 18.1875 21.761719 18.195312 21.671875 18.195312 C 20.921875 18.179688 20.253906 17.621094 19.515625 17.609375 Z M 29.101562 17.609375 C 28.515625 17.617188 27.960938 17.914062 27.40625 18.109375 L 27.40625 19.835938 C 27.960938 19.640625 28.515625 19.34375 29.101562 19.339844 C 29.316406 19.335938 29.53125 19.375 29.75 19.429688 L 29.75 17.703125 C 29.53125 17.648438 29.316406 17.609375 29.101562 17.609375 Z M 29.101562 17.609375 "/>
<path fill-rule="evenodd" fill="rgb(24.705882%, 24.705882%, 24.705882%)" fill-opacity="1" d="M 16.464844 22.007812 C 16.4375 22.007812 16.414062 22.007812 16.390625 22.007812 C 15.601562 22.042969 14.738281 22.691406 13.96875 22.730469 C 13.953125 22.730469 13.9375 22.730469 13.925781 22.730469 L 13.925781 24.460938 C 13.9375 24.460938 13.953125 24.460938 13.96875 24.460938 C 14.738281 24.417969 15.601562 23.765625 16.390625 23.734375 C 17.160156 23.707031 17.84375 24.304688 18.617188 24.320312 C 19.402344 24.324219 20.199219 23.769531 21.042969 23.792969 C 21.339844 23.796875 21.640625 23.878906 21.941406 23.980469 L 21.941406 22.25 C 21.640625 22.148438 21.339844 22.070312 21.042969 22.0625 C 20.199219 22.042969 19.402344 22.597656 18.617188 22.59375 C 17.867188 22.574219 17.203125 22.019531 16.464844 22.007812 Z M 27.40625 22.3125 L 27.40625 24.050781 C 27.566406 24.105469 27.726562 24.160156 27.882812 24.207031 C 28.203125 24.316406 28.527344 24.40625 28.851562 24.402344 C 29.15625 24.398438 29.453125 24.304688 29.75 24.195312 L 29.75 22.46875 C 29.453125 22.578125 29.15625 22.667969 28.851562 22.675781 C 28.582031 22.675781 28.308594 22.617188 28.039062 22.53125 C 28.007812 22.523438 27.976562 22.511719 27.949219 22.503906 C 27.765625 22.441406 27.585938 22.375 27.40625 22.3125 Z M 27.40625 22.3125 "/>
<path fill-rule="evenodd" fill="rgb(24.705882%, 24.705882%, 24.705882%)" fill-opacity="0.801932" d="M 19.484375 9.894531 L 19.484375 10.609375 L 17.183594 10.609375 L 17.183594 13.09375 L 19.484375 13.09375 L 19.484375 13.800781 L 21.140625 13.800781 L 21.140625 13.09375 L 21.628906 13.09375 C 21.671875 13.09375 21.714844 13.089844 21.761719 13.085938 C 21.761719 13.085938 22.21875 13.0625 22.628906 13.25 C 23.039062 13.441406 23.433594 13.625 23.433594 14.992188 L 23.433594 25.609375 L 25.914062 25.609375 L 25.914062 14.992188 C 25.914062 12.898438 24.785156 11.511719 23.671875 10.996094 C 22.839844 10.609375 22.035156 10.589844 21.683594 10.605469 C 21.628906 10.605469 21.628906 10.609375 21.597656 10.609375 L 21.140625 10.609375 L 21.140625 9.894531 Z M 19.484375 9.894531 "/>
<path fill-rule="evenodd" fill="rgb(24.705882%, 24.705882%, 24.705882%)" fill-opacity="1" d="M 13.339844 26.644531 C 13.316406 26.644531 13.289062 26.644531 13.265625 26.644531 C 12.476562 26.679688 11.613281 27.328125 10.84375 27.367188 C 10.828125 27.367188 10.816406 27.367188 10.800781 27.367188 L 10.800781 29.09375 C 10.816406 29.09375 10.828125 29.09375 10.84375 29.09375 C 11.613281 29.054688 12.476562 28.402344 13.265625 28.371094 C 14.035156 28.34375 14.71875 28.9375 15.496094 28.957031 C 16.28125 28.960938 17.078125 28.40625 17.917969 28.429688 C 18.746094 28.441406 19.589844 29.042969 20.4375 29.039062 C 21.269531 29.019531 22.058594 28.378906 22.925781 28.371094 C 23.339844 28.382812 23.433594 28.398438 23.660156 28.488281 C 24.023438 28.585938 24.394531 28.730469 24.757812 28.84375 C 25.082031 28.953125 25.402344 29.042969 25.726562 29.039062 C 26.558594 29.019531 27.347656 28.378906 28.214844 28.371094 C 28.710938 28.371094 29.234375 28.570312 29.75 28.746094 L 29.75 27.023438 C 29.234375 26.84375 28.710938 26.644531 28.214844 26.644531 C 27.347656 26.652344 26.558594 27.292969 25.726562 27.3125 C 25.457031 27.3125 25.183594 27.253906 24.914062 27.167969 C 24.882812 27.15625 24.855469 27.148438 24.824219 27.140625 C 24.425781 27.007812 23.855469 27.132812 23.460938 27.050781 C 23.222656 26.984375 23.15625 26.644531 22.925781 26.644531 C 22.058594 26.652344 21.269531 27.292969 20.4375 27.3125 C 19.589844 27.316406 18.746094 26.714844 17.917969 26.699219 C 17.078125 26.675781 16.28125 27.234375 15.496094 27.226562 C 14.746094 27.210938 14.078125 26.65625 13.339844 26.644531 Z M 13.339844 26.644531 "/>

</g>%n%n</svg>