<svg width="300" height="40" viewBox="0 0 300 40" fill="none" xmlns="http://www.w3.org/2000/svg" xmlns:xlink="http://www.w3.org/1999/xlink">

<g transform="translate(130.000000, 0.000000) scale(2.500000 2.500000) "> 

<path opacity="0.807" d="M6.32611 1.20709C5.28796 1.20709 4.43636 2.05869 4.43636 3.09684C4.43636 3.45933 4.64893 3.73463 4.83139 4.01912H4.23718C3.82777 4.01912 3.44698 4.20095 3.19103 4.57483C2.97611 4.8888 2.90983 5.20388 2.90983 5.53394C2.90983 5.78685 3.01071 6.02701 3.12576 6.26875H2.71065C2.4865 6.26886 2.27156 6.35795 2.11307 6.51645C1.95457 6.67495 1.86548 6.88988 1.86536 7.11403V9.28331L1.86871 9.20967C1.86218 9.28502 1.86218 9.36195 1.86871 9.43731L1.86536 9.36366V11.2651V13.7022C1.86536 14.4913 2.40362 15.0296 3.19271 15.0296C3.9818 15.0296 4.49327 14.4298 4.49327 13.7022V12.1104H7.03414V13.729L7.05423 13.5466C6.86471 14.4014 7.46688 15.1367 8.33471 15.1367C9.20254 15.1367 9.80471 14.4014 9.61519 13.5466L9.63527 13.729V9.39044L9.63192 9.46409C9.63845 9.38873 9.63845 9.3118 9.63192 9.23645L9.63527 9.31009V7.11403C9.63475 6.99633 9.60967 6.88003 9.56162 6.77257C9.71721 6.66166 9.96504 6.61771 10.0504 6.49304C10.298 6.13133 10.2705 5.93414 10.278 5.81681H13.7445C14.089 5.81681 14.3889 5.73649 14.6902 5.43518C14.9294 5.19604 15.0719 4.86069 15.0719 4.51625C15.0719 4.17182 14.9294 3.83646 14.6902 3.59732C14.3889 3.29601 14.089 3.21569 13.7445 3.21569H12.7151V2.37375C12.715 2.1496 12.6259 1.93467 12.4674 1.77617C12.3089 1.61767 12.094 1.52858 11.8698 1.52847H11.0664C10.8741 1.52846 10.6875 1.594 10.5375 1.71426L10.5023 1.74272H9.68884L9.58004 1.67074C9.44127 1.57813 9.2782 1.52863 9.11137 1.52847H8.33471C8.20825 1.52828 8.08336 1.55645 7.96922 1.6109C7.85509 1.66536 7.75463 1.74473 7.67522 1.84315C7.33606 1.4649 6.87271 1.20709 6.32611 1.20709Z" fill="#EBE7E4"/>

</g>%n%n
<g transform="translate(139.000000, 9.000000) scale(1.833333 1.833333) "> 

<path fill-rule="nonzero" fill="rgb(24.705882%, 24.705882%, 24.705882%)" fill-opacity="1" d="M 6.640625 5.347656 L 1.304688 5.347656 L 1.304688 8.851562 L 6.640625 8.851562 Z M 6.640625 5.347656 "/>
<path fill-rule="nonzero" fill="rgb(24.705882%, 24.705882%, 24.705882%)" fill-opacity="1" d="M 5.371094 1.742188 C 5.371094 1.859375 5.347656 1.980469 5.304688 2.089844 C 5.257812 2.199219 5.191406 2.296875 5.105469 2.382812 C 5.023438 2.46875 4.921875 2.535156 4.8125 2.578125 C 4.703125 2.625 4.585938 2.648438 4.464844 2.648438 C 4.347656 2.648438 4.226562 2.625 4.117188 2.578125 C 4.007812 2.535156 3.910156 2.46875 3.824219 2.382812 C 3.738281 2.296875 3.671875 2.199219 3.628906 2.089844 C 3.582031 1.980469 3.558594 1.859375 3.558594 1.742188 C 3.558594 1.621094 3.582031 1.503906 3.628906 1.394531 C 3.671875 1.285156 3.738281 1.183594 3.824219 1.101562 C 3.910156 1.015625 4.007812 0.949219 4.117188 0.902344 C 4.226562 0.859375 4.347656 0.835938 4.464844 0.835938 C 4.585938 0.835938 4.703125 0.859375 4.8125 0.902344 C 4.921875 0.949219 5.023438 1.015625 5.105469 1.101562 C 5.191406 1.183594 5.257812 1.285156 5.304688 1.394531 C 5.347656 1.503906 5.371094 1.621094 5.371094 1.742188 Z M 5.371094 1.742188 "/>
<path fill-rule="nonzero" fill="rgb(24.705882%, 24.705882%, 24.705882%)" fill-opacity="1" d="M 2.628906 3.292969 C 2.523438 3.292969 2.417969 3.359375 2.34375 3.46875 C 2.269531 3.578125 2.222656 3.730469 2.222656 3.886719 C 2.222656 4.042969 2.269531 4.199219 2.34375 4.308594 C 2.417969 4.417969 2.523438 4.480469 2.628906 4.480469 L 6.84375 4.480469 C 6.949219 4.480469 7.058594 4.417969 7.132812 4.308594 C 7.207031 4.199219 7.21875 4.035156 7.25 3.886719 C 7.3125 3.597656 7.394531 3.351562 7.316406 3.242188 C 7.242188 3.132812 6.949219 3.292969 6.84375 3.292969 Z M 2.628906 3.292969 "/>
<path fill-rule="nonzero" fill="rgb(24.705882%, 24.705882%, 24.705882%)" fill-opacity="1" d="M 5.941406 2.585938 C 5.835938 2.585938 5.730469 2.628906 5.652344 2.703125 C 5.578125 2.78125 5.492188 2.894531 5.492188 3.003906 C 5.492188 3.109375 5.433594 3.378906 5.507812 3.457031 C 5.585938 3.53125 5.835938 3.398438 5.941406 3.398438 L 10.980469 3.398438 C 11.089844 3.398438 11.195312 3.355469 11.269531 3.277344 C 11.34375 3.203125 11.390625 3.097656 11.390625 2.992188 C 11.390625 2.886719 11.34375 2.78125 11.269531 2.703125 C 11.195312 2.628906 11.089844 2.585938 10.980469 2.585938 Z M 5.941406 2.585938 "/>
<path fill-rule="nonzero" fill="rgb(24.705882%, 24.705882%, 24.705882%)" fill-opacity="1" d="M 6.226562 1.078125 L 6.921875 1.078125 L 7.1875 1.28125 L 8.394531 1.28125 L 8.640625 1.078125 L 9.34375 1.078125 L 9.34375 1.84375 L 8.640625 1.84375 L 8.414062 1.640625 L 7.214844 1.640625 L 6.921875 1.84375 L 6.226562 1.84375 Z M 6.226562 1.078125 "/>
<path fill="none" stroke-width="39.437" stroke-linecap="round" stroke-linejoin="round" stroke="rgb(24.705882%, 24.705882%, 24.705882%)" stroke-opacity="1" stroke-miterlimit="4" d="M 82.695312 347.773438 L 82.695312 531.477865 " transform="matrix(0.0206897, 0, 0, 0.0206897, 0, 0)"/>
<path fill="none" stroke-width="39.437" stroke-linecap="round" stroke-linejoin="round" stroke="rgb(24.705882%, 24.705882%, 24.705882%)" stroke-opacity="1" stroke-miterlimit="4" d="M 301.328125 349.283854 L 301.328125 532.988281 " transform="matrix(0.0206897, 0, 0, 0.0206897, 0, 0)"/>

</g>%n%n</svg>