<svg width="300" height="35" viewBox="0 0 300 35" fill="none" xmlns="http://www.w3.org/2000/svg">

<g transform="translate(135.000000, 2.000000) scale(1.500000 1.500000) "> 

<g clip-path="url(#clip0)">
<path opacity="0.949" d="M9.9994 1C14.9626 1 19 5.00181 19 10C19 14.9655 14.9626 19 9.9994 19C5.0374 19 1 14.9655 1 10C1 5.00181 5.0374 1 9.9994 1Z" fill="#45ABE9"/>
<path opacity="0.95" fill-rule="evenodd" clip-rule="evenodd" d="M10 19C14.9706 19 19 14.9706 19 10C19 5.02944 14.9706 1 10 1C5.02944 1 1 5.02944 1 10C1 14.9706 5.02944 19 10 19ZM10 20C15.5228 20 20 15.5228 20 10C20 4.47715 15.5228 0 10 0C4.47715 0 0 4.47715 0 10C0 15.5228 4.47715 20 10 20Z" fill="#1578B3"/>
</g>
<defs>
<clipPath id="clip0">
<path d="M0 0H20V20H0V0Z" fill="white"/>
</clipPath>
</defs>

</g>


<g transform="translate(141.000000, 8.000000) scale(0.375000 0.375000) "> 

<path d="M26 6C26 4.89543 25.1046 4 24 4C22.8954 4 22 4.89543 22 6V8H26V6Z" fill="#ffffff"/>
<path d="M16 14C16 11.7909 17.7909 10 20 10H28C30.2091 10 32 11.7909 32 14V18H16V14Z" fill="#ffffff"/>
<path d="M4 38V26H8V38C8 39.1046 8.89543 40 10 40H38C39.1046 40 40 39.1046 40 38V26H44V38C44 41.3137 41.3137 44 38 44H10C6.68629 44 4 41.3137 4 38Z" fill="#ffffff"/>
<path fill-rule="evenodd" clip100-rule="evenodd" d="M12 20V23.7185C12 26.3934 13.3368 28.8912 15.5624 30.3749L24 36L32.4376 30.3749C34.6632 28.8912 36 26.3934 36 23.7185V20H12ZM16 24H20V26L16 24ZM32 24H28V26L32 24Z" fill="#ffffff"/>
<path d="M33.547 32.0388L30.9452 33.7733L36.1716 38.9998H38C38.5523 38.9998 39 38.552 39 37.9998V36.1713L34.3072 31.4785C34.0641 31.6761 33.8105 31.8631 33.547 32.0388Z" fill="#ffffff"/>
<path d="M14.453 32.0388C14.1895 31.8632 13.936 31.6761 13.693 31.4787L9 36.1716V37.9998C9 38.552 9.44772 38.9998 10 38.9998H11.8287L17.055 33.7735L14.453 32.0388Z" fill="#ffffff"/>

</g>

</svg>