<svg width="300" height="40" viewBox="0 0 300 40" fill="none" xmlns="http://www.w3.org/2000/svg" xmlns:xlink="http://www.w3.org/1999/xlink" version="1.1">

<g transform="translate(130.000000, 0.000000) scale(2.500000 2.500000) "> 

<path opacity="0.801" d="M11.1381 1.1946C10.8023 1.19949 10.5189 1.38348 10.3413 1.62812C10.2274 1.78507 10.1692 1.97295 10.1438 2.16709C9.86217 2.13616 9.57273 2.17355 9.35377 2.40478C9.16688 2.58543 9.07383 2.82865 9.03909 3.08435C8.71693 3.14367 8.49583 3.37679 8.35282 3.65847C8.12069 3.60411 7.8811 3.60186 7.64144 3.65513C7.4921 3.37853 7.26774 3.15435 6.95852 3.0877C6.89184 2.57071 6.49043 2.11089 5.92577 2.12692C5.88633 2.12507 5.86252 2.13448 5.83036 2.13864C5.74633 1.53264 5.15299 1.04501 4.5231 1.23644C3.85752 1.40894 3.46982 1.96668 3.1288 2.37465C3.12651 2.37739 3.12428 2.38018 3.12211 2.38302C1.85327 4.03039 1.95337 6.54373 3.36816 8.07404C3.36866 8.07461 3.36933 8.07513 3.36983 8.07571C3.82927 8.60673 4.42779 9.12594 5.201 9.25408C5.21819 9.25639 5.23558 9.25695 5.25289 9.25575C5.83922 9.23453 6.24071 8.72382 6.26053 8.17446C6.3159 8.1714 6.36994 8.18034 6.42457 8.16944C6.04982 9.86234 5.42693 11.5059 4.44275 12.9181C4.44103 12.9209 4.43935 12.9237 4.43773 12.9265C4.19907 13.299 4.07278 13.8387 4.36911 14.2789C4.76457 14.8945 5.71565 15.0181 6.2053 14.4313C6.55039 14.0678 6.77509 13.6395 7.00371 13.2512C7.23531 12.8579 7.46803 12.509 7.80213 12.2703C7.81091 12.2642 7.81929 12.2575 7.82723 12.2503C7.88755 12.1952 7.94354 12.1477 8.00131 12.0963C8.4954 12.5258 8.93929 13.0029 9.20814 13.5726C9.21027 13.5765 9.2125 13.5805 9.21484 13.5843C9.46002 14.0391 9.79949 14.5926 10.4233 14.7744C10.4261 14.7756 10.4289 14.7767 10.4317 14.7777C11.2121 14.9797 11.9348 14.2318 11.8026 13.4638C11.7393 13.0602 11.4738 12.8136 11.3624 12.6068C11.3588 12.5999 11.3549 12.5932 11.3507 12.5867C11.034 12.1095 10.7478 11.6276 10.5455 11.1104C10.5439 11.1064 10.5423 11.1025 10.5405 11.0986C10.12 10.1669 9.82287 9.18089 9.59982 8.17948C9.64043 8.18729 9.68224 8.17843 9.72368 8.18115C9.74964 8.75496 10.1971 9.28476 10.8167 9.24069C11.4842 9.21044 11.9296 8.72412 12.3031 8.40712C12.3065 8.40442 12.3098 8.40162 12.3131 8.39875C13.5453 7.2388 14.0888 5.37722 13.5567 3.74217V3.74049C13.2324 2.72496 12.5739 1.74555 11.5565 1.26155C11.5478 1.25771 11.5388 1.25436 11.5297 1.25151C11.4089 1.21012 11.2757 1.18747 11.1381 1.1946Z" fill="#EBE7E4"/>

</g>%n%n
<g transform="translate(139.000000, 9.000000) scale(1.833333 1.833333) "> 

<g id="surface1">
<path style=" stroke:none;fill-rule:nonzero;fill:rgb(24.705882%,24.705882%,24.705882%);fill-opacity:1;" d="M 5.996094 2.890625 C 5.695312 2.902344 5.453125 3.105469 5.449219 3.355469 C 5.445312 3.527344 5.554688 3.675781 5.722656 3.761719 C 5.722656 3.773438 5.722656 3.789062 5.722656 3.804688 C 5.707031 4.136719 5.613281 5.183594 5.328125 6.414062 C 5.003906 7.796875 4.433594 9.441406 3.46875 10.722656 C 3.425781 10.78125 3.40625 10.855469 3.414062 10.929688 C 3.425781 11 3.464844 11.066406 3.523438 11.113281 C 3.585938 11.15625 3.660156 11.175781 3.730469 11.164062 C 3.804688 11.15625 3.871094 11.117188 3.917969 11.054688 C 4.242188 10.625 4.523438 10.15625 4.765625 9.679688 L 6.003906 8.535156 L 7.246094 9.683594 C 7.488281 10.15625 7.765625 10.617188 8.089844 11.046875 C 8.132812 11.105469 8.199219 11.144531 8.273438 11.15625 C 8.347656 11.167969 8.421875 11.148438 8.480469 11.101562 C 8.539062 11.058594 8.578125 10.992188 8.589844 10.921875 C 8.601562 10.847656 8.582031 10.773438 8.539062 10.714844 C 7.574219 9.433594 7.003906 7.789062 6.679688 6.40625 C 6.394531 5.1875 6.300781 4.144531 6.28125 3.804688 C 6.285156 3.792969 6.285156 3.785156 6.285156 3.773438 C 6.457031 3.699219 6.578125 3.550781 6.585938 3.378906 C 6.585938 3.378906 6.585938 3.375 6.585938 3.375 C 6.585938 3.371094 6.585938 3.371094 6.585938 3.367188 C 6.585938 3.367188 6.585938 3.367188 6.585938 3.363281 C 6.585938 3.105469 6.335938 2.894531 6.023438 2.890625 C 6.015625 2.890625 6.007812 2.890625 5.996094 2.890625 Z M 6.003906 5.925781 C 6.042969 6.121094 6.085938 6.324219 6.136719 6.535156 C 6.148438 6.597656 6.164062 6.660156 6.179688 6.726562 L 6.007812 6.886719 L 5.828125 6.722656 C 5.84375 6.660156 5.859375 6.601562 5.871094 6.542969 C 5.921875 6.328125 5.964844 6.125 6.003906 5.925781 Z M 5.761719 6.988281 L 5.832031 7.050781 L 5.714844 7.15625 C 5.730469 7.097656 5.746094 7.042969 5.761719 6.988281 Z M 6.25 6.992188 C 6.261719 7.042969 6.277344 7.09375 6.292969 7.148438 L 6.183594 7.050781 Z M 6.007812 7.214844 L 6.417969 7.59375 C 6.429688 7.632812 6.445312 7.675781 6.457031 7.714844 L 6.003906 8.136719 L 5.550781 7.71875 C 5.5625 7.679688 5.574219 7.640625 5.589844 7.601562 Z M 6.558594 8.027344 C 6.664062 8.34375 6.785156 8.660156 6.921875 8.980469 L 6.222656 8.335938 Z M 5.449219 8.027344 L 5.785156 8.335938 L 5.089844 8.976562 C 5.226562 8.660156 5.34375 8.339844 5.449219 8.027344 Z M 5.449219 8.027344 "/>
<path style=" stroke:none;fill-rule:nonzero;fill:rgb(24.705882%,24.705882%,24.705882%);fill-opacity:1;" d="M 8.8125 0.796875 C 8.765625 0.800781 8.71875 0.8125 8.679688 0.839844 C 8.640625 0.867188 8.613281 0.902344 8.597656 0.945312 C 8.582031 0.984375 8.578125 1.03125 8.589844 1.074219 C 8.605469 1.113281 8.632812 1.152344 8.667969 1.179688 C 10.0625 2.289062 10.183594 4.191406 8.941406 5.4375 C 8.761719 5.621094 8.554688 5.78125 8.328125 5.917969 C 8.277344 5.953125 8.238281 6.003906 8.226562 6.058594 C 8.214844 6.117188 8.230469 6.175781 8.265625 6.222656 C 8.300781 6.269531 8.359375 6.304688 8.421875 6.316406 C 8.488281 6.324219 8.554688 6.3125 8.605469 6.28125 C 8.863281 6.121094 9.101562 5.9375 9.308594 5.730469 C 10.726562 4.308594 10.585938 2.121094 8.996094 0.855469 C 8.96875 0.832031 8.941406 0.820312 8.910156 0.808594 C 8.878906 0.800781 8.847656 0.792969 8.8125 0.796875 Z M 8.8125 0.796875 "/>
<path style=" stroke:none;fill-rule:nonzero;fill:rgb(24.705882%,24.705882%,24.705882%);fill-opacity:1;" d="M 7.847656 1.601562 C 7.796875 1.601562 7.746094 1.617188 7.707031 1.644531 C 7.664062 1.671875 7.636719 1.710938 7.617188 1.753906 C 7.601562 1.796875 7.601562 1.84375 7.617188 1.886719 C 7.632812 1.929688 7.660156 1.96875 7.703125 1.996094 C 8.597656 2.628906 8.75 3.78125 8.039062 4.582031 C 7.886719 4.757812 7.699219 4.902344 7.488281 5.015625 C 7.460938 5.03125 7.433594 5.050781 7.414062 5.074219 C 7.394531 5.097656 7.378906 5.125 7.371094 5.152344 C 7.363281 5.179688 7.363281 5.210938 7.367188 5.238281 C 7.371094 5.269531 7.382812 5.296875 7.398438 5.320312 C 7.417969 5.347656 7.4375 5.367188 7.464844 5.386719 C 7.492188 5.402344 7.523438 5.414062 7.554688 5.421875 C 7.585938 5.429688 7.621094 5.429688 7.652344 5.421875 C 7.683594 5.417969 7.714844 5.40625 7.742188 5.390625 C 8.003906 5.25 8.234375 5.070312 8.425781 4.855469 C 9.300781 3.867188 9.113281 2.429688 8.007812 1.652344 C 7.960938 1.617188 7.90625 1.601562 7.847656 1.601562 Z M 7.847656 1.601562 "/>
<path style=" stroke:none;fill-rule:nonzero;fill:rgb(24.705882%,24.705882%,24.705882%);fill-opacity:1;" d="M 7.136719 2.414062 C 7.085938 2.414062 7.035156 2.429688 6.992188 2.457031 C 6.949219 2.480469 6.917969 2.519531 6.898438 2.558594 C 6.882812 2.601562 6.882812 2.644531 6.898438 2.6875 C 6.914062 2.730469 6.945312 2.765625 6.988281 2.792969 C 7.382812 3.050781 7.449219 3.519531 7.136719 3.847656 C 7.066406 3.917969 6.984375 3.976562 6.894531 4.023438 C 6.863281 4.039062 6.839844 4.058594 6.820312 4.078125 C 6.796875 4.101562 6.785156 4.128906 6.777344 4.15625 C 6.769531 4.179688 6.765625 4.210938 6.769531 4.238281 C 6.777344 4.265625 6.789062 4.289062 6.804688 4.3125 C 6.824219 4.339844 6.84375 4.359375 6.871094 4.375 C 6.898438 4.390625 6.929688 4.402344 6.964844 4.410156 C 6.996094 4.417969 7.03125 4.417969 7.0625 4.414062 C 7.097656 4.410156 7.128906 4.398438 7.15625 4.386719 C 7.300781 4.3125 7.429688 4.21875 7.535156 4.109375 C 8.019531 3.601562 7.914062 2.863281 7.304688 2.460938 C 7.257812 2.429688 7.199219 2.414062 7.136719 2.414062 Z M 7.136719 2.414062 "/>
<path style=" stroke:none;fill-rule:nonzero;fill:rgb(24.705882%,24.705882%,24.705882%);fill-opacity:1;" d="M 3.171875 0.800781 C 3.21875 0.804688 3.265625 0.820312 3.304688 0.84375 C 3.34375 0.871094 3.371094 0.910156 3.390625 0.949219 C 3.40625 0.992188 3.40625 1.035156 3.394531 1.078125 C 3.378906 1.121094 3.355469 1.15625 3.316406 1.1875 C 1.921875 2.296875 1.800781 4.199219 3.042969 5.441406 C 3.226562 5.625 3.429688 5.785156 3.65625 5.921875 C 3.710938 5.957031 3.746094 6.007812 3.757812 6.0625 C 3.769531 6.121094 3.757812 6.179688 3.71875 6.226562 C 3.683594 6.277344 3.625 6.308594 3.5625 6.320312 C 3.496094 6.332031 3.433594 6.316406 3.378906 6.285156 C 3.121094 6.128906 2.882812 5.941406 2.675781 5.734375 C 1.257812 4.3125 1.398438 2.125 2.992188 0.859375 C 3.015625 0.839844 3.042969 0.824219 3.074219 0.8125 C 3.105469 0.804688 3.136719 0.800781 3.171875 0.800781 Z M 3.171875 0.800781 "/>
<path style=" stroke:none;fill-rule:nonzero;fill:rgb(24.705882%,24.705882%,24.705882%);fill-opacity:1;" d="M 4.136719 1.605469 C 4.1875 1.609375 4.238281 1.621094 4.277344 1.648438 C 4.320312 1.675781 4.351562 1.714844 4.367188 1.757812 C 4.382812 1.800781 4.382812 1.847656 4.367188 1.890625 C 4.351562 1.933594 4.324219 1.972656 4.28125 2 C 3.386719 2.632812 3.234375 3.789062 3.945312 4.585938 C 4.097656 4.761719 4.285156 4.90625 4.496094 5.023438 C 4.523438 5.035156 4.550781 5.054688 4.570312 5.078125 C 4.589844 5.101562 4.605469 5.128906 4.613281 5.15625 C 4.621094 5.183594 4.621094 5.214844 4.617188 5.242188 C 4.613281 5.273438 4.601562 5.300781 4.585938 5.324219 C 4.566406 5.351562 4.546875 5.371094 4.519531 5.390625 C 4.492188 5.40625 4.460938 5.417969 4.429688 5.425781 C 4.398438 5.433594 4.367188 5.433594 4.332031 5.429688 C 4.300781 5.421875 4.269531 5.414062 4.242188 5.398438 C 3.980469 5.257812 3.75 5.074219 3.558594 4.859375 C 2.683594 3.875 2.875 2.4375 3.976562 1.65625 C 4.023438 1.625 4.078125 1.605469 4.136719 1.605469 Z M 4.136719 1.605469 "/>
<path style=" stroke:none;fill-rule:nonzero;fill:rgb(24.705882%,24.705882%,24.705882%);fill-opacity:1;" d="M 4.847656 2.417969 C 4.898438 2.421875 4.949219 2.433594 4.992188 2.460938 C 5.035156 2.488281 5.066406 2.523438 5.085938 2.5625 C 5.101562 2.605469 5.101562 2.652344 5.085938 2.691406 C 5.070312 2.734375 5.039062 2.769531 5 2.796875 C 4.601562 3.054688 4.535156 3.523438 4.847656 3.851562 C 4.917969 3.921875 5 3.984375 5.09375 4.027344 C 5.121094 4.042969 5.144531 4.0625 5.167969 4.085938 C 5.1875 4.105469 5.199219 4.132812 5.207031 4.160156 C 5.21875 4.1875 5.21875 4.214844 5.214844 4.242188 C 5.207031 4.269531 5.195312 4.296875 5.179688 4.320312 C 5.164062 4.34375 5.140625 4.363281 5.113281 4.378906 C 5.085938 4.394531 5.054688 4.40625 5.023438 4.414062 C 4.988281 4.421875 4.957031 4.421875 4.921875 4.417969 C 4.890625 4.414062 4.855469 4.40625 4.828125 4.390625 C 4.683594 4.316406 4.554688 4.222656 4.449219 4.113281 C 3.964844 3.609375 4.070312 2.867188 4.679688 2.464844 C 4.726562 2.433594 4.785156 2.417969 4.847656 2.417969 Z M 4.847656 2.417969 "/>
</g>

</g>%n%n</svg>