<svg width="300" height="40" viewBox="0 0 300 40" fill="none" xmlns="http://www.w3.org/2000/svg" xmlns:xlink="http://www.w3.org/1999/xlink" version="1.1">

<g transform="translate(130.000000, 0.000000) scale(2.000000 2.000000) "> 

<g clip-path="url(#clip0)">
<path opacity="0.953" d="M9.99934 0C15.514 0 20 4.44646 20 10C20 15.5172 15.514 20 9.99934 20C4.48599 20 0 15.5172 0 10C0 4.44646 4.48599 0 9.99934 0V0Z" fill="#878787"/>
<path opacity="0.95" fill-rule="evenodd" clip-rule="evenodd" d="M10 19C14.9706 19 19 14.9706 19 10C19 5.02944 14.9706 1 10 1C5.02944 1 1 5.02944 1 10C1 14.9706 5.02944 19 10 19ZM10 20C15.5228 20 20 15.5228 20 10C20 4.47715 15.5228 0 10 0C4.47715 0 0 4.47715 0 10C0 15.5228 4.47715 20 10 20Z" fill="#404040"/>
</g>
<defs>
<clipPath id="clip0">
<path d="M0 0H20V20H0V0Z" fill="white"/>
</clipPath>
</defs>

</g>%n%n
<g transform="translate(139.000000, 9.000000) scale(1.833333 1.833333) "> 

<g id="surface1">
<path style=" stroke:none;fill-rule:nonzero;fill:rgb(100%,100%,100%);fill-opacity:1;" d="M 8.976562 3.5 C 8.746094 3.5 8.542969 3.660156 8.488281 3.886719 L 8.183594 5 L 2.796875 5 C 2.671875 5 2.550781 5.078125 2.503906 5.179688 C 2.453125 5.28125 2.492188 5.378906 2.523438 5.5 L 3.429688 7.734375 C 3.476562 7.910156 3.609375 8 3.796875 8 L 7.355469 8 L 7.078125 9 L 4.480469 9 C 3.925781 9 3.480469 9.449219 3.480469 10 C 3.480469 10.550781 3.925781 11 4.480469 11 C 5.03125 11 5.480469 10.550781 5.480469 10 L 6.480469 10 C 6.480469 10.46875 6.808594 10.878906 7.265625 10.976562 C 7.726562 11.078125 8.195312 10.84375 8.390625 10.414062 C 8.585938 9.988281 8.457031 9.480469 8.078125 9.199219 L 9.375 4.5 L 9.976562 4.5 C 10.652344 4.511719 10.652344 3.488281 9.976562 3.5 Z M 8.976562 3.5 "/>
<path style=" stroke:none;fill-rule:evenodd;fill:rgb(100%,100%,100%);fill-opacity:1;" d="M 6 0.476562 L 1.34375 2.023438 C 1.082031 2.113281 0.9375 2.394531 1.023438 2.65625 C 1.113281 2.917969 1.394531 3.0625 1.65625 2.976562 L 6 1.523438 L 10.34375 2.976562 C 10.605469 3.0625 10.886719 2.917969 10.976562 2.65625 C 11.0625 2.394531 10.917969 2.113281 10.65625 2.023438 Z M 6 0.476562 "/>
</g>

</g>%n%n</svg>