<svg width="40" height="40" viewBox="0 0 40 40" fill="none" xmlns="http://www.w3.org/2000/svg" >

<g transform="translate(0.000000, 0.000000) scale(2.500000 2.500000) "> 

<path opacity="0.809" d="M6.06067 1.26898C5.85904 1.26914 5.66232 1.33119 5.49709 1.44673C5.33185 1.56228 5.20606 1.72576 5.13671 1.91508L3.26203 7.0303C3.20041 7.19838 3.18578 7.38007 3.2197 7.55584C3.25361 7.73161 3.33479 7.89481 3.45452 8.0279L4.20439 8.85812C4.2968 8.96043 4.40965 9.04219 4.53565 9.09813C4.66165 9.15407 4.79799 9.18293 4.93585 9.18284H6.12092V13.903C6.12109 14.164 6.22484 14.4143 6.40938 14.5988C6.59392 14.7833 6.84416 14.8871 7.10514 14.8872H8.06926C8.33024 14.8871 8.58048 14.7833 8.76502 14.5988C8.94956 14.4143 9.05331 14.164 9.05347 13.903V9.18284H10.1314C10.3335 9.1829 10.5308 9.12077 10.6964 9.00488C10.8619 8.889 10.9879 8.72498 11.057 8.53507L12.9585 3.31273C13.0214 3.13962 13.0346 2.95234 12.9964 2.77215C12.9582 2.59196 12.8703 2.42609 12.7426 2.29337L12.0463 1.57027C11.9543 1.4749 11.8441 1.39906 11.7221 1.34729C11.6002 1.29552 11.4691 1.26889 11.3366 1.26898H6.06067Z" fill="#EBE7E4"/>

</g>


<g transform="translate(9.000000, 9.000000) scale(1.833333 1.833333) "> 

<path d="M276 540L277 285L276 540Z" fill="#E94B4B" fill-opacity="0.591133"/>
<path d="M276 540L277 285" stroke="#3f3f3f" stroke-width="37.584" stroke-linejoin="round"/>
<path d="M208.594 44.0137L129.398 256.852L156.004 289.373C161.523 294.43 159.956 293.555 161.523 294.43H375.145C378.712 294.43 382.62 291.558 383.908 287.99L455.627 89.3692C456.393 87.2483 456.046 85.379 454.896 84.2071L455.289 84.1973L410.533 44.0137L208.594 44.0137ZM248.73 102.93H290.73L275.564 144.93H233.564L248.73 102.93ZM315.23 102.93H357.23L342.064 144.93H300.064L315.23 102.93ZM381.73 102.93H423.73L408.564 144.93H366.564L381.73 102.93ZM225.982 165.93H267.982L252.816 207.93H210.816L225.982 165.93ZM292.482 165.93H334.482L319.316 207.93H277.316L292.482 165.93ZM358.982 165.93H400.982L385.816 207.93H343.816L358.982 165.93ZM203.596 227.93H245.596L230.43 269.93H188.43L203.596 227.93ZM270.096 227.93H312.096L296.93 269.93H254.93L270.096 227.93ZM336.596 227.93H378.596L363.43 269.93H321.43L336.596 227.93Z" fill="#3f3f3f"/>

</g>

</svg>