<svg width="300" height="40" viewBox="0 0 300 40" fill="none" xmlns="http://www.w3.org/2000/svg" xmlns:xlink="http://www.w3.org/1999/xlink">

<g transform="translate(130.000000, 0.000000) scale(2.500000 2.500000) "> 

<path opacity="0.812" d="M8.00195 1.7229C6.70854 1.7229 5.53804 1.87139 4.60575 2.1514C4.13961 2.2914 3.73124 2.45805 3.36377 2.71883C2.9963 2.9796 2.58209 3.42814 2.58209 4.07798V7.08417V12.5342C2.58215 12.5677 2.58382 12.6012 2.58711 12.6346C2.65132 13.2998 3.21888 13.7364 3.62824 13.9C4.03759 14.0636 4.43849 14.1195 4.89198 14.1611C5.79895 14.2443 6.9033 14.2247 8.08229 14.2247C9.26128 14.2247 10.3243 14.2437 11.1973 14.1594C11.6338 14.1173 12.0221 14.0632 12.4242 13.8916C12.8263 13.72 13.3563 13.261 13.4168 12.6346C13.4201 12.6012 13.4218 12.5677 13.4218 12.5342V7.08417V4.07798C13.4218 3.42814 13.0076 2.97961 12.6402 2.71883C12.2727 2.45805 11.8643 2.2914 11.3981 2.1514C10.4659 1.87139 9.29535 1.7229 8.00195 1.7229Z" fill="#EBE7E4"/>

</g>%n%n
<g transform="translate(139.000000, 9.000000) scale(1.833333 1.833333) "> 

<path fill-rule="nonzero" fill="rgb(24.705882%, 24.705882%, 24.705882%)" fill-opacity="1" d="M 6 1.441406 C 3.882812 1.441406 2.167969 1.957031 2.167969 2.589844 L 2.167969 9.988281 C 2.226562 10.609375 3.992188 10.558594 6.070312 10.558594 C 8.148438 10.558594 9.773438 10.609375 9.832031 9.988281 L 9.832031 2.589844 C 9.832031 1.957031 8.117188 1.441406 6 1.441406 Z M 5.472656 2.816406 C 8.863281 5.066406 9.523438 7.859375 6.949219 9.691406 C 6.949219 9.691406 7.660156 8.144531 7.488281 7.285156 C 7.316406 6.421875 6.945312 6.007812 6.085938 5.292969 C 5.84375 6.082031 5.511719 6.613281 5.222656 7.003906 C 4.816406 7.542969 4.601562 7.722656 4.550781 8.214844 C 4.480469 8.929688 5.242188 9.761719 5.242188 9.761719 C 4.976562 9.699219 3.347656 8.769531 3.5 7.257812 C 3.652344 5.753906 5.035156 5.726562 5.472656 2.816406 Z M 5.472656 2.816406 "/>

</g>%n%n</svg>