<svg width="300" height="40" viewBox="0 0 300 40" fill="none" xmlns="http://www.w3.org/2000/svg" xmlns:xlink="http://www.w3.org/1999/xlink">

<g transform="translate(130.000000, 0.000000) scale(2.500000 2.500000) "> 

<path opacity="0.807" d="M6.32611 1.20709C5.28796 1.20709 4.43636 2.05869 4.43636 3.09684C4.43636 3.45933 4.64893 3.73463 4.83139 4.01912H4.23718C3.82777 4.01912 3.44698 4.20095 3.19103 4.57483C2.97611 4.8888 2.90983 5.20388 2.90983 5.53394C2.90983 5.78685 3.01071 6.02701 3.12576 6.26875H2.71065C2.4865 6.26886 2.27156 6.35795 2.11307 6.51645C1.95457 6.67495 1.86548 6.88988 1.86536 7.11403V9.28331L1.86871 9.20967C1.86218 9.28502 1.86218 9.36195 1.86871 9.43731L1.86536 9.36366V11.2651V13.7022C1.86536 14.4913 2.40362 15.0296 3.19271 15.0296C3.9818 15.0296 4.49327 14.4298 4.49327 13.7022V12.1104H7.03414V13.729L7.05423 13.5466C6.86471 14.4014 7.46688 15.1367 8.33471 15.1367C9.20254 15.1367 9.80471 14.4014 9.61519 13.5466L9.63527 13.729V9.39044L9.63192 9.46409C9.63845 9.38873 9.63845 9.3118 9.63192 9.23645L9.63527 9.31009V7.11403C9.63475 6.99633 9.60967 6.88003 9.56162 6.77257C9.71721 6.66166 9.96504 6.61771 10.0504 6.49304C10.298 6.13133 10.2705 5.93414 10.278 5.81681H13.7445C14.089 5.81681 14.3889 5.73649 14.6902 5.43518C14.9294 5.19604 15.0719 4.86069 15.0719 4.51625C15.0719 4.17182 14.9294 3.83646 14.6902 3.59732C14.3889 3.29601 14.089 3.21569 13.7445 3.21569H12.7151V2.37375C12.715 2.1496 12.6259 1.93467 12.4674 1.77617C12.3089 1.61767 12.094 1.52858 11.8698 1.52847H11.0664C10.8741 1.52846 10.6875 1.594 10.5375 1.71426L10.5023 1.74272H9.68884L9.58004 1.67074C9.44127 1.57813 9.2782 1.52863 9.11137 1.52847H8.33471C8.20825 1.52828 8.08336 1.55645 7.96922 1.6109C7.85509 1.66536 7.75463 1.74473 7.67522 1.84315C7.33606 1.4649 6.87271 1.20709 6.32611 1.20709Z" fill="#EBE7E4"/>

</g>%n%n
<g transform="translate(139.000000, 9.000000) scale(0.687500 0.687500) "> 

<path fill-rule="nonzero" fill="rgb(24.705882%, 24.705882%, 24.705882%)" fill-opacity="1" d="M 17.710938 14.257812 L 3.476562 14.257812 L 3.476562 23.609375 L 17.710938 23.609375 Z M 17.710938 14.257812 "/>
<path fill-rule="nonzero" fill="rgb(24.705882%, 24.705882%, 24.705882%)" fill-opacity="1" d="M 14.328125 4.644531 C 14.328125 4.960938 14.265625 5.277344 14.144531 5.570312 C 14.023438 5.863281 13.84375 6.128906 13.617188 6.355469 C 13.394531 6.578125 13.128906 6.757812 12.835938 6.878906 C 12.539062 7 12.226562 7.0625 11.910156 7.0625 C 11.589844 7.0625 11.277344 7 10.984375 6.878906 C 10.6875 6.757812 10.421875 6.578125 10.199219 6.355469 C 9.972656 6.128906 9.796875 5.863281 9.671875 5.570312 C 9.550781 5.277344 9.488281 4.960938 9.488281 4.644531 C 9.488281 4.328125 9.550781 4.011719 9.671875 3.71875 C 9.796875 3.425781 9.972656 3.15625 10.199219 2.933594 C 10.421875 2.707031 10.6875 2.53125 10.984375 2.410156 C 11.277344 2.285156 11.589844 2.222656 11.910156 2.222656 C 12.226562 2.222656 12.539062 2.285156 12.835938 2.410156 C 13.128906 2.53125 13.394531 2.707031 13.617188 2.933594 C 13.84375 3.15625 14.023438 3.425781 14.144531 3.71875 C 14.265625 4.011719 14.328125 4.328125 14.328125 4.644531 Z M 14.328125 4.644531 "/>
<path fill-rule="nonzero" fill="rgb(24.705882%, 24.705882%, 24.705882%)" fill-opacity="1" d="M 7.015625 8.785156 C 6.730469 8.785156 6.449219 8.953125 6.25 9.246094 C 6.046875 9.539062 5.929688 9.953125 5.929688 10.367188 C 5.929688 10.78125 6.046875 11.195312 6.25 11.488281 C 6.449219 11.78125 6.730469 11.953125 7.015625 11.953125 L 18.25 11.953125 C 18.535156 11.953125 18.816406 11.78125 19.019531 11.488281 C 19.21875 11.195312 19.25 10.765625 19.335938 10.367188 C 19.5 9.589844 19.714844 8.9375 19.515625 8.644531 C 19.3125 8.351562 18.535156 8.785156 18.25 8.785156 Z M 7.015625 8.785156 "/>
<path fill-rule="nonzero" fill="rgb(24.705882%, 24.705882%, 24.705882%)" fill-opacity="1" d="M 15.84375 6.894531 C 15.5625 6.894531 15.277344 7.011719 15.078125 7.210938 C 14.878906 7.410156 14.648438 7.722656 14.648438 8.003906 C 14.648438 8.289062 14.492188 9.011719 14.691406 9.214844 C 14.894531 9.414062 15.5625 9.0625 15.84375 9.0625 L 29.285156 9.0625 C 29.570312 9.0625 29.851562 8.945312 30.054688 8.746094 C 30.253906 8.542969 30.371094 8.261719 30.371094 7.976562 C 30.371094 7.695312 30.253906 7.410156 30.054688 7.210938 C 29.851562 7.011719 29.570312 6.894531 29.285156 6.894531 Z M 15.84375 6.894531 "/>
<path fill-rule="nonzero" fill="rgb(24.705882%, 24.705882%, 24.705882%)" fill-opacity="1" d="M 16.605469 2.875 L 18.460938 2.875 L 19.167969 3.410156 L 22.386719 3.410156 L 23.039062 2.875 L 24.914062 2.875 L 24.914062 4.917969 L 23.039062 4.917969 L 22.433594 4.378906 L 19.238281 4.378906 L 18.460938 4.917969 L 16.605469 4.917969 Z M 16.605469 2.875 "/>
<path fill="none" stroke-width="39.437" stroke-linecap="round" stroke-linejoin="round" stroke="rgb(24.705882%, 24.705882%, 24.705882%)" stroke-opacity="1" stroke-miterlimit="4" d="M 82.624512 347.844238 L 82.624512 531.359863 " transform="matrix(0.0551724, 0, 0, 0.0551724, 0, 0)"/>
<path fill="none" stroke-width="39.437" stroke-linecap="round" stroke-linejoin="round" stroke="rgb(24.705882%, 24.705882%, 24.705882%)" stroke-opacity="1" stroke-miterlimit="4" d="M 301.328125 349.401855 L 301.328125 532.91748 " transform="matrix(0.0551724, 0, 0, 0.0551724, 0, 0)"/>

</g>%n%n</svg>