<svg width="300" height="40" viewBox="0 0 300 40" fill="none" xmlns="http://www.w3.org/2000/svg" xmlns:xlink="http://www.w3.org/1999/xlink">

<g transform="translate(130.000000, 0.000000) scale(2.500000 2.500000) "> 

<path opacity="0.804" d="M8.30324 1.56549C7.7012 1.56549 7.42774 1.76203 7.05457 2.00069C6.86798 2.12002 6.68606 2.25757 6.51392 2.45429C6.34178 2.65102 6.13898 2.93126 6.13898 3.37657C6.13898 3.57841 6.27963 3.66447 6.35993 3.82181C6.23524 3.88318 6.11686 3.89144 5.99001 4.00258C5.71072 4.2473 5.52533 4.64529 5.49288 5.01358C5.46044 5.38187 5.53217 5.72971 5.66027 6.10659C5.68609 6.18231 5.75597 6.21393 5.7925 6.28066C5.22771 6.55119 4.72962 7.22532 4.72962 7.9093C4.72962 7.96252 4.70186 8.13322 4.68108 8.38969C4.66287 8.61443 4.70265 8.96479 4.85516 9.31531C4.72806 9.34093 4.56463 9.35304 4.44339 9.38227C3.9317 9.50563 3.45962 9.64258 3.02566 10.0066C2.59171 10.3706 2.33544 11.1446 2.50845 11.739C2.65075 12.2279 2.74807 12.9254 3.36712 13.5149C3.98618 14.1045 4.89039 14.3345 6.26117 14.377C7.63743 14.4196 9.26038 14.2532 10.6215 13.9301C11.302 13.7685 11.9126 13.5745 12.4292 13.299C12.6875 13.1613 12.9255 13.0047 13.1406 12.7751C13.3557 12.5455 13.5597 12.2013 13.5725 11.7892C13.6023 10.8268 12.9861 10.1082 12.1865 9.57811C11.7752 9.30544 11.2852 9.08785 10.7387 8.93703C10.7866 8.881 10.8554 8.84032 10.8993 8.78136C11.1295 8.47283 11.3362 8.11743 11.3362 7.61805C11.3362 7.11424 11.1453 6.55633 10.7437 6.22543C10.6169 6.12095 10.4933 6.15569 10.3621 6.09822C10.4038 5.9736 10.5211 5.89404 10.5211 5.7668C10.5211 4.99083 10.13 4.28628 9.59209 3.95237C9.70952 3.71541 9.86827 3.49242 9.86827 3.22593C9.86827 2.38706 9.23452 1.56549 8.30324 1.56549V1.56549Z" fill="#EBE7E4"/>

</g>%n%n
<g transform="translate(139.000000, 9.000000) scale(0.687500 0.687500) "> 

<path fill-rule="nonzero" fill="rgb(24.705882%, 24.705882%, 24.705882%)" fill-opacity="1" d="M 21.582031 15.167969 C 21.582031 16.855469 18.148438 19.585938 15.21875 19.585938 C 9.171875 19.585938 10.550781 17.535156 10.550781 15.847656 C 10.550781 14.15625 12.289062 13.46875 15.21875 13.46875 C 18.148438 13.46875 21.582031 12.109375 21.582031 15.167969 Z M 21.582031 15.167969 "/>
<path fill-rule="nonzero" fill="rgb(24.705882%, 24.705882%, 24.705882%)" fill-opacity="1" d="M 26.800781 24.835938 C 26.726562 27.246094 17.941406 28.933594 12 28.746094 C 6.058594 28.5625 6.023438 26.707031 5.285156 24.167969 C 4.414062 21.175781 10.320312 21.160156 16.179688 20.136719 C 22.480469 19.035156 26.875 22.425781 26.800781 24.835938 Z M 26.800781 24.835938 "/>
<path fill-rule="nonzero" fill="rgb(24.705882%, 24.705882%, 24.705882%)" fill-opacity="1" d="M 19.683594 10.847656 C 19.683594 11.972656 17.757812 12.089844 16.144531 12.089844 C 14.53125 12.089844 12.964844 12 12.605469 10.9375 C 11.339844 7.222656 14.53125 8.015625 16.144531 8.015625 C 17.757812 8.015625 19.683594 8.015625 19.683594 10.847656 Z M 19.683594 10.847656 "/>
<path fill-rule="nonzero" fill="rgb(24.705882%, 24.705882%, 24.705882%)" fill-opacity="1" d="M 18.15625 4.921875 C 18.15625 5.847656 17.503906 6.601562 16.699219 6.601562 C 15.890625 6.601562 13.84375 6.203125 13.84375 5.273438 C 13.84375 4.34375 15.890625 3.238281 16.699219 3.238281 C 17.503906 3.238281 18.15625 3.992188 18.15625 4.921875 Z M 18.15625 4.921875 "/>

</g>%n%n</svg>