<svg width="300" height="40" viewBox="0 0 300 40" fill="none" xmlns="http://www.w3.org/2000/svg" xmlns:xlink="http://www.w3.org/1999/xlink" version="1.1">

<g transform="translate(130.000000, 0.000000) scale(2.000000 2.000000) "> 

<g clip-path="url(#clip0)">
<path opacity="0.953" d="M9.99934 0C15.514 0 20 4.44646 20 10C20 15.5172 15.514 20 9.99934 20C4.48599 20 0 15.5172 0 10C0 4.44646 4.48599 0 9.99934 0V0Z" fill="#878787"/>
<path opacity="0.95" fill-rule="evenodd" clip-rule="evenodd" d="M10 19C14.9706 19 19 14.9706 19 10C19 5.02944 14.9706 1 10 1C5.02944 1 1 5.02944 1 10C1 14.9706 5.02944 19 10 19ZM10 20C15.5228 20 20 15.5228 20 10C20 4.47715 15.5228 0 10 0C4.47715 0 0 4.47715 0 10C0 15.5228 4.47715 20 10 20Z" fill="#404040"/>
</g>
<defs>
<clipPath id="clip0">
<path d="M0 0H20V20H0V0Z" fill="white"/>
</clipPath>
</defs>

</g>%n%n
<g transform="translate(139.000000, 9.000000) scale(1.833333 1.833333) "> 

<g id="surface1">
<path style=" stroke:none;fill-rule:nonzero;fill:rgb(100%,100%,100%);fill-opacity:1;" d="M 8.863281 9.253906 L 2.203125 9.253906 L 2.203125 10.015625 L 8.863281 10.015625 Z M 8.863281 9.253906 "/>
<path style=" stroke:none;fill-rule:nonzero;fill:rgb(100%,100%,100%);fill-opacity:1;" d="M 3.125 1.964844 L 2.207031 1.964844 L 2.207031 11.136719 L 3.125 11.136719 Z M 3.125 1.964844 "/>
<path style=" stroke:none;fill-rule:nonzero;fill:rgb(100%,100%,100%);fill-opacity:1;" d="M 8.863281 1.9375 L 7.949219 1.9375 L 7.949219 11.0625 L 8.863281 11.0625 Z M 8.863281 1.9375 "/>
<path style=" stroke:none;fill-rule:nonzero;fill:rgb(100%,100%,100%);fill-opacity:1;" d="M 2.5625 3.886719 L 3.609375 3.886719 L 3.9375 4.609375 L 2.5625 4.609375 Z M 2.5625 3.886719 "/>
<path style="fill:none;stroke-width:25.6462;stroke-linecap:round;stroke-linejoin:round;stroke:rgb(100%,100%,100%);stroke-opacity:1;stroke-miterlimit:4;" d="M 198.997396 172.942708 L 224.674479 230.14974 " transform="matrix(0.0206897,0,0,0.0206897,0,0)"/>
<path style="fill:none;stroke-width:25.6462;stroke-linecap:round;stroke-linejoin:round;stroke:rgb(100%,100%,100%);stroke-opacity:1;stroke-miterlimit:4;" d="M 242.988281 172.942708 L 268.665365 230.14974 " transform="matrix(0.0206897,0,0,0.0206897,0,0)"/>
<path style="fill:none;stroke-width:25.6462;stroke-linecap:round;stroke-linejoin:round;stroke:rgb(100%,100%,100%);stroke-opacity:1;stroke-miterlimit:4;" d="M 289.05599 172.942708 L 314.733073 230.14974 " transform="matrix(0.0206897,0,0,0.0206897,0,0)"/>
<path style=" stroke:none;fill-rule:nonzero;fill:rgb(100%,100%,100%);fill-opacity:1;" d="M 8.210938 3.886719 L 6.796875 3.886719 L 7.125 4.609375 L 8.210938 4.609375 Z M 8.210938 3.886719 "/>
<path style="fill:none;stroke-width:25.6462;stroke-linecap:round;stroke-linejoin:round;stroke:rgb(100%,100%,100%);stroke-opacity:1;stroke-miterlimit:4;" d="M 269.986979 233.736979 L 270.175781 274.518229 " transform="matrix(0.0206897,0,0,0.0206897,0,0)"/>
<path style="fill:none;stroke-width:13.646;stroke-linecap:round;stroke-linejoin:round;stroke:rgb(100%,100%,100%);stroke-opacity:1;stroke-miterlimit:4;" d="M 323.040365 315.865885 C 307.558594 260.924479 230.904948 263.190104 217.688802 316.24349 " transform="matrix(0.0206897,0,0,0.0206897,0,0)"/>
<path style=" stroke:none;fill-rule:nonzero;fill:rgb(100%,100%,100%);fill-opacity:1;" d="M 4.355469 6.519531 L 6.820312 6.519531 L 6.460938 8.542969 L 4.71875 8.539062 Z M 4.355469 6.519531 "/>
<path style="fill:none;stroke-width:30.546;stroke-linecap:round;stroke-linejoin:round;stroke:rgb(100%,100%,100%);stroke-opacity:1;stroke-miterlimit:4;" d="M 405.169271 207.115885 L 477.669271 207.304688 L 478.613281 350.794271 L 535.820312 350.794271 " transform="matrix(0.0206897,0,0,0.0206897,0,0)"/>
<path style=" stroke:none;fill-rule:nonzero;fill:rgb(100%,100%,100%);fill-opacity:1;" d="M 3.160156 0.667969 L 8.519531 0.648438 C 8.519531 0.648438 10.027344 1.984375 10.933594 2.726562 L 0.578125 2.726562 C 1.546875 1.96875 3.160156 0.667969 3.160156 0.667969 Z M 3.160156 0.667969 "/>
<path style=" stroke:none;fill-rule:nonzero;fill:rgb(100%,100%,100%);fill-opacity:1;" d="M 9.640625 10.410156 L 1.472656 10.410156 L 1.472656 11.175781 L 9.640625 11.175781 Z M 9.640625 10.410156 "/>
</g>

</g>%n%n</svg>