<svg width="300" height="40" viewBox="0 0 300 40" fill="none" xmlns="http://www.w3.org/2000/svg" xmlns:xlink="http://www.w3.org/1999/xlink">

<g transform="translate(130.000000, 0.000000) scale(2.500000 2.500000) "> 

<path opacity="0.804" d="M6.4259 2.00037C6.37135 1.9987 6.31678 2.00268 6.26306 2.01222C6.26306 2.01222 5.88543 2.07981 5.43395 2.21965C4.98246 2.3595 4.43882 2.53986 3.97589 2.96937C3.67144 3.25184 3.24075 3.51079 2.85995 4.09986C2.47914 4.68893 2.22287 5.5012 2.0368 6.89722C1.79515 8.7103 2.8226 9.99831 2.8226 9.99831C2.90392 10.0999 3.00952 10.1798 3.12983 10.2307C3.25014 10.2817 3.38136 10.302 3.51161 10.29C3.64185 10.2779 3.767 10.2338 3.87572 10.1616C3.98444 10.0895 4.0733 9.99161 4.13425 9.87681L5.61919 7.0839L6.30489 7.41579L4.8319 12.6208L4.89614 12.4623C4.70794 12.8097 4.7526 13.2607 4.99026 13.5765C5.24636 13.9155 5.71917 14.0821 6.12861 13.9602C6.54336 13.8368 6.85861 13.4351 6.87706 13.0061L6.85166 13.172L6.93682 12.852H8.28133L8.36648 13.172L8.34706 13.0698C8.42182 13.6642 9.09739 14.107 9.67813 13.9425C9.76479 13.9179 9.79617 13.8178 9.87084 13.7706C10.0183 13.912 10.2155 13.9907 10.4206 13.9899C11.1562 13.9874 12.876 13.9839 13.1993 13.9899C13.3037 13.9918 13.4074 13.973 13.5045 13.9347C13.6015 13.8964 13.6899 13.8393 13.7644 13.7667C13.839 13.6942 13.8982 13.6076 13.9386 13.5121C13.9791 13.4166 13.9999 13.3141 14 13.2105V11.9304C14 11.3412 13.4744 10.8191 12.8796 10.8191H12.9169L12.9005 9.03079L12.5629 9.67827C12.9717 9.39644 13.2125 8.89009 13.1694 8.39813C13.1263 7.90617 12.801 7.44708 12.3492 7.23948L6.75456 4.49695L7.16239 2.98122C7.19301 2.86757 7.19731 2.74852 7.17497 2.63299C7.15263 2.51746 7.10422 2.40844 7.03338 2.3141C6.96254 2.21975 6.87109 2.14252 6.76589 2.08819C6.66069 2.03386 6.54446 2.00384 6.4259 2.00037ZM9.33453 8.90485L10.7074 9.58048V10.8384C10.4295 10.8523 10.1649 10.962 9.97094 11.154L9.33453 8.90485Z" fill="#EBE7E4"/>

</g>%n%n
<g transform="translate(139.000000, 9.000000) scale(0.687500 0.687500) "> 

<path fill="none" stroke-width="25" stroke-linecap="round" stroke-linejoin="round" stroke="rgb(24.705882%, 24.705882%, 24.705882%)" stroke-opacity="1" stroke-miterlimit="4" d="M 187.338867 525.270996 L 270.10498 232.155762 " transform="matrix(0.0551724, 0, 0, 0.0551724, 0, 0)"/>
<path fill="none" stroke-width="25" stroke-linecap="round" stroke-linejoin="round" stroke="rgb(24.705882%, 24.705882%, 24.705882%)" stroke-opacity="1" stroke-miterlimit="4" d="M 354.570312 524.067383 L 273.220215 233.288574 " transform="matrix(0.0551724, 0, 0, 0.0551724, 0, 0)"/>
<path fill="none" stroke-width="60" stroke-linecap="round" stroke-linejoin="round" stroke="rgb(24.705882%, 24.705882%, 24.705882%)" stroke-opacity="1" stroke-miterlimit="4" d="M 466.860352 315.559082 L 136.999512 151.30127 " transform="matrix(0.0551724, 0, 0, 0.0551724, 0, 0)"/>
<path fill-rule="nonzero" fill="rgb(24.705882%, 24.705882%, 24.705882%)" fill-opacity="1" d="M 6.902344 4.242188 C 8.367188 2.867188 11.8125 2.210938 11.8125 2.210938 L 10.1875 8.277344 L 4.109375 20.03125 C 4.109375 20.03125 1.972656 17.324219 2.492188 13.394531 C 3.421875 6.324219 4.976562 6.046875 6.902344 4.242188 Z M 6.902344 4.242188 "/>
<path fill="none" stroke-width="30" stroke-linecap="round" stroke-linejoin="round" stroke="rgb(24.705882%, 24.705882%, 24.705882%)" stroke-opacity="1" stroke-miterlimit="4" d="M 469.975586 478.188477 L 469.550781 319.311523 " transform="matrix(0.0551724, 0, 0, 0.0551724, 0, 0)"/>
<path fill-rule="nonzero" fill="rgb(24.705882%, 24.705882%, 24.705882%)" fill-opacity="1" d="M 23.15625 25.492188 L 28.699219 25.492188 C 29.195312 25.492188 29.589844 25.886719 29.589844 26.382812 L 29.589844 29.777344 C 28.613281 29.757812 24.199219 29.78125 22.277344 29.789062 C 22.296875 28.738281 22.265625 27.496094 22.265625 26.382812 C 22.265625 25.886719 22.664062 25.492188 23.15625 25.492188 Z M 23.15625 25.492188 "/>
<path fill="none" stroke-width="15" stroke-linecap="round" stroke-linejoin="round" stroke="rgb(24.705882%, 24.705882%, 24.705882%)" stroke-opacity="1" stroke-miterlimit="4" d="M 300.761719 343.383789 L 240.297852 343.525391 " transform="matrix(0.0551724, 0, 0, 0.0551724, 0, 0)"/>
<path fill="none" stroke-width="15" stroke-linecap="round" stroke-linejoin="round" stroke="rgb(24.705882%, 24.705882%, 24.705882%)" stroke-opacity="1" stroke-miterlimit="4" d="M 321.789551 410.57373 L 222.243652 410.715332 " transform="matrix(0.0551724, 0, 0, 0.0551724, 0, 0)"/>
<path fill="none" stroke-width="15" stroke-linecap="round" stroke-linejoin="round" stroke="rgb(24.705882%, 24.705882%, 24.705882%)" stroke-opacity="1" stroke-miterlimit="4" d="M 338.286133 478.117676 L 206.525879 478.259277 " transform="matrix(0.0551724, 0, 0, 0.0551724, 0, 0)"/>

</g>%n%n</svg>