<svg width="300" height="40" viewBox="0 0 300 40" fill="none" xmlns="http://www.w3.org/2000/svg" xmlns:xlink="http://www.w3.org/1999/xlink" version="1.1">

<g transform="translate(130.000000, 0.000000) scale(2.000000 2.000000) "> 

<g clip-path="url(#clip0)">
<path opacity="0.953" d="M9.99934 0C15.514 0 20 4.44646 20 10C20 15.5172 15.514 20 9.99934 20C4.48599 20 0 15.5172 0 10C0 4.44646 4.48599 0 9.99934 0V0Z" fill="#878787"/>
<path opacity="0.95" fill-rule="evenodd" clip-rule="evenodd" d="M10 19C14.9706 19 19 14.9706 19 10C19 5.02944 14.9706 1 10 1C5.02944 1 1 5.02944 1 10C1 14.9706 5.02944 19 10 19ZM10 20C15.5228 20 20 15.5228 20 10C20 4.47715 15.5228 0 10 0C4.47715 0 0 4.47715 0 10C0 15.5228 4.47715 20 10 20Z" fill="#404040"/>
</g>
<defs>
<clipPath id="clip0">
<path d="M0 0H20V20H0V0Z" fill="white"/>
</clipPath>
</defs>

</g>%n%n
<g transform="translate(138.000000, 8.000000) scale(2.000000 2.000000) "> 

<g id="surface1">
<path style=" stroke:none;fill-rule:nonzero;fill:rgb(100%,100%,100%);fill-opacity:1;" d="M 3.199219 2.007812 C 2.792969 2.015625 2.15625 2.296875 2.027344 2.804688 C 1.839844 2.808594 1.5 2.84375 1.5 3 C 2.242188 3.238281 2.53125 3.8125 2.5 4.5 C 2.460938 5.308594 2 5.5 2 7 C 2 8.5 3 10 5.5 10 C 4.039062 9.367188 3.503906 8.246094 3.5 7 C 3.5 6 3.691406 4.804688 5 4 C 4.878906 3.789062 4.785156 3.570312 4.695312 3.324219 C 4.492188 2.792969 4.175781 2 3.199219 2.007812 Z M 3.25 2.5 C 3.386719 2.5 3.5 2.613281 3.5 2.75 C 3.5 2.886719 3.386719 3 3.25 3 C 3.113281 3 3 2.886719 3 2.75 C 3 2.613281 3.113281 2.5 3.25 2.5 Z M 11 3.5 C 10.5625 4.039062 9.851562 4.429688 9 4.5 C 8.039062 4.472656 7.730469 4.003906 6.5 4 C 5.269531 3.996094 4 5 4 7 C 4 9 7.5 8.621094 8.5 8 C 9.5 7.378906 10.355469 6.257812 10.5 6 C 10.179688 6.074219 9.765625 6.046875 9.5 6 C 10.402344 5.6875 11 4.5 11 3.5 Z M 11 3.5 "/>
</g>

</g>%n%n</svg>