<svg width="300" height="40" viewBox="0 0 300 40" fill="none" xmlns="http://www.w3.org/2000/svg" xmlns:xlink="http://www.w3.org/1999/xlink">

<g transform="translate(130.000000, 0.000000) scale(2.000000 2.000000) "> 

<g clip-path="url(#clip0)">
<path opacity="0.949" d="M9.9994 1C14.9626 1 19 5.00181 19 10C19 14.9655 14.9626 19 9.9994 19C5.0374 19 1 14.9655 1 10C1 5.00181 5.0374 1 9.9994 1Z" fill="#45ABE9"/>
<path opacity="0.95" fill-rule="evenodd" clip-rule="evenodd" d="M10 19C14.9706 19 19 14.9706 19 10C19 5.02944 14.9706 1 10 1C5.02944 1 1 5.02944 1 10C1 14.9706 5.02944 19 10 19ZM10 20C15.5228 20 20 15.5228 20 10C20 4.47715 15.5228 0 10 0C4.47715 0 0 4.47715 0 10C0 15.5228 4.47715 20 10 20Z" fill="#1578B3"/>
</g>
<defs>
<clipPath id="clip0">
<path d="M0 0H20V20H0V0Z" fill="white"/>
</clipPath>
</defs>

</g>%n%n
<g transform="translate(138.000000, 8.000000) scale(0.750000 0.750000) "> 

<path fill-rule="evenodd" fill="rgb(100%, 100%, 100%)" fill-opacity="1" d="M 8 26.667969 C 7.261719 26.667969 6.667969 27.261719 6.667969 28 C 6.667969 28.738281 7.261719 29.332031 8 29.332031 L 24 29.332031 C 24.738281 29.332031 25.332031 28.738281 25.332031 28 C 25.332031 27.261719 24.738281 26.667969 24 26.667969 Z M 8 26.667969 "/>
<path fill-rule="evenodd" fill="rgb(100%, 100%, 100%)" fill-opacity="1" d="M 4 22.667969 C 3.261719 22.667969 2.667969 23.261719 2.667969 24 C 2.667969 24.738281 3.261719 25.332031 4 25.332031 L 28 25.332031 C 28.738281 25.332031 29.332031 24.738281 29.332031 24 C 29.332031 23.261719 28.738281 22.667969 28 22.667969 Z M 4 22.667969 "/>
<path fill-rule="evenodd" fill="rgb(100%, 100%, 100%)" fill-opacity="1" d="M 26.667969 10.667969 L 24.421875 3.933594 C 24.167969 3.175781 23.464844 2.667969 22.667969 2.667969 L 9.332031 2.667969 C 8.535156 2.667969 7.832031 3.171875 7.578125 3.933594 L 5.332031 10.667969 L 5.332031 19.332031 C 5.332031 20.4375 6.230469 21.332031 7.332031 21.332031 C 8.4375 21.332031 9.332031 20.4375 9.332031 19.332031 L 9.332031 18.667969 L 22.667969 18.667969 L 22.667969 19.332031 C 22.667969 20.4375 23.5625 21.332031 24.667969 21.332031 C 25.769531 21.332031 26.667969 20.4375 26.667969 19.332031 Z M 22.078125 5.332031 L 23.851562 10.667969 L 8.148438 10.667969 L 9.921875 5.332031 Z M 10.667969 14.667969 C 10.667969 15.402344 10.070312 16 9.332031 16 C 8.597656 16 8 15.402344 8 14.667969 C 8 13.929688 8.597656 13.332031 9.332031 13.332031 C 10.070312 13.332031 10.667969 13.929688 10.667969 14.667969 Z M 24 14.667969 C 24 15.402344 23.402344 16 22.667969 16 C 21.929688 16 21.332031 15.402344 21.332031 14.667969 C 21.332031 13.929688 21.929688 13.332031 22.667969 13.332031 C 23.402344 13.332031 24 13.929688 24 14.667969 Z M 24 14.667969 "/>

</g>%n%n</svg>