<svg width="300" height="40" viewBox="0 0 300 40" fill="none" xmlns="http://www.w3.org/2000/svg" xmlns:xlink="http://www.w3.org/1999/xlink">

<g transform="translate(130.000000, 0.000000) scale(2.500000 2.500000) "> 

<path opacity="0.812" d="M12.4342 1.09878C12.108 1.13323 11.8088 1.35763 11.6843 1.66118L11.4433 2.22359L10.8541 2.27715C10.1336 2.32357 9.76992 3.41456 10.3185 3.88402L10.8006 4.28574L10.7738 4.33931C10.0291 3.6393 9.08374 3.09309 8.01531 2.89312C7.3781 2.77524 7.09298 3.01971 6.80825 3.39597C6.6173 3.40609 6.73076 3.46698 6.48878 3.21449C6.2639 2.98707 5.9142 2.8917 5.605 2.97346C3.32726 3.49104 1.56103 5.3555 1.56103 7.66018C1.56326 8.02399 1.5656 8.19165 1.56103 8.51718V11.4899V11.6238C1.55894 11.6595 1.55894 11.6953 1.56103 11.7309C1.70072 12.979 2.77449 13.7183 3.97134 14.168C4.20256 14.2577 4.47049 14.2477 4.69444 14.1412C4.82553 14.3312 5.0311 14.4682 5.25684 14.5162C5.78152 14.6121 6.33261 14.6501 6.91728 14.6501C8.22352 14.6501 9.41012 14.4085 10.3721 13.9538C11.334 13.4991 12.1814 12.7935 12.3003 11.7309C12.3024 11.6953 12.3024 11.6595 12.3003 11.6238V11.4899V8.51718C12.301 8.07241 12.2999 7.95034 12.3003 7.66018C12.3003 7.0445 12.1814 6.45693 11.9522 5.9194C11.9703 5.91106 11.9882 5.90213 12.0057 5.89262L12.5413 5.57125L13.077 5.89262C13.6885 6.26585 14.6078 5.59892 14.4428 4.90171L14.2821 4.28574L14.7642 3.88403C15.3128 3.41456 14.9491 2.32357 14.2286 2.27715L13.6394 2.22359L13.3983 1.66118C13.2476 1.29043 12.8311 1.04746 12.4342 1.09878Z" fill="#EBE7E4"/>

</g>%n%n
<g transform="translate(139.000000, 9.000000) scale(1.833333 1.833333) "> 

<path fill-rule="nonzero" fill="rgb(24.705882%, 24.705882%, 24.705882%)" fill-opacity="1" d="M 1.125 6.457031 L 1.125 6.480469 C 1.125 6.472656 1.125 6.464844 1.125 6.457031 Z M 1.125 6.480469 L 1.125 9.1875 L 1.132812 9.1875 C 1.199219 9.792969 1.804688 10.324219 2.707031 10.664062 C 2.707031 9.996094 2.71875 9.105469 2.71875 9.105469 C 3.027344 9.253906 3.378906 9.367188 3.699219 9.429688 C 3.699219 9.429688 3.703125 9.460938 3.703125 10.9375 C 4.117188 11.011719 4.5625 11.050781 5.023438 11.050781 C 7.101562 11.050781 8.800781 10.226562 8.917969 9.1875 L 8.921875 9.1875 L 8.921875 6.480469 C 8.921875 7.574219 7.175781 8.460938 5.023438 8.460938 C 2.871094 8.460938 1.125 7.574219 1.125 6.480469 Z M 8.921875 6.480469 L 8.921875 6.457031 C 8.921875 6.464844 8.921875 6.472656 8.921875 6.480469 Z M 8.921875 6.480469 "/>
<path fill-rule="nonzero" fill="rgb(24.705882%, 24.705882%, 24.705882%)" fill-opacity="1" d="M 5.570312 6.59375 C 5.5 5.285156 5.023438 3.410156 4.046875 2.394531 C 2.367188 2.777344 1.125 4.121094 1.125 5.722656 C 1.125 5.738281 1.125 5.753906 1.125 5.773438 C 1.179688 6.84375 2.90625 7.699219 5.023438 7.699219 C 7.140625 7.699219 8.867188 6.84375 8.921875 5.773438 C 8.921875 5.757812 8.921875 5.738281 8.921875 5.722656 C 8.921875 4.070312 7.601562 2.691406 5.839844 2.359375 C 6.371094 2.929688 6.675781 3.453125 6.878906 4.054688 C 7.117188 4.773438 7.277344 5.453125 7.339844 6.117188 C 6.917969 6.386719 6.183594 6.539062 5.570312 6.59375 Z M 5.570312 6.59375 "/>
<path fill-rule="nonzero" fill="rgb(24.705882%, 24.705882%, 24.705882%)" fill-opacity="1" d="M 6.710938 4.6875 C 6.710938 5.003906 6.453125 5.261719 6.136719 5.261719 C 5.820312 5.261719 5.5625 5.003906 5.5625 4.6875 C 5.5625 4.367188 5.820312 4.113281 6.136719 4.113281 C 6.453125 4.113281 6.710938 4.367188 6.710938 4.6875 Z M 6.710938 4.6875 "/>
<path fill-rule="nonzero" fill="rgb(24.705882%, 24.705882%, 24.705882%)" fill-opacity="1" d="M 11.371094 1.824219 L 10.566406 2.496094 L 10.824219 3.511719 L 9.9375 2.953125 L 9.050781 3.511719 L 9.304688 2.496094 L 8.503906 1.824219 L 9.546875 1.753906 L 9.9375 0.78125 L 10.328125 1.753906 Z M 11.371094 1.824219 "/>

</g>%n%n</svg>