<svg width="300" height="40" viewBox="0 0 300 40" fill="none" xmlns="http://www.w3.org/2000/svg" xmlns:xlink="http://www.w3.org/1999/xlink">

<g transform="translate(130.000000, 0.000000) scale(2.500000 2.500000) "> 

<path opacity="0.8" d="M9.37489 1.39673C8.12126 1.39673 7.33053 2.04234 6.86582 2.54163C5.92032 2.60958 5.17271 3.02181 4.77019 3.50073C4.30885 4.04963 4.15087 4.63224 4.15087 4.63224C4.12452 4.72709 4.11776 4.82632 4.131 4.92387C4.14424 5.02143 4.17719 5.11526 4.22787 5.19967C4.10551 5.27483 4.00822 5.38463 3.94833 5.51515C3.88843 5.64566 3.86863 5.79102 3.89143 5.9328C3.89143 5.9328 4.08119 7.22371 3.86967 8.27114C3.78436 8.69359 3.30478 9.86295 2.85365 10.8271C2.62809 11.3091 2.40916 11.7577 2.24605 12.0891C2.1645 12.2548 2.09732 12.3909 2.04854 12.4909C2.02415 12.5408 2.00476 12.581 1.98828 12.6164C1.98005 12.6341 1.97286 12.6487 1.96318 12.6716C1.95834 12.6831 1.95214 12.6962 1.94309 12.7218C1.93857 12.7346 1.93419 12.7494 1.92635 12.7788C1.92244 12.7934 1.91301 12.8387 1.91296 12.839C1.91291 12.8393 1.90125 12.9677 1.90125 12.9679C1.90125 13.3214 2.11339 13.5601 2.26614 13.6809C2.41888 13.8018 2.56152 13.8648 2.71473 13.9237C3.02113 14.0414 3.37711 14.1227 3.80774 14.1931C4.66898 14.3341 5.80829 14.4158 7.0717 14.4158C8.33511 14.4158 9.46703 14.3343 10.3223 14.1931C10.7499 14.1226 11.1039 14.0421 11.4086 13.9237C11.5609 13.8644 11.7036 13.7993 11.8555 13.6776C12.0074 13.5559 12.2154 13.3173 12.2154 12.9679C12.2154 12.9677 12.2037 12.8393 12.2037 12.839C12.2036 12.8387 12.1942 12.7934 12.1903 12.7788C12.1825 12.7494 12.1781 12.7346 12.1735 12.7218C12.1645 12.6962 12.1583 12.6831 12.1534 12.6716C12.1438 12.6487 12.1366 12.6341 12.1283 12.6164C12.1119 12.581 12.0925 12.5408 12.0681 12.4909C12.0193 12.3909 11.9521 12.2548 11.8706 12.0891C11.7075 11.7577 11.4885 11.3091 11.263 10.8271C10.8118 9.86295 10.3323 8.69359 10.2469 8.27114C10.0374 7.23361 10.2487 5.94787 10.2487 5.94787C10.2677 5.84337 10.2636 5.73596 10.2365 5.63323C10.2095 5.53051 10.1602 5.43498 10.0922 5.35339C10.0242 5.2718 9.93908 5.20615 9.84289 5.16108C9.74671 5.116 9.6418 5.09261 9.53558 5.09254H9.27948C9.65527 4.99274 10.0973 5.00796 10.7073 5.25658L10.6922 5.24988C12.2266 5.91966 13.4614 5.56384 14.1018 4.92683C14.7422 4.28983 14.8801 3.49404 14.8801 3.49404C14.9131 3.32385 14.884 3.14749 14.7981 2.99691C14.8691 2.91466 14.9208 2.81751 14.9492 2.71262C14.9776 2.60773 14.9821 2.4978 14.9624 2.39094C14.9426 2.28408 14.8991 2.18303 14.835 2.09525C14.7709 2.00747 14.688 1.93521 14.5922 1.88381C14.5922 1.88381 12.9037 1.03818 10.9382 1.73819C10.4925 1.5694 10.0108 1.39673 9.37489 1.39673ZM13.2414 3.29652C13.1544 3.39435 13.1639 3.42968 13.0071 3.53253C12.6747 3.75047 12.2418 3.88308 11.5057 3.59949C11.6447 3.51518 12.2619 3.35049 13.2414 3.29652ZM6.72689 4.40292C7.10731 4.348 7.34286 4.42301 7.34286 4.42301C7.48052 4.46425 7.62733 4.46367 7.76466 4.42134C7.73314 4.53749 7.73102 4.65966 7.75849 4.77683C7.78596 4.894 7.84215 5.0025 7.922 5.09254H7.09848H5.60375C5.9996 4.63556 6.39299 4.45113 6.72689 4.40292Z" fill="#EBE7E4"/>

</g>%n%n
<g transform="translate(139.000000, 9.000000) scale(1.833333 1.833333) "> 

<defs>
<filter id="filter-remove-color" x="0%" y="0%" width="100%" height="100%">
<feColorMatrix color-interpolation-filters="sRGB" values="0 0 0 0 1 0 0 0 0 1 0 0 0 0 1 0 0 0 1 0" />
</filter>
<mask id="mask-0">
<g filter="url(#filter-remove-color)">
<rect x="-1.2" y="-1.2" width="14.4" height="14.4" fill="rgb(0%, 0%, 0%)" fill-opacity="0.643"/>
</g>
</mask>
<clip100Path id="clip100-0">
<rect x="0" y="0" width="12" height="12"/>
</clip100Path>
<g id="source-9" clip100-path="url(#clip100-0)">
<path fill-rule="evenodd" fill="rgb(24.705882%, 24.705882%, 24.705882%)" fill-opacity="1" d="M 3.3125 3.945312 C 3.3125 3.945312 4.167969 3.550781 5.136719 3.566406 C 6.101562 3.582031 7.023438 3.917969 7.023438 3.917969 C 7.023438 3.917969 6.171875 4.386719 5.148438 4.386719 C 4.125 4.386719 3.3125 3.945312 3.3125 3.945312 Z M 3.3125 3.945312 "/>
</g>
</defs>
<path fill-rule="nonzero" fill="rgb(24.705882%, 24.705882%, 24.705882%)" fill-opacity="1" d="M 8.53125 1.195312 C 8.140625 1.03125 7.710938 0.898438 7.152344 0.898438 C 6.160156 0.898438 5.558594 1.464844 5.253906 1.832031 C 3.617188 1.730469 3.175781 3.253906 3.175781 3.253906 C 4.164062 1.871094 5.558594 2.296875 5.558594 2.296875 C 5.558594 2.296875 5.902344 1.628906 6.808594 1.464844 C 7.710938 1.296875 8.53125 1.699219 8.53125 1.699219 C 8.53125 1.699219 9.605469 0.996094 11.417969 1.230469 C 11.417969 1.230469 10.082031 0.53125 8.53125 1.195312 Z M 8.53125 1.195312 "/>
<path fill-rule="nonzero" fill="rgb(24.705882%, 24.705882%, 24.705882%)" fill-opacity="1" d="M 7.277344 6.390625 C 7.058594 5.316406 7.277344 4.128906 7.277344 4.128906 C 7.277344 4.128906 6.648438 4.761719 5.152344 4.769531 C 3.660156 4.773438 2.96875 4.128906 2.96875 4.128906 C 2.96875 4.128906 3.171875 5.316406 2.953125 6.390625 C 2.738281 7.46875 1.246094 10.332031 1.246094 10.375 C 1.246094 10.71875 2.96875 11.636719 5.121094 11.636719 C 7.277344 11.636719 9 10.71875 9 10.375 C 9 10.332031 7.496094 7.46875 7.277344 6.390625 Z M 7.277344 6.390625 "/>
<path fill-rule="nonzero" fill="rgb(24.705882%, 24.705882%, 24.705882%)" fill-opacity="1" d="M 8.636719 2.738281 C 10.445312 3.539062 11.351562 1.972656 11.351562 1.972656 C 11.351562 1.972656 10.921875 4.074219 8.550781 3.039062 C 7.730469 2.707031 6.957031 2.640625 6.351562 3.074219 C 6.914062 2.339844 7.863281 2.371094 8.636719 2.738281 Z M 8.636719 2.738281 "/>
<g mask="url(#mask-0)">
<use xlink:href="#source-9"/>
</g>

</g>%n%n</svg>