<svg width="40" height="40" viewBox="0 0 40 40" fill="none" xmlns="http://www.w3.org/2000/svg" >

<g transform="translate(0.000000, 0.000000) scale(2.000000 2.000000) "> 

<g clip-path="url(#clip0)">
<path opacity="0.953" d="M9.99934 0C15.514 0 20 4.44646 20 10C20 15.5172 15.514 20 9.99934 20C4.48599 20 0 15.5172 0 10C0 4.44646 4.48599 0 9.99934 0V0Z" fill="#878787"/>
<path opacity="0.95" fill-rule="evenodd" clip-rule="evenodd" d="M10 19C14.9706 19 19 14.9706 19 10C19 5.02944 14.9706 1 10 1C5.02944 1 1 5.02944 1 10C1 14.9706 5.02944 19 10 19ZM10 20C15.5228 20 20 15.5228 20 10C20 4.47715 15.5228 0 10 0C4.47715 0 0 4.47715 0 10C0 15.5228 4.47715 20 10 20Z" fill="#404040"/>
</g>
<defs>
<clipPath id="clip0">
<path d="M0 0H20V20H0V0Z" fill="white"/>
</clipPath>
</defs>

</g>


<g transform="translate(9.000000, 9.000000) scale(0.458333 0.458333) "> 

<path fill-rule="evenodd" clip100-rule="evenodd" d="M24 44C32.8366 44 40 36.8366 40 28C40 14 24 4 24 4C24 4 8 14 8 28C8 36.8366 15.1634 44 24 44ZM16 27.7581C16 21.4597 17.8963 15.4228 20.8701 9.85188C16.6022 14.1336 12 20.4916 12 28C12 33.9669 15.2663 39.171 20.1084 41.9217C17.5082 37.836 16 32.9748 16 27.7581Z" fill="#ffffff"/>

</g>

</svg>