<svg width="300" height="40" viewBox="0 0 300 40" fill="none" xmlns="http://www.w3.org/2000/svg" xmlns:xlink="http://www.w3.org/1999/xlink">

<g transform="translate(130.000000, 0.000000) scale(2.500000 2.500000) "> 

<path opacity="0.812" d="M4.89281 1.91221C4.70644 1.95343 4.54271 2.08647 4.46421 2.26045L1.75867 7.64474C1.57716 8.02076 1.9037 8.5339 2.32121 8.52873H4.08919L2.21406 12.6004C2.08075 12.8724 2.18643 13.2376 2.44442 13.3964C2.7024 13.5551 3.07603 13.4849 3.25877 13.2433L8.42876 6.73396C8.70553 6.37312 8.40132 5.74781 7.94659 5.74283H6.12504L7.86622 2.84978C8.09511 2.4755 7.76914 1.90504 7.33047 1.91221H5.02675C4.98228 1.90735 4.93728 1.90735 4.89281 1.91221ZM11.4022 6.8679C10.486 6.8679 9.64674 7.02138 8.9913 7.32329C8.33586 7.6252 7.75907 8.13276 7.75907 8.87696C7.75907 9.08832 7.92799 9.23104 8.02695 9.41271C8.03093 9.42001 8.02285 9.43228 8.02695 9.4395V10.2163C7.92233 10.4097 7.75907 10.5667 7.75907 10.8057C7.75907 11.0486 7.92295 11.1871 8.02695 11.3682C8.03513 11.3824 8.01851 11.408 8.02695 11.4218V12.1718C7.92233 12.3652 7.75907 12.5222 7.75907 12.7612C7.75907 13.1333 7.93103 13.478 8.16089 13.7255C8.39074 13.973 8.69034 14.1411 9.01809 14.288C9.67358 14.5819 10.4893 14.7434 11.4022 14.7434C12.3151 14.7434 13.1308 14.5819 13.7863 14.288C14.114 14.1411 14.4136 13.973 14.6435 13.7255C14.8733 13.478 15.0453 13.1333 15.0453 12.7612C15.0453 12.4575 14.8769 12.3047 14.7506 12.1183V11.4218C14.8782 11.2349 15.0453 11.0916 15.0453 10.8057C15.0453 10.5064 14.8774 10.3512 14.7506 10.1628V9.43951V9.41272C14.8611 9.23519 15.0453 9.11755 15.0453 8.87697C15.0453 8.13277 14.4685 7.62521 13.813 7.32329C13.1576 7.02138 12.3183 6.8679 11.4022 6.8679Z" fill="#EBE7E4"/>

</g>%n%n
<g transform="translate(139.000000, 9.000000) scale(0.687500 0.687500) "> 

<path fill-rule="nonzero" fill="rgb(24.705882%, 24.705882%, 24.705882%)" fill-opacity="1" d="M 23.78125 16.046875 C 27.511719 16.046875 29.566406 17.398438 29.566406 17.976562 C 29.566406 18.554688 27.511719 19.902344 23.78125 19.902344 C 20.054688 19.902344 18 18.554688 18 17.976562 C 18 17.398438 20.054688 16.046875 23.78125 16.046875 Z M 23.78125 14.761719 C 19.863281 14.761719 16.714844 16.175781 16.714844 17.976562 C 16.714844 19.777344 19.847656 20.820312 23.765625 20.820312 C 27.683594 20.820312 30.851562 19.777344 30.851562 17.976562 C 30.851562 16.175781 27.703125 14.761719 23.78125 14.761719 Z M 23.78125 14.761719 "/>
<path fill-rule="nonzero" fill="rgb(24.705882%, 24.705882%, 24.705882%)" fill-opacity="1" d="M 21.210938 18.617188 C 21.921875 18.617188 22.496094 18.332031 22.496094 17.976562 C 22.496094 17.621094 21.921875 17.332031 21.210938 17.332031 C 20.503906 17.332031 19.925781 17.621094 19.925781 17.976562 C 19.925781 18.332031 20.503906 18.617188 21.210938 18.617188 Z M 21.210938 18.617188 "/>
<path fill-rule="nonzero" fill="rgb(24.705882%, 24.705882%, 24.705882%)" fill-opacity="1" d="M 21.441406 26.214844 C 21.441406 26.855469 21.761719 27.8125 22.824219 28.34375 C 22.613281 27.917969 22.398438 27.066406 22.398438 26.535156 C 22.398438 25.152344 23.355469 22.917969 23.464844 22.171875 C 22.71875 23.660156 21.441406 25.152344 21.441406 26.214844 Z M 21.441406 26.214844 "/>
<path fill-rule="nonzero" fill="rgb(24.705882%, 24.705882%, 24.705882%)" fill-opacity="1" d="M 30.207031 23.824219 C 30.59375 23.4375 30.851562 22.988281 30.851562 22.472656 C 30.851562 21.960938 30.59375 21.574219 30.207031 21.125 C 30.207031 19.777344 30.207031 19.390625 30.207031 19.261719 C 30.207031 19.261719 27.445312 20.738281 23.65625 20.738281 C 19.863281 20.738281 17.355469 19.261719 17.355469 19.261719 C 17.355469 19.390625 17.355469 19.839844 17.355469 21.125 C 16.972656 21.511719 16.714844 21.960938 16.714844 22.472656 C 16.714844 22.988281 16.972656 23.375 17.355469 23.824219 C 17.355469 24.722656 17.355469 24.980469 17.355469 25.6875 C 16.972656 26.074219 16.714844 26.523438 16.714844 27.035156 C 16.714844 28.835938 19.863281 30.25 23.78125 30.25 C 27.703125 30.25 30.851562 28.835938 30.851562 27.035156 C 30.851562 26.585938 30.59375 26.136719 30.207031 25.6875 C 30.207031 24.980469 30.207031 24.722656 30.207031 23.824219 Z M 23.78125 29.300781 C 21.972656 29.300781 20.589844 28.023438 20.589844 26.320312 C 20.589844 24.300781 23.78125 20.789062 23.78125 20.789062 C 23.78125 20.789062 26.976562 24.40625 26.976562 26.320312 C 26.976562 28.023438 25.59375 29.300781 23.78125 29.300781 Z M 23.78125 29.300781 "/>
<path fill-rule="nonzero" fill="rgb(24.705882%, 24.705882%, 24.705882%)" fill-opacity="1" d="M 8.910156 3.195312 L 2.644531 15.742188 L 8.976562 15.742188 L 3.664062 27.316406 L 15.765625 12.085938 L 8.925781 12.085938 L 14.324219 3.195312 Z M 8.910156 3.195312 "/>

</g>%n%n</svg>