<svg width="300" height="40" viewBox="0 0 300 40" fill="none" xmlns="http://www.w3.org/2000/svg" >

<g transform="translate(130.000000, 0.000000) scale(2.500000 2.500000) "> 

<path opacity="0.7" d="M8 1.56201C6.61431 1.56201 5.44924 2.46879 5 3.70801H4.781C4.18843 3.70807 3.70806 4.18843 3.708 4.78101V11.219C3.11543 11.2191 2.63506 11.6994 2.635 12.292V13.365C2.63506 13.9576 3.11543 14.438 3.708 14.438H12.292C12.8846 14.438 13.3649 13.9576 13.365 13.365V12.292C13.3649 11.6994 12.8846 11.2191 12.292 11.219V4.78101C12.2919 4.18843 11.8116 3.70807 11.219 3.70801H11C10.5508 2.46879 9.38568 1.56201 8 1.56201Z" fill="white"/>

</g>%n%n
<g transform="translate(139.000000, 9.000000) scale(0.458333 0.458333) "> 

<rect opacity="0.7" x="8.00006" y="40" width="32" height="4" fill="#3f3f3f"/>
<path fill-rule="evenodd" clip100-rule="evenodd" d="M16 12H12V40H36V12H32C32 7.58172 28.4183 4 24 4C19.5817 4 16 7.58172 16 12ZM15.9999 16H31.9999V20H15.9999V16ZM15.9999 24H31.9999V32H15.9999V24Z" fill="#3f3f3f"/>
<g opacity="0.2">
<path d="M31.9999 16H15.9999V20H31.9999V16Z" fill="#3f3f3f"/>
<path d="M31.9999 24H15.9999V32H31.9999V24Z" fill="#3f3f3f"/>
</g>

</g>%n%n</svg>