<svg width="300" height="40" viewBox="0 0 300 40" fill="none" xmlns="http://www.w3.org/2000/svg" xmlns:xlink="http://www.w3.org/1999/xlink" version="1.1">

<g transform="translate(130.000000, 0.000000) scale(2.500000 2.500000) "> 

  <metadata
     id="metadata10">
    <rdf:RDF>
      <cc:Work
         rdf:about="">
        <dc:format>image/svg+xml</dc:format>
        <dc:type
           rdf:resource="http://purl.org/dc/dcmitype/StillImage" />
        <dc:title></dc:title>
      </cc:Work>
    </rdf:RDF>
  </metadata>
  <defs
     id="defs8" />
  <sodipodi:namedview
     pagecolor="#ffffff"
     bordercolor="#666666"
     borderopacity="1"
     objecttolerance="10"
     gridtolerance="10"
     guidetolerance="10"
     inkscape:pageopacity="0"
     inkscape:pageshadow="2"
     inkscape:window-width="1920"
     inkscape:window-height="1014"
     id="namedview6"
     showgrid="true"
     inkscape:zoom="20.85965"
     inkscape:cx="6.7684817"
     inkscape:cy="11.155345"
     inkscape:window-x="1920"
     inkscape:window-y="0"
     inkscape:window-maximized="1"
     inkscape:current-layer="svg4">
    <inkscape:grid
       type="xygrid"
       id="grid827"
       spacingx="1"
       spacingy="1" />
  </sodipodi:namedview>
  <path
     style="fill:#ebe7e4;fill-opacity:1;stroke-width:1;font-variant-east_asian:normal;opacity:0.81199999;vector-effect:none;stroke-linecap:butt;stroke-linejoin:miter;stroke-miterlimit:4;stroke-dasharray:none;stroke-dashoffset:0;stroke-opacity:1"
     d="M 5.8417969,2.296875 C 5.1526272,2.2927538 4.4400409,2.4991721 3.9277344,3.0175781 3.2352196,3.7184252 2.5033443,4.9327349 2.3320312,6.5097656 2.1607182,8.0867964 2.649244,10.00152 4.3535156,11.726562 c 1.5883064,1.607692 3.4739775,2.085426 5.0507813,1.953126 1.5768041,-0.132301 2.8390521,-0.766055 3.5839841,-1.519532 0.698672,-0.707033 0.818775,-1.731971 0.634766,-2.7011716 -0.184009,-0.9692002 -0.660365,-1.9777478 -1.359375,-2.96875 -0.07556,-0.1070582 -0.173533,-0.196369 -0.28711,-0.2617188 0.02733,-0.1263706 0.124979,-0.2312869 0.125,-0.3613281 -2.51e-4,-1.0304333 -0.938316,-1.9684992 -1.96875,-1.96875 C 9.9799718,3.8983171 9.8544664,4.005819 9.7070312,4.0429688 9.6421514,3.8765244 9.5293097,3.733093 9.3828125,3.6308594 8.1913116,2.8075304 6.9909736,2.3038124 5.8417969,2.296875 Z"
     id="path4"
     inkscape:connector-curvature="0"
     sodipodi:nodetypes="ccscscsccccccc" />

</g>%n%n
<g transform="translate(139.000000, 9.000000) scale(1.833333 1.833333) "> 

<g id="surface1">
<path style=" stroke:none;fill-rule:nonzero;fill:rgb(24.705882%,24.705882%,24.705882%);fill-opacity:1;" d="M 3.96875 1.5 C 3.484375 1.496094 3.070312 1.628906 2.78125 1.921875 C 1.785156 2.933594 0.296875 5.976562 3.183594 8.898438 C 5.824219 11.570312 9.078125 10.3125 10.078125 9.304688 C 10.871094 8.5 10.507812 6.777344 9.308594 5.070312 C 9.082031 5.257812 8.8125 5.875 8.9375 6.085938 C 9.535156 7.101562 9.707031 8.003906 9.289062 8.425781 C 8.652344 9.070312 6.867188 8.324219 5.308594 6.75 C 3.75 5.171875 3.011719 3.367188 3.652344 2.71875 C 4.042969 2.324219 4.859375 2.449219 5.792969 2.972656 C 6.011719 3.09375 6.636719 2.832031 6.8125 2.601562 C 5.792969 1.894531 4.78125 1.503906 3.96875 1.5 Z M 8 3 C 7.5625 3 7.175781 3.28125 7.046875 3.699219 L 5.464844 3.898438 C 5.191406 3.886719 4.976562 4.121094 5.007812 4.394531 C 5.039062 4.667969 5.300781 4.851562 5.5625 4.777344 L 7.199219 4.597656 C 7.261719 4.679688 7.335938 4.75 7.417969 4.8125 L 7.21875 6.453125 C 7.148438 6.71875 7.328125 6.984375 7.597656 7.015625 C 7.867188 7.050781 8.101562 6.828125 8.089844 6.554688 L 8.273438 4.960938 C 8.703125 4.839844 9 4.445312 9 4 C 9 3.449219 8.550781 3 8 3 Z M 8 3 "/>
</g>

</g>%n%n</svg>