<svg width="40" height="40" viewBox="0 0 40 40" fill="none" xmlns="http://www.w3.org/2000/svg" >

<g transform="translate(0.000000, 0.000000) scale(2.500000 2.500000) "> 

<path opacity="0.812" d="M4.89281 1.91221C4.70644 1.95343 4.54271 2.08647 4.46421 2.26045L1.75867 7.64474C1.57716 8.02076 1.9037 8.5339 2.32121 8.52873H4.08919L2.21406 12.6004C2.08075 12.8724 2.18643 13.2376 2.44442 13.3964C2.7024 13.5551 3.07603 13.4849 3.25877 13.2433L8.42876 6.73396C8.70553 6.37312 8.40132 5.74781 7.94659 5.74283H6.12504L7.86622 2.84978C8.09511 2.4755 7.76914 1.90504 7.33047 1.91221H5.02675C4.98228 1.90735 4.93728 1.90735 4.89281 1.91221ZM11.4022 6.8679C10.486 6.8679 9.64674 7.02138 8.9913 7.32329C8.33586 7.6252 7.75907 8.13276 7.75907 8.87696C7.75907 9.08832 7.92799 9.23104 8.02695 9.41271C8.03093 9.42001 8.02285 9.43228 8.02695 9.4395V10.2163C7.92233 10.4097 7.75907 10.5667 7.75907 10.8057C7.75907 11.0486 7.92295 11.1871 8.02695 11.3682C8.03513 11.3824 8.01851 11.408 8.02695 11.4218V12.1718C7.92233 12.3652 7.75907 12.5222 7.75907 12.7612C7.75907 13.1333 7.93103 13.478 8.16089 13.7255C8.39074 13.973 8.69034 14.1411 9.01809 14.288C9.67358 14.5819 10.4893 14.7434 11.4022 14.7434C12.3151 14.7434 13.1308 14.5819 13.7863 14.288C14.114 14.1411 14.4136 13.973 14.6435 13.7255C14.8733 13.478 15.0453 13.1333 15.0453 12.7612C15.0453 12.4575 14.8769 12.3047 14.7506 12.1183V11.4218C14.8782 11.2349 15.0453 11.0916 15.0453 10.8057C15.0453 10.5064 14.8774 10.3512 14.7506 10.1628V9.43951V9.41272C14.8611 9.23519 15.0453 9.11755 15.0453 8.87697C15.0453 8.13277 14.4685 7.62521 13.813 7.32329C13.1576 7.02138 12.3183 6.8679 11.4022 6.8679Z" fill="#EBE7E4"/>

</g>


<g transform="translate(9.000000, 9.000000) scale(0.037931 0.037931) "> 

<path d="M431.068 290.884C498.618 290.884 535.888 315.341 535.888 325.823C535.888 336.305 498.618 360.763 431.068 360.763C363.518 360.763 326.249 336.305 326.249 325.823C326.249 315.341 363.518 290.884 431.068 290.884ZM431.068 267.59C360.024 267.59 302.955 293.213 302.955 325.823C302.955 358.434 359.705 377.37 430.75 377.37C501.794 377.37 559.181 358.434 559.181 325.823C559.181 293.213 502.112 267.59 431.068 267.59Z" fill="#3f3f3f"/>
<path d="M384.482 337.47C397.346 337.47 407.775 332.256 407.775 325.823C407.775 319.391 397.346 314.177 384.482 314.177C371.617 314.177 361.188 319.391 361.188 325.823C361.188 332.256 371.617 337.47 384.482 337.47Z" fill="#3f3f3f"/>
<path d="M314.602 349.117V382.893C307.614 389.881 302.955 398.032 302.955 407.35C302.955 416.667 307.614 423.654 314.602 431.807V465.582C307.614 472.57 302.955 480.724 302.955 490.041C302.955 522.652 360.024 548.273 431.068 548.273C502.113 548.273 559.182 522.652 559.182 490.041C559.182 481.888 554.523 473.735 547.535 465.582V431.807C554.523 424.819 559.182 416.667 559.182 407.35C559.182 398.032 554.523 391.045 547.535 382.893V349.117C468.067 373.915 398.114 395.844 314.602 349.117ZM376.262 383.098H413.412C434.152 383.098 449.585 384.591 459.711 387.58C469.898 390.508 478.62 395.512 485.879 402.588C492.284 408.749 497.043 415.854 500.154 423.906C503.265 431.958 504.82 441.079 504.82 451.266C504.82 461.575 503.265 470.785 500.154 478.898C497.043 486.95 492.284 494.058 485.879 500.219C478.559 507.295 469.775 512.327 459.527 515.316C449.279 518.244 433.908 519.707 413.412 519.707H376.262V383.098ZM411.49 409.725V493.082H424.117C438.513 493.082 449.493 489.512 457.057 482.375C464.682 475.238 468.494 464.869 468.494 451.266C468.494 437.724 464.712 427.414 457.148 420.338C449.584 413.262 438.574 409.725 424.117 409.725H411.49Z" fill="#3f3f3f"/>
<path d="M161.475 57.8922L47.9465 285.356H162.7L66.3817 495.144L285.737 219.083H161.766L259.601 57.8922H161.475Z" fill="#3f3f3f"/>

</g>

</svg>