<svg width="300" height="40" viewBox="0 0 300 40" fill="none" xmlns="http://www.w3.org/2000/svg" xmlns:xlink="http://www.w3.org/1999/xlink" version="1.1">

<g transform="translate(130.000000, 0.000000) scale(2.500000 2.500000) "> 

<path opacity="0.789" d="M12.3704 1.03997C12.1806 1.04194 11.9958 1.10007 11.8391 1.20702C11.6824 1.31396 11.5609 1.46493 11.4899 1.64087L11.2706 2.18654L10.6831 2.22671C10.4967 2.23974 10.3181 2.30689 10.1693 2.41994C10.0205 2.533 9.90786 2.68702 9.8453 2.86314C9.78275 3.03925 9.77295 3.2298 9.81712 3.4114C9.86129 3.593 9.9575 3.75776 10.0939 3.88548C10.0361 3.86379 10.0171 3.81971 9.95167 3.80011C9.85028 3.76973 9.69293 3.72466 9.50141 3.71642C8.89922 3.69051 8.58266 3.90621 7.5832 4.34913C7.19363 4.52177 6.8188 4.69621 6.51865 4.84626C6.36857 4.92128 6.23777 4.98936 6.1253 5.05214C6.01283 5.11491 5.96892 5.10928 5.76375 5.29652C5.52996 5.50987 5.51359 5.79054 5.4156 6.05309C5.38377 6.06337 5.29061 6.06958 5.2683 6.07652C5.21961 6.09167 5.18494 6.10586 5.14778 6.12004C5.07348 6.1484 4.99662 6.1797 4.9101 6.21712C4.73707 6.29195 4.52884 6.38779 4.31924 6.48661C4.10964 6.58543 3.9012 6.68635 3.72838 6.77451C3.64197 6.81858 3.56607 6.85902 3.49572 6.89837C3.42537 6.93772 3.41798 6.90756 3.21953 7.08584C2.96395 7.31544 2.93703 7.59146 2.86803 7.85747C2.77388 7.88839 2.6178 7.90372 2.53996 7.93782C2.39176 8.00273 2.25032 8.07884 2.10979 8.16043C1.96925 8.24203 1.83399 8.32632 1.70472 8.42323C1.57545 8.52014 1.45732 8.48088 1.24107 8.9555C1.01989 9.44095 1.0963 9.82655 1.19922 10.1774C1.30215 10.5282 1.47326 10.8572 1.74824 11.1516C1.83402 11.2434 1.92456 11.3451 2.09137 11.4612C2.25819 11.5773 2.53368 11.6867 2.78099 11.6972C3.27562 11.7183 3.50034 11.5616 3.83216 11.4177L4.3343 11.2001C4.33654 11.199 4.33877 11.1979 4.341 11.1968C4.38391 11.2162 4.42583 11.245 4.46988 11.262C4.53351 11.2867 4.64561 11.2948 4.71594 11.3156C4.50863 11.6042 4.31326 11.8822 4.17027 12.0923C4.0909 12.2088 4.02536 12.3072 3.97276 12.3902C3.94645 12.4317 3.92355 12.4676 3.89743 12.5141C3.88437 12.5373 3.8718 12.5616 3.85057 12.6078C3.83995 12.6309 3.82592 12.6573 3.80872 12.7082C3.80012 12.7337 3.79051 12.7656 3.78027 12.812C3.77002 12.8584 3.75683 13.0207 3.75683 13.0212C3.75683 13.5017 3.89765 13.5528 3.96606 13.6523C4.03447 13.7518 4.09697 13.8223 4.16525 13.8916C4.23352 13.9609 4.30229 14.024 4.40126 14.0942C4.50022 14.1643 4.54762 14.3118 5.04233 14.3118C5.36896 14.3118 5.60083 14.1696 5.74032 14.064C5.79807 14.0203 5.83114 13.9761 5.8759 13.9335C5.88965 14.0057 5.8945 14.0714 5.92444 14.1578C5.98093 14.3207 6.10336 14.5756 6.38307 14.752C6.45215 14.7955 6.51565 14.8314 6.58895 14.8658C6.6256 14.883 6.66285 14.8996 6.71951 14.9194C6.77617 14.9391 6.81293 14.9796 7.06264 14.9796C7.31229 14.9796 7.34911 14.9391 7.40578 14.9194C7.46244 14.8996 7.49968 14.883 7.53634 14.8658C7.60966 14.8314 7.67309 14.7956 7.74222 14.752C8.02194 14.5756 8.14436 14.3207 8.20085 14.1578C8.23078 14.0714 8.23564 14.0057 8.24939 13.9335C8.29415 13.9761 8.32721 14.0203 8.38497 14.064C8.52445 14.1696 8.75632 14.3118 9.08295 14.3118C9.57765 14.3118 9.62506 14.1643 9.72403 14.0942C9.823 14.024 9.89177 13.9609 9.96004 13.8916C10.0283 13.8223 10.0908 13.7518 10.1592 13.6523C10.2276 13.5528 10.3685 13.5017 10.3685 13.0212C10.3685 13.0207 10.3553 12.8584 10.345 12.812C10.3348 12.7656 10.3252 12.7337 10.3166 12.7082C10.2994 12.6573 10.2853 12.6309 10.2747 12.6078C10.2535 12.5616 10.2409 12.5373 10.2279 12.5141C10.2017 12.4676 10.1788 12.4317 10.1525 12.3902C10.0999 12.3072 10.0344 12.2088 9.95502 12.0923C9.79629 11.8591 9.5839 11.5555 9.34909 11.2302C9.06093 10.831 8.8961 10.5838 8.79171 10.4134C9.15618 10.3012 9.49281 10.1937 10.0287 9.95478C10.4101 9.78472 10.774 9.60844 11.0698 9.45263C11.2177 9.37473 11.3477 9.30208 11.4631 9.23168C11.5786 9.16129 11.6371 9.16928 11.8531 8.92705C12.4996 8.20213 12.4169 7.34248 12.2264 6.56862C12.169 6.33561 11.9558 6.15484 11.8615 5.92755C11.8688 5.92374 11.8761 5.91983 11.8833 5.91583L12.3804 5.60283L12.8792 5.91583C13.0416 6.01765 13.2307 6.06855 13.4222 6.06198C13.6137 6.05542 13.7989 5.99168 13.9539 5.87899C14.1089 5.76629 14.2266 5.60979 14.2919 5.42962C14.3573 5.24945 14.3672 5.05386 14.3204 4.86802L14.1764 4.29724L14.6283 3.92063C14.7752 3.79767 14.8818 3.63362 14.9347 3.44956C14.9875 3.26551 14.9841 3.06985 14.9249 2.88774C14.8657 2.70562 14.7534 2.54537 14.6024 2.42758C14.4515 2.30979 14.2687 2.23984 14.0777 2.22671L13.4901 2.18654L13.2709 1.64087C13.1986 1.46176 13.074 1.3086 12.9134 1.2014C12.7527 1.0942 12.5635 1.03794 12.3704 1.03997V1.03997Z" fill="#EBE7E4"/>

</g>%n%n
<g transform="translate(139.000000, 9.000000) scale(1.833333 1.833333) "> 

<g id="surface1">
<path style=" stroke:none;fill-rule:evenodd;fill:rgb(24.705882%,24.705882%,24.705882%);fill-opacity:1;" d="M 11.332031 4.230469 L 7.867188 6.230469 C 7.386719 6.507812 6.550781 5.957031 6 5 C 5.449219 4.042969 5.386719 3.042969 5.867188 2.769531 L 9.332031 0.769531 C 9.808594 0.492188 10.644531 1.042969 11.195312 2 C 11.75 2.957031 11.808594 3.957031 11.332031 4.230469 Z M 10.832031 3.367188 C 11.070312 3.226562 11.039062 2.726562 10.761719 2.25 C 10.488281 1.773438 10.070312 1.496094 9.832031 1.632812 C 9.589844 1.773438 9.621094 2.273438 9.898438 2.75 C 10.171875 3.226562 10.589844 3.503906 10.832031 3.367188 Z M 10.832031 3.367188 "/>
<path style=" stroke:none;fill-rule:nonzero;fill:rgb(24.705882%,24.705882%,24.705882%);fill-opacity:1;" d="M 6.175781 6.628906 L 4.152344 7.800781 C 3.671875 8.074219 2.949219 7.71875 2.535156 7 C 2.121094 6.28125 2.171875 5.476562 2.652344 5.199219 L 4.675781 4.03125 C 4.679688 4.453125 4.835938 4.984375 5.132812 5.5 C 5.433594 6.015625 5.8125 6.417969 6.175781 6.628906 Z M 6.175781 6.628906 "/>
<path style=" stroke:none;fill-rule:nonzero;fill:rgb(24.705882%,24.705882%,24.705882%);fill-opacity:1;" d="M 1.167969 6.632812 L 1.285156 6.566406 C 1.359375 6.863281 1.488281 7.183594 1.667969 7.5 C 1.851562 7.816406 2.066406 8.085938 2.285156 8.300781 L 2.167969 8.367188 C 1.691406 8.640625 1.078125 8.476562 0.804688 8 C 0.527344 7.523438 0.691406 6.910156 1.167969 6.632812 Z M 1.167969 6.632812 "/>
<path style=" stroke:none;fill-rule:nonzero;fill:rgb(24.705882%,24.705882%,24.705882%);fill-opacity:1;" d="M 7 7.5 C 7 7.222656 6.777344 7 6.5 7 C 6.222656 7 6 7.222656 6 7.5 L 6 8.292969 L 4.144531 10.144531 C 3.949219 10.339844 3.949219 10.660156 4.144531 10.855469 C 4.339844 11.046875 4.660156 11.046875 4.855469 10.855469 L 6 9.707031 L 6 10.5 C 6 10.777344 6.222656 11 6.5 11 C 6.777344 11 7 10.777344 7 10.5 L 7 9.707031 L 8.144531 10.855469 C 8.339844 11.046875 8.660156 11.046875 8.855469 10.855469 C 9.046875 10.660156 9.046875 10.339844 8.855469 10.144531 L 7 8.292969 Z M 7 7.5 "/>
</g>

</g>%n%n</svg>