<svg width="300" height="40" viewBox="0 0 300 40" fill="none" xmlns="http://www.w3.org/2000/svg" xmlns:xlink="http://www.w3.org/1999/xlink">

<g transform="translate(130.000000, 0.000000) scale(2.500000 2.500000) "> 

 <path d="m5.8418 2.2969c-0.68917-0.0041212-1.4018 0.2023-1.9141 0.7207-0.69251 0.70085-1.4244 1.9152-1.5957 3.4922-0.17131 1.577 0.31721 3.4918 2.0215 5.2168 1.5883 1.6077 3.474 2.0854 5.0508 1.9531 1.5768-0.1323 2.8391-0.76606 3.584-1.5195 0.69867-0.70703 0.81878-1.732 0.63477-2.7012-0.18401-0.9692-0.66036-1.9777-1.3594-2.9688-0.07556-0.10706-0.17353-0.19637-0.28711-0.26172 0.02733-0.12637 0.12498-0.23129 0.125-0.36133-2.51e-4 -1.0304-0.93832-1.9685-1.9688-1.9688-0.15284-1.204e-4 -0.27835 0.10738-0.42578 0.14453-0.06488-0.16644-0.17772-0.30988-0.32422-0.41211-1.1915-0.82333-2.3918-1.327-3.541-1.334z" fill="#ebe7e4" opacity=".812" style="font-variant-east_asian:normal"/>

</g>%n%n
<g transform="translate(139.000000, 9.000000) scale(1.833333 1.833333) "> 

<path fill-rule="nonzero" fill="rgb(24.705882%, 24.705882%, 24.705882%)" fill-opacity="1" d="M 3.972656 1.5 C 3.484375 1.496094 3.070312 1.628906 2.78125 1.921875 C 1.785156 2.933594 0.296875 5.976562 3.183594 8.898438 C 5.824219 11.570312 9.078125 10.3125 10.078125 9.304688 C 10.871094 8.5 10.507812 6.777344 9.308594 5.070312 C 9.082031 5.257812 8.8125 5.875 8.9375 6.085938 C 9.535156 7.101562 9.707031 8.003906 9.289062 8.425781 C 8.652344 9.070312 6.867188 8.324219 5.308594 6.75 C 3.75 5.171875 3.011719 3.367188 3.652344 2.71875 C 4.042969 2.324219 4.859375 2.449219 5.792969 2.972656 C 6.011719 3.09375 6.636719 2.832031 6.8125 2.601562 C 5.792969 1.894531 4.78125 1.503906 3.96875 1.5 Z M 8 3 C 7.5625 3 7.175781 3.28125 7.046875 3.699219 L 5.464844 3.898438 C 5.191406 3.886719 4.976562 4.121094 5.007812 4.394531 C 5.039062 4.667969 5.300781 4.851562 5.5625 4.777344 L 7.199219 4.597656 C 7.261719 4.679688 7.335938 4.753906 7.417969 4.8125 L 7.21875 6.453125 C 7.148438 6.71875 7.328125 6.984375 7.597656 7.019531 C 7.867188 7.050781 8.101562 6.828125 8.089844 6.554688 L 8.273438 4.960938 C 8.703125 4.839844 9 4.445312 9 4 C 9 3.449219 8.550781 3 8 3 Z M 8 3 "/>

</g>%n%n</svg>