<svg width="300" height="40" viewBox="0 0 300 40" fill="none" xmlns="http://www.w3.org/2000/svg" xmlns:xlink="http://www.w3.org/1999/xlink">

<g transform="translate(130.000000, 0.000000) scale(2.500000 2.500000) "> 

<path opacity="0.804" d="M11.7579 1.01873C11.3977 1.02294 11.0754 1.24352 10.9411 1.57779L10.7051 2.16363L10.0757 2.20715C9.27468 2.26241 8.94921 3.26548 9.56522 3.78055L10.049 4.18394L9.89497 4.79656C9.86542 4.91306 9.85972 5.03433 9.87823 5.15309C9.57336 4.91768 9.23124 4.71119 8.82205 4.71119C8.77192 4.71119 8.7357 4.75065 8.68647 4.75471C8.62039 4.64634 8.53194 4.55332 8.42702 4.48188C7.45635 3.81909 6.47537 3.40468 5.50619 3.39891C4.92706 3.39548 4.30801 3.56769 3.85914 4.01656C3.27447 4.60123 2.6759 5.58661 2.53347 6.88215C2.39104 8.17769 2.80729 9.75684 4.20061 11.1504C4.40216 11.352 4.63305 11.4009 4.84503 11.5605C4.07588 12.082 3.46914 12.8374 3.46914 13.8118C3.46881 14.3047 3.86843 14.7043 4.36129 14.7039H9.69076C10.1836 14.7043 10.5832 14.3047 10.5829 13.8118C10.5829 13.2158 10.3266 12.7458 9.97364 12.3439C10.5224 12.1191 10.9914 11.833 11.3328 11.4919H11.3345C11.9461 10.8802 12.0428 9.99651 11.8885 9.19538C11.7342 8.39425 11.3418 7.5799 10.7721 6.78172C10.7235 6.71308 10.6654 6.65165 10.5997 6.59927C10.6012 6.5686 10.6264 6.54659 10.6264 6.51558C10.6264 6.23538 10.4407 6.03065 10.3235 5.79249C10.6079 5.95135 10.9564 5.94236 11.2324 5.76905L11.768 5.43429L12.3019 5.76905C12.9826 6.19697 13.8373 5.57622 13.641 4.79656L13.487 4.18561L13.9707 3.78055C14.5868 3.26548 14.2613 2.26241 13.4602 2.20715L12.8309 2.16363L12.5949 1.57779C12.4578 1.23673 12.1255 1.01474 11.7579 1.01873Z" fill="#EBE7E4"/>

</g>%n%n
<g transform="translate(139.000000, 9.000000) scale(0.687500 0.687500) "> 

<path fill-rule="nonzero" fill="rgb(24.705882%, 24.705882%, 24.705882%)" fill-opacity="1" d="M 24.6875 7.59375 L 22.324219 9.074219 L 23.003906 6.371094 L 20.863281 4.582031 L 23.648438 4.390625 L 24.6875 1.804688 L 25.726562 4.390625 L 28.511719 4.582031 L 26.371094 6.371094 L 27.050781 9.074219 Z M 24.6875 7.59375 "/>
<path fill-rule="nonzero" fill="rgb(24.705882%, 24.705882%, 24.705882%)" fill-opacity="1" d="M 10.007812 7.382812 C 9.039062 7.378906 8.214844 7.640625 7.640625 8.21875 C 5.648438 10.207031 2.679688 16.210938 8.441406 21.972656 C 13.710938 27.242188 20.203125 24.761719 22.195312 22.773438 C 23.78125 21.1875 23.058594 17.789062 20.660156 14.425781 C 20.207031 14.792969 19.675781 16.007812 19.925781 16.429688 C 21.109375 18.433594 21.453125 20.210938 20.625 21.039062 C 19.351562 22.3125 15.789062 20.839844 12.679688 17.730469 C 9.570312 14.621094 8.097656 11.0625 9.375 9.785156 C 10.15625 9.007812 11.78125 9.253906 13.648438 10.289062 C 14.085938 10.527344 15.328125 10.007812 15.683594 9.554688 C 13.644531 8.160156 11.628906 7.394531 10.007812 7.382812 Z M 17.789062 10.453125 C 16.839844 10.453125 16.03125 11.070312 15.75 11.921875 L 12.878906 12.257812 C 12.339844 12.238281 11.90625 12.703125 11.96875 13.242188 C 12.03125 13.78125 12.558594 14.136719 13.082031 13.992188 L 15.953125 13.691406 C 16.132812 13.996094 16.382812 14.246094 16.6875 14.425781 L 16.386719 17.296875 C 16.242188 17.820312 16.597656 18.347656 17.136719 18.410156 C 17.675781 18.472656 18.140625 18.039062 18.121094 17.5 L 18.457031 14.628906 C 19.308594 14.347656 19.925781 13.539062 19.925781 12.589844 C 19.925781 11.410156 18.96875 10.453125 17.789062 10.453125 Z M 10.375 25.476562 C 8.566406 26.304688 7.339844 27.878906 7.339844 29.683594 L 19.824219 29.683594 C 19.824219 28.570312 19.011719 27.265625 18.019531 26.710938 C 17.339844 26.835938 16.613281 26.914062 15.882812 26.914062 C 13.933594 26.914062 12.078125 26.429688 10.375 25.476562 Z M 10.375 25.476562 "/>

</g>%n%n</svg>