<svg width="300" height="40" viewBox="0 0 300 40" fill="none" xmlns="http://www.w3.org/2000/svg" xmlns:xlink="http://www.w3.org/1999/xlink">

<g transform="translate(130.000000, 0.000000) scale(2.500000 2.500000) "> 

<g clip-path="url(#clip0)">
<path opacity="0.812" d="M10.2832 -0.201174C9.93348 -0.190128 9.62957 0.0423143 9.52735 0.376951C9.08261 1.84015 8.30596 2.60676 7.46485 3.29101C6.62373 3.97527 5.62349 4.51685 5.16016 5.67187C4.72167 6.76497 5.07084 7.80974 5.54493 8.44726C5.69803 8.65315 5.8579 8.78048 6.01758 8.92578C5.66356 9.02362 5.41828 9.34559 5.41797 9.71289V14.4609C5.39617 15.1144 5.96962 15.7298 6.62305 15.752C7.27648 15.7741 7.89152 15.1983 7.91407 14.5449L7.79297 14.9453L8.00196 14.6055L8.21289 14.9492L8.09571 14.5977C8.15615 15.2237 8.75424 15.7494 9.38282 15.7266C10.0114 15.7038 10.571 15.1366 10.5859 14.5078C10.586 14.5013 10.586 14.4948 10.5859 14.4883V9.71289C10.586 9.38715 10.3926 9.09247 10.0938 8.96289C11.2342 8.24261 12.1081 7.05521 12.5273 5.70508C13.1143 3.81489 12.7456 1.4991 10.8145 -0.0253926C10.6636 -0.144669 10.4755 -0.206913 10.2832 -0.201174V-0.201174Z" fill="#EBE7E4"/>
</g>
<defs>
<clipPath id="clip0">
<path d="M0 0H16V16H0V0Z" fill="white"/>
</clipPath>
</defs>

</g>%n%n
<g transform="translate(139.000000, 9.000000) scale(0.687500 0.687500) "> 

<path fill-rule="nonzero" fill="rgb(24.705882%, 24.705882%, 24.705882%)" fill-opacity="1" d="M 20.609375 1.285156 C 18.605469 7.886719 13.132812 8.761719 11.832031 12.003906 C 10.523438 15.261719 13.804688 17.460938 14.34375 17.597656 C 14.34375 17.597656 13.46875 15.75 14.085938 14.210938 C 14.515625 13.148438 14.859375 12.808594 16.085938 11.644531 C 16.964844 10.804688 18.351562 9.65625 19.382812 7.957031 C 20.546875 10.058594 20.265625 11.773438 19.480469 13.46875 C 18.402344 15.792969 16.898438 17.632812 16.898438 17.632812 C 22.851562 16.417969 27.277344 6.546875 20.609375 1.285156 Z M 20.609375 1.285156 "/>
<path fill="none" stroke-width="31.2889" stroke-linecap="round" stroke-linejoin="miter" stroke="rgb(24.705882%, 24.705882%, 24.705882%)" stroke-opacity="1" stroke-miterlimit="4" d="M 241.572266 526.049805 L 241.572266 368.659668 L 338.427734 368.659668 L 338.427734 526.049805 " transform="matrix(0.0551724, 0, 0, 0.0551724, 0, 0)"/>
<path fill="none" stroke-width="27.8631" stroke-linecap="round" stroke-linejoin="round" stroke="rgb(24.705882%, 24.705882%, 24.705882%)" stroke-opacity="1" stroke-miterlimit="4" d="M 241.572266 368.659668 L 338.427734 526.049805 L 338.427734 368.659668 L 241.572266 526.049805 " transform="matrix(0.0551724, 0, 0, 0.0551724, 0, 0)"/>

</g>%n%n</svg>