<svg width="300" height="40" viewBox="0 0 300 40" fill="none" xmlns="http://www.w3.org/2000/svg" xmlns:xlink="http://www.w3.org/1999/xlink">

<g transform="translate(130.000000, 0.000000) scale(2.500000 2.500000) "> 

<path d="M2 4.5C2 3.67157 2.67157 3 3.5 3H5.5C6.0317 3 6.52463 3.16598 6.9298 3.44896C7.20197 3.17187 7.58091 3 8 3C8.41909 3 8.79803 3.17187 9.0702 3.44896C9.47537 3.16598 9.9683 3 10.5 3H12.5C13.3284 3 14 3.67157 14 4.5C14 5.19173 13.5318 5.77411 12.895 5.94746C12.9627 6.11845 13 6.30488 13 6.5C13 7.32843 12.3284 8 11.5 8C12.3284 8 13 8.67157 13 9.5C13 9.68122 12.9679 9.85493 12.909 10.0158C12.9045 10.0281 12.8998 10.0404 12.895 10.0525C13.5318 10.2259 14 10.8083 14 11.5C14 12.3284 13.3284 13 12.5 13H10.5C9.9683 13 9.47537 12.834 9.0702 12.551C8.79803 12.8281 8.41909 13 8 13C7.58091 13 7.20197 12.8281 6.9298 12.551C6.52463 12.834 6.0317 13 5.5 13H3.5C2.67157 13 2 12.3284 2 11.5C2 10.8083 2.46823 10.2259 3.10504 10.0525C3.10021 10.0404 3.09554 10.0281 3.09102 10.0158C3.03214 9.85493 3 9.68122 3 9.5C3 8.67157 3.67157 8 4.5 8C3.67157 8 3 7.32843 3 6.5C3 6.30488 3.03726 6.11845 3.10504 5.94746C2.46823 5.77411 2 5.19173 2 4.5Z" fill="#EBE7E4" fill-opacity="0.8"/>

</g>%n%n
<g transform="translate(139.000000, 9.000000) scale(0.687500 0.687500) "> 

<path fill-rule="evenodd" fill="rgb(24.705882%, 24.705882%, 24.705882%)" fill-opacity="1" d="M 2.667969 6.667969 C 2.667969 5.929688 3.261719 5.332031 4 5.332031 L 9.332031 5.332031 C 11.542969 5.332031 13.332031 7.125 13.332031 9.332031 C 13.332031 10.554688 12.785156 11.652344 11.921875 12.382812 C 12.796875 13.335938 13.332031 14.605469 13.332031 16 C 13.332031 17.394531 12.796875 18.664062 11.921875 19.617188 C 12.785156 20.347656 13.332031 21.445312 13.332031 22.667969 C 13.332031 24.875 11.542969 26.667969 9.332031 26.667969 L 4 26.667969 C 3.261719 26.667969 2.667969 26.070312 2.667969 25.332031 C 2.667969 24.597656 3.261719 24 4 24 L 9.332031 24 C 10.070312 24 10.667969 23.402344 10.667969 22.667969 C 10.667969 21.929688 10.070312 21.332031 9.332031 21.332031 L 6.667969 21.332031 C 5.929688 21.332031 5.332031 20.738281 5.332031 20 C 5.332031 19.261719 5.929688 18.667969 6.667969 18.667969 L 8 18.667969 C 9.472656 18.667969 10.667969 17.472656 10.667969 16 C 10.667969 14.527344 9.472656 13.332031 8 13.332031 L 6.667969 13.332031 C 5.929688 13.332031 5.332031 12.738281 5.332031 12 C 5.332031 11.261719 5.929688 10.667969 6.667969 10.667969 L 9.332031 10.667969 C 10.070312 10.667969 10.667969 10.070312 10.667969 9.332031 C 10.667969 8.597656 10.070312 8 9.332031 8 L 4 8 C 3.261719 8 2.667969 7.402344 2.667969 6.667969 Z M 29.332031 6.667969 C 29.332031 5.929688 28.738281 5.332031 28 5.332031 L 22.667969 5.332031 C 20.457031 5.332031 18.667969 7.125 18.667969 9.332031 C 18.667969 10.554688 19.214844 11.652344 20.078125 12.382812 C 19.203125 13.335938 18.667969 14.605469 18.667969 16 C 18.667969 17.394531 19.203125 18.664062 20.078125 19.617188 C 19.214844 20.347656 18.667969 21.445312 18.667969 22.667969 C 18.667969 24.875 20.457031 26.667969 22.667969 26.667969 L 28 26.667969 C 28.738281 26.667969 29.332031 26.070312 29.332031 25.332031 C 29.332031 24.597656 28.738281 24 28 24 L 22.667969 24 C 21.929688 24 21.332031 23.402344 21.332031 22.667969 C 21.332031 21.929688 21.929688 21.332031 22.667969 21.332031 L 25.332031 21.332031 C 26.070312 21.332031 26.667969 20.738281 26.667969 20 C 26.667969 19.261719 26.070312 18.667969 25.332031 18.667969 L 24 18.667969 C 22.527344 18.667969 21.332031 17.472656 21.332031 16 C 21.332031 14.527344 22.527344 13.332031 24 13.332031 L 25.332031 13.332031 C 26.070312 13.332031 26.667969 12.738281 26.667969 12 C 26.667969 11.261719 26.070312 10.667969 25.332031 10.667969 L 22.667969 10.667969 C 21.929688 10.667969 21.332031 10.070312 21.332031 9.332031 C 21.332031 8.597656 21.929688 8 22.667969 8 L 28 8 C 28.738281 8 29.332031 7.402344 29.332031 6.667969 Z M 17.332031 6.667969 C 17.332031 5.929688 16.738281 5.332031 16 5.332031 C 15.261719 5.332031 14.667969 5.929688 14.667969 6.667969 L 14.667969 25.332031 C 14.667969 26.070312 15.261719 26.667969 16 26.667969 C 16.738281 26.667969 17.332031 26.070312 17.332031 25.332031 Z M 17.332031 6.667969 "/>

</g>%n%n</svg>