<svg width="40" height="40" viewBox="0 0 40 40" fill="none" xmlns="http://www.w3.org/2000/svg" >

<g transform="translate(0.000000, 0.000000) scale(2.500000 2.500000) "> 

<path opacity="0.8" d="M7.99999 1.09717C7.8213 1.09717 7.67207 1.11777 7.50119 1.17249C7.40201 1.20431 7.3083 1.25117 7.22334 1.31142L5.94621 2.21696L4.30753 2.47473C4.27601 2.4794 4.24473 2.48554 4.21379 2.49314C4.02892 2.54008 3.71319 2.64762 3.49572 3.00533C3.27825 3.36305 3.34006 3.73113 3.34006 3.58782V3.25808L1.68297 4.27242C1.53449 4.36359 1.41188 4.49133 1.3269 4.64343C1.24191 4.79553 1.19737 4.9669 1.19756 5.14114V5.51607C1.19768 5.78594 1.30494 6.04473 1.49576 6.23556C1.68659 6.42638 1.94537 6.53364 2.21524 6.53376H2.75087V13.9789C2.75099 14.2488 2.85825 14.5076 3.04908 14.6984C3.2399 14.8893 3.49869 14.9965 3.76856 14.9966H4.78624C5.05611 14.9965 5.3149 14.8893 5.50572 14.6984C5.69655 14.5076 5.80381 14.2488 5.80393 13.9789V11.8867C5.8729 11.9024 5.93184 11.9294 6.00646 11.9436C6.16884 11.9745 6.434 11.971 6.62411 11.9938C6.75117 12.6786 7.27792 13.2291 7.99999 13.2291C8.71993 13.2291 9.24306 12.6806 9.37253 11.9988C9.56284 11.9769 9.82697 11.9807 9.99018 11.9503C10.0653 11.9363 10.1263 11.909 10.1961 11.8934V13.9789C10.1962 14.2488 10.3034 14.5076 10.4943 14.6984C10.6851 14.8893 10.9439 14.9965 11.2137 14.9966H12.2582C12.5281 14.9965 12.7869 14.8893 12.9777 14.6984C13.1685 14.5076 13.2758 14.2488 13.2759 13.9789V6.53376H13.7847C14.0546 6.53364 14.3134 6.42638 14.5042 6.23555C14.6951 6.04473 14.8023 5.78594 14.8024 5.51607V5.14113C14.8026 4.9669 14.7581 4.79553 14.6731 4.64343C14.5881 4.49133 14.4655 4.36359 14.317 4.27242L12.6599 3.25808V3.58782C12.6599 3.73088 12.7219 3.36314 12.5043 3.00533C12.2867 2.64752 11.971 2.54005 11.7862 2.49314C11.7547 2.48549 11.7229 2.47934 11.6908 2.47473L10.032 2.21696L8.78335 1.31644C8.69664 1.25381 8.60062 1.20523 8.49879 1.17249C8.32792 1.11777 8.17869 1.09717 7.99999 1.09717ZM5.80393 6.53376H6.18054C5.99933 6.71426 5.92042 6.92189 5.80393 7.14973V6.53376ZM9.83451 6.53376H10.1961V7.13969C10.0829 6.91645 10.0104 6.71216 9.83451 6.53376Z" fill="#EBE7E4"/>

</g>


<g transform="translate(9.000000, 9.000000) scale(1.833333 1.833333) "> 

<path d="M394.924 402.883C394.924 411.598 352.955 421.599 290.001 421.599C227.047 421.599 185.078 410.966 185.078 402.883C185.078 391.437 221.457 356.818 221.457 349.187C221.457 340.603 224.285 306.544 224.285 297.96C224.285 269.735 243.718 246.425 271.963 241.597C271.963 241.311 271.963 240.929 271.963 240.729C271.963 238.821 271.963 213.69 271.963 213.69H308.04C308.04 213.69 308.04 238.821 308.04 240.729C308.04 240.929 308.04 241.311 308.04 241.597C336.534 245.685 355.717 269.735 355.717 297.96C355.717 306.544 358.546 340.603 358.546 349.187C358.546 356.818 394.924 391.437 394.924 402.883ZM290.001 442.344C280.035 442.344 278.555 441.283 273.786 441.283C271.878 444.145 270.924 446.053 270.924 449.868C270.924 460.36 279.509 468.945 290.001 468.945C300.494 468.945 309.078 460.36 309.078 449.868C309.078 446.053 308.124 444.145 306.217 441.283C301.447 441.283 299.967 442.344 290.001 442.344Z" fill="#3f3f3f"/>
<path d="M444.364 114.139V104.005C444.364 102.689 444.364 101.393 439.219 100.087L359.425 87.0747L298.158 42.9338C294.079 41.6275 285.922 41.6275 281.843 42.9338L220.273 87.1966L140.782 100.087C135.637 101.393 135.637 102.691 135.637 104.005V114.139L45.2734 169.642L45.8086 185.114H534.658L534.728 169.642L444.364 114.139Z" fill="#3f3f3f"/>
<path d="M154.479 214.418H110.449V543.945H154.479V214.418Z" fill="#3f3f3f"/>
<path d="M469.553 214.418H425.523V543.945H469.553V214.418Z" fill="#3f3f3f"/>

</g>

</svg>