<svg width="300" height="40" viewBox="0 0 300 40" fill="none" xmlns="http://www.w3.org/2000/svg" xmlns:xlink="http://www.w3.org/1999/xlink">

<g transform="translate(130.000000, 0.000000) scale(2.500000 2.500000) "> 

<path opacity="0.854" d="M12.849 1.49883C12.2777 1.50202 11.7537 1.65969 11.2689 1.79343C10.8572 1.90701 10.7254 1.95921 10.5191 2.03446C10.1228 1.89594 9.69984 1.90388 9.15321 2.06124C8.23464 2.32568 7.76192 2.81216 7.49277 3.13249C7.39553 3.14715 7.38221 3.13312 7.25174 3.15927C6.94594 3.22056 6.64761 3.23074 6.20727 3.56099C5.9229 3.77427 5.81303 3.84893 5.5913 4.06983C5.60861 4.06171 5.6181 4.05896 5.69843 4.04305C5.72048 4.03868 5.79715 4.04716 5.83233 4.04305C5.35089 4.05669 4.87501 4.45057 4.7343 4.76615C4.68435 4.87818 4.66928 4.96965 4.65396 5.06074C4.65374 5.06202 4.62739 5.05946 4.62718 5.06074C4.51738 5.13831 4.42495 5.23791 4.35578 5.35319C4.28661 5.46846 4.24223 5.59689 4.22546 5.73027L3.23455 13.2826C3.20766 13.4702 3.23647 13.6616 3.31741 13.833C3.39835 14.0044 3.52785 14.1483 3.68983 14.2467C3.68983 14.2467 4.00212 14.3884 4.33258 14.461C4.66305 14.5335 5.12535 14.5966 5.80555 14.5949C6.4837 14.5932 6.93151 14.5387 7.25174 14.461C7.41185 14.4221 7.54369 14.3775 7.65346 14.3271C7.76322 14.2766 7.92127 14.1664 7.92127 14.1664C8.04624 14.0639 8.14358 13.9319 8.20439 13.7822C8.26521 13.6325 8.28757 13.4699 8.26943 13.3094L7.49277 5.94452C7.63382 5.90721 7.76333 5.86645 7.86771 5.81062C7.89591 5.79553 7.92082 5.77391 7.94805 5.75705C8.27885 5.81291 8.80243 5.9318 9.63527 5.70349C9.94791 5.61779 10.1894 5.50076 10.4119 5.30177C12.1949 5.24857 13.1804 5.08317 13.7864 4.52512C13.9212 4.40098 13.8772 4.21532 13.9471 4.04305C14.0789 3.98434 14.2261 3.95958 14.3488 3.8288C14.5456 3.61883 14.649 3.30313 14.6701 3.02537C14.6707 3.00752 14.6707 2.98965 14.6701 2.9718C14.6665 2.62226 14.5307 2.2044 14.2684 1.95412C14.0061 1.70383 13.6905 1.60349 13.4382 1.5524C13.2379 1.51183 13.0394 1.49777 12.849 1.49883Z" fill="#EBE7E4"/>

</g>%n%n
<g transform="translate(139.000000, 9.000000) scale(1.833333 1.833333) "> 

<path fill-rule="nonzero" fill="rgb(24.705882%, 24.705882%, 24.705882%)" fill-opacity="1" d="M 2.5625 10.746094 L 3.429688 4.136719 L 4.558594 4.125 L 5.277344 10.75 C 5.277344 10.75 5.042969 10.921875 3.949219 10.925781 C 2.859375 10.929688 2.5625 10.746094 2.5625 10.746094 Z M 2.5625 10.746094 "/>
<path fill-rule="nonzero" fill="rgb(24.705882%, 24.705882%, 24.705882%)" fill-opacity="1" d="M 4.300781 3.097656 C 4.488281 2.910156 4.496094 2.917969 4.753906 2.726562 C 5.007812 2.539062 5.8125 2.457031 5.8125 2.457031 C 5.8125 2.457031 6.261719 1.765625 7.101562 1.523438 C 7.941406 1.28125 7.996094 1.613281 7.996094 1.613281 C 7.996094 1.613281 10.945312 0.402344 10.957031 1.609375 C 10.925781 2.039062 10.484375 1.9375 10.484375 1.9375 C 10.484375 1.9375 11.3125 2.855469 7.539062 2.90625 C 7.539062 2.90625 7.765625 3.089844 7.097656 3.273438 C 6.433594 3.453125 5.5625 3.289062 5.5625 3.289062 C 5.5625 3.289062 5.535156 3.554688 4.46875 3.625 C 4.214844 3.734375 3.726562 3.734375 3.667969 3.636719 C 3.667969 3.636719 3.660156 3.3125 4.007812 3.300781 C 4.011719 3.324219 4.203125 3.195312 4.300781 3.097656 Z M 4.300781 3.097656 "/>

</g>%n%n</svg>