<svg width="300" height="40" viewBox="0 0 300 40" fill="none" xmlns="http://www.w3.org/2000/svg" xmlns:xlink="http://www.w3.org/1999/xlink">

<g transform="translate(130.000000, 0.000000) scale(2.000000 2.000000) "> 

<g clip-path="url(#clip0)">
<path opacity="0.953" d="M9.99934 0C15.514 0 20 4.44646 20 10C20 15.5172 15.514 20 9.99934 20C4.48599 20 0 15.5172 0 10C0 4.44646 4.48599 0 9.99934 0V0Z" fill="#878787"/>
<path opacity="0.95" fill-rule="evenodd" clip-rule="evenodd" d="M10 19C14.9706 19 19 14.9706 19 10C19 5.02944 14.9706 1 10 1C5.02944 1 1 5.02944 1 10C1 14.9706 5.02944 19 10 19ZM10 20C15.5228 20 20 15.5228 20 10C20 4.47715 15.5228 0 10 0C4.47715 0 0 4.47715 0 10C0 15.5228 4.47715 20 10 20Z" fill="#404040"/>
</g>
<defs>
<clipPath id="clip0">
<path d="M0 0H20V20H0V0Z" fill="white"/>
</clipPath>
</defs>

</g>%n%n
<g transform="translate(138.000000, 8.000000) scale(0.750000 0.750000) "> 

<path fill-rule="evenodd" fill="rgb(100%, 100%, 100%)" fill-opacity="1" d="M 16.070312 5.9375 C 12.570312 5.9375 9.417969 7.078125 6.75 9.101562 C 4.285156 10.976562 4.570312 12.921875 4.570312 12.921875 L 4.570312 26.0625 L 10.59375 26.0625 L 10.59375 12.996094 C 10.59375 12.972656 10.660156 11.75 11.359375 10.527344 C 12.066406 9.292969 13.246094 8.101562 16.070312 8.101562 C 18.890625 8.101562 19.988281 9.273438 20.628906 10.496094 C 21.273438 11.714844 21.28125 12.957031 21.28125 12.957031 L 21.28125 26.0625 L 27.4375 26.0625 L 27.4375 12.96875 C 27.4375 12.96875 27.425781 11.445312 25.160156 9.488281 C 22.734375 7.394531 19.570312 5.9375 16.070312 5.9375 Z M 16.070312 5.9375 "/>

</g>%n%n</svg>