<svg width="40" height="40" viewBox="0 0 40 40" fill="none" xmlns="http://www.w3.org/2000/svg" >

<g transform="translate(0.000000, 0.000000) scale(2.500000 2.500000) "> 

<path opacity="0.801" d="M8.00195 1.14398C4.23602 1.14375 1.15743 4.22233 1.15767 7.98827C1.15743 11.7542 4.23602 14.8328 8.00195 14.8325C11.7679 14.8328 14.8465 11.7542 14.8462 7.98827C14.8465 4.22233 11.7679 1.14375 8.00195 1.14398Z" fill="#EBE7E4"/>

</g>


<g transform="translate(9.000000, 9.000000) scale(1.833333 1.833333) "> 

<g clip100-path="url(#clip1000)">
<path d="M322.686 109.745C298.452 104.466 289.151 105.742 274.972 110.264C232.936 123.67 222.633 145.567 248.988 165.492C264.081 176.903 273.082 190.861 280.681 214.633C290.583 245.615 283.262 261.676 267.971 242.509C248.496 218.096 199.418 197.811 165.401 200.115C137.351 202.015 115.622 225.252 107.564 261.963C99.5501 298.476 110.575 335.409 133.257 348.029C141.03 352.353 150.215 347.665 163.937 332.366C179.067 315.497 197.271 305.076 218.637 301.06C235.01 297.983 250.178 298.513 249.21 302.125C249.026 302.813 243.427 308.724 236.767 315.263C206.461 345.019 190.338 403.385 204.906 430.589C216.214 451.704 247.967 470.643 275.509 472.701C303.095 474.762 331.436 466.013 343.008 451.86C350.214 443.048 350.792 441.253 348.877 433.728C347.708 429.135 341.402 420.855 334.86 415.328C328.319 409.802 319.846 400.257 316.035 394.12C307.737 380.755 298.359 352.99 298.53 342.296C298.688 332.345 303.39 333.484 317.068 346.786C342.43 371.451 392.593 388.472 422.858 382.682C449.518 377.581 470.463 347.028 474.347 307.575C477.237 278.226 471.074 256.906 455.584 242.671C441.459 229.69 433.06 231.695 414.459 252.486C398.466 270.363 372.91 282.69 347.814 284.636C331.634 285.891 331.554 281.824 347.43 264.834C371.381 239.201 383.511 210.92 384.721 177.882C385.164 165.8 383.225 158.792 375.942 146.122C358.409 122.702 346.652 115.298 322.686 109.745ZM300.895 263.277C316.997 267.593 326.551 284.146 322.234 300.248C317.919 316.347 301.37 325.902 285.27 321.589C269.167 317.276 259.609 300.726 263.922 284.623C268.236 268.517 284.79 258.96 300.895 263.277Z" fill="#3f3f3f"/>
<path d="M290.002 522.857C418.605 522.857 522.859 418.603 522.859 290C522.859 161.396 418.605 57.1426 290.002 57.1426C161.398 57.1426 57.1445 161.396 57.1445 290C57.1445 418.603 161.398 522.857 290.002 522.857Z" stroke="#3f3f3f" stroke-width="37"/>
</g>
<defs>
<clip100Path id="clip1000">
<path d="M0 0H580V580H0V0Z" fill="#3f3f3f"/>
</clip100Path>
</defs>

</g>

</svg>