<svg width="300" height="40" viewBox="0 0 300 40" fill="none" xmlns="http://www.w3.org/2000/svg" xmlns:xlink="http://www.w3.org/1999/xlink">

<g transform="translate(130.000000, 0.000000) scale(2.500000 2.500000) "> 

<path opacity="0.804" d="M11.7579 1.01873C11.3977 1.02294 11.0754 1.24352 10.9411 1.57779L10.7051 2.16363L10.0757 2.20715C9.27468 2.26241 8.94921 3.26548 9.56522 3.78055L10.049 4.18394L9.89497 4.79656C9.86542 4.91306 9.85972 5.03433 9.87823 5.15309C9.57336 4.91768 9.23124 4.71119 8.82205 4.71119C8.77192 4.71119 8.7357 4.75065 8.68647 4.75471C8.62039 4.64634 8.53194 4.55332 8.42702 4.48188C7.45635 3.81909 6.47537 3.40468 5.50619 3.39891C4.92706 3.39548 4.30801 3.56769 3.85914 4.01656C3.27447 4.60123 2.6759 5.58661 2.53347 6.88215C2.39104 8.17769 2.80729 9.75684 4.20061 11.1504C4.40216 11.352 4.63305 11.4009 4.84503 11.5605C4.07588 12.082 3.46914 12.8374 3.46914 13.8118C3.46881 14.3047 3.86843 14.7043 4.36129 14.7039H9.69076C10.1836 14.7043 10.5832 14.3047 10.5829 13.8118C10.5829 13.2158 10.3266 12.7458 9.97364 12.3439C10.5224 12.1191 10.9914 11.833 11.3328 11.4919H11.3345C11.9461 10.8802 12.0428 9.99651 11.8885 9.19538C11.7342 8.39425 11.3418 7.5799 10.7721 6.78172C10.7235 6.71308 10.6654 6.65165 10.5997 6.59927C10.6012 6.5686 10.6264 6.54659 10.6264 6.51558C10.6264 6.23538 10.4407 6.03065 10.3235 5.79249C10.6079 5.95135 10.9564 5.94236 11.2324 5.76905L11.768 5.43429L12.3019 5.76905C12.9826 6.19697 13.8373 5.57622 13.641 4.79656L13.487 4.18561L13.9707 3.78055C14.5868 3.26548 14.2613 2.26241 13.4602 2.20715L12.8309 2.16363L12.5949 1.57779C12.4578 1.23673 12.1255 1.01474 11.7579 1.01873Z" fill="#EBE7E4"/>

</g>%n%n
<g transform="translate(139.000000, 9.000000) scale(1.833333 1.833333) "> 

<path fill-rule="nonzero" fill="rgb(24.705882%, 24.705882%, 24.705882%)" fill-opacity="1" d="M 9.257812 2.847656 L 8.371094 3.402344 L 8.628906 2.390625 L 7.824219 1.71875 L 8.867188 1.648438 L 9.257812 0.675781 L 9.648438 1.648438 L 10.691406 1.71875 L 9.890625 2.390625 L 10.144531 3.402344 Z M 9.257812 2.847656 "/>
<path fill-rule="nonzero" fill="rgb(24.705882%, 24.705882%, 24.705882%)" fill-opacity="1" d="M 3.753906 2.769531 C 3.390625 2.765625 3.082031 2.867188 2.863281 3.082031 C 2.117188 3.828125 1.003906 6.078125 3.164062 8.238281 C 5.140625 10.214844 7.578125 9.285156 8.324219 8.539062 C 8.917969 7.945312 8.644531 6.671875 7.746094 5.410156 C 7.578125 5.546875 7.378906 6.003906 7.472656 6.160156 C 7.917969 6.914062 8.042969 7.578125 7.734375 7.890625 C 7.257812 8.367188 5.921875 7.816406 4.753906 6.648438 C 3.589844 5.484375 3.035156 4.148438 3.515625 3.671875 C 3.808594 3.378906 4.417969 3.46875 5.117188 3.859375 C 5.28125 3.949219 5.746094 3.753906 5.882812 3.582031 C 5.117188 3.058594 4.359375 2.773438 3.753906 2.769531 Z M 6.671875 3.921875 C 6.316406 3.921875 6.011719 4.152344 5.90625 4.472656 L 4.828125 4.597656 C 4.625 4.589844 4.464844 4.765625 4.488281 4.964844 C 4.511719 5.167969 4.710938 5.300781 4.90625 5.246094 L 5.980469 5.136719 C 6.050781 5.25 6.144531 5.34375 6.257812 5.410156 L 6.144531 6.488281 C 6.089844 6.683594 6.222656 6.878906 6.425781 6.902344 C 6.628906 6.925781 6.804688 6.765625 6.796875 6.5625 L 6.921875 5.484375 C 7.242188 5.378906 7.472656 5.078125 7.472656 4.722656 C 7.472656 4.277344 7.113281 3.921875 6.671875 3.921875 Z M 3.890625 9.554688 C 3.210938 9.863281 2.75 10.453125 2.75 11.132812 L 7.433594 11.132812 C 7.433594 10.714844 7.128906 10.226562 6.757812 10.015625 C 6.503906 10.0625 6.230469 10.09375 5.957031 10.09375 C 5.226562 10.09375 4.53125 9.910156 3.890625 9.554688 Z M 3.890625 9.554688 "/>

</g>%n%n</svg>