<svg width="300" height="40" viewBox="0 0 300 40" fill="none" xmlns="http://www.w3.org/2000/svg" xmlns:xlink="http://www.w3.org/1999/xlink">

<g transform="translate(130.000000, 0.000000) scale(2.500000 2.500000) "> 

<path opacity="0.806" fill-rule="evenodd" clip-rule="evenodd" d="M3.83998 1.85431C3.41017 1.85445 3.06178 2.20284 3.06165 2.63264V2.87367V7.13189C3.06189 7.16831 3.06469 7.20466 3.07002 7.24069C3.0852 7.3475 3.12255 7.45033 3.17045 7.547C3.19387 7.5992 3.21557 7.65181 3.24744 7.69932C3.26395 7.72375 3.28183 7.74722 3.301 7.76962C3.30917 7.77922 3.31927 7.78711 3.32778 7.7964L3.35457 7.82318C3.37505 7.84391 3.3943 7.86622 3.4165 7.88511C3.42579 7.89363 3.43368 7.90373 3.44328 7.91189C3.45257 7.92041 3.46046 7.93051 3.47006 7.93867C3.49246 7.95784 3.51593 7.97573 3.54036 7.99224C3.61184 8.04019 3.68843 8.07932 3.76967 8.10773C3.83877 8.13167 3.9109 8.14576 3.98392 8.14958C4.02227 8.15176 4.0594 8.15176 4.09775 8.14958C4.10678 8.1493 4.1155 8.15009 4.12453 8.14958L4.08101 8.15125H5.8017C5.70331 8.56441 5.57353 9.0508 5.39998 9.60413C5.00832 10.8529 4.41407 12.2535 3.76968 13.069C3.76548 13.0738 3.76039 13.0776 3.75628 13.0823C3.73716 13.1042 3.71928 13.1271 3.70272 13.151C3.65433 13.2229 3.61575 13.3018 3.58723 13.3836C3.56359 13.4517 3.54951 13.5226 3.54538 13.5945C3.54316 13.6332 3.54316 13.6731 3.54538 13.7117L3.55542 13.5326C3.53596 13.6442 3.53708 13.759 3.55542 13.8707C3.57364 13.987 3.61075 14.1008 3.66757 14.2038L3.67259 14.2139C3.79864 14.4338 4.01112 14.6028 4.25341 14.6775L4.04753 14.5804C4.11948 14.6288 4.1983 14.6674 4.28019 14.6959C4.34822 14.7196 4.41919 14.7336 4.49109 14.7378C4.52972 14.74 4.56963 14.74 4.60826 14.7378C4.62952 14.737 4.65074 14.7353 4.67187 14.7327C4.78013 14.7175 4.88373 14.6777 4.98152 14.6289C5.03273 14.6057 5.08552 14.5849 5.13217 14.5536C5.15603 14.537 5.17894 14.5191 5.2008 14.5C5.21048 14.4918 5.21822 14.4818 5.22758 14.4732L5.31629 14.3845C5.32487 14.3751 5.33485 14.3674 5.34307 14.3577C5.34876 14.3511 5.35434 14.3444 5.35981 14.3376C5.51105 14.1469 5.63343 13.9518 5.75483 13.7602L7.90905 12.15L9.96786 13.7033C10.1071 13.9215 10.2503 14.1386 10.4081 14.3376C10.4136 14.3444 10.4191 14.3511 10.4248 14.3577C10.433 14.3674 10.443 14.3752 10.4516 14.3845C10.487 14.4262 10.5254 14.4646 10.5671 14.5C10.5889 14.5191 10.6119 14.537 10.6357 14.5536C10.6523 14.5647 10.6721 14.5702 10.6893 14.5803C10.7612 14.6287 10.8401 14.6673 10.9219 14.6958C10.99 14.7195 11.0609 14.7336 11.1328 14.7377C11.1715 14.7399 11.2114 14.7399 11.25 14.7377C11.2713 14.7369 11.2925 14.7352 11.3136 14.7326C11.4219 14.7174 11.5255 14.6777 11.6233 14.6288C11.6745 14.6056 11.7273 14.5849 11.7739 14.5535C11.7978 14.5369 11.8207 14.5191 11.8426 14.4999C11.8692 14.4773 11.8921 14.4515 11.9162 14.4263C12.0022 14.3401 12.0687 14.236 12.1187 14.125C12.1641 14.0308 12.203 13.9323 12.2175 13.8287C12.2225 13.791 12.2248 13.753 12.2242 13.7149C12.2233 13.5638 12.1817 13.4155 12.1154 13.2797C12.0917 13.2268 12.0708 13.1721 12.0384 13.124C12.0268 13.1074 12.0145 13.0912 12.0016 13.0755C11.3502 12.2539 10.7306 10.846 10.3411 9.60407C10.1726 9.06672 10.058 8.5802 9.96116 8.15118H11.794H11.8007C11.9517 8.14993 12.1003 8.1088 12.2359 8.04245C12.2881 8.01903 12.3407 7.99733 12.3882 7.96546C12.4127 7.94895 12.4361 7.93106 12.4585 7.91189C12.4999 7.87667 12.5388 7.83779 12.574 7.7964C12.5932 7.774 12.6111 7.75053 12.6276 7.7261C12.6388 7.70943 12.6442 7.68984 12.6544 7.67254L12.7431 7.49679C12.7508 7.47826 12.7632 7.46217 12.7699 7.44322C12.7938 7.37413 12.8079 7.302 12.8117 7.22897C12.8122 7.21995 12.8114 7.21123 12.8117 7.20219V7.11515C12.8114 7.10612 12.8122 7.09739 12.8117 7.08837L12.8134 7.13189V2.87367V2.63264C12.8132 2.20284 12.4648 1.85445 12.035 1.85431H11.553C11.2068 1.85495 10.9026 2.08412 10.8064 2.41672C10.6489 2.36787 10.4717 2.32633 10.2675 2.32633H10.2642C9.96203 2.32847 9.72184 2.42746 9.52932 2.50041C9.33841 2.57274 9.19408 2.61667 9.10919 2.61925C9.01543 2.6186 8.8689 2.57891 8.68069 2.5138C8.49065 2.44806 8.26107 2.35772 7.97266 2.35311H7.97099C7.68146 2.34703 7.44751 2.43308 7.26463 2.49539C7.08197 2.55762 6.94852 2.59413 6.87295 2.59414C6.80575 2.59252 6.68992 2.5554 6.52145 2.48702C6.35225 2.41833 6.12825 2.31706 5.83518 2.32633L5.83183 2.328C5.54009 2.3393 5.31337 2.44027 5.12045 2.51714C5.10737 2.52235 5.10476 2.52054 5.092 2.52552C5.03848 2.14116 4.7101 1.8549 4.32204 1.85431H3.83998Z" fill="#EBE7E4"/>

</g>%n%n
<g transform="translate(139.000000, 9.000000) scale(0.687500 0.687500) "> 

<path fill-rule="evenodd" fill="rgb(24.705882%, 24.705882%, 24.705882%)" fill-opacity="1" d="M 11.617188 3.683594 C 10.886719 3.71875 10.085938 4.371094 9.371094 4.410156 C 9.355469 4.410156 9.34375 4.410156 9.332031 4.410156 L 9.332031 6.132812 C 9.34375 6.132812 9.355469 6.136719 9.371094 6.136719 C 10.085938 6.105469 10.886719 5.433594 11.617188 5.410156 C 12.332031 5.378906 12.96875 5.984375 13.6875 6 C 14.414062 6.003906 15.152344 5.449219 15.933594 5.46875 C 16.703125 5.480469 17.488281 6.085938 18.273438 6.082031 C 19.046875 6.0625 19.777344 5.417969 20.582031 5.410156 C 21.175781 5.410156 21.816406 5.75 22.425781 5.9375 L 22.425781 4.207031 C 21.816406 4.019531 21.175781 3.683594 20.582031 3.683594 C 19.777344 3.691406 19.046875 4.332031 18.273438 4.351562 C 17.488281 4.355469 16.703125 3.753906 15.933594 3.742188 C 15.152344 3.71875 14.414062 4.277344 13.6875 4.269531 C 12.96875 4.253906 12.332031 3.660156 11.617188 3.683594 Z M 11.617188 3.683594 "/>
<path fill-rule="evenodd" fill="rgb(24.705882%, 24.705882%, 24.705882%)" fill-opacity="1" d="M 11.6875 6.90625 C 11.664062 6.90625 11.640625 6.90625 11.617188 6.90625 C 10.886719 6.9375 10.085938 7.589844 9.371094 7.628906 C 9.355469 7.628906 9.34375 7.628906 9.332031 7.628906 L 9.332031 9.355469 C 9.34375 9.355469 9.355469 9.355469 9.371094 9.355469 C 10.085938 9.316406 10.886719 8.664062 11.617188 8.632812 C 12.332031 8.605469 12.96875 9.199219 13.6875 9.21875 C 14.414062 9.222656 15.152344 8.667969 15.933594 8.691406 C 16.703125 8.703125 17.488281 9.304688 18.273438 9.300781 C 19.046875 9.28125 19.777344 8.640625 20.582031 8.632812 C 21.175781 8.632812 21.816406 8.96875 22.425781 9.152344 L 22.425781 7.425781 C 21.816406 7.242188 21.175781 6.90625 20.582031 6.90625 C 19.777344 6.914062 19.046875 7.554688 18.273438 7.574219 C 17.488281 7.578125 16.703125 6.976562 15.933594 6.960938 C 15.152344 6.9375 14.414062 7.496094 13.6875 7.488281 C 12.992188 7.472656 12.371094 6.917969 11.6875 6.90625 Z M 11.6875 6.90625 "/>
<path fill="none" stroke-width="24" stroke-linecap="round" stroke-linejoin="miter" stroke="rgb(24.705882%, 24.705882%, 24.705882%)" stroke-opacity="1" stroke-miterlimit="4" d="M 246.386719 285.185547 L 351.101074 382.111816 " transform="matrix(0.0551724, 0, 0, 0.0551724, 0, 0)"/>
<path fill="none" stroke-width="30" stroke-linecap="square" stroke-linejoin="round" stroke="rgb(24.705882%, 24.705882%, 24.705882%)" stroke-opacity="1" stroke-miterlimit="4" d="M 451.142578 70.72998 L 451.142578 251.696777 L 124.467773 251.696777 L 124.467773 70.72998 " transform="matrix(0.0551724, 0, 0, 0.0551724, 0, 0)"/>
<path fill="none" stroke-width="24" stroke-linecap="round" stroke-linejoin="miter" stroke="rgb(24.705882%, 24.705882%, 24.705882%)" stroke-opacity="1" stroke-miterlimit="4" d="M 323.134766 285.185547 L 218.42041 382.111816 " transform="matrix(0.0551724, 0, 0, 0.0551724, 0, 0)"/>
<path fill="none" stroke-width="24" stroke-linecap="round" stroke-linejoin="miter" stroke="rgb(24.705882%, 24.705882%, 24.705882%)" stroke-opacity="1" stroke-miterlimit="4" d="M 231.518555 371.774902 L 402.785645 501.269531 " transform="matrix(0.0551724, 0, 0, 0.0551724, 0, 0)"/>
<path fill="none" stroke-width="24" stroke-linecap="round" stroke-linejoin="miter" stroke="rgb(24.705882%, 24.705882%, 24.705882%)" stroke-opacity="1" stroke-miterlimit="4" d="M 340.76416 371.774902 L 169.49707 501.269531 " transform="matrix(0.0551724, 0, 0, 0.0551724, 0, 0)"/>
<path fill="none" stroke-width="30" stroke-linecap="round" stroke-linejoin="round" stroke="rgb(24.705882%, 24.705882%, 24.705882%)" stroke-opacity="1" stroke-miterlimit="4" d="M 322.497559 253.395996 C 322.497559 277.680664 358.605957 446.186523 425.9375 531.430664 " transform="matrix(0.0551724, 0, 0, 0.0551724, 0, 0)"/>
<path fill="none" stroke-width="30" stroke-linecap="round" stroke-linejoin="round" stroke="rgb(24.705882%, 24.705882%, 24.705882%)" stroke-opacity="1" stroke-miterlimit="4" d="M 247.944336 253.395996 C 247.944336 277.680664 211.835938 446.186523 144.504395 531.430664 " transform="matrix(0.0551724, 0, 0, 0.0551724, 0, 0)"/>

</g>%n%n</svg>