<svg width="300" height="40" viewBox="0 0 300 40" fill="none" xmlns="http://www.w3.org/2000/svg" xmlns:xlink="http://www.w3.org/1999/xlink">

<g transform="translate(130.000000, 0.000000) scale(2.500000 2.500000) "> 

<path opacity="0.812" d="M4.89281 1.91221C4.70644 1.95343 4.54271 2.08647 4.46421 2.26045L1.75867 7.64474C1.57716 8.02076 1.9037 8.5339 2.32121 8.52873H4.08919L2.21406 12.6004C2.08075 12.8724 2.18643 13.2376 2.44442 13.3964C2.7024 13.5551 3.07603 13.4849 3.25877 13.2433L8.42876 6.73396C8.70553 6.37312 8.40132 5.74781 7.94659 5.74283H6.12504L7.86622 2.84978C8.09511 2.4755 7.76914 1.90504 7.33047 1.91221H5.02675C4.98228 1.90735 4.93728 1.90735 4.89281 1.91221ZM11.4022 6.8679C10.486 6.8679 9.64674 7.02138 8.9913 7.32329C8.33586 7.6252 7.75907 8.13276 7.75907 8.87696C7.75907 9.08832 7.92799 9.23104 8.02695 9.41271C8.03093 9.42001 8.02285 9.43228 8.02695 9.4395V10.2163C7.92233 10.4097 7.75907 10.5667 7.75907 10.8057C7.75907 11.0486 7.92295 11.1871 8.02695 11.3682C8.03513 11.3824 8.01851 11.408 8.02695 11.4218V12.1718C7.92233 12.3652 7.75907 12.5222 7.75907 12.7612C7.75907 13.1333 7.93103 13.478 8.16089 13.7255C8.39074 13.973 8.69034 14.1411 9.01809 14.288C9.67358 14.5819 10.4893 14.7434 11.4022 14.7434C12.3151 14.7434 13.1308 14.5819 13.7863 14.288C14.114 14.1411 14.4136 13.973 14.6435 13.7255C14.8733 13.478 15.0453 13.1333 15.0453 12.7612C15.0453 12.4575 14.8769 12.3047 14.7506 12.1183V11.4218C14.8782 11.2349 15.0453 11.0916 15.0453 10.8057C15.0453 10.5064 14.8774 10.3512 14.7506 10.1628V9.43951V9.41272C14.8611 9.23519 15.0453 9.11755 15.0453 8.87697C15.0453 8.13277 14.4685 7.62521 13.813 7.32329C13.1576 7.02138 12.3183 6.8679 11.4022 6.8679Z" fill="#EBE7E4"/>

</g>%n%n
<g transform="translate(139.000000, 9.000000) scale(1.833333 1.833333) "> 

<path fill-rule="nonzero" fill="rgb(24.705882%, 24.705882%, 24.705882%)" fill-opacity="1" d="M 8.917969 6.019531 C 10.316406 6.019531 11.085938 6.523438 11.085938 6.742188 C 11.085938 6.957031 10.316406 7.464844 8.917969 7.464844 C 7.519531 7.464844 6.75 6.957031 6.75 6.742188 C 6.75 6.523438 7.519531 6.019531 8.917969 6.019531 Z M 8.917969 5.535156 C 7.449219 5.535156 6.269531 6.066406 6.269531 6.742188 C 6.269531 7.414062 7.441406 7.808594 8.910156 7.808594 C 10.382812 7.808594 11.570312 7.414062 11.570312 6.742188 C 11.570312 6.066406 10.386719 5.535156 8.917969 5.535156 Z M 8.917969 5.535156 "/>
<path fill-rule="nonzero" fill="rgb(24.705882%, 24.705882%, 24.705882%)" fill-opacity="1" d="M 7.953125 6.980469 C 8.222656 6.980469 8.4375 6.875 8.4375 6.742188 C 8.4375 6.609375 8.222656 6.5 7.953125 6.5 C 7.6875 6.5 7.472656 6.609375 7.472656 6.742188 C 7.472656 6.875 7.6875 6.980469 7.953125 6.980469 Z M 7.953125 6.980469 "/>
<path fill-rule="nonzero" fill="rgb(24.705882%, 24.705882%, 24.705882%)" fill-opacity="1" d="M 6.507812 7.222656 L 6.507812 7.921875 C 6.363281 8.066406 6.269531 8.234375 6.269531 8.429688 C 6.269531 8.621094 6.363281 8.765625 6.507812 8.933594 L 6.507812 9.632812 C 6.363281 9.777344 6.269531 9.945312 6.269531 10.140625 C 6.269531 10.8125 7.449219 11.34375 8.917969 11.34375 C 10.386719 11.34375 11.570312 10.8125 11.570312 10.140625 C 11.570312 9.96875 11.472656 9.800781 11.328125 9.632812 L 11.328125 8.933594 C 11.472656 8.789062 11.570312 8.621094 11.570312 8.429688 C 11.570312 8.234375 11.472656 8.089844 11.328125 7.921875 L 11.328125 7.222656 C 9.683594 7.734375 8.238281 8.191406 6.507812 7.222656 Z M 7.785156 7.925781 L 8.554688 7.925781 C 8.984375 7.925781 9.300781 7.957031 9.511719 8.019531 C 9.722656 8.078125 9.902344 8.183594 10.050781 8.328125 C 10.183594 8.457031 10.285156 8.605469 10.347656 8.769531 C 10.414062 8.9375 10.445312 9.125 10.445312 9.335938 C 10.445312 9.550781 10.414062 9.742188 10.347656 9.910156 C 10.285156 10.074219 10.183594 10.222656 10.050781 10.347656 C 9.902344 10.496094 9.71875 10.601562 9.507812 10.660156 C 9.296875 10.722656 8.976562 10.753906 8.554688 10.753906 L 7.785156 10.753906 Z M 8.511719 8.476562 L 8.511719 10.203125 L 8.773438 10.203125 C 9.074219 10.203125 9.300781 10.128906 9.457031 9.980469 C 9.613281 9.832031 9.691406 9.617188 9.691406 9.335938 C 9.691406 9.054688 9.613281 8.84375 9.457031 8.695312 C 9.300781 8.550781 9.074219 8.476562 8.773438 8.476562 Z M 8.511719 8.476562 "/>
<path fill-rule="nonzero" fill="rgb(24.705882%, 24.705882%, 24.705882%)" fill-opacity="1" d="M 3.339844 1.199219 L 0.992188 5.902344 L 3.367188 5.902344 L 1.375 10.246094 L 5.910156 4.53125 L 3.347656 4.53125 L 5.371094 1.199219 Z M 3.339844 1.199219 "/>

</g>%n%n</svg>