<svg width="300" height="40" viewBox="0 0 300 40" fill="none" xmlns="http://www.w3.org/2000/svg" xmlns:xlink="http://www.w3.org/1999/xlink" version="1.1">

<g transform="translate(130.000000, 0.000000) scale(2.500000 2.500000) "> 

<path opacity="0.812" d="M5.57797 1.58519C5.36609 1.58841 5.16402 1.67501 5.01556 1.82622C4.29204 2.56121 3.82045 3.56986 3.82045 4.69349C3.82045 5.86738 4.30862 6.95742 5.11934 7.7181C5.2719 7.86093 5.47401 7.93886 5.68296 7.93542C5.89192 7.93198 6.09135 7.84745 6.23913 7.69969L6.66763 7.27119C6.70428 7.23483 6.73735 7.19503 6.76639 7.15234V13.3489C6.74892 14.0056 7.34301 14.6159 8 14.6159C8.65699 14.6159 9.25108 14.0056 9.23361 13.3489V7.15234C9.26264 7.19503 9.29571 7.23483 9.33237 7.27118L9.76087 7.69968C9.90865 7.84745 10.1081 7.93198 10.317 7.93542C10.526 7.93885 10.7281 7.86093 10.8807 7.7181C11.6914 6.95742 12.1795 5.86738 12.1795 4.69349C12.1795 3.56986 11.708 2.56121 10.9844 1.82622C10.9099 1.75046 10.8211 1.6902 10.7232 1.64891C10.6253 1.60762 10.5201 1.58612 10.4139 1.58565C10.3076 1.58519 10.2023 1.60576 10.104 1.64619C10.0057 1.68661 9.9164 1.7461 9.84121 1.8212L9.43949 2.22292C9.28981 2.37275 9.20518 2.57552 9.20393 2.7873C9.20267 2.99908 9.2849 3.20283 9.4328 3.35443C9.77841 3.70851 9.98014 4.16196 9.98014 4.69349C9.98014 5.25232 9.73905 5.75532 9.35413 6.1129C9.30868 6.15497 9.26824 6.20215 9.23361 6.2535V6.13466C9.46369 5.95799 9.63533 5.70748 9.63533 5.36302V4.26499C9.63533 3.63771 9.10095 3.24563 8.58919 3.24563H8.18747H8.1339L8.4218 3.29919C8.25063 3.23386 8.06377 3.2074 7.88116 3.22219L7.99665 3.22052C7.94532 3.21731 7.89399 3.21731 7.84266 3.22052C7.78895 3.22356 7.73568 3.23197 7.68365 3.24563H7.41081C6.89905 3.24563 6.36467 3.63771 6.36467 4.26499V5.36302C6.36467 5.70748 6.53631 5.95799 6.76639 6.13466V6.2535C6.73176 6.20215 6.69132 6.15497 6.64587 6.1129C6.26095 5.75532 6.01986 5.25232 6.01986 4.69349C6.01986 4.16196 6.22159 3.70851 6.5672 3.35443C6.7151 3.20283 6.79732 2.99908 6.79607 2.7873C6.79482 2.57552 6.71019 2.37275 6.56051 2.22292L6.15879 1.8212C6.08267 1.74503 5.99205 1.68489 5.89229 1.64435C5.79253 1.60382 5.68564 1.5837 5.57797 1.58519V1.58519Z" fill="#EBE7E4"/>

</g>%n%n
<g transform="translate(139.000000, 9.000000) scale(1.833333 1.833333) "> 

<g id="surface1">
<path style=" stroke:none;fill-rule:nonzero;fill:rgb(24.705882%,24.705882%,24.705882%);fill-opacity:1;" d="M 6.523438 2.539062 L 5.476562 2.539062 C 5.367188 2.539062 5.28125 2.628906 5.28125 2.738281 L 5.28125 3.699219 C 5.28125 3.808594 5.367188 3.894531 5.476562 3.894531 L 6.523438 3.894531 C 6.632812 3.894531 6.71875 3.808594 6.71875 3.699219 L 6.71875 2.738281 C 6.71875 2.628906 6.632812 2.539062 6.523438 2.539062 Z M 6.523438 2.539062 "/>
<path style="fill:none;stroke-width:36.25;stroke-linecap:round;stroke-linejoin:miter;stroke:rgb(24.705882%,24.705882%,24.705882%);stroke-opacity:1;stroke-miterlimit:4;" d="M 289.622396 141.035156 L 289.622396 516.940104 " transform="matrix(0.0206897,0,0,0.0206897,0,0)"/>
<path style=" stroke:none;fill-rule:nonzero;fill:rgb(24.705882%,24.705882%,24.705882%);fill-opacity:1;" d="M 3.886719 1.089844 C 3.371094 1.617188 3.050781 2.332031 3.050781 3.121094 C 3.050781 3.953125 3.402344 4.703125 3.96875 5.234375 L 4.328125 4.875 C 3.855469 4.4375 3.5625 3.816406 3.5625 3.121094 C 3.5625 2.472656 3.820312 1.882812 4.242188 1.449219 Z M 8.113281 1.089844 L 7.757812 1.449219 C 8.179688 1.882812 8.4375 2.472656 8.4375 3.121094 C 8.4375 3.816406 8.144531 4.4375 7.671875 4.875 L 8.03125 5.234375 C 8.597656 4.703125 8.949219 3.953125 8.949219 3.121094 C 8.949219 2.332031 8.628906 1.617188 8.113281 1.089844 Z M 8.113281 1.089844 "/>
</g>

</g>%n%n</svg>