<svg width="300" height="40" viewBox="0 0 300 40" fill="none" xmlns="http://www.w3.org/2000/svg" >

<g transform="translate(130.000000, 0.000000) scale(2.500000 2.500000) "> 

<path opacity="0.812" d="M6.54141 1.09027C6.32792 1.13772 6.16014 1.2803 6.07598 1.3933C5.99182 1.5063 5.96163 1.59662 5.94037 1.66787C5.89785 1.81039 5.89488 1.89975 5.89181 1.991C5.88568 2.1735 5.90119 2.34847 5.92362 2.55354C5.9685 2.96366 6.05168 3.46737 6.14127 3.97662C6.23086 4.48587 6.3269 4.99827 6.39575 5.39301C6.43018 5.59038 6.45701 5.75985 6.47277 5.87519C6.47407 5.88475 6.47331 5.88647 6.47444 5.89528C6.46805 5.90748 6.46683 5.91157 6.45937 5.92541C6.40107 6.03374 6.31217 6.18848 6.20657 6.36908C5.99536 6.73028 5.7168 7.19648 5.44312 7.66325C5.16945 8.13002 4.90291 8.59594 4.70647 8.98421C4.60825 9.17834 4.52707 9.34874 4.46538 9.52331C4.43453 9.61059 4.40644 9.69478 4.39004 9.82467C4.37364 9.95455 4.31187 10.2015 4.5943 10.5094C4.81834 10.7537 5.12257 10.7779 5.27068 10.7639C5.41879 10.7499 5.49766 10.7157 5.57036 10.6852C5.71578 10.6243 5.8211 10.5575 5.94037 10.4793C6.17891 10.3228 6.44812 10.1169 6.74064 9.88326C6.87251 9.77794 6.9888 9.67623 7.12571 9.56349L6.91476 13.8997C6.90712 14.0592 6.95014 14.217 7.03765 14.3505C7.12516 14.484 7.25269 14.5864 7.40196 14.6431C8.0023 14.8706 8.59976 14.8003 9.1331 14.6715C9.30354 14.6303 9.45434 14.5311 9.55971 14.3909C9.66507 14.2507 9.71845 14.0783 9.71071 13.9031C9.71071 13.9031 9.59218 11.0175 9.49976 8.18226C9.95383 8.18267 10.3924 8.18354 11.0735 8.18561C11.5688 8.18711 12.048 8.18125 12.438 8.15547C12.633 8.14259 12.8013 8.12735 12.9721 8.09185C13.0575 8.0741 13.1421 8.05557 13.2601 8.00144C13.378 7.94732 13.6072 7.8593 13.7221 7.49416C13.7879 7.28516 13.7474 7.06723 13.692 6.93832C13.6366 6.8094 13.5753 6.73953 13.5246 6.68551C13.4231 6.57747 13.3474 6.52989 13.2701 6.48125C13.1155 6.38398 12.9549 6.30762 12.7662 6.22342C12.3886 6.05504 11.9111 5.87252 11.4251 5.6927C10.9392 5.51287 10.4472 5.33863 10.0707 5.1988C9.8824 5.12889 9.72334 5.06599 9.61528 5.02133C9.60414 5.01673 9.60181 5.01552 9.59184 5.01129C9.58485 5.00025 9.58288 4.99707 9.5751 4.9845C9.51058 4.88025 9.42065 4.72525 9.31727 4.54418C9.1105 4.18205 8.84745 3.70854 8.58061 3.23997C8.31377 2.77139 8.0448 2.31042 7.80712 1.94747C7.68828 1.76599 7.58093 1.61069 7.46056 1.47032C7.40037 1.40013 7.34063 1.33331 7.23621 1.25434C7.1318 1.17538 6.94774 0.999957 6.54141 1.09027Z" fill="#EBE7E4"/>

</g>%n%n
<g transform="translate(139.000000, 9.000000) scale(0.037931 0.037931) "> 

<path d="M285.406 163.531L283.406 202.156C286.989 197.911 292.748 195.125 299.281 195.125C305.418 195.125 310.919 197.562 314.531 201.375C314.202 188.645 314.075 178.64 313.833 166.183L285.406 163.531ZM315.094 222.344C314.926 222.539 314.77 222.749 314.594 222.938C314.597 223.063 314.594 223.186 314.594 223.312C314.594 232.425 307.207 239.812 298.094 239.812C290.361 239.812 283.913 234.492 282.125 227.312L265.781 541.781C285.076 548.12 306.209 546.948 329.406 542.094C329.406 542.094 319.629 379.187 315.094 222.344Z" fill="#3f3f3f"/>
<path fill-rule="evenodd" clip100-rule="evenodd" d="M228.906 29.9687C228.797 29.9721 228.695 29.9774 228.594 29.9999C216.333 32.725 253.724 195.662 251.375 208C248.892 221.042 153.776 365.904 162.75 375.687C171.24 384.943 293.671 271.135 305.531 267C318.067 262.629 491.046 272.539 495.031 259.875C498.802 247.894 339.042 198.797 329.531 190.594C319.557 181.99 242.764 29.5366 228.906 29.9687ZM298.094 206.812C307.207 206.812 314.594 214.2 314.594 223.312C314.594 232.425 307.207 239.812 298.094 239.812C288.981 239.812 281.594 232.425 281.594 223.312C281.594 214.2 288.981 206.812 298.094 206.812Z" fill="#3f3f3f"/>
<path opacity="0.711462" fill-rule="evenodd" clip100-rule="evenodd" d="M314.603 223.318C314.604 225.485 314.178 227.631 313.349 229.634C312.52 231.636 311.305 233.456 309.773 234.989C308.24 236.522 306.421 237.737 304.419 238.567C302.417 239.397 300.271 239.824 298.103 239.824C295.936 239.824 293.79 239.397 291.788 238.567C289.785 237.737 287.966 236.522 286.434 234.989C284.902 233.456 283.686 231.636 282.857 229.634C282.029 227.631 281.602 225.485 281.603 223.318C281.602 221.15 282.029 219.004 282.857 217.002C283.686 214.999 284.902 213.179 286.434 211.647C287.966 210.114 289.785 208.898 291.788 208.068C293.79 207.239 295.936 206.812 298.103 206.812C300.271 206.812 302.417 207.239 304.419 208.068C306.421 208.898 308.24 210.114 309.773 211.647C311.305 213.179 312.52 214.999 313.349 217.002C314.178 219.004 314.604 221.15 314.603 223.318Z" fill="#3f3f3f" stroke="#3f3f3f" stroke-width="0.991" stroke-linecap="round"/>

</g>%n%n</svg>