<svg width="300" height="35" viewBox="0 0 300 35" fill="none" xmlns="http://www.w3.org/2000/svg" >

<g transform="translate(135.000000, 2.000000) scale(1.875000 1.875000) "> 

<path opacity="0.8" d="M9.37489 1.39673C8.12126 1.39673 7.33053 2.04234 6.86582 2.54163C5.92032 2.60958 5.17271 3.02181 4.77019 3.50073C4.30885 4.04963 4.15087 4.63224 4.15087 4.63224C4.12452 4.72709 4.11776 4.82632 4.131 4.92387C4.14424 5.02143 4.17719 5.11526 4.22787 5.19967C4.10551 5.27483 4.00822 5.38463 3.94833 5.51515C3.88843 5.64566 3.86863 5.79102 3.89143 5.9328C3.89143 5.9328 4.08119 7.22371 3.86967 8.27114C3.78436 8.69359 3.30478 9.86295 2.85365 10.8271C2.62809 11.3091 2.40916 11.7577 2.24605 12.0891C2.1645 12.2548 2.09732 12.3909 2.04854 12.4909C2.02415 12.5408 2.00476 12.581 1.98828 12.6164C1.98005 12.6341 1.97286 12.6487 1.96318 12.6716C1.95834 12.6831 1.95214 12.6962 1.94309 12.7218C1.93857 12.7346 1.93419 12.7494 1.92635 12.7788C1.92244 12.7934 1.91301 12.8387 1.91296 12.839C1.91291 12.8393 1.90125 12.9677 1.90125 12.9679C1.90125 13.3214 2.11339 13.5601 2.26614 13.6809C2.41888 13.8018 2.56152 13.8648 2.71473 13.9237C3.02113 14.0414 3.37711 14.1227 3.80774 14.1931C4.66898 14.3341 5.80829 14.4158 7.0717 14.4158C8.33511 14.4158 9.46703 14.3343 10.3223 14.1931C10.7499 14.1226 11.1039 14.0421 11.4086 13.9237C11.5609 13.8644 11.7036 13.7993 11.8555 13.6776C12.0074 13.5559 12.2154 13.3173 12.2154 12.9679C12.2154 12.9677 12.2037 12.8393 12.2037 12.839C12.2036 12.8387 12.1942 12.7934 12.1903 12.7788C12.1825 12.7494 12.1781 12.7346 12.1735 12.7218C12.1645 12.6962 12.1583 12.6831 12.1534 12.6716C12.1438 12.6487 12.1366 12.6341 12.1283 12.6164C12.1119 12.581 12.0925 12.5408 12.0681 12.4909C12.0193 12.3909 11.9521 12.2548 11.8706 12.0891C11.7075 11.7577 11.4885 11.3091 11.263 10.8271C10.8118 9.86295 10.3323 8.69359 10.2469 8.27114C10.0374 7.23361 10.2487 5.94787 10.2487 5.94787C10.2677 5.84337 10.2636 5.73596 10.2365 5.63323C10.2095 5.53051 10.1602 5.43498 10.0922 5.35339C10.0242 5.2718 9.93908 5.20615 9.84289 5.16108C9.74671 5.116 9.6418 5.09261 9.53558 5.09254H9.27948C9.65527 4.99274 10.0973 5.00796 10.7073 5.25658L10.6922 5.24988C12.2266 5.91966 13.4614 5.56384 14.1018 4.92683C14.7422 4.28983 14.8801 3.49404 14.8801 3.49404C14.9131 3.32385 14.884 3.14749 14.7981 2.99691C14.8691 2.91466 14.9208 2.81751 14.9492 2.71262C14.9776 2.60773 14.9821 2.4978 14.9624 2.39094C14.9426 2.28408 14.8991 2.18303 14.835 2.09525C14.7709 2.00747 14.688 1.93521 14.5922 1.88381C14.5922 1.88381 12.9037 1.03818 10.9382 1.73819C10.4925 1.5694 10.0108 1.39673 9.37489 1.39673ZM13.2414 3.29652C13.1544 3.39435 13.1639 3.42968 13.0071 3.53253C12.6747 3.75047 12.2418 3.88308 11.5057 3.59949C11.6447 3.51518 12.2619 3.35049 13.2414 3.29652ZM6.72689 4.40292C7.10731 4.348 7.34286 4.42301 7.34286 4.42301C7.48052 4.46425 7.62733 4.46367 7.76466 4.42134C7.73314 4.53749 7.73102 4.65966 7.75849 4.77683C7.78596 4.894 7.84215 5.0025 7.922 5.09254H7.09848H5.60375C5.9996 4.63556 6.39299 4.45113 6.72689 4.40292Z" fill="#EBE7E4"/>

</g>


<g transform="translate(139.000000, 6.000000) scale(0.037931 0.037931) "> 

<path d="M412.286 57.8493C393.545 49.7858 372.72 43.335 345.649 43.335C297.753 43.335 268.599 70.7508 254.022 88.4905C174.89 83.6524 153.52 157.2 153.52 157.2C201.194 90.4782 268.599 111.068 268.599 111.068C268.599 111.068 285.259 78.8143 328.989 70.7508C372.72 62.6874 412.286 82.0397 412.286 82.0397C412.286 82.0397 464.347 48.1731 551.809 59.462C551.809 59.462 487.254 25.5953 412.286 57.8493Z" fill="#3f3f3f"/>
<path d="M351.731 308.973C341.214 256.896 351.731 199.477 351.731 199.477C351.731 199.477 321.314 230.196 249.09 230.477C176.866 230.758 143.488 199.477 143.488 199.477C143.488 199.477 153.298 256.896 142.781 308.973C132.265 361.051 60.1914 499.346 60.1914 501.428C60.1914 518.088 143.488 562.363 247.609 562.363C351.731 562.363 435.028 518.088 435.028 501.428C435.028 499.346 362.247 361.051 351.731 308.973Z" fill="#3f3f3f"/>
<path d="M417.45 132.426C504.912 171.131 548.643 95.334 548.643 95.334C548.643 95.334 527.819 196.934 413.286 146.94C373.72 130.813 336.236 127.588 307.082 148.553C334.154 113.074 379.967 114.686 417.45 132.426Z" fill="#3f3f3f"/>
<path opacity="0.643" fill-rule="evenodd" clip100-rule="evenodd" d="M160.16 190.738C160.16 190.738 201.526 171.646 248.195 172.353C294.864 173.06 339.412 189.324 339.412 189.324C339.412 189.324 298.4 211.951 248.902 211.951C199.405 211.951 160.16 190.738 160.16 190.738Z" fill="#3f3f3f"/>

</g>

</svg>