<svg width="40" height="40" viewBox="0 0 40 40" fill="none" xmlns="http://www.w3.org/2000/svg" >

<g transform="translate(0.000000, 0.000000) scale(2.500000 2.500000) "> 

<path opacity="0.812" d="M5.11022 1.04689C4.944 1.05644 4.78774 1.12923 4.67348 1.25033C4.55923 1.37144 4.49565 1.53167 4.49578 1.69816V1.75843C4.3829 2.5278 4.18799 2.83811 3.97175 3.14301C3.76654 3.43235 3.38407 3.84392 3.3188 4.52926C3.27275 5.01279 3.42941 5.39612 3.62351 5.72633C3.49162 5.77784 3.38009 5.87089 3.30579 5.99141C3.23148 6.11193 3.19844 6.25337 3.21165 6.39434C3.43279 8.72055 3.27121 10.9378 2.68762 13.6973C2.66751 13.7923 2.66886 13.8905 2.69158 13.9849C2.7143 14.0793 2.75782 14.1674 2.81895 14.2428C2.88008 14.3182 2.95729 14.379 3.04493 14.4208C3.13256 14.4625 3.22842 14.4842 3.3255 14.4842H4.02197H7.15611H7.26326H7.87937H12.4332C12.6059 14.484 12.7715 14.4154 12.8936 14.2932C13.0157 14.1711 13.0844 14.0056 13.0845 13.8329V11.1541C13.0844 10.9815 13.0157 10.8159 12.8936 10.6938C12.7715 10.5717 12.6059 10.503 12.4332 10.5029H10.096L14.1225 5.42497C14.1986 5.32895 14.246 5.21346 14.2594 5.09173C14.2728 4.97 14.2516 4.84696 14.1983 4.7367C14.145 4.62644 14.0618 4.53342 13.958 4.46831C13.8543 4.4032 13.7344 4.36862 13.6119 4.36854H12.3813L13.6605 2.24898C13.7199 2.15016 13.752 2.03734 13.7536 1.92203C13.7552 1.80672 13.7262 1.69306 13.6695 1.59263C13.6128 1.4922 13.5305 1.40861 13.431 1.35038C13.3315 1.29216 13.2183 1.26138 13.1029 1.26119H11.2278C11.107 1.26107 10.9886 1.29451 10.8857 1.35777C10.7829 1.42104 10.6996 1.51164 10.6452 1.61947L8.44861 5.98583C8.39872 6.08522 8.37509 6.19571 8.37996 6.30681C8.38483 6.4179 8.41804 6.5259 8.47643 6.62054C8.53482 6.71518 8.61646 6.7933 8.71357 6.84749C8.81068 6.90167 8.92003 6.9301 9.03124 6.93009H10.24L8.81359 10.0525C8.74912 10.1938 8.73724 10.3536 8.7801 10.5029H8.06019C7.92228 9.09345 7.86484 7.74476 7.99322 6.39434C8.00212 6.30133 7.99093 6.20749 7.96039 6.11918C7.92985 6.03087 7.88068 5.95016 7.81621 5.88252C7.75175 5.81488 7.67349 5.76189 7.58676 5.72714C7.50002 5.69239 7.40682 5.6767 7.31349 5.68113C7.61686 5.12605 7.78685 4.52861 7.66005 3.92152C7.44993 2.91552 6.72135 2.01133 5.62755 1.24445L5.53882 1.17748C5.41587 1.08467 5.26402 1.03841 5.11022 1.04689V1.04689ZM5.67443 4.81388C5.66488 4.83817 5.6428 5.11669 5.56728 5.36972C5.55017 5.42703 5.53883 5.46111 5.52375 5.51036C5.51113 5.49016 5.50941 5.49173 5.49696 5.47017C5.41575 5.32957 5.40286 5.18496 5.39483 5.26927C5.40121 5.20232 5.37325 5.28611 5.41157 5.22239C5.45934 5.14297 5.53687 5.02152 5.65099 4.86076C5.65855 4.85011 5.66671 4.82495 5.67443 4.81388V4.81388Z" fill="#EBE7E4"/>

</g>


<g transform="translate(9.000000, 9.000000) scale(1.833333 1.833333) "> 

<path d="M111.75 221.805C121.38 323.094 114.219 420.34 89.1355 538.945H119.289H251.327H281.481C256.397 420.34 249.236 323.094 258.866 221.805C227.41 235.55 209.389 233.619 185.308 235.38C161.227 233.619 143.206 235.55 111.75 221.805Z" fill="#3f3f3f" stroke="#3f3f3f" stroke-width="9.4229" stroke-linecap="round" stroke-linejoin="round"/>
<path d="M255.771 425.425H474.977V539.095H255.771V425.425Z" fill="#3f3f3f" stroke="#3f3f3f" stroke-width="7.88587" stroke-linecap="round" stroke-linejoin="round"/>
<path d="M169.26 32.3042C158.452 108.663 124.167 109.359 120.408 148.831C116.631 188.48 156.975 212.94 163.62 214.602C163.62 214.602 144.668 192.686 146.45 173.976C147.684 161.019 153.016 156.329 163.081 142.15C170.315 131.959 178.485 117.975 184.49 97.3207C205.862 116.032 215.027 126.92 219.297 149.514C223.567 172.107 205.935 212.734 205.935 212.734C269.71 164.662 253.372 91.2769 169.26 32.3042Z" stroke="#3f3f3f" stroke-width="6.67402" stroke-linecap="square"/>
<path opacity="0.1" fill-rule="evenodd" clip100-rule="evenodd" d="M169.26 32.3042C158.452 108.663 124.167 109.359 120.408 148.831C116.631 188.48 156.975 212.94 163.62 214.602C163.62 214.602 144.668 192.686 146.45 173.976C147.684 161.019 153.016 156.329 163.081 142.15C170.315 131.959 178.485 117.975 184.49 97.3207C205.862 116.032 215.027 126.92 219.297 149.514C223.567 172.107 205.935 212.734 205.935 212.734C269.71 164.662 253.372 91.2769 169.26 32.3042Z" fill="#3f3f3f" stroke="#3f3f3f" stroke-width="6.67402" stroke-linecap="square"/>
<path opacity="0.2" fill-rule="evenodd" clip100-rule="evenodd" d="M163.62 214.602C163.62 214.602 144.668 192.686 146.45 173.976C147.684 161.019 153.016 156.329 163.081 142.15C170.315 131.959 178.485 117.974 184.49 97.3207C205.862 116.032 215.027 126.92 219.297 149.513C223.567 172.107 205.935 212.734 205.935 212.734C190.685 223.568 180.425 219.366 163.62 214.602Z" fill="#3f3f3f" stroke="#3f3f3f" stroke-width="6.67402" stroke-linecap="square"/>
<path d="M423.429 34.5717L330.98 219.802H424.427L345.992 390.637L524.619 165.834H423.667L503.336 34.5717H423.429Z" fill="#3f3f3f"/>

</g>

</svg>