<svg width="40" height="40" viewBox="0 0 40 40" fill="none" xmlns="http://www.w3.org/2000/svg" >

<g transform="translate(0.000000, 0.000000) scale(2.500000 2.500000) "> 

<path opacity="0.8" d="M3.41734 1.44531C3.19716 1.44533 2.986 1.53281 2.83031 1.6885C2.67462 1.84419 2.58714 2.05535 2.58712 2.27553V13.7011C2.58714 13.9213 2.67462 14.1324 2.83031 14.2881C2.986 14.4438 3.19716 14.5313 3.41734 14.5313H12.5866C12.8067 14.5313 13.0179 14.4438 13.1736 14.2881C13.3293 14.1324 13.4168 13.9213 13.4168 13.7011V2.27553C13.4168 2.05535 13.3293 1.84419 13.1736 1.6885C13.0179 1.53281 12.8067 1.44533 12.5866 1.44531H3.41734V1.44531Z" fill="#EBE7E4"/>

</g>


<g transform="translate(9.000000, 9.000000) scale(0.037931 0.037931) "> 

<path d="M95.1953 47.2324V532.768H484.809V47.2324H95.1953ZM131.359 71.7773H446.742C454.012 71.7773 460.271 78.0366 460.271 85.3066V496.596C460.271 503.866 454.012 510.125 446.742 510.125H131.359C124.089 510.125 117.83 503.866 117.83 496.596V85.3066C117.83 78.0366 124.089 71.7773 131.359 71.7773ZM143.859 97.8066V484.096H434.242V336.684H389.49C389.205 336.684 388.975 336.455 388.975 336.17V246.621C388.975 246.336 389.205 246.107 389.49 246.107H434.242V97.8066H143.859ZM274.857 126.952H349.376L275.079 249.359H369.222L202.645 459L275.789 299.686H188.646L274.857 126.952Z" fill="#3f3f3f"/>

</g>

</svg>