<svg width="300" height="40" viewBox="0 0 300 40" fill="none" xmlns="http://www.w3.org/2000/svg" xmlns:xlink="http://www.w3.org/1999/xlink">

<g transform="translate(130.000000, 0.000000) scale(2.000000 2.000000) "> 

<g clip-path="url(#clip0)">
<path opacity="0.953" d="M9.99934 0C15.514 0 20 4.44646 20 10C20 15.5172 15.514 20 9.99934 20C4.48599 20 0 15.5172 0 10C0 4.44646 4.48599 0 9.99934 0V0Z" fill="#878787"/>
<path opacity="0.95" fill-rule="evenodd" clip-rule="evenodd" d="M10 19C14.9706 19 19 14.9706 19 10C19 5.02944 14.9706 1 10 1C5.02944 1 1 5.02944 1 10C1 14.9706 5.02944 19 10 19ZM10 20C15.5228 20 20 15.5228 20 10C20 4.47715 15.5228 0 10 0C4.47715 0 0 4.47715 0 10C0 15.5228 4.47715 20 10 20Z" fill="#404040"/>
</g>
<defs>
<clipPath id="clip0">
<path d="M0 0H20V20H0V0Z" fill="white"/>
</clipPath>
</defs>

</g>%n%n
<g transform="translate(139.000000, 9.000000) scale(1.833333 1.833333) "> 

<path fill-rule="evenodd" fill="rgb(100%, 100%, 100%)" fill-opacity="1" d="M 2.492188 0.992188 C 2.214844 0.996094 1.996094 1.222656 2 1.5 L 2 10.5 C 1.996094 10.679688 2.09375 10.847656 2.246094 10.9375 C 2.402344 11.03125 2.597656 11.03125 2.753906 10.9375 C 2.90625 10.847656 3.003906 10.679688 3 10.5 L 3 1.5 C 3 1.363281 2.949219 1.234375 2.851562 1.140625 C 2.757812 1.042969 2.628906 0.992188 2.492188 0.992188 Z M 2.492188 0.992188 "/>
<path fill-rule="evenodd" fill="rgb(100%, 100%, 100%)" fill-opacity="1" d="M 4.5 1.5 C 4.222656 1.5 4 1.722656 4 2 L 4 6 C 4 6.335938 4.324219 6.578125 4.648438 6.476562 L 6 6.0625 L 6 1.9375 L 4.648438 1.523438 C 4.597656 1.507812 4.550781 1.5 4.5 1.5 Z M 7 2.246094 L 7 5.753906 L 9 5.136719 L 9 2.859375 Z M 10 3.167969 L 10 4.832031 L 11.148438 4.476562 C 11.617188 4.332031 11.617188 3.667969 11.148438 3.523438 Z M 10 3.167969 "/>

</g>%n%n</svg>