<svg width="300" height="35" viewBox="0 0 300 35" fill="none" xmlns="http://www.w3.org/2000/svg" >

<g transform="translate(135.000000, 2.000000) scale(1.500000 1.500000) "> 

<g clip-path="url(#clip0)">
<path opacity="0.953" d="M9.99934 0C15.514 0 20 4.44646 20 10C20 15.5172 15.514 20 9.99934 20C4.48599 20 0 15.5172 0 10C0 4.44646 4.48599 0 9.99934 0V0Z" fill="#505050"/>
<path opacity="0.95" fill-rule="evenodd" clip-rule="evenodd" d="M10 19C14.9706 19 19 14.9706 19 10C19 5.02944 14.9706 1 10 1C5.02944 1 1 5.02944 1 10C1 14.9706 5.02944 19 10 19ZM10 20C15.5228 20 20 15.5228 20 10C20 4.47715 15.5228 0 10 0C4.47715 0 0 4.47715 0 10C0 15.5228 4.47715 20 10 20Z" fill="#909090"/>
</g>
<defs>
<clipPath id="clip0">
<path d="M0 0H20V20H0V0Z" fill="white"/>
</clipPath>
</defs>

</g>


<g transform="translate(141.000000, 8.000000) scale(0.031034 0.031034) "> 

<path fill-rule="evenodd" clip100-rule="evenodd" d="M291.25 107.607C227.81 107.607 170.721 128.257 122.336 164.999C77.6661 198.921 82.8462 234.191 82.8462 234.191V234.578V472.393H192.017V235.576C192.041 235.112 193.231 212.967 205.884 190.814C218.672 168.428 240.102 146.822 291.25 146.822C342.398 146.822 362.263 168.108 373.931 190.234C385.599 212.361 385.753 234.877 385.753 234.877V234.92V472.393H497.337V235.051C497.337 235.051 497.096 207.412 455.997 171.943C412.052 134.019 354.689 107.607 291.25 107.607Z" fill="#ffffff"/>

</g>

</svg>