<svg width="300" height="40" viewBox="0 0 300 40" fill="none" xmlns="http://www.w3.org/2000/svg" xmlns:xlink="http://www.w3.org/1999/xlink" version="1.1">

<g transform="translate(130.000000, 0.000000) scale(2.000000 2.000000) "> 

<g clip-path="url(#clip0)">
<path opacity="0.953" d="M9.99934 0C15.514 0 20 4.44646 20 10C20 15.5172 15.514 20 9.99934 20C4.48599 20 0 15.5172 0 10C0 4.44646 4.48599 0 9.99934 0V0Z" fill="#878787"/>
<path opacity="0.95" fill-rule="evenodd" clip-rule="evenodd" d="M10 19C14.9706 19 19 14.9706 19 10C19 5.02944 14.9706 1 10 1C5.02944 1 1 5.02944 1 10C1 14.9706 5.02944 19 10 19ZM10 20C15.5228 20 20 15.5228 20 10C20 4.47715 15.5228 0 10 0C4.47715 0 0 4.47715 0 10C0 15.5228 4.47715 20 10 20Z" fill="#404040"/>
</g>
<defs>
<clipPath id="clip0">
<path d="M0 0H20V20H0V0Z" fill="white"/>
</clipPath>
</defs>

</g>%n%n
<g transform="translate(138.000000, 8.000000) scale(2.000000 2.000000) "> 

<g id="surface1">
<path style=" stroke:none;fill-rule:evenodd;fill:rgb(100%,100%,100%);fill-opacity:1;" d="M 6.027344 2.226562 C 4.714844 2.226562 3.53125 2.652344 2.53125 3.414062 C 1.605469 4.117188 1.714844 4.84375 1.714844 4.84375 L 1.714844 9.773438 L 3.972656 9.773438 L 3.972656 4.875 C 3.972656 4.863281 3.996094 4.40625 4.257812 3.949219 C 4.523438 3.484375 4.96875 3.039062 6.027344 3.039062 C 7.085938 3.039062 7.496094 3.476562 7.738281 3.9375 C 7.976562 4.394531 7.980469 4.859375 7.980469 4.859375 L 7.980469 9.773438 L 10.289062 9.773438 L 10.289062 4.863281 C 10.289062 4.863281 10.285156 4.292969 9.433594 3.558594 C 8.523438 2.773438 7.339844 2.226562 6.027344 2.226562 Z M 6.027344 2.226562 "/>
</g>

</g>%n%n</svg>