<svg width="300" height="40" viewBox="0 0 300 40" fill="none" xmlns="http://www.w3.org/2000/svg" >

<g transform="translate(130.000000, 0.000000) scale(2.000000 2.000000) "> 

<g clip-path="url(#clip0)">
<path opacity="0.953" d="M9.99934 0C15.514 0 20 4.44646 20 10C20 15.5172 15.514 20 9.99934 20C4.48599 20 0 15.5172 0 10C0 4.44646 4.48599 0 9.99934 0V0Z" fill="#878787"/>
<path opacity="0.95" fill-rule="evenodd" clip-rule="evenodd" d="M10 19C14.9706 19 19 14.9706 19 10C19 5.02944 14.9706 1 10 1C5.02944 1 1 5.02944 1 10C1 14.9706 5.02944 19 10 19ZM10 20C15.5228 20 20 15.5228 20 10C20 4.47715 15.5228 0 10 0C4.47715 0 0 4.47715 0 10C0 15.5228 4.47715 20 10 20Z" fill="#404040"/>
</g>
<defs>
<clipPath id="clip0">
<path d="M0 0H20V20H0V0Z" fill="white"/>
</clipPath>
</defs>

</g>%n%n
<g transform="translate(139.000000, 9.000000) scale(0.037931 0.037931) "> 

<path d="M428.443 447.212H106.473V484.113H428.443V447.212Z" fill="#ffffff"/>
<path d="M151.009 94.9863H106.723V538.227H151.009V94.9863Z" fill="#ffffff"/>
<path d="M428.437 93.5723H384.152V534.727H428.437V93.5723Z" fill="#ffffff"/>
<path d="M123.904 187.853H174.393L190.393 222.697H123.904V187.853Z" fill="#ffffff"/>
<path d="M198.964 172.984L224.747 230.195" stroke="#ffffff" stroke-width="25.6462" stroke-linecap="round" stroke-linejoin="round"/>
<path d="M242.964 172.984L268.747 230.195" stroke="#ffffff" stroke-width="25.6462" stroke-linecap="round" stroke-linejoin="round"/>
<path d="M288.964 172.984L314.747 230.195" stroke="#ffffff" stroke-width="25.6462" stroke-linecap="round" stroke-linejoin="round"/>
<path d="M396.914 187.853H328.425L344.425 222.697H396.914V187.853Z" fill="#ffffff"/>
<path d="M269.896 233.814L270.222 274.575" stroke="#ffffff" stroke-width="25.6462" stroke-linecap="round" stroke-linejoin="round"/>
<path d="M323.1 315.901C307.564 260.92 230.945 263.119 217.696 316.164" stroke="#ffffff" stroke-width="13.646" stroke-linecap="round" stroke-linejoin="round"/>
<path d="M210.497 315.079H329.649L312.198 412.877L228.149 412.777L210.497 315.079Z" fill="#ffffff"/>
<path d="M405.082 207.05L477.666 207.35L478.651 350.878L535.864 350.761" stroke="#ffffff" stroke-width="30.546" stroke-linecap="round" stroke-linejoin="round"/>
<path d="M152.748 32.3373L411.761 31.4019C411.761 31.4019 484.731 95.8177 528.514 131.696H27.8627C74.8249 95.0915 152.748 32.3373 152.748 32.3373Z" fill="#ffffff"/>
<path d="M465.97 503.212H71.1178V540.113H465.97V503.212Z" fill="#ffffff"/>

</g>%n%n</svg>