<svg width="300" height="40" viewBox="0 0 300 40" fill="none" xmlns="http://www.w3.org/2000/svg" xmlns:xlink="http://www.w3.org/1999/xlink">

<g transform="translate(130.000000, 0.000000) scale(2.500000 2.500000) "> 

<path opacity="0.812" d="M3.58677 1.0509C3.47247 1.05089 3.36042 1.08267 3.26314 1.14269C3.16587 1.20271 3.08721 1.28861 3.03595 1.39077L1.643 4.17667C1.5959 4.27061 1.5736 4.37504 1.57824 4.48003C1.58287 4.58502 1.61428 4.68708 1.66948 4.7765C1.72468 4.86593 1.80184 4.93975 1.89361 4.99095C1.98538 5.04215 2.08873 5.06903 2.19382 5.06903H2.62242L1.84893 6.73822C1.79902 6.84646 1.78158 6.96684 1.7987 7.08479C1.70695 7.13932 1.63094 7.21675 1.57811 7.30949C1.52529 7.40223 1.49745 7.50711 1.49734 7.61384V13.8018C1.49736 13.9652 1.56228 14.1219 1.67782 14.2374C1.79336 14.3529 1.95006 14.4178 2.11346 14.4179H6.98878C7.07126 14.4178 7.15287 14.4011 7.22879 14.3689C7.30472 14.3367 7.3734 14.2896 7.43078 14.2304C7.48815 14.2896 7.55684 14.3367 7.63276 14.3689C7.70868 14.4011 7.7903 14.4178 7.87277 14.4179H10.5247C10.6072 14.4178 10.6888 14.4011 10.7647 14.3689C10.8407 14.3367 10.9094 14.2896 10.9667 14.2304C11.0241 14.2896 11.0928 14.3367 11.1687 14.3689C11.2446 14.4011 11.3262 14.4178 11.4087 14.4179H13.6053C13.7687 14.4178 13.9254 14.3529 14.0409 14.2374C14.1565 14.1219 14.2214 13.9652 14.2214 13.8018V7.61384C14.2214 7.45044 14.1565 7.29374 14.0409 7.1782C13.9254 7.06266 13.7687 6.99774 13.6053 6.99773H13.5952C13.4546 5.61308 13.2537 3.79327 13.2537 3.79327L13.2571 3.86359C13.2571 3.6707 13.1864 3.43799 13.0193 3.27092C12.8522 3.10384 12.6195 3.03318 12.4266 3.03318H12.3212C11.7844 2.23852 11.0899 1.7776 10.4427 1.72227C10.2838 1.70868 10.108 1.69854 9.9036 1.72729C9.59492 1.77071 9.44941 1.90838 9.25902 2.01693C8.63103 1.78273 7.97769 1.84566 7.52118 2.10231C7.24787 2.25597 7.02583 2.44231 6.85317 2.64643C6.74386 2.77566 6.64899 2.92154 6.59032 3.10684C6.57635 3.06757 6.53781 2.97551 6.54177 2.99132C6.50653 2.85403 6.42504 2.73309 6.31102 2.64888C6.19701 2.56466 6.05745 2.52233 5.91587 2.52902C5.77429 2.53571 5.63934 2.591 5.53377 2.68558C5.4282 2.78016 5.35847 2.90825 5.33633 3.04825C5.26533 3.02065 5.18983 3.00646 5.11366 3.00639H4.69008L5.31624 1.99014C5.37369 1.89683 5.40522 1.78988 5.40758 1.68032C5.40993 1.57076 5.38303 1.46256 5.32964 1.36686C5.27624 1.27116 5.1983 1.19144 5.10383 1.1359C5.00936 1.08036 4.90179 1.05102 4.79221 1.0509H3.58677ZM8.63119 3.43834C8.71524 3.45139 8.73071 3.46396 8.75843 3.49861C8.77058 3.51372 8.78343 3.52824 8.79694 3.54214C8.67733 3.60577 8.5191 3.61855 8.40852 3.68612L8.43196 3.67273C7.95545 3.93633 7.66409 3.98547 7.4425 3.94898C7.5204 3.90702 7.58835 3.84877 7.64173 3.77821C7.61423 3.81487 7.70037 3.72362 7.82087 3.65431C7.94137 3.585 8.10092 3.51552 8.25282 3.47517C8.40472 3.43482 8.54714 3.42528 8.63119 3.43834ZM5.57574 4.03101C5.66986 4.2763 5.76248 4.53308 5.97421 4.78943C6.18151 5.04043 6.54896 5.19503 6.91344 5.33188C6.76414 5.37119 6.60778 5.3797 6.49321 5.51437C6.31432 5.72464 6.29231 5.95063 6.29231 6.11374V6.99773H3.19668L5.57574 4.03101ZM10.22 4.61531C10.387 4.59183 10.4252 4.61249 10.6151 4.78609L10.5582 5.22975H8.52906C8.72622 5.16256 8.88253 5.21667 9.09327 5.10754C9.09608 5.10588 9.09887 5.10421 9.10165 5.10251C9.66522 4.79905 10.0417 4.6404 10.22 4.61531ZM6.09977 9.97951L6.2471 10.1771C6.18943 10.2071 6.13688 10.2461 6.0914 10.2926C6.04861 10.2487 5.99952 10.2115 5.94574 10.1821L6.09977 9.97951V9.97951ZM9.63572 9.97951L9.78305 10.1771C9.72538 10.2071 9.67283 10.2461 9.62735 10.2926C9.58456 10.2487 9.53547 10.2115 9.48169 10.1821L9.63572 9.97951V9.97951Z" fill="#EBE7E4"/>

</g>%n%n
<g transform="translate(139.000000, 9.000000) scale(0.687500 0.687500) "> 

<path fill-rule="nonzero" fill="rgb(24.705882%, 24.705882%, 24.705882%)" fill-opacity="1" d="M 17.945312 8.128906 C 20.625 6.683594 21.757812 6.273438 23.199219 7.613281 C 21.859375 5.34375 19.59375 6.167969 17.738281 7.304688 C 12.890625 9.984375 11.347656 5.242188 11.242188 4.828125 C 11.242188 5.242188 12.171875 11.117188 17.945312 8.128906 Z M 17.945312 8.128906 "/>
<path fill-rule="nonzero" fill="rgb(24.705882%, 24.705882%, 24.705882%)" fill-opacity="1" d="M 27.796875 15.242188 C 27.488281 11.941406 26.867188 6.480469 26.867188 6.480469 C 26.867188 6.167969 26.660156 5.964844 26.351562 5.964844 L 25.523438 5.964844 C 23.335938 1.59375 19.539062 3.085938 19.035156 3.59375 C 16.664062 2.046875 13.984375 4.625 14.085938 5.449219 C 14.703125 4.625 17.695312 3.179688 18.929688 4.726562 C 22.117188 2.691406 24.765625 5.207031 25.453125 5.964844 L 24.394531 5.964844 C 24.085938 5.964844 23.878906 6.167969 23.878906 6.480469 L 22.746094 15.242188 C 22.746094 15.242188 22.746094 12.148438 22.746094 11.734375 C 22.746094 11.324219 22.539062 11.117188 22.230469 11.117188 C 22.023438 11.117188 14.085938 11.117188 14.085938 11.117188 C 13.671875 11.117188 13.46875 11.324219 13.46875 11.734375 L 13.46875 15.242188 L 2.316406 15.242188 L 2.316406 29.671875 L 13.65625 29.671875 C 13.65625 28.023438 13.242188 27.714844 12.625 27.199219 C 11.492188 26.375 10.5625 25.445312 10.5625 22.457031 L 8.5 22.457031 L 11.59375 18.332031 L 14.6875 22.457031 L 12.625 22.457031 C 12.625 24.621094 13.140625 25.035156 13.863281 25.550781 C 14.894531 26.375 15.71875 27.199219 15.71875 29.671875 L 21.902344 29.671875 C 21.902344 28.023438 21.492188 27.714844 20.871094 27.199219 C 19.738281 26.375 18.808594 25.445312 18.808594 22.457031 L 16.75 22.457031 L 19.839844 18.332031 L 22.933594 22.457031 L 20.871094 22.457031 C 20.871094 24.621094 21.386719 25.035156 22.109375 25.550781 C 23.140625 26.375 23.964844 27.199219 23.964844 29.671875 L 29.117188 29.671875 L 29.117188 15.242188 Z M 17.589844 14.210938 L 15.527344 14.210938 L 15.527344 13.179688 L 17.589844 13.179688 Z M 20.683594 14.210938 L 18.621094 14.210938 L 18.621094 13.179688 L 20.683594 13.179688 Z M 20.683594 14.210938 "/>
<path fill-rule="nonzero" fill="rgb(24.705882%, 24.705882%, 24.705882%)" fill-opacity="1" d="M 5.738281 1.359375 L 2.5 7.84375 L 5.773438 7.84375 L 3.027344 13.828125 L 9.28125 5.953125 L 5.746094 5.953125 L 8.535156 1.359375 Z M 5.738281 1.359375 "/>

</g>%n%n</svg>