<svg width="300" height="40" viewBox="0 0 300 40" fill="none" xmlns="http://www.w3.org/2000/svg" xmlns:xlink="http://www.w3.org/1999/xlink" version="1.1">

<g transform="translate(130.000000, 0.000000) scale(2.500000 2.500000) "> 

<path opacity="0.8" d="M7.99999 1.09717C7.8213 1.09717 7.67207 1.11777 7.50119 1.17249C7.40201 1.20431 7.3083 1.25117 7.22334 1.31142L5.94621 2.21696L4.30753 2.47473C4.27601 2.4794 4.24473 2.48554 4.21379 2.49314C4.02892 2.54008 3.71319 2.64762 3.49572 3.00533C3.27825 3.36305 3.34006 3.73113 3.34006 3.58782V3.25808L1.68297 4.27242C1.53449 4.36359 1.41188 4.49133 1.3269 4.64343C1.24191 4.79553 1.19737 4.9669 1.19756 5.14114V5.51607C1.19768 5.78594 1.30494 6.04473 1.49576 6.23556C1.68659 6.42638 1.94537 6.53364 2.21524 6.53376H2.75087V13.9789C2.75099 14.2488 2.85825 14.5076 3.04908 14.6984C3.2399 14.8893 3.49869 14.9965 3.76856 14.9966H4.78624C5.05611 14.9965 5.3149 14.8893 5.50572 14.6984C5.69655 14.5076 5.80381 14.2488 5.80393 13.9789V11.8867C5.8729 11.9024 5.93184 11.9294 6.00646 11.9436C6.16884 11.9745 6.434 11.971 6.62411 11.9938C6.75117 12.6786 7.27792 13.2291 7.99999 13.2291C8.71993 13.2291 9.24306 12.6806 9.37253 11.9988C9.56284 11.9769 9.82697 11.9807 9.99018 11.9503C10.0653 11.9363 10.1263 11.909 10.1961 11.8934V13.9789C10.1962 14.2488 10.3034 14.5076 10.4943 14.6984C10.6851 14.8893 10.9439 14.9965 11.2137 14.9966H12.2582C12.5281 14.9965 12.7869 14.8893 12.9777 14.6984C13.1685 14.5076 13.2758 14.2488 13.2759 13.9789V6.53376H13.7847C14.0546 6.53364 14.3134 6.42638 14.5042 6.23555C14.6951 6.04473 14.8023 5.78594 14.8024 5.51607V5.14113C14.8026 4.9669 14.7581 4.79553 14.6731 4.64343C14.5881 4.49133 14.4655 4.36359 14.317 4.27242L12.6599 3.25808V3.58782C12.6599 3.73088 12.7219 3.36314 12.5043 3.00533C12.2867 2.64752 11.971 2.54005 11.7862 2.49314C11.7547 2.48549 11.7229 2.47934 11.6908 2.47473L10.032 2.21696L8.78335 1.31644C8.69664 1.25381 8.60062 1.20523 8.49879 1.17249C8.32792 1.11777 8.17869 1.09717 7.99999 1.09717ZM5.80393 6.53376H6.18054C5.99933 6.71426 5.92042 6.92189 5.80393 7.14973V6.53376ZM9.83451 6.53376H10.1961V7.13969C10.0829 6.91645 10.0104 6.71216 9.83451 6.53376Z" fill="#EBE7E4"/>

</g>%n%n
<g transform="translate(139.000000, 9.000000) scale(1.833333 1.833333) "> 

<g id="surface1">
<path style=" stroke:none;fill-rule:nonzero;fill:rgb(24.705882%,24.705882%,24.705882%);fill-opacity:1;" d="M 8.171875 8.335938 C 8.171875 8.515625 7.300781 8.722656 6 8.722656 C 4.699219 8.722656 3.828125 8.503906 3.828125 8.335938 C 3.828125 8.097656 4.582031 7.382812 4.582031 7.222656 C 4.582031 7.046875 4.640625 6.34375 4.640625 6.164062 C 4.640625 5.582031 5.042969 5.097656 5.625 5 C 5.625 4.992188 5.625 4.984375 5.625 4.980469 C 5.625 4.941406 5.625 4.421875 5.625 4.421875 L 6.375 4.421875 C 6.375 4.421875 6.375 4.941406 6.375 4.980469 C 6.375 4.984375 6.375 4.992188 6.375 5 C 6.960938 5.082031 7.359375 5.582031 7.359375 6.164062 C 7.359375 6.34375 7.417969 7.046875 7.417969 7.222656 C 7.417969 7.382812 8.171875 8.097656 8.171875 8.335938 Z M 6 9.152344 C 5.792969 9.152344 5.761719 9.128906 5.664062 9.128906 C 5.625 9.1875 5.605469 9.230469 5.605469 9.308594 C 5.605469 9.523438 5.78125 9.703125 6 9.703125 C 6.21875 9.703125 6.394531 9.523438 6.394531 9.308594 C 6.394531 9.230469 6.375 9.1875 6.335938 9.128906 C 6.238281 9.128906 6.207031 9.152344 6 9.152344 Z M 6 9.152344 "/>
<path style=" stroke:none;fill-rule:nonzero;fill:rgb(24.705882%,24.705882%,24.705882%);fill-opacity:1;" d="M 9.195312 2.363281 L 9.195312 2.152344 C 9.195312 2.125 9.195312 2.097656 9.085938 2.070312 L 7.4375 1.800781 L 6.167969 0.886719 C 6.085938 0.859375 5.914062 0.859375 5.832031 0.886719 L 4.558594 1.804688 L 2.914062 2.070312 C 2.804688 2.097656 2.804688 2.125 2.804688 2.152344 L 2.804688 2.363281 L 0.9375 3.511719 L 0.949219 3.828125 L 11.0625 3.828125 L 11.0625 3.511719 Z M 9.195312 2.363281 "/>
<path style=" stroke:none;fill-rule:nonzero;fill:rgb(24.705882%,24.705882%,24.705882%);fill-opacity:1;" d="M 3.195312 4.4375 L 2.285156 4.4375 L 2.285156 11.253906 L 3.195312 11.253906 Z M 3.195312 4.4375 "/>
<path style=" stroke:none;fill-rule:nonzero;fill:rgb(24.705882%,24.705882%,24.705882%);fill-opacity:1;" d="M 9.714844 4.4375 L 8.804688 4.4375 L 8.804688 11.253906 L 9.714844 11.253906 Z M 9.714844 4.4375 "/>
</g>

</g>%n%n</svg>