<svg width="300" height="40" viewBox="0 0 300 40" fill="none" xmlns="http://www.w3.org/2000/svg" xmlns:xlink="http://www.w3.org/1999/xlink">

<g transform="translate(130.000000, 0.000000) scale(2.500000 2.500000) "> 

<path opacity="0.8" d="M7.99999 1.09717C7.8213 1.09717 7.67207 1.11777 7.50119 1.17249C7.40201 1.20431 7.3083 1.25117 7.22334 1.31142L5.94621 2.21696L4.30753 2.47473C4.27601 2.4794 4.24473 2.48554 4.21379 2.49314C4.02892 2.54008 3.71319 2.64762 3.49572 3.00533C3.27825 3.36305 3.34006 3.73113 3.34006 3.58782V3.25808L1.68297 4.27242C1.53449 4.36359 1.41188 4.49133 1.3269 4.64343C1.24191 4.79553 1.19737 4.9669 1.19756 5.14114V5.51607C1.19768 5.78594 1.30494 6.04473 1.49576 6.23556C1.68659 6.42638 1.94537 6.53364 2.21524 6.53376H2.75087V13.9789C2.75099 14.2488 2.85825 14.5076 3.04908 14.6984C3.2399 14.8893 3.49869 14.9965 3.76856 14.9966H4.78624C5.05611 14.9965 5.3149 14.8893 5.50572 14.6984C5.69655 14.5076 5.80381 14.2488 5.80393 13.9789V11.8867C5.8729 11.9024 5.93184 11.9294 6.00646 11.9436C6.16884 11.9745 6.434 11.971 6.62411 11.9938C6.75117 12.6786 7.27792 13.2291 7.99999 13.2291C8.71993 13.2291 9.24306 12.6806 9.37253 11.9988C9.56284 11.9769 9.82697 11.9807 9.99018 11.9503C10.0653 11.9363 10.1263 11.909 10.1961 11.8934V13.9789C10.1962 14.2488 10.3034 14.5076 10.4943 14.6984C10.6851 14.8893 10.9439 14.9965 11.2137 14.9966H12.2582C12.5281 14.9965 12.7869 14.8893 12.9777 14.6984C13.1685 14.5076 13.2758 14.2488 13.2759 13.9789V6.53376H13.7847C14.0546 6.53364 14.3134 6.42638 14.5042 6.23555C14.6951 6.04473 14.8023 5.78594 14.8024 5.51607V5.14113C14.8026 4.9669 14.7581 4.79553 14.6731 4.64343C14.5881 4.49133 14.4655 4.36359 14.317 4.27242L12.6599 3.25808V3.58782C12.6599 3.73088 12.7219 3.36314 12.5043 3.00533C12.2867 2.64752 11.971 2.54005 11.7862 2.49314C11.7547 2.48549 11.7229 2.47934 11.6908 2.47473L10.032 2.21696L8.78335 1.31644C8.69664 1.25381 8.60062 1.20523 8.49879 1.17249C8.32792 1.11777 8.17869 1.09717 7.99999 1.09717ZM5.80393 6.53376H6.18054C5.99933 6.71426 5.92042 6.92189 5.80393 7.14973V6.53376ZM9.83451 6.53376H10.1961V7.13969C10.0829 6.91645 10.0104 6.71216 9.83451 6.53376Z" fill="#EBE7E4"/>

</g>%n%n
<g transform="translate(139.000000, 9.000000) scale(0.687500 0.687500) "> 

<path fill-rule="nonzero" fill="rgb(24.705882%, 24.705882%, 24.705882%)" fill-opacity="1" d="M 21.789062 22.226562 C 21.789062 22.707031 19.472656 23.261719 16 23.261719 C 12.527344 23.261719 10.210938 22.675781 10.210938 22.226562 C 10.210938 21.597656 12.21875 19.6875 12.21875 19.265625 C 12.21875 18.792969 12.375 16.914062 12.375 16.4375 C 12.375 14.882812 13.445312 13.597656 15.003906 13.328125 C 15.003906 13.3125 15.003906 13.292969 15.003906 13.28125 C 15.003906 13.175781 15.003906 11.789062 15.003906 11.789062 L 16.996094 11.789062 C 16.996094 11.789062 16.996094 13.175781 16.996094 13.28125 C 16.996094 13.292969 16.996094 13.3125 16.996094 13.328125 C 18.566406 13.554688 19.625 14.882812 19.625 16.4375 C 19.625 16.914062 19.78125 18.792969 19.78125 19.265625 C 19.78125 19.6875 21.789062 21.597656 21.789062 22.226562 Z M 16 24.40625 C 15.449219 24.40625 15.367188 24.347656 15.105469 24.347656 C 15 24.503906 14.949219 24.609375 14.949219 24.820312 C 14.949219 25.398438 15.421875 25.871094 16 25.871094 C 16.578125 25.871094 17.050781 25.398438 17.050781 24.820312 C 17.050781 24.609375 17 24.503906 16.894531 24.347656 C 16.632812 24.347656 16.550781 24.40625 16 24.40625 Z M 16 24.40625 "/>
<path fill-rule="nonzero" fill="rgb(24.705882%, 24.705882%, 24.705882%)" fill-opacity="1" d="M 24.515625 6.296875 L 24.515625 5.738281 C 24.515625 5.664062 24.515625 5.59375 24.234375 5.523438 L 19.832031 4.804688 L 16.449219 2.367188 C 16.226562 2.296875 15.773438 2.296875 15.550781 2.367188 L 12.152344 4.8125 L 7.765625 5.523438 C 7.484375 5.59375 7.484375 5.664062 7.484375 5.738281 L 7.484375 6.296875 L 2.496094 9.359375 L 2.527344 10.214844 L 29.5 10.214844 L 29.503906 9.359375 Z M 24.515625 6.296875 "/>
<path fill-rule="nonzero" fill="rgb(24.705882%, 24.705882%, 24.705882%)" fill-opacity="1" d="M 8.523438 11.828125 L 6.09375 11.828125 L 6.09375 30.011719 L 8.523438 30.011719 Z M 8.523438 11.828125 "/>
<path fill-rule="nonzero" fill="rgb(24.705882%, 24.705882%, 24.705882%)" fill-opacity="1" d="M 25.90625 11.828125 L 23.476562 11.828125 L 23.476562 30.011719 L 25.90625 30.011719 Z M 25.90625 11.828125 "/>

</g>%n%n</svg>