<svg width="300" height="40" viewBox="0 0 300 40" fill="none" xmlns="http://www.w3.org/2000/svg" xmlns:xlink="http://www.w3.org/1999/xlink">

<g transform="translate(130.000000, 0.000000) scale(2.500000 2.500000) "> 

<path opacity="0.8" d="M3.76662 2C3.5633 2.00002 3.36832 2.08024 3.22456 2.22301C3.0808 2.36578 3.00002 2.55941 3 2.76132V13.2387C3.00002 13.4406 3.0808 13.6342 3.22456 13.777C3.36832 13.9198 3.5633 14 3.76662 14H12.2334C12.4367 14 12.6317 13.9198 12.7754 13.777C12.9192 13.6342 13 13.4406 13 13.2387V2.76132C13 2.55941 12.9192 2.36578 12.7754 2.22301C12.6317 2.08024 12.4367 2.00002 12.2334 2H3.76662V2Z" fill="#EBE7E4"/>

</g>%n%n
<g transform="translate(139.000000, 9.000000) scale(0.687500 0.687500) "> 

<path fill-rule="nonzero" fill="rgb(24.705882%, 24.705882%, 24.705882%)" fill-opacity="1" d="M 5.253906 2.605469 L 5.253906 29.394531 L 26.75 29.394531 L 26.75 2.605469 Z M 7.246094 3.960938 L 24.648438 3.960938 C 25.050781 3.960938 25.394531 4.304688 25.394531 4.707031 L 25.394531 27.398438 C 25.394531 27.800781 25.050781 28.144531 24.648438 28.144531 L 7.246094 28.144531 C 6.847656 28.144531 6.5 27.800781 6.5 27.398438 L 6.5 4.707031 C 6.5 4.304688 6.847656 3.960938 7.246094 3.960938 Z M 7.9375 5.394531 L 7.9375 26.707031 L 23.957031 26.707031 L 23.957031 18.574219 L 21.488281 18.574219 C 21.472656 18.574219 21.460938 18.5625 21.460938 18.546875 L 21.460938 13.605469 C 21.460938 13.589844 21.472656 13.578125 21.488281 13.578125 L 23.957031 13.578125 L 23.957031 5.394531 Z M 15.164062 7.003906 L 19.277344 7.003906 L 15.175781 13.757812 L 20.371094 13.757812 L 11.179688 25.324219 L 15.214844 16.535156 L 10.40625 16.535156 Z M 15.164062 7.003906 "/>

</g>%n%n</svg>