<svg width="300" height="40" viewBox="0 0 300 40" fill="none" xmlns="http://www.w3.org/2000/svg" xmlns:xlink="http://www.w3.org/1999/xlink">

<g transform="translate(130.000000, 0.000000) scale(2.500000 2.500000) "> 

<path opacity="0.812" d="M8.00195 1.7229C6.70854 1.7229 5.53804 1.87139 4.60575 2.1514C4.13961 2.2914 3.73124 2.45805 3.36377 2.71883C2.9963 2.9796 2.58209 3.42814 2.58209 4.07798V7.08417V12.5342C2.58215 12.5677 2.58382 12.6012 2.58711 12.6346C2.65132 13.2998 3.21888 13.7364 3.62824 13.9C4.03759 14.0636 4.43849 14.1195 4.89198 14.1611C5.79895 14.2443 6.9033 14.2247 8.08229 14.2247C9.26128 14.2247 10.3243 14.2437 11.1973 14.1594C11.6338 14.1173 12.0221 14.0632 12.4242 13.8916C12.8263 13.72 13.3563 13.261 13.4168 12.6346C13.4201 12.6012 13.4218 12.5677 13.4218 12.5342V7.08417V4.07798C13.4218 3.42814 13.0076 2.97961 12.6402 2.71883C12.2727 2.45805 11.8643 2.2914 11.3981 2.1514C10.4659 1.87139 9.29535 1.7229 8.00195 1.7229Z" fill="#EBE7E4"/>

</g>%n%n
<g transform="translate(139.000000, 9.000000) scale(0.687500 0.687500) "> 

<path fill-rule="nonzero" fill="rgb(24.705882%, 24.705882%, 24.705882%)" fill-opacity="1" d="M 16 3.839844 C 10.359375 3.839844 5.78125 5.214844 5.78125 6.910156 L 5.78125 26.640625 C 5.941406 28.292969 10.644531 28.15625 16.1875 28.15625 C 21.726562 28.15625 26.058594 28.292969 26.21875 26.640625 L 26.21875 6.910156 C 26.21875 5.214844 21.640625 3.839844 16 3.839844 Z M 14.589844 7.511719 C 23.632812 13.503906 25.390625 20.960938 18.53125 25.84375 C 18.53125 25.84375 20.429688 21.71875 19.96875 19.421875 C 19.511719 17.125 18.523438 16.019531 16.226562 14.121094 C 15.582031 16.21875 14.703125 17.636719 13.925781 18.675781 C 12.84375 20.113281 12.269531 20.589844 12.136719 21.90625 C 11.945312 23.808594 13.980469 26.035156 13.980469 26.035156 C 13.269531 25.867188 8.929688 23.382812 9.335938 19.351562 C 9.738281 15.34375 13.425781 15.273438 14.589844 7.511719 Z M 14.589844 7.511719 "/>

</g>%n%n</svg>