<svg width="300" height="40" viewBox="0 0 300 40" fill="none" xmlns="http://www.w3.org/2000/svg" xmlns:xlink="http://www.w3.org/1999/xlink">

<g transform="translate(130.000000, 0.000000) scale(2.500000 2.500000) "> 

<path opacity="0.809" d="M6.06067 1.26898C5.85904 1.26914 5.66232 1.33119 5.49709 1.44673C5.33185 1.56228 5.20606 1.72576 5.13671 1.91508L3.26203 7.0303C3.20041 7.19838 3.18578 7.38007 3.2197 7.55584C3.25361 7.73161 3.33479 7.89481 3.45452 8.0279L4.20439 8.85812C4.2968 8.96043 4.40965 9.04219 4.53565 9.09813C4.66165 9.15407 4.79799 9.18293 4.93585 9.18284H6.12092V13.903C6.12109 14.164 6.22484 14.4143 6.40938 14.5988C6.59392 14.7833 6.84416 14.8871 7.10514 14.8872H8.06926C8.33024 14.8871 8.58048 14.7833 8.76502 14.5988C8.94956 14.4143 9.05331 14.164 9.05347 13.903V9.18284H10.1314C10.3335 9.1829 10.5308 9.12077 10.6964 9.00488C10.8619 8.889 10.9879 8.72498 11.057 8.53507L12.9585 3.31273C13.0214 3.13962 13.0346 2.95234 12.9964 2.77215C12.9582 2.59196 12.8703 2.42609 12.7426 2.29337L12.0463 1.57027C11.9543 1.4749 11.8441 1.39906 11.7221 1.34729C11.6002 1.29552 11.4691 1.26889 11.3366 1.26898H6.06067Z" fill="#EBE7E4"/>

</g>%n%n
<g transform="translate(139.000000, 9.000000) scale(0.687500 0.687500) "> 

<path fill-rule="nonzero" fill="rgb(91.372549%, 29.411765%, 29.411765%)" fill-opacity="0.591133" d="M 15.226562 29.792969 L 15.28125 15.722656 Z M 15.226562 29.792969 "/>
<path fill="none" stroke-width="37.584" stroke-linecap="butt" stroke-linejoin="round" stroke="rgb(24.705882%, 24.705882%, 24.705882%)" stroke-opacity="1" stroke-miterlimit="4" d="M 275.981445 539.997559 L 276.972656 284.973145 " transform="matrix(0.0551724, 0, 0, 0.0551724, 0, 0)"/>
<path fill-rule="nonzero" fill="rgb(24.705882%, 24.705882%, 24.705882%)" fill-opacity="1" d="M 11.507812 2.429688 L 7.140625 14.171875 L 8.605469 15.964844 C 8.910156 16.246094 8.824219 16.195312 8.910156 16.246094 L 20.699219 16.246094 C 20.894531 16.246094 21.109375 16.085938 21.179688 15.890625 L 25.136719 4.929688 C 25.179688 4.8125 25.160156 4.710938 25.097656 4.644531 L 25.121094 4.644531 L 22.648438 2.429688 Z M 13.722656 5.679688 L 16.039062 5.679688 L 15.203125 7.996094 L 12.886719 7.996094 Z M 17.390625 5.679688 L 19.710938 5.679688 L 18.871094 7.996094 L 16.554688 7.996094 Z M 21.0625 5.679688 L 23.378906 5.679688 L 22.542969 7.996094 L 20.222656 7.996094 Z M 12.46875 9.15625 L 14.785156 9.15625 L 13.949219 11.472656 L 11.632812 11.472656 Z M 16.136719 9.15625 L 18.453125 9.15625 L 17.617188 11.472656 L 15.300781 11.472656 Z M 19.804688 9.15625 L 22.125 9.15625 L 21.285156 11.472656 L 18.96875 11.472656 Z M 11.234375 12.574219 L 13.550781 12.574219 L 12.714844 14.894531 L 10.394531 14.894531 Z M 14.902344 12.574219 L 17.21875 12.574219 L 16.382812 14.894531 L 14.066406 14.894531 Z M 18.570312 12.574219 L 20.886719 12.574219 L 20.050781 14.894531 L 17.734375 14.894531 Z M 18.570312 12.574219 "/>

</g>%n%n</svg>