<svg width="300" height="40" viewBox="0 0 300 40" fill="none" xmlns="http://www.w3.org/2000/svg" xmlns:xlink="http://www.w3.org/1999/xlink">

<g transform="translate(130.000000, 0.000000) scale(2.000000 2.000000) "> 

<g clip-path="url(#clip0)">
<path opacity="0.953" d="M9.99934 0C15.514 0 20 4.44646 20 10C20 15.5172 15.514 20 9.99934 20C4.48599 20 0 15.5172 0 10C0 4.44646 4.48599 0 9.99934 0V0Z" fill="#878787"/>
<path opacity="0.95" fill-rule="evenodd" clip-rule="evenodd" d="M10 19C14.9706 19 19 14.9706 19 10C19 5.02944 14.9706 1 10 1C5.02944 1 1 5.02944 1 10C1 14.9706 5.02944 19 10 19ZM10 20C15.5228 20 20 15.5228 20 10C20 4.47715 15.5228 0 10 0C4.47715 0 0 4.47715 0 10C0 15.5228 4.47715 20 10 20Z" fill="#404040"/>
</g>
<defs>
<clipPath id="clip0">
<path d="M0 0H20V20H0V0Z" fill="white"/>
</clipPath>
</defs>

</g>%n%n
<g transform="translate(139.000000, 9.000000) scale(0.687500 0.687500) "> 

<path fill-rule="evenodd" fill="rgb(100%, 100%, 100%)" fill-opacity="1" d="M 6.648438 2.648438 C 5.910156 2.660156 5.324219 3.265625 5.332031 4 L 5.332031 28 C 5.328125 28.480469 5.578125 28.929688 5.996094 29.171875 C 6.410156 29.414062 6.921875 29.414062 7.339844 29.171875 C 7.753906 28.929688 8.007812 28.480469 8 28 L 8 4 C 8.003906 3.640625 7.863281 3.292969 7.609375 3.039062 C 7.355469 2.785156 7.007812 2.644531 6.648438 2.648438 Z M 6.648438 2.648438 "/>
<path fill-rule="evenodd" fill="rgb(100%, 100%, 100%)" fill-opacity="1" d="M 11.996094 4 C 11.261719 4 10.667969 4.597656 10.667969 5.332031 L 10.667969 16 C 10.667969 16.898438 11.535156 17.539062 12.390625 17.273438 L 16 16.164062 L 16 5.167969 L 12.390625 4.058594 C 12.265625 4.019531 12.132812 4 11.996094 4 Z M 18.667969 5.988281 L 18.667969 15.34375 L 24 13.703125 L 24 7.628906 Z M 26.667969 8.449219 L 26.667969 12.882812 L 29.726562 11.941406 C 30.980469 11.554688 30.980469 9.777344 29.726562 9.390625 Z M 26.667969 8.449219 "/>

</g>%n%n</svg>