<svg width="40" height="40" viewBox="0 0 40 40" fill="none" xmlns="http://www.w3.org/2000/svg" >

<g transform="translate(0.000000, 0.000000) scale(2.000000 2.000000) "> 

<g clip-path="url(#clip0)">
<path opacity="0.953" d="M9.99934 0C15.514 0 20 4.44646 20 10C20 15.5172 15.514 20 9.99934 20C4.48599 20 0 15.5172 0 10C0 4.44646 4.48599 0 9.99934 0V0Z" fill="#878787"/>
<path opacity="0.95" fill-rule="evenodd" clip-rule="evenodd" d="M10 19C14.9706 19 19 14.9706 19 10C19 5.02944 14.9706 1 10 1C5.02944 1 1 5.02944 1 10C1 14.9706 5.02944 19 10 19ZM10 20C15.5228 20 20 15.5228 20 10C20 4.47715 15.5228 0 10 0C4.47715 0 0 4.47715 0 10C0 15.5228 4.47715 20 10 20Z" fill="#404040"/>
</g>
<defs>
<clipPath id="clip0">
<path d="M0 0H20V20H0V0Z" fill="white"/>
</clipPath>
</defs>

</g>


<g transform="translate(8.000000, 8.000000) scale(0.500000 0.500000) "> 

<path opacity="0.2" d="M16 12H40V40H16V12Z" fill="#ffffff"/>
<path fill-rule="evenodd" clip100-rule="evenodd" d="M4 8H44V40H40V36H32C32 38.2091 30.2091 40 28 40C25.7909 40 24 38.2091 24 36H20V28L24 20H28V16H40V12H16V40H4V8ZM24.4721 28L26.4721 24H28V28H24.4721ZM28.8 36C28.8 36.4418 28.4418 36.8 28 36.8C27.5582 36.8 27.2 36.4418 27.2 36C27.2 35.5582 27.5582 35.2 28 35.2C28.4418 35.2 28.8 35.5582 28.8 36Z" fill="#ffffff"/>

</g>

</svg>