<svg width="300" height="40" viewBox="0 0 300 40" fill="none" xmlns="http://www.w3.org/2000/svg" xmlns:xlink="http://www.w3.org/1999/xlink">

<g transform="translate(130.000000, 0.000000) scale(2.500000 2.500000) "> 

 <path transform="matrix(.8 0 0 .8 1.6 1.4666)" d="m14.637 1.6504a1.0154 1.0154 0 0 0-0.58008 0.20312l-5.0605 3.7969h-7.6621a1.0154 1.0154 0 0 0-1.0156 1.0156v5.334a1.0154 1.0154 0 0 0 1.0156 1.0156h1.332a1.0154 1.0154 0 0 0 1.0156-1.0156v-1.6504h6.3184a1.0154 1.0154 0 0 0 0.63477-0.22266l1.6836-1.3477v3.2207a1.0154 1.0154 0 0 0 1.0156 1.0156h1.332a1.0154 1.0154 0 0 0 1.0156-1.0156v-9.334a1.0154 1.0154 0 0 0-1.0449-1.0156z" fill="#ebe7e4" opacity=".8" stroke-width="1.25"/>

</g>%n%n
<g transform="translate(139.000000, 9.000000) scale(1.833333 1.833333) "> 

<path fill-rule="nonzero" fill="rgb(33.333333%, 33.333333%, 33.333333%)" fill-opacity="1" d="M 1 5 L 7 5 L 11 2 L 11 9 L 10 9 L 10 5 L 7.5 7 L 2 7 L 2 9 L 1 9 Z M 1 5 "/>

</g>%n%n</svg>