<svg width="300" height="35" viewBox="0 0 300 35" fill="none" xmlns="http://www.w3.org/2000/svg">

<g transform="translate(135.000000, 2.000000) scale(1.500000 1.500000) "> 

<g clip-path="url(#clip0)">
<path opacity="0.849" d="M9.9994 1C14.9626 1 19 5.00181 19 10C19 14.9655 14.9626 19 9.9994 19C5.0374 19 1 14.9655 1 10C1 5.00181 5.0374 1 9.9994 1Z" fill="#0086C7"/>
<path opacity="0.95" fill-rule="evenodd" clip-rule="evenodd" d="M10 19C14.9706 19 19 14.9706 19 10C19 5.02944 14.9706 1 10 1C5.02944 1 1 5.02944 1 10C1 14.9706 5.02944 19 10 19ZM10 20C15.5228 20 20 15.5228 20 10C20 4.47715 15.5228 0 10 0C4.47715 0 0 4.47715 0 10C0 15.5228 4.47715 20 10 20Z" fill="#5FB7ED"/>
</g>
<defs>
<clipPath id="clip0">
<path d="M0 0H20V20H0V0Z" fill="white"/>
</clipPath>
</defs>

</g>


<g transform="translate(141.000000, 8.000000) scale(0.375000 0.375000) "> 

<path fill-rule="evenodd" clip100-rule="evenodd" d="M8 0C5.79086 0 4 1.79086 4 4V12C4 14.2091 5.79086 16 8 16H18C19.1046 16 20 15.1046 20 14V12H41.1716C41.702 12 42.2107 11.7893 42.5858 11.4142L44 10H28V8H44L42.5528 5.10557C42.214 4.428 41.5215 4 40.7639 4H20V2C20 0.895431 19.1046 0 18 0H8ZM12 4H8V12H12V4Z" fill="#ffffff"/>
<path fill-rule="evenodd" clip100-rule="evenodd" d="M33.1716 19.1716C32.4214 18.4214 31.404 18 30.3431 18H17.6569C16.596 18 15.5786 18.4214 14.8284 19.1716L14.7834 19.2166C14.2708 19.7292 13.9071 20.3715 13.7313 21.0749L12 28H10C8.89543 28 8 28.8954 8 30C8 31.1046 8.89543 32 10 32H12V42C12 43.1046 12.8954 44 14 44C15.1046 44 16 43.1046 16 42V40H32V42C32 43.1046 32.8954 44 34 44C35.1046 44 36 43.1046 36 42V32H38C39.1046 32 40 31.1046 40 30C40 28.8954 39.1046 28 38 28H36L34.2687 21.0749C34.0929 20.3715 33.7292 19.7292 33.2166 19.2166L33.1716 19.1716ZM30.3881 22.045L30.3432 22.0001L17.6569 22L17.6119 22.045L16.0198 28.4133C17.8935 28.5561 20.5535 28.6875 24 28.6875C27.4465 28.6875 30.1065 28.5561 31.9802 28.4133L30.3881 22.045ZM18 32C16.8954 32 16 32.8954 16 34C16 35.1046 16.8954 36 18 36C19.1046 36 20 35.1046 20 34C20 32.8954 19.1046 32 18 32ZM30 32C28.8954 32 28 32.8954 28 34C28 35.1046 28.8954 36 30 36C31.1046 36 32 35.1046 32 34C32 32.8954 31.1046 32 30 32Z" fill="#ffffff"/>

</g>

</svg>