<svg width="300" height="40" viewBox="0 0 300 40" fill="none" xmlns="http://www.w3.org/2000/svg" xmlns:xlink="http://www.w3.org/1999/xlink">

<g transform="translate(130.000000, 0.000000) scale(2.000000 2.000000) "> 

<g clip-path="url(#clip0)">
<path opacity="0.953" d="M9.99934 0C15.514 0 20 4.44646 20 10C20 15.5172 15.514 20 9.99934 20C4.48599 20 0 15.5172 0 10C0 4.44646 4.48599 0 9.99934 0V0Z" fill="#878787"/>
<path opacity="0.95" fill-rule="evenodd" clip-rule="evenodd" d="M10 19C14.9706 19 19 14.9706 19 10C19 5.02944 14.9706 1 10 1C5.02944 1 1 5.02944 1 10C1 14.9706 5.02944 19 10 19ZM10 20C15.5228 20 20 15.5228 20 10C20 4.47715 15.5228 0 10 0C4.47715 0 0 4.47715 0 10C0 15.5228 4.47715 20 10 20Z" fill="#404040"/>
</g>
<defs>
<clipPath id="clip0">
<path d="M0 0H20V20H0V0Z" fill="white"/>
</clipPath>
</defs>

</g>%n%n
<g transform="translate(138.000000, 8.000000) scale(2.000000 2.000000) "> 

<path fill-rule="nonzero" fill="rgb(100%, 100%, 100%)" fill-opacity="1" d="M 9.167969 1.136719 C 8.691406 0.875 6.574219 0.492188 3.890625 4.242188 C 1.058594 8.195312 2.175781 10.21875 2.628906 10.523438 L 4.464844 7.890625 C 4.097656 7.632812 4.304688 7.179688 4.792969 6.296875 C 5.121094 5.710938 5.574219 5.023438 6.117188 4.402344 C 6.496094 3.96875 6.902344 3.566406 7.289062 3.835938 Z M 9.167969 1.136719 "/>
<path fill-rule="nonzero" fill="rgb(100%, 100%, 100%)" fill-opacity="1" d="M 3.574219 11.1875 C 3.746094 11.304688 3.964844 11.253906 4.070312 11.097656 L 4.074219 11.097656 C 4.074219 11.097656 5.503906 9.042969 5.503906 9.042969 C 5.617188 8.878906 5.574219 8.660156 5.414062 8.546875 L 4.667969 8.027344 L 2.828125 10.667969 C 2.828125 10.667969 3.570312 11.1875 3.574219 11.1875 Z M 3.574219 11.1875 "/>
<path fill-rule="nonzero" fill="rgb(100%, 100%, 100%)" fill-opacity="1" d="M 8.238281 4.5 C 8.40625 4.617188 8.625 4.5625 8.734375 4.40625 L 8.738281 4.40625 C 8.738281 4.40625 10.207031 2.296875 10.207031 2.292969 C 10.320312 2.132812 10.28125 1.910156 10.121094 1.800781 L 9.375 1.277344 L 7.492188 3.976562 C 7.492188 3.976562 8.234375 4.496094 8.234375 4.496094 Z M 8.238281 4.5 "/>

</g>%n%n</svg>