<svg width="300" height="35" viewBox="0 0 300 35" fill="none" xmlns="http://www.w3.org/2000/svg" >

<g transform="translate(135.000000, 2.000000) scale(1.500000 1.500000) "> 

<g clip-path="url(#clip0)">
<path opacity="0.953" d="M9.99934 0C15.514 0 20 4.44646 20 10C20 15.5172 15.514 20 9.99934 20C4.48599 20 0 15.5172 0 10C0 4.44646 4.48599 0 9.99934 0V0Z" fill="#505050"/>
<path opacity="0.95" fill-rule="evenodd" clip-rule="evenodd" d="M10 19C14.9706 19 19 14.9706 19 10C19 5.02944 14.9706 1 10 1C5.02944 1 1 5.02944 1 10C1 14.9706 5.02944 19 10 19ZM10 20C15.5228 20 20 15.5228 20 10C20 4.47715 15.5228 0 10 0C4.47715 0 0 4.47715 0 10C0 15.5228 4.47715 20 10 20Z" fill="#909090"/>
</g>
<defs>
<clipPath id="clip0">
<path d="M0 0H20V20H0V0Z" fill="white"/>
</clipPath>
</defs>

</g>


<g transform="translate(141.000000, 8.000000) scale(0.031034 0.031034) "> 

<path opacity="0.914" fill-rule="evenodd" clip100-rule="evenodd" d="M291.859 66.8047L55.334 176.389L54.248 523.582L529.469 531.176L522.959 176.389L291.859 66.8047ZM111.443 227.842H468.557V457.414H111.443V227.842ZM121.646 253.35L221.129 334.975L142.053 424.254L249.188 355.381L290 383.439L333.363 355.381L440.498 424.254L361.422 334.975L458.354 253.35L290 350.279L121.646 253.35Z" fill="#ffffff"/>
<path d="M289.999 37.0337L37.0951 146.626V167.685H36.9724V542.966H543.028V167.685H542.905V146.626L289.999 37.0337ZM289.999 95.6483L514.652 192.999V513.612H65.3485V192.996L289.999 95.6483Z" fill="#ffffff"/>

</g>

</svg>