<svg width="300" height="40" viewBox="0 0 300 40" fill="none" xmlns="http://www.w3.org/2000/svg" xmlns:xlink="http://www.w3.org/1999/xlink">

<g transform="translate(130.000000, 0.000000) scale(2.000000 2.000000) "> 

<g clip-path="url(#clip0)">
<path opacity="0.949" d="M9.9994 1C14.9626 1 19 5.00181 19 10C19 14.9655 14.9626 19 9.9994 19C5.0374 19 1 14.9655 1 10C1 5.00181 5.0374 1 9.9994 1Z" fill="#45ABE9"/>
<path opacity="0.95" fill-rule="evenodd" clip-rule="evenodd" d="M10 19C14.9706 19 19 14.9706 19 10C19 5.02944 14.9706 1 10 1C5.02944 1 1 5.02944 1 10C1 14.9706 5.02944 19 10 19ZM10 20C15.5228 20 20 15.5228 20 10C20 4.47715 15.5228 0 10 0C4.47715 0 0 4.47715 0 10C0 15.5228 4.47715 20 10 20Z" fill="#1578B3"/>
</g>
<defs>
<clipPath id="clip0">
<path d="M0 0H20V20H0V0Z" fill="white"/>
</clipPath>
</defs>

</g>%n%n
<g transform="translate(138.000000, 8.000000) scale(2.000000 2.000000) "> 

<path fill-rule="evenodd" fill="rgb(100%, 100%, 100%)" fill-opacity="1" d="M 2 0 C 1.449219 0 1 0.449219 1 1 L 1 3 C 1 3.550781 1.449219 4 2 4 L 4.5 4 C 4.777344 4 5 3.777344 5 3.5 L 5 3 L 10.292969 3 C 10.425781 3 10.550781 2.949219 10.644531 2.855469 L 11 2.5 L 7 2.5 L 7 2 L 11 2 L 10.636719 1.277344 C 10.554688 1.105469 10.378906 1 10.191406 1 L 5 1 L 5 0.5 C 5 0.222656 4.777344 0 4.5 0 Z M 3 1 L 2 1 L 2 3 L 3 3 Z M 3 1 "/>
<path fill-rule="evenodd" fill="rgb(100%, 100%, 100%)" fill-opacity="1" d="M 8.292969 4.792969 C 8.105469 4.605469 7.851562 4.5 7.585938 4.5 L 4.414062 4.5 C 4.148438 4.5 3.894531 4.605469 3.707031 4.792969 L 3.695312 4.804688 C 3.566406 4.933594 3.476562 5.09375 3.433594 5.269531 L 3 7 L 2.5 7 C 2.222656 7 2 7.222656 2 7.5 C 2 7.777344 2.222656 8 2.5 8 L 3 8 L 3 10.5 C 3 10.777344 3.222656 11 3.5 11 C 3.777344 11 4 10.777344 4 10.5 L 4 10 L 8 10 L 8 10.5 C 8 10.777344 8.222656 11 8.5 11 C 8.777344 11 9 10.777344 9 10.5 L 9 8 L 9.5 8 C 9.777344 8 10 7.777344 10 7.5 C 10 7.222656 9.777344 7 9.5 7 L 9 7 L 8.566406 5.269531 C 8.523438 5.09375 8.433594 4.933594 8.304688 4.804688 Z M 7.597656 5.511719 L 7.585938 5.5 L 4.414062 5.5 L 4.402344 5.511719 L 4.003906 7.101562 C 4.472656 7.140625 5.136719 7.171875 6 7.171875 C 6.863281 7.171875 7.527344 7.140625 7.996094 7.101562 Z M 4.5 8 C 4.222656 8 4 8.222656 4 8.5 C 4 8.777344 4.222656 9 4.5 9 C 4.777344 9 5 8.777344 5 8.5 C 5 8.222656 4.777344 8 4.5 8 Z M 7.5 8 C 7.222656 8 7 8.222656 7 8.5 C 7 8.777344 7.222656 9 7.5 9 C 7.777344 9 8 8.777344 8 8.5 C 8 8.222656 7.777344 8 7.5 8 Z M 7.5 8 "/>

</g>%n%n</svg>