<svg width="300" height="40" viewBox="0 0 300 40" fill="none" xmlns="http://www.w3.org/2000/svg" xmlns:xlink="http://www.w3.org/1999/xlink">

<g transform="translate(130.000000, 0.000000) scale(2.000000 2.000000) "> 

<g clip-path="url(#clip0)">
<path opacity="0.953" d="M9.99934 0C15.514 0 20 4.44646 20 10C20 15.5172 15.514 20 9.99934 20C4.48599 20 0 15.5172 0 10C0 4.44646 4.48599 0 9.99934 0V0Z" fill="#878787"/>
<path opacity="0.95" fill-rule="evenodd" clip-rule="evenodd" d="M10 19C14.9706 19 19 14.9706 19 10C19 5.02944 14.9706 1 10 1C5.02944 1 1 5.02944 1 10C1 14.9706 5.02944 19 10 19ZM10 20C15.5228 20 20 15.5228 20 10C20 4.47715 15.5228 0 10 0C4.47715 0 0 4.47715 0 10C0 15.5228 4.47715 20 10 20Z" fill="#404040"/>
</g>
<defs>
<clipPath id="clip0">
<path d="M0 0H20V20H0V0Z" fill="white"/>
</clipPath>
</defs>

</g>%n%n
<g transform="translate(138.000000, 8.000000) scale(0.750000 0.750000) "> 

<defs>
<filter id="filter-remove-color" x="0%" y="0%" width="100%" height="100%">
<feColorMatrix color-interpolation-filters="sRGB" values="0 0 0 0 1 0 0 0 0 1 0 0 0 0 1 0 0 0 1 0" />
</filter>
<mask id="mask-0">
<g filter="url(#filter-remove-color)">
<rect x="-3.2" y="-3.2" width="38.4" height="38.4" fill="rgb(0%, 0%, 0%)" fill-opacity="0.985122"/>
</g>
</mask>
<clip100Path id="clip100-0">
<rect x="0" y="0" width="32" height="32"/>
</clip100Path>
<g id="source-6" clip100-path="url(#clip100-0)">
<path fill-rule="nonzero" fill="rgb(100%, 100%, 100%)" fill-opacity="1" stroke-width="15" stroke-linecap="round" stroke-linejoin="round" stroke="rgb(100%, 100%, 100%)" stroke-opacity="1" stroke-miterlimit="4" d="M 336.374512 159.584961 C 320.373535 165.673828 298.425293 174.665527 290.141602 174.665527 C 281.928711 174.665527 275.273438 167.939453 275.273438 159.584961 C 275.273438 151.30127 281.928711 144.575195 290.141602 144.575195 C 298.000488 144.858398 320.79834 154.204102 336.374512 159.584961 Z M 336.374512 159.584961 " transform="matrix(0.0551724, 0, 0, 0.0551724, 0, 0)"/>
</g>
<mask id="mask-1">
<g filter="url(#filter-remove-color)">
<rect x="-3.2" y="-3.2" width="38.4" height="38.4" fill="rgb(0%, 0%, 0%)" fill-opacity="0.985122"/>
</g>
</mask>
<clip100Path id="clip100-1">
<rect x="0" y="0" width="32" height="32"/>
</clip100Path>
<g id="source-10" clip100-path="url(#clip100-1)">
<path fill-rule="nonzero" fill="rgb(100%, 100%, 100%)" fill-opacity="1" stroke-width="15" stroke-linecap="round" stroke-linejoin="round" stroke="rgb(100%, 100%, 100%)" stroke-opacity="1" stroke-miterlimit="4" d="M 322.001953 159.584961 C 338.00293 165.673828 359.951172 174.665527 368.164062 174.665527 C 376.376953 174.665527 383.103027 167.939453 383.103027 159.584961 C 383.103027 151.30127 376.376953 144.575195 368.164062 144.575195 C 360.305176 144.858398 337.507324 154.204102 322.001953 159.584961 Z M 322.001953 159.584961 " transform="matrix(0.0551724, 0, 0, 0.0551724, 0, 0)"/>
</g>
<mask id="mask-2">
<g filter="url(#filter-remove-color)">
<rect x="-3.2" y="-3.2" width="38.4" height="38.4" fill="rgb(0%, 0%, 0%)" fill-opacity="0.985122"/>
</g>
</mask>
<clip100Path id="clip100-2">
<rect x="0" y="0" width="32" height="32"/>
</clip100Path>
<g id="source-15" clip100-path="url(#clip100-2)">
<path fill-rule="nonzero" fill="rgb(100%, 100%, 100%)" fill-opacity="1" stroke-width="30" stroke-linecap="round" stroke-linejoin="round" stroke="rgb(100%, 100%, 100%)" stroke-opacity="1" stroke-miterlimit="4" d="M 328.94043 341.755371 C 346.21582 341.755371 360.234375 313.435059 360.234375 278.530273 C 360.234375 243.625488 346.21582 215.305176 328.94043 215.305176 C 311.665039 215.305176 297.646484 243.625488 297.646484 278.530273 C 297.646484 313.435059 311.665039 341.755371 328.94043 341.755371 Z M 328.94043 341.755371 " transform="matrix(0.0551724, 0, 0, 0.0551724, 0, 0)"/>
</g>
</defs>
<g mask="url(#mask-0)">
<use xlink:href="#source-6"/>
</g>
<g mask="url(#mask-1)">
<use xlink:href="#source-10"/>
</g>
<path fill="none" stroke-width="30" stroke-linecap="round" stroke-linejoin="miter" stroke="rgb(100%, 100%, 100%)" stroke-opacity="1" stroke-miterlimit="4" d="M 328.94043 158.876953 L 328.94043 250.705566 L 330.002441 286.459961 " transform="matrix(0.0551724, 0, 0, 0.0551724, 0, 0)"/>
<g mask="url(#mask-2)">
<use xlink:href="#source-15"/>
</g>
<path fill="none" stroke-width="50" stroke-linecap="butt" stroke-linejoin="miter" stroke="rgb(100%, 100%, 100%)" stroke-opacity="1" stroke-miterlimit="4" d="M 495.817871 286.035156 L 251.413574 284.689941 L 232.01416 284.54834 C 136.645508 283.061523 142.592773 373.33252 142.592773 373.33252 " transform="matrix(0.0551724, 0, 0, 0.0551724, 0, 0)"/>

</g>%n%n</svg>