<svg width="300" height="35" viewBox="0 0 300 35" fill="none" xmlns="http://www.w3.org/2000/svg">

<g transform="translate(135.000000, 2.000000) scale(1.875000 1.875000) "> 
<path style="color:#000;clip-rule:nonzero;display:inline;overflow:visible;visibility:visible;opacity:.81199999;isolation:auto;mix-blend-mode:normal;color-interpolation:sRGB;color-interpolation-filters:linearRGB;solid-color:#000;solid-opacity:1;vector-effect:none;fill:#ebe7e4;fill-opacity:1;fill-rule:nonzero;stroke:none;stroke-width:1.25;stroke-linecap:butt;stroke-linejoin:miter;stroke-miterlimit:4;stroke-dasharray:none;stroke-dashoffset:0;stroke-opacity:1;marker:none;paint-order:normal;color-rendering:auto;image-rendering:auto;shape-rendering:auto;text-rendering:auto;enable-background:accumulate" id="rect814" d="M2.67 2a.67.67 0 0 0-.47.2L.86 3.53a.67.67 0 0 0-.1.8.67.67 0 0 0-.1.34v2.66a.67.67 0 0 0 .38.6l1 .5.63 4.99a.67.67 0 0 0 .66.58h1.34a.67.67 0 0 0 .33-.1.67.67 0 0 0 .33.1h5.34a.67.67 0 0 0 .33-.09.67.67 0 0 0 .33.09h1.34a.67.67 0 0 0 .66-.58l.62-4.98 1.01-.51a.67.67 0 0 0 .37-.6V4.67a.67.67 0 0 0-.09-.34.67.67 0 0 0-.1-.8L13.8 2.2a.67.67 0 0 0-.47-.2z" transform="matrix(.8 0 0 .8 1.6 1.6)"/>
</g>


<g transform="translate(141.000000, 8.000000) scale(0.375000 0.375000) "> 
<path style="color:#000;clip100-rule:nonzero;display:inline;overflow:visible;visibility:visible;opacity:1;isolation:auto;mix-blend-mode:normal;color-interpolation:sRGB;color-interpolation-filters:linearRGB;solid-color:#000;solid-opacity:1;vector-effect:none;fill:#fff;fill-opacity:1;fill-rule:nonzero;stroke:none;stroke-width:1;stroke-linecap:butt;stroke-linejoin:miter;stroke-miterlimit:4;stroke-dasharray:none;stroke-dashoffset:0;stroke-opacity:1;marker:none;paint-order:normal;color-rendering:auto;image-rendering:auto;shape-rendering:auto;text-rendering:auto;enable-background:accumulate" d="M4 14v8l4 2 2 16h4l2-16h16c.33 5.33 2 16 2 16h4l2-16 4-2v-8zm14 12l-2 14h16l-2-14z" id="rect814"/><path style="color:#000;clip100-rule:nonzero;display:inline;overflow:visible;visibility:visible;opacity:1;isolation:auto;mix-blend-mode:normal;color-interpolation:sRGB;color-interpolation-filters:linearRGB;solid-color:#000;solid-opacity:1;vector-effect:none;fill:#fff;fill-opacity:1;fill-rule:nonzero;stroke:none;stroke-width:1;stroke-linecap:butt;stroke-linejoin:miter;stroke-miterlimit:4;stroke-dasharray:none;stroke-dashoffset:0;stroke-opacity:1;marker:none;paint-order:normal;color-rendering:auto;image-rendering:auto;shape-rendering:auto;text-rendering:auto;enable-background:accumulate" d="M8 8h32l4 4H4z" id="rect817"/>
</g>

</svg>