<svg width="300" height="40" viewBox="0 0 300 40" fill="none" xmlns="http://www.w3.org/2000/svg" xmlns:xlink="http://www.w3.org/1999/xlink">

<g transform="translate(130.000000, 0.000000) scale(2.000000 2.000000) "> 

<g clip-path="url(#clip0)">
<path opacity="0.953" d="M9.99934 0C15.514 0 20 4.44646 20 10C20 15.5172 15.514 20 9.99934 20C4.48599 20 0 15.5172 0 10C0 4.44646 4.48599 0 9.99934 0V0Z" fill="#878787"/>
<path opacity="0.95" fill-rule="evenodd" clip-rule="evenodd" d="M10 19C14.9706 19 19 14.9706 19 10C19 5.02944 14.9706 1 10 1C5.02944 1 1 5.02944 1 10C1 14.9706 5.02944 19 10 19ZM10 20C15.5228 20 20 15.5228 20 10C20 4.47715 15.5228 0 10 0C4.47715 0 0 4.47715 0 10C0 15.5228 4.47715 20 10 20Z" fill="#404040"/>
</g>
<defs>
<clipPath id="clip0">
<path d="M0 0H20V20H0V0Z" fill="white"/>
</clipPath>
</defs>

</g>%n%n
<g transform="translate(138.000000, 8.000000) scale(2.000000 2.000000) "> 

<path fill-rule="nonzero" fill="rgb(100%, 100%, 100%)" fill-opacity="1" d="M 11.398438 3.175781 L 11.125 3.835938 L 5.90625 1.226562 L 0.882812 3.832031 L 0.601562 3.179688 L 5.898438 0.425781 Z M 11.398438 3.175781 "/>
<path fill-rule="nonzero" fill="rgb(100%, 100%, 100%)" fill-opacity="1" d="M 11.328125 4.261719 L 10.625 4.261719 L 10.625 10.953125 L 11.328125 10.953125 Z M 11.328125 4.261719 "/>
<path fill-rule="nonzero" fill="rgb(100%, 100%, 100%)" fill-opacity="1" d="M 8.71875 6.660156 L 7.378906 6.257812 C 7.289062 6.382812 7.109375 6.542969 6.789062 6.574219 C 6.789062 6.574219 5.121094 6.644531 4.859375 6.699219 C 4.859375 6.699219 4.449219 6.679688 4.125 6.933594 C 4.0625 6.941406 3.460938 7.035156 2.972656 7.761719 C 2.972656 7.761719 2.621094 8.238281 2.269531 8.214844 C 2.269531 8.214844 2.847656 8.382812 3.550781 7.636719 C 3.550781 7.636719 3.65625 7.371094 3.882812 7.21875 C 3.816406 7.335938 3.765625 7.476562 3.742188 7.652344 C 3.742188 7.652344 3.496094 9.828125 3.410156 9.9375 C 3.410156 9.9375 3.273438 10.464844 3.535156 10.492188 C 3.535156 10.492188 4.210938 10.628906 3.757812 10.3125 C 3.757812 10.3125 3.550781 10.421875 3.90625 9.207031 C 3.90625 9.207031 3.945312 9.191406 4.007812 9.152344 L 3.890625 10.199219 C 3.890625 10.199219 3.957031 10.445312 4.382812 10.523438 C 4.570312 10.558594 4.523438 10.453125 4.5 10.386719 C 4.5 10.386719 4.125 10.234375 4.175781 9.980469 L 4.511719 8.808594 C 4.773438 8.59375 5.03125 8.308594 5.09375 7.980469 C 5.9375 8.160156 6.449219 8.574219 6.949219 8.660156 C 6.945312 9.074219 6.941406 10.019531 6.941406 10.222656 C 6.941406 10.222656 7.671875 10.703125 7.589844 10.289062 C 7.589844 10.289062 7.328125 10.289062 7.257812 9.878906 C 7.257812 9.878906 7.324219 9.347656 7.441406 8.863281 C 7.496094 9.273438 7.601562 10.089844 7.601562 10.285156 C 7.601562 10.285156 8.332031 10.765625 8.25 10.351562 C 8.25 10.351562 7.988281 10.351562 7.921875 9.9375 C 7.921875 9.9375 7.894531 8.640625 8.183594 8.308594 C 8.195312 8.296875 8.207031 8.28125 8.222656 8.269531 C 8.554688 8.023438 8.652344 7.691406 8.71875 7.058594 C 8.71875 7.058594 8.699219 6.886719 8.71875 6.660156 Z M 8.71875 6.660156 "/>
<path fill-rule="nonzero" fill="rgb(100%, 100%, 100%)" fill-opacity="1" d="M 9.710938 5.609375 L 9.105469 5.28125 C 9.105469 5.28125 9.160156 5.136719 8.746094 4.867188 C 8.699219 4.835938 8.707031 4.8125 8.707031 4.8125 L 8.503906 4.234375 L 8.214844 4.792969 C 8.214844 4.792969 7.769531 5.421875 7.542969 5.917969 L 8.785156 6.292969 C 8.820312 6.171875 8.867188 6.050781 8.941406 5.941406 C 8.941406 5.941406 9.578125 6.117188 9.726562 5.664062 C 9.746094 5.609375 9.710938 5.609375 9.710938 5.609375 Z M 9.710938 5.609375 "/>
<path fill-rule="nonzero" fill="rgb(100%, 100%, 100%)" fill-opacity="1" d="M 1.5625 4.261719 L 0.859375 4.261719 L 0.859375 10.953125 L 1.5625 10.953125 Z M 1.5625 4.261719 "/>

</g>%n%n</svg>