<svg width="300" height="40" viewBox="0 0 300 40" fill="none" xmlns="http://www.w3.org/2000/svg" xmlns:xlink="http://www.w3.org/1999/xlink">

<g transform="translate(130.000000, 0.000000) scale(2.000000 2.000000) "> 

<g clip-path="url(#clip0)">
<path opacity="0.953" d="M9.99934 0C15.514 0 20 4.44646 20 10C20 15.5172 15.514 20 9.99934 20C4.48599 20 0 15.5172 0 10C0 4.44646 4.48599 0 9.99934 0V0Z" fill="#878787"/>
<path opacity="0.95" fill-rule="evenodd" clip-rule="evenodd" d="M10 19C14.9706 19 19 14.9706 19 10C19 5.02944 14.9706 1 10 1C5.02944 1 1 5.02944 1 10C1 14.9706 5.02944 19 10 19ZM10 20C15.5228 20 20 15.5228 20 10C20 4.47715 15.5228 0 10 0C4.47715 0 0 4.47715 0 10C0 15.5228 4.47715 20 10 20Z" fill="#404040"/>
</g>
<defs>
<clipPath id="clip0">
<path d="M0 0H20V20H0V0Z" fill="white"/>
</clipPath>
</defs>

</g>%n%n
<g transform="translate(138.000000, 8.000000) scale(0.750000 0.750000) "> 

<path fill-rule="nonzero" fill="rgb(100%, 100%, 100%)" fill-opacity="1" d="M 24.683594 8.183594 L 7.316406 8.183594 C 5.875 8.183594 4.710938 9.351562 4.710938 10.789062 L 4.710938 21.210938 C 4.710938 22.648438 5.875 23.816406 7.316406 23.816406 L 24.683594 23.816406 C 26.121094 23.816406 27.289062 22.648438 27.289062 21.210938 L 27.289062 10.789062 C 27.289062 9.351562 26.121094 8.183594 24.683594 8.183594 Z M 19.882812 15.902344 L 25.445312 21.597656 L 18.660156 16.75 L 16 18.480469 L 13.339844 16.75 L 6.554688 21.597656 L 12.117188 15.902344 L 5.390625 10.65625 L 16 16.378906 L 26.609375 10.65625 Z M 19.882812 15.902344 "/>

</g>%n%n</svg>