<svg width="300" height="40" viewBox="0 0 300 40" fill="none" xmlns="http://www.w3.org/2000/svg" xmlns:xlink="http://www.w3.org/1999/xlink">

<g transform="translate(130.000000, 0.000000) scale(2.500000 2.500000) "> 

<path opacity="0.806" d="M2.48348 1.73096C1.91609 1.73309 1.46462 2.26347 1.55284 2.82397L1.55116 2.8223L3.24508 13.8076C3.31396 14.266 3.71724 14.6131 4.18075 14.6127H11.8234C12.287 14.6131 12.6902 14.266 12.7591 13.8076L14.4547 2.8223L14.453 2.82397C14.5415 2.26211 14.0876 1.73098 13.519 1.73096H2.48516C2.4846 1.73096 2.48404 1.73096 2.48349 1.73096H2.48348Z" fill="#EBE7E4"/>

</g>%n%n
<g transform="translate(138.000000, 8.000000) scale(2.000000 2.000000) "> 

<path fill-rule="nonzero" fill="rgb(33.333333%, 33.333333%, 33.333333%)" fill-opacity="1" d="M 3.75 0.0664062 C 3.511719 -0.0703125 3.207031 0.0078125 3.066406 0.25 C 2.929688 0.488281 3.007812 0.792969 3.25 0.933594 L 8.507812 4 L 2 4 L 2 5 L 2.5 5 L 3.417969 10.507812 C 3.464844 10.792969 3.710938 11 4 11 L 4.5 11 C 4.222656 11 4 11.222656 4 11.5 C 4 11.777344 4.222656 12 4.5 12 C 4.777344 12 5 11.777344 5 11.5 C 5 11.222656 4.777344 11 4.5 11 L 7.5 11 C 7.222656 11 7 11.222656 7 11.5 C 7 11.777344 7.222656 12 7.5 12 C 7.777344 12 8 11.777344 8 11.5 C 8 11.222656 7.777344 11 7.5 11 L 8 11 C 8.289062 11 8.535156 10.792969 8.582031 10.507812 L 9.5 5 L 10 5 L 10 4.007812 C 10.003906 3.835938 9.914062 3.664062 9.75 3.566406 Z M 3.75 0.0664062 "/>

</g>%n%n</svg>