<svg width="300" height="40" viewBox="0 0 300 40" fill="none" xmlns="http://www.w3.org/2000/svg" xmlns:xlink="http://www.w3.org/1999/xlink">

<g transform="translate(130.000000, 0.000000) scale(2.500000 2.500000) "> 
<path style="color:#000;clip-rule:nonzero;display:inline;overflow:visible;visibility:visible;opacity:.81199999;isolation:auto;mix-blend-mode:normal;color-interpolation:sRGB;color-interpolation-filters:linearRGB;solid-color:#000;solid-opacity:1;vector-effect:none;fill:#ebe7e4;fill-opacity:1;fill-rule:nonzero;stroke:none;stroke-width:1.25;stroke-linecap:butt;stroke-linejoin:miter;stroke-miterlimit:4;stroke-dasharray:none;stroke-dashoffset:0;stroke-opacity:1;marker:none;paint-order:normal;color-rendering:auto;image-rendering:auto;shape-rendering:auto;text-rendering:auto;enable-background:accumulate" id="rect814" d="M2.67 2a.67.67 0 0 0-.47.2L.86 3.53a.67.67 0 0 0-.1.8.67.67 0 0 0-.1.34v2.66a.67.67 0 0 0 .38.6l1 .5.63 4.99a.67.67 0 0 0 .66.58h1.34a.67.67 0 0 0 .33-.1.67.67 0 0 0 .33.1h5.34a.67.67 0 0 0 .33-.09.67.67 0 0 0 .33.09h1.34a.67.67 0 0 0 .66-.58l.62-4.98 1.01-.51a.67.67 0 0 0 .37-.6V4.67a.67.67 0 0 0-.09-.34.67.67 0 0 0-.1-.8L13.8 2.2a.67.67 0 0 0-.47-.2z" transform="matrix(.8 0 0 .8 1.6 1.6)"/>
</g>%n%n
<g transform="translate(138.000000, 8.000000) scale(2.000000 2.000000) "> 

<path fill-rule="nonzero" fill="rgb(24.705882%, 24.705882%, 24.705882%)" fill-opacity="1" d="M 1 3.5 L 1 5.5 L 2 6 L 2.5 10 L 3.5 10 L 4 6 L 8 6 C 8.082031 7.332031 8.5 10 8.5 10 L 9.5 10 L 10 6 L 11 5.5 L 11 3.5 Z M 4.5 6.5 L 4 10 L 8 10 L 7.5 6.5 Z M 4.5 6.5 "/>
<path fill-rule="nonzero" fill="rgb(24.705882%, 24.705882%, 24.705882%)" fill-opacity="1" d="M 2 2 L 10 2 L 11 3 L 1 3 Z M 2 2 "/>

</g>%n%n</svg>