<svg width="300" height="40" viewBox="0 0 300 40" fill="none" xmlns="http://www.w3.org/2000/svg" xmlns:xlink="http://www.w3.org/1999/xlink" version="1.1">

<g transform="translate(130.000000, 0.000000) scale(2.000000 2.000000) "> 

<g clip-path="url(#clip0)">
<path opacity="0.953" d="M9.99934 0C15.514 0 20 4.44646 20 10C20 15.5172 15.514 20 9.99934 20C4.48599 20 0 15.5172 0 10C0 4.44646 4.48599 0 9.99934 0V0Z" fill="#60BE60"/>
<path opacity="0.95" fill-rule="evenodd" clip-rule="evenodd" d="M10 19C14.9706 19 19 14.9706 19 10C19 5.02944 14.9706 1 10 1C5.02944 1 1 5.02944 1 10C1 14.9706 5.02944 19 10 19ZM10 20C15.5228 20 20 15.5228 20 10C20 4.47715 15.5228 0 10 0C4.47715 0 0 4.47715 0 10C0 15.5228 4.47715 20 10 20Z" fill="#398C39"/>
</g>
<defs>
<clipPath id="clip0">
<path d="M0 0H20V20H0V0Z" fill="white"/>
</clipPath>
</defs>

</g>%n%n
<g transform="translate(138.000000, 8.000000) scale(2.000000 2.000000) "> 

<g id="surface1">
<path style=" stroke:none;fill-rule:nonzero;fill:rgb(100%,100%,100%);fill-opacity:1;" d="M 2.191406 8.761719 C 1.890625 8.761719 1.441406 9.019531 1.027344 9.222656 L 1.015625 10.667969 C 1.449219 10.460938 1.914062 10.183594 2.191406 10.183594 C 2.667969 10.183594 3.578125 10.898438 4.082031 10.898438 C 4.53125 10.898438 5.492188 10.183594 5.972656 10.183594 C 6.449219 10.183594 7.410156 10.898438 7.859375 10.898438 C 8.335938 10.898438 9.300781 10.183594 9.75 10.183594 C 10.03125 10.183594 10.515625 10.464844 10.953125 10.671875 L 10.984375 9.230469 C 10.558594 9.015625 10.0625 8.742188 9.75 8.761719 C 9.296875 8.761719 8.367188 9.472656 7.859375 9.472656 C 7.441406 9.472656 6.449219 8.761719 5.972656 8.761719 C 5.496094 8.761719 4.503906 9.472656 4.082031 9.472656 C 3.632812 9.472656 2.695312 8.761719 2.191406 8.761719 Z M 4.398438 3.773438 C 3.824219 3.773438 3.152344 4.488281 3.152344 5.554688 L 3.152344 8.046875 L 3.996094 8.046875 L 3.996094 5.371094 C 3.996094 4.941406 4.425781 4.875 4.59375 4.875 L 4.59375 8.046875 L 7.40625 8.046875 L 7.40625 4.875 C 7.574219 4.875 7.976562 4.945312 8.003906 5.371094 L 8.003906 8.046875 L 8.847656 8.046875 L 8.847656 5.554688 C 8.847656 4.488281 8.175781 3.773438 7.601562 3.773438 Z M 6 0.691406 C 5.3125 0.691406 4.753906 1.246094 4.753906 1.9375 C 4.753906 2.625 5.3125 3.183594 6 3.183594 C 6.6875 3.183594 7.246094 2.625 7.246094 1.9375 C 7.246094 1.246094 6.6875 0.691406 6 0.691406 Z M 6 0.691406 "/>
</g>

</g>%n%n</svg>