<svg width="300" height="40" viewBox="0 0 300 40" fill="none" xmlns="http://www.w3.org/2000/svg" >

<g transform="translate(130.000000, 0.000000) scale(2.000000 2.000000) "> 

<g clip-path="url(#clip0)">
<path opacity="0.953" d="M9.99934 0C15.514 0 20 4.44646 20 10C20 15.5172 15.514 20 9.99934 20C4.48599 20 0 15.5172 0 10C0 4.44646 4.48599 0 9.99934 0V0Z" fill="#878787"/>
<path opacity="0.95" fill-rule="evenodd" clip-rule="evenodd" d="M10 19C14.9706 19 19 14.9706 19 10C19 5.02944 14.9706 1 10 1C5.02944 1 1 5.02944 1 10C1 14.9706 5.02944 19 10 19ZM10 20C15.5228 20 20 15.5228 20 10C20 4.47715 15.5228 0 10 0C4.47715 0 0 4.47715 0 10C0 15.5228 4.47715 20 10 20Z" fill="#404040"/>
</g>
<defs>
<clipPath id="clip0">
<path d="M0 0H20V20H0V0Z" fill="white"/>
</clipPath>
</defs>

</g>


<g transform="translate(138.000000, 8.000000) scale(0.500000 0.500000) "> 

<path fill-rule="evenodd" clip100-rule="evenodd" d="M36.5528 9.10557L40 16V36C40 38.2091 38.2091 40 36 40H12C9.79086 40 8 38.2091 8 36V16L11.4472 9.10557C11.786 8.428 12.4785 8 13.2361 8H34.7639C35.5215 8 36.214 8.428 36.5528 9.10557ZM12.4721 16L14.4721 12H33.5279L35.5279 16H12.4721ZM12 20V36H36V20H12Z" fill="#ffffff"/>
<path opacity="0.7" d="M22 8H26L28 20V32L24 28L20 30V20L22 8Z" fill="#ffffff"/>

</g>

</svg>