<svg width="300" height="40" viewBox="0 0 300 40" fill="none" xmlns="http://www.w3.org/2000/svg" xmlns:xlink="http://www.w3.org/1999/xlink" version="1.1">

<g transform="translate(130.000000, 0.000000) scale(2.000000 2.000000) "> 

<g clip-path="url(#clip0)">
<path opacity="0.953" d="M9.99934 0C15.514 0 20 4.44646 20 10C20 15.5172 15.514 20 9.99934 20C4.48599 20 0 15.5172 0 10C0 4.44646 4.48599 0 9.99934 0V0Z" fill="#878787"/>
<path opacity="0.95" fill-rule="evenodd" clip-rule="evenodd" d="M10 19C14.9706 19 19 14.9706 19 10C19 5.02944 14.9706 1 10 1C5.02944 1 1 5.02944 1 10C1 14.9706 5.02944 19 10 19ZM10 20C15.5228 20 20 15.5228 20 10C20 4.47715 15.5228 0 10 0C4.47715 0 0 4.47715 0 10C0 15.5228 4.47715 20 10 20Z" fill="#404040"/>
</g>
<defs>
<clipPath id="clip0">
<path d="M0 0H20V20H0V0Z" fill="white"/>
</clipPath>
</defs>

</g>%n%n
<g transform="translate(138.000000, 8.000000) scale(2.000000 2.000000) "> 

<g id="surface1">
<path style=" stroke:none;fill-rule:nonzero;fill:rgb(100%,100%,100%);fill-opacity:1;" d="M 9.257812 3.070312 L 2.742188 3.070312 C 2.203125 3.070312 1.765625 3.507812 1.765625 4.046875 L 1.765625 7.953125 C 1.765625 8.492188 2.203125 8.929688 2.742188 8.929688 L 9.257812 8.929688 C 9.796875 8.929688 10.234375 8.492188 10.234375 7.953125 L 10.234375 4.046875 C 10.234375 3.507812 9.796875 3.070312 9.257812 3.070312 Z M 7.457031 5.964844 L 9.542969 8.097656 L 6.996094 6.28125 L 6 6.929688 L 5.003906 6.28125 L 2.457031 8.097656 L 4.542969 5.960938 L 2.019531 3.996094 L 6 6.140625 L 9.976562 3.996094 Z M 7.457031 5.964844 "/>
</g>

</g>%n%n</svg>