<svg width="300" height="40" viewBox="0 0 300 40" fill="none" xmlns="http://www.w3.org/2000/svg" xmlns:xlink="http://www.w3.org/1999/xlink">

<g transform="translate(130.000000, 0.000000) scale(2.000000 2.000000) "> 

<path opacity="0.956" d="M9.9994 1C14.9626 1 19 5.00182 19 10C19 14.9655 14.9626 19 9.9994 19C5.03739 19 1 14.9655 1 10C1 5.00182 5.03739 1 9.9994 1Z" fill="#CF87E1"/>
<path opacity="0.95" fill-rule="evenodd" clip-rule="evenodd" d="M10 19C14.9706 19 19 14.9706 19 10C19 5.02944 14.9706 1 10 1C5.02944 1 1 5.02944 1 10C1 14.9706 5.02944 19 10 19ZM10 20C15.5228 20 20 15.5228 20 10C20 4.47715 15.5228 0 10 0C4.47715 0 0 4.47715 0 10C0 15.5228 4.47715 20 10 20Z" fill="#BA37DD"/>

</g>%n%n
<g transform="translate(138.000000, 8.000000) scale(2.000000 2.000000) "> 

<path fill-rule="nonzero" fill="rgb(100%, 100%, 100%)" fill-opacity="1" d="M 6.890625 10.636719 L 7.800781 4.253906 C 7.824219 4.175781 7.820312 4.09375 7.796875 4.015625 L 6.882812 1.308594 C 6.808594 1.113281 6.632812 0.988281 6.4375 0.988281 L 4.207031 0.988281 C 4.007812 0.988281 3.832031 1.113281 3.757812 1.3125 L 2.863281 4.015625 C 2.835938 4.089844 2.835938 4.160156 2.835938 4.214844 C 2.835938 4.222656 2.839844 4.234375 2.839844 4.246094 L 3.738281 10.640625 C 3.785156 10.859375 3.96875 11.011719 4.1875 11.011719 L 6.4375 11.011719 C 6.65625 11.011719 6.839844 10.859375 6.890625 10.636719 Z M 6.578125 4.210938 L 5.578125 4.210938 L 5.578125 6.605469 L 4.980469 6.605469 L 4.980469 4.210938 L 3.980469 4.210938 L 3.980469 3.609375 L 4.980469 3.609375 L 4.980469 2.210938 L 5.578125 2.210938 L 5.578125 3.609375 L 6.578125 3.609375 Z M 6.578125 4.210938 "/>
<path fill-rule="nonzero" fill="rgb(100%, 100%, 100%)" fill-opacity="1" d="M 9.132812 4.015625 L 8.25 1.308594 C 8.175781 1.113281 8.003906 0.988281 7.804688 0.988281 L 7.074219 0.988281 C 7.121094 1.050781 7.160156 1.117188 7.1875 1.191406 L 7.1875 1.199219 L 7.191406 1.203125 L 8.105469 3.914062 C 8.148438 4.050781 8.152344 4.195312 8.117188 4.332031 L 7.207031 10.707031 C 7.183594 10.820312 7.132812 10.921875 7.070312 11.011719 L 7.804688 11.011719 C 8.023438 11.011719 8.207031 10.859375 8.257812 10.636719 L 9.152344 4.253906 C 9.179688 4.160156 9.148438 4.074219 9.132812 4.015625 Z M 9.132812 4.015625 "/>

</g>%n%n</svg>