<svg width="300" height="35" viewBox="0 0 300 35" fill="none" xmlns="http://www.w3.org/2000/svg">

<g transform="translate(135.000000, 2.000000) scale(1.875000 1.875000) "> 

<path opacity="0.806" d="M2.48348 1.73096C1.91609 1.73309 1.46462 2.26347 1.55284 2.82397L1.55116 2.8223L3.24508 13.8076C3.31396 14.266 3.71724 14.6131 4.18075 14.6127H11.8234C12.287 14.6131 12.6902 14.266 12.7591 13.8076L14.4547 2.8223L14.453 2.82397C14.5415 2.26211 14.0876 1.73098 13.519 1.73096H2.48516C2.4846 1.73096 2.48404 1.73096 2.48349 1.73096H2.48348Z" fill="#EBE7E4"/>

</g>


<g transform="translate(141.000000, 8.000000) scale(0.375000 0.375000) "> 

<g clip100-path="url(#clip1000)">
<path d="M15.0077 0.272402C14.0536 -0.284159 12.829 0.0381135 12.2724 0.992217C11.7159 1.94632 12.0382 3.17096 12.9923 3.72752L34.0307 16H8V20H10L13.6712 42.0272C13.8609 43.1656 14.8459 44 16 44L18 44C16.8954 44 16 44.8954 16 46C16 47.1045 16.8954 48 18 48C19.1046 48 20 47.1045 20 46C20 44.8954 19.1046 44 18 44H30C28.8954 44 28 44.8954 28 46C28 47.1045 28.8954 48 30 48C31.1046 48 32 47.1045 32 46C32 44.8954 31.1046 44 30 44L32 44C33.1541 44 34.1391 43.1656 34.3288 42.0272L38 20H40V16.0379C40.0127 15.3373 39.6561 14.6506 39.0077 14.2724L15.0077 0.272402Z" fill="#555555"/>
</g>
<defs>
<clip100Path id="clip1000">
<path d="M0 0H48V48H0V0Z" fill="#555555"/>
</clip100Path>
</defs>

</g>

</svg>