<svg width="300" height="40" viewBox="0 0 300 40" fill="none" xmlns="http://www.w3.org/2000/svg" xmlns:xlink="http://www.w3.org/1999/xlink">

<g transform="translate(130.000000, 0.000000) scale(2.500000 2.500000) "> 

<path fill-rule="evenodd" clip-rule="evenodd" d="M6.80876 5L4.74419 3.79567C4.02862 3.37825 3.78691 2.45977 4.20433 1.74419C4.62175 1.02862 5.54023 0.786911 6.25581 1.20433L12.2558 4.70433C12.7396 4.98655 13.0054 5.49747 13 6.01606V7C13 7.42608 12.7335 7.78992 12.3581 7.93396L11.5686 12.6712C11.502 13.0707 11.2901 13.4146 10.9924 13.6524C10.916 14.4092 10.277 15 9.5 15C8.84689 15 8.29127 14.5826 8.08535 14H7.91465C7.70873 14.5826 7.15311 15 6.5 15C5.72301 15 5.084 14.4092 5.00764 13.6524C4.70994 13.4146 4.49799 13.0707 4.43141 12.6712L3.64187 7.93396C3.26648 7.78992 3 7.42608 3 7V6C3 5.44771 3.44772 5 4 5H6.80876Z" fill="#EBE7E4" fill-opacity="0.8"/>

</g>%n%n
<g transform="translate(138.000000, 8.000000) scale(0.750000 0.750000) "> 

<path fill-rule="nonzero" fill="rgb(33.333333%, 33.333333%, 33.333333%)" fill-opacity="1" d="M 10.003906 0.179688 C 9.367188 -0.1875 8.550781 0.0273438 8.179688 0.660156 C 7.8125 1.296875 8.027344 2.113281 8.660156 2.484375 L 22.6875 10.667969 L 5.332031 10.667969 L 5.332031 13.332031 L 6.667969 13.332031 L 9.113281 28.019531 C 9.242188 28.777344 9.898438 29.332031 10.667969 29.332031 L 12 29.332031 C 11.261719 29.332031 10.667969 29.929688 10.667969 30.667969 C 10.667969 31.402344 11.261719 32 12 32 C 12.738281 32 13.332031 31.402344 13.332031 30.667969 C 13.332031 29.929688 12.738281 29.332031 12 29.332031 L 20 29.332031 C 19.261719 29.332031 18.667969 29.929688 18.667969 30.667969 C 18.667969 31.402344 19.261719 32 20 32 C 20.738281 32 21.332031 31.402344 21.332031 30.667969 C 21.332031 29.929688 20.738281 29.332031 20 29.332031 L 21.332031 29.332031 C 22.101562 29.332031 22.757812 28.777344 22.886719 28.019531 L 25.332031 13.332031 L 26.667969 13.332031 L 26.667969 10.691406 C 26.675781 10.226562 26.4375 9.765625 26.003906 9.515625 Z M 10.003906 0.179688 "/>

</g>%n%n</svg>