<svg width="40" height="40" viewBox="0 0 40 40" fill="none" xmlns="http://www.w3.org/2000/svg" >

<g transform="translate(0.000000, 0.000000) scale(2.000000 2.000000) "> 

<g clip-path="url(#clip0)">
<path opacity="0.953" d="M9.99934 0C15.514 0 20 4.44646 20 10C20 15.5172 15.514 20 9.99934 20C4.48599 20 0 15.5172 0 10C0 4.44646 4.48599 0 9.99934 0V0Z" fill="#878787"/>
<path opacity="0.95" fill-rule="evenodd" clip-rule="evenodd" d="M10 19C14.9706 19 19 14.9706 19 10C19 5.02944 14.9706 1 10 1C5.02944 1 1 5.02944 1 10C1 14.9706 5.02944 19 10 19ZM10 20C15.5228 20 20 15.5228 20 10C20 4.47715 15.5228 0 10 0C4.47715 0 0 4.47715 0 10C0 15.5228 4.47715 20 10 20Z" fill="#404040"/>
</g>
<defs>
<clipPath id="clip0">
<path d="M0 0H20V20H0V0Z" fill="white"/>
</clipPath>
</defs>

</g>


<g transform="translate(8.000000, 8.000000) scale(2.000000 2.000000) "> 

<path d="M345.046 161.559C375.447 161.559 400.093 136.914 400.093 106.512C400.093 76.1112 375.447 51.4662 345.046 51.4662C314.645 51.4662 290 76.1112 290 106.512C290 136.914 314.645 161.559 345.046 161.559Z" fill="#ffffff"/>
<path d="M335.872 326.698L372.569 266.147L400.093 326.698H521.194L455.139 181.742C445.964 163.394 425.781 156.054 407.432 163.394L374.404 179.907C367.065 183.577 361.56 189.082 357.89 196.421L278.991 326.698H335.872Z" fill="#ffffff"/>
<path d="M143.21 455.139C173.611 455.139 198.256 430.494 198.256 400.093C198.256 369.691 173.611 345.046 143.21 345.046C112.809 345.046 88.1636 369.691 88.1636 400.093C88.1636 430.494 112.809 455.139 143.21 455.139Z" fill="#ffffff"/>
<path d="M436.79 455.139H216.605V400.093C216.605 368.9 240.458 345.046 271.651 345.046H436.79V455.139Z" fill="#ffffff"/>
<path d="M302.844 423.946L264.312 385.414L176.238 473.488H78.9895C64.3104 473.488 51.4663 486.332 51.4663 501.011C51.4663 515.69 64.3104 528.534 78.9895 528.534H183.577C192.752 528.534 201.926 524.864 209.266 517.525L302.844 423.946Z" fill="#ffffff"/>
<path d="M528.534 473.488H436.79V363.395H528.534" stroke="#ffffff" stroke-width="36.6975" stroke-miterlimit="10"/>

</g>

</svg>