<svg width="300" height="40" viewBox="0 0 300 40" fill="none" xmlns="http://www.w3.org/2000/svg" xmlns:xlink="http://www.w3.org/1999/xlink" version="1.1">

<g transform="translate(130.000000, 0.000000) scale(2.500000 2.500000) "> 

<path d="M0 0V14.0345C0 14.9926 0.984403 16 1.98949 16H13.9983C15.0809 16 16 15.0413 16 13.9865V0H0Z" fill="#F1EAE4" fill-opacity="0.7"/>

</g>%n%n
<g transform="translate(138.000000, 8.000000) scale(2.000000 2.000000) "> 

<g id="surface1">
<path style=" stroke:none;fill-rule:nonzero;fill:rgb(24.705882%,24.705882%,24.705882%);fill-opacity:1;" d="M 4.5 6.5 C 4.5 6.132812 4.777344 6.082031 5.09375 6.023438 C 5.511719 5.945312 6 5.855469 6 5 C 6.5 5 7.5 6 7.5 6.5 C 7.5 6.777344 7.277344 7 7 7 L 7.5 7 C 7.777344 7 8 7.222656 8 7.5 C 8 7.777344 7.777344 8 7.5 8 L 8 8 C 8.277344 8 8.5 8.222656 8.5 8.5 C 8.5 8.777344 8.277344 9 8 9 L 4 9 C 3.722656 9 3.5 8.777344 3.5 8.5 C 3.5 8.222656 3.722656 8 4 8 L 4.5 8 C 4.222656 8 4 7.777344 4 7.5 C 4 7.222656 4.222656 7 4.5 7 L 5 7 C 4.722656 7 4.5 6.777344 4.5 6.5 Z M 4.5 6.5 "/>
<path style=" stroke:none;fill-rule:evenodd;fill:rgb(24.705882%,24.705882%,24.705882%);fill-opacity:1;" d="M 1 1 L 11 1 L 11 10 C 11 10.550781 10.550781 11 10 11 L 2 11 C 1.449219 11 1 10.550781 1 10 Z M 2 2 L 10 2 L 10 3 L 2 3 Z M 2 4 L 2 10 L 10 10 L 10 4 L 4 4 L 4 5 L 3 5 L 3 4 Z M 2 4 "/>
</g>

</g>%n%n</svg>