<svg width="300" height="40" viewBox="0 0 300 40" fill="none" xmlns="http://www.w3.org/2000/svg" xmlns:xlink="http://www.w3.org/1999/xlink">

<g transform="translate(130.000000, 0.000000) scale(2.500000 2.500000) "> 

<path d="M0 0V14.0345C0 14.9926 0.984403 16 1.98949 16H13.9983C15.0809 16 16 15.0413 16 13.9865V0H0Z" fill="#F1EAE4" fill-opacity="0.7"/>

</g>%n%n
<g transform="translate(138.000000, 8.000000) scale(0.750000 0.750000) "> 

<path fill-rule="nonzero" fill="rgb(24.705882%, 24.705882%, 24.705882%)" fill-opacity="1" d="M 12 17.332031 C 12 16.355469 12.738281 16.21875 13.582031 16.0625 C 14.699219 15.855469 16 15.613281 16 13.332031 C 17.332031 13.332031 20 16 20 17.332031 C 20 18.070312 19.402344 18.667969 18.667969 18.667969 L 20 18.667969 C 20.738281 18.667969 21.332031 19.261719 21.332031 20 C 21.332031 20.738281 20.738281 21.332031 20 21.332031 L 21.332031 21.332031 C 22.070312 21.332031 22.667969 21.929688 22.667969 22.667969 C 22.667969 23.402344 22.070312 24 21.332031 24 L 10.667969 24 C 9.929688 24 9.332031 23.402344 9.332031 22.667969 C 9.332031 21.929688 9.929688 21.332031 10.667969 21.332031 L 12 21.332031 C 11.261719 21.332031 10.667969 20.738281 10.667969 20 C 10.667969 19.261719 11.261719 18.667969 12 18.667969 L 13.332031 18.667969 C 12.597656 18.667969 12 18.070312 12 17.332031 Z M 12 17.332031 "/>
<path fill-rule="evenodd" fill="rgb(24.705882%, 24.705882%, 24.705882%)" fill-opacity="1" d="M 2.667969 2.667969 L 29.332031 2.667969 L 29.332031 26.667969 C 29.332031 28.140625 28.140625 29.332031 26.667969 29.332031 L 5.332031 29.332031 C 3.859375 29.332031 2.667969 28.140625 2.667969 26.667969 Z M 5.332031 5.332031 L 26.667969 5.332031 L 26.667969 8 L 5.332031 8 Z M 5.332031 10.667969 L 5.332031 26.667969 L 26.667969 26.667969 L 26.667969 10.667969 L 10.667969 10.667969 L 10.667969 13.332031 L 8 13.332031 L 8 10.667969 Z M 5.332031 10.667969 "/>

</g>%n%n</svg>