<svg width="300" height="35" viewBox="0 0 300 35" fill="none" xmlns="http://www.w3.org/2000/svg">

<g transform="translate(135.000000, 2.000000) scale(1.500000 1.500000) "> 

<g clip-path="url(#clip0)">
<path opacity="0.953" d="M9.99934 0C15.514 0 20 4.44646 20 10C20 15.5172 15.514 20 9.99934 20C4.48599 20 0 15.5172 0 10C0 4.44646 4.48599 0 9.99934 0V0Z" fill="#505050"/>
<path opacity="0.95" fill-rule="evenodd" clip-rule="evenodd" d="M10 19C14.9706 19 19 14.9706 19 10C19 5.02944 14.9706 1 10 1C5.02944 1 1 5.02944 1 10C1 14.9706 5.02944 19 10 19ZM10 20C15.5228 20 20 15.5228 20 10C20 4.47715 15.5228 0 10 0C4.47715 0 0 4.47715 0 10C0 15.5228 4.47715 20 10 20Z" fill="#909090"/>
</g>
<defs>
<clipPath id="clip0">
<path d="M0 0H20V20H0V0Z" fill="white"/>
</clipPath>
</defs>

</g>


<g transform="translate(141.000000, 8.000000) scale(0.031034 0.031034) "> 

<g clip100-path="url(#clip1000)">
<path d="M443.095 54.8771C420.086 42.3845 317.745 23.7479 187.957 205.075C51.2382 396.089 105.237 493.973 127.115 508.577L215.842 381.316C198.083 368.935 207.992 347.107 231.75 304.383C247.472 276.114 269.472 242.891 295.585 212.826C313.909 191.732 333.661 172.443 352.259 185.409L443.095 54.8771Z" fill="#ffffff"/>
<path d="M172.742 540.722C180.968 546.457 191.54 543.868 196.777 536.358L196.877 536.34C196.877 536.34 265.972 437.111 266.014 437.051C271.499 429.183 269.447 418.534 261.698 413.132L225.649 387.998L136.692 515.588C136.692 515.588 172.616 540.716 172.666 540.707L172.742 540.722Z" fill="#ffffff"/>
<path d="M398.157 217.409C406.383 223.144 416.955 220.556 422.191 213.045L422.292 213.027C422.292 213.027 493.381 110.938 493.423 110.878C498.909 103.009 496.857 92.3605 489.108 86.9578L453.058 61.8237L362.107 192.275C362.107 192.275 398.031 217.403 398.081 217.395L398.157 217.409Z" fill="#ffffff"/>
</g>
<defs>
<clip100Path id="clip1000">
<path d="M0 0H580V580H0V0Z" fill="#ffffff"/>
</clip100Path>
</defs>

</g>

</svg>