<svg width="300" height="40" viewBox="0 0 300 40" fill="none" xmlns="http://www.w3.org/2000/svg" xmlns:xlink="http://www.w3.org/1999/xlink">

<g transform="translate(130.000000, 0.000000) scale(2.000000 2.000000) "> 

<g clip-path="url(#clip0)">
<path opacity="0.953" d="M9.99934 0C15.514 0 20 4.44646 20 10C20 15.5172 15.514 20 9.99934 20C4.48599 20 0 15.5172 0 10C0 4.44646 4.48599 0 9.99934 0V0Z" fill="#878787"/>
<path opacity="0.95" fill-rule="evenodd" clip-rule="evenodd" d="M10 19C14.9706 19 19 14.9706 19 10C19 5.02944 14.9706 1 10 1C5.02944 1 1 5.02944 1 10C1 14.9706 5.02944 19 10 19ZM10 20C15.5228 20 20 15.5228 20 10C20 4.47715 15.5228 0 10 0C4.47715 0 0 4.47715 0 10C0 15.5228 4.47715 20 10 20Z" fill="#404040"/>
</g>
<defs>
<clipPath id="clip0">
<path d="M0 0H20V20H0V0Z" fill="white"/>
</clipPath>
</defs>

</g>%n%n
<g transform="translate(138.000000, 8.000000) scale(0.750000 0.750000) "> 

<defs>
<filter id="filter-remove-color" x="0%" y="0%" width="100%" height="100%">
<feColorMatrix color-interpolation-filters="sRGB" values="0 0 0 0 1 0 0 0 0 1 0 0 0 0 1 0 0 0 1 0" />
</filter>
<mask id="mask-0">
<g filter="url(#filter-remove-color)">
<rect x="-3.2" y="-3.2" width="38.4" height="38.4" fill="rgb(0%, 0%, 0%)" fill-opacity="0.7"/>
</g>
</mask>
<clip100Path id="clip100-0">
<rect x="0" y="0" width="32" height="32"/>
</clip100Path>
<g id="source-7" clip100-path="url(#clip100-0)">
<path fill-rule="nonzero" fill="rgb(100%, 100%, 100%)" fill-opacity="1" d="M 14.667969 5.332031 L 17.332031 5.332031 L 18.667969 13.332031 L 18.667969 21.332031 L 16 18.667969 L 13.332031 20 L 13.332031 13.332031 Z M 14.667969 5.332031 "/>
</g>
</defs>
<path fill-rule="evenodd" fill="rgb(100%, 100%, 100%)" fill-opacity="1" d="M 24.367188 6.070312 L 26.667969 10.667969 L 26.667969 24 C 26.667969 25.472656 25.472656 26.667969 24 26.667969 L 8 26.667969 C 6.527344 26.667969 5.332031 25.472656 5.332031 24 L 5.332031 10.667969 L 7.632812 6.070312 C 7.855469 5.617188 8.320312 5.332031 8.824219 5.332031 L 23.175781 5.332031 C 23.679688 5.332031 24.144531 5.617188 24.367188 6.070312 Z M 8.316406 10.667969 L 9.648438 8 L 22.351562 8 L 23.683594 10.667969 Z M 8 13.332031 L 8 24 L 24 24 L 24 13.332031 Z M 8 13.332031 "/>
<g mask="url(#mask-0)">
<use xlink:href="#source-7"/>
</g>

</g>%n%n</svg>