<svg width="300" height="40" viewBox="0 0 300 40" fill="none" xmlns="http://www.w3.org/2000/svg" >

<g transform="translate(130.000000, 0.000000) scale(2.500000 2.500000) "> 

<path d="M0 0V14.0345C0 14.9926 0.984403 16 1.98949 16H13.9983C15.0809 16 16 15.0413 16 13.9865V0H0Z" fill="#F1EAE4" fill-opacity="0.7"/>

</g>%n%n
<g transform="translate(138.000000, 8.000000) scale(0.500000 0.500000) "> 

<path d="M18 26C18 24.5324 19.1092 24.3268 20.3737 24.0924C22.0503 23.7817 24 23.4203 24 20C26 20 30 24 30 26C30 27.1046 29.1046 28 28 28H30C31.1046 28 32 28.8954 32 30C32 31.1046 31.1046 32 30 32H32C33.1046 32 34 32.8954 34 34C34 35.1046 33.1046 36 32 36H16C14.8954 36 14 35.1046 14 34C14 32.8954 14.8954 32 16 32H18C16.8954 32 16 31.1046 16 30C16 28.8954 16.8954 28 18 28H20C18.8954 28 18 27.1046 18 26Z" fill="#3f3f3f"/>
<path fill-rule="evenodd" clip100-rule="evenodd" d="M4 4H44V40C44 42.2091 42.2091 44 40 44H8C5.79086 44 4 42.2091 4 40V4ZM8 8H40V12H8V8ZM8 16V40H40V16H16V20H12V16H8Z" fill="#3f3f3f"/>

</g>%n%n</svg>