<svg width="300" height="40" viewBox="0 0 300 40" fill="none" xmlns="http://www.w3.org/2000/svg" xmlns:xlink="http://www.w3.org/1999/xlink" version="1.1">

<g transform="translate(130.000000, 0.000000) scale(2.500000 2.500000) "> 

<path opacity="0.804" d="M7.48074 1.49567C7.37821 1.49583 7.27689 1.51769 7.18342 1.55981C7.08995 1.60193 7.00645 1.66335 6.93842 1.74005C6.79601 1.70043 6.65712 1.62958 6.51661 1.62957C5.98779 1.62959 5.40704 1.94981 5.1357 2.42464L3.66441 4.96551C3.56829 5.13186 3.54197 5.32952 3.59122 5.51522C3.64047 5.70093 3.76127 5.85956 3.9272 5.95642C4.0587 6.03338 4.26411 6.15096 4.40926 6.23595H1.80311C1.64314 6.2359 1.48763 6.28866 1.36071 6.38602C1.23379 6.48339 1.14255 6.61993 1.10116 6.77445C1.05976 6.92897 1.07052 7.09283 1.13177 7.24061C1.19302 7.38838 1.30132 7.51182 1.43989 7.59175L2.01234 7.92317L1.63071 8.57763C1.62727 8.58372 1.62392 8.58986 1.62066 8.59605C1.53598 8.75122 1.42482 8.99857 1.42483 9.29236C1.42482 9.58615 1.5135 9.81908 1.62066 10.0155C1.62339 10.0205 1.62618 10.0255 1.62903 10.0305L2.80741 12.0659C2.86283 12.1613 2.93926 12.2429 3.03091 12.3044C3.12256 12.3659 3.22701 12.4057 3.33634 12.4207C3.41781 12.6878 3.46452 12.9784 3.65437 13.1623C3.95299 13.4515 4.38892 13.6075 4.77583 13.6075H7.69499C7.88765 13.6075 8.07241 13.5309 8.20864 13.3947C8.34487 13.2585 8.42141 13.0737 8.42143 12.881V12.3973L9.68852 14.6084C9.768 14.7477 9.89134 14.8568 10.0393 14.9186C10.1872 14.9805 10.3515 14.9916 10.5065 14.9504C10.6614 14.9091 10.7984 14.8177 10.896 14.6905C10.9936 14.5632 11.0463 14.4073 11.046 14.2469V13.5807H11.7925C12.2566 13.5807 12.7981 13.3077 13.0563 12.8827C13.0608 12.8755 13.0653 12.8683 13.0697 12.861L14.2212 10.7988C14.2693 10.713 14.2994 10.6183 14.3098 10.5204C14.3201 10.4226 14.3105 10.3237 14.2815 10.2297C14.3882 10.1265 14.5214 10.0452 14.5928 9.92004C14.5945 9.91783 14.5962 9.9156 14.5979 9.91336C14.8627 9.43601 14.8212 8.79266 14.5661 8.34498V8.34331L13.1199 5.80077C13.0722 5.71653 13.0082 5.64267 12.9316 5.58353C12.855 5.52438 12.7673 5.48114 12.6737 5.45635C12.5802 5.43155 12.4826 5.4257 12.3868 5.43914C12.2909 5.45258 12.1987 5.48504 12.1156 5.53461C12.1113 5.53715 11.7893 5.72261 11.739 5.75221L13.0345 3.55448C13.1158 3.41621 13.1491 3.25492 13.1291 3.09577C13.1092 2.93661 13.0371 2.78854 12.9241 2.67464C12.8112 2.56074 12.6637 2.48742 12.5048 2.46612C12.3458 2.44482 12.1842 2.47673 12.0453 2.55687L11.4661 2.89164L11.0862 2.23885C10.8402 1.80412 10.3208 1.49569 9.81071 1.49567H7.48074ZM7.37361 6.1556C7.44095 6.24889 7.52948 6.32485 7.63191 6.37723C7.73434 6.42961 7.84775 6.45691 7.9628 6.45689H10.5221C10.3002 6.58479 10.3695 6.54733 10.0919 6.70629C10.0088 6.75398 9.93595 6.81763 9.87754 6.89359C9.81913 6.96955 9.77633 7.05631 9.75159 7.14888C9.72686 7.24144 9.72068 7.33799 9.73341 7.43296C9.74614 7.52792 9.77753 7.61944 9.82577 7.70222C9.99886 8.00088 10.0834 8.14443 10.2375 8.41025C10.1246 8.423 10.0163 8.46205 9.92127 8.52426C9.82621 8.58647 9.74706 8.67011 9.69019 8.76845L8.42143 10.9595V10.5243C8.42141 10.3316 8.34487 10.1469 8.20864 10.0106C8.07241 9.87441 7.88765 9.79787 7.69499 9.79785H6.8882C6.93378 9.69351 6.95419 9.57992 6.9478 9.46623C6.9414 9.35255 6.90837 9.24196 6.85138 9.14339L5.55081 6.89711C5.70604 6.9861 5.80485 7.04587 5.97094 7.13981C6.13724 7.23408 6.33399 7.259 6.51853 7.20918C6.70308 7.15936 6.86056 7.03882 6.95683 6.87368C7.08373 6.65647 7.23925 6.38581 7.37361 6.1556Z" fill="#EBE7E4"/>

</g>%n%n
<g transform="translate(138.000000, 8.000000) scale(2.000000 2.000000) "> 

<g id="surface1">
<path style=" stroke:none;fill-rule:nonzero;fill:rgb(33.333334%,33.333334%,33.333334%);fill-opacity:1;" d="M 4.453125 7.308594 L 3.167969 5.066406 L 0.578125 5.066406 L 1.628906 5.675781 L 0.980469 6.796875 C 0.925781 6.898438 0.894531 7.003906 0.894531 7.117188 C 0.894531 7.226562 0.925781 7.332031 0.980469 7.433594 L 2.003906 9.21875 C 2.050781 9.089844 2.097656 8.980469 2.140625 8.886719 L 3.417969 6.699219 Z M 2.53125 9.109375 C 2.457031 9.230469 2.417969 9.359375 2.417969 9.496094 C 2.417969 9.710938 2.496094 9.890625 2.648438 10.035156 C 2.800781 10.183594 2.980469 10.257812 3.195312 10.257812 L 5.742188 10.257812 L 5.742188 8.195312 L 3.054688 8.195312 C 3.039062 8.230469 2.96875 8.351562 2.847656 8.554688 Z M 5.976562 4 L 8.554688 4 L 9.855469 1.757812 L 8.800781 2.367188 L 8.152344 1.246094 C 8.03125 1.03125 7.847656 0.925781 7.597656 0.925781 L 5.546875 0.925781 C 5.632812 1.019531 5.699219 1.109375 5.757812 1.203125 L 7.015625 3.390625 L 6.808594 3.515625 Z M 4.71875 1.039062 C 4.421875 1.039062 4.199219 1.167969 4.054688 1.425781 L 2.765625 3.640625 C 3.253906 3.925781 3.851562 4.269531 4.550781 4.664062 C 4.96875 3.953125 5.414062 3.179688 5.894531 2.339844 L 5.382812 1.425781 C 5.234375 1.167969 5.011719 1.039062 4.71875 1.039062 Z M 8.027344 8.167969 L 8.027344 6.964844 L 6.738281 9.207031 L 8.027344 11.433594 L 8.027344 10.230469 L 9.3125 10.230469 C 9.5625 10.230469 9.753906 10.125 9.882812 9.910156 L 10.90625 8.125 C 10.769531 8.164062 10.652344 8.179688 10.558594 8.179688 Z M 9.9375 4.375 C 9.890625 4.402344 9.296875 4.742188 8.152344 5.398438 C 8.722656 6.386719 9.175781 7.167969 9.507812 7.738281 L 10.546875 7.738281 C 10.851562 7.738281 11.078125 7.609375 11.226562 7.351562 C 11.363281 7.101562 11.359375 6.847656 11.210938 6.589844 Z M 9.9375 4.375 "/>
</g>

</g>%n%n</svg>