<svg width="300" height="40" viewBox="0 0 300 40" fill="none" xmlns="http://www.w3.org/2000/svg" >

<g transform="translate(130.000000, 0.000000) scale(2.500000 2.500000) "> 

<path fill-rule="evenodd" clip-rule="evenodd" d="M6.80876 5L4.74419 3.79567C4.02862 3.37825 3.78691 2.45977 4.20433 1.74419C4.62175 1.02862 5.54023 0.786911 6.25581 1.20433L12.2558 4.70433C12.7396 4.98655 13.0054 5.49747 13 6.01606V7C13 7.42608 12.7335 7.78992 12.3581 7.93396L11.5686 12.6712C11.502 13.0707 11.2901 13.4146 10.9924 13.6524C10.916 14.4092 10.277 15 9.5 15C8.84689 15 8.29127 14.5826 8.08535 14H7.91465C7.70873 14.5826 7.15311 15 6.5 15C5.72301 15 5.084 14.4092 5.00764 13.6524C4.70994 13.4146 4.49799 13.0707 4.43141 12.6712L3.64187 7.93396C3.26648 7.78992 3 7.42608 3 7V6C3 5.44771 3.44772 5 4 5H6.80876Z" fill="#EBE7E4" fill-opacity="0.8"/>

</g>%n%n
<g transform="translate(138.000000, 8.000000) scale(0.500000 0.500000) "> 

<g clip100-path="url(#clip1000)">
<path d="M15.0077 0.272402C14.0536 -0.284159 12.829 0.0381135 12.2724 0.992217C11.7159 1.94632 12.0382 3.17096 12.9923 3.72752L34.0307 16H8V20H10L13.6712 42.0272C13.8609 43.1656 14.8459 44 16 44L18 44C16.8954 44 16 44.8954 16 46C16 47.1045 16.8954 48 18 48C19.1046 48 20 47.1045 20 46C20 44.8954 19.1046 44 18 44H30C28.8954 44 28 44.8954 28 46C28 47.1045 28.8954 48 30 48C31.1046 48 32 47.1045 32 46C32 44.8954 31.1046 44 30 44L32 44C33.1541 44 34.1391 43.1656 34.3288 42.0272L38 20H40V16.0379C40.0127 15.3373 39.6561 14.6506 39.0077 14.2724L15.0077 0.272402Z" fill="#555555"/>
</g>
<defs>
<clip100Path id="clip1000">
<path d="M0 0H48V48H0V0Z" fill="#555555"/>
</clip100Path>
</defs>

</g>%n%n</svg>