<svg width="300" height="40" viewBox="0 0 300 40" fill="none" xmlns="http://www.w3.org/2000/svg" xmlns:xlink="http://www.w3.org/1999/xlink">

<g transform="translate(130.000000, 0.000000) scale(2.000000 2.000000) "> 

<g clip-path="url(#clip0)">
<path opacity="0.949" d="M9.9994 1C14.9626 1 19 5.00181 19 10C19 14.9655 14.9626 19 9.9994 19C5.0374 19 1 14.9655 1 10C1 5.00181 5.0374 1 9.9994 1Z" fill="#45ABE9"/>
<path opacity="0.95" fill-rule="evenodd" clip-rule="evenodd" d="M10 19C14.9706 19 19 14.9706 19 10C19 5.02944 14.9706 1 10 1C5.02944 1 1 5.02944 1 10C1 14.9706 5.02944 19 10 19ZM10 20C15.5228 20 20 15.5228 20 10C20 4.47715 15.5228 0 10 0C4.47715 0 0 4.47715 0 10C0 15.5228 4.47715 20 10 20Z" fill="#1578B3"/>
</g>
<defs>
<clipPath id="clip0">
<path d="M0 0H20V20H0V0Z" fill="white"/>
</clipPath>
</defs>

</g>%n%n
<g transform="translate(138.000000, 8.000000) scale(0.750000 0.750000) "> 

<path fill-rule="evenodd" fill="rgb(100%, 100%, 100%)" fill-opacity="1" d="M 5.332031 0 C 3.859375 0 2.667969 1.195312 2.667969 2.667969 L 2.667969 8 C 2.667969 9.472656 3.859375 10.667969 5.332031 10.667969 L 12 10.667969 C 12.738281 10.667969 13.332031 10.070312 13.332031 9.332031 L 13.332031 8 L 27.449219 8 C 27.800781 8 28.140625 7.859375 28.390625 7.609375 L 29.332031 6.667969 L 18.667969 6.667969 L 18.667969 5.332031 L 29.332031 5.332031 L 28.367188 3.402344 C 28.144531 2.953125 27.679688 2.667969 27.175781 2.667969 L 13.332031 2.667969 L 13.332031 1.332031 C 13.332031 0.597656 12.738281 0 12 0 Z M 8 2.667969 L 5.332031 2.667969 L 5.332031 8 L 8 8 Z M 8 2.667969 "/>
<path fill-rule="evenodd" fill="rgb(100%, 100%, 100%)" fill-opacity="1" d="M 22.113281 12.78125 C 21.613281 12.28125 20.9375 12 20.230469 12 L 11.769531 12 C 11.0625 12 10.386719 12.28125 9.886719 12.78125 L 9.855469 12.8125 C 9.515625 13.152344 9.269531 13.582031 9.152344 14.050781 L 8 18.667969 L 6.667969 18.667969 C 5.929688 18.667969 5.332031 19.261719 5.332031 20 C 5.332031 20.738281 5.929688 21.332031 6.667969 21.332031 L 8 21.332031 L 8 28 C 8 28.738281 8.597656 29.332031 9.332031 29.332031 C 10.070312 29.332031 10.667969 28.738281 10.667969 28 L 10.667969 26.667969 L 21.332031 26.667969 L 21.332031 28 C 21.332031 28.738281 21.929688 29.332031 22.667969 29.332031 C 23.402344 29.332031 24 28.738281 24 28 L 24 21.332031 L 25.332031 21.332031 C 26.070312 21.332031 26.667969 20.738281 26.667969 20 C 26.667969 19.261719 26.070312 18.667969 25.332031 18.667969 L 24 18.667969 L 22.847656 14.050781 C 22.730469 13.582031 22.484375 13.152344 22.144531 12.8125 Z M 20.257812 14.695312 L 20.230469 14.667969 L 11.769531 14.667969 L 11.742188 14.695312 L 10.679688 18.941406 C 11.929688 19.039062 13.703125 19.125 16 19.125 C 18.296875 19.125 20.070312 19.039062 21.320312 18.941406 Z M 12 21.332031 C 11.261719 21.332031 10.667969 21.929688 10.667969 22.667969 C 10.667969 23.402344 11.261719 24 12 24 C 12.738281 24 13.332031 23.402344 13.332031 22.667969 C 13.332031 21.929688 12.738281 21.332031 12 21.332031 Z M 20 21.332031 C 19.261719 21.332031 18.667969 21.929688 18.667969 22.667969 C 18.667969 23.402344 19.261719 24 20 24 C 20.738281 24 21.332031 23.402344 21.332031 22.667969 C 21.332031 21.929688 20.738281 21.332031 20 21.332031 Z M 20 21.332031 "/>

</g>%n%n</svg>