<svg width="300" height="40" viewBox="0 0 300 40" fill="none" xmlns="http://www.w3.org/2000/svg" xmlns:xlink="http://www.w3.org/1999/xlink">

<g transform="translate(130.000000, 0.000000) scale(2.000000 2.000000) "> 

<path opacity="0.956" d="M9.9994 1C14.9626 1 19 5.00182 19 10C19 14.9655 14.9626 19 9.9994 19C5.03739 19 1 14.9655 1 10C1 5.00182 5.03739 1 9.9994 1Z" fill="#CF87E1"/>
<path opacity="0.95" fill-rule="evenodd" clip-rule="evenodd" d="M10 19C14.9706 19 19 14.9706 19 10C19 5.02944 14.9706 1 10 1C5.02944 1 1 5.02944 1 10C1 14.9706 5.02944 19 10 19ZM10 20C15.5228 20 20 15.5228 20 10C20 4.47715 15.5228 0 10 0C4.47715 0 0 4.47715 0 10C0 15.5228 4.47715 20 10 20Z" fill="#BA37DD"/>

</g>%n%n
<g transform="translate(138.000000, 8.000000) scale(0.750000 0.750000) "> 

<path fill-rule="nonzero" fill="rgb(100%, 100%, 100%)" fill-opacity="1" d="M 18.371094 28.363281 L 20.796875 11.34375 C 20.863281 11.132812 20.859375 10.921875 20.789062 10.707031 L 18.351562 3.484375 C 18.160156 2.972656 17.691406 2.640625 17.164062 2.640625 L 11.214844 2.640625 C 10.6875 2.640625 10.21875 2.972656 10.019531 3.5 L 7.632812 10.707031 C 7.566406 10.90625 7.566406 11.089844 7.566406 11.238281 C 7.566406 11.265625 7.570312 11.292969 7.574219 11.320312 L 9.964844 28.371094 C 10.097656 28.964844 10.582031 29.359375 11.171875 29.359375 L 17.164062 29.359375 C 17.753906 29.359375 18.238281 28.964844 18.371094 28.363281 Z M 17.542969 11.226562 L 14.878906 11.226562 L 14.878906 17.621094 L 13.28125 17.621094 L 13.28125 11.226562 L 10.617188 11.226562 L 10.617188 9.625 L 13.28125 9.625 L 13.28125 5.894531 L 14.878906 5.894531 L 14.878906 9.625 L 17.542969 9.625 Z M 17.542969 11.226562 "/>
<path fill-rule="nonzero" fill="rgb(100%, 100%, 100%)" fill-opacity="1" d="M 24.351562 10.710938 L 22 3.484375 C 21.804688 2.972656 21.339844 2.640625 20.8125 2.640625 L 18.867188 2.640625 C 18.988281 2.800781 19.089844 2.980469 19.164062 3.179688 L 19.167969 3.191406 L 19.175781 3.207031 L 21.613281 10.433594 C 21.734375 10.800781 21.746094 11.183594 21.640625 11.550781 L 19.21875 28.550781 C 19.152344 28.855469 19.023438 29.125 18.855469 29.359375 L 20.8125 29.359375 C 21.398438 29.359375 21.886719 28.964844 22.019531 28.359375 L 24.402344 11.34375 C 24.476562 11.089844 24.402344 10.863281 24.351562 10.710938 Z M 24.351562 10.710938 "/>

</g>%n%n</svg>