<svg width="300" height="35" viewBox="0 0 300 35" fill="none" xmlns="http://www.w3.org/2000/svg">

<g transform="translate(135.000000, 2.000000) scale(1.500000 1.500000) "> 

<g clip-path="url(#clip0)">
<path opacity="0.953" d="M9.99934 0C15.514 0 20 4.44646 20 10C20 15.5172 15.514 20 9.99934 20C4.48599 20 0 15.5172 0 10C0 4.44646 4.48599 0 9.99934 0V0Z" fill="#878787"/>
<path opacity="0.95" fill-rule="evenodd" clip-rule="evenodd" d="M10 19C14.9706 19 19 14.9706 19 10C19 5.02944 14.9706 1 10 1C5.02944 1 1 5.02944 1 10C1 14.9706 5.02944 19 10 19ZM10 20C15.5228 20 20 15.5228 20 10C20 4.47715 15.5228 0 10 0C4.47715 0 0 4.47715 0 10C0 15.5228 4.47715 20 10 20Z" fill="#404040"/>
</g>
<defs>
<clipPath id="clip0">
<path d="M0 0H20V20H0V0Z" fill="white"/>
</clipPath>
</defs>

</g>


<g transform="translate(141.000000, 8.000000) scale(0.031034 0.031034) "> 

<path d="M447.407 148.334H132.594C106.511 148.334 85.3716 169.49 85.3716 195.556V384.444C85.3716 410.51 106.511 431.666 132.594 431.666H447.407C473.473 431.666 494.628 410.51 494.628 384.444V195.556C494.628 169.49 473.473 148.334 447.407 148.334ZM360.345 288.221L461.18 391.464L338.182 303.6L289.984 334.971L241.786 303.584L118.789 391.449L219.655 288.206L97.6965 193.164L289.984 296.863L482.272 193.164L360.345 288.221Z" fill="#ffffff"/>

</g>

</svg>