<svg width="300" height="35" viewBox="0 0 300 35" fill="none" xmlns="http://www.w3.org/2000/svg">

<g transform="translate(135.000000, 2.000000) scale(1.500000 1.500000) "> 

<g clip-path="url(#clip0)">
<path opacity="0.953" d="M9.99934 0C15.514 0 20 4.44646 20 10C20 15.5172 15.514 20 9.99934 20C4.48599 20 0 15.5172 0 10C0 4.44646 4.48599 0 9.99934 0V0Z" fill="#505050"/>
<path opacity="0.95" fill-rule="evenodd" clip-rule="evenodd" d="M10 19C14.9706 19 19 14.9706 19 10C19 5.02944 14.9706 1 10 1C5.02944 1 1 5.02944 1 10C1 14.9706 5.02944 19 10 19ZM10 20C15.5228 20 20 15.5228 20 10C20 4.47715 15.5228 0 10 0C4.47715 0 0 4.47715 0 10C0 15.5228 4.47715 20 10 20Z" fill="#909090"/>
</g>
<defs>
<clipPath id="clip0">
<path d="M0 0H20V20H0V0Z" fill="white"/>
</clipPath>
</defs>

</g>


<g transform="translate(141.000000, 8.000000) scale(0.375000 0.375000) "> 

<g opacity="0.5">
<path d="M20 28V20H24V28H20Z" fill="#ffffff"/>
<path d="M36 28V20H40V28H36Z" fill="#ffffff"/>
<path d="M20 32V44H24V32H20Z" fill="#ffffff"/>
</g>
<path opacity="0.5" d="M4 44V36C4 36 8 34 14 34C20 34 24 36 32 36H44V44H4Z" fill="#ffffff"/>
<path d="M44 20H16V16L24 4H36L44 16V20Z" fill="#ffffff"/>
<path d="M20 32V28H44V44H36V32H20Z" fill="#ffffff"/>

</g>

</svg>