<svg width="300" height="35" viewBox="0 0 300 35" fill="none" xmlns="http://www.w3.org/2000/svg" >

<g transform="translate(135.000000, 2.000000) scale(1.500000 1.500000) "> 

<g clip-path="url(#clip0)">
<path opacity="0.953" d="M9.99934 0C15.514 0 20 4.44646 20 10C20 15.5172 15.514 20 9.99934 20C4.48599 20 0 15.5172 0 10C0 4.44646 4.48599 0 9.99934 0V0Z" fill="#505050"/>
<path opacity="0.95" fill-rule="evenodd" clip-rule="evenodd" d="M10 19C14.9706 19 19 14.9706 19 10C19 5.02944 14.9706 1 10 1C5.02944 1 1 5.02944 1 10C1 14.9706 5.02944 19 10 19ZM10 20C15.5228 20 20 15.5228 20 10C20 4.47715 15.5228 0 10 0C4.47715 0 0 4.47715 0 10C0 15.5228 4.47715 20 10 20Z" fill="#909090"/>
</g>
<defs>
<clipPath id="clip0">
<path d="M0 0H20V20H0V0Z" fill="white"/>
</clipPath>
</defs>

</g>


<g transform="translate(141.000000, 8.000000) scale(0.031034 0.031034) "> 

<path d="M474.736 118.567C498.191 118.567 517.205 137.644 517.205 161.179C517.205 184.714 498.191 203.792 474.736 203.792C451.281 203.792 432.269 184.714 432.269 161.179C432.269 137.644 451.281 118.567 474.736 118.567Z" fill="#ffffff"/>
<path d="M522.707 368.037L441.495 365.365V473.111" stroke="#ffffff" stroke-width="45" stroke-linecap="round" stroke-linejoin="round"/>
<path d="M493.381 237.14C493.381 237.14 519.078 271.674 521.269 360.816" stroke="#ffffff" stroke-width="55" stroke-linecap="round" stroke-linejoin="round"/>
<path d="M492.116 232.134L455.782 295.019L392.617 294.129" stroke="#ffffff" stroke-width="45" stroke-linecap="round" stroke-linejoin="round"/>
<path d="M392.395 353.554H334.02L316.701 292.717" stroke="#ffffff" stroke-width="35" stroke-linecap="round" stroke-linejoin="round"/>
<path d="M108.176 118.567C84.7213 118.567 65.7068 137.644 65.7068 161.179C65.7068 184.714 84.7213 203.792 108.176 203.792C131.631 203.792 150.644 184.714 150.644 161.179C150.644 137.644 131.631 118.567 108.176 118.567Z" fill="#ffffff"/>
<path d="M60.2047 368.037L141.417 365.365V473.111" stroke="#ffffff" stroke-width="45" stroke-linecap="round" stroke-linejoin="round"/>
<path d="M89.5316 237.14C89.5316 237.14 63.8348 271.674 61.6438 360.816" stroke="#ffffff" stroke-width="55" stroke-linecap="round" stroke-linejoin="round"/>
<path d="M90.7963 232.134L127.13 295.019L190.295 294.129" stroke="#ffffff" stroke-width="45" stroke-linecap="round" stroke-linejoin="round"/>
<path d="M190.518 353.554H248.893L266.211 292.717" stroke="#ffffff" stroke-width="35" stroke-linecap="round" stroke-linejoin="round"/>

</g>

</svg>