<svg width="300" height="40" viewBox="0 0 300 40" fill="none" xmlns="http://www.w3.org/2000/svg" xmlns:xlink="http://www.w3.org/1999/xlink">

<g transform="translate(130.000000, 0.000000) scale(2.000000 2.000000) "> 

<g clip-path="url(#clip0)">
<path opacity="0.953" d="M9.99934 0C15.514 0 20 4.44646 20 10C20 15.5172 15.514 20 9.99934 20C4.48599 20 0 15.5172 0 10C0 4.44646 4.48599 0 9.99934 0V0Z" fill="#60BE60"/>
<path opacity="0.95" fill-rule="evenodd" clip-rule="evenodd" d="M10 19C14.9706 19 19 14.9706 19 10C19 5.02944 14.9706 1 10 1C5.02944 1 1 5.02944 1 10C1 14.9706 5.02944 19 10 19ZM10 20C15.5228 20 20 15.5228 20 10C20 4.47715 15.5228 0 10 0C4.47715 0 0 4.47715 0 10C0 15.5228 4.47715 20 10 20Z" fill="#398C39"/>
</g>
<defs>
<clipPath id="clip0">
<path d="M0 0H20V20H0V0Z" fill="white"/>
</clipPath>
</defs>

</g>%n%n
<g transform="translate(138.000000, 8.000000) scale(0.750000 0.750000) "> 

<path fill-rule="nonzero" fill="rgb(100%, 100%, 100%)" fill-opacity="1" d="M 5.847656 23.359375 C 5.035156 23.359375 3.839844 24.046875 2.734375 24.597656 L 2.703125 28.445312 C 3.863281 27.890625 5.105469 27.160156 5.847656 27.160156 C 7.117188 27.160156 9.539062 29.058594 10.886719 29.058594 C 12.082031 29.058594 14.644531 27.160156 15.925781 27.160156 C 17.195312 27.160156 19.757812 29.058594 20.960938 29.058594 C 22.234375 29.058594 24.804688 27.160156 26 27.160156 C 26.75 27.160156 28.039062 27.902344 29.207031 28.460938 L 29.296875 24.617188 C 28.15625 24.046875 26.832031 23.3125 26 23.359375 C 24.796875 23.359375 22.308594 25.257812 20.960938 25.257812 C 19.839844 25.257812 17.195312 23.359375 15.925781 23.359375 C 14.652344 23.359375 12.007812 25.257812 10.886719 25.257812 C 9.6875 25.257812 7.191406 23.359375 5.847656 23.359375 Z M 11.726562 10.066406 C 10.195312 10.066406 8.402344 11.964844 8.402344 14.8125 L 8.402344 21.460938 L 10.660156 21.460938 L 10.660156 14.324219 C 10.660156 13.179688 11.804688 12.996094 12.25 12.996094 L 12.25 21.460938 L 19.75 21.460938 L 19.75 12.996094 C 20.203125 12.996094 21.265625 13.1875 21.339844 14.324219 L 21.339844 21.460938 L 23.597656 21.460938 L 23.597656 14.8125 C 23.597656 11.964844 21.804688 10.066406 20.273438 10.066406 Z M 16 1.839844 C 14.164062 1.839844 12.675781 3.328125 12.675781 5.164062 C 12.675781 7 14.164062 8.488281 16 8.488281 C 17.835938 8.488281 19.324219 7 19.324219 5.164062 C 19.324219 3.328125 17.835938 1.839844 16 1.839844 Z M 16 1.839844 "/>

</g>%n%n</svg>