<svg width="300" height="40" viewBox="0 0 300 40" fill="none" xmlns="http://www.w3.org/2000/svg" xmlns:xlink="http://www.w3.org/1999/xlink">

<g transform="translate(130.000000, 0.000000) scale(2.000000 2.000000) "> 

<g clip-path="url(#clip0)">
<path opacity="0.953" d="M9.99934 0C15.514 0 20 4.44646 20 10C20 15.5172 15.514 20 9.99934 20C4.48599 20 0 15.5172 0 10C0 4.44646 4.48599 0 9.99934 0V0Z" fill="#878787"/>
<path opacity="0.95" fill-rule="evenodd" clip-rule="evenodd" d="M10 19C14.9706 19 19 14.9706 19 10C19 5.02944 14.9706 1 10 1C5.02944 1 1 5.02944 1 10C1 14.9706 5.02944 19 10 19ZM10 20C15.5228 20 20 15.5228 20 10C20 4.47715 15.5228 0 10 0C4.47715 0 0 4.47715 0 10C0 15.5228 4.47715 20 10 20Z" fill="#404040"/>
</g>
<defs>
<clipPath id="clip0">
<path d="M0 0H20V20H0V0Z" fill="white"/>
</clipPath>
</defs>

</g>%n%n
<g transform="translate(138.000000, 8.000000) scale(0.750000 0.750000) "> 

<defs>
<filter id="filter-remove-color" x="0%" y="0%" width="100%" height="100%">
<feColorMatrix color-interpolation-filters="sRGB" values="0 0 0 0 1 0 0 0 0 1 0 0 0 0 1 0 0 0 1 0" />
</filter>
<mask id="mask-0">
<g filter="url(#filter-remove-color)">
<rect x="-3.2" y="-3.2" width="38.4" height="38.4" fill="rgb(0%, 0%, 0%)" fill-opacity="0.2"/>
</g>
</mask>
<clip100Path id="clip100-0">
<rect x="0" y="0" width="32" height="32"/>
</clip100Path>
<g id="source-6" clip100-path="url(#clip100-0)">
<path fill-rule="nonzero" fill="rgb(100%, 100%, 100%)" fill-opacity="1" d="M 10.667969 8 L 26.667969 8 L 26.667969 26.667969 L 10.667969 26.667969 Z M 10.667969 8 "/>
</g>
</defs>
<g mask="url(#mask-0)">
<use xlink:href="#source-6"/>
</g>
<path fill-rule="evenodd" fill="rgb(100%, 100%, 100%)" fill-opacity="1" d="M 2.667969 5.332031 L 29.332031 5.332031 L 29.332031 26.667969 L 26.667969 26.667969 L 26.667969 24 L 21.332031 24 C 21.332031 25.472656 20.140625 26.667969 18.667969 26.667969 C 17.195312 26.667969 16 25.472656 16 24 L 13.332031 24 L 13.332031 18.667969 L 16 13.332031 L 18.667969 13.332031 L 18.667969 10.667969 L 26.667969 10.667969 L 26.667969 8 L 10.667969 8 L 10.667969 26.667969 L 2.667969 26.667969 Z M 16.316406 18.667969 L 17.648438 16 L 18.667969 16 L 18.667969 18.667969 Z M 19.199219 24 C 19.199219 24.292969 18.960938 24.535156 18.667969 24.535156 C 18.371094 24.535156 18.132812 24.292969 18.132812 24 C 18.132812 23.707031 18.371094 23.464844 18.667969 23.464844 C 18.960938 23.464844 19.199219 23.707031 19.199219 24 Z M 19.199219 24 "/>

</g>%n%n</svg>