<svg width="300" height="40" viewBox="0 0 300 40" fill="none" xmlns="http://www.w3.org/2000/svg" >

<g transform="translate(130.000000, 0.000000) scale(2.000000 2.000000) "> 

<g clip-path="url(#clip0)">
<path opacity="0.949" d="M9.9994 1C14.9626 1 19 5.00181 19 10C19 14.9655 14.9626 19 9.9994 19C5.0374 19 1 14.9655 1 10C1 5.00181 5.0374 1 9.9994 1Z" fill="#45ABE9"/>
<path opacity="0.95" fill-rule="evenodd" clip-rule="evenodd" d="M10 19C14.9706 19 19 14.9706 19 10C19 5.02944 14.9706 1 10 1C5.02944 1 1 5.02944 1 10C1 14.9706 5.02944 19 10 19ZM10 20C15.5228 20 20 15.5228 20 10C20 4.47715 15.5228 0 10 0C4.47715 0 0 4.47715 0 10C0 15.5228 4.47715 20 10 20Z" fill="#1578B3"/>
</g>
<defs>
<clipPath id="clip0">
<path d="M0 0H20V20H0V0Z" fill="white"/>
</clipPath>
</defs>

</g>


<g transform="translate(138.000000, 8.000000) scale(0.500000 0.500000) "> 

<path fill-rule="evenodd" clip100-rule="evenodd" d="M8 4C5.79086 4 4 5.79086 4 8V16C4 18.2091 5.79086 20 8 20H18C19.1046 20 20 19.1046 20 18V16H41.1716C41.702 16 42.2107 15.7893 42.5858 15.4142L44 14H28V12H44L42.5528 9.10557C42.214 8.428 41.5215 8 40.7639 8H20V6C20 4.89543 19.1046 4 18 4H8ZM12 8H8V16H12V8Z" fill="#ffffff"/>
<path fill-rule="evenodd" clip100-rule="evenodd" d="M26 20C24.8954 20 24 20.8954 24 22C24 23.1046 24.8954 24 26 24H28V28H18.8284L18.7018 27.8734C19.4602 27.5892 20 26.8576 20 26C20 24.8954 19.1046 24 18 24H14C13.1911 24 12.4618 24.4873 12.1522 25.2346C11.8427 25.982 12.0138 26.8422 12.5858 27.4142L15.5665 30.3949L14.7413 32.0453C14.4984 32.0154 14.251 32 14 32C10.6863 32 8 34.6863 8 38C8 41.3137 10.6863 44 14 44C16.6124 44 18.8349 42.3304 19.6586 40H28.3414C29.1651 42.3304 31.3876 44 34 44C37.3137 44 40 41.3137 40 38C40 34.6863 37.3137 32 34 32C33.749 32 33.5016 32.0154 33.2587 32.0453L32 29.5279V22C32 20.8954 31.1046 20 30 20H26ZM19.6586 36C19.3696 35.1824 18.9084 34.4461 18.3187 33.8348L19.2361 32H28.7639L29.6813 33.8348C29.0915 34.4461 28.6304 35.1824 28.3414 36H19.6586ZM16 38C16 39.1046 15.1046 40 14 40C12.8954 40 12 39.1046 12 38C12 36.8954 12.8954 36 14 36C15.1046 36 16 36.8954 16 38ZM36 38C36 39.1046 35.1046 40 34 40C32.8954 40 32 39.1046 32 38C32 36.8954 32.8954 36 34 36C35.1046 36 36 36.8954 36 38Z" fill="#ffffff"/>

</g>

</svg>