<svg width="300" height="40" viewBox="0 0 300 40" fill="none" xmlns="http://www.w3.org/2000/svg" >

<g transform="translate(130.000000, 0.000000) scale(2.000000 2.000000) "> 

<g clip-path="url(#clip0)">
<path opacity="0.953" d="M9.99934 0C15.514 0 20 4.44646 20 10C20 15.5172 15.514 20 9.99934 20C4.48599 20 0 15.5172 0 10C0 4.44646 4.48599 0 9.99934 0V0Z" fill="#878787"/>
<path opacity="0.95" fill-rule="evenodd" clip-rule="evenodd" d="M10 19C14.9706 19 19 14.9706 19 10C19 5.02944 14.9706 1 10 1C5.02944 1 1 5.02944 1 10C1 14.9706 5.02944 19 10 19ZM10 20C15.5228 20 20 15.5228 20 10C20 4.47715 15.5228 0 10 0C4.47715 0 0 4.47715 0 10C0 15.5228 4.47715 20 10 20Z" fill="#404040"/>
</g>
<defs>
<clipPath id="clip0">
<path d="M0 0H20V20H0V0Z" fill="white"/>
</clipPath>
</defs>

</g>


<g transform="translate(138.000000, 8.000000) scale(0.500000 0.500000) "> 

<rect opacity="0.5" x="20" y="28" width="8" height="16" fill="#ffffff"/>
<path fill-rule="evenodd" clip100-rule="evenodd" d="M14 4C8.47715 4 4 8.47715 4 14V28H44V14C44 8.47715 39.5228 4 34 4H14ZM20 24V14C20 10.6863 17.3137 8 14 8C10.6863 8 8 10.6863 8 14V24H20ZM28 10C28 8.89543 28.8954 8 30 8H36C38.2091 8 40 9.79086 40 12V14C40 15.1046 39.1046 16 38 16C36.8954 16 36 15.1046 36 14V12H30C28.8954 12 28 11.1046 28 10Z" fill="#ffffff"/>

</g>

</svg>