<svg width="300" height="40" viewBox="0 0 300 40" fill="none" xmlns="http://www.w3.org/2000/svg" xmlns:xlink="http://www.w3.org/1999/xlink">

<g transform="translate(130.000000, 0.000000) scale(2.500000 2.500000) "> 

<path opacity="0.806" d="M2.48348 1.73096C1.91609 1.73309 1.46462 2.26347 1.55284 2.82397L1.55116 2.8223L3.24508 13.8076C3.31396 14.266 3.71724 14.6131 4.18075 14.6127H11.8234C12.287 14.6131 12.6902 14.266 12.7591 13.8076L14.4547 2.8223L14.453 2.82397C14.5415 2.26211 14.0876 1.73098 13.519 1.73096H2.48516C2.4846 1.73096 2.48404 1.73096 2.48349 1.73096H2.48348Z" fill="#EBE7E4"/>

</g>%n%n
<g transform="translate(138.000000, 8.000000) scale(0.750000 0.750000) "> 

<path fill-rule="nonzero" fill="rgb(33.333333%, 33.333333%, 33.333333%)" fill-opacity="1" d="M 10.003906 0.179688 C 9.367188 -0.1875 8.550781 0.0273438 8.179688 0.660156 C 7.8125 1.296875 8.027344 2.113281 8.660156 2.484375 L 22.6875 10.667969 L 5.332031 10.667969 L 5.332031 13.332031 L 6.667969 13.332031 L 9.113281 28.019531 C 9.242188 28.777344 9.898438 29.332031 10.667969 29.332031 L 12 29.332031 C 11.261719 29.332031 10.667969 29.929688 10.667969 30.667969 C 10.667969 31.402344 11.261719 32 12 32 C 12.738281 32 13.332031 31.402344 13.332031 30.667969 C 13.332031 29.929688 12.738281 29.332031 12 29.332031 L 20 29.332031 C 19.261719 29.332031 18.667969 29.929688 18.667969 30.667969 C 18.667969 31.402344 19.261719 32 20 32 C 20.738281 32 21.332031 31.402344 21.332031 30.667969 C 21.332031 29.929688 20.738281 29.332031 20 29.332031 L 21.332031 29.332031 C 22.101562 29.332031 22.757812 28.777344 22.886719 28.019531 L 25.332031 13.332031 L 26.667969 13.332031 L 26.667969 10.691406 C 26.675781 10.226562 26.4375 9.765625 26.003906 9.515625 Z M 10.003906 0.179688 "/>

</g>%n%n</svg>