<svg width="300" height="40" viewBox="0 0 300 40" fill="none" xmlns="http://www.w3.org/2000/svg" xmlns:xlink="http://www.w3.org/1999/xlink">

<g transform="translate(130.000000, 0.000000) scale(2.500000 2.500000) "> 
<path style="color:#000;clip-rule:nonzero;display:inline;overflow:visible;visibility:visible;opacity:.81199999;isolation:auto;mix-blend-mode:normal;color-interpolation:sRGB;color-interpolation-filters:linearRGB;solid-color:#000;solid-opacity:1;vector-effect:none;fill:#ebe7e4;fill-opacity:1;fill-rule:nonzero;stroke:none;stroke-width:1.25;stroke-linecap:butt;stroke-linejoin:miter;stroke-miterlimit:4;stroke-dasharray:none;stroke-dashoffset:0;stroke-opacity:1;marker:none;paint-order:normal;color-rendering:auto;image-rendering:auto;shape-rendering:auto;text-rendering:auto;enable-background:accumulate" id="rect814" d="M2.67 2a.67.67 0 0 0-.47.2L.86 3.53a.67.67 0 0 0-.1.8.67.67 0 0 0-.1.34v2.66a.67.67 0 0 0 .38.6l1 .5.63 4.99a.67.67 0 0 0 .66.58h1.34a.67.67 0 0 0 .33-.1.67.67 0 0 0 .33.1h5.34a.67.67 0 0 0 .33-.09.67.67 0 0 0 .33.09h1.34a.67.67 0 0 0 .66-.58l.62-4.98 1.01-.51a.67.67 0 0 0 .37-.6V4.67a.67.67 0 0 0-.09-.34.67.67 0 0 0-.1-.8L13.8 2.2a.67.67 0 0 0-.47-.2z" transform="matrix(.8 0 0 .8 1.6 1.6)"/>
</g>%n%n
<g transform="translate(138.000000, 8.000000) scale(0.750000 0.750000) "> 

<path fill-rule="nonzero" fill="rgb(24.705882%, 24.705882%, 24.705882%)" fill-opacity="1" d="M 2.667969 9.332031 L 2.667969 14.667969 L 5.332031 16 L 6.667969 26.667969 L 9.332031 26.667969 L 10.667969 16 L 21.332031 16 C 21.554688 19.554688 22.667969 26.667969 22.667969 26.667969 L 25.332031 26.667969 L 26.667969 16 L 29.332031 14.667969 L 29.332031 9.332031 Z M 12 17.332031 L 10.667969 26.667969 L 21.332031 26.667969 L 20 17.332031 Z M 12 17.332031 "/>
<path fill-rule="nonzero" fill="rgb(24.705882%, 24.705882%, 24.705882%)" fill-opacity="1" d="M 5.332031 5.332031 L 26.667969 5.332031 L 29.332031 8 L 2.667969 8 Z M 5.332031 5.332031 "/>

</g>%n%n</svg>