<svg width="300" height="40" viewBox="0 0 300 40" fill="none" xmlns="http://www.w3.org/2000/svg" xmlns:xlink="http://www.w3.org/1999/xlink" version="1.1">

<g transform="translate(130.000000, 0.000000) scale(2.000000 2.000000) "> 

<g clip-path="url(#clip0)">
<path opacity="0.949" d="M9.9994 1C14.9626 1 19 5.00181 19 10C19 14.9655 14.9626 19 9.9994 19C5.0374 19 1 14.9655 1 10C1 5.00181 5.0374 1 9.9994 1Z" fill="#45ABE9"/>
<path opacity="0.95" fill-rule="evenodd" clip-rule="evenodd" d="M10 19C14.9706 19 19 14.9706 19 10C19 5.02944 14.9706 1 10 1C5.02944 1 1 5.02944 1 10C1 14.9706 5.02944 19 10 19ZM10 20C15.5228 20 20 15.5228 20 10C20 4.47715 15.5228 0 10 0C4.47715 0 0 4.47715 0 10C0 15.5228 4.47715 20 10 20Z" fill="#1578B3"/>
</g>
<defs>
<clipPath id="clip0">
<path d="M0 0H20V20H0V0Z" fill="white"/>
</clipPath>
</defs>

</g>%n%n
<g transform="translate(138.000000, 8.000000) scale(2.000000 2.000000) "> 

<g id="surface1">
<path style=" stroke:none;fill-rule:nonzero;fill:rgb(100%,100%,100%);fill-opacity:1;" d="M 3.074219 9.429688 L 10.53125 9.429688 C 10.53125 9.429688 9.699219 10.597656 8.96875 10.78125 C 8.589844 10.875 8.136719 10.480469 7.75 10.472656 C 7.378906 10.464844 6.917969 10.859375 6.550781 10.847656 C 6.125 10.839844 5.605469 10.410156 5.210938 10.414062 C 4.734375 10.421875 4.460938 10.734375 4.113281 10.761719 C 3.71875 10.789062 3.191406 10.730469 3.191406 10.730469 Z M 3.074219 9.429688 "/>
<path style=" stroke:none;fill-rule:nonzero;fill:rgb(100%,100%,100%);fill-opacity:1;" d="M 5.648438 1.441406 L 5.648438 9.058594 L 1.128906 9.058594 Z M 5.648438 1.441406 "/>
<path style=" stroke:none;fill-rule:nonzero;fill:rgb(100%,100%,100%);fill-opacity:1;" d="M 6.023438 2.90625 C 7.679688 4.304688 10.152344 9.222656 9.414062 8.976562 C 7.890625 8.464844 5.980469 9.101562 5.980469 9.101562 C 5.980469 9.101562 6.027344 4.199219 6.023438 2.90625 Z M 6.023438 2.90625 "/>
<path style=" stroke:none;fill-rule:nonzero;fill:rgb(100%,100%,100%);fill-opacity:1;" d="M 8.6875 1.753906 C 8.6875 2.085938 8.414062 2.355469 8.074219 2.355469 C 7.738281 2.355469 7.460938 2.085938 7.460938 1.753906 C 7.460938 1.421875 7.738281 1.148438 8.074219 1.148438 C 8.414062 1.148438 8.6875 1.421875 8.6875 1.753906 Z M 8.6875 1.753906 "/>
<path style=" stroke:none;fill-rule:nonzero;fill:rgb(100%,100%,100%);fill-opacity:1;" d="M 7.308594 2.621094 C 7.5 2.246094 8.667969 2.242188 8.84375 2.621094 C 9.09375 3.167969 8.84375 4.304688 8.84375 4.304688 L 7.308594 4.304688 C 7.308594 4.304688 7.058594 3.117188 7.308594 2.621094 Z M 7.308594 2.621094 "/>
<path style=" stroke:none;fill-rule:nonzero;fill:rgb(100%,100%,100%);fill-opacity:1;" d="M 10.609375 1.753906 C 10.609375 2.085938 10.332031 2.355469 9.996094 2.355469 C 9.65625 2.355469 9.382812 2.085938 9.382812 1.753906 C 9.382812 1.421875 9.65625 1.148438 9.996094 1.148438 C 10.332031 1.148438 10.609375 1.421875 10.609375 1.753906 Z M 10.609375 1.753906 "/>
<path style=" stroke:none;fill-rule:nonzero;fill:rgb(100%,100%,100%);fill-opacity:1;" d="M 9.226562 2.621094 C 9.417969 2.246094 10.585938 2.242188 10.761719 2.621094 C 11.011719 3.167969 10.761719 4.304688 10.761719 4.304688 L 9.226562 4.304688 C 9.226562 4.304688 8.976562 3.117188 9.226562 2.621094 Z M 9.226562 2.621094 "/>
</g>

</g>%n%n</svg>