<svg width="300" height="40" viewBox="0 0 300 40" fill="none" xmlns="http://www.w3.org/2000/svg" xmlns:xlink="http://www.w3.org/1999/xlink">

<g transform="translate(130.000000, 0.000000) scale(2.500000 2.500000) "> 

<path fill-rule="evenodd" clip-rule="evenodd" d="M6.80876 5L4.74419 3.79567C4.02862 3.37825 3.78691 2.45977 4.20433 1.74419C4.62175 1.02862 5.54023 0.786911 6.25581 1.20433L12.2558 4.70433C12.7396 4.98655 13.0054 5.49747 13 6.01606V7C13 7.42608 12.7335 7.78992 12.3581 7.93396L11.5686 12.6712C11.502 13.0707 11.2901 13.4146 10.9924 13.6524C10.916 14.4092 10.277 15 9.5 15C8.84689 15 8.29127 14.5826 8.08535 14H7.91465C7.70873 14.5826 7.15311 15 6.5 15C5.72301 15 5.084 14.4092 5.00764 13.6524C4.70994 13.4146 4.49799 13.0707 4.43141 12.6712L3.64187 7.93396C3.26648 7.78992 3 7.42608 3 7V6C3 5.44771 3.44772 5 4 5H6.80876Z" fill="#EBE7E4" fill-opacity="0.8"/>

</g>%n%n
<g transform="translate(138.000000, 8.000000) scale(2.000000 2.000000) "> 

<path fill-rule="nonzero" fill="rgb(33.333333%, 33.333333%, 33.333333%)" fill-opacity="1" d="M 3.75 0.0664062 C 3.511719 -0.0703125 3.207031 0.0078125 3.066406 0.25 C 2.929688 0.488281 3.007812 0.792969 3.25 0.933594 L 8.507812 4 L 2 4 L 2 5 L 2.5 5 L 3.417969 10.507812 C 3.464844 10.792969 3.710938 11 4 11 L 4.5 11 C 4.222656 11 4 11.222656 4 11.5 C 4 11.777344 4.222656 12 4.5 12 C 4.777344 12 5 11.777344 5 11.5 C 5 11.222656 4.777344 11 4.5 11 L 7.5 11 C 7.222656 11 7 11.222656 7 11.5 C 7 11.777344 7.222656 12 7.5 12 C 7.777344 12 8 11.777344 8 11.5 C 8 11.222656 7.777344 11 7.5 11 L 8 11 C 8.289062 11 8.535156 10.792969 8.582031 10.507812 L 9.5 5 L 10 5 L 10 4.007812 C 10.003906 3.835938 9.914062 3.664062 9.75 3.566406 Z M 3.75 0.0664062 "/>

</g>%n%n</svg>