<svg width="300" height="40" viewBox="0 0 300 40" fill="none" xmlns="http://www.w3.org/2000/svg" >

<g transform="translate(130.000000, 0.000000) scale(2.000000 2.000000) "> 

<g clip-path="url(#clip0)">
<path opacity="0.953" d="M9.99934 0C15.514 0 20 4.44646 20 10C20 15.5172 15.514 20 9.99934 20C4.48599 20 0 15.5172 0 10C0 4.44646 4.48599 0 9.99934 0V0Z" fill="#60BE60"/>
<path opacity="0.95" fill-rule="evenodd" clip-rule="evenodd" d="M10 19C14.9706 19 19 14.9706 19 10C19 5.02944 14.9706 1 10 1C5.02944 1 1 5.02944 1 10C1 14.9706 5.02944 19 10 19ZM10 20C15.5228 20 20 15.5228 20 10C20 4.47715 15.5228 0 10 0C4.47715 0 0 4.47715 0 10C0 15.5228 4.47715 20 10 20Z" fill="#398C39"/>
</g>
<defs>
<clipPath id="clip0">
<path d="M0 0H20V20H0V0Z" fill="white"/>
</clipPath>
</defs>

</g>%n%n
<g transform="translate(138.000000, 8.000000) scale(0.041379 0.041379) "> 

<path d="M105.973 423.397C91.2953 423.397 69.5916 435.874 49.583 445.806L49.0273 515.578C70.0223 505.52 92.5184 492.245 105.973 492.245C128.998 492.245 172.919 526.67 197.297 526.67C219.01 526.67 265.438 492.245 288.622 492.245C311.646 492.245 358.107 526.67 379.946 526.67C402.971 526.67 449.6 492.245 471.27 492.245C484.833 492.245 508.174 505.73 529.385 515.82L530.973 446.161C510.324 435.843 486.307 422.556 471.271 423.397C449.432 423.397 404.363 457.821 379.946 457.821C359.63 457.821 311.647 423.397 288.622 423.397C265.597 423.397 217.658 457.821 197.297 457.821C175.585 457.821 130.352 423.397 105.973 423.397ZM212.545 182.434C184.783 182.435 152.301 216.848 152.301 268.485V388.971H193.222V259.639C193.222 238.898 213.934 235.541 222.028 235.541V388.971H357.972V235.541C366.15 235.541 385.461 239.016 386.778 259.639V388.971H427.699V268.485C427.699 216.848 395.217 182.421 367.456 182.423L212.545 182.434ZM290 33.3303C256.729 33.3303 229.757 60.3027 229.757 93.5735C229.757 126.844 256.729 153.817 290 153.817C323.271 153.817 350.243 126.844 350.243 93.5735C350.243 60.3027 323.271 33.3303 290 33.3303Z" fill="#ffffff"/>

</g>%n%n</svg>