<svg width="40" height="40" viewBox="0 0 40 40" fill="none" xmlns="http://www.w3.org/2000/svg" >

<g transform="translate(0.000000, 0.000000) scale(2.000000 2.000000) "> 

<g clip-path="url(#clip0)">
<path opacity="0.953" d="M9.99934 0C15.514 0 20 4.44646 20 10C20 15.5172 15.514 20 9.99934 20C4.48599 20 0 15.5172 0 10C0 4.44646 4.48599 0 9.99934 0V0Z" fill="#D17E4A"/>
<path opacity="0.95" fill-rule="evenodd" clip-rule="evenodd" d="M10 19C14.9706 19 19 14.9706 19 10C19 5.02944 14.9706 1 10 1C5.02944 1 1 5.02944 1 10C1 14.9706 5.02944 19 10 19ZM10 20C15.5228 20 20 15.5228 20 10C20 4.47715 15.5228 0 10 0C4.47715 0 0 4.47715 0 10C0 15.5228 4.47715 20 10 20Z" fill="#B3622E"/>
</g>
<defs>
<clipPath id="clip0">
<path d="M0 0H20V20H0V0Z" fill="white"/>
</clipPath>
</defs>

</g>


<g transform="translate(8.000000, 8.000000) scale(0.500000 0.500000) "> 

<path fill-rule="evenodd" clip100-rule="evenodd" d="M10.0001 4C9.19113 4 8.46186 4.48728 8.1523 5.23463C7.84274 5.98198 8.01385 6.84222 8.58584 7.41421L22.0001 20.8284V37L13.7889 41.1056C12.6926 41.6537 12.0001 42.7743 12.0001 44H36.0001C36.0001 42.7743 35.3075 41.6537 34.2112 41.1056L26.0001 37V20.8284L39.4143 7.41421C39.9863 6.84222 40.1574 5.98198 39.8478 5.23463C39.5383 4.48728 38.809 4 38.0001 4H10.0001ZM33.1716 8L24.0001 17.1716L14.8285 8H33.1716Z" fill="#ffffff"/>

</g>

</svg>