<svg width="300" height="40" viewBox="0 0 300 40" fill="none" xmlns="http://www.w3.org/2000/svg" >

<g transform="translate(130.000000, 0.000000) scale(2.000000 2.000000) "> 

<g clip-path="url(#clip0)">
<path opacity="0.953" d="M9.99934 0C15.514 0 20 4.44646 20 10C20 15.5172 15.514 20 9.99934 20C4.48599 20 0 15.5172 0 10C0 4.44646 4.48599 0 9.99934 0V0Z" fill="#D17E4A"/>
<path opacity="0.95" fill-rule="evenodd" clip-rule="evenodd" d="M10 19C14.9706 19 19 14.9706 19 10C19 5.02944 14.9706 1 10 1C5.02944 1 1 5.02944 1 10C1 14.9706 5.02944 19 10 19ZM10 20C15.5228 20 20 15.5228 20 10C20 4.47715 15.5228 0 10 0C4.47715 0 0 4.47715 0 10C0 15.5228 4.47715 20 10 20Z" fill="#B3622E"/>
</g>
<defs>
<clipPath id="clip0">
<path d="M0 0H20V20H0V0Z" fill="white"/>
</clipPath>
</defs>

</g>


<g transform="translate(138.000000, 8.000000) scale(0.500000 0.500000) "> 

<path fill-rule="evenodd" clip100-rule="evenodd" d="M8 8V32C8 36.4183 11.5817 40 16 40H28C32.4183 40 36 36.4183 36 32V24H40C42.2091 24 44 22.2091 44 20V12C44 9.79086 42.2091 8 40 8H8ZM36 20V12H40V20H36Z" fill="#ffffff"/>

</g>

</svg>