<svg width="300" height="40" viewBox="0 0 300 40" fill="none" xmlns="http://www.w3.org/2000/svg" >

<g transform="translate(130.000000, 0.000000) scale(2.000000 2.000000) "> 

<g clip-path="url(#clip0)">
<path opacity="0.953" d="M9.99934 0C15.514 0 20 4.44646 20 10C20 15.5172 15.514 20 9.99934 20C4.48599 20 0 15.5172 0 10C0 4.44646 4.48599 0 9.99934 0V0Z" fill="#D17E4A"/>
<path opacity="0.95" fill-rule="evenodd" clip-rule="evenodd" d="M10 19C14.9706 19 19 14.9706 19 10C19 5.02944 14.9706 1 10 1C5.02944 1 1 5.02944 1 10C1 14.9706 5.02944 19 10 19ZM10 20C15.5228 20 20 15.5228 20 10C20 4.47715 15.5228 0 10 0C4.47715 0 0 4.47715 0 10C0 15.5228 4.47715 20 10 20Z" fill="#B3622E"/>
</g>
<defs>
<clipPath id="clip0">
<path d="M0 0H20V20H0V0Z" fill="white"/>
</clipPath>
</defs>

</g>


<g transform="translate(138.000000, 8.000000) scale(0.041379 0.041379) "> 

<path d="M468.232 77.9302H467.981C468.268 77.6822 468.426 77.4322 468.426 77.1802C468.426 71.2432 387.359 66.4302 287.356 66.4302C187.354 66.4302 106.286 71.2432 106.286 77.1802C106.286 77.4322 106.444 77.6822 106.732 77.9302H106.286L162.798 508.858H163.053C162.553 509.128 162.288 509.402 162.288 509.679C162.288 513.781 218.284 517.104 287.358 517.104C356.433 517.104 412.428 513.781 412.428 509.679C412.428 509.402 412.162 509.127 411.663 508.858L468.232 77.9302ZM375.379 477.353C372.484 480.032 200.778 478.776 197.883 476.097L144.201 135.844C239.279 201.75 301.809 126.893 426.361 133.334L375.379 477.353Z" fill="#ffffff"/>
<path opacity="0.1" fill-rule="evenodd" clip100-rule="evenodd" d="M129.307 119.264L439.394 121.775L389.177 493.377L177.013 495.888L129.307 119.264Z" fill="#ffffff"/>

</g>

</svg>