<svg width="300" height="35" viewBox="0 0 300 35" fill="none" xmlns="http://www.w3.org/2000/svg" >

<g transform="translate(135.000000, 2.000000) scale(1.500000 1.500000) "> 

<g clip-path="url(#clip0)">
<path opacity="0.953" d="M9.99934 0C15.514 0 20 4.44646 20 10C20 15.5172 15.514 20 9.99934 20C4.48599 20 0 15.5172 0 10C0 4.44646 4.48599 0 9.99934 0V0Z" fill="#904513"/>
<path opacity="0.95" fill-rule="evenodd" clip-rule="evenodd" d="M10 19C14.9706 19 19 14.9706 19 10C19 5.02944 14.9706 1 10 1C5.02944 1 1 5.02944 1 10C1 14.9706 5.02944 19 10 19ZM10 20C15.5228 20 20 15.5228 20 10C20 4.47715 15.5228 0 10 0C4.47715 0 0 4.47715 0 10C0 15.5228 4.47715 20 10 20Z" fill="#CF631B"/>
</g>
<defs>
<clipPath id="clip0">
<path d="M0 0H20V20H0V0Z" fill="white"/>
</clipPath>
</defs>

</g>


<g transform="translate(141.000000, 8.000000) scale(0.031034 0.031034) "> 

<path d="M505.771 76.3984L474.632 186.255H316.031L354.216 489.366H484.025L522.802 186.255H493.437L523.985 81.6869L505.771 76.3984ZM297.225 363.07C300.356 335.654 279.603 320.774 234.965 318.432H127.456C82.8179 320.774 61.8671 335.654 64.6041 363.07H297.225ZM64.6041 445.319C61.8671 472.724 82.8179 487.406 127.456 489.366H234.965C279.603 487.406 300.356 472.724 297.225 445.319H64.6041ZM287.24 384.224H73.9978C68.5241 384.224 63.8272 386.181 59.9072 390.095C55.9871 394.009 54.0271 398.512 54.0271 403.603C54.0271 409.483 55.9871 414.282 59.9072 417.998C63.8272 421.715 68.5241 423.574 73.9978 423.574H287.24C292.725 423.574 297.425 421.715 301.34 417.998C305.253 414.282 307.211 409.483 307.211 403.603C307.211 398.512 305.253 394.009 301.34 390.095C297.425 386.181 292.725 384.224 287.24 384.224Z" fill="#ffffff"/>

</g>

</svg>