<svg width="300" height="40" viewBox="0 0 300 40" fill="none" xmlns="http://www.w3.org/2000/svg" xmlns:xlink="http://www.w3.org/1999/xlink">

<g transform="translate(130.000000, 0.000000) scale(2.000000 2.000000) "> 

<g clip-path="url(#clip0)">
<path opacity="0.953" d="M9.99934 0C15.514 0 20 4.44646 20 10C20 15.5172 15.514 20 9.99934 20C4.48599 20 0 15.5172 0 10C0 4.44646 4.48599 0 9.99934 0V0Z" fill="#878787"/>
<path opacity="0.95" fill-rule="evenodd" clip-rule="evenodd" d="M10 19C14.9706 19 19 14.9706 19 10C19 5.02944 14.9706 1 10 1C5.02944 1 1 5.02944 1 10C1 14.9706 5.02944 19 10 19ZM10 20C15.5228 20 20 15.5228 20 10C20 4.47715 15.5228 0 10 0C4.47715 0 0 4.47715 0 10C0 15.5228 4.47715 20 10 20Z" fill="#404040"/>
</g>
<defs>
<clipPath id="clip0">
<path d="M0 0H20V20H0V0Z" fill="white"/>
</clipPath>
</defs>

</g>%n%n
<g transform="translate(138.000000, 8.000000) scale(0.750000 0.750000) "> 

<defs>
<filter id="filter-remove-color" x="0%" y="0%" width="100%" height="100%">
<feColorMatrix color-interpolation-filters="sRGB" values="0 0 0 0 1 0 0 0 0 1 0 0 0 0 1 0 0 0 1 0" />
</filter>
<mask id="mask-0">
<g filter="url(#filter-remove-color)">
<rect x="-3.2" y="-3.2" width="38.4" height="38.4" fill="rgb(0%, 0%, 0%)" fill-opacity="0.75"/>
</g>
</mask>
<clip100Path id="clip100-0">
<rect x="0" y="0" width="32" height="32"/>
</clip100Path>
<g id="source-6" clip100-path="url(#clip100-0)">
<path fill-rule="nonzero" fill="rgb(100%, 100%, 100%)" fill-opacity="1" d="M 19.75 14.867188 L 16.679688 12.4375 L 14.953125 14.867188 Z M 19.75 14.867188 "/>
</g>
</defs>
<g mask="url(#mask-0)">
<use xlink:href="#source-6"/>
</g>
<path fill-rule="nonzero" fill="rgb(100%, 100%, 100%)" fill-opacity="1" d="M 20.765625 19.027344 C 22.203125 17.9375 23.132812 16.207031 23.132812 14.261719 L 11.589844 14.261719 L 11.589844 2.515625 L 11.582031 2.515625 C 8.28125 2.515625 5.605469 5.195312 5.609375 8.496094 C 5.613281 11.660156 8.070312 14.246094 11.183594 14.457031 C 11.242188 16.390625 12.226562 18.09375 13.703125 19.144531 L 9.085938 29.855469 C 9.085938 29.855469 8.9375 30.425781 9.476562 30.679688 C 10.011719 30.933594 10.386719 30.414062 10.386719 30.414062 L 14.953125 19.820312 C 15.632812 20.089844 16.378906 20.242188 17.15625 20.242188 C 18 20.242188 18.804688 20.0625 19.535156 19.746094 L 24.132812 30.414062 C 24.132812 30.414062 24.488281 30.960938 25.0625 30.699219 C 25.632812 30.4375 25.429688 29.855469 25.429688 29.855469 Z M 20.765625 19.027344 "/>
<path fill="none" stroke-width="23" stroke-linecap="round" stroke-linejoin="miter" stroke="rgb(100%, 100%, 100%)" stroke-opacity="1" stroke-miterlimit="4" d="M 257.927246 46.586914 C 257.927246 46.586914 275.910645 66.340332 275.910645 93.032227 C 275.910645 119.794922 256.44043 118.591309 256.44043 154.0625 C 256.44043 178.417969 275.769043 193.498535 275.769043 193.498535 " transform="matrix(0.0551724, 0, 0, 0.0551724, 0, 0)"/>
<path fill="none" stroke-width="23" stroke-linecap="round" stroke-linejoin="miter" stroke="rgb(100%, 100%, 100%)" stroke-opacity="1" stroke-miterlimit="4" d="M 318.815918 46.586914 C 318.815918 46.586914 336.799316 66.340332 336.799316 93.032227 C 336.799316 119.794922 317.329102 118.591309 317.329102 154.0625 C 317.329102 178.417969 336.657715 193.498535 336.657715 193.498535 " transform="matrix(0.0551724, 0, 0, 0.0551724, 0, 0)"/>
<path fill="none" stroke-width="23" stroke-linecap="round" stroke-linejoin="miter" stroke="rgb(100%, 100%, 100%)" stroke-opacity="1" stroke-miterlimit="4" d="M 379.70459 46.586914 C 379.70459 46.586914 397.687988 66.340332 397.687988 93.032227 C 397.687988 119.794922 378.217773 118.591309 378.217773 154.0625 C 378.217773 178.417969 397.546387 193.498535 397.546387 193.498535 " transform="matrix(0.0551724, 0, 0, 0.0551724, 0, 0)"/>

</g>%n%n</svg>