<svg width="300" height="40" viewBox="0 0 300 40" fill="none" xmlns="http://www.w3.org/2000/svg" xmlns:xlink="http://www.w3.org/1999/xlink">

<g transform="translate(130.000000, 0.000000) scale(2.000000 2.000000) "> 

<g clip-path="url(#clip0)">
<path opacity="0.953" d="M9.99934 0C15.514 0 20 4.44646 20 10C20 15.5172 15.514 20 9.99934 20C4.48599 20 0 15.5172 0 10C0 4.44646 4.48599 0 9.99934 0V0Z" fill="#D17E4A"/>
<path opacity="0.95" fill-rule="evenodd" clip-rule="evenodd" d="M10 19C14.9706 19 19 14.9706 19 10C19 5.02944 14.9706 1 10 1C5.02944 1 1 5.02944 1 10C1 14.9706 5.02944 19 10 19ZM10 20C15.5228 20 20 15.5228 20 10C20 4.47715 15.5228 0 10 0C4.47715 0 0 4.47715 0 10C0 15.5228 4.47715 20 10 20Z" fill="#B3622E"/>
</g>
<defs>
<clipPath id="clip0">
<path d="M0 0H20V20H0V0Z" fill="white"/>
</clipPath>
</defs>

</g>%n%n
<g transform="translate(138.000000, 8.000000) scale(0.750000 0.750000) "> 

<path fill-rule="nonzero" fill="rgb(100%, 100%, 100%)" fill-opacity="1" d="M 27.90625 4.214844 L 26.1875 10.277344 L 17.4375 10.277344 L 19.542969 27 L 26.703125 27 L 28.84375 10.277344 L 27.222656 10.277344 L 28.910156 4.507812 Z M 16.398438 20.03125 C 16.570312 18.519531 15.425781 17.699219 12.964844 17.570312 L 7.03125 17.570312 C 4.570312 17.699219 3.414062 18.519531 3.5625 20.03125 Z M 3.5625 24.570312 C 3.414062 26.082031 4.570312 26.890625 7.03125 27 L 12.964844 27 C 15.425781 26.890625 16.570312 26.082031 16.398438 24.570312 Z M 15.847656 21.199219 L 4.082031 21.199219 C 3.78125 21.199219 3.523438 21.304688 3.304688 21.523438 C 3.089844 21.738281 2.980469 21.988281 2.980469 22.269531 C 2.980469 22.59375 3.089844 22.855469 3.304688 23.0625 C 3.523438 23.265625 3.78125 23.371094 4.082031 23.371094 L 15.847656 23.371094 C 16.148438 23.371094 16.410156 23.265625 16.625 23.0625 C 16.839844 22.855469 16.949219 22.59375 16.949219 22.269531 C 16.949219 21.988281 16.839844 21.738281 16.625 21.523438 C 16.410156 21.304688 16.148438 21.199219 15.847656 21.199219 Z M 15.847656 21.199219 "/>

</g>%n%n</svg>