<svg width="40" height="40" viewBox="0 0 40 40" fill="none" xmlns="http://www.w3.org/2000/svg" >

<g transform="translate(0.000000, 0.000000) scale(2.000000 2.000000) "> 

<g clip-path="url(#clip0)">
<path opacity="0.953" d="M9.99934 0C15.514 0 20 4.44646 20 10C20 15.5172 15.514 20 9.99934 20C4.48599 20 0 15.5172 0 10C0 4.44646 4.48599 0 9.99934 0V0Z" fill="#D17E4A"/>
<path opacity="0.95" fill-rule="evenodd" clip-rule="evenodd" d="M10 19C14.9706 19 19 14.9706 19 10C19 5.02944 14.9706 1 10 1C5.02944 1 1 5.02944 1 10C1 14.9706 5.02944 19 10 19ZM10 20C15.5228 20 20 15.5228 20 10C20 4.47715 15.5228 0 10 0C4.47715 0 0 4.47715 0 10C0 15.5228 4.47715 20 10 20Z" fill="#B3622E"/>
</g>
<defs>
<clipPath id="clip0">
<path d="M0 0H20V20H0V0Z" fill="white"/>
</clipPath>
</defs>

</g>


<g transform="translate(8.000000, 8.000000) scale(2.000000 2.000000) "> 

<path d="M8 16V6C8 4.89543 8.89543 4 10 4C11.1046 4 12 4.89543 12 6V16H14V6C14 4.89543 14.8954 4 16 4C17.1046 4 18 4.89543 18 6V16H20V6C20 4.89543 20.8954 4 22 4C23.1046 4 24 4.89543 24 6V16C24 19.7277 21.4505 22.8599 18 23.748V44H14V23.748C10.5495 22.8599 8 19.7277 8 16Z" fill="#ffffff"/>
<path d="M28 12C28 7.58172 31.5817 4 36 4V44H32V27.9851C29.7602 27.8003 28 25.9239 28 23.6364V12Z" fill="#ffffff"/>

</g>

</svg>