<svg width="40" height="40" viewBox="0 0 40 40" fill="none" xmlns="http://www.w3.org/2000/svg" >

<g transform="translate(0.000000, 0.000000) scale(2.000000 2.000000) "> 

<g clip-path="url(#clip0)">
<path opacity="0.953" d="M9.99934 0C15.514 0 20 4.44646 20 10C20 15.5172 15.514 20 9.99934 20C4.48599 20 0 15.5172 0 10C0 4.44646 4.48599 0 9.99934 0V0Z" fill="#D17E4A"/>
<path opacity="0.95" fill-rule="evenodd" clip-rule="evenodd" d="M10 19C14.9706 19 19 14.9706 19 10C19 5.02944 14.9706 1 10 1C5.02944 1 1 5.02944 1 10C1 14.9706 5.02944 19 10 19ZM10 20C15.5228 20 20 15.5228 20 10C20 4.47715 15.5228 0 10 0C4.47715 0 0 4.47715 0 10C0 15.5228 4.47715 20 10 20Z" fill="#B3622E"/>
</g>
<defs>
<clipPath id="clip0">
<path d="M0 0H20V20H0V0Z" fill="white"/>
</clipPath>
</defs>

</g>


<g transform="translate(8.000000, 8.000000) scale(0.500000 0.500000) "> 

<path opacity="0.5" d="M8 4H36V16C28 12 20 20.625 8 16V4Z" fill="#ffffff"/>
<path fill-rule="evenodd" clip100-rule="evenodd" d="M32 8H12V32H32V8ZM32 36H12L12 40H32V36ZM36 40V28H40C42.2091 28 44 26.2091 44 24V12C44 9.79086 42.2091 8 40 8H36V4H8V40C8 42.2091 9.79086 44 12 44H32C34.2091 44 36 42.2091 36 40ZM36 24V12H40V24H36Z" fill="#ffffff"/>

</g>

</svg>