<svg width="300" height="40" viewBox="0 0 300 40" fill="none" xmlns="http://www.w3.org/2000/svg" >

<g transform="translate(130.000000, 0.000000) scale(2.000000 2.000000) "> 

<g clip-path="url(#clip0)">
<path opacity="0.953" d="M9.99934 0C15.514 0 20 4.44646 20 10C20 15.5172 15.514 20 9.99934 20C4.48599 20 0 15.5172 0 10C0 4.44646 4.48599 0 9.99934 0V0Z" fill="#D17E4A"/>
<path opacity="0.95" fill-rule="evenodd" clip-rule="evenodd" d="M10 19C14.9706 19 19 14.9706 19 10C19 5.02944 14.9706 1 10 1C5.02944 1 1 5.02944 1 10C1 14.9706 5.02944 19 10 19ZM10 20C15.5228 20 20 15.5228 20 10C20 4.47715 15.5228 0 10 0C4.47715 0 0 4.47715 0 10C0 15.5228 4.47715 20 10 20Z" fill="#B3622E"/>
</g>
<defs>
<clipPath id="clip0">
<path d="M0 0H20V20H0V0Z" fill="white"/>
</clipPath>
</defs>

</g>%n%n
<g transform="translate(138.000000, 8.000000) scale(0.041379 0.041379) "> 

<path d="M478.677 101.323C428.278 50.9259 361.272 23.1709 290 23.1709C218.727 23.1709 151.72 50.9259 101.323 101.323C50.9259 151.721 23.1709 218.728 23.1709 290C23.1709 361.272 50.9259 428.279 101.323 478.677C151.72 529.074 218.727 556.829 290 556.829C361.272 556.829 428.278 529.075 478.677 478.677C529.074 428.28 556.829 361.273 556.829 290C556.829 218.727 529.074 151.721 478.677 101.323ZM290 533.363C155.809 533.363 46.6379 424.19 46.6379 290C46.6379 155.81 155.809 46.6379 290 46.6379C424.19 46.6379 533.363 155.81 533.363 290C533.363 424.19 424.19 533.363 290 533.363Z" fill="#ffffff"/>
<path d="M212.25 101.481C195.106 101.481 161.991 144.928 161.991 184.618C161.991 216.559 176.57 243.618 196.727 252.972L192.555 478.517H231.944L227.772 252.972C247.93 243.618 262.507 216.559 262.507 184.618C262.508 144.929 229.396 101.481 212.25 101.481Z" fill="#ffffff"/>
<path d="M418.009 215.714L412.771 107.105C412.771 105.03 411.087 103.347 409.012 103.347H406.545C404.47 103.347 402.788 105.03 402.788 107.105L404.532 215.714H393.684L390.936 106.047C390.936 103.972 389.252 102.29 387.177 102.29H383.967C381.892 102.29 380.21 103.972 380.21 106.047L381.694 215.714H368.234L369.718 106.047C369.718 103.972 368.037 102.29 365.961 102.29H362.751C360.676 102.29 358.992 103.972 358.992 106.047L356.244 215.714H345.624L347.368 107.118C347.368 105.043 345.687 103.361 343.612 103.361H341.144C339.069 103.361 337.385 105.044 337.385 107.118L331.938 215.714C331.938 247.655 339.283 259.685 359.44 269.038L355.268 478.518H394.656L390.487 269.038C410.646 259.684 418.009 247.656 418.009 215.714Z" fill="#ffffff"/>

</g>%n%n</svg>