<svg width="300" height="35" viewBox="0 0 300 35" fill="none" xmlns="http://www.w3.org/2000/svg" >

<g transform="translate(135.000000, 2.000000) scale(1.500000 1.500000) "> 

<g clip-path="url(#clip0)">
<path opacity="0.953" d="M9.99934 0C15.514 0 20 4.44646 20 10C20 15.5172 15.514 20 9.99934 20C4.48599 20 0 15.5172 0 10C0 4.44646 4.48599 0 9.99934 0V0Z" fill="#904513"/>
<path opacity="0.95" fill-rule="evenodd" clip-rule="evenodd" d="M10 19C14.9706 19 19 14.9706 19 10C19 5.02944 14.9706 1 10 1C5.02944 1 1 5.02944 1 10C1 14.9706 5.02944 19 10 19ZM10 20C15.5228 20 20 15.5228 20 10C20 4.47715 15.5228 0 10 0C4.47715 0 0 4.47715 0 10C0 15.5228 4.47715 20 10 20Z" fill="#CF631B"/>
</g>
<defs>
<clipPath id="clip0">
<path d="M0 0H20V20H0V0Z" fill="white"/>
</clipPath>
</defs>

</g>


<g transform="translate(141.000000, 8.000000) scale(0.375000 0.375000) "> 

<path d="M8 26C8 24.8954 7.10457 24 6 24C4.89543 24 4 24.8954 4 26V42C4 43.1046 4.89543 44 6 44C7.10457 44 8 43.1046 8 42V38H12V42C12 43.1046 12.8954 44 14 44C15.1046 44 16 43.1046 16 42V36C16 34.8954 15.1046 34 14 34H8V26Z" fill="#ffffff"/>
<path d="M40 26C40 24.8954 40.8954 24 42 24C43.1046 24 44 24.8954 44 26V42C44 43.1046 43.1046 44 42 44C40.8954 44 40 43.1046 40 42V38H36V42C36 43.1046 35.1046 44 34 44C32.8954 44 32 43.1046 32 42V36C32 34.8954 32.8954 34 34 34H40V26Z" fill="#ffffff"/>
<path opacity="0.8" fill-rule="evenodd" clip100-rule="evenodd" d="M26 12V42C26 43.1046 25.1046 44 24 44C22.8954 44 22 43.1046 22 42V12H26Z" fill="#ffffff"/>
<path d="M23.6977 4C22.5784 4 21.4715 4.2349 20.4486 4.68951L5.43977 11.3601C4.56425 11.7492 4 12.6175 4 13.5756C4 14.9145 5.08545 16 6.42443 16H41.5756C42.9145 16 44 14.9145 44 13.5756C44 12.6175 43.4358 11.7492 42.5602 11.3601L27.5514 4.68951C26.5285 4.2349 25.4216 4 24.3023 4H23.6977Z" fill="#ffffff"/>
<path d="M14 26C12.8954 26 12 26.8954 12 28C12 29.1046 12.8954 30 14 30H34C35.1046 30 36 29.1046 36 28C36 26.8954 35.1046 26 34 26H14Z" fill="#ffffff"/>

</g>

</svg>