<svg width="300" height="40" viewBox="0 0 300 40" fill="none" xmlns="http://www.w3.org/2000/svg" xmlns:xlink="http://www.w3.org/1999/xlink">

<g transform="translate(130.000000, 0.000000) scale(2.000000 2.000000) "> 

<g clip-path="url(#clip0)">
<path opacity="0.953" d="M9.99934 0C15.514 0 20 4.44646 20 10C20 15.5172 15.514 20 9.99934 20C4.48599 20 0 15.5172 0 10C0 4.44646 4.48599 0 9.99934 0V0Z" fill="#D17E4A"/>
<path opacity="0.95" fill-rule="evenodd" clip-rule="evenodd" d="M10 19C14.9706 19 19 14.9706 19 10C19 5.02944 14.9706 1 10 1C5.02944 1 1 5.02944 1 10C1 14.9706 5.02944 19 10 19ZM10 20C15.5228 20 20 15.5228 20 10C20 4.47715 15.5228 0 10 0C4.47715 0 0 4.47715 0 10C0 15.5228 4.47715 20 10 20Z" fill="#B3622E"/>
</g>
<defs>
<clipPath id="clip0">
<path d="M0 0H20V20H0V0Z" fill="white"/>
</clipPath>
</defs>

</g>%n%n
<g transform="translate(138.000000, 8.000000) scale(2.000000 2.000000) "> 

<path fill-rule="nonzero" fill="rgb(100%, 100%, 100%)" fill-opacity="1" d="M 2 4 L 2 1.5 C 2 1.222656 2.222656 1 2.5 1 C 2.777344 1 3 1.222656 3 1.5 L 3 4 L 3.5 4 L 3.5 1.5 C 3.5 1.222656 3.722656 1 4 1 C 4.277344 1 4.5 1.222656 4.5 1.5 L 4.5 4 L 5 4 L 5 1.5 C 5 1.222656 5.222656 1 5.5 1 C 5.777344 1 6 1.222656 6 1.5 L 6 4 C 6 4.933594 5.363281 5.714844 4.5 5.9375 L 4.5 11 L 3.5 11 L 3.5 5.9375 C 2.636719 5.714844 2 4.933594 2 4 Z M 2 4 "/>
<path fill-rule="nonzero" fill="rgb(100%, 100%, 100%)" fill-opacity="1" d="M 7 3 C 7 1.894531 7.894531 1 9 1 L 9 11 L 8 11 L 8 6.996094 C 7.441406 6.949219 7 6.480469 7 5.910156 Z M 7 3 "/>

</g>%n%n</svg>