<svg width="300" height="40" viewBox="0 0 300 40" fill="none" xmlns="http://www.w3.org/2000/svg" xmlns:xlink="http://www.w3.org/1999/xlink">

<g transform="translate(130.000000, 0.000000) scale(2.000000 2.000000) "> 

<g clip-path="url(#clip0)">
<path opacity="0.953" d="M9.99934 0C15.514 0 20 4.44646 20 10C20 15.5172 15.514 20 9.99934 20C4.48599 20 0 15.5172 0 10C0 4.44646 4.48599 0 9.99934 0V0Z" fill="#D17E4A"/>
<path opacity="0.95" fill-rule="evenodd" clip-rule="evenodd" d="M10 19C14.9706 19 19 14.9706 19 10C19 5.02944 14.9706 1 10 1C5.02944 1 1 5.02944 1 10C1 14.9706 5.02944 19 10 19ZM10 20C15.5228 20 20 15.5228 20 10C20 4.47715 15.5228 0 10 0C4.47715 0 0 4.47715 0 10C0 15.5228 4.47715 20 10 20Z" fill="#B3622E"/>
</g>
<defs>
<clipPath id="clip0">
<path d="M0 0H20V20H0V0Z" fill="white"/>
</clipPath>
</defs>

</g>%n%n
<g transform="translate(138.000000, 8.000000) scale(0.750000 0.750000) "> 

<path fill-rule="evenodd" fill="rgb(100%, 100%, 100%)" fill-opacity="1" d="M 6.667969 2.667969 C 6.128906 2.667969 5.640625 2.992188 5.433594 3.488281 C 5.226562 3.988281 5.34375 4.5625 5.722656 4.941406 L 14.667969 13.886719 L 14.667969 24.667969 L 9.191406 27.402344 C 8.460938 27.769531 8 28.515625 8 29.332031 L 24 29.332031 C 24 28.515625 23.539062 27.769531 22.808594 27.402344 L 17.332031 24.667969 L 17.332031 13.886719 L 26.277344 4.941406 C 26.65625 4.5625 26.773438 3.988281 26.566406 3.488281 C 26.359375 2.992188 25.871094 2.667969 25.332031 2.667969 Z M 22.113281 5.332031 L 16 11.449219 L 9.886719 5.332031 Z M 22.113281 5.332031 "/>

</g>%n%n</svg>