<svg width="300" height="40" viewBox="0 0 300 40" fill="none" xmlns="http://www.w3.org/2000/svg" xmlns:xlink="http://www.w3.org/1999/xlink">

<g transform="translate(130.000000, 0.000000) scale(2.000000 2.000000) "> 

<g clip-path="url(#clip0)">
<path opacity="0.953" d="M9.99934 0C15.514 0 20 4.44646 20 10C20 15.5172 15.514 20 9.99934 20C4.48599 20 0 15.5172 0 10C0 4.44646 4.48599 0 9.99934 0V0Z" fill="#D17E4A"/>
<path opacity="0.95" fill-rule="evenodd" clip-rule="evenodd" d="M10 19C14.9706 19 19 14.9706 19 10C19 5.02944 14.9706 1 10 1C5.02944 1 1 5.02944 1 10C1 14.9706 5.02944 19 10 19ZM10 20C15.5228 20 20 15.5228 20 10C20 4.47715 15.5228 0 10 0C4.47715 0 0 4.47715 0 10C0 15.5228 4.47715 20 10 20Z" fill="#B3622E"/>
</g>
<defs>
<clipPath id="clip0">
<path d="M0 0H20V20H0V0Z" fill="white"/>
</clipPath>
</defs>

</g>%n%n
<g transform="translate(138.000000, 8.000000) scale(0.750000 0.750000) "> 

<defs>
<filter id="filter-remove-color" x="0%" y="0%" width="100%" height="100%">
<feColorMatrix color-interpolation-filters="sRGB" values="0 0 0 0 1 0 0 0 0 1 0 0 0 0 1 0 0 0 1 0" />
</filter>
<mask id="mask-0">
<g filter="url(#filter-remove-color)">
<rect x="-3.2" y="-3.2" width="38.4" height="38.4" fill="rgb(0%, 0%, 0%)" fill-opacity="0.1"/>
</g>
</mask>
<clip100Path id="clip100-0">
<rect x="0" y="0" width="32" height="32"/>
</clip100Path>
<g id="source-7" clip100-path="url(#clip100-0)">
<path fill-rule="evenodd" fill="rgb(100%, 100%, 100%)" fill-opacity="1" d="M 7.132812 6.582031 L 24.242188 6.71875 L 21.472656 27.222656 L 9.765625 27.359375 Z M 7.132812 6.582031 "/>
</g>
</defs>
<path fill-rule="nonzero" fill="rgb(100%, 100%, 100%)" fill-opacity="1" d="M 25.832031 4.300781 L 25.820312 4.300781 C 25.835938 4.285156 25.84375 4.273438 25.84375 4.257812 C 25.84375 3.929688 21.371094 3.664062 15.855469 3.664062 C 10.335938 3.664062 5.863281 3.929688 5.863281 4.257812 C 5.863281 4.273438 5.871094 4.285156 5.886719 4.300781 L 5.863281 4.300781 L 8.980469 28.074219 L 8.996094 28.074219 C 8.96875 28.089844 8.953125 28.105469 8.953125 28.121094 C 8.953125 28.347656 12.042969 28.53125 15.855469 28.53125 C 19.664062 28.53125 22.753906 28.347656 22.753906 28.121094 C 22.753906 28.105469 22.738281 28.089844 22.710938 28.074219 Z M 20.710938 26.335938 C 20.550781 26.484375 11.078125 26.414062 10.917969 26.265625 L 7.957031 7.496094 C 13.203125 11.132812 16.652344 7 23.523438 7.355469 Z M 20.710938 26.335938 "/>
<g mask="url(#mask-0)">
<use xlink:href="#source-7"/>
</g>

</g>%n%n</svg>