<svg width="300" height="40" viewBox="0 0 300 40" fill="none" xmlns="http://www.w3.org/2000/svg" xmlns:xlink="http://www.w3.org/1999/xlink">

<g transform="translate(130.000000, 0.000000) scale(2.000000 2.000000) "> 

<g clip-path="url(#clip0)">
<path opacity="0.953" d="M9.99934 0C15.514 0 20 4.44646 20 10C20 15.5172 15.514 20 9.99934 20C4.48599 20 0 15.5172 0 10C0 4.44646 4.48599 0 9.99934 0V0Z" fill="#D17E4A"/>
<path opacity="0.95" fill-rule="evenodd" clip-rule="evenodd" d="M10 19C14.9706 19 19 14.9706 19 10C19 5.02944 14.9706 1 10 1C5.02944 1 1 5.02944 1 10C1 14.9706 5.02944 19 10 19ZM10 20C15.5228 20 20 15.5228 20 10C20 4.47715 15.5228 0 10 0C4.47715 0 0 4.47715 0 10C0 15.5228 4.47715 20 10 20Z" fill="#B3622E"/>
</g>
<defs>
<clipPath id="clip0">
<path d="M0 0H20V20H0V0Z" fill="white"/>
</clipPath>
</defs>

</g>%n%n
<g transform="translate(138.000000, 8.000000) scale(2.000000 2.000000) "> 

<defs>
<filter id="filter-remove-color" x="0%" y="0%" width="100%" height="100%">
<feColorMatrix color-interpolation-filters="sRGB" values="0 0 0 0 1 0 0 0 0 1 0 0 0 0 1 0 0 0 1 0" />
</filter>
<mask id="mask-0">
<g filter="url(#filter-remove-color)">
<rect x="-1.2" y="-1.2" width="14.4" height="14.4" fill="rgb(0%, 0%, 0%)" fill-opacity="0.1"/>
</g>
</mask>
<clip100Path id="clip100-0">
<rect x="0" y="0" width="12" height="12"/>
</clip100Path>
<g id="source-7" clip100-path="url(#clip100-0)">
<path fill-rule="evenodd" fill="rgb(100%, 100%, 100%)" fill-opacity="1" d="M 2.675781 2.46875 L 9.089844 2.519531 L 8.050781 10.207031 L 3.664062 10.257812 Z M 2.675781 2.46875 "/>
</g>
</defs>
<path fill-rule="nonzero" fill="rgb(100%, 100%, 100%)" fill-opacity="1" d="M 9.6875 1.613281 L 9.683594 1.613281 C 9.6875 1.605469 9.691406 1.601562 9.691406 1.597656 C 9.691406 1.472656 8.015625 1.375 5.945312 1.375 C 3.875 1.375 2.199219 1.472656 2.199219 1.597656 C 2.199219 1.601562 2.203125 1.605469 2.207031 1.613281 L 2.199219 1.613281 L 3.367188 10.527344 L 3.375 10.527344 C 3.363281 10.535156 3.359375 10.539062 3.359375 10.546875 C 3.359375 10.628906 4.515625 10.699219 5.945312 10.699219 C 7.375 10.699219 8.53125 10.628906 8.53125 10.546875 C 8.53125 10.539062 8.527344 10.535156 8.515625 10.527344 Z M 7.765625 9.875 C 7.707031 9.933594 4.152344 9.90625 4.09375 9.851562 L 2.984375 2.8125 C 4.949219 4.175781 6.246094 2.625 8.820312 2.757812 Z M 7.765625 9.875 "/>
<g mask="url(#mask-0)">
<use xlink:href="#source-7"/>
</g>

</g>%n%n</svg>