<svg width="40" height="40" viewBox="0 0 40 40" fill="none" xmlns="http://www.w3.org/2000/svg" >

<g transform="translate(0.000000, 0.000000) scale(2.000000 2.000000) "> 

<g clip-path="url(#clip0)">
<path opacity="0.953" d="M9.99934 0C15.514 0 20 4.44646 20 10C20 15.5172 15.514 20 9.99934 20C4.48599 20 0 15.5172 0 10C0 4.44646 4.48599 0 9.99934 0V0Z" fill="#D17E4A"/>
<path opacity="0.95" fill-rule="evenodd" clip-rule="evenodd" d="M10 19C14.9706 19 19 14.9706 19 10C19 5.02944 14.9706 1 10 1C5.02944 1 1 5.02944 1 10C1 14.9706 5.02944 19 10 19ZM10 20C15.5228 20 20 15.5228 20 10C20 4.47715 15.5228 0 10 0C4.47715 0 0 4.47715 0 10C0 15.5228 4.47715 20 10 20Z" fill="#B3622E"/>
</g>
<defs>
<clipPath id="clip0">
<path d="M0 0H20V20H0V0Z" fill="white"/>
</clipPath>
</defs>

</g>


<g transform="translate(8.000000, 8.000000) scale(0.041379 0.041379) "> 

<path d="M224.653 174.216L91.4082 539.01L397.343 308.597L224.653 174.216Z" stroke="#ffffff" stroke-width="27.9884" stroke-linejoin="round"/>
<path opacity="0.25" d="M391.243 128.08C395.369 171.953 363.148 210.863 319.276 214.989C275.404 219.115 236.493 186.895 232.367 143.022C228.241 99.15 260.462 60.2396 304.334 56.1135C348.206 51.9873 387.117 84.208 391.243 128.08Z" fill="#ffffff" stroke="#ffffff" stroke-width="35" stroke-linejoin="round"/>
<path d="M498.357 207.477C502.483 251.35 470.263 290.26 426.391 294.386C382.518 298.512 343.608 266.292 339.482 222.419C335.356 178.547 367.576 139.637 411.449 135.51C455.321 131.384 494.231 163.605 498.357 207.477Z" fill="#ffffff" stroke="#ffffff" stroke-width="35" stroke-linejoin="round"/>
<path d="M403.926 126.887C408.711 177.764 371.346 222.887 320.469 227.672C269.592 232.457 224.469 195.092 219.684 144.215C214.899 93.3378 252.264 48.2148 303.141 43.4299C354.018 38.645 399.141 76.0101 403.926 126.887Z" stroke="#ffffff" stroke-width="11.5966" stroke-linejoin="round"/>
<path opacity="0.01" d="M224.653 174.216L91.4082 539.01L397.343 308.597L224.653 174.216Z" fill="#ffffff" stroke="#ffffff" stroke-width="27.9884" stroke-linejoin="round"/>

</g>

</svg>