<svg width="300" height="40" viewBox="0 0 300 40" fill="none" xmlns="http://www.w3.org/2000/svg" xmlns:xlink="http://www.w3.org/1999/xlink">

<g transform="translate(130.000000, 0.000000) scale(2.000000 2.000000) "> 

<g clip-path="url(#clip0)">
<path opacity="0.953" d="M9.99934 0C15.514 0 20 4.44646 20 10C20 15.5172 15.514 20 9.99934 20C4.48599 20 0 15.5172 0 10C0 4.44646 4.48599 0 9.99934 0V0Z" fill="#D17E4A"/>
<path opacity="0.95" fill-rule="evenodd" clip-rule="evenodd" d="M10 19C14.9706 19 19 14.9706 19 10C19 5.02944 14.9706 1 10 1C5.02944 1 1 5.02944 1 10C1 14.9706 5.02944 19 10 19ZM10 20C15.5228 20 20 15.5228 20 10C20 4.47715 15.5228 0 10 0C4.47715 0 0 4.47715 0 10C0 15.5228 4.47715 20 10 20Z" fill="#B3622E"/>
</g>
<defs>
<clipPath id="clip0">
<path d="M0 0H20V20H0V0Z" fill="white"/>
</clipPath>
</defs>

</g>%n%n
<g transform="translate(138.000000, 8.000000) scale(0.750000 0.750000) "> 

<path fill-rule="nonzero" fill="rgb(100%, 100%, 100%)" fill-opacity="1" d="M 26.410156 5.589844 C 23.628906 2.808594 19.933594 1.277344 16 1.277344 C 12.066406 1.277344 8.371094 2.808594 5.589844 5.589844 C 2.808594 8.371094 1.277344 12.066406 1.277344 16 C 1.277344 19.933594 2.808594 23.628906 5.589844 26.410156 C 8.371094 29.191406 12.066406 30.722656 16 30.722656 C 19.933594 30.722656 23.628906 29.191406 26.410156 26.410156 C 29.191406 23.628906 30.722656 19.933594 30.722656 16 C 30.722656 12.066406 29.191406 8.371094 26.410156 5.589844 Z M 16 29.425781 C 8.597656 29.425781 2.574219 23.402344 2.574219 16 C 2.574219 8.597656 8.597656 2.574219 16 2.574219 C 23.402344 2.574219 29.425781 8.597656 29.425781 16 C 29.425781 23.402344 23.402344 29.425781 16 29.425781 Z M 16 29.425781 "/>
<path fill-rule="nonzero" fill="rgb(100%, 100%, 100%)" fill-opacity="1" d="M 11.710938 5.597656 C 10.765625 5.597656 8.9375 7.996094 8.9375 10.1875 C 8.9375 11.949219 9.742188 13.441406 10.855469 13.957031 L 10.625 26.402344 L 12.796875 26.402344 L 12.566406 13.957031 C 13.679688 13.441406 14.484375 11.949219 14.484375 10.1875 C 14.484375 7.996094 12.65625 5.597656 11.710938 5.597656 Z M 11.710938 5.597656 "/>
<path fill-rule="nonzero" fill="rgb(100%, 100%, 100%)" fill-opacity="1" d="M 23.0625 11.902344 L 22.773438 5.910156 C 22.773438 5.792969 22.679688 5.703125 22.566406 5.703125 L 22.429688 5.703125 C 22.316406 5.703125 22.222656 5.792969 22.222656 5.910156 L 22.320312 11.902344 L 21.71875 11.902344 L 21.570312 5.851562 C 21.570312 5.738281 21.476562 5.644531 21.363281 5.644531 L 21.183594 5.644531 C 21.070312 5.644531 20.976562 5.738281 20.976562 5.851562 L 21.058594 11.902344 L 20.316406 11.902344 L 20.398438 5.851562 C 20.398438 5.738281 20.304688 5.644531 20.191406 5.644531 L 20.015625 5.644531 C 19.898438 5.644531 19.804688 5.738281 19.804688 5.851562 L 19.65625 11.902344 L 19.070312 11.902344 L 19.164062 5.910156 C 19.164062 5.796875 19.074219 5.703125 18.957031 5.703125 L 18.820312 5.703125 C 18.707031 5.703125 18.613281 5.796875 18.613281 5.910156 L 18.3125 11.902344 C 18.3125 13.664062 18.71875 14.328125 19.832031 14.84375 L 19.601562 26.402344 L 21.773438 26.402344 L 21.542969 14.84375 C 22.65625 14.328125 23.0625 13.664062 23.0625 11.902344 Z M 23.0625 11.902344 "/>

</g>%n%n</svg>