<svg width="300" height="40" viewBox="0 0 300 40" fill="none" xmlns="http://www.w3.org/2000/svg" xmlns:xlink="http://www.w3.org/1999/xlink">

<g transform="translate(130.000000, 0.000000) scale(2.000000 2.000000) "> 

<g clip-path="url(#clip0)">
<path opacity="0.953" d="M9.99934 0C15.514 0 20 4.44646 20 10C20 15.5172 15.514 20 9.99934 20C4.48599 20 0 15.5172 0 10C0 4.44646 4.48599 0 9.99934 0V0Z" fill="#D17E4A"/>
<path opacity="0.95" fill-rule="evenodd" clip-rule="evenodd" d="M10 19C14.9706 19 19 14.9706 19 10C19 5.02944 14.9706 1 10 1C5.02944 1 1 5.02944 1 10C1 14.9706 5.02944 19 10 19ZM10 20C15.5228 20 20 15.5228 20 10C20 4.47715 15.5228 0 10 0C4.47715 0 0 4.47715 0 10C0 15.5228 4.47715 20 10 20Z" fill="#B3622E"/>
</g>
<defs>
<clipPath id="clip0">
<path d="M0 0H20V20H0V0Z" fill="white"/>
</clipPath>
</defs>

</g>%n%n
<g transform="translate(138.000000, 8.000000) scale(2.000000 2.000000) "> 

<defs>
<filter id="filter-remove-color" x="0%" y="0%" width="100%" height="100%">
<feColorMatrix color-interpolation-filters="sRGB" values="0 0 0 0 1 0 0 0 0 1 0 0 0 0 1 0 0 0 1 0" />
</filter>
<mask id="mask-0">
<g filter="url(#filter-remove-color)">
<rect x="-1.2" y="-1.2" width="14.4" height="14.4" fill="rgb(0%, 0%, 0%)" fill-opacity="0.985122"/>
</g>
</mask>
<clip100Path id="clip100-0">
<rect x="0" y="0" width="12" height="12"/>
</clip100Path>
<g id="source-6" clip100-path="url(#clip100-0)">
<path fill-rule="nonzero" fill="rgb(100%, 100%, 100%)" fill-opacity="1" stroke-width="15" stroke-linecap="round" stroke-linejoin="round" stroke="rgb(100%, 100%, 100%)" stroke-opacity="1" stroke-miterlimit="4" d="M 426.88151 51.731771 C 415.175781 56.074219 399.127604 62.49349 393.27474 62.49349 C 387.233073 62.49349 382.324219 57.584635 382.324219 51.731771 C 382.324219 45.690104 387.233073 40.78125 393.27474 40.78125 C 398.938802 40.970052 415.553385 47.766927 426.88151 51.731771 Z M 426.88151 51.731771 " transform="matrix(0.0206897, 0, 0, 0.0206897, 0, 0)"/>
</g>
<mask id="mask-1">
<g filter="url(#filter-remove-color)">
<rect x="-1.2" y="-1.2" width="14.4" height="14.4" fill="rgb(0%, 0%, 0%)" fill-opacity="0.985122"/>
</g>
</mask>
<clip100Path id="clip100-1">
<rect x="0" y="0" width="12" height="12"/>
</clip100Path>
<g id="source-10" clip100-path="url(#clip100-1)">
<path fill-rule="nonzero" fill="rgb(100%, 100%, 100%)" fill-opacity="1" stroke-width="15" stroke-linecap="round" stroke-linejoin="round" stroke="rgb(100%, 100%, 100%)" stroke-opacity="1" stroke-miterlimit="4" d="M 416.308594 51.731771 C 428.014323 56.074219 444.0625 62.49349 450.104167 62.49349 C 455.957031 62.49349 460.865885 57.584635 460.865885 51.731771 C 460.865885 45.690104 455.957031 40.78125 450.104167 40.78125 C 444.251302 40.970052 427.636719 47.766927 416.308594 51.731771 Z M 416.308594 51.731771 " transform="matrix(0.0206897, 0, 0, 0.0206897, 0, 0)"/>
</g>
<mask id="mask-2">
<g filter="url(#filter-remove-color)">
<rect x="-1.2" y="-1.2" width="14.4" height="14.4" fill="rgb(0%, 0%, 0%)" fill-opacity="0.985122"/>
</g>
</mask>
<clip100Path id="clip100-2">
<rect x="0" y="0" width="12" height="12"/>
</clip100Path>
<g id="source-15" clip100-path="url(#clip100-2)">
<path fill-rule="nonzero" fill="rgb(100%, 100%, 100%)" fill-opacity="1" stroke-width="30" stroke-linecap="round" stroke-linejoin="round" stroke="rgb(100%, 100%, 100%)" stroke-opacity="1" stroke-miterlimit="4" d="M 444.251302 137.447917 C 444.251302 143.300781 443.684896 149.342448 442.552083 154.817708 C 441.419271 160.292969 439.720052 165.390625 437.643229 169.544271 C 435.377604 173.886719 432.923177 177.285156 430.091146 179.550781 C 427.447917 181.816406 424.427083 182.949219 421.40625 182.949219 C 418.385417 182.949219 415.553385 181.816406 412.721354 179.550781 C 409.889323 177.285156 407.434896 173.886719 405.358073 169.544271 C 403.28125 165.390625 401.582031 160.292969 400.449219 154.817708 C 399.316406 149.342448 398.75 143.300781 398.75 137.447917 C 398.75 131.40625 399.316406 125.553385 400.449219 119.889323 C 401.582031 114.414062 403.28125 109.316406 405.358073 105.16276 C 407.434896 101.009115 409.889323 97.610677 412.721354 95.345052 C 415.553385 93.079427 418.385417 91.757812 421.40625 91.757812 C 424.427083 91.757812 427.447917 93.079427 430.091146 95.345052 C 432.923177 97.610677 435.377604 101.009115 437.643229 105.16276 C 439.720052 109.316406 441.419271 114.414062 442.552083 119.889323 C 443.684896 125.553385 444.251302 131.40625 444.251302 137.447917 Z M 444.251302 137.447917 " transform="matrix(0.0206897, 0, 0, 0.0206897, 0, 0)"/>
</g>
<mask id="mask-3">
<g filter="url(#filter-remove-color)">
<rect x="-1.2" y="-1.2" width="14.4" height="14.4" fill="rgb(0%, 0%, 0%)" fill-opacity="0.1"/>
</g>
</mask>
<clip100Path id="clip100-3">
<rect x="0" y="0" width="12" height="12"/>
</clip100Path>
<g id="source-21" clip100-path="url(#clip100-3)">
<path fill-rule="evenodd" fill="rgb(100%, 100%, 100%)" fill-opacity="1" d="M 3.894531 5.722656 L 7.925781 5.757812 L 7.273438 10.917969 L 4.515625 10.953125 Z M 3.894531 5.722656 "/>
</g>
</defs>
<g mask="url(#mask-0)">
<use xlink:href="#source-6"/>
</g>
<g mask="url(#mask-1)">
<use xlink:href="#source-10"/>
</g>
<path fill="none" stroke-width="30" stroke-linecap="round" stroke-linejoin="miter" stroke="rgb(100%, 100%, 100%)" stroke-opacity="1" stroke-miterlimit="4" d="M 421.40625 51.165365 L 421.40625 117.246094 L 422.35026 143.111979 " transform="matrix(0.0206897, 0, 0, 0.0206897, 0, 0)"/>
<g mask="url(#mask-2)">
<use xlink:href="#source-15"/>
</g>
<path fill="none" stroke-width="50" stroke-linecap="butt" stroke-linejoin="miter" stroke="rgb(100%, 100%, 100%)" stroke-opacity="1" stroke-miterlimit="4" d="M 542.994792 142.734375 L 364.954427 141.790365 L 350.983073 141.790365 C 281.503906 140.657552 285.846354 205.794271 285.846354 205.794271 " transform="matrix(0.0206897, 0, 0, 0.0206897, 0, 0)"/>
<path fill-rule="nonzero" fill="rgb(100%, 100%, 100%)" fill-opacity="1" d="M 8.300781 5.476562 L 8.296875 5.476562 C 8.300781 5.472656 8.304688 5.46875 8.304688 5.464844 C 8.304688 5.390625 7.25 5.328125 5.949219 5.328125 C 4.648438 5.328125 3.59375 5.390625 3.59375 5.464844 C 3.59375 5.46875 3.597656 5.472656 3.601562 5.476562 L 3.59375 5.476562 L 4.328125 11.078125 L 4.332031 11.078125 C 4.324219 11.082031 4.324219 11.085938 4.324219 11.089844 C 4.324219 11.144531 5.050781 11.1875 5.949219 11.1875 C 6.847656 11.1875 7.574219 11.144531 7.574219 11.089844 C 7.574219 11.085938 7.570312 11.082031 7.566406 11.078125 Z M 7.09375 10.667969 C 7.054688 10.703125 4.824219 10.6875 4.785156 10.652344 L 4.085938 5.816406 C 5.277344 5.820312 6.136719 5.878906 7.757812 5.78125 Z M 7.09375 10.667969 "/>
<g mask="url(#mask-3)">
<use xlink:href="#source-21"/>
</g>

</g>%n%n</svg>