<svg width="40" height="40" viewBox="0 0 40 40" fill="none" xmlns="http://www.w3.org/2000/svg" >

<g transform="translate(0.000000, 0.000000) scale(2.000000 2.000000) "> 

<g clip-path="url(#clip0)">
<path opacity="0.949" d="M9.9994 1C14.9626 1 19 5.00181 19 10C19 14.9655 14.9626 19 9.9994 19C5.0374 19 1 14.9655 1 10C1 5.00181 5.0374 1 9.9994 1Z" fill="#45ABE9"/>
<path opacity="0.95" fill-rule="evenodd" clip-rule="evenodd" d="M10 19C14.9706 19 19 14.9706 19 10C19 5.02944 14.9706 1 10 1C5.02944 1 1 5.02944 1 10C1 14.9706 5.02944 19 10 19ZM10 20C15.5228 20 20 15.5228 20 10C20 4.47715 15.5228 0 10 0C4.47715 0 0 4.47715 0 10C0 15.5228 4.47715 20 10 20Z" fill="#1578B3"/>
</g>
<defs>
<clipPath id="clip0">
<path d="M0 0H20V20H0V0Z" fill="white"/>
</clipPath>
</defs>

</g>


<g transform="translate(8.000000, 8.000000) scale(0.041379 0.041379) "> 

<path d="M93.5013 130.791C67.4215 154.439 34.9075 176.106 34.9075 176.106V196.311L58.2504 217.497H194.705L194.337 242.889L137.211 243.388L94.579 317.915L34.9075 334.079V409.848H82.1874C82.1598 409.31 82.14 408.77 82.1283 408.231C82.1286 378.048 106.597 353.581 136.779 353.582C166.961 353.582 191.428 378.049 191.428 408.231C191.409 408.77 191.383 409.31 191.348 409.848H367.647C367.621 409.31 367.602 408.77 367.591 408.231C367.591 378.049 392.058 353.582 422.239 353.582C452.421 353.582 476.888 378.049 476.888 408.231C476.869 408.77 476.843 409.31 476.808 409.848H545.092V151.86H402.643L376.378 130.791H93.5013ZM100.407 155.883H194.705V195.887H100.407V155.883ZM386.808 217.497H481.103V289.646H386.808V217.497ZM266.436 217.497H347.159V386.441H266.436V217.497ZM153.749 267.263H194.285V318.624H126.075L153.749 267.263ZM422.239 373.252C402.921 373.252 387.261 388.913 387.261 408.231C387.261 427.549 402.921 443.209 422.239 443.209C441.557 443.209 457.217 427.549 457.218 408.231C457.217 388.913 441.557 373.252 422.239 373.252ZM136.779 373.756C117.74 373.756 102.305 389.191 102.305 408.231C102.305 427.271 117.74 442.705 136.779 442.705C155.818 442.704 171.251 427.269 171.251 408.231C171.251 389.192 155.818 373.757 136.779 373.756Z" fill="#ffffff"/>

</g>

</svg>