<svg width="300" height="40" viewBox="0 0 300 40" fill="none" xmlns="http://www.w3.org/2000/svg" xmlns:xlink="http://www.w3.org/1999/xlink" version="1.1">

<g transform="translate(130.000000, 0.000000) scale(2.000000 2.000000) "> 

<g clip-path="url(#clip0)">
<path opacity="0.949" d="M9.9994 1C14.9626 1 19 5.00181 19 10C19 14.9655 14.9626 19 9.9994 19C5.0374 19 1 14.9655 1 10C1 5.00181 5.0374 1 9.9994 1Z" fill="#45ABE9"/>
<path opacity="0.95" fill-rule="evenodd" clip-rule="evenodd" d="M10 19C14.9706 19 19 14.9706 19 10C19 5.02944 14.9706 1 10 1C5.02944 1 1 5.02944 1 10C1 14.9706 5.02944 19 10 19ZM10 20C15.5228 20 20 15.5228 20 10C20 4.47715 15.5228 0 10 0C4.47715 0 0 4.47715 0 10C0 15.5228 4.47715 20 10 20Z" fill="#1578B3"/>
</g>
<defs>
<clipPath id="clip0">
<path d="M0 0H20V20H0V0Z" fill="white"/>
</clipPath>
</defs>

</g>%n%n
<g transform="translate(138.000000, 8.000000) scale(2.000000 2.000000) "> 

<defs>
<filter id="alpha" filterUnits="objectBoundingBox" x="0%" y="0%" width="100%" height="100%">
  <feColorMatrix type="matrix" in="SourceGraphic" values="0 0 0 0 1 0 0 0 0 1 0 0 0 0 1 0 0 0 1 0"/>
</filter>
<mask id="mask0">
  <g filter="url(#alpha)">
<rect x="0" y="0" width="12" height="12" style="fill:rgb(0%,0%,0%);fill-opacity:0.345;stroke:none;"/>
  </g>
</mask>
<clip100Path id="clip1001">
  <rect x="0" y="0" width="12" height="12"/>
</clip100Path>
<g id="surface5" clip100-path="url(#clip1001)">
<path style="fill-rule:evenodd;fill:rgb(100%,100%,100%);fill-opacity:1;stroke-width:1.0696;stroke-linecap:butt;stroke-linejoin:miter;stroke:rgb(100%,100%,100%);stroke-opacity:1;stroke-miterlimit:4;" d="M 294.908854 40.214844 L 86.09375 198.053385 L 145.188802 198.053385 L 145.188802 520.14974 L 334.746094 520.14974 L 334.746094 471.438802 L 335.690104 471.438802 L 335.690104 520.14974 L 444.440104 520.14974 L 444.440104 198.053385 L 503.535156 198.053385 Z M 294.908854 40.214844 " transform="matrix(0.0206897,0,0,0.0206897,0,0)"/>
</g>
</defs>
<g id="surface1">
<path style="fill:none;stroke-width:33.622002;stroke-linecap:butt;stroke-linejoin:miter;stroke:rgb(100%,100%,100%);stroke-opacity:1;stroke-miterlimit:4;" d="M 53.053385 279.238281 L 53.053385 513.352865 " transform="matrix(0.0206897,0,0,0.0206897,0,0)"/>
<path style="fill:none;stroke-width:33.622002;stroke-linecap:butt;stroke-linejoin:miter;stroke:rgb(100%,100%,100%);stroke-opacity:1;stroke-miterlimit:4;" d="M 65.514323 433.867188 L 515.807292 433.867188 " transform="matrix(0.0206897,0,0,0.0206897,0,0)"/>
<path style="fill:none;stroke-width:33.622002;stroke-linecap:butt;stroke-linejoin:miter;stroke:rgb(100%,100%,100%);stroke-opacity:1;stroke-miterlimit:4;" d="M 530.345052 504.479167 L 530.345052 351.360677 " transform="matrix(0.0206897,0,0,0.0206897,0,0)"/>
<path style="fill-rule:nonzero;fill:rgb(100%,100%,100%);fill-opacity:1;stroke-width:35.450298;stroke-linecap:butt;stroke-linejoin:miter;stroke:rgb(100%,100%,100%);stroke-opacity:1;stroke-miterlimit:4;" d="M 450.104167 337.200521 L 271.308594 337.200521 C 260.735677 337.200521 252.050781 345.696615 252.050781 356.458333 C 252.050781 367.03125 260.735677 375.716146 271.308594 375.716146 L 450.104167 375.716146 C 460.865885 375.716146 469.361979 367.03125 469.361979 356.458333 C 469.361979 345.696615 460.865885 337.200521 450.104167 337.200521 Z M 450.104167 337.200521 " transform="matrix(0.0206897,0,0,0.0206897,0,0)"/>
<path style="fill-rule:nonzero;fill:rgb(100%,100%,100%);fill-opacity:1;stroke-width:49.7136;stroke-linecap:butt;stroke-linejoin:miter;stroke:rgb(100%,100%,100%);stroke-opacity:1;stroke-miterlimit:4;" d="M 161.236979 302.460938 C 178.229167 302.460938 192.011719 289.244792 192.011719 272.630208 C 192.011719 256.204427 178.229167 242.988281 161.236979 242.988281 C 144.05599 242.988281 130.273438 256.204427 130.273438 272.630208 C 130.273438 289.244792 144.05599 302.460938 161.236979 302.460938 Z M 161.236979 302.460938 " transform="matrix(0.0206897,0,0,0.0206897,0,0)"/>
<path style="fill-rule:nonzero;fill:rgb(100%,100%,100%);fill-opacity:1;stroke-width:30.9611;stroke-linecap:butt;stroke-linejoin:miter;stroke:rgb(100%,100%,100%);stroke-opacity:1;stroke-miterlimit:4;" d="M 194.466146 367.597656 L 117.057292 367.597656 C 115.169271 367.597656 113.658854 369.108073 113.658854 370.996094 C 113.658854 372.884115 115.169271 374.583333 117.057292 374.583333 L 194.466146 374.583333 C 196.354167 374.583333 198.053385 372.884115 198.053385 370.996094 C 198.053385 369.108073 196.354167 367.597656 194.466146 367.597656 Z M 194.466146 367.597656 " transform="matrix(0.0206897,0,0,0.0206897,0,0)"/>
<use xlink:href="#surface5" mask="url(#mask0)"/>
</g>

</g>%n%n</svg>