<svg width="300" height="40" viewBox="0 0 300 40" fill="none" xmlns="http://www.w3.org/2000/svg" xmlns:xlink="http://www.w3.org/1999/xlink">

<g transform="translate(130.000000, 0.000000) scale(2.000000 2.000000) "> 

<g clip-path="url(#clip0)">
<path opacity="0.949" d="M9.9994 1C14.9626 1 19 5.00181 19 10C19 14.9655 14.9626 19 9.9994 19C5.0374 19 1 14.9655 1 10C1 5.00181 5.0374 1 9.9994 1Z" fill="#45ABE9"/>
<path opacity="0.95" fill-rule="evenodd" clip-rule="evenodd" d="M10 19C14.9706 19 19 14.9706 19 10C19 5.02944 14.9706 1 10 1C5.02944 1 1 5.02944 1 10C1 14.9706 5.02944 19 10 19ZM10 20C15.5228 20 20 15.5228 20 10C20 4.47715 15.5228 0 10 0C4.47715 0 0 4.47715 0 10C0 15.5228 4.47715 20 10 20Z" fill="#1578B3"/>
</g>
<defs>
<clipPath id="clip0">
<path d="M0 0H20V20H0V0Z" fill="white"/>
</clipPath>
</defs>

</g>%n%n
<g transform="translate(138.000000, 8.000000) scale(2.000000 2.000000) "> 

<path fill-rule="nonzero" fill="rgb(100%, 100%, 100%)" fill-opacity="1" d="M 1.933594 2.707031 C 1.394531 3.195312 0.722656 3.644531 0.722656 3.644531 L 0.722656 4.0625 L 1.207031 4.5 L 4.027344 4.5 L 4.019531 5.023438 L 2.839844 5.035156 L 1.957031 6.578125 L 0.722656 6.910156 L 0.722656 8.480469 L 1.699219 8.480469 C 1.699219 8.46875 1.699219 8.457031 1.699219 8.445312 C 1.699219 7.820312 2.207031 7.316406 2.828125 7.316406 C 3.453125 7.316406 3.960938 7.820312 3.960938 8.445312 C 3.960938 8.457031 3.960938 8.46875 3.957031 8.480469 L 7.605469 8.480469 C 7.605469 8.46875 7.605469 8.457031 7.605469 8.445312 C 7.605469 7.820312 8.113281 7.316406 8.734375 7.316406 C 9.359375 7.316406 9.867188 7.820312 9.867188 8.445312 C 9.867188 8.457031 9.867188 8.46875 9.863281 8.480469 L 11.277344 8.480469 L 11.277344 3.140625 L 8.332031 3.140625 L 7.789062 2.707031 Z M 2.078125 3.226562 L 4.027344 3.226562 L 4.027344 4.054688 L 2.078125 4.054688 Z M 8.003906 4.5 L 9.953125 4.5 L 9.953125 5.992188 L 8.003906 5.992188 Z M 5.511719 4.5 L 7.183594 4.5 L 7.183594 7.996094 L 5.511719 7.996094 Z M 3.179688 5.53125 L 4.019531 5.53125 L 4.019531 6.59375 L 2.609375 6.59375 Z M 8.734375 7.722656 C 8.335938 7.722656 8.011719 8.046875 8.011719 8.445312 C 8.011719 8.847656 8.335938 9.167969 8.734375 9.167969 C 9.136719 9.167969 9.460938 8.847656 9.460938 8.445312 C 9.460938 8.046875 9.136719 7.722656 8.734375 7.722656 Z M 2.828125 7.734375 C 2.4375 7.734375 2.117188 8.050781 2.117188 8.445312 C 2.117188 8.839844 2.4375 9.160156 2.828125 9.160156 C 3.222656 9.160156 3.542969 8.839844 3.542969 8.445312 C 3.542969 8.050781 3.222656 7.734375 2.828125 7.734375 Z M 2.828125 7.734375 "/>

</g>%n%n</svg>