<svg width="300" height="35" viewBox="0 0 300 35" fill="none" xmlns="http://www.w3.org/2000/svg">

<g transform="translate(135.000000, 2.000000) scale(1.500000 1.500000) "> 

<g clip-path="url(#clip0)">
<path opacity="0.949" d="M9.9994 1C14.9626 1 19 5.00181 19 10C19 14.9655 14.9626 19 9.9994 19C5.0374 19 1 14.9655 1 10C1 5.00181 5.0374 1 9.9994 1Z" fill="#45ABE9"/>
<path opacity="0.95" fill-rule="evenodd" clip-rule="evenodd" d="M10 19C14.9706 19 19 14.9706 19 10C19 5.02944 14.9706 1 10 1C5.02944 1 1 5.02944 1 10C1 14.9706 5.02944 19 10 19ZM10 20C15.5228 20 20 15.5228 20 10C20 4.47715 15.5228 0 10 0C4.47715 0 0 4.47715 0 10C0 15.5228 4.47715 20 10 20Z" fill="#1578B3"/>
</g>
<defs>
<clipPath id="clip0">
<path d="M0 0H20V20H0V0Z" fill="white"/>
</clipPath>
</defs>

</g>


<g transform="translate(141.000000, 8.000000) scale(0.031034 0.031034) "> 

<path fill-rule="evenodd" clip100-rule="evenodd" d="M288.272 138.471C286.762 146.8 92.8252 507.193 92.8252 507.193L483.173 506.547L288.272 138.471Z" stroke="#ffffff" stroke-width="26.2797"/>
<path fill-rule="evenodd" clip100-rule="evenodd" d="M288.272 162.581C287.532 166.66 275.502 187.262 301.104 277.13C327.777 370.757 399.376 507.193 399.376 507.193L483.173 506.547L288.272 162.581Z" fill="#ffffff" stroke="#ffffff" stroke-width="26.2797"/>
<path fill-rule="evenodd" clip100-rule="evenodd" d="M291.652 162.581C292.392 166.66 304.422 187.262 278.82 277.13C252.147 370.757 180.548 507.193 180.548 507.193L96.751 506.547L291.652 162.581Z" fill="#ffffff" stroke="#ffffff" stroke-width="26.2797"/>
<path fill-rule="evenodd" clip100-rule="evenodd" d="M249.696 63.7305L483.174 506.547L249.696 63.7305Z" stroke="#ffffff" stroke-width="26.2797"/>
<path fill-rule="evenodd" clip100-rule="evenodd" d="M328.515 66.1414L95.3933 506.547L328.515 66.1414Z" stroke="#ffffff" stroke-width="26.2797"/>

</g>

</svg>