<svg width="40" height="40" viewBox="0 0 40 40" fill="none" xmlns="http://www.w3.org/2000/svg" >

<g transform="translate(0.000000, 0.000000) scale(2.000000 2.000000) "> 

<g clip-path="url(#clip0)">
<path opacity="0.949" d="M9.9994 1C14.9626 1 19 5.00181 19 10C19 14.9655 14.9626 19 9.9994 19C5.0374 19 1 14.9655 1 10C1 5.00181 5.0374 1 9.9994 1Z" fill="#45ABE9"/>
<path opacity="0.95" fill-rule="evenodd" clip-rule="evenodd" d="M10 19C14.9706 19 19 14.9706 19 10C19 5.02944 14.9706 1 10 1C5.02944 1 1 5.02944 1 10C1 14.9706 5.02944 19 10 19ZM10 20C15.5228 20 20 15.5228 20 10C20 4.47715 15.5228 0 10 0C4.47715 0 0 4.47715 0 10C0 15.5228 4.47715 20 10 20Z" fill="#1578B3"/>
</g>
<defs>
<clipPath id="clip0">
<path d="M0 0H20V20H0V0Z" fill="white"/>
</clipPath>
</defs>

</g>


<g transform="translate(8.000000, 8.000000) scale(2.000000 2.000000) "> 

<path fill-rule="evenodd" clip100-rule="evenodd" d="M90.6554 223.21L290 117.107L489.345 223.21L475.997 236.775L409.352 209.947L289.929 195.604L170.232 209.74L103.936 236.476L90.6554 223.21Z" fill="#ffffff" stroke="#ffffff" stroke-width="22.9443" stroke-linecap="round" stroke-linejoin="round"/>
<path d="M163.623 435.706V460.51H427.967V435.706H163.623Z" fill="#ffffff" stroke="#ffffff" stroke-width="25.1652" stroke-linecap="round" stroke-linejoin="round"/>
<path d="M156.779 222.694H131.925V461.565H156.779V222.694Z" fill="#ffffff" stroke="#ffffff" stroke-width="25.1652" stroke-linecap="round" stroke-linejoin="round"/>

</g>

</svg>