<svg width="40" height="40" viewBox="0 0 40 40" fill="none" xmlns="http://www.w3.org/2000/svg" >

<g transform="translate(0.000000, 0.000000) scale(2.000000 2.000000) "> 

<g clip-path="url(#clip0)">
<path opacity="0.949" d="M9.9994 1C14.9626 1 19 5.00181 19 10C19 14.9655 14.9626 19 9.9994 19C5.0374 19 1 14.9655 1 10C1 5.00181 5.0374 1 9.9994 1Z" fill="#45ABE9"/>
<path opacity="0.95" fill-rule="evenodd" clip-rule="evenodd" d="M10 19C14.9706 19 19 14.9706 19 10C19 5.02944 14.9706 1 10 1C5.02944 1 1 5.02944 1 10C1 14.9706 5.02944 19 10 19ZM10 20C15.5228 20 20 15.5228 20 10C20 4.47715 15.5228 0 10 0C4.47715 0 0 4.47715 0 10C0 15.5228 4.47715 20 10 20Z" fill="#1578B3"/>
</g>
<defs>
<clipPath id="clip0">
<path d="M0 0H20V20H0V0Z" fill="white"/>
</clipPath>
</defs>

</g>


<g transform="translate(8.000000, 8.000000) scale(2.000000 2.000000) "> 

<path fill-rule="evenodd" clip100-rule="evenodd" d="M33.3726 242.466L290 105.598L546.628 242.466L529.445 259.964L443.649 225.358L289.908 206.855L135.817 225.09L50.4698 259.579L33.3726 242.466Z" fill="#ffffff" stroke="#ffffff" stroke-width="22.9443" stroke-linecap="round" stroke-linejoin="round"/>
<path d="M491.298 233.657H459.175V502.732H491.298V233.657Z" fill="#ffffff" stroke="#ffffff" stroke-width="23.563" stroke-linecap="round" stroke-linejoin="round"/>
<path d="M117.823 233.657H85.6997V502.732H117.823V233.657Z" fill="#ffffff" stroke="#ffffff" stroke-width="23.563" stroke-linecap="round" stroke-linejoin="round"/>
<path d="M394.494 38.6136H371.647V500.768H394.494V38.6136Z" fill="#ffffff" stroke="#ffffff" stroke-width="26.043" stroke-linecap="round" stroke-linejoin="round"/>
<path d="M294.022 356.569H261.632V505.193H294.022V356.569Z" fill="#ffffff" stroke="#ffffff" stroke-width="17.5847" stroke-linecap="round" stroke-linejoin="round"/>
<path d="M392.128 330.072H265.515V409.087H392.128V330.072Z" fill="#ffffff" stroke="#ffffff" stroke-width="25.3501" stroke-linecap="round" stroke-linejoin="round"/>

</g>

</svg>