<svg width="300" height="40" viewBox="0 0 300 40" fill="none" xmlns="http://www.w3.org/2000/svg" xmlns:xlink="http://www.w3.org/1999/xlink">

<g transform="translate(130.000000, 0.000000) scale(2.000000 2.000000) "> 

<g clip-path="url(#clip0)">
<path opacity="0.949" d="M9.9994 1C14.9626 1 19 5.00181 19 10C19 14.9655 14.9626 19 9.9994 19C5.0374 19 1 14.9655 1 10C1 5.00181 5.0374 1 9.9994 1Z" fill="#45ABE9"/>
<path opacity="0.95" fill-rule="evenodd" clip-rule="evenodd" d="M10 19C14.9706 19 19 14.9706 19 10C19 5.02944 14.9706 1 10 1C5.02944 1 1 5.02944 1 10C1 14.9706 5.02944 19 10 19ZM10 20C15.5228 20 20 15.5228 20 10C20 4.47715 15.5228 0 10 0C4.47715 0 0 4.47715 0 10C0 15.5228 4.47715 20 10 20Z" fill="#1578B3"/>
</g>
<defs>
<clipPath id="clip0">
<path d="M0 0H20V20H0V0Z" fill="white"/>
</clipPath>
</defs>

</g>%n%n
<g transform="translate(138.000000, 8.000000) scale(0.750000 0.750000) "> 

<defs>
<filter id="filter-remove-color" x="0%" y="0%" width="100%" height="100%">
<feColorMatrix color-interpolation-filters="sRGB" values="0 0 0 0 1 0 0 0 0 1 0 0 0 0 1 0 0 0 1 0" />
</filter>
<mask id="mask-0">
<g filter="url(#filter-remove-color)">
<rect x="-3.2" y="-3.2" width="38.4" height="38.4" fill="rgb(0%, 0%, 0%)" fill-opacity="0.5"/>
</g>
</mask>
<mask id="mask-1">
<g filter="url(#filter-remove-color)">
<rect x="-7.04" y="-7.04" width="46.08" height="46.08" fill="rgb(0%, 0%, 0%)" fill-opacity="0.5"/>
</g>
</mask>
<clip100Path id="clip100-0">
<path clip100-rule="nonzero" d="M 4 5 L 32 5 L 32 32 L 4 32 Z M 4 5 "/>
</clip100Path>
<clip100Path id="clip100-1">
<rect x="0" y="0" width="32" height="32"/>
</clip100Path>
<g id="source-7" clip100-path="url(#clip100-1)">
<g clip100-path="url(#clip100-0)">
<path fill="none" stroke-width="16.4112" stroke-linecap="butt" stroke-linejoin="miter" stroke="rgb(100%, 100%, 100%)" stroke-opacity="1" stroke-miterlimit="4" d="M 393.652344 212.756348 C 371.066895 260.688477 348.410645 308.549805 325.683594 356.411133 C 313.081055 339.064941 300.407715 321.71875 287.592773 304.443359 C 248.510742 367.03125 209.782715 429.902344 170.34668 492.348633 C 293.256836 493.410645 416.166992 494.331055 539.006348 495.393066 C 492.702637 396.90918 446.115723 298.496094 399.599609 200.083008 C 397.617188 204.331055 395.634766 208.508301 393.652344 212.756348 Z M 393.652344 212.756348 " transform="matrix(0.0551724, 0, 0, 0.0551724, 0, 0)"/>
</g>
</g>
<mask id="mask-2">
<g filter="url(#filter-remove-color)">
<rect x="-7.04" y="-7.04" width="46.08" height="46.08" fill="rgb(0%, 0%, 0%)" fill-opacity="0.5"/>
</g>
</mask>
<clip100Path id="clip100-2">
<rect x="0" y="0" width="32" height="32"/>
</clip100Path>
<g id="source-11" clip100-path="url(#clip100-2)">
<path fill-rule="nonzero" fill="rgb(100%, 100%, 100%)" fill-opacity="1" d="M 22.046875 9.980469 L 21.640625 10.847656 L 21.3125 11.542969 C 20.171875 13.957031 19.027344 16.375 17.882812 18.785156 C 17.335938 18.03125 16.785156 17.277344 16.230469 16.527344 L 15.835938 15.992188 L 15.484375 16.558594 C 13.324219 20.011719 11.1875 23.480469 9.015625 26.925781 L 8.585938 27.609375 L 9.394531 27.613281 C 16.175781 27.671875 22.953125 27.726562 29.734375 27.785156 L 30.457031 27.789062 L 30.144531 27.140625 C 27.589844 21.703125 25.023438 16.277344 22.457031 10.847656 Z M 22.046875 17.648438 C 22.183594 17.648438 22.320312 17.714844 22.40625 17.824219 C 22.808594 18.335938 23.203125 18.75 23.359375 18.816406 C 23.441406 18.847656 23.421875 18.851562 23.503906 18.796875 C 23.585938 18.742188 23.75 18.570312 23.933594 18.214844 C 24.007812 18.066406 24.171875 17.96875 24.339844 17.972656 C 24.507812 17.972656 24.667969 18.074219 24.742188 18.226562 L 28.429688 26.035156 C 28.566406 26.3125 28.324219 26.691406 28.019531 26.6875 L 11.347656 26.546875 C 11.1875 26.542969 11.03125 26.453125 10.957031 26.3125 C 10.878906 26.171875 10.882812 25.988281 10.96875 25.855469 L 14.25 20.585938 C 14.390625 20.355469 14.757812 20.3125 14.953125 20.5 C 15.246094 20.792969 15.496094 20.945312 15.800781 20.964844 C 16.105469 20.984375 16.527344 20.871094 17.152344 20.410156 C 17.34375 20.265625 17.652344 20.3125 17.792969 20.507812 L 18.082031 20.902344 L 19.269531 18.390625 C 19.339844 18.238281 19.5 18.128906 19.664062 18.125 C 19.832031 18.117188 20 18.214844 20.078125 18.363281 C 20.195312 18.574219 20.3125 18.695312 20.402344 18.746094 C 20.488281 18.800781 20.546875 18.808594 20.648438 18.785156 C 20.859375 18.742188 21.261719 18.457031 21.679688 17.847656 C 21.761719 17.726562 21.902344 17.652344 22.046875 17.648438 Z M 22.046875 17.648438 "/>
</g>
<clip100Path id="clip100-3">
<rect x="0" y="0" width="32" height="32"/>
</clip100Path>
<g id="source-13" clip100-path="url(#clip100-3)">
<g mask="url(#mask-1)">
<use xlink:href="#source-7"/>
</g>
<g mask="url(#mask-2)">
<use xlink:href="#source-11"/>
</g>
</g>
<mask id="mask-3">
<g filter="url(#filter-remove-color)">
<rect x="-3.2" y="-3.2" width="38.4" height="38.4" fill="rgb(0%, 0%, 0%)" fill-opacity="0.25"/>
</g>
</mask>
<mask id="mask-4">
<g filter="url(#filter-remove-color)">
<rect x="-7.04" y="-7.04" width="46.08" height="46.08" fill="rgb(0%, 0%, 0%)" fill-opacity="0.25"/>
</g>
</mask>
<clip100Path id="clip100-4">
<path clip100-rule="nonzero" d="M 4 5 L 32 5 L 32 32 L 4 32 Z M 4 5 "/>
</clip100Path>
<clip100Path id="clip100-5">
<rect x="0" y="0" width="32" height="32"/>
</clip100Path>
<g id="source-19" clip100-path="url(#clip100-5)">
<g clip100-path="url(#clip100-4)">
<path fill="none" stroke-width="16.4112" stroke-linecap="butt" stroke-linejoin="miter" stroke="rgb(100%, 100%, 100%)" stroke-opacity="1" stroke-miterlimit="4" d="M 393.652344 212.756348 C 371.066895 260.688477 348.410645 308.549805 325.683594 356.411133 C 313.081055 339.064941 300.407715 321.71875 287.592773 304.443359 C 248.510742 367.03125 209.782715 429.902344 170.34668 492.348633 C 293.256836 493.410645 416.166992 494.331055 539.006348 495.393066 C 492.702637 396.90918 446.115723 298.496094 399.599609 200.083008 C 397.617188 204.331055 395.634766 208.508301 393.652344 212.756348 Z M 393.652344 212.756348 " transform="matrix(0.0551724, 0, 0, 0.0551724, 0, 0)"/>
</g>
</g>
<mask id="mask-5">
<g filter="url(#filter-remove-color)">
<rect x="-7.04" y="-7.04" width="46.08" height="46.08" fill="rgb(0%, 0%, 0%)" fill-opacity="0.25"/>
</g>
</mask>
<clip100Path id="clip100-6">
<rect x="0" y="0" width="32" height="32"/>
</clip100Path>
<g id="source-23" clip100-path="url(#clip100-6)">
<path fill-rule="nonzero" fill="rgb(100%, 100%, 100%)" fill-opacity="1" d="M 22.046875 9.980469 L 21.640625 10.847656 L 21.3125 11.542969 C 20.171875 13.957031 19.027344 16.375 17.882812 18.785156 C 17.335938 18.03125 16.785156 17.277344 16.230469 16.527344 L 15.835938 15.992188 L 15.484375 16.558594 C 13.324219 20.011719 11.1875 23.480469 9.015625 26.925781 L 8.585938 27.609375 L 9.394531 27.613281 C 16.175781 27.671875 22.953125 27.726562 29.734375 27.785156 L 30.457031 27.789062 L 30.144531 27.140625 C 27.589844 21.703125 25.023438 16.277344 22.457031 10.847656 Z M 22.046875 9.980469 "/>
</g>
<clip100Path id="clip100-7">
<rect x="0" y="0" width="32" height="32"/>
</clip100Path>
<g id="source-25" clip100-path="url(#clip100-7)">
<g mask="url(#mask-4)">
<use xlink:href="#source-19"/>
</g>
<g mask="url(#mask-5)">
<use xlink:href="#source-23"/>
</g>
</g>
</defs>
<g mask="url(#mask-0)">
<use xlink:href="#source-13"/>
</g>
<path fill-rule="evenodd" fill="rgb(100%, 100%, 100%)" fill-opacity="1" stroke-width="0.852351" stroke-linecap="butt" stroke-linejoin="miter" stroke="rgb(100%, 100%, 100%)" stroke-opacity="1" stroke-miterlimit="4" d="M 184.577637 66.19873 L 22.160645 206.525879 L 54.587402 206.525879 L 54.587402 417.087402 L 152.080078 417.087402 L 152.080078 310.107422 L 219.27002 310.107422 L 219.27002 417.087402 L 314.49707 417.087402 L 314.49707 206.525879 L 346.994629 206.525879 Z M 184.577637 66.19873 " transform="matrix(0.0551724, 0, 0, 0.0551724, 0, 0)"/>
<g mask="url(#mask-3)">
<use xlink:href="#source-25"/>
</g>

</g>%n%n</svg>