<svg width="300" height="35" viewBox="0 0 300 35" fill="none" xmlns="http://www.w3.org/2000/svg" >

<g transform="translate(135.000000, 2.000000) scale(1.500000 1.500000) "> 

<g clip-path="url(#clip0)">
<path opacity="0.949" d="M9.9994 1C14.9626 1 19 5.00181 19 10C19 14.9655 14.9626 19 9.9994 19C5.0374 19 1 14.9655 1 10C1 5.00181 5.0374 1 9.9994 1Z" fill="#45ABE9"/>
<path opacity="0.95" fill-rule="evenodd" clip-rule="evenodd" d="M10 19C14.9706 19 19 14.9706 19 10C19 5.02944 14.9706 1 10 1C5.02944 1 1 5.02944 1 10C1 14.9706 5.02944 19 10 19ZM10 20C15.5228 20 20 15.5228 20 10C20 4.47715 15.5228 0 10 0C4.47715 0 0 4.47715 0 10C0 15.5228 4.47715 20 10 20Z" fill="#1578B3"/>
</g>
<defs>
<clipPath id="clip0">
<path d="M0 0H20V20H0V0Z" fill="white"/>
</clipPath>
</defs>

</g>


<g transform="translate(141.000000, 8.000000) scale(0.031034 0.031034) "> 

<path d="M134.693 73.993L55.8401 152.846" stroke="#ffffff" stroke-width="19.2009" stroke-linecap="round"/>
<path d="M241.426 44.0082L162.573 122.861" stroke="#ffffff" stroke-width="19.2009" stroke-linecap="round"/>
<path d="M114.626 184.102L52.7446 245.984" stroke="#ffffff" stroke-width="19.2009" stroke-linecap="round"/>
<path d="M275.861 105.041L197.008 183.894" stroke="#ffffff" stroke-width="19.2009" stroke-linecap="round"/>
<path d="M456.757 87.9443L377.904 166.797" stroke="#ffffff" stroke-width="19.2009" stroke-linecap="round"/>
<path d="M546.205 80.6207L487.859 136.845" stroke="#ffffff" stroke-width="19.2009" stroke-linecap="round"/>
<path d="M548.327 157.796L487.859 216.849" stroke="#ffffff" stroke-width="19.2009" stroke-linecap="round"/>
<path d="M446.748 185.502L419.517 210.613" stroke="#ffffff" stroke-width="19.2009" stroke-linecap="round"/>
<path d="M353.965 119.468L314.712 157.306" stroke="#ffffff" stroke-width="19.2009" stroke-linecap="round"/>
<path d="M370.556 33.1566L324.231 80.8953" stroke="#ffffff" stroke-width="19.2009" stroke-linecap="round"/>
<path fill-rule="evenodd" clip100-rule="evenodd" d="M85.405 316.554L294.81 204.872L504.214 316.554L490.193 330.832L420.185 302.594L294.735 287.496L168.998 302.376L99.3561 330.518L85.405 316.554Z" fill="#ffffff" stroke="#ffffff" stroke-width="18.7223" stroke-linecap="round" stroke-linejoin="round"/>
<path d="M432.247 301.451H405.35V527.111H432.247V301.451Z" fill="#ffffff" stroke="#ffffff" stroke-width="19.7454" stroke-linecap="round" stroke-linejoin="round"/>
<path d="M182.718 301.451H155.82V527.111H182.718V301.451Z" fill="#ffffff" stroke="#ffffff" stroke-width="19.7454" stroke-linecap="round" stroke-linejoin="round"/>

</g>

</svg>