<svg width="300" height="40" viewBox="0 0 300 40" fill="none" xmlns="http://www.w3.org/2000/svg" xmlns:xlink="http://www.w3.org/1999/xlink" version="1.1">

<g transform="translate(130.000000, 0.000000) scale(2.000000 2.000000) "> 

<g clip-path="url(#clip0)">
<path opacity="0.949" d="M9.9994 1C14.9626 1 19 5.00181 19 10C19 14.9655 14.9626 19 9.9994 19C5.0374 19 1 14.9655 1 10C1 5.00181 5.0374 1 9.9994 1Z" fill="#45ABE9"/>
<path opacity="0.95" fill-rule="evenodd" clip-rule="evenodd" d="M10 19C14.9706 19 19 14.9706 19 10C19 5.02944 14.9706 1 10 1C5.02944 1 1 5.02944 1 10C1 14.9706 5.02944 19 10 19ZM10 20C15.5228 20 20 15.5228 20 10C20 4.47715 15.5228 0 10 0C4.47715 0 0 4.47715 0 10C0 15.5228 4.47715 20 10 20Z" fill="#1578B3"/>
</g>
<defs>
<clipPath id="clip0">
<path d="M0 0H20V20H0V0Z" fill="white"/>
</clipPath>
</defs>

</g>%n%n
<g transform="translate(138.000000, 8.000000) scale(2.000000 2.000000) "> 

<defs>
<filter id="alpha" filterUnits="objectBoundingBox" x="0%" y="0%" width="100%" height="100%">
  <feColorMatrix type="matrix" in="SourceGraphic" values="0 0 0 0 1 0 0 0 0 1 0 0 0 0 1 0 0 0 1 0"/>
</filter>
<mask id="mask0">
  <g filter="url(#alpha)">
<rect x="0" y="0" width="12" height="12" style="fill:rgb(0%,0%,0%);fill-opacity:0.5;stroke:none;"/>
  </g>
</mask>
<mask id="mask1">
  <g filter="url(#alpha)">
<rect x="0" y="0" width="12" height="12" style="fill:rgb(0%,0%,0%);fill-opacity:0.5;stroke:none;"/>
  </g>
</mask>
<clip100Path id="clip1002">
  <rect x="0" y="0" width="12" height="12"/>
</clip100Path>
<g id="surface6" clip100-path="url(#clip1002)">
<path style="fill:none;stroke-width:16.4112;stroke-linecap:butt;stroke-linejoin:miter;stroke:rgb(100%,100%,100%);stroke-opacity:1;stroke-miterlimit:4;" d="M 393.652344 212.779948 C 370.996094 260.735677 348.339844 308.502604 325.683594 356.458333 C 313.033854 339.088542 300.384115 321.71875 287.545573 304.348958 C 248.463542 367.03125 209.759115 429.902344 170.299479 492.395833 C 293.209635 493.339844 416.119792 494.283854 539.029948 495.416667 C 492.773438 396.861979 446.139323 298.496094 399.69401 200.130208 C 397.617188 204.283854 395.729167 208.4375 393.652344 212.779948 Z M 393.652344 212.779948 " transform="matrix(0.0206897,0,0,0.0206897,0,0)"/>
</g>
<mask id="mask2">
  <g filter="url(#alpha)">
<rect x="0" y="0" width="12" height="12" style="fill:rgb(0%,0%,0%);fill-opacity:0.5;stroke:none;"/>
  </g>
</mask>
<clip100Path id="clip1003">
  <rect x="0" y="0" width="12" height="12"/>
</clip100Path>
<g id="surface9" clip100-path="url(#clip1003)">
<path style=" stroke:none;fill-rule:nonzero;fill:rgb(100%,100%,100%);fill-opacity:1;" d="M 8.269531 3.742188 L 8.117188 4.066406 L 7.992188 4.328125 C 7.566406 5.234375 7.136719 6.140625 6.707031 7.042969 C 6.5 6.761719 6.292969 6.480469 6.085938 6.199219 L 5.9375 5.996094 L 5.804688 6.207031 C 4.996094 7.503906 4.195312 8.804688 3.378906 10.097656 L 3.21875 10.351562 L 3.523438 10.355469 C 6.066406 10.378906 8.609375 10.398438 11.148438 10.417969 L 11.421875 10.421875 L 11.304688 10.175781 C 10.347656 8.140625 9.382812 6.101562 8.421875 4.066406 Z M 8.269531 6.617188 C 8.320312 6.617188 8.371094 6.644531 8.402344 6.683594 C 8.554688 6.875 8.703125 7.03125 8.761719 7.054688 C 8.789062 7.066406 8.78125 7.070312 8.8125 7.050781 C 8.84375 7.027344 8.90625 6.964844 8.976562 6.832031 C 9.003906 6.773438 9.066406 6.738281 9.128906 6.738281 C 9.191406 6.738281 9.25 6.777344 9.277344 6.835938 L 10.660156 9.761719 C 10.710938 9.867188 10.621094 10.007812 10.507812 10.007812 L 4.253906 9.953125 C 4.195312 9.953125 4.136719 9.917969 4.109375 9.867188 C 4.078125 9.816406 4.082031 9.746094 4.113281 9.695312 L 5.34375 7.71875 C 5.398438 7.632812 5.535156 7.617188 5.605469 7.6875 C 5.714844 7.796875 5.8125 7.855469 5.925781 7.863281 C 6.039062 7.871094 6.199219 7.828125 6.433594 7.652344 C 6.503906 7.601562 6.621094 7.617188 6.671875 7.691406 L 6.78125 7.839844 L 7.226562 6.894531 C 7.253906 6.839844 7.3125 6.796875 7.375 6.796875 C 7.4375 6.792969 7.5 6.832031 7.53125 6.886719 C 7.574219 6.964844 7.617188 7.011719 7.652344 7.03125 C 7.683594 7.050781 7.703125 7.054688 7.742188 7.042969 C 7.820312 7.027344 7.972656 6.921875 8.128906 6.691406 C 8.160156 6.648438 8.214844 6.617188 8.269531 6.617188 Z M 8.269531 6.617188 "/>
</g>
<clip100Path id="clip1001">
  <rect x="0" y="0" width="12" height="12"/>
</clip100Path>
<g id="surface11" clip100-path="url(#clip1001)">
<use xlink:href="#surface6" mask="url(#mask1)"/>
<use xlink:href="#surface9" mask="url(#mask2)"/>
</g>
<mask id="mask3">
  <g filter="url(#alpha)">
<rect x="0" y="0" width="12" height="12" style="fill:rgb(0%,0%,0%);fill-opacity:0.25;stroke:none;"/>
  </g>
</mask>
<mask id="mask4">
  <g filter="url(#alpha)">
<rect x="0" y="0" width="12" height="12" style="fill:rgb(0%,0%,0%);fill-opacity:0.25;stroke:none;"/>
  </g>
</mask>
<clip100Path id="clip1005">
  <rect x="0" y="0" width="12" height="12"/>
</clip100Path>
<g id="surface15" clip100-path="url(#clip1005)">
<path style="fill:none;stroke-width:16.4112;stroke-linecap:butt;stroke-linejoin:miter;stroke:rgb(100%,100%,100%);stroke-opacity:1;stroke-miterlimit:4;" d="M 393.652344 212.779948 C 370.996094 260.735677 348.339844 308.502604 325.683594 356.458333 C 313.033854 339.088542 300.384115 321.71875 287.545573 304.348958 C 248.463542 367.03125 209.759115 429.902344 170.299479 492.395833 C 293.209635 493.339844 416.119792 494.283854 539.029948 495.416667 C 492.773438 396.861979 446.139323 298.496094 399.69401 200.130208 C 397.617188 204.283854 395.729167 208.4375 393.652344 212.779948 Z M 393.652344 212.779948 " transform="matrix(0.0206897,0,0,0.0206897,0,0)"/>
</g>
<mask id="mask5">
  <g filter="url(#alpha)">
<rect x="0" y="0" width="12" height="12" style="fill:rgb(0%,0%,0%);fill-opacity:0.25;stroke:none;"/>
  </g>
</mask>
<clip100Path id="clip1006">
  <rect x="0" y="0" width="12" height="12"/>
</clip100Path>
<g id="surface18" clip100-path="url(#clip1006)">
<path style=" stroke:none;fill-rule:nonzero;fill:rgb(100%,100%,100%);fill-opacity:1;" d="M 8.269531 3.742188 L 8.117188 4.066406 L 7.992188 4.328125 C 7.566406 5.234375 7.136719 6.140625 6.707031 7.042969 C 6.5 6.761719 6.292969 6.480469 6.085938 6.199219 L 5.9375 5.996094 L 5.804688 6.207031 C 4.996094 7.503906 4.195312 8.804688 3.378906 10.097656 L 3.21875 10.351562 L 3.523438 10.355469 C 6.066406 10.378906 8.609375 10.398438 11.148438 10.417969 L 11.421875 10.421875 L 11.304688 10.175781 C 10.347656 8.140625 9.382812 6.101562 8.421875 4.066406 Z M 8.269531 3.742188 "/>
</g>
<clip100Path id="clip1004">
  <rect x="0" y="0" width="12" height="12"/>
</clip100Path>
<g id="surface20" clip100-path="url(#clip1004)">
<use xlink:href="#surface15" mask="url(#mask4)"/>
<use xlink:href="#surface18" mask="url(#mask5)"/>
</g>
</defs>
<g id="surface1">
<use xlink:href="#surface11" mask="url(#mask0)"/>
<path style="fill-rule:evenodd;fill:rgb(100%,100%,100%);fill-opacity:1;stroke-width:0.852351;stroke-linecap:butt;stroke-linejoin:miter;stroke:rgb(100%,100%,100%);stroke-opacity:1;stroke-miterlimit:4;" d="M 184.648438 66.269531 L 22.089844 206.549479 L 54.563802 206.549479 L 54.563802 417.063802 L 152.174479 417.063802 L 152.174479 310.201823 L 219.199219 310.201823 L 219.199219 417.063802 L 314.544271 417.063802 L 314.544271 206.549479 L 347.018229 206.549479 Z M 184.648438 66.269531 " transform="matrix(0.0206897,0,0,0.0206897,0,0)"/>
<use xlink:href="#surface20" mask="url(#mask3)"/>
</g>

</g>%n%n</svg>