<svg width="300" height="40" viewBox="0 0 300 40" fill="none" xmlns="http://www.w3.org/2000/svg" xmlns:xlink="http://www.w3.org/1999/xlink">

<g transform="translate(130.000000, 0.000000) scale(2.000000 2.000000) "> 

 <path d="m9.8967 2.0627c-0.31101 0.016588-0.61292 0.11034-0.87834 0.27273-0.26542 0.1624-0.48594 0.3883-0.64156 0.65719l-7.1267 12.3c-0.16388 0.2832-0.25014 0.6044-0.25013 0.93132 1.3e-5 0.32695 0.086304 0.64812 0.2502 0.93132 0.1639 0.2832 0.39965 0.51844 0.68358 0.68212 0.28394 0.16368 0.60607 0.27044 0.93407 0.27081h14.261c0.32829 2.64e-4 0.65092-0.09519 0.93534-0.25861 0.28443-0.16344 0.52071-0.39862 0.68503-0.68192 0.16431-0.2833 0.25092-0.60473 0.25112-0.93198 1.66e-4 -0.32722-0.08611-0.64875-0.25012-0.93221l-7.134-12.311c-0.17251-0.29808-0.42445-0.54274-0.7279-0.70687-0.30344-0.16414-0.64654-0.24134-0.99129-0.22305z" clip-rule="evenodd" fill="#000000" fill-rule="evenodd" stroke-width=".033127"/>
 <path d="m2.1242 15.649 7.1284-12.146s0.19427-0.35212 0.74737-0.35609c0.5531-0.00398 0.80206 0.33366 0.80206 0.33366l7.1579 12.275s0.2295 0.50739-0.02632 0.99752c-0.25583 0.49013-0.73359 0.46024-0.73359 0.46024l-14.4-0.004534c-0.31712-1e-4 -0.50978-0.12946-0.70496-0.44853-0.19518-0.31906-0.12295-0.85204 0.029158-1.1112z" fill="#fff200" stroke-width=".035431"/>

</g>%n%n
<g transform="translate(138.000000, 8.000000) scale(2.000000 2.000000) "> 

<path fill-rule="nonzero" fill="rgb(0%, 0%, 0%)" fill-opacity="1" d="M 5.296875 3.378906 C 4.925781 3.292969 4.691406 3.410156 4.554688 3.578125 L 3.835938 4.472656 C 3.640625 4.449219 3.257812 4.550781 3.179688 4.894531 L 2.886719 6.171875 L 3.359375 6.277344 L 3.261719 6.6875 C 3.148438 7.191406 4.035156 7.386719 4.152344 6.890625 L 4.246094 6.484375 L 5.839844 6.851562 L 7.4375 7.21875 L 7.34375 7.628906 C 7.230469 8.125 8.113281 8.332031 8.230469 7.832031 L 8.324219 7.421875 L 8.796875 7.53125 L 9.089844 6.253906 C 9.167969 5.910156 8.871094 5.652344 8.683594 5.585938 L 8.429688 4.472656 C 8.382812 4.257812 8.21875 4.050781 7.847656 3.964844 L 5.992188 3.539062 Z M 5.207031 3.742188 L 6.488281 4.035156 L 7.769531 4.332031 C 7.929688 4.371094 7.976562 4.464844 8 4.585938 L 8.183594 5.460938 L 6.261719 5.019531 L 4.34375 4.578125 L 4.890625 3.871094 C 4.960938 3.769531 5.046875 3.707031 5.207031 3.742188 Z M 5.207031 3.742188 "/>
<path fill-rule="nonzero" fill="rgb(0%, 0%, 0%)" fill-opacity="1" d="M 2.789062 11.824219 L 5.035156 11.824219 C 5.035156 11.824219 5.566406 10.828125 4.800781 10.117188 C 4.105469 9.476562 3.542969 9.257812 3.390625 8.90625 C 3.128906 8.300781 3.632812 7.804688 3.632812 7.804688 C 3.632812 7.804688 2.636719 8.132812 2.5625 8.5 C 2.433594 9.121094 2.769531 9.28125 3.757812 10.40625 C 4.40625 11.140625 2.789062 11.824219 2.789062 11.824219 Z M 2.789062 11.824219 "/>
<path fill-rule="nonzero" fill="rgb(0%, 0%, 0%)" fill-opacity="1" d="M 7.21875 11.820312 L 9.464844 11.820312 C 9.464844 11.820312 9.539062 11.394531 8.773438 10.683594 C 8.078125 10.042969 7.425781 9.789062 7.273438 9.4375 C 7.011719 8.832031 7.605469 8.371094 7.605469 8.371094 C 7.605469 8.371094 6.546875 8.589844 6.390625 9.261719 C 6.246094 9.878906 6.53125 9.96875 7.578125 10.902344 C 8.191406 11.453125 7.21875 11.820312 7.21875 11.820312 Z M 7.21875 11.820312 "/>

</g>%n%n</svg>