<svg width="300" height="40" viewBox="0 0 300 40" fill="none" xmlns="http://www.w3.org/2000/svg" xmlns:xlink="http://www.w3.org/1999/xlink">

<g transform="translate(130.000000, 0.000000) scale(2.000000 2.000000) "> 

 <path d="m9.8967 2.0627c-0.31101 0.016588-0.61292 0.11034-0.87834 0.27273-0.26542 0.1624-0.48594 0.3883-0.64156 0.65719l-7.1267 12.3c-0.16388 0.2832-0.25014 0.6044-0.25013 0.93132 1.3e-5 0.32695 0.086304 0.64812 0.2502 0.93132 0.1639 0.2832 0.39965 0.51844 0.68358 0.68212 0.28394 0.16368 0.60607 0.27044 0.93407 0.27081h14.261c0.32829 2.64e-4 0.65092-0.09519 0.93534-0.25861 0.28443-0.16344 0.52071-0.39862 0.68503-0.68192 0.16431-0.2833 0.25092-0.60473 0.25112-0.93198 1.66e-4 -0.32722-0.08611-0.64875-0.25012-0.93221l-7.134-12.311c-0.17251-0.29808-0.42445-0.54274-0.7279-0.70687-0.30344-0.16414-0.64654-0.24134-0.99129-0.22305z" clip-rule="evenodd" fill="#000000" fill-rule="evenodd" stroke-width=".033127"/>
 <path d="m2.1242 15.649 7.1284-12.146s0.19427-0.35212 0.74737-0.35609c0.5531-0.00398 0.80206 0.33366 0.80206 0.33366l7.1579 12.275s0.2295 0.50739-0.02632 0.99752c-0.25583 0.49013-0.73359 0.46024-0.73359 0.46024l-14.4-0.004534c-0.31712-1e-4 -0.50978-0.12946-0.70496-0.44853-0.19518-0.31906-0.12295-0.85204 0.029158-1.1112z" fill="#fff200" stroke-width=".035431"/>

</g>%n%n
<g transform="translate(138.000000, 8.000000) scale(2.000000 2.000000) "> 

<path fill-rule="nonzero" fill="rgb(0%, 0%, 0%)" fill-opacity="1" d="M 7.933594 4.75 L 7.527344 5.746094 L 7.066406 7.109375 C 7.066406 7.109375 6.570312 7.605469 6.21875 8.371094 C 5.867188 9.136719 6.410156 9.914062 5.164062 10.167969 C 4.757812 10.253906 4.25 10.84375 4.027344 11.101562 C 3.785156 11.378906 3.730469 11.535156 3.726562 11.683594 L 12 11.691406 Z M 7.933594 4.75 "/>
<path fill="none" stroke-width="21.816999" stroke-linecap="round" stroke-linejoin="round" stroke="rgb(0%, 0%, 0%)" stroke-opacity="1" stroke-miterlimit="4" d="M 343.049743 203.335787 C 216.770023 454.660218 188.673557 487.542346 131.708744 461.144018 C 105.464793 448.948299 108.39794 425.483119 110.867959 412.515519 C 117.197383 378.244006 170.765919 359.718863 172.77281 390.285348 " transform="matrix(0.0253034, 0, 0, 0.0253034, -1.453779, -0.875566)"/>
<path fill="none" stroke-width="21.816999" stroke-linecap="round" stroke-linejoin="round" stroke="rgb(0%, 0%, 0%)" stroke-opacity="1" stroke-miterlimit="4" d="M 309.241358 150.076003 C 275.741726 225.565958 250.424032 283.920156 208.588085 344.435621 " transform="matrix(0.0253034, 0, 0, 0.0253034, -1.453779, -0.875566)"/>
<path fill="none" stroke-width="21.816999" stroke-linecap="round" stroke-linejoin="round" stroke="rgb(0%, 0%, 0%)" stroke-opacity="1" stroke-miterlimit="4" d="M 127.84934 370.216444 C 115.807997 317.265412 162.275229 293.800232 177.712848 311.244741 " transform="matrix(0.0253034, 0, 0, 0.0253034, -1.453779, -0.875566)"/>

</g>%n%n</svg>