<svg width="300" height="40" viewBox="0 0 300 40" fill="none" xmlns="http://www.w3.org/2000/svg" xmlns:xlink="http://www.w3.org/1999/xlink">

<g transform="translate(130.000000, 0.000000) scale(2.000000 2.000000) "> 

 <path d="m9.8967 2.0627c-0.31101 0.016588-0.61292 0.11034-0.87834 0.27273-0.26542 0.1624-0.48594 0.3883-0.64156 0.65719l-7.1267 12.3c-0.16388 0.2832-0.25014 0.6044-0.25013 0.93132 1.3e-5 0.32695 0.086304 0.64812 0.2502 0.93132 0.1639 0.2832 0.39965 0.51844 0.68358 0.68212 0.28394 0.16368 0.60607 0.27044 0.93407 0.27081h14.261c0.32829 2.64e-4 0.65092-0.09519 0.93534-0.25861 0.28443-0.16344 0.52071-0.39862 0.68503-0.68192 0.16431-0.2833 0.25092-0.60473 0.25112-0.93198 1.66e-4 -0.32722-0.08611-0.64875-0.25012-0.93221l-7.134-12.311c-0.17251-0.29808-0.42445-0.54274-0.7279-0.70687-0.30344-0.16414-0.64654-0.24134-0.99129-0.22305z" clip-rule="evenodd" fill="#000000" fill-rule="evenodd" stroke-width=".033127"/>
 <path d="m2.1242 15.649 7.1284-12.146s0.19427-0.35212 0.74737-0.35609c0.5531-0.00398 0.80206 0.33366 0.80206 0.33366l7.1579 12.275s0.2295 0.50739-0.02632 0.99752c-0.25583 0.49013-0.73359 0.46024-0.73359 0.46024l-14.4-0.004534c-0.31712-1e-4 -0.50978-0.12946-0.70496-0.44853-0.19518-0.31906-0.12295-0.85204 0.029158-1.1112z" fill="#fff200" stroke-width=".035431"/>

</g>%n%n
<g transform="translate(138.000000, 8.000000) scale(2.000000 2.000000) "> 

<path fill-rule="nonzero" fill="rgb(0%, 0%, 0%)" fill-opacity="1" d="M 7.164062 3.300781 L 6.671875 3.574219 L 6.21875 5.863281 C 6.21875 5.863281 6.460938 7.113281 6.078125 7.949219 C 5.699219 8.78125 6.082031 9.441406 4.726562 9.71875 C 4.285156 9.808594 3.574219 10.757812 3.332031 11.039062 C 3.070312 11.339844 3.011719 11.507812 3.007812 11.671875 L 12 11.679688 Z M 7.164062 3.300781 "/>
<path fill-rule="nonzero" fill="rgb(0%, 0%, 0%)" fill-opacity="1" d="M 3.476562 9.683594 L 2.332031 10.828125 L 1.769531 10.402344 L 1.1875 9.683594 L 1.378906 8.875 L 2.332031 8.539062 L 3.023438 8.839844 Z M 3.476562 9.683594 "/>
<path fill-rule="nonzero" fill="rgb(0%, 0%, 0%)" fill-opacity="1" d="M 5.222656 7.585938 L 5.03125 8.164062 L 4.25 8.558594 L 3.449219 8.136719 L 3.277344 7.585938 L 3.59375 6.867188 L 4.25 6.613281 Z M 5.222656 7.585938 "/>
<path fill-rule="nonzero" fill="rgb(0%, 0%, 0%)" fill-opacity="1" d="M 5.265625 4.71875 C 5.445312 4.71875 5.59375 4.570312 5.59375 4.390625 C 5.59375 4.207031 5.445312 4.058594 5.265625 4.058594 C 5.082031 4.058594 4.933594 4.207031 4.933594 4.390625 C 4.933594 4.570312 5.082031 4.71875 5.265625 4.71875 Z M 5.265625 4.71875 "/>
<path fill-rule="nonzero" fill="rgb(0%, 0%, 0%)" fill-opacity="1" d="M 6.132812 3.089844 C 6.296875 3.089844 6.429688 2.957031 6.429688 2.792969 C 6.429688 2.628906 6.296875 2.496094 6.132812 2.496094 C 5.96875 2.496094 5.839844 2.628906 5.839844 2.792969 C 5.839844 2.957031 5.96875 3.089844 6.132812 3.089844 Z M 6.132812 3.089844 "/>
<path fill-rule="nonzero" fill="rgb(0%, 0%, 0%)" fill-opacity="1" d="M 4.488281 5.226562 L 3.972656 5.742188 L 3.757812 5.695312 L 3.457031 5.226562 L 3.621094 4.851562 L 3.972656 4.710938 L 4.105469 4.730469 L 4.28125 4.816406 Z M 4.488281 5.226562 "/>

</g>%n%n</svg>