<svg width="40" height="40" viewBox="0 0 40 40" fill="none" xmlns="http://www.w3.org/2000/svg" >

<g transform="translate(0.000000, 0.000000) scale(2.500000 2.500000) "> 

<path opacity="0.804" d="M9.06558 1.42399L6.29875 1.54619C6.09072 1.55519 5.89471 1.64627 5.75308 1.79893L4.76719 2.86015C4.6695 2.96574 4.60238 3.09591 4.57303 3.23674L4.00225 5.96342C3.9552 6.18866 4.00834 6.42317 4.14788 6.60612C4.13458 6.61902 4.12174 6.63245 4.10938 6.64635L3.85161 6.94261C3.70418 7.11189 3.63545 7.33574 3.66247 7.55858L4.25333 12.4043C4.29047 12.71 4.50128 12.9665 4.79397 13.0621L8.52159 14.2823C8.59518 14.3062 8.67188 14.3191 8.74923 14.3208C8.74923 14.3208 8.75547 14.3207 8.75927 14.3208C8.76313 14.3209 8.76409 14.3229 8.76932 14.3229C8.77464 14.323 8.75827 14.3208 8.7643 14.3208C8.76441 14.3208 8.77285 14.3208 8.77601 14.3208C8.77666 14.3209 8.77704 14.3208 8.77768 14.3208C8.93555 14.3316 9.01501 14.3228 9.18777 14.3138C12.0709 13.6726 12.1581 12.5933 12.2743 10.2381C12.3597 7.93898 12.0015 5.33043 12.0015 5.33043C11.9884 5.24093 11.9601 5.15429 11.9178 5.07432L11.2332 3.79216C11.135 3.60843 10.9685 3.47074 10.7695 3.40886C10.7494 3.31226 10.7113 3.2203 10.6574 3.13768L9.7619 1.77885C9.60829 1.54641 9.34392 1.41168 9.06558 1.42399Z" fill="#EBE7E4"/>

</g>


<g transform="translate(8.000000, 8.000000) scale(2.000000 2.000000) "> 

<path fill-rule="evenodd" clip100-rule="evenodd" d="M336.642 47.0571L219.654 52.2419L177.916 97.1101L153.801 212.448L214.394 223.781L150.812 256.457L139.961 268.958L164.928 473.926L322.579 525.512C322.579 525.512 396.238 532.046 421.363 483.708C460.367 408.666 426.162 183.784 426.162 183.784L397.247 129.568L373.944 132.788L303.394 122.081L367.944 112.152L374.475 104.545L336.642 47.0571ZM361.803 204.734L348.338 290.102L363.731 353.638L337.869 493.417L326.402 418.724L343.62 353.638L336.25 284.765L361.803 204.734Z" fill="#3f3f3f"/>

</g>

</svg>