<svg width="300" height="40" viewBox="0 0 300 40" fill="none" xmlns="http://www.w3.org/2000/svg" xmlns:xlink="http://www.w3.org/1999/xlink">

<g transform="translate(130.000000, 0.000000) scale(2.500000 2.500000) "> 

 <path transform="matrix(.8 0 0 .8 1.6 1.6)" d="m4 0.65625a0.67803 0.67803 0 0 0-0.58789 0.3418c-2.0516 3.5876-2.7469 8.6228-2.7559 13.666a0.67803 0.67803 0 0 0 0.67773 0.67969h2a0.67803 0.67803 0 0 0 0.66797-0.56055c0.49104-2.7826 1.19-4.8439 1.9414-6.1543 0.75143-1.3104 1.4895-1.7852 2.0566-1.7852s1.3052 0.47478 2.0566 1.7852c0.75143 1.3104 1.4504 3.3717 1.9414 6.1543a0.67803 0.67803 0 0 0 0.66797 0.56055h2a0.67803 0.67803 0 0 0 0.67773-0.68164c-0.030482-5.4522-0.77667-10.148-2.752-13.66a0.67803 0.67803 0 0 0-0.5918-0.3457z" color="#000000" color-rendering="auto" fill="#ebe7e4" image-rendering="auto" opacity=".812" shape-rendering="auto" solid-color="#000000" style="font-variant-east_asian:normal;isolation:auto;mix-blend-mode:normal;paint-order:normal"/>

</g>%n%n
<g transform="translate(138.000000, 8.000000) scale(0.750000 0.750000) "> 

<path fill-rule="nonzero" fill="rgb(24.705882%, 24.705882%, 24.705882%)" fill-opacity="1" d="M 8 2.667969 L 24 2.667969 C 27.765625 9.359375 29.273438 18.554688 29.332031 29.332031 L 25.332031 29.332031 C 21.332031 6.667969 10.667969 6.667969 6.667969 29.332031 L 2.667969 29.332031 C 2.6875 19.375 4.105469 9.472656 8 2.667969 Z M 8 2.667969 "/>

</g>%n%n</svg>