<svg width="300" height="40" viewBox="0 0 300 40" fill="none" xmlns="http://www.w3.org/2000/svg" xmlns:xlink="http://www.w3.org/1999/xlink">

<g transform="translate(130.000000, 0.000000) scale(2.000000 2.000000) "> 

<g clip-path="url(#clip0)">
<path opacity="0.953" d="M9.99934 0C15.514 0 20 4.44646 20 10C20 15.5172 15.514 20 9.99934 20C4.48599 20 0 15.5172 0 10C0 4.44646 4.48599 0 9.99934 0V0Z" fill="#878787"/>
<path opacity="0.95" fill-rule="evenodd" clip-rule="evenodd" d="M10 19C14.9706 19 19 14.9706 19 10C19 5.02944 14.9706 1 10 1C5.02944 1 1 5.02944 1 10C1 14.9706 5.02944 19 10 19ZM10 20C15.5228 20 20 15.5228 20 10C20 4.47715 15.5228 0 10 0C4.47715 0 0 4.47715 0 10C0 15.5228 4.47715 20 10 20Z" fill="#404040"/>
</g>
<defs>
<clipPath id="clip0">
<path d="M0 0H20V20H0V0Z" fill="white"/>
</clipPath>
</defs>

</g>%n%n
<g transform="translate(138.000000, 8.000000) scale(0.750000 0.750000) "> 

<path fill="none" stroke-width="2" stroke-linecap="round" stroke-linejoin="miter" stroke="rgb(100%, 100%, 100%)" stroke-opacity="1" stroke-miterlimit="4" d="M 20.988281 23.009766 L 15 28.998047 L 15 42.990234 " transform="matrix(0.666667, 0, 0, 0.666667, 0, 0)"/>
<path fill="none" stroke-width="2" stroke-linecap="round" stroke-linejoin="miter" stroke="rgb(100%, 100%, 100%)" stroke-opacity="1" stroke-miterlimit="4" d="M 20.988281 22.992188 L 15 16.992188 L 15 7.019531 " transform="matrix(0.666667, 0, 0, 0.666667, 0, 0)"/>
<path fill="none" stroke-width="2" stroke-linecap="round" stroke-linejoin="miter" stroke="rgb(100%, 100%, 100%)" stroke-opacity="1" stroke-miterlimit="4" d="M 20.988281 22.998047 L 14.988281 22.998047 L 7.007812 30.990234 " transform="matrix(0.666667, 0, 0, 0.666667, 0, 0)"/>
<path fill="none" stroke-width="2" stroke-linecap="round" stroke-linejoin="miter" stroke="rgb(100%, 100%, 100%)" stroke-opacity="1" stroke-miterlimit="4" d="M 27 22.998047 C 27 25.207031 25.658203 27 24 27 C 22.341797 27 21 25.207031 21 22.998047 C 21 20.789062 22.341797 19.001953 24 19.001953 C 25.658203 19.001953 27 20.789062 27 22.998047 Z M 27 22.998047 " transform="matrix(0.666667, 0, 0, 0.666667, 0, 0)"/>
<path fill="none" stroke-width="2" stroke-linecap="round" stroke-linejoin="miter" stroke="rgb(100%, 100%, 100%)" stroke-opacity="1" stroke-miterlimit="4" d="M 28.998047 34.001953 C 28.998047 37.863281 26.759766 40.998047 24 40.998047 C 21.240234 40.998047 19.001953 37.863281 19.001953 34.001953 C 19.001953 30.134766 21.240234 27 24 27 C 26.759766 27 28.998047 30.134766 28.998047 34.001953 Z M 28.998047 34.001953 " transform="matrix(0.666667, 0, 0, 0.666667, 0, 0)"/>
<path fill="none" stroke-width="2" stroke-linecap="round" stroke-linejoin="miter" stroke="rgb(100%, 100%, 100%)" stroke-opacity="1" stroke-miterlimit="4" d="M 28.998047 15 C 28.998047 17.208984 26.759766 19.001953 24 19.001953 C 21.240234 19.001953 19.001953 17.208984 19.001953 15 C 19.001953 12.791016 21.240234 10.998047 24 10.998047 C 26.759766 10.998047 28.998047 12.791016 28.998047 15 Z M 28.998047 15 " transform="matrix(0.666667, 0, 0, 0.666667, 0, 0)"/>
<path fill="none" stroke-width="2" stroke-linecap="round" stroke-linejoin="miter" stroke="rgb(100%, 100%, 100%)" stroke-opacity="1" stroke-miterlimit="4" d="M 27.011719 23.009766 L 33 28.998047 L 33 42.990234 " transform="matrix(0.666667, 0, 0, 0.666667, 0, 0)"/>
<path fill="none" stroke-width="2" stroke-linecap="round" stroke-linejoin="miter" stroke="rgb(100%, 100%, 100%)" stroke-opacity="1" stroke-miterlimit="4" d="M 27.011719 22.992188 L 33 16.992188 L 33 7.019531 " transform="matrix(0.666667, 0, 0, 0.666667, 0, 0)"/>
<path fill="none" stroke-width="2" stroke-linecap="round" stroke-linejoin="miter" stroke="rgb(100%, 100%, 100%)" stroke-opacity="1" stroke-miterlimit="4" d="M 27.011719 22.998047 L 33.011719 22.998047 L 40.992188 30.990234 " transform="matrix(0.666667, 0, 0, 0.666667, 0, 0)"/>
<path fill="none" stroke-width="2" stroke-linecap="round" stroke-linejoin="miter" stroke="rgb(100%, 100%, 100%)" stroke-opacity="1" stroke-miterlimit="4" d="M 27 7.001953 L 24 10.001953 L 21 7.001953 " transform="matrix(0.666667, 0, 0, 0.666667, 0, 0)"/>

</g>%n%n</svg>