<svg width="300" height="40" viewBox="0 0 300 40" fill="none" xmlns="http://www.w3.org/2000/svg" xmlns:xlink="http://www.w3.org/1999/xlink" version="1.1">

<g transform="translate(130.000000, 0.000000) scale(2.500000 2.500000) "> 

<path opacity="0.804" d="M9.06558 1.42399L6.29875 1.54619C6.09072 1.55519 5.89471 1.64627 5.75308 1.79893L4.76719 2.86015C4.6695 2.96574 4.60238 3.09591 4.57303 3.23674L4.00225 5.96342C3.9552 6.18866 4.00834 6.42317 4.14788 6.60612C4.13458 6.61902 4.12174 6.63245 4.10938 6.64635L3.85161 6.94261C3.70418 7.11189 3.63545 7.33574 3.66247 7.55858L4.25333 12.4043C4.29047 12.71 4.50128 12.9665 4.79397 13.0621L8.52159 14.2823C8.59518 14.3062 8.67188 14.3191 8.74923 14.3208C8.74923 14.3208 8.75547 14.3207 8.75927 14.3208C8.76313 14.3209 8.76409 14.3229 8.76932 14.3229C8.77464 14.323 8.75827 14.3208 8.7643 14.3208C8.76441 14.3208 8.77285 14.3208 8.77601 14.3208C8.77666 14.3209 8.77704 14.3208 8.77768 14.3208C8.93555 14.3316 9.01501 14.3228 9.18777 14.3138C12.0709 13.6726 12.1581 12.5933 12.2743 10.2381C12.3597 7.93898 12.0015 5.33043 12.0015 5.33043C11.9884 5.24093 11.9601 5.15429 11.9178 5.07432L11.2332 3.79216C11.135 3.60843 10.9685 3.47074 10.7695 3.40886C10.7494 3.31226 10.7113 3.2203 10.6574 3.13768L9.7619 1.77885C9.60829 1.54641 9.34392 1.41168 9.06558 1.42399Z" fill="#EBE7E4"/>

</g>%n%n
<g transform="translate(138.000000, 8.000000) scale(2.000000 2.000000) "> 

<g id="surface1">
<path style=" stroke:none;fill-rule:evenodd;fill:rgb(24.705882%,24.705882%,24.705882%);fill-opacity:1;" d="M 6.964844 0.972656 L 4.542969 1.082031 L 3.679688 2.007812 L 3.183594 4.394531 L 4.4375 4.628906 L 3.121094 5.304688 L 2.894531 5.566406 L 3.414062 9.804688 L 6.675781 10.871094 C 6.675781 10.871094 8.199219 11.007812 8.71875 10.007812 C 9.523438 8.457031 8.816406 3.800781 8.816406 3.800781 L 8.21875 2.679688 L 7.738281 2.746094 L 6.277344 2.527344 L 7.613281 2.320312 L 7.746094 2.164062 Z M 7.484375 4.234375 L 7.207031 6.003906 L 7.527344 7.316406 L 6.992188 10.207031 L 6.753906 8.664062 L 7.109375 7.316406 L 6.957031 5.890625 Z M 7.484375 4.234375 "/>
</g>

</g>%n%n</svg>