<svg width="300" height="35" viewBox="0 0 300 35" fill="none" xmlns="http://www.w3.org/2000/svg" >

<g transform="translate(135.000000, 2.000000) scale(1.500000 1.500000) "> 

<g clip-path="url(#clip0)">
<path opacity="0.849" d="M9.9994 1C14.9626 1 19 5.00181 19 10C19 14.9655 14.9626 19 9.9994 19C5.0374 19 1 14.9655 1 10C1 5.00181 5.0374 1 9.9994 1Z" fill="#0086C7"/>
<path opacity="0.95" fill-rule="evenodd" clip-rule="evenodd" d="M10 19C14.9706 19 19 14.9706 19 10C19 5.02944 14.9706 1 10 1C5.02944 1 1 5.02944 1 10C1 14.9706 5.02944 19 10 19ZM10 20C15.5228 20 20 15.5228 20 10C20 4.47715 15.5228 0 10 0C4.47715 0 0 4.47715 0 10C0 15.5228 4.47715 20 10 20Z" fill="#5FB7ED"/>
</g>
<defs>
<clipPath id="clip0">
<path d="M0 0H20V20H0V0Z" fill="white"/>
</clipPath>
</defs>

</g>


<g transform="translate(141.000000, 8.000000) scale(0.031034 0.031034) "> 

<path fill-rule="evenodd" clip100-rule="evenodd" d="M103.644 546.943C103.851 543.448 202.136 551.127 246.509 523.962C268.602 510.437 289.274 491.632 291.45 444.771C293.739 395.494 287.2 398.463 292.753 360.128C302.177 315.854 333.912 313.412 341.332 287.808C371.088 222.058 284.112 234.424 267.004 252.495C259.672 277.469 222.92 318.359 227.32 361.835C256.254 521.635 207.963 519.999 103.644 546.943Z" fill="#ffffff"/>
<path d="M487.673 174.774C487.673 210.684 473.408 245.123 448.016 270.516C422.623 295.908 388.184 310.173 352.274 310.173C316.364 310.173 281.925 295.908 256.532 270.516C231.14 245.123 216.875 210.684 216.875 174.774C216.875 138.864 231.14 104.425 256.532 79.0324C281.925 53.6402 316.364 39.375 352.274 39.375C388.184 39.375 422.623 53.6402 448.016 79.0324C473.408 104.425 487.673 138.864 487.673 174.774Z" fill="#ffffff"/>

</g>

</svg>