<svg width="300" height="40" viewBox="0 0 300 40" fill="none" xmlns="http://www.w3.org/2000/svg" xmlns:xlink="http://www.w3.org/1999/xlink">

<g transform="translate(130.000000, 0.000000) scale(2.500000 2.500000) "> 

<path opacity="0.819" d="M9.30724 3.31228C8.49394 3.31654 7.63311 3.46651 6.76975 3.77198C5.23476 4.3151 3.95958 5.25062 3.11957 6.3661C2.27956 7.48159 1.86194 8.8138 2.19404 10.0795C2.52615 11.3452 3.55724 12.2357 4.8241 12.6286C6.09096 13.0215 7.61679 12.9659 9.15187 12.4227C10.6869 11.8796 11.9623 10.9437 12.8024 9.82783C13.6426 8.71201 14.0604 7.37956 13.7283 6.11375C13.2509 4.29422 11.3851 3.30141 9.30724 3.31228ZM10.5744 5.85498C10.6742 5.91056 10.7652 5.97159 10.8475 6.03772L10.3267 6.20802L10.5744 5.85498ZM6.89203 6.00505L6.92585 6.38794C6.93138 6.4483 6.94531 6.50759 6.96723 6.56409C6.9059 6.46736 6.82014 6.38851 6.7186 6.33551L6.48924 6.21603C6.61868 6.14106 6.75321 6.07069 6.89203 6.00505ZM8.52354 6.64316C8.62777 6.73688 8.75947 6.79448 8.89905 6.80737C9.04506 6.82053 9.17716 6.8477 9.29033 6.88441C9.42567 6.92799 9.57155 6.92608 9.70571 6.87897C9.70452 7.01405 9.74537 7.14615 9.8226 7.25698C9.87198 7.32751 9.90088 7.39722 9.91517 7.4857C9.93017 7.57855 9.96511 7.66705 10.0176 7.74511C10.0701 7.82317 10.1388 7.88894 10.2191 7.93789C10.2994 7.98684 10.3894 8.01782 10.4828 8.02868C10.5763 8.03955 10.6709 8.03004 10.7603 8.00083L11.3309 7.81431C11.258 8.05737 11.1411 8.30663 10.9801 8.55466L10.3009 8.20071C10.1685 8.13174 10.0164 8.11033 9.87016 8.14009C9.72388 8.16984 9.59227 8.24894 9.49735 8.36414C9.40751 8.47319 9.30266 8.5807 9.1838 8.68326C9.10332 8.75273 9.04107 8.84084 9.00249 8.93991C8.96391 9.03898 8.95016 9.14598 8.96246 9.25159C8.97476 9.35719 9.01273 9.45817 9.07304 9.54572C9.13336 9.63327 9.21419 9.70472 9.30848 9.75383L9.5743 9.89225C9.40494 9.99744 9.22723 10.0959 9.04055 10.1846L9.01051 9.84437C9.0017 9.74485 8.97012 9.64869 8.91819 9.56333C8.86627 9.47798 8.7954 9.40571 8.71107 9.35213C8.62675 9.29854 8.53122 9.26508 8.43189 9.25433C8.33256 9.24358 8.23209 9.25583 8.13825 9.29013C8.10526 9.30219 8.07337 9.31342 8.04223 9.32381C7.94519 9.35618 7.8478 9.38345 7.74978 9.40675C7.65674 9.42898 7.56974 9.47143 7.49496 9.53109C7.42018 9.59076 7.35947 9.66616 7.31713 9.75195C7.26364 9.67542 7.19431 9.6113 7.11386 9.56391C7.03341 9.51653 6.94371 9.48701 6.85084 9.47733C6.70776 9.46262 6.57779 9.43372 6.46532 9.39532C6.32243 9.34664 6.16707 9.34912 6.02581 9.40232C6.05756 9.25996 6.04061 9.11106 5.97766 8.97948C5.94908 8.92008 5.93161 8.85831 5.92564 8.78458C5.92405 8.76496 5.9234 8.74817 5.92338 8.735C5.92319 8.63318 5.89912 8.53282 5.85312 8.44198C5.80711 8.35114 5.74044 8.27236 5.65847 8.21195C5.57649 8.15155 5.4815 8.11121 5.38111 8.09417C5.28072 8.07714 5.17773 8.08388 5.08042 8.11385L4.6339 8.25148C4.721 8.00984 4.85074 7.76364 5.02246 7.52058L5.67895 7.86274C5.80184 7.92679 5.94195 7.94997 6.07892 7.9289C6.21589 7.90784 6.34257 7.84363 6.44054 7.74562C6.54674 7.63934 6.667 7.53647 6.79951 7.44059C6.91587 7.35628 7.00107 7.23585 7.04185 7.09807C7.08263 6.96028 7.07669 6.81288 7.02496 6.67882C7.10207 6.80055 7.21736 6.89327 7.3528 6.94247C7.48824 6.99166 7.63617 6.99454 7.77342 6.95067C7.90489 6.90849 8.03409 6.87566 8.16027 6.85128C8.30097 6.82378 8.42866 6.75062 8.52354 6.64316V6.64316ZM5.5398 9.89732L5.26127 10.2947C5.15271 10.2278 5.05661 10.1534 4.97104 10.0726L5.5398 9.89732ZM7.29036 10.5375L7.30229 10.6734C7.26422 10.6771 7.22733 10.6783 7.18968 10.681L7.29036 10.5375V10.5375Z" fill="#EBE7E4"/>

</g>%n%n
<g transform="translate(138.000000, 8.000000) scale(0.750000 0.750000) "> 

<defs>
<filter id="filter-remove-color" x="0%" y="0%" width="100%" height="100%">
<feColorMatrix color-interpolation-filters="sRGB" values="0 0 0 0 1 0 0 0 0 1 0 0 0 0 1 0 0 0 1 0" />
</filter>
<mask id="mask-0">
<g filter="url(#filter-remove-color)">
<rect x="-3.2" y="-3.2" width="38.4" height="38.4" fill="rgb(0%, 0%, 0%)" fill-opacity="0.691"/>
</g>
</mask>
<clip100Path id="clip100-0">
<rect x="0" y="0" width="32" height="32"/>
</clip100Path>
<g id="source-6" clip100-path="url(#clip100-0)">
<path fill-rule="evenodd" fill="rgb(24.705882%, 24.705882%, 24.705882%)" fill-opacity="1" d="M 19.914062 4.015625 C 17.78125 4.027344 15.488281 4.421875 13.175781 5.238281 C 4.949219 8.148438 -0.453125 15.324219 1.105469 21.269531 C 2.664062 27.210938 10.597656 29.671875 18.824219 26.761719 C 27.046875 23.851562 32.453125 16.671875 30.894531 10.730469 C 29.773438 6.457031 25.359375 3.988281 19.914062 4.015625 Z M 19.078125 6.570312 C 19.898438 6.566406 20.683594 6.632812 21.429688 6.769531 L 18.890625 10.378906 C 19.441406 10.429688 19.960938 10.53125 20.4375 10.6875 L 22.921875 7.148438 C 25.03125 7.851562 26.660156 9.175781 27.433594 11.011719 L 22.941406 12.480469 C 23.242188 12.910156 23.445312 13.394531 23.53125 13.925781 L 27.855469 12.511719 C 28.855469 14.742188 26.84375 18.066406 25.304688 19.742188 L 21.910156 17.976562 C 21.578125 18.375 21.199219 18.765625 20.777344 19.128906 L 24.183594 20.902344 C 22.582031 22.390625 20.546875 23.644531 18.222656 24.46875 C 17.964844 24.558594 17.710938 24.640625 17.453125 24.71875 L 17.160156 21.230469 C 17.054688 21.269531 16.945312 21.3125 16.832031 21.347656 C 16.492188 21.460938 16.15625 21.554688 15.824219 21.632812 L 16.105469 25.070312 C 14.039062 25.519531 12.050781 25.539062 10.304688 25.179688 L 12.585938 21.878906 C 12.039062 21.824219 11.523438 21.710938 11.054688 21.550781 L 8.800781 24.757812 C 6.695312 23.984375 5.109375 22.570312 4.429688 20.636719 L 8.550781 19.375 C 8.367188 18.996094 8.25 18.585938 8.214844 18.144531 C 8.207031 18.046875 8.203125 17.949219 8.203125 17.855469 L 4.097656 19.121094 C 3.871094 16.714844 4.960938 14.144531 6.964844 11.953125 L 10.253906 13.644531 C 10.636719 13.265625 11.0625 12.902344 11.527344 12.566406 L 8.140625 10.804688 C 9.6875 9.445312 11.609375 8.296875 13.777344 7.53125 C 14.027344 7.441406 14.273438 7.359375 14.523438 7.285156 L 14.878906 10.878906 C 15.332031 10.734375 15.777344 10.617188 16.21875 10.535156 L 15.890625 6.929688 C 16.984375 6.691406 18.054688 6.574219 19.078125 6.570312 Z M 19.078125 6.570312 "/>
</g>
</defs>
<g mask="url(#mask-0)">
<use xlink:href="#source-6"/>
</g>

</g>%n%n</svg>