<svg width="300" height="40" viewBox="0 0 300 40" fill="none" xmlns="http://www.w3.org/2000/svg" xmlns:xlink="http://www.w3.org/1999/xlink" version="1.1">

<g transform="translate(130.000000, 0.000000) scale(2.000000 2.000000) "> 

<g clip-path="url(#clip0)">
<path opacity="0.949" d="M9.9994 1C14.9626 1 19 5.00181 19 10C19 14.9655 14.9626 19 9.9994 19C5.0374 19 1 14.9655 1 10C1 5.00181 5.0374 1 9.9994 1Z" fill="#45ABE9"/>
<path opacity="0.95" fill-rule="evenodd" clip-rule="evenodd" d="M10 19C14.9706 19 19 14.9706 19 10C19 5.02944 14.9706 1 10 1C5.02944 1 1 5.02944 1 10C1 14.9706 5.02944 19 10 19ZM10 20C15.5228 20 20 15.5228 20 10C20 4.47715 15.5228 0 10 0C4.47715 0 0 4.47715 0 10C0 15.5228 4.47715 20 10 20Z" fill="#1578B3"/>
</g>
<defs>
<clipPath id="clip0">
<path d="M0 0H20V20H0V0Z" fill="white"/>
</clipPath>
</defs>

</g>%n%n
<g transform="translate(138.000000, 8.000000) scale(2.000000 2.000000) "> 

<g id="surface1">
<path style=" stroke:none;fill-rule:nonzero;fill:rgb(100%,100%,100%);fill-opacity:1;" d="M 1 7.5 L 1 11 L 11 11 L 11 10 L 6.5 10 C 5.933594 10 5.5 9.609375 5.5 9 L 5.5 7.5 Z M 6.5 7.5 L 6.5 9 L 11 9 L 11 7.5 Z M 6.5 7.5 "/>
<path style=" stroke:none;fill-rule:evenodd;fill:rgb(100%,100%,100%);fill-opacity:1;" d="M 4 1 C 2.894531 1 2 1.894531 2 3 L 2.5 3 C 2.5 2.171875 3.171875 1.5 4 1.5 C 4.828125 1.5 5.5 2.171875 5.5 3 L 5.5 7 L 6.5 7 L 6.5 3 C 6.5 2.171875 7.171875 1.5 8 1.5 C 8.828125 1.5 9.5 2.171875 9.5 3 L 10 3 C 10 1.894531 9.105469 1 8 1 C 6.894531 1 6 1.894531 6 3 C 6 1.894531 5.105469 1 4 1 Z M 4 1 "/>
</g>

</g>%n%n</svg>