<svg width="300" height="35" viewBox="0 0 300 35" fill="none" xmlns="http://www.w3.org/2000/svg" version="1.1" id="svg4" style="fill:none">

<g transform="translate(135.000000, 2.000000) scale(1.500000 1.500000) "> 

<g clip-path="url(#clip0)">
<path opacity="0.953" d="M9.99934 0C15.514 0 20 4.44646 20 10C20 15.5172 15.514 20 9.99934 20C4.48599 20 0 15.5172 0 10C0 4.44646 4.48599 0 9.99934 0V0Z" fill="#505050"/>
<path opacity="0.95" fill-rule="evenodd" clip-rule="evenodd" d="M10 19C14.9706 19 19 14.9706 19 10C19 5.02944 14.9706 1 10 1C5.02944 1 1 5.02944 1 10C1 14.9706 5.02944 19 10 19ZM10 20C15.5228 20 20 15.5228 20 10C20 4.47715 15.5228 0 10 0C4.47715 0 0 4.47715 0 10C0 15.5228 4.47715 20 10 20Z" fill="#909090"/>
</g>
<defs>
<clipPath id="clip0">
<path d="M0 0H20V20H0V0Z" fill="white"/>
</clipPath>
</defs>

</g>


<g transform="translate(141.000000, 8.000000) scale(0.375000 0.375000) "> 
<path style="color:#000;clip100-rule:nonzero;display:inline;overflow:visible;visibility:visible;opacity:1;isolation:auto;mix-blend-mode:normal;color-interpolation:sRGB;color-interpolation-filters:linearRGB;solid-color:#000;solid-opacity:1;vector-effect:none;fill:#fff;fill-opacity:1;fill-rule:nonzero;stroke:#b2b2b2;stroke-width:0;stroke-linecap:butt;stroke-linejoin:miter;stroke-miterlimit:4;stroke-dasharray:none;stroke-dashoffset:0;stroke-opacity:1;marker:none;paint-order:normal;color-rendering:auto;image-rendering:auto;shape-rendering:auto;text-rendering:auto;enable-background:accumulate" d="M16.28 19.14c-2.96.4-4.8.52-7.9 1.4-.91.33-1.59.68-1.97.98-.2.15-.3.26-.35.34-.05.08-.05.13-.05.14 0 .02.04.2.48.53.45.33 1.23.71 2.27 1.05 1.75.59 5.48 1.08 8.46 1.41a13.63 13.63 0 0 1-.94-5.85zm15.44 0a13.6 13.6 0 0 1-.94 5.85c2.98-.33 6.7-.82 8.46-1.4a8.8 8.8 0 0 0 2.27-1.06c.44-.32.48-.51.48-.53 0-.02-.02-.18-.4-.48a7.56 7.56 0 0 0-1.97-.98c-3.1-.88-4.94-1-7.9-1.4z" id="path836"/><path style="color:#000;clip100-rule:nonzero;display:inline;overflow:visible;visibility:visible;opacity:1;isolation:auto;mix-blend-mode:normal;color-interpolation:sRGB;color-interpolation-filters:linearRGB;solid-color:#000;solid-opacity:1;vector-effect:none;fill:#fff;fill-opacity:1;fill-rule:nonzero;stroke:none;stroke-width:0;stroke-linecap:butt;stroke-linejoin:miter;stroke-miterlimit:4;stroke-dasharray:none;stroke-dashoffset:0;stroke-opacity:1;marker:none;paint-order:normal;color-rendering:auto;image-rendering:auto;shape-rendering:auto;text-rendering:auto;enable-background:accumulate" d="M44 22c0 .91-.6 1.62-1.31 2.15-.72.52-1.66.95-2.82 1.33-2.3.77-6.73 1.35-10.53 1.67-3.64.34-7.65.25-10.68 0-3.8-.32-8.23-.9-10.54-1.67a10.3 10.3 0 0 1-2.8-1.33C4.58 23.62 4 22.9 4 22c0 12 8.95 14 20 14s20-2 20-14z" id="path822"/><path style="color:#000;clip100-rule:nonzero;display:inline;overflow:visible;visibility:visible;opacity:1;isolation:auto;mix-blend-mode:normal;color-interpolation:sRGB;color-interpolation-filters:linearRGB;solid-color:#000;solid-opacity:1;vector-effect:none;fill:#fff;fill-opacity:.83111954;fill-rule:nonzero;stroke:none;stroke-width:2;stroke-linecap:butt;stroke-linejoin:miter;stroke-miterlimit:4;stroke-dasharray:none;stroke-dashoffset:0;stroke-opacity:1;marker:none;paint-order:normal;color-rendering:auto;image-rendering:auto;shape-rendering:auto;text-rendering:auto;enable-background:accumulate" d="M24 12a5.3 5.3 0 0 0-4.16 2.25A9.43 9.43 0 0 0 18 20c0 1.24.43 3.01.64 3.56l.58 1.57s2.06.24 4.4.23c2.35-.02 4.98-.2 4.98-.2s.56-1.08.76-1.62c.2-.55.64-2.31.64-3.54 0-2.28-.72-4.32-1.84-5.75A5.3 5.3 0 0 0 24 12z" id="rect854"/>
</g>

</svg>