<svg width="300" height="40" viewBox="0 0 300 40" fill="none" xmlns="http://www.w3.org/2000/svg" xmlns:xlink="http://www.w3.org/1999/xlink" version="1.1">

<g transform="translate(130.000000, 0.000000) scale(2.500000 2.500000) "> 

<g opacity="0.797">
<path opacity="0.797" d="M8.01233 4.14499C7.79843 4.14207 7.58766 4.21032 7.40095 4.34296L1.33375 8.65457C1.0972 8.82283 0.911222 9.08599 0.80492 9.40286C0.698619 9.71974 0.677992 10.0724 0.746266 10.4058C0.814541 10.7392 0.967864 11.0344 1.18225 11.2452C1.39663 11.456 1.65997 11.5706 1.93107 11.571L14.071 11.583C14.3422 11.5831 14.6058 11.469 14.8204 11.2584C15.0351 11.0479 15.1888 10.7529 15.2574 10.4195C15.326 10.0862 15.3056 9.73334 15.1996 9.41624C15.0935 9.09915 14.9076 8.83569 14.6711 8.66713L8.59837 4.34358C8.4192 4.21605 8.21768 4.14776 8.01233 4.14499V4.14499Z" fill="#EBE7E4"/>
</g>

</g>%n%n
<g transform="translate(138.000000, 8.000000) scale(2.000000 2.000000) "> 

<g id="surface1">
<path style=" stroke:none;fill-rule:nonzero;fill:rgb(24.705882%,24.705882%,24.705882%);fill-opacity:1;" d="M 6 4 L 11 8 L 1 8 Z M 6 4 "/>
</g>

</g>%n%n</svg>