<svg width="300" height="40" viewBox="0 0 300 40" fill="none" xmlns="http://www.w3.org/2000/svg" xmlns:xlink="http://www.w3.org/1999/xlink">

<g transform="translate(130.000000, 0.000000) scale(2.000000 2.000000) "> 

<g clip-path="url(#clip0)">
<path opacity="0.949" d="M9.9994 1C14.9626 1 19 5.00181 19 10C19 14.9655 14.9626 19 9.9994 19C5.0374 19 1 14.9655 1 10C1 5.00181 5.0374 1 9.9994 1Z" fill="#45ABE9"/>
<path opacity="0.95" fill-rule="evenodd" clip-rule="evenodd" d="M10 19C14.9706 19 19 14.9706 19 10C19 5.02944 14.9706 1 10 1C5.02944 1 1 5.02944 1 10C1 14.9706 5.02944 19 10 19ZM10 20C15.5228 20 20 15.5228 20 10C20 4.47715 15.5228 0 10 0C4.47715 0 0 4.47715 0 10C0 15.5228 4.47715 20 10 20Z" fill="#1578B3"/>
</g>
<defs>
<clipPath id="clip0">
<path d="M0 0H20V20H0V0Z" fill="white"/>
</clipPath>
</defs>

</g>%n%n
<g transform="translate(138.000000, 8.000000) scale(2.000000 2.000000) "> 

<path fill-rule="evenodd" fill="rgb(100%, 100%, 100%)" fill-opacity="1" d="M 2.144531 11.316406 C 2.148438 11.242188 4.183594 11.402344 5.101562 10.839844 C 5.558594 10.5625 5.984375 10.171875 6.03125 9.203125 C 6.078125 8.183594 5.941406 8.242188 6.058594 7.449219 C 6.25 6.535156 6.910156 6.484375 7.0625 5.953125 C 7.675781 4.59375 5.878906 4.851562 5.523438 5.222656 C 5.371094 5.742188 4.613281 6.585938 4.703125 7.484375 C 5.300781 10.792969 4.300781 10.757812 2.144531 11.316406 Z M 2.144531 11.316406 "/>
<path fill-rule="nonzero" fill="rgb(100%, 100%, 100%)" fill-opacity="1" d="M 10.089844 3.617188 C 10.089844 4.359375 9.792969 5.070312 9.269531 5.597656 C 8.742188 6.121094 8.03125 6.417969 7.289062 6.417969 C 6.546875 6.417969 5.832031 6.121094 5.308594 5.597656 C 4.78125 5.070312 4.488281 4.359375 4.488281 3.617188 C 4.488281 2.875 4.78125 2.160156 5.308594 1.636719 C 5.832031 1.109375 6.546875 0.816406 7.289062 0.816406 C 8.03125 0.816406 8.742188 1.109375 9.269531 1.636719 C 9.792969 2.160156 10.089844 2.875 10.089844 3.617188 Z M 10.089844 3.617188 "/>

</g>%n%n</svg>