<svg width="300" height="40" viewBox="0 0 300 40" fill="none" xmlns="http://www.w3.org/2000/svg" xmlns:xlink="http://www.w3.org/1999/xlink" version="1.1">

<g transform="translate(130.000000, 0.000000) scale(2.500000 2.500000) "> 

<path opacity="0.812" d="M10.1758 1.14484C9.23371 1.14484 8.55057 1.58973 8.13976 2.06773C7.72812 2.13917 7.36579 2.36649 7.14243 2.64794C6.85099 3.01517 6.72419 3.43272 6.64616 3.82259C6.4901 4.60232 6.55511 5.34263 6.55511 5.34263C6.56739 5.49793 6.63504 5.64364 6.74576 5.75324L2.07824 13.8376C2.02125 13.9363 1.99125 14.0483 1.99124 14.1623C1.99123 14.2763 2.02121 14.3883 2.07818 14.4871C2.13515 14.5858 2.21709 14.6679 2.31578 14.7249C2.41448 14.782 2.52645 14.8121 2.64045 14.8122L12.5324 14.8196C12.6465 14.8197 12.7586 14.7897 12.8574 14.7327C12.9562 14.6757 13.0383 14.5937 13.0954 14.4949C13.1525 14.3961 13.1826 14.284 13.1826 14.1699C13.1826 14.0558 13.1526 13.9437 13.0956 13.8449L8.55595 5.98233C8.74443 5.8523 9.12022 5.66357 9.50243 5.56766C9.95298 5.4546 10.399 5.49053 10.5119 5.54999L10.4955 5.54103C11.7777 6.26372 13.0028 5.87826 13.7011 5.30741C14.3994 4.73657 14.7396 4.01019 14.7396 4.01019C14.812 3.86077 14.8244 3.68932 14.7744 3.53102C14.7243 3.37272 14.6156 3.23958 14.4705 3.15893C14.5741 3.11801 14.6655 3.05112 14.7358 2.96469C14.8062 2.87826 14.8531 2.7752 14.8721 2.66541C14.8911 2.55561 14.8816 2.44277 14.8444 2.33772C14.8073 2.23267 14.7437 2.13895 14.6598 2.06556C14.6598 2.06556 13.3222 0.98547 11.7332 1.62458C11.3544 1.41175 10.8138 1.14484 10.1758 1.14484ZM13.637 3.14688C13.7017 3.14893 13.7694 3.15402 13.838 3.16013C13.8075 3.17692 13.7784 3.19614 13.751 3.21759C13.751 3.21759 12.3331 4.30623 11.1037 3.60374L11.1201 3.61347C10.7603 3.39356 10.3623 3.38387 10.0119 3.44576C9.79139 3.48471 9.57917 3.55551 9.3727 3.64444C9.51465 3.5 9.72462 3.33352 9.99772 3.26849C10.3858 3.17608 11.2474 3.63535 11.2474 3.63535C11.3646 3.7167 11.5053 3.75722 11.6478 3.75067C11.7903 3.74411 11.9267 3.69084 12.036 3.59907C12.036 3.59907 12.5718 3.11316 13.637 3.14688ZM8.4379 4.18561C8.44003 4.1861 8.44217 4.18658 8.44431 4.18704C8.38089 4.23436 8.31894 4.28307 8.25842 4.33334C8.30771 4.27775 8.35375 4.23839 8.39226 4.21077C8.41086 4.19742 8.42225 4.19394 8.4379 4.18561V4.18561Z" fill="#EBE7E4"/>

</g>%n%n
<g transform="translate(138.000000, 8.000000) scale(2.000000 2.000000) "> 

<g id="surface1">
<path style=" stroke:none;fill-rule:evenodd;fill:rgb(83.137256%,0%,0%);fill-opacity:1;" d="M 1.261719 11.394531 L 5.589844 3.898438 L 9.921875 11.402344 Z M 1.261719 11.394531 "/>
<path style=" stroke:none;fill-rule:evenodd;fill:rgb(83.137256%,0%,0%);fill-opacity:1;" d="M 9.195312 1.058594 C 8.886719 0.886719 8.300781 0.566406 7.859375 0.566406 C 7.070312 0.566406 6.609375 0.980469 6.371094 1.355469 C 5.070312 1.253906 5.253906 3.628906 5.253906 3.628906 C 5.503906 2.039062 6.488281 1.96875 6.488281 2.113281 C 6.488281 2.113281 6.851562 1.476562 7.570312 1.304688 C 8.289062 1.132812 9.121094 1.710938 9.121094 1.710938 C 9.121094 1.710938 9.976562 0.992188 11.410156 1.234375 C 11.410156 1.234375 10.425781 0.375 9.195312 1.058594 Z M 9.195312 1.058594 "/>
<path style=" stroke:none;fill-rule:evenodd;fill:rgb(83.137256%,0%,0%);fill-opacity:1;" d="M 8.386719 2.644531 C 9.824219 3.464844 11.339844 2.257812 11.339844 2.257812 C 11.339844 2.257812 10.296875 4.410156 8.417969 3.351562 C 7.765625 3.011719 6.449219 3.429688 5.96875 3.875 C 6.414062 3.125 7.773438 2.269531 8.386719 2.644531 Z M 8.386719 2.644531 "/>
</g>

</g>%n%n</svg>