<svg width="300" height="40" viewBox="0 0 300 40" fill="none" xmlns="http://www.w3.org/2000/svg" xmlns:xlink="http://www.w3.org/1999/xlink">

<g transform="translate(130.000000, 0.000000) scale(2.000000 2.000000) "> 

<g clip-path="url(#clip0)">
<path opacity="0.953" d="M9.99934 0C15.514 0 20 4.44646 20 10C20 15.5172 15.514 20 9.99934 20C4.48599 20 0 15.5172 0 10C0 4.44646 4.48599 0 9.99934 0V0Z" fill="#878787"/>
<path opacity="0.95" fill-rule="evenodd" clip-rule="evenodd" d="M10 19C14.9706 19 19 14.9706 19 10C19 5.02944 14.9706 1 10 1C5.02944 1 1 5.02944 1 10C1 14.9706 5.02944 19 10 19ZM10 20C15.5228 20 20 15.5228 20 10C20 4.47715 15.5228 0 10 0C4.47715 0 0 4.47715 0 10C0 15.5228 4.47715 20 10 20Z" fill="#404040"/>
</g>
<defs>
<clipPath id="clip0">
<path d="M0 0H20V20H0V0Z" fill="white"/>
</clipPath>
</defs>

</g>%n%n
<g transform="translate(138.000000, 8.000000) scale(0.750000 0.750000) "> 

<defs>
<filter id="filter-remove-color" x="0%" y="0%" width="100%" height="100%">
<feColorMatrix color-interpolation-filters="sRGB" values="0 0 0 0 1 0 0 0 0 1 0 0 0 0 1 0 0 0 1 0" />
</filter>
<mask id="mask-0">
<g filter="url(#filter-remove-color)">
<rect x="-3.2" y="-3.2" width="38.4" height="38.4" fill="rgb(0%, 0%, 0%)" fill-opacity="0.1"/>
</g>
</mask>
<clip100Path id="clip100-0">
<rect x="0" y="0" width="32" height="32"/>
</clip100Path>
<g id="source-7" clip100-path="url(#clip100-0)">
<path fill-rule="nonzero" fill="rgb(100%, 100%, 100%)" fill-opacity="1" d="M 1.914062 22.519531 C 2.046875 22.214844 3.703125 19.875 5.597656 17.320312 C 8.316406 13.652344 9.714844 12.382812 12.222656 11.304688 C 16.144531 9.617188 20.074219 9.519531 21.503906 11.074219 C 24.886719 14.757812 28.378906 18.957031 29.386719 20.5625 C 31.285156 23.636719 28.132812 23.996094 19.78125 24.199219 C 15.332031 24.328125 15.078125 24.25 10.460938 24.292969 C 8.304688 24.234375 1.835938 23.207031 1.914062 22.519531 Z M 1.914062 22.519531 "/>
</g>
</defs>
<path fill-rule="nonzero" fill="rgb(100%, 100%, 100%)" fill-opacity="1" d="M 1.914062 22.519531 C 2.046875 22.214844 3.703125 19.875 5.597656 17.320312 C 8.316406 13.652344 9.714844 12.382812 12.222656 11.304688 C 16.144531 9.617188 20.074219 9.519531 21.503906 11.074219 C 24.886719 14.757812 28.378906 18.957031 29.386719 20.5625 C 30.804688 22.820312 30.082031 23.875 28.585938 21.730469 C 27.996094 20.886719 26.34375 18.871094 24.914062 17.25 C 18.78125 10.304688 18.765625 10.296875 13.070312 12.722656 C 10.273438 13.914062 9.183594 14.898438 6.820312 18.390625 C 5.246094 20.714844 3.445312 22.71875 2.816406 22.84375 C 2.191406 22.964844 1.785156 22.820312 1.914062 22.519531 Z M 1.914062 22.519531 "/>
<g mask="url(#mask-0)">
<use xlink:href="#source-7"/>
</g>
<path fill-rule="nonzero" fill="rgb(100%, 100%, 100%)" fill-opacity="1" d="M 8.328125 22.90625 C 8.328125 21.121094 13.304688 15.472656 14.878906 15.472656 C 17.394531 15.472656 20 17.03125 21.898438 19.675781 C 23.019531 21.234375 23.9375 22.683594 23.9375 22.894531 C 23.9375 23.101562 20.425781 23.273438 16.132812 23.273438 C 11.839844 23.273438 8.328125 23.109375 8.328125 22.90625 Z M 8.328125 22.90625 "/>

</g>%n%n</svg>