<svg width="300" height="40" viewBox="0 0 300 40" fill="none" xmlns="http://www.w3.org/2000/svg" >

<g transform="translate(130.000000, 0.000000) scale(2.000000 2.000000) "> 

<g clip-path="url(#clip0)">
<path opacity="0.953" d="M9.99934 0C15.514 0 20 4.44646 20 10C20 15.5172 15.514 20 9.99934 20C4.48599 20 0 15.5172 0 10C0 4.44646 4.48599 0 9.99934 0V0Z" fill="#878787"/>
<path opacity="0.95" fill-rule="evenodd" clip-rule="evenodd" d="M10 19C14.9706 19 19 14.9706 19 10C19 5.02944 14.9706 1 10 1C5.02944 1 1 5.02944 1 10C1 14.9706 5.02944 19 10 19ZM10 20C15.5228 20 20 15.5228 20 10C20 4.47715 15.5228 0 10 0C4.47715 0 0 4.47715 0 10C0 15.5228 4.47715 20 10 20Z" fill="#404040"/>
</g>
<defs>
<clipPath id="clip0">
<path d="M0 0H20V20H0V0Z" fill="white"/>
</clipPath>
</defs>

</g>


<g transform="translate(138.000000, 8.000000) scale(0.041379 0.041379) "> 

<path d="M34.703 408.134C37.0702 402.653 67.1079 360.259 101.453 313.924C150.709 247.475 176.067 224.445 221.503 204.899C292.628 174.302 363.832 172.544 389.763 200.745C451.099 267.45 514.393 343.624 532.621 372.672C558.307 413.605 545.223 432.746 518.111 393.898C507.424 378.584 477.464 342.013 451.533 312.63C340.44 186.743 340.1 186.613 236.908 230.574C186.189 252.18 166.478 270.06 123.61 333.343C95.067 375.48 62.4178 411.788 51.0563 414.027C39.6948 416.267 32.3358 413.615 34.703 408.134Z" fill="#ffffff"/>
<path opacity="0.1" d="M34.703 408.134C37.0702 402.653 67.1079 360.259 101.453 313.924C150.709 247.475 176.067 224.445 221.503 204.899C292.628 174.302 363.832 172.544 389.763 200.745C451.098 267.45 514.393 343.624 532.621 372.672C567.023 428.387 509.931 434.904 358.533 438.63C277.919 440.943 273.292 439.504 189.61 440.343C150.536 439.221 33.2486 420.603 34.703 408.134Z" fill="#ffffff"/>
<path d="M150.979 415.181C150.979 382.814 241.17 280.412 269.678 280.412C315.284 280.412 362.525 308.7 396.934 356.613C417.24 384.888 433.854 411.134 433.854 414.936C433.854 418.738 370.207 421.849 292.416 421.849C214.625 421.849 150.979 418.849 150.979 415.181Z" fill="#ffffff"/>

</g>

</svg>