<svg width="300" height="40" viewBox="0 0 300 40" fill="none" xmlns="http://www.w3.org/2000/svg" xmlns:xlink="http://www.w3.org/1999/xlink">

<g transform="translate(130.000000, 0.000000) scale(2.000000 2.000000) "> 

<g clip-path="url(#clip0)">
<path opacity="0.953" d="M9.99934 0C15.514 0 20 4.44646 20 10C20 15.5172 15.514 20 9.99934 20C4.48599 20 0 15.5172 0 10C0 4.44646 4.48599 0 9.99934 0V0Z" fill="#878787"/>
<path opacity="0.95" fill-rule="evenodd" clip-rule="evenodd" d="M10 19C14.9706 19 19 14.9706 19 10C19 5.02944 14.9706 1 10 1C5.02944 1 1 5.02944 1 10C1 14.9706 5.02944 19 10 19ZM10 20C15.5228 20 20 15.5228 20 10C20 4.47715 15.5228 0 10 0C4.47715 0 0 4.47715 0 10C0 15.5228 4.47715 20 10 20Z" fill="#404040"/>
</g>
<defs>
<clipPath id="clip0">
<path d="M0 0H20V20H0V0Z" fill="white"/>
</clipPath>
</defs>

</g>%n%n
<g transform="translate(138.000000, 8.000000) scale(0.750000 0.750000) "> 

<path fill-rule="nonzero" fill="rgb(100%, 100%, 100%)" fill-opacity="0.814042" d="M 14.535156 4 C 13.097656 4.035156 11.960938 5.230469 12 6.667969 L 12 10.667969 C 10.527344 10.667969 9.332031 11.859375 9.332031 13.332031 L 9.332031 28 L 22.667969 28 L 22.667969 16 C 22.667969 14.519531 21.566406 13.332031 20.199219 13.332031 L 20 13.332031 L 20 9.332031 C 20 7.851562 18.886719 6.667969 17.5 6.667969 L 17.332031 6.667969 C 17.332031 5.1875 16.199219 4 14.800781 4 Z M 14.535156 4 "/>

</g>%n%n</svg>