<svg width="40" height="40" viewBox="0 0 40 40" fill="none" xmlns="http://www.w3.org/2000/svg" >

<g transform="translate(0.000000, 0.000000) scale(2.000000 2.000000) "> 

<g clip-path="url(#clip0)">
<path opacity="0.949" d="M9.9994 1C14.9626 1 19 5.00181 19 10C19 14.9655 14.9626 19 9.9994 19C5.0374 19 1 14.9655 1 10C1 5.00181 5.0374 1 9.9994 1Z" fill="#45ABE9"/>
<path opacity="0.95" fill-rule="evenodd" clip-rule="evenodd" d="M10 19C14.9706 19 19 14.9706 19 10C19 5.02944 14.9706 1 10 1C5.02944 1 1 5.02944 1 10C1 14.9706 5.02944 19 10 19ZM10 20C15.5228 20 20 15.5228 20 10C20 4.47715 15.5228 0 10 0C4.47715 0 0 4.47715 0 10C0 15.5228 4.47715 20 10 20Z" fill="#1578B3"/>
</g>
<defs>
<clipPath id="clip0">
<path d="M0 0H20V20H0V0Z" fill="white"/>
</clipPath>
</defs>

</g>


<g transform="translate(8.000000, 8.000000) scale(0.041379 0.041379) "> 

<path fill-rule="evenodd" clip100-rule="evenodd" d="M43.9821 540.313C44.132 538.532 115.251 542.447 147.36 528.596C163.346 521.7 172.423 510.972 179.879 488.217C185.126 472.206 176.819 457.67 190.607 434.46C204.395 411.249 197.323 438.426 202.692 425.371C175.786 403.565 153.696 403.408 141.317 412.622C136.011 425.356 134.157 446.411 137.341 468.579C143.362 511.389 119.467 526.576 43.9821 540.313Z" fill="#ffffff"/>
<path fill-rule="evenodd" clip100-rule="evenodd" d="M192.911 355.601C193.068 353.724 205.985 354.792 225.681 334.207C240.942 318.257 253.781 300.016 254.585 274.807C256.408 217.621 226.893 210.858 227.451 169.942C228.009 129.027 234.171 116.241 245.151 81.024C220.925 96.7308 194.673 149.727 195.631 178.948C196.588 208.17 224.681 234.871 226.69 264.826C228.7 294.781 213.582 325.084 192.911 355.601Z" fill="#ffffff"/>
<path fill-rule="evenodd" clip100-rule="evenodd" d="M269.781 384.507C269.972 382.236 285.607 383.528 309.451 358.609C327.926 339.3 343.468 317.219 344.441 286.702C346.648 217.476 310.919 209.288 311.594 159.758C312.27 110.228 319.728 94.7492 333.02 52.1177C303.694 71.1317 271.915 135.286 273.074 170.66C274.233 206.034 308.241 238.358 310.673 274.62C313.105 310.882 294.805 347.565 269.781 384.507Z" fill="#ffffff"/>
<path fill-rule="evenodd" clip100-rule="evenodd" d="M363.654 359.601C363.811 357.724 376.728 358.792 396.424 338.207C411.685 322.257 424.524 304.016 425.328 278.807C427.151 221.621 397.636 214.858 398.194 173.942C398.752 133.027 404.914 120.241 415.894 85.024C391.668 100.731 365.416 153.727 366.374 182.948C367.331 212.17 395.424 238.871 397.433 268.826C399.443 298.781 384.326 329.084 363.654 359.601Z" fill="#ffffff"/>
<path d="M303.906 280.781C172.739 280.781 66.4062 326.252 66.4062 382.344C66.4062 438.435 172.739 483.906 303.906 483.906C435.074 483.906 541.406 438.435 541.406 382.344C541.406 326.252 435.074 280.781 303.906 280.781ZM303.906 281.344C400.768 281.344 479.281 314.922 479.281 356.344C479.281 397.765 400.768 431.344 303.906 431.344C207.044 431.344 128.531 397.765 128.531 356.344C128.531 314.922 207.044 281.344 303.906 281.344Z" fill="#ffffff"/>

</g>

</svg>