<svg width="300" height="40" viewBox="0 0 300 40" fill="none" xmlns="http://www.w3.org/2000/svg" xmlns:xlink="http://www.w3.org/1999/xlink" version="1.1">

<g transform="translate(130.000000, 0.000000) scale(2.500000 2.500000) "> 

<path opacity="0.819" d="M9.30724 3.31228C8.49394 3.31654 7.63311 3.46651 6.76975 3.77198C5.23476 4.3151 3.95958 5.25062 3.11957 6.3661C2.27956 7.48159 1.86194 8.8138 2.19404 10.0795C2.52615 11.3452 3.55724 12.2357 4.8241 12.6286C6.09096 13.0215 7.61679 12.9659 9.15187 12.4227C10.6869 11.8796 11.9623 10.9437 12.8024 9.82783C13.6426 8.71201 14.0604 7.37956 13.7283 6.11375C13.2509 4.29422 11.3851 3.30141 9.30724 3.31228ZM10.5744 5.85498C10.6742 5.91056 10.7652 5.97159 10.8475 6.03772L10.3267 6.20802L10.5744 5.85498ZM6.89203 6.00505L6.92585 6.38794C6.93138 6.4483 6.94531 6.50759 6.96723 6.56409C6.9059 6.46736 6.82014 6.38851 6.7186 6.33551L6.48924 6.21603C6.61868 6.14106 6.75321 6.07069 6.89203 6.00505ZM8.52354 6.64316C8.62777 6.73688 8.75947 6.79448 8.89905 6.80737C9.04506 6.82053 9.17716 6.8477 9.29033 6.88441C9.42567 6.92799 9.57155 6.92608 9.70571 6.87897C9.70452 7.01405 9.74537 7.14615 9.8226 7.25698C9.87198 7.32751 9.90088 7.39722 9.91517 7.4857C9.93017 7.57855 9.96511 7.66705 10.0176 7.74511C10.0701 7.82317 10.1388 7.88894 10.2191 7.93789C10.2994 7.98684 10.3894 8.01782 10.4828 8.02868C10.5763 8.03955 10.6709 8.03004 10.7603 8.00083L11.3309 7.81431C11.258 8.05737 11.1411 8.30663 10.9801 8.55466L10.3009 8.20071C10.1685 8.13174 10.0164 8.11033 9.87016 8.14009C9.72388 8.16984 9.59227 8.24894 9.49735 8.36414C9.40751 8.47319 9.30266 8.5807 9.1838 8.68326C9.10332 8.75273 9.04107 8.84084 9.00249 8.93991C8.96391 9.03898 8.95016 9.14598 8.96246 9.25159C8.97476 9.35719 9.01273 9.45817 9.07304 9.54572C9.13336 9.63327 9.21419 9.70472 9.30848 9.75383L9.5743 9.89225C9.40494 9.99744 9.22723 10.0959 9.04055 10.1846L9.01051 9.84437C9.0017 9.74485 8.97012 9.64869 8.91819 9.56333C8.86627 9.47798 8.7954 9.40571 8.71107 9.35213C8.62675 9.29854 8.53122 9.26508 8.43189 9.25433C8.33256 9.24358 8.23209 9.25583 8.13825 9.29013C8.10526 9.30219 8.07337 9.31342 8.04223 9.32381C7.94519 9.35618 7.8478 9.38345 7.74978 9.40675C7.65674 9.42898 7.56974 9.47143 7.49496 9.53109C7.42018 9.59076 7.35947 9.66616 7.31713 9.75195C7.26364 9.67542 7.19431 9.6113 7.11386 9.56391C7.03341 9.51653 6.94371 9.48701 6.85084 9.47733C6.70776 9.46262 6.57779 9.43372 6.46532 9.39532C6.32243 9.34664 6.16707 9.34912 6.02581 9.40232C6.05756 9.25996 6.04061 9.11106 5.97766 8.97948C5.94908 8.92008 5.93161 8.85831 5.92564 8.78458C5.92405 8.76496 5.9234 8.74817 5.92338 8.735C5.92319 8.63318 5.89912 8.53282 5.85312 8.44198C5.80711 8.35114 5.74044 8.27236 5.65847 8.21195C5.57649 8.15155 5.4815 8.11121 5.38111 8.09417C5.28072 8.07714 5.17773 8.08388 5.08042 8.11385L4.6339 8.25148C4.721 8.00984 4.85074 7.76364 5.02246 7.52058L5.67895 7.86274C5.80184 7.92679 5.94195 7.94997 6.07892 7.9289C6.21589 7.90784 6.34257 7.84363 6.44054 7.74562C6.54674 7.63934 6.667 7.53647 6.79951 7.44059C6.91587 7.35628 7.00107 7.23585 7.04185 7.09807C7.08263 6.96028 7.07669 6.81288 7.02496 6.67882C7.10207 6.80055 7.21736 6.89327 7.3528 6.94247C7.48824 6.99166 7.63617 6.99454 7.77342 6.95067C7.90489 6.90849 8.03409 6.87566 8.16027 6.85128C8.30097 6.82378 8.42866 6.75062 8.52354 6.64316V6.64316ZM5.5398 9.89732L5.26127 10.2947C5.15271 10.2278 5.05661 10.1534 4.97104 10.0726L5.5398 9.89732ZM7.29036 10.5375L7.30229 10.6734C7.26422 10.6771 7.22733 10.6783 7.18968 10.681L7.29036 10.5375V10.5375Z" fill="#EBE7E4"/>

</g>%n%n
<g transform="translate(138.000000, 8.000000) scale(2.000000 2.000000) "> 

<defs>
<filter id="alpha" filterUnits="objectBoundingBox" x="0%" y="0%" width="100%" height="100%">
  <feColorMatrix type="matrix" in="SourceGraphic" values="0 0 0 0 1 0 0 0 0 1 0 0 0 0 1 0 0 0 1 0"/>
</filter>
<mask id="mask0">
  <g filter="url(#alpha)">
<rect x="0" y="0" width="12" height="12" style="fill:rgb(0%,0%,0%);fill-opacity:0.691;stroke:none;"/>
  </g>
</mask>
<clip100Path id="clip1001">
  <rect x="0" y="0" width="12" height="12"/>
</clip100Path>
<g id="surface5" clip100-path="url(#clip1001)">
<path style=" stroke:none;fill-rule:evenodd;fill:rgb(24.705882%,24.705882%,24.705882%);fill-opacity:1;" d="M 7.46875 1.507812 C 6.667969 1.511719 5.808594 1.65625 4.941406 1.964844 C 1.855469 3.054688 -0.171875 5.746094 0.414062 7.976562 C 1 10.203125 3.972656 11.125 7.058594 10.035156 C 10.144531 8.945312 12.171875 6.253906 11.585938 4.023438 C 11.164062 2.421875 9.511719 1.496094 7.46875 1.507812 Z M 7.15625 2.464844 C 7.460938 2.460938 7.757812 2.488281 8.035156 2.539062 L 7.082031 3.890625 C 7.289062 3.910156 7.484375 3.949219 7.664062 4.007812 L 8.597656 2.679688 C 9.386719 2.945312 9.996094 3.441406 10.289062 4.128906 L 8.605469 4.679688 C 8.714844 4.839844 8.792969 5.023438 8.824219 5.222656 L 10.445312 4.691406 C 10.820312 5.527344 10.066406 6.773438 9.488281 7.402344 L 8.214844 6.742188 C 8.09375 6.890625 7.949219 7.035156 7.792969 7.171875 L 9.070312 7.839844 C 8.46875 8.394531 7.703125 8.867188 6.832031 9.175781 C 6.738281 9.210938 6.640625 9.242188 6.546875 9.269531 L 6.4375 7.960938 C 6.394531 7.976562 6.355469 7.992188 6.3125 8.003906 C 6.183594 8.046875 6.058594 8.082031 5.933594 8.113281 L 6.039062 9.402344 C 5.265625 9.570312 4.519531 9.578125 3.863281 9.441406 L 4.71875 8.203125 C 4.515625 8.183594 4.320312 8.140625 4.144531 8.082031 L 3.300781 9.285156 C 2.511719 8.992188 1.917969 8.464844 1.660156 7.738281 L 3.207031 7.265625 C 3.136719 7.125 3.09375 6.96875 3.082031 6.804688 C 3.078125 6.769531 3.078125 6.730469 3.078125 6.695312 L 1.535156 7.167969 C 1.453125 6.269531 1.859375 5.304688 2.613281 4.484375 L 3.847656 5.117188 C 3.988281 4.972656 4.148438 4.839844 4.320312 4.710938 L 3.050781 4.050781 C 3.632812 3.542969 4.351562 3.113281 5.167969 2.824219 C 5.261719 2.789062 5.351562 2.761719 5.445312 2.730469 L 5.578125 4.078125 C 5.75 4.023438 5.917969 3.980469 6.082031 3.949219 L 5.957031 2.597656 C 6.367188 2.507812 6.769531 2.464844 7.15625 2.464844 Z M 7.15625 2.464844 "/>
</g>
</defs>
<g id="surface1">
<use xlink:href="#surface5" mask="url(#mask0)"/>
</g>

</g>%n%n</svg>