<svg width="300" height="40" viewBox="0 0 300 40" fill="none" xmlns="http://www.w3.org/2000/svg" xmlns:xlink="http://www.w3.org/1999/xlink">

<g transform="translate(130.000000, 0.000000) scale(2.000000 2.000000) "> 

<g clip-path="url(#clip0)">
<path opacity="0.949" d="M9.9994 1C14.9626 1 19 5.00181 19 10C19 14.9655 14.9626 19 9.9994 19C5.0374 19 1 14.9655 1 10C1 5.00181 5.0374 1 9.9994 1Z" fill="#45ABE9"/>
<path opacity="0.95" fill-rule="evenodd" clip-rule="evenodd" d="M10 19C14.9706 19 19 14.9706 19 10C19 5.02944 14.9706 1 10 1C5.02944 1 1 5.02944 1 10C1 14.9706 5.02944 19 10 19ZM10 20C15.5228 20 20 15.5228 20 10C20 4.47715 15.5228 0 10 0C4.47715 0 0 4.47715 0 10C0 15.5228 4.47715 20 10 20Z" fill="#1578B3"/>
</g>
<defs>
<clipPath id="clip0">
<path d="M0 0H20V20H0V0Z" fill="white"/>
</clipPath>
</defs>

</g>%n%n
<g transform="translate(138.000000, 8.000000) scale(0.750000 0.750000) "> 

<path fill-rule="evenodd" fill="rgb(100%, 100%, 100%)" fill-opacity="1" d="M 5.71875 30.175781 C 5.730469 29.984375 11.152344 30.40625 13.601562 28.910156 C 14.820312 28.160156 15.960938 27.125 16.078125 24.539062 C 16.207031 21.820312 15.84375 21.984375 16.152344 19.867188 C 16.671875 17.425781 18.421875 17.292969 18.832031 15.878906 C 20.472656 12.25 15.675781 12.933594 14.730469 13.929688 C 14.328125 15.308594 12.300781 17.566406 12.542969 19.964844 C 14.136719 28.78125 11.472656 28.691406 5.71875 30.175781 Z M 5.71875 30.175781 "/>
<path fill-rule="nonzero" fill="rgb(100%, 100%, 100%)" fill-opacity="1" d="M 26.90625 9.644531 C 26.90625 11.625 26.117188 13.523438 24.71875 14.925781 C 23.316406 16.324219 21.417969 17.113281 19.4375 17.113281 C 17.453125 17.113281 15.554688 16.324219 14.152344 14.925781 C 12.753906 13.523438 11.964844 11.625 11.964844 9.644531 C 11.964844 7.660156 12.753906 5.761719 14.152344 4.359375 C 15.554688 2.960938 17.453125 2.171875 19.4375 2.171875 C 21.417969 2.171875 23.316406 2.960938 24.71875 4.359375 C 26.117188 5.761719 26.90625 7.660156 26.90625 9.644531 Z M 26.90625 9.644531 "/>

</g>%n%n</svg>