<svg width="300" height="40" viewBox="0 0 300 40" fill="none" xmlns="http://www.w3.org/2000/svg" xmlns:xlink="http://www.w3.org/1999/xlink">

<g transform="translate(130.000000, 0.000000) scale(2.000000 2.000000) "> 

<g clip-path="url(#clip0)">
<path opacity="0.953" d="M9.99934 0C15.514 0 20 4.44646 20 10C20 15.5172 15.514 20 9.99934 20C4.48599 20 0 15.5172 0 10C0 4.44646 4.48599 0 9.99934 0V0Z" fill="#878787"/>
<path opacity="0.95" fill-rule="evenodd" clip-rule="evenodd" d="M10 19C14.9706 19 19 14.9706 19 10C19 5.02944 14.9706 1 10 1C5.02944 1 1 5.02944 1 10C1 14.9706 5.02944 19 10 19ZM10 20C15.5228 20 20 15.5228 20 10C20 4.47715 15.5228 0 10 0C4.47715 0 0 4.47715 0 10C0 15.5228 4.47715 20 10 20Z" fill="#404040"/>
</g>
<defs>
<clipPath id="clip0">
<path d="M0 0H20V20H0V0Z" fill="white"/>
</clipPath>
</defs>

</g>%n%n
<g transform="translate(138.000000, 8.000000) scale(0.750000 0.750000) "> 

<path fill-rule="nonzero" fill="rgb(100%, 100%, 100%)" fill-opacity="1" d="M 9.332031 1.332031 L 9.332031 18.667969 L 10.667969 18.667969 C 10.667969 17.929688 11.261719 17.332031 12 17.332031 C 12.738281 17.332031 13.332031 17.929688 13.332031 18.667969 L 14.667969 18.667969 C 14.667969 17.929688 15.261719 17.332031 16 17.332031 C 16.738281 17.332031 17.332031 17.929688 17.332031 18.667969 L 18.667969 18.667969 C 18.667969 17.929688 19.261719 17.332031 20 17.332031 C 20.738281 17.332031 21.332031 17.929688 21.332031 18.667969 L 22.667969 18.667969 L 22.667969 1.332031 L 21.332031 1.332031 C 21.332031 2.070312 20.738281 2.667969 20 2.667969 C 19.261719 2.667969 18.667969 2.070312 18.667969 1.332031 L 17.332031 1.332031 C 17.332031 2.070312 16.738281 2.667969 16 2.667969 C 15.261719 2.667969 14.667969 2.070312 14.667969 1.332031 L 13.332031 1.332031 C 13.332031 2.070312 12.738281 2.667969 12 2.667969 C 11.261719 2.667969 10.667969 2.070312 10.667969 1.332031 Z M 9.332031 1.332031 "/>
<path fill-rule="nonzero" fill="rgb(100%, 100%, 100%)" fill-opacity="1" d="M 8 21.332031 C 6.519531 21.332031 5.621094 22.554688 5.332031 24 L 5.332031 30.667969 L 26.667969 30.667969 L 26.667969 24 C 26.667969 22.527344 25.472656 21.332031 24 21.332031 Z M 8 21.332031 "/>
<path fill-rule="nonzero" fill="rgb(100%, 100%, 100%)" fill-opacity="1" d="M 9.332031 24 L 22.667969 24 L 22.667969 25.332031 L 9.332031 25.332031 Z M 9.332031 24 "/>

</g>%n%n</svg>