<svg width="40" height="40" viewBox="0 0 40 40" fill="none" xmlns="http://www.w3.org/2000/svg" >

<g transform="translate(0.000000, 0.000000) scale(2.000000 2.000000) "> 

<g clip-path="url(#clip0)">
<path opacity="0.953" d="M9.99934 0C15.514 0 20 4.44646 20 10C20 15.5172 15.514 20 9.99934 20C4.48599 20 0 15.5172 0 10C0 4.44646 4.48599 0 9.99934 0V0Z" fill="#878787"/>
<path opacity="0.95" fill-rule="evenodd" clip-rule="evenodd" d="M10 19C14.9706 19 19 14.9706 19 10C19 5.02944 14.9706 1 10 1C5.02944 1 1 5.02944 1 10C1 14.9706 5.02944 19 10 19ZM10 20C15.5228 20 20 15.5228 20 10C20 4.47715 15.5228 0 10 0C4.47715 0 0 4.47715 0 10C0 15.5228 4.47715 20 10 20Z" fill="#404040"/>
</g>
<defs>
<clipPath id="clip0">
<path d="M0 0H20V20H0V0Z" fill="white"/>
</clipPath>
</defs>

</g>


<g transform="translate(8.000000, 8.000000) scale(2.000000 2.000000) "> 

<path fill-rule="evenodd" clip100-rule="evenodd" d="M24 4L8 12V16H24C22.8954 16 22 16.8954 22 18V20C19.7909 20 18 21.7909 18 24V26C18 28.2091 19.7909 30 22 30H26V32H20C18.8954 32 18 32.8954 18 34C18 35.1046 18.8954 36 20 36H22V38C22 39.1046 22.8954 40 24 40H8V44H40V40H24C25.1046 40 26 39.1046 26 38V36C28.2091 36 30 34.2091 30 32V30C30 27.7909 28.2091 26 26 26H22V24H28C29.1046 24 30 23.1046 30 22C30 20.8954 29.1046 20 28 20H26V18C26 16.8954 25.1046 16 24 16H40V12L24 4ZM24 12C25.1046 12 26 11.1046 26 10C26 8.89543 25.1046 8 24 8C22.8954 8 22 8.89543 22 10C22 11.1046 22.8954 12 24 12Z" fill="#ffffff"/>
<path d="M8 20H12V36H8V20Z" fill="#ffffff"/>
<path d="M40 20H36V36H40V20Z" fill="#ffffff"/>

</g>

</svg>