<svg width="300" height="40" viewBox="0 0 300 40" fill="none" xmlns="http://www.w3.org/2000/svg" xmlns:xlink="http://www.w3.org/1999/xlink" version="1.1">

<g transform="translate(130.000000, 0.000000) scale(2.000000 2.000000) "> 

<g clip-path="url(#clip0)">
<path opacity="0.953" d="M9.99934 0C15.514 0 20 4.44646 20 10C20 15.5172 15.514 20 9.99934 20C4.48599 20 0 15.5172 0 10C0 4.44646 4.48599 0 9.99934 0V0Z" fill="#878787"/>
<path opacity="0.95" fill-rule="evenodd" clip-rule="evenodd" d="M10 19C14.9706 19 19 14.9706 19 10C19 5.02944 14.9706 1 10 1C5.02944 1 1 5.02944 1 10C1 14.9706 5.02944 19 10 19ZM10 20C15.5228 20 20 15.5228 20 10C20 4.47715 15.5228 0 10 0C4.47715 0 0 4.47715 0 10C0 15.5228 4.47715 20 10 20Z" fill="#404040"/>
</g>
<defs>
<clipPath id="clip0">
<path d="M0 0H20V20H0V0Z" fill="white"/>
</clipPath>
</defs>

</g>%n%n
<g transform="translate(138.000000, 8.000000) scale(2.000000 2.000000) "> 

<defs>
<filter id="alpha" filterUnits="objectBoundingBox" x="0%" y="0%" width="100%" height="100%">
  <feColorMatrix type="matrix" in="SourceGraphic" values="0 0 0 0 1 0 0 0 0 1 0 0 0 0 1 0 0 0 1 0"/>
</filter>
<mask id="mask0">
  <g filter="url(#alpha)">
<rect x="0" y="0" width="12" height="12" style="fill:rgb(0%,0%,0%);fill-opacity:0.5;stroke:none;"/>
  </g>
</mask>
<clip100Path id="clip1001">
  <rect x="0" y="0" width="12" height="12"/>
</clip100Path>
<g id="surface5" clip100-path="url(#clip1001)">
<path style=" stroke:none;fill-rule:nonzero;fill:rgb(100%,100%,100%);fill-opacity:1;" d="M 10 10 L 3 10 L 3 4 L 2 4 L 2 11 C 2 11.550781 2.449219 12 3 12 L 9 12 C 9.550781 12 10 11.550781 10 11 Z M 10 10 "/>
</g>
</defs>
<g id="surface1">
<path style=" stroke:none;fill-rule:evenodd;fill:rgb(100%,100%,100%);fill-opacity:0.2;" d="M 3 10 C 3 10.550781 3.449219 11 4 11 L 10 11 C 10.550781 11 11 10.550781 11 10 L 11 2 C 11 1.449219 10.550781 1 10 1 L 4 1 C 3.449219 1 3 1.449219 3 2 Z M 3 10 "/>
<use xlink:href="#surface5" mask="url(#mask0)"/>
<path style=" stroke:none;fill-rule:evenodd;fill:rgb(100%,100%,100%);fill-opacity:1;" d="M 1 1 C 0.449219 1 0 1.449219 0 2 L 0 3 C 0 3.550781 0.449219 4 1 4 L 3 4 L 3 10 C 3 10.550781 3.449219 11 4 11 L 10 11 C 10.550781 11 11 10.550781 11 10 L 11 4 C 11.550781 4 12 3.550781 12 3 L 12 2 C 12 1.449219 11.550781 1 11 1 Z M 1 3 L 1 2 L 3 2 L 3 3 Z M 10 2 L 10 10 L 7 10 C 7.277344 10 7.5 9.777344 7.5 9.5 L 7.5 9 C 8.328125 9 9 8.328125 9 7.5 C 9 6.671875 8.328125 6 7.5 6 L 6.5 6 C 6.222656 6 6 5.777344 6 5.5 C 6 5.222656 6.222656 5 6.5 5 L 8.5 5 C 8.777344 5 9 4.777344 9 4.5 C 9 4.222656 8.777344 4 8.5 4 L 7.5 4 L 7.5 3.5 C 7.5 3.222656 7.277344 3 7 3 C 6.722656 3 6.5 3.222656 6.5 3.5 L 6.5 4 C 5.671875 4 5 4.671875 5 5.5 C 5 6.328125 5.671875 7 6.5 7 L 7.5 7 C 7.777344 7 8 7.222656 8 7.5 C 8 7.777344 7.777344 8 7.5 8 L 5.5 8 C 5.222656 8 5 8.222656 5 8.5 C 5 8.777344 5.222656 9 5.5 9 L 6.5 9 L 6.5 9.5 C 6.5 9.777344 6.722656 10 7 10 L 4 10 L 4 2 Z M 10 2 "/>
</g>

</g>%n%n</svg>