<svg width="300" height="40" viewBox="0 0 300 40" fill="none" xmlns="http://www.w3.org/2000/svg" xmlns:xlink="http://www.w3.org/1999/xlink">

<g transform="translate(130.000000, 0.000000) scale(2.000000 2.000000) "> 

<g clip-path="url(#clip0)">
<path opacity="0.953" d="M9.99934 0C15.514 0 20 4.44646 20 10C20 15.5172 15.514 20 9.99934 20C4.48599 20 0 15.5172 0 10C0 4.44646 4.48599 0 9.99934 0V0Z" fill="#878787"/>
<path opacity="0.95" fill-rule="evenodd" clip-rule="evenodd" d="M10 19C14.9706 19 19 14.9706 19 10C19 5.02944 14.9706 1 10 1C5.02944 1 1 5.02944 1 10C1 14.9706 5.02944 19 10 19ZM10 20C15.5228 20 20 15.5228 20 10C20 4.47715 15.5228 0 10 0C4.47715 0 0 4.47715 0 10C0 15.5228 4.47715 20 10 20Z" fill="#404040"/>
</g>
<defs>
<clipPath id="clip0">
<path d="M0 0H20V20H0V0Z" fill="white"/>
</clipPath>
</defs>

</g>%n%n
<g transform="translate(138.000000, 8.000000) scale(0.750000 0.750000) "> 

<defs>
<filter id="filter-remove-color" x="0%" y="0%" width="100%" height="100%">
<feColorMatrix color-interpolation-filters="sRGB" values="0 0 0 0 1 0 0 0 0 1 0 0 0 0 1 0 0 0 1 0" />
</filter>
<mask id="mask-0">
<g filter="url(#filter-remove-color)">
<rect x="-3.2" y="-3.2" width="38.4" height="38.4" fill="rgb(0%, 0%, 0%)" fill-opacity="0.5"/>
</g>
</mask>
<clip100Path id="clip100-0">
<rect x="0" y="0" width="32" height="32"/>
</clip100Path>
<g id="source-7" clip100-path="url(#clip100-0)">
<path fill-rule="nonzero" fill="rgb(100%, 100%, 100%)" fill-opacity="1" d="M 26.667969 26.667969 L 8 26.667969 L 8 10.667969 L 5.332031 10.667969 L 5.332031 29.332031 C 5.332031 30.804688 6.527344 32 8 32 L 24 32 C 25.472656 32 26.667969 30.804688 26.667969 29.332031 Z M 26.667969 26.667969 "/>
</g>
</defs>
<path fill-rule="evenodd" fill="rgb(100%, 100%, 100%)" fill-opacity="0.2" d="M 8 26.667969 C 8 28.140625 9.195312 29.332031 10.667969 29.332031 L 26.667969 29.332031 C 28.140625 29.332031 29.332031 28.140625 29.332031 26.667969 L 29.332031 5.332031 C 29.332031 3.859375 28.140625 2.667969 26.667969 2.667969 L 10.667969 2.667969 C 9.195312 2.667969 8 3.859375 8 5.332031 Z M 8 26.667969 "/>
<g mask="url(#mask-0)">
<use xlink:href="#source-7"/>
</g>
<path fill-rule="evenodd" fill="rgb(100%, 100%, 100%)" fill-opacity="1" d="M 2.667969 2.667969 C 1.195312 2.667969 0 3.859375 0 5.332031 L 0 8 C 0 9.472656 1.195312 10.667969 2.667969 10.667969 L 8 10.667969 L 8 26.667969 C 8 28.140625 9.195312 29.332031 10.667969 29.332031 L 26.667969 29.332031 C 28.140625 29.332031 29.332031 28.140625 29.332031 26.667969 L 29.332031 10.667969 C 30.804688 10.667969 32 9.472656 32 8 L 32 5.332031 C 32 3.859375 30.804688 2.667969 29.332031 2.667969 Z M 2.667969 8 L 2.667969 5.332031 L 8 5.332031 L 8 8 Z M 26.667969 5.332031 L 26.667969 26.667969 L 18.667969 26.667969 C 19.402344 26.667969 20 26.070312 20 25.332031 L 20 24 C 22.210938 24 24 22.210938 24 20 C 24 17.789062 22.210938 16 20 16 L 17.332031 16 C 16.597656 16 16 15.402344 16 14.667969 C 16 13.929688 16.597656 13.332031 17.332031 13.332031 L 22.667969 13.332031 C 23.402344 13.332031 24 12.738281 24 12 C 24 11.261719 23.402344 10.667969 22.667969 10.667969 L 20 10.667969 L 20 9.332031 C 20 8.597656 19.402344 8 18.667969 8 C 17.929688 8 17.332031 8.597656 17.332031 9.332031 L 17.332031 10.667969 C 15.125 10.667969 13.332031 12.457031 13.332031 14.667969 C 13.332031 16.875 15.125 18.667969 17.332031 18.667969 L 20 18.667969 C 20.738281 18.667969 21.332031 19.261719 21.332031 20 C 21.332031 20.738281 20.738281 21.332031 20 21.332031 L 14.667969 21.332031 C 13.929688 21.332031 13.332031 21.929688 13.332031 22.667969 C 13.332031 23.402344 13.929688 24 14.667969 24 L 17.332031 24 L 17.332031 25.332031 C 17.332031 26.070312 17.929688 26.667969 18.667969 26.667969 L 10.667969 26.667969 L 10.667969 5.332031 Z M 26.667969 5.332031 "/>

</g>%n%n</svg>