<svg width="300" height="40" viewBox="0 0 300 40" fill="none" xmlns="http://www.w3.org/2000/svg" xmlns:xlink="http://www.w3.org/1999/xlink">

<g transform="translate(130.000000, 0.000000) scale(2.000000 2.000000) "> 

<g clip-path="url(#clip0)">
<path opacity="0.953" d="M9.99934 0C15.514 0 20 4.44646 20 10C20 15.5172 15.514 20 9.99934 20C4.48599 20 0 15.5172 0 10C0 4.44646 4.48599 0 9.99934 0V0Z" fill="#878787"/>
<path opacity="0.95" fill-rule="evenodd" clip-rule="evenodd" d="M10 19C14.9706 19 19 14.9706 19 10C19 5.02944 14.9706 1 10 1C5.02944 1 1 5.02944 1 10C1 14.9706 5.02944 19 10 19ZM10 20C15.5228 20 20 15.5228 20 10C20 4.47715 15.5228 0 10 0C4.47715 0 0 4.47715 0 10C0 15.5228 4.47715 20 10 20Z" fill="#404040"/>
</g>
<defs>
<clipPath id="clip0">
<path d="M0 0H20V20H0V0Z" fill="white"/>
</clipPath>
</defs>

</g>%n%n
<g transform="translate(138.000000, 8.000000) scale(0.750000 0.750000) "> 

<path fill-rule="evenodd" fill="rgb(100%, 100%, 100%)" fill-opacity="1" d="M 16 2.667969 L 5.332031 8 L 5.332031 10.667969 L 16 10.667969 C 15.261719 10.667969 14.667969 11.261719 14.667969 12 L 14.667969 13.332031 C 13.195312 13.332031 12 14.527344 12 16 L 12 17.332031 C 12 18.804688 13.195312 20 14.667969 20 L 17.332031 20 L 17.332031 21.332031 L 13.332031 21.332031 C 12.597656 21.332031 12 21.929688 12 22.667969 C 12 23.402344 12.597656 24 13.332031 24 L 14.667969 24 L 14.667969 25.332031 C 14.667969 26.070312 15.261719 26.667969 16 26.667969 L 5.332031 26.667969 L 5.332031 29.332031 L 26.667969 29.332031 L 26.667969 26.667969 L 16 26.667969 C 16.738281 26.667969 17.332031 26.070312 17.332031 25.332031 L 17.332031 24 C 18.804688 24 20 22.804688 20 21.332031 L 20 20 C 20 18.527344 18.804688 17.332031 17.332031 17.332031 L 14.667969 17.332031 L 14.667969 16 L 18.667969 16 C 19.402344 16 20 15.402344 20 14.667969 C 20 13.929688 19.402344 13.332031 18.667969 13.332031 L 17.332031 13.332031 L 17.332031 12 C 17.332031 11.261719 16.738281 10.667969 16 10.667969 L 26.667969 10.667969 L 26.667969 8 Z M 16 8 C 16.738281 8 17.332031 7.402344 17.332031 6.667969 C 17.332031 5.929688 16.738281 5.332031 16 5.332031 C 15.261719 5.332031 14.667969 5.929688 14.667969 6.667969 C 14.667969 7.402344 15.261719 8 16 8 Z M 16 8 "/>
<path fill-rule="nonzero" fill="rgb(100%, 100%, 100%)" fill-opacity="1" d="M 5.332031 13.332031 L 8 13.332031 L 8 24 L 5.332031 24 Z M 5.332031 13.332031 "/>
<path fill-rule="nonzero" fill="rgb(100%, 100%, 100%)" fill-opacity="1" d="M 26.667969 13.332031 L 24 13.332031 L 24 24 L 26.667969 24 Z M 26.667969 13.332031 "/>

</g>%n%n</svg>