<svg width="300" height="40" viewBox="0 0 300 40" fill="none" xmlns="http://www.w3.org/2000/svg" xmlns:xlink="http://www.w3.org/1999/xlink" version="1.1">

<g transform="translate(130.000000, 0.000000) scale(2.000000 2.000000) "> 

<g clip-path="url(#clip0)">
<path opacity="0.953" d="M9.99934 0C15.514 0 20 4.44646 20 10C20 15.5172 15.514 20 9.99934 20C4.48599 20 0 15.5172 0 10C0 4.44646 4.48599 0 9.99934 0V0Z" fill="#878787"/>
<path opacity="0.95" fill-rule="evenodd" clip-rule="evenodd" d="M10 19C14.9706 19 19 14.9706 19 10C19 5.02944 14.9706 1 10 1C5.02944 1 1 5.02944 1 10C1 14.9706 5.02944 19 10 19ZM10 20C15.5228 20 20 15.5228 20 10C20 4.47715 15.5228 0 10 0C4.47715 0 0 4.47715 0 10C0 15.5228 4.47715 20 10 20Z" fill="#404040"/>
</g>
<defs>
<clipPath id="clip0">
<path d="M0 0H20V20H0V0Z" fill="white"/>
</clipPath>
</defs>

</g>%n%n
<g transform="translate(138.000000, 8.000000) scale(2.000000 2.000000) "> 

<g id="surface1">
<path style=" stroke:none;fill-rule:nonzero;fill:rgb(100%,100%,100%);fill-opacity:1;" d="M 8.28125 5.164062 C 8.28125 4.96875 8.210938 4.816406 8.066406 4.699219 C 7.929688 4.585938 7.6875 4.476562 7.347656 4.378906 C 7.011719 4.28125 6.71875 4.1875 6.472656 4.089844 C 6.226562 3.992188 6.015625 3.882812 5.839844 3.757812 C 5.664062 3.632812 5.527344 3.488281 5.425781 3.316406 C 5.332031 3.148438 5.28125 2.949219 5.28125 2.714844 C 5.28125 2.3125 5.449219 1.984375 5.785156 1.726562 C 6.121094 1.472656 6.570312 1.320312 7.125 1.277344 L 7.125 0.515625 L 7.871094 0.515625 L 7.871094 1.289062 C 8.421875 1.347656 8.851562 1.523438 9.164062 1.816406 C 9.476562 2.105469 9.628906 2.484375 9.628906 2.945312 L 8.28125 2.945312 C 8.28125 2.660156 8.203125 2.449219 8.050781 2.308594 C 7.898438 2.167969 7.691406 2.09375 7.433594 2.09375 C 7.179688 2.09375 6.980469 2.152344 6.839844 2.261719 C 6.699219 2.371094 6.632812 2.523438 6.632812 2.71875 C 6.632812 2.898438 6.699219 3.042969 6.835938 3.152344 C 6.972656 3.261719 7.226562 3.375 7.597656 3.488281 C 7.96875 3.601562 8.277344 3.710938 8.515625 3.8125 C 8.753906 3.914062 8.957031 4.027344 9.121094 4.15625 C 9.285156 4.28125 9.414062 4.425781 9.5 4.589844 C 9.585938 4.753906 9.628906 4.941406 9.628906 5.15625 C 9.628906 5.5625 9.464844 5.890625 9.136719 6.140625 C 8.804688 6.394531 8.351562 6.542969 7.773438 6.585938 L 7.773438 7.296875 L 7.03125 7.296875 L 7.03125 6.589844 C 6.394531 6.539062 5.898438 6.367188 5.546875 6.074219 C 5.199219 5.777344 5.027344 5.386719 5.027344 4.902344 L 6.375 4.902344 C 6.375 5.183594 6.460938 5.402344 6.636719 5.554688 C 6.8125 5.703125 7.066406 5.777344 7.394531 5.777344 C 7.667969 5.777344 7.886719 5.722656 8.042969 5.613281 C 8.203125 5.5 8.28125 5.351562 8.28125 5.164062 Z M 8.28125 5.164062 "/>
<path style=" stroke:none;fill-rule:nonzero;fill:rgb(100%,100%,100%);fill-opacity:1;" d="M 3.488281 10.011719 L 6.089844 11.210938 C 6.089844 11.210938 6.398438 11.390625 6.90625 11.210938 L 11.117188 9.527344 C 11.117188 9.527344 11.722656 9.144531 10.957031 8.789062 L 7.875 9.425781 L 6.523438 9.09375 L 8.566406 8.964844 C 8.566406 8.964844 9.230469 8.480469 8.589844 8.019531 L 6.449219 8.019531 C 6.449219 8.019531 5.503906 7.484375 4.125 7.738281 L 0.785156 7.5625 L 0.785156 10.445312 Z M 3.488281 10.011719 "/>
</g>

</g>%n%n</svg>