<svg width="300" height="40" viewBox="0 0 300 40" fill="none" xmlns="http://www.w3.org/2000/svg" xmlns:xlink="http://www.w3.org/1999/xlink">

<g transform="translate(130.000000, 0.000000) scale(2.000000 2.000000) "> 

<g clip-path="url(#clip0)">
<path opacity="0.953" d="M9.99934 0C15.514 0 20 4.44646 20 10C20 15.5172 15.514 20 9.99934 20C4.48599 20 0 15.5172 0 10C0 4.44646 4.48599 0 9.99934 0V0Z" fill="#878787"/>
<path opacity="0.95" fill-rule="evenodd" clip-rule="evenodd" d="M10 19C14.9706 19 19 14.9706 19 10C19 5.02944 14.9706 1 10 1C5.02944 1 1 5.02944 1 10C1 14.9706 5.02944 19 10 19ZM10 20C15.5228 20 20 15.5228 20 10C20 4.47715 15.5228 0 10 0C4.47715 0 0 4.47715 0 10C0 15.5228 4.47715 20 10 20Z" fill="#404040"/>
</g>
<defs>
<clipPath id="clip0">
<path d="M0 0H20V20H0V0Z" fill="white"/>
</clipPath>
</defs>

</g>%n%n
<g transform="translate(138.000000, 8.000000) scale(2.000000 2.000000) "> 

<path fill-rule="nonzero" fill="rgb(100%, 100%, 100%)" fill-opacity="1" d="M 3.5 0.5 L 3.5 7 L 4 7 C 4 6.722656 4.222656 6.5 4.5 6.5 C 4.777344 6.5 5 6.722656 5 7 L 5.5 7 C 5.5 6.722656 5.722656 6.5 6 6.5 C 6.277344 6.5 6.5 6.722656 6.5 7 L 7 7 C 7 6.722656 7.222656 6.5 7.5 6.5 C 7.777344 6.5 8 6.722656 8 7 L 8.5 7 L 8.5 0.5 L 8 0.5 C 8 0.777344 7.777344 1 7.5 1 C 7.222656 1 7 0.777344 7 0.5 L 6.5 0.5 C 6.5 0.777344 6.277344 1 6 1 C 5.722656 1 5.5 0.777344 5.5 0.5 L 5 0.5 C 5 0.777344 4.777344 1 4.5 1 C 4.222656 1 4 0.777344 4 0.5 Z M 3.5 0.5 "/>
<path fill-rule="nonzero" fill="rgb(100%, 100%, 100%)" fill-opacity="1" d="M 3 8 C 2.445312 8 2.109375 8.457031 2 9 L 2 11.5 L 10 11.5 L 10 9 C 10 8.449219 9.550781 8 9 8 Z M 3 8 "/>
<path fill-rule="nonzero" fill="rgb(100%, 100%, 100%)" fill-opacity="1" d="M 3.5 9 L 8.5 9 L 8.5 9.5 L 3.5 9.5 Z M 3.5 9 "/>

</g>%n%n</svg>