<svg width="40" height="40" viewBox="0 0 40 40" fill="none" xmlns="http://www.w3.org/2000/svg" >

<g transform="translate(0.000000, 0.000000) scale(2.000000 2.000000) "> 

<g clip-path="url(#clip0)">
<path opacity="0.953" d="M9.99934 0C15.514 0 20 4.44646 20 10C20 15.5172 15.514 20 9.99934 20C4.48599 20 0 15.5172 0 10C0 4.44646 4.48599 0 9.99934 0V0Z" fill="#878787"/>
<path opacity="0.95" fill-rule="evenodd" clip-rule="evenodd" d="M10 19C14.9706 19 19 14.9706 19 10C19 5.02944 14.9706 1 10 1C5.02944 1 1 5.02944 1 10C1 14.9706 5.02944 19 10 19ZM10 20C15.5228 20 20 15.5228 20 10C20 4.47715 15.5228 0 10 0C4.47715 0 0 4.47715 0 10C0 15.5228 4.47715 20 10 20Z" fill="#404040"/>
</g>
<defs>
<clipPath id="clip0">
<path d="M0 0H20V20H0V0Z" fill="white"/>
</clipPath>
</defs>

</g>


<g transform="translate(8.000000, 8.000000) scale(0.500000 0.500000) "> 

<path fill-rule="evenodd" clip100-rule="evenodd" d="M12 40C12 42.2091 13.7909 44 16 44H40C42.2091 44 44 42.2091 44 40V8C44 5.79086 42.2091 4 40 4H16C13.7909 4 12 5.79086 12 8V40Z" fill="#ffffff" fill-opacity="0.2"/>
<path opacity="0.5" d="M40 40H12V16H8V44C8 46.2091 9.79086 48 12 48H36C38.2091 48 40 46.2091 40 44V40Z" fill="#ffffff"/>
<path fill-rule="evenodd" clip100-rule="evenodd" d="M4 4C1.79086 4 0 5.79086 0 8V12C0 14.2091 1.79086 16 4 16H12V40C12 42.2091 13.7909 44 16 44H40C42.2091 44 44 42.2091 44 40V16C46.2091 16 48 14.2091 48 12V8C48 5.79086 46.2091 4 44 4H4ZM4 12V8H12V12H4ZM40 8V40H28C29.1046 40 30 39.1046 30 38V36C33.3137 36 36 33.3137 36 30C36 26.6863 33.3137 24 30 24H26C24.8954 24 24 23.1046 24 22C24 20.8954 24.8954 20 26 20H34C35.1046 20 36 19.1046 36 18C36 16.8954 35.1046 16 34 16H30V14C30 12.8954 29.1046 12 28 12C26.8954 12 26 12.8954 26 14V16C22.6863 16 20 18.6863 20 22C20 25.3137 22.6863 28 26 28H30C31.1046 28 32 28.8954 32 30C32 31.1046 31.1046 32 30 32H22C20.8954 32 20 32.8954 20 34C20 35.1046 20.8954 36 22 36H26V38C26 39.1046 26.8954 40 28 40H16V8L40 8Z" fill="#ffffff"/>

</g>

</svg>