<svg width="300" height="40" viewBox="0 0 300 40" fill="none" xmlns="http://www.w3.org/2000/svg" xmlns:xlink="http://www.w3.org/1999/xlink">

<g transform="translate(130.000000, 0.000000) scale(2.000000 2.000000) "> 

<g clip-path="url(#clip0)">
<path opacity="0.953" d="M9.99934 0C15.514 0 20 4.44646 20 10C20 15.5172 15.514 20 9.99934 20C4.48599 20 0 15.5172 0 10C0 4.44646 4.48599 0 9.99934 0V0Z" fill="#878787"/>
<path opacity="0.95" fill-rule="evenodd" clip-rule="evenodd" d="M10 19C14.9706 19 19 14.9706 19 10C19 5.02944 14.9706 1 10 1C5.02944 1 1 5.02944 1 10C1 14.9706 5.02944 19 10 19ZM10 20C15.5228 20 20 15.5228 20 10C20 4.47715 15.5228 0 10 0C4.47715 0 0 4.47715 0 10C0 15.5228 4.47715 20 10 20Z" fill="#404040"/>
</g>
<defs>
<clipPath id="clip0">
<path d="M0 0H20V20H0V0Z" fill="white"/>
</clipPath>
</defs>

</g>%n%n
<g transform="translate(138.000000, 8.000000) scale(2.000000 2.000000) "> 

<path fill-rule="evenodd" fill="rgb(100%, 100%, 100%)" fill-opacity="1" d="M 6 1 L 2 3 L 2 4 L 6 4 C 5.722656 4 5.5 4.222656 5.5 4.5 L 5.5 5 C 4.949219 5 4.5 5.449219 4.5 6 L 4.5 6.5 C 4.5 7.050781 4.949219 7.5 5.5 7.5 L 6.5 7.5 L 6.5 8 L 5 8 C 4.722656 8 4.5 8.222656 4.5 8.5 C 4.5 8.777344 4.722656 9 5 9 L 5.5 9 L 5.5 9.5 C 5.5 9.777344 5.722656 10 6 10 L 2 10 L 2 11 L 10 11 L 10 10 L 6 10 C 6.277344 10 6.5 9.777344 6.5 9.5 L 6.5 9 C 7.050781 9 7.5 8.550781 7.5 8 L 7.5 7.5 C 7.5 6.949219 7.050781 6.5 6.5 6.5 L 5.5 6.5 L 5.5 6 L 7 6 C 7.277344 6 7.5 5.777344 7.5 5.5 C 7.5 5.222656 7.277344 5 7 5 L 6.5 5 L 6.5 4.5 C 6.5 4.222656 6.277344 4 6 4 L 10 4 L 10 3 Z M 6 3 C 6.277344 3 6.5 2.777344 6.5 2.5 C 6.5 2.222656 6.277344 2 6 2 C 5.722656 2 5.5 2.222656 5.5 2.5 C 5.5 2.777344 5.722656 3 6 3 Z M 6 3 "/>
<path fill-rule="nonzero" fill="rgb(100%, 100%, 100%)" fill-opacity="1" d="M 2 5 L 3 5 L 3 9 L 2 9 Z M 2 5 "/>
<path fill-rule="nonzero" fill="rgb(100%, 100%, 100%)" fill-opacity="1" d="M 10 5 L 9 5 L 9 9 L 10 9 Z M 10 5 "/>

</g>%n%n</svg>