<svg width="300" height="40" viewBox="0 0 300 40" fill="none" xmlns="http://www.w3.org/2000/svg" xmlns:xlink="http://www.w3.org/1999/xlink">

<g transform="translate(130.000000, 0.000000) scale(2.000000 2.000000) "> 

<g clip-path="url(#clip0)">
<path opacity="0.953" d="M9.99934 0C15.514 0 20 4.44646 20 10C20 15.5172 15.514 20 9.99934 20C4.48599 20 0 15.5172 0 10C0 4.44646 4.48599 0 9.99934 0V0Z" fill="#878787"/>
<path opacity="0.95" fill-rule="evenodd" clip-rule="evenodd" d="M10 19C14.9706 19 19 14.9706 19 10C19 5.02944 14.9706 1 10 1C5.02944 1 1 5.02944 1 10C1 14.9706 5.02944 19 10 19ZM10 20C15.5228 20 20 15.5228 20 10C20 4.47715 15.5228 0 10 0C4.47715 0 0 4.47715 0 10C0 15.5228 4.47715 20 10 20Z" fill="#404040"/>
</g>
<defs>
<clipPath id="clip0">
<path d="M0 0H20V20H0V0Z" fill="white"/>
</clipPath>
</defs>

</g>%n%n
<g transform="translate(138.000000, 8.000000) scale(2.000000 2.000000) "> 

<path fill-rule="evenodd" fill="rgb(85.098039%, 85.098039%, 85.098039%)" fill-opacity="1" d="M 6 -0.0703125 L 12 3.203125 L 12 11 L 0 11 L 0 3.203125 Z M 1 3.796875 L 1 10 L 11 10 L 11 3.796875 L 6 1.070312 Z M 1 3.796875 "/>
<path fill-rule="evenodd" fill="rgb(100%, 100%, 100%)" fill-opacity="1" d="M 2 5 C 2 4.449219 2.449219 4 3 4 L 4.585938 4 C 4.851562 4 5.105469 3.894531 5.292969 3.707031 L 5.707031 3.292969 C 5.894531 3.105469 6.148438 3 6.414062 3 L 7.585938 3 C 7.851562 3 8.105469 3.105469 8.292969 3.292969 L 8.792969 3.792969 C 8.925781 3.925781 9.105469 4 9.292969 4 C 9.683594 4 10 4.316406 10 4.707031 L 10 8 C 10 8.550781 9.550781 9 9 9 L 3 9 C 2.449219 9 2 8.550781 2 8 Z M 9 6 C 9 7.105469 8.105469 8 7 8 C 5.894531 8 5 7.105469 5 6 C 5 4.894531 5.894531 4 7 4 C 8.105469 4 9 4.894531 9 6 Z M 3.5 6 C 3.777344 6 4 5.777344 4 5.5 C 4 5.222656 3.777344 5 3.5 5 C 3.222656 5 3 5.222656 3 5.5 C 3 5.777344 3.222656 6 3.5 6 Z M 3.5 6 "/>

</g>%n%n</svg>