<svg width="300" height="40" viewBox="0 0 300 40" fill="none" xmlns="http://www.w3.org/2000/svg" xmlns:xlink="http://www.w3.org/1999/xlink" version="1.1">

<g transform="translate(138.000000, 8.000000) scale(2.000000 2.000000) "> 

<g id="surface1">
<path style=" stroke:none;fill-rule:evenodd;fill:rgb(22.352941%,67.450982%,22.352941%);fill-opacity:1;" d="M 2 1 L 2 11 L 1 11 L 1 1 Z M 2 1 "/>
<path style=" stroke:none;fill-rule:evenodd;fill:rgb(22.352941%,67.450982%,22.352941%);fill-opacity:1;" d="M 5 1 L 5 11 L 4 11 L 4 1 Z M 5 1 "/>
<path style=" stroke:none;fill-rule:evenodd;fill:rgb(22.352941%,67.450982%,22.352941%);fill-opacity:1;" d="M 11 1 L 11 11 L 10 11 L 10 1 Z M 11 1 "/>
<path style=" stroke:none;fill-rule:evenodd;fill:rgb(22.352941%,67.450982%,22.352941%);fill-opacity:1;" d="M 8 1 L 8 11 L 7 11 L 7 1 Z M 8 1 "/>
<path style=" stroke:none;fill-rule:evenodd;fill:rgb(22.352941%,67.450982%,22.352941%);fill-opacity:1;" d="M 1 3 L 5 3 L 5 4 L 1 4 Z M 1 3 "/>
<path style=" stroke:none;fill-rule:evenodd;fill:rgb(22.352941%,67.450982%,22.352941%);fill-opacity:1;" d="M 1 6 L 5 6 L 5 7 L 1 7 Z M 1 6 "/>
<path style=" stroke:none;fill-rule:evenodd;fill:rgb(22.352941%,67.450982%,22.352941%);fill-opacity:1;" d="M 7 3 L 11 3 L 11 4 L 7 4 Z M 7 3 "/>
<path style=" stroke:none;fill-rule:evenodd;fill:rgb(22.352941%,67.450982%,22.352941%);fill-opacity:1;" d="M 7 6 L 11 6 L 11 7 L 7 7 Z M 7 6 "/>
<path style=" stroke:none;fill-rule:evenodd;fill:rgb(22.352941%,67.450982%,22.352941%);fill-opacity:1;" d="M 1 9 L 5 9 L 5 10 L 1 10 Z M 1 9 "/>
<path style=" stroke:none;fill-rule:evenodd;fill:rgb(22.352941%,67.450982%,22.352941%);fill-opacity:1;" d="M 7 9 L 11 9 L 11 10 L 7 10 Z M 7 9 "/>
<path style=" stroke:none;fill-rule:evenodd;fill:rgb(22.352941%,67.450982%,22.352941%);fill-opacity:1;" d="M 1 1 L 11 1 L 11 2 L 1 2 Z M 1 1 "/>
<path style=" stroke:none;fill-rule:evenodd;fill:rgb(22.352941%,67.450982%,22.352941%);fill-opacity:1;" d="M 4 2 L 8 2 L 8 3 L 4 3 Z M 4 2 "/>
</g>

</g>%n%n</svg>