<svg width="300" height="40" viewBox="0 0 300 40" fill="none" xmlns="http://www.w3.org/2000/svg" xmlns:xlink="http://www.w3.org/1999/xlink" version="1.1">

<g transform="translate(130.000000, 0.000000) scale(2.000000 2.000000) "> 

<g clip-path="url(#clip0)">
<path opacity="0.953" d="M9.99934 0C15.514 0 20 4.44646 20 10C20 15.5172 15.514 20 9.99934 20C4.48599 20 0 15.5172 0 10C0 4.44646 4.48599 0 9.99934 0V0Z" fill="#878787"/>
<path opacity="0.95" fill-rule="evenodd" clip-rule="evenodd" d="M10 19C14.9706 19 19 14.9706 19 10C19 5.02944 14.9706 1 10 1C5.02944 1 1 5.02944 1 10C1 14.9706 5.02944 19 10 19ZM10 20C15.5228 20 20 15.5228 20 10C20 4.47715 15.5228 0 10 0C4.47715 0 0 4.47715 0 10C0 15.5228 4.47715 20 10 20Z" fill="#404040"/>
</g>
<defs>
<clipPath id="clip0">
<path d="M0 0H20V20H0V0Z" fill="white"/>
</clipPath>
</defs>

</g>%n%n
<g transform="translate(138.000000, 8.000000) scale(2.000000 2.000000) "> 

<defs>
<filter id="alpha" filterUnits="objectBoundingBox" x="0%" y="0%" width="100%" height="100%">
  <feColorMatrix type="matrix" in="SourceGraphic" values="0 0 0 0 1 0 0 0 0 1 0 0 0 0 1 0 0 0 1 0"/>
</filter>
<mask id="mask0">
  <g filter="url(#alpha)">
<rect x="0" y="0" width="12" height="12" style="fill:rgb(0%,0%,0%);fill-opacity:0.893;stroke:none;"/>
  </g>
</mask>
<clip100Path id="clip1001">
  <rect x="0" y="0" width="12" height="12"/>
</clip100Path>
<g id="surface5" clip100-path="url(#clip1001)">
<path style="fill:none;stroke-width:25;stroke-linecap:butt;stroke-linejoin:miter;stroke:rgb(100%,100%,100%);stroke-opacity:1;stroke-miterlimit:4;" d="M 391.197917 193.522135 L 391.197917 131.028646 " transform="matrix(0.0206897,0,0,0.0206897,0,0)"/>
</g>
<mask id="mask1">
  <g filter="url(#alpha)">
<rect x="0" y="0" width="12" height="12" style="fill:rgb(0%,0%,0%);fill-opacity:0.901;stroke:none;"/>
  </g>
</mask>
<clip100Path id="clip1002">
  <rect x="0" y="0" width="12" height="12"/>
</clip100Path>
<g id="surface8" clip100-path="url(#clip1002)">
<path style=" stroke:none;fill-rule:nonzero;fill:rgb(100%,100%,100%);fill-opacity:1;" d="M 7.398438 2.707031 L 3.726562 2.707031 L 3.726562 3.996094 L 7.398438 3.996094 Z M 7.398438 2.707031 "/>
</g>
<mask id="mask2">
  <g filter="url(#alpha)">
<rect x="0" y="0" width="12" height="12" style="fill:rgb(0%,0%,0%);fill-opacity:0.904;stroke:none;"/>
  </g>
</mask>
<clip100Path id="clip1003">
  <rect x="0" y="0" width="12" height="12"/>
</clip100Path>
<g id="surface11" clip100-path="url(#clip1003)">
<path style=" stroke:none;fill-rule:nonzero;fill:rgb(100%,100%,100%);fill-opacity:1;" d="M 6.273438 5.433594 L 3.804688 5.433594 L 3.804688 6.726562 L 6.273438 6.726562 Z M 6.273438 5.433594 "/>
</g>
</defs>
<g id="surface1">
<path style=" stroke:none;fill-rule:nonzero;fill:rgb(100%,100%,100%);fill-opacity:1;" d="M 2.554688 1.964844 L 2.554688 10.625 L 9.445312 10.625 L 9.445312 1.964844 C 9.445312 1.964844 8.242188 1.105469 6 1.105469 C 3.757812 1.105469 2.554688 1.964844 2.554688 1.964844 Z M 3.226562 2.28125 L 8.769531 2.28125 L 8.769531 4.390625 L 3.226562 4.390625 Z M 3.226562 5.019531 L 8.769531 5.019531 L 8.769531 7.128906 L 3.226562 7.128906 Z M 3.226562 5.019531 "/>
<use xlink:href="#surface5" mask="url(#mask0)"/>
<use xlink:href="#surface8" mask="url(#mask1)"/>
<use xlink:href="#surface11" mask="url(#mask2)"/>
</g>

</g>%n%n</svg>