<svg width="300" height="35" viewBox="0 0 300 35" fill="none" xmlns="http://www.w3.org/2000/svg" >

<g transform="translate(135.000000, 2.000000) scale(1.500000 1.500000) "> 

<g clip-path="url(#clip0)">
<path opacity="0.953" d="M9.99934 0C15.514 0 20 4.44646 20 10C20 15.5172 15.514 20 9.99934 20C4.48599 20 0 15.5172 0 10C0 4.44646 4.48599 0 9.99934 0V0Z" fill="#505050"/>
<path opacity="0.95" fill-rule="evenodd" clip-rule="evenodd" d="M10 19C14.9706 19 19 14.9706 19 10C19 5.02944 14.9706 1 10 1C5.02944 1 1 5.02944 1 10C1 14.9706 5.02944 19 10 19ZM10 20C15.5228 20 20 15.5228 20 10C20 4.47715 15.5228 0 10 0C4.47715 0 0 4.47715 0 10C0 15.5228 4.47715 20 10 20Z" fill="#909090"/>
</g>
<defs>
<clipPath id="clip0">
<path d="M0 0H20V20H0V0Z" fill="white"/>
</clipPath>
</defs>

</g>


<g transform="translate(141.000000, 8.000000) scale(0.375000 0.375000) "> 

<path opacity="0.5" d="M4 4H44V30.7083C42.9578 29.5275 41.5724 28.6568 40 28.252V28C40 23.5817 36.4183 20 32 20H28C26.5429 20 25.1767 20.3896 24 21.0703C22.8233 20.3896 21.4571 20 20 20H16C11.5817 20 8 23.5817 8 28V28.252C6.42755 28.6568 5.04221 29.5275 4 30.7084V4Z" fill="#ffffff"/>
<path d="M12 28C12 25.7909 13.7909 24 16 24H20C22.2091 24 24 25.7909 24 28H22C20.5429 28 19.1767 28.3896 18 29.0703C16.8233 28.3896 15.4571 28 14 28L12 28Z" fill="#ffffff"/>
<path d="M36 28C36 25.7909 34.2091 24 32 24H28C25.7909 24 24 25.7909 24 28H26C27.4571 28 28.8233 28.3896 30 29.0703C31.1767 28.3896 32.5429 28 34 28H36Z" fill="#ffffff"/>
<path fill-rule="evenodd" clip100-rule="evenodd" d="M6 36C6 33.7909 7.79086 32 10 32H14C16.2091 32 18 33.7909 18 36C18 33.7909 19.7909 32 22 32H26C28.2091 32 30 33.7909 30 36C30 33.7909 31.7909 32 34 32H38C40.2091 32 42 33.7909 42 36V44H30H18H6V36Z" fill="#ffffff"/>

</g>

</svg>