<svg width="300" height="40" viewBox="0 0 300 40" fill="none" xmlns="http://www.w3.org/2000/svg" >

<g transform="translate(130.000000, 0.000000) scale(2.000000 2.000000) "> 

<g clip-path="url(#clip0)">
<path opacity="0.953" d="M9.99934 0C15.514 0 20 4.44646 20 10C20 15.5172 15.514 20 9.99934 20C4.48599 20 0 15.5172 0 10C0 4.44646 4.48599 0 9.99934 0V0Z" fill="#60BE60"/>
<path opacity="0.95" fill-rule="evenodd" clip-rule="evenodd" d="M10 19C14.9706 19 19 14.9706 19 10C19 5.02944 14.9706 1 10 1C5.02944 1 1 5.02944 1 10C1 14.9706 5.02944 19 10 19ZM10 20C15.5228 20 20 15.5228 20 10C20 4.47715 15.5228 0 10 0C4.47715 0 0 4.47715 0 10C0 15.5228 4.47715 20 10 20Z" fill="#398C39"/>
</g>
<defs>
<clipPath id="clip0">
<path d="M0 0H20V20H0V0Z" fill="white"/>
</clipPath>
</defs>

</g>


<g transform="translate(138.000000, 8.000000) scale(0.500000 0.500000) "> 

<path opacity="0.75" fill-rule="evenodd" clip100-rule="evenodd" d="M6 28C7.10457 28 8 28.8954 8 30V38C8 39.1046 7.10457 40 6 40C4.89543 40 4 39.1046 4 38V30C4 28.8954 4.89543 28 6 28Z" fill="#ffffff"/>
<path opacity="0.75" fill-rule="evenodd" clip100-rule="evenodd" d="M24 32C25.1046 32 26 32.8954 26 34V42C26 43.1046 25.1046 44 24 44C22.8954 44 22 43.1046 22 42V34C22 32.8954 22.8954 32 24 32Z" fill="#ffffff"/>
<path opacity="0.75" fill-rule="evenodd" clip100-rule="evenodd" d="M42 28C43.1046 28 44 28.8954 44 30V38C44 39.1046 43.1046 40 42 40C40.8954 40 40 39.1046 40 38V30C40 28.8954 40.8954 28 42 28Z" fill="#ffffff"/>
<path d="M44 28C44 32.4183 35.0457 36 24 36C12.9543 36 4 32.4183 4 28C4 23.5817 12.9543 20 24 20C35.0457 20 44 23.5817 44 28Z" fill="#ffffff"/>
<path fill-rule="evenodd" clip100-rule="evenodd" d="M24 3.81152L42.8123 12.1725C43.8217 12.6211 44.2762 13.8031 43.8276 14.8124C43.379 15.8218 42.1971 16.2764 41.1877 15.8278L24 8.18879L6.81229 15.8278C5.80292 16.2764 4.621 15.8218 4.17239 14.8124C3.72378 13.8031 4.17837 12.6211 5.18773 12.1725L24 3.81152Z" fill="#ffffff"/>

</g>

</svg>