<svg width="300" height="40" viewBox="0 0 300 40" fill="none" xmlns="http://www.w3.org/2000/svg" xmlns:xlink="http://www.w3.org/1999/xlink">

<g transform="translate(130.000000, 0.000000) scale(2.000000 2.000000) "> 

<g clip-path="url(#clip0)">
<path opacity="0.953" d="M9.99934 0C15.514 0 20 4.44646 20 10C20 15.5172 15.514 20 9.99934 20C4.48599 20 0 15.5172 0 10C0 4.44646 4.48599 0 9.99934 0V0Z" fill="#60BE60"/>
<path opacity="0.95" fill-rule="evenodd" clip-rule="evenodd" d="M10 19C14.9706 19 19 14.9706 19 10C19 5.02944 14.9706 1 10 1C5.02944 1 1 5.02944 1 10C1 14.9706 5.02944 19 10 19ZM10 20C15.5228 20 20 15.5228 20 10C20 4.47715 15.5228 0 10 0C4.47715 0 0 4.47715 0 10C0 15.5228 4.47715 20 10 20Z" fill="#398C39"/>
</g>
<defs>
<clipPath id="clip0">
<path d="M0 0H20V20H0V0Z" fill="white"/>
</clipPath>
</defs>

</g>%n%n
<g transform="translate(138.000000, 8.000000) scale(2.000000 2.000000) "> 

<defs>
<filter id="filter-remove-color" x="0%" y="0%" width="100%" height="100%">
<feColorMatrix color-interpolation-filters="sRGB" values="0 0 0 0 1 0 0 0 0 1 0 0 0 0 1 0 0 0 1 0" />
</filter>
<mask id="mask-0">
<g filter="url(#filter-remove-color)">
<rect x="-1.2" y="-1.2" width="14.4" height="14.4" fill="rgb(0%, 0%, 0%)" fill-opacity="0.75"/>
</g>
</mask>
<clip100Path id="clip100-0">
<rect x="0" y="0" width="12" height="12"/>
</clip100Path>
<g id="source-6" clip100-path="url(#clip100-0)">
<path fill-rule="evenodd" fill="rgb(100%, 100%, 100%)" fill-opacity="1" d="M 1.5 7 C 1.777344 7 2 7.222656 2 7.5 L 2 9.5 C 2 9.777344 1.777344 10 1.5 10 C 1.222656 10 1 9.777344 1 9.5 L 1 7.5 C 1 7.222656 1.222656 7 1.5 7 Z M 1.5 7 "/>
</g>
<mask id="mask-1">
<g filter="url(#filter-remove-color)">
<rect x="-1.2" y="-1.2" width="14.4" height="14.4" fill="rgb(0%, 0%, 0%)" fill-opacity="0.75"/>
</g>
</mask>
<clip100Path id="clip100-1">
<rect x="0" y="0" width="12" height="12"/>
</clip100Path>
<g id="source-10" clip100-path="url(#clip100-1)">
<path fill-rule="evenodd" fill="rgb(100%, 100%, 100%)" fill-opacity="1" d="M 6 8 C 6.277344 8 6.5 8.222656 6.5 8.5 L 6.5 10.5 C 6.5 10.777344 6.277344 11 6 11 C 5.722656 11 5.5 10.777344 5.5 10.5 L 5.5 8.5 C 5.5 8.222656 5.722656 8 6 8 Z M 6 8 "/>
</g>
<mask id="mask-2">
<g filter="url(#filter-remove-color)">
<rect x="-1.2" y="-1.2" width="14.4" height="14.4" fill="rgb(0%, 0%, 0%)" fill-opacity="0.75"/>
</g>
</mask>
<clip100Path id="clip100-2">
<rect x="0" y="0" width="12" height="12"/>
</clip100Path>
<g id="source-14" clip100-path="url(#clip100-2)">
<path fill-rule="evenodd" fill="rgb(100%, 100%, 100%)" fill-opacity="1" d="M 10.5 7 C 10.777344 7 11 7.222656 11 7.5 L 11 9.5 C 11 9.777344 10.777344 10 10.5 10 C 10.222656 10 10 9.777344 10 9.5 L 10 7.5 C 10 7.222656 10.222656 7 10.5 7 Z M 10.5 7 "/>
</g>
</defs>
<g mask="url(#mask-0)">
<use xlink:href="#source-6"/>
</g>
<g mask="url(#mask-1)">
<use xlink:href="#source-10"/>
</g>
<g mask="url(#mask-2)">
<use xlink:href="#source-14"/>
</g>
<path fill-rule="nonzero" fill="rgb(100%, 100%, 100%)" fill-opacity="1" d="M 11 7 C 11 8.105469 8.761719 9 6 9 C 3.238281 9 1 8.105469 1 7 C 1 5.894531 3.238281 5 6 5 C 8.761719 5 11 5.894531 11 7 Z M 11 7 "/>
<path fill-rule="evenodd" fill="rgb(100%, 100%, 100%)" fill-opacity="1" d="M 6 0.953125 L 10.703125 3.042969 C 10.957031 3.15625 11.070312 3.449219 10.957031 3.703125 C 10.84375 3.957031 10.550781 4.070312 10.296875 3.957031 L 6 2.046875 L 1.703125 3.957031 C 1.449219 4.070312 1.15625 3.957031 1.042969 3.703125 C 0.929688 3.449219 1.042969 3.15625 1.296875 3.042969 Z M 6 0.953125 "/>

</g>%n%n</svg>