<svg width="300" height="40" viewBox="0 0 300 40" fill="none" xmlns="http://www.w3.org/2000/svg" xmlns:xlink="http://www.w3.org/1999/xlink">

<g transform="translate(138.000000, 8.000000) scale(2.000000 2.000000) "> 

<path fill-rule="nonzero" fill="rgb(22.352941%, 67.45098%, 22.352941%)" fill-opacity="1" d="M 5 8 L 7 8 L 7 10 L 5 10 Z M 5 8 "/>
<path fill-rule="evenodd" fill="rgb(22.352941%, 67.45098%, 22.352941%)" fill-opacity="0.75" d="M 11 8 L 1 8 L 1 7 L 11 7 Z M 11 8 "/>
<path fill-rule="nonzero" fill="rgb(22.352941%, 67.45098%, 22.352941%)" fill-opacity="1" d="M 3 4 L 5 7 L 1 7 Z M 3 4 "/>
<path fill-rule="nonzero" fill="rgb(22.352941%, 67.45098%, 22.352941%)" fill-opacity="1" d="M 9 4 L 11 7 L 7 7 Z M 9 4 "/>
<path fill-rule="nonzero" fill="rgb(22.352941%, 67.45098%, 22.352941%)" fill-opacity="1" d="M 4 3 C 4 3.550781 3.550781 4 3 4 C 2.449219 4 2 3.550781 2 3 C 2 2.449219 2.449219 2 3 2 C 3.550781 2 4 2.449219 4 3 Z M 4 3 "/>
<path fill-rule="nonzero" fill="rgb(22.352941%, 67.45098%, 22.352941%)" fill-opacity="1" d="M 10 3 C 10 3.550781 9.550781 4 9 4 C 8.449219 4 8 3.550781 8 3 C 8 2.449219 8.449219 2 9 2 C 9.550781 2 10 2.449219 10 3 Z M 10 3 "/>

</g>%n%n</svg>