<svg width="40" height="40" viewBox="0 0 40 40" fill="none" xmlns="http://www.w3.org/2000/svg" >

<g transform="translate(0.000000, 0.000000) scale(2.500000 2.500000) "> 

<path opacity="0.807" d="M7.51855 1.40062C7.17621 1.46832 7.04431 1.58674 6.84902 1.77556C6.71244 1.90761 6.61727 2.13225 6.51928 2.34466C6.33914 2.50475 6.12471 2.65133 6.02382 2.83342C5.9108 3.03742 5.88153 3.25923 5.84305 3.48119C5.73817 3.51207 5.5556 3.49307 5.48652 3.53308C5.34997 3.61218 5.24379 3.70915 5.15008 3.826C5.04456 3.95758 5.01481 4.16033 4.95425 4.33652C4.95695 4.3341 4.93057 4.36706 4.93751 4.35828C4.55266 4.8457 4.48059 5.44554 4.61613 6.01369C4.69954 6.3644 4.87121 6.68774 5.14674 6.96108C5.23716 7.05078 5.41089 7.05109 5.52837 7.12344C5.37748 7.35706 5.22875 7.63043 5.22875 7.94697C5.22875 8.44394 5.43695 8.83628 5.73425 9.15547C5.8112 9.23809 5.96918 9.23454 6.06399 9.30611H2.43179C2.40274 9.30571 2.37368 9.30683 2.34475 9.30947C1.1844 9.4319 0.999912 10.8195 1.67522 11.5691C1.75022 12.0403 2.05164 13.4974 3.80265 14.2757C3.90906 14.3231 4.02426 14.3477 4.14077 14.3477H11.9157C12.0322 14.3477 12.1474 14.3231 12.2538 14.2757C13.5963 13.679 14.1159 12.5057 14.316 11.5591C14.4604 11.4149 14.6401 11.2999 14.7143 11.1055C14.8423 10.7705 14.8026 10.405 14.6976 10.1514C14.5926 9.8978 14.4458 9.72712 14.2942 9.59569C14.2184 9.52997 14.1422 9.47459 14.0415 9.42161C13.9407 9.36863 13.8576 9.26949 13.4924 9.31114L13.5862 9.30611H9.62423C9.7246 9.23486 9.885 9.24767 9.96234 9.15882C10.2605 8.81623 10.3825 8.40301 10.3825 8.0089C10.3825 7.84977 10.3042 7.76191 10.2653 7.63396C10.5574 7.5227 10.8948 7.45331 11.042 7.25065C11.275 6.92976 11.3326 6.63442 11.3717 6.48571C11.3735 6.47848 11.3752 6.47123 11.3768 6.46395L11.3818 6.43885C11.4929 6.02403 11.4819 5.59667 11.3316 5.20021L11.3082 5.84631C11.5153 5.4019 11.4731 4.92041 11.3382 4.60098C11.2708 4.44127 11.1889 4.31495 11.0888 4.20261C11.0388 4.14644 10.9857 4.09362 10.9047 4.03523C10.8644 4.00614 10.7175 3.98571 10.6453 3.94986C10.6404 3.34548 10.3414 2.8461 9.84182 2.46685C9.74782 2.28299 9.65936 2.08165 9.54723 1.95968C9.46191 1.86688 9.38048 1.78937 9.27272 1.71363C9.21884 1.67576 9.16216 1.63747 9.05847 1.59479C8.95479 1.5521 8.7839 1.42123 8.3789 1.59646C8.29265 1.63388 8.33702 1.66752 8.28014 1.70861C8.22174 1.62398 8.27468 1.56455 8.07426 1.46758C8.07037 1.46587 8.06646 1.4642 8.06254 1.46256C7.78924 1.3353 7.58852 1.38677 7.51855 1.40062Z" fill="#EBE7E4"/>

</g>


<g transform="translate(9.000000, 9.000000) scale(0.037931 0.037931) "> 

<path d="M53.1088 426.207C29.6019 415.925 36.1677 383.992 54.1995 382.089H525.905C531.167 381.489 559.431 405.377 525.937 426.413C520.445 461.313 503.988 503.418 455.271 525.072H126.47C56.8187 494.113 53.1088 426.207 53.1088 426.207Z" fill="#555555"/>
<path d="M276.132 47.1418C271.453 48.0671 259.226 55.6628 255.004 71.8213C239.41 79.5083 230.324 100.045 230.324 112.303C230.324 129.649 240.646 154.027 263.526 154.027C287.588 154.027 292.822 122.991 292.822 111.06C292.822 86.7835 286.41 75.907 278.618 71.4662C281.718 58.2215 279.651 48.1571 277.553 47.1418C277.237 46.9947 276.819 47.006 276.132 47.1418ZM319.632 53.1785C317.539 54.0794 316.725 62.6649 317.502 75.1948C305.357 78.5263 298.504 93.7754 298.504 118.162C298.504 131.184 306.597 159.709 330.818 159.709C355.516 159.709 366.683 137.146 366.683 121.18C366.683 107.11 356.665 87.6225 340.406 78.9233C336.014 64.0581 322.05 52.1326 319.632 53.1785ZM204.047 132.366C201.571 131.698 191.493 137.644 189.488 157.223C188.822 157.923 188.327 158.753 187.712 159.531C179.889 169.44 177.231 184.749 180.788 199.658C184.788 216.475 198.905 233.57 218.251 233.57C228.313 233.57 232.552 227.344 236.006 222.384C237.614 220.072 239.202 217.901 241.332 215.992L242.22 215.282C248.015 210.112 253.051 205.562 253.051 194.864C253.051 188.784 247.987 181.873 242.22 173.913C240.8 171.953 239.472 170.008 238.137 168.054C231.597 158.514 223.562 148.346 210.971 148.346C210.439 148.346 209.897 148.323 209.373 148.346C207.991 140.448 205.77 132.852 204.047 132.366ZM390.475 151.897C388.495 151.897 383.751 159.23 380.532 167.343C377.149 166.047 373.488 165.39 369.524 165.39C358.683 165.39 348.738 171.434 340.761 182.968L338.097 186.696C332.047 195.287 326.912 202.723 326.912 209.245C326.912 217.342 330.748 221.29 334.191 224.87C335.646 226.381 337.215 228.002 338.63 230.019L339.518 231.262C345.529 239.903 353.005 250.615 366.328 250.615C390.026 250.615 394.952 231.514 398.287 218.833L398.82 216.702C401.714 205.894 401.199 194.897 397.754 185.809C406.656 166.714 393.249 151.897 390.475 151.897ZM285.365 205.162C267.951 205.162 261.604 208.975 252.696 233.747C248.469 245.503 239.084 251.464 230.147 257.361C219.028 264.702 207.598 272.288 207.598 289.498C207.598 307.764 226.128 330.157 247.724 330.157C256.963 330.157 263.793 328.277 269.918 326.606C274.889 325.254 279.31 324.12 284.122 324.12C288.838 324.12 292.431 325.035 296.551 326.251C301.903 327.831 307.934 329.625 317.502 329.625C343.523 329.625 355.32 310.24 355.32 292.161C355.32 279.991 345.881 270.847 336.677 261.978C328.535 254.137 320.027 246.032 317.857 236.055C314.965 222.8 308.489 205.162 285.365 205.162Z" fill="#555555"/>

</g>

</svg>