<svg width="300" height="40" viewBox="0 0 300 40" fill="none" xmlns="http://www.w3.org/2000/svg" xmlns:xlink="http://www.w3.org/1999/xlink">

<g transform="translate(130.000000, 0.000000) scale(2.500000 2.500000) "> 

<path opacity="0.802" d="M8.03124 1.12781C4.26237 1.12781 1.19031 4.19986 1.19031 7.96874C1.19031 11.7376 4.26237 14.8097 8.03124 14.8097C11.8001 14.8097 14.8722 11.7376 14.8722 7.96874C14.8722 4.19986 11.8001 1.12781 8.03124 1.12781V1.12781ZM8.9485 2.94224C11.3706 3.38808 13.2151 5.40656 13.2151 7.96874C13.2151 8.06387 13.1664 8.14272 13.1615 8.23656C13.0507 7.80457 12.849 7.32311 12.4719 6.88075C12.4075 6.80523 12.3229 6.74967 12.228 6.72061C12.1331 6.69155 12.0319 6.6902 11.9363 6.71672C11.1602 6.9305 10.67 7.39338 10.3378 7.78295C10.3611 7.72263 10.3731 7.65849 10.3729 7.59381V6.87071C10.3728 6.73268 10.318 6.60033 10.2204 6.50273C10.1227 6.40513 9.9904 6.35025 9.85237 6.35015H9.2749V6.12586C9.6938 5.76172 9.99799 5.2669 9.99799 4.67465C9.99799 3.92806 9.56634 3.28309 8.9485 2.94224ZM7.10059 2.94559C6.47886 3.28501 6.03771 3.92304 6.03771 4.67465C6.03771 5.2669 6.3419 5.76172 6.76081 6.12586V6.35015H6.18334C6.04531 6.35025 5.91296 6.40513 5.81535 6.50273C5.71775 6.60033 5.66287 6.73268 5.66278 6.87071V7.59381C5.66283 7.64602 5.67073 7.69793 5.68621 7.7478C5.34662 7.37355 4.85629 6.94462 4.1262 6.7435C4.04361 6.72089 3.95672 6.719 3.87322 6.73797C3.78973 6.75695 3.71219 6.79622 3.64749 6.8523C3.17122 7.26377 3.00752 7.84559 2.89426 8.33364C2.88505 8.20648 2.82062 8.09833 2.82062 7.96874C2.82062 5.41319 4.67942 3.39646 7.10059 2.94558V2.94559ZM8.03124 4.47212C8.17135 4.47212 8.23378 4.53455 8.23378 4.67465C8.23378 4.81476 8.17135 4.87719 8.03124 4.87719C7.89114 4.87719 7.80193 4.79197 7.80193 4.67465C7.80193 4.55734 7.89114 4.47212 8.03124 4.47212V4.47212ZM10.1436 8.02566C10.0825 8.11213 9.92602 8.29849 9.92602 8.29849C9.88426 8.3623 9.85701 8.43449 9.84621 8.50998C9.83541 8.58546 9.84131 8.6624 9.8635 8.73536C9.88569 8.80831 9.92363 8.87551 9.97463 8.9322C10.0256 8.98888 10.0885 9.03368 10.1587 9.06343C10.0031 9.30278 9.88649 9.56646 9.7034 9.75807C9.54552 9.92329 9.42769 9.92436 9.2749 10.0242V8.11437H9.85237C9.95612 8.11446 10.0575 8.08357 10.1436 8.02565V8.02566ZM5.93226 8.04909C6.00911 8.09167 6.09548 8.11413 6.18334 8.11437H6.76081V10.0192C6.61408 9.92066 6.50053 9.92258 6.34905 9.76141C6.16949 9.57038 6.05402 9.30442 5.90046 9.0651C5.97167 9.03554 6.03543 8.99053 6.08714 8.93334C6.13885 8.87615 6.17722 8.80819 6.19948 8.73437C6.22173 8.66054 6.22733 8.5827 6.21585 8.50646C6.20438 8.43021 6.17612 8.35747 6.13312 8.29347C6.13312 8.29347 5.98417 8.12152 5.93226 8.04909ZM12.4652 9.72626C12.4744 9.73089 12.5439 9.77647 12.5439 9.77647C12.6374 9.8218 12.7423 9.83812 12.8452 9.82334C12.1436 11.6813 10.4328 12.9794 8.35764 13.1141C8.41775 13.0657 8.46634 13.0045 8.49991 12.935C8.49991 12.935 8.8082 12.4324 9.1343 12.3609C10.6079 12.0373 11.8089 11.0003 12.4652 9.72626ZM3.57049 9.72798C4.227 11.0014 5.42832 12.0375 6.90141 12.3609C7.23045 12.4331 7.56927 12.9484 7.56927 12.9484C7.60201 13.0123 7.6476 13.0687 7.70317 13.1141C5.62739 12.979 3.90264 11.6797 3.19388 9.82334C3.2969 9.8376 3.40184 9.8207 3.49517 9.7748C3.49517 9.7748 3.562 9.7323 3.57049 9.72793L3.57049 9.72798Z" fill="#EBE7E4"/>

</g>%n%n
<g transform="translate(139.000000, 9.000000) scale(0.687500 0.687500) "> 

<path fill="none" stroke-width="30.9174" stroke-linecap="round" stroke-linejoin="round" stroke="rgb(24.705882%, 24.705882%, 24.705882%)" stroke-opacity="1" stroke-miterlimit="10" d="M 290 197.250977 C 315.629883 197.250977 336.374512 176.506348 336.374512 150.876465 C 336.374512 125.246582 315.629883 104.501953 290 104.501953 C 264.370117 104.501953 243.625488 125.246582 243.625488 150.876465 C 243.625488 176.506348 264.370117 197.250977 290 197.250977 Z M 290 197.250977 " transform="matrix(0.0551724, 0, 0, 0.0551724, 0, 0)"/>
<path fill-rule="nonzero" fill="rgb(24.705882%, 24.705882%, 24.705882%)" fill-opacity="1" d="M 21.4375 17.457031 C 21.4375 17.457031 23.171875 14.925781 25.488281 14.289062 C 26.972656 16.027344 27.085938 18.105469 27.085938 19.128906 C 27.085938 19.128906 25.714844 18.605469 24.636719 17.171875 C 23.796875 17.644531 21.4375 17.457031 21.4375 17.457031 Z M 21.4375 17.457031 "/>
<path fill-rule="nonzero" fill="rgb(24.705882%, 24.705882%, 24.705882%)" fill-opacity="1" d="M 10.5625 17.457031 C 10.5625 17.457031 8.910156 14.96875 6.59375 14.328125 C 5.144531 15.582031 4.914062 19.128906 4.914062 19.128906 C 4.914062 19.128906 6.335938 18.421875 7.363281 17.171875 C 8.203125 17.644531 10.5625 17.457031 10.5625 17.457031 Z M 10.5625 17.457031 "/>
<path fill-rule="nonzero" fill="rgb(24.705882%, 24.705882%, 24.705882%)" fill-opacity="1" d="M 23.644531 15.953125 C 23.019531 18.757812 20.203125 22.652344 17.707031 22.832031 L 17.707031 10.882812 L 14.292969 10.882812 L 14.292969 22.832031 C 11.796875 22.652344 8.980469 18.757812 8.355469 15.953125 L 5.753906 16.964844 C 6.414062 20.714844 9.632812 24.195312 13.648438 25.078125 C 15.15625 25.410156 16 27.085938 16 27.085938 C 16 27.085938 16.84375 25.410156 18.351562 25.078125 C 22.367188 24.195312 25.585938 20.714844 26.246094 16.964844 Z M 23.644531 15.953125 "/>
<path fill-rule="nonzero" fill="rgb(24.705882%, 24.705882%, 24.705882%)" fill-opacity="1" d="M 20.265625 13.441406 L 11.734375 13.441406 L 11.734375 15.148438 L 20.265625 15.148438 Z M 20.265625 13.441406 "/>
<path fill="none" stroke-width="25" stroke-linecap="butt" stroke-linejoin="miter" stroke="rgb(24.705882%, 24.705882%, 24.705882%)" stroke-opacity="1" stroke-miterlimit="4" d="M 544.741211 290 C 544.741211 357.543945 517.907715 422.32666 470.117188 470.117188 C 422.32666 517.907715 357.543945 544.741211 290 544.741211 C 222.456055 544.741211 157.67334 517.907715 109.882812 470.117188 C 62.092285 422.32666 35.258789 357.543945 35.258789 290 C 35.258789 222.456055 62.092285 157.67334 109.882812 109.882812 C 157.67334 62.092285 222.456055 35.258789 290 35.258789 C 357.543945 35.258789 422.32666 62.092285 470.117188 109.882812 C 517.907715 157.67334 544.741211 222.456055 544.741211 290 Z M 544.741211 290 " transform="matrix(0.0551724, 0, 0, 0.0551724, 0, 0)"/>

</g>%n%n</svg>