<svg width="300" height="40" viewBox="0 0 300 40" fill="none" xmlns="http://www.w3.org/2000/svg" xmlns:xlink="http://www.w3.org/1999/xlink">

<g transform="translate(130.000000, 0.000000) scale(2.000000 2.000000) "> 

<g clip-path="url(#clip0)">
<path opacity="0.953" d="M9.99934 0C15.514 0 20 4.44646 20 10C20 15.5172 15.514 20 9.99934 20C4.48599 20 0 15.5172 0 10C0 4.44646 4.48599 0 9.99934 0V0Z" fill="#60BE60"/>
<path opacity="0.95" fill-rule="evenodd" clip-rule="evenodd" d="M10 19C14.9706 19 19 14.9706 19 10C19 5.02944 14.9706 1 10 1C5.02944 1 1 5.02944 1 10C1 14.9706 5.02944 19 10 19ZM10 20C15.5228 20 20 15.5228 20 10C20 4.47715 15.5228 0 10 0C4.47715 0 0 4.47715 0 10C0 15.5228 4.47715 20 10 20Z" fill="#398C39"/>
</g>
<defs>
<clipPath id="clip0">
<path d="M0 0H20V20H0V0Z" fill="white"/>
</clipPath>
</defs>

</g>%n%n
<g transform="translate(138.000000, 8.000000) scale(2.000000 2.000000) "> 

<path fill-rule="nonzero" fill="rgb(100%, 100%, 100%)" fill-opacity="1" d="M 3.988281 1.171875 C 3.988281 1.171875 5.578125 1.136719 7.4375 2.578125 C 7.4375 2.578125 9.09375 0.972656 11.707031 1.128906 C 10.046875 1.300781 8.179688 2.703125 7.4375 3.828125 C 7.4375 3.828125 5.652344 1.714844 3.988281 1.171875 Z M 3.988281 1.171875 "/>
<path fill-rule="nonzero" fill="rgb(100%, 100%, 100%)" fill-opacity="1" d="M 5.675781 5.523438 L 4.789062 5.523438 C 4.664062 5.523438 4.5625 5.421875 4.5625 5.296875 L 4.5625 4.863281 C 4.5625 4.738281 4.664062 4.636719 4.789062 4.636719 L 5.675781 4.636719 C 5.796875 4.636719 5.898438 4.738281 5.898438 4.863281 L 5.898438 5.296875 C 5.898438 5.421875 5.796875 5.523438 5.675781 5.523438 Z M 5.675781 5.523438 "/>
<path fill-rule="nonzero" fill="rgb(100%, 100%, 100%)" fill-opacity="1" d="M 1.910156 5.730469 L 6.199219 5.730469 L 6.839844 7.875 L 6.839844 10.8125 L 6.828125 10.8125 C 6.75 11.101562 6.328125 11.320312 5.816406 11.320312 C 5.304688 11.320312 4.878906 11.101562 4.800781 10.8125 L 4.789062 10.8125 L 4.789062 8.210938 L 4.316406 8.289062 L 4.316406 7.492188 L 3.792969 7.492188 L 3.792969 8.289062 L 3.320312 8.210938 L 3.320312 10.8125 L 3.308594 10.8125 C 3.230469 11.101562 2.804688 11.320312 2.292969 11.320312 C 1.78125 11.320312 1.359375 11.101562 1.28125 10.8125 L 1.269531 10.8125 L 1.269531 7.875 Z M 1.910156 5.730469 "/>
<path fill-rule="nonzero" fill="rgb(100%, 100%, 100%)" fill-opacity="1" d="M 3.320312 5.523438 L 2.4375 5.523438 C 2.3125 5.523438 2.210938 5.421875 2.210938 5.296875 L 2.210938 4.863281 C 2.210938 4.738281 2.3125 4.636719 2.4375 4.636719 L 3.320312 4.636719 C 3.445312 4.636719 3.546875 4.738281 3.546875 4.863281 L 3.546875 5.296875 C 3.546875 5.421875 3.445312 5.523438 3.320312 5.523438 Z M 3.320312 5.523438 "/>

</g>%n%n</svg>