<svg width="300" height="40" viewBox="0 0 300 40" fill="none" xmlns="http://www.w3.org/2000/svg" xmlns:xlink="http://www.w3.org/1999/xlink">

<g transform="translate(130.000000, 0.000000) scale(2.000000 2.000000) "> 

<g clip-path="url(#clip0)">
<path opacity="0.953" d="M9.99934 0C15.514 0 20 4.44646 20 10C20 15.5172 15.514 20 9.99934 20C4.48599 20 0 15.5172 0 10C0 4.44646 4.48599 0 9.99934 0V0Z" fill="#60BE60"/>
<path opacity="0.95" fill-rule="evenodd" clip-rule="evenodd" d="M10 19C14.9706 19 19 14.9706 19 10C19 5.02944 14.9706 1 10 1C5.02944 1 1 5.02944 1 10C1 14.9706 5.02944 19 10 19ZM10 20C15.5228 20 20 15.5228 20 10C20 4.47715 15.5228 0 10 0C4.47715 0 0 4.47715 0 10C0 15.5228 4.47715 20 10 20Z" fill="#398C39"/>
</g>
<defs>
<clipPath id="clip0">
<path d="M0 0H20V20H0V0Z" fill="white"/>
</clipPath>
</defs>

</g>%n%n
<g transform="translate(138.000000, 8.000000) scale(0.750000 0.750000) "> 

<defs>
<filter id="filter-remove-color" x="0%" y="0%" width="100%" height="100%">
<feColorMatrix color-interpolation-filters="sRGB" values="0 0 0 0 1 0 0 0 0 1 0 0 0 0 1 0 0 0 1 0" />
</filter>
<mask id="mask-0">
<g filter="url(#filter-remove-color)">
<rect x="-3.2" y="-3.2" width="38.4" height="38.4" fill="rgb(0%, 0%, 0%)" fill-opacity="0.75"/>
</g>
</mask>
<clip100Path id="clip100-0">
<rect x="0" y="0" width="32" height="32"/>
</clip100Path>
<g id="source-6" clip100-path="url(#clip100-0)">
<path fill-rule="evenodd" fill="rgb(100%, 100%, 100%)" fill-opacity="1" d="M 4 18.667969 C 4.738281 18.667969 5.332031 19.261719 5.332031 20 L 5.332031 25.332031 C 5.332031 26.070312 4.738281 26.667969 4 26.667969 C 3.261719 26.667969 2.667969 26.070312 2.667969 25.332031 L 2.667969 20 C 2.667969 19.261719 3.261719 18.667969 4 18.667969 Z M 4 18.667969 "/>
</g>
<mask id="mask-1">
<g filter="url(#filter-remove-color)">
<rect x="-3.2" y="-3.2" width="38.4" height="38.4" fill="rgb(0%, 0%, 0%)" fill-opacity="0.75"/>
</g>
</mask>
<clip100Path id="clip100-1">
<rect x="0" y="0" width="32" height="32"/>
</clip100Path>
<g id="source-10" clip100-path="url(#clip100-1)">
<path fill-rule="evenodd" fill="rgb(100%, 100%, 100%)" fill-opacity="1" d="M 16 21.332031 C 16.738281 21.332031 17.332031 21.929688 17.332031 22.667969 L 17.332031 28 C 17.332031 28.738281 16.738281 29.332031 16 29.332031 C 15.261719 29.332031 14.667969 28.738281 14.667969 28 L 14.667969 22.667969 C 14.667969 21.929688 15.261719 21.332031 16 21.332031 Z M 16 21.332031 "/>
</g>
<mask id="mask-2">
<g filter="url(#filter-remove-color)">
<rect x="-3.2" y="-3.2" width="38.4" height="38.4" fill="rgb(0%, 0%, 0%)" fill-opacity="0.75"/>
</g>
</mask>
<clip100Path id="clip100-2">
<rect x="0" y="0" width="32" height="32"/>
</clip100Path>
<g id="source-14" clip100-path="url(#clip100-2)">
<path fill-rule="evenodd" fill="rgb(100%, 100%, 100%)" fill-opacity="1" d="M 28 18.667969 C 28.738281 18.667969 29.332031 19.261719 29.332031 20 L 29.332031 25.332031 C 29.332031 26.070312 28.738281 26.667969 28 26.667969 C 27.261719 26.667969 26.667969 26.070312 26.667969 25.332031 L 26.667969 20 C 26.667969 19.261719 27.261719 18.667969 28 18.667969 Z M 28 18.667969 "/>
</g>
</defs>
<g mask="url(#mask-0)">
<use xlink:href="#source-6"/>
</g>
<g mask="url(#mask-1)">
<use xlink:href="#source-10"/>
</g>
<g mask="url(#mask-2)">
<use xlink:href="#source-14"/>
</g>
<path fill-rule="nonzero" fill="rgb(100%, 100%, 100%)" fill-opacity="1" d="M 29.332031 18.667969 C 29.332031 21.613281 23.363281 24 16 24 C 8.636719 24 2.667969 21.613281 2.667969 18.667969 C 2.667969 15.722656 8.636719 13.332031 16 13.332031 C 23.363281 13.332031 29.332031 15.722656 29.332031 18.667969 Z M 29.332031 18.667969 "/>
<path fill-rule="evenodd" fill="rgb(100%, 100%, 100%)" fill-opacity="1" d="M 16 2.539062 L 28.542969 8.113281 C 29.214844 8.414062 29.515625 9.203125 29.21875 9.875 C 28.917969 10.546875 28.132812 10.851562 27.457031 10.550781 L 16 5.460938 L 4.542969 10.550781 C 3.867188 10.851562 3.082031 10.546875 2.78125 9.875 C 2.484375 9.203125 2.785156 8.414062 3.457031 8.113281 Z M 16 2.539062 "/>

</g>%n%n</svg>