<svg width="300" height="40" viewBox="0 0 300 40" fill="none" xmlns="http://www.w3.org/2000/svg" xmlns:xlink="http://www.w3.org/1999/xlink">

<g transform="translate(130.000000, 0.000000) scale(2.500000 2.500000) "> 

<path opacity="0.807" d="M7.51855 1.40062C7.17621 1.46832 7.04431 1.58674 6.84902 1.77556C6.71244 1.90761 6.61727 2.13225 6.51928 2.34466C6.33914 2.50475 6.12471 2.65133 6.02382 2.83342C5.9108 3.03742 5.88153 3.25923 5.84305 3.48119C5.73817 3.51207 5.5556 3.49307 5.48652 3.53308C5.34997 3.61218 5.24379 3.70915 5.15008 3.826C5.04456 3.95758 5.01481 4.16033 4.95425 4.33652C4.95695 4.3341 4.93057 4.36706 4.93751 4.35828C4.55266 4.8457 4.48059 5.44554 4.61613 6.01369C4.69954 6.3644 4.87121 6.68774 5.14674 6.96108C5.23716 7.05078 5.41089 7.05109 5.52837 7.12344C5.37748 7.35706 5.22875 7.63043 5.22875 7.94697C5.22875 8.44394 5.43695 8.83628 5.73425 9.15547C5.8112 9.23809 5.96918 9.23454 6.06399 9.30611H2.43179C2.40274 9.30571 2.37368 9.30683 2.34475 9.30947C1.1844 9.4319 0.999912 10.8195 1.67522 11.5691C1.75022 12.0403 2.05164 13.4974 3.80265 14.2757C3.90906 14.3231 4.02426 14.3477 4.14077 14.3477H11.9157C12.0322 14.3477 12.1474 14.3231 12.2538 14.2757C13.5963 13.679 14.1159 12.5057 14.316 11.5591C14.4604 11.4149 14.6401 11.2999 14.7143 11.1055C14.8423 10.7705 14.8026 10.405 14.6976 10.1514C14.5926 9.8978 14.4458 9.72712 14.2942 9.59569C14.2184 9.52997 14.1422 9.47459 14.0415 9.42161C13.9407 9.36863 13.8576 9.26949 13.4924 9.31114L13.5862 9.30611H9.62423C9.7246 9.23486 9.885 9.24767 9.96234 9.15882C10.2605 8.81623 10.3825 8.40301 10.3825 8.0089C10.3825 7.84977 10.3042 7.76191 10.2653 7.63396C10.5574 7.5227 10.8948 7.45331 11.042 7.25065C11.275 6.92976 11.3326 6.63442 11.3717 6.48571C11.3735 6.47848 11.3752 6.47123 11.3768 6.46395L11.3818 6.43885C11.4929 6.02403 11.4819 5.59667 11.3316 5.20021L11.3082 5.84631C11.5153 5.4019 11.4731 4.92041 11.3382 4.60098C11.2708 4.44127 11.1889 4.31495 11.0888 4.20261C11.0388 4.14644 10.9857 4.09362 10.9047 4.03523C10.8644 4.00614 10.7175 3.98571 10.6453 3.94986C10.6404 3.34548 10.3414 2.8461 9.84182 2.46685C9.74782 2.28299 9.65936 2.08165 9.54723 1.95968C9.46191 1.86688 9.38048 1.78937 9.27272 1.71363C9.21884 1.67576 9.16216 1.63747 9.05847 1.59479C8.95479 1.5521 8.7839 1.42123 8.3789 1.59646C8.29265 1.63388 8.33702 1.66752 8.28014 1.70861C8.22174 1.62398 8.27468 1.56455 8.07426 1.46758C8.07037 1.46587 8.06646 1.4642 8.06254 1.46256C7.78924 1.3353 7.58852 1.38677 7.51855 1.40062Z" fill="#EBE7E4"/>

</g>%n%n
<g transform="translate(139.000000, 9.000000) scale(0.687500 0.687500) "> 

<path fill-rule="nonzero" fill="rgb(33.333333%, 33.333333%, 33.333333%)" fill-opacity="1" d="M 2.929688 23.515625 C 1.632812 22.949219 1.996094 21.1875 2.992188 21.082031 L 29.015625 21.082031 C 29.304688 21.046875 30.863281 22.367188 29.015625 23.527344 C 28.714844 25.453125 27.804688 27.773438 25.117188 28.96875 L 6.976562 28.96875 C 3.136719 27.261719 2.929688 23.515625 2.929688 23.515625 Z M 2.929688 23.515625 "/>
<path fill-rule="nonzero" fill="rgb(33.333333%, 33.333333%, 33.333333%)" fill-opacity="1" d="M 15.234375 2.601562 C 14.976562 2.652344 14.300781 3.070312 14.070312 3.960938 C 13.207031 4.386719 12.707031 5.519531 12.707031 6.195312 C 12.707031 7.152344 13.277344 8.496094 14.539062 8.496094 C 15.867188 8.496094 16.15625 6.785156 16.15625 6.128906 C 16.15625 4.789062 15.800781 4.1875 15.371094 3.941406 C 15.542969 3.210938 15.429688 2.65625 15.3125 2.601562 C 15.296875 2.59375 15.273438 2.59375 15.234375 2.601562 Z M 17.636719 2.933594 C 17.519531 2.984375 17.472656 3.457031 17.515625 4.148438 C 16.847656 4.332031 16.46875 5.171875 16.46875 6.519531 C 16.46875 7.238281 16.914062 8.8125 18.253906 8.8125 C 19.613281 8.8125 20.230469 7.566406 20.230469 6.6875 C 20.230469 5.910156 19.679688 4.835938 18.78125 4.355469 C 18.539062 3.535156 17.769531 2.875 17.636719 2.933594 Z M 11.257812 7.304688 C 11.121094 7.265625 10.566406 7.59375 10.453125 8.675781 C 10.417969 8.714844 10.390625 8.757812 10.355469 8.800781 C 9.925781 9.347656 9.777344 10.191406 9.972656 11.015625 C 10.195312 11.945312 10.972656 12.886719 12.042969 12.886719 C 12.597656 12.886719 12.832031 12.542969 13.019531 12.269531 C 13.109375 12.140625 13.199219 12.023438 13.316406 11.917969 L 13.363281 11.878906 C 13.683594 11.59375 13.960938 11.339844 13.960938 10.75 C 13.960938 10.414062 13.683594 10.035156 13.363281 9.59375 C 13.285156 9.488281 13.210938 9.378906 13.136719 9.273438 C 12.777344 8.746094 12.335938 8.183594 11.640625 8.183594 C 11.609375 8.183594 11.582031 8.183594 11.550781 8.183594 C 11.476562 7.75 11.351562 7.328125 11.257812 7.304688 Z M 21.542969 8.378906 C 21.433594 8.378906 21.171875 8.785156 20.996094 9.234375 C 20.808594 9.160156 20.605469 9.125 20.386719 9.125 C 19.789062 9.125 19.242188 9.457031 18.800781 10.09375 L 18.652344 10.300781 C 18.320312 10.773438 18.035156 11.183594 18.035156 11.542969 C 18.035156 11.992188 18.25 12.210938 18.4375 12.40625 C 18.519531 12.488281 18.605469 12.578125 18.683594 12.691406 L 18.730469 12.757812 C 19.0625 13.234375 19.476562 13.828125 20.210938 13.828125 C 21.519531 13.828125 21.789062 12.773438 21.972656 12.074219 L 22.003906 11.957031 C 22.164062 11.359375 22.136719 10.753906 21.945312 10.25 C 22.4375 9.199219 21.695312 8.378906 21.542969 8.378906 Z M 15.746094 11.320312 C 14.785156 11.320312 14.433594 11.53125 13.941406 12.894531 C 13.707031 13.546875 13.191406 13.875 12.699219 14.199219 C 12.085938 14.605469 11.453125 15.023438 11.453125 15.972656 C 11.453125 16.980469 12.476562 18.214844 13.667969 18.214844 C 14.175781 18.214844 14.554688 18.113281 14.890625 18.019531 C 15.167969 17.945312 15.410156 17.882812 15.675781 17.882812 C 15.9375 17.882812 16.132812 17.933594 16.363281 18 C 16.65625 18.085938 16.988281 18.1875 17.515625 18.1875 C 18.953125 18.1875 19.605469 17.117188 19.605469 16.121094 C 19.605469 15.449219 19.082031 14.941406 18.574219 14.453125 C 18.125 14.019531 17.65625 13.574219 17.535156 13.023438 C 17.378906 12.292969 17.019531 11.320312 15.746094 11.320312 Z M 15.746094 11.320312 "/>

</g>%n%n</svg>