<svg width="300" height="40" viewBox="0 0 300 40" fill="none" xmlns="http://www.w3.org/2000/svg" xmlns:xlink="http://www.w3.org/1999/xlink">

<g transform="translate(130.000000, 0.000000) scale(2.000000 2.000000) "> 

<g clip-path="url(#clip0)">
<path opacity="0.953" d="M9.99934 0C15.514 0 20 4.44646 20 10C20 15.5172 15.514 20 9.99934 20C4.48599 20 0 15.5172 0 10C0 4.44646 4.48599 0 9.99934 0V0Z" fill="#878787"/>
<path opacity="0.95" fill-rule="evenodd" clip-rule="evenodd" d="M10 19C14.9706 19 19 14.9706 19 10C19 5.02944 14.9706 1 10 1C5.02944 1 1 5.02944 1 10C1 14.9706 5.02944 19 10 19ZM10 20C15.5228 20 20 15.5228 20 10C20 4.47715 15.5228 0 10 0C4.47715 0 0 4.47715 0 10C0 15.5228 4.47715 20 10 20Z" fill="#404040"/>
</g>
<defs>
<clipPath id="clip0">
<path d="M0 0H20V20H0V0Z" fill="white"/>
</clipPath>
</defs>

</g>%n%n
<g transform="translate(138.000000, 8.000000) scale(0.750000 0.750000) "> 

<path fill-rule="evenodd" fill="rgb(85.098039%, 85.098039%, 85.098039%)" fill-opacity="1" d="M 16 -0.183594 L 32 8.542969 L 32 29.332031 L 0 29.332031 L 0 8.542969 Z M 2.667969 10.125 L 2.667969 26.667969 L 29.332031 26.667969 L 29.332031 10.125 L 16 2.851562 Z M 2.667969 10.125 "/>
<path fill-rule="evenodd" fill="rgb(100%, 100%, 100%)" fill-opacity="1" d="M 5.332031 13.332031 C 5.332031 11.859375 6.527344 10.667969 8 10.667969 L 12.230469 10.667969 C 12.9375 10.667969 13.613281 10.386719 14.113281 9.886719 L 15.21875 8.78125 C 15.71875 8.28125 16.398438 8 17.105469 8 L 20.230469 8 C 20.9375 8 21.613281 8.28125 22.113281 8.78125 L 23.449219 10.113281 C 23.800781 10.46875 24.28125 10.667969 24.78125 10.667969 C 25.824219 10.667969 26.667969 11.511719 26.667969 12.550781 L 26.667969 21.332031 C 26.667969 22.804688 25.472656 24 24 24 L 8 24 C 6.527344 24 5.332031 22.804688 5.332031 21.332031 Z M 24 16 C 24 18.945312 21.613281 21.332031 18.667969 21.332031 C 15.722656 21.332031 13.332031 18.945312 13.332031 16 C 13.332031 13.054688 15.722656 10.667969 18.667969 10.667969 C 21.613281 10.667969 24 13.054688 24 16 Z M 9.332031 16 C 10.070312 16 10.667969 15.402344 10.667969 14.667969 C 10.667969 13.929688 10.070312 13.332031 9.332031 13.332031 C 8.597656 13.332031 8 13.929688 8 14.667969 C 8 15.402344 8.597656 16 9.332031 16 Z M 9.332031 16 "/>

</g>%n%n</svg>