<svg width="300" height="40" viewBox="0 0 300 40" fill="none" xmlns="http://www.w3.org/2000/svg" xmlns:xlink="http://www.w3.org/1999/xlink" version="1.1">

<g transform="translate(130.000000, 0.000000) scale(2.000000 2.000000) "> 

<g clip-path="url(#clip0)">
<path opacity="0.949" d="M9.9994 1C14.9626 1 19 5.00181 19 10C19 14.9655 14.9626 19 9.9994 19C5.0374 19 1 14.9655 1 10C1 5.00181 5.0374 1 9.9994 1Z" fill="#45ABE9"/>
<path opacity="0.95" fill-rule="evenodd" clip-rule="evenodd" d="M10 19C14.9706 19 19 14.9706 19 10C19 5.02944 14.9706 1 10 1C5.02944 1 1 5.02944 1 10C1 14.9706 5.02944 19 10 19ZM10 20C15.5228 20 20 15.5228 20 10C20 4.47715 15.5228 0 10 0C4.47715 0 0 4.47715 0 10C0 15.5228 4.47715 20 10 20Z" fill="#1578B3"/>
</g>
<defs>
<clipPath id="clip0">
<path d="M0 0H20V20H0V0Z" fill="white"/>
</clipPath>
</defs>

</g>%n%n
<g transform="translate(138.000000, 8.000000) scale(2.000000 2.000000) "> 

<g id="surface1">
<path style=" stroke:none;fill-rule:evenodd;fill:rgb(100%,100%,100%);fill-opacity:1;" d="M 6.5 3.914062 C 7.082031 3.707031 7.5 3.152344 7.5 2.5 C 7.5 1.671875 6.828125 1 6 1 C 5.171875 1 4.5 1.671875 4.5 2.5 C 4.5 3.152344 4.917969 3.707031 5.5 3.914062 L 5.5 9.964844 C 4.507812 9.828125 3.910156 9.277344 3.542969 8.722656 C 3.34375 8.425781 3.210938 8.125 3.125 7.882812 L 3.648438 7.742188 C 3.863281 7.6875 3.992188 7.464844 3.933594 7.25 C 3.917969 7.1875 3.886719 7.132812 3.847656 7.085938 L 2.113281 5.128906 C 2.042969 5.046875 1.9375 5 1.828125 5 C 1.636719 5 1.476562 5.136719 1.445312 5.320312 L 1.027344 7.84375 C 1.015625 7.902344 1.019531 7.960938 1.035156 8.019531 C 1.09375 8.238281 1.320312 8.367188 1.539062 8.308594 L 2.15625 8.144531 C 2.261719 8.453125 2.433594 8.863281 2.707031 9.277344 C 3.28125 10.132812 4.296875 11 6 11 C 7.703125 11 8.71875 10.132812 9.292969 9.277344 C 9.550781 8.890625 9.71875 8.503906 9.824219 8.203125 L 10.472656 8.375 C 10.691406 8.433594 10.917969 8.304688 10.976562 8.085938 C 10.992188 8.03125 10.996094 7.96875 10.984375 7.914062 L 10.554688 5.320312 C 10.523438 5.136719 10.363281 5 10.175781 5 C 10.0625 5 9.957031 5.050781 9.886719 5.132812 L 8.160156 7.152344 C 8.121094 7.199219 8.09375 7.253906 8.078125 7.3125 C 8.019531 7.53125 8.148438 7.753906 8.367188 7.8125 L 8.855469 7.941406 C 8.769531 8.171875 8.640625 8.449219 8.457031 8.722656 C 8.089844 9.277344 7.492188 9.828125 6.5 9.964844 Z M 6.5 2.5 C 6.5 2.777344 6.277344 3 6 3 C 5.722656 3 5.5 2.777344 5.5 2.5 C 5.5 2.222656 5.722656 2 6 2 C 6.277344 2 6.5 2.222656 6.5 2.5 Z M 6.5 2.5 "/>
</g>

</g>%n%n</svg>