<svg width="300" height="40" viewBox="0 0 300 40" fill="none" xmlns="http://www.w3.org/2000/svg" >

<g transform="translate(130.000000, 0.000000) scale(2.000000 2.000000) "> 

<g clip-path="url(#clip0)">
<path opacity="0.953" d="M9.99934 0C15.514 0 20 4.44646 20 10C20 15.5172 15.514 20 9.99934 20C4.48599 20 0 15.5172 0 10C0 4.44646 4.48599 0 9.99934 0V0Z" fill="#878787"/>
<path opacity="0.95" fill-rule="evenodd" clip-rule="evenodd" d="M10 19C14.9706 19 19 14.9706 19 10C19 5.02944 14.9706 1 10 1C5.02944 1 1 5.02944 1 10C1 14.9706 5.02944 19 10 19ZM10 20C15.5228 20 20 15.5228 20 10C20 4.47715 15.5228 0 10 0C4.47715 0 0 4.47715 0 10C0 15.5228 4.47715 20 10 20Z" fill="#404040"/>
</g>
<defs>
<clipPath id="clip0">
<path d="M0 0H20V20H0V0Z" fill="white"/>
</clipPath>
</defs>

</g>%n%n
<g transform="translate(138.000000, 8.000000) scale(0.500000 0.500000) "> 

<g clip100-path="url(#clip1000_1235_547)">
<path fill-rule="evenodd" clip100-rule="evenodd" d="M24 -0.278198L48 12.8127V44H0V12.8127L24 -0.278198ZM4 15.1872V40H44V15.1872L24 4.27815L4 15.1872Z" fill="#D9D9D9"/>
<path fill-rule="evenodd" clip100-rule="evenodd" d="M8 20C8 17.7908 9.79086 16 12 16H18.3431C19.404 16 20.4214 15.5785 21.1716 14.8284L22.8284 13.1715C23.5786 12.4214 24.596 12 25.6569 12H30.3431C31.404 12 32.4214 12.4214 33.1716 13.1715L35.1716 15.1716C35.702 15.702 36.4214 16 37.1716 16C38.7337 16 40 17.2663 40 18.8284V32C40 34.2091 38.2091 36 36 36H12C9.79086 36 8 34.2091 8 32V20ZM36 24C36 28.4183 32.4183 32 28 32C23.5817 32 20 28.4183 20 24C20 19.5817 23.5817 16 28 16C32.4183 16 36 19.5817 36 24ZM14 24C15.1046 24 16 23.1045 16 22C16 20.8954 15.1046 20 14 20C12.8954 20 12 20.8954 12 22C12 23.1045 12.8954 24 14 24Z" fill="#ffffff"/>
</g>
<defs>
<clip100Path id="clip1000_1235_547">
<rect width="48" height="48" fill="#ffffff"/>
</clip100Path>
</defs>

</g>%n%n</svg>