<svg width="300" height="40" viewBox="0 0 300 40" fill="none" xmlns="http://www.w3.org/2000/svg" xmlns:xlink="http://www.w3.org/1999/xlink" version="1.1">

<g transform="translate(130.000000, 0.000000) scale(2.000000 2.000000) "> 

<g clip-path="url(#clip0)">
<path opacity="0.953" d="M9.99934 0C15.514 0 20 4.44646 20 10C20 15.5172 15.514 20 9.99934 20C4.48599 20 0 15.5172 0 10C0 4.44646 4.48599 0 9.99934 0V0Z" fill="#878787"/>
<path opacity="0.95" fill-rule="evenodd" clip-rule="evenodd" d="M10 19C14.9706 19 19 14.9706 19 10C19 5.02944 14.9706 1 10 1C5.02944 1 1 5.02944 1 10C1 14.9706 5.02944 19 10 19ZM10 20C15.5228 20 20 15.5228 20 10C20 4.47715 15.5228 0 10 0C4.47715 0 0 4.47715 0 10C0 15.5228 4.47715 20 10 20Z" fill="#404040"/>
</g>
<defs>
<clipPath id="clip0">
<path d="M0 0H20V20H0V0Z" fill="white"/>
</clipPath>
</defs>

</g>%n%n
<g transform="translate(138.000000, 8.000000) scale(2.000000 2.000000) "> 

<defs>
<filter id="alpha" filterUnits="objectBoundingBox" x="0%" y="0%" width="100%" height="100%">
  <feColorMatrix type="matrix" in="SourceGraphic" values="0 0 0 0 1 0 0 0 0 1 0 0 0 0 1 0 0 0 1 0"/>
</filter>
<mask id="mask0">
  <g filter="url(#alpha)">
<rect x="0" y="0" width="12" height="12" style="fill:rgb(0%,0%,0%);fill-opacity:0.5;stroke:none;"/>
  </g>
</mask>
<clip100Path id="clip1001">
  <rect x="0" y="0" width="12" height="12"/>
</clip100Path>
<g id="surface5" clip100-path="url(#clip1001)">
<path style=" stroke:none;fill-rule:nonzero;fill:rgb(100%,100%,100%);fill-opacity:1;" d="M 1 1 L 11 1 L 11 7.675781 C 10.738281 7.382812 10.394531 7.164062 10 7.0625 L 10 7 C 10 5.894531 9.105469 5 8 5 L 7 5 C 6.636719 5 6.292969 5.097656 6 5.265625 C 5.707031 5.097656 5.363281 5 5 5 L 4 5 C 2.894531 5 2 5.894531 2 7 L 2 7.0625 C 1.605469 7.164062 1.261719 7.382812 1 7.675781 Z M 1 1 "/>
</g>
</defs>
<g id="surface1">
<use xlink:href="#surface5" mask="url(#mask0)"/>
<path style=" stroke:none;fill-rule:nonzero;fill:rgb(100%,100%,100%);fill-opacity:1;" d="M 3 7 C 3 6.449219 3.449219 6 4 6 L 5 6 C 5.550781 6 6 6.449219 6 7 L 5.5 7 C 5.136719 7 4.792969 7.097656 4.5 7.265625 C 4.207031 7.097656 3.863281 7 3.5 7 Z M 3 7 "/>
<path style=" stroke:none;fill-rule:nonzero;fill:rgb(100%,100%,100%);fill-opacity:1;" d="M 9 7 C 9 6.449219 8.550781 6 8 6 L 7 6 C 6.449219 6 6 6.449219 6 7 L 6.5 7 C 6.863281 7 7.207031 7.097656 7.5 7.265625 C 7.792969 7.097656 8.136719 7 8.5 7 Z M 9 7 "/>
<path style=" stroke:none;fill-rule:evenodd;fill:rgb(100%,100%,100%);fill-opacity:1;" d="M 1.5 9 C 1.5 8.449219 1.949219 8 2.5 8 L 3.5 8 C 4.050781 8 4.5 8.449219 4.5 9 C 4.5 8.449219 4.949219 8 5.5 8 L 6.5 8 C 7.050781 8 7.5 8.449219 7.5 9 C 7.5 8.449219 7.949219 8 8.5 8 L 9.5 8 C 10.050781 8 10.5 8.449219 10.5 9 L 10.5 11 L 1.5 11 Z M 1.5 9 "/>
</g>

</g>%n%n</svg>