<svg width="300" height="40" viewBox="0 0 300 40" fill="none" xmlns="http://www.w3.org/2000/svg" xmlns:xlink="http://www.w3.org/1999/xlink">

<g transform="translate(130.000000, 0.000000) scale(2.000000 2.000000) "> 

<g clip-path="url(#clip0)">
<path opacity="0.953" d="M9.99934 0C15.514 0 20 4.44646 20 10C20 15.5172 15.514 20 9.99934 20C4.48599 20 0 15.5172 0 10C0 4.44646 4.48599 0 9.99934 0V0Z" fill="#878787"/>
<path opacity="0.95" fill-rule="evenodd" clip-rule="evenodd" d="M10 19C14.9706 19 19 14.9706 19 10C19 5.02944 14.9706 1 10 1C5.02944 1 1 5.02944 1 10C1 14.9706 5.02944 19 10 19ZM10 20C15.5228 20 20 15.5228 20 10C20 4.47715 15.5228 0 10 0C4.47715 0 0 4.47715 0 10C0 15.5228 4.47715 20 10 20Z" fill="#404040"/>
</g>
<defs>
<clipPath id="clip0">
<path d="M0 0H20V20H0V0Z" fill="white"/>
</clipPath>
</defs>

</g>%n%n
<g transform="translate(138.000000, 8.000000) scale(0.750000 0.750000) "> 

<path fill-rule="nonzero" fill="rgb(100%, 100%, 100%)" fill-opacity="1" d="M 12.757812 3.011719 C 6.589844 3.011719 3.558594 4.960938 3.558594 7.339844 L 3.558594 28.988281 L 21.957031 28.988281 L 21.957031 7.339844 C 21.957031 4.960938 18.925781 3.011719 12.757812 3.011719 Z M 27.371094 6.257812 C 26.175781 6.257812 25.207031 7.226562 25.207031 8.421875 C 25.207031 8.925781 25.394531 9.375 25.679688 9.742188 L 24.191406 13.429688 C 24.140625 13.558594 24.121094 13.695312 24.125 13.835938 L 24.125 18.164062 L 23.039062 18.164062 L 23.039062 23.578125 L 26.289062 23.578125 C 26.9375 23.578125 27.371094 23.144531 27.371094 22.496094 L 27.371094 19.246094 C 27.371094 18.597656 26.828125 18.164062 26.289062 18.164062 L 26.289062 14.070312 L 27.675781 10.554688 C 28.726562 10.40625 29.535156 9.515625 29.535156 8.421875 C 29.535156 7.226562 28.566406 6.257812 27.371094 6.257812 Z M 5.722656 8.421875 L 19.792969 8.421875 L 19.792969 16 L 5.722656 16 Z M 6.804688 9.503906 L 6.804688 14.917969 L 10.050781 14.917969 L 10.050781 9.503906 Z M 11.132812 9.503906 L 11.132812 14.917969 L 14.382812 14.917969 L 14.382812 9.503906 Z M 15.464844 9.503906 L 15.464844 14.917969 L 18.710938 14.917969 L 18.710938 9.503906 Z M 8.96875 21.410156 L 16.546875 21.410156 L 18.710938 23.578125 L 6.804688 23.578125 Z M 8.96875 21.410156 "/>

</g>%n%n</svg>