<svg width="300" height="35" viewBox="0 0 300 35" fill="none" xmlns="http://www.w3.org/2000/svg">

<g transform="translate(135.000000, 2.000000) scale(1.500000 1.500000) "> 

<g clip-path="url(#clip0)">
<path opacity="0.953" d="M9.99934 0C15.514 0 20 4.44646 20 10C20 15.5172 15.514 20 9.99934 20C4.48599 20 0 15.5172 0 10C0 4.44646 4.48599 0 9.99934 0V0Z" fill="#505050"/>
<path opacity="0.95" fill-rule="evenodd" clip-rule="evenodd" d="M10 19C14.9706 19 19 14.9706 19 10C19 5.02944 14.9706 1 10 1C5.02944 1 1 5.02944 1 10C1 14.9706 5.02944 19 10 19ZM10 20C15.5228 20 20 15.5228 20 10C20 4.47715 15.5228 0 10 0C4.47715 0 0 4.47715 0 10C0 15.5228 4.47715 20 10 20Z" fill="#909090"/>
</g>
<defs>
<clipPath id="clip0">
<path d="M0 0H20V20H0V0Z" fill="white"/>
</clipPath>
</defs>

</g>


<g transform="translate(141.000000, 8.000000) scale(0.031034 0.031034) "> 

<path d="M123.455 94.9032V513.506H456.545V94.9032C456.545 94.9032 398.451 53.4746 290 53.4746C181.549 53.4746 123.455 94.9032 123.455 94.9032ZM155.896 110.244H423.887V212.232H155.896V110.244ZM155.896 242.611H423.887V344.6H155.896V242.611Z" fill="#ffffff"/>
<path opacity="0.893" d="M391.135 193.476V131.09" stroke="#ffffff" stroke-width="25"/>
<path opacity="0.901" d="M357.501 130.819H180.119V193.205H357.501V130.819Z" fill="#ffffff"/>
<path opacity="0.904" d="M303.222 262.644H183.948V325.03H303.222V262.644Z" fill="#ffffff"/>

</g>

</svg>