<svg width="300" height="40" viewBox="0 0 300 40" fill="none" xmlns="http://www.w3.org/2000/svg" xmlns:xlink="http://www.w3.org/1999/xlink" version="1.1">

<g transform="translate(130.000000, 0.000000) scale(2.000000 2.000000) "> 

<g clip-path="url(#clip0)">
<path opacity="0.953" d="M9.99934 0C15.514 0 20 4.44646 20 10C20 15.5172 15.514 20 9.99934 20C4.48599 20 0 15.5172 0 10C0 4.44646 4.48599 0 9.99934 0V0Z" fill="#60BE60"/>
<path opacity="0.95" fill-rule="evenodd" clip-rule="evenodd" d="M10 19C14.9706 19 19 14.9706 19 10C19 5.02944 14.9706 1 10 1C5.02944 1 1 5.02944 1 10C1 14.9706 5.02944 19 10 19ZM10 20C15.5228 20 20 15.5228 20 10C20 4.47715 15.5228 0 10 0C4.47715 0 0 4.47715 0 10C0 15.5228 4.47715 20 10 20Z" fill="#398C39"/>
</g>
<defs>
<clipPath id="clip0">
<path d="M0 0H20V20H0V0Z" fill="white"/>
</clipPath>
</defs>

</g>%n%n
<g transform="translate(138.000000, 8.000000) scale(2.000000 2.000000) "> 

<g id="surface1">
<path style=" stroke:none;fill-rule:nonzero;fill:rgb(100%,100%,100%);fill-opacity:1;" d="M 4.695312 4.277344 C 3.019531 4.277344 1.6875 5.609375 1.6875 7.285156 C 1.6875 8.960938 3.019531 10.292969 4.695312 10.292969 C 6.371094 10.292969 7.703125 8.960938 7.703125 7.285156 C 7.703125 5.609375 6.371094 4.277344 4.695312 4.277344 Z M 4.480469 6.425781 C 4.136719 6.425781 3.835938 6.125 3.835938 5.78125 C 3.835938 5.4375 4.136719 5.136719 4.480469 5.136719 C 4.824219 5.136719 5.125 5.4375 5.125 5.78125 C 5.125 6.125 4.824219 6.425781 4.480469 6.425781 Z M 5.984375 6.855469 C 5.726562 6.855469 5.554688 6.683594 5.554688 6.425781 C 5.554688 6.167969 5.726562 5.996094 5.984375 5.996094 C 6.242188 5.996094 6.414062 6.167969 6.414062 6.425781 C 6.414062 6.683594 6.242188 6.855469 5.984375 6.855469 Z M 4.695312 7.714844 C 4.4375 7.714844 4.265625 7.542969 4.265625 7.285156 C 4.265625 7.027344 4.4375 6.855469 4.695312 6.855469 C 4.953125 6.855469 5.125 7.027344 5.125 7.285156 C 5.125 7.542969 4.953125 7.714844 4.695312 7.714844 Z M 4.695312 7.714844 "/>
<path style=" stroke:none;fill-rule:nonzero;fill:rgb(100%,100%,100%);fill-opacity:1;" d="M 8.089844 3.460938 C 8.089844 3.589844 8.089844 3.71875 8.046875 3.847656 L 9.507812 3.847656 C 9.507812 3.71875 9.464844 3.589844 9.464844 3.460938 C 9.464844 3.289062 9.550781 3.074219 9.59375 2.859375 C 9.636719 2.6875 9.636719 2.515625 9.59375 2.34375 C 9.507812 2.042969 9.292969 1.785156 8.992188 1.742188 C 8.390625 1.570312 7.875 2.042969 7.875 2.601562 C 7.875 2.6875 7.875 2.773438 7.917969 2.859375 C 8.003906 3.03125 8.089844 3.332031 8.089844 3.460938 Z M 8.089844 3.460938 "/>
<path style=" stroke:none;fill-rule:nonzero;fill:rgb(100%,100%,100%);fill-opacity:1;" d="M 9.59375 4.277344 L 8.003906 4.277344 C 7.917969 4.621094 7.832031 5.007812 7.746094 5.265625 C 8.132812 5.867188 8.347656 6.554688 8.347656 7.285156 C 8.347656 8.144531 8.046875 8.917969 7.574219 9.5625 C 7.660156 9.734375 8.175781 9.863281 8.820312 9.863281 C 9.507812 9.863281 10.066406 9.691406 10.066406 9.519531 C 10.066406 9.433594 10.195312 8.488281 10.28125 7.714844 C 10.367188 6.941406 10.28125 6.46875 10.023438 5.738281 C 9.9375 5.523438 9.722656 4.921875 9.59375 4.277344 Z M 9.59375 4.277344 "/>
</g>

</g>%n%n</svg>