<svg width="300" height="40" viewBox="0 0 300 40" fill="none" xmlns="http://www.w3.org/2000/svg" xmlns:xlink="http://www.w3.org/1999/xlink">

<g transform="translate(130.000000, 0.000000) scale(2.000000 2.000000) "> 

<g clip-path="url(#clip0)">
<path opacity="0.953" d="M9.99934 0C15.514 0 20 4.44646 20 10C20 15.5172 15.514 20 9.99934 20C4.48599 20 0 15.5172 0 10C0 4.44646 4.48599 0 9.99934 0V0Z" fill="#878787"/>
<path opacity="0.95" fill-rule="evenodd" clip-rule="evenodd" d="M10 19C14.9706 19 19 14.9706 19 10C19 5.02944 14.9706 1 10 1C5.02944 1 1 5.02944 1 10C1 14.9706 5.02944 19 10 19ZM10 20C15.5228 20 20 15.5228 20 10C20 4.47715 15.5228 0 10 0C4.47715 0 0 4.47715 0 10C0 15.5228 4.47715 20 10 20Z" fill="#404040"/>
</g>
<defs>
<clipPath id="clip0">
<path d="M0 0H20V20H0V0Z" fill="white"/>
</clipPath>
</defs>

</g>%n%n
<g transform="translate(138.000000, 8.000000) scale(0.750000 0.750000) "> 

<path fill-rule="nonzero" fill="rgb(100%, 100%, 100%)" fill-opacity="1" d="M 8 18.667969 C 8 15.722656 10.386719 13.332031 13.332031 13.332031 L 18.667969 13.332031 C 21.613281 13.332031 24 15.722656 24 18.667969 L 24 25.332031 C 24 29.332031 18.667969 28 18.667969 24 C 18.667969 22.667969 17.332031 21.332031 16 21.332031 C 14.667969 21.332031 13.332031 22.667969 13.332031 24 C 13.332031 28 8 29.332031 8 25.332031 Z M 8 18.667969 "/>
<path fill-rule="nonzero" fill="rgb(100%, 100%, 100%)" fill-opacity="1" d="M 13.332031 10.667969 C 13.332031 9.816406 13.128906 8.980469 12.742188 8.226562 C 12.351562 7.46875 11.789062 6.820312 11.097656 6.324219 C 10.40625 5.832031 9.609375 5.511719 8.769531 5.390625 C 7.925781 5.265625 7.070312 5.347656 6.265625 5.621094 L 8 10.667969 L 8 18.667969 L 13.332031 13.332031 Z M 13.332031 10.667969 "/>
<path fill-rule="evenodd" fill="rgb(100%, 100%, 100%)" fill-opacity="1" d="M 9.203125 8.574219 C 9.441406 8.078125 9.351562 7.46875 8.941406 7.058594 C 8.421875 6.535156 7.578125 6.535156 7.058594 7.058594 L 4 10.113281 C 2.667969 12 4 13.332031 5.332031 13.332031 L 11.261719 10.527344 C 11.921875 10.195312 12.1875 9.394531 11.859375 8.738281 C 11.53125 8.078125 10.730469 7.8125 10.070312 8.140625 Z M 9.203125 8.574219 "/>
<path fill-rule="evenodd" fill="rgb(100%, 100%, 100%)" fill-opacity="1" d="M 29.070312 23.203125 C 29.507812 23.792969 29.386719 24.628906 28.796875 25.070312 C 26.539062 26.75 24.644531 27.839844 22.621094 28.492188 C 20.601562 29.140625 18.539062 29.328125 16.003906 29.332031 L 15.96875 29.332031 C 13.121094 29.265625 10.90625 29.015625 8.890625 28.351562 C 6.859375 27.679688 5.113281 26.613281 3.164062 25.039062 C 2.589844 24.574219 2.5 23.734375 2.960938 23.164062 C 3.425781 22.589844 4.265625 22.5 4.835938 22.960938 C 6.636719 24.414062 8.097656 25.28125 9.726562 25.820312 C 11.375 26.363281 13.277344 26.601562 16.015625 26.667969 C 18.425781 26.660156 20.167969 26.480469 21.804688 25.953125 C 23.445312 25.425781 25.074219 24.519531 27.203125 22.929688 C 27.792969 22.492188 28.628906 22.613281 29.070312 23.203125 Z M 29.070312 23.203125 "/>

</g>%n%n</svg>