<svg width="300" height="40" viewBox="0 0 300 40" fill="none" xmlns="http://www.w3.org/2000/svg" xmlns:xlink="http://www.w3.org/1999/xlink">

<g transform="translate(130.000000, 0.000000) scale(2.000000 2.000000) "> 

<g clip-path="url(#clip0)">
<path opacity="0.953" d="M9.99934 0C15.514 0 20 4.44646 20 10C20 15.5172 15.514 20 9.99934 20C4.48599 20 0 15.5172 0 10C0 4.44646 4.48599 0 9.99934 0V0Z" fill="#878787"/>
<path opacity="0.95" fill-rule="evenodd" clip-rule="evenodd" d="M10 19C14.9706 19 19 14.9706 19 10C19 5.02944 14.9706 1 10 1C5.02944 1 1 5.02944 1 10C1 14.9706 5.02944 19 10 19ZM10 20C15.5228 20 20 15.5228 20 10C20 4.47715 15.5228 0 10 0C4.47715 0 0 4.47715 0 10C0 15.5228 4.47715 20 10 20Z" fill="#404040"/>
</g>
<defs>
<clipPath id="clip0">
<path d="M0 0H20V20H0V0Z" fill="white"/>
</clipPath>
</defs>

</g>%n%n
<g transform="translate(138.000000, 8.000000) scale(0.750000 0.750000) "> 

<defs>
<filter id="filter-remove-color" x="0%" y="0%" width="100%" height="100%">
<feColorMatrix color-interpolation-filters="sRGB" values="0 0 0 0 1 0 0 0 0 1 0 0 0 0 1 0 0 0 1 0" />
</filter>
<mask id="mask-0">
<g filter="url(#filter-remove-color)">
<rect x="-3.2" y="-3.2" width="38.4" height="38.4" fill="rgb(0%, 0%, 0%)" fill-opacity="0.5"/>
</g>
</mask>
<clip100Path id="clip100-0">
<rect x="0" y="0" width="32" height="32"/>
</clip100Path>
<g id="source-6" clip100-path="url(#clip100-0)">
<path fill-rule="nonzero" fill="rgb(100%, 100%, 100%)" fill-opacity="1" d="M 2.667969 2.667969 L 29.332031 2.667969 L 29.332031 20.472656 C 28.636719 19.683594 27.714844 19.105469 26.667969 18.835938 L 26.667969 18.667969 C 26.667969 15.722656 24.277344 13.332031 21.332031 13.332031 L 18.667969 13.332031 C 17.695312 13.332031 16.785156 13.59375 16 14.046875 C 15.214844 13.59375 14.304688 13.332031 13.332031 13.332031 L 10.667969 13.332031 C 7.722656 13.332031 5.332031 15.722656 5.332031 18.667969 L 5.332031 18.835938 C 4.285156 19.105469 3.363281 19.683594 2.667969 20.472656 Z M 2.667969 2.667969 "/>
</g>
</defs>
<g mask="url(#mask-0)">
<use xlink:href="#source-6"/>
</g>
<path fill-rule="nonzero" fill="rgb(100%, 100%, 100%)" fill-opacity="1" d="M 8 18.667969 C 8 17.195312 9.195312 16 10.667969 16 L 13.332031 16 C 14.804688 16 16 17.195312 16 18.667969 L 14.667969 18.667969 C 13.695312 18.667969 12.785156 18.925781 12 19.378906 C 11.214844 18.925781 10.304688 18.667969 9.332031 18.667969 Z M 8 18.667969 "/>
<path fill-rule="nonzero" fill="rgb(100%, 100%, 100%)" fill-opacity="1" d="M 24 18.667969 C 24 17.195312 22.804688 16 21.332031 16 L 18.667969 16 C 17.195312 16 16 17.195312 16 18.667969 L 17.332031 18.667969 C 18.304688 18.667969 19.214844 18.925781 20 19.378906 C 20.785156 18.925781 21.695312 18.667969 22.667969 18.667969 Z M 24 18.667969 "/>
<path fill-rule="evenodd" fill="rgb(100%, 100%, 100%)" fill-opacity="1" d="M 4 24 C 4 22.527344 5.195312 21.332031 6.667969 21.332031 L 9.332031 21.332031 C 10.804688 21.332031 12 22.527344 12 24 C 12 22.527344 13.195312 21.332031 14.667969 21.332031 L 17.332031 21.332031 C 18.804688 21.332031 20 22.527344 20 24 C 20 22.527344 21.195312 21.332031 22.667969 21.332031 L 25.332031 21.332031 C 26.804688 21.332031 28 22.527344 28 24 L 28 29.332031 L 4 29.332031 Z M 4 24 "/>

</g>%n%n</svg>