<svg width="300" height="40" viewBox="0 0 300 40" fill="none" xmlns="http://www.w3.org/2000/svg" xmlns:xlink="http://www.w3.org/1999/xlink">

<g transform="translate(130.000000, 0.000000) scale(2.000000 2.000000) "> 

<g clip-path="url(#clip0)">
<path opacity="0.953" d="M9.99934 0C15.514 0 20 4.44646 20 10C20 15.5172 15.514 20 9.99934 20C4.48599 20 0 15.5172 0 10C0 4.44646 4.48599 0 9.99934 0V0Z" fill="#878787"/>
<path opacity="0.95" fill-rule="evenodd" clip-rule="evenodd" d="M10 19C14.9706 19 19 14.9706 19 10C19 5.02944 14.9706 1 10 1C5.02944 1 1 5.02944 1 10C1 14.9706 5.02944 19 10 19ZM10 20C15.5228 20 20 15.5228 20 10C20 4.47715 15.5228 0 10 0C4.47715 0 0 4.47715 0 10C0 15.5228 4.47715 20 10 20Z" fill="#404040"/>
</g>
<defs>
<clipPath id="clip0">
<path d="M0 0H20V20H0V0Z" fill="white"/>
</clipPath>
</defs>

</g>%n%n
<g transform="translate(138.000000, 8.000000) scale(2.000000 2.000000) "> 

<path fill-rule="nonzero" fill="rgb(100%, 100%, 100%)" fill-opacity="1" d="M 4.785156 1.128906 C 2.46875 1.128906 1.332031 1.859375 1.332031 2.753906 L 1.332031 10.871094 L 8.234375 10.871094 L 8.234375 2.753906 C 8.234375 1.859375 7.097656 1.128906 4.785156 1.128906 Z M 10.265625 2.347656 C 9.816406 2.347656 9.453125 2.710938 9.453125 3.160156 C 9.453125 3.347656 9.523438 3.515625 9.628906 3.652344 L 9.070312 5.035156 C 9.054688 5.085938 9.042969 5.136719 9.046875 5.1875 L 9.046875 6.8125 L 8.640625 6.8125 L 8.640625 8.839844 L 9.859375 8.839844 C 10.101562 8.839844 10.265625 8.679688 10.265625 8.433594 L 10.265625 7.21875 C 10.265625 6.972656 10.0625 6.8125 9.859375 6.8125 L 9.859375 5.277344 L 10.378906 3.957031 C 10.773438 3.902344 11.074219 3.566406 11.074219 3.160156 C 11.074219 2.710938 10.710938 2.347656 10.265625 2.347656 Z M 2.144531 3.160156 L 7.421875 3.160156 L 7.421875 6 L 2.144531 6 Z M 2.550781 3.566406 L 2.550781 5.59375 L 3.769531 5.59375 L 3.769531 3.566406 Z M 4.175781 3.566406 L 4.175781 5.59375 L 5.394531 5.59375 L 5.394531 3.566406 Z M 5.800781 3.566406 L 5.800781 5.59375 L 7.015625 5.59375 L 7.015625 3.566406 Z M 3.363281 8.03125 L 6.203125 8.03125 L 7.015625 8.839844 L 2.550781 8.839844 Z M 3.363281 8.03125 "/>

</g>%n%n</svg>