<svg width="300" height="40" viewBox="0 0 300 40" fill="none" xmlns="http://www.w3.org/2000/svg" xmlns:xlink="http://www.w3.org/1999/xlink" version="1.1">

<g transform="translate(130.000000, 0.000000) scale(2.500000 2.500000) "> 

<path opacity="0.807" d="M7.51855 1.40062C7.17621 1.46832 7.04431 1.58674 6.84902 1.77556C6.71244 1.90761 6.61727 2.13225 6.51928 2.34466C6.33914 2.50475 6.12471 2.65133 6.02382 2.83342C5.9108 3.03742 5.88153 3.25923 5.84305 3.48119C5.73817 3.51207 5.5556 3.49307 5.48652 3.53308C5.34997 3.61218 5.24379 3.70915 5.15008 3.826C5.04456 3.95758 5.01481 4.16033 4.95425 4.33652C4.95695 4.3341 4.93057 4.36706 4.93751 4.35828C4.55266 4.8457 4.48059 5.44554 4.61613 6.01369C4.69954 6.3644 4.87121 6.68774 5.14674 6.96108C5.23716 7.05078 5.41089 7.05109 5.52837 7.12344C5.37748 7.35706 5.22875 7.63043 5.22875 7.94697C5.22875 8.44394 5.43695 8.83628 5.73425 9.15547C5.8112 9.23809 5.96918 9.23454 6.06399 9.30611H2.43179C2.40274 9.30571 2.37368 9.30683 2.34475 9.30947C1.1844 9.4319 0.999912 10.8195 1.67522 11.5691C1.75022 12.0403 2.05164 13.4974 3.80265 14.2757C3.90906 14.3231 4.02426 14.3477 4.14077 14.3477H11.9157C12.0322 14.3477 12.1474 14.3231 12.2538 14.2757C13.5963 13.679 14.1159 12.5057 14.316 11.5591C14.4604 11.4149 14.6401 11.2999 14.7143 11.1055C14.8423 10.7705 14.8026 10.405 14.6976 10.1514C14.5926 9.8978 14.4458 9.72712 14.2942 9.59569C14.2184 9.52997 14.1422 9.47459 14.0415 9.42161C13.9407 9.36863 13.8576 9.26949 13.4924 9.31114L13.5862 9.30611H9.62423C9.7246 9.23486 9.885 9.24767 9.96234 9.15882C10.2605 8.81623 10.3825 8.40301 10.3825 8.0089C10.3825 7.84977 10.3042 7.76191 10.2653 7.63396C10.5574 7.5227 10.8948 7.45331 11.042 7.25065C11.275 6.92976 11.3326 6.63442 11.3717 6.48571C11.3735 6.47848 11.3752 6.47123 11.3768 6.46395L11.3818 6.43885C11.4929 6.02403 11.4819 5.59667 11.3316 5.20021L11.3082 5.84631C11.5153 5.4019 11.4731 4.92041 11.3382 4.60098C11.2708 4.44127 11.1889 4.31495 11.0888 4.20261C11.0388 4.14644 10.9857 4.09362 10.9047 4.03523C10.8644 4.00614 10.7175 3.98571 10.6453 3.94986C10.6404 3.34548 10.3414 2.8461 9.84182 2.46685C9.74782 2.28299 9.65936 2.08165 9.54723 1.95968C9.46191 1.86688 9.38048 1.78937 9.27272 1.71363C9.21884 1.67576 9.16216 1.63747 9.05847 1.59479C8.95479 1.5521 8.7839 1.42123 8.3789 1.59646C8.29265 1.63388 8.33702 1.66752 8.28014 1.70861C8.22174 1.62398 8.27468 1.56455 8.07426 1.46758C8.07037 1.46587 8.06646 1.4642 8.06254 1.46256C7.78924 1.3353 7.58852 1.38677 7.51855 1.40062Z" fill="#EBE7E4"/>

</g>%n%n
<g transform="translate(139.000000, 9.000000) scale(1.833333 1.833333) "> 

<g id="surface1">
<path style=" stroke:none;fill-rule:nonzero;fill:rgb(33.333334%,33.333334%,33.333334%);fill-opacity:1;" d="M 1.097656 8.816406 C 0.613281 8.605469 0.75 7.945312 1.121094 7.90625 L 10.878906 7.90625 C 10.988281 7.894531 11.574219 8.386719 10.882812 8.824219 C 10.769531 9.542969 10.425781 10.414062 9.417969 10.863281 L 2.617188 10.863281 C 1.175781 10.222656 1.097656 8.816406 1.097656 8.816406 Z M 1.097656 8.816406 "/>
<path style=" stroke:none;fill-rule:nonzero;fill:rgb(33.333334%,33.333334%,33.333334%);fill-opacity:1;" d="M 5.714844 0.976562 C 5.617188 0.996094 5.363281 1.152344 5.277344 1.484375 C 4.953125 1.644531 4.765625 2.070312 4.765625 2.324219 C 4.765625 2.683594 4.980469 3.1875 5.453125 3.1875 C 5.949219 3.1875 6.058594 2.542969 6.058594 2.296875 C 6.058594 1.796875 5.925781 1.570312 5.765625 1.480469 C 5.828125 1.203125 5.785156 0.996094 5.742188 0.976562 C 5.734375 0.972656 5.726562 0.972656 5.714844 0.976562 Z M 6.613281 1.101562 C 6.570312 1.117188 6.554688 1.296875 6.570312 1.554688 C 6.316406 1.625 6.175781 1.941406 6.175781 2.445312 C 6.175781 2.714844 6.34375 3.304688 6.84375 3.304688 C 7.355469 3.304688 7.585938 2.835938 7.585938 2.507812 C 7.585938 2.214844 7.378906 1.8125 7.042969 1.632812 C 6.953125 1.324219 6.664062 1.078125 6.613281 1.101562 Z M 4.222656 2.738281 C 4.171875 2.726562 3.960938 2.847656 3.921875 3.253906 C 3.90625 3.265625 3.894531 3.285156 3.882812 3.300781 C 3.722656 3.503906 3.667969 3.824219 3.742188 4.128906 C 3.824219 4.480469 4.117188 4.832031 4.515625 4.832031 C 4.722656 4.832031 4.8125 4.703125 4.882812 4.601562 C 4.917969 4.554688 4.949219 4.507812 4.992188 4.46875 L 5.011719 4.453125 C 5.132812 4.347656 5.234375 4.253906 5.234375 4.03125 C 5.234375 3.90625 5.128906 3.761719 5.011719 3.597656 C 4.980469 3.558594 4.953125 3.515625 4.925781 3.476562 C 4.792969 3.28125 4.625 3.070312 4.363281 3.070312 C 4.355469 3.070312 4.34375 3.070312 4.332031 3.070312 C 4.304688 2.90625 4.257812 2.75 4.222656 2.738281 Z M 8.078125 3.144531 C 8.039062 3.144531 7.941406 3.292969 7.875 3.460938 C 7.804688 3.433594 7.726562 3.421875 7.644531 3.421875 C 7.421875 3.421875 7.214844 3.546875 7.050781 3.785156 L 6.996094 3.863281 C 6.871094 4.039062 6.765625 4.195312 6.765625 4.328125 C 6.765625 4.496094 6.84375 4.578125 6.914062 4.652344 C 6.945312 4.683594 6.976562 4.71875 7.007812 4.757812 L 7.023438 4.785156 C 7.148438 4.964844 7.304688 5.183594 7.578125 5.183594 C 8.070312 5.183594 8.171875 4.789062 8.242188 4.527344 L 8.25 4.484375 C 8.3125 4.261719 8.300781 4.03125 8.230469 3.84375 C 8.414062 3.449219 8.136719 3.144531 8.078125 3.144531 Z M 5.902344 4.246094 C 5.542969 4.246094 5.414062 4.324219 5.226562 4.835938 C 5.140625 5.078125 4.945312 5.203125 4.761719 5.324219 C 4.53125 5.476562 4.296875 5.632812 4.296875 5.988281 C 4.296875 6.367188 4.679688 6.832031 5.125 6.832031 C 5.316406 6.832031 5.457031 6.792969 5.585938 6.757812 C 5.6875 6.730469 5.777344 6.707031 5.878906 6.707031 C 5.976562 6.707031 6.050781 6.726562 6.136719 6.75 C 6.246094 6.78125 6.371094 6.820312 6.570312 6.820312 C 7.105469 6.820312 7.351562 6.417969 7.351562 6.042969 C 7.351562 5.792969 7.15625 5.605469 6.964844 5.421875 C 6.796875 5.257812 6.621094 5.089844 6.578125 4.882812 C 6.515625 4.609375 6.382812 4.246094 5.902344 4.246094 Z M 5.902344 4.246094 "/>
</g>

</g>%n%n</svg>