<svg width="300" height="40" viewBox="0 0 300 40" fill="none" xmlns="http://www.w3.org/2000/svg" xmlns:xlink="http://www.w3.org/1999/xlink" version="1.1">

<g transform="translate(138.000000, 8.000000) scale(2.000000 2.000000) "> 

<defs>
<filter id="alpha" filterUnits="objectBoundingBox" x="0%" y="0%" width="100%" height="100%">
  <feColorMatrix type="matrix" in="SourceGraphic" values="0 0 0 0 1 0 0 0 0 1 0 0 0 0 1 0 0 0 1 0"/>
</filter>
<mask id="mask0">
  <g filter="url(#alpha)">
<rect x="0" y="0" width="12" height="12" style="fill:rgb(0%,0%,0%);fill-opacity:0.75;stroke:none;"/>
  </g>
</mask>
<clip100Path id="clip1001">
  <rect x="0" y="0" width="12" height="12"/>
</clip100Path>
<g id="surface5" clip100-path="url(#clip1001)">
<path style=" stroke:none;fill-rule:evenodd;fill:rgb(22.352941%,67.450982%,22.352941%);fill-opacity:1;" d="M 1.5 6 C 1.777344 6 2 6.222656 2 6.5 L 2 8.5 C 2 8.777344 1.777344 9 1.5 9 C 1.222656 9 1 8.777344 1 8.5 L 1 6.5 C 1 6.222656 1.222656 6 1.5 6 Z M 1.5 6 "/>
</g>
<mask id="mask1">
  <g filter="url(#alpha)">
<rect x="0" y="0" width="12" height="12" style="fill:rgb(0%,0%,0%);fill-opacity:0.75;stroke:none;"/>
  </g>
</mask>
<clip100Path id="clip1002">
  <rect x="0" y="0" width="12" height="12"/>
</clip100Path>
<g id="surface8" clip100-path="url(#clip1002)">
<path style=" stroke:none;fill-rule:evenodd;fill:rgb(22.352941%,67.450982%,22.352941%);fill-opacity:1;" d="M 6 7 C 6.277344 7 6.5 7.222656 6.5 7.5 L 6.5 9.5 C 6.5 9.777344 6.277344 10 6 10 C 5.722656 10 5.5 9.777344 5.5 9.5 L 5.5 7.5 C 5.5 7.222656 5.722656 7 6 7 Z M 6 7 "/>
</g>
<mask id="mask2">
  <g filter="url(#alpha)">
<rect x="0" y="0" width="12" height="12" style="fill:rgb(0%,0%,0%);fill-opacity:0.75;stroke:none;"/>
  </g>
</mask>
<clip100Path id="clip1003">
  <rect x="0" y="0" width="12" height="12"/>
</clip100Path>
<g id="surface11" clip100-path="url(#clip1003)">
<path style=" stroke:none;fill-rule:evenodd;fill:rgb(22.352941%,67.450982%,22.352941%);fill-opacity:1;" d="M 10.5 6 C 10.777344 6 11 6.222656 11 6.5 L 11 8.5 C 11 8.777344 10.777344 9 10.5 9 C 10.222656 9 10 8.777344 10 8.5 L 10 6.5 C 10 6.222656 10.222656 6 10.5 6 Z M 10.5 6 "/>
</g>
</defs>
<g id="surface1">
<use xlink:href="#surface5" mask="url(#mask0)"/>
<use xlink:href="#surface8" mask="url(#mask1)"/>
<use xlink:href="#surface11" mask="url(#mask2)"/>
<path style=" stroke:none;fill-rule:nonzero;fill:rgb(22.352941%,67.450982%,22.352941%);fill-opacity:1;" d="M 11 6 C 11 7.105469 8.761719 8 6 8 C 3.238281 8 1 7.105469 1 6 C 1 4.894531 3.238281 4 6 4 C 8.761719 4 11 4.894531 11 6 Z M 11 6 "/>
</g>

</g>%n%n</svg>