<svg width="300" height="35" viewBox="0 0 300 35" fill="none" xmlns="http://www.w3.org/2000/svg" >

<g transform="translate(135.000000, 2.000000) scale(1.500000 1.500000) "> 

<g clip-path="url(#clip0)">
<path opacity="0.953" d="M9.99934 0C15.514 0 20 4.44646 20 10C20 15.5172 15.514 20 9.99934 20C4.48599 20 0 15.5172 0 10C0 4.44646 4.48599 0 9.99934 0V0Z" fill="#2E702E"/>
<path opacity="0.95" fill-rule="evenodd" clip-rule="evenodd" d="M10 19C14.9706 19 19 14.9706 19 10C19 5.02944 14.9706 1 10 1C5.02944 1 1 5.02944 1 10C1 14.9706 5.02944 19 10 19ZM10 20C15.5228 20 20 15.5228 20 10C20 4.47715 15.5228 0 10 0C4.47715 0 0 4.47715 0 10C0 15.5228 4.47715 20 10 20Z" fill="#44A544"/>
</g>
<defs>
<clipPath id="clip0">
<path d="M0 0H20V20H0V0Z" fill="white"/>
</clipPath>
</defs>

</g>


<g transform="translate(141.000000, 8.000000) scale(0.031034 0.031034) "> 

<path d="M192.718 56.7321C192.718 56.7321 269.568 54.9239 359.529 124.541C359.529 124.541 439.562 47.0763 565.868 54.4895C485.593 62.9542 395.399 130.613 359.529 185.118C359.529 185.118 273.185 82.9517 192.718 56.7321Z" fill="#ffffff"/>
<path d="M274.236 266.9H231.469C225.438 266.9 220.55 262.012 220.55 255.98V235.053C220.55 229.023 225.438 224.134 231.469 224.134H274.236C280.266 224.134 285.155 229.023 285.155 235.053V255.981C285.155 262.012 280.266 266.9 274.236 266.9Z" fill="#ffffff"/>
<path d="M92.2498 276.91H158.536H183.242H208.721H233.591H299.714L330.651 380.642V522.591H330.045C326.324 536.513 305.813 547.16 281.06 547.16C256.306 547.16 235.796 536.513 232.074 522.591H231.468V396.925L208.72 400.66V362.167H183.241V400.66L160.493 396.925V522.591H159.887C156.165 536.513 135.654 547.16 110.902 547.16C86.1473 547.16 65.637 536.513 61.9164 522.591H61.3103V380.642L92.2498 276.91Z" fill="#ffffff"/>
<path d="M160.495 266.9H117.727C111.698 266.9 106.808 262.012 106.808 255.98V235.053C106.808 229.023 111.698 224.134 117.727 224.134H160.495C166.526 224.134 171.414 229.023 171.414 235.053V255.981C171.414 262.012 166.526 266.9 160.495 266.9Z" fill="#ffffff"/>

</g>

</svg>